<?xml version="1.0" encoding="UTF-8" standalone="no"?>
<!DOCTYPE svg PUBLIC "-//W3C//DTD SVG 1.1//EN"
 "http://www.w3.org/Graphics/SVG/1.1/DTD/svg11.dtd">
<!-- Generated by graphviz version 2.36.0 (20140111.2315)
 -->
<!-- Title: slogo.backend.impl.parsing.SyntaxNode Pages: 1 -->
<svg width="432pt" height="126pt"
 viewBox="0.00 0.00 432.00 126.00" xmlns="http://www.w3.org/2000/svg" xmlns:xlink="http://www.w3.org/1999/xlink">
<g id="graph0" class="graph" transform="scale(1 1) rotate(0) translate(4 122)">
<title>slogo.backend.impl.parsing.SyntaxNode</title>
<polygon fill="white" stroke="none" points="-4,4 -4,-122 428,-122 428,4 -4,4"/>
<!-- Node1 -->
<g id="node1" class="node"><title>Node1</title>
<polygon fill="#bfbfbf" stroke="black" points="274,-49 274,-79 424,-79 424,-49 274,-49"/>
<text text-anchor="start" x="282" y="-67" font-family="Helvetica,sans-Serif" font-size="10.00">slogo.backend.impl.parsing.</text>
<text text-anchor="middle" x="349" y="-56" font-family="Helvetica,sans-Serif" font-size="10.00">SyntaxNode</text>
</g>
<!-- Node2 -->
<g id="node2" class="node"><title>Node2</title>
<g id="a_node2"><a xlink:href="../../d4/dcd/interfaceslogo_1_1backend_1_1parsing_1_1_i_syntax_node.html" target="_top" xlink:title="slogo.backend.parsing.ISyntaxNode">
<polygon fill="white" stroke="black" points="0,-98.5 0,-117.5 188,-117.5 188,-98.5 0,-98.5"/>
<text text-anchor="middle" x="94" y="-105.5" font-family="Helvetica,sans-Serif" font-size="10.00">slogo.backend.parsing.ISyntaxNode</text>
</a>
</g>
</g>
<!-- Node2&#45;&gt;Node1 -->
<g id="edge1" class="edge"><title>Node2&#45;&gt;Node1</title>
<path fill="none" stroke="midnightblue" d="M159.919,-96.7098C194.615,-90.6757 237.487,-83.2197 273.532,-76.951"/>
<polygon fill="midnightblue" stroke="midnightblue" points="159.15,-93.2909 149.897,-98.4527 160.349,-100.187 159.15,-93.2909"/>
</g>
<!-- Node3 -->
<g id="node3" class="node"><title>Node3</title>
<g id="a_node3"><a xlink:href="../../dc/d38/interfaceslogo_1_1backend_1_1evaluation_1_1_i_operation.html" target="_top" xlink:title="slogo.backend.evaluation.\lIOperation">
<polygon fill="white" stroke="black" points="23.5,-49 23.5,-79 164.5,-79 164.5,-49 23.5,-49"/>
<text text-anchor="start" x="31.5" y="-67" font-family="Helvetica,sans-Serif" font-size="10.00">slogo.backend.evaluation.</text>
<text text-anchor="middle" x="94" y="-56" font-family="Helvetica,sans-Serif" font-size="10.00">IOperation</text>
</a>
</g>
</g>
<!-- Node3&#45;&gt;Node1 -->
<g id="edge2" class="edge"><title>Node3&#45;&gt;Node1</title>
<path fill="none" stroke="#9a32cd" stroke-dasharray="5,2" d="M174.884,-64C206.458,-64 242.537,-64 273.557,-64"/>
<polygon fill="#9a32cd" stroke="#9a32cd" points="174.803,-60.5001 164.803,-64 174.803,-67.5001 174.803,-60.5001"/>
<text text-anchor="middle" x="231" y="-67" font-family="Helvetica,sans-Serif" font-size="10.00"> operation</text>
</g>
<!-- Node4 -->
<g id="node4" class="node"><title>Node4</title>
<polygon fill="white" stroke="#bfbfbf" points="16.5,-0 16.5,-30 171.5,-30 171.5,-0 16.5,-0"/>
<text text-anchor="start" x="24.5" y="-18" font-family="Helvetica,sans-Serif" font-size="10.00">List&lt; slogo.backend.parsing.</text>
<text text-anchor="middle" x="94" y="-7" font-family="Helvetica,sans-Serif" font-size="10.00">ISyntaxNode &gt;</text>
</g>
<!-- Node4&#45;&gt;Node1 -->
<g id="edge3" class="edge"><title>Node4&#45;&gt;Node1</title>
<path fill="none" stroke="#9a32cd" stroke-dasharray="5,2" d="M181.627,-31.7775C211.618,-37.5861 244.939,-44.0396 273.837,-49.6364"/>
<polygon fill="#9a32cd" stroke="#9a32cd" points="182.078,-28.2999 171.595,-29.8346 180.747,-35.1722 182.078,-28.2999"/>
<text text-anchor="middle" x="231" y="-49" font-family="Helvetica,sans-Serif" font-size="10.00"> children</text>
</g>
</g>
</svg>
