<?xml version="1.0" encoding="UTF-8" standalone="no"?>
<!DOCTYPE svg PUBLIC "-//W3C//DTD SVG 1.1//EN"
 "http://www.w3.org/Graphics/SVG/1.1/DTD/svg11.dtd">
<!-- Generated by graphviz version 2.36.0 (20140111.2315)
 -->
<!-- Title: slogo.UI.ScrollPaneCreator.createScrollPane Pages: 1 -->
<!--zoomable 87 -->
<svg id="main" version="1.1" xmlns="http://www.w3.org/2000/svg" xmlns:xlink="http://www.w3.org/1999/xlink" xml:space="preserve" onload="init(evt)">
<style type="text/css"><![CDATA[
.edge:hover path { stroke: red; }
.edge:hover polygon { stroke: red; fill: red; }
]]></style>
<script type="text/javascript"><![CDATA[
var edges = document.getElementsByTagName('g');
if (edges && edges.length) {
  for (var i=0;i<edges.length;i++) {
    if (edges[i].id.substr(0,4)=='edge') {
      edges[i].setAttribute('class','edge');
    }
  }
}
]]></script>
        <defs>
                <circle id="rim" cx="0" cy="0" r="7"/>
                <circle id="rim2" cx="0" cy="0" r="3.5"/>
                <g id="zoomPlus">
                        <use xlink:href="#rim" fill="#404040">
                                <set attributeName="fill" to="#808080" begin="zoomplus.mouseover" end="zoomplus.mouseout"/>
                        </use>
                        <path d="M-4,0h8M0,-4v8" fill="none" stroke="white" stroke-width="1.5" pointer-events="none"/>
                </g>
                <g id="zoomMin">
                        <use xlink:href="#rim" fill="#404040">
                                <set attributeName="fill" to="#808080" begin="zoomminus.mouseover" end="zoomminus.mouseout"/>
                        </use>
                        <path d="M-4,0h8" fill="none" stroke="white" stroke-width="1.5" pointer-events="none"/>
                </g>
                <g id="dirArrow">
                        <path fill="none" stroke="white" stroke-width="1.5" d="M0,-3.0v7 M-2.5,-0.5L0,-3.0L2.5,-0.5"/>
                </g>
               <g id="resetDef">
                       <use xlink:href="#rim2" fill="#404040">
                               <set attributeName="fill" to="#808080" begin="reset.mouseover" end="reset.mouseout"/>
                       </use>
               </g>
        </defs>

<script type="text/javascript">
var viewWidth = 1504;
var viewHeight = 87;
var sectionId = 'dynsection-1';
</script>
<script xlink:href="../../svgpan.js"/>
<svg id="graph" class="graph">
<g id="viewport">
<title>slogo.UI.ScrollPaneCreator.createScrollPane</title>
<polygon fill="white" stroke="none" points="-4,4 -4,-83 1500,-83 1500,4 -4,4"/>
<!-- Node1 -->
<g id="node1" class="node"><title>Node1</title>
<polygon fill="#bfbfbf" stroke="black" points="0,-24 0,-54 176,-54 176,-24 0,-24"/>
<text text-anchor="start" x="8" y="-42" font-family="Helvetica,sans-Serif" font-size="10.00">slogo.UI.ScrollPaneCreator.create</text>
<text text-anchor="middle" x="88" y="-31" font-family="Helvetica,sans-Serif" font-size="10.00">ScrollPane</text>
</g>
<!-- Node2 -->
<g id="node2" class="node"><title>Node2</title>
<g id="a_node2"><a xlink:href="../../db/d19/classslogo_1_1_u_i_1_1_module_creation_helper.html#a40fd39f4b9ff047ed4991b229cb71aa7" target="_top" xlink:title="slogo.UI.ModuleCreationHelper.create\lListScrollPane">
<polygon fill="white" stroke="black" points="212.5,-49 212.5,-79 409.5,-79 409.5,-49 212.5,-49"/>
<text text-anchor="start" x="220.5" y="-67" font-family="Helvetica,sans-Serif" font-size="10.00">slogo.UI.ModuleCreationHelper.create</text>
<text text-anchor="middle" x="311" y="-56" font-family="Helvetica,sans-Serif" font-size="10.00">ListScrollPane</text>
</a>
</g>
</g>
<!-- Node1&#45;&gt;Node2 -->
<g id="edge1" class="edge"><title>Node1&#45;&gt;Node2</title>
<path fill="none" stroke="midnightblue" d="M186.195,-49.995C194.912,-50.981 203.741,-51.9797 212.46,-52.9661"/>
<polygon fill="midnightblue" stroke="midnightblue" points="186.358,-46.4911 176.028,-48.8448 185.571,-53.4467 186.358,-46.4911"/>
</g>
<!-- Node8 -->
<g id="node8" class="node"><title>Node8</title>
<g id="a_node8"><a xlink:href="../../db/d19/classslogo_1_1_u_i_1_1_module_creation_helper.html#afebd9cf0d03be4e5535f4ff14f95d266" target="_top" xlink:title="slogo.UI.ModuleCreationHelper.create\lModuleScrollPane">
<polygon fill="white" stroke="black" points="212.5,-0 212.5,-30 409.5,-30 409.5,-0 212.5,-0"/>
<text text-anchor="start" x="220.5" y="-18" font-family="Helvetica,sans-Serif" font-size="10.00">slogo.UI.ModuleCreationHelper.create</text>
<text text-anchor="middle" x="311" y="-7" font-family="Helvetica,sans-Serif" font-size="10.00">ModuleScrollPane</text>
</a>
</g>
</g>
<!-- Node1&#45;&gt;Node8 -->
<g id="edge8" class="edge"><title>Node1&#45;&gt;Node8</title>
<path fill="none" stroke="midnightblue" d="M186.195,-28.4448C194.912,-27.4982 203.741,-26.5395 212.46,-25.5926"/>
<polygon fill="midnightblue" stroke="midnightblue" points="185.591,-24.9898 176.028,-29.549 186.347,-31.9488 185.591,-24.9898"/>
</g>
<!-- Node3 -->
<g id="node3" class="node"><title>Node3</title>
<g id="a_node3"><a xlink:href="../../db/d19/classslogo_1_1_u_i_1_1_module_creation_helper.html#afb9dbbbad7d872234a5b296fe129a34e" target="_top" xlink:title="slogo.UI.ModuleCreationHelper.create\lMainPageModules">
<polygon fill="white" stroke="black" points="446.5,-24 446.5,-54 643.5,-54 643.5,-24 446.5,-24"/>
<text text-anchor="start" x="454.5" y="-42" font-family="Helvetica,sans-Serif" font-size="10.00">slogo.UI.ModuleCreationHelper.create</text>
<text text-anchor="middle" x="545" y="-31" font-family="Helvetica,sans-Serif" font-size="10.00">MainPageModules</text>
</a>
</g>
</g>
<!-- Node2&#45;&gt;Node3 -->
<g id="edge2" class="edge"><title>Node2&#45;&gt;Node3</title>
<path fill="none" stroke="midnightblue" d="M419.722,-52.392C428.618,-51.4334 437.58,-50.4677 446.396,-49.5176"/>
<polygon fill="midnightblue" stroke="midnightblue" points="419.284,-48.9189 409.716,-53.4702 420.034,-55.8786 419.284,-48.9189"/>
</g>
<!-- Node4 -->
<g id="node4" class="node"><title>Node4</title>
<g id="a_node4"><a xlink:href="../../d9/d33/classslogo_1_1_u_i_1_1_main.html#a15b7f2e399ee24d160550993ab737e73" target="_top" xlink:title="slogo.UI.Main.start">
<polygon fill="white" stroke="black" points="680,-51.5 680,-70.5 786,-70.5 786,-51.5 680,-51.5"/>
<text text-anchor="middle" x="733" y="-58.5" font-family="Helvetica,sans-Serif" font-size="10.00">slogo.UI.Main.start</text>
</a>
</g>
</g>
<!-- Node3&#45;&gt;Node4 -->
<g id="edge3" class="edge"><title>Node3&#45;&gt;Node4</title>
<path fill="none" stroke="midnightblue" d="M653.804,-51.751C662.76,-52.8103 671.528,-53.8474 679.764,-54.8216"/>
<polygon fill="midnightblue" stroke="midnightblue" points="653.972,-48.2466 643.63,-50.5477 653.15,-55.1981 653.972,-48.2466"/>
</g>
<!-- Node5 -->
<g id="node5" class="node"><title>Node5</title>
<g id="a_node5"><a xlink:href="../../db/d19/classslogo_1_1_u_i_1_1_module_creation_helper.html#a3be12a7cc2b8a219db1e296211a2cb88" target="_top" xlink:title="slogo.UI.ModuleCreationHelper.activate\lExtraWorkspaceButton">
<polygon fill="white" stroke="black" points="822.5,-49 822.5,-79 1027.5,-79 1027.5,-49 822.5,-49"/>
<text text-anchor="start" x="830.5" y="-67" font-family="Helvetica,sans-Serif" font-size="10.00">slogo.UI.ModuleCreationHelper.activate</text>
<text text-anchor="middle" x="925" y="-56" font-family="Helvetica,sans-Serif" font-size="10.00">ExtraWorkspaceButton</text>
</a>
</g>
</g>
<!-- Node4&#45;&gt;Node5 -->
<g id="edge4" class="edge"><title>Node4&#45;&gt;Node5</title>
<path fill="none" stroke="midnightblue" d="M796.218,-61.9824C804.632,-62.1152 813.438,-62.2543 822.321,-62.3945"/>
<polygon fill="midnightblue" stroke="midnightblue" points="796.224,-58.4821 786.17,-61.8237 796.113,-65.4813 796.224,-58.4821"/>
</g>
<!-- Node6 -->
<g id="node6" class="node"><title>Node6</title>
<g id="a_node6"><a xlink:href="../../db/d19/classslogo_1_1_u_i_1_1_module_creation_helper.html#a702c1ebe24d2857a10c666eb1fcc315d" target="_top" xlink:title="slogo.UI.ModuleCreationHelper.create\lExtraWorkspaceButton">
<polygon fill="white" stroke="black" points="1064.5,-49 1064.5,-79 1261.5,-79 1261.5,-49 1064.5,-49"/>
<text text-anchor="start" x="1072.5" y="-67" font-family="Helvetica,sans-Serif" font-size="10.00">slogo.UI.ModuleCreationHelper.create</text>
<text text-anchor="middle" x="1163" y="-56" font-family="Helvetica,sans-Serif" font-size="10.00">ExtraWorkspaceButton</text>
</a>
</g>
</g>
<!-- Node5&#45;&gt;Node6 -->
<g id="edge5" class="edge"><title>Node5&#45;&gt;Node6</title>
<path fill="none" stroke="midnightblue" d="M1038.05,-64C1046.81,-64 1055.62,-64 1064.27,-64"/>
<polygon fill="midnightblue" stroke="midnightblue" points="1037.8,-60.5001 1027.8,-64 1037.8,-67.5001 1037.8,-60.5001"/>
</g>
<!-- Node7 -->
<g id="node7" class="node"><title>Node7</title>
<g id="a_node7"><a xlink:href="../../db/d19/classslogo_1_1_u_i_1_1_module_creation_helper.html#a7c650957b2389d6e6d36e8be8a33cd2b" target="_top" xlink:title="slogo.UI.ModuleCreationHelper.create\lSelectorVBoxModules">
<polygon fill="white" stroke="black" points="1298.5,-27 1298.5,-57 1495.5,-57 1495.5,-27 1298.5,-27"/>
<text text-anchor="start" x="1306.5" y="-45" font-family="Helvetica,sans-Serif" font-size="10.00">slogo.UI.ModuleCreationHelper.create</text>
<text text-anchor="middle" x="1397" y="-34" font-family="Helvetica,sans-Serif" font-size="10.00">SelectorVBoxModules</text>
</a>
</g>
</g>
<!-- Node6&#45;&gt;Node7 -->
<g id="edge6" class="edge"><title>Node6&#45;&gt;Node7</title>
<path fill="none" stroke="midnightblue" d="M1271.72,-53.785C1280.62,-52.9414 1289.58,-52.0915 1298.4,-51.2555"/>
<polygon fill="midnightblue" stroke="midnightblue" points="1271.34,-50.3053 1261.72,-54.7338 1272,-57.274 1271.34,-50.3053"/>
</g>
<!-- Node7&#45;&gt;Node3 -->
<g id="edge7" class="edge"><title>Node7&#45;&gt;Node3</title>
<path fill="none" stroke="midnightblue" d="M1288.27,-39.3776C1279.38,-39.2253 1270.54,-39.0956 1262,-39 1040.91,-36.5254 781.384,-37.4896 643.575,-38.3086"/>
<polygon fill="midnightblue" stroke="midnightblue" points="1288.24,-42.8776 1298.3,-39.5584 1288.37,-35.8787 1288.24,-42.8776"/>
</g>
<!-- Node8&#45;&gt;Node3 -->
<g id="edge9" class="edge"><title>Node8&#45;&gt;Node3</title>
<path fill="none" stroke="midnightblue" d="M419.722,-26.1436C428.618,-27.064 437.58,-27.991 446.396,-28.9031"/>
<polygon fill="midnightblue" stroke="midnightblue" points="420.024,-22.6563 409.716,-25.1086 419.303,-29.6191 420.024,-22.6563"/>
</g>
</g>
</svg>
        <g id="navigator" transform="translate(0 0)" fill="#404254">
                <rect fill="#f2f5e9" fill-opacity="0.5" stroke="#606060" stroke-width=".5" x="0" y="0" width="60" height="60"/>
                <use id="zoomplus" xlink:href="#zoomPlus" x="17" y="9" onmousedown="handleZoom(evt,'in')"/>
                <use id="zoomminus" xlink:href="#zoomMin" x="42" y="9" onmousedown="handleZoom(evt,'out')"/>
                <use id="reset" xlink:href="#resetDef" x="30" y="36" onmousedown="handleReset()"/>
                <g id="arrowUp" xlink:href="#dirArrow" transform="translate(30 24)" onmousedown="handlePan(0,-1)">
                  <use xlink:href="#rim" fill="#404040">
                        <set attributeName="fill" to="#808080" begin="arrowUp.mouseover" end="arrowUp.mouseout"/>
                  </use>
                  <path fill="none" stroke="white" stroke-width="1.5" d="M0,-3.0v7 M-2.5,-0.5L0,-3.0L2.5,-0.5"/>
                </g>
                <g id="arrowRight" xlink:href="#dirArrow" transform="rotate(90) translate(36 -43)" onmousedown="handlePan(1,0)">
                  <use xlink:href="#rim" fill="#404040">
                        <set attributeName="fill" to="#808080" begin="arrowRight.mouseover" end="arrowRight.mouseout"/>
                  </use>
                  <path fill="none" stroke="white" stroke-width="1.5" d="M0,-3.0v7 M-2.5,-0.5L0,-3.0L2.5,-0.5"/>
                </g>
                <g id="arrowDown" xlink:href="#dirArrow" transform="rotate(180) translate(-30 -48)" onmousedown="handlePan(0,1)">
                  <use xlink:href="#rim" fill="#404040">
                        <set attributeName="fill" to="#808080" begin="arrowDown.mouseover" end="arrowDown.mouseout"/>
                  </use>
                  <path fill="none" stroke="white" stroke-width="1.5" d="M0,-3.0v7 M-2.5,-0.5L0,-3.0L2.5,-0.5"/>
                </g>
                <g id="arrowLeft" xlink:href="#dirArrow" transform="rotate(270) translate(-36 17)" onmousedown="handlePan(-1,0)">
                  <use xlink:href="#rim" fill="#404040">
                        <set attributeName="fill" to="#808080" begin="arrowLeft.mouseover" end="arrowLeft.mouseout"/>
                  </use>
                  <path fill="none" stroke="white" stroke-width="1.5" d="M0,-3.0v7 M-2.5,-0.5L0,-3.0L2.5,-0.5"/>
                </g>
        </g>
        <svg viewBox="0 0 15 15" width="100%" height="30px" preserveAspectRatio="xMaxYMin meet">
         <g id="arrow_out" transform="scale(0.3 0.3)">
          <a xlink:href="classslogo_1_1_u_i_1_1_scroll_pane_creator_af7beea617783261f112cce8ed6d1141d_icgraph_org.svg" target="_base">
           <rect id="button" ry="5" rx="5" y="6" x="6" height="38" width="38"
                fill="#f2f5e9" fill-opacity="0.5" stroke="#606060" stroke-width="1.0"/>
           <path id="arrow"
             d="M 11.500037,31.436501 C 11.940474,20.09759 22.043105,11.32322 32.158766,21.979434 L 37.068811,17.246167 C 37.068811,17.246167 37.088388,32 37.088388,32 L 22.160133,31.978069 C 22.160133,31.978069 26.997745,27.140456 26.997745,27.140456 C 18.528582,18.264221 13.291696,25.230495 11.500037,31.436501 z"
             style="fill:#404040;"/>
          </a>
         </g>
        </svg>
</svg>
