<?xml version="1.0" encoding="UTF-8" standalone="no"?>
<!DOCTYPE svg PUBLIC "-//W3C//DTD SVG 1.1//EN"
 "http://www.w3.org/Graphics/SVG/1.1/DTD/svg11.dtd">
<!-- Generated by graphviz version 2.36.0 (20140111.2315)
 -->
<!-- Title: slogo.UI.ColorSelectorCreator.createSelectorWithLabel Pages: 1 -->
<svg width="1732pt" height="82pt"
 viewBox="0.00 0.00 1732.00 82.00" xmlns="http://www.w3.org/2000/svg" xmlns:xlink="http://www.w3.org/1999/xlink">
<g id="graph0" class="graph" transform="scale(1 1) rotate(0) translate(4 78)">
<title>slogo.UI.ColorSelectorCreator.createSelectorWithLabel</title>
<polygon fill="white" stroke="none" points="-4,4 -4,-78 1728,-78 1728,4 -4,4"/>
<!-- Node1 -->
<g id="node1" class="node"><title>Node1</title>
<polygon fill="#bfbfbf" stroke="black" points="0.5,-22 0.5,-52 191.5,-52 191.5,-22 0.5,-22"/>
<text text-anchor="start" x="8.5" y="-40" font-family="Helvetica,sans-Serif" font-size="10.00">slogo.UI.ColorSelectorCreator.create</text>
<text text-anchor="middle" x="96" y="-29" font-family="Helvetica,sans-Serif" font-size="10.00">SelectorWithLabel</text>
</g>
<!-- Node2 -->
<g id="node2" class="node"><title>Node2</title>
<g id="a_node2"><a xlink:href="../../d1/d5f/classslogo_1_1_u_i_1_1_path_color_selector.html#ad3d9c82a0904c97edcec7cf67b85bd7b" target="_top" xlink:title="slogo.UI.PathColorSelector.create">
<polygon fill="white" stroke="black" points="228,-49.5 228,-68.5 404,-68.5 404,-49.5 228,-49.5"/>
<text text-anchor="middle" x="316" y="-56.5" font-family="Helvetica,sans-Serif" font-size="10.00">slogo.UI.PathColorSelector.create</text>
</a>
</g>
</g>
<!-- Node1&#45;&gt;Node2 -->
<g id="edge1" class="edge"><title>Node1&#45;&gt;Node2</title>
<path fill="none" stroke="midnightblue" d="M201.89,-47.5852C210.624,-48.4666 219.393,-49.3516 227.972,-50.2174"/>
<polygon fill="midnightblue" stroke="midnightblue" points="201.968,-44.0754 191.667,-46.5535 201.265,-51.04 201.968,-44.0754"/>
</g>
<!-- Node9 -->
<g id="node9" class="node"><title>Node9</title>
<g id="a_node9"><a xlink:href="../../d4/d8d/classslogo_1_1_u_i_1_1_background_color_selector.html#ad75ba4ce104e071811d0fe039a4e839f" target="_top" xlink:title="slogo.UI.BackgroundColor\lSelector.create">
<polygon fill="white" stroke="black" points="246,-0 246,-30 386,-30 386,-0 246,-0"/>
<text text-anchor="start" x="254" y="-18" font-family="Helvetica,sans-Serif" font-size="10.00">slogo.UI.BackgroundColor</text>
<text text-anchor="middle" x="316" y="-7" font-family="Helvetica,sans-Serif" font-size="10.00">Selector.create</text>
</a>
</g>
</g>
<!-- Node1&#45;&gt;Node9 -->
<g id="edge9" class="edge"><title>Node1&#45;&gt;Node9</title>
<path fill="none" stroke="midnightblue" d="M201.923,-26.4115C216.779,-24.9122 231.737,-23.4027 245.69,-21.9946"/>
<polygon fill="midnightblue" stroke="midnightblue" points="201.265,-22.96 191.667,-27.4465 201.968,-29.9246 201.265,-22.96"/>
</g>
<!-- Node3 -->
<g id="node3" class="node"><title>Node3</title>
<g id="a_node3"><a xlink:href="../../db/d19/classslogo_1_1_u_i_1_1_module_creation_helper.html#af7f2919454fdbf6e9d7d912e99634857" target="_top" xlink:title="slogo.UI.ModuleCreationHelper.create\lSelectors">
<polygon fill="white" stroke="black" points="440.5,-22 440.5,-52 637.5,-52 637.5,-22 440.5,-22"/>
<text text-anchor="start" x="448.5" y="-40" font-family="Helvetica,sans-Serif" font-size="10.00">slogo.UI.ModuleCreationHelper.create</text>
<text text-anchor="middle" x="539" y="-29" font-family="Helvetica,sans-Serif" font-size="10.00">Selectors</text>
</a>
</g>
</g>
<!-- Node2&#45;&gt;Node3 -->
<g id="edge2" class="edge"><title>Node2&#45;&gt;Node3</title>
<path fill="none" stroke="midnightblue" d="M414.195,-49.3244C422.912,-48.4567 431.741,-47.5779 440.46,-46.7099"/>
<polygon fill="midnightblue" stroke="midnightblue" points="413.632,-45.8631 404.028,-50.3366 414.325,-52.8287 413.632,-45.8631"/>
</g>
<!-- Node4 -->
<g id="node4" class="node"><title>Node4</title>
<g id="a_node4"><a xlink:href="../../db/d19/classslogo_1_1_u_i_1_1_module_creation_helper.html#a7c650957b2389d6e6d36e8be8a33cd2b" target="_top" xlink:title="slogo.UI.ModuleCreationHelper.create\lSelectorVBoxModules">
<polygon fill="white" stroke="black" points="674.5,-22 674.5,-52 871.5,-52 871.5,-22 674.5,-22"/>
<text text-anchor="start" x="682.5" y="-40" font-family="Helvetica,sans-Serif" font-size="10.00">slogo.UI.ModuleCreationHelper.create</text>
<text text-anchor="middle" x="773" y="-29" font-family="Helvetica,sans-Serif" font-size="10.00">SelectorVBoxModules</text>
</a>
</g>
</g>
<!-- Node3&#45;&gt;Node4 -->
<g id="edge3" class="edge"><title>Node3&#45;&gt;Node4</title>
<path fill="none" stroke="midnightblue" d="M647.722,-37C656.618,-37 665.58,-37 674.396,-37"/>
<polygon fill="midnightblue" stroke="midnightblue" points="647.717,-33.5001 637.716,-37 647.716,-40.5001 647.717,-33.5001"/>
</g>
<!-- Node5 -->
<g id="node5" class="node"><title>Node5</title>
<g id="a_node5"><a xlink:href="../../db/d19/classslogo_1_1_u_i_1_1_module_creation_helper.html#afb9dbbbad7d872234a5b296fe129a34e" target="_top" xlink:title="slogo.UI.ModuleCreationHelper.create\lMainPageModules">
<polygon fill="white" stroke="black" points="908.5,-44 908.5,-74 1105.5,-74 1105.5,-44 908.5,-44"/>
<text text-anchor="start" x="916.5" y="-62" font-family="Helvetica,sans-Serif" font-size="10.00">slogo.UI.ModuleCreationHelper.create</text>
<text text-anchor="middle" x="1007" y="-51" font-family="Helvetica,sans-Serif" font-size="10.00">MainPageModules</text>
</a>
</g>
</g>
<!-- Node4&#45;&gt;Node5 -->
<g id="edge4" class="edge"><title>Node4&#45;&gt;Node5</title>
<path fill="none" stroke="midnightblue" d="M881.722,-47.215C890.618,-48.0586 899.58,-48.9085 908.396,-49.7445"/>
<polygon fill="midnightblue" stroke="midnightblue" points="882.002,-43.726 871.716,-46.2662 881.341,-50.6947 882.002,-43.726"/>
</g>
<!-- Node6 -->
<g id="node6" class="node"><title>Node6</title>
<g id="a_node6"><a xlink:href="../../d9/d33/classslogo_1_1_u_i_1_1_main.html#a15b7f2e399ee24d160550993ab737e73" target="_top" xlink:title="slogo.UI.Main.start">
<polygon fill="white" stroke="black" points="1142,-49.5 1142,-68.5 1248,-68.5 1248,-49.5 1142,-49.5"/>
<text text-anchor="middle" x="1195" y="-56.5" font-family="Helvetica,sans-Serif" font-size="10.00">slogo.UI.Main.start</text>
</a>
</g>
</g>
<!-- Node5&#45;&gt;Node6 -->
<g id="edge5" class="edge"><title>Node5&#45;&gt;Node6</title>
<path fill="none" stroke="midnightblue" d="M1115.8,-59C1124.76,-59 1133.53,-59 1141.76,-59"/>
<polygon fill="midnightblue" stroke="midnightblue" points="1115.63,-55.5001 1105.63,-59 1115.63,-62.5001 1115.63,-55.5001"/>
</g>
<!-- Node7 -->
<g id="node7" class="node"><title>Node7</title>
<g id="a_node7"><a xlink:href="../../db/d19/classslogo_1_1_u_i_1_1_module_creation_helper.html#a3be12a7cc2b8a219db1e296211a2cb88" target="_top" xlink:title="slogo.UI.ModuleCreationHelper.activate\lExtraWorkspaceButton">
<polygon fill="white" stroke="black" points="1284.5,-44 1284.5,-74 1489.5,-74 1489.5,-44 1284.5,-44"/>
<text text-anchor="start" x="1292.5" y="-62" font-family="Helvetica,sans-Serif" font-size="10.00">slogo.UI.ModuleCreationHelper.activate</text>
<text text-anchor="middle" x="1387" y="-51" font-family="Helvetica,sans-Serif" font-size="10.00">ExtraWorkspaceButton</text>
</a>
</g>
</g>
<!-- Node6&#45;&gt;Node7 -->
<g id="edge6" class="edge"><title>Node6&#45;&gt;Node7</title>
<path fill="none" stroke="midnightblue" d="M1258.22,-59C1266.63,-59 1275.44,-59 1284.32,-59"/>
<polygon fill="midnightblue" stroke="midnightblue" points="1258.17,-55.5001 1248.17,-59 1258.17,-62.5001 1258.17,-55.5001"/>
</g>
<!-- Node8 -->
<g id="node8" class="node"><title>Node8</title>
<g id="a_node8"><a xlink:href="../../db/d19/classslogo_1_1_u_i_1_1_module_creation_helper.html#a702c1ebe24d2857a10c666eb1fcc315d" target="_top" xlink:title="slogo.UI.ModuleCreationHelper.create\lExtraWorkspaceButton">
<polygon fill="white" stroke="black" points="1526.5,-22 1526.5,-52 1723.5,-52 1723.5,-22 1526.5,-22"/>
<text text-anchor="start" x="1534.5" y="-40" font-family="Helvetica,sans-Serif" font-size="10.00">slogo.UI.ModuleCreationHelper.create</text>
<text text-anchor="middle" x="1625" y="-29" font-family="Helvetica,sans-Serif" font-size="10.00">ExtraWorkspaceButton</text>
</a>
</g>
</g>
<!-- Node7&#45;&gt;Node8 -->
<g id="edge7" class="edge"><title>Node7&#45;&gt;Node8</title>
<path fill="none" stroke="midnightblue" d="M1499.77,-48.5812C1508.62,-47.7556 1517.52,-46.9257 1526.27,-46.1101"/>
<polygon fill="midnightblue" stroke="midnightblue" points="1499.43,-45.0972 1489.8,-49.5104 1500.08,-52.067 1499.43,-45.0972"/>
</g>
<!-- Node8&#45;&gt;Node4 -->
<g id="edge8" class="edge"><title>Node8&#45;&gt;Node4</title>
<path fill="none" stroke="midnightblue" d="M1516.27,-34.3776C1507.38,-34.2253 1498.54,-34.0956 1490,-34 1231.35,-31.105 1166.65,-31.105 908,-34 896.25,-34.1315 883.921,-34.3279 871.699,-34.5584"/>
<polygon fill="midnightblue" stroke="midnightblue" points="1516.24,-37.8776 1526.3,-34.5584 1516.37,-30.8787 1516.24,-37.8776"/>
</g>
<!-- Node9&#45;&gt;Node3 -->
<g id="edge10" class="edge"><title>Node9&#45;&gt;Node3</title>
<path fill="none" stroke="midnightblue" d="M396.274,-22.8915C410.565,-24.3142 425.616,-25.8125 440.358,-27.2799"/>
<polygon fill="midnightblue" stroke="midnightblue" points="396.314,-19.3783 386.017,-21.8704 395.621,-26.3439 396.314,-19.3783"/>
</g>
</g>
</svg>
