<?xml version="1.0" encoding="UTF-8" standalone="no"?>
<!DOCTYPE svg PUBLIC "-//W3C//DTD SVG 1.1//EN"
 "http://www.w3.org/Graphics/SVG/1.1/DTD/svg11.dtd">
<!-- Generated by graphviz version 2.36.0 (20140111.2315)
 -->
<!-- Title: slogo.UI.ColorSelectorCreator.getSelector Pages: 1 -->
<svg width="1716pt" height="82pt"
 viewBox="0.00 0.00 1716.00 82.00" xmlns="http://www.w3.org/2000/svg" xmlns:xlink="http://www.w3.org/1999/xlink">
<g id="graph0" class="graph" transform="scale(1 1) rotate(0) translate(4 78)">
<title>slogo.UI.ColorSelectorCreator.getSelector</title>
<polygon fill="white" stroke="none" points="-4,4 -4,-78 1712,-78 1712,4 -4,4"/>
<!-- Node1 -->
<g id="node1" class="node"><title>Node1</title>
<polygon fill="#bfbfbf" stroke="black" points="0,-22 0,-52 176,-52 176,-22 0,-22"/>
<text text-anchor="start" x="8" y="-40" font-family="Helvetica,sans-Serif" font-size="10.00">slogo.UI.ColorSelectorCreator.get</text>
<text text-anchor="middle" x="88" y="-29" font-family="Helvetica,sans-Serif" font-size="10.00">Selector</text>
</g>
<!-- Node2 -->
<g id="node2" class="node"><title>Node2</title>
<g id="a_node2"><a xlink:href="../../d1/d5f/classslogo_1_1_u_i_1_1_path_color_selector.html#ad3d9c82a0904c97edcec7cf67b85bd7b" target="_top" xlink:title="slogo.UI.PathColorSelector.create">
<polygon fill="white" stroke="black" points="212,-49.5 212,-68.5 388,-68.5 388,-49.5 212,-49.5"/>
<text text-anchor="middle" x="300" y="-56.5" font-family="Helvetica,sans-Serif" font-size="10.00">slogo.UI.PathColorSelector.create</text>
</a>
</g>
</g>
<!-- Node1&#45;&gt;Node2 -->
<g id="edge1" class="edge"><title>Node1&#45;&gt;Node2</title>
<path fill="none" stroke="midnightblue" d="M186.182,-47.1809C194.694,-48.0727 203.275,-48.9716 211.699,-49.8542"/>
<polygon fill="midnightblue" stroke="midnightblue" points="186.545,-43.6999 176.235,-46.1389 185.815,-50.6618 186.545,-43.6999"/>
</g>
<!-- Node9 -->
<g id="node9" class="node"><title>Node9</title>
<g id="a_node9"><a xlink:href="../../d4/d8d/classslogo_1_1_u_i_1_1_background_color_selector.html#ad75ba4ce104e071811d0fe039a4e839f" target="_top" xlink:title="slogo.UI.BackgroundColor\lSelector.create">
<polygon fill="white" stroke="black" points="230,-0 230,-30 370,-30 370,-0 230,-0"/>
<text text-anchor="start" x="238" y="-18" font-family="Helvetica,sans-Serif" font-size="10.00">slogo.UI.BackgroundColor</text>
<text text-anchor="middle" x="300" y="-7" font-family="Helvetica,sans-Serif" font-size="10.00">Selector.create</text>
</a>
</g>
</g>
<!-- Node1&#45;&gt;Node9 -->
<g id="edge9" class="edge"><title>Node1&#45;&gt;Node9</title>
<path fill="none" stroke="midnightblue" d="M186.374,-26.7989C201.087,-25.2576 216,-23.6952 229.951,-22.2337"/>
<polygon fill="midnightblue" stroke="midnightblue" points="185.815,-23.3382 176.235,-27.8611 186.545,-30.3001 185.815,-23.3382"/>
</g>
<!-- Node3 -->
<g id="node3" class="node"><title>Node3</title>
<g id="a_node3"><a xlink:href="../../db/d19/classslogo_1_1_u_i_1_1_module_creation_helper.html#af7f2919454fdbf6e9d7d912e99634857" target="_top" xlink:title="slogo.UI.ModuleCreationHelper.create\lSelectors">
<polygon fill="white" stroke="black" points="424.5,-22 424.5,-52 621.5,-52 621.5,-22 424.5,-22"/>
<text text-anchor="start" x="432.5" y="-40" font-family="Helvetica,sans-Serif" font-size="10.00">slogo.UI.ModuleCreationHelper.create</text>
<text text-anchor="middle" x="523" y="-29" font-family="Helvetica,sans-Serif" font-size="10.00">Selectors</text>
</a>
</g>
</g>
<!-- Node2&#45;&gt;Node3 -->
<g id="edge2" class="edge"><title>Node2&#45;&gt;Node3</title>
<path fill="none" stroke="midnightblue" d="M398.195,-49.3244C406.912,-48.4567 415.741,-47.5779 424.46,-46.7099"/>
<polygon fill="midnightblue" stroke="midnightblue" points="397.632,-45.8631 388.028,-50.3366 398.325,-52.8287 397.632,-45.8631"/>
</g>
<!-- Node4 -->
<g id="node4" class="node"><title>Node4</title>
<g id="a_node4"><a xlink:href="../../db/d19/classslogo_1_1_u_i_1_1_module_creation_helper.html#a7c650957b2389d6e6d36e8be8a33cd2b" target="_top" xlink:title="slogo.UI.ModuleCreationHelper.create\lSelectorVBoxModules">
<polygon fill="white" stroke="black" points="658.5,-22 658.5,-52 855.5,-52 855.5,-22 658.5,-22"/>
<text text-anchor="start" x="666.5" y="-40" font-family="Helvetica,sans-Serif" font-size="10.00">slogo.UI.ModuleCreationHelper.create</text>
<text text-anchor="middle" x="757" y="-29" font-family="Helvetica,sans-Serif" font-size="10.00">SelectorVBoxModules</text>
</a>
</g>
</g>
<!-- Node3&#45;&gt;Node4 -->
<g id="edge3" class="edge"><title>Node3&#45;&gt;Node4</title>
<path fill="none" stroke="midnightblue" d="M631.722,-37C640.618,-37 649.58,-37 658.396,-37"/>
<polygon fill="midnightblue" stroke="midnightblue" points="631.717,-33.5001 621.716,-37 631.716,-40.5001 631.717,-33.5001"/>
</g>
<!-- Node5 -->
<g id="node5" class="node"><title>Node5</title>
<g id="a_node5"><a xlink:href="../../db/d19/classslogo_1_1_u_i_1_1_module_creation_helper.html#afb9dbbbad7d872234a5b296fe129a34e" target="_top" xlink:title="slogo.UI.ModuleCreationHelper.create\lMainPageModules">
<polygon fill="white" stroke="black" points="892.5,-44 892.5,-74 1089.5,-74 1089.5,-44 892.5,-44"/>
<text text-anchor="start" x="900.5" y="-62" font-family="Helvetica,sans-Serif" font-size="10.00">slogo.UI.ModuleCreationHelper.create</text>
<text text-anchor="middle" x="991" y="-51" font-family="Helvetica,sans-Serif" font-size="10.00">MainPageModules</text>
</a>
</g>
</g>
<!-- Node4&#45;&gt;Node5 -->
<g id="edge4" class="edge"><title>Node4&#45;&gt;Node5</title>
<path fill="none" stroke="midnightblue" d="M865.722,-47.215C874.618,-48.0586 883.58,-48.9085 892.396,-49.7445"/>
<polygon fill="midnightblue" stroke="midnightblue" points="866.002,-43.726 855.716,-46.2662 865.341,-50.6947 866.002,-43.726"/>
</g>
<!-- Node6 -->
<g id="node6" class="node"><title>Node6</title>
<g id="a_node6"><a xlink:href="../../d9/d33/classslogo_1_1_u_i_1_1_main.html#a15b7f2e399ee24d160550993ab737e73" target="_top" xlink:title="slogo.UI.Main.start">
<polygon fill="white" stroke="black" points="1126,-49.5 1126,-68.5 1232,-68.5 1232,-49.5 1126,-49.5"/>
<text text-anchor="middle" x="1179" y="-56.5" font-family="Helvetica,sans-Serif" font-size="10.00">slogo.UI.Main.start</text>
</a>
</g>
</g>
<!-- Node5&#45;&gt;Node6 -->
<g id="edge5" class="edge"><title>Node5&#45;&gt;Node6</title>
<path fill="none" stroke="midnightblue" d="M1099.8,-59C1108.76,-59 1117.53,-59 1125.76,-59"/>
<polygon fill="midnightblue" stroke="midnightblue" points="1099.63,-55.5001 1089.63,-59 1099.63,-62.5001 1099.63,-55.5001"/>
</g>
<!-- Node7 -->
<g id="node7" class="node"><title>Node7</title>
<g id="a_node7"><a xlink:href="../../db/d19/classslogo_1_1_u_i_1_1_module_creation_helper.html#a3be12a7cc2b8a219db1e296211a2cb88" target="_top" xlink:title="slogo.UI.ModuleCreationHelper.activate\lExtraWorkspaceButton">
<polygon fill="white" stroke="black" points="1268.5,-44 1268.5,-74 1473.5,-74 1473.5,-44 1268.5,-44"/>
<text text-anchor="start" x="1276.5" y="-62" font-family="Helvetica,sans-Serif" font-size="10.00">slogo.UI.ModuleCreationHelper.activate</text>
<text text-anchor="middle" x="1371" y="-51" font-family="Helvetica,sans-Serif" font-size="10.00">ExtraWorkspaceButton</text>
</a>
</g>
</g>
<!-- Node6&#45;&gt;Node7 -->
<g id="edge6" class="edge"><title>Node6&#45;&gt;Node7</title>
<path fill="none" stroke="midnightblue" d="M1242.22,-59C1250.63,-59 1259.44,-59 1268.32,-59"/>
<polygon fill="midnightblue" stroke="midnightblue" points="1242.17,-55.5001 1232.17,-59 1242.17,-62.5001 1242.17,-55.5001"/>
</g>
<!-- Node8 -->
<g id="node8" class="node"><title>Node8</title>
<g id="a_node8"><a xlink:href="../../db/d19/classslogo_1_1_u_i_1_1_module_creation_helper.html#a702c1ebe24d2857a10c666eb1fcc315d" target="_top" xlink:title="slogo.UI.ModuleCreationHelper.create\lExtraWorkspaceButton">
<polygon fill="white" stroke="black" points="1510.5,-22 1510.5,-52 1707.5,-52 1707.5,-22 1510.5,-22"/>
<text text-anchor="start" x="1518.5" y="-40" font-family="Helvetica,sans-Serif" font-size="10.00">slogo.UI.ModuleCreationHelper.create</text>
<text text-anchor="middle" x="1609" y="-29" font-family="Helvetica,sans-Serif" font-size="10.00">ExtraWorkspaceButton</text>
</a>
</g>
</g>
<!-- Node7&#45;&gt;Node8 -->
<g id="edge7" class="edge"><title>Node7&#45;&gt;Node8</title>
<path fill="none" stroke="midnightblue" d="M1483.77,-48.5812C1492.62,-47.7556 1501.52,-46.9257 1510.27,-46.1101"/>
<polygon fill="midnightblue" stroke="midnightblue" points="1483.43,-45.0972 1473.8,-49.5104 1484.08,-52.067 1483.43,-45.0972"/>
</g>
<!-- Node8&#45;&gt;Node4 -->
<g id="edge8" class="edge"><title>Node8&#45;&gt;Node4</title>
<path fill="none" stroke="midnightblue" d="M1500.27,-34.3776C1491.38,-34.2253 1482.54,-34.0956 1474,-34 1215.35,-31.105 1150.65,-31.105 892,-34 880.25,-34.1315 867.921,-34.3279 855.699,-34.5584"/>
<polygon fill="midnightblue" stroke="midnightblue" points="1500.24,-37.8776 1510.3,-34.5584 1500.37,-30.8787 1500.24,-37.8776"/>
</g>
<!-- Node9&#45;&gt;Node3 -->
<g id="edge10" class="edge"><title>Node9&#45;&gt;Node3</title>
<path fill="none" stroke="midnightblue" d="M380.274,-22.8915C394.565,-24.3142 409.616,-25.8125 424.358,-27.2799"/>
<polygon fill="midnightblue" stroke="midnightblue" points="380.314,-19.3783 370.017,-21.8704 379.621,-26.3439 380.314,-19.3783"/>
</g>
</g>
</svg>
