<?xml version="1.0" encoding="UTF-8" standalone="no"?>
<!DOCTYPE svg PUBLIC "-//W3C//DTD SVG 1.1//EN"
 "http://www.w3.org/Graphics/SVG/1.1/DTD/svg11.dtd">
<!-- Generated by graphviz version 2.36.0 (20140111.2315)
 -->
<!-- Title: slogo.UI.MethodRunner.setPenThickness Pages: 1 -->
<svg width="338pt" height="164pt"
 viewBox="0.00 0.00 338.00 164.00" xmlns="http://www.w3.org/2000/svg" xmlns:xlink="http://www.w3.org/1999/xlink">
<g id="graph0" class="graph" transform="scale(1 1) rotate(0) translate(4 160)">
<title>slogo.UI.MethodRunner.setPenThickness</title>
<polygon fill="white" stroke="none" points="-4,4 -4,-160 334,-160 334,4 -4,4"/>
<!-- Node1 -->
<g id="node1" class="node"><title>Node1</title>
<polygon fill="#bfbfbf" stroke="black" points="0,-71 0,-101 144,-101 144,-71 0,-71"/>
<text text-anchor="start" x="8" y="-89" font-family="Helvetica,sans-Serif" font-size="10.00">slogo.UI.MethodRunner.set</text>
<text text-anchor="middle" x="72" y="-78" font-family="Helvetica,sans-Serif" font-size="10.00">PenThickness</text>
</g>
<!-- Node2 -->
<g id="node2" class="node"><title>Node2</title>
<g id="a_node2"><a xlink:href="../../d5/deb/classslogo_1_1_u_i_1_1_turtle.html#a33702e403a8c52f3cfcd77f223695543" target="_top" xlink:title="slogo.UI.Turtle.getThickness">
<polygon fill="white" stroke="black" points="180.5,-136.5 180.5,-155.5 329.5,-155.5 329.5,-136.5 180.5,-136.5"/>
<text text-anchor="middle" x="255" y="-143.5" font-family="Helvetica,sans-Serif" font-size="10.00">slogo.UI.Turtle.getThickness</text>
</a>
</g>
</g>
<!-- Node1&#45;&gt;Node2 -->
<g id="edge1" class="edge"><title>Node1&#45;&gt;Node2</title>
<path fill="none" stroke="midnightblue" d="M109.279,-101.09C129.825,-109.335 156.119,-119.386 180,-127 187.553,-129.408 195.612,-131.727 203.53,-133.868"/>
<polygon fill="midnightblue" stroke="midnightblue" points="202.873,-137.314 213.435,-136.477 204.657,-130.545 202.873,-137.314"/>
</g>
<!-- Node3 -->
<g id="node3" class="node"><title>Node3</title>
<g id="a_node3"><a xlink:href="../../d5/deb/classslogo_1_1_u_i_1_1_turtle.html#a55344b9d9b4eb0ea6f1dbac099231ade" target="_top" xlink:title="slogo.UI.Turtle.setThickness">
<polygon fill="white" stroke="black" points="181,-98.5 181,-117.5 329,-117.5 329,-98.5 181,-98.5"/>
<text text-anchor="middle" x="255" y="-105.5" font-family="Helvetica,sans-Serif" font-size="10.00">slogo.UI.Turtle.setThickness</text>
</a>
</g>
</g>
<!-- Node1&#45;&gt;Node3 -->
<g id="edge2" class="edge"><title>Node1&#45;&gt;Node3</title>
<path fill="none" stroke="midnightblue" d="M144.016,-94.6318C152.795,-95.6989 161.831,-96.7972 170.772,-97.8838"/>
<polygon fill="midnightblue" stroke="midnightblue" points="170.457,-101.371 180.806,-99.1035 171.302,-94.4224 170.457,-101.371"/>
</g>
<!-- Node4 -->
<g id="node4" class="node"><title>Node4</title>
<g id="a_node4"><a xlink:href="../../d2/d25/classslogo_1_1backend_1_1impl_1_1util_1_1_qualities.html#af41ef7e9f79c8f02afe5118705d0f6a7" target="_top" xlink:title="slogo.backend.impl.util.\lQualities.thickness">
<polygon fill="white" stroke="black" points="190.5,-49 190.5,-79 319.5,-79 319.5,-49 190.5,-49"/>
<text text-anchor="start" x="198.5" y="-67" font-family="Helvetica,sans-Serif" font-size="10.00">slogo.backend.impl.util.</text>
<text text-anchor="middle" x="255" y="-56" font-family="Helvetica,sans-Serif" font-size="10.00">Qualities.thickness</text>
</a>
</g>
</g>
<!-- Node1&#45;&gt;Node4 -->
<g id="edge3" class="edge"><title>Node1&#45;&gt;Node4</title>
<path fill="none" stroke="midnightblue" d="M144.016,-77.3682C155.932,-75.9198 168.321,-74.414 180.302,-72.9577"/>
<polygon fill="midnightblue" stroke="midnightblue" points="180.747,-76.4295 190.252,-71.7484 179.903,-69.4806 180.747,-76.4295"/>
</g>
<!-- Node5 -->
<g id="node5" class="node"><title>Node5</title>
<g id="a_node5"><a xlink:href="../../da/dce/interfaceslogo_1_1backend_1_1util_1_1_i_turtle_status.html#ab3f3312b9c4289ea7750dbcaa91819eb" target="_top" xlink:title="slogo.backend.util.ITurtle\lStatus.turtleQualities">
<polygon fill="white" stroke="black" points="188,-0 188,-30 322,-30 322,-0 188,-0"/>
<text text-anchor="start" x="196" y="-18" font-family="Helvetica,sans-Serif" font-size="10.00">slogo.backend.util.ITurtle</text>
<text text-anchor="middle" x="255" y="-7" font-family="Helvetica,sans-Serif" font-size="10.00">Status.turtleQualities</text>
</a>
</g>
</g>
<!-- Node1&#45;&gt;Node5 -->
<g id="edge4" class="edge"><title>Node1&#45;&gt;Node5</title>
<path fill="none" stroke="midnightblue" d="M106.45,-70.7996C127.407,-61.4815 155.076,-49.5499 180,-40 185.817,-37.7711 191.929,-35.5372 198.043,-33.3717"/>
<polygon fill="midnightblue" stroke="midnightblue" points="199.32,-36.6332 207.61,-30.0359 197.016,-30.0234 199.32,-36.6332"/>
</g>
</g>
</svg>
