<?xml version="1.0" encoding="UTF-8" standalone="no"?>
<!DOCTYPE svg PUBLIC "-//W3C//DTD SVG 1.1//EN"
 "http://www.w3.org/Graphics/SVG/1.1/DTD/svg11.dtd">
<!-- Generated by graphviz version 2.36.0 (20140111.2315)
 -->
<!-- Title: slogo.UI.MethodRunner.setTurtleStatus Pages: 1 -->
<svg width="2536pt" height="427pt"
 viewBox="0.00 0.00 2536.00 427.00" xmlns="http://www.w3.org/2000/svg" xmlns:xlink="http://www.w3.org/1999/xlink">
<g id="graph0" class="graph" transform="scale(1 1) rotate(0) translate(4 423)">
<title>slogo.UI.MethodRunner.setTurtleStatus</title>
<polygon fill="white" stroke="none" points="-4,4 -4,-423 2532,-423 2532,4 -4,4"/>
<!-- Node1 -->
<g id="node1" class="node"><title>Node1</title>
<polygon fill="#bfbfbf" stroke="black" points="0,-49 0,-79 144,-79 144,-49 0,-49"/>
<text text-anchor="start" x="8" y="-67" font-family="Helvetica,sans-Serif" font-size="10.00">slogo.UI.MethodRunner.set</text>
<text text-anchor="middle" x="72" y="-56" font-family="Helvetica,sans-Serif" font-size="10.00">TurtleStatus</text>
</g>
<!-- Node2 -->
<g id="node2" class="node"><title>Node2</title>
<g id="a_node2"><a xlink:href="../../df/d2d/classslogo_1_1_view.html#accc79c56511a72090ff8a4d414b8d1f5" target="_top" xlink:title="slogo.View.executeTurtle\lCommands">
<polygon fill="white" stroke="black" points="180.5,-49 180.5,-79 313.5,-79 313.5,-49 180.5,-49"/>
<text text-anchor="start" x="188.5" y="-67" font-family="Helvetica,sans-Serif" font-size="10.00">slogo.View.executeTurtle</text>
<text text-anchor="middle" x="247" y="-56" font-family="Helvetica,sans-Serif" font-size="10.00">Commands</text>
</a>
</g>
</g>
<!-- Node1&#45;&gt;Node2 -->
<g id="edge1" class="edge"><title>Node1&#45;&gt;Node2</title>
<path fill="none" stroke="midnightblue" d="M154.49,-64C163.159,-64 171.895,-64 180.349,-64"/>
<polygon fill="midnightblue" stroke="midnightblue" points="154.365,-60.5001 144.365,-64 154.364,-67.5001 154.365,-60.5001"/>
</g>
<!-- Node3 -->
<g id="node3" class="node"><title>Node3</title>
<g id="a_node3"><a xlink:href="../../df/d2d/classslogo_1_1_view.html#aa90e5d95d422b58b7f4b7f8a049defe1" target="_top" xlink:title="slogo.View.executeCommand">
<polygon fill="white" stroke="black" points="350,-54.5 350,-73.5 508,-73.5 508,-54.5 350,-54.5"/>
<text text-anchor="middle" x="429" y="-61.5" font-family="Helvetica,sans-Serif" font-size="10.00">slogo.View.executeCommand</text>
</a>
</g>
</g>
<!-- Node2&#45;&gt;Node3 -->
<g id="edge2" class="edge"><title>Node2&#45;&gt;Node3</title>
<path fill="none" stroke="midnightblue" d="M323.784,-64C332.42,-64 341.235,-64 349.901,-64"/>
<polygon fill="midnightblue" stroke="midnightblue" points="323.748,-60.5001 313.748,-64 323.748,-67.5001 323.748,-60.5001"/>
</g>
<!-- Node4 -->
<g id="node4" class="node"><title>Node4</title>
<g id="a_node4"><a xlink:href="../../df/d2d/classslogo_1_1_view.html#aee563f6a0b15ac6668e4dcbdad40c73c" target="_top" xlink:title="slogo.View.sendCommandTo\lBackend">
<polygon fill="white" stroke="black" points="550,-213 550,-243 702,-243 702,-213 550,-213"/>
<text text-anchor="start" x="558" y="-231" font-family="Helvetica,sans-Serif" font-size="10.00">slogo.View.sendCommandTo</text>
<text text-anchor="middle" x="626" y="-220" font-family="Helvetica,sans-Serif" font-size="10.00">Backend</text>
</a>
</g>
</g>
<!-- Node3&#45;&gt;Node4 -->
<g id="edge3" class="edge"><title>Node3&#45;&gt;Node4</title>
<path fill="none" stroke="midnightblue" d="M449.054,-80.0252C486.765,-111.741 570.433,-182.108 607.146,-212.984"/>
<polygon fill="midnightblue" stroke="midnightblue" points="451.233,-77.2841 441.327,-73.5262 446.727,-82.6414 451.233,-77.2841"/>
</g>
<!-- Node24 -->
<g id="node24" class="node"><title>Node24</title>
<g id="a_node24"><a xlink:href="../../df/d2d/classslogo_1_1_view.html#a4c3084a198acf85804800d70eff9ee51" target="_top" xlink:title="slogo.View.stepIntoCommand">
<polygon fill="white" stroke="black" points="547,-54.5 547,-73.5 705,-73.5 705,-54.5 547,-54.5"/>
<text text-anchor="middle" x="626" y="-61.5" font-family="Helvetica,sans-Serif" font-size="10.00">slogo.View.stepIntoCommand</text>
</a>
</g>
</g>
<!-- Node3&#45;&gt;Node24 -->
<g id="edge31" class="edge"><title>Node3&#45;&gt;Node24</title>
<path fill="none" stroke="midnightblue" d="M518.402,-64C527.87,-64 537.454,-64 546.792,-64"/>
<polygon fill="midnightblue" stroke="midnightblue" points="518.19,-60.5001 508.19,-64 518.19,-67.5001 518.19,-60.5001"/>
</g>
<!-- Node28 -->
<g id="node28" class="node"><title>Node28</title>
<g id="a_node28"><a xlink:href="../../df/d2d/classslogo_1_1_view.html#ac8b7f574c679e744a430f1649dc55e68" target="_top" xlink:title="slogo.View.stepOverCommand">
<polygon fill="white" stroke="black" points="544.5,-11.5 544.5,-30.5 707.5,-30.5 707.5,-11.5 544.5,-11.5"/>
<text text-anchor="middle" x="626" y="-18.5" font-family="Helvetica,sans-Serif" font-size="10.00">slogo.View.stepOverCommand</text>
</a>
</g>
</g>
<!-- Node3&#45;&gt;Node28 -->
<g id="edge36" class="edge"><title>Node3&#45;&gt;Node28</title>
<path fill="none" stroke="midnightblue" d="M483.056,-52.3005C514.068,-45.462 552.711,-36.9406 581.844,-30.5164"/>
<polygon fill="midnightblue" stroke="midnightblue" points="482.288,-48.8855 473.277,-54.4569 483.796,-55.7213 482.288,-48.8855"/>
</g>
<!-- Node5 -->
<g id="node5" class="node"><title>Node5</title>
<g id="a_node5"><a xlink:href="../../db/d19/classslogo_1_1_u_i_1_1_module_creation_helper.html#a69e17abcc7cf9a6ed7261d8fb1d631fa" target="_top" xlink:title="slogo.UI.ModuleCreationHelper.activate\lIncreaseDecreaseButtons">
<polygon fill="white" stroke="black" points="744.5,-389 744.5,-419 949.5,-419 949.5,-389 744.5,-389"/>
<text text-anchor="start" x="752.5" y="-407" font-family="Helvetica,sans-Serif" font-size="10.00">slogo.UI.ModuleCreationHelper.activate</text>
<text text-anchor="middle" x="847" y="-396" font-family="Helvetica,sans-Serif" font-size="10.00">IncreaseDecreaseButtons</text>
</a>
</g>
</g>
<!-- Node4&#45;&gt;Node5 -->
<g id="edge4" class="edge"><title>Node4&#45;&gt;Node5</title>
<path fill="none" stroke="midnightblue" d="M640.043,-252.219C658.779,-284.724 696.363,-342.06 744,-374 753.122,-380.116 763.514,-385.01 774.092,-388.919"/>
<polygon fill="midnightblue" stroke="midnightblue" points="643.013,-250.361 635.054,-243.368 636.915,-253.798 643.013,-250.361"/>
</g>
<!-- Node12 -->
<g id="node12" class="node"><title>Node12</title>
<g id="a_node12"><a xlink:href="../../db/d19/classslogo_1_1_u_i_1_1_module_creation_helper.html#aa70b0ad9e90e62509149bfd2ef2ba209" target="_top" xlink:title="slogo.UI.ModuleCreationHelper.activate\lKeyEvents">
<polygon fill="white" stroke="black" points="1470.5,-136 1470.5,-166 1675.5,-166 1675.5,-136 1470.5,-136"/>
<text text-anchor="start" x="1478.5" y="-154" font-family="Helvetica,sans-Serif" font-size="10.00">slogo.UI.ModuleCreationHelper.activate</text>
<text text-anchor="middle" x="1573" y="-143" font-family="Helvetica,sans-Serif" font-size="10.00">KeyEvents</text>
</a>
</g>
</g>
<!-- Node4&#45;&gt;Node12 -->
<g id="edge12" class="edge"><title>Node4&#45;&gt;Node12</title>
<path fill="none" stroke="midnightblue" d="M656.179,-207.164C678.902,-192.251 711.88,-173.388 744,-165 878.15,-129.97 1280.16,-139.777 1470.26,-146.744"/>
<polygon fill="midnightblue" stroke="midnightblue" points="654.049,-204.378 647.699,-212.86 657.952,-210.189 654.049,-204.378"/>
</g>
<!-- Node13 -->
<g id="node13" class="node"><title>Node13</title>
<g id="a_node13"><a xlink:href="../../db/d19/classslogo_1_1_u_i_1_1_module_creation_helper.html#a2e841243ec3ca474e8822102343acc88" target="_top" xlink:title="slogo.UI.ModuleCreationHelper.activate\lNewTurtleButton">
<polygon fill="white" stroke="black" points="986.5,-344 986.5,-374 1191.5,-374 1191.5,-344 986.5,-344"/>
<text text-anchor="start" x="994.5" y="-362" font-family="Helvetica,sans-Serif" font-size="10.00">slogo.UI.ModuleCreationHelper.activate</text>
<text text-anchor="middle" x="1089" y="-351" font-family="Helvetica,sans-Serif" font-size="10.00">NewTurtleButton</text>
</a>
</g>
</g>
<!-- Node4&#45;&gt;Node13 -->
<g id="edge14" class="edge"><title>Node4&#45;&gt;Node13</title>
<path fill="none" stroke="midnightblue" d="M643.021,-251.155C663.099,-278.009 700.24,-321.013 744,-340 820.408,-373.152 915.474,-375.86 986.293,-371.435"/>
<polygon fill="midnightblue" stroke="midnightblue" points="645.834,-249.073 637.115,-243.055 640.178,-253.197 645.834,-249.073"/>
</g>
<!-- Node15 -->
<g id="node15" class="node"><title>Node15</title>
<g id="a_node15"><a xlink:href="../../db/d19/classslogo_1_1_u_i_1_1_module_creation_helper.html#a9b1f07ab673191067907a059b1b0c524" target="_top" xlink:title="slogo.UI.ModuleCreationHelper.activate\lPlayButton">
<polygon fill="white" stroke="black" points="744.5,-301 744.5,-331 949.5,-331 949.5,-301 744.5,-301"/>
<text text-anchor="start" x="752.5" y="-319" font-family="Helvetica,sans-Serif" font-size="10.00">slogo.UI.ModuleCreationHelper.activate</text>
<text text-anchor="middle" x="847" y="-308" font-family="Helvetica,sans-Serif" font-size="10.00">PlayButton</text>
</a>
</g>
</g>
<!-- Node4&#45;&gt;Node15 -->
<g id="edge17" class="edge"><title>Node4&#45;&gt;Node15</title>
<path fill="none" stroke="midnightblue" d="M659.42,-248.354C682.332,-262.006 714.156,-279.522 744,-291 753.7,-294.73 764.137,-298.039 774.502,-300.929"/>
<polygon fill="midnightblue" stroke="midnightblue" points="661.162,-245.317 650.792,-243.145 657.544,-251.31 661.162,-245.317"/>
</g>
<!-- Node18 -->
<g id="node18" class="node"><title>Node18</title>
<g id="a_node18"><a xlink:href="../../db/d19/classslogo_1_1_u_i_1_1_module_creation_helper.html#a3a38d485562cb17591ec3fd07cffc18a" target="_top" xlink:title="slogo.UI.ModuleCreationHelper.activate\lTurtleCanvas">
<polygon fill="white" stroke="black" points="1228.5,-87 1228.5,-117 1433.5,-117 1433.5,-87 1228.5,-87"/>
<text text-anchor="start" x="1236.5" y="-105" font-family="Helvetica,sans-Serif" font-size="10.00">slogo.UI.ModuleCreationHelper.activate</text>
<text text-anchor="middle" x="1331" y="-94" font-family="Helvetica,sans-Serif" font-size="10.00">TurtleCanvas</text>
</a>
</g>
</g>
<!-- Node4&#45;&gt;Node18 -->
<g id="edge21" class="edge"><title>Node4&#45;&gt;Node18</title>
<path fill="none" stroke="midnightblue" d="M646.366,-205.232C667.633,-182.064 704.105,-147.434 744,-132 829.507,-98.92 1084.48,-97.5272 1228.33,-99.6157"/>
<polygon fill="midnightblue" stroke="midnightblue" points="643.563,-203.115 639.497,-212.898 648.777,-207.786 643.563,-203.115"/>
</g>
<!-- Node20 -->
<g id="node20" class="node"><title>Node20</title>
<g id="a_node20"><a xlink:href="../../d1/d5f/classslogo_1_1_u_i_1_1_path_color_selector.html#ad3d9c82a0904c97edcec7cf67b85bd7b" target="_top" xlink:title="slogo.UI.PathColorSelector.create">
<polygon fill="white" stroke="black" points="759,-262.5 759,-281.5 935,-281.5 935,-262.5 759,-262.5"/>
<text text-anchor="middle" x="847" y="-269.5" font-family="Helvetica,sans-Serif" font-size="10.00">slogo.UI.PathColorSelector.create</text>
</a>
</g>
</g>
<!-- Node4&#45;&gt;Node20 -->
<g id="edge24" class="edge"><title>Node4&#45;&gt;Node20</title>
<path fill="none" stroke="midnightblue" d="M709.739,-245.065C721.243,-247.411 732.914,-249.776 744,-252 761.251,-255.46 780.157,-259.186 796.955,-262.473"/>
<polygon fill="midnightblue" stroke="midnightblue" points="710.189,-241.585 699.69,-243.013 708.788,-248.443 710.189,-241.585"/>
</g>
<!-- Node22 -->
<g id="node22" class="node"><title>Node22</title>
<g id="a_node22"><a xlink:href="../../d4/d8d/classslogo_1_1_u_i_1_1_background_color_selector.html#ad75ba4ce104e071811d0fe039a4e839f" target="_top" xlink:title="slogo.UI.BackgroundColor\lSelector.create">
<polygon fill="white" stroke="black" points="777,-213 777,-243 917,-243 917,-213 777,-213"/>
<text text-anchor="start" x="785" y="-231" font-family="Helvetica,sans-Serif" font-size="10.00">slogo.UI.BackgroundColor</text>
<text text-anchor="middle" x="847" y="-220" font-family="Helvetica,sans-Serif" font-size="10.00">Selector.create</text>
</a>
</g>
</g>
<!-- Node4&#45;&gt;Node22 -->
<g id="edge27" class="edge"><title>Node4&#45;&gt;Node22</title>
<path fill="none" stroke="midnightblue" d="M712.142,-228C733.597,-228 756.367,-228 776.925,-228"/>
<polygon fill="midnightblue" stroke="midnightblue" points="712.061,-224.5 702.061,-228 712.061,-231.5 712.061,-224.5"/>
</g>
<!-- Node23 -->
<g id="node23" class="node"><title>Node23</title>
<g id="a_node23"><a xlink:href="../../dd/da7/classslogo_1_1_u_i_1_1_turtle_image_selector.html#a3f268d9196ffebcbb5dc322d2897a9fe" target="_top" xlink:title="slogo.UI.TurtleImageSelector.create">
<polygon fill="white" stroke="black" points="754,-174.5 754,-193.5 940,-193.5 940,-174.5 754,-174.5"/>
<text text-anchor="middle" x="847" y="-181.5" font-family="Helvetica,sans-Serif" font-size="10.00">slogo.UI.TurtleImageSelector.create</text>
</a>
</g>
</g>
<!-- Node4&#45;&gt;Node23 -->
<g id="edge29" class="edge"><title>Node4&#45;&gt;Node23</title>
<path fill="none" stroke="midnightblue" d="M706.012,-210.821C718.704,-208.147 731.705,-205.458 744,-203 759.985,-199.804 777.416,-196.493 793.272,-193.548"/>
<polygon fill="midnightblue" stroke="midnightblue" points="704.977,-207.463 695.919,-212.958 706.427,-214.311 704.977,-207.463"/>
</g>
<!-- Node6 -->
<g id="node6" class="node"><title>Node6</title>
<g id="a_node6"><a xlink:href="../../db/d19/classslogo_1_1_u_i_1_1_module_creation_helper.html#adce7362386f9a7b3006e7db08a2d578d" target="_top" xlink:title="slogo.UI.ModuleCreationHelper.create\lIncreaseDecreaseButtons">
<polygon fill="white" stroke="black" points="1232.5,-380 1232.5,-410 1429.5,-410 1429.5,-380 1232.5,-380"/>
<text text-anchor="start" x="1240.5" y="-398" font-family="Helvetica,sans-Serif" font-size="10.00">slogo.UI.ModuleCreationHelper.create</text>
<text text-anchor="middle" x="1331" y="-387" font-family="Helvetica,sans-Serif" font-size="10.00">IncreaseDecreaseButtons</text>
</a>
</g>
</g>
<!-- Node5&#45;&gt;Node6 -->
<g id="edge5" class="edge"><title>Node5&#45;&gt;Node6</title>
<path fill="none" stroke="midnightblue" d="M959.792,-401.913C1042.23,-400.373 1153.29,-398.299 1232.21,-396.826"/>
<polygon fill="midnightblue" stroke="midnightblue" points="959.564,-398.416 949.631,-402.102 959.694,-405.415 959.564,-398.416"/>
</g>
<!-- Node7 -->
<g id="node7" class="node"><title>Node7</title>
<g id="a_node7"><a xlink:href="../../db/d19/classslogo_1_1_u_i_1_1_module_creation_helper.html#a7c650957b2389d6e6d36e8be8a33cd2b" target="_top" xlink:title="slogo.UI.ModuleCreationHelper.create\lSelectorVBoxModules">
<polygon fill="white" stroke="black" points="1474.5,-253 1474.5,-283 1671.5,-283 1671.5,-253 1474.5,-253"/>
<text text-anchor="start" x="1482.5" y="-271" font-family="Helvetica,sans-Serif" font-size="10.00">slogo.UI.ModuleCreationHelper.create</text>
<text text-anchor="middle" x="1573" y="-260" font-family="Helvetica,sans-Serif" font-size="10.00">SelectorVBoxModules</text>
</a>
</g>
</g>
<!-- Node6&#45;&gt;Node7 -->
<g id="edge6" class="edge"><title>Node6&#45;&gt;Node7</title>
<path fill="none" stroke="midnightblue" d="M1415,-376.732C1421.54,-374.424 1427.95,-371.854 1434,-369 1482.6,-346.077 1531.46,-305.079 1555.92,-283.025"/>
<polygon fill="midnightblue" stroke="midnightblue" points="1413.75,-373.461 1405.36,-379.93 1415.95,-380.105 1413.75,-373.461"/>
</g>
<!-- Node8 -->
<g id="node8" class="node"><title>Node8</title>
<g id="a_node8"><a xlink:href="../../db/d19/classslogo_1_1_u_i_1_1_module_creation_helper.html#afb9dbbbad7d872234a5b296fe129a34e" target="_top" xlink:title="slogo.UI.ModuleCreationHelper.create\lMainPageModules">
<polygon fill="white" stroke="black" points="1712.5,-136 1712.5,-166 1909.5,-166 1909.5,-136 1712.5,-136"/>
<text text-anchor="start" x="1720.5" y="-154" font-family="Helvetica,sans-Serif" font-size="10.00">slogo.UI.ModuleCreationHelper.create</text>
<text text-anchor="middle" x="1811" y="-143" font-family="Helvetica,sans-Serif" font-size="10.00">MainPageModules</text>
</a>
</g>
</g>
<!-- Node7&#45;&gt;Node8 -->
<g id="edge7" class="edge"><title>Node7&#45;&gt;Node8</title>
<path fill="none" stroke="midnightblue" d="M1613.58,-248.38C1660.29,-225.222 1736.96,-187.212 1779.37,-166.184"/>
<polygon fill="midnightblue" stroke="midnightblue" points="1611.77,-245.366 1604.37,-252.944 1614.88,-251.638 1611.77,-245.366"/>
</g>
<!-- Node9 -->
<g id="node9" class="node"><title>Node9</title>
<g id="a_node9"><a xlink:href="../../d9/d33/classslogo_1_1_u_i_1_1_main.html#a15b7f2e399ee24d160550993ab737e73" target="_top" xlink:title="slogo.UI.Main.start">
<polygon fill="white" stroke="black" points="1946,-150.5 1946,-169.5 2052,-169.5 2052,-150.5 1946,-150.5"/>
<text text-anchor="middle" x="1999" y="-157.5" font-family="Helvetica,sans-Serif" font-size="10.00">slogo.UI.Main.start</text>
</a>
</g>
</g>
<!-- Node8&#45;&gt;Node9 -->
<g id="edge8" class="edge"><title>Node8&#45;&gt;Node9</title>
<path fill="none" stroke="midnightblue" d="M1919.8,-156.216C1928.76,-156.65 1937.53,-157.074 1945.76,-157.472"/>
<polygon fill="midnightblue" stroke="midnightblue" points="1919.79,-152.712 1909.63,-155.724 1919.45,-159.703 1919.79,-152.712"/>
</g>
<!-- Node10 -->
<g id="node10" class="node"><title>Node10</title>
<g id="a_node10"><a xlink:href="../../db/d19/classslogo_1_1_u_i_1_1_module_creation_helper.html#a3be12a7cc2b8a219db1e296211a2cb88" target="_top" xlink:title="slogo.UI.ModuleCreationHelper.activate\lExtraWorkspaceButton">
<polygon fill="white" stroke="black" points="2088.5,-163 2088.5,-193 2293.5,-193 2293.5,-163 2088.5,-163"/>
<text text-anchor="start" x="2096.5" y="-181" font-family="Helvetica,sans-Serif" font-size="10.00">slogo.UI.ModuleCreationHelper.activate</text>
<text text-anchor="middle" x="2191" y="-170" font-family="Helvetica,sans-Serif" font-size="10.00">ExtraWorkspaceButton</text>
</a>
</g>
</g>
<!-- Node9&#45;&gt;Node10 -->
<g id="edge9" class="edge"><title>Node9&#45;&gt;Node10</title>
<path fill="none" stroke="midnightblue" d="M2062.22,-165.894C2070.63,-166.691 2079.44,-167.526 2088.32,-168.367"/>
<polygon fill="midnightblue" stroke="midnightblue" points="2062.46,-162.401 2052.17,-164.942 2061.79,-169.37 2062.46,-162.401"/>
</g>
<!-- Node11 -->
<g id="node11" class="node"><title>Node11</title>
<g id="a_node11"><a xlink:href="../../db/d19/classslogo_1_1_u_i_1_1_module_creation_helper.html#a702c1ebe24d2857a10c666eb1fcc315d" target="_top" xlink:title="slogo.UI.ModuleCreationHelper.create\lExtraWorkspaceButton">
<polygon fill="white" stroke="black" points="2330.5,-189 2330.5,-219 2527.5,-219 2527.5,-189 2330.5,-189"/>
<text text-anchor="start" x="2338.5" y="-207" font-family="Helvetica,sans-Serif" font-size="10.00">slogo.UI.ModuleCreationHelper.create</text>
<text text-anchor="middle" x="2429" y="-196" font-family="Helvetica,sans-Serif" font-size="10.00">ExtraWorkspaceButton</text>
</a>
</g>
</g>
<!-- Node10&#45;&gt;Node11 -->
<g id="edge10" class="edge"><title>Node10&#45;&gt;Node11</title>
<path fill="none" stroke="midnightblue" d="M2303.77,-190.313C2312.62,-191.289 2321.52,-192.27 2330.27,-193.234"/>
<polygon fill="midnightblue" stroke="midnightblue" points="2304.12,-186.831 2293.8,-189.215 2303.35,-193.789 2304.12,-186.831"/>
</g>
<!-- Node11&#45;&gt;Node7 -->
<g id="edge11" class="edge"><title>Node11&#45;&gt;Node7</title>
<path fill="none" stroke="midnightblue" d="M2320.34,-212.068C2152.9,-224.617 1832.6,-248.62 1671.55,-260.69"/>
<polygon fill="midnightblue" stroke="midnightblue" points="2320.7,-215.551 2330.41,-211.313 2320.18,-208.571 2320.7,-215.551"/>
</g>
<!-- Node12&#45;&gt;Node8 -->
<g id="edge13" class="edge"><title>Node12&#45;&gt;Node8</title>
<path fill="none" stroke="midnightblue" d="M1686.05,-151C1694.81,-151 1703.62,-151 1712.27,-151"/>
<polygon fill="midnightblue" stroke="midnightblue" points="1685.8,-147.5 1675.8,-151 1685.8,-154.5 1685.8,-147.5"/>
</g>
<!-- Node14 -->
<g id="node14" class="node"><title>Node14</title>
<g id="a_node14"><a xlink:href="../../db/d19/classslogo_1_1_u_i_1_1_module_creation_helper.html#a07f5483df317cdf80e8ea2dda5699afa" target="_top" xlink:title="slogo.UI.ModuleCreationHelper.create\lNewTurtleButton">
<polygon fill="white" stroke="black" points="1232.5,-330 1232.5,-360 1429.5,-360 1429.5,-330 1232.5,-330"/>
<text text-anchor="start" x="1240.5" y="-348" font-family="Helvetica,sans-Serif" font-size="10.00">slogo.UI.ModuleCreationHelper.create</text>
<text text-anchor="middle" x="1331" y="-337" font-family="Helvetica,sans-Serif" font-size="10.00">NewTurtleButton</text>
</a>
</g>
</g>
<!-- Node13&#45;&gt;Node14 -->
<g id="edge15" class="edge"><title>Node13&#45;&gt;Node14</title>
<path fill="none" stroke="midnightblue" d="M1201.89,-352.473C1212.04,-351.881 1222.26,-351.285 1232.27,-350.701"/>
<polygon fill="midnightblue" stroke="midnightblue" points="1201.56,-348.986 1191.78,-353.063 1201.97,-355.974 1201.56,-348.986"/>
</g>
<!-- Node14&#45;&gt;Node7 -->
<g id="edge16" class="edge"><title>Node14&#45;&gt;Node7</title>
<path fill="none" stroke="midnightblue" d="M1402.15,-327.309C1412.87,-324.354 1423.76,-321.203 1434,-318 1467.93,-307.387 1505.86,-293.493 1533.35,-283.046"/>
<polygon fill="midnightblue" stroke="midnightblue" points="1401.12,-323.962 1392.39,-329.963 1402.96,-330.717 1401.12,-323.962"/>
</g>
<!-- Node16 -->
<g id="node16" class="node"><title>Node16</title>
<g id="a_node16"><a xlink:href="../../db/d19/classslogo_1_1_u_i_1_1_module_creation_helper.html#a9b3fb38a55b3b7812b4f793afa7a974f" target="_top" xlink:title="slogo.UI.ModuleCreationHelper.create\lPlayButton">
<polygon fill="white" stroke="black" points="990.5,-295 990.5,-325 1187.5,-325 1187.5,-295 990.5,-295"/>
<text text-anchor="start" x="998.5" y="-313" font-family="Helvetica,sans-Serif" font-size="10.00">slogo.UI.ModuleCreationHelper.create</text>
<text text-anchor="middle" x="1089" y="-302" font-family="Helvetica,sans-Serif" font-size="10.00">PlayButton</text>
</a>
</g>
</g>
<!-- Node15&#45;&gt;Node16 -->
<g id="edge18" class="edge"><title>Node15&#45;&gt;Node16</title>
<path fill="none" stroke="midnightblue" d="M959.89,-313.203C970.035,-312.949 980.258,-312.694 990.267,-312.443"/>
<polygon fill="midnightblue" stroke="midnightblue" points="959.691,-309.707 949.782,-313.455 959.866,-316.704 959.691,-309.707"/>
</g>
<!-- Node17 -->
<g id="node17" class="node"><title>Node17</title>
<g id="a_node17"><a xlink:href="../../db/d19/classslogo_1_1_u_i_1_1_module_creation_helper.html#ae1e60d37509c2e5eddcb2a6e70b4f650" target="_top" xlink:title="slogo.UI.ModuleCreationHelper.create\lFirstRowButtons">
<polygon fill="white" stroke="black" points="1232.5,-279 1232.5,-309 1429.5,-309 1429.5,-279 1232.5,-279"/>
<text text-anchor="start" x="1240.5" y="-297" font-family="Helvetica,sans-Serif" font-size="10.00">slogo.UI.ModuleCreationHelper.create</text>
<text text-anchor="middle" x="1331" y="-286" font-family="Helvetica,sans-Serif" font-size="10.00">FirstRowButtons</text>
</a>
</g>
</g>
<!-- Node16&#45;&gt;Node17 -->
<g id="edge19" class="edge"><title>Node16&#45;&gt;Node17</title>
<path fill="none" stroke="midnightblue" d="M1197.73,-302.818C1209.3,-302.046 1221.03,-301.265 1232.47,-300.502"/>
<polygon fill="midnightblue" stroke="midnightblue" points="1197.36,-299.335 1187.62,-303.492 1197.83,-306.319 1197.36,-299.335"/>
</g>
<!-- Node17&#45;&gt;Node7 -->
<g id="edge20" class="edge"><title>Node17&#45;&gt;Node7</title>
<path fill="none" stroke="midnightblue" d="M1439.73,-282.329C1451.3,-281.075 1463.03,-279.805 1474.47,-278.566"/>
<polygon fill="midnightblue" stroke="midnightblue" points="1439.18,-278.868 1429.62,-283.425 1439.94,-285.827 1439.18,-278.868"/>
</g>
<!-- Node19 -->
<g id="node19" class="node"><title>Node19</title>
<g id="a_node19"><a xlink:href="../../db/d19/classslogo_1_1_u_i_1_1_module_creation_helper.html#a803bac6b55bde712b21f2face1eeef81" target="_top" xlink:title="slogo.UI.ModuleCreationHelper.create\lTurtleCanvas">
<polygon fill="white" stroke="black" points="1474.5,-87 1474.5,-117 1671.5,-117 1671.5,-87 1474.5,-87"/>
<text text-anchor="start" x="1482.5" y="-105" font-family="Helvetica,sans-Serif" font-size="10.00">slogo.UI.ModuleCreationHelper.create</text>
<text text-anchor="middle" x="1573" y="-94" font-family="Helvetica,sans-Serif" font-size="10.00">TurtleCanvas</text>
</a>
</g>
</g>
<!-- Node18&#45;&gt;Node19 -->
<g id="edge22" class="edge"><title>Node18&#45;&gt;Node19</title>
<path fill="none" stroke="midnightblue" d="M1443.89,-102C1454.04,-102 1464.26,-102 1474.27,-102"/>
<polygon fill="midnightblue" stroke="midnightblue" points="1443.78,-98.5001 1433.78,-102 1443.78,-105.5 1443.78,-98.5001"/>
</g>
<!-- Node19&#45;&gt;Node8 -->
<g id="edge23" class="edge"><title>Node19&#45;&gt;Node8</title>
<path fill="none" stroke="midnightblue" d="M1656.42,-119.113C1682.9,-124.611 1712.03,-130.658 1737.73,-135.994"/>
<polygon fill="midnightblue" stroke="midnightblue" points="1656.91,-115.641 1646.41,-117.035 1655.49,-122.495 1656.91,-115.641"/>
</g>
<!-- Node21 -->
<g id="node21" class="node"><title>Node21</title>
<g id="a_node21"><a xlink:href="../../db/d19/classslogo_1_1_u_i_1_1_module_creation_helper.html#af7f2919454fdbf6e9d7d912e99634857" target="_top" xlink:title="slogo.UI.ModuleCreationHelper.create\lSelectors">
<polygon fill="white" stroke="black" points="990.5,-230 990.5,-260 1187.5,-260 1187.5,-230 990.5,-230"/>
<text text-anchor="start" x="998.5" y="-248" font-family="Helvetica,sans-Serif" font-size="10.00">slogo.UI.ModuleCreationHelper.create</text>
<text text-anchor="middle" x="1089" y="-237" font-family="Helvetica,sans-Serif" font-size="10.00">Selectors</text>
</a>
</g>
</g>
<!-- Node20&#45;&gt;Node21 -->
<g id="edge25" class="edge"><title>Node20&#45;&gt;Node21</title>
<path fill="none" stroke="midnightblue" d="M942.764,-261.339C958.356,-259.585 974.543,-257.764 990.207,-256.002"/>
<polygon fill="midnightblue" stroke="midnightblue" points="942.161,-257.885 932.615,-262.481 942.944,-264.841 942.161,-257.885"/>
</g>
<!-- Node21&#45;&gt;Node7 -->
<g id="edge26" class="edge"><title>Node21&#45;&gt;Node7</title>
<path fill="none" stroke="midnightblue" d="M1197.74,-250.141C1280.55,-254.092 1393.97,-259.505 1474.19,-263.333"/>
<polygon fill="midnightblue" stroke="midnightblue" points="1197.7,-246.635 1187.54,-249.654 1197.36,-253.627 1197.7,-246.635"/>
</g>
<!-- Node22&#45;&gt;Node21 -->
<g id="edge28" class="edge"><title>Node22&#45;&gt;Node21</title>
<path fill="none" stroke="midnightblue" d="M927.179,-233.609C947.396,-235.041 969.368,-236.597 990.389,-238.086"/>
<polygon fill="midnightblue" stroke="midnightblue" points="927.318,-230.11 917.096,-232.894 926.824,-237.092 927.318,-230.11"/>
</g>
<!-- Node23&#45;&gt;Node21 -->
<g id="edge30" class="edge"><title>Node23&#45;&gt;Node21</title>
<path fill="none" stroke="midnightblue" d="M915.481,-195.473C927.044,-197.752 938.903,-200.287 950,-203 981.382,-210.673 1016.18,-221.278 1042.98,-229.911"/>
<polygon fill="midnightblue" stroke="midnightblue" points="915.905,-191.99 905.423,-193.539 914.582,-198.864 915.905,-191.99"/>
</g>
<!-- Node25 -->
<g id="node25" class="node"><title>Node25</title>
<g id="a_node25"><a xlink:href="../../db/d19/classslogo_1_1_u_i_1_1_module_creation_helper.html#a9fd730f7c1860d34bf4ac46c3828bd59" target="_top" xlink:title="slogo.UI.ModuleCreationHelper.activate\lStepIntoButton">
<polygon fill="white" stroke="black" points="744.5,-49 744.5,-79 949.5,-79 949.5,-49 744.5,-49"/>
<text text-anchor="start" x="752.5" y="-67" font-family="Helvetica,sans-Serif" font-size="10.00">slogo.UI.ModuleCreationHelper.activate</text>
<text text-anchor="middle" x="847" y="-56" font-family="Helvetica,sans-Serif" font-size="10.00">StepIntoButton</text>
</a>
</g>
</g>
<!-- Node24&#45;&gt;Node25 -->
<g id="edge32" class="edge"><title>Node24&#45;&gt;Node25</title>
<path fill="none" stroke="midnightblue" d="M715.334,-64C724.824,-64 734.535,-64 744.167,-64"/>
<polygon fill="midnightblue" stroke="midnightblue" points="715.137,-60.5001 705.137,-64 715.136,-67.5001 715.137,-60.5001"/>
</g>
<!-- Node26 -->
<g id="node26" class="node"><title>Node26</title>
<g id="a_node26"><a xlink:href="../../db/d19/classslogo_1_1_u_i_1_1_module_creation_helper.html#a4a6f1f009507c25be8c7c28cbba35f3b" target="_top" xlink:title="slogo.UI.ModuleCreationHelper.create\lDebugStepIntoButton">
<polygon fill="white" stroke="black" points="990.5,-49 990.5,-79 1187.5,-79 1187.5,-49 990.5,-49"/>
<text text-anchor="start" x="998.5" y="-67" font-family="Helvetica,sans-Serif" font-size="10.00">slogo.UI.ModuleCreationHelper.create</text>
<text text-anchor="middle" x="1089" y="-56" font-family="Helvetica,sans-Serif" font-size="10.00">DebugStepIntoButton</text>
</a>
</g>
</g>
<!-- Node25&#45;&gt;Node26 -->
<g id="edge33" class="edge"><title>Node25&#45;&gt;Node26</title>
<path fill="none" stroke="midnightblue" d="M959.89,-64C970.035,-64 980.258,-64 990.267,-64"/>
<polygon fill="midnightblue" stroke="midnightblue" points="959.782,-60.5001 949.782,-64 959.782,-67.5001 959.782,-60.5001"/>
</g>
<!-- Node27 -->
<g id="node27" class="node"><title>Node27</title>
<g id="a_node27"><a xlink:href="../../db/d19/classslogo_1_1_u_i_1_1_module_creation_helper.html#a975af4ea47dc85df72215bdf1a0d20ce" target="_top" xlink:title="slogo.UI.ModuleCreationHelper.create\lDebugModules">
<polygon fill="white" stroke="black" points="1232.5,-38 1232.5,-68 1429.5,-68 1429.5,-38 1232.5,-38"/>
<text text-anchor="start" x="1240.5" y="-56" font-family="Helvetica,sans-Serif" font-size="10.00">slogo.UI.ModuleCreationHelper.create</text>
<text text-anchor="middle" x="1331" y="-45" font-family="Helvetica,sans-Serif" font-size="10.00">DebugModules</text>
</a>
</g>
</g>
<!-- Node26&#45;&gt;Node27 -->
<g id="edge34" class="edge"><title>Node26&#45;&gt;Node27</title>
<path fill="none" stroke="midnightblue" d="M1197.73,-59.0622C1209.3,-58.5319 1221.03,-57.9945 1232.47,-57.4702"/>
<polygon fill="midnightblue" stroke="midnightblue" points="1197.45,-55.5716 1187.62,-59.5259 1197.77,-62.5643 1197.45,-55.5716"/>
</g>
<!-- Node27&#45;&gt;Node8 -->
<g id="edge35" class="edge"><title>Node27&#45;&gt;Node8</title>
<path fill="none" stroke="midnightblue" d="M1439.63,-48.679C1508.53,-48.779 1599.11,-54.2973 1676,-77 1719.33,-89.7936 1764.2,-118.228 1789.46,-135.889"/>
<polygon fill="midnightblue" stroke="midnightblue" points="1439.61,-45.1789 1429.62,-48.7021 1439.63,-52.1789 1439.61,-45.1789"/>
</g>
<!-- Node29 -->
<g id="node29" class="node"><title>Node29</title>
<g id="a_node29"><a xlink:href="../../db/d19/classslogo_1_1_u_i_1_1_module_creation_helper.html#a0fed0bb32bf2643d6fd5c24d82e8e18e" target="_top" xlink:title="slogo.UI.ModuleCreationHelper.activate\lStepOverButton">
<polygon fill="white" stroke="black" points="744.5,-0 744.5,-30 949.5,-30 949.5,-0 744.5,-0"/>
<text text-anchor="start" x="752.5" y="-18" font-family="Helvetica,sans-Serif" font-size="10.00">slogo.UI.ModuleCreationHelper.activate</text>
<text text-anchor="middle" x="847" y="-7" font-family="Helvetica,sans-Serif" font-size="10.00">StepOverButton</text>
</a>
</g>
</g>
<!-- Node28&#45;&gt;Node29 -->
<g id="edge37" class="edge"><title>Node28&#45;&gt;Node29</title>
<path fill="none" stroke="midnightblue" d="M717.803,-18.5123C726.557,-18.2724 735.477,-18.028 744.327,-17.7856"/>
<polygon fill="midnightblue" stroke="midnightblue" points="717.515,-15.0187 707.615,-18.7914 717.707,-22.0161 717.515,-15.0187"/>
</g>
<!-- Node30 -->
<g id="node30" class="node"><title>Node30</title>
<g id="a_node30"><a xlink:href="../../db/d19/classslogo_1_1_u_i_1_1_module_creation_helper.html#aa1e7dc2b509360583790fba0d3819c8d" target="_top" xlink:title="slogo.UI.ModuleCreationHelper.create\lDebugStepOverButton">
<polygon fill="white" stroke="black" points="990.5,-0 990.5,-30 1187.5,-30 1187.5,-0 990.5,-0"/>
<text text-anchor="start" x="998.5" y="-18" font-family="Helvetica,sans-Serif" font-size="10.00">slogo.UI.ModuleCreationHelper.create</text>
<text text-anchor="middle" x="1089" y="-7" font-family="Helvetica,sans-Serif" font-size="10.00">DebugStepOverButton</text>
</a>
</g>
</g>
<!-- Node29&#45;&gt;Node30 -->
<g id="edge38" class="edge"><title>Node29&#45;&gt;Node30</title>
<path fill="none" stroke="midnightblue" d="M959.89,-15C970.035,-15 980.258,-15 990.267,-15"/>
<polygon fill="midnightblue" stroke="midnightblue" points="959.782,-11.5001 949.782,-15 959.782,-18.5001 959.782,-11.5001"/>
</g>
<!-- Node30&#45;&gt;Node27 -->
<g id="edge39" class="edge"><title>Node30&#45;&gt;Node27</title>
<path fill="none" stroke="midnightblue" d="M1194.99,-31.6227C1208.31,-33.7329 1221.89,-35.8827 1235.05,-37.966"/>
<polygon fill="midnightblue" stroke="midnightblue" points="1195.28,-28.1256 1184.85,-30.0186 1194.18,-35.0395 1195.28,-28.1256"/>
</g>
</g>
</svg>
