<?xml version="1.0" encoding="UTF-8" standalone="no"?>
<!DOCTYPE svg PUBLIC "-//W3C//DTD SVG 1.1//EN"
 "http://www.w3.org/Graphics/SVG/1.1/DTD/svg11.dtd">
<!-- Generated by graphviz version 2.36.0 (20140111.2315)
 -->
<!-- Title: slogo.UI.MethodRunner.setBackgroundColor Pages: 1 -->
<svg width="544pt" height="234pt"
 viewBox="0.00 0.00 544.00 234.00" xmlns="http://www.w3.org/2000/svg" xmlns:xlink="http://www.w3.org/1999/xlink">
<g id="graph0" class="graph" transform="scale(1 1) rotate(0) translate(4 230)">
<title>slogo.UI.MethodRunner.setBackgroundColor</title>
<polygon fill="white" stroke="none" points="-4,4 -4,-230 540,-230 540,4 -4,4"/>
<!-- Node1 -->
<g id="node1" class="node"><title>Node1</title>
<polygon fill="#bfbfbf" stroke="black" points="0,-98 0,-128 144,-128 144,-98 0,-98"/>
<text text-anchor="start" x="8" y="-116" font-family="Helvetica,sans-Serif" font-size="10.00">slogo.UI.MethodRunner.set</text>
<text text-anchor="middle" x="72" y="-105" font-family="Helvetica,sans-Serif" font-size="10.00">BackgroundColor</text>
</g>
<!-- Node2 -->
<g id="node2" class="node"><title>Node2</title>
<g id="a_node2"><a xlink:href="../../db/d19/classslogo_1_1_u_i_1_1_module_creation_helper.html#a6b2e517bcd35fd05f930556aecb29439" target="_top" xlink:title="slogo.UI.ModuleCreationHelper.get\lBackgroundColorSelector">
<polygon fill="white" stroke="black" points="180,-196 180,-226 362,-226 362,-196 180,-196"/>
<text text-anchor="start" x="188" y="-214" font-family="Helvetica,sans-Serif" font-size="10.00">slogo.UI.ModuleCreationHelper.get</text>
<text text-anchor="middle" x="271" y="-203" font-family="Helvetica,sans-Serif" font-size="10.00">BackgroundColorSelector</text>
</a>
</g>
</g>
<!-- Node1&#45;&gt;Node2 -->
<g id="edge1" class="edge"><title>Node1&#45;&gt;Node2</title>
<path fill="none" stroke="midnightblue" d="M91.1922,-128.189C111.626,-144.562 146.348,-170.369 180,-186 185.056,-188.348 190.376,-190.517 195.8,-192.511"/>
<polygon fill="midnightblue" stroke="midnightblue" points="195.043,-195.953 205.638,-195.915 197.332,-189.337 195.043,-195.953"/>
</g>
<!-- Node3 -->
<g id="node3" class="node"><title>Node3</title>
<g id="a_node3"><a xlink:href="../../db/d19/classslogo_1_1_u_i_1_1_module_creation_helper.html#a08cc5ea6e2ea440ad524d13d6faf0a01" target="_top" xlink:title="slogo.UI.ModuleCreationHelper.get\lCanvas">
<polygon fill="white" stroke="black" points="180,-147 180,-177 362,-177 362,-147 180,-147"/>
<text text-anchor="start" x="188" y="-165" font-family="Helvetica,sans-Serif" font-size="10.00">slogo.UI.ModuleCreationHelper.get</text>
<text text-anchor="middle" x="271" y="-154" font-family="Helvetica,sans-Serif" font-size="10.00">Canvas</text>
</a>
</g>
</g>
<!-- Node1&#45;&gt;Node3 -->
<g id="edge2" class="edge"><title>Node1&#45;&gt;Node3</title>
<path fill="none" stroke="midnightblue" d="M133.445,-128.035C154.435,-133.255 178.149,-139.154 199.854,-144.553"/>
<polygon fill="midnightblue" stroke="midnightblue" points="199.12,-147.976 209.669,-146.994 200.81,-141.183 199.12,-147.976"/>
</g>
<!-- Node5 -->
<g id="node5" class="node"><title>Node5</title>
<g id="a_node5"><a xlink:href="../../d4/d8d/classslogo_1_1_u_i_1_1_background_color_selector.html#ab515dbceef9cce4fbe71544225e4ca6a" target="_top" xlink:title="slogo.UI.BackgroundColor\lSelector.getValue">
<polygon fill="white" stroke="black" points="201,-98 201,-128 341,-128 341,-98 201,-98"/>
<text text-anchor="start" x="209" y="-116" font-family="Helvetica,sans-Serif" font-size="10.00">slogo.UI.BackgroundColor</text>
<text text-anchor="middle" x="271" y="-105" font-family="Helvetica,sans-Serif" font-size="10.00">Selector.getValue</text>
</a>
</g>
</g>
<!-- Node1&#45;&gt;Node5 -->
<g id="edge4" class="edge"><title>Node1&#45;&gt;Node5</title>
<path fill="none" stroke="midnightblue" d="M144.122,-113C159.31,-113 175.442,-113 190.909,-113"/>
<polygon fill="midnightblue" stroke="midnightblue" points="190.961,-116.5 200.961,-113 190.961,-109.5 190.961,-116.5"/>
</g>
<!-- Node6 -->
<g id="node6" class="node"><title>Node6</title>
<g id="a_node6"><a xlink:href="../../d4/d8d/classslogo_1_1_u_i_1_1_background_color_selector.html#a66eca4cd02e09850ceab8e5248f4cdd9" target="_top" xlink:title="slogo.UI.BackgroundColor\lSelector.setValue">
<polygon fill="white" stroke="black" points="201,-49 201,-79 341,-79 341,-49 201,-49"/>
<text text-anchor="start" x="209" y="-67" font-family="Helvetica,sans-Serif" font-size="10.00">slogo.UI.BackgroundColor</text>
<text text-anchor="middle" x="271" y="-56" font-family="Helvetica,sans-Serif" font-size="10.00">Selector.setValue</text>
</a>
</g>
</g>
<!-- Node1&#45;&gt;Node6 -->
<g id="edge5" class="edge"><title>Node1&#45;&gt;Node6</title>
<path fill="none" stroke="midnightblue" d="M133.445,-97.9654C154.435,-92.7446 178.149,-86.8463 199.854,-81.4474"/>
<polygon fill="midnightblue" stroke="midnightblue" points="200.81,-84.8165 209.669,-79.0062 199.12,-78.0235 200.81,-84.8165"/>
</g>
<!-- Node7 -->
<g id="node7" class="node"><title>Node7</title>
<g id="a_node7"><a xlink:href="../../da/dce/interfaceslogo_1_1backend_1_1util_1_1_i_turtle_status.html#ab3f3312b9c4289ea7750dbcaa91819eb" target="_top" xlink:title="slogo.backend.util.ITurtle\lStatus.turtleQualities">
<polygon fill="white" stroke="black" points="204,-0 204,-30 338,-30 338,-0 204,-0"/>
<text text-anchor="start" x="212" y="-18" font-family="Helvetica,sans-Serif" font-size="10.00">slogo.backend.util.ITurtle</text>
<text text-anchor="middle" x="271" y="-7" font-family="Helvetica,sans-Serif" font-size="10.00">Status.turtleQualities</text>
</a>
</g>
</g>
<!-- Node1&#45;&gt;Node7 -->
<g id="edge6" class="edge"><title>Node1&#45;&gt;Node7</title>
<path fill="none" stroke="midnightblue" d="M91.1922,-97.8105C111.626,-81.4381 146.348,-55.6306 180,-40 185.056,-37.6517 190.376,-35.4833 195.8,-33.4889"/>
<polygon fill="midnightblue" stroke="midnightblue" points="197.332,-36.6625 205.638,-30.0853 195.043,-30.0472 197.332,-36.6625"/>
</g>
<!-- Node4 -->
<g id="node4" class="node"><title>Node4</title>
<g id="a_node4"><a xlink:href="../../d1/d7e/classslogo_1_1_u_i_1_1_turtle_canvas.html#ab409c3c2a963bb1a71e825da03f25465" target="_top" xlink:title="slogo.UI.TurtleCanvas.get\lCanvas">
<polygon fill="white" stroke="black" points="398.5,-147 398.5,-177 535.5,-177 535.5,-147 398.5,-147"/>
<text text-anchor="start" x="406.5" y="-165" font-family="Helvetica,sans-Serif" font-size="10.00">slogo.UI.TurtleCanvas.get</text>
<text text-anchor="middle" x="467" y="-154" font-family="Helvetica,sans-Serif" font-size="10.00">Canvas</text>
</a>
</g>
</g>
<!-- Node3&#45;&gt;Node4 -->
<g id="edge3" class="edge"><title>Node3&#45;&gt;Node4</title>
<path fill="none" stroke="midnightblue" d="M362.185,-162C370.837,-162 379.563,-162 388.083,-162"/>
<polygon fill="midnightblue" stroke="midnightblue" points="388.357,-165.5 398.357,-162 388.357,-158.5 388.357,-165.5"/>
</g>
</g>
</svg>
