<?xml version="1.0" encoding="UTF-8" standalone="no"?>
<!DOCTYPE svg PUBLIC "-//W3C//DTD SVG 1.1//EN"
 "http://www.w3.org/Graphics/SVG/1.1/DTD/svg11.dtd">
<!-- Generated by graphviz version 2.36.0 (20140111.2315)
 -->
<!-- Title: slogo.UI.MethodRunner.redrawIfInScene Pages: 1 -->
<svg width="2946pt" height="427pt"
 viewBox="0.00 0.00 2946.00 427.00" xmlns="http://www.w3.org/2000/svg" xmlns:xlink="http://www.w3.org/1999/xlink">
<g id="graph0" class="graph" transform="scale(1 1) rotate(0) translate(4 423)">
<title>slogo.UI.MethodRunner.redrawIfInScene</title>
<polygon fill="white" stroke="none" points="-4,4 -4,-423 2942,-423 2942,4 -4,4"/>
<!-- Node1 -->
<g id="node1" class="node"><title>Node1</title>
<polygon fill="#bfbfbf" stroke="black" points="0.5,-49 0.5,-79 161.5,-79 161.5,-49 0.5,-49"/>
<text text-anchor="start" x="8.5" y="-67" font-family="Helvetica,sans-Serif" font-size="10.00">slogo.UI.MethodRunner.redraw</text>
<text text-anchor="middle" x="81" y="-56" font-family="Helvetica,sans-Serif" font-size="10.00">IfInScene</text>
</g>
<!-- Node2 -->
<g id="node2" class="node"><title>Node2</title>
<g id="a_node2"><a xlink:href="../../d9/d7e/classslogo_1_1_u_i_1_1_method_runner.html#a1ab80948935d4a625cf3313eabe9a51d" target="_top" xlink:title="slogo.UI.MethodRunner.move\lTurtle">
<polygon fill="white" stroke="black" points="198,-49 198,-79 354,-79 354,-49 198,-49"/>
<text text-anchor="start" x="206" y="-67" font-family="Helvetica,sans-Serif" font-size="10.00">slogo.UI.MethodRunner.move</text>
<text text-anchor="middle" x="276" y="-56" font-family="Helvetica,sans-Serif" font-size="10.00">Turtle</text>
</a>
</g>
</g>
<!-- Node1&#45;&gt;Node2 -->
<g id="edge1" class="edge"><title>Node1&#45;&gt;Node2</title>
<path fill="none" stroke="midnightblue" d="M171.758,-64C180.441,-64 189.197,-64 197.744,-64"/>
<polygon fill="midnightblue" stroke="midnightblue" points="171.615,-60.5001 161.615,-64 171.615,-67.5001 171.615,-60.5001"/>
</g>
<!-- Node3 -->
<g id="node3" class="node"><title>Node3</title>
<g id="a_node3"><a xlink:href="../../d9/d7e/classslogo_1_1_u_i_1_1_method_runner.html#a5fe4a6310ba1b0851d7d30a440511324" target="_top" xlink:title="slogo.UI.MethodRunner.change\lTurtle">
<polygon fill="white" stroke="black" points="390,-49 390,-79 554,-79 554,-49 390,-49"/>
<text text-anchor="start" x="398" y="-67" font-family="Helvetica,sans-Serif" font-size="10.00">slogo.UI.MethodRunner.change</text>
<text text-anchor="middle" x="472" y="-56" font-family="Helvetica,sans-Serif" font-size="10.00">Turtle</text>
</a>
</g>
</g>
<!-- Node2&#45;&gt;Node3 -->
<g id="edge2" class="edge"><title>Node2&#45;&gt;Node3</title>
<path fill="none" stroke="midnightblue" d="M364.486,-64C372.947,-64 381.505,-64 389.9,-64"/>
<polygon fill="midnightblue" stroke="midnightblue" points="364.231,-60.5001 354.231,-64 364.231,-67.5001 364.231,-60.5001"/>
</g>
<!-- Node4 -->
<g id="node4" class="node"><title>Node4</title>
<g id="a_node4"><a xlink:href="../../df/d2d/classslogo_1_1_view.html#accc79c56511a72090ff8a4d414b8d1f5" target="_top" xlink:title="slogo.View.executeTurtle\lCommands">
<polygon fill="white" stroke="black" points="590.5,-49 590.5,-79 723.5,-79 723.5,-49 590.5,-49"/>
<text text-anchor="start" x="598.5" y="-67" font-family="Helvetica,sans-Serif" font-size="10.00">slogo.View.executeTurtle</text>
<text text-anchor="middle" x="657" y="-56" font-family="Helvetica,sans-Serif" font-size="10.00">Commands</text>
</a>
</g>
</g>
<!-- Node3&#45;&gt;Node4 -->
<g id="edge3" class="edge"><title>Node3&#45;&gt;Node4</title>
<path fill="none" stroke="midnightblue" d="M564.35,-64C573.128,-64 581.907,-64 590.365,-64"/>
<polygon fill="midnightblue" stroke="midnightblue" points="564.066,-60.5001 554.066,-64 564.066,-67.5001 564.066,-60.5001"/>
</g>
<!-- Node5 -->
<g id="node5" class="node"><title>Node5</title>
<g id="a_node5"><a xlink:href="../../df/d2d/classslogo_1_1_view.html#aa90e5d95d422b58b7f4b7f8a049defe1" target="_top" xlink:title="slogo.View.executeCommand">
<polygon fill="white" stroke="black" points="760,-54.5 760,-73.5 918,-73.5 918,-54.5 760,-54.5"/>
<text text-anchor="middle" x="839" y="-61.5" font-family="Helvetica,sans-Serif" font-size="10.00">slogo.View.executeCommand</text>
</a>
</g>
</g>
<!-- Node4&#45;&gt;Node5 -->
<g id="edge4" class="edge"><title>Node4&#45;&gt;Node5</title>
<path fill="none" stroke="midnightblue" d="M733.784,-64C742.42,-64 751.235,-64 759.901,-64"/>
<polygon fill="midnightblue" stroke="midnightblue" points="733.748,-60.5001 723.748,-64 733.748,-67.5001 733.748,-60.5001"/>
</g>
<!-- Node6 -->
<g id="node6" class="node"><title>Node6</title>
<g id="a_node6"><a xlink:href="../../df/d2d/classslogo_1_1_view.html#aee563f6a0b15ac6668e4dcbdad40c73c" target="_top" xlink:title="slogo.View.sendCommandTo\lBackend">
<polygon fill="white" stroke="black" points="960,-213 960,-243 1112,-243 1112,-213 960,-213"/>
<text text-anchor="start" x="968" y="-231" font-family="Helvetica,sans-Serif" font-size="10.00">slogo.View.sendCommandTo</text>
<text text-anchor="middle" x="1036" y="-220" font-family="Helvetica,sans-Serif" font-size="10.00">Backend</text>
</a>
</g>
</g>
<!-- Node5&#45;&gt;Node6 -->
<g id="edge5" class="edge"><title>Node5&#45;&gt;Node6</title>
<path fill="none" stroke="midnightblue" d="M859.054,-80.0252C896.765,-111.741 980.433,-182.108 1017.15,-212.984"/>
<polygon fill="midnightblue" stroke="midnightblue" points="861.233,-77.2841 851.327,-73.5262 856.727,-82.6414 861.233,-77.2841"/>
</g>
<!-- Node26 -->
<g id="node26" class="node"><title>Node26</title>
<g id="a_node26"><a xlink:href="../../df/d2d/classslogo_1_1_view.html#a4c3084a198acf85804800d70eff9ee51" target="_top" xlink:title="slogo.View.stepIntoCommand">
<polygon fill="white" stroke="black" points="957,-54.5 957,-73.5 1115,-73.5 1115,-54.5 957,-54.5"/>
<text text-anchor="middle" x="1036" y="-61.5" font-family="Helvetica,sans-Serif" font-size="10.00">slogo.View.stepIntoCommand</text>
</a>
</g>
</g>
<!-- Node5&#45;&gt;Node26 -->
<g id="edge33" class="edge"><title>Node5&#45;&gt;Node26</title>
<path fill="none" stroke="midnightblue" d="M928.402,-64C937.87,-64 947.454,-64 956.792,-64"/>
<polygon fill="midnightblue" stroke="midnightblue" points="928.19,-60.5001 918.19,-64 928.19,-67.5001 928.19,-60.5001"/>
</g>
<!-- Node30 -->
<g id="node30" class="node"><title>Node30</title>
<g id="a_node30"><a xlink:href="../../df/d2d/classslogo_1_1_view.html#ac8b7f574c679e744a430f1649dc55e68" target="_top" xlink:title="slogo.View.stepOverCommand">
<polygon fill="white" stroke="black" points="954.5,-11.5 954.5,-30.5 1117.5,-30.5 1117.5,-11.5 954.5,-11.5"/>
<text text-anchor="middle" x="1036" y="-18.5" font-family="Helvetica,sans-Serif" font-size="10.00">slogo.View.stepOverCommand</text>
</a>
</g>
</g>
<!-- Node5&#45;&gt;Node30 -->
<g id="edge38" class="edge"><title>Node5&#45;&gt;Node30</title>
<path fill="none" stroke="midnightblue" d="M893.056,-52.3005C924.068,-45.462 962.711,-36.9406 991.844,-30.5164"/>
<polygon fill="midnightblue" stroke="midnightblue" points="892.288,-48.8855 883.277,-54.4569 893.796,-55.7213 892.288,-48.8855"/>
</g>
<!-- Node7 -->
<g id="node7" class="node"><title>Node7</title>
<g id="a_node7"><a xlink:href="../../db/d19/classslogo_1_1_u_i_1_1_module_creation_helper.html#a69e17abcc7cf9a6ed7261d8fb1d631fa" target="_top" xlink:title="slogo.UI.ModuleCreationHelper.activate\lIncreaseDecreaseButtons">
<polygon fill="white" stroke="black" points="1154.5,-389 1154.5,-419 1359.5,-419 1359.5,-389 1154.5,-389"/>
<text text-anchor="start" x="1162.5" y="-407" font-family="Helvetica,sans-Serif" font-size="10.00">slogo.UI.ModuleCreationHelper.activate</text>
<text text-anchor="middle" x="1257" y="-396" font-family="Helvetica,sans-Serif" font-size="10.00">IncreaseDecreaseButtons</text>
</a>
</g>
</g>
<!-- Node6&#45;&gt;Node7 -->
<g id="edge6" class="edge"><title>Node6&#45;&gt;Node7</title>
<path fill="none" stroke="midnightblue" d="M1050.04,-252.219C1068.78,-284.724 1106.36,-342.06 1154,-374 1163.12,-380.116 1173.51,-385.01 1184.09,-388.919"/>
<polygon fill="midnightblue" stroke="midnightblue" points="1053.01,-250.361 1045.05,-243.368 1046.91,-253.798 1053.01,-250.361"/>
</g>
<!-- Node14 -->
<g id="node14" class="node"><title>Node14</title>
<g id="a_node14"><a xlink:href="../../db/d19/classslogo_1_1_u_i_1_1_module_creation_helper.html#aa70b0ad9e90e62509149bfd2ef2ba209" target="_top" xlink:title="slogo.UI.ModuleCreationHelper.activate\lKeyEvents">
<polygon fill="white" stroke="black" points="1880.5,-136 1880.5,-166 2085.5,-166 2085.5,-136 1880.5,-136"/>
<text text-anchor="start" x="1888.5" y="-154" font-family="Helvetica,sans-Serif" font-size="10.00">slogo.UI.ModuleCreationHelper.activate</text>
<text text-anchor="middle" x="1983" y="-143" font-family="Helvetica,sans-Serif" font-size="10.00">KeyEvents</text>
</a>
</g>
</g>
<!-- Node6&#45;&gt;Node14 -->
<g id="edge14" class="edge"><title>Node6&#45;&gt;Node14</title>
<path fill="none" stroke="midnightblue" d="M1066.18,-207.164C1088.9,-192.251 1121.88,-173.388 1154,-165 1288.15,-129.97 1690.16,-139.777 1880.26,-146.744"/>
<polygon fill="midnightblue" stroke="midnightblue" points="1064.05,-204.378 1057.7,-212.86 1067.95,-210.189 1064.05,-204.378"/>
</g>
<!-- Node15 -->
<g id="node15" class="node"><title>Node15</title>
<g id="a_node15"><a xlink:href="../../db/d19/classslogo_1_1_u_i_1_1_module_creation_helper.html#a2e841243ec3ca474e8822102343acc88" target="_top" xlink:title="slogo.UI.ModuleCreationHelper.activate\lNewTurtleButton">
<polygon fill="white" stroke="black" points="1396.5,-344 1396.5,-374 1601.5,-374 1601.5,-344 1396.5,-344"/>
<text text-anchor="start" x="1404.5" y="-362" font-family="Helvetica,sans-Serif" font-size="10.00">slogo.UI.ModuleCreationHelper.activate</text>
<text text-anchor="middle" x="1499" y="-351" font-family="Helvetica,sans-Serif" font-size="10.00">NewTurtleButton</text>
</a>
</g>
</g>
<!-- Node6&#45;&gt;Node15 -->
<g id="edge16" class="edge"><title>Node6&#45;&gt;Node15</title>
<path fill="none" stroke="midnightblue" d="M1053.02,-251.155C1073.1,-278.009 1110.24,-321.013 1154,-340 1230.41,-373.152 1325.47,-375.86 1396.29,-371.435"/>
<polygon fill="midnightblue" stroke="midnightblue" points="1055.83,-249.073 1047.11,-243.055 1050.18,-253.197 1055.83,-249.073"/>
</g>
<!-- Node17 -->
<g id="node17" class="node"><title>Node17</title>
<g id="a_node17"><a xlink:href="../../db/d19/classslogo_1_1_u_i_1_1_module_creation_helper.html#a9b1f07ab673191067907a059b1b0c524" target="_top" xlink:title="slogo.UI.ModuleCreationHelper.activate\lPlayButton">
<polygon fill="white" stroke="black" points="1154.5,-301 1154.5,-331 1359.5,-331 1359.5,-301 1154.5,-301"/>
<text text-anchor="start" x="1162.5" y="-319" font-family="Helvetica,sans-Serif" font-size="10.00">slogo.UI.ModuleCreationHelper.activate</text>
<text text-anchor="middle" x="1257" y="-308" font-family="Helvetica,sans-Serif" font-size="10.00">PlayButton</text>
</a>
</g>
</g>
<!-- Node6&#45;&gt;Node17 -->
<g id="edge19" class="edge"><title>Node6&#45;&gt;Node17</title>
<path fill="none" stroke="midnightblue" d="M1069.42,-248.354C1092.33,-262.006 1124.16,-279.522 1154,-291 1163.7,-294.73 1174.14,-298.039 1184.5,-300.929"/>
<polygon fill="midnightblue" stroke="midnightblue" points="1071.16,-245.317 1060.79,-243.145 1067.54,-251.31 1071.16,-245.317"/>
</g>
<!-- Node20 -->
<g id="node20" class="node"><title>Node20</title>
<g id="a_node20"><a xlink:href="../../db/d19/classslogo_1_1_u_i_1_1_module_creation_helper.html#a3a38d485562cb17591ec3fd07cffc18a" target="_top" xlink:title="slogo.UI.ModuleCreationHelper.activate\lTurtleCanvas">
<polygon fill="white" stroke="black" points="1638.5,-87 1638.5,-117 1843.5,-117 1843.5,-87 1638.5,-87"/>
<text text-anchor="start" x="1646.5" y="-105" font-family="Helvetica,sans-Serif" font-size="10.00">slogo.UI.ModuleCreationHelper.activate</text>
<text text-anchor="middle" x="1741" y="-94" font-family="Helvetica,sans-Serif" font-size="10.00">TurtleCanvas</text>
</a>
</g>
</g>
<!-- Node6&#45;&gt;Node20 -->
<g id="edge23" class="edge"><title>Node6&#45;&gt;Node20</title>
<path fill="none" stroke="midnightblue" d="M1056.37,-205.232C1077.63,-182.064 1114.1,-147.434 1154,-132 1239.51,-98.92 1494.48,-97.5272 1638.33,-99.6157"/>
<polygon fill="midnightblue" stroke="midnightblue" points="1053.56,-203.115 1049.5,-212.898 1058.78,-207.786 1053.56,-203.115"/>
</g>
<!-- Node22 -->
<g id="node22" class="node"><title>Node22</title>
<g id="a_node22"><a xlink:href="../../d1/d5f/classslogo_1_1_u_i_1_1_path_color_selector.html#ad3d9c82a0904c97edcec7cf67b85bd7b" target="_top" xlink:title="slogo.UI.PathColorSelector.create">
<polygon fill="white" stroke="black" points="1169,-262.5 1169,-281.5 1345,-281.5 1345,-262.5 1169,-262.5"/>
<text text-anchor="middle" x="1257" y="-269.5" font-family="Helvetica,sans-Serif" font-size="10.00">slogo.UI.PathColorSelector.create</text>
</a>
</g>
</g>
<!-- Node6&#45;&gt;Node22 -->
<g id="edge26" class="edge"><title>Node6&#45;&gt;Node22</title>
<path fill="none" stroke="midnightblue" d="M1119.74,-245.065C1131.24,-247.411 1142.91,-249.776 1154,-252 1171.25,-255.46 1190.16,-259.186 1206.95,-262.473"/>
<polygon fill="midnightblue" stroke="midnightblue" points="1120.19,-241.585 1109.69,-243.013 1118.79,-248.443 1120.19,-241.585"/>
</g>
<!-- Node24 -->
<g id="node24" class="node"><title>Node24</title>
<g id="a_node24"><a xlink:href="../../d4/d8d/classslogo_1_1_u_i_1_1_background_color_selector.html#ad75ba4ce104e071811d0fe039a4e839f" target="_top" xlink:title="slogo.UI.BackgroundColor\lSelector.create">
<polygon fill="white" stroke="black" points="1187,-213 1187,-243 1327,-243 1327,-213 1187,-213"/>
<text text-anchor="start" x="1195" y="-231" font-family="Helvetica,sans-Serif" font-size="10.00">slogo.UI.BackgroundColor</text>
<text text-anchor="middle" x="1257" y="-220" font-family="Helvetica,sans-Serif" font-size="10.00">Selector.create</text>
</a>
</g>
</g>
<!-- Node6&#45;&gt;Node24 -->
<g id="edge29" class="edge"><title>Node6&#45;&gt;Node24</title>
<path fill="none" stroke="midnightblue" d="M1122.14,-228C1143.6,-228 1166.37,-228 1186.93,-228"/>
<polygon fill="midnightblue" stroke="midnightblue" points="1122.06,-224.5 1112.06,-228 1122.06,-231.5 1122.06,-224.5"/>
</g>
<!-- Node25 -->
<g id="node25" class="node"><title>Node25</title>
<g id="a_node25"><a xlink:href="../../dd/da7/classslogo_1_1_u_i_1_1_turtle_image_selector.html#a3f268d9196ffebcbb5dc322d2897a9fe" target="_top" xlink:title="slogo.UI.TurtleImageSelector.create">
<polygon fill="white" stroke="black" points="1164,-174.5 1164,-193.5 1350,-193.5 1350,-174.5 1164,-174.5"/>
<text text-anchor="middle" x="1257" y="-181.5" font-family="Helvetica,sans-Serif" font-size="10.00">slogo.UI.TurtleImageSelector.create</text>
</a>
</g>
</g>
<!-- Node6&#45;&gt;Node25 -->
<g id="edge31" class="edge"><title>Node6&#45;&gt;Node25</title>
<path fill="none" stroke="midnightblue" d="M1116.01,-210.821C1128.7,-208.147 1141.71,-205.458 1154,-203 1169.99,-199.804 1187.42,-196.493 1203.27,-193.548"/>
<polygon fill="midnightblue" stroke="midnightblue" points="1114.98,-207.463 1105.92,-212.958 1116.43,-214.311 1114.98,-207.463"/>
</g>
<!-- Node8 -->
<g id="node8" class="node"><title>Node8</title>
<g id="a_node8"><a xlink:href="../../db/d19/classslogo_1_1_u_i_1_1_module_creation_helper.html#adce7362386f9a7b3006e7db08a2d578d" target="_top" xlink:title="slogo.UI.ModuleCreationHelper.create\lIncreaseDecreaseButtons">
<polygon fill="white" stroke="black" points="1642.5,-380 1642.5,-410 1839.5,-410 1839.5,-380 1642.5,-380"/>
<text text-anchor="start" x="1650.5" y="-398" font-family="Helvetica,sans-Serif" font-size="10.00">slogo.UI.ModuleCreationHelper.create</text>
<text text-anchor="middle" x="1741" y="-387" font-family="Helvetica,sans-Serif" font-size="10.00">IncreaseDecreaseButtons</text>
</a>
</g>
</g>
<!-- Node7&#45;&gt;Node8 -->
<g id="edge7" class="edge"><title>Node7&#45;&gt;Node8</title>
<path fill="none" stroke="midnightblue" d="M1369.79,-401.913C1452.23,-400.373 1563.29,-398.299 1642.21,-396.826"/>
<polygon fill="midnightblue" stroke="midnightblue" points="1369.56,-398.416 1359.63,-402.102 1369.69,-405.415 1369.56,-398.416"/>
</g>
<!-- Node9 -->
<g id="node9" class="node"><title>Node9</title>
<g id="a_node9"><a xlink:href="../../db/d19/classslogo_1_1_u_i_1_1_module_creation_helper.html#a7c650957b2389d6e6d36e8be8a33cd2b" target="_top" xlink:title="slogo.UI.ModuleCreationHelper.create\lSelectorVBoxModules">
<polygon fill="white" stroke="black" points="1884.5,-253 1884.5,-283 2081.5,-283 2081.5,-253 1884.5,-253"/>
<text text-anchor="start" x="1892.5" y="-271" font-family="Helvetica,sans-Serif" font-size="10.00">slogo.UI.ModuleCreationHelper.create</text>
<text text-anchor="middle" x="1983" y="-260" font-family="Helvetica,sans-Serif" font-size="10.00">SelectorVBoxModules</text>
</a>
</g>
</g>
<!-- Node8&#45;&gt;Node9 -->
<g id="edge8" class="edge"><title>Node8&#45;&gt;Node9</title>
<path fill="none" stroke="midnightblue" d="M1825,-376.732C1831.54,-374.424 1837.95,-371.854 1844,-369 1892.6,-346.077 1941.46,-305.079 1965.92,-283.025"/>
<polygon fill="midnightblue" stroke="midnightblue" points="1823.75,-373.461 1815.36,-379.93 1825.95,-380.105 1823.75,-373.461"/>
</g>
<!-- Node10 -->
<g id="node10" class="node"><title>Node10</title>
<g id="a_node10"><a xlink:href="../../db/d19/classslogo_1_1_u_i_1_1_module_creation_helper.html#afb9dbbbad7d872234a5b296fe129a34e" target="_top" xlink:title="slogo.UI.ModuleCreationHelper.create\lMainPageModules">
<polygon fill="white" stroke="black" points="2122.5,-136 2122.5,-166 2319.5,-166 2319.5,-136 2122.5,-136"/>
<text text-anchor="start" x="2130.5" y="-154" font-family="Helvetica,sans-Serif" font-size="10.00">slogo.UI.ModuleCreationHelper.create</text>
<text text-anchor="middle" x="2221" y="-143" font-family="Helvetica,sans-Serif" font-size="10.00">MainPageModules</text>
</a>
</g>
</g>
<!-- Node9&#45;&gt;Node10 -->
<g id="edge9" class="edge"><title>Node9&#45;&gt;Node10</title>
<path fill="none" stroke="midnightblue" d="M2023.58,-248.38C2070.29,-225.222 2146.96,-187.212 2189.37,-166.184"/>
<polygon fill="midnightblue" stroke="midnightblue" points="2021.77,-245.366 2014.37,-252.944 2024.88,-251.638 2021.77,-245.366"/>
</g>
<!-- Node11 -->
<g id="node11" class="node"><title>Node11</title>
<g id="a_node11"><a xlink:href="../../d9/d33/classslogo_1_1_u_i_1_1_main.html#a15b7f2e399ee24d160550993ab737e73" target="_top" xlink:title="slogo.UI.Main.start">
<polygon fill="white" stroke="black" points="2356,-150.5 2356,-169.5 2462,-169.5 2462,-150.5 2356,-150.5"/>
<text text-anchor="middle" x="2409" y="-157.5" font-family="Helvetica,sans-Serif" font-size="10.00">slogo.UI.Main.start</text>
</a>
</g>
</g>
<!-- Node10&#45;&gt;Node11 -->
<g id="edge10" class="edge"><title>Node10&#45;&gt;Node11</title>
<path fill="none" stroke="midnightblue" d="M2329.8,-156.216C2338.76,-156.65 2347.53,-157.074 2355.76,-157.472"/>
<polygon fill="midnightblue" stroke="midnightblue" points="2329.79,-152.712 2319.63,-155.724 2329.45,-159.703 2329.79,-152.712"/>
</g>
<!-- Node12 -->
<g id="node12" class="node"><title>Node12</title>
<g id="a_node12"><a xlink:href="../../db/d19/classslogo_1_1_u_i_1_1_module_creation_helper.html#a3be12a7cc2b8a219db1e296211a2cb88" target="_top" xlink:title="slogo.UI.ModuleCreationHelper.activate\lExtraWorkspaceButton">
<polygon fill="white" stroke="black" points="2498.5,-163 2498.5,-193 2703.5,-193 2703.5,-163 2498.5,-163"/>
<text text-anchor="start" x="2506.5" y="-181" font-family="Helvetica,sans-Serif" font-size="10.00">slogo.UI.ModuleCreationHelper.activate</text>
<text text-anchor="middle" x="2601" y="-170" font-family="Helvetica,sans-Serif" font-size="10.00">ExtraWorkspaceButton</text>
</a>
</g>
</g>
<!-- Node11&#45;&gt;Node12 -->
<g id="edge11" class="edge"><title>Node11&#45;&gt;Node12</title>
<path fill="none" stroke="midnightblue" d="M2472.22,-165.894C2480.63,-166.691 2489.44,-167.526 2498.32,-168.367"/>
<polygon fill="midnightblue" stroke="midnightblue" points="2472.46,-162.401 2462.17,-164.942 2471.79,-169.37 2472.46,-162.401"/>
</g>
<!-- Node13 -->
<g id="node13" class="node"><title>Node13</title>
<g id="a_node13"><a xlink:href="../../db/d19/classslogo_1_1_u_i_1_1_module_creation_helper.html#a702c1ebe24d2857a10c666eb1fcc315d" target="_top" xlink:title="slogo.UI.ModuleCreationHelper.create\lExtraWorkspaceButton">
<polygon fill="white" stroke="black" points="2740.5,-189 2740.5,-219 2937.5,-219 2937.5,-189 2740.5,-189"/>
<text text-anchor="start" x="2748.5" y="-207" font-family="Helvetica,sans-Serif" font-size="10.00">slogo.UI.ModuleCreationHelper.create</text>
<text text-anchor="middle" x="2839" y="-196" font-family="Helvetica,sans-Serif" font-size="10.00">ExtraWorkspaceButton</text>
</a>
</g>
</g>
<!-- Node12&#45;&gt;Node13 -->
<g id="edge12" class="edge"><title>Node12&#45;&gt;Node13</title>
<path fill="none" stroke="midnightblue" d="M2713.77,-190.313C2722.62,-191.289 2731.52,-192.27 2740.27,-193.234"/>
<polygon fill="midnightblue" stroke="midnightblue" points="2714.12,-186.831 2703.8,-189.215 2713.35,-193.789 2714.12,-186.831"/>
</g>
<!-- Node13&#45;&gt;Node9 -->
<g id="edge13" class="edge"><title>Node13&#45;&gt;Node9</title>
<path fill="none" stroke="midnightblue" d="M2730.34,-212.068C2562.9,-224.617 2242.6,-248.62 2081.55,-260.69"/>
<polygon fill="midnightblue" stroke="midnightblue" points="2730.7,-215.551 2740.41,-211.313 2730.18,-208.571 2730.7,-215.551"/>
</g>
<!-- Node14&#45;&gt;Node10 -->
<g id="edge15" class="edge"><title>Node14&#45;&gt;Node10</title>
<path fill="none" stroke="midnightblue" d="M2096.05,-151C2104.81,-151 2113.62,-151 2122.27,-151"/>
<polygon fill="midnightblue" stroke="midnightblue" points="2095.8,-147.5 2085.8,-151 2095.8,-154.5 2095.8,-147.5"/>
</g>
<!-- Node16 -->
<g id="node16" class="node"><title>Node16</title>
<g id="a_node16"><a xlink:href="../../db/d19/classslogo_1_1_u_i_1_1_module_creation_helper.html#a07f5483df317cdf80e8ea2dda5699afa" target="_top" xlink:title="slogo.UI.ModuleCreationHelper.create\lNewTurtleButton">
<polygon fill="white" stroke="black" points="1642.5,-330 1642.5,-360 1839.5,-360 1839.5,-330 1642.5,-330"/>
<text text-anchor="start" x="1650.5" y="-348" font-family="Helvetica,sans-Serif" font-size="10.00">slogo.UI.ModuleCreationHelper.create</text>
<text text-anchor="middle" x="1741" y="-337" font-family="Helvetica,sans-Serif" font-size="10.00">NewTurtleButton</text>
</a>
</g>
</g>
<!-- Node15&#45;&gt;Node16 -->
<g id="edge17" class="edge"><title>Node15&#45;&gt;Node16</title>
<path fill="none" stroke="midnightblue" d="M1611.89,-352.473C1622.04,-351.881 1632.26,-351.285 1642.27,-350.701"/>
<polygon fill="midnightblue" stroke="midnightblue" points="1611.56,-348.986 1601.78,-353.063 1611.97,-355.974 1611.56,-348.986"/>
</g>
<!-- Node16&#45;&gt;Node9 -->
<g id="edge18" class="edge"><title>Node16&#45;&gt;Node9</title>
<path fill="none" stroke="midnightblue" d="M1812.15,-327.309C1822.87,-324.354 1833.76,-321.203 1844,-318 1877.93,-307.387 1915.86,-293.493 1943.35,-283.046"/>
<polygon fill="midnightblue" stroke="midnightblue" points="1811.12,-323.962 1802.39,-329.963 1812.96,-330.717 1811.12,-323.962"/>
</g>
<!-- Node18 -->
<g id="node18" class="node"><title>Node18</title>
<g id="a_node18"><a xlink:href="../../db/d19/classslogo_1_1_u_i_1_1_module_creation_helper.html#a9b3fb38a55b3b7812b4f793afa7a974f" target="_top" xlink:title="slogo.UI.ModuleCreationHelper.create\lPlayButton">
<polygon fill="white" stroke="black" points="1400.5,-295 1400.5,-325 1597.5,-325 1597.5,-295 1400.5,-295"/>
<text text-anchor="start" x="1408.5" y="-313" font-family="Helvetica,sans-Serif" font-size="10.00">slogo.UI.ModuleCreationHelper.create</text>
<text text-anchor="middle" x="1499" y="-302" font-family="Helvetica,sans-Serif" font-size="10.00">PlayButton</text>
</a>
</g>
</g>
<!-- Node17&#45;&gt;Node18 -->
<g id="edge20" class="edge"><title>Node17&#45;&gt;Node18</title>
<path fill="none" stroke="midnightblue" d="M1369.89,-313.203C1380.04,-312.949 1390.26,-312.694 1400.27,-312.443"/>
<polygon fill="midnightblue" stroke="midnightblue" points="1369.69,-309.707 1359.78,-313.455 1369.87,-316.704 1369.69,-309.707"/>
</g>
<!-- Node19 -->
<g id="node19" class="node"><title>Node19</title>
<g id="a_node19"><a xlink:href="../../db/d19/classslogo_1_1_u_i_1_1_module_creation_helper.html#ae1e60d37509c2e5eddcb2a6e70b4f650" target="_top" xlink:title="slogo.UI.ModuleCreationHelper.create\lFirstRowButtons">
<polygon fill="white" stroke="black" points="1642.5,-279 1642.5,-309 1839.5,-309 1839.5,-279 1642.5,-279"/>
<text text-anchor="start" x="1650.5" y="-297" font-family="Helvetica,sans-Serif" font-size="10.00">slogo.UI.ModuleCreationHelper.create</text>
<text text-anchor="middle" x="1741" y="-286" font-family="Helvetica,sans-Serif" font-size="10.00">FirstRowButtons</text>
</a>
</g>
</g>
<!-- Node18&#45;&gt;Node19 -->
<g id="edge21" class="edge"><title>Node18&#45;&gt;Node19</title>
<path fill="none" stroke="midnightblue" d="M1607.73,-302.818C1619.3,-302.046 1631.03,-301.265 1642.47,-300.502"/>
<polygon fill="midnightblue" stroke="midnightblue" points="1607.36,-299.335 1597.62,-303.492 1607.83,-306.319 1607.36,-299.335"/>
</g>
<!-- Node19&#45;&gt;Node9 -->
<g id="edge22" class="edge"><title>Node19&#45;&gt;Node9</title>
<path fill="none" stroke="midnightblue" d="M1849.73,-282.329C1861.3,-281.075 1873.03,-279.805 1884.47,-278.566"/>
<polygon fill="midnightblue" stroke="midnightblue" points="1849.18,-278.868 1839.62,-283.425 1849.94,-285.827 1849.18,-278.868"/>
</g>
<!-- Node21 -->
<g id="node21" class="node"><title>Node21</title>
<g id="a_node21"><a xlink:href="../../db/d19/classslogo_1_1_u_i_1_1_module_creation_helper.html#a803bac6b55bde712b21f2face1eeef81" target="_top" xlink:title="slogo.UI.ModuleCreationHelper.create\lTurtleCanvas">
<polygon fill="white" stroke="black" points="1884.5,-87 1884.5,-117 2081.5,-117 2081.5,-87 1884.5,-87"/>
<text text-anchor="start" x="1892.5" y="-105" font-family="Helvetica,sans-Serif" font-size="10.00">slogo.UI.ModuleCreationHelper.create</text>
<text text-anchor="middle" x="1983" y="-94" font-family="Helvetica,sans-Serif" font-size="10.00">TurtleCanvas</text>
</a>
</g>
</g>
<!-- Node20&#45;&gt;Node21 -->
<g id="edge24" class="edge"><title>Node20&#45;&gt;Node21</title>
<path fill="none" stroke="midnightblue" d="M1853.89,-102C1864.04,-102 1874.26,-102 1884.27,-102"/>
<polygon fill="midnightblue" stroke="midnightblue" points="1853.78,-98.5001 1843.78,-102 1853.78,-105.5 1853.78,-98.5001"/>
</g>
<!-- Node21&#45;&gt;Node10 -->
<g id="edge25" class="edge"><title>Node21&#45;&gt;Node10</title>
<path fill="none" stroke="midnightblue" d="M2066.42,-119.113C2092.9,-124.611 2122.03,-130.658 2147.73,-135.994"/>
<polygon fill="midnightblue" stroke="midnightblue" points="2066.91,-115.641 2056.41,-117.035 2065.49,-122.495 2066.91,-115.641"/>
</g>
<!-- Node23 -->
<g id="node23" class="node"><title>Node23</title>
<g id="a_node23"><a xlink:href="../../db/d19/classslogo_1_1_u_i_1_1_module_creation_helper.html#af7f2919454fdbf6e9d7d912e99634857" target="_top" xlink:title="slogo.UI.ModuleCreationHelper.create\lSelectors">
<polygon fill="white" stroke="black" points="1400.5,-230 1400.5,-260 1597.5,-260 1597.5,-230 1400.5,-230"/>
<text text-anchor="start" x="1408.5" y="-248" font-family="Helvetica,sans-Serif" font-size="10.00">slogo.UI.ModuleCreationHelper.create</text>
<text text-anchor="middle" x="1499" y="-237" font-family="Helvetica,sans-Serif" font-size="10.00">Selectors</text>
</a>
</g>
</g>
<!-- Node22&#45;&gt;Node23 -->
<g id="edge27" class="edge"><title>Node22&#45;&gt;Node23</title>
<path fill="none" stroke="midnightblue" d="M1352.76,-261.339C1368.36,-259.585 1384.54,-257.764 1400.21,-256.002"/>
<polygon fill="midnightblue" stroke="midnightblue" points="1352.16,-257.885 1342.62,-262.481 1352.94,-264.841 1352.16,-257.885"/>
</g>
<!-- Node23&#45;&gt;Node9 -->
<g id="edge28" class="edge"><title>Node23&#45;&gt;Node9</title>
<path fill="none" stroke="midnightblue" d="M1607.74,-250.141C1690.55,-254.092 1803.97,-259.505 1884.19,-263.333"/>
<polygon fill="midnightblue" stroke="midnightblue" points="1607.7,-246.635 1597.54,-249.654 1607.36,-253.627 1607.7,-246.635"/>
</g>
<!-- Node24&#45;&gt;Node23 -->
<g id="edge30" class="edge"><title>Node24&#45;&gt;Node23</title>
<path fill="none" stroke="midnightblue" d="M1337.18,-233.609C1357.4,-235.041 1379.37,-236.597 1400.39,-238.086"/>
<polygon fill="midnightblue" stroke="midnightblue" points="1337.32,-230.11 1327.1,-232.894 1336.82,-237.092 1337.32,-230.11"/>
</g>
<!-- Node25&#45;&gt;Node23 -->
<g id="edge32" class="edge"><title>Node25&#45;&gt;Node23</title>
<path fill="none" stroke="midnightblue" d="M1325.48,-195.473C1337.04,-197.752 1348.9,-200.287 1360,-203 1391.38,-210.673 1426.18,-221.278 1452.98,-229.911"/>
<polygon fill="midnightblue" stroke="midnightblue" points="1325.9,-191.99 1315.42,-193.539 1324.58,-198.864 1325.9,-191.99"/>
</g>
<!-- Node27 -->
<g id="node27" class="node"><title>Node27</title>
<g id="a_node27"><a xlink:href="../../db/d19/classslogo_1_1_u_i_1_1_module_creation_helper.html#a9fd730f7c1860d34bf4ac46c3828bd59" target="_top" xlink:title="slogo.UI.ModuleCreationHelper.activate\lStepIntoButton">
<polygon fill="white" stroke="black" points="1154.5,-49 1154.5,-79 1359.5,-79 1359.5,-49 1154.5,-49"/>
<text text-anchor="start" x="1162.5" y="-67" font-family="Helvetica,sans-Serif" font-size="10.00">slogo.UI.ModuleCreationHelper.activate</text>
<text text-anchor="middle" x="1257" y="-56" font-family="Helvetica,sans-Serif" font-size="10.00">StepIntoButton</text>
</a>
</g>
</g>
<!-- Node26&#45;&gt;Node27 -->
<g id="edge34" class="edge"><title>Node26&#45;&gt;Node27</title>
<path fill="none" stroke="midnightblue" d="M1125.33,-64C1134.82,-64 1144.54,-64 1154.17,-64"/>
<polygon fill="midnightblue" stroke="midnightblue" points="1125.14,-60.5001 1115.14,-64 1125.14,-67.5001 1125.14,-60.5001"/>
</g>
<!-- Node28 -->
<g id="node28" class="node"><title>Node28</title>
<g id="a_node28"><a xlink:href="../../db/d19/classslogo_1_1_u_i_1_1_module_creation_helper.html#a4a6f1f009507c25be8c7c28cbba35f3b" target="_top" xlink:title="slogo.UI.ModuleCreationHelper.create\lDebugStepIntoButton">
<polygon fill="white" stroke="black" points="1400.5,-49 1400.5,-79 1597.5,-79 1597.5,-49 1400.5,-49"/>
<text text-anchor="start" x="1408.5" y="-67" font-family="Helvetica,sans-Serif" font-size="10.00">slogo.UI.ModuleCreationHelper.create</text>
<text text-anchor="middle" x="1499" y="-56" font-family="Helvetica,sans-Serif" font-size="10.00">DebugStepIntoButton</text>
</a>
</g>
</g>
<!-- Node27&#45;&gt;Node28 -->
<g id="edge35" class="edge"><title>Node27&#45;&gt;Node28</title>
<path fill="none" stroke="midnightblue" d="M1369.89,-64C1380.04,-64 1390.26,-64 1400.27,-64"/>
<polygon fill="midnightblue" stroke="midnightblue" points="1369.78,-60.5001 1359.78,-64 1369.78,-67.5001 1369.78,-60.5001"/>
</g>
<!-- Node29 -->
<g id="node29" class="node"><title>Node29</title>
<g id="a_node29"><a xlink:href="../../db/d19/classslogo_1_1_u_i_1_1_module_creation_helper.html#a975af4ea47dc85df72215bdf1a0d20ce" target="_top" xlink:title="slogo.UI.ModuleCreationHelper.create\lDebugModules">
<polygon fill="white" stroke="black" points="1642.5,-38 1642.5,-68 1839.5,-68 1839.5,-38 1642.5,-38"/>
<text text-anchor="start" x="1650.5" y="-56" font-family="Helvetica,sans-Serif" font-size="10.00">slogo.UI.ModuleCreationHelper.create</text>
<text text-anchor="middle" x="1741" y="-45" font-family="Helvetica,sans-Serif" font-size="10.00">DebugModules</text>
</a>
</g>
</g>
<!-- Node28&#45;&gt;Node29 -->
<g id="edge36" class="edge"><title>Node28&#45;&gt;Node29</title>
<path fill="none" stroke="midnightblue" d="M1607.73,-59.0622C1619.3,-58.5319 1631.03,-57.9945 1642.47,-57.4702"/>
<polygon fill="midnightblue" stroke="midnightblue" points="1607.45,-55.5716 1597.62,-59.5259 1607.77,-62.5643 1607.45,-55.5716"/>
</g>
<!-- Node29&#45;&gt;Node10 -->
<g id="edge37" class="edge"><title>Node29&#45;&gt;Node10</title>
<path fill="none" stroke="midnightblue" d="M1849.63,-48.679C1918.53,-48.779 2009.11,-54.2973 2086,-77 2129.33,-89.7936 2174.2,-118.228 2199.46,-135.889"/>
<polygon fill="midnightblue" stroke="midnightblue" points="1849.61,-45.1789 1839.62,-48.7021 1849.63,-52.1789 1849.61,-45.1789"/>
</g>
<!-- Node31 -->
<g id="node31" class="node"><title>Node31</title>
<g id="a_node31"><a xlink:href="../../db/d19/classslogo_1_1_u_i_1_1_module_creation_helper.html#a0fed0bb32bf2643d6fd5c24d82e8e18e" target="_top" xlink:title="slogo.UI.ModuleCreationHelper.activate\lStepOverButton">
<polygon fill="white" stroke="black" points="1154.5,-0 1154.5,-30 1359.5,-30 1359.5,-0 1154.5,-0"/>
<text text-anchor="start" x="1162.5" y="-18" font-family="Helvetica,sans-Serif" font-size="10.00">slogo.UI.ModuleCreationHelper.activate</text>
<text text-anchor="middle" x="1257" y="-7" font-family="Helvetica,sans-Serif" font-size="10.00">StepOverButton</text>
</a>
</g>
</g>
<!-- Node30&#45;&gt;Node31 -->
<g id="edge39" class="edge"><title>Node30&#45;&gt;Node31</title>
<path fill="none" stroke="midnightblue" d="M1127.8,-18.5123C1136.56,-18.2724 1145.48,-18.028 1154.33,-17.7856"/>
<polygon fill="midnightblue" stroke="midnightblue" points="1127.51,-15.0187 1117.61,-18.7914 1127.71,-22.0161 1127.51,-15.0187"/>
</g>
<!-- Node32 -->
<g id="node32" class="node"><title>Node32</title>
<g id="a_node32"><a xlink:href="../../db/d19/classslogo_1_1_u_i_1_1_module_creation_helper.html#aa1e7dc2b509360583790fba0d3819c8d" target="_top" xlink:title="slogo.UI.ModuleCreationHelper.create\lDebugStepOverButton">
<polygon fill="white" stroke="black" points="1400.5,-0 1400.5,-30 1597.5,-30 1597.5,-0 1400.5,-0"/>
<text text-anchor="start" x="1408.5" y="-18" font-family="Helvetica,sans-Serif" font-size="10.00">slogo.UI.ModuleCreationHelper.create</text>
<text text-anchor="middle" x="1499" y="-7" font-family="Helvetica,sans-Serif" font-size="10.00">DebugStepOverButton</text>
</a>
</g>
</g>
<!-- Node31&#45;&gt;Node32 -->
<g id="edge40" class="edge"><title>Node31&#45;&gt;Node32</title>
<path fill="none" stroke="midnightblue" d="M1369.89,-15C1380.04,-15 1390.26,-15 1400.27,-15"/>
<polygon fill="midnightblue" stroke="midnightblue" points="1369.78,-11.5001 1359.78,-15 1369.78,-18.5001 1369.78,-11.5001"/>
</g>
<!-- Node32&#45;&gt;Node29 -->
<g id="edge41" class="edge"><title>Node32&#45;&gt;Node29</title>
<path fill="none" stroke="midnightblue" d="M1604.99,-31.6227C1618.31,-33.7329 1631.89,-35.8827 1645.05,-37.966"/>
<polygon fill="midnightblue" stroke="midnightblue" points="1605.28,-28.1256 1594.85,-30.0186 1604.18,-35.0395 1605.28,-28.1256"/>
</g>
</g>
</svg>
