<?xml version="1.0" encoding="UTF-8" standalone="no"?>
<!DOCTYPE svg PUBLIC "-//W3C//DTD SVG 1.1//EN"
 "http://www.w3.org/Graphics/SVG/1.1/DTD/svg11.dtd">
<!-- Generated by graphviz version 2.36.0 (20140111.2315)
 -->
<!-- Title: slogo.UI.MethodRunner.setTurtleDirection Pages: 1 -->
<svg width="352pt" height="126pt"
 viewBox="0.00 0.00 352.00 126.00" xmlns="http://www.w3.org/2000/svg" xmlns:xlink="http://www.w3.org/1999/xlink">
<g id="graph0" class="graph" transform="scale(1 1) rotate(0) translate(4 122)">
<title>slogo.UI.MethodRunner.setTurtleDirection</title>
<polygon fill="white" stroke="none" points="-4,4 -4,-122 348,-122 348,4 -4,4"/>
<!-- Node1 -->
<g id="node1" class="node"><title>Node1</title>
<polygon fill="#bfbfbf" stroke="black" points="0,-49 0,-79 144,-79 144,-49 0,-49"/>
<text text-anchor="start" x="8" y="-67" font-family="Helvetica,sans-Serif" font-size="10.00">slogo.UI.MethodRunner.set</text>
<text text-anchor="middle" x="72" y="-56" font-family="Helvetica,sans-Serif" font-size="10.00">TurtleDirection</text>
</g>
<!-- Node2 -->
<g id="node2" class="node"><title>Node2</title>
<g id="a_node2"><a xlink:href="../../d5/deb/classslogo_1_1_u_i_1_1_turtle.html#a3668db47c95c920dff92209832467a0f" target="_top" xlink:title="slogo.UI.Turtle.setOrientation">
<polygon fill="white" stroke="black" points="184.5,-98.5 184.5,-117.5 339.5,-117.5 339.5,-98.5 184.5,-98.5"/>
<text text-anchor="middle" x="262" y="-105.5" font-family="Helvetica,sans-Serif" font-size="10.00">slogo.UI.Turtle.setOrientation</text>
</a>
</g>
</g>
<!-- Node1&#45;&gt;Node2 -->
<g id="edge1" class="edge"><title>Node1&#45;&gt;Node2</title>
<path fill="none" stroke="midnightblue" d="M137.173,-79.0192C161.064,-84.6108 187.823,-90.8735 210.336,-96.1426"/>
<polygon fill="midnightblue" stroke="midnightblue" points="209.822,-99.6166 220.356,-98.4876 211.417,-92.8008 209.822,-99.6166"/>
</g>
<!-- Node3 -->
<g id="node3" class="node"><title>Node3</title>
<g id="a_node3"><a xlink:href="../../d0/d07/interfaceslogo_1_1backend_1_1util_1_1_i_direction.html#a166b3806a3c7c0145a4eaa02576d1d41" target="_top" xlink:title="slogo.backend.util.IDirection.to\lDegrees">
<polygon fill="white" stroke="black" points="180,-49 180,-79 344,-79 344,-49 180,-49"/>
<text text-anchor="start" x="188" y="-67" font-family="Helvetica,sans-Serif" font-size="10.00">slogo.backend.util.IDirection.to</text>
<text text-anchor="middle" x="262" y="-56" font-family="Helvetica,sans-Serif" font-size="10.00">Degrees</text>
</a>
</g>
</g>
<!-- Node1&#45;&gt;Node3 -->
<g id="edge2" class="edge"><title>Node1&#45;&gt;Node3</title>
<path fill="none" stroke="midnightblue" d="M144.075,-64C152.445,-64 161.074,-64 169.673,-64"/>
<polygon fill="midnightblue" stroke="midnightblue" points="169.736,-67.5001 179.736,-64 169.736,-60.5001 169.736,-67.5001"/>
</g>
<!-- Node4 -->
<g id="node4" class="node"><title>Node4</title>
<g id="a_node4"><a xlink:href="../../da/dce/interfaceslogo_1_1backend_1_1util_1_1_i_turtle_status.html#a4a08f292d66a8b54cd6f9d762f96cb77" target="_top" xlink:title="slogo.backend.util.ITurtle\lStatus.turtleDirection">
<polygon fill="white" stroke="black" points="195,-0 195,-30 329,-30 329,-0 195,-0"/>
<text text-anchor="start" x="203" y="-18" font-family="Helvetica,sans-Serif" font-size="10.00">slogo.backend.util.ITurtle</text>
<text text-anchor="middle" x="262" y="-7" font-family="Helvetica,sans-Serif" font-size="10.00">Status.turtleDirection</text>
</a>
</g>
</g>
<!-- Node1&#45;&gt;Node4 -->
<g id="edge3" class="edge"><title>Node1&#45;&gt;Node4</title>
<path fill="none" stroke="midnightblue" d="M130.684,-48.9654C150.534,-43.7917 172.937,-37.9525 193.499,-32.5934"/>
<polygon fill="midnightblue" stroke="midnightblue" points="194.631,-35.9152 203.425,-30.0062 192.866,-29.1415 194.631,-35.9152"/>
</g>
</g>
</svg>
