<?xml version="1.0" encoding="UTF-8" standalone="no"?>
<!DOCTYPE svg PUBLIC "-//W3C//DTD SVG 1.1//EN"
 "http://www.w3.org/Graphics/SVG/1.1/DTD/svg11.dtd">
<!-- Generated by graphviz version 2.36.0 (20140111.2315)
 -->
<!-- Title: slogo.UI.MethodRunner.setPenColor Pages: 1 -->
<svg width="2916pt" height="427pt"
 viewBox="0.00 0.00 2916.00 427.00" xmlns="http://www.w3.org/2000/svg" xmlns:xlink="http://www.w3.org/1999/xlink">
<g id="graph0" class="graph" transform="scale(1 1) rotate(0) translate(4 423)">
<title>slogo.UI.MethodRunner.setPenColor</title>
<polygon fill="white" stroke="none" points="-4,4 -4,-423 2912,-423 2912,4 -4,4"/>
<!-- Node1 -->
<g id="node1" class="node"><title>Node1</title>
<polygon fill="#bfbfbf" stroke="black" points="0,-49 0,-79 144,-79 144,-49 0,-49"/>
<text text-anchor="start" x="8" y="-67" font-family="Helvetica,sans-Serif" font-size="10.00">slogo.UI.MethodRunner.set</text>
<text text-anchor="middle" x="72" y="-56" font-family="Helvetica,sans-Serif" font-size="10.00">PenColor</text>
</g>
<!-- Node2 -->
<g id="node2" class="node"><title>Node2</title>
<g id="a_node2"><a xlink:href="../../d9/d7e/classslogo_1_1_u_i_1_1_method_runner.html#a5e01d88aabd60df2be9ebb5b874837b1" target="_top" xlink:title="slogo.UI.MethodRunner.set\lPenAttributes">
<polygon fill="white" stroke="black" points="180,-49 180,-79 324,-79 324,-49 180,-49"/>
<text text-anchor="start" x="188" y="-67" font-family="Helvetica,sans-Serif" font-size="10.00">slogo.UI.MethodRunner.set</text>
<text text-anchor="middle" x="252" y="-56" font-family="Helvetica,sans-Serif" font-size="10.00">PenAttributes</text>
</a>
</g>
</g>
<!-- Node1&#45;&gt;Node2 -->
<g id="edge1" class="edge"><title>Node1&#45;&gt;Node2</title>
<path fill="none" stroke="midnightblue" d="M154.17,-64C162.789,-64 171.506,-64 179.995,-64"/>
<polygon fill="midnightblue" stroke="midnightblue" points="154.118,-60.5001 144.118,-64 154.118,-67.5001 154.118,-60.5001"/>
</g>
<!-- Node3 -->
<g id="node3" class="node"><title>Node3</title>
<g id="a_node3"><a xlink:href="../../d9/d7e/classslogo_1_1_u_i_1_1_method_runner.html#a5fe4a6310ba1b0851d7d30a440511324" target="_top" xlink:title="slogo.UI.MethodRunner.change\lTurtle">
<polygon fill="white" stroke="black" points="360,-49 360,-79 524,-79 524,-49 360,-49"/>
<text text-anchor="start" x="368" y="-67" font-family="Helvetica,sans-Serif" font-size="10.00">slogo.UI.MethodRunner.change</text>
<text text-anchor="middle" x="442" y="-56" font-family="Helvetica,sans-Serif" font-size="10.00">Turtle</text>
</a>
</g>
</g>
<!-- Node2&#45;&gt;Node3 -->
<g id="edge2" class="edge"><title>Node2&#45;&gt;Node3</title>
<path fill="none" stroke="midnightblue" d="M334.28,-64C342.719,-64 351.298,-64 359.736,-64"/>
<polygon fill="midnightblue" stroke="midnightblue" points="334.075,-60.5001 324.075,-64 334.075,-67.5001 334.075,-60.5001"/>
</g>
<!-- Node4 -->
<g id="node4" class="node"><title>Node4</title>
<g id="a_node4"><a xlink:href="../../df/d2d/classslogo_1_1_view.html#accc79c56511a72090ff8a4d414b8d1f5" target="_top" xlink:title="slogo.View.executeTurtle\lCommands">
<polygon fill="white" stroke="black" points="560.5,-49 560.5,-79 693.5,-79 693.5,-49 560.5,-49"/>
<text text-anchor="start" x="568.5" y="-67" font-family="Helvetica,sans-Serif" font-size="10.00">slogo.View.executeTurtle</text>
<text text-anchor="middle" x="627" y="-56" font-family="Helvetica,sans-Serif" font-size="10.00">Commands</text>
</a>
</g>
</g>
<!-- Node3&#45;&gt;Node4 -->
<g id="edge3" class="edge"><title>Node3&#45;&gt;Node4</title>
<path fill="none" stroke="midnightblue" d="M534.35,-64C543.128,-64 551.907,-64 560.365,-64"/>
<polygon fill="midnightblue" stroke="midnightblue" points="534.066,-60.5001 524.066,-64 534.066,-67.5001 534.066,-60.5001"/>
</g>
<!-- Node5 -->
<g id="node5" class="node"><title>Node5</title>
<g id="a_node5"><a xlink:href="../../df/d2d/classslogo_1_1_view.html#aa90e5d95d422b58b7f4b7f8a049defe1" target="_top" xlink:title="slogo.View.executeCommand">
<polygon fill="white" stroke="black" points="730,-54.5 730,-73.5 888,-73.5 888,-54.5 730,-54.5"/>
<text text-anchor="middle" x="809" y="-61.5" font-family="Helvetica,sans-Serif" font-size="10.00">slogo.View.executeCommand</text>
</a>
</g>
</g>
<!-- Node4&#45;&gt;Node5 -->
<g id="edge4" class="edge"><title>Node4&#45;&gt;Node5</title>
<path fill="none" stroke="midnightblue" d="M703.784,-64C712.42,-64 721.235,-64 729.901,-64"/>
<polygon fill="midnightblue" stroke="midnightblue" points="703.748,-60.5001 693.748,-64 703.748,-67.5001 703.748,-60.5001"/>
</g>
<!-- Node6 -->
<g id="node6" class="node"><title>Node6</title>
<g id="a_node6"><a xlink:href="../../df/d2d/classslogo_1_1_view.html#aee563f6a0b15ac6668e4dcbdad40c73c" target="_top" xlink:title="slogo.View.sendCommandTo\lBackend">
<polygon fill="white" stroke="black" points="930,-213 930,-243 1082,-243 1082,-213 930,-213"/>
<text text-anchor="start" x="938" y="-231" font-family="Helvetica,sans-Serif" font-size="10.00">slogo.View.sendCommandTo</text>
<text text-anchor="middle" x="1006" y="-220" font-family="Helvetica,sans-Serif" font-size="10.00">Backend</text>
</a>
</g>
</g>
<!-- Node5&#45;&gt;Node6 -->
<g id="edge5" class="edge"><title>Node5&#45;&gt;Node6</title>
<path fill="none" stroke="midnightblue" d="M829.054,-80.0252C866.765,-111.741 950.433,-182.108 987.146,-212.984"/>
<polygon fill="midnightblue" stroke="midnightblue" points="831.233,-77.2841 821.327,-73.5262 826.727,-82.6414 831.233,-77.2841"/>
</g>
<!-- Node26 -->
<g id="node26" class="node"><title>Node26</title>
<g id="a_node26"><a xlink:href="../../df/d2d/classslogo_1_1_view.html#a4c3084a198acf85804800d70eff9ee51" target="_top" xlink:title="slogo.View.stepIntoCommand">
<polygon fill="white" stroke="black" points="927,-54.5 927,-73.5 1085,-73.5 1085,-54.5 927,-54.5"/>
<text text-anchor="middle" x="1006" y="-61.5" font-family="Helvetica,sans-Serif" font-size="10.00">slogo.View.stepIntoCommand</text>
</a>
</g>
</g>
<!-- Node5&#45;&gt;Node26 -->
<g id="edge33" class="edge"><title>Node5&#45;&gt;Node26</title>
<path fill="none" stroke="midnightblue" d="M898.402,-64C907.87,-64 917.454,-64 926.792,-64"/>
<polygon fill="midnightblue" stroke="midnightblue" points="898.19,-60.5001 888.19,-64 898.19,-67.5001 898.19,-60.5001"/>
</g>
<!-- Node30 -->
<g id="node30" class="node"><title>Node30</title>
<g id="a_node30"><a xlink:href="../../df/d2d/classslogo_1_1_view.html#ac8b7f574c679e744a430f1649dc55e68" target="_top" xlink:title="slogo.View.stepOverCommand">
<polygon fill="white" stroke="black" points="924.5,-11.5 924.5,-30.5 1087.5,-30.5 1087.5,-11.5 924.5,-11.5"/>
<text text-anchor="middle" x="1006" y="-18.5" font-family="Helvetica,sans-Serif" font-size="10.00">slogo.View.stepOverCommand</text>
</a>
</g>
</g>
<!-- Node5&#45;&gt;Node30 -->
<g id="edge38" class="edge"><title>Node5&#45;&gt;Node30</title>
<path fill="none" stroke="midnightblue" d="M863.056,-52.3005C894.068,-45.462 932.711,-36.9406 961.844,-30.5164"/>
<polygon fill="midnightblue" stroke="midnightblue" points="862.288,-48.8855 853.277,-54.4569 863.796,-55.7213 862.288,-48.8855"/>
</g>
<!-- Node7 -->
<g id="node7" class="node"><title>Node7</title>
<g id="a_node7"><a xlink:href="../../db/d19/classslogo_1_1_u_i_1_1_module_creation_helper.html#a69e17abcc7cf9a6ed7261d8fb1d631fa" target="_top" xlink:title="slogo.UI.ModuleCreationHelper.activate\lIncreaseDecreaseButtons">
<polygon fill="white" stroke="black" points="1124.5,-389 1124.5,-419 1329.5,-419 1329.5,-389 1124.5,-389"/>
<text text-anchor="start" x="1132.5" y="-407" font-family="Helvetica,sans-Serif" font-size="10.00">slogo.UI.ModuleCreationHelper.activate</text>
<text text-anchor="middle" x="1227" y="-396" font-family="Helvetica,sans-Serif" font-size="10.00">IncreaseDecreaseButtons</text>
</a>
</g>
</g>
<!-- Node6&#45;&gt;Node7 -->
<g id="edge6" class="edge"><title>Node6&#45;&gt;Node7</title>
<path fill="none" stroke="midnightblue" d="M1020.04,-252.219C1038.78,-284.724 1076.36,-342.06 1124,-374 1133.12,-380.116 1143.51,-385.01 1154.09,-388.919"/>
<polygon fill="midnightblue" stroke="midnightblue" points="1023.01,-250.361 1015.05,-243.368 1016.91,-253.798 1023.01,-250.361"/>
</g>
<!-- Node14 -->
<g id="node14" class="node"><title>Node14</title>
<g id="a_node14"><a xlink:href="../../db/d19/classslogo_1_1_u_i_1_1_module_creation_helper.html#aa70b0ad9e90e62509149bfd2ef2ba209" target="_top" xlink:title="slogo.UI.ModuleCreationHelper.activate\lKeyEvents">
<polygon fill="white" stroke="black" points="1850.5,-136 1850.5,-166 2055.5,-166 2055.5,-136 1850.5,-136"/>
<text text-anchor="start" x="1858.5" y="-154" font-family="Helvetica,sans-Serif" font-size="10.00">slogo.UI.ModuleCreationHelper.activate</text>
<text text-anchor="middle" x="1953" y="-143" font-family="Helvetica,sans-Serif" font-size="10.00">KeyEvents</text>
</a>
</g>
</g>
<!-- Node6&#45;&gt;Node14 -->
<g id="edge14" class="edge"><title>Node6&#45;&gt;Node14</title>
<path fill="none" stroke="midnightblue" d="M1036.18,-207.164C1058.9,-192.251 1091.88,-173.388 1124,-165 1258.15,-129.97 1660.16,-139.777 1850.26,-146.744"/>
<polygon fill="midnightblue" stroke="midnightblue" points="1034.05,-204.378 1027.7,-212.86 1037.95,-210.189 1034.05,-204.378"/>
</g>
<!-- Node15 -->
<g id="node15" class="node"><title>Node15</title>
<g id="a_node15"><a xlink:href="../../db/d19/classslogo_1_1_u_i_1_1_module_creation_helper.html#a2e841243ec3ca474e8822102343acc88" target="_top" xlink:title="slogo.UI.ModuleCreationHelper.activate\lNewTurtleButton">
<polygon fill="white" stroke="black" points="1366.5,-344 1366.5,-374 1571.5,-374 1571.5,-344 1366.5,-344"/>
<text text-anchor="start" x="1374.5" y="-362" font-family="Helvetica,sans-Serif" font-size="10.00">slogo.UI.ModuleCreationHelper.activate</text>
<text text-anchor="middle" x="1469" y="-351" font-family="Helvetica,sans-Serif" font-size="10.00">NewTurtleButton</text>
</a>
</g>
</g>
<!-- Node6&#45;&gt;Node15 -->
<g id="edge16" class="edge"><title>Node6&#45;&gt;Node15</title>
<path fill="none" stroke="midnightblue" d="M1023.02,-251.155C1043.1,-278.009 1080.24,-321.013 1124,-340 1200.41,-373.152 1295.47,-375.86 1366.29,-371.435"/>
<polygon fill="midnightblue" stroke="midnightblue" points="1025.83,-249.073 1017.11,-243.055 1020.18,-253.197 1025.83,-249.073"/>
</g>
<!-- Node17 -->
<g id="node17" class="node"><title>Node17</title>
<g id="a_node17"><a xlink:href="../../db/d19/classslogo_1_1_u_i_1_1_module_creation_helper.html#a9b1f07ab673191067907a059b1b0c524" target="_top" xlink:title="slogo.UI.ModuleCreationHelper.activate\lPlayButton">
<polygon fill="white" stroke="black" points="1124.5,-301 1124.5,-331 1329.5,-331 1329.5,-301 1124.5,-301"/>
<text text-anchor="start" x="1132.5" y="-319" font-family="Helvetica,sans-Serif" font-size="10.00">slogo.UI.ModuleCreationHelper.activate</text>
<text text-anchor="middle" x="1227" y="-308" font-family="Helvetica,sans-Serif" font-size="10.00">PlayButton</text>
</a>
</g>
</g>
<!-- Node6&#45;&gt;Node17 -->
<g id="edge19" class="edge"><title>Node6&#45;&gt;Node17</title>
<path fill="none" stroke="midnightblue" d="M1039.42,-248.354C1062.33,-262.006 1094.16,-279.522 1124,-291 1133.7,-294.73 1144.14,-298.039 1154.5,-300.929"/>
<polygon fill="midnightblue" stroke="midnightblue" points="1041.16,-245.317 1030.79,-243.145 1037.54,-251.31 1041.16,-245.317"/>
</g>
<!-- Node20 -->
<g id="node20" class="node"><title>Node20</title>
<g id="a_node20"><a xlink:href="../../db/d19/classslogo_1_1_u_i_1_1_module_creation_helper.html#a3a38d485562cb17591ec3fd07cffc18a" target="_top" xlink:title="slogo.UI.ModuleCreationHelper.activate\lTurtleCanvas">
<polygon fill="white" stroke="black" points="1608.5,-87 1608.5,-117 1813.5,-117 1813.5,-87 1608.5,-87"/>
<text text-anchor="start" x="1616.5" y="-105" font-family="Helvetica,sans-Serif" font-size="10.00">slogo.UI.ModuleCreationHelper.activate</text>
<text text-anchor="middle" x="1711" y="-94" font-family="Helvetica,sans-Serif" font-size="10.00">TurtleCanvas</text>
</a>
</g>
</g>
<!-- Node6&#45;&gt;Node20 -->
<g id="edge23" class="edge"><title>Node6&#45;&gt;Node20</title>
<path fill="none" stroke="midnightblue" d="M1026.37,-205.232C1047.63,-182.064 1084.1,-147.434 1124,-132 1209.51,-98.92 1464.48,-97.5272 1608.33,-99.6157"/>
<polygon fill="midnightblue" stroke="midnightblue" points="1023.56,-203.115 1019.5,-212.898 1028.78,-207.786 1023.56,-203.115"/>
</g>
<!-- Node22 -->
<g id="node22" class="node"><title>Node22</title>
<g id="a_node22"><a xlink:href="../../d1/d5f/classslogo_1_1_u_i_1_1_path_color_selector.html#ad3d9c82a0904c97edcec7cf67b85bd7b" target="_top" xlink:title="slogo.UI.PathColorSelector.create">
<polygon fill="white" stroke="black" points="1139,-262.5 1139,-281.5 1315,-281.5 1315,-262.5 1139,-262.5"/>
<text text-anchor="middle" x="1227" y="-269.5" font-family="Helvetica,sans-Serif" font-size="10.00">slogo.UI.PathColorSelector.create</text>
</a>
</g>
</g>
<!-- Node6&#45;&gt;Node22 -->
<g id="edge26" class="edge"><title>Node6&#45;&gt;Node22</title>
<path fill="none" stroke="midnightblue" d="M1089.74,-245.065C1101.24,-247.411 1112.91,-249.776 1124,-252 1141.25,-255.46 1160.16,-259.186 1176.95,-262.473"/>
<polygon fill="midnightblue" stroke="midnightblue" points="1090.19,-241.585 1079.69,-243.013 1088.79,-248.443 1090.19,-241.585"/>
</g>
<!-- Node24 -->
<g id="node24" class="node"><title>Node24</title>
<g id="a_node24"><a xlink:href="../../d4/d8d/classslogo_1_1_u_i_1_1_background_color_selector.html#ad75ba4ce104e071811d0fe039a4e839f" target="_top" xlink:title="slogo.UI.BackgroundColor\lSelector.create">
<polygon fill="white" stroke="black" points="1157,-213 1157,-243 1297,-243 1297,-213 1157,-213"/>
<text text-anchor="start" x="1165" y="-231" font-family="Helvetica,sans-Serif" font-size="10.00">slogo.UI.BackgroundColor</text>
<text text-anchor="middle" x="1227" y="-220" font-family="Helvetica,sans-Serif" font-size="10.00">Selector.create</text>
</a>
</g>
</g>
<!-- Node6&#45;&gt;Node24 -->
<g id="edge29" class="edge"><title>Node6&#45;&gt;Node24</title>
<path fill="none" stroke="midnightblue" d="M1092.14,-228C1113.6,-228 1136.37,-228 1156.93,-228"/>
<polygon fill="midnightblue" stroke="midnightblue" points="1092.06,-224.5 1082.06,-228 1092.06,-231.5 1092.06,-224.5"/>
</g>
<!-- Node25 -->
<g id="node25" class="node"><title>Node25</title>
<g id="a_node25"><a xlink:href="../../dd/da7/classslogo_1_1_u_i_1_1_turtle_image_selector.html#a3f268d9196ffebcbb5dc322d2897a9fe" target="_top" xlink:title="slogo.UI.TurtleImageSelector.create">
<polygon fill="white" stroke="black" points="1134,-174.5 1134,-193.5 1320,-193.5 1320,-174.5 1134,-174.5"/>
<text text-anchor="middle" x="1227" y="-181.5" font-family="Helvetica,sans-Serif" font-size="10.00">slogo.UI.TurtleImageSelector.create</text>
</a>
</g>
</g>
<!-- Node6&#45;&gt;Node25 -->
<g id="edge31" class="edge"><title>Node6&#45;&gt;Node25</title>
<path fill="none" stroke="midnightblue" d="M1086.01,-210.821C1098.7,-208.147 1111.71,-205.458 1124,-203 1139.99,-199.804 1157.42,-196.493 1173.27,-193.548"/>
<polygon fill="midnightblue" stroke="midnightblue" points="1084.98,-207.463 1075.92,-212.958 1086.43,-214.311 1084.98,-207.463"/>
</g>
<!-- Node8 -->
<g id="node8" class="node"><title>Node8</title>
<g id="a_node8"><a xlink:href="../../db/d19/classslogo_1_1_u_i_1_1_module_creation_helper.html#adce7362386f9a7b3006e7db08a2d578d" target="_top" xlink:title="slogo.UI.ModuleCreationHelper.create\lIncreaseDecreaseButtons">
<polygon fill="white" stroke="black" points="1612.5,-380 1612.5,-410 1809.5,-410 1809.5,-380 1612.5,-380"/>
<text text-anchor="start" x="1620.5" y="-398" font-family="Helvetica,sans-Serif" font-size="10.00">slogo.UI.ModuleCreationHelper.create</text>
<text text-anchor="middle" x="1711" y="-387" font-family="Helvetica,sans-Serif" font-size="10.00">IncreaseDecreaseButtons</text>
</a>
</g>
</g>
<!-- Node7&#45;&gt;Node8 -->
<g id="edge7" class="edge"><title>Node7&#45;&gt;Node8</title>
<path fill="none" stroke="midnightblue" d="M1339.79,-401.913C1422.23,-400.373 1533.29,-398.299 1612.21,-396.826"/>
<polygon fill="midnightblue" stroke="midnightblue" points="1339.56,-398.416 1329.63,-402.102 1339.69,-405.415 1339.56,-398.416"/>
</g>
<!-- Node9 -->
<g id="node9" class="node"><title>Node9</title>
<g id="a_node9"><a xlink:href="../../db/d19/classslogo_1_1_u_i_1_1_module_creation_helper.html#a7c650957b2389d6e6d36e8be8a33cd2b" target="_top" xlink:title="slogo.UI.ModuleCreationHelper.create\lSelectorVBoxModules">
<polygon fill="white" stroke="black" points="1854.5,-253 1854.5,-283 2051.5,-283 2051.5,-253 1854.5,-253"/>
<text text-anchor="start" x="1862.5" y="-271" font-family="Helvetica,sans-Serif" font-size="10.00">slogo.UI.ModuleCreationHelper.create</text>
<text text-anchor="middle" x="1953" y="-260" font-family="Helvetica,sans-Serif" font-size="10.00">SelectorVBoxModules</text>
</a>
</g>
</g>
<!-- Node8&#45;&gt;Node9 -->
<g id="edge8" class="edge"><title>Node8&#45;&gt;Node9</title>
<path fill="none" stroke="midnightblue" d="M1795,-376.732C1801.54,-374.424 1807.95,-371.854 1814,-369 1862.6,-346.077 1911.46,-305.079 1935.92,-283.025"/>
<polygon fill="midnightblue" stroke="midnightblue" points="1793.75,-373.461 1785.36,-379.93 1795.95,-380.105 1793.75,-373.461"/>
</g>
<!-- Node10 -->
<g id="node10" class="node"><title>Node10</title>
<g id="a_node10"><a xlink:href="../../db/d19/classslogo_1_1_u_i_1_1_module_creation_helper.html#afb9dbbbad7d872234a5b296fe129a34e" target="_top" xlink:title="slogo.UI.ModuleCreationHelper.create\lMainPageModules">
<polygon fill="white" stroke="black" points="2092.5,-136 2092.5,-166 2289.5,-166 2289.5,-136 2092.5,-136"/>
<text text-anchor="start" x="2100.5" y="-154" font-family="Helvetica,sans-Serif" font-size="10.00">slogo.UI.ModuleCreationHelper.create</text>
<text text-anchor="middle" x="2191" y="-143" font-family="Helvetica,sans-Serif" font-size="10.00">MainPageModules</text>
</a>
</g>
</g>
<!-- Node9&#45;&gt;Node10 -->
<g id="edge9" class="edge"><title>Node9&#45;&gt;Node10</title>
<path fill="none" stroke="midnightblue" d="M1993.58,-248.38C2040.29,-225.222 2116.96,-187.212 2159.37,-166.184"/>
<polygon fill="midnightblue" stroke="midnightblue" points="1991.77,-245.366 1984.37,-252.944 1994.88,-251.638 1991.77,-245.366"/>
</g>
<!-- Node11 -->
<g id="node11" class="node"><title>Node11</title>
<g id="a_node11"><a xlink:href="../../d9/d33/classslogo_1_1_u_i_1_1_main.html#a15b7f2e399ee24d160550993ab737e73" target="_top" xlink:title="slogo.UI.Main.start">
<polygon fill="white" stroke="black" points="2326,-150.5 2326,-169.5 2432,-169.5 2432,-150.5 2326,-150.5"/>
<text text-anchor="middle" x="2379" y="-157.5" font-family="Helvetica,sans-Serif" font-size="10.00">slogo.UI.Main.start</text>
</a>
</g>
</g>
<!-- Node10&#45;&gt;Node11 -->
<g id="edge10" class="edge"><title>Node10&#45;&gt;Node11</title>
<path fill="none" stroke="midnightblue" d="M2299.8,-156.216C2308.76,-156.65 2317.53,-157.074 2325.76,-157.472"/>
<polygon fill="midnightblue" stroke="midnightblue" points="2299.79,-152.712 2289.63,-155.724 2299.45,-159.703 2299.79,-152.712"/>
</g>
<!-- Node12 -->
<g id="node12" class="node"><title>Node12</title>
<g id="a_node12"><a xlink:href="../../db/d19/classslogo_1_1_u_i_1_1_module_creation_helper.html#a3be12a7cc2b8a219db1e296211a2cb88" target="_top" xlink:title="slogo.UI.ModuleCreationHelper.activate\lExtraWorkspaceButton">
<polygon fill="white" stroke="black" points="2468.5,-163 2468.5,-193 2673.5,-193 2673.5,-163 2468.5,-163"/>
<text text-anchor="start" x="2476.5" y="-181" font-family="Helvetica,sans-Serif" font-size="10.00">slogo.UI.ModuleCreationHelper.activate</text>
<text text-anchor="middle" x="2571" y="-170" font-family="Helvetica,sans-Serif" font-size="10.00">ExtraWorkspaceButton</text>
</a>
</g>
</g>
<!-- Node11&#45;&gt;Node12 -->
<g id="edge11" class="edge"><title>Node11&#45;&gt;Node12</title>
<path fill="none" stroke="midnightblue" d="M2442.22,-165.894C2450.63,-166.691 2459.44,-167.526 2468.32,-168.367"/>
<polygon fill="midnightblue" stroke="midnightblue" points="2442.46,-162.401 2432.17,-164.942 2441.79,-169.37 2442.46,-162.401"/>
</g>
<!-- Node13 -->
<g id="node13" class="node"><title>Node13</title>
<g id="a_node13"><a xlink:href="../../db/d19/classslogo_1_1_u_i_1_1_module_creation_helper.html#a702c1ebe24d2857a10c666eb1fcc315d" target="_top" xlink:title="slogo.UI.ModuleCreationHelper.create\lExtraWorkspaceButton">
<polygon fill="white" stroke="black" points="2710.5,-189 2710.5,-219 2907.5,-219 2907.5,-189 2710.5,-189"/>
<text text-anchor="start" x="2718.5" y="-207" font-family="Helvetica,sans-Serif" font-size="10.00">slogo.UI.ModuleCreationHelper.create</text>
<text text-anchor="middle" x="2809" y="-196" font-family="Helvetica,sans-Serif" font-size="10.00">ExtraWorkspaceButton</text>
</a>
</g>
</g>
<!-- Node12&#45;&gt;Node13 -->
<g id="edge12" class="edge"><title>Node12&#45;&gt;Node13</title>
<path fill="none" stroke="midnightblue" d="M2683.77,-190.313C2692.62,-191.289 2701.52,-192.27 2710.27,-193.234"/>
<polygon fill="midnightblue" stroke="midnightblue" points="2684.12,-186.831 2673.8,-189.215 2683.35,-193.789 2684.12,-186.831"/>
</g>
<!-- Node13&#45;&gt;Node9 -->
<g id="edge13" class="edge"><title>Node13&#45;&gt;Node9</title>
<path fill="none" stroke="midnightblue" d="M2700.34,-212.068C2532.9,-224.617 2212.6,-248.62 2051.55,-260.69"/>
<polygon fill="midnightblue" stroke="midnightblue" points="2700.7,-215.551 2710.41,-211.313 2700.18,-208.571 2700.7,-215.551"/>
</g>
<!-- Node14&#45;&gt;Node10 -->
<g id="edge15" class="edge"><title>Node14&#45;&gt;Node10</title>
<path fill="none" stroke="midnightblue" d="M2066.05,-151C2074.81,-151 2083.62,-151 2092.27,-151"/>
<polygon fill="midnightblue" stroke="midnightblue" points="2065.8,-147.5 2055.8,-151 2065.8,-154.5 2065.8,-147.5"/>
</g>
<!-- Node16 -->
<g id="node16" class="node"><title>Node16</title>
<g id="a_node16"><a xlink:href="../../db/d19/classslogo_1_1_u_i_1_1_module_creation_helper.html#a07f5483df317cdf80e8ea2dda5699afa" target="_top" xlink:title="slogo.UI.ModuleCreationHelper.create\lNewTurtleButton">
<polygon fill="white" stroke="black" points="1612.5,-330 1612.5,-360 1809.5,-360 1809.5,-330 1612.5,-330"/>
<text text-anchor="start" x="1620.5" y="-348" font-family="Helvetica,sans-Serif" font-size="10.00">slogo.UI.ModuleCreationHelper.create</text>
<text text-anchor="middle" x="1711" y="-337" font-family="Helvetica,sans-Serif" font-size="10.00">NewTurtleButton</text>
</a>
</g>
</g>
<!-- Node15&#45;&gt;Node16 -->
<g id="edge17" class="edge"><title>Node15&#45;&gt;Node16</title>
<path fill="none" stroke="midnightblue" d="M1581.89,-352.473C1592.04,-351.881 1602.26,-351.285 1612.27,-350.701"/>
<polygon fill="midnightblue" stroke="midnightblue" points="1581.56,-348.986 1571.78,-353.063 1581.97,-355.974 1581.56,-348.986"/>
</g>
<!-- Node16&#45;&gt;Node9 -->
<g id="edge18" class="edge"><title>Node16&#45;&gt;Node9</title>
<path fill="none" stroke="midnightblue" d="M1782.15,-327.309C1792.87,-324.354 1803.76,-321.203 1814,-318 1847.93,-307.387 1885.86,-293.493 1913.35,-283.046"/>
<polygon fill="midnightblue" stroke="midnightblue" points="1781.12,-323.962 1772.39,-329.963 1782.96,-330.717 1781.12,-323.962"/>
</g>
<!-- Node18 -->
<g id="node18" class="node"><title>Node18</title>
<g id="a_node18"><a xlink:href="../../db/d19/classslogo_1_1_u_i_1_1_module_creation_helper.html#a9b3fb38a55b3b7812b4f793afa7a974f" target="_top" xlink:title="slogo.UI.ModuleCreationHelper.create\lPlayButton">
<polygon fill="white" stroke="black" points="1370.5,-295 1370.5,-325 1567.5,-325 1567.5,-295 1370.5,-295"/>
<text text-anchor="start" x="1378.5" y="-313" font-family="Helvetica,sans-Serif" font-size="10.00">slogo.UI.ModuleCreationHelper.create</text>
<text text-anchor="middle" x="1469" y="-302" font-family="Helvetica,sans-Serif" font-size="10.00">PlayButton</text>
</a>
</g>
</g>
<!-- Node17&#45;&gt;Node18 -->
<g id="edge20" class="edge"><title>Node17&#45;&gt;Node18</title>
<path fill="none" stroke="midnightblue" d="M1339.89,-313.203C1350.04,-312.949 1360.26,-312.694 1370.27,-312.443"/>
<polygon fill="midnightblue" stroke="midnightblue" points="1339.69,-309.707 1329.78,-313.455 1339.87,-316.704 1339.69,-309.707"/>
</g>
<!-- Node19 -->
<g id="node19" class="node"><title>Node19</title>
<g id="a_node19"><a xlink:href="../../db/d19/classslogo_1_1_u_i_1_1_module_creation_helper.html#ae1e60d37509c2e5eddcb2a6e70b4f650" target="_top" xlink:title="slogo.UI.ModuleCreationHelper.create\lFirstRowButtons">
<polygon fill="white" stroke="black" points="1612.5,-279 1612.5,-309 1809.5,-309 1809.5,-279 1612.5,-279"/>
<text text-anchor="start" x="1620.5" y="-297" font-family="Helvetica,sans-Serif" font-size="10.00">slogo.UI.ModuleCreationHelper.create</text>
<text text-anchor="middle" x="1711" y="-286" font-family="Helvetica,sans-Serif" font-size="10.00">FirstRowButtons</text>
</a>
</g>
</g>
<!-- Node18&#45;&gt;Node19 -->
<g id="edge21" class="edge"><title>Node18&#45;&gt;Node19</title>
<path fill="none" stroke="midnightblue" d="M1577.73,-302.818C1589.3,-302.046 1601.03,-301.265 1612.47,-300.502"/>
<polygon fill="midnightblue" stroke="midnightblue" points="1577.36,-299.335 1567.62,-303.492 1577.83,-306.319 1577.36,-299.335"/>
</g>
<!-- Node19&#45;&gt;Node9 -->
<g id="edge22" class="edge"><title>Node19&#45;&gt;Node9</title>
<path fill="none" stroke="midnightblue" d="M1819.73,-282.329C1831.3,-281.075 1843.03,-279.805 1854.47,-278.566"/>
<polygon fill="midnightblue" stroke="midnightblue" points="1819.18,-278.868 1809.62,-283.425 1819.94,-285.827 1819.18,-278.868"/>
</g>
<!-- Node21 -->
<g id="node21" class="node"><title>Node21</title>
<g id="a_node21"><a xlink:href="../../db/d19/classslogo_1_1_u_i_1_1_module_creation_helper.html#a803bac6b55bde712b21f2face1eeef81" target="_top" xlink:title="slogo.UI.ModuleCreationHelper.create\lTurtleCanvas">
<polygon fill="white" stroke="black" points="1854.5,-87 1854.5,-117 2051.5,-117 2051.5,-87 1854.5,-87"/>
<text text-anchor="start" x="1862.5" y="-105" font-family="Helvetica,sans-Serif" font-size="10.00">slogo.UI.ModuleCreationHelper.create</text>
<text text-anchor="middle" x="1953" y="-94" font-family="Helvetica,sans-Serif" font-size="10.00">TurtleCanvas</text>
</a>
</g>
</g>
<!-- Node20&#45;&gt;Node21 -->
<g id="edge24" class="edge"><title>Node20&#45;&gt;Node21</title>
<path fill="none" stroke="midnightblue" d="M1823.89,-102C1834.04,-102 1844.26,-102 1854.27,-102"/>
<polygon fill="midnightblue" stroke="midnightblue" points="1823.78,-98.5001 1813.78,-102 1823.78,-105.5 1823.78,-98.5001"/>
</g>
<!-- Node21&#45;&gt;Node10 -->
<g id="edge25" class="edge"><title>Node21&#45;&gt;Node10</title>
<path fill="none" stroke="midnightblue" d="M2036.42,-119.113C2062.9,-124.611 2092.03,-130.658 2117.73,-135.994"/>
<polygon fill="midnightblue" stroke="midnightblue" points="2036.91,-115.641 2026.41,-117.035 2035.49,-122.495 2036.91,-115.641"/>
</g>
<!-- Node23 -->
<g id="node23" class="node"><title>Node23</title>
<g id="a_node23"><a xlink:href="../../db/d19/classslogo_1_1_u_i_1_1_module_creation_helper.html#af7f2919454fdbf6e9d7d912e99634857" target="_top" xlink:title="slogo.UI.ModuleCreationHelper.create\lSelectors">
<polygon fill="white" stroke="black" points="1370.5,-230 1370.5,-260 1567.5,-260 1567.5,-230 1370.5,-230"/>
<text text-anchor="start" x="1378.5" y="-248" font-family="Helvetica,sans-Serif" font-size="10.00">slogo.UI.ModuleCreationHelper.create</text>
<text text-anchor="middle" x="1469" y="-237" font-family="Helvetica,sans-Serif" font-size="10.00">Selectors</text>
</a>
</g>
</g>
<!-- Node22&#45;&gt;Node23 -->
<g id="edge27" class="edge"><title>Node22&#45;&gt;Node23</title>
<path fill="none" stroke="midnightblue" d="M1322.76,-261.339C1338.36,-259.585 1354.54,-257.764 1370.21,-256.002"/>
<polygon fill="midnightblue" stroke="midnightblue" points="1322.16,-257.885 1312.62,-262.481 1322.94,-264.841 1322.16,-257.885"/>
</g>
<!-- Node23&#45;&gt;Node9 -->
<g id="edge28" class="edge"><title>Node23&#45;&gt;Node9</title>
<path fill="none" stroke="midnightblue" d="M1577.74,-250.141C1660.55,-254.092 1773.97,-259.505 1854.19,-263.333"/>
<polygon fill="midnightblue" stroke="midnightblue" points="1577.7,-246.635 1567.54,-249.654 1577.36,-253.627 1577.7,-246.635"/>
</g>
<!-- Node24&#45;&gt;Node23 -->
<g id="edge30" class="edge"><title>Node24&#45;&gt;Node23</title>
<path fill="none" stroke="midnightblue" d="M1307.18,-233.609C1327.4,-235.041 1349.37,-236.597 1370.39,-238.086"/>
<polygon fill="midnightblue" stroke="midnightblue" points="1307.32,-230.11 1297.1,-232.894 1306.82,-237.092 1307.32,-230.11"/>
</g>
<!-- Node25&#45;&gt;Node23 -->
<g id="edge32" class="edge"><title>Node25&#45;&gt;Node23</title>
<path fill="none" stroke="midnightblue" d="M1295.48,-195.473C1307.04,-197.752 1318.9,-200.287 1330,-203 1361.38,-210.673 1396.18,-221.278 1422.98,-229.911"/>
<polygon fill="midnightblue" stroke="midnightblue" points="1295.9,-191.99 1285.42,-193.539 1294.58,-198.864 1295.9,-191.99"/>
</g>
<!-- Node27 -->
<g id="node27" class="node"><title>Node27</title>
<g id="a_node27"><a xlink:href="../../db/d19/classslogo_1_1_u_i_1_1_module_creation_helper.html#a9fd730f7c1860d34bf4ac46c3828bd59" target="_top" xlink:title="slogo.UI.ModuleCreationHelper.activate\lStepIntoButton">
<polygon fill="white" stroke="black" points="1124.5,-49 1124.5,-79 1329.5,-79 1329.5,-49 1124.5,-49"/>
<text text-anchor="start" x="1132.5" y="-67" font-family="Helvetica,sans-Serif" font-size="10.00">slogo.UI.ModuleCreationHelper.activate</text>
<text text-anchor="middle" x="1227" y="-56" font-family="Helvetica,sans-Serif" font-size="10.00">StepIntoButton</text>
</a>
</g>
</g>
<!-- Node26&#45;&gt;Node27 -->
<g id="edge34" class="edge"><title>Node26&#45;&gt;Node27</title>
<path fill="none" stroke="midnightblue" d="M1095.33,-64C1104.82,-64 1114.54,-64 1124.17,-64"/>
<polygon fill="midnightblue" stroke="midnightblue" points="1095.14,-60.5001 1085.14,-64 1095.14,-67.5001 1095.14,-60.5001"/>
</g>
<!-- Node28 -->
<g id="node28" class="node"><title>Node28</title>
<g id="a_node28"><a xlink:href="../../db/d19/classslogo_1_1_u_i_1_1_module_creation_helper.html#a4a6f1f009507c25be8c7c28cbba35f3b" target="_top" xlink:title="slogo.UI.ModuleCreationHelper.create\lDebugStepIntoButton">
<polygon fill="white" stroke="black" points="1370.5,-49 1370.5,-79 1567.5,-79 1567.5,-49 1370.5,-49"/>
<text text-anchor="start" x="1378.5" y="-67" font-family="Helvetica,sans-Serif" font-size="10.00">slogo.UI.ModuleCreationHelper.create</text>
<text text-anchor="middle" x="1469" y="-56" font-family="Helvetica,sans-Serif" font-size="10.00">DebugStepIntoButton</text>
</a>
</g>
</g>
<!-- Node27&#45;&gt;Node28 -->
<g id="edge35" class="edge"><title>Node27&#45;&gt;Node28</title>
<path fill="none" stroke="midnightblue" d="M1339.89,-64C1350.04,-64 1360.26,-64 1370.27,-64"/>
<polygon fill="midnightblue" stroke="midnightblue" points="1339.78,-60.5001 1329.78,-64 1339.78,-67.5001 1339.78,-60.5001"/>
</g>
<!-- Node29 -->
<g id="node29" class="node"><title>Node29</title>
<g id="a_node29"><a xlink:href="../../db/d19/classslogo_1_1_u_i_1_1_module_creation_helper.html#a975af4ea47dc85df72215bdf1a0d20ce" target="_top" xlink:title="slogo.UI.ModuleCreationHelper.create\lDebugModules">
<polygon fill="white" stroke="black" points="1612.5,-38 1612.5,-68 1809.5,-68 1809.5,-38 1612.5,-38"/>
<text text-anchor="start" x="1620.5" y="-56" font-family="Helvetica,sans-Serif" font-size="10.00">slogo.UI.ModuleCreationHelper.create</text>
<text text-anchor="middle" x="1711" y="-45" font-family="Helvetica,sans-Serif" font-size="10.00">DebugModules</text>
</a>
</g>
</g>
<!-- Node28&#45;&gt;Node29 -->
<g id="edge36" class="edge"><title>Node28&#45;&gt;Node29</title>
<path fill="none" stroke="midnightblue" d="M1577.73,-59.0622C1589.3,-58.5319 1601.03,-57.9945 1612.47,-57.4702"/>
<polygon fill="midnightblue" stroke="midnightblue" points="1577.45,-55.5716 1567.62,-59.5259 1577.77,-62.5643 1577.45,-55.5716"/>
</g>
<!-- Node29&#45;&gt;Node10 -->
<g id="edge37" class="edge"><title>Node29&#45;&gt;Node10</title>
<path fill="none" stroke="midnightblue" d="M1819.63,-48.679C1888.53,-48.779 1979.11,-54.2973 2056,-77 2099.33,-89.7936 2144.2,-118.228 2169.46,-135.889"/>
<polygon fill="midnightblue" stroke="midnightblue" points="1819.61,-45.1789 1809.62,-48.7021 1819.63,-52.1789 1819.61,-45.1789"/>
</g>
<!-- Node31 -->
<g id="node31" class="node"><title>Node31</title>
<g id="a_node31"><a xlink:href="../../db/d19/classslogo_1_1_u_i_1_1_module_creation_helper.html#a0fed0bb32bf2643d6fd5c24d82e8e18e" target="_top" xlink:title="slogo.UI.ModuleCreationHelper.activate\lStepOverButton">
<polygon fill="white" stroke="black" points="1124.5,-0 1124.5,-30 1329.5,-30 1329.5,-0 1124.5,-0"/>
<text text-anchor="start" x="1132.5" y="-18" font-family="Helvetica,sans-Serif" font-size="10.00">slogo.UI.ModuleCreationHelper.activate</text>
<text text-anchor="middle" x="1227" y="-7" font-family="Helvetica,sans-Serif" font-size="10.00">StepOverButton</text>
</a>
</g>
</g>
<!-- Node30&#45;&gt;Node31 -->
<g id="edge39" class="edge"><title>Node30&#45;&gt;Node31</title>
<path fill="none" stroke="midnightblue" d="M1097.8,-18.5123C1106.56,-18.2724 1115.48,-18.028 1124.33,-17.7856"/>
<polygon fill="midnightblue" stroke="midnightblue" points="1097.51,-15.0187 1087.61,-18.7914 1097.71,-22.0161 1097.51,-15.0187"/>
</g>
<!-- Node32 -->
<g id="node32" class="node"><title>Node32</title>
<g id="a_node32"><a xlink:href="../../db/d19/classslogo_1_1_u_i_1_1_module_creation_helper.html#aa1e7dc2b509360583790fba0d3819c8d" target="_top" xlink:title="slogo.UI.ModuleCreationHelper.create\lDebugStepOverButton">
<polygon fill="white" stroke="black" points="1370.5,-0 1370.5,-30 1567.5,-30 1567.5,-0 1370.5,-0"/>
<text text-anchor="start" x="1378.5" y="-18" font-family="Helvetica,sans-Serif" font-size="10.00">slogo.UI.ModuleCreationHelper.create</text>
<text text-anchor="middle" x="1469" y="-7" font-family="Helvetica,sans-Serif" font-size="10.00">DebugStepOverButton</text>
</a>
</g>
</g>
<!-- Node31&#45;&gt;Node32 -->
<g id="edge40" class="edge"><title>Node31&#45;&gt;Node32</title>
<path fill="none" stroke="midnightblue" d="M1339.89,-15C1350.04,-15 1360.26,-15 1370.27,-15"/>
<polygon fill="midnightblue" stroke="midnightblue" points="1339.78,-11.5001 1329.78,-15 1339.78,-18.5001 1339.78,-11.5001"/>
</g>
<!-- Node32&#45;&gt;Node29 -->
<g id="edge41" class="edge"><title>Node32&#45;&gt;Node29</title>
<path fill="none" stroke="midnightblue" d="M1574.99,-31.6227C1588.31,-33.7329 1601.89,-35.8827 1615.05,-37.966"/>
<polygon fill="midnightblue" stroke="midnightblue" points="1575.28,-28.1256 1564.85,-30.0186 1574.18,-35.0395 1575.28,-28.1256"/>
</g>
</g>
</svg>
