<?xml version="1.0" encoding="UTF-8" standalone="no"?>
<!DOCTYPE svg PUBLIC "-//W3C//DTD SVG 1.1//EN"
 "http://www.w3.org/Graphics/SVG/1.1/DTD/svg11.dtd">
<!-- Generated by graphviz version 2.36.0 (20140111.2315)
 -->
<!-- Title: slogo.UI.MethodRunner.redrawIfInScene Pages: 1 -->
<svg width="398pt" height="142pt"
 viewBox="0.00 0.00 398.00 142.00" xmlns="http://www.w3.org/2000/svg" xmlns:xlink="http://www.w3.org/1999/xlink">
<g id="graph0" class="graph" transform="scale(1 1) rotate(0) translate(4 138)">
<title>slogo.UI.MethodRunner.redrawIfInScene</title>
<polygon fill="white" stroke="none" points="-4,4 -4,-138 394,-138 394,4 -4,4"/>
<!-- Node1 -->
<g id="node1" class="node"><title>Node1</title>
<polygon fill="#bfbfbf" stroke="black" points="0.5,-52 0.5,-82 161.5,-82 161.5,-52 0.5,-52"/>
<text text-anchor="start" x="8.5" y="-70" font-family="Helvetica,sans-Serif" font-size="10.00">slogo.UI.MethodRunner.redraw</text>
<text text-anchor="middle" x="81" y="-59" font-family="Helvetica,sans-Serif" font-size="10.00">IfInScene</text>
</g>
<!-- Node2 -->
<g id="node2" class="node"><title>Node2</title>
<g id="a_node2"><a xlink:href="../../d1/d09/interfaceslogo_1_1backend_1_1util_1_1_i_line.html#aa180a270cffb1f34de2d2cfb61f67be6" target="_top" xlink:title="slogo.backend.util.ILine.end">
<polygon fill="white" stroke="black" points="219.5,-114.5 219.5,-133.5 368.5,-133.5 368.5,-114.5 219.5,-114.5"/>
<text text-anchor="middle" x="294" y="-121.5" font-family="Helvetica,sans-Serif" font-size="10.00">slogo.backend.util.ILine.end</text>
</a>
</g>
</g>
<!-- Node1&#45;&gt;Node2 -->
<g id="edge1" class="edge"><title>Node1&#45;&gt;Node2</title>
<path fill="none" stroke="midnightblue" d="M123.792,-82.0267C145.703,-89.5638 173.097,-98.4558 198,-105 208.109,-107.656 218.907,-110.143 229.465,-112.385"/>
<polygon fill="midnightblue" stroke="midnightblue" points="228.982,-115.859 239.484,-114.458 230.4,-109.004 228.982,-115.859"/>
</g>
<!-- Node3 -->
<g id="node3" class="node"><title>Node3</title>
<g id="a_node3"><a xlink:href="../../da/dc2/interfaceslogo_1_1backend_1_1util_1_1_i_coordinates.html#adb373b7523e63ee3698283ec8ac752d8" target="_top" xlink:title="slogo.backend.util.ICoordinates.getX">
<polygon fill="white" stroke="black" points="198.5,-76.5 198.5,-95.5 389.5,-95.5 389.5,-76.5 198.5,-76.5"/>
<text text-anchor="middle" x="294" y="-83.5" font-family="Helvetica,sans-Serif" font-size="10.00">slogo.backend.util.ICoordinates.getX</text>
</a>
</g>
</g>
<!-- Node1&#45;&gt;Node3 -->
<g id="edge2" class="edge"><title>Node1&#45;&gt;Node3</title>
<path fill="none" stroke="midnightblue" d="M161.77,-74.1831C170.419,-74.9619 179.313,-75.7628 188.201,-76.5631"/>
<polygon fill="midnightblue" stroke="midnightblue" points="187.946,-80.0542 198.219,-77.4652 188.574,-73.0824 187.946,-80.0542"/>
</g>
<!-- Node4 -->
<g id="node4" class="node"><title>Node4</title>
<g id="a_node4"><a xlink:href="../../da/dc2/interfaceslogo_1_1backend_1_1util_1_1_i_coordinates.html#a79bf643857961ce08b426cd660121b91" target="_top" xlink:title="slogo.backend.util.ICoordinates.getY">
<polygon fill="white" stroke="black" points="199,-38.5 199,-57.5 389,-57.5 389,-38.5 199,-38.5"/>
<text text-anchor="middle" x="294" y="-45.5" font-family="Helvetica,sans-Serif" font-size="10.00">slogo.backend.util.ICoordinates.getY</text>
</a>
</g>
</g>
<!-- Node1&#45;&gt;Node4 -->
<g id="edge3" class="edge"><title>Node1&#45;&gt;Node4</title>
<path fill="none" stroke="midnightblue" d="M161.77,-59.8169C170.588,-59.0228 179.662,-58.2058 188.724,-57.3898"/>
<polygon fill="midnightblue" stroke="midnightblue" points="189.29,-60.8531 198.935,-56.4703 188.662,-53.8813 189.29,-60.8531"/>
</g>
<!-- Node5 -->
<g id="node5" class="node"><title>Node5</title>
<g id="a_node5"><a xlink:href="../../d1/d09/interfaceslogo_1_1backend_1_1util_1_1_i_line.html#a1fdae77b8086d45775f369066c763473" target="_top" xlink:title="slogo.backend.util.ILine.start">
<polygon fill="white" stroke="black" points="217.5,-0.5 217.5,-19.5 370.5,-19.5 370.5,-0.5 217.5,-0.5"/>
<text text-anchor="middle" x="294" y="-7.5" font-family="Helvetica,sans-Serif" font-size="10.00">slogo.backend.util.ILine.start</text>
</a>
</g>
</g>
<!-- Node1&#45;&gt;Node5 -->
<g id="edge4" class="edge"><title>Node1&#45;&gt;Node5</title>
<path fill="none" stroke="midnightblue" d="M123.792,-51.9733C145.703,-44.4362 173.097,-35.5442 198,-29 208.109,-26.3435 218.907,-23.8572 229.465,-21.6149"/>
<polygon fill="midnightblue" stroke="midnightblue" points="230.4,-24.9957 239.484,-19.5423 228.982,-18.1408 230.4,-24.9957"/>
</g>
</g>
</svg>
