<?xml version="1.0" encoding="UTF-8" standalone="no"?>
<!DOCTYPE svg PUBLIC "-//W3C//DTD SVG 1.1//EN"
 "http://www.w3.org/Graphics/SVG/1.1/DTD/svg11.dtd">
<!-- Generated by graphviz version 2.36.0 (20140111.2315)
 -->
<!-- Title: slogo.UI.MethodRunner.setEnvironment Pages: 1 -->
<svg width="2570pt" height="427pt"
 viewBox="0.00 0.00 2570.00 427.00" xmlns="http://www.w3.org/2000/svg" xmlns:xlink="http://www.w3.org/1999/xlink">
<g id="graph0" class="graph" transform="scale(1 1) rotate(0) translate(4 423)">
<title>slogo.UI.MethodRunner.setEnvironment</title>
<polygon fill="white" stroke="none" points="-4,4 -4,-423 2566,-423 2566,4 -4,4"/>
<!-- Node1 -->
<g id="node1" class="node"><title>Node1</title>
<polygon fill="#bfbfbf" stroke="black" points="0,-49 0,-79 144,-79 144,-49 0,-49"/>
<text text-anchor="start" x="8" y="-67" font-family="Helvetica,sans-Serif" font-size="10.00">slogo.UI.MethodRunner.set</text>
<text text-anchor="middle" x="72" y="-56" font-family="Helvetica,sans-Serif" font-size="10.00">Environment</text>
</g>
<!-- Node2 -->
<g id="node2" class="node"><title>Node2</title>
<g id="a_node2"><a xlink:href="../../df/d2d/classslogo_1_1_view.html#a0784f5391bd3b8cd985450e6902f8451" target="_top" xlink:title="slogo.View.executeEnvironment\lCommands">
<polygon fill="white" stroke="black" points="180,-49 180,-79 348,-79 348,-49 180,-49"/>
<text text-anchor="start" x="188" y="-67" font-family="Helvetica,sans-Serif" font-size="10.00">slogo.View.executeEnvironment</text>
<text text-anchor="middle" x="264" y="-56" font-family="Helvetica,sans-Serif" font-size="10.00">Commands</text>
</a>
</g>
</g>
<!-- Node1&#45;&gt;Node2 -->
<g id="edge1" class="edge"><title>Node1&#45;&gt;Node2</title>
<path fill="none" stroke="midnightblue" d="M154.277,-64C162.762,-64 171.396,-64 179.901,-64"/>
<polygon fill="midnightblue" stroke="midnightblue" points="154.019,-60.5001 144.019,-64 154.019,-67.5001 154.019,-60.5001"/>
</g>
<!-- Node3 -->
<g id="node3" class="node"><title>Node3</title>
<g id="a_node3"><a xlink:href="../../df/d2d/classslogo_1_1_view.html#aa90e5d95d422b58b7f4b7f8a049defe1" target="_top" xlink:title="slogo.View.executeCommand">
<polygon fill="white" stroke="black" points="384,-54.5 384,-73.5 542,-73.5 542,-54.5 384,-54.5"/>
<text text-anchor="middle" x="463" y="-61.5" font-family="Helvetica,sans-Serif" font-size="10.00">slogo.View.executeCommand</text>
</a>
</g>
</g>
<!-- Node2&#45;&gt;Node3 -->
<g id="edge2" class="edge"><title>Node2&#45;&gt;Node3</title>
<path fill="none" stroke="midnightblue" d="M358.517,-64C366.96,-64 375.451,-64 383.742,-64"/>
<polygon fill="midnightblue" stroke="midnightblue" points="358.26,-60.5001 348.26,-64 358.26,-67.5001 358.26,-60.5001"/>
</g>
<!-- Node4 -->
<g id="node4" class="node"><title>Node4</title>
<g id="a_node4"><a xlink:href="../../df/d2d/classslogo_1_1_view.html#aee563f6a0b15ac6668e4dcbdad40c73c" target="_top" xlink:title="slogo.View.sendCommandTo\lBackend">
<polygon fill="white" stroke="black" points="584,-213 584,-243 736,-243 736,-213 584,-213"/>
<text text-anchor="start" x="592" y="-231" font-family="Helvetica,sans-Serif" font-size="10.00">slogo.View.sendCommandTo</text>
<text text-anchor="middle" x="660" y="-220" font-family="Helvetica,sans-Serif" font-size="10.00">Backend</text>
</a>
</g>
</g>
<!-- Node3&#45;&gt;Node4 -->
<g id="edge3" class="edge"><title>Node3&#45;&gt;Node4</title>
<path fill="none" stroke="midnightblue" d="M483.054,-80.0252C520.765,-111.741 604.433,-182.108 641.146,-212.984"/>
<polygon fill="midnightblue" stroke="midnightblue" points="485.233,-77.2841 475.327,-73.5262 480.727,-82.6414 485.233,-77.2841"/>
</g>
<!-- Node24 -->
<g id="node24" class="node"><title>Node24</title>
<g id="a_node24"><a xlink:href="../../df/d2d/classslogo_1_1_view.html#a4c3084a198acf85804800d70eff9ee51" target="_top" xlink:title="slogo.View.stepIntoCommand">
<polygon fill="white" stroke="black" points="581,-54.5 581,-73.5 739,-73.5 739,-54.5 581,-54.5"/>
<text text-anchor="middle" x="660" y="-61.5" font-family="Helvetica,sans-Serif" font-size="10.00">slogo.View.stepIntoCommand</text>
</a>
</g>
</g>
<!-- Node3&#45;&gt;Node24 -->
<g id="edge31" class="edge"><title>Node3&#45;&gt;Node24</title>
<path fill="none" stroke="midnightblue" d="M552.402,-64C561.87,-64 571.454,-64 580.792,-64"/>
<polygon fill="midnightblue" stroke="midnightblue" points="552.19,-60.5001 542.19,-64 552.19,-67.5001 552.19,-60.5001"/>
</g>
<!-- Node28 -->
<g id="node28" class="node"><title>Node28</title>
<g id="a_node28"><a xlink:href="../../df/d2d/classslogo_1_1_view.html#ac8b7f574c679e744a430f1649dc55e68" target="_top" xlink:title="slogo.View.stepOverCommand">
<polygon fill="white" stroke="black" points="578.5,-11.5 578.5,-30.5 741.5,-30.5 741.5,-11.5 578.5,-11.5"/>
<text text-anchor="middle" x="660" y="-18.5" font-family="Helvetica,sans-Serif" font-size="10.00">slogo.View.stepOverCommand</text>
</a>
</g>
</g>
<!-- Node3&#45;&gt;Node28 -->
<g id="edge36" class="edge"><title>Node3&#45;&gt;Node28</title>
<path fill="none" stroke="midnightblue" d="M517.056,-52.3005C548.068,-45.462 586.711,-36.9406 615.844,-30.5164"/>
<polygon fill="midnightblue" stroke="midnightblue" points="516.288,-48.8855 507.277,-54.4569 517.796,-55.7213 516.288,-48.8855"/>
</g>
<!-- Node5 -->
<g id="node5" class="node"><title>Node5</title>
<g id="a_node5"><a xlink:href="../../db/d19/classslogo_1_1_u_i_1_1_module_creation_helper.html#a69e17abcc7cf9a6ed7261d8fb1d631fa" target="_top" xlink:title="slogo.UI.ModuleCreationHelper.activate\lIncreaseDecreaseButtons">
<polygon fill="white" stroke="black" points="778.5,-389 778.5,-419 983.5,-419 983.5,-389 778.5,-389"/>
<text text-anchor="start" x="786.5" y="-407" font-family="Helvetica,sans-Serif" font-size="10.00">slogo.UI.ModuleCreationHelper.activate</text>
<text text-anchor="middle" x="881" y="-396" font-family="Helvetica,sans-Serif" font-size="10.00">IncreaseDecreaseButtons</text>
</a>
</g>
</g>
<!-- Node4&#45;&gt;Node5 -->
<g id="edge4" class="edge"><title>Node4&#45;&gt;Node5</title>
<path fill="none" stroke="midnightblue" d="M674.043,-252.219C692.779,-284.724 730.363,-342.06 778,-374 787.122,-380.116 797.514,-385.01 808.092,-388.919"/>
<polygon fill="midnightblue" stroke="midnightblue" points="677.013,-250.361 669.054,-243.368 670.915,-253.798 677.013,-250.361"/>
</g>
<!-- Node12 -->
<g id="node12" class="node"><title>Node12</title>
<g id="a_node12"><a xlink:href="../../db/d19/classslogo_1_1_u_i_1_1_module_creation_helper.html#aa70b0ad9e90e62509149bfd2ef2ba209" target="_top" xlink:title="slogo.UI.ModuleCreationHelper.activate\lKeyEvents">
<polygon fill="white" stroke="black" points="1504.5,-136 1504.5,-166 1709.5,-166 1709.5,-136 1504.5,-136"/>
<text text-anchor="start" x="1512.5" y="-154" font-family="Helvetica,sans-Serif" font-size="10.00">slogo.UI.ModuleCreationHelper.activate</text>
<text text-anchor="middle" x="1607" y="-143" font-family="Helvetica,sans-Serif" font-size="10.00">KeyEvents</text>
</a>
</g>
</g>
<!-- Node4&#45;&gt;Node12 -->
<g id="edge12" class="edge"><title>Node4&#45;&gt;Node12</title>
<path fill="none" stroke="midnightblue" d="M690.179,-207.164C712.902,-192.251 745.88,-173.388 778,-165 912.15,-129.97 1314.16,-139.777 1504.26,-146.744"/>
<polygon fill="midnightblue" stroke="midnightblue" points="688.049,-204.378 681.699,-212.86 691.952,-210.189 688.049,-204.378"/>
</g>
<!-- Node13 -->
<g id="node13" class="node"><title>Node13</title>
<g id="a_node13"><a xlink:href="../../db/d19/classslogo_1_1_u_i_1_1_module_creation_helper.html#a2e841243ec3ca474e8822102343acc88" target="_top" xlink:title="slogo.UI.ModuleCreationHelper.activate\lNewTurtleButton">
<polygon fill="white" stroke="black" points="1020.5,-344 1020.5,-374 1225.5,-374 1225.5,-344 1020.5,-344"/>
<text text-anchor="start" x="1028.5" y="-362" font-family="Helvetica,sans-Serif" font-size="10.00">slogo.UI.ModuleCreationHelper.activate</text>
<text text-anchor="middle" x="1123" y="-351" font-family="Helvetica,sans-Serif" font-size="10.00">NewTurtleButton</text>
</a>
</g>
</g>
<!-- Node4&#45;&gt;Node13 -->
<g id="edge14" class="edge"><title>Node4&#45;&gt;Node13</title>
<path fill="none" stroke="midnightblue" d="M677.021,-251.155C697.099,-278.009 734.24,-321.013 778,-340 854.408,-373.152 949.474,-375.86 1020.29,-371.435"/>
<polygon fill="midnightblue" stroke="midnightblue" points="679.834,-249.073 671.115,-243.055 674.178,-253.197 679.834,-249.073"/>
</g>
<!-- Node15 -->
<g id="node15" class="node"><title>Node15</title>
<g id="a_node15"><a xlink:href="../../db/d19/classslogo_1_1_u_i_1_1_module_creation_helper.html#a9b1f07ab673191067907a059b1b0c524" target="_top" xlink:title="slogo.UI.ModuleCreationHelper.activate\lPlayButton">
<polygon fill="white" stroke="black" points="778.5,-301 778.5,-331 983.5,-331 983.5,-301 778.5,-301"/>
<text text-anchor="start" x="786.5" y="-319" font-family="Helvetica,sans-Serif" font-size="10.00">slogo.UI.ModuleCreationHelper.activate</text>
<text text-anchor="middle" x="881" y="-308" font-family="Helvetica,sans-Serif" font-size="10.00">PlayButton</text>
</a>
</g>
</g>
<!-- Node4&#45;&gt;Node15 -->
<g id="edge17" class="edge"><title>Node4&#45;&gt;Node15</title>
<path fill="none" stroke="midnightblue" d="M693.42,-248.354C716.332,-262.006 748.156,-279.522 778,-291 787.7,-294.73 798.137,-298.039 808.502,-300.929"/>
<polygon fill="midnightblue" stroke="midnightblue" points="695.162,-245.317 684.792,-243.145 691.544,-251.31 695.162,-245.317"/>
</g>
<!-- Node18 -->
<g id="node18" class="node"><title>Node18</title>
<g id="a_node18"><a xlink:href="../../db/d19/classslogo_1_1_u_i_1_1_module_creation_helper.html#a3a38d485562cb17591ec3fd07cffc18a" target="_top" xlink:title="slogo.UI.ModuleCreationHelper.activate\lTurtleCanvas">
<polygon fill="white" stroke="black" points="1262.5,-87 1262.5,-117 1467.5,-117 1467.5,-87 1262.5,-87"/>
<text text-anchor="start" x="1270.5" y="-105" font-family="Helvetica,sans-Serif" font-size="10.00">slogo.UI.ModuleCreationHelper.activate</text>
<text text-anchor="middle" x="1365" y="-94" font-family="Helvetica,sans-Serif" font-size="10.00">TurtleCanvas</text>
</a>
</g>
</g>
<!-- Node4&#45;&gt;Node18 -->
<g id="edge21" class="edge"><title>Node4&#45;&gt;Node18</title>
<path fill="none" stroke="midnightblue" d="M680.366,-205.232C701.633,-182.064 738.105,-147.434 778,-132 863.507,-98.92 1118.48,-97.5272 1262.33,-99.6157"/>
<polygon fill="midnightblue" stroke="midnightblue" points="677.563,-203.115 673.497,-212.898 682.777,-207.786 677.563,-203.115"/>
</g>
<!-- Node20 -->
<g id="node20" class="node"><title>Node20</title>
<g id="a_node20"><a xlink:href="../../d1/d5f/classslogo_1_1_u_i_1_1_path_color_selector.html#ad3d9c82a0904c97edcec7cf67b85bd7b" target="_top" xlink:title="slogo.UI.PathColorSelector.create">
<polygon fill="white" stroke="black" points="793,-262.5 793,-281.5 969,-281.5 969,-262.5 793,-262.5"/>
<text text-anchor="middle" x="881" y="-269.5" font-family="Helvetica,sans-Serif" font-size="10.00">slogo.UI.PathColorSelector.create</text>
</a>
</g>
</g>
<!-- Node4&#45;&gt;Node20 -->
<g id="edge24" class="edge"><title>Node4&#45;&gt;Node20</title>
<path fill="none" stroke="midnightblue" d="M743.739,-245.065C755.243,-247.411 766.914,-249.776 778,-252 795.251,-255.46 814.157,-259.186 830.955,-262.473"/>
<polygon fill="midnightblue" stroke="midnightblue" points="744.189,-241.585 733.69,-243.013 742.788,-248.443 744.189,-241.585"/>
</g>
<!-- Node22 -->
<g id="node22" class="node"><title>Node22</title>
<g id="a_node22"><a xlink:href="../../d4/d8d/classslogo_1_1_u_i_1_1_background_color_selector.html#ad75ba4ce104e071811d0fe039a4e839f" target="_top" xlink:title="slogo.UI.BackgroundColor\lSelector.create">
<polygon fill="white" stroke="black" points="811,-213 811,-243 951,-243 951,-213 811,-213"/>
<text text-anchor="start" x="819" y="-231" font-family="Helvetica,sans-Serif" font-size="10.00">slogo.UI.BackgroundColor</text>
<text text-anchor="middle" x="881" y="-220" font-family="Helvetica,sans-Serif" font-size="10.00">Selector.create</text>
</a>
</g>
</g>
<!-- Node4&#45;&gt;Node22 -->
<g id="edge27" class="edge"><title>Node4&#45;&gt;Node22</title>
<path fill="none" stroke="midnightblue" d="M746.142,-228C767.597,-228 790.367,-228 810.925,-228"/>
<polygon fill="midnightblue" stroke="midnightblue" points="746.061,-224.5 736.061,-228 746.061,-231.5 746.061,-224.5"/>
</g>
<!-- Node23 -->
<g id="node23" class="node"><title>Node23</title>
<g id="a_node23"><a xlink:href="../../dd/da7/classslogo_1_1_u_i_1_1_turtle_image_selector.html#a3f268d9196ffebcbb5dc322d2897a9fe" target="_top" xlink:title="slogo.UI.TurtleImageSelector.create">
<polygon fill="white" stroke="black" points="788,-174.5 788,-193.5 974,-193.5 974,-174.5 788,-174.5"/>
<text text-anchor="middle" x="881" y="-181.5" font-family="Helvetica,sans-Serif" font-size="10.00">slogo.UI.TurtleImageSelector.create</text>
</a>
</g>
</g>
<!-- Node4&#45;&gt;Node23 -->
<g id="edge29" class="edge"><title>Node4&#45;&gt;Node23</title>
<path fill="none" stroke="midnightblue" d="M740.012,-210.821C752.704,-208.147 765.705,-205.458 778,-203 793.985,-199.804 811.416,-196.493 827.272,-193.548"/>
<polygon fill="midnightblue" stroke="midnightblue" points="738.977,-207.463 729.919,-212.958 740.427,-214.311 738.977,-207.463"/>
</g>
<!-- Node6 -->
<g id="node6" class="node"><title>Node6</title>
<g id="a_node6"><a xlink:href="../../db/d19/classslogo_1_1_u_i_1_1_module_creation_helper.html#adce7362386f9a7b3006e7db08a2d578d" target="_top" xlink:title="slogo.UI.ModuleCreationHelper.create\lIncreaseDecreaseButtons">
<polygon fill="white" stroke="black" points="1266.5,-380 1266.5,-410 1463.5,-410 1463.5,-380 1266.5,-380"/>
<text text-anchor="start" x="1274.5" y="-398" font-family="Helvetica,sans-Serif" font-size="10.00">slogo.UI.ModuleCreationHelper.create</text>
<text text-anchor="middle" x="1365" y="-387" font-family="Helvetica,sans-Serif" font-size="10.00">IncreaseDecreaseButtons</text>
</a>
</g>
</g>
<!-- Node5&#45;&gt;Node6 -->
<g id="edge5" class="edge"><title>Node5&#45;&gt;Node6</title>
<path fill="none" stroke="midnightblue" d="M993.792,-401.913C1076.23,-400.373 1187.29,-398.299 1266.21,-396.826"/>
<polygon fill="midnightblue" stroke="midnightblue" points="993.564,-398.416 983.631,-402.102 993.694,-405.415 993.564,-398.416"/>
</g>
<!-- Node7 -->
<g id="node7" class="node"><title>Node7</title>
<g id="a_node7"><a xlink:href="../../db/d19/classslogo_1_1_u_i_1_1_module_creation_helper.html#a7c650957b2389d6e6d36e8be8a33cd2b" target="_top" xlink:title="slogo.UI.ModuleCreationHelper.create\lSelectorVBoxModules">
<polygon fill="white" stroke="black" points="1508.5,-253 1508.5,-283 1705.5,-283 1705.5,-253 1508.5,-253"/>
<text text-anchor="start" x="1516.5" y="-271" font-family="Helvetica,sans-Serif" font-size="10.00">slogo.UI.ModuleCreationHelper.create</text>
<text text-anchor="middle" x="1607" y="-260" font-family="Helvetica,sans-Serif" font-size="10.00">SelectorVBoxModules</text>
</a>
</g>
</g>
<!-- Node6&#45;&gt;Node7 -->
<g id="edge6" class="edge"><title>Node6&#45;&gt;Node7</title>
<path fill="none" stroke="midnightblue" d="M1449,-376.732C1455.54,-374.424 1461.95,-371.854 1468,-369 1516.6,-346.077 1565.46,-305.079 1589.92,-283.025"/>
<polygon fill="midnightblue" stroke="midnightblue" points="1447.75,-373.461 1439.36,-379.93 1449.95,-380.105 1447.75,-373.461"/>
</g>
<!-- Node8 -->
<g id="node8" class="node"><title>Node8</title>
<g id="a_node8"><a xlink:href="../../db/d19/classslogo_1_1_u_i_1_1_module_creation_helper.html#afb9dbbbad7d872234a5b296fe129a34e" target="_top" xlink:title="slogo.UI.ModuleCreationHelper.create\lMainPageModules">
<polygon fill="white" stroke="black" points="1746.5,-136 1746.5,-166 1943.5,-166 1943.5,-136 1746.5,-136"/>
<text text-anchor="start" x="1754.5" y="-154" font-family="Helvetica,sans-Serif" font-size="10.00">slogo.UI.ModuleCreationHelper.create</text>
<text text-anchor="middle" x="1845" y="-143" font-family="Helvetica,sans-Serif" font-size="10.00">MainPageModules</text>
</a>
</g>
</g>
<!-- Node7&#45;&gt;Node8 -->
<g id="edge7" class="edge"><title>Node7&#45;&gt;Node8</title>
<path fill="none" stroke="midnightblue" d="M1647.58,-248.38C1694.29,-225.222 1770.96,-187.212 1813.37,-166.184"/>
<polygon fill="midnightblue" stroke="midnightblue" points="1645.77,-245.366 1638.37,-252.944 1648.88,-251.638 1645.77,-245.366"/>
</g>
<!-- Node9 -->
<g id="node9" class="node"><title>Node9</title>
<g id="a_node9"><a xlink:href="../../d9/d33/classslogo_1_1_u_i_1_1_main.html#a15b7f2e399ee24d160550993ab737e73" target="_top" xlink:title="slogo.UI.Main.start">
<polygon fill="white" stroke="black" points="1980,-150.5 1980,-169.5 2086,-169.5 2086,-150.5 1980,-150.5"/>
<text text-anchor="middle" x="2033" y="-157.5" font-family="Helvetica,sans-Serif" font-size="10.00">slogo.UI.Main.start</text>
</a>
</g>
</g>
<!-- Node8&#45;&gt;Node9 -->
<g id="edge8" class="edge"><title>Node8&#45;&gt;Node9</title>
<path fill="none" stroke="midnightblue" d="M1953.8,-156.216C1962.76,-156.65 1971.53,-157.074 1979.76,-157.472"/>
<polygon fill="midnightblue" stroke="midnightblue" points="1953.79,-152.712 1943.63,-155.724 1953.45,-159.703 1953.79,-152.712"/>
</g>
<!-- Node10 -->
<g id="node10" class="node"><title>Node10</title>
<g id="a_node10"><a xlink:href="../../db/d19/classslogo_1_1_u_i_1_1_module_creation_helper.html#a3be12a7cc2b8a219db1e296211a2cb88" target="_top" xlink:title="slogo.UI.ModuleCreationHelper.activate\lExtraWorkspaceButton">
<polygon fill="white" stroke="black" points="2122.5,-163 2122.5,-193 2327.5,-193 2327.5,-163 2122.5,-163"/>
<text text-anchor="start" x="2130.5" y="-181" font-family="Helvetica,sans-Serif" font-size="10.00">slogo.UI.ModuleCreationHelper.activate</text>
<text text-anchor="middle" x="2225" y="-170" font-family="Helvetica,sans-Serif" font-size="10.00">ExtraWorkspaceButton</text>
</a>
</g>
</g>
<!-- Node9&#45;&gt;Node10 -->
<g id="edge9" class="edge"><title>Node9&#45;&gt;Node10</title>
<path fill="none" stroke="midnightblue" d="M2096.22,-165.894C2104.63,-166.691 2113.44,-167.526 2122.32,-168.367"/>
<polygon fill="midnightblue" stroke="midnightblue" points="2096.46,-162.401 2086.17,-164.942 2095.79,-169.37 2096.46,-162.401"/>
</g>
<!-- Node11 -->
<g id="node11" class="node"><title>Node11</title>
<g id="a_node11"><a xlink:href="../../db/d19/classslogo_1_1_u_i_1_1_module_creation_helper.html#a702c1ebe24d2857a10c666eb1fcc315d" target="_top" xlink:title="slogo.UI.ModuleCreationHelper.create\lExtraWorkspaceButton">
<polygon fill="white" stroke="black" points="2364.5,-189 2364.5,-219 2561.5,-219 2561.5,-189 2364.5,-189"/>
<text text-anchor="start" x="2372.5" y="-207" font-family="Helvetica,sans-Serif" font-size="10.00">slogo.UI.ModuleCreationHelper.create</text>
<text text-anchor="middle" x="2463" y="-196" font-family="Helvetica,sans-Serif" font-size="10.00">ExtraWorkspaceButton</text>
</a>
</g>
</g>
<!-- Node10&#45;&gt;Node11 -->
<g id="edge10" class="edge"><title>Node10&#45;&gt;Node11</title>
<path fill="none" stroke="midnightblue" d="M2337.77,-190.313C2346.62,-191.289 2355.52,-192.27 2364.27,-193.234"/>
<polygon fill="midnightblue" stroke="midnightblue" points="2338.12,-186.831 2327.8,-189.215 2337.35,-193.789 2338.12,-186.831"/>
</g>
<!-- Node11&#45;&gt;Node7 -->
<g id="edge11" class="edge"><title>Node11&#45;&gt;Node7</title>
<path fill="none" stroke="midnightblue" d="M2354.34,-212.068C2186.9,-224.617 1866.6,-248.62 1705.55,-260.69"/>
<polygon fill="midnightblue" stroke="midnightblue" points="2354.7,-215.551 2364.41,-211.313 2354.18,-208.571 2354.7,-215.551"/>
</g>
<!-- Node12&#45;&gt;Node8 -->
<g id="edge13" class="edge"><title>Node12&#45;&gt;Node8</title>
<path fill="none" stroke="midnightblue" d="M1720.05,-151C1728.81,-151 1737.62,-151 1746.27,-151"/>
<polygon fill="midnightblue" stroke="midnightblue" points="1719.8,-147.5 1709.8,-151 1719.8,-154.5 1719.8,-147.5"/>
</g>
<!-- Node14 -->
<g id="node14" class="node"><title>Node14</title>
<g id="a_node14"><a xlink:href="../../db/d19/classslogo_1_1_u_i_1_1_module_creation_helper.html#a07f5483df317cdf80e8ea2dda5699afa" target="_top" xlink:title="slogo.UI.ModuleCreationHelper.create\lNewTurtleButton">
<polygon fill="white" stroke="black" points="1266.5,-330 1266.5,-360 1463.5,-360 1463.5,-330 1266.5,-330"/>
<text text-anchor="start" x="1274.5" y="-348" font-family="Helvetica,sans-Serif" font-size="10.00">slogo.UI.ModuleCreationHelper.create</text>
<text text-anchor="middle" x="1365" y="-337" font-family="Helvetica,sans-Serif" font-size="10.00">NewTurtleButton</text>
</a>
</g>
</g>
<!-- Node13&#45;&gt;Node14 -->
<g id="edge15" class="edge"><title>Node13&#45;&gt;Node14</title>
<path fill="none" stroke="midnightblue" d="M1235.89,-352.473C1246.04,-351.881 1256.26,-351.285 1266.27,-350.701"/>
<polygon fill="midnightblue" stroke="midnightblue" points="1235.56,-348.986 1225.78,-353.063 1235.97,-355.974 1235.56,-348.986"/>
</g>
<!-- Node14&#45;&gt;Node7 -->
<g id="edge16" class="edge"><title>Node14&#45;&gt;Node7</title>
<path fill="none" stroke="midnightblue" d="M1436.15,-327.309C1446.87,-324.354 1457.76,-321.203 1468,-318 1501.93,-307.387 1539.86,-293.493 1567.35,-283.046"/>
<polygon fill="midnightblue" stroke="midnightblue" points="1435.12,-323.962 1426.39,-329.963 1436.96,-330.717 1435.12,-323.962"/>
</g>
<!-- Node16 -->
<g id="node16" class="node"><title>Node16</title>
<g id="a_node16"><a xlink:href="../../db/d19/classslogo_1_1_u_i_1_1_module_creation_helper.html#a9b3fb38a55b3b7812b4f793afa7a974f" target="_top" xlink:title="slogo.UI.ModuleCreationHelper.create\lPlayButton">
<polygon fill="white" stroke="black" points="1024.5,-295 1024.5,-325 1221.5,-325 1221.5,-295 1024.5,-295"/>
<text text-anchor="start" x="1032.5" y="-313" font-family="Helvetica,sans-Serif" font-size="10.00">slogo.UI.ModuleCreationHelper.create</text>
<text text-anchor="middle" x="1123" y="-302" font-family="Helvetica,sans-Serif" font-size="10.00">PlayButton</text>
</a>
</g>
</g>
<!-- Node15&#45;&gt;Node16 -->
<g id="edge18" class="edge"><title>Node15&#45;&gt;Node16</title>
<path fill="none" stroke="midnightblue" d="M993.89,-313.203C1004.04,-312.949 1014.26,-312.694 1024.27,-312.443"/>
<polygon fill="midnightblue" stroke="midnightblue" points="993.691,-309.707 983.782,-313.455 993.866,-316.704 993.691,-309.707"/>
</g>
<!-- Node17 -->
<g id="node17" class="node"><title>Node17</title>
<g id="a_node17"><a xlink:href="../../db/d19/classslogo_1_1_u_i_1_1_module_creation_helper.html#ae1e60d37509c2e5eddcb2a6e70b4f650" target="_top" xlink:title="slogo.UI.ModuleCreationHelper.create\lFirstRowButtons">
<polygon fill="white" stroke="black" points="1266.5,-279 1266.5,-309 1463.5,-309 1463.5,-279 1266.5,-279"/>
<text text-anchor="start" x="1274.5" y="-297" font-family="Helvetica,sans-Serif" font-size="10.00">slogo.UI.ModuleCreationHelper.create</text>
<text text-anchor="middle" x="1365" y="-286" font-family="Helvetica,sans-Serif" font-size="10.00">FirstRowButtons</text>
</a>
</g>
</g>
<!-- Node16&#45;&gt;Node17 -->
<g id="edge19" class="edge"><title>Node16&#45;&gt;Node17</title>
<path fill="none" stroke="midnightblue" d="M1231.73,-302.818C1243.3,-302.046 1255.03,-301.265 1266.47,-300.502"/>
<polygon fill="midnightblue" stroke="midnightblue" points="1231.36,-299.335 1221.62,-303.492 1231.83,-306.319 1231.36,-299.335"/>
</g>
<!-- Node17&#45;&gt;Node7 -->
<g id="edge20" class="edge"><title>Node17&#45;&gt;Node7</title>
<path fill="none" stroke="midnightblue" d="M1473.73,-282.329C1485.3,-281.075 1497.03,-279.805 1508.47,-278.566"/>
<polygon fill="midnightblue" stroke="midnightblue" points="1473.18,-278.868 1463.62,-283.425 1473.94,-285.827 1473.18,-278.868"/>
</g>
<!-- Node19 -->
<g id="node19" class="node"><title>Node19</title>
<g id="a_node19"><a xlink:href="../../db/d19/classslogo_1_1_u_i_1_1_module_creation_helper.html#a803bac6b55bde712b21f2face1eeef81" target="_top" xlink:title="slogo.UI.ModuleCreationHelper.create\lTurtleCanvas">
<polygon fill="white" stroke="black" points="1508.5,-87 1508.5,-117 1705.5,-117 1705.5,-87 1508.5,-87"/>
<text text-anchor="start" x="1516.5" y="-105" font-family="Helvetica,sans-Serif" font-size="10.00">slogo.UI.ModuleCreationHelper.create</text>
<text text-anchor="middle" x="1607" y="-94" font-family="Helvetica,sans-Serif" font-size="10.00">TurtleCanvas</text>
</a>
</g>
</g>
<!-- Node18&#45;&gt;Node19 -->
<g id="edge22" class="edge"><title>Node18&#45;&gt;Node19</title>
<path fill="none" stroke="midnightblue" d="M1477.89,-102C1488.04,-102 1498.26,-102 1508.27,-102"/>
<polygon fill="midnightblue" stroke="midnightblue" points="1477.78,-98.5001 1467.78,-102 1477.78,-105.5 1477.78,-98.5001"/>
</g>
<!-- Node19&#45;&gt;Node8 -->
<g id="edge23" class="edge"><title>Node19&#45;&gt;Node8</title>
<path fill="none" stroke="midnightblue" d="M1690.42,-119.113C1716.9,-124.611 1746.03,-130.658 1771.73,-135.994"/>
<polygon fill="midnightblue" stroke="midnightblue" points="1690.91,-115.641 1680.41,-117.035 1689.49,-122.495 1690.91,-115.641"/>
</g>
<!-- Node21 -->
<g id="node21" class="node"><title>Node21</title>
<g id="a_node21"><a xlink:href="../../db/d19/classslogo_1_1_u_i_1_1_module_creation_helper.html#af7f2919454fdbf6e9d7d912e99634857" target="_top" xlink:title="slogo.UI.ModuleCreationHelper.create\lSelectors">
<polygon fill="white" stroke="black" points="1024.5,-230 1024.5,-260 1221.5,-260 1221.5,-230 1024.5,-230"/>
<text text-anchor="start" x="1032.5" y="-248" font-family="Helvetica,sans-Serif" font-size="10.00">slogo.UI.ModuleCreationHelper.create</text>
<text text-anchor="middle" x="1123" y="-237" font-family="Helvetica,sans-Serif" font-size="10.00">Selectors</text>
</a>
</g>
</g>
<!-- Node20&#45;&gt;Node21 -->
<g id="edge25" class="edge"><title>Node20&#45;&gt;Node21</title>
<path fill="none" stroke="midnightblue" d="M976.764,-261.339C992.356,-259.585 1008.54,-257.764 1024.21,-256.002"/>
<polygon fill="midnightblue" stroke="midnightblue" points="976.161,-257.885 966.615,-262.481 976.944,-264.841 976.161,-257.885"/>
</g>
<!-- Node21&#45;&gt;Node7 -->
<g id="edge26" class="edge"><title>Node21&#45;&gt;Node7</title>
<path fill="none" stroke="midnightblue" d="M1231.74,-250.141C1314.55,-254.092 1427.97,-259.505 1508.19,-263.333"/>
<polygon fill="midnightblue" stroke="midnightblue" points="1231.7,-246.635 1221.54,-249.654 1231.36,-253.627 1231.7,-246.635"/>
</g>
<!-- Node22&#45;&gt;Node21 -->
<g id="edge28" class="edge"><title>Node22&#45;&gt;Node21</title>
<path fill="none" stroke="midnightblue" d="M961.179,-233.609C981.396,-235.041 1003.37,-236.597 1024.39,-238.086"/>
<polygon fill="midnightblue" stroke="midnightblue" points="961.318,-230.11 951.096,-232.894 960.824,-237.092 961.318,-230.11"/>
</g>
<!-- Node23&#45;&gt;Node21 -->
<g id="edge30" class="edge"><title>Node23&#45;&gt;Node21</title>
<path fill="none" stroke="midnightblue" d="M949.481,-195.473C961.044,-197.752 972.903,-200.287 984,-203 1015.38,-210.673 1050.18,-221.278 1076.98,-229.911"/>
<polygon fill="midnightblue" stroke="midnightblue" points="949.905,-191.99 939.423,-193.539 948.582,-198.864 949.905,-191.99"/>
</g>
<!-- Node25 -->
<g id="node25" class="node"><title>Node25</title>
<g id="a_node25"><a xlink:href="../../db/d19/classslogo_1_1_u_i_1_1_module_creation_helper.html#a9fd730f7c1860d34bf4ac46c3828bd59" target="_top" xlink:title="slogo.UI.ModuleCreationHelper.activate\lStepIntoButton">
<polygon fill="white" stroke="black" points="778.5,-49 778.5,-79 983.5,-79 983.5,-49 778.5,-49"/>
<text text-anchor="start" x="786.5" y="-67" font-family="Helvetica,sans-Serif" font-size="10.00">slogo.UI.ModuleCreationHelper.activate</text>
<text text-anchor="middle" x="881" y="-56" font-family="Helvetica,sans-Serif" font-size="10.00">StepIntoButton</text>
</a>
</g>
</g>
<!-- Node24&#45;&gt;Node25 -->
<g id="edge32" class="edge"><title>Node24&#45;&gt;Node25</title>
<path fill="none" stroke="midnightblue" d="M749.334,-64C758.824,-64 768.535,-64 778.167,-64"/>
<polygon fill="midnightblue" stroke="midnightblue" points="749.137,-60.5001 739.137,-64 749.136,-67.5001 749.137,-60.5001"/>
</g>
<!-- Node26 -->
<g id="node26" class="node"><title>Node26</title>
<g id="a_node26"><a xlink:href="../../db/d19/classslogo_1_1_u_i_1_1_module_creation_helper.html#a4a6f1f009507c25be8c7c28cbba35f3b" target="_top" xlink:title="slogo.UI.ModuleCreationHelper.create\lDebugStepIntoButton">
<polygon fill="white" stroke="black" points="1024.5,-49 1024.5,-79 1221.5,-79 1221.5,-49 1024.5,-49"/>
<text text-anchor="start" x="1032.5" y="-67" font-family="Helvetica,sans-Serif" font-size="10.00">slogo.UI.ModuleCreationHelper.create</text>
<text text-anchor="middle" x="1123" y="-56" font-family="Helvetica,sans-Serif" font-size="10.00">DebugStepIntoButton</text>
</a>
</g>
</g>
<!-- Node25&#45;&gt;Node26 -->
<g id="edge33" class="edge"><title>Node25&#45;&gt;Node26</title>
<path fill="none" stroke="midnightblue" d="M993.89,-64C1004.04,-64 1014.26,-64 1024.27,-64"/>
<polygon fill="midnightblue" stroke="midnightblue" points="993.782,-60.5001 983.782,-64 993.782,-67.5001 993.782,-60.5001"/>
</g>
<!-- Node27 -->
<g id="node27" class="node"><title>Node27</title>
<g id="a_node27"><a xlink:href="../../db/d19/classslogo_1_1_u_i_1_1_module_creation_helper.html#a975af4ea47dc85df72215bdf1a0d20ce" target="_top" xlink:title="slogo.UI.ModuleCreationHelper.create\lDebugModules">
<polygon fill="white" stroke="black" points="1266.5,-38 1266.5,-68 1463.5,-68 1463.5,-38 1266.5,-38"/>
<text text-anchor="start" x="1274.5" y="-56" font-family="Helvetica,sans-Serif" font-size="10.00">slogo.UI.ModuleCreationHelper.create</text>
<text text-anchor="middle" x="1365" y="-45" font-family="Helvetica,sans-Serif" font-size="10.00">DebugModules</text>
</a>
</g>
</g>
<!-- Node26&#45;&gt;Node27 -->
<g id="edge34" class="edge"><title>Node26&#45;&gt;Node27</title>
<path fill="none" stroke="midnightblue" d="M1231.73,-59.0622C1243.3,-58.5319 1255.03,-57.9945 1266.47,-57.4702"/>
<polygon fill="midnightblue" stroke="midnightblue" points="1231.45,-55.5716 1221.62,-59.5259 1231.77,-62.5643 1231.45,-55.5716"/>
</g>
<!-- Node27&#45;&gt;Node8 -->
<g id="edge35" class="edge"><title>Node27&#45;&gt;Node8</title>
<path fill="none" stroke="midnightblue" d="M1473.63,-48.679C1542.53,-48.779 1633.11,-54.2973 1710,-77 1753.33,-89.7936 1798.2,-118.228 1823.46,-135.889"/>
<polygon fill="midnightblue" stroke="midnightblue" points="1473.61,-45.1789 1463.62,-48.7021 1473.63,-52.1789 1473.61,-45.1789"/>
</g>
<!-- Node29 -->
<g id="node29" class="node"><title>Node29</title>
<g id="a_node29"><a xlink:href="../../db/d19/classslogo_1_1_u_i_1_1_module_creation_helper.html#a0fed0bb32bf2643d6fd5c24d82e8e18e" target="_top" xlink:title="slogo.UI.ModuleCreationHelper.activate\lStepOverButton">
<polygon fill="white" stroke="black" points="778.5,-0 778.5,-30 983.5,-30 983.5,-0 778.5,-0"/>
<text text-anchor="start" x="786.5" y="-18" font-family="Helvetica,sans-Serif" font-size="10.00">slogo.UI.ModuleCreationHelper.activate</text>
<text text-anchor="middle" x="881" y="-7" font-family="Helvetica,sans-Serif" font-size="10.00">StepOverButton</text>
</a>
</g>
</g>
<!-- Node28&#45;&gt;Node29 -->
<g id="edge37" class="edge"><title>Node28&#45;&gt;Node29</title>
<path fill="none" stroke="midnightblue" d="M751.803,-18.5123C760.557,-18.2724 769.477,-18.028 778.327,-17.7856"/>
<polygon fill="midnightblue" stroke="midnightblue" points="751.515,-15.0187 741.615,-18.7914 751.707,-22.0161 751.515,-15.0187"/>
</g>
<!-- Node30 -->
<g id="node30" class="node"><title>Node30</title>
<g id="a_node30"><a xlink:href="../../db/d19/classslogo_1_1_u_i_1_1_module_creation_helper.html#aa1e7dc2b509360583790fba0d3819c8d" target="_top" xlink:title="slogo.UI.ModuleCreationHelper.create\lDebugStepOverButton">
<polygon fill="white" stroke="black" points="1024.5,-0 1024.5,-30 1221.5,-30 1221.5,-0 1024.5,-0"/>
<text text-anchor="start" x="1032.5" y="-18" font-family="Helvetica,sans-Serif" font-size="10.00">slogo.UI.ModuleCreationHelper.create</text>
<text text-anchor="middle" x="1123" y="-7" font-family="Helvetica,sans-Serif" font-size="10.00">DebugStepOverButton</text>
</a>
</g>
</g>
<!-- Node29&#45;&gt;Node30 -->
<g id="edge38" class="edge"><title>Node29&#45;&gt;Node30</title>
<path fill="none" stroke="midnightblue" d="M993.89,-15C1004.04,-15 1014.26,-15 1024.27,-15"/>
<polygon fill="midnightblue" stroke="midnightblue" points="993.782,-11.5001 983.782,-15 993.782,-18.5001 993.782,-11.5001"/>
</g>
<!-- Node30&#45;&gt;Node27 -->
<g id="edge39" class="edge"><title>Node30&#45;&gt;Node27</title>
<path fill="none" stroke="midnightblue" d="M1228.99,-31.6227C1242.31,-33.7329 1255.89,-35.8827 1269.05,-37.966"/>
<polygon fill="midnightblue" stroke="midnightblue" points="1229.28,-28.1256 1218.85,-30.0186 1228.18,-35.0395 1229.28,-28.1256"/>
</g>
</g>
</svg>
