<?xml version="1.0" encoding="UTF-8" standalone="no"?>
<!DOCTYPE svg PUBLIC "-//W3C//DTD SVG 1.1//EN"
 "http://www.w3.org/Graphics/SVG/1.1/DTD/svg11.dtd">
<!-- Generated by graphviz version 2.36.0 (20140111.2315)
 -->
<!-- Title: slogo.UI.MethodRunner.moveTurtle Pages: 1 -->
<svg width="1346pt" height="578pt"
 viewBox="0.00 0.00 1346.00 577.81" xmlns="http://www.w3.org/2000/svg" xmlns:xlink="http://www.w3.org/1999/xlink">
<g id="graph0" class="graph" transform="scale(1 1) rotate(0) translate(4 573.815)">
<title>slogo.UI.MethodRunner.moveTurtle</title>
<polygon fill="white" stroke="none" points="-4,4 -4,-573.815 1342,-573.815 1342,4 -4,4"/>
<!-- Node1 -->
<g id="node1" class="node"><title>Node1</title>
<polygon fill="#bfbfbf" stroke="black" points="0,-194 0,-224 156,-224 156,-194 0,-194"/>
<text text-anchor="start" x="8" y="-212" font-family="Helvetica,sans-Serif" font-size="10.00">slogo.UI.MethodRunner.move</text>
<text text-anchor="middle" x="78" y="-201" font-family="Helvetica,sans-Serif" font-size="10.00">Turtle</text>
</g>
<!-- Node2 -->
<g id="node2" class="node"><title>Node2</title>
<g id="a_node2"><a xlink:href="../../d9/d7e/classslogo_1_1_u_i_1_1_method_runner.html#ae05c629b80fe3379d77aea026b58b1ae" target="_top" xlink:title="slogo.UI.MethodRunner.draw\lLinesUsingToroidal">
<polygon fill="white" stroke="black" points="197,-369 197,-399 349,-399 349,-369 197,-369"/>
<text text-anchor="start" x="205" y="-387" font-family="Helvetica,sans-Serif" font-size="10.00">slogo.UI.MethodRunner.draw</text>
<text text-anchor="middle" x="273" y="-376" font-family="Helvetica,sans-Serif" font-size="10.00">LinesUsingToroidal</text>
</a>
</g>
</g>
<!-- Node1&#45;&gt;Node2 -->
<g id="edge1" class="edge"><title>Node1&#45;&gt;Node2</title>
<path fill="none" stroke="midnightblue" d="M92.5961,-224.238C113.172,-246.964 153.872,-290.638 192,-324 207.764,-337.794 226.44,-351.914 241.78,-362.988"/>
<polygon fill="midnightblue" stroke="midnightblue" points="239.749,-365.838 249.92,-368.805 243.819,-360.143 239.749,-365.838"/>
</g>
<!-- Node15 -->
<g id="node15" class="node"><title>Node15</title>
<g id="a_node15"><a xlink:href="../../d9/d7e/classslogo_1_1_u_i_1_1_method_runner.html#ab0ecc3d04769434971f00221697447bc" target="_top" xlink:title="slogo.UI.MethodRunner.draw\lNewLine">
<polygon fill="white" stroke="black" points="197,-219 197,-249 349,-249 349,-219 197,-219"/>
<text text-anchor="start" x="205" y="-237" font-family="Helvetica,sans-Serif" font-size="10.00">slogo.UI.MethodRunner.draw</text>
<text text-anchor="middle" x="273" y="-226" font-family="Helvetica,sans-Serif" font-size="10.00">NewLine</text>
</a>
</g>
</g>
<!-- Node1&#45;&gt;Node15 -->
<g id="edge20" class="edge"><title>Node1&#45;&gt;Node15</title>
<path fill="none" stroke="midnightblue" d="M156.111,-218.988C166.19,-220.294 176.564,-221.638 186.768,-222.96"/>
<polygon fill="midnightblue" stroke="midnightblue" points="186.531,-226.458 196.898,-224.272 187.43,-219.516 186.531,-226.458"/>
</g>
<!-- Node24 -->
<g id="node24" class="node"><title>Node24</title>
<g id="a_node24"><a xlink:href="../../da/dce/interfaceslogo_1_1backend_1_1util_1_1_i_turtle_status.html#a152eefbc91fa474620751cf643f21b87" target="_top" xlink:title="slogo.backend.util.ITurtle\lStatus.lineSequence">
<polygon fill="white" stroke="black" points="206,-170 206,-200 340,-200 340,-170 206,-170"/>
<text text-anchor="start" x="214" y="-188" font-family="Helvetica,sans-Serif" font-size="10.00">slogo.backend.util.ITurtle</text>
<text text-anchor="middle" x="273" y="-177" font-family="Helvetica,sans-Serif" font-size="10.00">Status.lineSequence</text>
</a>
</g>
</g>
<!-- Node1&#45;&gt;Node24 -->
<g id="edge29" class="edge"><title>Node1&#45;&gt;Node24</title>
<path fill="none" stroke="midnightblue" d="M156.111,-199.411C169.118,-197.794 182.615,-196.115 195.604,-194.5"/>
<polygon fill="midnightblue" stroke="midnightblue" points="196.401,-197.928 205.893,-193.221 195.538,-190.981 196.401,-197.928"/>
</g>
<!-- Node25 -->
<g id="node25" class="node"><title>Node25</title>
<g id="a_node25"><a xlink:href="../../d5/deb/classslogo_1_1_u_i_1_1_turtle.html#a678c8daca68b92f79f73967a8be0f269" target="_top" xlink:title="slogo.UI.Turtle.moveTurtle">
<polygon fill="white" stroke="black" points="203.5,-93.5 203.5,-112.5 342.5,-112.5 342.5,-93.5 203.5,-93.5"/>
<text text-anchor="middle" x="273" y="-100.5" font-family="Helvetica,sans-Serif" font-size="10.00">slogo.UI.Turtle.moveTurtle</text>
</a>
</g>
</g>
<!-- Node1&#45;&gt;Node25 -->
<g id="edge30" class="edge"><title>Node1&#45;&gt;Node25</title>
<path fill="none" stroke="midnightblue" d="M106.652,-193.813C143.681,-173.476 208.929,-137.64 245.409,-117.605"/>
<polygon fill="midnightblue" stroke="midnightblue" points="247.379,-120.516 254.459,-112.634 244.009,-114.38 247.379,-120.516"/>
</g>
<!-- Node28 -->
<g id="node28" class="node"><title>Node28</title>
<g id="a_node28"><a xlink:href="../../da/dce/interfaceslogo_1_1backend_1_1util_1_1_i_turtle_status.html#a9529cb7782abfda8ae3de99971d9a964" target="_top" xlink:title="slogo.backend.util.ITurtle\lStatus.penState">
<polygon fill="white" stroke="black" points="206,-44 206,-74 340,-74 340,-44 206,-44"/>
<text text-anchor="start" x="214" y="-62" font-family="Helvetica,sans-Serif" font-size="10.00">slogo.backend.util.ITurtle</text>
<text text-anchor="middle" x="273" y="-51" font-family="Helvetica,sans-Serif" font-size="10.00">Status.penState</text>
</a>
</g>
</g>
<!-- Node1&#45;&gt;Node28 -->
<g id="edge33" class="edge"><title>Node1&#45;&gt;Node28</title>
<path fill="none" stroke="midnightblue" d="M88.5994,-193.92C106.032,-167.734 145.431,-113.805 192,-84 195.19,-81.9581 198.559,-80.0729 202.037,-78.3338"/>
<polygon fill="midnightblue" stroke="midnightblue" points="203.789,-81.3822 211.45,-74.0637 200.897,-75.0074 203.789,-81.3822"/>
</g>
<!-- Node29 -->
<g id="node29" class="node"><title>Node29</title>
<g id="a_node29"><a xlink:href="../../d9/d7e/classslogo_1_1_u_i_1_1_method_runner.html#a8c13f2e7cda4a596edbba9e9ab4aaacf" target="_top" xlink:title="slogo.UI.MethodRunner.redraw\lIfInScene">
<polygon fill="white" stroke="black" points="192.5,-285 192.5,-315 353.5,-315 353.5,-285 192.5,-285"/>
<text text-anchor="start" x="200.5" y="-303" font-family="Helvetica,sans-Serif" font-size="10.00">slogo.UI.MethodRunner.redraw</text>
<text text-anchor="middle" x="273" y="-292" font-family="Helvetica,sans-Serif" font-size="10.00">IfInScene</text>
</a>
</g>
</g>
<!-- Node1&#45;&gt;Node29 -->
<g id="edge34" class="edge"><title>Node1&#45;&gt;Node29</title>
<path fill="none" stroke="midnightblue" d="M110.87,-224.027C143.696,-239.505 194.989,-263.689 230.86,-280.602"/>
<polygon fill="midnightblue" stroke="midnightblue" points="229.545,-283.852 240.083,-284.951 232.53,-277.52 229.545,-283.852"/>
</g>
<!-- Node3 -->
<g id="node3" class="node"><title>Node3</title>
<g id="a_node3"><a xlink:href="../../d0/d32/classslogo_1_1_u_i_1_1_toroidal_helper.html#a3310ad36e6dae43f4741e3a67ebd0144" target="_top" xlink:title="slogo.UI.ToroidalHelper.make\lLinesToroidal">
<polygon fill="white" stroke="black" points="408.5,-405 408.5,-435 563.5,-435 563.5,-405 408.5,-405"/>
<text text-anchor="start" x="416.5" y="-423" font-family="Helvetica,sans-Serif" font-size="10.00">slogo.UI.ToroidalHelper.make</text>
<text text-anchor="middle" x="486" y="-412" font-family="Helvetica,sans-Serif" font-size="10.00">LinesToroidal</text>
</a>
</g>
</g>
<!-- Node2&#45;&gt;Node3 -->
<g id="edge2" class="edge"><title>Node2&#45;&gt;Node3</title>
<path fill="none" stroke="midnightblue" d="M349.282,-396.844C365.16,-399.553 382.035,-402.432 398.294,-405.207"/>
<polygon fill="midnightblue" stroke="midnightblue" points="397.878,-408.686 408.324,-406.918 399.055,-401.786 397.878,-408.686"/>
</g>
<!-- Node4 -->
<g id="node4" class="node"><title>Node4</title>
<g id="a_node4"><a xlink:href="../../d0/d32/classslogo_1_1_u_i_1_1_toroidal_helper.html#afe4f76a7e0638e9a7f99ee8918a5b863" target="_top" xlink:title="slogo.UI.ToroidalHelper.check\lEndBounds">
<polygon fill="white" stroke="black" points="798.5,-320 798.5,-350 953.5,-350 953.5,-320 798.5,-320"/>
<text text-anchor="start" x="806.5" y="-338" font-family="Helvetica,sans-Serif" font-size="10.00">slogo.UI.ToroidalHelper.check</text>
<text text-anchor="middle" x="876" y="-327" font-family="Helvetica,sans-Serif" font-size="10.00">EndBounds</text>
</a>
</g>
</g>
<!-- Node3&#45;&gt;Node4 -->
<g id="edge3" class="edge"><title>Node3&#45;&gt;Node4</title>
<path fill="none" stroke="midnightblue" d="M555.473,-404.999C622.76,-390.259 725.353,-367.783 796.043,-352.297"/>
<polygon fill="midnightblue" stroke="midnightblue" points="797.214,-355.624 806.233,-350.065 795.716,-348.786 797.214,-355.624"/>
</g>
<!-- Node7 -->
<g id="node7" class="node"><title>Node7</title>
<g id="a_node7"><a xlink:href="../../d0/d32/classslogo_1_1_u_i_1_1_toroidal_helper.html#a9d143072a1321d4267bb97cf11062922" target="_top" xlink:title="slogo.UI.ToroidalHelper.cut\lLines">
<polygon fill="white" stroke="black" points="618.5,-442 618.5,-472 761.5,-472 761.5,-442 618.5,-442"/>
<text text-anchor="start" x="626.5" y="-460" font-family="Helvetica,sans-Serif" font-size="10.00">slogo.UI.ToroidalHelper.cut</text>
<text text-anchor="middle" x="690" y="-449" font-family="Helvetica,sans-Serif" font-size="10.00">Lines</text>
</a>
</g>
</g>
<!-- Node3&#45;&gt;Node7 -->
<g id="edge6" class="edge"><title>Node3&#45;&gt;Node7</title>
<path fill="none" stroke="midnightblue" d="M563.656,-434.041C578.256,-436.715 593.577,-439.522 608.299,-442.218"/>
<polygon fill="midnightblue" stroke="midnightblue" points="607.911,-445.705 618.378,-444.064 609.173,-438.82 607.911,-445.705"/>
</g>
<!-- Node5 -->
<g id="node5" class="node"><title>Node5</title>
<g id="a_node5"><a xlink:href="../../d0/d32/classslogo_1_1_u_i_1_1_toroidal_helper.html#a22d58c7c2d7c4237c3f1524eadd2630c" target="_top" xlink:title="slogo.UI.ToroidalHelper.check\lXBounds">
<polygon fill="white" stroke="black" points="990.5,-369 990.5,-399 1145.5,-399 1145.5,-369 990.5,-369"/>
<text text-anchor="start" x="998.5" y="-387" font-family="Helvetica,sans-Serif" font-size="10.00">slogo.UI.ToroidalHelper.check</text>
<text text-anchor="middle" x="1068" y="-376" font-family="Helvetica,sans-Serif" font-size="10.00">XBounds</text>
</a>
</g>
</g>
<!-- Node4&#45;&gt;Node5 -->
<g id="edge4" class="edge"><title>Node4&#45;&gt;Node5</title>
<path fill="none" stroke="midnightblue" d="M935.297,-350.035C955.45,-355.232 978.206,-361.101 999.064,-366.48"/>
<polygon fill="midnightblue" stroke="midnightblue" points="998.256,-369.886 1008.81,-368.994 1000,-363.107 998.256,-369.886"/>
</g>
<!-- Node6 -->
<g id="node6" class="node"><title>Node6</title>
<g id="a_node6"><a xlink:href="../../d0/d32/classslogo_1_1_u_i_1_1_toroidal_helper.html#a741cec86e924fde87b003f2979e5b048" target="_top" xlink:title="slogo.UI.ToroidalHelper.check\lYBounds">
<polygon fill="white" stroke="black" points="1182.5,-467 1182.5,-497 1337.5,-497 1337.5,-467 1182.5,-467"/>
<text text-anchor="start" x="1190.5" y="-485" font-family="Helvetica,sans-Serif" font-size="10.00">slogo.UI.ToroidalHelper.check</text>
<text text-anchor="middle" x="1260" y="-474" font-family="Helvetica,sans-Serif" font-size="10.00">YBounds</text>
</a>
</g>
</g>
<!-- Node4&#45;&gt;Node6 -->
<g id="edge5" class="edge"><title>Node4&#45;&gt;Node6</title>
<path fill="none" stroke="midnightblue" d="M953.521,-321.391C1012.09,-315.418 1091.76,-317.433 1146,-359 1182.83,-387.224 1148.57,-424.82 1182,-457 1183.65,-458.584 1185.39,-460.067 1187.22,-461.457"/>
<polygon fill="midnightblue" stroke="midnightblue" points="1185.41,-464.454 1195.7,-466.967 1189.22,-458.584 1185.41,-464.454"/>
</g>
<!-- Node8 -->
<g id="node8" class="node"><title>Node8</title>
<g id="a_node8"><a xlink:href="../../d0/d32/classslogo_1_1_u_i_1_1_toroidal_helper.html#ad878914aa73174cd1b5bdebd0fcdacf9" target="_top" xlink:title="slogo.UI.ToroidalHelper.check\lStartBounds">
<polygon fill="white" stroke="black" points="798.5,-516 798.5,-546 953.5,-546 953.5,-516 798.5,-516"/>
<text text-anchor="start" x="806.5" y="-534" font-family="Helvetica,sans-Serif" font-size="10.00">slogo.UI.ToroidalHelper.check</text>
<text text-anchor="middle" x="876" y="-523" font-family="Helvetica,sans-Serif" font-size="10.00">StartBounds</text>
</a>
</g>
</g>
<!-- Node7&#45;&gt;Node8 -->
<g id="edge7" class="edge"><title>Node7&#45;&gt;Node8</title>
<path fill="none" stroke="midnightblue" d="M721.499,-472.108C742.689,-482.321 771.73,-495.76 798,-506 803.844,-508.278 809.99,-510.521 816.156,-512.673"/>
<polygon fill="midnightblue" stroke="midnightblue" points="815.225,-516.054 825.82,-515.971 817.486,-509.429 815.225,-516.054"/>
</g>
<!-- Node9 -->
<g id="node9" class="node"><title>Node9</title>
<g id="a_node9"><a xlink:href="../../d0/d32/classslogo_1_1_u_i_1_1_toroidal_helper.html#a366128809cd6506ca8d776c625a19da2" target="_top" xlink:title="slogo.UI.ToroidalHelper.run\lLineXShift">
<polygon fill="white" stroke="black" points="804.5,-369 804.5,-399 947.5,-399 947.5,-369 804.5,-369"/>
<text text-anchor="start" x="812.5" y="-387" font-family="Helvetica,sans-Serif" font-size="10.00">slogo.UI.ToroidalHelper.run</text>
<text text-anchor="middle" x="876" y="-376" font-family="Helvetica,sans-Serif" font-size="10.00">LineXShift</text>
</a>
</g>
</g>
<!-- Node7&#45;&gt;Node9 -->
<g id="edge8" class="edge"><title>Node7&#45;&gt;Node9</title>
<path fill="none" stroke="midnightblue" d="M721.461,-441.794C742.634,-431.536 771.67,-418.085 798,-408 803.067,-406.059 808.364,-404.156 813.706,-402.324"/>
<polygon fill="midnightblue" stroke="midnightblue" points="814.953,-405.597 823.329,-399.109 812.735,-398.958 814.953,-405.597"/>
</g>
<!-- Node10 -->
<g id="node10" class="node"><title>Node10</title>
<g id="a_node10"><a xlink:href="../../d0/d32/classslogo_1_1_u_i_1_1_toroidal_helper.html#aa1432fa1f1a208f83285575425bf96f4" target="_top" xlink:title="slogo.UI.ToroidalHelper.run\lLineYShift">
<polygon fill="white" stroke="black" points="996.5,-513 996.5,-543 1139.5,-543 1139.5,-513 996.5,-513"/>
<text text-anchor="start" x="1004.5" y="-531" font-family="Helvetica,sans-Serif" font-size="10.00">slogo.UI.ToroidalHelper.run</text>
<text text-anchor="middle" x="1068" y="-520" font-family="Helvetica,sans-Serif" font-size="10.00">LineYShift</text>
</a>
</g>
</g>
<!-- Node7&#45;&gt;Node10 -->
<g id="edge10" class="edge"><title>Node7&#45;&gt;Node10</title>
<path fill="none" stroke="midnightblue" d="M701.659,-472.287C718.819,-495.396 755.034,-538.297 798,-555 870.633,-583.236 962.202,-563.489 1017.59,-546.123"/>
<polygon fill="midnightblue" stroke="midnightblue" points="1018.73,-549.435 1027.17,-543.031 1016.58,-542.773 1018.73,-549.435"/>
</g>
<!-- Node11 -->
<g id="node11" class="node"><title>Node11</title>
<g id="a_node11"><a xlink:href="../../d0/d32/classslogo_1_1_u_i_1_1_toroidal_helper.html#a6ff252815c642ce9b37ff6c50f9cc466" target="_top" xlink:title="slogo.UI.ToroidalHelper.run\lXCalculations">
<polygon fill="white" stroke="black" points="804.5,-418 804.5,-448 947.5,-448 947.5,-418 804.5,-418"/>
<text text-anchor="start" x="812.5" y="-436" font-family="Helvetica,sans-Serif" font-size="10.00">slogo.UI.ToroidalHelper.run</text>
<text text-anchor="middle" x="876" y="-425" font-family="Helvetica,sans-Serif" font-size="10.00">XCalculations</text>
</a>
</g>
</g>
<!-- Node7&#45;&gt;Node11 -->
<g id="edge12" class="edge"><title>Node7&#45;&gt;Node11</title>
<path fill="none" stroke="midnightblue" d="M761.613,-447.79C772.321,-446.393 783.438,-444.943 794.339,-443.521"/>
<polygon fill="midnightblue" stroke="midnightblue" points="794.809,-446.989 804.272,-442.225 793.903,-440.048 794.809,-446.989"/>
</g>
<!-- Node13 -->
<g id="node13" class="node"><title>Node13</title>
<g id="a_node13"><a xlink:href="../../d0/d32/classslogo_1_1_u_i_1_1_toroidal_helper.html#a6babdb66f06fca1bddc1823bb5f56f87" target="_top" xlink:title="slogo.UI.ToroidalHelper.run\lYShift">
<polygon fill="white" stroke="black" points="804.5,-467 804.5,-497 947.5,-497 947.5,-467 804.5,-467"/>
<text text-anchor="start" x="812.5" y="-485" font-family="Helvetica,sans-Serif" font-size="10.00">slogo.UI.ToroidalHelper.run</text>
<text text-anchor="middle" x="876" y="-474" font-family="Helvetica,sans-Serif" font-size="10.00">YShift</text>
</a>
</g>
</g>
<!-- Node7&#45;&gt;Node13 -->
<g id="edge15" class="edge"><title>Node7&#45;&gt;Node13</title>
<path fill="none" stroke="midnightblue" d="M761.613,-466.594C772.321,-468.049 783.438,-469.559 794.339,-471.041"/>
<polygon fill="midnightblue" stroke="midnightblue" points="793.892,-474.512 804.272,-472.39 794.834,-467.576 793.892,-474.512"/>
</g>
<!-- Node9&#45;&gt;Node5 -->
<g id="edge9" class="edge"><title>Node9&#45;&gt;Node5</title>
<path fill="none" stroke="midnightblue" d="M947.749,-384C958.303,-384 969.285,-384 980.125,-384"/>
<polygon fill="midnightblue" stroke="midnightblue" points="980.456,-387.5 990.456,-384 980.455,-380.5 980.456,-387.5"/>
</g>
<!-- Node10&#45;&gt;Node6 -->
<g id="edge11" class="edge"><title>Node10&#45;&gt;Node6</title>
<path fill="none" stroke="midnightblue" d="M1131.21,-512.938C1149.1,-508.607 1168.76,-503.848 1187.18,-499.388"/>
<polygon fill="midnightblue" stroke="midnightblue" points="1188.08,-502.772 1196.97,-497.017 1186.43,-495.969 1188.08,-502.772"/>
</g>
<!-- Node11&#45;&gt;Node5 -->
<g id="edge13" class="edge"><title>Node11&#45;&gt;Node5</title>
<path fill="none" stroke="midnightblue" d="M935.297,-417.965C955.45,-412.768 978.206,-406.899 999.064,-401.52"/>
<polygon fill="midnightblue" stroke="midnightblue" points="1000,-404.893 1008.81,-399.006 998.256,-398.114 1000,-404.893"/>
</g>
<!-- Node12 -->
<g id="node12" class="node"><title>Node12</title>
<g id="a_node12"><a xlink:href="../../d0/d32/classslogo_1_1_u_i_1_1_toroidal_helper.html#a41c57a3394c07d6aaeae4fe2cf8fe5d6" target="_top" xlink:title="slogo.UI.ToroidalHelper.set\lLineCoords">
<polygon fill="white" stroke="black" points="1188.5,-418 1188.5,-448 1331.5,-448 1331.5,-418 1188.5,-418"/>
<text text-anchor="start" x="1196.5" y="-436" font-family="Helvetica,sans-Serif" font-size="10.00">slogo.UI.ToroidalHelper.set</text>
<text text-anchor="middle" x="1260" y="-425" font-family="Helvetica,sans-Serif" font-size="10.00">LineCoords</text>
</a>
</g>
</g>
<!-- Node11&#45;&gt;Node12 -->
<g id="edge14" class="edge"><title>Node11&#45;&gt;Node12</title>
<path fill="none" stroke="midnightblue" d="M947.51,-433C1012.72,-433 1109.59,-433 1177.96,-433"/>
<polygon fill="midnightblue" stroke="midnightblue" points="1178.26,-436.5 1188.25,-433 1178.25,-429.5 1178.26,-436.5"/>
</g>
<!-- Node13&#45;&gt;Node10 -->
<g id="edge16" class="edge"><title>Node13&#45;&gt;Node10</title>
<path fill="none" stroke="midnightblue" d="M939.213,-497.062C957.102,-501.393 976.759,-506.152 995.178,-510.612"/>
<polygon fill="midnightblue" stroke="midnightblue" points="994.429,-514.031 1004.97,-512.983 996.076,-507.228 994.429,-514.031"/>
</g>
<!-- Node14 -->
<g id="node14" class="node"><title>Node14</title>
<g id="a_node14"><a xlink:href="../../d0/d32/classslogo_1_1_u_i_1_1_toroidal_helper.html#ab0c1d137b6ae06b1379ea8df424ca082" target="_top" xlink:title="slogo.UI.ToroidalHelper.run\lYCalculations">
<polygon fill="white" stroke="black" points="996.5,-464 996.5,-494 1139.5,-494 1139.5,-464 996.5,-464"/>
<text text-anchor="start" x="1004.5" y="-482" font-family="Helvetica,sans-Serif" font-size="10.00">slogo.UI.ToroidalHelper.run</text>
<text text-anchor="middle" x="1068" y="-471" font-family="Helvetica,sans-Serif" font-size="10.00">YCalculations</text>
</a>
</g>
</g>
<!-- Node13&#45;&gt;Node14 -->
<g id="edge17" class="edge"><title>Node13&#45;&gt;Node14</title>
<path fill="none" stroke="midnightblue" d="M947.749,-480.883C960.237,-480.686 973.324,-480.479 986.065,-480.278"/>
<polygon fill="midnightblue" stroke="midnightblue" points="986.248,-483.776 996.192,-480.118 986.138,-476.776 986.248,-483.776"/>
</g>
<!-- Node14&#45;&gt;Node6 -->
<g id="edge18" class="edge"><title>Node14&#45;&gt;Node6</title>
<path fill="none" stroke="midnightblue" d="M1139.75,-480.117C1150.3,-480.284 1161.28,-480.457 1172.12,-480.628"/>
<polygon fill="midnightblue" stroke="midnightblue" points="1172.4,-484.133 1182.46,-480.791 1172.51,-477.134 1172.4,-484.133"/>
</g>
<!-- Node14&#45;&gt;Node12 -->
<g id="edge19" class="edge"><title>Node14&#45;&gt;Node12</title>
<path fill="none" stroke="midnightblue" d="M1131.21,-463.938C1149.1,-459.607 1168.76,-454.848 1187.18,-450.388"/>
<polygon fill="midnightblue" stroke="midnightblue" points="1188.08,-453.772 1196.97,-448.017 1186.43,-446.969 1188.08,-453.772"/>
</g>
<!-- Node16 -->
<g id="node16" class="node"><title>Node16</title>
<g id="a_node16"><a xlink:href="../../d1/d09/interfaceslogo_1_1backend_1_1util_1_1_i_line.html#aa180a270cffb1f34de2d2cfb61f67be6" target="_top" xlink:title="slogo.backend.util.ILine.end">
<polygon fill="white" stroke="black" points="411.5,-252.5 411.5,-271.5 560.5,-271.5 560.5,-252.5 411.5,-252.5"/>
<text text-anchor="middle" x="486" y="-259.5" font-family="Helvetica,sans-Serif" font-size="10.00">slogo.backend.util.ILine.end</text>
</a>
</g>
</g>
<!-- Node15&#45;&gt;Node16 -->
<g id="edge21" class="edge"><title>Node15&#45;&gt;Node16</title>
<path fill="none" stroke="midnightblue" d="M349.282,-243.99C366.695,-246.301 385.307,-248.771 402.991,-251.117"/>
<polygon fill="midnightblue" stroke="midnightblue" points="402.906,-254.637 413.28,-252.483 403.827,-247.697 402.906,-254.637"/>
</g>
<!-- Node17 -->
<g id="node17" class="node"><title>Node17</title>
<g id="a_node17"><a xlink:href="../../d5/deb/classslogo_1_1_u_i_1_1_turtle.html#a7adef46173959908cce8907c5d5bc8c5" target="_top" xlink:title="slogo.UI.Turtle.getLineProperty">
<polygon fill="white" stroke="black" points="405,-164.5 405,-183.5 567,-183.5 567,-164.5 405,-164.5"/>
<text text-anchor="middle" x="486" y="-171.5" font-family="Helvetica,sans-Serif" font-size="10.00">slogo.UI.Turtle.getLineProperty</text>
</a>
</g>
</g>
<!-- Node15&#45;&gt;Node17 -->
<g id="edge22" class="edge"><title>Node15&#45;&gt;Node17</title>
<path fill="none" stroke="midnightblue" d="M325.512,-218.865C335.05,-215.791 344.878,-212.44 354,-209 370.383,-202.823 373.314,-198.305 390,-193 398.593,-190.268 407.753,-187.847 416.866,-185.727"/>
<polygon fill="midnightblue" stroke="midnightblue" points="417.703,-189.126 426.707,-183.543 416.186,-182.293 417.703,-189.126"/>
</g>
<!-- Node18 -->
<g id="node18" class="node"><title>Node18</title>
<g id="a_node18"><a xlink:href="../../d5/deb/classslogo_1_1_u_i_1_1_turtle.html#a33702e403a8c52f3cfcd77f223695543" target="_top" xlink:title="slogo.UI.Turtle.getThickness">
<polygon fill="white" stroke="black" points="411.5,-126.5 411.5,-145.5 560.5,-145.5 560.5,-126.5 411.5,-126.5"/>
<text text-anchor="middle" x="486" y="-133.5" font-family="Helvetica,sans-Serif" font-size="10.00">slogo.UI.Turtle.getThickness</text>
</a>
</g>
</g>
<!-- Node15&#45;&gt;Node18 -->
<g id="edge23" class="edge"><title>Node15&#45;&gt;Node18</title>
<path fill="none" stroke="midnightblue" d="M337.179,-218.858C343.149,-216.095 348.875,-212.838 354,-209 377.087,-191.709 366.034,-171.05 390,-155 393.616,-152.578 397.472,-150.452 401.482,-148.586"/>
<polygon fill="midnightblue" stroke="midnightblue" points="403.129,-151.695 411.077,-144.689 400.495,-145.209 403.129,-151.695"/>
</g>
<!-- Node19 -->
<g id="node19" class="node"><title>Node19</title>
<g id="a_node19"><a xlink:href="../../da/dc2/interfaceslogo_1_1backend_1_1util_1_1_i_coordinates.html#adb373b7523e63ee3698283ec8ac752d8" target="_top" xlink:title="slogo.backend.util.ICoordinates.getX">
<polygon fill="white" stroke="black" points="390.5,-366.5 390.5,-385.5 581.5,-385.5 581.5,-366.5 390.5,-366.5"/>
<text text-anchor="middle" x="486" y="-373.5" font-family="Helvetica,sans-Serif" font-size="10.00">slogo.backend.util.ICoordinates.getX</text>
</a>
</g>
</g>
<!-- Node15&#45;&gt;Node19 -->
<g id="edge24" class="edge"><title>Node15&#45;&gt;Node19</title>
<path fill="none" stroke="midnightblue" d="M316.236,-249.048C329.622,-255.424 343.621,-263.98 354,-275 381.289,-303.975 358.982,-332.058 390,-357 392.064,-358.66 394.234,-360.188 396.489,-361.593"/>
<polygon fill="midnightblue" stroke="midnightblue" points="395.091,-364.814 405.562,-366.428 398.383,-358.637 395.091,-364.814"/>
</g>
<!-- Node20 -->
<g id="node20" class="node"><title>Node20</title>
<g id="a_node20"><a xlink:href="../../da/dc2/interfaceslogo_1_1backend_1_1util_1_1_i_coordinates.html#a79bf643857961ce08b426cd660121b91" target="_top" xlink:title="slogo.backend.util.ICoordinates.getY">
<polygon fill="white" stroke="black" points="391,-328.5 391,-347.5 581,-347.5 581,-328.5 391,-328.5"/>
<text text-anchor="middle" x="486" y="-335.5" font-family="Helvetica,sans-Serif" font-size="10.00">slogo.backend.util.ICoordinates.getY</text>
</a>
</g>
</g>
<!-- Node15&#45;&gt;Node20 -->
<g id="edge25" class="edge"><title>Node15&#45;&gt;Node20</title>
<path fill="none" stroke="midnightblue" d="M310.955,-249.028C325.202,-255.791 341.13,-264.606 354,-275 373.658,-290.875 368.344,-305.983 390,-319 393.469,-321.085 397.125,-322.946 400.902,-324.607"/>
<polygon fill="midnightblue" stroke="midnightblue" points="399.915,-327.978 410.504,-328.335 402.449,-321.453 399.915,-327.978"/>
</g>
<!-- Node21 -->
<g id="node21" class="node"><title>Node21</title>
<g id="a_node21"><a xlink:href="../../d1/d09/interfaceslogo_1_1backend_1_1util_1_1_i_line.html#a1fdae77b8086d45775f369066c763473" target="_top" xlink:title="slogo.backend.util.ILine.start">
<polygon fill="white" stroke="black" points="409.5,-290.5 409.5,-309.5 562.5,-309.5 562.5,-290.5 409.5,-290.5"/>
<text text-anchor="middle" x="486" y="-297.5" font-family="Helvetica,sans-Serif" font-size="10.00">slogo.backend.util.ILine.start</text>
</a>
</g>
</g>
<!-- Node15&#45;&gt;Node21 -->
<g id="edge26" class="edge"><title>Node15&#45;&gt;Node21</title>
<path fill="none" stroke="midnightblue" d="M306.412,-249.045C329.356,-259.218 361.068,-272.329 390,-281 399.088,-283.724 408.783,-286.169 418.377,-288.328"/>
<polygon fill="midnightblue" stroke="midnightblue" points="417.795,-291.782 428.308,-290.472 419.272,-284.94 417.795,-291.782"/>
</g>
<!-- Node22 -->
<g id="node22" class="node"><title>Node22</title>
<g id="a_node22"><a xlink:href="../../d2/d25/classslogo_1_1backend_1_1impl_1_1util_1_1_qualities.html#acd8e6cd4cebb1e207a1731a47a262579" target="_top" xlink:title="slogo.backend.impl.util.\lQualities.toColor">
<polygon fill="white" stroke="black" points="421.5,-77 421.5,-107 550.5,-107 550.5,-77 421.5,-77"/>
<text text-anchor="start" x="429.5" y="-95" font-family="Helvetica,sans-Serif" font-size="10.00">slogo.backend.impl.util.</text>
<text text-anchor="middle" x="486" y="-84" font-family="Helvetica,sans-Serif" font-size="10.00">Qualities.toColor</text>
</a>
</g>
</g>
<!-- Node15&#45;&gt;Node22 -->
<g id="edge27" class="edge"><title>Node15&#45;&gt;Node22</title>
<path fill="none" stroke="midnightblue" d="M340.048,-218.905C345.106,-216.141 349.849,-212.87 354,-209 386.117,-179.06 357.21,-146.201 390,-117 396.316,-111.375 403.751,-106.991 411.633,-103.579"/>
<polygon fill="midnightblue" stroke="midnightblue" points="412.945,-106.824 421.052,-100.003 410.46,-100.28 412.945,-106.824"/>
</g>
<!-- Node23 -->
<g id="node23" class="node"><title>Node23</title>
<g id="a_node23"><a xlink:href="../../da/dce/interfaceslogo_1_1backend_1_1util_1_1_i_turtle_status.html#ab3f3312b9c4289ea7750dbcaa91819eb" target="_top" xlink:title="slogo.backend.util.ITurtle\lStatus.turtleQualities">
<polygon fill="white" stroke="black" points="419,-203 419,-233 553,-233 553,-203 419,-203"/>
<text text-anchor="start" x="427" y="-221" font-family="Helvetica,sans-Serif" font-size="10.00">slogo.backend.util.ITurtle</text>
<text text-anchor="middle" x="486" y="-210" font-family="Helvetica,sans-Serif" font-size="10.00">Status.turtleQualities</text>
</a>
</g>
</g>
<!-- Node15&#45;&gt;Node23 -->
<g id="edge28" class="edge"><title>Node15&#45;&gt;Node23</title>
<path fill="none" stroke="midnightblue" d="M349.282,-228.291C368.633,-226.824 389.465,-225.244 408.858,-223.774"/>
<polygon fill="midnightblue" stroke="midnightblue" points="409.147,-227.262 418.853,-223.016 408.617,-220.282 409.147,-227.262"/>
</g>
<!-- Node26 -->
<g id="node26" class="node"><title>Node26</title>
<g id="a_node26"><a xlink:href="../../d5/deb/classslogo_1_1_u_i_1_1_turtle.html#a85f06fd2596915a4b658293482a7c041" target="_top" xlink:title="slogo.UI.Turtle.setXPos">
<polygon fill="white" stroke="black" points="423.5,-0.5 423.5,-19.5 548.5,-19.5 548.5,-0.5 423.5,-0.5"/>
<text text-anchor="middle" x="486" y="-7.5" font-family="Helvetica,sans-Serif" font-size="10.00">slogo.UI.Turtle.setXPos</text>
</a>
</g>
</g>
<!-- Node25&#45;&gt;Node26 -->
<g id="edge31" class="edge"><title>Node25&#45;&gt;Node26</title>
<path fill="none" stroke="midnightblue" d="M333.433,-93.4619C340.735,-90.7891 347.798,-87.3709 354,-83 377.578,-66.3842 366.034,-45.0502 390,-29 397.132,-24.2239 405.195,-20.597 413.536,-17.8508"/>
<polygon fill="midnightblue" stroke="midnightblue" points="414.768,-21.1385 423.414,-15.0156 412.837,-14.4101 414.768,-21.1385"/>
</g>
<!-- Node27 -->
<g id="node27" class="node"><title>Node27</title>
<g id="a_node27"><a xlink:href="../../d5/deb/classslogo_1_1_u_i_1_1_turtle.html#a2e077221329000d9c17edcdaa0a83489" target="_top" xlink:title="slogo.UI.Turtle.setYPos">
<polygon fill="white" stroke="black" points="424,-38.5 424,-57.5 548,-57.5 548,-38.5 424,-38.5"/>
<text text-anchor="middle" x="486" y="-45.5" font-family="Helvetica,sans-Serif" font-size="10.00">slogo.UI.Turtle.setYPos</text>
</a>
</g>
</g>
<!-- Node25&#45;&gt;Node27 -->
<g id="edge32" class="edge"><title>Node25&#45;&gt;Node27</title>
<path fill="none" stroke="midnightblue" d="M317.997,-93.4534C329.809,-90.4974 342.494,-86.9617 354,-83 370.555,-77.2998 373.314,-72.3048 390,-67 398.593,-64.2681 407.753,-61.8472 416.866,-59.7268"/>
<polygon fill="midnightblue" stroke="midnightblue" points="417.703,-63.1264 426.707,-57.5434 416.186,-56.2926 417.703,-63.1264"/>
</g>
<!-- Node29&#45;&gt;Node16 -->
<g id="edge37" class="edge"><title>Node29&#45;&gt;Node16</title>
<path fill="none" stroke="midnightblue" d="M353.77,-285.634C376.337,-281.57 400.577,-277.204 422.008,-273.345"/>
<polygon fill="midnightblue" stroke="midnightblue" points="422.739,-276.769 431.96,-271.552 421.498,-269.88 422.739,-276.769"/>
</g>
<!-- Node29&#45;&gt;Node19 -->
<g id="edge36" class="edge"><title>Node29&#45;&gt;Node19</title>
<path fill="none" stroke="midnightblue" d="M299.887,-315.153C322.862,-328.002 357.701,-346.043 390,-357 398.014,-359.719 406.547,-362.103 415.086,-364.178"/>
<polygon fill="midnightblue" stroke="midnightblue" points="414.552,-367.647 425.082,-366.475 416.12,-360.825 414.552,-367.647"/>
</g>
<!-- Node29&#45;&gt;Node20 -->
<g id="edge38" class="edge"><title>Node29&#45;&gt;Node20</title>
<path fill="none" stroke="midnightblue" d="M353.77,-314.366C376.337,-318.43 400.577,-322.796 422.008,-326.655"/>
<polygon fill="midnightblue" stroke="midnightblue" points="421.498,-330.12 431.96,-328.448 422.739,-323.231 421.498,-330.12"/>
</g>
<!-- Node29&#45;&gt;Node21 -->
<g id="edge35" class="edge"><title>Node29&#45;&gt;Node21</title>
<path fill="none" stroke="midnightblue" d="M353.77,-300C368.562,-300 384.073,-300 399.04,-300"/>
<polygon fill="midnightblue" stroke="midnightblue" points="399.299,-303.5 409.299,-300 399.299,-296.5 399.299,-303.5"/>
</g>
</g>
</svg>
