<?xml version="1.0" encoding="UTF-8" standalone="no"?>
<!DOCTYPE svg PUBLIC "-//W3C//DTD SVG 1.1//EN"
 "http://www.w3.org/Graphics/SVG/1.1/DTD/svg11.dtd">
<!-- Generated by graphviz version 2.36.0 (20140111.2315)
 -->
<!-- Title: slogo.UI.MethodRunner.changeTurtle Pages: 1 -->
<svg width="2556pt" height="427pt"
 viewBox="0.00 0.00 2556.00 427.00" xmlns="http://www.w3.org/2000/svg" xmlns:xlink="http://www.w3.org/1999/xlink">
<g id="graph0" class="graph" transform="scale(1 1) rotate(0) translate(4 423)">
<title>slogo.UI.MethodRunner.changeTurtle</title>
<polygon fill="white" stroke="none" points="-4,4 -4,-423 2552,-423 2552,4 -4,4"/>
<!-- Node1 -->
<g id="node1" class="node"><title>Node1</title>
<polygon fill="#bfbfbf" stroke="black" points="0,-49 0,-79 164,-79 164,-49 0,-49"/>
<text text-anchor="start" x="8" y="-67" font-family="Helvetica,sans-Serif" font-size="10.00">slogo.UI.MethodRunner.change</text>
<text text-anchor="middle" x="82" y="-56" font-family="Helvetica,sans-Serif" font-size="10.00">Turtle</text>
</g>
<!-- Node2 -->
<g id="node2" class="node"><title>Node2</title>
<g id="a_node2"><a xlink:href="../../df/d2d/classslogo_1_1_view.html#accc79c56511a72090ff8a4d414b8d1f5" target="_top" xlink:title="slogo.View.executeTurtle\lCommands">
<polygon fill="white" stroke="black" points="200.5,-49 200.5,-79 333.5,-79 333.5,-49 200.5,-49"/>
<text text-anchor="start" x="208.5" y="-67" font-family="Helvetica,sans-Serif" font-size="10.00">slogo.View.executeTurtle</text>
<text text-anchor="middle" x="267" y="-56" font-family="Helvetica,sans-Serif" font-size="10.00">Commands</text>
</a>
</g>
</g>
<!-- Node1&#45;&gt;Node2 -->
<g id="edge1" class="edge"><title>Node1&#45;&gt;Node2</title>
<path fill="none" stroke="midnightblue" d="M174.35,-64C183.128,-64 191.907,-64 200.365,-64"/>
<polygon fill="midnightblue" stroke="midnightblue" points="174.066,-60.5001 164.066,-64 174.066,-67.5001 174.066,-60.5001"/>
</g>
<!-- Node3 -->
<g id="node3" class="node"><title>Node3</title>
<g id="a_node3"><a xlink:href="../../df/d2d/classslogo_1_1_view.html#aa90e5d95d422b58b7f4b7f8a049defe1" target="_top" xlink:title="slogo.View.executeCommand">
<polygon fill="white" stroke="black" points="370,-54.5 370,-73.5 528,-73.5 528,-54.5 370,-54.5"/>
<text text-anchor="middle" x="449" y="-61.5" font-family="Helvetica,sans-Serif" font-size="10.00">slogo.View.executeCommand</text>
</a>
</g>
</g>
<!-- Node2&#45;&gt;Node3 -->
<g id="edge2" class="edge"><title>Node2&#45;&gt;Node3</title>
<path fill="none" stroke="midnightblue" d="M343.784,-64C352.42,-64 361.235,-64 369.901,-64"/>
<polygon fill="midnightblue" stroke="midnightblue" points="343.748,-60.5001 333.748,-64 343.748,-67.5001 343.748,-60.5001"/>
</g>
<!-- Node4 -->
<g id="node4" class="node"><title>Node4</title>
<g id="a_node4"><a xlink:href="../../df/d2d/classslogo_1_1_view.html#aee563f6a0b15ac6668e4dcbdad40c73c" target="_top" xlink:title="slogo.View.sendCommandTo\lBackend">
<polygon fill="white" stroke="black" points="570,-213 570,-243 722,-243 722,-213 570,-213"/>
<text text-anchor="start" x="578" y="-231" font-family="Helvetica,sans-Serif" font-size="10.00">slogo.View.sendCommandTo</text>
<text text-anchor="middle" x="646" y="-220" font-family="Helvetica,sans-Serif" font-size="10.00">Backend</text>
</a>
</g>
</g>
<!-- Node3&#45;&gt;Node4 -->
<g id="edge3" class="edge"><title>Node3&#45;&gt;Node4</title>
<path fill="none" stroke="midnightblue" d="M469.054,-80.0252C506.765,-111.741 590.433,-182.108 627.146,-212.984"/>
<polygon fill="midnightblue" stroke="midnightblue" points="471.233,-77.2841 461.327,-73.5262 466.727,-82.6414 471.233,-77.2841"/>
</g>
<!-- Node24 -->
<g id="node24" class="node"><title>Node24</title>
<g id="a_node24"><a xlink:href="../../df/d2d/classslogo_1_1_view.html#a4c3084a198acf85804800d70eff9ee51" target="_top" xlink:title="slogo.View.stepIntoCommand">
<polygon fill="white" stroke="black" points="567,-54.5 567,-73.5 725,-73.5 725,-54.5 567,-54.5"/>
<text text-anchor="middle" x="646" y="-61.5" font-family="Helvetica,sans-Serif" font-size="10.00">slogo.View.stepIntoCommand</text>
</a>
</g>
</g>
<!-- Node3&#45;&gt;Node24 -->
<g id="edge31" class="edge"><title>Node3&#45;&gt;Node24</title>
<path fill="none" stroke="midnightblue" d="M538.402,-64C547.87,-64 557.454,-64 566.792,-64"/>
<polygon fill="midnightblue" stroke="midnightblue" points="538.19,-60.5001 528.19,-64 538.19,-67.5001 538.19,-60.5001"/>
</g>
<!-- Node28 -->
<g id="node28" class="node"><title>Node28</title>
<g id="a_node28"><a xlink:href="../../df/d2d/classslogo_1_1_view.html#ac8b7f574c679e744a430f1649dc55e68" target="_top" xlink:title="slogo.View.stepOverCommand">
<polygon fill="white" stroke="black" points="564.5,-11.5 564.5,-30.5 727.5,-30.5 727.5,-11.5 564.5,-11.5"/>
<text text-anchor="middle" x="646" y="-18.5" font-family="Helvetica,sans-Serif" font-size="10.00">slogo.View.stepOverCommand</text>
</a>
</g>
</g>
<!-- Node3&#45;&gt;Node28 -->
<g id="edge36" class="edge"><title>Node3&#45;&gt;Node28</title>
<path fill="none" stroke="midnightblue" d="M503.056,-52.3005C534.068,-45.462 572.711,-36.9406 601.844,-30.5164"/>
<polygon fill="midnightblue" stroke="midnightblue" points="502.288,-48.8855 493.277,-54.4569 503.796,-55.7213 502.288,-48.8855"/>
</g>
<!-- Node5 -->
<g id="node5" class="node"><title>Node5</title>
<g id="a_node5"><a xlink:href="../../db/d19/classslogo_1_1_u_i_1_1_module_creation_helper.html#a69e17abcc7cf9a6ed7261d8fb1d631fa" target="_top" xlink:title="slogo.UI.ModuleCreationHelper.activate\lIncreaseDecreaseButtons">
<polygon fill="white" stroke="black" points="764.5,-389 764.5,-419 969.5,-419 969.5,-389 764.5,-389"/>
<text text-anchor="start" x="772.5" y="-407" font-family="Helvetica,sans-Serif" font-size="10.00">slogo.UI.ModuleCreationHelper.activate</text>
<text text-anchor="middle" x="867" y="-396" font-family="Helvetica,sans-Serif" font-size="10.00">IncreaseDecreaseButtons</text>
</a>
</g>
</g>
<!-- Node4&#45;&gt;Node5 -->
<g id="edge4" class="edge"><title>Node4&#45;&gt;Node5</title>
<path fill="none" stroke="midnightblue" d="M660.043,-252.219C678.779,-284.724 716.363,-342.06 764,-374 773.122,-380.116 783.514,-385.01 794.092,-388.919"/>
<polygon fill="midnightblue" stroke="midnightblue" points="663.013,-250.361 655.054,-243.368 656.915,-253.798 663.013,-250.361"/>
</g>
<!-- Node12 -->
<g id="node12" class="node"><title>Node12</title>
<g id="a_node12"><a xlink:href="../../db/d19/classslogo_1_1_u_i_1_1_module_creation_helper.html#aa70b0ad9e90e62509149bfd2ef2ba209" target="_top" xlink:title="slogo.UI.ModuleCreationHelper.activate\lKeyEvents">
<polygon fill="white" stroke="black" points="1490.5,-136 1490.5,-166 1695.5,-166 1695.5,-136 1490.5,-136"/>
<text text-anchor="start" x="1498.5" y="-154" font-family="Helvetica,sans-Serif" font-size="10.00">slogo.UI.ModuleCreationHelper.activate</text>
<text text-anchor="middle" x="1593" y="-143" font-family="Helvetica,sans-Serif" font-size="10.00">KeyEvents</text>
</a>
</g>
</g>
<!-- Node4&#45;&gt;Node12 -->
<g id="edge12" class="edge"><title>Node4&#45;&gt;Node12</title>
<path fill="none" stroke="midnightblue" d="M676.179,-207.164C698.902,-192.251 731.88,-173.388 764,-165 898.15,-129.97 1300.16,-139.777 1490.26,-146.744"/>
<polygon fill="midnightblue" stroke="midnightblue" points="674.049,-204.378 667.699,-212.86 677.952,-210.189 674.049,-204.378"/>
</g>
<!-- Node13 -->
<g id="node13" class="node"><title>Node13</title>
<g id="a_node13"><a xlink:href="../../db/d19/classslogo_1_1_u_i_1_1_module_creation_helper.html#a2e841243ec3ca474e8822102343acc88" target="_top" xlink:title="slogo.UI.ModuleCreationHelper.activate\lNewTurtleButton">
<polygon fill="white" stroke="black" points="1006.5,-344 1006.5,-374 1211.5,-374 1211.5,-344 1006.5,-344"/>
<text text-anchor="start" x="1014.5" y="-362" font-family="Helvetica,sans-Serif" font-size="10.00">slogo.UI.ModuleCreationHelper.activate</text>
<text text-anchor="middle" x="1109" y="-351" font-family="Helvetica,sans-Serif" font-size="10.00">NewTurtleButton</text>
</a>
</g>
</g>
<!-- Node4&#45;&gt;Node13 -->
<g id="edge14" class="edge"><title>Node4&#45;&gt;Node13</title>
<path fill="none" stroke="midnightblue" d="M663.021,-251.155C683.099,-278.009 720.24,-321.013 764,-340 840.408,-373.152 935.474,-375.86 1006.29,-371.435"/>
<polygon fill="midnightblue" stroke="midnightblue" points="665.834,-249.073 657.115,-243.055 660.178,-253.197 665.834,-249.073"/>
</g>
<!-- Node15 -->
<g id="node15" class="node"><title>Node15</title>
<g id="a_node15"><a xlink:href="../../db/d19/classslogo_1_1_u_i_1_1_module_creation_helper.html#a9b1f07ab673191067907a059b1b0c524" target="_top" xlink:title="slogo.UI.ModuleCreationHelper.activate\lPlayButton">
<polygon fill="white" stroke="black" points="764.5,-301 764.5,-331 969.5,-331 969.5,-301 764.5,-301"/>
<text text-anchor="start" x="772.5" y="-319" font-family="Helvetica,sans-Serif" font-size="10.00">slogo.UI.ModuleCreationHelper.activate</text>
<text text-anchor="middle" x="867" y="-308" font-family="Helvetica,sans-Serif" font-size="10.00">PlayButton</text>
</a>
</g>
</g>
<!-- Node4&#45;&gt;Node15 -->
<g id="edge17" class="edge"><title>Node4&#45;&gt;Node15</title>
<path fill="none" stroke="midnightblue" d="M679.42,-248.354C702.332,-262.006 734.156,-279.522 764,-291 773.7,-294.73 784.137,-298.039 794.502,-300.929"/>
<polygon fill="midnightblue" stroke="midnightblue" points="681.162,-245.317 670.792,-243.145 677.544,-251.31 681.162,-245.317"/>
</g>
<!-- Node18 -->
<g id="node18" class="node"><title>Node18</title>
<g id="a_node18"><a xlink:href="../../db/d19/classslogo_1_1_u_i_1_1_module_creation_helper.html#a3a38d485562cb17591ec3fd07cffc18a" target="_top" xlink:title="slogo.UI.ModuleCreationHelper.activate\lTurtleCanvas">
<polygon fill="white" stroke="black" points="1248.5,-87 1248.5,-117 1453.5,-117 1453.5,-87 1248.5,-87"/>
<text text-anchor="start" x="1256.5" y="-105" font-family="Helvetica,sans-Serif" font-size="10.00">slogo.UI.ModuleCreationHelper.activate</text>
<text text-anchor="middle" x="1351" y="-94" font-family="Helvetica,sans-Serif" font-size="10.00">TurtleCanvas</text>
</a>
</g>
</g>
<!-- Node4&#45;&gt;Node18 -->
<g id="edge21" class="edge"><title>Node4&#45;&gt;Node18</title>
<path fill="none" stroke="midnightblue" d="M666.366,-205.232C687.633,-182.064 724.105,-147.434 764,-132 849.507,-98.92 1104.48,-97.5272 1248.33,-99.6157"/>
<polygon fill="midnightblue" stroke="midnightblue" points="663.563,-203.115 659.497,-212.898 668.777,-207.786 663.563,-203.115"/>
</g>
<!-- Node20 -->
<g id="node20" class="node"><title>Node20</title>
<g id="a_node20"><a xlink:href="../../d1/d5f/classslogo_1_1_u_i_1_1_path_color_selector.html#ad3d9c82a0904c97edcec7cf67b85bd7b" target="_top" xlink:title="slogo.UI.PathColorSelector.create">
<polygon fill="white" stroke="black" points="779,-262.5 779,-281.5 955,-281.5 955,-262.5 779,-262.5"/>
<text text-anchor="middle" x="867" y="-269.5" font-family="Helvetica,sans-Serif" font-size="10.00">slogo.UI.PathColorSelector.create</text>
</a>
</g>
</g>
<!-- Node4&#45;&gt;Node20 -->
<g id="edge24" class="edge"><title>Node4&#45;&gt;Node20</title>
<path fill="none" stroke="midnightblue" d="M729.739,-245.065C741.243,-247.411 752.914,-249.776 764,-252 781.251,-255.46 800.157,-259.186 816.955,-262.473"/>
<polygon fill="midnightblue" stroke="midnightblue" points="730.189,-241.585 719.69,-243.013 728.788,-248.443 730.189,-241.585"/>
</g>
<!-- Node22 -->
<g id="node22" class="node"><title>Node22</title>
<g id="a_node22"><a xlink:href="../../d4/d8d/classslogo_1_1_u_i_1_1_background_color_selector.html#ad75ba4ce104e071811d0fe039a4e839f" target="_top" xlink:title="slogo.UI.BackgroundColor\lSelector.create">
<polygon fill="white" stroke="black" points="797,-213 797,-243 937,-243 937,-213 797,-213"/>
<text text-anchor="start" x="805" y="-231" font-family="Helvetica,sans-Serif" font-size="10.00">slogo.UI.BackgroundColor</text>
<text text-anchor="middle" x="867" y="-220" font-family="Helvetica,sans-Serif" font-size="10.00">Selector.create</text>
</a>
</g>
</g>
<!-- Node4&#45;&gt;Node22 -->
<g id="edge27" class="edge"><title>Node4&#45;&gt;Node22</title>
<path fill="none" stroke="midnightblue" d="M732.142,-228C753.597,-228 776.367,-228 796.925,-228"/>
<polygon fill="midnightblue" stroke="midnightblue" points="732.061,-224.5 722.061,-228 732.061,-231.5 732.061,-224.5"/>
</g>
<!-- Node23 -->
<g id="node23" class="node"><title>Node23</title>
<g id="a_node23"><a xlink:href="../../dd/da7/classslogo_1_1_u_i_1_1_turtle_image_selector.html#a3f268d9196ffebcbb5dc322d2897a9fe" target="_top" xlink:title="slogo.UI.TurtleImageSelector.create">
<polygon fill="white" stroke="black" points="774,-174.5 774,-193.5 960,-193.5 960,-174.5 774,-174.5"/>
<text text-anchor="middle" x="867" y="-181.5" font-family="Helvetica,sans-Serif" font-size="10.00">slogo.UI.TurtleImageSelector.create</text>
</a>
</g>
</g>
<!-- Node4&#45;&gt;Node23 -->
<g id="edge29" class="edge"><title>Node4&#45;&gt;Node23</title>
<path fill="none" stroke="midnightblue" d="M726.012,-210.821C738.704,-208.147 751.705,-205.458 764,-203 779.985,-199.804 797.416,-196.493 813.272,-193.548"/>
<polygon fill="midnightblue" stroke="midnightblue" points="724.977,-207.463 715.919,-212.958 726.427,-214.311 724.977,-207.463"/>
</g>
<!-- Node6 -->
<g id="node6" class="node"><title>Node6</title>
<g id="a_node6"><a xlink:href="../../db/d19/classslogo_1_1_u_i_1_1_module_creation_helper.html#adce7362386f9a7b3006e7db08a2d578d" target="_top" xlink:title="slogo.UI.ModuleCreationHelper.create\lIncreaseDecreaseButtons">
<polygon fill="white" stroke="black" points="1252.5,-380 1252.5,-410 1449.5,-410 1449.5,-380 1252.5,-380"/>
<text text-anchor="start" x="1260.5" y="-398" font-family="Helvetica,sans-Serif" font-size="10.00">slogo.UI.ModuleCreationHelper.create</text>
<text text-anchor="middle" x="1351" y="-387" font-family="Helvetica,sans-Serif" font-size="10.00">IncreaseDecreaseButtons</text>
</a>
</g>
</g>
<!-- Node5&#45;&gt;Node6 -->
<g id="edge5" class="edge"><title>Node5&#45;&gt;Node6</title>
<path fill="none" stroke="midnightblue" d="M979.792,-401.913C1062.23,-400.373 1173.29,-398.299 1252.21,-396.826"/>
<polygon fill="midnightblue" stroke="midnightblue" points="979.564,-398.416 969.631,-402.102 979.694,-405.415 979.564,-398.416"/>
</g>
<!-- Node7 -->
<g id="node7" class="node"><title>Node7</title>
<g id="a_node7"><a xlink:href="../../db/d19/classslogo_1_1_u_i_1_1_module_creation_helper.html#a7c650957b2389d6e6d36e8be8a33cd2b" target="_top" xlink:title="slogo.UI.ModuleCreationHelper.create\lSelectorVBoxModules">
<polygon fill="white" stroke="black" points="1494.5,-253 1494.5,-283 1691.5,-283 1691.5,-253 1494.5,-253"/>
<text text-anchor="start" x="1502.5" y="-271" font-family="Helvetica,sans-Serif" font-size="10.00">slogo.UI.ModuleCreationHelper.create</text>
<text text-anchor="middle" x="1593" y="-260" font-family="Helvetica,sans-Serif" font-size="10.00">SelectorVBoxModules</text>
</a>
</g>
</g>
<!-- Node6&#45;&gt;Node7 -->
<g id="edge6" class="edge"><title>Node6&#45;&gt;Node7</title>
<path fill="none" stroke="midnightblue" d="M1435,-376.732C1441.54,-374.424 1447.95,-371.854 1454,-369 1502.6,-346.077 1551.46,-305.079 1575.92,-283.025"/>
<polygon fill="midnightblue" stroke="midnightblue" points="1433.75,-373.461 1425.36,-379.93 1435.95,-380.105 1433.75,-373.461"/>
</g>
<!-- Node8 -->
<g id="node8" class="node"><title>Node8</title>
<g id="a_node8"><a xlink:href="../../db/d19/classslogo_1_1_u_i_1_1_module_creation_helper.html#afb9dbbbad7d872234a5b296fe129a34e" target="_top" xlink:title="slogo.UI.ModuleCreationHelper.create\lMainPageModules">
<polygon fill="white" stroke="black" points="1732.5,-136 1732.5,-166 1929.5,-166 1929.5,-136 1732.5,-136"/>
<text text-anchor="start" x="1740.5" y="-154" font-family="Helvetica,sans-Serif" font-size="10.00">slogo.UI.ModuleCreationHelper.create</text>
<text text-anchor="middle" x="1831" y="-143" font-family="Helvetica,sans-Serif" font-size="10.00">MainPageModules</text>
</a>
</g>
</g>
<!-- Node7&#45;&gt;Node8 -->
<g id="edge7" class="edge"><title>Node7&#45;&gt;Node8</title>
<path fill="none" stroke="midnightblue" d="M1633.58,-248.38C1680.29,-225.222 1756.96,-187.212 1799.37,-166.184"/>
<polygon fill="midnightblue" stroke="midnightblue" points="1631.77,-245.366 1624.37,-252.944 1634.88,-251.638 1631.77,-245.366"/>
</g>
<!-- Node9 -->
<g id="node9" class="node"><title>Node9</title>
<g id="a_node9"><a xlink:href="../../d9/d33/classslogo_1_1_u_i_1_1_main.html#a15b7f2e399ee24d160550993ab737e73" target="_top" xlink:title="slogo.UI.Main.start">
<polygon fill="white" stroke="black" points="1966,-150.5 1966,-169.5 2072,-169.5 2072,-150.5 1966,-150.5"/>
<text text-anchor="middle" x="2019" y="-157.5" font-family="Helvetica,sans-Serif" font-size="10.00">slogo.UI.Main.start</text>
</a>
</g>
</g>
<!-- Node8&#45;&gt;Node9 -->
<g id="edge8" class="edge"><title>Node8&#45;&gt;Node9</title>
<path fill="none" stroke="midnightblue" d="M1939.8,-156.216C1948.76,-156.65 1957.53,-157.074 1965.76,-157.472"/>
<polygon fill="midnightblue" stroke="midnightblue" points="1939.79,-152.712 1929.63,-155.724 1939.45,-159.703 1939.79,-152.712"/>
</g>
<!-- Node10 -->
<g id="node10" class="node"><title>Node10</title>
<g id="a_node10"><a xlink:href="../../db/d19/classslogo_1_1_u_i_1_1_module_creation_helper.html#a3be12a7cc2b8a219db1e296211a2cb88" target="_top" xlink:title="slogo.UI.ModuleCreationHelper.activate\lExtraWorkspaceButton">
<polygon fill="white" stroke="black" points="2108.5,-163 2108.5,-193 2313.5,-193 2313.5,-163 2108.5,-163"/>
<text text-anchor="start" x="2116.5" y="-181" font-family="Helvetica,sans-Serif" font-size="10.00">slogo.UI.ModuleCreationHelper.activate</text>
<text text-anchor="middle" x="2211" y="-170" font-family="Helvetica,sans-Serif" font-size="10.00">ExtraWorkspaceButton</text>
</a>
</g>
</g>
<!-- Node9&#45;&gt;Node10 -->
<g id="edge9" class="edge"><title>Node9&#45;&gt;Node10</title>
<path fill="none" stroke="midnightblue" d="M2082.22,-165.894C2090.63,-166.691 2099.44,-167.526 2108.32,-168.367"/>
<polygon fill="midnightblue" stroke="midnightblue" points="2082.46,-162.401 2072.17,-164.942 2081.79,-169.37 2082.46,-162.401"/>
</g>
<!-- Node11 -->
<g id="node11" class="node"><title>Node11</title>
<g id="a_node11"><a xlink:href="../../db/d19/classslogo_1_1_u_i_1_1_module_creation_helper.html#a702c1ebe24d2857a10c666eb1fcc315d" target="_top" xlink:title="slogo.UI.ModuleCreationHelper.create\lExtraWorkspaceButton">
<polygon fill="white" stroke="black" points="2350.5,-189 2350.5,-219 2547.5,-219 2547.5,-189 2350.5,-189"/>
<text text-anchor="start" x="2358.5" y="-207" font-family="Helvetica,sans-Serif" font-size="10.00">slogo.UI.ModuleCreationHelper.create</text>
<text text-anchor="middle" x="2449" y="-196" font-family="Helvetica,sans-Serif" font-size="10.00">ExtraWorkspaceButton</text>
</a>
</g>
</g>
<!-- Node10&#45;&gt;Node11 -->
<g id="edge10" class="edge"><title>Node10&#45;&gt;Node11</title>
<path fill="none" stroke="midnightblue" d="M2323.77,-190.313C2332.62,-191.289 2341.52,-192.27 2350.27,-193.234"/>
<polygon fill="midnightblue" stroke="midnightblue" points="2324.12,-186.831 2313.8,-189.215 2323.35,-193.789 2324.12,-186.831"/>
</g>
<!-- Node11&#45;&gt;Node7 -->
<g id="edge11" class="edge"><title>Node11&#45;&gt;Node7</title>
<path fill="none" stroke="midnightblue" d="M2340.34,-212.068C2172.9,-224.617 1852.6,-248.62 1691.55,-260.69"/>
<polygon fill="midnightblue" stroke="midnightblue" points="2340.7,-215.551 2350.41,-211.313 2340.18,-208.571 2340.7,-215.551"/>
</g>
<!-- Node12&#45;&gt;Node8 -->
<g id="edge13" class="edge"><title>Node12&#45;&gt;Node8</title>
<path fill="none" stroke="midnightblue" d="M1706.05,-151C1714.81,-151 1723.62,-151 1732.27,-151"/>
<polygon fill="midnightblue" stroke="midnightblue" points="1705.8,-147.5 1695.8,-151 1705.8,-154.5 1705.8,-147.5"/>
</g>
<!-- Node14 -->
<g id="node14" class="node"><title>Node14</title>
<g id="a_node14"><a xlink:href="../../db/d19/classslogo_1_1_u_i_1_1_module_creation_helper.html#a07f5483df317cdf80e8ea2dda5699afa" target="_top" xlink:title="slogo.UI.ModuleCreationHelper.create\lNewTurtleButton">
<polygon fill="white" stroke="black" points="1252.5,-330 1252.5,-360 1449.5,-360 1449.5,-330 1252.5,-330"/>
<text text-anchor="start" x="1260.5" y="-348" font-family="Helvetica,sans-Serif" font-size="10.00">slogo.UI.ModuleCreationHelper.create</text>
<text text-anchor="middle" x="1351" y="-337" font-family="Helvetica,sans-Serif" font-size="10.00">NewTurtleButton</text>
</a>
</g>
</g>
<!-- Node13&#45;&gt;Node14 -->
<g id="edge15" class="edge"><title>Node13&#45;&gt;Node14</title>
<path fill="none" stroke="midnightblue" d="M1221.89,-352.473C1232.04,-351.881 1242.26,-351.285 1252.27,-350.701"/>
<polygon fill="midnightblue" stroke="midnightblue" points="1221.56,-348.986 1211.78,-353.063 1221.97,-355.974 1221.56,-348.986"/>
</g>
<!-- Node14&#45;&gt;Node7 -->
<g id="edge16" class="edge"><title>Node14&#45;&gt;Node7</title>
<path fill="none" stroke="midnightblue" d="M1422.15,-327.309C1432.87,-324.354 1443.76,-321.203 1454,-318 1487.93,-307.387 1525.86,-293.493 1553.35,-283.046"/>
<polygon fill="midnightblue" stroke="midnightblue" points="1421.12,-323.962 1412.39,-329.963 1422.96,-330.717 1421.12,-323.962"/>
</g>
<!-- Node16 -->
<g id="node16" class="node"><title>Node16</title>
<g id="a_node16"><a xlink:href="../../db/d19/classslogo_1_1_u_i_1_1_module_creation_helper.html#a9b3fb38a55b3b7812b4f793afa7a974f" target="_top" xlink:title="slogo.UI.ModuleCreationHelper.create\lPlayButton">
<polygon fill="white" stroke="black" points="1010.5,-295 1010.5,-325 1207.5,-325 1207.5,-295 1010.5,-295"/>
<text text-anchor="start" x="1018.5" y="-313" font-family="Helvetica,sans-Serif" font-size="10.00">slogo.UI.ModuleCreationHelper.create</text>
<text text-anchor="middle" x="1109" y="-302" font-family="Helvetica,sans-Serif" font-size="10.00">PlayButton</text>
</a>
</g>
</g>
<!-- Node15&#45;&gt;Node16 -->
<g id="edge18" class="edge"><title>Node15&#45;&gt;Node16</title>
<path fill="none" stroke="midnightblue" d="M979.89,-313.203C990.035,-312.949 1000.26,-312.694 1010.27,-312.443"/>
<polygon fill="midnightblue" stroke="midnightblue" points="979.691,-309.707 969.782,-313.455 979.866,-316.704 979.691,-309.707"/>
</g>
<!-- Node17 -->
<g id="node17" class="node"><title>Node17</title>
<g id="a_node17"><a xlink:href="../../db/d19/classslogo_1_1_u_i_1_1_module_creation_helper.html#ae1e60d37509c2e5eddcb2a6e70b4f650" target="_top" xlink:title="slogo.UI.ModuleCreationHelper.create\lFirstRowButtons">
<polygon fill="white" stroke="black" points="1252.5,-279 1252.5,-309 1449.5,-309 1449.5,-279 1252.5,-279"/>
<text text-anchor="start" x="1260.5" y="-297" font-family="Helvetica,sans-Serif" font-size="10.00">slogo.UI.ModuleCreationHelper.create</text>
<text text-anchor="middle" x="1351" y="-286" font-family="Helvetica,sans-Serif" font-size="10.00">FirstRowButtons</text>
</a>
</g>
</g>
<!-- Node16&#45;&gt;Node17 -->
<g id="edge19" class="edge"><title>Node16&#45;&gt;Node17</title>
<path fill="none" stroke="midnightblue" d="M1217.73,-302.818C1229.3,-302.046 1241.03,-301.265 1252.47,-300.502"/>
<polygon fill="midnightblue" stroke="midnightblue" points="1217.36,-299.335 1207.62,-303.492 1217.83,-306.319 1217.36,-299.335"/>
</g>
<!-- Node17&#45;&gt;Node7 -->
<g id="edge20" class="edge"><title>Node17&#45;&gt;Node7</title>
<path fill="none" stroke="midnightblue" d="M1459.73,-282.329C1471.3,-281.075 1483.03,-279.805 1494.47,-278.566"/>
<polygon fill="midnightblue" stroke="midnightblue" points="1459.18,-278.868 1449.62,-283.425 1459.94,-285.827 1459.18,-278.868"/>
</g>
<!-- Node19 -->
<g id="node19" class="node"><title>Node19</title>
<g id="a_node19"><a xlink:href="../../db/d19/classslogo_1_1_u_i_1_1_module_creation_helper.html#a803bac6b55bde712b21f2face1eeef81" target="_top" xlink:title="slogo.UI.ModuleCreationHelper.create\lTurtleCanvas">
<polygon fill="white" stroke="black" points="1494.5,-87 1494.5,-117 1691.5,-117 1691.5,-87 1494.5,-87"/>
<text text-anchor="start" x="1502.5" y="-105" font-family="Helvetica,sans-Serif" font-size="10.00">slogo.UI.ModuleCreationHelper.create</text>
<text text-anchor="middle" x="1593" y="-94" font-family="Helvetica,sans-Serif" font-size="10.00">TurtleCanvas</text>
</a>
</g>
</g>
<!-- Node18&#45;&gt;Node19 -->
<g id="edge22" class="edge"><title>Node18&#45;&gt;Node19</title>
<path fill="none" stroke="midnightblue" d="M1463.89,-102C1474.04,-102 1484.26,-102 1494.27,-102"/>
<polygon fill="midnightblue" stroke="midnightblue" points="1463.78,-98.5001 1453.78,-102 1463.78,-105.5 1463.78,-98.5001"/>
</g>
<!-- Node19&#45;&gt;Node8 -->
<g id="edge23" class="edge"><title>Node19&#45;&gt;Node8</title>
<path fill="none" stroke="midnightblue" d="M1676.42,-119.113C1702.9,-124.611 1732.03,-130.658 1757.73,-135.994"/>
<polygon fill="midnightblue" stroke="midnightblue" points="1676.91,-115.641 1666.41,-117.035 1675.49,-122.495 1676.91,-115.641"/>
</g>
<!-- Node21 -->
<g id="node21" class="node"><title>Node21</title>
<g id="a_node21"><a xlink:href="../../db/d19/classslogo_1_1_u_i_1_1_module_creation_helper.html#af7f2919454fdbf6e9d7d912e99634857" target="_top" xlink:title="slogo.UI.ModuleCreationHelper.create\lSelectors">
<polygon fill="white" stroke="black" points="1010.5,-230 1010.5,-260 1207.5,-260 1207.5,-230 1010.5,-230"/>
<text text-anchor="start" x="1018.5" y="-248" font-family="Helvetica,sans-Serif" font-size="10.00">slogo.UI.ModuleCreationHelper.create</text>
<text text-anchor="middle" x="1109" y="-237" font-family="Helvetica,sans-Serif" font-size="10.00">Selectors</text>
</a>
</g>
</g>
<!-- Node20&#45;&gt;Node21 -->
<g id="edge25" class="edge"><title>Node20&#45;&gt;Node21</title>
<path fill="none" stroke="midnightblue" d="M962.764,-261.339C978.356,-259.585 994.543,-257.764 1010.21,-256.002"/>
<polygon fill="midnightblue" stroke="midnightblue" points="962.161,-257.885 952.615,-262.481 962.944,-264.841 962.161,-257.885"/>
</g>
<!-- Node21&#45;&gt;Node7 -->
<g id="edge26" class="edge"><title>Node21&#45;&gt;Node7</title>
<path fill="none" stroke="midnightblue" d="M1217.74,-250.141C1300.55,-254.092 1413.97,-259.505 1494.19,-263.333"/>
<polygon fill="midnightblue" stroke="midnightblue" points="1217.7,-246.635 1207.54,-249.654 1217.36,-253.627 1217.7,-246.635"/>
</g>
<!-- Node22&#45;&gt;Node21 -->
<g id="edge28" class="edge"><title>Node22&#45;&gt;Node21</title>
<path fill="none" stroke="midnightblue" d="M947.179,-233.609C967.396,-235.041 989.368,-236.597 1010.39,-238.086"/>
<polygon fill="midnightblue" stroke="midnightblue" points="947.318,-230.11 937.096,-232.894 946.824,-237.092 947.318,-230.11"/>
</g>
<!-- Node23&#45;&gt;Node21 -->
<g id="edge30" class="edge"><title>Node23&#45;&gt;Node21</title>
<path fill="none" stroke="midnightblue" d="M935.481,-195.473C947.044,-197.752 958.903,-200.287 970,-203 1001.38,-210.673 1036.18,-221.278 1062.98,-229.911"/>
<polygon fill="midnightblue" stroke="midnightblue" points="935.905,-191.99 925.423,-193.539 934.582,-198.864 935.905,-191.99"/>
</g>
<!-- Node25 -->
<g id="node25" class="node"><title>Node25</title>
<g id="a_node25"><a xlink:href="../../db/d19/classslogo_1_1_u_i_1_1_module_creation_helper.html#a9fd730f7c1860d34bf4ac46c3828bd59" target="_top" xlink:title="slogo.UI.ModuleCreationHelper.activate\lStepIntoButton">
<polygon fill="white" stroke="black" points="764.5,-49 764.5,-79 969.5,-79 969.5,-49 764.5,-49"/>
<text text-anchor="start" x="772.5" y="-67" font-family="Helvetica,sans-Serif" font-size="10.00">slogo.UI.ModuleCreationHelper.activate</text>
<text text-anchor="middle" x="867" y="-56" font-family="Helvetica,sans-Serif" font-size="10.00">StepIntoButton</text>
</a>
</g>
</g>
<!-- Node24&#45;&gt;Node25 -->
<g id="edge32" class="edge"><title>Node24&#45;&gt;Node25</title>
<path fill="none" stroke="midnightblue" d="M735.334,-64C744.824,-64 754.535,-64 764.167,-64"/>
<polygon fill="midnightblue" stroke="midnightblue" points="735.137,-60.5001 725.137,-64 735.136,-67.5001 735.137,-60.5001"/>
</g>
<!-- Node26 -->
<g id="node26" class="node"><title>Node26</title>
<g id="a_node26"><a xlink:href="../../db/d19/classslogo_1_1_u_i_1_1_module_creation_helper.html#a4a6f1f009507c25be8c7c28cbba35f3b" target="_top" xlink:title="slogo.UI.ModuleCreationHelper.create\lDebugStepIntoButton">
<polygon fill="white" stroke="black" points="1010.5,-49 1010.5,-79 1207.5,-79 1207.5,-49 1010.5,-49"/>
<text text-anchor="start" x="1018.5" y="-67" font-family="Helvetica,sans-Serif" font-size="10.00">slogo.UI.ModuleCreationHelper.create</text>
<text text-anchor="middle" x="1109" y="-56" font-family="Helvetica,sans-Serif" font-size="10.00">DebugStepIntoButton</text>
</a>
</g>
</g>
<!-- Node25&#45;&gt;Node26 -->
<g id="edge33" class="edge"><title>Node25&#45;&gt;Node26</title>
<path fill="none" stroke="midnightblue" d="M979.89,-64C990.035,-64 1000.26,-64 1010.27,-64"/>
<polygon fill="midnightblue" stroke="midnightblue" points="979.782,-60.5001 969.782,-64 979.782,-67.5001 979.782,-60.5001"/>
</g>
<!-- Node27 -->
<g id="node27" class="node"><title>Node27</title>
<g id="a_node27"><a xlink:href="../../db/d19/classslogo_1_1_u_i_1_1_module_creation_helper.html#a975af4ea47dc85df72215bdf1a0d20ce" target="_top" xlink:title="slogo.UI.ModuleCreationHelper.create\lDebugModules">
<polygon fill="white" stroke="black" points="1252.5,-38 1252.5,-68 1449.5,-68 1449.5,-38 1252.5,-38"/>
<text text-anchor="start" x="1260.5" y="-56" font-family="Helvetica,sans-Serif" font-size="10.00">slogo.UI.ModuleCreationHelper.create</text>
<text text-anchor="middle" x="1351" y="-45" font-family="Helvetica,sans-Serif" font-size="10.00">DebugModules</text>
</a>
</g>
</g>
<!-- Node26&#45;&gt;Node27 -->
<g id="edge34" class="edge"><title>Node26&#45;&gt;Node27</title>
<path fill="none" stroke="midnightblue" d="M1217.73,-59.0622C1229.3,-58.5319 1241.03,-57.9945 1252.47,-57.4702"/>
<polygon fill="midnightblue" stroke="midnightblue" points="1217.45,-55.5716 1207.62,-59.5259 1217.77,-62.5643 1217.45,-55.5716"/>
</g>
<!-- Node27&#45;&gt;Node8 -->
<g id="edge35" class="edge"><title>Node27&#45;&gt;Node8</title>
<path fill="none" stroke="midnightblue" d="M1459.63,-48.679C1528.53,-48.779 1619.11,-54.2973 1696,-77 1739.33,-89.7936 1784.2,-118.228 1809.46,-135.889"/>
<polygon fill="midnightblue" stroke="midnightblue" points="1459.61,-45.1789 1449.62,-48.7021 1459.63,-52.1789 1459.61,-45.1789"/>
</g>
<!-- Node29 -->
<g id="node29" class="node"><title>Node29</title>
<g id="a_node29"><a xlink:href="../../db/d19/classslogo_1_1_u_i_1_1_module_creation_helper.html#a0fed0bb32bf2643d6fd5c24d82e8e18e" target="_top" xlink:title="slogo.UI.ModuleCreationHelper.activate\lStepOverButton">
<polygon fill="white" stroke="black" points="764.5,-0 764.5,-30 969.5,-30 969.5,-0 764.5,-0"/>
<text text-anchor="start" x="772.5" y="-18" font-family="Helvetica,sans-Serif" font-size="10.00">slogo.UI.ModuleCreationHelper.activate</text>
<text text-anchor="middle" x="867" y="-7" font-family="Helvetica,sans-Serif" font-size="10.00">StepOverButton</text>
</a>
</g>
</g>
<!-- Node28&#45;&gt;Node29 -->
<g id="edge37" class="edge"><title>Node28&#45;&gt;Node29</title>
<path fill="none" stroke="midnightblue" d="M737.803,-18.5123C746.557,-18.2724 755.477,-18.028 764.327,-17.7856"/>
<polygon fill="midnightblue" stroke="midnightblue" points="737.515,-15.0187 727.615,-18.7914 737.707,-22.0161 737.515,-15.0187"/>
</g>
<!-- Node30 -->
<g id="node30" class="node"><title>Node30</title>
<g id="a_node30"><a xlink:href="../../db/d19/classslogo_1_1_u_i_1_1_module_creation_helper.html#aa1e7dc2b509360583790fba0d3819c8d" target="_top" xlink:title="slogo.UI.ModuleCreationHelper.create\lDebugStepOverButton">
<polygon fill="white" stroke="black" points="1010.5,-0 1010.5,-30 1207.5,-30 1207.5,-0 1010.5,-0"/>
<text text-anchor="start" x="1018.5" y="-18" font-family="Helvetica,sans-Serif" font-size="10.00">slogo.UI.ModuleCreationHelper.create</text>
<text text-anchor="middle" x="1109" y="-7" font-family="Helvetica,sans-Serif" font-size="10.00">DebugStepOverButton</text>
</a>
</g>
</g>
<!-- Node29&#45;&gt;Node30 -->
<g id="edge38" class="edge"><title>Node29&#45;&gt;Node30</title>
<path fill="none" stroke="midnightblue" d="M979.89,-15C990.035,-15 1000.26,-15 1010.27,-15"/>
<polygon fill="midnightblue" stroke="midnightblue" points="979.782,-11.5001 969.782,-15 979.782,-18.5001 979.782,-11.5001"/>
</g>
<!-- Node30&#45;&gt;Node27 -->
<g id="edge39" class="edge"><title>Node30&#45;&gt;Node27</title>
<path fill="none" stroke="midnightblue" d="M1214.99,-31.6227C1228.31,-33.7329 1241.89,-35.8827 1255.05,-37.966"/>
<polygon fill="midnightblue" stroke="midnightblue" points="1215.28,-28.1256 1204.85,-30.0186 1214.18,-35.0395 1215.28,-28.1256"/>
</g>
</g>
</svg>
