<?xml version="1.0" encoding="UTF-8" standalone="no"?>
<!DOCTYPE svg PUBLIC "-//W3C//DTD SVG 1.1//EN"
 "http://www.w3.org/Graphics/SVG/1.1/DTD/svg11.dtd">
<!-- Generated by graphviz version 2.36.0 (20140111.2315)
 -->
<!-- Title: slogo.UI.MethodRunner.drawLinesUsingToroidal Pages: 1 -->
<svg width="1108pt" height="259pt"
 viewBox="0.00 0.00 1108.00 259.00" xmlns="http://www.w3.org/2000/svg" xmlns:xlink="http://www.w3.org/1999/xlink">
<g id="graph0" class="graph" transform="scale(1 1) rotate(0) translate(4 255.004)">
<title>slogo.UI.MethodRunner.drawLinesUsingToroidal</title>
<polygon fill="white" stroke="none" points="-4,4 -4,-255.004 1104,-255.004 1104,4 -4,4"/>
<!-- Node1 -->
<g id="node1" class="node"><title>Node1</title>
<polygon fill="#bfbfbf" stroke="black" points="0,-87.0995 0,-117.099 152,-117.099 152,-87.0995 0,-87.0995"/>
<text text-anchor="start" x="8" y="-105.099" font-family="Helvetica,sans-Serif" font-size="10.00">slogo.UI.MethodRunner.draw</text>
<text text-anchor="middle" x="76" y="-94.0995" font-family="Helvetica,sans-Serif" font-size="10.00">LinesUsingToroidal</text>
</g>
<!-- Node2 -->
<g id="node2" class="node"><title>Node2</title>
<g id="a_node2"><a xlink:href="../../d0/d32/classslogo_1_1_u_i_1_1_toroidal_helper.html#a3310ad36e6dae43f4741e3a67ebd0144" target="_top" xlink:title="slogo.UI.ToroidalHelper.make\lLinesToroidal">
<polygon fill="white" stroke="black" points="188.5,-87.0995 188.5,-117.099 343.5,-117.099 343.5,-87.0995 188.5,-87.0995"/>
<text text-anchor="start" x="196.5" y="-105.099" font-family="Helvetica,sans-Serif" font-size="10.00">slogo.UI.ToroidalHelper.make</text>
<text text-anchor="middle" x="266" y="-94.0995" font-family="Helvetica,sans-Serif" font-size="10.00">LinesToroidal</text>
</a>
</g>
</g>
<!-- Node1&#45;&gt;Node2 -->
<g id="edge1" class="edge"><title>Node1&#45;&gt;Node2</title>
<path fill="none" stroke="midnightblue" d="M152.113,-102.099C160.714,-102.099 169.535,-102.099 178.271,-102.099"/>
<polygon fill="midnightblue" stroke="midnightblue" points="178.47,-105.6 188.47,-102.099 178.47,-98.5996 178.47,-105.6"/>
</g>
<!-- Node3 -->
<g id="node3" class="node"><title>Node3</title>
<g id="a_node3"><a xlink:href="../../d0/d32/classslogo_1_1_u_i_1_1_toroidal_helper.html#afe4f76a7e0638e9a7f99ee8918a5b863" target="_top" xlink:title="slogo.UI.ToroidalHelper.check\lEndBounds">
<polygon fill="white" stroke="black" points="560.5,-1.09948 560.5,-31.0995 715.5,-31.0995 715.5,-1.09948 560.5,-1.09948"/>
<text text-anchor="start" x="568.5" y="-19.0995" font-family="Helvetica,sans-Serif" font-size="10.00">slogo.UI.ToroidalHelper.check</text>
<text text-anchor="middle" x="638" y="-8.09948" font-family="Helvetica,sans-Serif" font-size="10.00">EndBounds</text>
</a>
</g>
</g>
<!-- Node2&#45;&gt;Node3 -->
<g id="edge2" class="edge"><title>Node2&#45;&gt;Node3</title>
<path fill="none" stroke="midnightblue" d="M331.872,-87.021C396.138,-72.0835 494.478,-49.2261 562.048,-33.5207"/>
<polygon fill="midnightblue" stroke="midnightblue" points="563.254,-36.8338 572.202,-31.1606 561.669,-30.0156 563.254,-36.8338"/>
</g>
<!-- Node6 -->
<g id="node6" class="node"><title>Node6</title>
<g id="a_node6"><a xlink:href="../../d0/d32/classslogo_1_1_u_i_1_1_toroidal_helper.html#a9d143072a1321d4267bb97cf11062922" target="_top" xlink:title="slogo.UI.ToroidalHelper.cut\lLines">
<polygon fill="white" stroke="black" points="380.5,-123.099 380.5,-153.099 523.5,-153.099 523.5,-123.099 380.5,-123.099"/>
<text text-anchor="start" x="388.5" y="-141.099" font-family="Helvetica,sans-Serif" font-size="10.00">slogo.UI.ToroidalHelper.cut</text>
<text text-anchor="middle" x="452" y="-130.099" font-family="Helvetica,sans-Serif" font-size="10.00">Lines</text>
</a>
</g>
</g>
<!-- Node2&#45;&gt;Node6 -->
<g id="edge5" class="edge"><title>Node2&#45;&gt;Node6</title>
<path fill="none" stroke="midnightblue" d="M343.7,-117.106C352.513,-118.83 361.518,-120.592 370.38,-122.326"/>
<polygon fill="midnightblue" stroke="midnightblue" points="369.82,-125.783 380.306,-124.268 371.165,-118.913 369.82,-125.783"/>
</g>
<!-- Node4 -->
<g id="node4" class="node"><title>Node4</title>
<g id="a_node4"><a xlink:href="../../d0/d32/classslogo_1_1_u_i_1_1_toroidal_helper.html#a22d58c7c2d7c4237c3f1524eadd2630c" target="_top" xlink:title="slogo.UI.ToroidalHelper.check\lXBounds">
<polygon fill="white" stroke="black" points="752.5,-50.0995 752.5,-80.0995 907.5,-80.0995 907.5,-50.0995 752.5,-50.0995"/>
<text text-anchor="start" x="760.5" y="-68.0995" font-family="Helvetica,sans-Serif" font-size="10.00">slogo.UI.ToroidalHelper.check</text>
<text text-anchor="middle" x="830" y="-57.0995" font-family="Helvetica,sans-Serif" font-size="10.00">XBounds</text>
</a>
</g>
</g>
<!-- Node3&#45;&gt;Node4 -->
<g id="edge3" class="edge"><title>Node3&#45;&gt;Node4</title>
<path fill="none" stroke="midnightblue" d="M697.297,-31.1341C717.45,-36.3313 740.206,-42.2001 761.064,-47.5791"/>
<polygon fill="midnightblue" stroke="midnightblue" points="760.256,-50.9851 770.813,-50.0933 762.004,-44.2069 760.256,-50.9851"/>
</g>
<!-- Node5 -->
<g id="node5" class="node"><title>Node5</title>
<g id="a_node5"><a xlink:href="../../d0/d32/classslogo_1_1_u_i_1_1_toroidal_helper.html#a741cec86e924fde87b003f2979e5b048" target="_top" xlink:title="slogo.UI.ToroidalHelper.check\lYBounds">
<polygon fill="white" stroke="black" points="944.5,-148.099 944.5,-178.099 1099.5,-178.099 1099.5,-148.099 944.5,-148.099"/>
<text text-anchor="start" x="952.5" y="-166.099" font-family="Helvetica,sans-Serif" font-size="10.00">slogo.UI.ToroidalHelper.check</text>
<text text-anchor="middle" x="1022" y="-155.099" font-family="Helvetica,sans-Serif" font-size="10.00">YBounds</text>
</a>
</g>
</g>
<!-- Node3&#45;&gt;Node5 -->
<g id="edge4" class="edge"><title>Node3&#45;&gt;Node5</title>
<path fill="none" stroke="midnightblue" d="M715.521,-2.49083C774.085,3.4829 853.758,1.46765 908,-40.0995 944.83,-68.3236 910.57,-105.92 944,-138.099 945.645,-139.683 947.392,-141.167 949.221,-142.557"/>
<polygon fill="midnightblue" stroke="midnightblue" points="947.41,-145.554 957.703,-148.067 951.224,-139.684 947.41,-145.554"/>
</g>
<!-- Node7 -->
<g id="node7" class="node"><title>Node7</title>
<g id="a_node7"><a xlink:href="../../d0/d32/classslogo_1_1_u_i_1_1_toroidal_helper.html#ad878914aa73174cd1b5bdebd0fcdacf9" target="_top" xlink:title="slogo.UI.ToroidalHelper.check\lStartBounds">
<polygon fill="white" stroke="black" points="560.5,-197.099 560.5,-227.099 715.5,-227.099 715.5,-197.099 560.5,-197.099"/>
<text text-anchor="start" x="568.5" y="-215.099" font-family="Helvetica,sans-Serif" font-size="10.00">slogo.UI.ToroidalHelper.check</text>
<text text-anchor="middle" x="638" y="-204.099" font-family="Helvetica,sans-Serif" font-size="10.00">StartBounds</text>
</a>
</g>
</g>
<!-- Node6&#45;&gt;Node7 -->
<g id="edge6" class="edge"><title>Node6&#45;&gt;Node7</title>
<path fill="none" stroke="midnightblue" d="M483.499,-153.207C504.689,-163.42 533.73,-176.859 560,-187.099 565.844,-189.377 571.99,-191.621 578.156,-193.773"/>
<polygon fill="midnightblue" stroke="midnightblue" points="577.225,-197.153 587.82,-197.07 579.486,-190.528 577.225,-197.153"/>
</g>
<!-- Node8 -->
<g id="node8" class="node"><title>Node8</title>
<g id="a_node8"><a xlink:href="../../d0/d32/classslogo_1_1_u_i_1_1_toroidal_helper.html#a366128809cd6506ca8d776c625a19da2" target="_top" xlink:title="slogo.UI.ToroidalHelper.run\lLineXShift">
<polygon fill="white" stroke="black" points="566.5,-50.0995 566.5,-80.0995 709.5,-80.0995 709.5,-50.0995 566.5,-50.0995"/>
<text text-anchor="start" x="574.5" y="-68.0995" font-family="Helvetica,sans-Serif" font-size="10.00">slogo.UI.ToroidalHelper.run</text>
<text text-anchor="middle" x="638" y="-57.0995" font-family="Helvetica,sans-Serif" font-size="10.00">LineXShift</text>
</a>
</g>
</g>
<!-- Node6&#45;&gt;Node8 -->
<g id="edge7" class="edge"><title>Node6&#45;&gt;Node8</title>
<path fill="none" stroke="midnightblue" d="M483.461,-122.893C504.634,-112.636 533.67,-99.1848 560,-89.0995 565.067,-87.1587 570.364,-85.2556 575.706,-83.4231"/>
<polygon fill="midnightblue" stroke="midnightblue" points="576.953,-86.6967 585.329,-80.2083 574.735,-80.0574 576.953,-86.6967"/>
</g>
<!-- Node9 -->
<g id="node9" class="node"><title>Node9</title>
<g id="a_node9"><a xlink:href="../../d0/d32/classslogo_1_1_u_i_1_1_toroidal_helper.html#aa1432fa1f1a208f83285575425bf96f4" target="_top" xlink:title="slogo.UI.ToroidalHelper.run\lLineYShift">
<polygon fill="white" stroke="black" points="758.5,-195.099 758.5,-225.099 901.5,-225.099 901.5,-195.099 758.5,-195.099"/>
<text text-anchor="start" x="766.5" y="-213.099" font-family="Helvetica,sans-Serif" font-size="10.00">slogo.UI.ToroidalHelper.run</text>
<text text-anchor="middle" x="830" y="-202.099" font-family="Helvetica,sans-Serif" font-size="10.00">LineYShift</text>
</a>
</g>
</g>
<!-- Node6&#45;&gt;Node9 -->
<g id="edge9" class="edge"><title>Node6&#45;&gt;Node9</title>
<path fill="none" stroke="midnightblue" d="M463.659,-153.387C480.819,-176.496 517.034,-219.397 560,-236.099 632.195,-264.164 723.143,-245.22 778.635,-228.226"/>
<polygon fill="midnightblue" stroke="midnightblue" points="779.752,-231.543 788.235,-225.196 777.646,-224.868 779.752,-231.543"/>
</g>
<!-- Node10 -->
<g id="node10" class="node"><title>Node10</title>
<g id="a_node10"><a xlink:href="../../d0/d32/classslogo_1_1_u_i_1_1_toroidal_helper.html#a6ff252815c642ce9b37ff6c50f9cc466" target="_top" xlink:title="slogo.UI.ToroidalHelper.run\lXCalculations">
<polygon fill="white" stroke="black" points="566.5,-99.0995 566.5,-129.099 709.5,-129.099 709.5,-99.0995 566.5,-99.0995"/>
<text text-anchor="start" x="574.5" y="-117.099" font-family="Helvetica,sans-Serif" font-size="10.00">slogo.UI.ToroidalHelper.run</text>
<text text-anchor="middle" x="638" y="-106.099" font-family="Helvetica,sans-Serif" font-size="10.00">XCalculations</text>
</a>
</g>
</g>
<!-- Node6&#45;&gt;Node10 -->
<g id="edge11" class="edge"><title>Node6&#45;&gt;Node10</title>
<path fill="none" stroke="midnightblue" d="M523.613,-128.889C534.321,-127.492 545.438,-126.042 556.339,-124.62"/>
<polygon fill="midnightblue" stroke="midnightblue" points="556.809,-128.089 566.272,-123.325 555.903,-121.148 556.809,-128.089"/>
</g>
<!-- Node12 -->
<g id="node12" class="node"><title>Node12</title>
<g id="a_node12"><a xlink:href="../../d0/d32/classslogo_1_1_u_i_1_1_toroidal_helper.html#a6babdb66f06fca1bddc1823bb5f56f87" target="_top" xlink:title="slogo.UI.ToroidalHelper.run\lYShift">
<polygon fill="white" stroke="black" points="566.5,-148.099 566.5,-178.099 709.5,-178.099 709.5,-148.099 566.5,-148.099"/>
<text text-anchor="start" x="574.5" y="-166.099" font-family="Helvetica,sans-Serif" font-size="10.00">slogo.UI.ToroidalHelper.run</text>
<text text-anchor="middle" x="638" y="-155.099" font-family="Helvetica,sans-Serif" font-size="10.00">YShift</text>
</a>
</g>
</g>
<!-- Node6&#45;&gt;Node12 -->
<g id="edge14" class="edge"><title>Node6&#45;&gt;Node12</title>
<path fill="none" stroke="midnightblue" d="M523.613,-147.694C534.321,-149.149 545.438,-150.659 556.339,-152.14"/>
<polygon fill="midnightblue" stroke="midnightblue" points="555.892,-155.611 566.272,-153.49 556.834,-148.675 555.892,-155.611"/>
</g>
<!-- Node8&#45;&gt;Node4 -->
<g id="edge8" class="edge"><title>Node8&#45;&gt;Node4</title>
<path fill="none" stroke="midnightblue" d="M709.749,-65.0995C720.303,-65.0995 731.285,-65.0995 742.125,-65.0995"/>
<polygon fill="midnightblue" stroke="midnightblue" points="742.456,-68.5996 752.456,-65.0995 742.455,-61.5996 742.456,-68.5996"/>
</g>
<!-- Node9&#45;&gt;Node5 -->
<g id="edge10" class="edge"><title>Node9&#45;&gt;Node5</title>
<path fill="none" stroke="midnightblue" d="M891.64,-195.099C910.321,-190.478 931.051,-185.35 950.345,-180.577"/>
<polygon fill="midnightblue" stroke="midnightblue" points="951.418,-183.917 960.285,-178.118 949.737,-177.122 951.418,-183.917"/>
</g>
<!-- Node10&#45;&gt;Node4 -->
<g id="edge12" class="edge"><title>Node10&#45;&gt;Node4</title>
<path fill="none" stroke="midnightblue" d="M697.297,-99.0649C717.45,-93.8676 740.206,-87.9989 761.064,-82.6199"/>
<polygon fill="midnightblue" stroke="midnightblue" points="762.004,-85.9921 770.813,-80.1057 760.256,-79.2139 762.004,-85.9921"/>
</g>
<!-- Node11 -->
<g id="node11" class="node"><title>Node11</title>
<g id="a_node11"><a xlink:href="../../d0/d32/classslogo_1_1_u_i_1_1_toroidal_helper.html#a41c57a3394c07d6aaeae4fe2cf8fe5d6" target="_top" xlink:title="slogo.UI.ToroidalHelper.set\lLineCoords">
<polygon fill="white" stroke="black" points="950.5,-99.0995 950.5,-129.099 1093.5,-129.099 1093.5,-99.0995 950.5,-99.0995"/>
<text text-anchor="start" x="958.5" y="-117.099" font-family="Helvetica,sans-Serif" font-size="10.00">slogo.UI.ToroidalHelper.set</text>
<text text-anchor="middle" x="1022" y="-106.099" font-family="Helvetica,sans-Serif" font-size="10.00">LineCoords</text>
</a>
</g>
</g>
<!-- Node10&#45;&gt;Node11 -->
<g id="edge13" class="edge"><title>Node10&#45;&gt;Node11</title>
<path fill="none" stroke="midnightblue" d="M709.51,-114.099C774.717,-114.099 871.591,-114.099 939.96,-114.099"/>
<polygon fill="midnightblue" stroke="midnightblue" points="940.255,-117.6 950.255,-114.099 940.255,-110.6 940.255,-117.6"/>
</g>
<!-- Node12&#45;&gt;Node9 -->
<g id="edge15" class="edge"><title>Node12&#45;&gt;Node9</title>
<path fill="none" stroke="midnightblue" d="M699.64,-178.1C718.321,-182.721 739.051,-187.849 758.345,-192.622"/>
<polygon fill="midnightblue" stroke="midnightblue" points="757.737,-196.077 768.285,-195.08 759.418,-189.281 757.737,-196.077"/>
</g>
<!-- Node13 -->
<g id="node13" class="node"><title>Node13</title>
<g id="a_node13"><a xlink:href="../../d0/d32/classslogo_1_1_u_i_1_1_toroidal_helper.html#ab0c1d137b6ae06b1379ea8df424ca082" target="_top" xlink:title="slogo.UI.ToroidalHelper.run\lYCalculations">
<polygon fill="white" stroke="black" points="758.5,-146.099 758.5,-176.099 901.5,-176.099 901.5,-146.099 758.5,-146.099"/>
<text text-anchor="start" x="766.5" y="-164.099" font-family="Helvetica,sans-Serif" font-size="10.00">slogo.UI.ToroidalHelper.run</text>
<text text-anchor="middle" x="830" y="-153.099" font-family="Helvetica,sans-Serif" font-size="10.00">YCalculations</text>
</a>
</g>
</g>
<!-- Node12&#45;&gt;Node13 -->
<g id="edge16" class="edge"><title>Node12&#45;&gt;Node13</title>
<path fill="none" stroke="midnightblue" d="M709.749,-162.355C722.237,-162.223 735.324,-162.086 748.065,-161.951"/>
<polygon fill="midnightblue" stroke="midnightblue" points="748.229,-165.45 758.192,-161.845 748.156,-158.45 748.229,-165.45"/>
</g>
<!-- Node13&#45;&gt;Node5 -->
<g id="edge17" class="edge"><title>Node13&#45;&gt;Node5</title>
<path fill="none" stroke="midnightblue" d="M901.749,-161.844C912.303,-161.955 923.285,-162.071 934.125,-162.185"/>
<polygon fill="midnightblue" stroke="midnightblue" points="934.419,-165.688 944.456,-162.294 934.493,-158.689 934.419,-165.688"/>
</g>
<!-- Node13&#45;&gt;Node11 -->
<g id="edge18" class="edge"><title>Node13&#45;&gt;Node11</title>
<path fill="none" stroke="midnightblue" d="M891.64,-146.099C910.321,-141.478 931.051,-136.35 950.345,-131.577"/>
<polygon fill="midnightblue" stroke="midnightblue" points="951.418,-134.917 960.285,-129.118 949.737,-128.122 951.418,-134.917"/>
</g>
</g>
</svg>
