<?xml version="1.0" encoding="UTF-8" standalone="no"?>
<!DOCTYPE svg PUBLIC "-//W3C//DTD SVG 1.1//EN"
 "http://www.w3.org/Graphics/SVG/1.1/DTD/svg11.dtd">
<!-- Generated by graphviz version 2.36.0 (20140111.2315)
 -->
<!-- Title: slogo.UI.MethodRunner.setTurtleImage Pages: 1 -->
<svg width="708pt" height="411pt"
 viewBox="0.00 0.00 708.00 411.00" xmlns="http://www.w3.org/2000/svg" xmlns:xlink="http://www.w3.org/1999/xlink">
<g id="graph0" class="graph" transform="scale(1 1) rotate(0) translate(4 407)">
<title>slogo.UI.MethodRunner.setTurtleImage</title>
<polygon fill="white" stroke="none" points="-4,4 -4,-407 704,-407 704,4 -4,4"/>
<!-- Node1 -->
<g id="node1" class="node"><title>Node1</title>
<polygon fill="#bfbfbf" stroke="black" points="0,-187 0,-217 144,-217 144,-187 0,-187"/>
<text text-anchor="start" x="8" y="-205" font-family="Helvetica,sans-Serif" font-size="10.00">slogo.UI.MethodRunner.set</text>
<text text-anchor="middle" x="72" y="-194" font-family="Helvetica,sans-Serif" font-size="10.00">TurtleImage</text>
</g>
<!-- Node2 -->
<g id="node2" class="node"><title>Node2</title>
<g id="a_node2"><a xlink:href="../../d5/deb/classslogo_1_1_u_i_1_1_turtle.html#a4d7a9e756fd71da69ff4377833c0ca23" target="_top" xlink:title="slogo.UI.Turtle.getImageName">
<polygon fill="white" stroke="black" points="190.5,-383.5 190.5,-402.5 351.5,-402.5 351.5,-383.5 190.5,-383.5"/>
<text text-anchor="middle" x="271" y="-390.5" font-family="Helvetica,sans-Serif" font-size="10.00">slogo.UI.Turtle.getImageName</text>
</a>
</g>
</g>
<!-- Node1&#45;&gt;Node2 -->
<g id="edge1" class="edge"><title>Node1&#45;&gt;Node2</title>
<path fill="none" stroke="midnightblue" d="M77.9089,-217.165C89.6671,-250.946 122.799,-332.58 180,-373 183.456,-375.442 187.158,-377.593 191.018,-379.487"/>
<polygon fill="midnightblue" stroke="midnightblue" points="189.702,-382.731 200.272,-383.456 192.461,-376.297 189.702,-382.731"/>
</g>
<!-- Node3 -->
<g id="node3" class="node"><title>Node3</title>
<g id="a_node3"><a xlink:href="../../dd/da7/classslogo_1_1_u_i_1_1_turtle_image_selector.html#a2c95ee89ba5c1f9d63420f66d410a14f" target="_top" xlink:title="slogo.UI.TurtleImageSelector.get\lItems">
<polygon fill="white" stroke="black" points="185.5,-334 185.5,-364 356.5,-364 356.5,-334 185.5,-334"/>
<text text-anchor="start" x="193.5" y="-352" font-family="Helvetica,sans-Serif" font-size="10.00">slogo.UI.TurtleImageSelector.get</text>
<text text-anchor="middle" x="271" y="-341" font-family="Helvetica,sans-Serif" font-size="10.00">Items</text>
</a>
</g>
</g>
<!-- Node1&#45;&gt;Node3 -->
<g id="edge2" class="edge"><title>Node1&#45;&gt;Node3</title>
<path fill="none" stroke="midnightblue" d="M82.1446,-217.287C98.4677,-243.237 135.15,-295.827 180,-324 183.379,-326.123 186.941,-328.069 190.618,-329.852"/>
<polygon fill="midnightblue" stroke="midnightblue" points="189.396,-333.138 199.959,-333.957 192.212,-326.729 189.396,-333.138"/>
</g>
<!-- Node4 -->
<g id="node4" class="node"><title>Node4</title>
<g id="a_node4"><a xlink:href="../../db/d19/classslogo_1_1_u_i_1_1_module_creation_helper.html#a7d4ceedd3ea9d1c8681733259857e45e" target="_top" xlink:title="slogo.UI.ModuleCreationHelper.get\lTurtleSelector">
<polygon fill="white" stroke="black" points="180,-285 180,-315 362,-315 362,-285 180,-285"/>
<text text-anchor="start" x="188" y="-303" font-family="Helvetica,sans-Serif" font-size="10.00">slogo.UI.ModuleCreationHelper.get</text>
<text text-anchor="middle" x="271" y="-292" font-family="Helvetica,sans-Serif" font-size="10.00">TurtleSelector</text>
</a>
</g>
</g>
<!-- Node1&#45;&gt;Node4 -->
<g id="edge3" class="edge"><title>Node1&#45;&gt;Node4</title>
<path fill="none" stroke="midnightblue" d="M91.1922,-217.189C111.626,-233.562 146.348,-259.369 180,-275 185.056,-277.348 190.376,-279.517 195.8,-281.511"/>
<polygon fill="midnightblue" stroke="midnightblue" points="195.043,-284.953 205.638,-284.915 197.332,-278.337 195.043,-284.953"/>
</g>
<!-- Node5 -->
<g id="node5" class="node"><title>Node5</title>
<g id="a_node5"><a xlink:href="../../dd/da7/classslogo_1_1_u_i_1_1_turtle_image_selector.html#a22fb095c556bc698508be92158ceaf17" target="_top" xlink:title="slogo.UI.TurtleImageSelector.get\lValue">
<polygon fill="white" stroke="black" points="185.5,-236 185.5,-266 356.5,-266 356.5,-236 185.5,-236"/>
<text text-anchor="start" x="193.5" y="-254" font-family="Helvetica,sans-Serif" font-size="10.00">slogo.UI.TurtleImageSelector.get</text>
<text text-anchor="middle" x="271" y="-243" font-family="Helvetica,sans-Serif" font-size="10.00">Value</text>
</a>
</g>
</g>
<!-- Node1&#45;&gt;Node5 -->
<g id="edge4" class="edge"><title>Node1&#45;&gt;Node5</title>
<path fill="none" stroke="midnightblue" d="M133.445,-217.035C154.435,-222.255 178.149,-228.154 199.854,-233.553"/>
<polygon fill="midnightblue" stroke="midnightblue" points="199.12,-236.976 209.669,-235.994 200.81,-230.183 199.12,-236.976"/>
</g>
<!-- Node6 -->
<g id="node6" class="node"><title>Node6</title>
<g id="a_node6"><a xlink:href="../../d2/d25/classslogo_1_1backend_1_1impl_1_1util_1_1_qualities.html#a9c0511ff3f9f0c06f31d6e208e278233" target="_top" xlink:title="slogo.backend.impl.util.\lQualities.index">
<polygon fill="white" stroke="black" points="206.5,-187 206.5,-217 335.5,-217 335.5,-187 206.5,-187"/>
<text text-anchor="start" x="214.5" y="-205" font-family="Helvetica,sans-Serif" font-size="10.00">slogo.backend.impl.util.</text>
<text text-anchor="middle" x="271" y="-194" font-family="Helvetica,sans-Serif" font-size="10.00">Qualities.index</text>
</a>
</g>
</g>
<!-- Node1&#45;&gt;Node6 -->
<g id="edge5" class="edge"><title>Node1&#45;&gt;Node6</title>
<path fill="none" stroke="midnightblue" d="M144.122,-202C161.006,-202 179.057,-202 196.064,-202"/>
<polygon fill="midnightblue" stroke="midnightblue" points="196.499,-205.5 206.499,-202 196.499,-198.5 196.499,-205.5"/>
</g>
<!-- Node7 -->
<g id="node7" class="node"><title>Node7</title>
<g id="a_node7"><a xlink:href="../../d5/deb/classslogo_1_1_u_i_1_1_turtle.html#acea66642c893474f33f416ebf67f769e" target="_top" xlink:title="slogo.UI.Turtle.setImage">
<polygon fill="white" stroke="black" points="205.5,-148.5 205.5,-167.5 336.5,-167.5 336.5,-148.5 205.5,-148.5"/>
<text text-anchor="middle" x="271" y="-155.5" font-family="Helvetica,sans-Serif" font-size="10.00">slogo.UI.Turtle.setImage</text>
</a>
</g>
</g>
<!-- Node1&#45;&gt;Node7 -->
<g id="edge6" class="edge"><title>Node1&#45;&gt;Node7</title>
<path fill="none" stroke="midnightblue" d="M140.062,-186.937C153.298,-183.97 167.087,-180.883 180,-178 191.96,-175.33 204.817,-172.468 216.963,-169.768"/>
<polygon fill="midnightblue" stroke="midnightblue" points="217.961,-173.131 226.964,-167.545 216.443,-166.298 217.961,-173.131"/>
</g>
<!-- Node11 -->
<g id="node11" class="node"><title>Node11</title>
<g id="a_node11"><a xlink:href="../../d2/d25/classslogo_1_1backend_1_1impl_1_1util_1_1_qualities.html#a6815c20983c4396631598d0e5728c3a3" target="_top" xlink:title="slogo.backend.impl.util.\lQualities.setIndex">
<polygon fill="white" stroke="black" points="206.5,-99 206.5,-129 335.5,-129 335.5,-99 206.5,-99"/>
<text text-anchor="start" x="214.5" y="-117" font-family="Helvetica,sans-Serif" font-size="10.00">slogo.backend.impl.util.</text>
<text text-anchor="middle" x="271" y="-106" font-family="Helvetica,sans-Serif" font-size="10.00">Qualities.setIndex</text>
</a>
</g>
</g>
<!-- Node1&#45;&gt;Node11 -->
<g id="edge10" class="edge"><title>Node1&#45;&gt;Node11</title>
<path fill="none" stroke="midnightblue" d="M94.6526,-186.957C115.661,-172.926 148.847,-152.228 180,-139 185.681,-136.588 191.663,-134.34 197.73,-132.261"/>
<polygon fill="midnightblue" stroke="midnightblue" points="198.884,-135.566 207.303,-129.135 196.71,-128.912 198.884,-135.566"/>
</g>
<!-- Node12 -->
<g id="node12" class="node"><title>Node12</title>
<g id="a_node12"><a xlink:href="../../dd/da7/classslogo_1_1_u_i_1_1_turtle_image_selector.html#ad570a7a304a1f1472b6db9817ab0da54" target="_top" xlink:title="slogo.UI.TurtleImageSelector.set\lValue">
<polygon fill="white" stroke="black" points="186,-50 186,-80 356,-80 356,-50 186,-50"/>
<text text-anchor="start" x="194" y="-68" font-family="Helvetica,sans-Serif" font-size="10.00">slogo.UI.TurtleImageSelector.set</text>
<text text-anchor="middle" x="271" y="-57" font-family="Helvetica,sans-Serif" font-size="10.00">Value</text>
</a>
</g>
</g>
<!-- Node1&#45;&gt;Node12 -->
<g id="edge11" class="edge"><title>Node1&#45;&gt;Node12</title>
<path fill="none" stroke="midnightblue" d="M83.2768,-186.832C100.446,-162.668 137.319,-115.561 180,-90 183.6,-87.8441 187.391,-85.8687 191.299,-84.0592"/>
<polygon fill="midnightblue" stroke="midnightblue" points="192.744,-87.2483 200.593,-80.1315 190.019,-80.8005 192.744,-87.2483"/>
</g>
<!-- Node13 -->
<g id="node13" class="node"><title>Node13</title>
<g id="a_node13"><a xlink:href="../../da/dce/interfaceslogo_1_1backend_1_1util_1_1_i_turtle_status.html#ab3f3312b9c4289ea7750dbcaa91819eb" target="_top" xlink:title="slogo.backend.util.ITurtle\lStatus.turtleQualities">
<polygon fill="white" stroke="black" points="204,-1 204,-31 338,-31 338,-1 204,-1"/>
<text text-anchor="start" x="212" y="-19" font-family="Helvetica,sans-Serif" font-size="10.00">slogo.backend.util.ITurtle</text>
<text text-anchor="middle" x="271" y="-8" font-family="Helvetica,sans-Serif" font-size="10.00">Status.turtleQualities</text>
</a>
</g>
</g>
<!-- Node1&#45;&gt;Node13 -->
<g id="edge12" class="edge"><title>Node1&#45;&gt;Node13</title>
<path fill="none" stroke="midnightblue" d="M78.7053,-186.961C91.6189,-154.992 126.211,-80.0199 180,-41 184.43,-37.7862 189.257,-34.9853 194.298,-32.5443"/>
<polygon fill="midnightblue" stroke="midnightblue" points="195.781,-35.716 203.564,-28.5276 192.997,-29.2934 195.781,-35.716"/>
</g>
<!-- Node8 -->
<g id="node8" class="node"><title>Node8</title>
<g id="a_node8"><a xlink:href="../../d5/deb/classslogo_1_1_u_i_1_1_turtle.html#a678c8daca68b92f79f73967a8be0f269" target="_top" xlink:title="slogo.UI.Turtle.moveTurtle">
<polygon fill="white" stroke="black" points="398.5,-148.5 398.5,-167.5 537.5,-167.5 537.5,-148.5 398.5,-148.5"/>
<text text-anchor="middle" x="468" y="-155.5" font-family="Helvetica,sans-Serif" font-size="10.00">slogo.UI.Turtle.moveTurtle</text>
</a>
</g>
</g>
<!-- Node7&#45;&gt;Node8 -->
<g id="edge7" class="edge"><title>Node7&#45;&gt;Node8</title>
<path fill="none" stroke="midnightblue" d="M336.661,-158C353.25,-158 371.275,-158 388.48,-158"/>
<polygon fill="midnightblue" stroke="midnightblue" points="388.498,-161.5 398.498,-158 388.498,-154.5 388.498,-161.5"/>
</g>
<!-- Node9 -->
<g id="node9" class="node"><title>Node9</title>
<g id="a_node9"><a xlink:href="../../d5/deb/classslogo_1_1_u_i_1_1_turtle.html#a85f06fd2596915a4b658293482a7c041" target="_top" xlink:title="slogo.UI.Turtle.setXPos">
<polygon fill="white" stroke="black" points="574.5,-167.5 574.5,-186.5 699.5,-186.5 699.5,-167.5 574.5,-167.5"/>
<text text-anchor="middle" x="637" y="-174.5" font-family="Helvetica,sans-Serif" font-size="10.00">slogo.UI.Turtle.setXPos</text>
</a>
</g>
</g>
<!-- Node8&#45;&gt;Node9 -->
<g id="edge8" class="edge"><title>Node8&#45;&gt;Node9</title>
<path fill="none" stroke="midnightblue" d="M537.889,-165.838C546.607,-166.83 555.545,-167.846 564.305,-168.843"/>
<polygon fill="midnightblue" stroke="midnightblue" points="564.153,-172.348 574.484,-170.001 564.944,-165.393 564.153,-172.348"/>
</g>
<!-- Node10 -->
<g id="node10" class="node"><title>Node10</title>
<g id="a_node10"><a xlink:href="../../d5/deb/classslogo_1_1_u_i_1_1_turtle.html#a2e077221329000d9c17edcdaa0a83489" target="_top" xlink:title="slogo.UI.Turtle.setYPos">
<polygon fill="white" stroke="black" points="575,-129.5 575,-148.5 699,-148.5 699,-129.5 575,-129.5"/>
<text text-anchor="middle" x="637" y="-136.5" font-family="Helvetica,sans-Serif" font-size="10.00">slogo.UI.Turtle.setYPos</text>
</a>
</g>
</g>
<!-- Node8&#45;&gt;Node10 -->
<g id="edge9" class="edge"><title>Node8&#45;&gt;Node10</title>
<path fill="none" stroke="midnightblue" d="M537.889,-150.162C546.768,-149.152 555.873,-148.116 564.788,-147.102"/>
<polygon fill="midnightblue" stroke="midnightblue" points="565.209,-150.577 574.749,-145.969 564.417,-143.622 565.209,-150.577"/>
</g>
</g>
</svg>
