<?xml version="1.0" encoding="UTF-8" standalone="no"?>
<!DOCTYPE svg PUBLIC "-//W3C//DTD SVG 1.1//EN"
 "http://www.w3.org/Graphics/SVG/1.1/DTD/svg11.dtd">
<!-- Generated by graphviz version 2.36.0 (20140111.2315)
 -->
<!-- Title: slogo.UI.MethodRunner.moveTurtle Pages: 1 -->
<svg width="2748pt" height="427pt"
 viewBox="0.00 0.00 2748.00 427.00" xmlns="http://www.w3.org/2000/svg" xmlns:xlink="http://www.w3.org/1999/xlink">
<g id="graph0" class="graph" transform="scale(1 1) rotate(0) translate(4 423)">
<title>slogo.UI.MethodRunner.moveTurtle</title>
<polygon fill="white" stroke="none" points="-4,4 -4,-423 2744,-423 2744,4 -4,4"/>
<!-- Node1 -->
<g id="node1" class="node"><title>Node1</title>
<polygon fill="#bfbfbf" stroke="black" points="0,-49 0,-79 156,-79 156,-49 0,-49"/>
<text text-anchor="start" x="8" y="-67" font-family="Helvetica,sans-Serif" font-size="10.00">slogo.UI.MethodRunner.move</text>
<text text-anchor="middle" x="78" y="-56" font-family="Helvetica,sans-Serif" font-size="10.00">Turtle</text>
</g>
<!-- Node2 -->
<g id="node2" class="node"><title>Node2</title>
<g id="a_node2"><a xlink:href="../../d9/d7e/classslogo_1_1_u_i_1_1_method_runner.html#a5fe4a6310ba1b0851d7d30a440511324" target="_top" xlink:title="slogo.UI.MethodRunner.change\lTurtle">
<polygon fill="white" stroke="black" points="192,-49 192,-79 356,-79 356,-49 192,-49"/>
<text text-anchor="start" x="200" y="-67" font-family="Helvetica,sans-Serif" font-size="10.00">slogo.UI.MethodRunner.change</text>
<text text-anchor="middle" x="274" y="-56" font-family="Helvetica,sans-Serif" font-size="10.00">Turtle</text>
</a>
</g>
</g>
<!-- Node1&#45;&gt;Node2 -->
<g id="edge1" class="edge"><title>Node1&#45;&gt;Node2</title>
<path fill="none" stroke="midnightblue" d="M166.486,-64C174.947,-64 183.505,-64 191.9,-64"/>
<polygon fill="midnightblue" stroke="midnightblue" points="166.231,-60.5001 156.231,-64 166.231,-67.5001 166.231,-60.5001"/>
</g>
<!-- Node3 -->
<g id="node3" class="node"><title>Node3</title>
<g id="a_node3"><a xlink:href="../../df/d2d/classslogo_1_1_view.html#accc79c56511a72090ff8a4d414b8d1f5" target="_top" xlink:title="slogo.View.executeTurtle\lCommands">
<polygon fill="white" stroke="black" points="392.5,-49 392.5,-79 525.5,-79 525.5,-49 392.5,-49"/>
<text text-anchor="start" x="400.5" y="-67" font-family="Helvetica,sans-Serif" font-size="10.00">slogo.View.executeTurtle</text>
<text text-anchor="middle" x="459" y="-56" font-family="Helvetica,sans-Serif" font-size="10.00">Commands</text>
</a>
</g>
</g>
<!-- Node2&#45;&gt;Node3 -->
<g id="edge2" class="edge"><title>Node2&#45;&gt;Node3</title>
<path fill="none" stroke="midnightblue" d="M366.35,-64C375.128,-64 383.907,-64 392.365,-64"/>
<polygon fill="midnightblue" stroke="midnightblue" points="366.066,-60.5001 356.066,-64 366.066,-67.5001 366.066,-60.5001"/>
</g>
<!-- Node4 -->
<g id="node4" class="node"><title>Node4</title>
<g id="a_node4"><a xlink:href="../../df/d2d/classslogo_1_1_view.html#aa90e5d95d422b58b7f4b7f8a049defe1" target="_top" xlink:title="slogo.View.executeCommand">
<polygon fill="white" stroke="black" points="562,-54.5 562,-73.5 720,-73.5 720,-54.5 562,-54.5"/>
<text text-anchor="middle" x="641" y="-61.5" font-family="Helvetica,sans-Serif" font-size="10.00">slogo.View.executeCommand</text>
</a>
</g>
</g>
<!-- Node3&#45;&gt;Node4 -->
<g id="edge3" class="edge"><title>Node3&#45;&gt;Node4</title>
<path fill="none" stroke="midnightblue" d="M535.784,-64C544.42,-64 553.235,-64 561.901,-64"/>
<polygon fill="midnightblue" stroke="midnightblue" points="535.748,-60.5001 525.748,-64 535.748,-67.5001 535.748,-60.5001"/>
</g>
<!-- Node5 -->
<g id="node5" class="node"><title>Node5</title>
<g id="a_node5"><a xlink:href="../../df/d2d/classslogo_1_1_view.html#aee563f6a0b15ac6668e4dcbdad40c73c" target="_top" xlink:title="slogo.View.sendCommandTo\lBackend">
<polygon fill="white" stroke="black" points="762,-213 762,-243 914,-243 914,-213 762,-213"/>
<text text-anchor="start" x="770" y="-231" font-family="Helvetica,sans-Serif" font-size="10.00">slogo.View.sendCommandTo</text>
<text text-anchor="middle" x="838" y="-220" font-family="Helvetica,sans-Serif" font-size="10.00">Backend</text>
</a>
</g>
</g>
<!-- Node4&#45;&gt;Node5 -->
<g id="edge4" class="edge"><title>Node4&#45;&gt;Node5</title>
<path fill="none" stroke="midnightblue" d="M661.054,-80.0252C698.765,-111.741 782.433,-182.108 819.146,-212.984"/>
<polygon fill="midnightblue" stroke="midnightblue" points="663.233,-77.2841 653.327,-73.5262 658.727,-82.6414 663.233,-77.2841"/>
</g>
<!-- Node25 -->
<g id="node25" class="node"><title>Node25</title>
<g id="a_node25"><a xlink:href="../../df/d2d/classslogo_1_1_view.html#a4c3084a198acf85804800d70eff9ee51" target="_top" xlink:title="slogo.View.stepIntoCommand">
<polygon fill="white" stroke="black" points="759,-54.5 759,-73.5 917,-73.5 917,-54.5 759,-54.5"/>
<text text-anchor="middle" x="838" y="-61.5" font-family="Helvetica,sans-Serif" font-size="10.00">slogo.View.stepIntoCommand</text>
</a>
</g>
</g>
<!-- Node4&#45;&gt;Node25 -->
<g id="edge32" class="edge"><title>Node4&#45;&gt;Node25</title>
<path fill="none" stroke="midnightblue" d="M730.402,-64C739.87,-64 749.454,-64 758.792,-64"/>
<polygon fill="midnightblue" stroke="midnightblue" points="730.19,-60.5001 720.19,-64 730.19,-67.5001 730.19,-60.5001"/>
</g>
<!-- Node29 -->
<g id="node29" class="node"><title>Node29</title>
<g id="a_node29"><a xlink:href="../../df/d2d/classslogo_1_1_view.html#ac8b7f574c679e744a430f1649dc55e68" target="_top" xlink:title="slogo.View.stepOverCommand">
<polygon fill="white" stroke="black" points="756.5,-11.5 756.5,-30.5 919.5,-30.5 919.5,-11.5 756.5,-11.5"/>
<text text-anchor="middle" x="838" y="-18.5" font-family="Helvetica,sans-Serif" font-size="10.00">slogo.View.stepOverCommand</text>
</a>
</g>
</g>
<!-- Node4&#45;&gt;Node29 -->
<g id="edge37" class="edge"><title>Node4&#45;&gt;Node29</title>
<path fill="none" stroke="midnightblue" d="M695.056,-52.3005C726.068,-45.462 764.711,-36.9406 793.844,-30.5164"/>
<polygon fill="midnightblue" stroke="midnightblue" points="694.288,-48.8855 685.277,-54.4569 695.796,-55.7213 694.288,-48.8855"/>
</g>
<!-- Node6 -->
<g id="node6" class="node"><title>Node6</title>
<g id="a_node6"><a xlink:href="../../db/d19/classslogo_1_1_u_i_1_1_module_creation_helper.html#a69e17abcc7cf9a6ed7261d8fb1d631fa" target="_top" xlink:title="slogo.UI.ModuleCreationHelper.activate\lIncreaseDecreaseButtons">
<polygon fill="white" stroke="black" points="956.5,-389 956.5,-419 1161.5,-419 1161.5,-389 956.5,-389"/>
<text text-anchor="start" x="964.5" y="-407" font-family="Helvetica,sans-Serif" font-size="10.00">slogo.UI.ModuleCreationHelper.activate</text>
<text text-anchor="middle" x="1059" y="-396" font-family="Helvetica,sans-Serif" font-size="10.00">IncreaseDecreaseButtons</text>
</a>
</g>
</g>
<!-- Node5&#45;&gt;Node6 -->
<g id="edge5" class="edge"><title>Node5&#45;&gt;Node6</title>
<path fill="none" stroke="midnightblue" d="M852.043,-252.219C870.779,-284.724 908.363,-342.06 956,-374 965.122,-380.116 975.514,-385.01 986.092,-388.919"/>
<polygon fill="midnightblue" stroke="midnightblue" points="855.013,-250.361 847.054,-243.368 848.915,-253.798 855.013,-250.361"/>
</g>
<!-- Node13 -->
<g id="node13" class="node"><title>Node13</title>
<g id="a_node13"><a xlink:href="../../db/d19/classslogo_1_1_u_i_1_1_module_creation_helper.html#aa70b0ad9e90e62509149bfd2ef2ba209" target="_top" xlink:title="slogo.UI.ModuleCreationHelper.activate\lKeyEvents">
<polygon fill="white" stroke="black" points="1682.5,-136 1682.5,-166 1887.5,-166 1887.5,-136 1682.5,-136"/>
<text text-anchor="start" x="1690.5" y="-154" font-family="Helvetica,sans-Serif" font-size="10.00">slogo.UI.ModuleCreationHelper.activate</text>
<text text-anchor="middle" x="1785" y="-143" font-family="Helvetica,sans-Serif" font-size="10.00">KeyEvents</text>
</a>
</g>
</g>
<!-- Node5&#45;&gt;Node13 -->
<g id="edge13" class="edge"><title>Node5&#45;&gt;Node13</title>
<path fill="none" stroke="midnightblue" d="M868.179,-207.164C890.902,-192.251 923.88,-173.388 956,-165 1090.15,-129.97 1492.16,-139.777 1682.26,-146.744"/>
<polygon fill="midnightblue" stroke="midnightblue" points="866.049,-204.378 859.699,-212.86 869.952,-210.189 866.049,-204.378"/>
</g>
<!-- Node14 -->
<g id="node14" class="node"><title>Node14</title>
<g id="a_node14"><a xlink:href="../../db/d19/classslogo_1_1_u_i_1_1_module_creation_helper.html#a2e841243ec3ca474e8822102343acc88" target="_top" xlink:title="slogo.UI.ModuleCreationHelper.activate\lNewTurtleButton">
<polygon fill="white" stroke="black" points="1198.5,-344 1198.5,-374 1403.5,-374 1403.5,-344 1198.5,-344"/>
<text text-anchor="start" x="1206.5" y="-362" font-family="Helvetica,sans-Serif" font-size="10.00">slogo.UI.ModuleCreationHelper.activate</text>
<text text-anchor="middle" x="1301" y="-351" font-family="Helvetica,sans-Serif" font-size="10.00">NewTurtleButton</text>
</a>
</g>
</g>
<!-- Node5&#45;&gt;Node14 -->
<g id="edge15" class="edge"><title>Node5&#45;&gt;Node14</title>
<path fill="none" stroke="midnightblue" d="M855.021,-251.155C875.099,-278.009 912.24,-321.013 956,-340 1032.41,-373.152 1127.47,-375.86 1198.29,-371.435"/>
<polygon fill="midnightblue" stroke="midnightblue" points="857.834,-249.073 849.115,-243.055 852.178,-253.197 857.834,-249.073"/>
</g>
<!-- Node16 -->
<g id="node16" class="node"><title>Node16</title>
<g id="a_node16"><a xlink:href="../../db/d19/classslogo_1_1_u_i_1_1_module_creation_helper.html#a9b1f07ab673191067907a059b1b0c524" target="_top" xlink:title="slogo.UI.ModuleCreationHelper.activate\lPlayButton">
<polygon fill="white" stroke="black" points="956.5,-301 956.5,-331 1161.5,-331 1161.5,-301 956.5,-301"/>
<text text-anchor="start" x="964.5" y="-319" font-family="Helvetica,sans-Serif" font-size="10.00">slogo.UI.ModuleCreationHelper.activate</text>
<text text-anchor="middle" x="1059" y="-308" font-family="Helvetica,sans-Serif" font-size="10.00">PlayButton</text>
</a>
</g>
</g>
<!-- Node5&#45;&gt;Node16 -->
<g id="edge18" class="edge"><title>Node5&#45;&gt;Node16</title>
<path fill="none" stroke="midnightblue" d="M871.42,-248.354C894.332,-262.006 926.156,-279.522 956,-291 965.7,-294.73 976.137,-298.039 986.502,-300.929"/>
<polygon fill="midnightblue" stroke="midnightblue" points="873.162,-245.317 862.792,-243.145 869.544,-251.31 873.162,-245.317"/>
</g>
<!-- Node19 -->
<g id="node19" class="node"><title>Node19</title>
<g id="a_node19"><a xlink:href="../../db/d19/classslogo_1_1_u_i_1_1_module_creation_helper.html#a3a38d485562cb17591ec3fd07cffc18a" target="_top" xlink:title="slogo.UI.ModuleCreationHelper.activate\lTurtleCanvas">
<polygon fill="white" stroke="black" points="1440.5,-87 1440.5,-117 1645.5,-117 1645.5,-87 1440.5,-87"/>
<text text-anchor="start" x="1448.5" y="-105" font-family="Helvetica,sans-Serif" font-size="10.00">slogo.UI.ModuleCreationHelper.activate</text>
<text text-anchor="middle" x="1543" y="-94" font-family="Helvetica,sans-Serif" font-size="10.00">TurtleCanvas</text>
</a>
</g>
</g>
<!-- Node5&#45;&gt;Node19 -->
<g id="edge22" class="edge"><title>Node5&#45;&gt;Node19</title>
<path fill="none" stroke="midnightblue" d="M858.366,-205.232C879.633,-182.064 916.105,-147.434 956,-132 1041.51,-98.92 1296.48,-97.5272 1440.33,-99.6157"/>
<polygon fill="midnightblue" stroke="midnightblue" points="855.563,-203.115 851.497,-212.898 860.777,-207.786 855.563,-203.115"/>
</g>
<!-- Node21 -->
<g id="node21" class="node"><title>Node21</title>
<g id="a_node21"><a xlink:href="../../d1/d5f/classslogo_1_1_u_i_1_1_path_color_selector.html#ad3d9c82a0904c97edcec7cf67b85bd7b" target="_top" xlink:title="slogo.UI.PathColorSelector.create">
<polygon fill="white" stroke="black" points="971,-262.5 971,-281.5 1147,-281.5 1147,-262.5 971,-262.5"/>
<text text-anchor="middle" x="1059" y="-269.5" font-family="Helvetica,sans-Serif" font-size="10.00">slogo.UI.PathColorSelector.create</text>
</a>
</g>
</g>
<!-- Node5&#45;&gt;Node21 -->
<g id="edge25" class="edge"><title>Node5&#45;&gt;Node21</title>
<path fill="none" stroke="midnightblue" d="M921.739,-245.065C933.243,-247.411 944.914,-249.776 956,-252 973.251,-255.46 992.157,-259.186 1008.95,-262.473"/>
<polygon fill="midnightblue" stroke="midnightblue" points="922.189,-241.585 911.69,-243.013 920.788,-248.443 922.189,-241.585"/>
</g>
<!-- Node23 -->
<g id="node23" class="node"><title>Node23</title>
<g id="a_node23"><a xlink:href="../../d4/d8d/classslogo_1_1_u_i_1_1_background_color_selector.html#ad75ba4ce104e071811d0fe039a4e839f" target="_top" xlink:title="slogo.UI.BackgroundColor\lSelector.create">
<polygon fill="white" stroke="black" points="989,-213 989,-243 1129,-243 1129,-213 989,-213"/>
<text text-anchor="start" x="997" y="-231" font-family="Helvetica,sans-Serif" font-size="10.00">slogo.UI.BackgroundColor</text>
<text text-anchor="middle" x="1059" y="-220" font-family="Helvetica,sans-Serif" font-size="10.00">Selector.create</text>
</a>
</g>
</g>
<!-- Node5&#45;&gt;Node23 -->
<g id="edge28" class="edge"><title>Node5&#45;&gt;Node23</title>
<path fill="none" stroke="midnightblue" d="M924.142,-228C945.597,-228 968.367,-228 988.925,-228"/>
<polygon fill="midnightblue" stroke="midnightblue" points="924.061,-224.5 914.061,-228 924.061,-231.5 924.061,-224.5"/>
</g>
<!-- Node24 -->
<g id="node24" class="node"><title>Node24</title>
<g id="a_node24"><a xlink:href="../../dd/da7/classslogo_1_1_u_i_1_1_turtle_image_selector.html#a3f268d9196ffebcbb5dc322d2897a9fe" target="_top" xlink:title="slogo.UI.TurtleImageSelector.create">
<polygon fill="white" stroke="black" points="966,-174.5 966,-193.5 1152,-193.5 1152,-174.5 966,-174.5"/>
<text text-anchor="middle" x="1059" y="-181.5" font-family="Helvetica,sans-Serif" font-size="10.00">slogo.UI.TurtleImageSelector.create</text>
</a>
</g>
</g>
<!-- Node5&#45;&gt;Node24 -->
<g id="edge30" class="edge"><title>Node5&#45;&gt;Node24</title>
<path fill="none" stroke="midnightblue" d="M918.012,-210.821C930.704,-208.147 943.705,-205.458 956,-203 971.985,-199.804 989.416,-196.493 1005.27,-193.548"/>
<polygon fill="midnightblue" stroke="midnightblue" points="916.977,-207.463 907.919,-212.958 918.427,-214.311 916.977,-207.463"/>
</g>
<!-- Node7 -->
<g id="node7" class="node"><title>Node7</title>
<g id="a_node7"><a xlink:href="../../db/d19/classslogo_1_1_u_i_1_1_module_creation_helper.html#adce7362386f9a7b3006e7db08a2d578d" target="_top" xlink:title="slogo.UI.ModuleCreationHelper.create\lIncreaseDecreaseButtons">
<polygon fill="white" stroke="black" points="1444.5,-380 1444.5,-410 1641.5,-410 1641.5,-380 1444.5,-380"/>
<text text-anchor="start" x="1452.5" y="-398" font-family="Helvetica,sans-Serif" font-size="10.00">slogo.UI.ModuleCreationHelper.create</text>
<text text-anchor="middle" x="1543" y="-387" font-family="Helvetica,sans-Serif" font-size="10.00">IncreaseDecreaseButtons</text>
</a>
</g>
</g>
<!-- Node6&#45;&gt;Node7 -->
<g id="edge6" class="edge"><title>Node6&#45;&gt;Node7</title>
<path fill="none" stroke="midnightblue" d="M1171.79,-401.913C1254.23,-400.373 1365.29,-398.299 1444.21,-396.826"/>
<polygon fill="midnightblue" stroke="midnightblue" points="1171.56,-398.416 1161.63,-402.102 1171.69,-405.415 1171.56,-398.416"/>
</g>
<!-- Node8 -->
<g id="node8" class="node"><title>Node8</title>
<g id="a_node8"><a xlink:href="../../db/d19/classslogo_1_1_u_i_1_1_module_creation_helper.html#a7c650957b2389d6e6d36e8be8a33cd2b" target="_top" xlink:title="slogo.UI.ModuleCreationHelper.create\lSelectorVBoxModules">
<polygon fill="white" stroke="black" points="1686.5,-253 1686.5,-283 1883.5,-283 1883.5,-253 1686.5,-253"/>
<text text-anchor="start" x="1694.5" y="-271" font-family="Helvetica,sans-Serif" font-size="10.00">slogo.UI.ModuleCreationHelper.create</text>
<text text-anchor="middle" x="1785" y="-260" font-family="Helvetica,sans-Serif" font-size="10.00">SelectorVBoxModules</text>
</a>
</g>
</g>
<!-- Node7&#45;&gt;Node8 -->
<g id="edge7" class="edge"><title>Node7&#45;&gt;Node8</title>
<path fill="none" stroke="midnightblue" d="M1627,-376.732C1633.54,-374.424 1639.95,-371.854 1646,-369 1694.6,-346.077 1743.46,-305.079 1767.92,-283.025"/>
<polygon fill="midnightblue" stroke="midnightblue" points="1625.75,-373.461 1617.36,-379.93 1627.95,-380.105 1625.75,-373.461"/>
</g>
<!-- Node9 -->
<g id="node9" class="node"><title>Node9</title>
<g id="a_node9"><a xlink:href="../../db/d19/classslogo_1_1_u_i_1_1_module_creation_helper.html#afb9dbbbad7d872234a5b296fe129a34e" target="_top" xlink:title="slogo.UI.ModuleCreationHelper.create\lMainPageModules">
<polygon fill="white" stroke="black" points="1924.5,-136 1924.5,-166 2121.5,-166 2121.5,-136 1924.5,-136"/>
<text text-anchor="start" x="1932.5" y="-154" font-family="Helvetica,sans-Serif" font-size="10.00">slogo.UI.ModuleCreationHelper.create</text>
<text text-anchor="middle" x="2023" y="-143" font-family="Helvetica,sans-Serif" font-size="10.00">MainPageModules</text>
</a>
</g>
</g>
<!-- Node8&#45;&gt;Node9 -->
<g id="edge8" class="edge"><title>Node8&#45;&gt;Node9</title>
<path fill="none" stroke="midnightblue" d="M1825.58,-248.38C1872.29,-225.222 1948.96,-187.212 1991.37,-166.184"/>
<polygon fill="midnightblue" stroke="midnightblue" points="1823.77,-245.366 1816.37,-252.944 1826.88,-251.638 1823.77,-245.366"/>
</g>
<!-- Node10 -->
<g id="node10" class="node"><title>Node10</title>
<g id="a_node10"><a xlink:href="../../d9/d33/classslogo_1_1_u_i_1_1_main.html#a15b7f2e399ee24d160550993ab737e73" target="_top" xlink:title="slogo.UI.Main.start">
<polygon fill="white" stroke="black" points="2158,-150.5 2158,-169.5 2264,-169.5 2264,-150.5 2158,-150.5"/>
<text text-anchor="middle" x="2211" y="-157.5" font-family="Helvetica,sans-Serif" font-size="10.00">slogo.UI.Main.start</text>
</a>
</g>
</g>
<!-- Node9&#45;&gt;Node10 -->
<g id="edge9" class="edge"><title>Node9&#45;&gt;Node10</title>
<path fill="none" stroke="midnightblue" d="M2131.8,-156.216C2140.76,-156.65 2149.53,-157.074 2157.76,-157.472"/>
<polygon fill="midnightblue" stroke="midnightblue" points="2131.79,-152.712 2121.63,-155.724 2131.45,-159.703 2131.79,-152.712"/>
</g>
<!-- Node11 -->
<g id="node11" class="node"><title>Node11</title>
<g id="a_node11"><a xlink:href="../../db/d19/classslogo_1_1_u_i_1_1_module_creation_helper.html#a3be12a7cc2b8a219db1e296211a2cb88" target="_top" xlink:title="slogo.UI.ModuleCreationHelper.activate\lExtraWorkspaceButton">
<polygon fill="white" stroke="black" points="2300.5,-163 2300.5,-193 2505.5,-193 2505.5,-163 2300.5,-163"/>
<text text-anchor="start" x="2308.5" y="-181" font-family="Helvetica,sans-Serif" font-size="10.00">slogo.UI.ModuleCreationHelper.activate</text>
<text text-anchor="middle" x="2403" y="-170" font-family="Helvetica,sans-Serif" font-size="10.00">ExtraWorkspaceButton</text>
</a>
</g>
</g>
<!-- Node10&#45;&gt;Node11 -->
<g id="edge10" class="edge"><title>Node10&#45;&gt;Node11</title>
<path fill="none" stroke="midnightblue" d="M2274.22,-165.894C2282.63,-166.691 2291.44,-167.526 2300.32,-168.367"/>
<polygon fill="midnightblue" stroke="midnightblue" points="2274.46,-162.401 2264.17,-164.942 2273.79,-169.37 2274.46,-162.401"/>
</g>
<!-- Node12 -->
<g id="node12" class="node"><title>Node12</title>
<g id="a_node12"><a xlink:href="../../db/d19/classslogo_1_1_u_i_1_1_module_creation_helper.html#a702c1ebe24d2857a10c666eb1fcc315d" target="_top" xlink:title="slogo.UI.ModuleCreationHelper.create\lExtraWorkspaceButton">
<polygon fill="white" stroke="black" points="2542.5,-189 2542.5,-219 2739.5,-219 2739.5,-189 2542.5,-189"/>
<text text-anchor="start" x="2550.5" y="-207" font-family="Helvetica,sans-Serif" font-size="10.00">slogo.UI.ModuleCreationHelper.create</text>
<text text-anchor="middle" x="2641" y="-196" font-family="Helvetica,sans-Serif" font-size="10.00">ExtraWorkspaceButton</text>
</a>
</g>
</g>
<!-- Node11&#45;&gt;Node12 -->
<g id="edge11" class="edge"><title>Node11&#45;&gt;Node12</title>
<path fill="none" stroke="midnightblue" d="M2515.77,-190.313C2524.62,-191.289 2533.52,-192.27 2542.27,-193.234"/>
<polygon fill="midnightblue" stroke="midnightblue" points="2516.12,-186.831 2505.8,-189.215 2515.35,-193.789 2516.12,-186.831"/>
</g>
<!-- Node12&#45;&gt;Node8 -->
<g id="edge12" class="edge"><title>Node12&#45;&gt;Node8</title>
<path fill="none" stroke="midnightblue" d="M2532.34,-212.068C2364.9,-224.617 2044.6,-248.62 1883.55,-260.69"/>
<polygon fill="midnightblue" stroke="midnightblue" points="2532.7,-215.551 2542.41,-211.313 2532.18,-208.571 2532.7,-215.551"/>
</g>
<!-- Node13&#45;&gt;Node9 -->
<g id="edge14" class="edge"><title>Node13&#45;&gt;Node9</title>
<path fill="none" stroke="midnightblue" d="M1898.05,-151C1906.81,-151 1915.62,-151 1924.27,-151"/>
<polygon fill="midnightblue" stroke="midnightblue" points="1897.8,-147.5 1887.8,-151 1897.8,-154.5 1897.8,-147.5"/>
</g>
<!-- Node15 -->
<g id="node15" class="node"><title>Node15</title>
<g id="a_node15"><a xlink:href="../../db/d19/classslogo_1_1_u_i_1_1_module_creation_helper.html#a07f5483df317cdf80e8ea2dda5699afa" target="_top" xlink:title="slogo.UI.ModuleCreationHelper.create\lNewTurtleButton">
<polygon fill="white" stroke="black" points="1444.5,-330 1444.5,-360 1641.5,-360 1641.5,-330 1444.5,-330"/>
<text text-anchor="start" x="1452.5" y="-348" font-family="Helvetica,sans-Serif" font-size="10.00">slogo.UI.ModuleCreationHelper.create</text>
<text text-anchor="middle" x="1543" y="-337" font-family="Helvetica,sans-Serif" font-size="10.00">NewTurtleButton</text>
</a>
</g>
</g>
<!-- Node14&#45;&gt;Node15 -->
<g id="edge16" class="edge"><title>Node14&#45;&gt;Node15</title>
<path fill="none" stroke="midnightblue" d="M1413.89,-352.473C1424.04,-351.881 1434.26,-351.285 1444.27,-350.701"/>
<polygon fill="midnightblue" stroke="midnightblue" points="1413.56,-348.986 1403.78,-353.063 1413.97,-355.974 1413.56,-348.986"/>
</g>
<!-- Node15&#45;&gt;Node8 -->
<g id="edge17" class="edge"><title>Node15&#45;&gt;Node8</title>
<path fill="none" stroke="midnightblue" d="M1614.15,-327.309C1624.87,-324.354 1635.76,-321.203 1646,-318 1679.93,-307.387 1717.86,-293.493 1745.35,-283.046"/>
<polygon fill="midnightblue" stroke="midnightblue" points="1613.12,-323.962 1604.39,-329.963 1614.96,-330.717 1613.12,-323.962"/>
</g>
<!-- Node17 -->
<g id="node17" class="node"><title>Node17</title>
<g id="a_node17"><a xlink:href="../../db/d19/classslogo_1_1_u_i_1_1_module_creation_helper.html#a9b3fb38a55b3b7812b4f793afa7a974f" target="_top" xlink:title="slogo.UI.ModuleCreationHelper.create\lPlayButton">
<polygon fill="white" stroke="black" points="1202.5,-295 1202.5,-325 1399.5,-325 1399.5,-295 1202.5,-295"/>
<text text-anchor="start" x="1210.5" y="-313" font-family="Helvetica,sans-Serif" font-size="10.00">slogo.UI.ModuleCreationHelper.create</text>
<text text-anchor="middle" x="1301" y="-302" font-family="Helvetica,sans-Serif" font-size="10.00">PlayButton</text>
</a>
</g>
</g>
<!-- Node16&#45;&gt;Node17 -->
<g id="edge19" class="edge"><title>Node16&#45;&gt;Node17</title>
<path fill="none" stroke="midnightblue" d="M1171.89,-313.203C1182.04,-312.949 1192.26,-312.694 1202.27,-312.443"/>
<polygon fill="midnightblue" stroke="midnightblue" points="1171.69,-309.707 1161.78,-313.455 1171.87,-316.704 1171.69,-309.707"/>
</g>
<!-- Node18 -->
<g id="node18" class="node"><title>Node18</title>
<g id="a_node18"><a xlink:href="../../db/d19/classslogo_1_1_u_i_1_1_module_creation_helper.html#ae1e60d37509c2e5eddcb2a6e70b4f650" target="_top" xlink:title="slogo.UI.ModuleCreationHelper.create\lFirstRowButtons">
<polygon fill="white" stroke="black" points="1444.5,-279 1444.5,-309 1641.5,-309 1641.5,-279 1444.5,-279"/>
<text text-anchor="start" x="1452.5" y="-297" font-family="Helvetica,sans-Serif" font-size="10.00">slogo.UI.ModuleCreationHelper.create</text>
<text text-anchor="middle" x="1543" y="-286" font-family="Helvetica,sans-Serif" font-size="10.00">FirstRowButtons</text>
</a>
</g>
</g>
<!-- Node17&#45;&gt;Node18 -->
<g id="edge20" class="edge"><title>Node17&#45;&gt;Node18</title>
<path fill="none" stroke="midnightblue" d="M1409.73,-302.818C1421.3,-302.046 1433.03,-301.265 1444.47,-300.502"/>
<polygon fill="midnightblue" stroke="midnightblue" points="1409.36,-299.335 1399.62,-303.492 1409.83,-306.319 1409.36,-299.335"/>
</g>
<!-- Node18&#45;&gt;Node8 -->
<g id="edge21" class="edge"><title>Node18&#45;&gt;Node8</title>
<path fill="none" stroke="midnightblue" d="M1651.73,-282.329C1663.3,-281.075 1675.03,-279.805 1686.47,-278.566"/>
<polygon fill="midnightblue" stroke="midnightblue" points="1651.18,-278.868 1641.62,-283.425 1651.94,-285.827 1651.18,-278.868"/>
</g>
<!-- Node20 -->
<g id="node20" class="node"><title>Node20</title>
<g id="a_node20"><a xlink:href="../../db/d19/classslogo_1_1_u_i_1_1_module_creation_helper.html#a803bac6b55bde712b21f2face1eeef81" target="_top" xlink:title="slogo.UI.ModuleCreationHelper.create\lTurtleCanvas">
<polygon fill="white" stroke="black" points="1686.5,-87 1686.5,-117 1883.5,-117 1883.5,-87 1686.5,-87"/>
<text text-anchor="start" x="1694.5" y="-105" font-family="Helvetica,sans-Serif" font-size="10.00">slogo.UI.ModuleCreationHelper.create</text>
<text text-anchor="middle" x="1785" y="-94" font-family="Helvetica,sans-Serif" font-size="10.00">TurtleCanvas</text>
</a>
</g>
</g>
<!-- Node19&#45;&gt;Node20 -->
<g id="edge23" class="edge"><title>Node19&#45;&gt;Node20</title>
<path fill="none" stroke="midnightblue" d="M1655.89,-102C1666.04,-102 1676.26,-102 1686.27,-102"/>
<polygon fill="midnightblue" stroke="midnightblue" points="1655.78,-98.5001 1645.78,-102 1655.78,-105.5 1655.78,-98.5001"/>
</g>
<!-- Node20&#45;&gt;Node9 -->
<g id="edge24" class="edge"><title>Node20&#45;&gt;Node9</title>
<path fill="none" stroke="midnightblue" d="M1868.42,-119.113C1894.9,-124.611 1924.03,-130.658 1949.73,-135.994"/>
<polygon fill="midnightblue" stroke="midnightblue" points="1868.91,-115.641 1858.41,-117.035 1867.49,-122.495 1868.91,-115.641"/>
</g>
<!-- Node22 -->
<g id="node22" class="node"><title>Node22</title>
<g id="a_node22"><a xlink:href="../../db/d19/classslogo_1_1_u_i_1_1_module_creation_helper.html#af7f2919454fdbf6e9d7d912e99634857" target="_top" xlink:title="slogo.UI.ModuleCreationHelper.create\lSelectors">
<polygon fill="white" stroke="black" points="1202.5,-230 1202.5,-260 1399.5,-260 1399.5,-230 1202.5,-230"/>
<text text-anchor="start" x="1210.5" y="-248" font-family="Helvetica,sans-Serif" font-size="10.00">slogo.UI.ModuleCreationHelper.create</text>
<text text-anchor="middle" x="1301" y="-237" font-family="Helvetica,sans-Serif" font-size="10.00">Selectors</text>
</a>
</g>
</g>
<!-- Node21&#45;&gt;Node22 -->
<g id="edge26" class="edge"><title>Node21&#45;&gt;Node22</title>
<path fill="none" stroke="midnightblue" d="M1154.76,-261.339C1170.36,-259.585 1186.54,-257.764 1202.21,-256.002"/>
<polygon fill="midnightblue" stroke="midnightblue" points="1154.16,-257.885 1144.62,-262.481 1154.94,-264.841 1154.16,-257.885"/>
</g>
<!-- Node22&#45;&gt;Node8 -->
<g id="edge27" class="edge"><title>Node22&#45;&gt;Node8</title>
<path fill="none" stroke="midnightblue" d="M1409.74,-250.141C1492.55,-254.092 1605.97,-259.505 1686.19,-263.333"/>
<polygon fill="midnightblue" stroke="midnightblue" points="1409.7,-246.635 1399.54,-249.654 1409.36,-253.627 1409.7,-246.635"/>
</g>
<!-- Node23&#45;&gt;Node22 -->
<g id="edge29" class="edge"><title>Node23&#45;&gt;Node22</title>
<path fill="none" stroke="midnightblue" d="M1139.18,-233.609C1159.4,-235.041 1181.37,-236.597 1202.39,-238.086"/>
<polygon fill="midnightblue" stroke="midnightblue" points="1139.32,-230.11 1129.1,-232.894 1138.82,-237.092 1139.32,-230.11"/>
</g>
<!-- Node24&#45;&gt;Node22 -->
<g id="edge31" class="edge"><title>Node24&#45;&gt;Node22</title>
<path fill="none" stroke="midnightblue" d="M1127.48,-195.473C1139.04,-197.752 1150.9,-200.287 1162,-203 1193.38,-210.673 1228.18,-221.278 1254.98,-229.911"/>
<polygon fill="midnightblue" stroke="midnightblue" points="1127.9,-191.99 1117.42,-193.539 1126.58,-198.864 1127.9,-191.99"/>
</g>
<!-- Node26 -->
<g id="node26" class="node"><title>Node26</title>
<g id="a_node26"><a xlink:href="../../db/d19/classslogo_1_1_u_i_1_1_module_creation_helper.html#a9fd730f7c1860d34bf4ac46c3828bd59" target="_top" xlink:title="slogo.UI.ModuleCreationHelper.activate\lStepIntoButton">
<polygon fill="white" stroke="black" points="956.5,-49 956.5,-79 1161.5,-79 1161.5,-49 956.5,-49"/>
<text text-anchor="start" x="964.5" y="-67" font-family="Helvetica,sans-Serif" font-size="10.00">slogo.UI.ModuleCreationHelper.activate</text>
<text text-anchor="middle" x="1059" y="-56" font-family="Helvetica,sans-Serif" font-size="10.00">StepIntoButton</text>
</a>
</g>
</g>
<!-- Node25&#45;&gt;Node26 -->
<g id="edge33" class="edge"><title>Node25&#45;&gt;Node26</title>
<path fill="none" stroke="midnightblue" d="M927.334,-64C936.824,-64 946.535,-64 956.167,-64"/>
<polygon fill="midnightblue" stroke="midnightblue" points="927.137,-60.5001 917.137,-64 927.136,-67.5001 927.137,-60.5001"/>
</g>
<!-- Node27 -->
<g id="node27" class="node"><title>Node27</title>
<g id="a_node27"><a xlink:href="../../db/d19/classslogo_1_1_u_i_1_1_module_creation_helper.html#a4a6f1f009507c25be8c7c28cbba35f3b" target="_top" xlink:title="slogo.UI.ModuleCreationHelper.create\lDebugStepIntoButton">
<polygon fill="white" stroke="black" points="1202.5,-49 1202.5,-79 1399.5,-79 1399.5,-49 1202.5,-49"/>
<text text-anchor="start" x="1210.5" y="-67" font-family="Helvetica,sans-Serif" font-size="10.00">slogo.UI.ModuleCreationHelper.create</text>
<text text-anchor="middle" x="1301" y="-56" font-family="Helvetica,sans-Serif" font-size="10.00">DebugStepIntoButton</text>
</a>
</g>
</g>
<!-- Node26&#45;&gt;Node27 -->
<g id="edge34" class="edge"><title>Node26&#45;&gt;Node27</title>
<path fill="none" stroke="midnightblue" d="M1171.89,-64C1182.04,-64 1192.26,-64 1202.27,-64"/>
<polygon fill="midnightblue" stroke="midnightblue" points="1171.78,-60.5001 1161.78,-64 1171.78,-67.5001 1171.78,-60.5001"/>
</g>
<!-- Node28 -->
<g id="node28" class="node"><title>Node28</title>
<g id="a_node28"><a xlink:href="../../db/d19/classslogo_1_1_u_i_1_1_module_creation_helper.html#a975af4ea47dc85df72215bdf1a0d20ce" target="_top" xlink:title="slogo.UI.ModuleCreationHelper.create\lDebugModules">
<polygon fill="white" stroke="black" points="1444.5,-38 1444.5,-68 1641.5,-68 1641.5,-38 1444.5,-38"/>
<text text-anchor="start" x="1452.5" y="-56" font-family="Helvetica,sans-Serif" font-size="10.00">slogo.UI.ModuleCreationHelper.create</text>
<text text-anchor="middle" x="1543" y="-45" font-family="Helvetica,sans-Serif" font-size="10.00">DebugModules</text>
</a>
</g>
</g>
<!-- Node27&#45;&gt;Node28 -->
<g id="edge35" class="edge"><title>Node27&#45;&gt;Node28</title>
<path fill="none" stroke="midnightblue" d="M1409.73,-59.0622C1421.3,-58.5319 1433.03,-57.9945 1444.47,-57.4702"/>
<polygon fill="midnightblue" stroke="midnightblue" points="1409.45,-55.5716 1399.62,-59.5259 1409.77,-62.5643 1409.45,-55.5716"/>
</g>
<!-- Node28&#45;&gt;Node9 -->
<g id="edge36" class="edge"><title>Node28&#45;&gt;Node9</title>
<path fill="none" stroke="midnightblue" d="M1651.63,-48.679C1720.53,-48.779 1811.11,-54.2973 1888,-77 1931.33,-89.7936 1976.2,-118.228 2001.46,-135.889"/>
<polygon fill="midnightblue" stroke="midnightblue" points="1651.61,-45.1789 1641.62,-48.7021 1651.63,-52.1789 1651.61,-45.1789"/>
</g>
<!-- Node30 -->
<g id="node30" class="node"><title>Node30</title>
<g id="a_node30"><a xlink:href="../../db/d19/classslogo_1_1_u_i_1_1_module_creation_helper.html#a0fed0bb32bf2643d6fd5c24d82e8e18e" target="_top" xlink:title="slogo.UI.ModuleCreationHelper.activate\lStepOverButton">
<polygon fill="white" stroke="black" points="956.5,-0 956.5,-30 1161.5,-30 1161.5,-0 956.5,-0"/>
<text text-anchor="start" x="964.5" y="-18" font-family="Helvetica,sans-Serif" font-size="10.00">slogo.UI.ModuleCreationHelper.activate</text>
<text text-anchor="middle" x="1059" y="-7" font-family="Helvetica,sans-Serif" font-size="10.00">StepOverButton</text>
</a>
</g>
</g>
<!-- Node29&#45;&gt;Node30 -->
<g id="edge38" class="edge"><title>Node29&#45;&gt;Node30</title>
<path fill="none" stroke="midnightblue" d="M929.803,-18.5123C938.557,-18.2724 947.477,-18.028 956.327,-17.7856"/>
<polygon fill="midnightblue" stroke="midnightblue" points="929.515,-15.0187 919.615,-18.7914 929.707,-22.0161 929.515,-15.0187"/>
</g>
<!-- Node31 -->
<g id="node31" class="node"><title>Node31</title>
<g id="a_node31"><a xlink:href="../../db/d19/classslogo_1_1_u_i_1_1_module_creation_helper.html#aa1e7dc2b509360583790fba0d3819c8d" target="_top" xlink:title="slogo.UI.ModuleCreationHelper.create\lDebugStepOverButton">
<polygon fill="white" stroke="black" points="1202.5,-0 1202.5,-30 1399.5,-30 1399.5,-0 1202.5,-0"/>
<text text-anchor="start" x="1210.5" y="-18" font-family="Helvetica,sans-Serif" font-size="10.00">slogo.UI.ModuleCreationHelper.create</text>
<text text-anchor="middle" x="1301" y="-7" font-family="Helvetica,sans-Serif" font-size="10.00">DebugStepOverButton</text>
</a>
</g>
</g>
<!-- Node30&#45;&gt;Node31 -->
<g id="edge39" class="edge"><title>Node30&#45;&gt;Node31</title>
<path fill="none" stroke="midnightblue" d="M1171.89,-15C1182.04,-15 1192.26,-15 1202.27,-15"/>
<polygon fill="midnightblue" stroke="midnightblue" points="1171.78,-11.5001 1161.78,-15 1171.78,-18.5001 1171.78,-11.5001"/>
</g>
<!-- Node31&#45;&gt;Node28 -->
<g id="edge40" class="edge"><title>Node31&#45;&gt;Node28</title>
<path fill="none" stroke="midnightblue" d="M1406.99,-31.6227C1420.31,-33.7329 1433.89,-35.8827 1447.05,-37.966"/>
<polygon fill="midnightblue" stroke="midnightblue" points="1407.28,-28.1256 1396.85,-30.0186 1406.18,-35.0395 1407.28,-28.1256"/>
</g>
</g>
</svg>
