<?xml version="1.0" encoding="UTF-8" standalone="no"?>
<!DOCTYPE svg PUBLIC "-//W3C//DTD SVG 1.1//EN"
 "http://www.w3.org/Graphics/SVG/1.1/DTD/svg11.dtd">
<!-- Generated by graphviz version 2.36.0 (20140111.2315)
 -->
<!-- Title: slogo.UI.MethodRunner.drawLinesUsingToroidal Pages: 1 -->
<svg width="2936pt" height="427pt"
 viewBox="0.00 0.00 2936.00 427.00" xmlns="http://www.w3.org/2000/svg" xmlns:xlink="http://www.w3.org/1999/xlink">
<g id="graph0" class="graph" transform="scale(1 1) rotate(0) translate(4 423)">
<title>slogo.UI.MethodRunner.drawLinesUsingToroidal</title>
<polygon fill="white" stroke="none" points="-4,4 -4,-423 2932,-423 2932,4 -4,4"/>
<!-- Node1 -->
<g id="node1" class="node"><title>Node1</title>
<polygon fill="#bfbfbf" stroke="black" points="0,-49 0,-79 152,-79 152,-49 0,-49"/>
<text text-anchor="start" x="8" y="-67" font-family="Helvetica,sans-Serif" font-size="10.00">slogo.UI.MethodRunner.draw</text>
<text text-anchor="middle" x="76" y="-56" font-family="Helvetica,sans-Serif" font-size="10.00">LinesUsingToroidal</text>
</g>
<!-- Node2 -->
<g id="node2" class="node"><title>Node2</title>
<g id="a_node2"><a xlink:href="../../d9/d7e/classslogo_1_1_u_i_1_1_method_runner.html#a1ab80948935d4a625cf3313eabe9a51d" target="_top" xlink:title="slogo.UI.MethodRunner.move\lTurtle">
<polygon fill="white" stroke="black" points="188,-49 188,-79 344,-79 344,-49 188,-49"/>
<text text-anchor="start" x="196" y="-67" font-family="Helvetica,sans-Serif" font-size="10.00">slogo.UI.MethodRunner.move</text>
<text text-anchor="middle" x="266" y="-56" font-family="Helvetica,sans-Serif" font-size="10.00">Turtle</text>
</a>
</g>
</g>
<!-- Node1&#45;&gt;Node2 -->
<g id="edge1" class="edge"><title>Node1&#45;&gt;Node2</title>
<path fill="none" stroke="midnightblue" d="M162.117,-64C170.693,-64 179.369,-64 187.855,-64"/>
<polygon fill="midnightblue" stroke="midnightblue" points="162.113,-60.5001 152.113,-64 162.113,-67.5001 162.113,-60.5001"/>
</g>
<!-- Node3 -->
<g id="node3" class="node"><title>Node3</title>
<g id="a_node3"><a xlink:href="../../d9/d7e/classslogo_1_1_u_i_1_1_method_runner.html#a5fe4a6310ba1b0851d7d30a440511324" target="_top" xlink:title="slogo.UI.MethodRunner.change\lTurtle">
<polygon fill="white" stroke="black" points="380,-49 380,-79 544,-79 544,-49 380,-49"/>
<text text-anchor="start" x="388" y="-67" font-family="Helvetica,sans-Serif" font-size="10.00">slogo.UI.MethodRunner.change</text>
<text text-anchor="middle" x="462" y="-56" font-family="Helvetica,sans-Serif" font-size="10.00">Turtle</text>
</a>
</g>
</g>
<!-- Node2&#45;&gt;Node3 -->
<g id="edge2" class="edge"><title>Node2&#45;&gt;Node3</title>
<path fill="none" stroke="midnightblue" d="M354.486,-64C362.947,-64 371.505,-64 379.9,-64"/>
<polygon fill="midnightblue" stroke="midnightblue" points="354.231,-60.5001 344.231,-64 354.231,-67.5001 354.231,-60.5001"/>
</g>
<!-- Node4 -->
<g id="node4" class="node"><title>Node4</title>
<g id="a_node4"><a xlink:href="../../df/d2d/classslogo_1_1_view.html#accc79c56511a72090ff8a4d414b8d1f5" target="_top" xlink:title="slogo.View.executeTurtle\lCommands">
<polygon fill="white" stroke="black" points="580.5,-49 580.5,-79 713.5,-79 713.5,-49 580.5,-49"/>
<text text-anchor="start" x="588.5" y="-67" font-family="Helvetica,sans-Serif" font-size="10.00">slogo.View.executeTurtle</text>
<text text-anchor="middle" x="647" y="-56" font-family="Helvetica,sans-Serif" font-size="10.00">Commands</text>
</a>
</g>
</g>
<!-- Node3&#45;&gt;Node4 -->
<g id="edge3" class="edge"><title>Node3&#45;&gt;Node4</title>
<path fill="none" stroke="midnightblue" d="M554.35,-64C563.128,-64 571.907,-64 580.365,-64"/>
<polygon fill="midnightblue" stroke="midnightblue" points="554.066,-60.5001 544.066,-64 554.066,-67.5001 554.066,-60.5001"/>
</g>
<!-- Node5 -->
<g id="node5" class="node"><title>Node5</title>
<g id="a_node5"><a xlink:href="../../df/d2d/classslogo_1_1_view.html#aa90e5d95d422b58b7f4b7f8a049defe1" target="_top" xlink:title="slogo.View.executeCommand">
<polygon fill="white" stroke="black" points="750,-54.5 750,-73.5 908,-73.5 908,-54.5 750,-54.5"/>
<text text-anchor="middle" x="829" y="-61.5" font-family="Helvetica,sans-Serif" font-size="10.00">slogo.View.executeCommand</text>
</a>
</g>
</g>
<!-- Node4&#45;&gt;Node5 -->
<g id="edge4" class="edge"><title>Node4&#45;&gt;Node5</title>
<path fill="none" stroke="midnightblue" d="M723.784,-64C732.42,-64 741.235,-64 749.901,-64"/>
<polygon fill="midnightblue" stroke="midnightblue" points="723.748,-60.5001 713.748,-64 723.748,-67.5001 723.748,-60.5001"/>
</g>
<!-- Node6 -->
<g id="node6" class="node"><title>Node6</title>
<g id="a_node6"><a xlink:href="../../df/d2d/classslogo_1_1_view.html#aee563f6a0b15ac6668e4dcbdad40c73c" target="_top" xlink:title="slogo.View.sendCommandTo\lBackend">
<polygon fill="white" stroke="black" points="950,-213 950,-243 1102,-243 1102,-213 950,-213"/>
<text text-anchor="start" x="958" y="-231" font-family="Helvetica,sans-Serif" font-size="10.00">slogo.View.sendCommandTo</text>
<text text-anchor="middle" x="1026" y="-220" font-family="Helvetica,sans-Serif" font-size="10.00">Backend</text>
</a>
</g>
</g>
<!-- Node5&#45;&gt;Node6 -->
<g id="edge5" class="edge"><title>Node5&#45;&gt;Node6</title>
<path fill="none" stroke="midnightblue" d="M849.054,-80.0252C886.765,-111.741 970.433,-182.108 1007.15,-212.984"/>
<polygon fill="midnightblue" stroke="midnightblue" points="851.233,-77.2841 841.327,-73.5262 846.727,-82.6414 851.233,-77.2841"/>
</g>
<!-- Node26 -->
<g id="node26" class="node"><title>Node26</title>
<g id="a_node26"><a xlink:href="../../df/d2d/classslogo_1_1_view.html#a4c3084a198acf85804800d70eff9ee51" target="_top" xlink:title="slogo.View.stepIntoCommand">
<polygon fill="white" stroke="black" points="947,-54.5 947,-73.5 1105,-73.5 1105,-54.5 947,-54.5"/>
<text text-anchor="middle" x="1026" y="-61.5" font-family="Helvetica,sans-Serif" font-size="10.00">slogo.View.stepIntoCommand</text>
</a>
</g>
</g>
<!-- Node5&#45;&gt;Node26 -->
<g id="edge33" class="edge"><title>Node5&#45;&gt;Node26</title>
<path fill="none" stroke="midnightblue" d="M918.402,-64C927.87,-64 937.454,-64 946.792,-64"/>
<polygon fill="midnightblue" stroke="midnightblue" points="918.19,-60.5001 908.19,-64 918.19,-67.5001 918.19,-60.5001"/>
</g>
<!-- Node30 -->
<g id="node30" class="node"><title>Node30</title>
<g id="a_node30"><a xlink:href="../../df/d2d/classslogo_1_1_view.html#ac8b7f574c679e744a430f1649dc55e68" target="_top" xlink:title="slogo.View.stepOverCommand">
<polygon fill="white" stroke="black" points="944.5,-11.5 944.5,-30.5 1107.5,-30.5 1107.5,-11.5 944.5,-11.5"/>
<text text-anchor="middle" x="1026" y="-18.5" font-family="Helvetica,sans-Serif" font-size="10.00">slogo.View.stepOverCommand</text>
</a>
</g>
</g>
<!-- Node5&#45;&gt;Node30 -->
<g id="edge38" class="edge"><title>Node5&#45;&gt;Node30</title>
<path fill="none" stroke="midnightblue" d="M883.056,-52.3005C914.068,-45.462 952.711,-36.9406 981.844,-30.5164"/>
<polygon fill="midnightblue" stroke="midnightblue" points="882.288,-48.8855 873.277,-54.4569 883.796,-55.7213 882.288,-48.8855"/>
</g>
<!-- Node7 -->
<g id="node7" class="node"><title>Node7</title>
<g id="a_node7"><a xlink:href="../../db/d19/classslogo_1_1_u_i_1_1_module_creation_helper.html#a69e17abcc7cf9a6ed7261d8fb1d631fa" target="_top" xlink:title="slogo.UI.ModuleCreationHelper.activate\lIncreaseDecreaseButtons">
<polygon fill="white" stroke="black" points="1144.5,-389 1144.5,-419 1349.5,-419 1349.5,-389 1144.5,-389"/>
<text text-anchor="start" x="1152.5" y="-407" font-family="Helvetica,sans-Serif" font-size="10.00">slogo.UI.ModuleCreationHelper.activate</text>
<text text-anchor="middle" x="1247" y="-396" font-family="Helvetica,sans-Serif" font-size="10.00">IncreaseDecreaseButtons</text>
</a>
</g>
</g>
<!-- Node6&#45;&gt;Node7 -->
<g id="edge6" class="edge"><title>Node6&#45;&gt;Node7</title>
<path fill="none" stroke="midnightblue" d="M1040.04,-252.219C1058.78,-284.724 1096.36,-342.06 1144,-374 1153.12,-380.116 1163.51,-385.01 1174.09,-388.919"/>
<polygon fill="midnightblue" stroke="midnightblue" points="1043.01,-250.361 1035.05,-243.368 1036.91,-253.798 1043.01,-250.361"/>
</g>
<!-- Node14 -->
<g id="node14" class="node"><title>Node14</title>
<g id="a_node14"><a xlink:href="../../db/d19/classslogo_1_1_u_i_1_1_module_creation_helper.html#aa70b0ad9e90e62509149bfd2ef2ba209" target="_top" xlink:title="slogo.UI.ModuleCreationHelper.activate\lKeyEvents">
<polygon fill="white" stroke="black" points="1870.5,-136 1870.5,-166 2075.5,-166 2075.5,-136 1870.5,-136"/>
<text text-anchor="start" x="1878.5" y="-154" font-family="Helvetica,sans-Serif" font-size="10.00">slogo.UI.ModuleCreationHelper.activate</text>
<text text-anchor="middle" x="1973" y="-143" font-family="Helvetica,sans-Serif" font-size="10.00">KeyEvents</text>
</a>
</g>
</g>
<!-- Node6&#45;&gt;Node14 -->
<g id="edge14" class="edge"><title>Node6&#45;&gt;Node14</title>
<path fill="none" stroke="midnightblue" d="M1056.18,-207.164C1078.9,-192.251 1111.88,-173.388 1144,-165 1278.15,-129.97 1680.16,-139.777 1870.26,-146.744"/>
<polygon fill="midnightblue" stroke="midnightblue" points="1054.05,-204.378 1047.7,-212.86 1057.95,-210.189 1054.05,-204.378"/>
</g>
<!-- Node15 -->
<g id="node15" class="node"><title>Node15</title>
<g id="a_node15"><a xlink:href="../../db/d19/classslogo_1_1_u_i_1_1_module_creation_helper.html#a2e841243ec3ca474e8822102343acc88" target="_top" xlink:title="slogo.UI.ModuleCreationHelper.activate\lNewTurtleButton">
<polygon fill="white" stroke="black" points="1386.5,-344 1386.5,-374 1591.5,-374 1591.5,-344 1386.5,-344"/>
<text text-anchor="start" x="1394.5" y="-362" font-family="Helvetica,sans-Serif" font-size="10.00">slogo.UI.ModuleCreationHelper.activate</text>
<text text-anchor="middle" x="1489" y="-351" font-family="Helvetica,sans-Serif" font-size="10.00">NewTurtleButton</text>
</a>
</g>
</g>
<!-- Node6&#45;&gt;Node15 -->
<g id="edge16" class="edge"><title>Node6&#45;&gt;Node15</title>
<path fill="none" stroke="midnightblue" d="M1043.02,-251.155C1063.1,-278.009 1100.24,-321.013 1144,-340 1220.41,-373.152 1315.47,-375.86 1386.29,-371.435"/>
<polygon fill="midnightblue" stroke="midnightblue" points="1045.83,-249.073 1037.11,-243.055 1040.18,-253.197 1045.83,-249.073"/>
</g>
<!-- Node17 -->
<g id="node17" class="node"><title>Node17</title>
<g id="a_node17"><a xlink:href="../../db/d19/classslogo_1_1_u_i_1_1_module_creation_helper.html#a9b1f07ab673191067907a059b1b0c524" target="_top" xlink:title="slogo.UI.ModuleCreationHelper.activate\lPlayButton">
<polygon fill="white" stroke="black" points="1144.5,-301 1144.5,-331 1349.5,-331 1349.5,-301 1144.5,-301"/>
<text text-anchor="start" x="1152.5" y="-319" font-family="Helvetica,sans-Serif" font-size="10.00">slogo.UI.ModuleCreationHelper.activate</text>
<text text-anchor="middle" x="1247" y="-308" font-family="Helvetica,sans-Serif" font-size="10.00">PlayButton</text>
</a>
</g>
</g>
<!-- Node6&#45;&gt;Node17 -->
<g id="edge19" class="edge"><title>Node6&#45;&gt;Node17</title>
<path fill="none" stroke="midnightblue" d="M1059.42,-248.354C1082.33,-262.006 1114.16,-279.522 1144,-291 1153.7,-294.73 1164.14,-298.039 1174.5,-300.929"/>
<polygon fill="midnightblue" stroke="midnightblue" points="1061.16,-245.317 1050.79,-243.145 1057.54,-251.31 1061.16,-245.317"/>
</g>
<!-- Node20 -->
<g id="node20" class="node"><title>Node20</title>
<g id="a_node20"><a xlink:href="../../db/d19/classslogo_1_1_u_i_1_1_module_creation_helper.html#a3a38d485562cb17591ec3fd07cffc18a" target="_top" xlink:title="slogo.UI.ModuleCreationHelper.activate\lTurtleCanvas">
<polygon fill="white" stroke="black" points="1628.5,-87 1628.5,-117 1833.5,-117 1833.5,-87 1628.5,-87"/>
<text text-anchor="start" x="1636.5" y="-105" font-family="Helvetica,sans-Serif" font-size="10.00">slogo.UI.ModuleCreationHelper.activate</text>
<text text-anchor="middle" x="1731" y="-94" font-family="Helvetica,sans-Serif" font-size="10.00">TurtleCanvas</text>
</a>
</g>
</g>
<!-- Node6&#45;&gt;Node20 -->
<g id="edge23" class="edge"><title>Node6&#45;&gt;Node20</title>
<path fill="none" stroke="midnightblue" d="M1046.37,-205.232C1067.63,-182.064 1104.1,-147.434 1144,-132 1229.51,-98.92 1484.48,-97.5272 1628.33,-99.6157"/>
<polygon fill="midnightblue" stroke="midnightblue" points="1043.56,-203.115 1039.5,-212.898 1048.78,-207.786 1043.56,-203.115"/>
</g>
<!-- Node22 -->
<g id="node22" class="node"><title>Node22</title>
<g id="a_node22"><a xlink:href="../../d1/d5f/classslogo_1_1_u_i_1_1_path_color_selector.html#ad3d9c82a0904c97edcec7cf67b85bd7b" target="_top" xlink:title="slogo.UI.PathColorSelector.create">
<polygon fill="white" stroke="black" points="1159,-262.5 1159,-281.5 1335,-281.5 1335,-262.5 1159,-262.5"/>
<text text-anchor="middle" x="1247" y="-269.5" font-family="Helvetica,sans-Serif" font-size="10.00">slogo.UI.PathColorSelector.create</text>
</a>
</g>
</g>
<!-- Node6&#45;&gt;Node22 -->
<g id="edge26" class="edge"><title>Node6&#45;&gt;Node22</title>
<path fill="none" stroke="midnightblue" d="M1109.74,-245.065C1121.24,-247.411 1132.91,-249.776 1144,-252 1161.25,-255.46 1180.16,-259.186 1196.95,-262.473"/>
<polygon fill="midnightblue" stroke="midnightblue" points="1110.19,-241.585 1099.69,-243.013 1108.79,-248.443 1110.19,-241.585"/>
</g>
<!-- Node24 -->
<g id="node24" class="node"><title>Node24</title>
<g id="a_node24"><a xlink:href="../../d4/d8d/classslogo_1_1_u_i_1_1_background_color_selector.html#ad75ba4ce104e071811d0fe039a4e839f" target="_top" xlink:title="slogo.UI.BackgroundColor\lSelector.create">
<polygon fill="white" stroke="black" points="1177,-213 1177,-243 1317,-243 1317,-213 1177,-213"/>
<text text-anchor="start" x="1185" y="-231" font-family="Helvetica,sans-Serif" font-size="10.00">slogo.UI.BackgroundColor</text>
<text text-anchor="middle" x="1247" y="-220" font-family="Helvetica,sans-Serif" font-size="10.00">Selector.create</text>
</a>
</g>
</g>
<!-- Node6&#45;&gt;Node24 -->
<g id="edge29" class="edge"><title>Node6&#45;&gt;Node24</title>
<path fill="none" stroke="midnightblue" d="M1112.14,-228C1133.6,-228 1156.37,-228 1176.93,-228"/>
<polygon fill="midnightblue" stroke="midnightblue" points="1112.06,-224.5 1102.06,-228 1112.06,-231.5 1112.06,-224.5"/>
</g>
<!-- Node25 -->
<g id="node25" class="node"><title>Node25</title>
<g id="a_node25"><a xlink:href="../../dd/da7/classslogo_1_1_u_i_1_1_turtle_image_selector.html#a3f268d9196ffebcbb5dc322d2897a9fe" target="_top" xlink:title="slogo.UI.TurtleImageSelector.create">
<polygon fill="white" stroke="black" points="1154,-174.5 1154,-193.5 1340,-193.5 1340,-174.5 1154,-174.5"/>
<text text-anchor="middle" x="1247" y="-181.5" font-family="Helvetica,sans-Serif" font-size="10.00">slogo.UI.TurtleImageSelector.create</text>
</a>
</g>
</g>
<!-- Node6&#45;&gt;Node25 -->
<g id="edge31" class="edge"><title>Node6&#45;&gt;Node25</title>
<path fill="none" stroke="midnightblue" d="M1106.01,-210.821C1118.7,-208.147 1131.71,-205.458 1144,-203 1159.99,-199.804 1177.42,-196.493 1193.27,-193.548"/>
<polygon fill="midnightblue" stroke="midnightblue" points="1104.98,-207.463 1095.92,-212.958 1106.43,-214.311 1104.98,-207.463"/>
</g>
<!-- Node8 -->
<g id="node8" class="node"><title>Node8</title>
<g id="a_node8"><a xlink:href="../../db/d19/classslogo_1_1_u_i_1_1_module_creation_helper.html#adce7362386f9a7b3006e7db08a2d578d" target="_top" xlink:title="slogo.UI.ModuleCreationHelper.create\lIncreaseDecreaseButtons">
<polygon fill="white" stroke="black" points="1632.5,-380 1632.5,-410 1829.5,-410 1829.5,-380 1632.5,-380"/>
<text text-anchor="start" x="1640.5" y="-398" font-family="Helvetica,sans-Serif" font-size="10.00">slogo.UI.ModuleCreationHelper.create</text>
<text text-anchor="middle" x="1731" y="-387" font-family="Helvetica,sans-Serif" font-size="10.00">IncreaseDecreaseButtons</text>
</a>
</g>
</g>
<!-- Node7&#45;&gt;Node8 -->
<g id="edge7" class="edge"><title>Node7&#45;&gt;Node8</title>
<path fill="none" stroke="midnightblue" d="M1359.79,-401.913C1442.23,-400.373 1553.29,-398.299 1632.21,-396.826"/>
<polygon fill="midnightblue" stroke="midnightblue" points="1359.56,-398.416 1349.63,-402.102 1359.69,-405.415 1359.56,-398.416"/>
</g>
<!-- Node9 -->
<g id="node9" class="node"><title>Node9</title>
<g id="a_node9"><a xlink:href="../../db/d19/classslogo_1_1_u_i_1_1_module_creation_helper.html#a7c650957b2389d6e6d36e8be8a33cd2b" target="_top" xlink:title="slogo.UI.ModuleCreationHelper.create\lSelectorVBoxModules">
<polygon fill="white" stroke="black" points="1874.5,-253 1874.5,-283 2071.5,-283 2071.5,-253 1874.5,-253"/>
<text text-anchor="start" x="1882.5" y="-271" font-family="Helvetica,sans-Serif" font-size="10.00">slogo.UI.ModuleCreationHelper.create</text>
<text text-anchor="middle" x="1973" y="-260" font-family="Helvetica,sans-Serif" font-size="10.00">SelectorVBoxModules</text>
</a>
</g>
</g>
<!-- Node8&#45;&gt;Node9 -->
<g id="edge8" class="edge"><title>Node8&#45;&gt;Node9</title>
<path fill="none" stroke="midnightblue" d="M1815,-376.732C1821.54,-374.424 1827.95,-371.854 1834,-369 1882.6,-346.077 1931.46,-305.079 1955.92,-283.025"/>
<polygon fill="midnightblue" stroke="midnightblue" points="1813.75,-373.461 1805.36,-379.93 1815.95,-380.105 1813.75,-373.461"/>
</g>
<!-- Node10 -->
<g id="node10" class="node"><title>Node10</title>
<g id="a_node10"><a xlink:href="../../db/d19/classslogo_1_1_u_i_1_1_module_creation_helper.html#afb9dbbbad7d872234a5b296fe129a34e" target="_top" xlink:title="slogo.UI.ModuleCreationHelper.create\lMainPageModules">
<polygon fill="white" stroke="black" points="2112.5,-136 2112.5,-166 2309.5,-166 2309.5,-136 2112.5,-136"/>
<text text-anchor="start" x="2120.5" y="-154" font-family="Helvetica,sans-Serif" font-size="10.00">slogo.UI.ModuleCreationHelper.create</text>
<text text-anchor="middle" x="2211" y="-143" font-family="Helvetica,sans-Serif" font-size="10.00">MainPageModules</text>
</a>
</g>
</g>
<!-- Node9&#45;&gt;Node10 -->
<g id="edge9" class="edge"><title>Node9&#45;&gt;Node10</title>
<path fill="none" stroke="midnightblue" d="M2013.58,-248.38C2060.29,-225.222 2136.96,-187.212 2179.37,-166.184"/>
<polygon fill="midnightblue" stroke="midnightblue" points="2011.77,-245.366 2004.37,-252.944 2014.88,-251.638 2011.77,-245.366"/>
</g>
<!-- Node11 -->
<g id="node11" class="node"><title>Node11</title>
<g id="a_node11"><a xlink:href="../../d9/d33/classslogo_1_1_u_i_1_1_main.html#a15b7f2e399ee24d160550993ab737e73" target="_top" xlink:title="slogo.UI.Main.start">
<polygon fill="white" stroke="black" points="2346,-150.5 2346,-169.5 2452,-169.5 2452,-150.5 2346,-150.5"/>
<text text-anchor="middle" x="2399" y="-157.5" font-family="Helvetica,sans-Serif" font-size="10.00">slogo.UI.Main.start</text>
</a>
</g>
</g>
<!-- Node10&#45;&gt;Node11 -->
<g id="edge10" class="edge"><title>Node10&#45;&gt;Node11</title>
<path fill="none" stroke="midnightblue" d="M2319.8,-156.216C2328.76,-156.65 2337.53,-157.074 2345.76,-157.472"/>
<polygon fill="midnightblue" stroke="midnightblue" points="2319.79,-152.712 2309.63,-155.724 2319.45,-159.703 2319.79,-152.712"/>
</g>
<!-- Node12 -->
<g id="node12" class="node"><title>Node12</title>
<g id="a_node12"><a xlink:href="../../db/d19/classslogo_1_1_u_i_1_1_module_creation_helper.html#a3be12a7cc2b8a219db1e296211a2cb88" target="_top" xlink:title="slogo.UI.ModuleCreationHelper.activate\lExtraWorkspaceButton">
<polygon fill="white" stroke="black" points="2488.5,-163 2488.5,-193 2693.5,-193 2693.5,-163 2488.5,-163"/>
<text text-anchor="start" x="2496.5" y="-181" font-family="Helvetica,sans-Serif" font-size="10.00">slogo.UI.ModuleCreationHelper.activate</text>
<text text-anchor="middle" x="2591" y="-170" font-family="Helvetica,sans-Serif" font-size="10.00">ExtraWorkspaceButton</text>
</a>
</g>
</g>
<!-- Node11&#45;&gt;Node12 -->
<g id="edge11" class="edge"><title>Node11&#45;&gt;Node12</title>
<path fill="none" stroke="midnightblue" d="M2462.22,-165.894C2470.63,-166.691 2479.44,-167.526 2488.32,-168.367"/>
<polygon fill="midnightblue" stroke="midnightblue" points="2462.46,-162.401 2452.17,-164.942 2461.79,-169.37 2462.46,-162.401"/>
</g>
<!-- Node13 -->
<g id="node13" class="node"><title>Node13</title>
<g id="a_node13"><a xlink:href="../../db/d19/classslogo_1_1_u_i_1_1_module_creation_helper.html#a702c1ebe24d2857a10c666eb1fcc315d" target="_top" xlink:title="slogo.UI.ModuleCreationHelper.create\lExtraWorkspaceButton">
<polygon fill="white" stroke="black" points="2730.5,-189 2730.5,-219 2927.5,-219 2927.5,-189 2730.5,-189"/>
<text text-anchor="start" x="2738.5" y="-207" font-family="Helvetica,sans-Serif" font-size="10.00">slogo.UI.ModuleCreationHelper.create</text>
<text text-anchor="middle" x="2829" y="-196" font-family="Helvetica,sans-Serif" font-size="10.00">ExtraWorkspaceButton</text>
</a>
</g>
</g>
<!-- Node12&#45;&gt;Node13 -->
<g id="edge12" class="edge"><title>Node12&#45;&gt;Node13</title>
<path fill="none" stroke="midnightblue" d="M2703.77,-190.313C2712.62,-191.289 2721.52,-192.27 2730.27,-193.234"/>
<polygon fill="midnightblue" stroke="midnightblue" points="2704.12,-186.831 2693.8,-189.215 2703.35,-193.789 2704.12,-186.831"/>
</g>
<!-- Node13&#45;&gt;Node9 -->
<g id="edge13" class="edge"><title>Node13&#45;&gt;Node9</title>
<path fill="none" stroke="midnightblue" d="M2720.34,-212.068C2552.9,-224.617 2232.6,-248.62 2071.55,-260.69"/>
<polygon fill="midnightblue" stroke="midnightblue" points="2720.7,-215.551 2730.41,-211.313 2720.18,-208.571 2720.7,-215.551"/>
</g>
<!-- Node14&#45;&gt;Node10 -->
<g id="edge15" class="edge"><title>Node14&#45;&gt;Node10</title>
<path fill="none" stroke="midnightblue" d="M2086.05,-151C2094.81,-151 2103.62,-151 2112.27,-151"/>
<polygon fill="midnightblue" stroke="midnightblue" points="2085.8,-147.5 2075.8,-151 2085.8,-154.5 2085.8,-147.5"/>
</g>
<!-- Node16 -->
<g id="node16" class="node"><title>Node16</title>
<g id="a_node16"><a xlink:href="../../db/d19/classslogo_1_1_u_i_1_1_module_creation_helper.html#a07f5483df317cdf80e8ea2dda5699afa" target="_top" xlink:title="slogo.UI.ModuleCreationHelper.create\lNewTurtleButton">
<polygon fill="white" stroke="black" points="1632.5,-330 1632.5,-360 1829.5,-360 1829.5,-330 1632.5,-330"/>
<text text-anchor="start" x="1640.5" y="-348" font-family="Helvetica,sans-Serif" font-size="10.00">slogo.UI.ModuleCreationHelper.create</text>
<text text-anchor="middle" x="1731" y="-337" font-family="Helvetica,sans-Serif" font-size="10.00">NewTurtleButton</text>
</a>
</g>
</g>
<!-- Node15&#45;&gt;Node16 -->
<g id="edge17" class="edge"><title>Node15&#45;&gt;Node16</title>
<path fill="none" stroke="midnightblue" d="M1601.89,-352.473C1612.04,-351.881 1622.26,-351.285 1632.27,-350.701"/>
<polygon fill="midnightblue" stroke="midnightblue" points="1601.56,-348.986 1591.78,-353.063 1601.97,-355.974 1601.56,-348.986"/>
</g>
<!-- Node16&#45;&gt;Node9 -->
<g id="edge18" class="edge"><title>Node16&#45;&gt;Node9</title>
<path fill="none" stroke="midnightblue" d="M1802.15,-327.309C1812.87,-324.354 1823.76,-321.203 1834,-318 1867.93,-307.387 1905.86,-293.493 1933.35,-283.046"/>
<polygon fill="midnightblue" stroke="midnightblue" points="1801.12,-323.962 1792.39,-329.963 1802.96,-330.717 1801.12,-323.962"/>
</g>
<!-- Node18 -->
<g id="node18" class="node"><title>Node18</title>
<g id="a_node18"><a xlink:href="../../db/d19/classslogo_1_1_u_i_1_1_module_creation_helper.html#a9b3fb38a55b3b7812b4f793afa7a974f" target="_top" xlink:title="slogo.UI.ModuleCreationHelper.create\lPlayButton">
<polygon fill="white" stroke="black" points="1390.5,-295 1390.5,-325 1587.5,-325 1587.5,-295 1390.5,-295"/>
<text text-anchor="start" x="1398.5" y="-313" font-family="Helvetica,sans-Serif" font-size="10.00">slogo.UI.ModuleCreationHelper.create</text>
<text text-anchor="middle" x="1489" y="-302" font-family="Helvetica,sans-Serif" font-size="10.00">PlayButton</text>
</a>
</g>
</g>
<!-- Node17&#45;&gt;Node18 -->
<g id="edge20" class="edge"><title>Node17&#45;&gt;Node18</title>
<path fill="none" stroke="midnightblue" d="M1359.89,-313.203C1370.04,-312.949 1380.26,-312.694 1390.27,-312.443"/>
<polygon fill="midnightblue" stroke="midnightblue" points="1359.69,-309.707 1349.78,-313.455 1359.87,-316.704 1359.69,-309.707"/>
</g>
<!-- Node19 -->
<g id="node19" class="node"><title>Node19</title>
<g id="a_node19"><a xlink:href="../../db/d19/classslogo_1_1_u_i_1_1_module_creation_helper.html#ae1e60d37509c2e5eddcb2a6e70b4f650" target="_top" xlink:title="slogo.UI.ModuleCreationHelper.create\lFirstRowButtons">
<polygon fill="white" stroke="black" points="1632.5,-279 1632.5,-309 1829.5,-309 1829.5,-279 1632.5,-279"/>
<text text-anchor="start" x="1640.5" y="-297" font-family="Helvetica,sans-Serif" font-size="10.00">slogo.UI.ModuleCreationHelper.create</text>
<text text-anchor="middle" x="1731" y="-286" font-family="Helvetica,sans-Serif" font-size="10.00">FirstRowButtons</text>
</a>
</g>
</g>
<!-- Node18&#45;&gt;Node19 -->
<g id="edge21" class="edge"><title>Node18&#45;&gt;Node19</title>
<path fill="none" stroke="midnightblue" d="M1597.73,-302.818C1609.3,-302.046 1621.03,-301.265 1632.47,-300.502"/>
<polygon fill="midnightblue" stroke="midnightblue" points="1597.36,-299.335 1587.62,-303.492 1597.83,-306.319 1597.36,-299.335"/>
</g>
<!-- Node19&#45;&gt;Node9 -->
<g id="edge22" class="edge"><title>Node19&#45;&gt;Node9</title>
<path fill="none" stroke="midnightblue" d="M1839.73,-282.329C1851.3,-281.075 1863.03,-279.805 1874.47,-278.566"/>
<polygon fill="midnightblue" stroke="midnightblue" points="1839.18,-278.868 1829.62,-283.425 1839.94,-285.827 1839.18,-278.868"/>
</g>
<!-- Node21 -->
<g id="node21" class="node"><title>Node21</title>
<g id="a_node21"><a xlink:href="../../db/d19/classslogo_1_1_u_i_1_1_module_creation_helper.html#a803bac6b55bde712b21f2face1eeef81" target="_top" xlink:title="slogo.UI.ModuleCreationHelper.create\lTurtleCanvas">
<polygon fill="white" stroke="black" points="1874.5,-87 1874.5,-117 2071.5,-117 2071.5,-87 1874.5,-87"/>
<text text-anchor="start" x="1882.5" y="-105" font-family="Helvetica,sans-Serif" font-size="10.00">slogo.UI.ModuleCreationHelper.create</text>
<text text-anchor="middle" x="1973" y="-94" font-family="Helvetica,sans-Serif" font-size="10.00">TurtleCanvas</text>
</a>
</g>
</g>
<!-- Node20&#45;&gt;Node21 -->
<g id="edge24" class="edge"><title>Node20&#45;&gt;Node21</title>
<path fill="none" stroke="midnightblue" d="M1843.89,-102C1854.04,-102 1864.26,-102 1874.27,-102"/>
<polygon fill="midnightblue" stroke="midnightblue" points="1843.78,-98.5001 1833.78,-102 1843.78,-105.5 1843.78,-98.5001"/>
</g>
<!-- Node21&#45;&gt;Node10 -->
<g id="edge25" class="edge"><title>Node21&#45;&gt;Node10</title>
<path fill="none" stroke="midnightblue" d="M2056.42,-119.113C2082.9,-124.611 2112.03,-130.658 2137.73,-135.994"/>
<polygon fill="midnightblue" stroke="midnightblue" points="2056.91,-115.641 2046.41,-117.035 2055.49,-122.495 2056.91,-115.641"/>
</g>
<!-- Node23 -->
<g id="node23" class="node"><title>Node23</title>
<g id="a_node23"><a xlink:href="../../db/d19/classslogo_1_1_u_i_1_1_module_creation_helper.html#af7f2919454fdbf6e9d7d912e99634857" target="_top" xlink:title="slogo.UI.ModuleCreationHelper.create\lSelectors">
<polygon fill="white" stroke="black" points="1390.5,-230 1390.5,-260 1587.5,-260 1587.5,-230 1390.5,-230"/>
<text text-anchor="start" x="1398.5" y="-248" font-family="Helvetica,sans-Serif" font-size="10.00">slogo.UI.ModuleCreationHelper.create</text>
<text text-anchor="middle" x="1489" y="-237" font-family="Helvetica,sans-Serif" font-size="10.00">Selectors</text>
</a>
</g>
</g>
<!-- Node22&#45;&gt;Node23 -->
<g id="edge27" class="edge"><title>Node22&#45;&gt;Node23</title>
<path fill="none" stroke="midnightblue" d="M1342.76,-261.339C1358.36,-259.585 1374.54,-257.764 1390.21,-256.002"/>
<polygon fill="midnightblue" stroke="midnightblue" points="1342.16,-257.885 1332.62,-262.481 1342.94,-264.841 1342.16,-257.885"/>
</g>
<!-- Node23&#45;&gt;Node9 -->
<g id="edge28" class="edge"><title>Node23&#45;&gt;Node9</title>
<path fill="none" stroke="midnightblue" d="M1597.74,-250.141C1680.55,-254.092 1793.97,-259.505 1874.19,-263.333"/>
<polygon fill="midnightblue" stroke="midnightblue" points="1597.7,-246.635 1587.54,-249.654 1597.36,-253.627 1597.7,-246.635"/>
</g>
<!-- Node24&#45;&gt;Node23 -->
<g id="edge30" class="edge"><title>Node24&#45;&gt;Node23</title>
<path fill="none" stroke="midnightblue" d="M1327.18,-233.609C1347.4,-235.041 1369.37,-236.597 1390.39,-238.086"/>
<polygon fill="midnightblue" stroke="midnightblue" points="1327.32,-230.11 1317.1,-232.894 1326.82,-237.092 1327.32,-230.11"/>
</g>
<!-- Node25&#45;&gt;Node23 -->
<g id="edge32" class="edge"><title>Node25&#45;&gt;Node23</title>
<path fill="none" stroke="midnightblue" d="M1315.48,-195.473C1327.04,-197.752 1338.9,-200.287 1350,-203 1381.38,-210.673 1416.18,-221.278 1442.98,-229.911"/>
<polygon fill="midnightblue" stroke="midnightblue" points="1315.9,-191.99 1305.42,-193.539 1314.58,-198.864 1315.9,-191.99"/>
</g>
<!-- Node27 -->
<g id="node27" class="node"><title>Node27</title>
<g id="a_node27"><a xlink:href="../../db/d19/classslogo_1_1_u_i_1_1_module_creation_helper.html#a9fd730f7c1860d34bf4ac46c3828bd59" target="_top" xlink:title="slogo.UI.ModuleCreationHelper.activate\lStepIntoButton">
<polygon fill="white" stroke="black" points="1144.5,-49 1144.5,-79 1349.5,-79 1349.5,-49 1144.5,-49"/>
<text text-anchor="start" x="1152.5" y="-67" font-family="Helvetica,sans-Serif" font-size="10.00">slogo.UI.ModuleCreationHelper.activate</text>
<text text-anchor="middle" x="1247" y="-56" font-family="Helvetica,sans-Serif" font-size="10.00">StepIntoButton</text>
</a>
</g>
</g>
<!-- Node26&#45;&gt;Node27 -->
<g id="edge34" class="edge"><title>Node26&#45;&gt;Node27</title>
<path fill="none" stroke="midnightblue" d="M1115.33,-64C1124.82,-64 1134.54,-64 1144.17,-64"/>
<polygon fill="midnightblue" stroke="midnightblue" points="1115.14,-60.5001 1105.14,-64 1115.14,-67.5001 1115.14,-60.5001"/>
</g>
<!-- Node28 -->
<g id="node28" class="node"><title>Node28</title>
<g id="a_node28"><a xlink:href="../../db/d19/classslogo_1_1_u_i_1_1_module_creation_helper.html#a4a6f1f009507c25be8c7c28cbba35f3b" target="_top" xlink:title="slogo.UI.ModuleCreationHelper.create\lDebugStepIntoButton">
<polygon fill="white" stroke="black" points="1390.5,-49 1390.5,-79 1587.5,-79 1587.5,-49 1390.5,-49"/>
<text text-anchor="start" x="1398.5" y="-67" font-family="Helvetica,sans-Serif" font-size="10.00">slogo.UI.ModuleCreationHelper.create</text>
<text text-anchor="middle" x="1489" y="-56" font-family="Helvetica,sans-Serif" font-size="10.00">DebugStepIntoButton</text>
</a>
</g>
</g>
<!-- Node27&#45;&gt;Node28 -->
<g id="edge35" class="edge"><title>Node27&#45;&gt;Node28</title>
<path fill="none" stroke="midnightblue" d="M1359.89,-64C1370.04,-64 1380.26,-64 1390.27,-64"/>
<polygon fill="midnightblue" stroke="midnightblue" points="1359.78,-60.5001 1349.78,-64 1359.78,-67.5001 1359.78,-60.5001"/>
</g>
<!-- Node29 -->
<g id="node29" class="node"><title>Node29</title>
<g id="a_node29"><a xlink:href="../../db/d19/classslogo_1_1_u_i_1_1_module_creation_helper.html#a975af4ea47dc85df72215bdf1a0d20ce" target="_top" xlink:title="slogo.UI.ModuleCreationHelper.create\lDebugModules">
<polygon fill="white" stroke="black" points="1632.5,-38 1632.5,-68 1829.5,-68 1829.5,-38 1632.5,-38"/>
<text text-anchor="start" x="1640.5" y="-56" font-family="Helvetica,sans-Serif" font-size="10.00">slogo.UI.ModuleCreationHelper.create</text>
<text text-anchor="middle" x="1731" y="-45" font-family="Helvetica,sans-Serif" font-size="10.00">DebugModules</text>
</a>
</g>
</g>
<!-- Node28&#45;&gt;Node29 -->
<g id="edge36" class="edge"><title>Node28&#45;&gt;Node29</title>
<path fill="none" stroke="midnightblue" d="M1597.73,-59.0622C1609.3,-58.5319 1621.03,-57.9945 1632.47,-57.4702"/>
<polygon fill="midnightblue" stroke="midnightblue" points="1597.45,-55.5716 1587.62,-59.5259 1597.77,-62.5643 1597.45,-55.5716"/>
</g>
<!-- Node29&#45;&gt;Node10 -->
<g id="edge37" class="edge"><title>Node29&#45;&gt;Node10</title>
<path fill="none" stroke="midnightblue" d="M1839.63,-48.679C1908.53,-48.779 1999.11,-54.2973 2076,-77 2119.33,-89.7936 2164.2,-118.228 2189.46,-135.889"/>
<polygon fill="midnightblue" stroke="midnightblue" points="1839.61,-45.1789 1829.62,-48.7021 1839.63,-52.1789 1839.61,-45.1789"/>
</g>
<!-- Node31 -->
<g id="node31" class="node"><title>Node31</title>
<g id="a_node31"><a xlink:href="../../db/d19/classslogo_1_1_u_i_1_1_module_creation_helper.html#a0fed0bb32bf2643d6fd5c24d82e8e18e" target="_top" xlink:title="slogo.UI.ModuleCreationHelper.activate\lStepOverButton">
<polygon fill="white" stroke="black" points="1144.5,-0 1144.5,-30 1349.5,-30 1349.5,-0 1144.5,-0"/>
<text text-anchor="start" x="1152.5" y="-18" font-family="Helvetica,sans-Serif" font-size="10.00">slogo.UI.ModuleCreationHelper.activate</text>
<text text-anchor="middle" x="1247" y="-7" font-family="Helvetica,sans-Serif" font-size="10.00">StepOverButton</text>
</a>
</g>
</g>
<!-- Node30&#45;&gt;Node31 -->
<g id="edge39" class="edge"><title>Node30&#45;&gt;Node31</title>
<path fill="none" stroke="midnightblue" d="M1117.8,-18.5123C1126.56,-18.2724 1135.48,-18.028 1144.33,-17.7856"/>
<polygon fill="midnightblue" stroke="midnightblue" points="1117.51,-15.0187 1107.61,-18.7914 1117.71,-22.0161 1117.51,-15.0187"/>
</g>
<!-- Node32 -->
<g id="node32" class="node"><title>Node32</title>
<g id="a_node32"><a xlink:href="../../db/d19/classslogo_1_1_u_i_1_1_module_creation_helper.html#aa1e7dc2b509360583790fba0d3819c8d" target="_top" xlink:title="slogo.UI.ModuleCreationHelper.create\lDebugStepOverButton">
<polygon fill="white" stroke="black" points="1390.5,-0 1390.5,-30 1587.5,-30 1587.5,-0 1390.5,-0"/>
<text text-anchor="start" x="1398.5" y="-18" font-family="Helvetica,sans-Serif" font-size="10.00">slogo.UI.ModuleCreationHelper.create</text>
<text text-anchor="middle" x="1489" y="-7" font-family="Helvetica,sans-Serif" font-size="10.00">DebugStepOverButton</text>
</a>
</g>
</g>
<!-- Node31&#45;&gt;Node32 -->
<g id="edge40" class="edge"><title>Node31&#45;&gt;Node32</title>
<path fill="none" stroke="midnightblue" d="M1359.89,-15C1370.04,-15 1380.26,-15 1390.27,-15"/>
<polygon fill="midnightblue" stroke="midnightblue" points="1359.78,-11.5001 1349.78,-15 1359.78,-18.5001 1359.78,-11.5001"/>
</g>
<!-- Node32&#45;&gt;Node29 -->
<g id="edge41" class="edge"><title>Node32&#45;&gt;Node29</title>
<path fill="none" stroke="midnightblue" d="M1594.99,-31.6227C1608.31,-33.7329 1621.89,-35.8827 1635.05,-37.966"/>
<polygon fill="midnightblue" stroke="midnightblue" points="1595.28,-28.1256 1584.85,-30.0186 1594.18,-35.0395 1595.28,-28.1256"/>
</g>
</g>
</svg>
