<?xml version="1.0" encoding="UTF-8" standalone="no"?>
<!DOCTYPE svg PUBLIC "-//W3C//DTD SVG 1.1//EN"
 "http://www.w3.org/Graphics/SVG/1.1/DTD/svg11.dtd">
<!-- Generated by graphviz version 2.36.0 (20140111.2315)
 -->
<!-- Title: slogo.UI.MethodRunner.setPenColor Pages: 1 -->
<svg width="370pt" height="273pt"
 viewBox="0.00 0.00 370.00 273.00" xmlns="http://www.w3.org/2000/svg" xmlns:xlink="http://www.w3.org/1999/xlink">
<g id="graph0" class="graph" transform="scale(1 1) rotate(0) translate(4 269)">
<title>slogo.UI.MethodRunner.setPenColor</title>
<polygon fill="white" stroke="none" points="-4,4 -4,-269 366,-269 366,4 -4,4"/>
<!-- Node1 -->
<g id="node1" class="node"><title>Node1</title>
<polygon fill="#bfbfbf" stroke="black" points="0,-120 0,-150 144,-150 144,-120 0,-120"/>
<text text-anchor="start" x="8" y="-138" font-family="Helvetica,sans-Serif" font-size="10.00">slogo.UI.MethodRunner.set</text>
<text text-anchor="middle" x="72" y="-127" font-family="Helvetica,sans-Serif" font-size="10.00">PenColor</text>
</g>
<!-- Node2 -->
<g id="node2" class="node"><title>Node2</title>
<g id="a_node2"><a xlink:href="../../db/d19/classslogo_1_1_u_i_1_1_module_creation_helper.html#a679f75316f738921f1b09d44408dcf56" target="_top" xlink:title="slogo.UI.ModuleCreationHelper.get\lPathColorSelector">
<polygon fill="white" stroke="black" points="180,-235 180,-265 362,-265 362,-235 180,-235"/>
<text text-anchor="start" x="188" y="-253" font-family="Helvetica,sans-Serif" font-size="10.00">slogo.UI.ModuleCreationHelper.get</text>
<text text-anchor="middle" x="271" y="-242" font-family="Helvetica,sans-Serif" font-size="10.00">PathColorSelector</text>
</a>
</g>
</g>
<!-- Node1&#45;&gt;Node2 -->
<g id="edge1" class="edge"><title>Node1&#45;&gt;Node2</title>
<path fill="none" stroke="midnightblue" d="M86.7449,-150.037C105.805,-170.009 142.207,-205.078 180,-225 184.259,-227.245 188.74,-229.306 193.335,-231.194"/>
<polygon fill="midnightblue" stroke="midnightblue" points="192.301,-234.546 202.892,-234.834 194.792,-228.004 192.301,-234.546"/>
</g>
<!-- Node3 -->
<g id="node3" class="node"><title>Node3</title>
<g id="a_node3"><a xlink:href="../../d1/d5f/classslogo_1_1_u_i_1_1_path_color_selector.html#a8e21a21c10f5c90a4b3b91e8366f7bec" target="_top" xlink:title="slogo.UI.PathColorSelector.get\lValue">
<polygon fill="white" stroke="black" points="190.5,-186 190.5,-216 351.5,-216 351.5,-186 190.5,-186"/>
<text text-anchor="start" x="198.5" y="-204" font-family="Helvetica,sans-Serif" font-size="10.00">slogo.UI.PathColorSelector.get</text>
<text text-anchor="middle" x="271" y="-193" font-family="Helvetica,sans-Serif" font-size="10.00">Value</text>
</a>
</g>
</g>
<!-- Node1&#45;&gt;Node3 -->
<g id="edge2" class="edge"><title>Node1&#45;&gt;Node3</title>
<path fill="none" stroke="midnightblue" d="M109.828,-150.105C130.319,-158.257 156.383,-168.215 180,-176 187.364,-178.427 195.116,-180.82 202.856,-183.107"/>
<polygon fill="midnightblue" stroke="midnightblue" points="202.042,-186.515 212.621,-185.94 203.993,-179.792 202.042,-186.515"/>
</g>
<!-- Node4 -->
<g id="node4" class="node"><title>Node4</title>
<g id="a_node4"><a xlink:href="../../d5/deb/classslogo_1_1_u_i_1_1_turtle.html#adbb65a7625e7af0506d67eedfd0e29d1" target="_top" xlink:title="slogo.UI.Turtle.setColor">
<polygon fill="white" stroke="black" points="208,-147.5 208,-166.5 334,-166.5 334,-147.5 208,-147.5"/>
<text text-anchor="middle" x="271" y="-154.5" font-family="Helvetica,sans-Serif" font-size="10.00">slogo.UI.Turtle.setColor</text>
</a>
</g>
</g>
<!-- Node1&#45;&gt;Node4 -->
<g id="edge3" class="edge"><title>Node1&#45;&gt;Node4</title>
<path fill="none" stroke="midnightblue" d="M144.122,-142.943C161.534,-144.887 180.187,-146.97 197.656,-148.921"/>
<polygon fill="midnightblue" stroke="midnightblue" points="197.46,-152.421 207.786,-150.052 198.237,-145.464 197.46,-152.421"/>
</g>
<!-- Node5 -->
<g id="node5" class="node"><title>Node5</title>
<g id="a_node5"><a xlink:href="../../d1/d5f/classslogo_1_1_u_i_1_1_path_color_selector.html#af047702ce66a0988002651ec8c039af0" target="_top" xlink:title="slogo.UI.PathColorSelector.set\lValue">
<polygon fill="white" stroke="black" points="190.5,-98 190.5,-128 351.5,-128 351.5,-98 190.5,-98"/>
<text text-anchor="start" x="198.5" y="-116" font-family="Helvetica,sans-Serif" font-size="10.00">slogo.UI.PathColorSelector.set</text>
<text text-anchor="middle" x="271" y="-105" font-family="Helvetica,sans-Serif" font-size="10.00">Value</text>
</a>
</g>
</g>
<!-- Node1&#45;&gt;Node5 -->
<g id="edge4" class="edge"><title>Node1&#45;&gt;Node5</title>
<path fill="none" stroke="midnightblue" d="M144.122,-127.057C155.831,-125.75 168.102,-124.379 180.197,-123.029"/>
<polygon fill="midnightblue" stroke="midnightblue" points="180.749,-126.489 190.298,-121.901 179.972,-119.532 180.749,-126.489"/>
</g>
<!-- Node6 -->
<g id="node6" class="node"><title>Node6</title>
<g id="a_node6"><a xlink:href="../../d2/d25/classslogo_1_1backend_1_1impl_1_1util_1_1_qualities.html#acd8e6cd4cebb1e207a1731a47a262579" target="_top" xlink:title="slogo.backend.impl.util.\lQualities.toColor">
<polygon fill="white" stroke="black" points="206.5,-49 206.5,-79 335.5,-79 335.5,-49 206.5,-49"/>
<text text-anchor="start" x="214.5" y="-67" font-family="Helvetica,sans-Serif" font-size="10.00">slogo.backend.impl.util.</text>
<text text-anchor="middle" x="271" y="-56" font-family="Helvetica,sans-Serif" font-size="10.00">Qualities.toColor</text>
</a>
</g>
</g>
<!-- Node1&#45;&gt;Node6 -->
<g id="edge5" class="edge"><title>Node1&#45;&gt;Node6</title>
<path fill="none" stroke="midnightblue" d="M104.859,-119.96C125.904,-110.361 154.251,-98.0643 180,-89 186.836,-86.5937 194.027,-84.2656 201.242,-82.0619"/>
<polygon fill="midnightblue" stroke="midnightblue" points="202.478,-85.3458 211.064,-79.1382 200.481,-78.6367 202.478,-85.3458"/>
</g>
<!-- Node7 -->
<g id="node7" class="node"><title>Node7</title>
<g id="a_node7"><a xlink:href="../../da/dce/interfaceslogo_1_1backend_1_1util_1_1_i_turtle_status.html#ab3f3312b9c4289ea7750dbcaa91819eb" target="_top" xlink:title="slogo.backend.util.ITurtle\lStatus.turtleQualities">
<polygon fill="white" stroke="black" points="204,-0 204,-30 338,-30 338,-0 204,-0"/>
<text text-anchor="start" x="212" y="-18" font-family="Helvetica,sans-Serif" font-size="10.00">slogo.backend.util.ITurtle</text>
<text text-anchor="middle" x="271" y="-7" font-family="Helvetica,sans-Serif" font-size="10.00">Status.turtleQualities</text>
</a>
</g>
</g>
<!-- Node1&#45;&gt;Node7 -->
<g id="edge6" class="edge"><title>Node1&#45;&gt;Node7</title>
<path fill="none" stroke="midnightblue" d="M85.9306,-119.804C104.604,-98.8115 141.163,-61.1412 180,-40 184.513,-37.5432 189.288,-35.3115 194.191,-33.2869"/>
<polygon fill="midnightblue" stroke="midnightblue" points="195.645,-36.4782 203.741,-29.644 193.15,-29.9379 195.645,-36.4782"/>
</g>
</g>
</svg>
