<?xml version="1.0" encoding="UTF-8" standalone="no"?>
<!DOCTYPE svg PUBLIC "-//W3C//DTD SVG 1.1//EN"
 "http://www.w3.org/Graphics/SVG/1.1/DTD/svg11.dtd">
<!-- Generated by graphviz version 2.36.0 (20140111.2315)
 -->
<!-- Title: slogo.UI.MethodRunner.setPenAttributes Pages: 1 -->
<svg width="2736pt" height="427pt"
 viewBox="0.00 0.00 2736.00 427.00" xmlns="http://www.w3.org/2000/svg" xmlns:xlink="http://www.w3.org/1999/xlink">
<g id="graph0" class="graph" transform="scale(1 1) rotate(0) translate(4 423)">
<title>slogo.UI.MethodRunner.setPenAttributes</title>
<polygon fill="white" stroke="none" points="-4,4 -4,-423 2732,-423 2732,4 -4,4"/>
<!-- Node1 -->
<g id="node1" class="node"><title>Node1</title>
<polygon fill="#bfbfbf" stroke="black" points="0,-49 0,-79 144,-79 144,-49 0,-49"/>
<text text-anchor="start" x="8" y="-67" font-family="Helvetica,sans-Serif" font-size="10.00">slogo.UI.MethodRunner.set</text>
<text text-anchor="middle" x="72" y="-56" font-family="Helvetica,sans-Serif" font-size="10.00">PenAttributes</text>
</g>
<!-- Node2 -->
<g id="node2" class="node"><title>Node2</title>
<g id="a_node2"><a xlink:href="../../d9/d7e/classslogo_1_1_u_i_1_1_method_runner.html#a5fe4a6310ba1b0851d7d30a440511324" target="_top" xlink:title="slogo.UI.MethodRunner.change\lTurtle">
<polygon fill="white" stroke="black" points="180,-49 180,-79 344,-79 344,-49 180,-49"/>
<text text-anchor="start" x="188" y="-67" font-family="Helvetica,sans-Serif" font-size="10.00">slogo.UI.MethodRunner.change</text>
<text text-anchor="middle" x="262" y="-56" font-family="Helvetica,sans-Serif" font-size="10.00">Turtle</text>
</a>
</g>
</g>
<!-- Node1&#45;&gt;Node2 -->
<g id="edge1" class="edge"><title>Node1&#45;&gt;Node2</title>
<path fill="none" stroke="midnightblue" d="M154.28,-64C162.719,-64 171.298,-64 179.736,-64"/>
<polygon fill="midnightblue" stroke="midnightblue" points="154.075,-60.5001 144.075,-64 154.075,-67.5001 154.075,-60.5001"/>
</g>
<!-- Node3 -->
<g id="node3" class="node"><title>Node3</title>
<g id="a_node3"><a xlink:href="../../df/d2d/classslogo_1_1_view.html#accc79c56511a72090ff8a4d414b8d1f5" target="_top" xlink:title="slogo.View.executeTurtle\lCommands">
<polygon fill="white" stroke="black" points="380.5,-49 380.5,-79 513.5,-79 513.5,-49 380.5,-49"/>
<text text-anchor="start" x="388.5" y="-67" font-family="Helvetica,sans-Serif" font-size="10.00">slogo.View.executeTurtle</text>
<text text-anchor="middle" x="447" y="-56" font-family="Helvetica,sans-Serif" font-size="10.00">Commands</text>
</a>
</g>
</g>
<!-- Node2&#45;&gt;Node3 -->
<g id="edge2" class="edge"><title>Node2&#45;&gt;Node3</title>
<path fill="none" stroke="midnightblue" d="M354.35,-64C363.128,-64 371.907,-64 380.365,-64"/>
<polygon fill="midnightblue" stroke="midnightblue" points="354.066,-60.5001 344.066,-64 354.066,-67.5001 354.066,-60.5001"/>
</g>
<!-- Node4 -->
<g id="node4" class="node"><title>Node4</title>
<g id="a_node4"><a xlink:href="../../df/d2d/classslogo_1_1_view.html#aa90e5d95d422b58b7f4b7f8a049defe1" target="_top" xlink:title="slogo.View.executeCommand">
<polygon fill="white" stroke="black" points="550,-54.5 550,-73.5 708,-73.5 708,-54.5 550,-54.5"/>
<text text-anchor="middle" x="629" y="-61.5" font-family="Helvetica,sans-Serif" font-size="10.00">slogo.View.executeCommand</text>
</a>
</g>
</g>
<!-- Node3&#45;&gt;Node4 -->
<g id="edge3" class="edge"><title>Node3&#45;&gt;Node4</title>
<path fill="none" stroke="midnightblue" d="M523.784,-64C532.42,-64 541.235,-64 549.901,-64"/>
<polygon fill="midnightblue" stroke="midnightblue" points="523.748,-60.5001 513.748,-64 523.748,-67.5001 523.748,-60.5001"/>
</g>
<!-- Node5 -->
<g id="node5" class="node"><title>Node5</title>
<g id="a_node5"><a xlink:href="../../df/d2d/classslogo_1_1_view.html#aee563f6a0b15ac6668e4dcbdad40c73c" target="_top" xlink:title="slogo.View.sendCommandTo\lBackend">
<polygon fill="white" stroke="black" points="750,-213 750,-243 902,-243 902,-213 750,-213"/>
<text text-anchor="start" x="758" y="-231" font-family="Helvetica,sans-Serif" font-size="10.00">slogo.View.sendCommandTo</text>
<text text-anchor="middle" x="826" y="-220" font-family="Helvetica,sans-Serif" font-size="10.00">Backend</text>
</a>
</g>
</g>
<!-- Node4&#45;&gt;Node5 -->
<g id="edge4" class="edge"><title>Node4&#45;&gt;Node5</title>
<path fill="none" stroke="midnightblue" d="M649.054,-80.0252C686.765,-111.741 770.433,-182.108 807.146,-212.984"/>
<polygon fill="midnightblue" stroke="midnightblue" points="651.233,-77.2841 641.327,-73.5262 646.727,-82.6414 651.233,-77.2841"/>
</g>
<!-- Node25 -->
<g id="node25" class="node"><title>Node25</title>
<g id="a_node25"><a xlink:href="../../df/d2d/classslogo_1_1_view.html#a4c3084a198acf85804800d70eff9ee51" target="_top" xlink:title="slogo.View.stepIntoCommand">
<polygon fill="white" stroke="black" points="747,-54.5 747,-73.5 905,-73.5 905,-54.5 747,-54.5"/>
<text text-anchor="middle" x="826" y="-61.5" font-family="Helvetica,sans-Serif" font-size="10.00">slogo.View.stepIntoCommand</text>
</a>
</g>
</g>
<!-- Node4&#45;&gt;Node25 -->
<g id="edge32" class="edge"><title>Node4&#45;&gt;Node25</title>
<path fill="none" stroke="midnightblue" d="M718.402,-64C727.87,-64 737.454,-64 746.792,-64"/>
<polygon fill="midnightblue" stroke="midnightblue" points="718.19,-60.5001 708.19,-64 718.19,-67.5001 718.19,-60.5001"/>
</g>
<!-- Node29 -->
<g id="node29" class="node"><title>Node29</title>
<g id="a_node29"><a xlink:href="../../df/d2d/classslogo_1_1_view.html#ac8b7f574c679e744a430f1649dc55e68" target="_top" xlink:title="slogo.View.stepOverCommand">
<polygon fill="white" stroke="black" points="744.5,-11.5 744.5,-30.5 907.5,-30.5 907.5,-11.5 744.5,-11.5"/>
<text text-anchor="middle" x="826" y="-18.5" font-family="Helvetica,sans-Serif" font-size="10.00">slogo.View.stepOverCommand</text>
</a>
</g>
</g>
<!-- Node4&#45;&gt;Node29 -->
<g id="edge37" class="edge"><title>Node4&#45;&gt;Node29</title>
<path fill="none" stroke="midnightblue" d="M683.056,-52.3005C714.068,-45.462 752.711,-36.9406 781.844,-30.5164"/>
<polygon fill="midnightblue" stroke="midnightblue" points="682.288,-48.8855 673.277,-54.4569 683.796,-55.7213 682.288,-48.8855"/>
</g>
<!-- Node6 -->
<g id="node6" class="node"><title>Node6</title>
<g id="a_node6"><a xlink:href="../../db/d19/classslogo_1_1_u_i_1_1_module_creation_helper.html#a69e17abcc7cf9a6ed7261d8fb1d631fa" target="_top" xlink:title="slogo.UI.ModuleCreationHelper.activate\lIncreaseDecreaseButtons">
<polygon fill="white" stroke="black" points="944.5,-389 944.5,-419 1149.5,-419 1149.5,-389 944.5,-389"/>
<text text-anchor="start" x="952.5" y="-407" font-family="Helvetica,sans-Serif" font-size="10.00">slogo.UI.ModuleCreationHelper.activate</text>
<text text-anchor="middle" x="1047" y="-396" font-family="Helvetica,sans-Serif" font-size="10.00">IncreaseDecreaseButtons</text>
</a>
</g>
</g>
<!-- Node5&#45;&gt;Node6 -->
<g id="edge5" class="edge"><title>Node5&#45;&gt;Node6</title>
<path fill="none" stroke="midnightblue" d="M840.043,-252.219C858.779,-284.724 896.363,-342.06 944,-374 953.122,-380.116 963.514,-385.01 974.092,-388.919"/>
<polygon fill="midnightblue" stroke="midnightblue" points="843.013,-250.361 835.054,-243.368 836.915,-253.798 843.013,-250.361"/>
</g>
<!-- Node13 -->
<g id="node13" class="node"><title>Node13</title>
<g id="a_node13"><a xlink:href="../../db/d19/classslogo_1_1_u_i_1_1_module_creation_helper.html#aa70b0ad9e90e62509149bfd2ef2ba209" target="_top" xlink:title="slogo.UI.ModuleCreationHelper.activate\lKeyEvents">
<polygon fill="white" stroke="black" points="1670.5,-136 1670.5,-166 1875.5,-166 1875.5,-136 1670.5,-136"/>
<text text-anchor="start" x="1678.5" y="-154" font-family="Helvetica,sans-Serif" font-size="10.00">slogo.UI.ModuleCreationHelper.activate</text>
<text text-anchor="middle" x="1773" y="-143" font-family="Helvetica,sans-Serif" font-size="10.00">KeyEvents</text>
</a>
</g>
</g>
<!-- Node5&#45;&gt;Node13 -->
<g id="edge13" class="edge"><title>Node5&#45;&gt;Node13</title>
<path fill="none" stroke="midnightblue" d="M856.179,-207.164C878.902,-192.251 911.88,-173.388 944,-165 1078.15,-129.97 1480.16,-139.777 1670.26,-146.744"/>
<polygon fill="midnightblue" stroke="midnightblue" points="854.049,-204.378 847.699,-212.86 857.952,-210.189 854.049,-204.378"/>
</g>
<!-- Node14 -->
<g id="node14" class="node"><title>Node14</title>
<g id="a_node14"><a xlink:href="../../db/d19/classslogo_1_1_u_i_1_1_module_creation_helper.html#a2e841243ec3ca474e8822102343acc88" target="_top" xlink:title="slogo.UI.ModuleCreationHelper.activate\lNewTurtleButton">
<polygon fill="white" stroke="black" points="1186.5,-344 1186.5,-374 1391.5,-374 1391.5,-344 1186.5,-344"/>
<text text-anchor="start" x="1194.5" y="-362" font-family="Helvetica,sans-Serif" font-size="10.00">slogo.UI.ModuleCreationHelper.activate</text>
<text text-anchor="middle" x="1289" y="-351" font-family="Helvetica,sans-Serif" font-size="10.00">NewTurtleButton</text>
</a>
</g>
</g>
<!-- Node5&#45;&gt;Node14 -->
<g id="edge15" class="edge"><title>Node5&#45;&gt;Node14</title>
<path fill="none" stroke="midnightblue" d="M843.021,-251.155C863.099,-278.009 900.24,-321.013 944,-340 1020.41,-373.152 1115.47,-375.86 1186.29,-371.435"/>
<polygon fill="midnightblue" stroke="midnightblue" points="845.834,-249.073 837.115,-243.055 840.178,-253.197 845.834,-249.073"/>
</g>
<!-- Node16 -->
<g id="node16" class="node"><title>Node16</title>
<g id="a_node16"><a xlink:href="../../db/d19/classslogo_1_1_u_i_1_1_module_creation_helper.html#a9b1f07ab673191067907a059b1b0c524" target="_top" xlink:title="slogo.UI.ModuleCreationHelper.activate\lPlayButton">
<polygon fill="white" stroke="black" points="944.5,-301 944.5,-331 1149.5,-331 1149.5,-301 944.5,-301"/>
<text text-anchor="start" x="952.5" y="-319" font-family="Helvetica,sans-Serif" font-size="10.00">slogo.UI.ModuleCreationHelper.activate</text>
<text text-anchor="middle" x="1047" y="-308" font-family="Helvetica,sans-Serif" font-size="10.00">PlayButton</text>
</a>
</g>
</g>
<!-- Node5&#45;&gt;Node16 -->
<g id="edge18" class="edge"><title>Node5&#45;&gt;Node16</title>
<path fill="none" stroke="midnightblue" d="M859.42,-248.354C882.332,-262.006 914.156,-279.522 944,-291 953.7,-294.73 964.137,-298.039 974.502,-300.929"/>
<polygon fill="midnightblue" stroke="midnightblue" points="861.162,-245.317 850.792,-243.145 857.544,-251.31 861.162,-245.317"/>
</g>
<!-- Node19 -->
<g id="node19" class="node"><title>Node19</title>
<g id="a_node19"><a xlink:href="../../db/d19/classslogo_1_1_u_i_1_1_module_creation_helper.html#a3a38d485562cb17591ec3fd07cffc18a" target="_top" xlink:title="slogo.UI.ModuleCreationHelper.activate\lTurtleCanvas">
<polygon fill="white" stroke="black" points="1428.5,-87 1428.5,-117 1633.5,-117 1633.5,-87 1428.5,-87"/>
<text text-anchor="start" x="1436.5" y="-105" font-family="Helvetica,sans-Serif" font-size="10.00">slogo.UI.ModuleCreationHelper.activate</text>
<text text-anchor="middle" x="1531" y="-94" font-family="Helvetica,sans-Serif" font-size="10.00">TurtleCanvas</text>
</a>
</g>
</g>
<!-- Node5&#45;&gt;Node19 -->
<g id="edge22" class="edge"><title>Node5&#45;&gt;Node19</title>
<path fill="none" stroke="midnightblue" d="M846.366,-205.232C867.633,-182.064 904.105,-147.434 944,-132 1029.51,-98.92 1284.48,-97.5272 1428.33,-99.6157"/>
<polygon fill="midnightblue" stroke="midnightblue" points="843.563,-203.115 839.497,-212.898 848.777,-207.786 843.563,-203.115"/>
</g>
<!-- Node21 -->
<g id="node21" class="node"><title>Node21</title>
<g id="a_node21"><a xlink:href="../../d1/d5f/classslogo_1_1_u_i_1_1_path_color_selector.html#ad3d9c82a0904c97edcec7cf67b85bd7b" target="_top" xlink:title="slogo.UI.PathColorSelector.create">
<polygon fill="white" stroke="black" points="959,-262.5 959,-281.5 1135,-281.5 1135,-262.5 959,-262.5"/>
<text text-anchor="middle" x="1047" y="-269.5" font-family="Helvetica,sans-Serif" font-size="10.00">slogo.UI.PathColorSelector.create</text>
</a>
</g>
</g>
<!-- Node5&#45;&gt;Node21 -->
<g id="edge25" class="edge"><title>Node5&#45;&gt;Node21</title>
<path fill="none" stroke="midnightblue" d="M909.739,-245.065C921.243,-247.411 932.914,-249.776 944,-252 961.251,-255.46 980.157,-259.186 996.955,-262.473"/>
<polygon fill="midnightblue" stroke="midnightblue" points="910.189,-241.585 899.69,-243.013 908.788,-248.443 910.189,-241.585"/>
</g>
<!-- Node23 -->
<g id="node23" class="node"><title>Node23</title>
<g id="a_node23"><a xlink:href="../../d4/d8d/classslogo_1_1_u_i_1_1_background_color_selector.html#ad75ba4ce104e071811d0fe039a4e839f" target="_top" xlink:title="slogo.UI.BackgroundColor\lSelector.create">
<polygon fill="white" stroke="black" points="977,-213 977,-243 1117,-243 1117,-213 977,-213"/>
<text text-anchor="start" x="985" y="-231" font-family="Helvetica,sans-Serif" font-size="10.00">slogo.UI.BackgroundColor</text>
<text text-anchor="middle" x="1047" y="-220" font-family="Helvetica,sans-Serif" font-size="10.00">Selector.create</text>
</a>
</g>
</g>
<!-- Node5&#45;&gt;Node23 -->
<g id="edge28" class="edge"><title>Node5&#45;&gt;Node23</title>
<path fill="none" stroke="midnightblue" d="M912.142,-228C933.597,-228 956.367,-228 976.925,-228"/>
<polygon fill="midnightblue" stroke="midnightblue" points="912.061,-224.5 902.061,-228 912.061,-231.5 912.061,-224.5"/>
</g>
<!-- Node24 -->
<g id="node24" class="node"><title>Node24</title>
<g id="a_node24"><a xlink:href="../../dd/da7/classslogo_1_1_u_i_1_1_turtle_image_selector.html#a3f268d9196ffebcbb5dc322d2897a9fe" target="_top" xlink:title="slogo.UI.TurtleImageSelector.create">
<polygon fill="white" stroke="black" points="954,-174.5 954,-193.5 1140,-193.5 1140,-174.5 954,-174.5"/>
<text text-anchor="middle" x="1047" y="-181.5" font-family="Helvetica,sans-Serif" font-size="10.00">slogo.UI.TurtleImageSelector.create</text>
</a>
</g>
</g>
<!-- Node5&#45;&gt;Node24 -->
<g id="edge30" class="edge"><title>Node5&#45;&gt;Node24</title>
<path fill="none" stroke="midnightblue" d="M906.012,-210.821C918.704,-208.147 931.705,-205.458 944,-203 959.985,-199.804 977.416,-196.493 993.272,-193.548"/>
<polygon fill="midnightblue" stroke="midnightblue" points="904.977,-207.463 895.919,-212.958 906.427,-214.311 904.977,-207.463"/>
</g>
<!-- Node7 -->
<g id="node7" class="node"><title>Node7</title>
<g id="a_node7"><a xlink:href="../../db/d19/classslogo_1_1_u_i_1_1_module_creation_helper.html#adce7362386f9a7b3006e7db08a2d578d" target="_top" xlink:title="slogo.UI.ModuleCreationHelper.create\lIncreaseDecreaseButtons">
<polygon fill="white" stroke="black" points="1432.5,-380 1432.5,-410 1629.5,-410 1629.5,-380 1432.5,-380"/>
<text text-anchor="start" x="1440.5" y="-398" font-family="Helvetica,sans-Serif" font-size="10.00">slogo.UI.ModuleCreationHelper.create</text>
<text text-anchor="middle" x="1531" y="-387" font-family="Helvetica,sans-Serif" font-size="10.00">IncreaseDecreaseButtons</text>
</a>
</g>
</g>
<!-- Node6&#45;&gt;Node7 -->
<g id="edge6" class="edge"><title>Node6&#45;&gt;Node7</title>
<path fill="none" stroke="midnightblue" d="M1159.79,-401.913C1242.23,-400.373 1353.29,-398.299 1432.21,-396.826"/>
<polygon fill="midnightblue" stroke="midnightblue" points="1159.56,-398.416 1149.63,-402.102 1159.69,-405.415 1159.56,-398.416"/>
</g>
<!-- Node8 -->
<g id="node8" class="node"><title>Node8</title>
<g id="a_node8"><a xlink:href="../../db/d19/classslogo_1_1_u_i_1_1_module_creation_helper.html#a7c650957b2389d6e6d36e8be8a33cd2b" target="_top" xlink:title="slogo.UI.ModuleCreationHelper.create\lSelectorVBoxModules">
<polygon fill="white" stroke="black" points="1674.5,-253 1674.5,-283 1871.5,-283 1871.5,-253 1674.5,-253"/>
<text text-anchor="start" x="1682.5" y="-271" font-family="Helvetica,sans-Serif" font-size="10.00">slogo.UI.ModuleCreationHelper.create</text>
<text text-anchor="middle" x="1773" y="-260" font-family="Helvetica,sans-Serif" font-size="10.00">SelectorVBoxModules</text>
</a>
</g>
</g>
<!-- Node7&#45;&gt;Node8 -->
<g id="edge7" class="edge"><title>Node7&#45;&gt;Node8</title>
<path fill="none" stroke="midnightblue" d="M1615,-376.732C1621.54,-374.424 1627.95,-371.854 1634,-369 1682.6,-346.077 1731.46,-305.079 1755.92,-283.025"/>
<polygon fill="midnightblue" stroke="midnightblue" points="1613.75,-373.461 1605.36,-379.93 1615.95,-380.105 1613.75,-373.461"/>
</g>
<!-- Node9 -->
<g id="node9" class="node"><title>Node9</title>
<g id="a_node9"><a xlink:href="../../db/d19/classslogo_1_1_u_i_1_1_module_creation_helper.html#afb9dbbbad7d872234a5b296fe129a34e" target="_top" xlink:title="slogo.UI.ModuleCreationHelper.create\lMainPageModules">
<polygon fill="white" stroke="black" points="1912.5,-136 1912.5,-166 2109.5,-166 2109.5,-136 1912.5,-136"/>
<text text-anchor="start" x="1920.5" y="-154" font-family="Helvetica,sans-Serif" font-size="10.00">slogo.UI.ModuleCreationHelper.create</text>
<text text-anchor="middle" x="2011" y="-143" font-family="Helvetica,sans-Serif" font-size="10.00">MainPageModules</text>
</a>
</g>
</g>
<!-- Node8&#45;&gt;Node9 -->
<g id="edge8" class="edge"><title>Node8&#45;&gt;Node9</title>
<path fill="none" stroke="midnightblue" d="M1813.58,-248.38C1860.29,-225.222 1936.96,-187.212 1979.37,-166.184"/>
<polygon fill="midnightblue" stroke="midnightblue" points="1811.77,-245.366 1804.37,-252.944 1814.88,-251.638 1811.77,-245.366"/>
</g>
<!-- Node10 -->
<g id="node10" class="node"><title>Node10</title>
<g id="a_node10"><a xlink:href="../../d9/d33/classslogo_1_1_u_i_1_1_main.html#a15b7f2e399ee24d160550993ab737e73" target="_top" xlink:title="slogo.UI.Main.start">
<polygon fill="white" stroke="black" points="2146,-150.5 2146,-169.5 2252,-169.5 2252,-150.5 2146,-150.5"/>
<text text-anchor="middle" x="2199" y="-157.5" font-family="Helvetica,sans-Serif" font-size="10.00">slogo.UI.Main.start</text>
</a>
</g>
</g>
<!-- Node9&#45;&gt;Node10 -->
<g id="edge9" class="edge"><title>Node9&#45;&gt;Node10</title>
<path fill="none" stroke="midnightblue" d="M2119.8,-156.216C2128.76,-156.65 2137.53,-157.074 2145.76,-157.472"/>
<polygon fill="midnightblue" stroke="midnightblue" points="2119.79,-152.712 2109.63,-155.724 2119.45,-159.703 2119.79,-152.712"/>
</g>
<!-- Node11 -->
<g id="node11" class="node"><title>Node11</title>
<g id="a_node11"><a xlink:href="../../db/d19/classslogo_1_1_u_i_1_1_module_creation_helper.html#a3be12a7cc2b8a219db1e296211a2cb88" target="_top" xlink:title="slogo.UI.ModuleCreationHelper.activate\lExtraWorkspaceButton">
<polygon fill="white" stroke="black" points="2288.5,-163 2288.5,-193 2493.5,-193 2493.5,-163 2288.5,-163"/>
<text text-anchor="start" x="2296.5" y="-181" font-family="Helvetica,sans-Serif" font-size="10.00">slogo.UI.ModuleCreationHelper.activate</text>
<text text-anchor="middle" x="2391" y="-170" font-family="Helvetica,sans-Serif" font-size="10.00">ExtraWorkspaceButton</text>
</a>
</g>
</g>
<!-- Node10&#45;&gt;Node11 -->
<g id="edge10" class="edge"><title>Node10&#45;&gt;Node11</title>
<path fill="none" stroke="midnightblue" d="M2262.22,-165.894C2270.63,-166.691 2279.44,-167.526 2288.32,-168.367"/>
<polygon fill="midnightblue" stroke="midnightblue" points="2262.46,-162.401 2252.17,-164.942 2261.79,-169.37 2262.46,-162.401"/>
</g>
<!-- Node12 -->
<g id="node12" class="node"><title>Node12</title>
<g id="a_node12"><a xlink:href="../../db/d19/classslogo_1_1_u_i_1_1_module_creation_helper.html#a702c1ebe24d2857a10c666eb1fcc315d" target="_top" xlink:title="slogo.UI.ModuleCreationHelper.create\lExtraWorkspaceButton">
<polygon fill="white" stroke="black" points="2530.5,-189 2530.5,-219 2727.5,-219 2727.5,-189 2530.5,-189"/>
<text text-anchor="start" x="2538.5" y="-207" font-family="Helvetica,sans-Serif" font-size="10.00">slogo.UI.ModuleCreationHelper.create</text>
<text text-anchor="middle" x="2629" y="-196" font-family="Helvetica,sans-Serif" font-size="10.00">ExtraWorkspaceButton</text>
</a>
</g>
</g>
<!-- Node11&#45;&gt;Node12 -->
<g id="edge11" class="edge"><title>Node11&#45;&gt;Node12</title>
<path fill="none" stroke="midnightblue" d="M2503.77,-190.313C2512.62,-191.289 2521.52,-192.27 2530.27,-193.234"/>
<polygon fill="midnightblue" stroke="midnightblue" points="2504.12,-186.831 2493.8,-189.215 2503.35,-193.789 2504.12,-186.831"/>
</g>
<!-- Node12&#45;&gt;Node8 -->
<g id="edge12" class="edge"><title>Node12&#45;&gt;Node8</title>
<path fill="none" stroke="midnightblue" d="M2520.34,-212.068C2352.9,-224.617 2032.6,-248.62 1871.55,-260.69"/>
<polygon fill="midnightblue" stroke="midnightblue" points="2520.7,-215.551 2530.41,-211.313 2520.18,-208.571 2520.7,-215.551"/>
</g>
<!-- Node13&#45;&gt;Node9 -->
<g id="edge14" class="edge"><title>Node13&#45;&gt;Node9</title>
<path fill="none" stroke="midnightblue" d="M1886.05,-151C1894.81,-151 1903.62,-151 1912.27,-151"/>
<polygon fill="midnightblue" stroke="midnightblue" points="1885.8,-147.5 1875.8,-151 1885.8,-154.5 1885.8,-147.5"/>
</g>
<!-- Node15 -->
<g id="node15" class="node"><title>Node15</title>
<g id="a_node15"><a xlink:href="../../db/d19/classslogo_1_1_u_i_1_1_module_creation_helper.html#a07f5483df317cdf80e8ea2dda5699afa" target="_top" xlink:title="slogo.UI.ModuleCreationHelper.create\lNewTurtleButton">
<polygon fill="white" stroke="black" points="1432.5,-330 1432.5,-360 1629.5,-360 1629.5,-330 1432.5,-330"/>
<text text-anchor="start" x="1440.5" y="-348" font-family="Helvetica,sans-Serif" font-size="10.00">slogo.UI.ModuleCreationHelper.create</text>
<text text-anchor="middle" x="1531" y="-337" font-family="Helvetica,sans-Serif" font-size="10.00">NewTurtleButton</text>
</a>
</g>
</g>
<!-- Node14&#45;&gt;Node15 -->
<g id="edge16" class="edge"><title>Node14&#45;&gt;Node15</title>
<path fill="none" stroke="midnightblue" d="M1401.89,-352.473C1412.04,-351.881 1422.26,-351.285 1432.27,-350.701"/>
<polygon fill="midnightblue" stroke="midnightblue" points="1401.56,-348.986 1391.78,-353.063 1401.97,-355.974 1401.56,-348.986"/>
</g>
<!-- Node15&#45;&gt;Node8 -->
<g id="edge17" class="edge"><title>Node15&#45;&gt;Node8</title>
<path fill="none" stroke="midnightblue" d="M1602.15,-327.309C1612.87,-324.354 1623.76,-321.203 1634,-318 1667.93,-307.387 1705.86,-293.493 1733.35,-283.046"/>
<polygon fill="midnightblue" stroke="midnightblue" points="1601.12,-323.962 1592.39,-329.963 1602.96,-330.717 1601.12,-323.962"/>
</g>
<!-- Node17 -->
<g id="node17" class="node"><title>Node17</title>
<g id="a_node17"><a xlink:href="../../db/d19/classslogo_1_1_u_i_1_1_module_creation_helper.html#a9b3fb38a55b3b7812b4f793afa7a974f" target="_top" xlink:title="slogo.UI.ModuleCreationHelper.create\lPlayButton">
<polygon fill="white" stroke="black" points="1190.5,-295 1190.5,-325 1387.5,-325 1387.5,-295 1190.5,-295"/>
<text text-anchor="start" x="1198.5" y="-313" font-family="Helvetica,sans-Serif" font-size="10.00">slogo.UI.ModuleCreationHelper.create</text>
<text text-anchor="middle" x="1289" y="-302" font-family="Helvetica,sans-Serif" font-size="10.00">PlayButton</text>
</a>
</g>
</g>
<!-- Node16&#45;&gt;Node17 -->
<g id="edge19" class="edge"><title>Node16&#45;&gt;Node17</title>
<path fill="none" stroke="midnightblue" d="M1159.89,-313.203C1170.04,-312.949 1180.26,-312.694 1190.27,-312.443"/>
<polygon fill="midnightblue" stroke="midnightblue" points="1159.69,-309.707 1149.78,-313.455 1159.87,-316.704 1159.69,-309.707"/>
</g>
<!-- Node18 -->
<g id="node18" class="node"><title>Node18</title>
<g id="a_node18"><a xlink:href="../../db/d19/classslogo_1_1_u_i_1_1_module_creation_helper.html#ae1e60d37509c2e5eddcb2a6e70b4f650" target="_top" xlink:title="slogo.UI.ModuleCreationHelper.create\lFirstRowButtons">
<polygon fill="white" stroke="black" points="1432.5,-279 1432.5,-309 1629.5,-309 1629.5,-279 1432.5,-279"/>
<text text-anchor="start" x="1440.5" y="-297" font-family="Helvetica,sans-Serif" font-size="10.00">slogo.UI.ModuleCreationHelper.create</text>
<text text-anchor="middle" x="1531" y="-286" font-family="Helvetica,sans-Serif" font-size="10.00">FirstRowButtons</text>
</a>
</g>
</g>
<!-- Node17&#45;&gt;Node18 -->
<g id="edge20" class="edge"><title>Node17&#45;&gt;Node18</title>
<path fill="none" stroke="midnightblue" d="M1397.73,-302.818C1409.3,-302.046 1421.03,-301.265 1432.47,-300.502"/>
<polygon fill="midnightblue" stroke="midnightblue" points="1397.36,-299.335 1387.62,-303.492 1397.83,-306.319 1397.36,-299.335"/>
</g>
<!-- Node18&#45;&gt;Node8 -->
<g id="edge21" class="edge"><title>Node18&#45;&gt;Node8</title>
<path fill="none" stroke="midnightblue" d="M1639.73,-282.329C1651.3,-281.075 1663.03,-279.805 1674.47,-278.566"/>
<polygon fill="midnightblue" stroke="midnightblue" points="1639.18,-278.868 1629.62,-283.425 1639.94,-285.827 1639.18,-278.868"/>
</g>
<!-- Node20 -->
<g id="node20" class="node"><title>Node20</title>
<g id="a_node20"><a xlink:href="../../db/d19/classslogo_1_1_u_i_1_1_module_creation_helper.html#a803bac6b55bde712b21f2face1eeef81" target="_top" xlink:title="slogo.UI.ModuleCreationHelper.create\lTurtleCanvas">
<polygon fill="white" stroke="black" points="1674.5,-87 1674.5,-117 1871.5,-117 1871.5,-87 1674.5,-87"/>
<text text-anchor="start" x="1682.5" y="-105" font-family="Helvetica,sans-Serif" font-size="10.00">slogo.UI.ModuleCreationHelper.create</text>
<text text-anchor="middle" x="1773" y="-94" font-family="Helvetica,sans-Serif" font-size="10.00">TurtleCanvas</text>
</a>
</g>
</g>
<!-- Node19&#45;&gt;Node20 -->
<g id="edge23" class="edge"><title>Node19&#45;&gt;Node20</title>
<path fill="none" stroke="midnightblue" d="M1643.89,-102C1654.04,-102 1664.26,-102 1674.27,-102"/>
<polygon fill="midnightblue" stroke="midnightblue" points="1643.78,-98.5001 1633.78,-102 1643.78,-105.5 1643.78,-98.5001"/>
</g>
<!-- Node20&#45;&gt;Node9 -->
<g id="edge24" class="edge"><title>Node20&#45;&gt;Node9</title>
<path fill="none" stroke="midnightblue" d="M1856.42,-119.113C1882.9,-124.611 1912.03,-130.658 1937.73,-135.994"/>
<polygon fill="midnightblue" stroke="midnightblue" points="1856.91,-115.641 1846.41,-117.035 1855.49,-122.495 1856.91,-115.641"/>
</g>
<!-- Node22 -->
<g id="node22" class="node"><title>Node22</title>
<g id="a_node22"><a xlink:href="../../db/d19/classslogo_1_1_u_i_1_1_module_creation_helper.html#af7f2919454fdbf6e9d7d912e99634857" target="_top" xlink:title="slogo.UI.ModuleCreationHelper.create\lSelectors">
<polygon fill="white" stroke="black" points="1190.5,-230 1190.5,-260 1387.5,-260 1387.5,-230 1190.5,-230"/>
<text text-anchor="start" x="1198.5" y="-248" font-family="Helvetica,sans-Serif" font-size="10.00">slogo.UI.ModuleCreationHelper.create</text>
<text text-anchor="middle" x="1289" y="-237" font-family="Helvetica,sans-Serif" font-size="10.00">Selectors</text>
</a>
</g>
</g>
<!-- Node21&#45;&gt;Node22 -->
<g id="edge26" class="edge"><title>Node21&#45;&gt;Node22</title>
<path fill="none" stroke="midnightblue" d="M1142.76,-261.339C1158.36,-259.585 1174.54,-257.764 1190.21,-256.002"/>
<polygon fill="midnightblue" stroke="midnightblue" points="1142.16,-257.885 1132.62,-262.481 1142.94,-264.841 1142.16,-257.885"/>
</g>
<!-- Node22&#45;&gt;Node8 -->
<g id="edge27" class="edge"><title>Node22&#45;&gt;Node8</title>
<path fill="none" stroke="midnightblue" d="M1397.74,-250.141C1480.55,-254.092 1593.97,-259.505 1674.19,-263.333"/>
<polygon fill="midnightblue" stroke="midnightblue" points="1397.7,-246.635 1387.54,-249.654 1397.36,-253.627 1397.7,-246.635"/>
</g>
<!-- Node23&#45;&gt;Node22 -->
<g id="edge29" class="edge"><title>Node23&#45;&gt;Node22</title>
<path fill="none" stroke="midnightblue" d="M1127.18,-233.609C1147.4,-235.041 1169.37,-236.597 1190.39,-238.086"/>
<polygon fill="midnightblue" stroke="midnightblue" points="1127.32,-230.11 1117.1,-232.894 1126.82,-237.092 1127.32,-230.11"/>
</g>
<!-- Node24&#45;&gt;Node22 -->
<g id="edge31" class="edge"><title>Node24&#45;&gt;Node22</title>
<path fill="none" stroke="midnightblue" d="M1115.48,-195.473C1127.04,-197.752 1138.9,-200.287 1150,-203 1181.38,-210.673 1216.18,-221.278 1242.98,-229.911"/>
<polygon fill="midnightblue" stroke="midnightblue" points="1115.9,-191.99 1105.42,-193.539 1114.58,-198.864 1115.9,-191.99"/>
</g>
<!-- Node26 -->
<g id="node26" class="node"><title>Node26</title>
<g id="a_node26"><a xlink:href="../../db/d19/classslogo_1_1_u_i_1_1_module_creation_helper.html#a9fd730f7c1860d34bf4ac46c3828bd59" target="_top" xlink:title="slogo.UI.ModuleCreationHelper.activate\lStepIntoButton">
<polygon fill="white" stroke="black" points="944.5,-49 944.5,-79 1149.5,-79 1149.5,-49 944.5,-49"/>
<text text-anchor="start" x="952.5" y="-67" font-family="Helvetica,sans-Serif" font-size="10.00">slogo.UI.ModuleCreationHelper.activate</text>
<text text-anchor="middle" x="1047" y="-56" font-family="Helvetica,sans-Serif" font-size="10.00">StepIntoButton</text>
</a>
</g>
</g>
<!-- Node25&#45;&gt;Node26 -->
<g id="edge33" class="edge"><title>Node25&#45;&gt;Node26</title>
<path fill="none" stroke="midnightblue" d="M915.334,-64C924.824,-64 934.535,-64 944.167,-64"/>
<polygon fill="midnightblue" stroke="midnightblue" points="915.137,-60.5001 905.137,-64 915.136,-67.5001 915.137,-60.5001"/>
</g>
<!-- Node27 -->
<g id="node27" class="node"><title>Node27</title>
<g id="a_node27"><a xlink:href="../../db/d19/classslogo_1_1_u_i_1_1_module_creation_helper.html#a4a6f1f009507c25be8c7c28cbba35f3b" target="_top" xlink:title="slogo.UI.ModuleCreationHelper.create\lDebugStepIntoButton">
<polygon fill="white" stroke="black" points="1190.5,-49 1190.5,-79 1387.5,-79 1387.5,-49 1190.5,-49"/>
<text text-anchor="start" x="1198.5" y="-67" font-family="Helvetica,sans-Serif" font-size="10.00">slogo.UI.ModuleCreationHelper.create</text>
<text text-anchor="middle" x="1289" y="-56" font-family="Helvetica,sans-Serif" font-size="10.00">DebugStepIntoButton</text>
</a>
</g>
</g>
<!-- Node26&#45;&gt;Node27 -->
<g id="edge34" class="edge"><title>Node26&#45;&gt;Node27</title>
<path fill="none" stroke="midnightblue" d="M1159.89,-64C1170.04,-64 1180.26,-64 1190.27,-64"/>
<polygon fill="midnightblue" stroke="midnightblue" points="1159.78,-60.5001 1149.78,-64 1159.78,-67.5001 1159.78,-60.5001"/>
</g>
<!-- Node28 -->
<g id="node28" class="node"><title>Node28</title>
<g id="a_node28"><a xlink:href="../../db/d19/classslogo_1_1_u_i_1_1_module_creation_helper.html#a975af4ea47dc85df72215bdf1a0d20ce" target="_top" xlink:title="slogo.UI.ModuleCreationHelper.create\lDebugModules">
<polygon fill="white" stroke="black" points="1432.5,-38 1432.5,-68 1629.5,-68 1629.5,-38 1432.5,-38"/>
<text text-anchor="start" x="1440.5" y="-56" font-family="Helvetica,sans-Serif" font-size="10.00">slogo.UI.ModuleCreationHelper.create</text>
<text text-anchor="middle" x="1531" y="-45" font-family="Helvetica,sans-Serif" font-size="10.00">DebugModules</text>
</a>
</g>
</g>
<!-- Node27&#45;&gt;Node28 -->
<g id="edge35" class="edge"><title>Node27&#45;&gt;Node28</title>
<path fill="none" stroke="midnightblue" d="M1397.73,-59.0622C1409.3,-58.5319 1421.03,-57.9945 1432.47,-57.4702"/>
<polygon fill="midnightblue" stroke="midnightblue" points="1397.45,-55.5716 1387.62,-59.5259 1397.77,-62.5643 1397.45,-55.5716"/>
</g>
<!-- Node28&#45;&gt;Node9 -->
<g id="edge36" class="edge"><title>Node28&#45;&gt;Node9</title>
<path fill="none" stroke="midnightblue" d="M1639.63,-48.679C1708.53,-48.779 1799.11,-54.2973 1876,-77 1919.33,-89.7936 1964.2,-118.228 1989.46,-135.889"/>
<polygon fill="midnightblue" stroke="midnightblue" points="1639.61,-45.1789 1629.62,-48.7021 1639.63,-52.1789 1639.61,-45.1789"/>
</g>
<!-- Node30 -->
<g id="node30" class="node"><title>Node30</title>
<g id="a_node30"><a xlink:href="../../db/d19/classslogo_1_1_u_i_1_1_module_creation_helper.html#a0fed0bb32bf2643d6fd5c24d82e8e18e" target="_top" xlink:title="slogo.UI.ModuleCreationHelper.activate\lStepOverButton">
<polygon fill="white" stroke="black" points="944.5,-0 944.5,-30 1149.5,-30 1149.5,-0 944.5,-0"/>
<text text-anchor="start" x="952.5" y="-18" font-family="Helvetica,sans-Serif" font-size="10.00">slogo.UI.ModuleCreationHelper.activate</text>
<text text-anchor="middle" x="1047" y="-7" font-family="Helvetica,sans-Serif" font-size="10.00">StepOverButton</text>
</a>
</g>
</g>
<!-- Node29&#45;&gt;Node30 -->
<g id="edge38" class="edge"><title>Node29&#45;&gt;Node30</title>
<path fill="none" stroke="midnightblue" d="M917.803,-18.5123C926.557,-18.2724 935.477,-18.028 944.327,-17.7856"/>
<polygon fill="midnightblue" stroke="midnightblue" points="917.515,-15.0187 907.615,-18.7914 917.707,-22.0161 917.515,-15.0187"/>
</g>
<!-- Node31 -->
<g id="node31" class="node"><title>Node31</title>
<g id="a_node31"><a xlink:href="../../db/d19/classslogo_1_1_u_i_1_1_module_creation_helper.html#aa1e7dc2b509360583790fba0d3819c8d" target="_top" xlink:title="slogo.UI.ModuleCreationHelper.create\lDebugStepOverButton">
<polygon fill="white" stroke="black" points="1190.5,-0 1190.5,-30 1387.5,-30 1387.5,-0 1190.5,-0"/>
<text text-anchor="start" x="1198.5" y="-18" font-family="Helvetica,sans-Serif" font-size="10.00">slogo.UI.ModuleCreationHelper.create</text>
<text text-anchor="middle" x="1289" y="-7" font-family="Helvetica,sans-Serif" font-size="10.00">DebugStepOverButton</text>
</a>
</g>
</g>
<!-- Node30&#45;&gt;Node31 -->
<g id="edge39" class="edge"><title>Node30&#45;&gt;Node31</title>
<path fill="none" stroke="midnightblue" d="M1159.89,-15C1170.04,-15 1180.26,-15 1190.27,-15"/>
<polygon fill="midnightblue" stroke="midnightblue" points="1159.78,-11.5001 1149.78,-15 1159.78,-18.5001 1159.78,-11.5001"/>
</g>
<!-- Node31&#45;&gt;Node28 -->
<g id="edge40" class="edge"><title>Node31&#45;&gt;Node28</title>
<path fill="none" stroke="midnightblue" d="M1394.99,-31.6227C1408.31,-33.7329 1421.89,-35.8827 1435.05,-37.966"/>
<polygon fill="midnightblue" stroke="midnightblue" points="1395.28,-28.1256 1384.85,-30.0186 1394.18,-35.0395 1395.28,-28.1256"/>
</g>
</g>
</svg>
