<?xml version="1.0" encoding="UTF-8" standalone="no"?>
<!DOCTYPE svg PUBLIC "-//W3C//DTD SVG 1.1//EN"
 "http://www.w3.org/Graphics/SVG/1.1/DTD/svg11.dtd">
<!-- Generated by graphviz version 2.36.0 (20140111.2315)
 -->
<!-- Title: slogo.UI.MethodRunner.changeEnvironment Pages: 1 -->
<svg width="2590pt" height="427pt"
 viewBox="0.00 0.00 2590.00 427.00" xmlns="http://www.w3.org/2000/svg" xmlns:xlink="http://www.w3.org/1999/xlink">
<g id="graph0" class="graph" transform="scale(1 1) rotate(0) translate(4 423)">
<title>slogo.UI.MethodRunner.changeEnvironment</title>
<polygon fill="white" stroke="none" points="-4,4 -4,-423 2586,-423 2586,4 -4,4"/>
<!-- Node1 -->
<g id="node1" class="node"><title>Node1</title>
<polygon fill="#bfbfbf" stroke="black" points="0,-49 0,-79 164,-79 164,-49 0,-49"/>
<text text-anchor="start" x="8" y="-67" font-family="Helvetica,sans-Serif" font-size="10.00">slogo.UI.MethodRunner.change</text>
<text text-anchor="middle" x="82" y="-56" font-family="Helvetica,sans-Serif" font-size="10.00">Environment</text>
</g>
<!-- Node2 -->
<g id="node2" class="node"><title>Node2</title>
<g id="a_node2"><a xlink:href="../../df/d2d/classslogo_1_1_view.html#a0784f5391bd3b8cd985450e6902f8451" target="_top" xlink:title="slogo.View.executeEnvironment\lCommands">
<polygon fill="white" stroke="black" points="200,-49 200,-79 368,-79 368,-49 200,-49"/>
<text text-anchor="start" x="208" y="-67" font-family="Helvetica,sans-Serif" font-size="10.00">slogo.View.executeEnvironment</text>
<text text-anchor="middle" x="284" y="-56" font-family="Helvetica,sans-Serif" font-size="10.00">Commands</text>
</a>
</g>
</g>
<!-- Node1&#45;&gt;Node2 -->
<g id="edge1" class="edge"><title>Node1&#45;&gt;Node2</title>
<path fill="none" stroke="midnightblue" d="M174.089,-64C182.681,-64 191.361,-64 199.873,-64"/>
<polygon fill="midnightblue" stroke="midnightblue" points="174.059,-60.5001 164.059,-64 174.059,-67.5001 174.059,-60.5001"/>
</g>
<!-- Node3 -->
<g id="node3" class="node"><title>Node3</title>
<g id="a_node3"><a xlink:href="../../df/d2d/classslogo_1_1_view.html#aa90e5d95d422b58b7f4b7f8a049defe1" target="_top" xlink:title="slogo.View.executeCommand">
<polygon fill="white" stroke="black" points="404,-54.5 404,-73.5 562,-73.5 562,-54.5 404,-54.5"/>
<text text-anchor="middle" x="483" y="-61.5" font-family="Helvetica,sans-Serif" font-size="10.00">slogo.View.executeCommand</text>
</a>
</g>
</g>
<!-- Node2&#45;&gt;Node3 -->
<g id="edge2" class="edge"><title>Node2&#45;&gt;Node3</title>
<path fill="none" stroke="midnightblue" d="M378.517,-64C386.96,-64 395.451,-64 403.742,-64"/>
<polygon fill="midnightblue" stroke="midnightblue" points="378.26,-60.5001 368.26,-64 378.26,-67.5001 378.26,-60.5001"/>
</g>
<!-- Node4 -->
<g id="node4" class="node"><title>Node4</title>
<g id="a_node4"><a xlink:href="../../df/d2d/classslogo_1_1_view.html#aee563f6a0b15ac6668e4dcbdad40c73c" target="_top" xlink:title="slogo.View.sendCommandTo\lBackend">
<polygon fill="white" stroke="black" points="604,-213 604,-243 756,-243 756,-213 604,-213"/>
<text text-anchor="start" x="612" y="-231" font-family="Helvetica,sans-Serif" font-size="10.00">slogo.View.sendCommandTo</text>
<text text-anchor="middle" x="680" y="-220" font-family="Helvetica,sans-Serif" font-size="10.00">Backend</text>
</a>
</g>
</g>
<!-- Node3&#45;&gt;Node4 -->
<g id="edge3" class="edge"><title>Node3&#45;&gt;Node4</title>
<path fill="none" stroke="midnightblue" d="M503.054,-80.0252C540.765,-111.741 624.433,-182.108 661.146,-212.984"/>
<polygon fill="midnightblue" stroke="midnightblue" points="505.233,-77.2841 495.327,-73.5262 500.727,-82.6414 505.233,-77.2841"/>
</g>
<!-- Node24 -->
<g id="node24" class="node"><title>Node24</title>
<g id="a_node24"><a xlink:href="../../df/d2d/classslogo_1_1_view.html#a4c3084a198acf85804800d70eff9ee51" target="_top" xlink:title="slogo.View.stepIntoCommand">
<polygon fill="white" stroke="black" points="601,-54.5 601,-73.5 759,-73.5 759,-54.5 601,-54.5"/>
<text text-anchor="middle" x="680" y="-61.5" font-family="Helvetica,sans-Serif" font-size="10.00">slogo.View.stepIntoCommand</text>
</a>
</g>
</g>
<!-- Node3&#45;&gt;Node24 -->
<g id="edge31" class="edge"><title>Node3&#45;&gt;Node24</title>
<path fill="none" stroke="midnightblue" d="M572.402,-64C581.87,-64 591.454,-64 600.792,-64"/>
<polygon fill="midnightblue" stroke="midnightblue" points="572.19,-60.5001 562.19,-64 572.19,-67.5001 572.19,-60.5001"/>
</g>
<!-- Node28 -->
<g id="node28" class="node"><title>Node28</title>
<g id="a_node28"><a xlink:href="../../df/d2d/classslogo_1_1_view.html#ac8b7f574c679e744a430f1649dc55e68" target="_top" xlink:title="slogo.View.stepOverCommand">
<polygon fill="white" stroke="black" points="598.5,-11.5 598.5,-30.5 761.5,-30.5 761.5,-11.5 598.5,-11.5"/>
<text text-anchor="middle" x="680" y="-18.5" font-family="Helvetica,sans-Serif" font-size="10.00">slogo.View.stepOverCommand</text>
</a>
</g>
</g>
<!-- Node3&#45;&gt;Node28 -->
<g id="edge36" class="edge"><title>Node3&#45;&gt;Node28</title>
<path fill="none" stroke="midnightblue" d="M537.056,-52.3005C568.068,-45.462 606.711,-36.9406 635.844,-30.5164"/>
<polygon fill="midnightblue" stroke="midnightblue" points="536.288,-48.8855 527.277,-54.4569 537.796,-55.7213 536.288,-48.8855"/>
</g>
<!-- Node5 -->
<g id="node5" class="node"><title>Node5</title>
<g id="a_node5"><a xlink:href="../../db/d19/classslogo_1_1_u_i_1_1_module_creation_helper.html#a69e17abcc7cf9a6ed7261d8fb1d631fa" target="_top" xlink:title="slogo.UI.ModuleCreationHelper.activate\lIncreaseDecreaseButtons">
<polygon fill="white" stroke="black" points="798.5,-389 798.5,-419 1003.5,-419 1003.5,-389 798.5,-389"/>
<text text-anchor="start" x="806.5" y="-407" font-family="Helvetica,sans-Serif" font-size="10.00">slogo.UI.ModuleCreationHelper.activate</text>
<text text-anchor="middle" x="901" y="-396" font-family="Helvetica,sans-Serif" font-size="10.00">IncreaseDecreaseButtons</text>
</a>
</g>
</g>
<!-- Node4&#45;&gt;Node5 -->
<g id="edge4" class="edge"><title>Node4&#45;&gt;Node5</title>
<path fill="none" stroke="midnightblue" d="M694.043,-252.219C712.779,-284.724 750.363,-342.06 798,-374 807.122,-380.116 817.514,-385.01 828.092,-388.919"/>
<polygon fill="midnightblue" stroke="midnightblue" points="697.013,-250.361 689.054,-243.368 690.915,-253.798 697.013,-250.361"/>
</g>
<!-- Node12 -->
<g id="node12" class="node"><title>Node12</title>
<g id="a_node12"><a xlink:href="../../db/d19/classslogo_1_1_u_i_1_1_module_creation_helper.html#aa70b0ad9e90e62509149bfd2ef2ba209" target="_top" xlink:title="slogo.UI.ModuleCreationHelper.activate\lKeyEvents">
<polygon fill="white" stroke="black" points="1524.5,-136 1524.5,-166 1729.5,-166 1729.5,-136 1524.5,-136"/>
<text text-anchor="start" x="1532.5" y="-154" font-family="Helvetica,sans-Serif" font-size="10.00">slogo.UI.ModuleCreationHelper.activate</text>
<text text-anchor="middle" x="1627" y="-143" font-family="Helvetica,sans-Serif" font-size="10.00">KeyEvents</text>
</a>
</g>
</g>
<!-- Node4&#45;&gt;Node12 -->
<g id="edge12" class="edge"><title>Node4&#45;&gt;Node12</title>
<path fill="none" stroke="midnightblue" d="M710.179,-207.164C732.902,-192.251 765.88,-173.388 798,-165 932.15,-129.97 1334.16,-139.777 1524.26,-146.744"/>
<polygon fill="midnightblue" stroke="midnightblue" points="708.049,-204.378 701.699,-212.86 711.952,-210.189 708.049,-204.378"/>
</g>
<!-- Node13 -->
<g id="node13" class="node"><title>Node13</title>
<g id="a_node13"><a xlink:href="../../db/d19/classslogo_1_1_u_i_1_1_module_creation_helper.html#a2e841243ec3ca474e8822102343acc88" target="_top" xlink:title="slogo.UI.ModuleCreationHelper.activate\lNewTurtleButton">
<polygon fill="white" stroke="black" points="1040.5,-344 1040.5,-374 1245.5,-374 1245.5,-344 1040.5,-344"/>
<text text-anchor="start" x="1048.5" y="-362" font-family="Helvetica,sans-Serif" font-size="10.00">slogo.UI.ModuleCreationHelper.activate</text>
<text text-anchor="middle" x="1143" y="-351" font-family="Helvetica,sans-Serif" font-size="10.00">NewTurtleButton</text>
</a>
</g>
</g>
<!-- Node4&#45;&gt;Node13 -->
<g id="edge14" class="edge"><title>Node4&#45;&gt;Node13</title>
<path fill="none" stroke="midnightblue" d="M697.021,-251.155C717.099,-278.009 754.24,-321.013 798,-340 874.408,-373.152 969.474,-375.86 1040.29,-371.435"/>
<polygon fill="midnightblue" stroke="midnightblue" points="699.834,-249.073 691.115,-243.055 694.178,-253.197 699.834,-249.073"/>
</g>
<!-- Node15 -->
<g id="node15" class="node"><title>Node15</title>
<g id="a_node15"><a xlink:href="../../db/d19/classslogo_1_1_u_i_1_1_module_creation_helper.html#a9b1f07ab673191067907a059b1b0c524" target="_top" xlink:title="slogo.UI.ModuleCreationHelper.activate\lPlayButton">
<polygon fill="white" stroke="black" points="798.5,-301 798.5,-331 1003.5,-331 1003.5,-301 798.5,-301"/>
<text text-anchor="start" x="806.5" y="-319" font-family="Helvetica,sans-Serif" font-size="10.00">slogo.UI.ModuleCreationHelper.activate</text>
<text text-anchor="middle" x="901" y="-308" font-family="Helvetica,sans-Serif" font-size="10.00">PlayButton</text>
</a>
</g>
</g>
<!-- Node4&#45;&gt;Node15 -->
<g id="edge17" class="edge"><title>Node4&#45;&gt;Node15</title>
<path fill="none" stroke="midnightblue" d="M713.42,-248.354C736.332,-262.006 768.156,-279.522 798,-291 807.7,-294.73 818.137,-298.039 828.502,-300.929"/>
<polygon fill="midnightblue" stroke="midnightblue" points="715.162,-245.317 704.792,-243.145 711.544,-251.31 715.162,-245.317"/>
</g>
<!-- Node18 -->
<g id="node18" class="node"><title>Node18</title>
<g id="a_node18"><a xlink:href="../../db/d19/classslogo_1_1_u_i_1_1_module_creation_helper.html#a3a38d485562cb17591ec3fd07cffc18a" target="_top" xlink:title="slogo.UI.ModuleCreationHelper.activate\lTurtleCanvas">
<polygon fill="white" stroke="black" points="1282.5,-87 1282.5,-117 1487.5,-117 1487.5,-87 1282.5,-87"/>
<text text-anchor="start" x="1290.5" y="-105" font-family="Helvetica,sans-Serif" font-size="10.00">slogo.UI.ModuleCreationHelper.activate</text>
<text text-anchor="middle" x="1385" y="-94" font-family="Helvetica,sans-Serif" font-size="10.00">TurtleCanvas</text>
</a>
</g>
</g>
<!-- Node4&#45;&gt;Node18 -->
<g id="edge21" class="edge"><title>Node4&#45;&gt;Node18</title>
<path fill="none" stroke="midnightblue" d="M700.366,-205.232C721.633,-182.064 758.105,-147.434 798,-132 883.507,-98.92 1138.48,-97.5272 1282.33,-99.6157"/>
<polygon fill="midnightblue" stroke="midnightblue" points="697.563,-203.115 693.497,-212.898 702.777,-207.786 697.563,-203.115"/>
</g>
<!-- Node20 -->
<g id="node20" class="node"><title>Node20</title>
<g id="a_node20"><a xlink:href="../../d1/d5f/classslogo_1_1_u_i_1_1_path_color_selector.html#ad3d9c82a0904c97edcec7cf67b85bd7b" target="_top" xlink:title="slogo.UI.PathColorSelector.create">
<polygon fill="white" stroke="black" points="813,-262.5 813,-281.5 989,-281.5 989,-262.5 813,-262.5"/>
<text text-anchor="middle" x="901" y="-269.5" font-family="Helvetica,sans-Serif" font-size="10.00">slogo.UI.PathColorSelector.create</text>
</a>
</g>
</g>
<!-- Node4&#45;&gt;Node20 -->
<g id="edge24" class="edge"><title>Node4&#45;&gt;Node20</title>
<path fill="none" stroke="midnightblue" d="M763.739,-245.065C775.243,-247.411 786.914,-249.776 798,-252 815.251,-255.46 834.157,-259.186 850.955,-262.473"/>
<polygon fill="midnightblue" stroke="midnightblue" points="764.189,-241.585 753.69,-243.013 762.788,-248.443 764.189,-241.585"/>
</g>
<!-- Node22 -->
<g id="node22" class="node"><title>Node22</title>
<g id="a_node22"><a xlink:href="../../d4/d8d/classslogo_1_1_u_i_1_1_background_color_selector.html#ad75ba4ce104e071811d0fe039a4e839f" target="_top" xlink:title="slogo.UI.BackgroundColor\lSelector.create">
<polygon fill="white" stroke="black" points="831,-213 831,-243 971,-243 971,-213 831,-213"/>
<text text-anchor="start" x="839" y="-231" font-family="Helvetica,sans-Serif" font-size="10.00">slogo.UI.BackgroundColor</text>
<text text-anchor="middle" x="901" y="-220" font-family="Helvetica,sans-Serif" font-size="10.00">Selector.create</text>
</a>
</g>
</g>
<!-- Node4&#45;&gt;Node22 -->
<g id="edge27" class="edge"><title>Node4&#45;&gt;Node22</title>
<path fill="none" stroke="midnightblue" d="M766.142,-228C787.597,-228 810.367,-228 830.925,-228"/>
<polygon fill="midnightblue" stroke="midnightblue" points="766.061,-224.5 756.061,-228 766.061,-231.5 766.061,-224.5"/>
</g>
<!-- Node23 -->
<g id="node23" class="node"><title>Node23</title>
<g id="a_node23"><a xlink:href="../../dd/da7/classslogo_1_1_u_i_1_1_turtle_image_selector.html#a3f268d9196ffebcbb5dc322d2897a9fe" target="_top" xlink:title="slogo.UI.TurtleImageSelector.create">
<polygon fill="white" stroke="black" points="808,-174.5 808,-193.5 994,-193.5 994,-174.5 808,-174.5"/>
<text text-anchor="middle" x="901" y="-181.5" font-family="Helvetica,sans-Serif" font-size="10.00">slogo.UI.TurtleImageSelector.create</text>
</a>
</g>
</g>
<!-- Node4&#45;&gt;Node23 -->
<g id="edge29" class="edge"><title>Node4&#45;&gt;Node23</title>
<path fill="none" stroke="midnightblue" d="M760.012,-210.821C772.704,-208.147 785.705,-205.458 798,-203 813.985,-199.804 831.416,-196.493 847.272,-193.548"/>
<polygon fill="midnightblue" stroke="midnightblue" points="758.977,-207.463 749.919,-212.958 760.427,-214.311 758.977,-207.463"/>
</g>
<!-- Node6 -->
<g id="node6" class="node"><title>Node6</title>
<g id="a_node6"><a xlink:href="../../db/d19/classslogo_1_1_u_i_1_1_module_creation_helper.html#adce7362386f9a7b3006e7db08a2d578d" target="_top" xlink:title="slogo.UI.ModuleCreationHelper.create\lIncreaseDecreaseButtons">
<polygon fill="white" stroke="black" points="1286.5,-380 1286.5,-410 1483.5,-410 1483.5,-380 1286.5,-380"/>
<text text-anchor="start" x="1294.5" y="-398" font-family="Helvetica,sans-Serif" font-size="10.00">slogo.UI.ModuleCreationHelper.create</text>
<text text-anchor="middle" x="1385" y="-387" font-family="Helvetica,sans-Serif" font-size="10.00">IncreaseDecreaseButtons</text>
</a>
</g>
</g>
<!-- Node5&#45;&gt;Node6 -->
<g id="edge5" class="edge"><title>Node5&#45;&gt;Node6</title>
<path fill="none" stroke="midnightblue" d="M1013.79,-401.913C1096.23,-400.373 1207.29,-398.299 1286.21,-396.826"/>
<polygon fill="midnightblue" stroke="midnightblue" points="1013.56,-398.416 1003.63,-402.102 1013.69,-405.415 1013.56,-398.416"/>
</g>
<!-- Node7 -->
<g id="node7" class="node"><title>Node7</title>
<g id="a_node7"><a xlink:href="../../db/d19/classslogo_1_1_u_i_1_1_module_creation_helper.html#a7c650957b2389d6e6d36e8be8a33cd2b" target="_top" xlink:title="slogo.UI.ModuleCreationHelper.create\lSelectorVBoxModules">
<polygon fill="white" stroke="black" points="1528.5,-253 1528.5,-283 1725.5,-283 1725.5,-253 1528.5,-253"/>
<text text-anchor="start" x="1536.5" y="-271" font-family="Helvetica,sans-Serif" font-size="10.00">slogo.UI.ModuleCreationHelper.create</text>
<text text-anchor="middle" x="1627" y="-260" font-family="Helvetica,sans-Serif" font-size="10.00">SelectorVBoxModules</text>
</a>
</g>
</g>
<!-- Node6&#45;&gt;Node7 -->
<g id="edge6" class="edge"><title>Node6&#45;&gt;Node7</title>
<path fill="none" stroke="midnightblue" d="M1469,-376.732C1475.54,-374.424 1481.95,-371.854 1488,-369 1536.6,-346.077 1585.46,-305.079 1609.92,-283.025"/>
<polygon fill="midnightblue" stroke="midnightblue" points="1467.75,-373.461 1459.36,-379.93 1469.95,-380.105 1467.75,-373.461"/>
</g>
<!-- Node8 -->
<g id="node8" class="node"><title>Node8</title>
<g id="a_node8"><a xlink:href="../../db/d19/classslogo_1_1_u_i_1_1_module_creation_helper.html#afb9dbbbad7d872234a5b296fe129a34e" target="_top" xlink:title="slogo.UI.ModuleCreationHelper.create\lMainPageModules">
<polygon fill="white" stroke="black" points="1766.5,-136 1766.5,-166 1963.5,-166 1963.5,-136 1766.5,-136"/>
<text text-anchor="start" x="1774.5" y="-154" font-family="Helvetica,sans-Serif" font-size="10.00">slogo.UI.ModuleCreationHelper.create</text>
<text text-anchor="middle" x="1865" y="-143" font-family="Helvetica,sans-Serif" font-size="10.00">MainPageModules</text>
</a>
</g>
</g>
<!-- Node7&#45;&gt;Node8 -->
<g id="edge7" class="edge"><title>Node7&#45;&gt;Node8</title>
<path fill="none" stroke="midnightblue" d="M1667.58,-248.38C1714.29,-225.222 1790.96,-187.212 1833.37,-166.184"/>
<polygon fill="midnightblue" stroke="midnightblue" points="1665.77,-245.366 1658.37,-252.944 1668.88,-251.638 1665.77,-245.366"/>
</g>
<!-- Node9 -->
<g id="node9" class="node"><title>Node9</title>
<g id="a_node9"><a xlink:href="../../d9/d33/classslogo_1_1_u_i_1_1_main.html#a15b7f2e399ee24d160550993ab737e73" target="_top" xlink:title="slogo.UI.Main.start">
<polygon fill="white" stroke="black" points="2000,-150.5 2000,-169.5 2106,-169.5 2106,-150.5 2000,-150.5"/>
<text text-anchor="middle" x="2053" y="-157.5" font-family="Helvetica,sans-Serif" font-size="10.00">slogo.UI.Main.start</text>
</a>
</g>
</g>
<!-- Node8&#45;&gt;Node9 -->
<g id="edge8" class="edge"><title>Node8&#45;&gt;Node9</title>
<path fill="none" stroke="midnightblue" d="M1973.8,-156.216C1982.76,-156.65 1991.53,-157.074 1999.76,-157.472"/>
<polygon fill="midnightblue" stroke="midnightblue" points="1973.79,-152.712 1963.63,-155.724 1973.45,-159.703 1973.79,-152.712"/>
</g>
<!-- Node10 -->
<g id="node10" class="node"><title>Node10</title>
<g id="a_node10"><a xlink:href="../../db/d19/classslogo_1_1_u_i_1_1_module_creation_helper.html#a3be12a7cc2b8a219db1e296211a2cb88" target="_top" xlink:title="slogo.UI.ModuleCreationHelper.activate\lExtraWorkspaceButton">
<polygon fill="white" stroke="black" points="2142.5,-163 2142.5,-193 2347.5,-193 2347.5,-163 2142.5,-163"/>
<text text-anchor="start" x="2150.5" y="-181" font-family="Helvetica,sans-Serif" font-size="10.00">slogo.UI.ModuleCreationHelper.activate</text>
<text text-anchor="middle" x="2245" y="-170" font-family="Helvetica,sans-Serif" font-size="10.00">ExtraWorkspaceButton</text>
</a>
</g>
</g>
<!-- Node9&#45;&gt;Node10 -->
<g id="edge9" class="edge"><title>Node9&#45;&gt;Node10</title>
<path fill="none" stroke="midnightblue" d="M2116.22,-165.894C2124.63,-166.691 2133.44,-167.526 2142.32,-168.367"/>
<polygon fill="midnightblue" stroke="midnightblue" points="2116.46,-162.401 2106.17,-164.942 2115.79,-169.37 2116.46,-162.401"/>
</g>
<!-- Node11 -->
<g id="node11" class="node"><title>Node11</title>
<g id="a_node11"><a xlink:href="../../db/d19/classslogo_1_1_u_i_1_1_module_creation_helper.html#a702c1ebe24d2857a10c666eb1fcc315d" target="_top" xlink:title="slogo.UI.ModuleCreationHelper.create\lExtraWorkspaceButton">
<polygon fill="white" stroke="black" points="2384.5,-189 2384.5,-219 2581.5,-219 2581.5,-189 2384.5,-189"/>
<text text-anchor="start" x="2392.5" y="-207" font-family="Helvetica,sans-Serif" font-size="10.00">slogo.UI.ModuleCreationHelper.create</text>
<text text-anchor="middle" x="2483" y="-196" font-family="Helvetica,sans-Serif" font-size="10.00">ExtraWorkspaceButton</text>
</a>
</g>
</g>
<!-- Node10&#45;&gt;Node11 -->
<g id="edge10" class="edge"><title>Node10&#45;&gt;Node11</title>
<path fill="none" stroke="midnightblue" d="M2357.77,-190.313C2366.62,-191.289 2375.52,-192.27 2384.27,-193.234"/>
<polygon fill="midnightblue" stroke="midnightblue" points="2358.12,-186.831 2347.8,-189.215 2357.35,-193.789 2358.12,-186.831"/>
</g>
<!-- Node11&#45;&gt;Node7 -->
<g id="edge11" class="edge"><title>Node11&#45;&gt;Node7</title>
<path fill="none" stroke="midnightblue" d="M2374.34,-212.068C2206.9,-224.617 1886.6,-248.62 1725.55,-260.69"/>
<polygon fill="midnightblue" stroke="midnightblue" points="2374.7,-215.551 2384.41,-211.313 2374.18,-208.571 2374.7,-215.551"/>
</g>
<!-- Node12&#45;&gt;Node8 -->
<g id="edge13" class="edge"><title>Node12&#45;&gt;Node8</title>
<path fill="none" stroke="midnightblue" d="M1740.05,-151C1748.81,-151 1757.62,-151 1766.27,-151"/>
<polygon fill="midnightblue" stroke="midnightblue" points="1739.8,-147.5 1729.8,-151 1739.8,-154.5 1739.8,-147.5"/>
</g>
<!-- Node14 -->
<g id="node14" class="node"><title>Node14</title>
<g id="a_node14"><a xlink:href="../../db/d19/classslogo_1_1_u_i_1_1_module_creation_helper.html#a07f5483df317cdf80e8ea2dda5699afa" target="_top" xlink:title="slogo.UI.ModuleCreationHelper.create\lNewTurtleButton">
<polygon fill="white" stroke="black" points="1286.5,-330 1286.5,-360 1483.5,-360 1483.5,-330 1286.5,-330"/>
<text text-anchor="start" x="1294.5" y="-348" font-family="Helvetica,sans-Serif" font-size="10.00">slogo.UI.ModuleCreationHelper.create</text>
<text text-anchor="middle" x="1385" y="-337" font-family="Helvetica,sans-Serif" font-size="10.00">NewTurtleButton</text>
</a>
</g>
</g>
<!-- Node13&#45;&gt;Node14 -->
<g id="edge15" class="edge"><title>Node13&#45;&gt;Node14</title>
<path fill="none" stroke="midnightblue" d="M1255.89,-352.473C1266.04,-351.881 1276.26,-351.285 1286.27,-350.701"/>
<polygon fill="midnightblue" stroke="midnightblue" points="1255.56,-348.986 1245.78,-353.063 1255.97,-355.974 1255.56,-348.986"/>
</g>
<!-- Node14&#45;&gt;Node7 -->
<g id="edge16" class="edge"><title>Node14&#45;&gt;Node7</title>
<path fill="none" stroke="midnightblue" d="M1456.15,-327.309C1466.87,-324.354 1477.76,-321.203 1488,-318 1521.93,-307.387 1559.86,-293.493 1587.35,-283.046"/>
<polygon fill="midnightblue" stroke="midnightblue" points="1455.12,-323.962 1446.39,-329.963 1456.96,-330.717 1455.12,-323.962"/>
</g>
<!-- Node16 -->
<g id="node16" class="node"><title>Node16</title>
<g id="a_node16"><a xlink:href="../../db/d19/classslogo_1_1_u_i_1_1_module_creation_helper.html#a9b3fb38a55b3b7812b4f793afa7a974f" target="_top" xlink:title="slogo.UI.ModuleCreationHelper.create\lPlayButton">
<polygon fill="white" stroke="black" points="1044.5,-295 1044.5,-325 1241.5,-325 1241.5,-295 1044.5,-295"/>
<text text-anchor="start" x="1052.5" y="-313" font-family="Helvetica,sans-Serif" font-size="10.00">slogo.UI.ModuleCreationHelper.create</text>
<text text-anchor="middle" x="1143" y="-302" font-family="Helvetica,sans-Serif" font-size="10.00">PlayButton</text>
</a>
</g>
</g>
<!-- Node15&#45;&gt;Node16 -->
<g id="edge18" class="edge"><title>Node15&#45;&gt;Node16</title>
<path fill="none" stroke="midnightblue" d="M1013.89,-313.203C1024.04,-312.949 1034.26,-312.694 1044.27,-312.443"/>
<polygon fill="midnightblue" stroke="midnightblue" points="1013.69,-309.707 1003.78,-313.455 1013.87,-316.704 1013.69,-309.707"/>
</g>
<!-- Node17 -->
<g id="node17" class="node"><title>Node17</title>
<g id="a_node17"><a xlink:href="../../db/d19/classslogo_1_1_u_i_1_1_module_creation_helper.html#ae1e60d37509c2e5eddcb2a6e70b4f650" target="_top" xlink:title="slogo.UI.ModuleCreationHelper.create\lFirstRowButtons">
<polygon fill="white" stroke="black" points="1286.5,-279 1286.5,-309 1483.5,-309 1483.5,-279 1286.5,-279"/>
<text text-anchor="start" x="1294.5" y="-297" font-family="Helvetica,sans-Serif" font-size="10.00">slogo.UI.ModuleCreationHelper.create</text>
<text text-anchor="middle" x="1385" y="-286" font-family="Helvetica,sans-Serif" font-size="10.00">FirstRowButtons</text>
</a>
</g>
</g>
<!-- Node16&#45;&gt;Node17 -->
<g id="edge19" class="edge"><title>Node16&#45;&gt;Node17</title>
<path fill="none" stroke="midnightblue" d="M1251.73,-302.818C1263.3,-302.046 1275.03,-301.265 1286.47,-300.502"/>
<polygon fill="midnightblue" stroke="midnightblue" points="1251.36,-299.335 1241.62,-303.492 1251.83,-306.319 1251.36,-299.335"/>
</g>
<!-- Node17&#45;&gt;Node7 -->
<g id="edge20" class="edge"><title>Node17&#45;&gt;Node7</title>
<path fill="none" stroke="midnightblue" d="M1493.73,-282.329C1505.3,-281.075 1517.03,-279.805 1528.47,-278.566"/>
<polygon fill="midnightblue" stroke="midnightblue" points="1493.18,-278.868 1483.62,-283.425 1493.94,-285.827 1493.18,-278.868"/>
</g>
<!-- Node19 -->
<g id="node19" class="node"><title>Node19</title>
<g id="a_node19"><a xlink:href="../../db/d19/classslogo_1_1_u_i_1_1_module_creation_helper.html#a803bac6b55bde712b21f2face1eeef81" target="_top" xlink:title="slogo.UI.ModuleCreationHelper.create\lTurtleCanvas">
<polygon fill="white" stroke="black" points="1528.5,-87 1528.5,-117 1725.5,-117 1725.5,-87 1528.5,-87"/>
<text text-anchor="start" x="1536.5" y="-105" font-family="Helvetica,sans-Serif" font-size="10.00">slogo.UI.ModuleCreationHelper.create</text>
<text text-anchor="middle" x="1627" y="-94" font-family="Helvetica,sans-Serif" font-size="10.00">TurtleCanvas</text>
</a>
</g>
</g>
<!-- Node18&#45;&gt;Node19 -->
<g id="edge22" class="edge"><title>Node18&#45;&gt;Node19</title>
<path fill="none" stroke="midnightblue" d="M1497.89,-102C1508.04,-102 1518.26,-102 1528.27,-102"/>
<polygon fill="midnightblue" stroke="midnightblue" points="1497.78,-98.5001 1487.78,-102 1497.78,-105.5 1497.78,-98.5001"/>
</g>
<!-- Node19&#45;&gt;Node8 -->
<g id="edge23" class="edge"><title>Node19&#45;&gt;Node8</title>
<path fill="none" stroke="midnightblue" d="M1710.42,-119.113C1736.9,-124.611 1766.03,-130.658 1791.73,-135.994"/>
<polygon fill="midnightblue" stroke="midnightblue" points="1710.91,-115.641 1700.41,-117.035 1709.49,-122.495 1710.91,-115.641"/>
</g>
<!-- Node21 -->
<g id="node21" class="node"><title>Node21</title>
<g id="a_node21"><a xlink:href="../../db/d19/classslogo_1_1_u_i_1_1_module_creation_helper.html#af7f2919454fdbf6e9d7d912e99634857" target="_top" xlink:title="slogo.UI.ModuleCreationHelper.create\lSelectors">
<polygon fill="white" stroke="black" points="1044.5,-230 1044.5,-260 1241.5,-260 1241.5,-230 1044.5,-230"/>
<text text-anchor="start" x="1052.5" y="-248" font-family="Helvetica,sans-Serif" font-size="10.00">slogo.UI.ModuleCreationHelper.create</text>
<text text-anchor="middle" x="1143" y="-237" font-family="Helvetica,sans-Serif" font-size="10.00">Selectors</text>
</a>
</g>
</g>
<!-- Node20&#45;&gt;Node21 -->
<g id="edge25" class="edge"><title>Node20&#45;&gt;Node21</title>
<path fill="none" stroke="midnightblue" d="M996.764,-261.339C1012.36,-259.585 1028.54,-257.764 1044.21,-256.002"/>
<polygon fill="midnightblue" stroke="midnightblue" points="996.161,-257.885 986.615,-262.481 996.944,-264.841 996.161,-257.885"/>
</g>
<!-- Node21&#45;&gt;Node7 -->
<g id="edge26" class="edge"><title>Node21&#45;&gt;Node7</title>
<path fill="none" stroke="midnightblue" d="M1251.74,-250.141C1334.55,-254.092 1447.97,-259.505 1528.19,-263.333"/>
<polygon fill="midnightblue" stroke="midnightblue" points="1251.7,-246.635 1241.54,-249.654 1251.36,-253.627 1251.7,-246.635"/>
</g>
<!-- Node22&#45;&gt;Node21 -->
<g id="edge28" class="edge"><title>Node22&#45;&gt;Node21</title>
<path fill="none" stroke="midnightblue" d="M981.179,-233.609C1001.4,-235.041 1023.37,-236.597 1044.39,-238.086"/>
<polygon fill="midnightblue" stroke="midnightblue" points="981.318,-230.11 971.096,-232.894 980.824,-237.092 981.318,-230.11"/>
</g>
<!-- Node23&#45;&gt;Node21 -->
<g id="edge30" class="edge"><title>Node23&#45;&gt;Node21</title>
<path fill="none" stroke="midnightblue" d="M969.481,-195.473C981.044,-197.752 992.903,-200.287 1004,-203 1035.38,-210.673 1070.18,-221.278 1096.98,-229.911"/>
<polygon fill="midnightblue" stroke="midnightblue" points="969.905,-191.99 959.423,-193.539 968.582,-198.864 969.905,-191.99"/>
</g>
<!-- Node25 -->
<g id="node25" class="node"><title>Node25</title>
<g id="a_node25"><a xlink:href="../../db/d19/classslogo_1_1_u_i_1_1_module_creation_helper.html#a9fd730f7c1860d34bf4ac46c3828bd59" target="_top" xlink:title="slogo.UI.ModuleCreationHelper.activate\lStepIntoButton">
<polygon fill="white" stroke="black" points="798.5,-49 798.5,-79 1003.5,-79 1003.5,-49 798.5,-49"/>
<text text-anchor="start" x="806.5" y="-67" font-family="Helvetica,sans-Serif" font-size="10.00">slogo.UI.ModuleCreationHelper.activate</text>
<text text-anchor="middle" x="901" y="-56" font-family="Helvetica,sans-Serif" font-size="10.00">StepIntoButton</text>
</a>
</g>
</g>
<!-- Node24&#45;&gt;Node25 -->
<g id="edge32" class="edge"><title>Node24&#45;&gt;Node25</title>
<path fill="none" stroke="midnightblue" d="M769.334,-64C778.824,-64 788.535,-64 798.167,-64"/>
<polygon fill="midnightblue" stroke="midnightblue" points="769.137,-60.5001 759.137,-64 769.136,-67.5001 769.137,-60.5001"/>
</g>
<!-- Node26 -->
<g id="node26" class="node"><title>Node26</title>
<g id="a_node26"><a xlink:href="../../db/d19/classslogo_1_1_u_i_1_1_module_creation_helper.html#a4a6f1f009507c25be8c7c28cbba35f3b" target="_top" xlink:title="slogo.UI.ModuleCreationHelper.create\lDebugStepIntoButton">
<polygon fill="white" stroke="black" points="1044.5,-49 1044.5,-79 1241.5,-79 1241.5,-49 1044.5,-49"/>
<text text-anchor="start" x="1052.5" y="-67" font-family="Helvetica,sans-Serif" font-size="10.00">slogo.UI.ModuleCreationHelper.create</text>
<text text-anchor="middle" x="1143" y="-56" font-family="Helvetica,sans-Serif" font-size="10.00">DebugStepIntoButton</text>
</a>
</g>
</g>
<!-- Node25&#45;&gt;Node26 -->
<g id="edge33" class="edge"><title>Node25&#45;&gt;Node26</title>
<path fill="none" stroke="midnightblue" d="M1013.89,-64C1024.04,-64 1034.26,-64 1044.27,-64"/>
<polygon fill="midnightblue" stroke="midnightblue" points="1013.78,-60.5001 1003.78,-64 1013.78,-67.5001 1013.78,-60.5001"/>
</g>
<!-- Node27 -->
<g id="node27" class="node"><title>Node27</title>
<g id="a_node27"><a xlink:href="../../db/d19/classslogo_1_1_u_i_1_1_module_creation_helper.html#a975af4ea47dc85df72215bdf1a0d20ce" target="_top" xlink:title="slogo.UI.ModuleCreationHelper.create\lDebugModules">
<polygon fill="white" stroke="black" points="1286.5,-38 1286.5,-68 1483.5,-68 1483.5,-38 1286.5,-38"/>
<text text-anchor="start" x="1294.5" y="-56" font-family="Helvetica,sans-Serif" font-size="10.00">slogo.UI.ModuleCreationHelper.create</text>
<text text-anchor="middle" x="1385" y="-45" font-family="Helvetica,sans-Serif" font-size="10.00">DebugModules</text>
</a>
</g>
</g>
<!-- Node26&#45;&gt;Node27 -->
<g id="edge34" class="edge"><title>Node26&#45;&gt;Node27</title>
<path fill="none" stroke="midnightblue" d="M1251.73,-59.0622C1263.3,-58.5319 1275.03,-57.9945 1286.47,-57.4702"/>
<polygon fill="midnightblue" stroke="midnightblue" points="1251.45,-55.5716 1241.62,-59.5259 1251.77,-62.5643 1251.45,-55.5716"/>
</g>
<!-- Node27&#45;&gt;Node8 -->
<g id="edge35" class="edge"><title>Node27&#45;&gt;Node8</title>
<path fill="none" stroke="midnightblue" d="M1493.63,-48.679C1562.53,-48.779 1653.11,-54.2973 1730,-77 1773.33,-89.7936 1818.2,-118.228 1843.46,-135.889"/>
<polygon fill="midnightblue" stroke="midnightblue" points="1493.61,-45.1789 1483.62,-48.7021 1493.63,-52.1789 1493.61,-45.1789"/>
</g>
<!-- Node29 -->
<g id="node29" class="node"><title>Node29</title>
<g id="a_node29"><a xlink:href="../../db/d19/classslogo_1_1_u_i_1_1_module_creation_helper.html#a0fed0bb32bf2643d6fd5c24d82e8e18e" target="_top" xlink:title="slogo.UI.ModuleCreationHelper.activate\lStepOverButton">
<polygon fill="white" stroke="black" points="798.5,-0 798.5,-30 1003.5,-30 1003.5,-0 798.5,-0"/>
<text text-anchor="start" x="806.5" y="-18" font-family="Helvetica,sans-Serif" font-size="10.00">slogo.UI.ModuleCreationHelper.activate</text>
<text text-anchor="middle" x="901" y="-7" font-family="Helvetica,sans-Serif" font-size="10.00">StepOverButton</text>
</a>
</g>
</g>
<!-- Node28&#45;&gt;Node29 -->
<g id="edge37" class="edge"><title>Node28&#45;&gt;Node29</title>
<path fill="none" stroke="midnightblue" d="M771.803,-18.5123C780.557,-18.2724 789.477,-18.028 798.327,-17.7856"/>
<polygon fill="midnightblue" stroke="midnightblue" points="771.515,-15.0187 761.615,-18.7914 771.707,-22.0161 771.515,-15.0187"/>
</g>
<!-- Node30 -->
<g id="node30" class="node"><title>Node30</title>
<g id="a_node30"><a xlink:href="../../db/d19/classslogo_1_1_u_i_1_1_module_creation_helper.html#aa1e7dc2b509360583790fba0d3819c8d" target="_top" xlink:title="slogo.UI.ModuleCreationHelper.create\lDebugStepOverButton">
<polygon fill="white" stroke="black" points="1044.5,-0 1044.5,-30 1241.5,-30 1241.5,-0 1044.5,-0"/>
<text text-anchor="start" x="1052.5" y="-18" font-family="Helvetica,sans-Serif" font-size="10.00">slogo.UI.ModuleCreationHelper.create</text>
<text text-anchor="middle" x="1143" y="-7" font-family="Helvetica,sans-Serif" font-size="10.00">DebugStepOverButton</text>
</a>
</g>
</g>
<!-- Node29&#45;&gt;Node30 -->
<g id="edge38" class="edge"><title>Node29&#45;&gt;Node30</title>
<path fill="none" stroke="midnightblue" d="M1013.89,-15C1024.04,-15 1034.26,-15 1044.27,-15"/>
<polygon fill="midnightblue" stroke="midnightblue" points="1013.78,-11.5001 1003.78,-15 1013.78,-18.5001 1013.78,-11.5001"/>
</g>
<!-- Node30&#45;&gt;Node27 -->
<g id="edge39" class="edge"><title>Node30&#45;&gt;Node27</title>
<path fill="none" stroke="midnightblue" d="M1248.99,-31.6227C1262.31,-33.7329 1275.89,-35.8827 1289.05,-37.966"/>
<polygon fill="midnightblue" stroke="midnightblue" points="1249.28,-28.1256 1238.85,-30.0186 1248.18,-35.0395 1249.28,-28.1256"/>
</g>
</g>
</svg>
