<?xml version="1.0" encoding="UTF-8" standalone="no"?>
<!DOCTYPE svg PUBLIC "-//W3C//DTD SVG 1.1//EN"
 "http://www.w3.org/Graphics/SVG/1.1/DTD/svg11.dtd">
<!-- Generated by graphviz version 2.36.0 (20140111.2315)
 -->
<!-- Title: slogo.UI.MethodRunner.setTurtleVisibility Pages: 1 -->
<svg width="322pt" height="77pt"
 viewBox="0.00 0.00 322.00 77.00" xmlns="http://www.w3.org/2000/svg" xmlns:xlink="http://www.w3.org/1999/xlink">
<g id="graph0" class="graph" transform="scale(1 1) rotate(0) translate(4 73)">
<title>slogo.UI.MethodRunner.setTurtleVisibility</title>
<polygon fill="white" stroke="none" points="-4,4 -4,-73 318,-73 318,4 -4,4"/>
<!-- Node1 -->
<g id="node1" class="node"><title>Node1</title>
<polygon fill="#bfbfbf" stroke="black" points="0,-22 0,-52 144,-52 144,-22 0,-22"/>
<text text-anchor="start" x="8" y="-40" font-family="Helvetica,sans-Serif" font-size="10.00">slogo.UI.MethodRunner.set</text>
<text text-anchor="middle" x="72" y="-29" font-family="Helvetica,sans-Serif" font-size="10.00">TurtleVisibility</text>
</g>
<!-- Node2 -->
<g id="node2" class="node"><title>Node2</title>
<g id="a_node2"><a xlink:href="../../d5/deb/classslogo_1_1_u_i_1_1_turtle.html#a663e312977822a66bc6df5902554076a" target="_top" xlink:title="slogo.UI.Turtle.getImage">
<polygon fill="white" stroke="black" points="181,-49.5 181,-68.5 313,-68.5 313,-49.5 181,-49.5"/>
<text text-anchor="middle" x="247" y="-56.5" font-family="Helvetica,sans-Serif" font-size="10.00">slogo.UI.Turtle.getImage</text>
</a>
</g>
</g>
<!-- Node1&#45;&gt;Node2 -->
<g id="edge1" class="edge"><title>Node1&#45;&gt;Node2</title>
<path fill="none" stroke="midnightblue" d="M144.365,-46.0753C153.061,-47.1812 161.969,-48.3139 170.72,-49.4269"/>
<polygon fill="midnightblue" stroke="midnightblue" points="170.539,-52.9319 180.9,-50.7214 171.422,-45.9878 170.539,-52.9319"/>
</g>
<!-- Node3 -->
<g id="node3" class="node"><title>Node3</title>
<g id="a_node3"><a xlink:href="../../da/dce/interfaceslogo_1_1backend_1_1util_1_1_i_turtle_status.html#ac462e594c461da9b6ca21c85d5f46341" target="_top" xlink:title="slogo.backend.util.ITurtle\lStatus.turtleVisibility">
<polygon fill="white" stroke="black" points="180,-0 180,-30 314,-30 314,-0 180,-0"/>
<text text-anchor="start" x="188" y="-18" font-family="Helvetica,sans-Serif" font-size="10.00">slogo.backend.util.ITurtle</text>
<text text-anchor="middle" x="247" y="-7" font-family="Helvetica,sans-Serif" font-size="10.00">Status.turtleVisibility</text>
</a>
</g>
</g>
<!-- Node1&#45;&gt;Node3 -->
<g id="edge2" class="edge"><title>Node1&#45;&gt;Node3</title>
<path fill="none" stroke="midnightblue" d="M144.365,-27.9247C152.702,-26.8645 161.233,-25.7796 169.635,-24.7111"/>
<polygon fill="midnightblue" stroke="midnightblue" points="170.319,-28.1524 179.798,-23.4188 169.436,-21.2084 170.319,-28.1524"/>
</g>
</g>
</svg>
