<?xml version="1.0" encoding="UTF-8" standalone="no"?>
<!DOCTYPE svg PUBLIC "-//W3C//DTD SVG 1.1//EN"
 "http://www.w3.org/Graphics/SVG/1.1/DTD/svg11.dtd">
<!-- Generated by graphviz version 2.36.0 (20140111.2315)
 -->
<!-- Title: slogo.UI.MethodRunner.drawNewLine Pages: 1 -->
<svg width="388pt" height="316pt"
 viewBox="0.00 0.00 388.00 316.00" xmlns="http://www.w3.org/2000/svg" xmlns:xlink="http://www.w3.org/1999/xlink">
<g id="graph0" class="graph" transform="scale(1 1) rotate(0) translate(4 312)">
<title>slogo.UI.MethodRunner.drawNewLine</title>
<polygon fill="white" stroke="none" points="-4,4 -4,-312 384,-312 384,4 -4,4"/>
<!-- Node1 -->
<g id="node1" class="node"><title>Node1</title>
<polygon fill="#bfbfbf" stroke="black" points="0,-150 0,-180 152,-180 152,-150 0,-150"/>
<text text-anchor="start" x="8" y="-168" font-family="Helvetica,sans-Serif" font-size="10.00">slogo.UI.MethodRunner.draw</text>
<text text-anchor="middle" x="76" y="-157" font-family="Helvetica,sans-Serif" font-size="10.00">NewLine</text>
</g>
<!-- Node2 -->
<g id="node2" class="node"><title>Node2</title>
<g id="a_node2"><a xlink:href="../../d1/d09/interfaceslogo_1_1backend_1_1util_1_1_i_line.html#aa180a270cffb1f34de2d2cfb61f67be6" target="_top" xlink:title="slogo.backend.util.ILine.end">
<polygon fill="white" stroke="black" points="209.5,-288.5 209.5,-307.5 358.5,-307.5 358.5,-288.5 209.5,-288.5"/>
<text text-anchor="middle" x="284" y="-295.5" font-family="Helvetica,sans-Serif" font-size="10.00">slogo.backend.util.ILine.end</text>
</a>
</g>
</g>
<!-- Node1&#45;&gt;Node2 -->
<g id="edge1" class="edge"><title>Node1&#45;&gt;Node2</title>
<path fill="none" stroke="midnightblue" d="M86.9542,-180.003C104.309,-204.869 142.619,-254.322 188,-279 192.211,-281.29 196.662,-283.306 201.247,-285.08"/>
<polygon fill="midnightblue" stroke="midnightblue" points="200.219,-288.427 210.814,-288.392 202.509,-281.813 200.219,-288.427"/>
</g>
<!-- Node3 -->
<g id="node3" class="node"><title>Node3</title>
<g id="a_node3"><a xlink:href="../../d5/deb/classslogo_1_1_u_i_1_1_turtle.html#a7adef46173959908cce8907c5d5bc8c5" target="_top" xlink:title="slogo.UI.Turtle.getLineProperty">
<polygon fill="white" stroke="black" points="203,-250.5 203,-269.5 365,-269.5 365,-250.5 203,-250.5"/>
<text text-anchor="middle" x="284" y="-257.5" font-family="Helvetica,sans-Serif" font-size="10.00">slogo.UI.Turtle.getLineProperty</text>
</a>
</g>
</g>
<!-- Node1&#45;&gt;Node3 -->
<g id="edge2" class="edge"><title>Node1&#45;&gt;Node3</title>
<path fill="none" stroke="midnightblue" d="M94.1439,-180.055C114.904,-197.459 151.629,-225.67 188,-241 194.196,-243.612 200.774,-245.871 207.462,-247.824"/>
<polygon fill="midnightblue" stroke="midnightblue" points="206.745,-251.255 217.31,-250.472 208.562,-244.495 206.745,-251.255"/>
</g>
<!-- Node4 -->
<g id="node4" class="node"><title>Node4</title>
<g id="a_node4"><a xlink:href="../../d5/deb/classslogo_1_1_u_i_1_1_turtle.html#a33702e403a8c52f3cfcd77f223695543" target="_top" xlink:title="slogo.UI.Turtle.getThickness">
<polygon fill="white" stroke="black" points="209.5,-212.5 209.5,-231.5 358.5,-231.5 358.5,-212.5 209.5,-212.5"/>
<text text-anchor="middle" x="284" y="-219.5" font-family="Helvetica,sans-Serif" font-size="10.00">slogo.UI.Turtle.getThickness</text>
</a>
</g>
</g>
<!-- Node1&#45;&gt;Node4 -->
<g id="edge3" class="edge"><title>Node1&#45;&gt;Node4</title>
<path fill="none" stroke="midnightblue" d="M116.679,-180.013C137.675,-187.591 164.009,-196.525 188,-203 197.968,-205.69 208.617,-208.183 219.048,-210.418"/>
<polygon fill="midnightblue" stroke="midnightblue" points="218.45,-213.868 228.953,-212.48 219.876,-207.015 218.45,-213.868"/>
</g>
<!-- Node5 -->
<g id="node5" class="node"><title>Node5</title>
<g id="a_node5"><a xlink:href="../../da/dc2/interfaceslogo_1_1backend_1_1util_1_1_i_coordinates.html#adb373b7523e63ee3698283ec8ac752d8" target="_top" xlink:title="slogo.backend.util.ICoordinates.getX">
<polygon fill="white" stroke="black" points="188.5,-174.5 188.5,-193.5 379.5,-193.5 379.5,-174.5 188.5,-174.5"/>
<text text-anchor="middle" x="284" y="-181.5" font-family="Helvetica,sans-Serif" font-size="10.00">slogo.backend.util.ICoordinates.getX</text>
</a>
</g>
</g>
<!-- Node1&#45;&gt;Node5 -->
<g id="edge4" class="edge"><title>Node1&#45;&gt;Node5</title>
<path fill="none" stroke="midnightblue" d="M152.245,-171.94C160.671,-172.717 169.365,-173.519 178.078,-174.323"/>
<polygon fill="midnightblue" stroke="midnightblue" points="178.019,-177.832 188.299,-175.265 178.662,-170.862 178.019,-177.832"/>
</g>
<!-- Node6 -->
<g id="node6" class="node"><title>Node6</title>
<g id="a_node6"><a xlink:href="../../da/dc2/interfaceslogo_1_1backend_1_1util_1_1_i_coordinates.html#a79bf643857961ce08b426cd660121b91" target="_top" xlink:title="slogo.backend.util.ICoordinates.getY">
<polygon fill="white" stroke="black" points="189,-136.5 189,-155.5 379,-155.5 379,-136.5 189,-136.5"/>
<text text-anchor="middle" x="284" y="-143.5" font-family="Helvetica,sans-Serif" font-size="10.00">slogo.backend.util.ICoordinates.getY</text>
</a>
</g>
</g>
<!-- Node1&#45;&gt;Node6 -->
<g id="edge5" class="edge"><title>Node1&#45;&gt;Node6</title>
<path fill="none" stroke="midnightblue" d="M152.245,-158.06C160.846,-157.267 169.727,-156.448 178.621,-155.627"/>
<polygon fill="midnightblue" stroke="midnightblue" points="179.018,-159.106 188.654,-154.702 178.375,-152.135 179.018,-159.106"/>
</g>
<!-- Node7 -->
<g id="node7" class="node"><title>Node7</title>
<g id="a_node7"><a xlink:href="../../d1/d09/interfaceslogo_1_1backend_1_1util_1_1_i_line.html#a1fdae77b8086d45775f369066c763473" target="_top" xlink:title="slogo.backend.util.ILine.start">
<polygon fill="white" stroke="black" points="207.5,-98.5 207.5,-117.5 360.5,-117.5 360.5,-98.5 207.5,-98.5"/>
<text text-anchor="middle" x="284" y="-105.5" font-family="Helvetica,sans-Serif" font-size="10.00">slogo.backend.util.ILine.start</text>
</a>
</g>
</g>
<!-- Node1&#45;&gt;Node7 -->
<g id="edge6" class="edge"><title>Node1&#45;&gt;Node7</title>
<path fill="none" stroke="midnightblue" d="M116.679,-149.987C137.675,-142.409 164.009,-133.475 188,-127 197.968,-124.31 208.617,-121.817 219.048,-119.582"/>
<polygon fill="midnightblue" stroke="midnightblue" points="219.876,-122.985 228.953,-117.52 218.45,-116.132 219.876,-122.985"/>
</g>
<!-- Node8 -->
<g id="node8" class="node"><title>Node8</title>
<g id="a_node8"><a xlink:href="../../d2/d25/classslogo_1_1backend_1_1impl_1_1util_1_1_qualities.html#acd8e6cd4cebb1e207a1731a47a262579" target="_top" xlink:title="slogo.backend.impl.util.\lQualities.toColor">
<polygon fill="white" stroke="black" points="219.5,-49 219.5,-79 348.5,-79 348.5,-49 219.5,-49"/>
<text text-anchor="start" x="227.5" y="-67" font-family="Helvetica,sans-Serif" font-size="10.00">slogo.backend.impl.util.</text>
<text text-anchor="middle" x="284" y="-56" font-family="Helvetica,sans-Serif" font-size="10.00">Qualities.toColor</text>
</a>
</g>
</g>
<!-- Node1&#45;&gt;Node8 -->
<g id="edge7" class="edge"><title>Node1&#45;&gt;Node8</title>
<path fill="none" stroke="midnightblue" d="M95.0581,-149.71C116.1,-132.619 152.529,-105.218 188,-89 194.771,-85.904 201.996,-83.137 209.322,-80.6766"/>
<polygon fill="midnightblue" stroke="midnightblue" points="210.862,-83.8606 219.342,-77.5097 208.753,-77.186 210.862,-83.8606"/>
</g>
<!-- Node9 -->
<g id="node9" class="node"><title>Node9</title>
<g id="a_node9"><a xlink:href="../../da/dce/interfaceslogo_1_1backend_1_1util_1_1_i_turtle_status.html#ab3f3312b9c4289ea7750dbcaa91819eb" target="_top" xlink:title="slogo.backend.util.ITurtle\lStatus.turtleQualities">
<polygon fill="white" stroke="black" points="217,-0 217,-30 351,-30 351,-0 217,-0"/>
<text text-anchor="start" x="225" y="-18" font-family="Helvetica,sans-Serif" font-size="10.00">slogo.backend.util.ITurtle</text>
<text text-anchor="middle" x="284" y="-7" font-family="Helvetica,sans-Serif" font-size="10.00">Status.turtleQualities</text>
</a>
</g>
</g>
<!-- Node1&#45;&gt;Node9 -->
<g id="edge8" class="edge"><title>Node1&#45;&gt;Node9</title>
<path fill="none" stroke="midnightblue" d="M86.226,-149.697C103.036,-123.164 141.265,-68.717 188,-40 193.858,-36.4007 200.226,-33.315 206.8,-30.6705"/>
<polygon fill="midnightblue" stroke="midnightblue" points="208.354,-33.8284 216.541,-27.1031 205.947,-27.2553 208.354,-33.8284"/>
</g>
</g>
</svg>
