<?xml version="1.0" encoding="UTF-8" standalone="no"?>
<!DOCTYPE svg PUBLIC "-//W3C//DTD SVG 1.1//EN"
 "http://www.w3.org/Graphics/SVG/1.1/DTD/svg11.dtd">
<!-- Generated by graphviz version 2.36.0 (20140111.2315)
 -->
<!-- Title: slogo.UI.ButtonCreator Pages: 1 -->
<svg width="134pt" height="96pt"
 viewBox="0.00 0.00 134.00 96.00" xmlns="http://www.w3.org/2000/svg" xmlns:xlink="http://www.w3.org/1999/xlink">
<g id="graph0" class="graph" transform="scale(1 1) rotate(0) translate(4 92)">
<title>slogo.UI.ButtonCreator</title>
<polygon fill="white" stroke="none" points="-4,4 -4,-92 130,-92 130,4 -4,4"/>
<!-- Node1 -->
<g id="node1" class="node"><title>Node1</title>
<polygon fill="#bfbfbf" stroke="black" points="0,-0.5 0,-19.5 126,-19.5 126,-0.5 0,-0.5"/>
<text text-anchor="middle" x="63" y="-7.5" font-family="Helvetica,sans-Serif" font-size="10.00">slogo.UI.ButtonCreator</text>
</g>
<!-- Node2 -->
<g id="node2" class="node"><title>Node2</title>
<polygon fill="white" stroke="#bfbfbf" points="12.5,-68.5 12.5,-87.5 53.5,-87.5 53.5,-68.5 12.5,-68.5"/>
<text text-anchor="middle" x="33" y="-75.5" font-family="Helvetica,sans-Serif" font-size="10.00">VBox</text>
</g>
<!-- Node2&#45;&gt;Node1 -->
<g id="edge1" class="edge"><title>Node2&#45;&gt;Node1</title>
<path fill="none" stroke="#9a32cd" stroke-dasharray="5,2" d="M36.9123,-58.2683C38.641,-51.6841 40.9796,-44.3487 44,-38 47.1519,-31.3748 51.9019,-24.6248 55.8639,-19.5311"/>
<polygon fill="#9a32cd" stroke="#9a32cd" points="33.4278,-57.7994 34.5658,-68.3329 40.245,-59.3888 33.4278,-57.7994"/>
<text text-anchor="middle" x="57.5" y="-41.5" font-family="Helvetica,sans-Serif" font-size="10.00"> vBox</text>
</g>
<!-- Node3 -->
<g id="node3" class="node"><title>Node3</title>
<polygon fill="white" stroke="#bfbfbf" points="72,-68.5 72,-87.5 114,-87.5 114,-68.5 72,-68.5"/>
<text text-anchor="middle" x="93" y="-75.5" font-family="Helvetica,sans-Serif" font-size="10.00">HBox</text>
</g>
<!-- Node3&#45;&gt;Node1 -->
<g id="edge2" class="edge"><title>Node3&#45;&gt;Node1</title>
<path fill="none" stroke="#9a32cd" stroke-dasharray="5,2" d="M84.9027,-59.1859C79.1147,-46.4523 71.5731,-29.8607 67.0187,-19.8411"/>
<polygon fill="#9a32cd" stroke="#9a32cd" points="81.7537,-60.7163 89.078,-68.3717 88.1262,-57.8196 81.7537,-60.7163"/>
<text text-anchor="middle" x="94.5" y="-41.5" font-family="Helvetica,sans-Serif" font-size="10.00"> hbox</text>
</g>
</g>
</svg>
