<?xml version="1.0" encoding="UTF-8" standalone="no"?>
<!DOCTYPE svg PUBLIC "-//W3C//DTD SVG 1.1//EN"
 "http://www.w3.org/Graphics/SVG/1.1/DTD/svg11.dtd">
<!-- Generated by graphviz version 2.36.0 (20140111.2315)
 -->
<!-- Title: slogo.UI.HBoxCreator.createHBox Pages: 1 -->
<svg width="1740pt" height="87pt"
 viewBox="0.00 0.00 1740.00 87.00" xmlns="http://www.w3.org/2000/svg" xmlns:xlink="http://www.w3.org/1999/xlink">
<g id="graph0" class="graph" transform="scale(1 1) rotate(0) translate(4 83)">
<title>slogo.UI.HBoxCreator.createHBox</title>
<polygon fill="white" stroke="none" points="-4,4 -4,-83 1736,-83 1736,4 -4,4"/>
<!-- Node1 -->
<g id="node1" class="node"><title>Node1</title>
<polygon fill="#bfbfbf" stroke="black" points="0,-29.5 0,-48.5 178,-48.5 178,-29.5 0,-29.5"/>
<text text-anchor="middle" x="89" y="-36.5" font-family="Helvetica,sans-Serif" font-size="10.00">slogo.UI.HBoxCreator.createHBox</text>
</g>
<!-- Node2 -->
<g id="node2" class="node"><title>Node2</title>
<g id="a_node2"><a xlink:href="../../db/d19/classslogo_1_1_u_i_1_1_module_creation_helper.html#ae374758a750a678a75eef919fdfaa8e8" target="_top" xlink:title="slogo.UI.ModuleCreationHelper.create\lFirstButtonRow">
<polygon fill="white" stroke="black" points="214.5,-49 214.5,-79 411.5,-79 411.5,-49 214.5,-49"/>
<text text-anchor="start" x="222.5" y="-67" font-family="Helvetica,sans-Serif" font-size="10.00">slogo.UI.ModuleCreationHelper.create</text>
<text text-anchor="middle" x="313" y="-56" font-family="Helvetica,sans-Serif" font-size="10.00">FirstButtonRow</text>
</a>
</g>
</g>
<!-- Node1&#45;&gt;Node2 -->
<g id="edge1" class="edge"><title>Node1&#45;&gt;Node2</title>
<path fill="none" stroke="midnightblue" d="M184.697,-49.6641C194.495,-50.7675 204.467,-51.8904 214.297,-52.9974"/>
<polygon fill="midnightblue" stroke="midnightblue" points="184.891,-46.1639 174.562,-48.5227 184.107,-53.1199 184.891,-46.1639"/>
</g>
<!-- Node9 -->
<g id="node9" class="node"><title>Node9</title>
<g id="a_node9"><a xlink:href="../../db/d19/classslogo_1_1_u_i_1_1_module_creation_helper.html#a4795575c8a3208b4ea0e942091475154" target="_top" xlink:title="slogo.UI.ModuleCreationHelper.create\lSecondButtonRow">
<polygon fill="white" stroke="black" points="214.5,-0 214.5,-30 411.5,-30 411.5,-0 214.5,-0"/>
<text text-anchor="start" x="222.5" y="-18" font-family="Helvetica,sans-Serif" font-size="10.00">slogo.UI.ModuleCreationHelper.create</text>
<text text-anchor="middle" x="313" y="-7" font-family="Helvetica,sans-Serif" font-size="10.00">SecondButtonRow</text>
</a>
</g>
</g>
<!-- Node1&#45;&gt;Node9 -->
<g id="edge9" class="edge"><title>Node1&#45;&gt;Node9</title>
<path fill="none" stroke="midnightblue" d="M188.143,-28.3899C196.785,-27.4557 205.532,-26.51 214.172,-25.576"/>
<polygon fill="midnightblue" stroke="midnightblue" points="187.625,-24.9255 178.059,-29.4801 188.377,-31.8849 187.625,-24.9255"/>
</g>
<!-- Node3 -->
<g id="node3" class="node"><title>Node3</title>
<g id="a_node3"><a xlink:href="../../db/d19/classslogo_1_1_u_i_1_1_module_creation_helper.html#ae1e60d37509c2e5eddcb2a6e70b4f650" target="_top" xlink:title="slogo.UI.ModuleCreationHelper.create\lFirstRowButtons">
<polygon fill="white" stroke="black" points="448.5,-49 448.5,-79 645.5,-79 645.5,-49 448.5,-49"/>
<text text-anchor="start" x="456.5" y="-67" font-family="Helvetica,sans-Serif" font-size="10.00">slogo.UI.ModuleCreationHelper.create</text>
<text text-anchor="middle" x="547" y="-56" font-family="Helvetica,sans-Serif" font-size="10.00">FirstRowButtons</text>
</a>
</g>
</g>
<!-- Node2&#45;&gt;Node3 -->
<g id="edge2" class="edge"><title>Node2&#45;&gt;Node3</title>
<path fill="none" stroke="midnightblue" d="M421.722,-64C430.618,-64 439.58,-64 448.396,-64"/>
<polygon fill="midnightblue" stroke="midnightblue" points="421.717,-60.5001 411.716,-64 421.716,-67.5001 421.717,-60.5001"/>
</g>
<!-- Node4 -->
<g id="node4" class="node"><title>Node4</title>
<g id="a_node4"><a xlink:href="../../db/d19/classslogo_1_1_u_i_1_1_module_creation_helper.html#a7c650957b2389d6e6d36e8be8a33cd2b" target="_top" xlink:title="slogo.UI.ModuleCreationHelper.create\lSelectorVBoxModules">
<polygon fill="white" stroke="black" points="682.5,-24 682.5,-54 879.5,-54 879.5,-24 682.5,-24"/>
<text text-anchor="start" x="690.5" y="-42" font-family="Helvetica,sans-Serif" font-size="10.00">slogo.UI.ModuleCreationHelper.create</text>
<text text-anchor="middle" x="781" y="-31" font-family="Helvetica,sans-Serif" font-size="10.00">SelectorVBoxModules</text>
</a>
</g>
</g>
<!-- Node3&#45;&gt;Node4 -->
<g id="edge3" class="edge"><title>Node3&#45;&gt;Node4</title>
<path fill="none" stroke="midnightblue" d="M655.722,-52.392C664.618,-51.4334 673.58,-50.4677 682.396,-49.5176"/>
<polygon fill="midnightblue" stroke="midnightblue" points="655.284,-48.9189 645.716,-53.4702 656.034,-55.8786 655.284,-48.9189"/>
</g>
<!-- Node5 -->
<g id="node5" class="node"><title>Node5</title>
<g id="a_node5"><a xlink:href="../../db/d19/classslogo_1_1_u_i_1_1_module_creation_helper.html#afb9dbbbad7d872234a5b296fe129a34e" target="_top" xlink:title="slogo.UI.ModuleCreationHelper.create\lMainPageModules">
<polygon fill="white" stroke="black" points="916.5,-46 916.5,-76 1113.5,-76 1113.5,-46 916.5,-46"/>
<text text-anchor="start" x="924.5" y="-64" font-family="Helvetica,sans-Serif" font-size="10.00">slogo.UI.ModuleCreationHelper.create</text>
<text text-anchor="middle" x="1015" y="-53" font-family="Helvetica,sans-Serif" font-size="10.00">MainPageModules</text>
</a>
</g>
</g>
<!-- Node4&#45;&gt;Node5 -->
<g id="edge4" class="edge"><title>Node4&#45;&gt;Node5</title>
<path fill="none" stroke="midnightblue" d="M889.722,-49.215C898.618,-50.0586 907.58,-50.9085 916.396,-51.7445"/>
<polygon fill="midnightblue" stroke="midnightblue" points="890.002,-45.726 879.716,-48.2662 889.341,-52.6947 890.002,-45.726"/>
</g>
<!-- Node6 -->
<g id="node6" class="node"><title>Node6</title>
<g id="a_node6"><a xlink:href="../../d9/d33/classslogo_1_1_u_i_1_1_main.html#a15b7f2e399ee24d160550993ab737e73" target="_top" xlink:title="slogo.UI.Main.start">
<polygon fill="white" stroke="black" points="1150,-51.5 1150,-70.5 1256,-70.5 1256,-51.5 1150,-51.5"/>
<text text-anchor="middle" x="1203" y="-58.5" font-family="Helvetica,sans-Serif" font-size="10.00">slogo.UI.Main.start</text>
</a>
</g>
</g>
<!-- Node5&#45;&gt;Node6 -->
<g id="edge5" class="edge"><title>Node5&#45;&gt;Node6</title>
<path fill="none" stroke="midnightblue" d="M1123.8,-61C1132.76,-61 1141.53,-61 1149.76,-61"/>
<polygon fill="midnightblue" stroke="midnightblue" points="1123.63,-57.5001 1113.63,-61 1123.63,-64.5001 1123.63,-57.5001"/>
</g>
<!-- Node7 -->
<g id="node7" class="node"><title>Node7</title>
<g id="a_node7"><a xlink:href="../../db/d19/classslogo_1_1_u_i_1_1_module_creation_helper.html#a3be12a7cc2b8a219db1e296211a2cb88" target="_top" xlink:title="slogo.UI.ModuleCreationHelper.activate\lExtraWorkspaceButton">
<polygon fill="white" stroke="black" points="1292.5,-46 1292.5,-76 1497.5,-76 1497.5,-46 1292.5,-46"/>
<text text-anchor="start" x="1300.5" y="-64" font-family="Helvetica,sans-Serif" font-size="10.00">slogo.UI.ModuleCreationHelper.activate</text>
<text text-anchor="middle" x="1395" y="-53" font-family="Helvetica,sans-Serif" font-size="10.00">ExtraWorkspaceButton</text>
</a>
</g>
</g>
<!-- Node6&#45;&gt;Node7 -->
<g id="edge6" class="edge"><title>Node6&#45;&gt;Node7</title>
<path fill="none" stroke="midnightblue" d="M1266.22,-61C1274.63,-61 1283.44,-61 1292.32,-61"/>
<polygon fill="midnightblue" stroke="midnightblue" points="1266.17,-57.5001 1256.17,-61 1266.17,-64.5001 1266.17,-57.5001"/>
</g>
<!-- Node8 -->
<g id="node8" class="node"><title>Node8</title>
<g id="a_node8"><a xlink:href="../../db/d19/classslogo_1_1_u_i_1_1_module_creation_helper.html#a702c1ebe24d2857a10c666eb1fcc315d" target="_top" xlink:title="slogo.UI.ModuleCreationHelper.create\lExtraWorkspaceButton">
<polygon fill="white" stroke="black" points="1534.5,-24 1534.5,-54 1731.5,-54 1731.5,-24 1534.5,-24"/>
<text text-anchor="start" x="1542.5" y="-42" font-family="Helvetica,sans-Serif" font-size="10.00">slogo.UI.ModuleCreationHelper.create</text>
<text text-anchor="middle" x="1633" y="-31" font-family="Helvetica,sans-Serif" font-size="10.00">ExtraWorkspaceButton</text>
</a>
</g>
</g>
<!-- Node7&#45;&gt;Node8 -->
<g id="edge7" class="edge"><title>Node7&#45;&gt;Node8</title>
<path fill="none" stroke="midnightblue" d="M1507.77,-50.5812C1516.62,-49.7556 1525.52,-48.9257 1534.27,-48.1101"/>
<polygon fill="midnightblue" stroke="midnightblue" points="1507.43,-47.0972 1497.8,-51.5104 1508.08,-54.067 1507.43,-47.0972"/>
</g>
<!-- Node8&#45;&gt;Node4 -->
<g id="edge8" class="edge"><title>Node8&#45;&gt;Node4</title>
<path fill="none" stroke="midnightblue" d="M1524.27,-36.3776C1515.38,-36.2253 1506.54,-36.0956 1498,-36 1239.35,-33.105 1174.65,-33.105 916,-36 904.25,-36.1315 891.921,-36.3279 879.699,-36.5584"/>
<polygon fill="midnightblue" stroke="midnightblue" points="1524.24,-39.8776 1534.3,-36.5584 1524.37,-32.8787 1524.24,-39.8776"/>
</g>
<!-- Node10 -->
<g id="node10" class="node"><title>Node10</title>
<g id="a_node10"><a xlink:href="../../db/d19/classslogo_1_1_u_i_1_1_module_creation_helper.html#ae1e0ce18826b0895f1c3d4786b3776b7" target="_top" xlink:title="slogo.UI.ModuleCreationHelper.create\lSecondRowButtons">
<polygon fill="white" stroke="black" points="448.5,-0 448.5,-30 645.5,-30 645.5,-0 448.5,-0"/>
<text text-anchor="start" x="456.5" y="-18" font-family="Helvetica,sans-Serif" font-size="10.00">slogo.UI.ModuleCreationHelper.create</text>
<text text-anchor="middle" x="547" y="-7" font-family="Helvetica,sans-Serif" font-size="10.00">SecondRowButtons</text>
</a>
</g>
</g>
<!-- Node9&#45;&gt;Node10 -->
<g id="edge10" class="edge"><title>Node9&#45;&gt;Node10</title>
<path fill="none" stroke="midnightblue" d="M421.722,-15C430.618,-15 439.58,-15 448.396,-15"/>
<polygon fill="midnightblue" stroke="midnightblue" points="421.717,-11.5001 411.716,-15 421.716,-18.5001 421.717,-11.5001"/>
</g>
<!-- Node10&#45;&gt;Node4 -->
<g id="edge11" class="edge"><title>Node10&#45;&gt;Node4</title>
<path fill="none" stroke="midnightblue" d="M655.722,-26.1436C664.618,-27.064 673.58,-27.991 682.396,-28.9031"/>
<polygon fill="midnightblue" stroke="midnightblue" points="656.024,-22.6563 645.716,-25.1086 655.303,-29.6191 656.024,-22.6563"/>
</g>
</g>
</svg>
