<?xml version="1.0" encoding="UTF-8" standalone="no"?>
<!DOCTYPE svg PUBLIC "-//W3C//DTD SVG 1.1//EN"
 "http://www.w3.org/Graphics/SVG/1.1/DTD/svg11.dtd">
<!-- Generated by graphviz version 2.36.0 (20140111.2315)
 -->
<!-- Title: slogo.UI.TurtleCanvas Pages: 1 -->
<svg width="284pt" height="96pt"
 viewBox="0.00 0.00 284.00 96.00" xmlns="http://www.w3.org/2000/svg" xmlns:xlink="http://www.w3.org/1999/xlink">
<g id="graph0" class="graph" transform="scale(1 1) rotate(0) translate(4 92)">
<title>slogo.UI.TurtleCanvas</title>
<polygon fill="white" stroke="none" points="-4,4 -4,-92 280,-92 280,4 -4,4"/>
<!-- Node1 -->
<g id="node1" class="node"><title>Node1</title>
<polygon fill="#bfbfbf" stroke="black" points="109.5,-0.5 109.5,-19.5 228.5,-19.5 228.5,-0.5 109.5,-0.5"/>
<text text-anchor="middle" x="169" y="-7.5" font-family="Helvetica,sans-Serif" font-size="10.00">slogo.UI.TurtleCanvas</text>
</g>
<!-- Node2 -->
<g id="node2" class="node"><title>Node2</title>
<polygon fill="white" stroke="#bfbfbf" points="0,-68.5 0,-87.5 96,-87.5 96,-68.5 0,-68.5"/>
<text text-anchor="middle" x="48" y="-75.5" font-family="Helvetica,sans-Serif" font-size="10.00">GraphicsContext</text>
</g>
<!-- Node2&#45;&gt;Node1 -->
<g id="edge1" class="edge"><title>Node2&#45;&gt;Node1</title>
<path fill="none" stroke="#9a32cd" stroke-dasharray="5,2" d="M53.2375,-58.5698C56.1838,-51.2178 60.5941,-43.2667 67,-38 79.0274,-28.1115 94.3128,-21.8129 109.367,-17.8106"/>
<polygon fill="#9a32cd" stroke="#9a32cd" points="49.8619,-57.627 49.9917,-68.221 56.4968,-59.8583 49.8619,-57.627"/>
<text text-anchor="middle" x="116" y="-41.5" font-family="Helvetica,sans-Serif" font-size="10.00"> myGraphicsContext</text>
</g>
<!-- Node3 -->
<g id="node3" class="node"><title>Node3</title>
<polygon fill="white" stroke="#bfbfbf" points="146,-68.5 146,-87.5 192,-87.5 192,-68.5 146,-68.5"/>
<text text-anchor="middle" x="169" y="-75.5" font-family="Helvetica,sans-Serif" font-size="10.00">Group</text>
</g>
<!-- Node3&#45;&gt;Node1 -->
<g id="edge2" class="edge"><title>Node3&#45;&gt;Node1</title>
<path fill="none" stroke="#9a32cd" stroke-dasharray="5,2" d="M169,-58.0413C169,-45.4724 169,-29.5631 169,-19.8411"/>
<polygon fill="#9a32cd" stroke="#9a32cd" points="165.5,-58.3716 169,-68.3717 172.5,-58.3717 165.5,-58.3716"/>
<text text-anchor="middle" x="189" y="-41.5" font-family="Helvetica,sans-Serif" font-size="10.00"> myRoot</text>
</g>
<!-- Node4 -->
<g id="node4" class="node"><title>Node4</title>
<polygon fill="white" stroke="#bfbfbf" points="210,-68.5 210,-87.5 262,-87.5 262,-68.5 210,-68.5"/>
<text text-anchor="middle" x="236" y="-75.5" font-family="Helvetica,sans-Serif" font-size="10.00">Canvas</text>
</g>
<!-- Node4&#45;&gt;Node1 -->
<g id="edge3" class="edge"><title>Node4&#45;&gt;Node1</title>
<path fill="none" stroke="#9a32cd" stroke-dasharray="5,2" d="M228.004,-59.4319C224.159,-52.2354 219.06,-44.1675 213,-38 205.588,-30.4566 195.66,-24.1307 187.111,-19.5027"/>
<polygon fill="#9a32cd" stroke="#9a32cd" points="224.884,-61.0194 232.441,-68.4447 231.164,-57.9272 224.884,-61.0194"/>
<text text-anchor="middle" x="249" y="-41.5" font-family="Helvetica,sans-Serif" font-size="10.00"> myCanvas</text>
</g>
</g>
</svg>
