<?xml version="1.0" encoding="UTF-8" standalone="no"?>
<!DOCTYPE svg PUBLIC "-//W3C//DTD SVG 1.1//EN"
 "http://www.w3.org/Graphics/SVG/1.1/DTD/svg11.dtd">
<!-- Generated by graphviz version 2.36.0 (20140111.2315)
 -->
<!-- Title: slogo.frontend.Config.ParameterDistributor.readConfigHashMap Pages: 1 -->
<svg width="1930pt" height="60pt"
 viewBox="0.00 0.00 1930.00 60.00" xmlns="http://www.w3.org/2000/svg" xmlns:xlink="http://www.w3.org/1999/xlink">
<g id="graph0" class="graph" transform="scale(1 1) rotate(0) translate(4 56)">
<title>slogo.frontend.Config.ParameterDistributor.readConfigHashMap</title>
<polygon fill="white" stroke="none" points="-4,4 -4,-56 1926,-56 1926,4 -4,4"/>
<!-- Node1 -->
<g id="node1" class="node"><title>Node1</title>
<polygon fill="#bfbfbf" stroke="black" points="0,-0 0,-30 172,-30 172,-0 0,-0"/>
<text text-anchor="start" x="8" y="-18" font-family="Helvetica,sans-Serif" font-size="10.00">slogo.frontend.Config.Parameter</text>
<text text-anchor="middle" x="86" y="-7" font-family="Helvetica,sans-Serif" font-size="10.00">Distributor.readConfigHashMap</text>
</g>
<!-- Node2 -->
<g id="node2" class="node"><title>Node2</title>
<g id="a_node2"><a xlink:href="../../d9/d3c/classslogo_1_1frontend_1_1_config_1_1_config_reader.html#ac79590c5fe1030679ca58c8c26ef8dab" target="_top" xlink:title="slogo.frontend.Config.Config\lReader.readFile">
<polygon fill="white" stroke="black" points="208,-0 208,-30 360,-30 360,-0 208,-0"/>
<text text-anchor="start" x="216" y="-18" font-family="Helvetica,sans-Serif" font-size="10.00">slogo.frontend.Config.Config</text>
<text text-anchor="middle" x="284" y="-7" font-family="Helvetica,sans-Serif" font-size="10.00">Reader.readFile</text>
</a>
</g>
</g>
<!-- Node1&#45;&gt;Node2 -->
<g id="edge1" class="edge"><title>Node1&#45;&gt;Node2</title>
<path fill="none" stroke="midnightblue" d="M182.183,-15C190.785,-15 199.417,-15 207.812,-15"/>
<polygon fill="midnightblue" stroke="midnightblue" points="182.113,-11.5001 172.113,-15 182.113,-18.5001 182.113,-11.5001"/>
</g>
<!-- Node3 -->
<g id="node3" class="node"><title>Node3</title>
<g id="a_node3"><a xlink:href="../../db/d19/classslogo_1_1_u_i_1_1_module_creation_helper.html#aa6a7c88b3112494b64bba3cfc608e2be" target="_top" xlink:title="slogo.UI.ModuleCreationHelper.activate\lLoadButton">
<polygon fill="white" stroke="black" points="396.5,-0 396.5,-30 601.5,-30 601.5,-0 396.5,-0"/>
<text text-anchor="start" x="404.5" y="-18" font-family="Helvetica,sans-Serif" font-size="10.00">slogo.UI.ModuleCreationHelper.activate</text>
<text text-anchor="middle" x="499" y="-7" font-family="Helvetica,sans-Serif" font-size="10.00">LoadButton</text>
</a>
</g>
</g>
<!-- Node2&#45;&gt;Node3 -->
<g id="edge2" class="edge"><title>Node2&#45;&gt;Node3</title>
<path fill="none" stroke="midnightblue" d="M370.118,-15C378.744,-15 387.565,-15 396.342,-15"/>
<polygon fill="midnightblue" stroke="midnightblue" points="370.096,-11.5001 360.096,-15 370.096,-18.5001 370.096,-11.5001"/>
</g>
<!-- Node4 -->
<g id="node4" class="node"><title>Node4</title>
<g id="a_node4"><a xlink:href="../../db/d19/classslogo_1_1_u_i_1_1_module_creation_helper.html#ae9c212513214962b5692051497567f68" target="_top" xlink:title="slogo.UI.ModuleCreationHelper.create\lLoadButton">
<polygon fill="white" stroke="black" points="638.5,-0 638.5,-30 835.5,-30 835.5,-0 638.5,-0"/>
<text text-anchor="start" x="646.5" y="-18" font-family="Helvetica,sans-Serif" font-size="10.00">slogo.UI.ModuleCreationHelper.create</text>
<text text-anchor="middle" x="737" y="-7" font-family="Helvetica,sans-Serif" font-size="10.00">LoadButton</text>
</a>
</g>
</g>
<!-- Node3&#45;&gt;Node4 -->
<g id="edge3" class="edge"><title>Node3&#45;&gt;Node4</title>
<path fill="none" stroke="midnightblue" d="M612.051,-15C620.813,-15 629.618,-15 638.274,-15"/>
<polygon fill="midnightblue" stroke="midnightblue" points="611.798,-11.5001 601.798,-15 611.798,-18.5001 611.798,-11.5001"/>
</g>
<!-- Node5 -->
<g id="node5" class="node"><title>Node5</title>
<g id="a_node5"><a xlink:href="../../db/d19/classslogo_1_1_u_i_1_1_module_creation_helper.html#a7c650957b2389d6e6d36e8be8a33cd2b" target="_top" xlink:title="slogo.UI.ModuleCreationHelper.create\lSelectorVBoxModules">
<polygon fill="white" stroke="black" points="872.5,-0 872.5,-30 1069.5,-30 1069.5,-0 872.5,-0"/>
<text text-anchor="start" x="880.5" y="-18" font-family="Helvetica,sans-Serif" font-size="10.00">slogo.UI.ModuleCreationHelper.create</text>
<text text-anchor="middle" x="971" y="-7" font-family="Helvetica,sans-Serif" font-size="10.00">SelectorVBoxModules</text>
</a>
</g>
</g>
<!-- Node4&#45;&gt;Node5 -->
<g id="edge4" class="edge"><title>Node4&#45;&gt;Node5</title>
<path fill="none" stroke="midnightblue" d="M845.722,-15C854.618,-15 863.58,-15 872.396,-15"/>
<polygon fill="midnightblue" stroke="midnightblue" points="845.717,-11.5001 835.716,-15 845.716,-18.5001 845.717,-11.5001"/>
</g>
<!-- Node6 -->
<g id="node6" class="node"><title>Node6</title>
<g id="a_node6"><a xlink:href="../../db/d19/classslogo_1_1_u_i_1_1_module_creation_helper.html#afb9dbbbad7d872234a5b296fe129a34e" target="_top" xlink:title="slogo.UI.ModuleCreationHelper.create\lMainPageModules">
<polygon fill="white" stroke="black" points="1106.5,-22 1106.5,-52 1303.5,-52 1303.5,-22 1106.5,-22"/>
<text text-anchor="start" x="1114.5" y="-40" font-family="Helvetica,sans-Serif" font-size="10.00">slogo.UI.ModuleCreationHelper.create</text>
<text text-anchor="middle" x="1205" y="-29" font-family="Helvetica,sans-Serif" font-size="10.00">MainPageModules</text>
</a>
</g>
</g>
<!-- Node5&#45;&gt;Node6 -->
<g id="edge5" class="edge"><title>Node5&#45;&gt;Node6</title>
<path fill="none" stroke="midnightblue" d="M1079.72,-25.215C1088.62,-26.0586 1097.58,-26.9085 1106.4,-27.7445"/>
<polygon fill="midnightblue" stroke="midnightblue" points="1080,-21.726 1069.72,-24.2662 1079.34,-28.6947 1080,-21.726"/>
</g>
<!-- Node7 -->
<g id="node7" class="node"><title>Node7</title>
<g id="a_node7"><a xlink:href="../../d9/d33/classslogo_1_1_u_i_1_1_main.html#a15b7f2e399ee24d160550993ab737e73" target="_top" xlink:title="slogo.UI.Main.start">
<polygon fill="white" stroke="black" points="1340,-27.5 1340,-46.5 1446,-46.5 1446,-27.5 1340,-27.5"/>
<text text-anchor="middle" x="1393" y="-34.5" font-family="Helvetica,sans-Serif" font-size="10.00">slogo.UI.Main.start</text>
</a>
</g>
</g>
<!-- Node6&#45;&gt;Node7 -->
<g id="edge6" class="edge"><title>Node6&#45;&gt;Node7</title>
<path fill="none" stroke="midnightblue" d="M1313.8,-37C1322.76,-37 1331.53,-37 1339.76,-37"/>
<polygon fill="midnightblue" stroke="midnightblue" points="1313.63,-33.5001 1303.63,-37 1313.63,-40.5001 1313.63,-33.5001"/>
</g>
<!-- Node8 -->
<g id="node8" class="node"><title>Node8</title>
<g id="a_node8"><a xlink:href="../../db/d19/classslogo_1_1_u_i_1_1_module_creation_helper.html#a3be12a7cc2b8a219db1e296211a2cb88" target="_top" xlink:title="slogo.UI.ModuleCreationHelper.activate\lExtraWorkspaceButton">
<polygon fill="white" stroke="black" points="1482.5,-22 1482.5,-52 1687.5,-52 1687.5,-22 1482.5,-22"/>
<text text-anchor="start" x="1490.5" y="-40" font-family="Helvetica,sans-Serif" font-size="10.00">slogo.UI.ModuleCreationHelper.activate</text>
<text text-anchor="middle" x="1585" y="-29" font-family="Helvetica,sans-Serif" font-size="10.00">ExtraWorkspaceButton</text>
</a>
</g>
</g>
<!-- Node7&#45;&gt;Node8 -->
<g id="edge7" class="edge"><title>Node7&#45;&gt;Node8</title>
<path fill="none" stroke="midnightblue" d="M1456.22,-37C1464.63,-37 1473.44,-37 1482.32,-37"/>
<polygon fill="midnightblue" stroke="midnightblue" points="1456.17,-33.5001 1446.17,-37 1456.17,-40.5001 1456.17,-33.5001"/>
</g>
<!-- Node9 -->
<g id="node9" class="node"><title>Node9</title>
<g id="a_node9"><a xlink:href="../../db/d19/classslogo_1_1_u_i_1_1_module_creation_helper.html#a702c1ebe24d2857a10c666eb1fcc315d" target="_top" xlink:title="slogo.UI.ModuleCreationHelper.create\lExtraWorkspaceButton">
<polygon fill="white" stroke="black" points="1724.5,-0 1724.5,-30 1921.5,-30 1921.5,-0 1724.5,-0"/>
<text text-anchor="start" x="1732.5" y="-18" font-family="Helvetica,sans-Serif" font-size="10.00">slogo.UI.ModuleCreationHelper.create</text>
<text text-anchor="middle" x="1823" y="-7" font-family="Helvetica,sans-Serif" font-size="10.00">ExtraWorkspaceButton</text>
</a>
</g>
</g>
<!-- Node8&#45;&gt;Node9 -->
<g id="edge8" class="edge"><title>Node8&#45;&gt;Node9</title>
<path fill="none" stroke="midnightblue" d="M1697.77,-26.5812C1706.62,-25.7556 1715.52,-24.9257 1724.27,-24.1101"/>
<polygon fill="midnightblue" stroke="midnightblue" points="1697.43,-23.0972 1687.8,-27.5104 1698.08,-30.067 1697.43,-23.0972"/>
</g>
<!-- Node9&#45;&gt;Node5 -->
<g id="edge9" class="edge"><title>Node9&#45;&gt;Node5</title>
<path fill="none" stroke="midnightblue" d="M1714.27,-12.3776C1705.38,-12.2253 1696.54,-12.0956 1688,-12 1429.35,-9.10502 1364.65,-9.10502 1106,-12 1094.25,-12.1315 1081.92,-12.3279 1069.7,-12.5584"/>
<polygon fill="midnightblue" stroke="midnightblue" points="1714.24,-15.8776 1724.3,-12.5584 1714.37,-8.87874 1714.24,-15.8776"/>
</g>
</g>
</svg>
