<?xml version="1.0" encoding="UTF-8" standalone="no"?>
<!DOCTYPE svg PUBLIC "-//W3C//DTD SVG 1.1//EN"
 "http://www.w3.org/Graphics/SVG/1.1/DTD/svg11.dtd">
<!-- Generated by graphviz version 2.36.0 (20140111.2315)
 -->
<!-- Title: slogo.frontend.Config.ParameterDistributor.distributeVariables Pages: 1 -->
<svg width="2138pt" height="60pt"
 viewBox="0.00 0.00 2138.00 60.00" xmlns="http://www.w3.org/2000/svg" xmlns:xlink="http://www.w3.org/1999/xlink">
<g id="graph0" class="graph" transform="scale(1 1) rotate(0) translate(4 56)">
<title>slogo.frontend.Config.ParameterDistributor.distributeVariables</title>
<polygon fill="white" stroke="none" points="-4,4 -4,-56 2134,-56 2134,4 -4,4"/>
<!-- Node1 -->
<g id="node1" class="node"><title>Node1</title>
<polygon fill="#bfbfbf" stroke="black" points="0,-0 0,-30 172,-30 172,-0 0,-0"/>
<text text-anchor="start" x="8" y="-18" font-family="Helvetica,sans-Serif" font-size="10.00">slogo.frontend.Config.Parameter</text>
<text text-anchor="middle" x="86" y="-7" font-family="Helvetica,sans-Serif" font-size="10.00">Distributor.distributeVariables</text>
</g>
<!-- Node2 -->
<g id="node2" class="node"><title>Node2</title>
<g id="a_node2"><a xlink:href="../../dd/def/classslogo_1_1frontend_1_1_config_1_1_parameter_distributor.html#a44241aeccc00d7aafa4c6b65abf62961" target="_top" xlink:title="slogo.frontend.Config.Parameter\lDistributor.readConfigHashMap">
<polygon fill="white" stroke="black" points="208,-0 208,-30 380,-30 380,-0 208,-0"/>
<text text-anchor="start" x="216" y="-18" font-family="Helvetica,sans-Serif" font-size="10.00">slogo.frontend.Config.Parameter</text>
<text text-anchor="middle" x="294" y="-7" font-family="Helvetica,sans-Serif" font-size="10.00">Distributor.readConfigHashMap</text>
</a>
</g>
</g>
<!-- Node1&#45;&gt;Node2 -->
<g id="edge1" class="edge"><title>Node1&#45;&gt;Node2</title>
<path fill="none" stroke="midnightblue" d="M182.514,-15C190.947,-15 199.448,-15 207.789,-15"/>
<polygon fill="midnightblue" stroke="midnightblue" points="182.275,-11.5001 172.275,-15 182.275,-18.5001 182.275,-11.5001"/>
</g>
<!-- Node3 -->
<g id="node3" class="node"><title>Node3</title>
<g id="a_node3"><a xlink:href="../../d9/d3c/classslogo_1_1frontend_1_1_config_1_1_config_reader.html#ac79590c5fe1030679ca58c8c26ef8dab" target="_top" xlink:title="slogo.frontend.Config.Config\lReader.readFile">
<polygon fill="white" stroke="black" points="416,-0 416,-30 568,-30 568,-0 416,-0"/>
<text text-anchor="start" x="424" y="-18" font-family="Helvetica,sans-Serif" font-size="10.00">slogo.frontend.Config.Config</text>
<text text-anchor="middle" x="492" y="-7" font-family="Helvetica,sans-Serif" font-size="10.00">Reader.readFile</text>
</a>
</g>
</g>
<!-- Node2&#45;&gt;Node3 -->
<g id="edge2" class="edge"><title>Node2&#45;&gt;Node3</title>
<path fill="none" stroke="midnightblue" d="M390.183,-15C398.785,-15 407.417,-15 415.812,-15"/>
<polygon fill="midnightblue" stroke="midnightblue" points="390.113,-11.5001 380.113,-15 390.113,-18.5001 390.113,-11.5001"/>
</g>
<!-- Node4 -->
<g id="node4" class="node"><title>Node4</title>
<g id="a_node4"><a xlink:href="../../db/d19/classslogo_1_1_u_i_1_1_module_creation_helper.html#aa6a7c88b3112494b64bba3cfc608e2be" target="_top" xlink:title="slogo.UI.ModuleCreationHelper.activate\lLoadButton">
<polygon fill="white" stroke="black" points="604.5,-0 604.5,-30 809.5,-30 809.5,-0 604.5,-0"/>
<text text-anchor="start" x="612.5" y="-18" font-family="Helvetica,sans-Serif" font-size="10.00">slogo.UI.ModuleCreationHelper.activate</text>
<text text-anchor="middle" x="707" y="-7" font-family="Helvetica,sans-Serif" font-size="10.00">LoadButton</text>
</a>
</g>
</g>
<!-- Node3&#45;&gt;Node4 -->
<g id="edge3" class="edge"><title>Node3&#45;&gt;Node4</title>
<path fill="none" stroke="midnightblue" d="M578.118,-15C586.744,-15 595.565,-15 604.342,-15"/>
<polygon fill="midnightblue" stroke="midnightblue" points="578.096,-11.5001 568.096,-15 578.096,-18.5001 578.096,-11.5001"/>
</g>
<!-- Node5 -->
<g id="node5" class="node"><title>Node5</title>
<g id="a_node5"><a xlink:href="../../db/d19/classslogo_1_1_u_i_1_1_module_creation_helper.html#ae9c212513214962b5692051497567f68" target="_top" xlink:title="slogo.UI.ModuleCreationHelper.create\lLoadButton">
<polygon fill="white" stroke="black" points="846.5,-0 846.5,-30 1043.5,-30 1043.5,-0 846.5,-0"/>
<text text-anchor="start" x="854.5" y="-18" font-family="Helvetica,sans-Serif" font-size="10.00">slogo.UI.ModuleCreationHelper.create</text>
<text text-anchor="middle" x="945" y="-7" font-family="Helvetica,sans-Serif" font-size="10.00">LoadButton</text>
</a>
</g>
</g>
<!-- Node4&#45;&gt;Node5 -->
<g id="edge4" class="edge"><title>Node4&#45;&gt;Node5</title>
<path fill="none" stroke="midnightblue" d="M820.051,-15C828.813,-15 837.618,-15 846.274,-15"/>
<polygon fill="midnightblue" stroke="midnightblue" points="819.798,-11.5001 809.798,-15 819.798,-18.5001 819.798,-11.5001"/>
</g>
<!-- Node6 -->
<g id="node6" class="node"><title>Node6</title>
<g id="a_node6"><a xlink:href="../../db/d19/classslogo_1_1_u_i_1_1_module_creation_helper.html#a7c650957b2389d6e6d36e8be8a33cd2b" target="_top" xlink:title="slogo.UI.ModuleCreationHelper.create\lSelectorVBoxModules">
<polygon fill="white" stroke="black" points="1080.5,-0 1080.5,-30 1277.5,-30 1277.5,-0 1080.5,-0"/>
<text text-anchor="start" x="1088.5" y="-18" font-family="Helvetica,sans-Serif" font-size="10.00">slogo.UI.ModuleCreationHelper.create</text>
<text text-anchor="middle" x="1179" y="-7" font-family="Helvetica,sans-Serif" font-size="10.00">SelectorVBoxModules</text>
</a>
</g>
</g>
<!-- Node5&#45;&gt;Node6 -->
<g id="edge5" class="edge"><title>Node5&#45;&gt;Node6</title>
<path fill="none" stroke="midnightblue" d="M1053.72,-15C1062.62,-15 1071.58,-15 1080.4,-15"/>
<polygon fill="midnightblue" stroke="midnightblue" points="1053.72,-11.5001 1043.72,-15 1053.72,-18.5001 1053.72,-11.5001"/>
</g>
<!-- Node7 -->
<g id="node7" class="node"><title>Node7</title>
<g id="a_node7"><a xlink:href="../../db/d19/classslogo_1_1_u_i_1_1_module_creation_helper.html#afb9dbbbad7d872234a5b296fe129a34e" target="_top" xlink:title="slogo.UI.ModuleCreationHelper.create\lMainPageModules">
<polygon fill="white" stroke="black" points="1314.5,-22 1314.5,-52 1511.5,-52 1511.5,-22 1314.5,-22"/>
<text text-anchor="start" x="1322.5" y="-40" font-family="Helvetica,sans-Serif" font-size="10.00">slogo.UI.ModuleCreationHelper.create</text>
<text text-anchor="middle" x="1413" y="-29" font-family="Helvetica,sans-Serif" font-size="10.00">MainPageModules</text>
</a>
</g>
</g>
<!-- Node6&#45;&gt;Node7 -->
<g id="edge6" class="edge"><title>Node6&#45;&gt;Node7</title>
<path fill="none" stroke="midnightblue" d="M1287.72,-25.215C1296.62,-26.0586 1305.58,-26.9085 1314.4,-27.7445"/>
<polygon fill="midnightblue" stroke="midnightblue" points="1288,-21.726 1277.72,-24.2662 1287.34,-28.6947 1288,-21.726"/>
</g>
<!-- Node8 -->
<g id="node8" class="node"><title>Node8</title>
<g id="a_node8"><a xlink:href="../../d9/d33/classslogo_1_1_u_i_1_1_main.html#a15b7f2e399ee24d160550993ab737e73" target="_top" xlink:title="slogo.UI.Main.start">
<polygon fill="white" stroke="black" points="1548,-27.5 1548,-46.5 1654,-46.5 1654,-27.5 1548,-27.5"/>
<text text-anchor="middle" x="1601" y="-34.5" font-family="Helvetica,sans-Serif" font-size="10.00">slogo.UI.Main.start</text>
</a>
</g>
</g>
<!-- Node7&#45;&gt;Node8 -->
<g id="edge7" class="edge"><title>Node7&#45;&gt;Node8</title>
<path fill="none" stroke="midnightblue" d="M1521.8,-37C1530.76,-37 1539.53,-37 1547.76,-37"/>
<polygon fill="midnightblue" stroke="midnightblue" points="1521.63,-33.5001 1511.63,-37 1521.63,-40.5001 1521.63,-33.5001"/>
</g>
<!-- Node9 -->
<g id="node9" class="node"><title>Node9</title>
<g id="a_node9"><a xlink:href="../../db/d19/classslogo_1_1_u_i_1_1_module_creation_helper.html#a3be12a7cc2b8a219db1e296211a2cb88" target="_top" xlink:title="slogo.UI.ModuleCreationHelper.activate\lExtraWorkspaceButton">
<polygon fill="white" stroke="black" points="1690.5,-22 1690.5,-52 1895.5,-52 1895.5,-22 1690.5,-22"/>
<text text-anchor="start" x="1698.5" y="-40" font-family="Helvetica,sans-Serif" font-size="10.00">slogo.UI.ModuleCreationHelper.activate</text>
<text text-anchor="middle" x="1793" y="-29" font-family="Helvetica,sans-Serif" font-size="10.00">ExtraWorkspaceButton</text>
</a>
</g>
</g>
<!-- Node8&#45;&gt;Node9 -->
<g id="edge8" class="edge"><title>Node8&#45;&gt;Node9</title>
<path fill="none" stroke="midnightblue" d="M1664.22,-37C1672.63,-37 1681.44,-37 1690.32,-37"/>
<polygon fill="midnightblue" stroke="midnightblue" points="1664.17,-33.5001 1654.17,-37 1664.17,-40.5001 1664.17,-33.5001"/>
</g>
<!-- Node10 -->
<g id="node10" class="node"><title>Node10</title>
<g id="a_node10"><a xlink:href="../../db/d19/classslogo_1_1_u_i_1_1_module_creation_helper.html#a702c1ebe24d2857a10c666eb1fcc315d" target="_top" xlink:title="slogo.UI.ModuleCreationHelper.create\lExtraWorkspaceButton">
<polygon fill="white" stroke="black" points="1932.5,-0 1932.5,-30 2129.5,-30 2129.5,-0 1932.5,-0"/>
<text text-anchor="start" x="1940.5" y="-18" font-family="Helvetica,sans-Serif" font-size="10.00">slogo.UI.ModuleCreationHelper.create</text>
<text text-anchor="middle" x="2031" y="-7" font-family="Helvetica,sans-Serif" font-size="10.00">ExtraWorkspaceButton</text>
</a>
</g>
</g>
<!-- Node9&#45;&gt;Node10 -->
<g id="edge9" class="edge"><title>Node9&#45;&gt;Node10</title>
<path fill="none" stroke="midnightblue" d="M1905.77,-26.5812C1914.62,-25.7556 1923.52,-24.9257 1932.27,-24.1101"/>
<polygon fill="midnightblue" stroke="midnightblue" points="1905.43,-23.0972 1895.8,-27.5104 1906.08,-30.067 1905.43,-23.0972"/>
</g>
<!-- Node10&#45;&gt;Node6 -->
<g id="edge10" class="edge"><title>Node10&#45;&gt;Node6</title>
<path fill="none" stroke="midnightblue" d="M1922.27,-12.3776C1913.38,-12.2253 1904.54,-12.0956 1896,-12 1637.35,-9.10502 1572.65,-9.10502 1314,-12 1302.25,-12.1315 1289.92,-12.3279 1277.7,-12.5584"/>
<polygon fill="midnightblue" stroke="midnightblue" points="1922.24,-15.8776 1932.3,-12.5584 1922.37,-8.87874 1922.24,-15.8776"/>
</g>
</g>
</svg>
