<?xml version="1.0" encoding="UTF-8" standalone="no"?>
<!DOCTYPE svg PUBLIC "-//W3C//DTD SVG 1.1//EN"
 "http://www.w3.org/Graphics/SVG/1.1/DTD/svg11.dtd">
<!-- Generated by graphviz version 2.36.0 (20140111.2315)
 -->
<!-- Title: slogo.UI.TurtleImageSelector.setValue Pages: 1 -->
<svg width="3122pt" height="427pt"
 viewBox="0.00 0.00 3122.00 427.00" xmlns="http://www.w3.org/2000/svg" xmlns:xlink="http://www.w3.org/1999/xlink">
<g id="graph0" class="graph" transform="scale(1 1) rotate(0) translate(4 423)">
<title>slogo.UI.TurtleImageSelector.setValue</title>
<polygon fill="white" stroke="none" points="-4,4 -4,-423 3118,-423 3118,4 -4,4"/>
<!-- Node1 -->
<g id="node1" class="node"><title>Node1</title>
<polygon fill="#bfbfbf" stroke="black" points="0,-49 0,-79 170,-79 170,-49 0,-49"/>
<text text-anchor="start" x="8" y="-67" font-family="Helvetica,sans-Serif" font-size="10.00">slogo.UI.TurtleImageSelector.set</text>
<text text-anchor="middle" x="85" y="-56" font-family="Helvetica,sans-Serif" font-size="10.00">Value</text>
</g>
<!-- Node2 -->
<g id="node2" class="node"><title>Node2</title>
<g id="a_node2"><a xlink:href="../../d9/d7e/classslogo_1_1_u_i_1_1_method_runner.html#a7acbc486941b60522435d579c227d6db" target="_top" xlink:title="slogo.UI.MethodRunner.set\lTurtleImage">
<polygon fill="white" stroke="black" points="206,-49 206,-79 350,-79 350,-49 206,-49"/>
<text text-anchor="start" x="214" y="-67" font-family="Helvetica,sans-Serif" font-size="10.00">slogo.UI.MethodRunner.set</text>
<text text-anchor="middle" x="278" y="-56" font-family="Helvetica,sans-Serif" font-size="10.00">TurtleImage</text>
</a>
</g>
</g>
<!-- Node1&#45;&gt;Node2 -->
<g id="edge1" class="edge"><title>Node1&#45;&gt;Node2</title>
<path fill="none" stroke="midnightblue" d="M180.143,-64C188.758,-64 197.387,-64 205.751,-64"/>
<polygon fill="midnightblue" stroke="midnightblue" points="180.053,-60.5001 170.053,-64 180.053,-67.5001 180.053,-60.5001"/>
</g>
<!-- Node3 -->
<g id="node3" class="node"><title>Node3</title>
<g id="a_node3"><a xlink:href="../../d9/d7e/classslogo_1_1_u_i_1_1_method_runner.html#a5e01d88aabd60df2be9ebb5b874837b1" target="_top" xlink:title="slogo.UI.MethodRunner.set\lPenAttributes">
<polygon fill="white" stroke="black" points="386,-49 386,-79 530,-79 530,-49 386,-49"/>
<text text-anchor="start" x="394" y="-67" font-family="Helvetica,sans-Serif" font-size="10.00">slogo.UI.MethodRunner.set</text>
<text text-anchor="middle" x="458" y="-56" font-family="Helvetica,sans-Serif" font-size="10.00">PenAttributes</text>
</a>
</g>
</g>
<!-- Node2&#45;&gt;Node3 -->
<g id="edge2" class="edge"><title>Node2&#45;&gt;Node3</title>
<path fill="none" stroke="midnightblue" d="M360.17,-64C368.789,-64 377.506,-64 385.995,-64"/>
<polygon fill="midnightblue" stroke="midnightblue" points="360.118,-60.5001 350.118,-64 360.118,-67.5001 360.118,-60.5001"/>
</g>
<!-- Node4 -->
<g id="node4" class="node"><title>Node4</title>
<g id="a_node4"><a xlink:href="../../d9/d7e/classslogo_1_1_u_i_1_1_method_runner.html#a5fe4a6310ba1b0851d7d30a440511324" target="_top" xlink:title="slogo.UI.MethodRunner.change\lTurtle">
<polygon fill="white" stroke="black" points="566,-49 566,-79 730,-79 730,-49 566,-49"/>
<text text-anchor="start" x="574" y="-67" font-family="Helvetica,sans-Serif" font-size="10.00">slogo.UI.MethodRunner.change</text>
<text text-anchor="middle" x="648" y="-56" font-family="Helvetica,sans-Serif" font-size="10.00">Turtle</text>
</a>
</g>
</g>
<!-- Node3&#45;&gt;Node4 -->
<g id="edge3" class="edge"><title>Node3&#45;&gt;Node4</title>
<path fill="none" stroke="midnightblue" d="M540.28,-64C548.719,-64 557.298,-64 565.736,-64"/>
<polygon fill="midnightblue" stroke="midnightblue" points="540.075,-60.5001 530.075,-64 540.075,-67.5001 540.075,-60.5001"/>
</g>
<!-- Node5 -->
<g id="node5" class="node"><title>Node5</title>
<g id="a_node5"><a xlink:href="../../df/d2d/classslogo_1_1_view.html#accc79c56511a72090ff8a4d414b8d1f5" target="_top" xlink:title="slogo.View.executeTurtle\lCommands">
<polygon fill="white" stroke="black" points="766.5,-49 766.5,-79 899.5,-79 899.5,-49 766.5,-49"/>
<text text-anchor="start" x="774.5" y="-67" font-family="Helvetica,sans-Serif" font-size="10.00">slogo.View.executeTurtle</text>
<text text-anchor="middle" x="833" y="-56" font-family="Helvetica,sans-Serif" font-size="10.00">Commands</text>
</a>
</g>
</g>
<!-- Node4&#45;&gt;Node5 -->
<g id="edge4" class="edge"><title>Node4&#45;&gt;Node5</title>
<path fill="none" stroke="midnightblue" d="M740.35,-64C749.128,-64 757.907,-64 766.365,-64"/>
<polygon fill="midnightblue" stroke="midnightblue" points="740.066,-60.5001 730.066,-64 740.066,-67.5001 740.066,-60.5001"/>
</g>
<!-- Node6 -->
<g id="node6" class="node"><title>Node6</title>
<g id="a_node6"><a xlink:href="../../df/d2d/classslogo_1_1_view.html#aa90e5d95d422b58b7f4b7f8a049defe1" target="_top" xlink:title="slogo.View.executeCommand">
<polygon fill="white" stroke="black" points="936,-54.5 936,-73.5 1094,-73.5 1094,-54.5 936,-54.5"/>
<text text-anchor="middle" x="1015" y="-61.5" font-family="Helvetica,sans-Serif" font-size="10.00">slogo.View.executeCommand</text>
</a>
</g>
</g>
<!-- Node5&#45;&gt;Node6 -->
<g id="edge5" class="edge"><title>Node5&#45;&gt;Node6</title>
<path fill="none" stroke="midnightblue" d="M909.784,-64C918.42,-64 927.235,-64 935.901,-64"/>
<polygon fill="midnightblue" stroke="midnightblue" points="909.748,-60.5001 899.748,-64 909.748,-67.5001 909.748,-60.5001"/>
</g>
<!-- Node7 -->
<g id="node7" class="node"><title>Node7</title>
<g id="a_node7"><a xlink:href="../../df/d2d/classslogo_1_1_view.html#aee563f6a0b15ac6668e4dcbdad40c73c" target="_top" xlink:title="slogo.View.sendCommandTo\lBackend">
<polygon fill="white" stroke="black" points="1136,-213 1136,-243 1288,-243 1288,-213 1136,-213"/>
<text text-anchor="start" x="1144" y="-231" font-family="Helvetica,sans-Serif" font-size="10.00">slogo.View.sendCommandTo</text>
<text text-anchor="middle" x="1212" y="-220" font-family="Helvetica,sans-Serif" font-size="10.00">Backend</text>
</a>
</g>
</g>
<!-- Node6&#45;&gt;Node7 -->
<g id="edge6" class="edge"><title>Node6&#45;&gt;Node7</title>
<path fill="none" stroke="midnightblue" d="M1035.05,-80.0252C1072.77,-111.741 1156.43,-182.108 1193.15,-212.984"/>
<polygon fill="midnightblue" stroke="midnightblue" points="1037.23,-77.2841 1027.33,-73.5262 1032.73,-82.6414 1037.23,-77.2841"/>
</g>
<!-- Node27 -->
<g id="node27" class="node"><title>Node27</title>
<g id="a_node27"><a xlink:href="../../df/d2d/classslogo_1_1_view.html#a4c3084a198acf85804800d70eff9ee51" target="_top" xlink:title="slogo.View.stepIntoCommand">
<polygon fill="white" stroke="black" points="1133,-54.5 1133,-73.5 1291,-73.5 1291,-54.5 1133,-54.5"/>
<text text-anchor="middle" x="1212" y="-61.5" font-family="Helvetica,sans-Serif" font-size="10.00">slogo.View.stepIntoCommand</text>
</a>
</g>
</g>
<!-- Node6&#45;&gt;Node27 -->
<g id="edge34" class="edge"><title>Node6&#45;&gt;Node27</title>
<path fill="none" stroke="midnightblue" d="M1104.4,-64C1113.87,-64 1123.45,-64 1132.79,-64"/>
<polygon fill="midnightblue" stroke="midnightblue" points="1104.19,-60.5001 1094.19,-64 1104.19,-67.5001 1104.19,-60.5001"/>
</g>
<!-- Node31 -->
<g id="node31" class="node"><title>Node31</title>
<g id="a_node31"><a xlink:href="../../df/d2d/classslogo_1_1_view.html#ac8b7f574c679e744a430f1649dc55e68" target="_top" xlink:title="slogo.View.stepOverCommand">
<polygon fill="white" stroke="black" points="1130.5,-11.5 1130.5,-30.5 1293.5,-30.5 1293.5,-11.5 1130.5,-11.5"/>
<text text-anchor="middle" x="1212" y="-18.5" font-family="Helvetica,sans-Serif" font-size="10.00">slogo.View.stepOverCommand</text>
</a>
</g>
</g>
<!-- Node6&#45;&gt;Node31 -->
<g id="edge39" class="edge"><title>Node6&#45;&gt;Node31</title>
<path fill="none" stroke="midnightblue" d="M1069.06,-52.3005C1100.07,-45.462 1138.71,-36.9406 1167.84,-30.5164"/>
<polygon fill="midnightblue" stroke="midnightblue" points="1068.29,-48.8855 1059.28,-54.4569 1069.8,-55.7213 1068.29,-48.8855"/>
</g>
<!-- Node8 -->
<g id="node8" class="node"><title>Node8</title>
<g id="a_node8"><a xlink:href="../../db/d19/classslogo_1_1_u_i_1_1_module_creation_helper.html#a69e17abcc7cf9a6ed7261d8fb1d631fa" target="_top" xlink:title="slogo.UI.ModuleCreationHelper.activate\lIncreaseDecreaseButtons">
<polygon fill="white" stroke="black" points="1330.5,-389 1330.5,-419 1535.5,-419 1535.5,-389 1330.5,-389"/>
<text text-anchor="start" x="1338.5" y="-407" font-family="Helvetica,sans-Serif" font-size="10.00">slogo.UI.ModuleCreationHelper.activate</text>
<text text-anchor="middle" x="1433" y="-396" font-family="Helvetica,sans-Serif" font-size="10.00">IncreaseDecreaseButtons</text>
</a>
</g>
</g>
<!-- Node7&#45;&gt;Node8 -->
<g id="edge7" class="edge"><title>Node7&#45;&gt;Node8</title>
<path fill="none" stroke="midnightblue" d="M1226.04,-252.219C1244.78,-284.724 1282.36,-342.06 1330,-374 1339.12,-380.116 1349.51,-385.01 1360.09,-388.919"/>
<polygon fill="midnightblue" stroke="midnightblue" points="1229.01,-250.361 1221.05,-243.368 1222.91,-253.798 1229.01,-250.361"/>
</g>
<!-- Node15 -->
<g id="node15" class="node"><title>Node15</title>
<g id="a_node15"><a xlink:href="../../db/d19/classslogo_1_1_u_i_1_1_module_creation_helper.html#aa70b0ad9e90e62509149bfd2ef2ba209" target="_top" xlink:title="slogo.UI.ModuleCreationHelper.activate\lKeyEvents">
<polygon fill="white" stroke="black" points="2056.5,-136 2056.5,-166 2261.5,-166 2261.5,-136 2056.5,-136"/>
<text text-anchor="start" x="2064.5" y="-154" font-family="Helvetica,sans-Serif" font-size="10.00">slogo.UI.ModuleCreationHelper.activate</text>
<text text-anchor="middle" x="2159" y="-143" font-family="Helvetica,sans-Serif" font-size="10.00">KeyEvents</text>
</a>
</g>
</g>
<!-- Node7&#45;&gt;Node15 -->
<g id="edge15" class="edge"><title>Node7&#45;&gt;Node15</title>
<path fill="none" stroke="midnightblue" d="M1242.18,-207.164C1264.9,-192.251 1297.88,-173.388 1330,-165 1464.15,-129.97 1866.16,-139.777 2056.26,-146.744"/>
<polygon fill="midnightblue" stroke="midnightblue" points="1240.05,-204.378 1233.7,-212.86 1243.95,-210.189 1240.05,-204.378"/>
</g>
<!-- Node16 -->
<g id="node16" class="node"><title>Node16</title>
<g id="a_node16"><a xlink:href="../../db/d19/classslogo_1_1_u_i_1_1_module_creation_helper.html#a2e841243ec3ca474e8822102343acc88" target="_top" xlink:title="slogo.UI.ModuleCreationHelper.activate\lNewTurtleButton">
<polygon fill="white" stroke="black" points="1572.5,-344 1572.5,-374 1777.5,-374 1777.5,-344 1572.5,-344"/>
<text text-anchor="start" x="1580.5" y="-362" font-family="Helvetica,sans-Serif" font-size="10.00">slogo.UI.ModuleCreationHelper.activate</text>
<text text-anchor="middle" x="1675" y="-351" font-family="Helvetica,sans-Serif" font-size="10.00">NewTurtleButton</text>
</a>
</g>
</g>
<!-- Node7&#45;&gt;Node16 -->
<g id="edge17" class="edge"><title>Node7&#45;&gt;Node16</title>
<path fill="none" stroke="midnightblue" d="M1229.02,-251.155C1249.1,-278.009 1286.24,-321.013 1330,-340 1406.41,-373.152 1501.47,-375.86 1572.29,-371.435"/>
<polygon fill="midnightblue" stroke="midnightblue" points="1231.83,-249.073 1223.11,-243.055 1226.18,-253.197 1231.83,-249.073"/>
</g>
<!-- Node18 -->
<g id="node18" class="node"><title>Node18</title>
<g id="a_node18"><a xlink:href="../../db/d19/classslogo_1_1_u_i_1_1_module_creation_helper.html#a9b1f07ab673191067907a059b1b0c524" target="_top" xlink:title="slogo.UI.ModuleCreationHelper.activate\lPlayButton">
<polygon fill="white" stroke="black" points="1330.5,-301 1330.5,-331 1535.5,-331 1535.5,-301 1330.5,-301"/>
<text text-anchor="start" x="1338.5" y="-319" font-family="Helvetica,sans-Serif" font-size="10.00">slogo.UI.ModuleCreationHelper.activate</text>
<text text-anchor="middle" x="1433" y="-308" font-family="Helvetica,sans-Serif" font-size="10.00">PlayButton</text>
</a>
</g>
</g>
<!-- Node7&#45;&gt;Node18 -->
<g id="edge20" class="edge"><title>Node7&#45;&gt;Node18</title>
<path fill="none" stroke="midnightblue" d="M1245.42,-248.354C1268.33,-262.006 1300.16,-279.522 1330,-291 1339.7,-294.73 1350.14,-298.039 1360.5,-300.929"/>
<polygon fill="midnightblue" stroke="midnightblue" points="1247.16,-245.317 1236.79,-243.145 1243.54,-251.31 1247.16,-245.317"/>
</g>
<!-- Node21 -->
<g id="node21" class="node"><title>Node21</title>
<g id="a_node21"><a xlink:href="../../db/d19/classslogo_1_1_u_i_1_1_module_creation_helper.html#a3a38d485562cb17591ec3fd07cffc18a" target="_top" xlink:title="slogo.UI.ModuleCreationHelper.activate\lTurtleCanvas">
<polygon fill="white" stroke="black" points="1814.5,-87 1814.5,-117 2019.5,-117 2019.5,-87 1814.5,-87"/>
<text text-anchor="start" x="1822.5" y="-105" font-family="Helvetica,sans-Serif" font-size="10.00">slogo.UI.ModuleCreationHelper.activate</text>
<text text-anchor="middle" x="1917" y="-94" font-family="Helvetica,sans-Serif" font-size="10.00">TurtleCanvas</text>
</a>
</g>
</g>
<!-- Node7&#45;&gt;Node21 -->
<g id="edge24" class="edge"><title>Node7&#45;&gt;Node21</title>
<path fill="none" stroke="midnightblue" d="M1232.37,-205.232C1253.63,-182.064 1290.1,-147.434 1330,-132 1415.51,-98.92 1670.48,-97.5272 1814.33,-99.6157"/>
<polygon fill="midnightblue" stroke="midnightblue" points="1229.56,-203.115 1225.5,-212.898 1234.78,-207.786 1229.56,-203.115"/>
</g>
<!-- Node23 -->
<g id="node23" class="node"><title>Node23</title>
<g id="a_node23"><a xlink:href="../../d1/d5f/classslogo_1_1_u_i_1_1_path_color_selector.html#ad3d9c82a0904c97edcec7cf67b85bd7b" target="_top" xlink:title="slogo.UI.PathColorSelector.create">
<polygon fill="white" stroke="black" points="1345,-262.5 1345,-281.5 1521,-281.5 1521,-262.5 1345,-262.5"/>
<text text-anchor="middle" x="1433" y="-269.5" font-family="Helvetica,sans-Serif" font-size="10.00">slogo.UI.PathColorSelector.create</text>
</a>
</g>
</g>
<!-- Node7&#45;&gt;Node23 -->
<g id="edge27" class="edge"><title>Node7&#45;&gt;Node23</title>
<path fill="none" stroke="midnightblue" d="M1295.74,-245.065C1307.24,-247.411 1318.91,-249.776 1330,-252 1347.25,-255.46 1366.16,-259.186 1382.95,-262.473"/>
<polygon fill="midnightblue" stroke="midnightblue" points="1296.19,-241.585 1285.69,-243.013 1294.79,-248.443 1296.19,-241.585"/>
</g>
<!-- Node25 -->
<g id="node25" class="node"><title>Node25</title>
<g id="a_node25"><a xlink:href="../../d4/d8d/classslogo_1_1_u_i_1_1_background_color_selector.html#ad75ba4ce104e071811d0fe039a4e839f" target="_top" xlink:title="slogo.UI.BackgroundColor\lSelector.create">
<polygon fill="white" stroke="black" points="1363,-213 1363,-243 1503,-243 1503,-213 1363,-213"/>
<text text-anchor="start" x="1371" y="-231" font-family="Helvetica,sans-Serif" font-size="10.00">slogo.UI.BackgroundColor</text>
<text text-anchor="middle" x="1433" y="-220" font-family="Helvetica,sans-Serif" font-size="10.00">Selector.create</text>
</a>
</g>
</g>
<!-- Node7&#45;&gt;Node25 -->
<g id="edge30" class="edge"><title>Node7&#45;&gt;Node25</title>
<path fill="none" stroke="midnightblue" d="M1298.14,-228C1319.6,-228 1342.37,-228 1362.93,-228"/>
<polygon fill="midnightblue" stroke="midnightblue" points="1298.06,-224.5 1288.06,-228 1298.06,-231.5 1298.06,-224.5"/>
</g>
<!-- Node26 -->
<g id="node26" class="node"><title>Node26</title>
<g id="a_node26"><a xlink:href="../../dd/da7/classslogo_1_1_u_i_1_1_turtle_image_selector.html#a3f268d9196ffebcbb5dc322d2897a9fe" target="_top" xlink:title="slogo.UI.TurtleImageSelector.create">
<polygon fill="white" stroke="black" points="1340,-174.5 1340,-193.5 1526,-193.5 1526,-174.5 1340,-174.5"/>
<text text-anchor="middle" x="1433" y="-181.5" font-family="Helvetica,sans-Serif" font-size="10.00">slogo.UI.TurtleImageSelector.create</text>
</a>
</g>
</g>
<!-- Node7&#45;&gt;Node26 -->
<g id="edge32" class="edge"><title>Node7&#45;&gt;Node26</title>
<path fill="none" stroke="midnightblue" d="M1292.01,-210.821C1304.7,-208.147 1317.71,-205.458 1330,-203 1345.99,-199.804 1363.42,-196.493 1379.27,-193.548"/>
<polygon fill="midnightblue" stroke="midnightblue" points="1290.98,-207.463 1281.92,-212.958 1292.43,-214.311 1290.98,-207.463"/>
</g>
<!-- Node9 -->
<g id="node9" class="node"><title>Node9</title>
<g id="a_node9"><a xlink:href="../../db/d19/classslogo_1_1_u_i_1_1_module_creation_helper.html#adce7362386f9a7b3006e7db08a2d578d" target="_top" xlink:title="slogo.UI.ModuleCreationHelper.create\lIncreaseDecreaseButtons">
<polygon fill="white" stroke="black" points="1818.5,-380 1818.5,-410 2015.5,-410 2015.5,-380 1818.5,-380"/>
<text text-anchor="start" x="1826.5" y="-398" font-family="Helvetica,sans-Serif" font-size="10.00">slogo.UI.ModuleCreationHelper.create</text>
<text text-anchor="middle" x="1917" y="-387" font-family="Helvetica,sans-Serif" font-size="10.00">IncreaseDecreaseButtons</text>
</a>
</g>
</g>
<!-- Node8&#45;&gt;Node9 -->
<g id="edge8" class="edge"><title>Node8&#45;&gt;Node9</title>
<path fill="none" stroke="midnightblue" d="M1545.79,-401.913C1628.23,-400.373 1739.29,-398.299 1818.21,-396.826"/>
<polygon fill="midnightblue" stroke="midnightblue" points="1545.56,-398.416 1535.63,-402.102 1545.69,-405.415 1545.56,-398.416"/>
</g>
<!-- Node10 -->
<g id="node10" class="node"><title>Node10</title>
<g id="a_node10"><a xlink:href="../../db/d19/classslogo_1_1_u_i_1_1_module_creation_helper.html#a7c650957b2389d6e6d36e8be8a33cd2b" target="_top" xlink:title="slogo.UI.ModuleCreationHelper.create\lSelectorVBoxModules">
<polygon fill="white" stroke="black" points="2060.5,-253 2060.5,-283 2257.5,-283 2257.5,-253 2060.5,-253"/>
<text text-anchor="start" x="2068.5" y="-271" font-family="Helvetica,sans-Serif" font-size="10.00">slogo.UI.ModuleCreationHelper.create</text>
<text text-anchor="middle" x="2159" y="-260" font-family="Helvetica,sans-Serif" font-size="10.00">SelectorVBoxModules</text>
</a>
</g>
</g>
<!-- Node9&#45;&gt;Node10 -->
<g id="edge9" class="edge"><title>Node9&#45;&gt;Node10</title>
<path fill="none" stroke="midnightblue" d="M2001,-376.732C2007.54,-374.424 2013.95,-371.854 2020,-369 2068.6,-346.077 2117.46,-305.079 2141.92,-283.025"/>
<polygon fill="midnightblue" stroke="midnightblue" points="1999.75,-373.461 1991.36,-379.93 2001.95,-380.105 1999.75,-373.461"/>
</g>
<!-- Node11 -->
<g id="node11" class="node"><title>Node11</title>
<g id="a_node11"><a xlink:href="../../db/d19/classslogo_1_1_u_i_1_1_module_creation_helper.html#afb9dbbbad7d872234a5b296fe129a34e" target="_top" xlink:title="slogo.UI.ModuleCreationHelper.create\lMainPageModules">
<polygon fill="white" stroke="black" points="2298.5,-136 2298.5,-166 2495.5,-166 2495.5,-136 2298.5,-136"/>
<text text-anchor="start" x="2306.5" y="-154" font-family="Helvetica,sans-Serif" font-size="10.00">slogo.UI.ModuleCreationHelper.create</text>
<text text-anchor="middle" x="2397" y="-143" font-family="Helvetica,sans-Serif" font-size="10.00">MainPageModules</text>
</a>
</g>
</g>
<!-- Node10&#45;&gt;Node11 -->
<g id="edge10" class="edge"><title>Node10&#45;&gt;Node11</title>
<path fill="none" stroke="midnightblue" d="M2199.58,-248.38C2246.29,-225.222 2322.96,-187.212 2365.37,-166.184"/>
<polygon fill="midnightblue" stroke="midnightblue" points="2197.77,-245.366 2190.37,-252.944 2200.88,-251.638 2197.77,-245.366"/>
</g>
<!-- Node12 -->
<g id="node12" class="node"><title>Node12</title>
<g id="a_node12"><a xlink:href="../../d9/d33/classslogo_1_1_u_i_1_1_main.html#a15b7f2e399ee24d160550993ab737e73" target="_top" xlink:title="slogo.UI.Main.start">
<polygon fill="white" stroke="black" points="2532,-150.5 2532,-169.5 2638,-169.5 2638,-150.5 2532,-150.5"/>
<text text-anchor="middle" x="2585" y="-157.5" font-family="Helvetica,sans-Serif" font-size="10.00">slogo.UI.Main.start</text>
</a>
</g>
</g>
<!-- Node11&#45;&gt;Node12 -->
<g id="edge11" class="edge"><title>Node11&#45;&gt;Node12</title>
<path fill="none" stroke="midnightblue" d="M2505.8,-156.216C2514.76,-156.65 2523.53,-157.074 2531.76,-157.472"/>
<polygon fill="midnightblue" stroke="midnightblue" points="2505.79,-152.712 2495.63,-155.724 2505.45,-159.703 2505.79,-152.712"/>
</g>
<!-- Node13 -->
<g id="node13" class="node"><title>Node13</title>
<g id="a_node13"><a xlink:href="../../db/d19/classslogo_1_1_u_i_1_1_module_creation_helper.html#a3be12a7cc2b8a219db1e296211a2cb88" target="_top" xlink:title="slogo.UI.ModuleCreationHelper.activate\lExtraWorkspaceButton">
<polygon fill="white" stroke="black" points="2674.5,-163 2674.5,-193 2879.5,-193 2879.5,-163 2674.5,-163"/>
<text text-anchor="start" x="2682.5" y="-181" font-family="Helvetica,sans-Serif" font-size="10.00">slogo.UI.ModuleCreationHelper.activate</text>
<text text-anchor="middle" x="2777" y="-170" font-family="Helvetica,sans-Serif" font-size="10.00">ExtraWorkspaceButton</text>
</a>
</g>
</g>
<!-- Node12&#45;&gt;Node13 -->
<g id="edge12" class="edge"><title>Node12&#45;&gt;Node13</title>
<path fill="none" stroke="midnightblue" d="M2648.22,-165.894C2656.63,-166.691 2665.44,-167.526 2674.32,-168.367"/>
<polygon fill="midnightblue" stroke="midnightblue" points="2648.46,-162.401 2638.17,-164.942 2647.79,-169.37 2648.46,-162.401"/>
</g>
<!-- Node14 -->
<g id="node14" class="node"><title>Node14</title>
<g id="a_node14"><a xlink:href="../../db/d19/classslogo_1_1_u_i_1_1_module_creation_helper.html#a702c1ebe24d2857a10c666eb1fcc315d" target="_top" xlink:title="slogo.UI.ModuleCreationHelper.create\lExtraWorkspaceButton">
<polygon fill="white" stroke="black" points="2916.5,-189 2916.5,-219 3113.5,-219 3113.5,-189 2916.5,-189"/>
<text text-anchor="start" x="2924.5" y="-207" font-family="Helvetica,sans-Serif" font-size="10.00">slogo.UI.ModuleCreationHelper.create</text>
<text text-anchor="middle" x="3015" y="-196" font-family="Helvetica,sans-Serif" font-size="10.00">ExtraWorkspaceButton</text>
</a>
</g>
</g>
<!-- Node13&#45;&gt;Node14 -->
<g id="edge13" class="edge"><title>Node13&#45;&gt;Node14</title>
<path fill="none" stroke="midnightblue" d="M2889.77,-190.313C2898.62,-191.289 2907.52,-192.27 2916.27,-193.234"/>
<polygon fill="midnightblue" stroke="midnightblue" points="2890.12,-186.831 2879.8,-189.215 2889.35,-193.789 2890.12,-186.831"/>
</g>
<!-- Node14&#45;&gt;Node10 -->
<g id="edge14" class="edge"><title>Node14&#45;&gt;Node10</title>
<path fill="none" stroke="midnightblue" d="M2906.34,-212.068C2738.9,-224.617 2418.6,-248.62 2257.55,-260.69"/>
<polygon fill="midnightblue" stroke="midnightblue" points="2906.7,-215.551 2916.41,-211.313 2906.18,-208.571 2906.7,-215.551"/>
</g>
<!-- Node15&#45;&gt;Node11 -->
<g id="edge16" class="edge"><title>Node15&#45;&gt;Node11</title>
<path fill="none" stroke="midnightblue" d="M2272.05,-151C2280.81,-151 2289.62,-151 2298.27,-151"/>
<polygon fill="midnightblue" stroke="midnightblue" points="2271.8,-147.5 2261.8,-151 2271.8,-154.5 2271.8,-147.5"/>
</g>
<!-- Node17 -->
<g id="node17" class="node"><title>Node17</title>
<g id="a_node17"><a xlink:href="../../db/d19/classslogo_1_1_u_i_1_1_module_creation_helper.html#a07f5483df317cdf80e8ea2dda5699afa" target="_top" xlink:title="slogo.UI.ModuleCreationHelper.create\lNewTurtleButton">
<polygon fill="white" stroke="black" points="1818.5,-330 1818.5,-360 2015.5,-360 2015.5,-330 1818.5,-330"/>
<text text-anchor="start" x="1826.5" y="-348" font-family="Helvetica,sans-Serif" font-size="10.00">slogo.UI.ModuleCreationHelper.create</text>
<text text-anchor="middle" x="1917" y="-337" font-family="Helvetica,sans-Serif" font-size="10.00">NewTurtleButton</text>
</a>
</g>
</g>
<!-- Node16&#45;&gt;Node17 -->
<g id="edge18" class="edge"><title>Node16&#45;&gt;Node17</title>
<path fill="none" stroke="midnightblue" d="M1787.89,-352.473C1798.04,-351.881 1808.26,-351.285 1818.27,-350.701"/>
<polygon fill="midnightblue" stroke="midnightblue" points="1787.56,-348.986 1777.78,-353.063 1787.97,-355.974 1787.56,-348.986"/>
</g>
<!-- Node17&#45;&gt;Node10 -->
<g id="edge19" class="edge"><title>Node17&#45;&gt;Node10</title>
<path fill="none" stroke="midnightblue" d="M1988.15,-327.309C1998.87,-324.354 2009.76,-321.203 2020,-318 2053.93,-307.387 2091.86,-293.493 2119.35,-283.046"/>
<polygon fill="midnightblue" stroke="midnightblue" points="1987.12,-323.962 1978.39,-329.963 1988.96,-330.717 1987.12,-323.962"/>
</g>
<!-- Node19 -->
<g id="node19" class="node"><title>Node19</title>
<g id="a_node19"><a xlink:href="../../db/d19/classslogo_1_1_u_i_1_1_module_creation_helper.html#a9b3fb38a55b3b7812b4f793afa7a974f" target="_top" xlink:title="slogo.UI.ModuleCreationHelper.create\lPlayButton">
<polygon fill="white" stroke="black" points="1576.5,-295 1576.5,-325 1773.5,-325 1773.5,-295 1576.5,-295"/>
<text text-anchor="start" x="1584.5" y="-313" font-family="Helvetica,sans-Serif" font-size="10.00">slogo.UI.ModuleCreationHelper.create</text>
<text text-anchor="middle" x="1675" y="-302" font-family="Helvetica,sans-Serif" font-size="10.00">PlayButton</text>
</a>
</g>
</g>
<!-- Node18&#45;&gt;Node19 -->
<g id="edge21" class="edge"><title>Node18&#45;&gt;Node19</title>
<path fill="none" stroke="midnightblue" d="M1545.89,-313.203C1556.04,-312.949 1566.26,-312.694 1576.27,-312.443"/>
<polygon fill="midnightblue" stroke="midnightblue" points="1545.69,-309.707 1535.78,-313.455 1545.87,-316.704 1545.69,-309.707"/>
</g>
<!-- Node20 -->
<g id="node20" class="node"><title>Node20</title>
<g id="a_node20"><a xlink:href="../../db/d19/classslogo_1_1_u_i_1_1_module_creation_helper.html#ae1e60d37509c2e5eddcb2a6e70b4f650" target="_top" xlink:title="slogo.UI.ModuleCreationHelper.create\lFirstRowButtons">
<polygon fill="white" stroke="black" points="1818.5,-279 1818.5,-309 2015.5,-309 2015.5,-279 1818.5,-279"/>
<text text-anchor="start" x="1826.5" y="-297" font-family="Helvetica,sans-Serif" font-size="10.00">slogo.UI.ModuleCreationHelper.create</text>
<text text-anchor="middle" x="1917" y="-286" font-family="Helvetica,sans-Serif" font-size="10.00">FirstRowButtons</text>
</a>
</g>
</g>
<!-- Node19&#45;&gt;Node20 -->
<g id="edge22" class="edge"><title>Node19&#45;&gt;Node20</title>
<path fill="none" stroke="midnightblue" d="M1783.73,-302.818C1795.3,-302.046 1807.03,-301.265 1818.47,-300.502"/>
<polygon fill="midnightblue" stroke="midnightblue" points="1783.36,-299.335 1773.62,-303.492 1783.83,-306.319 1783.36,-299.335"/>
</g>
<!-- Node20&#45;&gt;Node10 -->
<g id="edge23" class="edge"><title>Node20&#45;&gt;Node10</title>
<path fill="none" stroke="midnightblue" d="M2025.73,-282.329C2037.3,-281.075 2049.03,-279.805 2060.47,-278.566"/>
<polygon fill="midnightblue" stroke="midnightblue" points="2025.18,-278.868 2015.62,-283.425 2025.94,-285.827 2025.18,-278.868"/>
</g>
<!-- Node22 -->
<g id="node22" class="node"><title>Node22</title>
<g id="a_node22"><a xlink:href="../../db/d19/classslogo_1_1_u_i_1_1_module_creation_helper.html#a803bac6b55bde712b21f2face1eeef81" target="_top" xlink:title="slogo.UI.ModuleCreationHelper.create\lTurtleCanvas">
<polygon fill="white" stroke="black" points="2060.5,-87 2060.5,-117 2257.5,-117 2257.5,-87 2060.5,-87"/>
<text text-anchor="start" x="2068.5" y="-105" font-family="Helvetica,sans-Serif" font-size="10.00">slogo.UI.ModuleCreationHelper.create</text>
<text text-anchor="middle" x="2159" y="-94" font-family="Helvetica,sans-Serif" font-size="10.00">TurtleCanvas</text>
</a>
</g>
</g>
<!-- Node21&#45;&gt;Node22 -->
<g id="edge25" class="edge"><title>Node21&#45;&gt;Node22</title>
<path fill="none" stroke="midnightblue" d="M2029.89,-102C2040.04,-102 2050.26,-102 2060.27,-102"/>
<polygon fill="midnightblue" stroke="midnightblue" points="2029.78,-98.5001 2019.78,-102 2029.78,-105.5 2029.78,-98.5001"/>
</g>
<!-- Node22&#45;&gt;Node11 -->
<g id="edge26" class="edge"><title>Node22&#45;&gt;Node11</title>
<path fill="none" stroke="midnightblue" d="M2242.42,-119.113C2268.9,-124.611 2298.03,-130.658 2323.73,-135.994"/>
<polygon fill="midnightblue" stroke="midnightblue" points="2242.91,-115.641 2232.41,-117.035 2241.49,-122.495 2242.91,-115.641"/>
</g>
<!-- Node24 -->
<g id="node24" class="node"><title>Node24</title>
<g id="a_node24"><a xlink:href="../../db/d19/classslogo_1_1_u_i_1_1_module_creation_helper.html#af7f2919454fdbf6e9d7d912e99634857" target="_top" xlink:title="slogo.UI.ModuleCreationHelper.create\lSelectors">
<polygon fill="white" stroke="black" points="1576.5,-230 1576.5,-260 1773.5,-260 1773.5,-230 1576.5,-230"/>
<text text-anchor="start" x="1584.5" y="-248" font-family="Helvetica,sans-Serif" font-size="10.00">slogo.UI.ModuleCreationHelper.create</text>
<text text-anchor="middle" x="1675" y="-237" font-family="Helvetica,sans-Serif" font-size="10.00">Selectors</text>
</a>
</g>
</g>
<!-- Node23&#45;&gt;Node24 -->
<g id="edge28" class="edge"><title>Node23&#45;&gt;Node24</title>
<path fill="none" stroke="midnightblue" d="M1528.76,-261.339C1544.36,-259.585 1560.54,-257.764 1576.21,-256.002"/>
<polygon fill="midnightblue" stroke="midnightblue" points="1528.16,-257.885 1518.62,-262.481 1528.94,-264.841 1528.16,-257.885"/>
</g>
<!-- Node24&#45;&gt;Node10 -->
<g id="edge29" class="edge"><title>Node24&#45;&gt;Node10</title>
<path fill="none" stroke="midnightblue" d="M1783.74,-250.141C1866.55,-254.092 1979.97,-259.505 2060.19,-263.333"/>
<polygon fill="midnightblue" stroke="midnightblue" points="1783.7,-246.635 1773.54,-249.654 1783.36,-253.627 1783.7,-246.635"/>
</g>
<!-- Node25&#45;&gt;Node24 -->
<g id="edge31" class="edge"><title>Node25&#45;&gt;Node24</title>
<path fill="none" stroke="midnightblue" d="M1513.18,-233.609C1533.4,-235.041 1555.37,-236.597 1576.39,-238.086"/>
<polygon fill="midnightblue" stroke="midnightblue" points="1513.32,-230.11 1503.1,-232.894 1512.82,-237.092 1513.32,-230.11"/>
</g>
<!-- Node26&#45;&gt;Node24 -->
<g id="edge33" class="edge"><title>Node26&#45;&gt;Node24</title>
<path fill="none" stroke="midnightblue" d="M1501.48,-195.473C1513.04,-197.752 1524.9,-200.287 1536,-203 1567.38,-210.673 1602.18,-221.278 1628.98,-229.911"/>
<polygon fill="midnightblue" stroke="midnightblue" points="1501.9,-191.99 1491.42,-193.539 1500.58,-198.864 1501.9,-191.99"/>
</g>
<!-- Node28 -->
<g id="node28" class="node"><title>Node28</title>
<g id="a_node28"><a xlink:href="../../db/d19/classslogo_1_1_u_i_1_1_module_creation_helper.html#a9fd730f7c1860d34bf4ac46c3828bd59" target="_top" xlink:title="slogo.UI.ModuleCreationHelper.activate\lStepIntoButton">
<polygon fill="white" stroke="black" points="1330.5,-49 1330.5,-79 1535.5,-79 1535.5,-49 1330.5,-49"/>
<text text-anchor="start" x="1338.5" y="-67" font-family="Helvetica,sans-Serif" font-size="10.00">slogo.UI.ModuleCreationHelper.activate</text>
<text text-anchor="middle" x="1433" y="-56" font-family="Helvetica,sans-Serif" font-size="10.00">StepIntoButton</text>
</a>
</g>
</g>
<!-- Node27&#45;&gt;Node28 -->
<g id="edge35" class="edge"><title>Node27&#45;&gt;Node28</title>
<path fill="none" stroke="midnightblue" d="M1301.33,-64C1310.82,-64 1320.54,-64 1330.17,-64"/>
<polygon fill="midnightblue" stroke="midnightblue" points="1301.14,-60.5001 1291.14,-64 1301.14,-67.5001 1301.14,-60.5001"/>
</g>
<!-- Node29 -->
<g id="node29" class="node"><title>Node29</title>
<g id="a_node29"><a xlink:href="../../db/d19/classslogo_1_1_u_i_1_1_module_creation_helper.html#a4a6f1f009507c25be8c7c28cbba35f3b" target="_top" xlink:title="slogo.UI.ModuleCreationHelper.create\lDebugStepIntoButton">
<polygon fill="white" stroke="black" points="1576.5,-49 1576.5,-79 1773.5,-79 1773.5,-49 1576.5,-49"/>
<text text-anchor="start" x="1584.5" y="-67" font-family="Helvetica,sans-Serif" font-size="10.00">slogo.UI.ModuleCreationHelper.create</text>
<text text-anchor="middle" x="1675" y="-56" font-family="Helvetica,sans-Serif" font-size="10.00">DebugStepIntoButton</text>
</a>
</g>
</g>
<!-- Node28&#45;&gt;Node29 -->
<g id="edge36" class="edge"><title>Node28&#45;&gt;Node29</title>
<path fill="none" stroke="midnightblue" d="M1545.89,-64C1556.04,-64 1566.26,-64 1576.27,-64"/>
<polygon fill="midnightblue" stroke="midnightblue" points="1545.78,-60.5001 1535.78,-64 1545.78,-67.5001 1545.78,-60.5001"/>
</g>
<!-- Node30 -->
<g id="node30" class="node"><title>Node30</title>
<g id="a_node30"><a xlink:href="../../db/d19/classslogo_1_1_u_i_1_1_module_creation_helper.html#a975af4ea47dc85df72215bdf1a0d20ce" target="_top" xlink:title="slogo.UI.ModuleCreationHelper.create\lDebugModules">
<polygon fill="white" stroke="black" points="1818.5,-38 1818.5,-68 2015.5,-68 2015.5,-38 1818.5,-38"/>
<text text-anchor="start" x="1826.5" y="-56" font-family="Helvetica,sans-Serif" font-size="10.00">slogo.UI.ModuleCreationHelper.create</text>
<text text-anchor="middle" x="1917" y="-45" font-family="Helvetica,sans-Serif" font-size="10.00">DebugModules</text>
</a>
</g>
</g>
<!-- Node29&#45;&gt;Node30 -->
<g id="edge37" class="edge"><title>Node29&#45;&gt;Node30</title>
<path fill="none" stroke="midnightblue" d="M1783.73,-59.0622C1795.3,-58.5319 1807.03,-57.9945 1818.47,-57.4702"/>
<polygon fill="midnightblue" stroke="midnightblue" points="1783.45,-55.5716 1773.62,-59.5259 1783.77,-62.5643 1783.45,-55.5716"/>
</g>
<!-- Node30&#45;&gt;Node11 -->
<g id="edge38" class="edge"><title>Node30&#45;&gt;Node11</title>
<path fill="none" stroke="midnightblue" d="M2025.63,-48.679C2094.53,-48.779 2185.11,-54.2973 2262,-77 2305.33,-89.7936 2350.2,-118.228 2375.46,-135.889"/>
<polygon fill="midnightblue" stroke="midnightblue" points="2025.61,-45.1789 2015.62,-48.7021 2025.63,-52.1789 2025.61,-45.1789"/>
</g>
<!-- Node32 -->
<g id="node32" class="node"><title>Node32</title>
<g id="a_node32"><a xlink:href="../../db/d19/classslogo_1_1_u_i_1_1_module_creation_helper.html#a0fed0bb32bf2643d6fd5c24d82e8e18e" target="_top" xlink:title="slogo.UI.ModuleCreationHelper.activate\lStepOverButton">
<polygon fill="white" stroke="black" points="1330.5,-0 1330.5,-30 1535.5,-30 1535.5,-0 1330.5,-0"/>
<text text-anchor="start" x="1338.5" y="-18" font-family="Helvetica,sans-Serif" font-size="10.00">slogo.UI.ModuleCreationHelper.activate</text>
<text text-anchor="middle" x="1433" y="-7" font-family="Helvetica,sans-Serif" font-size="10.00">StepOverButton</text>
</a>
</g>
</g>
<!-- Node31&#45;&gt;Node32 -->
<g id="edge40" class="edge"><title>Node31&#45;&gt;Node32</title>
<path fill="none" stroke="midnightblue" d="M1303.8,-18.5123C1312.56,-18.2724 1321.48,-18.028 1330.33,-17.7856"/>
<polygon fill="midnightblue" stroke="midnightblue" points="1303.51,-15.0187 1293.61,-18.7914 1303.71,-22.0161 1303.51,-15.0187"/>
</g>
<!-- Node33 -->
<g id="node33" class="node"><title>Node33</title>
<g id="a_node33"><a xlink:href="../../db/d19/classslogo_1_1_u_i_1_1_module_creation_helper.html#aa1e7dc2b509360583790fba0d3819c8d" target="_top" xlink:title="slogo.UI.ModuleCreationHelper.create\lDebugStepOverButton">
<polygon fill="white" stroke="black" points="1576.5,-0 1576.5,-30 1773.5,-30 1773.5,-0 1576.5,-0"/>
<text text-anchor="start" x="1584.5" y="-18" font-family="Helvetica,sans-Serif" font-size="10.00">slogo.UI.ModuleCreationHelper.create</text>
<text text-anchor="middle" x="1675" y="-7" font-family="Helvetica,sans-Serif" font-size="10.00">DebugStepOverButton</text>
</a>
</g>
</g>
<!-- Node32&#45;&gt;Node33 -->
<g id="edge41" class="edge"><title>Node32&#45;&gt;Node33</title>
<path fill="none" stroke="midnightblue" d="M1545.89,-15C1556.04,-15 1566.26,-15 1576.27,-15"/>
<polygon fill="midnightblue" stroke="midnightblue" points="1545.78,-11.5001 1535.78,-15 1545.78,-18.5001 1545.78,-11.5001"/>
</g>
<!-- Node33&#45;&gt;Node30 -->
<g id="edge42" class="edge"><title>Node33&#45;&gt;Node30</title>
<path fill="none" stroke="midnightblue" d="M1780.99,-31.6227C1794.31,-33.7329 1807.89,-35.8827 1821.05,-37.966"/>
<polygon fill="midnightblue" stroke="midnightblue" points="1781.28,-28.1256 1770.85,-30.0186 1780.18,-35.0395 1781.28,-28.1256"/>
</g>
</g>
</svg>
