<?xml version="1.0" encoding="UTF-8" standalone="no"?>
<!DOCTYPE svg PUBLIC "-//W3C//DTD SVG 1.1//EN"
 "http://www.w3.org/Graphics/SVG/1.1/DTD/svg11.dtd">
<!-- Generated by graphviz version 2.36.0 (20140111.2315)
 -->
<!-- Title: slogo.UI.TurtleImageSelector.updateMap Pages: 1 -->
<svg width="1974pt" height="60pt"
 viewBox="0.00 0.00 1974.00 60.00" xmlns="http://www.w3.org/2000/svg" xmlns:xlink="http://www.w3.org/1999/xlink">
<g id="graph0" class="graph" transform="scale(1 1) rotate(0) translate(4 56)">
<title>slogo.UI.TurtleImageSelector.updateMap</title>
<polygon fill="white" stroke="none" points="-4,4 -4,-56 1970,-56 1970,4 -4,4"/>
<!-- Node1 -->
<g id="node1" class="node"><title>Node1</title>
<polygon fill="#bfbfbf" stroke="black" points="0.5,-5.5 0.5,-24.5 209.5,-24.5 209.5,-5.5 0.5,-5.5"/>
<text text-anchor="middle" x="105" y="-12.5" font-family="Helvetica,sans-Serif" font-size="10.00">slogo.UI.TurtleImageSelector.updateMap</text>
</g>
<!-- Node2 -->
<g id="node2" class="node"><title>Node2</title>
<g id="a_node2"><a xlink:href="../../d4/d44/classslogo_1_1_u_i_1_1_image_loader.html#a1f2ccd3e841622268f7ca449352ee0cd" target="_top" xlink:title="slogo.UI.ImageLoader.choose\lNewImage">
<polygon fill="white" stroke="black" points="246,-0 246,-30 404,-30 404,-0 246,-0"/>
<text text-anchor="start" x="254" y="-18" font-family="Helvetica,sans-Serif" font-size="10.00">slogo.UI.ImageLoader.choose</text>
<text text-anchor="middle" x="325" y="-7" font-family="Helvetica,sans-Serif" font-size="10.00">NewImage</text>
</a>
</g>
</g>
<!-- Node1&#45;&gt;Node2 -->
<g id="edge1" class="edge"><title>Node1&#45;&gt;Node2</title>
<path fill="none" stroke="midnightblue" d="M219.584,-15C228.447,-15 237.269,-15 245.816,-15"/>
<polygon fill="midnightblue" stroke="midnightblue" points="219.573,-11.5001 209.573,-15 219.573,-18.5001 219.573,-11.5001"/>
</g>
<!-- Node3 -->
<g id="node3" class="node"><title>Node3</title>
<g id="a_node3"><a xlink:href="../../db/d19/classslogo_1_1_u_i_1_1_module_creation_helper.html#a1da970a2c0974e2dcdf914a9012e29fb" target="_top" xlink:title="slogo.UI.ModuleCreationHelper.activate\lTurtleImageLoaderButton">
<polygon fill="white" stroke="black" points="440.5,-0 440.5,-30 645.5,-30 645.5,-0 440.5,-0"/>
<text text-anchor="start" x="448.5" y="-18" font-family="Helvetica,sans-Serif" font-size="10.00">slogo.UI.ModuleCreationHelper.activate</text>
<text text-anchor="middle" x="543" y="-7" font-family="Helvetica,sans-Serif" font-size="10.00">TurtleImageLoaderButton</text>
</a>
</g>
</g>
<!-- Node2&#45;&gt;Node3 -->
<g id="edge2" class="edge"><title>Node2&#45;&gt;Node3</title>
<path fill="none" stroke="midnightblue" d="M414.554,-15C423.051,-15 431.715,-15 440.324,-15"/>
<polygon fill="midnightblue" stroke="midnightblue" points="414.286,-11.5001 404.286,-15 414.286,-18.5001 414.286,-11.5001"/>
</g>
<!-- Node4 -->
<g id="node4" class="node"><title>Node4</title>
<g id="a_node4"><a xlink:href="../../db/d19/classslogo_1_1_u_i_1_1_module_creation_helper.html#aece15f9312b16091af80cd03ce7615ae" target="_top" xlink:title="slogo.UI.ModuleCreationHelper.create\lTurtleImageLoaderButton">
<polygon fill="white" stroke="black" points="682.5,-0 682.5,-30 879.5,-30 879.5,-0 682.5,-0"/>
<text text-anchor="start" x="690.5" y="-18" font-family="Helvetica,sans-Serif" font-size="10.00">slogo.UI.ModuleCreationHelper.create</text>
<text text-anchor="middle" x="781" y="-7" font-family="Helvetica,sans-Serif" font-size="10.00">TurtleImageLoaderButton</text>
</a>
</g>
</g>
<!-- Node3&#45;&gt;Node4 -->
<g id="edge3" class="edge"><title>Node3&#45;&gt;Node4</title>
<path fill="none" stroke="midnightblue" d="M656.051,-15C664.813,-15 673.618,-15 682.274,-15"/>
<polygon fill="midnightblue" stroke="midnightblue" points="655.798,-11.5001 645.798,-15 655.798,-18.5001 655.798,-11.5001"/>
</g>
<!-- Node5 -->
<g id="node5" class="node"><title>Node5</title>
<g id="a_node5"><a xlink:href="../../db/d19/classslogo_1_1_u_i_1_1_module_creation_helper.html#a7c650957b2389d6e6d36e8be8a33cd2b" target="_top" xlink:title="slogo.UI.ModuleCreationHelper.create\lSelectorVBoxModules">
<polygon fill="white" stroke="black" points="916.5,-0 916.5,-30 1113.5,-30 1113.5,-0 916.5,-0"/>
<text text-anchor="start" x="924.5" y="-18" font-family="Helvetica,sans-Serif" font-size="10.00">slogo.UI.ModuleCreationHelper.create</text>
<text text-anchor="middle" x="1015" y="-7" font-family="Helvetica,sans-Serif" font-size="10.00">SelectorVBoxModules</text>
</a>
</g>
</g>
<!-- Node4&#45;&gt;Node5 -->
<g id="edge4" class="edge"><title>Node4&#45;&gt;Node5</title>
<path fill="none" stroke="midnightblue" d="M889.722,-15C898.618,-15 907.58,-15 916.396,-15"/>
<polygon fill="midnightblue" stroke="midnightblue" points="889.717,-11.5001 879.716,-15 889.716,-18.5001 889.717,-11.5001"/>
</g>
<!-- Node6 -->
<g id="node6" class="node"><title>Node6</title>
<g id="a_node6"><a xlink:href="../../db/d19/classslogo_1_1_u_i_1_1_module_creation_helper.html#afb9dbbbad7d872234a5b296fe129a34e" target="_top" xlink:title="slogo.UI.ModuleCreationHelper.create\lMainPageModules">
<polygon fill="white" stroke="black" points="1150.5,-22 1150.5,-52 1347.5,-52 1347.5,-22 1150.5,-22"/>
<text text-anchor="start" x="1158.5" y="-40" font-family="Helvetica,sans-Serif" font-size="10.00">slogo.UI.ModuleCreationHelper.create</text>
<text text-anchor="middle" x="1249" y="-29" font-family="Helvetica,sans-Serif" font-size="10.00">MainPageModules</text>
</a>
</g>
</g>
<!-- Node5&#45;&gt;Node6 -->
<g id="edge5" class="edge"><title>Node5&#45;&gt;Node6</title>
<path fill="none" stroke="midnightblue" d="M1123.72,-25.215C1132.62,-26.0586 1141.58,-26.9085 1150.4,-27.7445"/>
<polygon fill="midnightblue" stroke="midnightblue" points="1124,-21.726 1113.72,-24.2662 1123.34,-28.6947 1124,-21.726"/>
</g>
<!-- Node7 -->
<g id="node7" class="node"><title>Node7</title>
<g id="a_node7"><a xlink:href="../../d9/d33/classslogo_1_1_u_i_1_1_main.html#a15b7f2e399ee24d160550993ab737e73" target="_top" xlink:title="slogo.UI.Main.start">
<polygon fill="white" stroke="black" points="1384,-27.5 1384,-46.5 1490,-46.5 1490,-27.5 1384,-27.5"/>
<text text-anchor="middle" x="1437" y="-34.5" font-family="Helvetica,sans-Serif" font-size="10.00">slogo.UI.Main.start</text>
</a>
</g>
</g>
<!-- Node6&#45;&gt;Node7 -->
<g id="edge6" class="edge"><title>Node6&#45;&gt;Node7</title>
<path fill="none" stroke="midnightblue" d="M1357.8,-37C1366.76,-37 1375.53,-37 1383.76,-37"/>
<polygon fill="midnightblue" stroke="midnightblue" points="1357.63,-33.5001 1347.63,-37 1357.63,-40.5001 1357.63,-33.5001"/>
</g>
<!-- Node8 -->
<g id="node8" class="node"><title>Node8</title>
<g id="a_node8"><a xlink:href="../../db/d19/classslogo_1_1_u_i_1_1_module_creation_helper.html#a3be12a7cc2b8a219db1e296211a2cb88" target="_top" xlink:title="slogo.UI.ModuleCreationHelper.activate\lExtraWorkspaceButton">
<polygon fill="white" stroke="black" points="1526.5,-22 1526.5,-52 1731.5,-52 1731.5,-22 1526.5,-22"/>
<text text-anchor="start" x="1534.5" y="-40" font-family="Helvetica,sans-Serif" font-size="10.00">slogo.UI.ModuleCreationHelper.activate</text>
<text text-anchor="middle" x="1629" y="-29" font-family="Helvetica,sans-Serif" font-size="10.00">ExtraWorkspaceButton</text>
</a>
</g>
</g>
<!-- Node7&#45;&gt;Node8 -->
<g id="edge7" class="edge"><title>Node7&#45;&gt;Node8</title>
<path fill="none" stroke="midnightblue" d="M1500.22,-37C1508.63,-37 1517.44,-37 1526.32,-37"/>
<polygon fill="midnightblue" stroke="midnightblue" points="1500.17,-33.5001 1490.17,-37 1500.17,-40.5001 1500.17,-33.5001"/>
</g>
<!-- Node9 -->
<g id="node9" class="node"><title>Node9</title>
<g id="a_node9"><a xlink:href="../../db/d19/classslogo_1_1_u_i_1_1_module_creation_helper.html#a702c1ebe24d2857a10c666eb1fcc315d" target="_top" xlink:title="slogo.UI.ModuleCreationHelper.create\lExtraWorkspaceButton">
<polygon fill="white" stroke="black" points="1768.5,-0 1768.5,-30 1965.5,-30 1965.5,-0 1768.5,-0"/>
<text text-anchor="start" x="1776.5" y="-18" font-family="Helvetica,sans-Serif" font-size="10.00">slogo.UI.ModuleCreationHelper.create</text>
<text text-anchor="middle" x="1867" y="-7" font-family="Helvetica,sans-Serif" font-size="10.00">ExtraWorkspaceButton</text>
</a>
</g>
</g>
<!-- Node8&#45;&gt;Node9 -->
<g id="edge8" class="edge"><title>Node8&#45;&gt;Node9</title>
<path fill="none" stroke="midnightblue" d="M1741.77,-26.5812C1750.62,-25.7556 1759.52,-24.9257 1768.27,-24.1101"/>
<polygon fill="midnightblue" stroke="midnightblue" points="1741.43,-23.0972 1731.8,-27.5104 1742.08,-30.067 1741.43,-23.0972"/>
</g>
<!-- Node9&#45;&gt;Node5 -->
<g id="edge9" class="edge"><title>Node9&#45;&gt;Node5</title>
<path fill="none" stroke="midnightblue" d="M1758.27,-12.3776C1749.38,-12.2253 1740.54,-12.0956 1732,-12 1473.35,-9.10502 1408.65,-9.10502 1150,-12 1138.25,-12.1315 1125.92,-12.3279 1113.7,-12.5584"/>
<polygon fill="midnightblue" stroke="midnightblue" points="1758.24,-15.8776 1768.3,-12.5584 1758.37,-8.87874 1758.24,-15.8776"/>
</g>
</g>
</svg>
