<?xml version="1.0" encoding="UTF-8" standalone="no"?>
<!DOCTYPE svg PUBLIC "-//W3C//DTD SVG 1.1//EN"
 "http://www.w3.org/Graphics/SVG/1.1/DTD/svg11.dtd">
<!-- Generated by graphviz version 2.36.0 (20140111.2315)
 -->
<!-- Title: slogo.UI.BackgroundColorSelector Pages: 1 -->
<svg width="150pt" height="108pt"
 viewBox="0.00 0.00 150.00 108.00" xmlns="http://www.w3.org/2000/svg" xmlns:xlink="http://www.w3.org/1999/xlink">
<g id="graph0" class="graph" transform="scale(1 1) rotate(0) translate(4 104)">
<title>slogo.UI.BackgroundColorSelector</title>
<polygon fill="white" stroke="none" points="-4,4 -4,-104 146,-104 146,4 -4,4"/>
<!-- Node1 -->
<g id="node1" class="node"><title>Node1</title>
<polygon fill="#bfbfbf" stroke="black" points="0,-1 0,-31 140,-31 140,-1 0,-1"/>
<text text-anchor="start" x="8" y="-19" font-family="Helvetica,sans-Serif" font-size="10.00">slogo.UI.BackgroundColor</text>
<text text-anchor="middle" x="70" y="-8" font-family="Helvetica,sans-Serif" font-size="10.00">Selector</text>
</g>
<!-- Node2 -->
<g id="node2" class="node"><title>Node2</title>
<polygon fill="white" stroke="#bfbfbf" points="12.5,-80.5 12.5,-99.5 53.5,-99.5 53.5,-80.5 12.5,-80.5"/>
<text text-anchor="middle" x="33" y="-87.5" font-family="Helvetica,sans-Serif" font-size="10.00">VBox</text>
</g>
<!-- Node2&#45;&gt;Node1 -->
<g id="edge1" class="edge"><title>Node2&#45;&gt;Node1</title>
<path fill="none" stroke="#9a32cd" stroke-dasharray="5,2" d="M35.4829,-70.1096C36.8301,-63.5106 38.8847,-56.2064 42,-50 45.4381,-43.1506 50.5815,-36.5205 55.5255,-31.0223"/>
<polygon fill="#9a32cd" stroke="#9a32cd" points="31.9875,-69.7963 33.8209,-80.2312 38.895,-70.9305 31.9875,-69.7963"/>
<text text-anchor="middle" x="63.5" y="-53.5" font-family="Helvetica,sans-Serif" font-size="10.00"> myVbox</text>
</g>
<!-- Node3 -->
<g id="node3" class="node"><title>Node3</title>
<polygon fill="white" stroke="#bfbfbf" points="72,-80.5 72,-99.5 142,-99.5 142,-80.5 72,-80.5"/>
<text text-anchor="middle" x="107" y="-87.5" font-family="Helvetica,sans-Serif" font-size="10.00">ColorPicker</text>
</g>
<!-- Node3&#45;&gt;Node1 -->
<g id="edge2" class="edge"><title>Node3&#45;&gt;Node1</title>
<path fill="none" stroke="#9a32cd" stroke-dasharray="5,2" d="M97.8547,-71.2038C91.5225,-58.8816 83.2058,-42.6978 77.3135,-31.2316"/>
<polygon fill="#9a32cd" stroke="#9a32cd" points="94.9266,-73.1634 102.61,-80.4579 101.153,-69.9638 94.9266,-73.1634"/>
<text text-anchor="middle" x="113" y="-53.5" font-family="Helvetica,sans-Serif" font-size="10.00"> bgColor</text>
</g>
</g>
</svg>
