<?xml version="1.0" encoding="UTF-8" standalone="no"?>
<!DOCTYPE svg PUBLIC "-//W3C//DTD SVG 1.1//EN"
 "http://www.w3.org/Graphics/SVG/1.1/DTD/svg11.dtd">
<!-- Generated by graphviz version 2.36.0 (20140111.2315)
 -->
<!-- Title: slogo.backend.impl.util.Coordinates.getDistance Pages: 1 -->
<svg width="372pt" height="165pt"
 viewBox="0.00 0.00 372.00 165.00" xmlns="http://www.w3.org/2000/svg" xmlns:xlink="http://www.w3.org/1999/xlink">
<g id="graph0" class="graph" transform="scale(1 1) rotate(0) translate(4 161)">
<title>slogo.backend.impl.util.Coordinates.getDistance</title>
<polygon fill="white" stroke="none" points="-4,4 -4,-161 368,-161 368,4 -4,4"/>
<!-- Node1 -->
<g id="node1" class="node"><title>Node1</title>
<polygon fill="#bfbfbf" stroke="black" points="0.5,-66 0.5,-96 135.5,-96 135.5,-66 0.5,-66"/>
<text text-anchor="start" x="8.5" y="-84" font-family="Helvetica,sans-Serif" font-size="10.00">slogo.backend.impl.util.</text>
<text text-anchor="middle" x="68" y="-73" font-family="Helvetica,sans-Serif" font-size="10.00">Coordinates.getDistance</text>
</g>
<!-- Node2 -->
<g id="node2" class="node"><title>Node2</title>
<g id="a_node2"><a xlink:href="../../da/dc2/interfaceslogo_1_1backend_1_1util_1_1_i_coordinates.html#adb373b7523e63ee3698283ec8ac752d8" target="_top" xlink:title="slogo.backend.util.ICoordinates.getX">
<polygon fill="white" stroke="black" points="172.5,-137.5 172.5,-156.5 363.5,-156.5 363.5,-137.5 172.5,-137.5"/>
<text text-anchor="middle" x="268" y="-144.5" font-family="Helvetica,sans-Serif" font-size="10.00">slogo.backend.util.ICoordinates.getX</text>
</a>
</g>
</g>
<!-- Node1&#45;&gt;Node2 -->
<g id="edge1" class="edge"><title>Node1&#45;&gt;Node2</title>
<path fill="none" stroke="midnightblue" d="M98.5339,-96.2102C118.775,-106.127 146.479,-118.719 172,-127 181.559,-130.102 191.819,-132.843 201.934,-135.225"/>
<polygon fill="midnightblue" stroke="midnightblue" points="201.445,-138.702 211.97,-137.486 202.984,-131.873 201.445,-138.702"/>
</g>
<!-- Node3 -->
<g id="node3" class="node"><title>Node3</title>
<g id="a_node3"><a xlink:href="../../d4/d25/classslogo_1_1backend_1_1impl_1_1util_1_1_coordinates.html#a0ea78eb9b8077cabc512e3c77997f592" target="_top" xlink:title="slogo.backend.impl.util.\lCoordinates.getX">
<polygon fill="white" stroke="black" points="203.5,-88 203.5,-118 332.5,-118 332.5,-88 203.5,-88"/>
<text text-anchor="start" x="211.5" y="-106" font-family="Helvetica,sans-Serif" font-size="10.00">slogo.backend.impl.util.</text>
<text text-anchor="middle" x="268" y="-95" font-family="Helvetica,sans-Serif" font-size="10.00">Coordinates.getX</text>
</a>
</g>
</g>
<!-- Node1&#45;&gt;Node3 -->
<g id="edge2" class="edge"><title>Node1&#45;&gt;Node3</title>
<path fill="none" stroke="midnightblue" d="M135.758,-88.4175C154.22,-90.4689 174.361,-92.7068 193.199,-94.7998"/>
<polygon fill="midnightblue" stroke="midnightblue" points="192.886,-98.2866 203.212,-95.9124 193.659,-91.3294 192.886,-98.2866"/>
</g>
<!-- Node4 -->
<g id="node4" class="node"><title>Node4</title>
<g id="a_node4"><a xlink:href="../../da/dc2/interfaceslogo_1_1backend_1_1util_1_1_i_coordinates.html#a79bf643857961ce08b426cd660121b91" target="_top" xlink:title="slogo.backend.util.ICoordinates.getY">
<polygon fill="white" stroke="black" points="173,-49.5 173,-68.5 363,-68.5 363,-49.5 173,-49.5"/>
<text text-anchor="middle" x="268" y="-56.5" font-family="Helvetica,sans-Serif" font-size="10.00">slogo.backend.util.ICoordinates.getY</text>
</a>
</g>
</g>
<!-- Node1&#45;&gt;Node4 -->
<g id="edge3" class="edge"><title>Node1&#45;&gt;Node4</title>
<path fill="none" stroke="midnightblue" d="M135.758,-73.5825C147.16,-72.3156 159.203,-70.9775 171.183,-69.6463"/>
<polygon fill="midnightblue" stroke="midnightblue" points="171.665,-73.1144 181.217,-68.5314 170.892,-66.1572 171.665,-73.1144"/>
</g>
<!-- Node5 -->
<g id="node5" class="node"><title>Node5</title>
<g id="a_node5"><a xlink:href="../../d4/d25/classslogo_1_1backend_1_1impl_1_1util_1_1_coordinates.html#a4443b70bd159f878380459c8e5ce189a" target="_top" xlink:title="slogo.backend.impl.util.\lCoordinates.getY">
<polygon fill="white" stroke="black" points="203.5,-0 203.5,-30 332.5,-30 332.5,-0 203.5,-0"/>
<text text-anchor="start" x="211.5" y="-18" font-family="Helvetica,sans-Serif" font-size="10.00">slogo.backend.impl.util.</text>
<text text-anchor="middle" x="268" y="-7" font-family="Helvetica,sans-Serif" font-size="10.00">Coordinates.getY</text>
</a>
</g>
</g>
<!-- Node1&#45;&gt;Node5 -->
<g id="edge4" class="edge"><title>Node1&#45;&gt;Node5</title>
<path fill="none" stroke="midnightblue" d="M103.887,-65.8869C123.654,-57.6349 148.966,-47.5842 172,-40 179.601,-37.4973 187.607,-35.0722 195.614,-32.7803"/>
<polygon fill="midnightblue" stroke="midnightblue" points="196.668,-36.1199 205.355,-30.0545 194.782,-29.3789 196.668,-36.1199"/>
</g>
</g>
</svg>
