<?xml version="1.0" encoding="UTF-8" standalone="no"?>
<!DOCTYPE svg PUBLIC "-//W3C//DTD SVG 1.1//EN"
 "http://www.w3.org/Graphics/SVG/1.1/DTD/svg11.dtd">
<!-- Generated by graphviz version 2.36.0 (20140111.2315)
 -->
<!-- Title: slogo.UI.GridLinesToggler.activate Pages: 1 -->
<svg width="396pt" height="126pt"
 viewBox="0.00 0.00 396.00 126.00" xmlns="http://www.w3.org/2000/svg" xmlns:xlink="http://www.w3.org/1999/xlink">
<g id="graph0" class="graph" transform="scale(1 1) rotate(0) translate(4 122)">
<title>slogo.UI.GridLinesToggler.activate</title>
<polygon fill="white" stroke="none" points="-4,4 -4,-122 392,-122 392,4 -4,4"/>
<!-- Node1 -->
<g id="node1" class="node"><title>Node1</title>
<polygon fill="#bfbfbf" stroke="black" points="0,-54.5 0,-73.5 176,-73.5 176,-54.5 0,-54.5"/>
<text text-anchor="middle" x="88" y="-61.5" font-family="Helvetica,sans-Serif" font-size="10.00">slogo.UI.GridLinesToggler.activate</text>
</g>
<!-- Node2 -->
<g id="node2" class="node"><title>Node2</title>
<g id="a_node2"><a xlink:href="../../de/d15/classslogo_1_1_u_i_1_1_grid_lines_toggler.html#ae6245cdd68a7d7cd1a20ff11569dc196" target="_top" xlink:title="slogo.UI.GridLinesToggler.addLine">
<polygon fill="white" stroke="black" points="212,-98.5 212,-117.5 388,-117.5 388,-98.5 212,-98.5"/>
<text text-anchor="middle" x="300" y="-105.5" font-family="Helvetica,sans-Serif" font-size="10.00">slogo.UI.GridLinesToggler.addLine</text>
</a>
</g>
</g>
<!-- Node1&#45;&gt;Node2 -->
<g id="edge1" class="edge"><title>Node1&#45;&gt;Node2</title>
<path fill="none" stroke="midnightblue" d="M134.567,-73.5473C166.626,-80.2645 209.708,-89.2911 243.731,-96.4198"/>
<polygon fill="midnightblue" stroke="midnightblue" points="243.017,-99.8461 253.522,-98.4713 244.452,-92.9949 243.017,-99.8461"/>
</g>
<!-- Node3 -->
<g id="node3" class="node"><title>Node3</title>
<g id="a_node3"><a xlink:href="../../d1/d7e/classslogo_1_1_u_i_1_1_turtle_canvas.html#ab409c3c2a963bb1a71e825da03f25465" target="_top" xlink:title="slogo.UI.TurtleCanvas.get\lCanvas">
<polygon fill="white" stroke="black" points="231.5,-49 231.5,-79 368.5,-79 368.5,-49 231.5,-49"/>
<text text-anchor="start" x="239.5" y="-67" font-family="Helvetica,sans-Serif" font-size="10.00">slogo.UI.TurtleCanvas.get</text>
<text text-anchor="middle" x="300" y="-56" font-family="Helvetica,sans-Serif" font-size="10.00">Canvas</text>
</a>
</g>
</g>
<!-- Node1&#45;&gt;Node3 -->
<g id="edge2" class="edge"><title>Node1&#45;&gt;Node3</title>
<path fill="none" stroke="midnightblue" d="M176.235,-64C191.159,-64 206.576,-64 221.233,-64"/>
<polygon fill="midnightblue" stroke="midnightblue" points="221.244,-67.5001 231.244,-64 221.244,-60.5001 221.244,-67.5001"/>
</g>
<!-- Node4 -->
<g id="node4" class="node"><title>Node4</title>
<g id="a_node4"><a xlink:href="../../de/d15/classslogo_1_1_u_i_1_1_grid_lines_toggler.html#a8ff2ac3caf8b97a98683147f83aedef6" target="_top" xlink:title="slogo.UI.GridLinesToggler.remove\lLines">
<polygon fill="white" stroke="black" points="212.5,-0 212.5,-30 387.5,-30 387.5,-0 212.5,-0"/>
<text text-anchor="start" x="220.5" y="-18" font-family="Helvetica,sans-Serif" font-size="10.00">slogo.UI.GridLinesToggler.remove</text>
<text text-anchor="middle" x="300" y="-7" font-family="Helvetica,sans-Serif" font-size="10.00">Lines</text>
</a>
</g>
</g>
<!-- Node1&#45;&gt;Node4 -->
<g id="edge3" class="edge"><title>Node1&#45;&gt;Node4</title>
<path fill="none" stroke="midnightblue" d="M129.739,-54.4942C156.654,-48.214 192.723,-39.7979 224.649,-32.3487"/>
<polygon fill="midnightblue" stroke="midnightblue" points="225.466,-35.7521 234.409,-30.0713 223.875,-28.9352 225.466,-35.7521"/>
</g>
</g>
</svg>
