<?xml version="1.0" encoding="UTF-8" standalone="no"?>
<!DOCTYPE svg PUBLIC "-//W3C//DTD SVG 1.1//EN"
 "http://www.w3.org/Graphics/SVG/1.1/DTD/svg11.dtd">
<!-- Generated by graphviz version 2.36.0 (20140111.2315)
 -->
<!-- Title: slogo.UI.GridLinesToggler.addLine Pages: 1 -->
<svg width="1716pt" height="60pt"
 viewBox="0.00 0.00 1716.00 60.00" xmlns="http://www.w3.org/2000/svg" xmlns:xlink="http://www.w3.org/1999/xlink">
<g id="graph0" class="graph" transform="scale(1 1) rotate(0) translate(4 56)">
<title>slogo.UI.GridLinesToggler.addLine</title>
<polygon fill="white" stroke="none" points="-4,4 -4,-56 1712,-56 1712,4 -4,4"/>
<!-- Node1 -->
<g id="node1" class="node"><title>Node1</title>
<polygon fill="#bfbfbf" stroke="black" points="0,-5.5 0,-24.5 176,-24.5 176,-5.5 0,-5.5"/>
<text text-anchor="middle" x="88" y="-12.5" font-family="Helvetica,sans-Serif" font-size="10.00">slogo.UI.GridLinesToggler.addLine</text>
</g>
<!-- Node2 -->
<g id="node2" class="node"><title>Node2</title>
<g id="a_node2"><a xlink:href="../../de/d15/classslogo_1_1_u_i_1_1_grid_lines_toggler.html#a8aa5a690c681e51b543cc77d6fbf144a" target="_top" xlink:title="slogo.UI.GridLinesToggler.activate">
<polygon fill="white" stroke="black" points="212,-5.5 212,-24.5 388,-24.5 388,-5.5 212,-5.5"/>
<text text-anchor="middle" x="300" y="-12.5" font-family="Helvetica,sans-Serif" font-size="10.00">slogo.UI.GridLinesToggler.activate</text>
</a>
</g>
</g>
<!-- Node1&#45;&gt;Node2 -->
<g id="edge1" class="edge"><title>Node1&#45;&gt;Node2</title>
<path fill="none" stroke="midnightblue" d="M186.459,-15C194.88,-15 203.366,-15 211.699,-15"/>
<polygon fill="midnightblue" stroke="midnightblue" points="186.235,-11.5001 176.235,-15 186.234,-18.5001 186.235,-11.5001"/>
</g>
<!-- Node3 -->
<g id="node3" class="node"><title>Node3</title>
<g id="a_node3"><a xlink:href="../../db/d19/classslogo_1_1_u_i_1_1_module_creation_helper.html#a55e4573d9ebd85eb1524df94985e19a6" target="_top" xlink:title="slogo.UI.ModuleCreationHelper.create\lGridCheckBox">
<polygon fill="white" stroke="black" points="424.5,-0 424.5,-30 621.5,-30 621.5,-0 424.5,-0"/>
<text text-anchor="start" x="432.5" y="-18" font-family="Helvetica,sans-Serif" font-size="10.00">slogo.UI.ModuleCreationHelper.create</text>
<text text-anchor="middle" x="523" y="-7" font-family="Helvetica,sans-Serif" font-size="10.00">GridCheckBox</text>
</a>
</g>
</g>
<!-- Node2&#45;&gt;Node3 -->
<g id="edge2" class="edge"><title>Node2&#45;&gt;Node3</title>
<path fill="none" stroke="midnightblue" d="M398.195,-15C406.912,-15 415.741,-15 424.46,-15"/>
<polygon fill="midnightblue" stroke="midnightblue" points="398.028,-11.5001 388.028,-15 398.028,-18.5001 398.028,-11.5001"/>
</g>
<!-- Node4 -->
<g id="node4" class="node"><title>Node4</title>
<g id="a_node4"><a xlink:href="../../db/d19/classslogo_1_1_u_i_1_1_module_creation_helper.html#a7c650957b2389d6e6d36e8be8a33cd2b" target="_top" xlink:title="slogo.UI.ModuleCreationHelper.create\lSelectorVBoxModules">
<polygon fill="white" stroke="black" points="658.5,-0 658.5,-30 855.5,-30 855.5,-0 658.5,-0"/>
<text text-anchor="start" x="666.5" y="-18" font-family="Helvetica,sans-Serif" font-size="10.00">slogo.UI.ModuleCreationHelper.create</text>
<text text-anchor="middle" x="757" y="-7" font-family="Helvetica,sans-Serif" font-size="10.00">SelectorVBoxModules</text>
</a>
</g>
</g>
<!-- Node3&#45;&gt;Node4 -->
<g id="edge3" class="edge"><title>Node3&#45;&gt;Node4</title>
<path fill="none" stroke="midnightblue" d="M631.722,-15C640.618,-15 649.58,-15 658.396,-15"/>
<polygon fill="midnightblue" stroke="midnightblue" points="631.717,-11.5001 621.716,-15 631.716,-18.5001 631.717,-11.5001"/>
</g>
<!-- Node5 -->
<g id="node5" class="node"><title>Node5</title>
<g id="a_node5"><a xlink:href="../../db/d19/classslogo_1_1_u_i_1_1_module_creation_helper.html#afb9dbbbad7d872234a5b296fe129a34e" target="_top" xlink:title="slogo.UI.ModuleCreationHelper.create\lMainPageModules">
<polygon fill="white" stroke="black" points="892.5,-22 892.5,-52 1089.5,-52 1089.5,-22 892.5,-22"/>
<text text-anchor="start" x="900.5" y="-40" font-family="Helvetica,sans-Serif" font-size="10.00">slogo.UI.ModuleCreationHelper.create</text>
<text text-anchor="middle" x="991" y="-29" font-family="Helvetica,sans-Serif" font-size="10.00">MainPageModules</text>
</a>
</g>
</g>
<!-- Node4&#45;&gt;Node5 -->
<g id="edge4" class="edge"><title>Node4&#45;&gt;Node5</title>
<path fill="none" stroke="midnightblue" d="M865.722,-25.215C874.618,-26.0586 883.58,-26.9085 892.396,-27.7445"/>
<polygon fill="midnightblue" stroke="midnightblue" points="866.002,-21.726 855.716,-24.2662 865.341,-28.6947 866.002,-21.726"/>
</g>
<!-- Node6 -->
<g id="node6" class="node"><title>Node6</title>
<g id="a_node6"><a xlink:href="../../d9/d33/classslogo_1_1_u_i_1_1_main.html#a15b7f2e399ee24d160550993ab737e73" target="_top" xlink:title="slogo.UI.Main.start">
<polygon fill="white" stroke="black" points="1126,-27.5 1126,-46.5 1232,-46.5 1232,-27.5 1126,-27.5"/>
<text text-anchor="middle" x="1179" y="-34.5" font-family="Helvetica,sans-Serif" font-size="10.00">slogo.UI.Main.start</text>
</a>
</g>
</g>
<!-- Node5&#45;&gt;Node6 -->
<g id="edge5" class="edge"><title>Node5&#45;&gt;Node6</title>
<path fill="none" stroke="midnightblue" d="M1099.8,-37C1108.76,-37 1117.53,-37 1125.76,-37"/>
<polygon fill="midnightblue" stroke="midnightblue" points="1099.63,-33.5001 1089.63,-37 1099.63,-40.5001 1099.63,-33.5001"/>
</g>
<!-- Node7 -->
<g id="node7" class="node"><title>Node7</title>
<g id="a_node7"><a xlink:href="../../db/d19/classslogo_1_1_u_i_1_1_module_creation_helper.html#a3be12a7cc2b8a219db1e296211a2cb88" target="_top" xlink:title="slogo.UI.ModuleCreationHelper.activate\lExtraWorkspaceButton">
<polygon fill="white" stroke="black" points="1268.5,-22 1268.5,-52 1473.5,-52 1473.5,-22 1268.5,-22"/>
<text text-anchor="start" x="1276.5" y="-40" font-family="Helvetica,sans-Serif" font-size="10.00">slogo.UI.ModuleCreationHelper.activate</text>
<text text-anchor="middle" x="1371" y="-29" font-family="Helvetica,sans-Serif" font-size="10.00">ExtraWorkspaceButton</text>
</a>
</g>
</g>
<!-- Node6&#45;&gt;Node7 -->
<g id="edge6" class="edge"><title>Node6&#45;&gt;Node7</title>
<path fill="none" stroke="midnightblue" d="M1242.22,-37C1250.63,-37 1259.44,-37 1268.32,-37"/>
<polygon fill="midnightblue" stroke="midnightblue" points="1242.17,-33.5001 1232.17,-37 1242.17,-40.5001 1242.17,-33.5001"/>
</g>
<!-- Node8 -->
<g id="node8" class="node"><title>Node8</title>
<g id="a_node8"><a xlink:href="../../db/d19/classslogo_1_1_u_i_1_1_module_creation_helper.html#a702c1ebe24d2857a10c666eb1fcc315d" target="_top" xlink:title="slogo.UI.ModuleCreationHelper.create\lExtraWorkspaceButton">
<polygon fill="white" stroke="black" points="1510.5,-0 1510.5,-30 1707.5,-30 1707.5,-0 1510.5,-0"/>
<text text-anchor="start" x="1518.5" y="-18" font-family="Helvetica,sans-Serif" font-size="10.00">slogo.UI.ModuleCreationHelper.create</text>
<text text-anchor="middle" x="1609" y="-7" font-family="Helvetica,sans-Serif" font-size="10.00">ExtraWorkspaceButton</text>
</a>
</g>
</g>
<!-- Node7&#45;&gt;Node8 -->
<g id="edge7" class="edge"><title>Node7&#45;&gt;Node8</title>
<path fill="none" stroke="midnightblue" d="M1483.77,-26.5812C1492.62,-25.7556 1501.52,-24.9257 1510.27,-24.1101"/>
<polygon fill="midnightblue" stroke="midnightblue" points="1483.43,-23.0972 1473.8,-27.5104 1484.08,-30.067 1483.43,-23.0972"/>
</g>
<!-- Node8&#45;&gt;Node4 -->
<g id="edge8" class="edge"><title>Node8&#45;&gt;Node4</title>
<path fill="none" stroke="midnightblue" d="M1500.27,-12.3776C1491.38,-12.2253 1482.54,-12.0956 1474,-12 1215.35,-9.10502 1150.65,-9.10502 892,-12 880.25,-12.1315 867.921,-12.3279 855.699,-12.5584"/>
<polygon fill="midnightblue" stroke="midnightblue" points="1500.24,-15.8776 1510.3,-12.5584 1500.37,-8.87874 1500.24,-15.8776"/>
</g>
</g>
</svg>
