<?xml version="1.0" encoding="UTF-8" standalone="no"?>
<!DOCTYPE svg PUBLIC "-//W3C//DTD SVG 1.1//EN"
 "http://www.w3.org/Graphics/SVG/1.1/DTD/svg11.dtd">
<!-- Generated by graphviz version 2.36.0 (20140111.2315)
 -->
<!-- Title: slogo.UI.ColorSelectorCreator Pages: 1 -->
<svg width="191pt" height="96pt"
 viewBox="0.00 0.00 191.00 96.00" xmlns="http://www.w3.org/2000/svg" xmlns:xlink="http://www.w3.org/1999/xlink">
<g id="graph0" class="graph" transform="scale(1 1) rotate(0) translate(4 92)">
<title>slogo.UI.ColorSelectorCreator</title>
<polygon fill="white" stroke="none" points="-4,4 -4,-92 187,-92 187,4 -4,4"/>
<!-- Node1 -->
<g id="node1" class="node"><title>Node1</title>
<polygon fill="#bfbfbf" stroke="black" points="-1,-0.5 -1,-19.5 157,-19.5 157,-0.5 -1,-0.5"/>
<text text-anchor="middle" x="78" y="-7.5" font-family="Helvetica,sans-Serif" font-size="10.00">slogo.UI.ColorSelectorCreator</text>
</g>
<!-- Node2 -->
<g id="node2" class="node"><title>Node2</title>
<polygon fill="white" stroke="#bfbfbf" points="17,-68.5 17,-87.5 63,-87.5 63,-68.5 17,-68.5"/>
<text text-anchor="middle" x="40" y="-75.5" font-family="Helvetica,sans-Serif" font-size="10.00">Group</text>
</g>
<!-- Node2&#45;&gt;Node1 -->
<g id="edge1" class="edge"><title>Node2&#45;&gt;Node1</title>
<path fill="none" stroke="#9a32cd" stroke-dasharray="5,2" d="M45.013,-58.5646C47.2497,-51.8381 50.2411,-44.3332 54,-38 57.9693,-31.3124 63.7242,-24.7687 68.6036,-19.7985"/>
<polygon fill="#9a32cd" stroke="#9a32cd" points="41.6393,-57.6301 42.1177,-68.2141 48.344,-59.6418 41.6393,-57.6301"/>
<text text-anchor="middle" x="74" y="-41.5" font-family="Helvetica,sans-Serif" font-size="10.00"> myRoot</text>
</g>
<!-- Node3 -->
<g id="node3" class="node"><title>Node3</title>
<polygon fill="white" stroke="#bfbfbf" points="81,-68.5 81,-87.5 151,-87.5 151,-68.5 81,-68.5"/>
<text text-anchor="middle" x="116" y="-75.5" font-family="Helvetica,sans-Serif" font-size="10.00">ColorPicker</text>
</g>
<!-- Node3&#45;&gt;Node1 -->
<g id="edge2" class="edge"><title>Node3&#45;&gt;Node1</title>
<path fill="none" stroke="#9a32cd" stroke-dasharray="5,2" d="M106.165,-59.3787C102.392,-52.6685 98.0265,-44.9631 94,-38 90.5087,-31.9624 86.5087,-25.2124 83.3815,-19.9718"/>
<polygon fill="#9a32cd" stroke="#9a32cd" points="103.219,-61.2815 111.16,-68.2955 109.326,-57.8605 103.219,-61.2815"/>
<text text-anchor="middle" x="141.5" y="-41.5" font-family="Helvetica,sans-Serif" font-size="10.00"> myColorSelector</text>
</g>
</g>
</svg>
