<?xml version="1.0" encoding="UTF-8" standalone="no"?>
<!DOCTYPE svg PUBLIC "-//W3C//DTD SVG 1.1//EN"
 "http://www.w3.org/Graphics/SVG/1.1/DTD/svg11.dtd">
<!-- Generated by graphviz version 2.36.0 (20140111.2315)
 -->
<!-- Title: slogo.UI.ListViewAllSLOGO.createListView Pages: 1 -->
<svg width="1748pt" height="153pt"
 viewBox="0.00 0.00 1748.00 153.00" xmlns="http://www.w3.org/2000/svg" xmlns:xlink="http://www.w3.org/1999/xlink">
<g id="graph0" class="graph" transform="scale(1 1) rotate(0) translate(4 149)">
<title>slogo.UI.ListViewAllSLOGO.createListView</title>
<polygon fill="white" stroke="none" points="-4,4 -4,-149 1744,-149 1744,4 -4,4"/>
<!-- Node1 -->
<g id="node1" class="node"><title>Node1</title>
<polygon fill="#bfbfbf" stroke="black" points="0.5,-52 0.5,-82 175.5,-82 175.5,-52 0.5,-52"/>
<text text-anchor="start" x="8.5" y="-70" font-family="Helvetica,sans-Serif" font-size="10.00">slogo.UI.ListViewAllSLOGO.create</text>
<text text-anchor="middle" x="88" y="-59" font-family="Helvetica,sans-Serif" font-size="10.00">ListView</text>
</g>
<!-- Node2 -->
<g id="node2" class="node"><title>Node2</title>
<g id="a_node2"><a xlink:href="../../de/d1a/classslogo_1_1_u_i_1_1_list_view_previous_commands.html#a539b4f10c0510a43263276fc23d742c8" target="_top" xlink:title="slogo.UI.ListViewPrevious\lCommands.create">
<polygon fill="white" stroke="black" points="247.5,-115 247.5,-145 384.5,-145 384.5,-115 247.5,-115"/>
<text text-anchor="start" x="255.5" y="-133" font-family="Helvetica,sans-Serif" font-size="10.00">slogo.UI.ListViewPrevious</text>
<text text-anchor="middle" x="316" y="-122" font-family="Helvetica,sans-Serif" font-size="10.00">Commands.create</text>
</a>
</g>
</g>
<!-- Node1&#45;&gt;Node2 -->
<g id="edge1" class="edge"><title>Node1&#45;&gt;Node2</title>
<path fill="none" stroke="midnightblue" d="M144.937,-85.0773C165.891,-91.6387 189.958,-98.9262 212,-105 224.329,-108.397 237.556,-111.793 250.283,-114.937"/>
<polygon fill="midnightblue" stroke="midnightblue" points="145.826,-81.6878 135.236,-82.0223 143.723,-88.3646 145.826,-81.6878"/>
</g>
<!-- Node9 -->
<g id="node9" class="node"><title>Node9</title>
<g id="a_node9"><a xlink:href="../../d3/df5/classslogo_1_1_u_i_1_1_list_view_user_variables.html#a9daee622bf33651d8ae9c07779f4973c" target="_top" xlink:title="slogo.UI.ListViewUserVariables.create">
<polygon fill="white" stroke="black" points="218,-76.5 218,-95.5 414,-95.5 414,-76.5 218,-76.5"/>
<text text-anchor="middle" x="316" y="-83.5" font-family="Helvetica,sans-Serif" font-size="10.00">slogo.UI.ListViewUserVariables.create</text>
</a>
</g>
</g>
<!-- Node1&#45;&gt;Node9 -->
<g id="edge9" class="edge"><title>Node1&#45;&gt;Node9</title>
<path fill="none" stroke="midnightblue" d="M185.855,-75.1427C196.49,-76.0368 207.32,-76.9472 217.957,-77.8415"/>
<polygon fill="midnightblue" stroke="midnightblue" points="185.989,-71.6417 175.731,-74.2916 185.403,-78.6171 185.989,-71.6417"/>
</g>
<!-- Node10 -->
<g id="node10" class="node"><title>Node10</title>
<g id="a_node10"><a xlink:href="../../de/d37/classslogo_1_1_u_i_1_1_list_view_user_commands.html#ac8197870dd939ccc8b43744a50d52044" target="_top" xlink:title="slogo.UI.ListViewUserCommands.create">
<polygon fill="white" stroke="black" points="212,-38.5 212,-57.5 420,-57.5 420,-38.5 212,-38.5"/>
<text text-anchor="middle" x="316" y="-45.5" font-family="Helvetica,sans-Serif" font-size="10.00">slogo.UI.ListViewUserCommands.create</text>
</a>
</g>
</g>
<!-- Node1&#45;&gt;Node10 -->
<g id="edge11" class="edge"><title>Node1&#45;&gt;Node10</title>
<path fill="none" stroke="midnightblue" d="M185.793,-58.8625C194.425,-58.1368 203.186,-57.4003 211.869,-56.6703"/>
<polygon fill="midnightblue" stroke="midnightblue" points="185.403,-55.3829 175.731,-59.7084 185.989,-62.3583 185.403,-55.3829"/>
</g>
<!-- Node11 -->
<g id="node11" class="node"><title>Node11</title>
<g id="a_node11"><a xlink:href="../../dc/d95/classslogo_1_1_u_i_1_1_list_view_s_l_o_g_o_variables.html#a9876b72a9b2e6a0887b385834e8e93b6" target="_top" xlink:title="slogo.UI.ListViewSLOGOVariables.create">
<polygon fill="white" stroke="black" points="212,-0.5 212,-19.5 420,-19.5 420,-0.5 212,-0.5"/>
<text text-anchor="middle" x="316" y="-7.5" font-family="Helvetica,sans-Serif" font-size="10.00">slogo.UI.ListViewSLOGOVariables.create</text>
</a>
</g>
</g>
<!-- Node1&#45;&gt;Node11 -->
<g id="edge13" class="edge"><title>Node1&#45;&gt;Node11</title>
<path fill="none" stroke="midnightblue" d="M142.891,-48.8512C164.252,-42.0522 189.132,-34.6211 212,-29 226.391,-25.4625 242.059,-22.2517 256.731,-19.5181"/>
<polygon fill="midnightblue" stroke="midnightblue" points="141.791,-45.5281 133.343,-51.9218 143.935,-52.1919 141.791,-45.5281"/>
</g>
<!-- Node3 -->
<g id="node3" class="node"><title>Node3</title>
<g id="a_node3"><a xlink:href="../../db/d19/classslogo_1_1_u_i_1_1_module_creation_helper.html#af4fd617bc69e5e9986e2634bc7f30d7d" target="_top" xlink:title="slogo.UI.ModuleCreationHelper.create\lListViews">
<polygon fill="white" stroke="black" points="456.5,-52 456.5,-82 653.5,-82 653.5,-52 456.5,-52"/>
<text text-anchor="start" x="464.5" y="-70" font-family="Helvetica,sans-Serif" font-size="10.00">slogo.UI.ModuleCreationHelper.create</text>
<text text-anchor="middle" x="555" y="-59" font-family="Helvetica,sans-Serif" font-size="10.00">ListViews</text>
</a>
</g>
</g>
<!-- Node2&#45;&gt;Node3 -->
<g id="edge2" class="edge"><title>Node2&#45;&gt;Node3</title>
<path fill="none" stroke="midnightblue" d="M390.444,-112.538C400.393,-110.066 410.457,-107.51 420,-105 447.361,-97.8027 477.702,-89.2468 502.584,-82.0776"/>
<polygon fill="midnightblue" stroke="midnightblue" points="389.428,-109.183 380.557,-114.977 391.104,-115.979 389.428,-109.183"/>
</g>
<!-- Node4 -->
<g id="node4" class="node"><title>Node4</title>
<g id="a_node4"><a xlink:href="../../db/d19/classslogo_1_1_u_i_1_1_module_creation_helper.html#afb9dbbbad7d872234a5b296fe129a34e" target="_top" xlink:title="slogo.UI.ModuleCreationHelper.create\lMainPageModules">
<polygon fill="white" stroke="black" points="690.5,-52 690.5,-82 887.5,-82 887.5,-52 690.5,-52"/>
<text text-anchor="start" x="698.5" y="-70" font-family="Helvetica,sans-Serif" font-size="10.00">slogo.UI.ModuleCreationHelper.create</text>
<text text-anchor="middle" x="789" y="-59" font-family="Helvetica,sans-Serif" font-size="10.00">MainPageModules</text>
</a>
</g>
</g>
<!-- Node3&#45;&gt;Node4 -->
<g id="edge3" class="edge"><title>Node3&#45;&gt;Node4</title>
<path fill="none" stroke="midnightblue" d="M663.722,-67C672.618,-67 681.58,-67 690.396,-67"/>
<polygon fill="midnightblue" stroke="midnightblue" points="663.717,-63.5001 653.716,-67 663.716,-70.5001 663.717,-63.5001"/>
</g>
<!-- Node5 -->
<g id="node5" class="node"><title>Node5</title>
<g id="a_node5"><a xlink:href="../../d9/d33/classslogo_1_1_u_i_1_1_main.html#a15b7f2e399ee24d160550993ab737e73" target="_top" xlink:title="slogo.UI.Main.start">
<polygon fill="white" stroke="black" points="924,-79.5 924,-98.5 1030,-98.5 1030,-79.5 924,-79.5"/>
<text text-anchor="middle" x="977" y="-86.5" font-family="Helvetica,sans-Serif" font-size="10.00">slogo.UI.Main.start</text>
</a>
</g>
</g>
<!-- Node4&#45;&gt;Node5 -->
<g id="edge4" class="edge"><title>Node4&#45;&gt;Node5</title>
<path fill="none" stroke="midnightblue" d="M897.804,-79.751C906.76,-80.8103 915.528,-81.8474 923.764,-82.8216"/>
<polygon fill="midnightblue" stroke="midnightblue" points="897.972,-76.2466 887.63,-78.5477 897.15,-83.1981 897.972,-76.2466"/>
</g>
<!-- Node6 -->
<g id="node6" class="node"><title>Node6</title>
<g id="a_node6"><a xlink:href="../../db/d19/classslogo_1_1_u_i_1_1_module_creation_helper.html#a3be12a7cc2b8a219db1e296211a2cb88" target="_top" xlink:title="slogo.UI.ModuleCreationHelper.activate\lExtraWorkspaceButton">
<polygon fill="white" stroke="black" points="1066.5,-77 1066.5,-107 1271.5,-107 1271.5,-77 1066.5,-77"/>
<text text-anchor="start" x="1074.5" y="-95" font-family="Helvetica,sans-Serif" font-size="10.00">slogo.UI.ModuleCreationHelper.activate</text>
<text text-anchor="middle" x="1169" y="-84" font-family="Helvetica,sans-Serif" font-size="10.00">ExtraWorkspaceButton</text>
</a>
</g>
</g>
<!-- Node5&#45;&gt;Node6 -->
<g id="edge5" class="edge"><title>Node5&#45;&gt;Node6</title>
<path fill="none" stroke="midnightblue" d="M1040.22,-89.9824C1048.63,-90.1152 1057.44,-90.2543 1066.32,-90.3945"/>
<polygon fill="midnightblue" stroke="midnightblue" points="1040.22,-86.4821 1030.17,-89.8237 1040.11,-93.4813 1040.22,-86.4821"/>
</g>
<!-- Node7 -->
<g id="node7" class="node"><title>Node7</title>
<g id="a_node7"><a xlink:href="../../db/d19/classslogo_1_1_u_i_1_1_module_creation_helper.html#a702c1ebe24d2857a10c666eb1fcc315d" target="_top" xlink:title="slogo.UI.ModuleCreationHelper.create\lExtraWorkspaceButton">
<polygon fill="white" stroke="black" points="1308.5,-77 1308.5,-107 1505.5,-107 1505.5,-77 1308.5,-77"/>
<text text-anchor="start" x="1316.5" y="-95" font-family="Helvetica,sans-Serif" font-size="10.00">slogo.UI.ModuleCreationHelper.create</text>
<text text-anchor="middle" x="1407" y="-84" font-family="Helvetica,sans-Serif" font-size="10.00">ExtraWorkspaceButton</text>
</a>
</g>
</g>
<!-- Node6&#45;&gt;Node7 -->
<g id="edge6" class="edge"><title>Node6&#45;&gt;Node7</title>
<path fill="none" stroke="midnightblue" d="M1282.05,-92C1290.81,-92 1299.62,-92 1308.27,-92"/>
<polygon fill="midnightblue" stroke="midnightblue" points="1281.8,-88.5001 1271.8,-92 1281.8,-95.5001 1281.8,-88.5001"/>
</g>
<!-- Node8 -->
<g id="node8" class="node"><title>Node8</title>
<g id="a_node8"><a xlink:href="../../db/d19/classslogo_1_1_u_i_1_1_module_creation_helper.html#a7c650957b2389d6e6d36e8be8a33cd2b" target="_top" xlink:title="slogo.UI.ModuleCreationHelper.create\lSelectorVBoxModules">
<polygon fill="white" stroke="black" points="1542.5,-55 1542.5,-85 1739.5,-85 1739.5,-55 1542.5,-55"/>
<text text-anchor="start" x="1550.5" y="-73" font-family="Helvetica,sans-Serif" font-size="10.00">slogo.UI.ModuleCreationHelper.create</text>
<text text-anchor="middle" x="1641" y="-62" font-family="Helvetica,sans-Serif" font-size="10.00">SelectorVBoxModules</text>
</a>
</g>
</g>
<!-- Node7&#45;&gt;Node8 -->
<g id="edge7" class="edge"><title>Node7&#45;&gt;Node8</title>
<path fill="none" stroke="midnightblue" d="M1515.72,-81.785C1524.62,-80.9414 1533.58,-80.0915 1542.4,-79.2555"/>
<polygon fill="midnightblue" stroke="midnightblue" points="1515.34,-78.3053 1505.72,-82.7338 1516,-85.274 1515.34,-78.3053"/>
</g>
<!-- Node8&#45;&gt;Node4 -->
<g id="edge8" class="edge"><title>Node8&#45;&gt;Node4</title>
<path fill="none" stroke="midnightblue" d="M1532.26,-68.2649C1523.38,-68.1604 1514.54,-68.0697 1506,-68 1284.9,-66.1957 1025.38,-66.4159 887.573,-66.7184"/>
<polygon fill="midnightblue" stroke="midnightblue" points="1532.26,-71.7649 1542.3,-68.3881 1532.34,-64.7655 1532.26,-71.7649"/>
</g>
<!-- Node9&#45;&gt;Node3 -->
<g id="edge10" class="edge"><title>Node9&#45;&gt;Node3</title>
<path fill="none" stroke="midnightblue" d="M424.265,-77.4007C434.939,-76.545 445.735,-75.6795 456.303,-74.8323"/>
<polygon fill="midnightblue" stroke="midnightblue" points="423.769,-73.9291 414.081,-78.2172 424.329,-80.9067 423.769,-73.9291"/>
</g>
<!-- Node10&#45;&gt;Node3 -->
<g id="edge12" class="edge"><title>Node10&#45;&gt;Node3</title>
<path fill="none" stroke="midnightblue" d="M430.405,-57.0915C439.069,-57.7861 447.769,-58.4836 456.32,-59.1691"/>
<polygon fill="midnightblue" stroke="midnightblue" points="430.51,-53.5888 420.262,-56.2784 429.951,-60.5664 430.51,-53.5888"/>
</g>
<!-- Node11&#45;&gt;Node3 -->
<g id="edge14" class="edge"><title>Node11&#45;&gt;Node3</title>
<path fill="none" stroke="midnightblue" d="M383.886,-21.3932C395.948,-23.7161 408.38,-26.2868 420,-29 448.493,-35.6525 479.987,-44.5057 505.28,-51.993"/>
<polygon fill="midnightblue" stroke="midnightblue" points="384.341,-17.9174 373.865,-19.5024 383.043,-24.796 384.341,-17.9174"/>
</g>
</g>
</svg>
