<?xml version="1.0" encoding="UTF-8" standalone="no"?>
<!DOCTYPE svg PUBLIC "-//W3C//DTD SVG 1.1//EN"
 "http://www.w3.org/Graphics/SVG/1.1/DTD/svg11.dtd">
<!-- Generated by graphviz version 2.36.0 (20140111.2315)
 -->
<!-- Title: slogo.UI.ListViewAllSLOGO.getItems Pages: 1 -->
<svg width="3068pt" height="482pt"
 viewBox="0.00 0.00 3068.00 481.93" xmlns="http://www.w3.org/2000/svg" xmlns:xlink="http://www.w3.org/1999/xlink">
<g id="graph0" class="graph" transform="scale(1 1) rotate(0) translate(4 477.931)">
<title>slogo.UI.ListViewAllSLOGO.getItems</title>
<polygon fill="white" stroke="none" points="-4,4 -4,-477.931 3064,-477.931 3064,4 -4,4"/>
<!-- Node1 -->
<g id="node1" class="node"><title>Node1</title>
<polygon fill="#bfbfbf" stroke="black" points="0,-336.931 0,-366.931 160,-366.931 160,-336.931 0,-336.931"/>
<text text-anchor="start" x="8" y="-354.931" font-family="Helvetica,sans-Serif" font-size="10.00">slogo.UI.ListViewAllSLOGO.get</text>
<text text-anchor="middle" x="80" y="-343.931" font-family="Helvetica,sans-Serif" font-size="10.00">Items</text>
</g>
<!-- Node2 -->
<g id="node2" class="node"><title>Node2</title>
<g id="a_node2"><a xlink:href="../../db/d19/classslogo_1_1_u_i_1_1_module_creation_helper.html#a397d79a7f7d1aaf8f0db169e99728205" target="_top" xlink:title="slogo.UI.ModuleCreationHelper.activate\lSaveButton">
<polygon fill="white" stroke="black" points="196.5,-268.931 196.5,-298.931 401.5,-298.931 401.5,-268.931 196.5,-268.931"/>
<text text-anchor="start" x="204.5" y="-286.931" font-family="Helvetica,sans-Serif" font-size="10.00">slogo.UI.ModuleCreationHelper.activate</text>
<text text-anchor="middle" x="299" y="-275.931" font-family="Helvetica,sans-Serif" font-size="10.00">SaveButton</text>
</a>
</g>
</g>
<!-- Node1&#45;&gt;Node2 -->
<g id="edge1" class="edge"><title>Node1&#45;&gt;Node2</title>
<path fill="none" stroke="midnightblue" d="M136.713,-333.805C155.523,-327.739 176.653,-320.983 196,-314.931 212.869,-309.654 231.347,-304.001 247.886,-298.985"/>
<polygon fill="midnightblue" stroke="midnightblue" points="135.55,-330.503 127.11,-336.907 137.702,-337.164 135.55,-330.503"/>
</g>
<!-- Node9 -->
<g id="node9" class="node"><title>Node9</title>
<g id="a_node9"><a xlink:href="../../db/d19/classslogo_1_1_u_i_1_1_module_creation_helper.html#a3a38d485562cb17591ec3fd07cffc18a" target="_top" xlink:title="slogo.UI.ModuleCreationHelper.activate\lTurtleCanvas">
<polygon fill="white" stroke="black" points="1292.5,-442.931 1292.5,-472.931 1497.5,-472.931 1497.5,-442.931 1292.5,-442.931"/>
<text text-anchor="start" x="1300.5" y="-460.931" font-family="Helvetica,sans-Serif" font-size="10.00">slogo.UI.ModuleCreationHelper.activate</text>
<text text-anchor="middle" x="1395" y="-449.931" font-family="Helvetica,sans-Serif" font-size="10.00">TurtleCanvas</text>
</a>
</g>
</g>
<!-- Node1&#45;&gt;Node9 -->
<g id="edge9" class="edge"><title>Node1&#45;&gt;Node9</title>
<path fill="none" stroke="midnightblue" d="M121.245,-371.164C142.949,-380.818 170.453,-391.92 196,-398.931 341.594,-438.889 381.022,-448.931 532,-448.931 532,-448.931 532,-448.931 978,-448.931 1085.28,-448.931 1208.07,-451.96 1292.29,-454.503"/>
<polygon fill="midnightblue" stroke="midnightblue" points="122.57,-367.922 112.016,-366.991 119.686,-374.3 122.57,-367.922"/>
</g>
<!-- Node11 -->
<g id="node11" class="node"><title>Node11</title>
<g id="a_node11"><a xlink:href="../../db/d19/classslogo_1_1_u_i_1_1_module_creation_helper.html#a9a24bcabcb1eac7d7d0fcffc7b260ccc" target="_top" xlink:title="slogo.UI.ModuleCreationHelper.clear\lUserVariables">
<polygon fill="white" stroke="black" points="438,-312.931 438,-342.931 628,-342.931 628,-312.931 438,-312.931"/>
<text text-anchor="start" x="446" y="-330.931" font-family="Helvetica,sans-Serif" font-size="10.00">slogo.UI.ModuleCreationHelper.clear</text>
<text text-anchor="middle" x="533" y="-319.931" font-family="Helvetica,sans-Serif" font-size="10.00">UserVariables</text>
</a>
</g>
</g>
<!-- Node1&#45;&gt;Node11 -->
<g id="edge12" class="edge"><title>Node1&#45;&gt;Node11</title>
<path fill="none" stroke="midnightblue" d="M170.274,-347.18C247.58,-343.067 359.048,-337.135 437.77,-332.946"/>
<polygon fill="midnightblue" stroke="midnightblue" points="169.874,-343.697 160.074,-347.723 170.246,-350.687 169.874,-343.697"/>
</g>
<!-- Node33 -->
<g id="node33" class="node"><title>Node33</title>
<g id="a_node33"><a xlink:href="../../db/d19/classslogo_1_1_u_i_1_1_module_creation_helper.html#a5b500711ae781870e320e699fa834737" target="_top" xlink:title="slogo.UI.ModuleCreationHelper.set\lUserVariable">
<polygon fill="white" stroke="black" points="208,-359.931 208,-389.931 390,-389.931 390,-359.931 208,-359.931"/>
<text text-anchor="start" x="216" y="-377.931" font-family="Helvetica,sans-Serif" font-size="10.00">slogo.UI.ModuleCreationHelper.set</text>
<text text-anchor="middle" x="299" y="-366.931" font-family="Helvetica,sans-Serif" font-size="10.00">UserVariable</text>
</a>
</g>
</g>
<!-- Node1&#45;&gt;Node33 -->
<g id="edge44" class="edge"><title>Node1&#45;&gt;Node33</title>
<path fill="none" stroke="midnightblue" d="M170.542,-361.422C182.891,-362.731 195.578,-364.075 207.936,-365.385"/>
<polygon fill="midnightblue" stroke="midnightblue" points="170.576,-357.906 160.263,-360.332 169.838,-364.867 170.576,-357.906"/>
</g>
<!-- Node3 -->
<g id="node3" class="node"><title>Node3</title>
<g id="a_node3"><a xlink:href="../../db/d19/classslogo_1_1_u_i_1_1_module_creation_helper.html#acdde1cf3a5282f70975d1e11b00b4d13" target="_top" xlink:title="slogo.UI.ModuleCreationHelper.create\lSaveButton">
<polygon fill="white" stroke="black" points="664.5,-119.931 664.5,-149.931 861.5,-149.931 861.5,-119.931 664.5,-119.931"/>
<text text-anchor="start" x="672.5" y="-137.931" font-family="Helvetica,sans-Serif" font-size="10.00">slogo.UI.ModuleCreationHelper.create</text>
<text text-anchor="middle" x="763" y="-126.931" font-family="Helvetica,sans-Serif" font-size="10.00">SaveButton</text>
</a>
</g>
</g>
<!-- Node2&#45;&gt;Node3 -->
<g id="edge2" class="edge"><title>Node2&#45;&gt;Node3</title>
<path fill="none" stroke="midnightblue" d="M356.565,-265.689C448.835,-235.93 629.996,-177.504 715.378,-149.967"/>
<polygon fill="midnightblue" stroke="midnightblue" points="355.284,-262.424 346.841,-268.824 357.433,-269.086 355.284,-262.424"/>
</g>
<!-- Node4 -->
<g id="node4" class="node"><title>Node4</title>
<g id="a_node4"><a xlink:href="../../db/d19/classslogo_1_1_u_i_1_1_module_creation_helper.html#a7c650957b2389d6e6d36e8be8a33cd2b" target="_top" xlink:title="slogo.UI.ModuleCreationHelper.create\lSelectorVBoxModules">
<polygon fill="white" stroke="black" points="2006.5,-163.931 2006.5,-193.931 2203.5,-193.931 2203.5,-163.931 2006.5,-163.931"/>
<text text-anchor="start" x="2014.5" y="-181.931" font-family="Helvetica,sans-Serif" font-size="10.00">slogo.UI.ModuleCreationHelper.create</text>
<text text-anchor="middle" x="2105" y="-170.931" font-family="Helvetica,sans-Serif" font-size="10.00">SelectorVBoxModules</text>
</a>
</g>
</g>
<!-- Node3&#45;&gt;Node4 -->
<g id="edge3" class="edge"><title>Node3&#45;&gt;Node4</title>
<path fill="none" stroke="midnightblue" d="M800.054,-114.993C869.831,-78.3311 1029.15,-3.93123 1173,-3.93123 1173,-3.93123 1173,-3.93123 1634,-3.93123 1782.79,-3.93123 1831.77,17.2487 1966,-46.9312 2023.73,-74.5321 2072.85,-135.541 2093.53,-163.898"/>
<polygon fill="midnightblue" stroke="midnightblue" points="798.001,-112.12 790.813,-119.904 801.286,-118.301 798.001,-112.12"/>
</g>
<!-- Node5 -->
<g id="node5" class="node"><title>Node5</title>
<g id="a_node5"><a xlink:href="../../db/d19/classslogo_1_1_u_i_1_1_module_creation_helper.html#afb9dbbbad7d872234a5b296fe129a34e" target="_top" xlink:title="slogo.UI.ModuleCreationHelper.create\lMainPageModules">
<polygon fill="white" stroke="black" points="2244.5,-300.931 2244.5,-330.931 2441.5,-330.931 2441.5,-300.931 2244.5,-300.931"/>
<text text-anchor="start" x="2252.5" y="-318.931" font-family="Helvetica,sans-Serif" font-size="10.00">slogo.UI.ModuleCreationHelper.create</text>
<text text-anchor="middle" x="2343" y="-307.931" font-family="Helvetica,sans-Serif" font-size="10.00">MainPageModules</text>
</a>
</g>
</g>
<!-- Node4&#45;&gt;Node5 -->
<g id="edge4" class="edge"><title>Node4&#45;&gt;Node5</title>
<path fill="none" stroke="midnightblue" d="M2140.92,-199.204C2188.74,-226.965 2273.51,-276.175 2316.08,-300.887"/>
<polygon fill="midnightblue" stroke="midnightblue" points="2142.56,-196.11 2132.16,-194.116 2139.05,-202.164 2142.56,-196.11"/>
</g>
<!-- Node6 -->
<g id="node6" class="node"><title>Node6</title>
<g id="a_node6"><a xlink:href="../../d9/d33/classslogo_1_1_u_i_1_1_main.html#a15b7f2e399ee24d160550993ab737e73" target="_top" xlink:title="slogo.UI.Main.start">
<polygon fill="white" stroke="black" points="2478,-260.431 2478,-279.431 2584,-279.431 2584,-260.431 2478,-260.431"/>
<text text-anchor="middle" x="2531" y="-267.431" font-family="Helvetica,sans-Serif" font-size="10.00">slogo.UI.Main.start</text>
</a>
</g>
</g>
<!-- Node5&#45;&gt;Node6 -->
<g id="edge5" class="edge"><title>Node5&#45;&gt;Node6</title>
<path fill="none" stroke="midnightblue" d="M2414.75,-298.435C2440.8,-291.993 2469.32,-284.939 2491.47,-279.46"/>
<polygon fill="midnightblue" stroke="midnightblue" points="2413.77,-295.071 2404.9,-300.869 2415.45,-301.866 2413.77,-295.071"/>
</g>
<!-- Node7 -->
<g id="node7" class="node"><title>Node7</title>
<g id="a_node7"><a xlink:href="../../db/d19/classslogo_1_1_u_i_1_1_module_creation_helper.html#a3be12a7cc2b8a219db1e296211a2cb88" target="_top" xlink:title="slogo.UI.ModuleCreationHelper.activate\lExtraWorkspaceButton">
<polygon fill="white" stroke="black" points="2620.5,-231.931 2620.5,-261.931 2825.5,-261.931 2825.5,-231.931 2620.5,-231.931"/>
<text text-anchor="start" x="2628.5" y="-249.931" font-family="Helvetica,sans-Serif" font-size="10.00">slogo.UI.ModuleCreationHelper.activate</text>
<text text-anchor="middle" x="2723" y="-238.931" font-family="Helvetica,sans-Serif" font-size="10.00">ExtraWorkspaceButton</text>
</a>
</g>
</g>
<!-- Node6&#45;&gt;Node7 -->
<g id="edge6" class="edge"><title>Node6&#45;&gt;Node7</title>
<path fill="none" stroke="midnightblue" d="M2594.22,-262.4C2602.63,-261.381 2611.44,-260.315 2620.32,-259.24"/>
<polygon fill="midnightblue" stroke="midnightblue" points="2593.68,-258.939 2584.17,-263.616 2594.52,-265.889 2593.68,-258.939"/>
</g>
<!-- Node8 -->
<g id="node8" class="node"><title>Node8</title>
<g id="a_node8"><a xlink:href="../../db/d19/classslogo_1_1_u_i_1_1_module_creation_helper.html#a702c1ebe24d2857a10c666eb1fcc315d" target="_top" xlink:title="slogo.UI.ModuleCreationHelper.create\lExtraWorkspaceButton">
<polygon fill="white" stroke="black" points="2862.5,-203.931 2862.5,-233.931 3059.5,-233.931 3059.5,-203.931 2862.5,-203.931"/>
<text text-anchor="start" x="2870.5" y="-221.931" font-family="Helvetica,sans-Serif" font-size="10.00">slogo.UI.ModuleCreationHelper.create</text>
<text text-anchor="middle" x="2961" y="-210.931" font-family="Helvetica,sans-Serif" font-size="10.00">ExtraWorkspaceButton</text>
</a>
</g>
</g>
<!-- Node7&#45;&gt;Node8 -->
<g id="edge7" class="edge"><title>Node7&#45;&gt;Node8</title>
<path fill="none" stroke="midnightblue" d="M2835.77,-233.671C2844.62,-232.62 2853.52,-231.564 2862.27,-230.526"/>
<polygon fill="midnightblue" stroke="midnightblue" points="2835.32,-230.2 2825.8,-234.854 2836.14,-237.151 2835.32,-230.2"/>
</g>
<!-- Node8&#45;&gt;Node4 -->
<g id="edge8" class="edge"><title>Node8&#45;&gt;Node4</title>
<path fill="none" stroke="midnightblue" d="M2852.34,-213.889C2684.9,-206.046 2364.6,-191.043 2203.55,-183.5"/>
<polygon fill="midnightblue" stroke="midnightblue" points="2852.26,-217.389 2862.41,-214.36 2852.59,-210.396 2852.26,-217.389"/>
</g>
<!-- Node10 -->
<g id="node10" class="node"><title>Node10</title>
<g id="a_node10"><a xlink:href="../../db/d19/classslogo_1_1_u_i_1_1_module_creation_helper.html#a803bac6b55bde712b21f2face1eeef81" target="_top" xlink:title="slogo.UI.ModuleCreationHelper.create\lTurtleCanvas">
<polygon fill="white" stroke="black" points="2006.5,-413.931 2006.5,-443.931 2203.5,-443.931 2203.5,-413.931 2006.5,-413.931"/>
<text text-anchor="start" x="2014.5" y="-431.931" font-family="Helvetica,sans-Serif" font-size="10.00">slogo.UI.ModuleCreationHelper.create</text>
<text text-anchor="middle" x="2105" y="-420.931" font-family="Helvetica,sans-Serif" font-size="10.00">TurtleCanvas</text>
</a>
</g>
</g>
<!-- Node9&#45;&gt;Node10 -->
<g id="edge10" class="edge"><title>Node9&#45;&gt;Node10</title>
<path fill="none" stroke="midnightblue" d="M1507.95,-453.346C1645.26,-447.721 1875.81,-438.278 2006.28,-432.934"/>
<polygon fill="midnightblue" stroke="midnightblue" points="1507.66,-449.854 1497.82,-453.761 1507.95,-456.849 1507.66,-449.854"/>
</g>
<!-- Node10&#45;&gt;Node5 -->
<g id="edge11" class="edge"><title>Node10&#45;&gt;Node5</title>
<path fill="none" stroke="midnightblue" d="M2146.52,-409.531C2193,-387.274 2268.24,-351.251 2310.53,-330.999"/>
<polygon fill="midnightblue" stroke="midnightblue" points="2144.85,-406.45 2137.34,-413.926 2147.87,-412.764 2144.85,-406.45"/>
</g>
<!-- Node12 -->
<g id="node12" class="node"><title>Node12</title>
<g id="a_node12"><a xlink:href="../../df/d2d/classslogo_1_1_view.html#aa90e5d95d422b58b7f4b7f8a049defe1" target="_top" xlink:title="slogo.View.executeCommand">
<polygon fill="white" stroke="black" points="898,-350.431 898,-369.431 1056,-369.431 1056,-350.431 898,-350.431"/>
<text text-anchor="middle" x="977" y="-357.431" font-family="Helvetica,sans-Serif" font-size="10.00">slogo.View.executeCommand</text>
</a>
</g>
</g>
<!-- Node11&#45;&gt;Node12 -->
<g id="edge13" class="edge"><title>Node11&#45;&gt;Node12</title>
<path fill="none" stroke="midnightblue" d="M638.209,-335.004C702.686,-339.439 787.161,-345.353 862,-350.931 873.582,-351.794 885.824,-352.733 897.819,-353.668"/>
<polygon fill="midnightblue" stroke="midnightblue" points="638.253,-331.499 628.037,-334.305 637.773,-338.483 638.253,-331.499"/>
</g>
<!-- Node13 -->
<g id="node13" class="node"><title>Node13</title>
<g id="a_node13"><a xlink:href="../../df/d2d/classslogo_1_1_view.html#aee563f6a0b15ac6668e4dcbdad40c73c" target="_top" xlink:title="slogo.View.sendCommandTo\lBackend">
<polygon fill="white" stroke="black" points="1098,-207.931 1098,-237.931 1250,-237.931 1250,-207.931 1098,-207.931"/>
<text text-anchor="start" x="1106" y="-225.931" font-family="Helvetica,sans-Serif" font-size="10.00">slogo.View.sendCommandTo</text>
<text text-anchor="middle" x="1174" y="-214.931" font-family="Helvetica,sans-Serif" font-size="10.00">Backend</text>
</a>
</g>
</g>
<!-- Node12&#45;&gt;Node13 -->
<g id="edge14" class="edge"><title>Node12&#45;&gt;Node13</title>
<path fill="none" stroke="midnightblue" d="M999.992,-344.481C1037.7,-317.991 1114.21,-264.232 1151.55,-238.004"/>
<polygon fill="midnightblue" stroke="midnightblue" points="997.882,-341.685 991.712,-350.298 1001.91,-347.413 997.882,-341.685"/>
</g>
<!-- Node26 -->
<g id="node26" class="node"><title>Node26</title>
<g id="a_node26"><a xlink:href="../../df/d2d/classslogo_1_1_view.html#a4c3084a198acf85804800d70eff9ee51" target="_top" xlink:title="slogo.View.stepIntoCommand">
<polygon fill="white" stroke="black" points="1095,-393.431 1095,-412.431 1253,-412.431 1253,-393.431 1095,-393.431"/>
<text text-anchor="middle" x="1174" y="-400.431" font-family="Helvetica,sans-Serif" font-size="10.00">slogo.View.stepIntoCommand</text>
</a>
</g>
</g>
<!-- Node12&#45;&gt;Node26 -->
<g id="edge35" class="edge"><title>Node12&#45;&gt;Node26</title>
<path fill="none" stroke="midnightblue" d="M1031.06,-371.631C1062.07,-378.469 1100.71,-386.991 1129.84,-393.415"/>
<polygon fill="midnightblue" stroke="midnightblue" points="1031.8,-368.21 1021.28,-369.474 1030.29,-375.046 1031.8,-368.21"/>
</g>
<!-- Node30 -->
<g id="node30" class="node"><title>Node30</title>
<g id="a_node30"><a xlink:href="../../df/d2d/classslogo_1_1_view.html#ac8b7f574c679e744a430f1649dc55e68" target="_top" xlink:title="slogo.View.stepOverCommand">
<polygon fill="white" stroke="black" points="1092.5,-350.431 1092.5,-369.431 1255.5,-369.431 1255.5,-350.431 1092.5,-350.431"/>
<text text-anchor="middle" x="1174" y="-357.431" font-family="Helvetica,sans-Serif" font-size="10.00">slogo.View.stepOverCommand</text>
</a>
</g>
</g>
<!-- Node12&#45;&gt;Node30 -->
<g id="edge40" class="edge"><title>Node12&#45;&gt;Node30</title>
<path fill="none" stroke="midnightblue" d="M1066.28,-359.931C1074.93,-359.931 1083.68,-359.931 1092.24,-359.931"/>
<polygon fill="midnightblue" stroke="midnightblue" points="1066.19,-356.431 1056.19,-359.931 1066.19,-363.431 1066.19,-356.431"/>
</g>
<!-- Node13&#45;&gt;Node9 -->
<g id="edge27" class="edge"><title>Node13&#45;&gt;Node9</title>
<path fill="none" stroke="midnightblue" d="M1193.5,-246.39C1211.13,-269.499 1237.64,-306.277 1256,-340.931 1276.56,-379.729 1258.96,-404.009 1292,-432.931 1296.39,-436.774 1301.28,-440.047 1306.47,-442.833"/>
<polygon fill="midnightblue" stroke="midnightblue" points="1196.09,-244.018 1187.21,-238.235 1190.54,-248.291 1196.09,-244.018"/>
</g>
<!-- Node14 -->
<g id="node14" class="node"><title>Node14</title>
<g id="a_node14"><a xlink:href="../../db/d19/classslogo_1_1_u_i_1_1_module_creation_helper.html#a69e17abcc7cf9a6ed7261d8fb1d631fa" target="_top" xlink:title="slogo.UI.ModuleCreationHelper.activate\lIncreaseDecreaseButtons">
<polygon fill="white" stroke="black" points="1292.5,-81.9312 1292.5,-111.931 1497.5,-111.931 1497.5,-81.9312 1292.5,-81.9312"/>
<text text-anchor="start" x="1300.5" y="-99.9312" font-family="Helvetica,sans-Serif" font-size="10.00">slogo.UI.ModuleCreationHelper.activate</text>
<text text-anchor="middle" x="1395" y="-88.9312" font-family="Helvetica,sans-Serif" font-size="10.00">IncreaseDecreaseButtons</text>
</a>
</g>
</g>
<!-- Node13&#45;&gt;Node14 -->
<g id="edge15" class="edge"><title>Node13&#45;&gt;Node14</title>
<path fill="none" stroke="midnightblue" d="M1195.15,-200.102C1216.82,-176.973 1253.39,-141.849 1292,-121.931 1299.53,-118.044 1307.7,-114.745 1316.01,-111.947"/>
<polygon fill="midnightblue" stroke="midnightblue" points="1192.32,-198.007 1188.13,-207.737 1197.47,-202.745 1192.32,-198.007"/>
</g>
<!-- Node16 -->
<g id="node16" class="node"><title>Node16</title>
<g id="a_node16"><a xlink:href="../../db/d19/classslogo_1_1_u_i_1_1_module_creation_helper.html#aa70b0ad9e90e62509149bfd2ef2ba209" target="_top" xlink:title="slogo.UI.ModuleCreationHelper.activate\lKeyEvents">
<polygon fill="white" stroke="black" points="2002.5,-300.931 2002.5,-330.931 2207.5,-330.931 2207.5,-300.931 2002.5,-300.931"/>
<text text-anchor="start" x="2010.5" y="-318.931" font-family="Helvetica,sans-Serif" font-size="10.00">slogo.UI.ModuleCreationHelper.activate</text>
<text text-anchor="middle" x="2105" y="-307.931" font-family="Helvetica,sans-Serif" font-size="10.00">KeyEvents</text>
</a>
</g>
</g>
<!-- Node13&#45;&gt;Node16 -->
<g id="edge18" class="edge"><title>Node13&#45;&gt;Node16</title>
<path fill="none" stroke="midnightblue" d="M1200.54,-244.55C1223,-262.099 1257.43,-285.569 1292,-295.931 1421.84,-334.852 1814.61,-326.595 2002.17,-320.069"/>
<polygon fill="midnightblue" stroke="midnightblue" points="1202.54,-241.666 1192.54,-238.155 1198.17,-247.133 1202.54,-241.666"/>
</g>
<!-- Node17 -->
<g id="node17" class="node"><title>Node17</title>
<g id="a_node17"><a xlink:href="../../db/d19/classslogo_1_1_u_i_1_1_module_creation_helper.html#a2e841243ec3ca474e8822102343acc88" target="_top" xlink:title="slogo.UI.ModuleCreationHelper.activate\lNewTurtleButton">
<polygon fill="white" stroke="black" points="1292.5,-32.9312 1292.5,-62.9312 1497.5,-62.9312 1497.5,-32.9312 1292.5,-32.9312"/>
<text text-anchor="start" x="1300.5" y="-50.9312" font-family="Helvetica,sans-Serif" font-size="10.00">slogo.UI.ModuleCreationHelper.activate</text>
<text text-anchor="middle" x="1395" y="-39.9312" font-family="Helvetica,sans-Serif" font-size="10.00">NewTurtleButton</text>
</a>
</g>
</g>
<!-- Node13&#45;&gt;Node17 -->
<g id="edge20" class="edge"><title>Node13&#45;&gt;Node17</title>
<path fill="none" stroke="midnightblue" d="M1187.02,-198.533C1205.01,-164.652 1242.24,-103.923 1292,-71.9312 1297.36,-68.4881 1303.15,-65.5379 1309.17,-63.0101"/>
<polygon fill="midnightblue" stroke="midnightblue" points="1183.75,-197.238 1182.26,-207.728 1189.96,-200.457 1183.75,-197.238"/>
</g>
<!-- Node19 -->
<g id="node19" class="node"><title>Node19</title>
<g id="a_node19"><a xlink:href="../../db/d19/classslogo_1_1_u_i_1_1_module_creation_helper.html#a9b1f07ab673191067907a059b1b0c524" target="_top" xlink:title="slogo.UI.ModuleCreationHelper.activate\lPlayButton">
<polygon fill="white" stroke="black" points="1292.5,-256.931 1292.5,-286.931 1497.5,-286.931 1497.5,-256.931 1292.5,-256.931"/>
<text text-anchor="start" x="1300.5" y="-274.931" font-family="Helvetica,sans-Serif" font-size="10.00">slogo.UI.ModuleCreationHelper.activate</text>
<text text-anchor="middle" x="1395" y="-263.931" font-family="Helvetica,sans-Serif" font-size="10.00">PlayButton</text>
</a>
</g>
</g>
<!-- Node13&#45;&gt;Node19 -->
<g id="edge23" class="edge"><title>Node13&#45;&gt;Node19</title>
<path fill="none" stroke="midnightblue" d="M1252.13,-240.189C1276.54,-245.649 1303.29,-251.636 1326.93,-256.925"/>
<polygon fill="midnightblue" stroke="midnightblue" points="1252.72,-236.734 1242.2,-237.966 1251.19,-243.565 1252.72,-236.734"/>
</g>
<!-- Node22 -->
<g id="node22" class="node"><title>Node22</title>
<g id="a_node22"><a xlink:href="../../d1/d5f/classslogo_1_1_u_i_1_1_path_color_selector.html#ad3d9c82a0904c97edcec7cf67b85bd7b" target="_top" xlink:title="slogo.UI.PathColorSelector.create">
<polygon fill="white" stroke="black" points="1307,-131.431 1307,-150.431 1483,-150.431 1483,-131.431 1307,-131.431"/>
<text text-anchor="middle" x="1395" y="-138.431" font-family="Helvetica,sans-Serif" font-size="10.00">slogo.UI.PathColorSelector.create</text>
</a>
</g>
</g>
<!-- Node13&#45;&gt;Node22 -->
<g id="edge28" class="edge"><title>Node13&#45;&gt;Node22</title>
<path fill="none" stroke="midnightblue" d="M1206.36,-202.574C1229.24,-188.601 1261.46,-170.702 1292,-159.931 1302.96,-156.067 1314.87,-152.944 1326.56,-150.434"/>
<polygon fill="midnightblue" stroke="midnightblue" points="1204.42,-199.659 1197.76,-207.906 1208.11,-205.607 1204.42,-199.659"/>
</g>
<!-- Node24 -->
<g id="node24" class="node"><title>Node24</title>
<g id="a_node24"><a xlink:href="../../d4/d8d/classslogo_1_1_u_i_1_1_background_color_selector.html#ad75ba4ce104e071811d0fe039a4e839f" target="_top" xlink:title="slogo.UI.BackgroundColor\lSelector.create">
<polygon fill="white" stroke="black" points="1325,-207.931 1325,-237.931 1465,-237.931 1465,-207.931 1325,-207.931"/>
<text text-anchor="start" x="1333" y="-225.931" font-family="Helvetica,sans-Serif" font-size="10.00">slogo.UI.BackgroundColor</text>
<text text-anchor="middle" x="1395" y="-214.931" font-family="Helvetica,sans-Serif" font-size="10.00">Selector.create</text>
</a>
</g>
</g>
<!-- Node13&#45;&gt;Node24 -->
<g id="edge31" class="edge"><title>Node13&#45;&gt;Node24</title>
<path fill="none" stroke="midnightblue" d="M1260.14,-222.931C1281.6,-222.931 1304.37,-222.931 1324.93,-222.931"/>
<polygon fill="midnightblue" stroke="midnightblue" points="1260.06,-219.431 1250.06,-222.931 1260.06,-226.431 1260.06,-219.431"/>
</g>
<!-- Node25 -->
<g id="node25" class="node"><title>Node25</title>
<g id="a_node25"><a xlink:href="../../dd/da7/classslogo_1_1_u_i_1_1_turtle_image_selector.html#a3f268d9196ffebcbb5dc322d2897a9fe" target="_top" xlink:title="slogo.UI.TurtleImageSelector.create">
<polygon fill="white" stroke="black" points="1302,-169.431 1302,-188.431 1488,-188.431 1488,-169.431 1302,-169.431"/>
<text text-anchor="middle" x="1395" y="-176.431" font-family="Helvetica,sans-Serif" font-size="10.00">slogo.UI.TurtleImageSelector.create</text>
</a>
</g>
</g>
<!-- Node13&#45;&gt;Node25 -->
<g id="edge33" class="edge"><title>Node13&#45;&gt;Node25</title>
<path fill="none" stroke="midnightblue" d="M1254.01,-205.752C1266.7,-203.078 1279.71,-200.389 1292,-197.931 1307.99,-194.735 1325.42,-191.424 1341.27,-188.479"/>
<polygon fill="midnightblue" stroke="midnightblue" points="1252.98,-202.394 1243.92,-207.889 1254.43,-209.242 1252.98,-202.394"/>
</g>
<!-- Node15 -->
<g id="node15" class="node"><title>Node15</title>
<g id="a_node15"><a xlink:href="../../db/d19/classslogo_1_1_u_i_1_1_module_creation_helper.html#adce7362386f9a7b3006e7db08a2d578d" target="_top" xlink:title="slogo.UI.ModuleCreationHelper.create\lIncreaseDecreaseButtons">
<polygon fill="white" stroke="black" points="1768.5,-114.931 1768.5,-144.931 1965.5,-144.931 1965.5,-114.931 1768.5,-114.931"/>
<text text-anchor="start" x="1776.5" y="-132.931" font-family="Helvetica,sans-Serif" font-size="10.00">slogo.UI.ModuleCreationHelper.create</text>
<text text-anchor="middle" x="1867" y="-121.931" font-family="Helvetica,sans-Serif" font-size="10.00">IncreaseDecreaseButtons</text>
</a>
</g>
</g>
<!-- Node14&#45;&gt;Node15 -->
<g id="edge16" class="edge"><title>Node14&#45;&gt;Node15</title>
<path fill="none" stroke="midnightblue" d="M1507.71,-104.775C1586.92,-110.336 1692.2,-117.728 1768.12,-123.059"/>
<polygon fill="midnightblue" stroke="midnightblue" points="1507.91,-101.281 1497.69,-104.071 1507.42,-108.263 1507.91,-101.281"/>
</g>
<!-- Node15&#45;&gt;Node4 -->
<g id="edge17" class="edge"><title>Node15&#45;&gt;Node4</title>
<path fill="none" stroke="midnightblue" d="M1950.42,-147.044C1976.9,-152.543 2006.03,-158.589 2031.73,-163.925"/>
<polygon fill="midnightblue" stroke="midnightblue" points="1950.91,-143.572 1940.41,-144.966 1949.49,-150.426 1950.91,-143.572"/>
</g>
<!-- Node16&#45;&gt;Node5 -->
<g id="edge19" class="edge"><title>Node16&#45;&gt;Node5</title>
<path fill="none" stroke="midnightblue" d="M2218.05,-315.931C2226.81,-315.931 2235.62,-315.931 2244.27,-315.931"/>
<polygon fill="midnightblue" stroke="midnightblue" points="2217.8,-312.431 2207.8,-315.931 2217.8,-319.431 2217.8,-312.431"/>
</g>
<!-- Node18 -->
<g id="node18" class="node"><title>Node18</title>
<g id="a_node18"><a xlink:href="../../db/d19/classslogo_1_1_u_i_1_1_module_creation_helper.html#a07f5483df317cdf80e8ea2dda5699afa" target="_top" xlink:title="slogo.UI.ModuleCreationHelper.create\lNewTurtleButton">
<polygon fill="white" stroke="black" points="1768.5,-56.9312 1768.5,-86.9312 1965.5,-86.9312 1965.5,-56.9312 1768.5,-56.9312"/>
<text text-anchor="start" x="1776.5" y="-74.9312" font-family="Helvetica,sans-Serif" font-size="10.00">slogo.UI.ModuleCreationHelper.create</text>
<text text-anchor="middle" x="1867" y="-63.9312" font-family="Helvetica,sans-Serif" font-size="10.00">NewTurtleButton</text>
</a>
</g>
</g>
<!-- Node17&#45;&gt;Node18 -->
<g id="edge21" class="edge"><title>Node17&#45;&gt;Node18</title>
<path fill="none" stroke="midnightblue" d="M1507.71,-53.6355C1586.92,-57.6803 1692.2,-63.0563 1768.12,-66.9329"/>
<polygon fill="midnightblue" stroke="midnightblue" points="1507.86,-50.1387 1497.69,-53.1241 1507.5,-57.1296 1507.86,-50.1387"/>
</g>
<!-- Node18&#45;&gt;Node4 -->
<g id="edge22" class="edge"><title>Node18&#45;&gt;Node4</title>
<path fill="none" stroke="midnightblue" d="M1927.63,-90.2316C1940.44,-94.6554 1953.79,-99.6461 1966,-104.931 2006.79,-122.588 2051.77,-147.876 2078.95,-163.845"/>
<polygon fill="midnightblue" stroke="midnightblue" points="1928.56,-86.8517 1917.96,-86.9637 1926.31,-93.4828 1928.56,-86.8517"/>
</g>
<!-- Node20 -->
<g id="node20" class="node"><title>Node20</title>
<g id="a_node20"><a xlink:href="../../db/d19/classslogo_1_1_u_i_1_1_module_creation_helper.html#a9b3fb38a55b3b7812b4f793afa7a974f" target="_top" xlink:title="slogo.UI.ModuleCreationHelper.create\lPlayButton">
<polygon fill="white" stroke="black" points="1534.5,-234.931 1534.5,-264.931 1731.5,-264.931 1731.5,-234.931 1534.5,-234.931"/>
<text text-anchor="start" x="1542.5" y="-252.931" font-family="Helvetica,sans-Serif" font-size="10.00">slogo.UI.ModuleCreationHelper.create</text>
<text text-anchor="middle" x="1633" y="-241.931" font-family="Helvetica,sans-Serif" font-size="10.00">PlayButton</text>
</a>
</g>
</g>
<!-- Node19&#45;&gt;Node20 -->
<g id="edge24" class="edge"><title>Node19&#45;&gt;Node20</title>
<path fill="none" stroke="midnightblue" d="M1507.77,-261.512C1516.62,-260.687 1525.52,-259.857 1534.27,-259.041"/>
<polygon fill="midnightblue" stroke="midnightblue" points="1507.43,-258.028 1497.8,-262.442 1508.08,-264.998 1507.43,-258.028"/>
</g>
<!-- Node21 -->
<g id="node21" class="node"><title>Node21</title>
<g id="a_node21"><a xlink:href="../../db/d19/classslogo_1_1_u_i_1_1_module_creation_helper.html#ae1e60d37509c2e5eddcb2a6e70b4f650" target="_top" xlink:title="slogo.UI.ModuleCreationHelper.create\lFirstRowButtons">
<polygon fill="white" stroke="black" points="1768.5,-221.931 1768.5,-251.931 1965.5,-251.931 1965.5,-221.931 1768.5,-221.931"/>
<text text-anchor="start" x="1776.5" y="-239.931" font-family="Helvetica,sans-Serif" font-size="10.00">slogo.UI.ModuleCreationHelper.create</text>
<text text-anchor="middle" x="1867" y="-228.931" font-family="Helvetica,sans-Serif" font-size="10.00">FirstRowButtons</text>
</a>
</g>
</g>
<!-- Node20&#45;&gt;Node21 -->
<g id="edge25" class="edge"><title>Node20&#45;&gt;Node21</title>
<path fill="none" stroke="midnightblue" d="M1741.72,-243.895C1750.62,-243.397 1759.58,-242.894 1768.4,-242.4"/>
<polygon fill="midnightblue" stroke="midnightblue" points="1741.5,-240.402 1731.72,-244.456 1741.9,-247.391 1741.5,-240.402"/>
</g>
<!-- Node21&#45;&gt;Node4 -->
<g id="edge26" class="edge"><title>Node21&#45;&gt;Node4</title>
<path fill="none" stroke="midnightblue" d="M1939.13,-219.449C1972.17,-211.331 2011.06,-201.774 2042.76,-193.981"/>
<polygon fill="midnightblue" stroke="midnightblue" points="1937.96,-216.134 1929.08,-221.919 1939.63,-222.932 1937.96,-216.134"/>
</g>
<!-- Node23 -->
<g id="node23" class="node"><title>Node23</title>
<g id="a_node23"><a xlink:href="../../db/d19/classslogo_1_1_u_i_1_1_module_creation_helper.html#af7f2919454fdbf6e9d7d912e99634857" target="_top" xlink:title="slogo.UI.ModuleCreationHelper.create\lSelectors">
<polygon fill="white" stroke="black" points="1534.5,-163.931 1534.5,-193.931 1731.5,-193.931 1731.5,-163.931 1534.5,-163.931"/>
<text text-anchor="start" x="1542.5" y="-181.931" font-family="Helvetica,sans-Serif" font-size="10.00">slogo.UI.ModuleCreationHelper.create</text>
<text text-anchor="middle" x="1633" y="-170.931" font-family="Helvetica,sans-Serif" font-size="10.00">Selectors</text>
</a>
</g>
</g>
<!-- Node22&#45;&gt;Node23 -->
<g id="edge29" class="edge"><title>Node22&#45;&gt;Node23</title>
<path fill="none" stroke="midnightblue" d="M1465.24,-152.08C1488.23,-155.782 1514.21,-159.966 1538.71,-163.91"/>
<polygon fill="midnightblue" stroke="midnightblue" points="1465.68,-148.605 1455.25,-150.471 1464.56,-155.516 1465.68,-148.605"/>
</g>
<!-- Node23&#45;&gt;Node4 -->
<g id="edge30" class="edge"><title>Node23&#45;&gt;Node4</title>
<path fill="none" stroke="midnightblue" d="M1741.74,-178.931C1821.49,-178.931 1929.24,-178.931 2006.46,-178.931"/>
<polygon fill="midnightblue" stroke="midnightblue" points="1741.67,-175.431 1731.67,-178.931 1741.67,-182.431 1741.67,-175.431"/>
</g>
<!-- Node24&#45;&gt;Node23 -->
<g id="edge32" class="edge"><title>Node24&#45;&gt;Node23</title>
<path fill="none" stroke="midnightblue" d="M1475.16,-208.172C1499.62,-203.613 1526.57,-198.587 1551.14,-194.007"/>
<polygon fill="midnightblue" stroke="midnightblue" points="1474.4,-204.753 1465.21,-210.027 1475.69,-211.635 1474.4,-204.753"/>
</g>
<!-- Node25&#45;&gt;Node23 -->
<g id="edge34" class="edge"><title>Node25&#45;&gt;Node23</title>
<path fill="none" stroke="midnightblue" d="M1498.26,-178.931C1510.24,-178.931 1522.44,-178.931 1534.35,-178.931"/>
<polygon fill="midnightblue" stroke="midnightblue" points="1498.26,-175.431 1488.26,-178.931 1498.26,-182.431 1498.26,-175.431"/>
</g>
<!-- Node27 -->
<g id="node27" class="node"><title>Node27</title>
<g id="a_node27"><a xlink:href="../../db/d19/classslogo_1_1_u_i_1_1_module_creation_helper.html#a9fd730f7c1860d34bf4ac46c3828bd59" target="_top" xlink:title="slogo.UI.ModuleCreationHelper.activate\lStepIntoButton">
<polygon fill="white" stroke="black" points="1292.5,-393.931 1292.5,-423.931 1497.5,-423.931 1497.5,-393.931 1292.5,-393.931"/>
<text text-anchor="start" x="1300.5" y="-411.931" font-family="Helvetica,sans-Serif" font-size="10.00">slogo.UI.ModuleCreationHelper.activate</text>
<text text-anchor="middle" x="1395" y="-400.931" font-family="Helvetica,sans-Serif" font-size="10.00">StepIntoButton</text>
</a>
</g>
</g>
<!-- Node26&#45;&gt;Node27 -->
<g id="edge36" class="edge"><title>Node26&#45;&gt;Node27</title>
<path fill="none" stroke="midnightblue" d="M1263.33,-405.351C1272.82,-405.611 1282.54,-405.877 1292.17,-406.141"/>
<polygon fill="midnightblue" stroke="midnightblue" points="1263.23,-401.847 1253.14,-405.072 1263.04,-408.845 1263.23,-401.847"/>
</g>
<!-- Node28 -->
<g id="node28" class="node"><title>Node28</title>
<g id="a_node28"><a xlink:href="../../db/d19/classslogo_1_1_u_i_1_1_module_creation_helper.html#a4a6f1f009507c25be8c7c28cbba35f3b" target="_top" xlink:title="slogo.UI.ModuleCreationHelper.create\lDebugStepIntoButton">
<polygon fill="white" stroke="black" points="1534.5,-393.931 1534.5,-423.931 1731.5,-423.931 1731.5,-393.931 1534.5,-393.931"/>
<text text-anchor="start" x="1542.5" y="-411.931" font-family="Helvetica,sans-Serif" font-size="10.00">slogo.UI.ModuleCreationHelper.create</text>
<text text-anchor="middle" x="1633" y="-400.931" font-family="Helvetica,sans-Serif" font-size="10.00">DebugStepIntoButton</text>
</a>
</g>
</g>
<!-- Node27&#45;&gt;Node28 -->
<g id="edge37" class="edge"><title>Node27&#45;&gt;Node28</title>
<path fill="none" stroke="midnightblue" d="M1508.05,-408.931C1516.81,-408.931 1525.62,-408.931 1534.27,-408.931"/>
<polygon fill="midnightblue" stroke="midnightblue" points="1507.8,-405.431 1497.8,-408.931 1507.8,-412.431 1507.8,-405.431"/>
</g>
<!-- Node29 -->
<g id="node29" class="node"><title>Node29</title>
<g id="a_node29"><a xlink:href="../../db/d19/classslogo_1_1_u_i_1_1_module_creation_helper.html#a975af4ea47dc85df72215bdf1a0d20ce" target="_top" xlink:title="slogo.UI.ModuleCreationHelper.create\lDebugModules">
<polygon fill="white" stroke="black" points="1768.5,-344.931 1768.5,-374.931 1965.5,-374.931 1965.5,-344.931 1768.5,-344.931"/>
<text text-anchor="start" x="1776.5" y="-362.931" font-family="Helvetica,sans-Serif" font-size="10.00">slogo.UI.ModuleCreationHelper.create</text>
<text text-anchor="middle" x="1867" y="-351.931" font-family="Helvetica,sans-Serif" font-size="10.00">DebugModules</text>
</a>
</g>
</g>
<!-- Node28&#45;&gt;Node29 -->
<g id="edge38" class="edge"><title>Node28&#45;&gt;Node29</title>
<path fill="none" stroke="midnightblue" d="M1715.02,-391.819C1741.06,-386.32 1769.69,-380.273 1794.95,-374.937"/>
<polygon fill="midnightblue" stroke="midnightblue" points="1714.25,-388.406 1705.18,-393.897 1715.69,-395.255 1714.25,-388.406"/>
</g>
<!-- Node29&#45;&gt;Node5 -->
<g id="edge39" class="edge"><title>Node29&#45;&gt;Node5</title>
<path fill="none" stroke="midnightblue" d="M1975.88,-356.851C2042.87,-354.129 2130.65,-349.101 2208,-339.931 2227.25,-337.65 2247.91,-334.368 2267.11,-330.96"/>
<polygon fill="midnightblue" stroke="midnightblue" points="1975.59,-353.359 1965.73,-357.252 1975.86,-360.354 1975.59,-353.359"/>
</g>
<!-- Node31 -->
<g id="node31" class="node"><title>Node31</title>
<g id="a_node31"><a xlink:href="../../db/d19/classslogo_1_1_u_i_1_1_module_creation_helper.html#a0fed0bb32bf2643d6fd5c24d82e8e18e" target="_top" xlink:title="slogo.UI.ModuleCreationHelper.activate\lStepOverButton">
<polygon fill="white" stroke="black" points="1292.5,-344.931 1292.5,-374.931 1497.5,-374.931 1497.5,-344.931 1292.5,-344.931"/>
<text text-anchor="start" x="1300.5" y="-362.931" font-family="Helvetica,sans-Serif" font-size="10.00">slogo.UI.ModuleCreationHelper.activate</text>
<text text-anchor="middle" x="1395" y="-351.931" font-family="Helvetica,sans-Serif" font-size="10.00">StepOverButton</text>
</a>
</g>
</g>
<!-- Node30&#45;&gt;Node31 -->
<g id="edge41" class="edge"><title>Node30&#45;&gt;Node31</title>
<path fill="none" stroke="midnightblue" d="M1265.8,-359.931C1274.56,-359.931 1283.48,-359.931 1292.33,-359.931"/>
<polygon fill="midnightblue" stroke="midnightblue" points="1265.61,-356.431 1255.61,-359.931 1265.61,-363.431 1265.61,-356.431"/>
</g>
<!-- Node32 -->
<g id="node32" class="node"><title>Node32</title>
<g id="a_node32"><a xlink:href="../../db/d19/classslogo_1_1_u_i_1_1_module_creation_helper.html#aa1e7dc2b509360583790fba0d3819c8d" target="_top" xlink:title="slogo.UI.ModuleCreationHelper.create\lDebugStepOverButton">
<polygon fill="white" stroke="black" points="1534.5,-344.931 1534.5,-374.931 1731.5,-374.931 1731.5,-344.931 1534.5,-344.931"/>
<text text-anchor="start" x="1542.5" y="-362.931" font-family="Helvetica,sans-Serif" font-size="10.00">slogo.UI.ModuleCreationHelper.create</text>
<text text-anchor="middle" x="1633" y="-351.931" font-family="Helvetica,sans-Serif" font-size="10.00">DebugStepOverButton</text>
</a>
</g>
</g>
<!-- Node31&#45;&gt;Node32 -->
<g id="edge42" class="edge"><title>Node31&#45;&gt;Node32</title>
<path fill="none" stroke="midnightblue" d="M1508.05,-359.931C1516.81,-359.931 1525.62,-359.931 1534.27,-359.931"/>
<polygon fill="midnightblue" stroke="midnightblue" points="1507.8,-356.431 1497.8,-359.931 1507.8,-363.431 1507.8,-356.431"/>
</g>
<!-- Node32&#45;&gt;Node29 -->
<g id="edge43" class="edge"><title>Node32&#45;&gt;Node29</title>
<path fill="none" stroke="midnightblue" d="M1741.72,-359.931C1750.62,-359.931 1759.58,-359.931 1768.4,-359.931"/>
<polygon fill="midnightblue" stroke="midnightblue" points="1741.72,-356.431 1731.72,-359.931 1741.72,-363.431 1741.72,-356.431"/>
</g>
<!-- Node34 -->
<g id="node34" class="node"><title>Node34</title>
<g id="a_node34"><a xlink:href="../../d9/d7e/classslogo_1_1_u_i_1_1_method_runner.html#ab7fbaeafa3fe50e148a313796ba47db9" target="_top" xlink:title="slogo.UI.MethodRunner.change\lEnvironment">
<polygon fill="white" stroke="black" points="451,-361.931 451,-391.931 615,-391.931 615,-361.931 451,-361.931"/>
<text text-anchor="start" x="459" y="-379.931" font-family="Helvetica,sans-Serif" font-size="10.00">slogo.UI.MethodRunner.change</text>
<text text-anchor="middle" x="533" y="-368.931" font-family="Helvetica,sans-Serif" font-size="10.00">Environment</text>
</a>
</g>
</g>
<!-- Node33&#45;&gt;Node34 -->
<g id="edge45" class="edge"><title>Node33&#45;&gt;Node34</title>
<path fill="none" stroke="midnightblue" d="M400.424,-375.797C417.23,-375.942 434.482,-376.091 450.731,-376.231"/>
<polygon fill="midnightblue" stroke="midnightblue" points="400.059,-372.294 390.029,-375.707 399.999,-379.294 400.059,-372.294"/>
</g>
<!-- Node35 -->
<g id="node35" class="node"><title>Node35</title>
<g id="a_node35"><a xlink:href="../../df/d2d/classslogo_1_1_view.html#a0784f5391bd3b8cd985450e6902f8451" target="_top" xlink:title="slogo.View.executeEnvironment\lCommands">
<polygon fill="white" stroke="black" points="679,-360.931 679,-390.931 847,-390.931 847,-360.931 679,-360.931"/>
<text text-anchor="start" x="687" y="-378.931" font-family="Helvetica,sans-Serif" font-size="10.00">slogo.View.executeEnvironment</text>
<text text-anchor="middle" x="763" y="-367.931" font-family="Helvetica,sans-Serif" font-size="10.00">Commands</text>
</a>
</g>
</g>
<!-- Node34&#45;&gt;Node35 -->
<g id="edge46" class="edge"><title>Node34&#45;&gt;Node35</title>
<path fill="none" stroke="midnightblue" d="M625.347,-376.531C643.048,-376.453 661.508,-376.372 678.926,-376.296"/>
<polygon fill="midnightblue" stroke="midnightblue" points="625.011,-373.032 615.026,-376.576 625.042,-380.032 625.011,-373.032"/>
</g>
<!-- Node35&#45;&gt;Node12 -->
<g id="edge47" class="edge"><title>Node35&#45;&gt;Node12</title>
<path fill="none" stroke="midnightblue" d="M857.442,-368.879C870.952,-367.859 884.738,-366.819 897.906,-365.825"/>
<polygon fill="midnightblue" stroke="midnightblue" points="856.888,-365.411 847.18,-369.654 857.415,-372.391 856.888,-365.411"/>
</g>
</g>
</svg>
