<?xml version="1.0" encoding="UTF-8" standalone="no"?>
<!DOCTYPE svg PUBLIC "-//W3C//DTD SVG 1.1//EN"
 "http://www.w3.org/Graphics/SVG/1.1/DTD/svg11.dtd">
<!-- Generated by graphviz version 2.36.0 (20140111.2315)
 -->
<!-- Title: slogo.backend.util.ICoordinates.getY Pages: 1 -->
<!--zoomable 623 -->
<svg id="main" version="1.1" xmlns="http://www.w3.org/2000/svg" xmlns:xlink="http://www.w3.org/1999/xlink" xml:space="preserve" onload="init(evt)">
<style type="text/css"><![CDATA[
.edge:hover path { stroke: red; }
.edge:hover polygon { stroke: red; fill: red; }
]]></style>
<script type="text/javascript"><![CDATA[
var edges = document.getElementsByTagName('g');
if (edges && edges.length) {
  for (var i=0;i<edges.length;i++) {
    if (edges[i].id.substr(0,4)=='edge') {
      edges[i].setAttribute('class','edge');
    }
  }
}
]]></script>
        <defs>
                <circle id="rim" cx="0" cy="0" r="7"/>
                <circle id="rim2" cx="0" cy="0" r="3.5"/>
                <g id="zoomPlus">
                        <use xlink:href="#rim" fill="#404040">
                                <set attributeName="fill" to="#808080" begin="zoomplus.mouseover" end="zoomplus.mouseout"/>
                        </use>
                        <path d="M-4,0h8M0,-4v8" fill="none" stroke="white" stroke-width="1.5" pointer-events="none"/>
                </g>
                <g id="zoomMin">
                        <use xlink:href="#rim" fill="#404040">
                                <set attributeName="fill" to="#808080" begin="zoomminus.mouseover" end="zoomminus.mouseout"/>
                        </use>
                        <path d="M-4,0h8" fill="none" stroke="white" stroke-width="1.5" pointer-events="none"/>
                </g>
                <g id="dirArrow">
                        <path fill="none" stroke="white" stroke-width="1.5" d="M0,-3.0v7 M-2.5,-0.5L0,-3.0L2.5,-0.5"/>
                </g>
               <g id="resetDef">
                       <use xlink:href="#rim2" fill="#404040">
                               <set attributeName="fill" to="#808080" begin="reset.mouseover" end="reset.mouseout"/>
                       </use>
               </g>
        </defs>

<script type="text/javascript">
var viewWidth = 3260;
var viewHeight = 623;
var sectionId = 'dynsection-3';
</script>
<script xlink:href="../../svgpan.js"/>
<svg id="graph" class="graph">
<g id="viewport">
<title>slogo.backend.util.ICoordinates.getY</title>
<polygon fill="white" stroke="none" points="-4,4 -4,-619 3256,-619 3256,4 -4,4"/>
<!-- Node1 -->
<g id="node1" class="node"><title>Node1</title>
<polygon fill="#bfbfbf" stroke="black" points="0,-201.5 0,-220.5 190,-220.5 190,-201.5 0,-201.5"/>
<text text-anchor="middle" x="95" y="-208.5" font-family="Helvetica,sans-Serif" font-size="10.00">slogo.backend.util.ICoordinates.getY</text>
</g>
<!-- Node2 -->
<g id="node2" class="node"><title>Node2</title>
<g id="a_node2"><a xlink:href="../../d9/d7e/classslogo_1_1_u_i_1_1_method_runner.html#ab0ecc3d04769434971f00221697447bc" target="_top" xlink:title="slogo.UI.MethodRunner.draw\lNewLine">
<polygon fill="white" stroke="black" points="275,-98 275,-128 427,-128 427,-98 275,-98"/>
<text text-anchor="start" x="283" y="-116" font-family="Helvetica,sans-Serif" font-size="10.00">slogo.UI.MethodRunner.draw</text>
<text text-anchor="middle" x="351" y="-105" font-family="Helvetica,sans-Serif" font-size="10.00">NewLine</text>
</a>
</g>
</g>
<!-- Node1&#45;&gt;Node2 -->
<g id="edge1" class="edge"><title>Node1&#45;&gt;Node2</title>
<path fill="none" stroke="midnightblue" d="M117.667,-195.705C142.629,-178.808 185.435,-152.007 226,-137 241.424,-131.294 258.453,-126.871 274.824,-123.47"/>
<polygon fill="midnightblue" stroke="midnightblue" points="115.576,-192.896 109.315,-201.443 119.539,-198.665 115.576,-192.896"/>
</g>
<!-- Node34 -->
<g id="node34" class="node"><title>Node34</title>
<g id="a_node34"><a xlink:href="../../d7/def/classslogo_1_1backend_1_1impl_1_1evaluation_1_1commands_1_1turtle_1_1_y_coordinate.html#a038e845d39d30a62998da6922aa24f7b" target="_top" xlink:title="slogo.backend.impl.evaluation.commands.turtle.\lYCoordinate.executeRaw">
<polygon fill="white" stroke="black" points="226,-343 226,-373 476,-373 476,-343 226,-343"/>
<text text-anchor="start" x="234" y="-361" font-family="Helvetica,sans-Serif" font-size="10.00">slogo.backend.impl.evaluation.commands.turtle.</text>
<text text-anchor="middle" x="351" y="-350" font-family="Helvetica,sans-Serif" font-size="10.00">YCoordinate.executeRaw</text>
</a>
</g>
</g>
<!-- Node1&#45;&gt;Node34 -->
<g id="edge43" class="edge"><title>Node1&#45;&gt;Node34</title>
<path fill="none" stroke="midnightblue" d="M109.622,-229.043C131.164,-256.192 175.833,-307.118 226,-333 233.514,-336.877 241.572,-340.153 249.841,-342.921"/>
<polygon fill="midnightblue" stroke="midnightblue" points="112.13,-226.565 103.229,-220.818 106.603,-230.861 112.13,-226.565"/>
</g>
<!-- Node35 -->
<g id="node35" class="node"><title>Node35</title>
<g id="a_node35"><a xlink:href="../../d9/ddf/classslogo_1_1backend_1_1impl_1_1evaluation_1_1commands_1_1turtle_1_1_set_towards.html#aa9eccc9b78ac427f7380c6f69fad3001" target="_top" xlink:title="slogo.backend.impl.evaluation.commands.turtle.\lSetTowards.executeRaw">
<polygon fill="white" stroke="black" points="226,-294 226,-324 476,-324 476,-294 226,-294"/>
<text text-anchor="start" x="234" y="-312" font-family="Helvetica,sans-Serif" font-size="10.00">slogo.backend.impl.evaluation.commands.turtle.</text>
<text text-anchor="middle" x="351" y="-301" font-family="Helvetica,sans-Serif" font-size="10.00">SetTowards.executeRaw</text>
</a>
</g>
</g>
<!-- Node1&#45;&gt;Node35 -->
<g id="edge44" class="edge"><title>Node1&#45;&gt;Node35</title>
<path fill="none" stroke="midnightblue" d="M118.124,-226.285C143.191,-242.904 185.799,-269.083 226,-284 236.398,-287.858 247.518,-291.167 258.672,-293.993"/>
<polygon fill="midnightblue" stroke="midnightblue" points="119.971,-223.309 109.719,-220.633 116.064,-229.117 119.971,-223.309"/>
</g>
<!-- Node36 -->
<g id="node36" class="node"><title>Node36</title>
<g id="a_node36"><a xlink:href="../../da/d34/classslogo_1_1backend_1_1impl_1_1evaluation_1_1commands_1_1turtle_1_1_forward.html#a9fca7d06932aa5b628d30e79d5f30858" target="_top" xlink:title="slogo.backend.impl.evaluation.commands.turtle.\lForward.executeRaw">
<polygon fill="white" stroke="black" points="226,-245 226,-275 476,-275 476,-245 226,-245"/>
<text text-anchor="start" x="234" y="-263" font-family="Helvetica,sans-Serif" font-size="10.00">slogo.backend.impl.evaluation.commands.turtle.</text>
<text text-anchor="middle" x="351" y="-252" font-family="Helvetica,sans-Serif" font-size="10.00">Forward.executeRaw</text>
</a>
</g>
</g>
<!-- Node1&#45;&gt;Node36 -->
<g id="edge45" class="edge"><title>Node1&#45;&gt;Node36</title>
<path fill="none" stroke="midnightblue" d="M155.268,-222.434C190.009,-229.136 234.308,-237.682 271.875,-244.929"/>
<polygon fill="midnightblue" stroke="midnightblue" points="155.757,-218.963 145.275,-220.506 154.431,-225.837 155.757,-218.963"/>
</g>
<!-- Node37 -->
<g id="node37" class="node"><title>Node37</title>
<g id="a_node37"><a xlink:href="../../da/dba/classslogo_1_1backend_1_1impl_1_1evaluation_1_1commands_1_1turtle_1_1_backward.html#a403f01b198cadf4cef192b36bd776d39" target="_top" xlink:title="slogo.backend.impl.evaluation.commands.turtle.\lBackward.executeRaw">
<polygon fill="white" stroke="black" points="226,-196 226,-226 476,-226 476,-196 226,-196"/>
<text text-anchor="start" x="234" y="-214" font-family="Helvetica,sans-Serif" font-size="10.00">slogo.backend.impl.evaluation.commands.turtle.</text>
<text text-anchor="middle" x="351" y="-203" font-family="Helvetica,sans-Serif" font-size="10.00">Backward.executeRaw</text>
</a>
</g>
</g>
<!-- Node1&#45;&gt;Node37 -->
<g id="edge46" class="edge"><title>Node1&#45;&gt;Node37</title>
<path fill="none" stroke="midnightblue" d="M200.346,-211C208.712,-211 217.213,-211 225.699,-211"/>
<polygon fill="midnightblue" stroke="midnightblue" points="200.219,-207.5 190.219,-211 200.219,-214.5 200.219,-207.5"/>
</g>
<!-- Node38 -->
<g id="node38" class="node"><title>Node38</title>
<g id="a_node38"><a xlink:href="../../d4/d25/classslogo_1_1backend_1_1impl_1_1util_1_1_coordinates.html#a1e0a730d41fe208d9e7becb87d1c8051" target="_top" xlink:title="slogo.backend.impl.util.\lCoordinates.getDistance">
<polygon fill="white" stroke="black" points="283.5,-147 283.5,-177 418.5,-177 418.5,-147 283.5,-147"/>
<text text-anchor="start" x="291.5" y="-165" font-family="Helvetica,sans-Serif" font-size="10.00">slogo.backend.impl.util.</text>
<text text-anchor="middle" x="351" y="-154" font-family="Helvetica,sans-Serif" font-size="10.00">Coordinates.getDistance</text>
</a>
</g>
</g>
<!-- Node1&#45;&gt;Node38 -->
<g id="edge47" class="edge"><title>Node1&#45;&gt;Node38</title>
<path fill="none" stroke="midnightblue" d="M155.241,-199.572C193.511,-192.189 243.389,-182.567 283.088,-174.908"/>
<polygon fill="midnightblue" stroke="midnightblue" points="154.431,-196.163 145.275,-201.494 155.757,-203.037 154.431,-196.163"/>
</g>
<!-- Node39 -->
<g id="node39" class="node"><title>Node39</title>
<g id="a_node39"><a xlink:href="../../d9/d7e/classslogo_1_1_u_i_1_1_method_runner.html#a8c13f2e7cda4a596edbba9e9ab4aaacf" target="_top" xlink:title="slogo.UI.MethodRunner.redraw\lIfInScene">
<polygon fill="white" stroke="black" points="270.5,-392 270.5,-422 431.5,-422 431.5,-392 270.5,-392"/>
<text text-anchor="start" x="278.5" y="-410" font-family="Helvetica,sans-Serif" font-size="10.00">slogo.UI.MethodRunner.redraw</text>
<text text-anchor="middle" x="351" y="-399" font-family="Helvetica,sans-Serif" font-size="10.00">IfInScene</text>
</a>
</g>
</g>
<!-- Node1&#45;&gt;Node39 -->
<g id="edge48" class="edge"><title>Node1&#45;&gt;Node39</title>
<path fill="none" stroke="midnightblue" d="M104.677,-230.053C122.116,-266.033 165.029,-343.786 226,-382 239.305,-390.339 254.85,-395.97 270.347,-399.755"/>
<polygon fill="midnightblue" stroke="midnightblue" points="107.695,-228.249 100.264,-220.697 101.364,-231.235 107.695,-228.249"/>
</g>
<!-- Node40 -->
<g id="node40" class="node"><title>Node40</title>
<g id="a_node40"><a xlink:href="../../df/dc1/classslogo_1_1backend_1_1test_1_1_operation_test.html#ab8b3fd4448844a7a931a7ce3eb20cbae" target="_top" xlink:title="slogo.backend.test.Operation\lTest.testForward">
<polygon fill="white" stroke="black" points="272,-49 272,-79 430,-79 430,-49 272,-49"/>
<text text-anchor="start" x="280" y="-67" font-family="Helvetica,sans-Serif" font-size="10.00">slogo.backend.test.Operation</text>
<text text-anchor="middle" x="351" y="-56" font-family="Helvetica,sans-Serif" font-size="10.00">Test.testForward</text>
</a>
</g>
</g>
<!-- Node1&#45;&gt;Node40 -->
<g id="edge50" class="edge"><title>Node1&#45;&gt;Node40</title>
<path fill="none" stroke="midnightblue" d="M109.247,-193.162C130.587,-165.827 175.344,-114.017 226,-88 240.044,-80.7873 255.996,-75.7333 271.673,-72.1942"/>
<polygon fill="midnightblue" stroke="midnightblue" points="106.226,-191.351 102.933,-201.421 111.787,-195.602 106.226,-191.351"/>
</g>
<!-- Node41 -->
<g id="node41" class="node"><title>Node41</title>
<g id="a_node41"><a xlink:href="../../df/dc1/classslogo_1_1backend_1_1test_1_1_operation_test.html#a77a93b19885ca9ec44546a75852f883e" target="_top" xlink:title="slogo.backend.test.Operation\lTest.testRepeat">
<polygon fill="white" stroke="black" points="272,-0 272,-30 430,-30 430,-0 272,-0"/>
<text text-anchor="start" x="280" y="-18" font-family="Helvetica,sans-Serif" font-size="10.00">slogo.backend.test.Operation</text>
<text text-anchor="middle" x="351" y="-7" font-family="Helvetica,sans-Serif" font-size="10.00">Test.testRepeat</text>
</a>
</g>
</g>
<!-- Node1&#45;&gt;Node41 -->
<g id="edge51" class="edge"><title>Node1&#45;&gt;Node41</title>
<path fill="none" stroke="midnightblue" d="M104.618,-191.793C121.957,-155.531 164.708,-77.2042 226,-39 239.77,-30.4169 255.941,-24.7905 271.973,-21.1286"/>
<polygon fill="midnightblue" stroke="midnightblue" points="101.276,-190.68 100.233,-201.223 107.623,-193.632 101.276,-190.68"/>
</g>
<!-- Node3 -->
<g id="node3" class="node"><title>Node3</title>
<g id="a_node3"><a xlink:href="../../d9/d7e/classslogo_1_1_u_i_1_1_method_runner.html#a1ab80948935d4a625cf3313eabe9a51d" target="_top" xlink:title="slogo.UI.MethodRunner.move\lTurtle">
<polygon fill="white" stroke="black" points="512,-245 512,-275 668,-275 668,-245 512,-245"/>
<text text-anchor="start" x="520" y="-263" font-family="Helvetica,sans-Serif" font-size="10.00">slogo.UI.MethodRunner.move</text>
<text text-anchor="middle" x="590" y="-252" font-family="Helvetica,sans-Serif" font-size="10.00">Turtle</text>
</a>
</g>
</g>
<!-- Node2&#45;&gt;Node3 -->
<g id="edge2" class="edge"><title>Node2&#45;&gt;Node3</title>
<path fill="none" stroke="midnightblue" d="M437.019,-121.974C450.582,-125.487 464.062,-130.331 476,-137 523.846,-163.729 562.636,-218.033 579.663,-244.627"/>
<polygon fill="midnightblue" stroke="midnightblue" points="437.686,-118.535 427.149,-119.645 436.078,-125.348 437.686,-118.535"/>
</g>
<!-- Node4 -->
<g id="node4" class="node"><title>Node4</title>
<g id="a_node4"><a xlink:href="../../d9/d7e/classslogo_1_1_u_i_1_1_method_runner.html#a5fe4a6310ba1b0851d7d30a440511324" target="_top" xlink:title="slogo.UI.MethodRunner.change\lTurtle">
<polygon fill="white" stroke="black" points="704,-245 704,-275 868,-275 868,-245 704,-245"/>
<text text-anchor="start" x="712" y="-263" font-family="Helvetica,sans-Serif" font-size="10.00">slogo.UI.MethodRunner.change</text>
<text text-anchor="middle" x="786" y="-252" font-family="Helvetica,sans-Serif" font-size="10.00">Turtle</text>
</a>
</g>
</g>
<!-- Node3&#45;&gt;Node4 -->
<g id="edge3" class="edge"><title>Node3&#45;&gt;Node4</title>
<path fill="none" stroke="midnightblue" d="M678.486,-260C686.947,-260 695.505,-260 703.9,-260"/>
<polygon fill="midnightblue" stroke="midnightblue" points="678.231,-256.5 668.231,-260 678.231,-263.5 678.231,-256.5"/>
</g>
<!-- Node5 -->
<g id="node5" class="node"><title>Node5</title>
<g id="a_node5"><a xlink:href="../../df/d2d/classslogo_1_1_view.html#accc79c56511a72090ff8a4d414b8d1f5" target="_top" xlink:title="slogo.View.executeTurtle\lCommands">
<polygon fill="white" stroke="black" points="904.5,-245 904.5,-275 1037.5,-275 1037.5,-245 904.5,-245"/>
<text text-anchor="start" x="912.5" y="-263" font-family="Helvetica,sans-Serif" font-size="10.00">slogo.View.executeTurtle</text>
<text text-anchor="middle" x="971" y="-252" font-family="Helvetica,sans-Serif" font-size="10.00">Commands</text>
</a>
</g>
</g>
<!-- Node4&#45;&gt;Node5 -->
<g id="edge4" class="edge"><title>Node4&#45;&gt;Node5</title>
<path fill="none" stroke="midnightblue" d="M878.35,-260C887.128,-260 895.907,-260 904.365,-260"/>
<polygon fill="midnightblue" stroke="midnightblue" points="878.066,-256.5 868.066,-260 878.066,-263.5 878.066,-256.5"/>
</g>
<!-- Node6 -->
<g id="node6" class="node"><title>Node6</title>
<g id="a_node6"><a xlink:href="../../df/d2d/classslogo_1_1_view.html#aa90e5d95d422b58b7f4b7f8a049defe1" target="_top" xlink:title="slogo.View.executeCommand">
<polygon fill="white" stroke="black" points="1074,-250.5 1074,-269.5 1232,-269.5 1232,-250.5 1074,-250.5"/>
<text text-anchor="middle" x="1153" y="-257.5" font-family="Helvetica,sans-Serif" font-size="10.00">slogo.View.executeCommand</text>
</a>
</g>
</g>
<!-- Node5&#45;&gt;Node6 -->
<g id="edge5" class="edge"><title>Node5&#45;&gt;Node6</title>
<path fill="none" stroke="midnightblue" d="M1047.78,-260C1056.42,-260 1065.24,-260 1073.9,-260"/>
<polygon fill="midnightblue" stroke="midnightblue" points="1047.75,-256.5 1037.75,-260 1047.75,-263.5 1047.75,-256.5"/>
</g>
<!-- Node7 -->
<g id="node7" class="node"><title>Node7</title>
<g id="a_node7"><a xlink:href="../../df/d2d/classslogo_1_1_view.html#aee563f6a0b15ac6668e4dcbdad40c73c" target="_top" xlink:title="slogo.View.sendCommandTo\lBackend">
<polygon fill="white" stroke="black" points="1274,-409 1274,-439 1426,-439 1426,-409 1274,-409"/>
<text text-anchor="start" x="1282" y="-427" font-family="Helvetica,sans-Serif" font-size="10.00">slogo.View.sendCommandTo</text>
<text text-anchor="middle" x="1350" y="-416" font-family="Helvetica,sans-Serif" font-size="10.00">Backend</text>
</a>
</g>
</g>
<!-- Node6&#45;&gt;Node7 -->
<g id="edge6" class="edge"><title>Node6&#45;&gt;Node7</title>
<path fill="none" stroke="midnightblue" d="M1173.05,-276.025C1210.77,-307.741 1294.43,-378.108 1331.15,-408.984"/>
<polygon fill="midnightblue" stroke="midnightblue" points="1175.23,-273.284 1165.33,-269.526 1170.73,-278.641 1175.23,-273.284"/>
</g>
<!-- Node27 -->
<g id="node27" class="node"><title>Node27</title>
<g id="a_node27"><a xlink:href="../../df/d2d/classslogo_1_1_view.html#a4c3084a198acf85804800d70eff9ee51" target="_top" xlink:title="slogo.View.stepIntoCommand">
<polygon fill="white" stroke="black" points="1271,-250.5 1271,-269.5 1429,-269.5 1429,-250.5 1271,-250.5"/>
<text text-anchor="middle" x="1350" y="-257.5" font-family="Helvetica,sans-Serif" font-size="10.00">slogo.View.stepIntoCommand</text>
</a>
</g>
</g>
<!-- Node6&#45;&gt;Node27 -->
<g id="edge34" class="edge"><title>Node6&#45;&gt;Node27</title>
<path fill="none" stroke="midnightblue" d="M1242.4,-260C1251.87,-260 1261.45,-260 1270.79,-260"/>
<polygon fill="midnightblue" stroke="midnightblue" points="1242.19,-256.5 1232.19,-260 1242.19,-263.5 1242.19,-256.5"/>
</g>
<!-- Node31 -->
<g id="node31" class="node"><title>Node31</title>
<g id="a_node31"><a xlink:href="../../df/d2d/classslogo_1_1_view.html#ac8b7f574c679e744a430f1649dc55e68" target="_top" xlink:title="slogo.View.stepOverCommand">
<polygon fill="white" stroke="black" points="1268.5,-207.5 1268.5,-226.5 1431.5,-226.5 1431.5,-207.5 1268.5,-207.5"/>
<text text-anchor="middle" x="1350" y="-214.5" font-family="Helvetica,sans-Serif" font-size="10.00">slogo.View.stepOverCommand</text>
</a>
</g>
</g>
<!-- Node6&#45;&gt;Node31 -->
<g id="edge39" class="edge"><title>Node6&#45;&gt;Node31</title>
<path fill="none" stroke="midnightblue" d="M1207.06,-248.301C1238.07,-241.462 1276.71,-232.941 1305.84,-226.516"/>
<polygon fill="midnightblue" stroke="midnightblue" points="1206.29,-244.886 1197.28,-250.457 1207.8,-251.721 1206.29,-244.886"/>
</g>
<!-- Node8 -->
<g id="node8" class="node"><title>Node8</title>
<g id="a_node8"><a xlink:href="../../db/d19/classslogo_1_1_u_i_1_1_module_creation_helper.html#a69e17abcc7cf9a6ed7261d8fb1d631fa" target="_top" xlink:title="slogo.UI.ModuleCreationHelper.activate\lIncreaseDecreaseButtons">
<polygon fill="white" stroke="black" points="1468.5,-585 1468.5,-615 1673.5,-615 1673.5,-585 1468.5,-585"/>
<text text-anchor="start" x="1476.5" y="-603" font-family="Helvetica,sans-Serif" font-size="10.00">slogo.UI.ModuleCreationHelper.activate</text>
<text text-anchor="middle" x="1571" y="-592" font-family="Helvetica,sans-Serif" font-size="10.00">IncreaseDecreaseButtons</text>
</a>
</g>
</g>
<!-- Node7&#45;&gt;Node8 -->
<g id="edge7" class="edge"><title>Node7&#45;&gt;Node8</title>
<path fill="none" stroke="midnightblue" d="M1364.04,-448.219C1382.78,-480.724 1420.36,-538.06 1468,-570 1477.12,-576.116 1487.51,-581.01 1498.09,-584.919"/>
<polygon fill="midnightblue" stroke="midnightblue" points="1367.01,-446.361 1359.05,-439.368 1360.91,-449.798 1367.01,-446.361"/>
</g>
<!-- Node15 -->
<g id="node15" class="node"><title>Node15</title>
<g id="a_node15"><a xlink:href="../../db/d19/classslogo_1_1_u_i_1_1_module_creation_helper.html#aa70b0ad9e90e62509149bfd2ef2ba209" target="_top" xlink:title="slogo.UI.ModuleCreationHelper.activate\lKeyEvents">
<polygon fill="white" stroke="black" points="2194.5,-332 2194.5,-362 2399.5,-362 2399.5,-332 2194.5,-332"/>
<text text-anchor="start" x="2202.5" y="-350" font-family="Helvetica,sans-Serif" font-size="10.00">slogo.UI.ModuleCreationHelper.activate</text>
<text text-anchor="middle" x="2297" y="-339" font-family="Helvetica,sans-Serif" font-size="10.00">KeyEvents</text>
</a>
</g>
</g>
<!-- Node7&#45;&gt;Node15 -->
<g id="edge15" class="edge"><title>Node7&#45;&gt;Node15</title>
<path fill="none" stroke="midnightblue" d="M1380.18,-403.164C1402.9,-388.251 1435.88,-369.388 1468,-361 1602.15,-325.97 2004.16,-335.777 2194.26,-342.744"/>
<polygon fill="midnightblue" stroke="midnightblue" points="1378.05,-400.378 1371.7,-408.86 1381.95,-406.189 1378.05,-400.378"/>
</g>
<!-- Node16 -->
<g id="node16" class="node"><title>Node16</title>
<g id="a_node16"><a xlink:href="../../db/d19/classslogo_1_1_u_i_1_1_module_creation_helper.html#a2e841243ec3ca474e8822102343acc88" target="_top" xlink:title="slogo.UI.ModuleCreationHelper.activate\lNewTurtleButton">
<polygon fill="white" stroke="black" points="1710.5,-540 1710.5,-570 1915.5,-570 1915.5,-540 1710.5,-540"/>
<text text-anchor="start" x="1718.5" y="-558" font-family="Helvetica,sans-Serif" font-size="10.00">slogo.UI.ModuleCreationHelper.activate</text>
<text text-anchor="middle" x="1813" y="-547" font-family="Helvetica,sans-Serif" font-size="10.00">NewTurtleButton</text>
</a>
</g>
</g>
<!-- Node7&#45;&gt;Node16 -->
<g id="edge17" class="edge"><title>Node7&#45;&gt;Node16</title>
<path fill="none" stroke="midnightblue" d="M1367.02,-447.155C1387.1,-474.009 1424.24,-517.013 1468,-536 1544.41,-569.152 1639.47,-571.86 1710.29,-567.435"/>
<polygon fill="midnightblue" stroke="midnightblue" points="1369.83,-445.073 1361.11,-439.055 1364.18,-449.197 1369.83,-445.073"/>
</g>
<!-- Node18 -->
<g id="node18" class="node"><title>Node18</title>
<g id="a_node18"><a xlink:href="../../db/d19/classslogo_1_1_u_i_1_1_module_creation_helper.html#a9b1f07ab673191067907a059b1b0c524" target="_top" xlink:title="slogo.UI.ModuleCreationHelper.activate\lPlayButton">
<polygon fill="white" stroke="black" points="1468.5,-497 1468.5,-527 1673.5,-527 1673.5,-497 1468.5,-497"/>
<text text-anchor="start" x="1476.5" y="-515" font-family="Helvetica,sans-Serif" font-size="10.00">slogo.UI.ModuleCreationHelper.activate</text>
<text text-anchor="middle" x="1571" y="-504" font-family="Helvetica,sans-Serif" font-size="10.00">PlayButton</text>
</a>
</g>
</g>
<!-- Node7&#45;&gt;Node18 -->
<g id="edge20" class="edge"><title>Node7&#45;&gt;Node18</title>
<path fill="none" stroke="midnightblue" d="M1383.42,-444.354C1406.33,-458.006 1438.16,-475.522 1468,-487 1477.7,-490.73 1488.14,-494.039 1498.5,-496.929"/>
<polygon fill="midnightblue" stroke="midnightblue" points="1385.16,-441.317 1374.79,-439.145 1381.54,-447.31 1385.16,-441.317"/>
</g>
<!-- Node21 -->
<g id="node21" class="node"><title>Node21</title>
<g id="a_node21"><a xlink:href="../../db/d19/classslogo_1_1_u_i_1_1_module_creation_helper.html#a3a38d485562cb17591ec3fd07cffc18a" target="_top" xlink:title="slogo.UI.ModuleCreationHelper.activate\lTurtleCanvas">
<polygon fill="white" stroke="black" points="1952.5,-283 1952.5,-313 2157.5,-313 2157.5,-283 1952.5,-283"/>
<text text-anchor="start" x="1960.5" y="-301" font-family="Helvetica,sans-Serif" font-size="10.00">slogo.UI.ModuleCreationHelper.activate</text>
<text text-anchor="middle" x="2055" y="-290" font-family="Helvetica,sans-Serif" font-size="10.00">TurtleCanvas</text>
</a>
</g>
</g>
<!-- Node7&#45;&gt;Node21 -->
<g id="edge24" class="edge"><title>Node7&#45;&gt;Node21</title>
<path fill="none" stroke="midnightblue" d="M1370.37,-401.232C1391.63,-378.064 1428.1,-343.434 1468,-328 1553.51,-294.92 1808.48,-293.527 1952.33,-295.616"/>
<polygon fill="midnightblue" stroke="midnightblue" points="1367.56,-399.115 1363.5,-408.898 1372.78,-403.786 1367.56,-399.115"/>
</g>
<!-- Node23 -->
<g id="node23" class="node"><title>Node23</title>
<g id="a_node23"><a xlink:href="../../d1/d5f/classslogo_1_1_u_i_1_1_path_color_selector.html#ad3d9c82a0904c97edcec7cf67b85bd7b" target="_top" xlink:title="slogo.UI.PathColorSelector.create">
<polygon fill="white" stroke="black" points="1483,-458.5 1483,-477.5 1659,-477.5 1659,-458.5 1483,-458.5"/>
<text text-anchor="middle" x="1571" y="-465.5" font-family="Helvetica,sans-Serif" font-size="10.00">slogo.UI.PathColorSelector.create</text>
</a>
</g>
</g>
<!-- Node7&#45;&gt;Node23 -->
<g id="edge27" class="edge"><title>Node7&#45;&gt;Node23</title>
<path fill="none" stroke="midnightblue" d="M1433.74,-441.065C1445.24,-443.411 1456.91,-445.776 1468,-448 1485.25,-451.46 1504.16,-455.186 1520.95,-458.473"/>
<polygon fill="midnightblue" stroke="midnightblue" points="1434.19,-437.585 1423.69,-439.013 1432.79,-444.443 1434.19,-437.585"/>
</g>
<!-- Node25 -->
<g id="node25" class="node"><title>Node25</title>
<g id="a_node25"><a xlink:href="../../d4/d8d/classslogo_1_1_u_i_1_1_background_color_selector.html#ad75ba4ce104e071811d0fe039a4e839f" target="_top" xlink:title="slogo.UI.BackgroundColor\lSelector.create">
<polygon fill="white" stroke="black" points="1501,-409 1501,-439 1641,-439 1641,-409 1501,-409"/>
<text text-anchor="start" x="1509" y="-427" font-family="Helvetica,sans-Serif" font-size="10.00">slogo.UI.BackgroundColor</text>
<text text-anchor="middle" x="1571" y="-416" font-family="Helvetica,sans-Serif" font-size="10.00">Selector.create</text>
</a>
</g>
</g>
<!-- Node7&#45;&gt;Node25 -->
<g id="edge30" class="edge"><title>Node7&#45;&gt;Node25</title>
<path fill="none" stroke="midnightblue" d="M1436.14,-424C1457.6,-424 1480.37,-424 1500.93,-424"/>
<polygon fill="midnightblue" stroke="midnightblue" points="1436.06,-420.5 1426.06,-424 1436.06,-427.5 1436.06,-420.5"/>
</g>
<!-- Node26 -->
<g id="node26" class="node"><title>Node26</title>
<g id="a_node26"><a xlink:href="../../dd/da7/classslogo_1_1_u_i_1_1_turtle_image_selector.html#a3f268d9196ffebcbb5dc322d2897a9fe" target="_top" xlink:title="slogo.UI.TurtleImageSelector.create">
<polygon fill="white" stroke="black" points="1478,-370.5 1478,-389.5 1664,-389.5 1664,-370.5 1478,-370.5"/>
<text text-anchor="middle" x="1571" y="-377.5" font-family="Helvetica,sans-Serif" font-size="10.00">slogo.UI.TurtleImageSelector.create</text>
</a>
</g>
</g>
<!-- Node7&#45;&gt;Node26 -->
<g id="edge32" class="edge"><title>Node7&#45;&gt;Node26</title>
<path fill="none" stroke="midnightblue" d="M1433.74,-406.935C1445.24,-404.589 1456.91,-402.224 1468,-400 1485.25,-396.54 1504.16,-392.814 1520.95,-389.527"/>
<polygon fill="midnightblue" stroke="midnightblue" points="1432.79,-403.557 1423.69,-408.987 1434.19,-410.415 1432.79,-403.557"/>
</g>
<!-- Node9 -->
<g id="node9" class="node"><title>Node9</title>
<g id="a_node9"><a xlink:href="../../db/d19/classslogo_1_1_u_i_1_1_module_creation_helper.html#adce7362386f9a7b3006e7db08a2d578d" target="_top" xlink:title="slogo.UI.ModuleCreationHelper.create\lIncreaseDecreaseButtons">
<polygon fill="white" stroke="black" points="1956.5,-576 1956.5,-606 2153.5,-606 2153.5,-576 1956.5,-576"/>
<text text-anchor="start" x="1964.5" y="-594" font-family="Helvetica,sans-Serif" font-size="10.00">slogo.UI.ModuleCreationHelper.create</text>
<text text-anchor="middle" x="2055" y="-583" font-family="Helvetica,sans-Serif" font-size="10.00">IncreaseDecreaseButtons</text>
</a>
</g>
</g>
<!-- Node8&#45;&gt;Node9 -->
<g id="edge8" class="edge"><title>Node8&#45;&gt;Node9</title>
<path fill="none" stroke="midnightblue" d="M1683.79,-597.913C1766.23,-596.373 1877.29,-594.299 1956.21,-592.826"/>
<polygon fill="midnightblue" stroke="midnightblue" points="1683.56,-594.416 1673.63,-598.102 1683.69,-601.415 1683.56,-594.416"/>
</g>
<!-- Node10 -->
<g id="node10" class="node"><title>Node10</title>
<g id="a_node10"><a xlink:href="../../db/d19/classslogo_1_1_u_i_1_1_module_creation_helper.html#a7c650957b2389d6e6d36e8be8a33cd2b" target="_top" xlink:title="slogo.UI.ModuleCreationHelper.create\lSelectorVBoxModules">
<polygon fill="white" stroke="black" points="2198.5,-449 2198.5,-479 2395.5,-479 2395.5,-449 2198.5,-449"/>
<text text-anchor="start" x="2206.5" y="-467" font-family="Helvetica,sans-Serif" font-size="10.00">slogo.UI.ModuleCreationHelper.create</text>
<text text-anchor="middle" x="2297" y="-456" font-family="Helvetica,sans-Serif" font-size="10.00">SelectorVBoxModules</text>
</a>
</g>
</g>
<!-- Node9&#45;&gt;Node10 -->
<g id="edge9" class="edge"><title>Node9&#45;&gt;Node10</title>
<path fill="none" stroke="midnightblue" d="M2139,-572.732C2145.54,-570.424 2151.95,-567.854 2158,-565 2206.6,-542.077 2255.46,-501.079 2279.92,-479.025"/>
<polygon fill="midnightblue" stroke="midnightblue" points="2137.75,-569.461 2129.36,-575.93 2139.95,-576.105 2137.75,-569.461"/>
</g>
<!-- Node11 -->
<g id="node11" class="node"><title>Node11</title>
<g id="a_node11"><a xlink:href="../../db/d19/classslogo_1_1_u_i_1_1_module_creation_helper.html#afb9dbbbad7d872234a5b296fe129a34e" target="_top" xlink:title="slogo.UI.ModuleCreationHelper.create\lMainPageModules">
<polygon fill="white" stroke="black" points="2436.5,-332 2436.5,-362 2633.5,-362 2633.5,-332 2436.5,-332"/>
<text text-anchor="start" x="2444.5" y="-350" font-family="Helvetica,sans-Serif" font-size="10.00">slogo.UI.ModuleCreationHelper.create</text>
<text text-anchor="middle" x="2535" y="-339" font-family="Helvetica,sans-Serif" font-size="10.00">MainPageModules</text>
</a>
</g>
</g>
<!-- Node10&#45;&gt;Node11 -->
<g id="edge10" class="edge"><title>Node10&#45;&gt;Node11</title>
<path fill="none" stroke="midnightblue" d="M2337.58,-444.38C2384.29,-421.222 2460.96,-383.212 2503.37,-362.184"/>
<polygon fill="midnightblue" stroke="midnightblue" points="2335.77,-441.366 2328.37,-448.944 2338.88,-447.638 2335.77,-441.366"/>
</g>
<!-- Node12 -->
<g id="node12" class="node"><title>Node12</title>
<g id="a_node12"><a xlink:href="../../d9/d33/classslogo_1_1_u_i_1_1_main.html#a15b7f2e399ee24d160550993ab737e73" target="_top" xlink:title="slogo.UI.Main.start">
<polygon fill="white" stroke="black" points="2670,-346.5 2670,-365.5 2776,-365.5 2776,-346.5 2670,-346.5"/>
<text text-anchor="middle" x="2723" y="-353.5" font-family="Helvetica,sans-Serif" font-size="10.00">slogo.UI.Main.start</text>
</a>
</g>
</g>
<!-- Node11&#45;&gt;Node12 -->
<g id="edge11" class="edge"><title>Node11&#45;&gt;Node12</title>
<path fill="none" stroke="midnightblue" d="M2643.8,-352.216C2652.76,-352.65 2661.53,-353.074 2669.76,-353.472"/>
<polygon fill="midnightblue" stroke="midnightblue" points="2643.79,-348.712 2633.63,-351.724 2643.45,-355.703 2643.79,-348.712"/>
</g>
<!-- Node13 -->
<g id="node13" class="node"><title>Node13</title>
<g id="a_node13"><a xlink:href="../../db/d19/classslogo_1_1_u_i_1_1_module_creation_helper.html#a3be12a7cc2b8a219db1e296211a2cb88" target="_top" xlink:title="slogo.UI.ModuleCreationHelper.activate\lExtraWorkspaceButton">
<polygon fill="white" stroke="black" points="2812.5,-359 2812.5,-389 3017.5,-389 3017.5,-359 2812.5,-359"/>
<text text-anchor="start" x="2820.5" y="-377" font-family="Helvetica,sans-Serif" font-size="10.00">slogo.UI.ModuleCreationHelper.activate</text>
<text text-anchor="middle" x="2915" y="-366" font-family="Helvetica,sans-Serif" font-size="10.00">ExtraWorkspaceButton</text>
</a>
</g>
</g>
<!-- Node12&#45;&gt;Node13 -->
<g id="edge12" class="edge"><title>Node12&#45;&gt;Node13</title>
<path fill="none" stroke="midnightblue" d="M2786.22,-361.894C2794.63,-362.691 2803.44,-363.526 2812.32,-364.367"/>
<polygon fill="midnightblue" stroke="midnightblue" points="2786.46,-358.401 2776.17,-360.942 2785.79,-365.37 2786.46,-358.401"/>
</g>
<!-- Node14 -->
<g id="node14" class="node"><title>Node14</title>
<g id="a_node14"><a xlink:href="../../db/d19/classslogo_1_1_u_i_1_1_module_creation_helper.html#a702c1ebe24d2857a10c666eb1fcc315d" target="_top" xlink:title="slogo.UI.ModuleCreationHelper.create\lExtraWorkspaceButton">
<polygon fill="white" stroke="black" points="3054.5,-385 3054.5,-415 3251.5,-415 3251.5,-385 3054.5,-385"/>
<text text-anchor="start" x="3062.5" y="-403" font-family="Helvetica,sans-Serif" font-size="10.00">slogo.UI.ModuleCreationHelper.create</text>
<text text-anchor="middle" x="3153" y="-392" font-family="Helvetica,sans-Serif" font-size="10.00">ExtraWorkspaceButton</text>
</a>
</g>
</g>
<!-- Node13&#45;&gt;Node14 -->
<g id="edge13" class="edge"><title>Node13&#45;&gt;Node14</title>
<path fill="none" stroke="midnightblue" d="M3027.77,-386.313C3036.62,-387.289 3045.52,-388.27 3054.27,-389.234"/>
<polygon fill="midnightblue" stroke="midnightblue" points="3028.12,-382.831 3017.8,-385.215 3027.35,-389.789 3028.12,-382.831"/>
</g>
<!-- Node14&#45;&gt;Node10 -->
<g id="edge14" class="edge"><title>Node14&#45;&gt;Node10</title>
<path fill="none" stroke="midnightblue" d="M3044.34,-408.068C2876.9,-420.617 2556.6,-444.62 2395.55,-456.69"/>
<polygon fill="midnightblue" stroke="midnightblue" points="3044.7,-411.551 3054.41,-407.313 3044.18,-404.571 3044.7,-411.551"/>
</g>
<!-- Node15&#45;&gt;Node11 -->
<g id="edge16" class="edge"><title>Node15&#45;&gt;Node11</title>
<path fill="none" stroke="midnightblue" d="M2410.05,-347C2418.81,-347 2427.62,-347 2436.27,-347"/>
<polygon fill="midnightblue" stroke="midnightblue" points="2409.8,-343.5 2399.8,-347 2409.8,-350.5 2409.8,-343.5"/>
</g>
<!-- Node17 -->
<g id="node17" class="node"><title>Node17</title>
<g id="a_node17"><a xlink:href="../../db/d19/classslogo_1_1_u_i_1_1_module_creation_helper.html#a07f5483df317cdf80e8ea2dda5699afa" target="_top" xlink:title="slogo.UI.ModuleCreationHelper.create\lNewTurtleButton">
<polygon fill="white" stroke="black" points="1956.5,-526 1956.5,-556 2153.5,-556 2153.5,-526 1956.5,-526"/>
<text text-anchor="start" x="1964.5" y="-544" font-family="Helvetica,sans-Serif" font-size="10.00">slogo.UI.ModuleCreationHelper.create</text>
<text text-anchor="middle" x="2055" y="-533" font-family="Helvetica,sans-Serif" font-size="10.00">NewTurtleButton</text>
</a>
</g>
</g>
<!-- Node16&#45;&gt;Node17 -->
<g id="edge18" class="edge"><title>Node16&#45;&gt;Node17</title>
<path fill="none" stroke="midnightblue" d="M1925.89,-548.473C1936.04,-547.881 1946.26,-547.285 1956.27,-546.701"/>
<polygon fill="midnightblue" stroke="midnightblue" points="1925.56,-544.986 1915.78,-549.063 1925.97,-551.974 1925.56,-544.986"/>
</g>
<!-- Node17&#45;&gt;Node10 -->
<g id="edge19" class="edge"><title>Node17&#45;&gt;Node10</title>
<path fill="none" stroke="midnightblue" d="M2126.15,-523.309C2136.87,-520.354 2147.76,-517.203 2158,-514 2191.93,-503.387 2229.86,-489.493 2257.35,-479.046"/>
<polygon fill="midnightblue" stroke="midnightblue" points="2125.12,-519.962 2116.39,-525.963 2126.96,-526.717 2125.12,-519.962"/>
</g>
<!-- Node19 -->
<g id="node19" class="node"><title>Node19</title>
<g id="a_node19"><a xlink:href="../../db/d19/classslogo_1_1_u_i_1_1_module_creation_helper.html#a9b3fb38a55b3b7812b4f793afa7a974f" target="_top" xlink:title="slogo.UI.ModuleCreationHelper.create\lPlayButton">
<polygon fill="white" stroke="black" points="1714.5,-491 1714.5,-521 1911.5,-521 1911.5,-491 1714.5,-491"/>
<text text-anchor="start" x="1722.5" y="-509" font-family="Helvetica,sans-Serif" font-size="10.00">slogo.UI.ModuleCreationHelper.create</text>
<text text-anchor="middle" x="1813" y="-498" font-family="Helvetica,sans-Serif" font-size="10.00">PlayButton</text>
</a>
</g>
</g>
<!-- Node18&#45;&gt;Node19 -->
<g id="edge21" class="edge"><title>Node18&#45;&gt;Node19</title>
<path fill="none" stroke="midnightblue" d="M1683.89,-509.203C1694.04,-508.949 1704.26,-508.694 1714.27,-508.443"/>
<polygon fill="midnightblue" stroke="midnightblue" points="1683.69,-505.707 1673.78,-509.455 1683.87,-512.704 1683.69,-505.707"/>
</g>
<!-- Node20 -->
<g id="node20" class="node"><title>Node20</title>
<g id="a_node20"><a xlink:href="../../db/d19/classslogo_1_1_u_i_1_1_module_creation_helper.html#ae1e60d37509c2e5eddcb2a6e70b4f650" target="_top" xlink:title="slogo.UI.ModuleCreationHelper.create\lFirstRowButtons">
<polygon fill="white" stroke="black" points="1956.5,-475 1956.5,-505 2153.5,-505 2153.5,-475 1956.5,-475"/>
<text text-anchor="start" x="1964.5" y="-493" font-family="Helvetica,sans-Serif" font-size="10.00">slogo.UI.ModuleCreationHelper.create</text>
<text text-anchor="middle" x="2055" y="-482" font-family="Helvetica,sans-Serif" font-size="10.00">FirstRowButtons</text>
</a>
</g>
</g>
<!-- Node19&#45;&gt;Node20 -->
<g id="edge22" class="edge"><title>Node19&#45;&gt;Node20</title>
<path fill="none" stroke="midnightblue" d="M1921.73,-498.818C1933.3,-498.046 1945.03,-497.265 1956.47,-496.502"/>
<polygon fill="midnightblue" stroke="midnightblue" points="1921.36,-495.335 1911.62,-499.492 1921.83,-502.319 1921.36,-495.335"/>
</g>
<!-- Node20&#45;&gt;Node10 -->
<g id="edge23" class="edge"><title>Node20&#45;&gt;Node10</title>
<path fill="none" stroke="midnightblue" d="M2163.73,-478.329C2175.3,-477.075 2187.03,-475.805 2198.47,-474.566"/>
<polygon fill="midnightblue" stroke="midnightblue" points="2163.18,-474.868 2153.62,-479.425 2163.94,-481.827 2163.18,-474.868"/>
</g>
<!-- Node22 -->
<g id="node22" class="node"><title>Node22</title>
<g id="a_node22"><a xlink:href="../../db/d19/classslogo_1_1_u_i_1_1_module_creation_helper.html#a803bac6b55bde712b21f2face1eeef81" target="_top" xlink:title="slogo.UI.ModuleCreationHelper.create\lTurtleCanvas">
<polygon fill="white" stroke="black" points="2198.5,-283 2198.5,-313 2395.5,-313 2395.5,-283 2198.5,-283"/>
<text text-anchor="start" x="2206.5" y="-301" font-family="Helvetica,sans-Serif" font-size="10.00">slogo.UI.ModuleCreationHelper.create</text>
<text text-anchor="middle" x="2297" y="-290" font-family="Helvetica,sans-Serif" font-size="10.00">TurtleCanvas</text>
</a>
</g>
</g>
<!-- Node21&#45;&gt;Node22 -->
<g id="edge25" class="edge"><title>Node21&#45;&gt;Node22</title>
<path fill="none" stroke="midnightblue" d="M2167.89,-298C2178.04,-298 2188.26,-298 2198.27,-298"/>
<polygon fill="midnightblue" stroke="midnightblue" points="2167.78,-294.5 2157.78,-298 2167.78,-301.5 2167.78,-294.5"/>
</g>
<!-- Node22&#45;&gt;Node11 -->
<g id="edge26" class="edge"><title>Node22&#45;&gt;Node11</title>
<path fill="none" stroke="midnightblue" d="M2380.42,-315.113C2406.9,-320.611 2436.03,-326.658 2461.73,-331.994"/>
<polygon fill="midnightblue" stroke="midnightblue" points="2380.91,-311.641 2370.41,-313.035 2379.49,-318.495 2380.91,-311.641"/>
</g>
<!-- Node24 -->
<g id="node24" class="node"><title>Node24</title>
<g id="a_node24"><a xlink:href="../../db/d19/classslogo_1_1_u_i_1_1_module_creation_helper.html#af7f2919454fdbf6e9d7d912e99634857" target="_top" xlink:title="slogo.UI.ModuleCreationHelper.create\lSelectors">
<polygon fill="white" stroke="black" points="1714.5,-426 1714.5,-456 1911.5,-456 1911.5,-426 1714.5,-426"/>
<text text-anchor="start" x="1722.5" y="-444" font-family="Helvetica,sans-Serif" font-size="10.00">slogo.UI.ModuleCreationHelper.create</text>
<text text-anchor="middle" x="1813" y="-433" font-family="Helvetica,sans-Serif" font-size="10.00">Selectors</text>
</a>
</g>
</g>
<!-- Node23&#45;&gt;Node24 -->
<g id="edge28" class="edge"><title>Node23&#45;&gt;Node24</title>
<path fill="none" stroke="midnightblue" d="M1666.76,-457.339C1682.36,-455.585 1698.54,-453.764 1714.21,-452.002"/>
<polygon fill="midnightblue" stroke="midnightblue" points="1666.16,-453.885 1656.62,-458.481 1666.94,-460.841 1666.16,-453.885"/>
</g>
<!-- Node24&#45;&gt;Node10 -->
<g id="edge29" class="edge"><title>Node24&#45;&gt;Node10</title>
<path fill="none" stroke="midnightblue" d="M1921.74,-446.141C2004.55,-450.092 2117.97,-455.505 2198.19,-459.333"/>
<polygon fill="midnightblue" stroke="midnightblue" points="1921.7,-442.635 1911.54,-445.654 1921.36,-449.627 1921.7,-442.635"/>
</g>
<!-- Node25&#45;&gt;Node24 -->
<g id="edge31" class="edge"><title>Node25&#45;&gt;Node24</title>
<path fill="none" stroke="midnightblue" d="M1651.18,-429.609C1671.4,-431.041 1693.37,-432.597 1714.39,-434.086"/>
<polygon fill="midnightblue" stroke="midnightblue" points="1651.32,-426.11 1641.1,-428.894 1650.82,-433.092 1651.32,-426.11"/>
</g>
<!-- Node26&#45;&gt;Node24 -->
<g id="edge33" class="edge"><title>Node26&#45;&gt;Node24</title>
<path fill="none" stroke="midnightblue" d="M1635.74,-391.528C1648.46,-394.101 1661.69,-396.973 1674,-400 1704.7,-407.552 1738.76,-417.652 1765.36,-425.938"/>
<polygon fill="midnightblue" stroke="midnightblue" points="1636.17,-388.044 1625.68,-389.531 1634.8,-394.91 1636.17,-388.044"/>
</g>
<!-- Node28 -->
<g id="node28" class="node"><title>Node28</title>
<g id="a_node28"><a xlink:href="../../db/d19/classslogo_1_1_u_i_1_1_module_creation_helper.html#a9fd730f7c1860d34bf4ac46c3828bd59" target="_top" xlink:title="slogo.UI.ModuleCreationHelper.activate\lStepIntoButton">
<polygon fill="white" stroke="black" points="1468.5,-245 1468.5,-275 1673.5,-275 1673.5,-245 1468.5,-245"/>
<text text-anchor="start" x="1476.5" y="-263" font-family="Helvetica,sans-Serif" font-size="10.00">slogo.UI.ModuleCreationHelper.activate</text>
<text text-anchor="middle" x="1571" y="-252" font-family="Helvetica,sans-Serif" font-size="10.00">StepIntoButton</text>
</a>
</g>
</g>
<!-- Node27&#45;&gt;Node28 -->
<g id="edge35" class="edge"><title>Node27&#45;&gt;Node28</title>
<path fill="none" stroke="midnightblue" d="M1439.33,-260C1448.82,-260 1458.54,-260 1468.17,-260"/>
<polygon fill="midnightblue" stroke="midnightblue" points="1439.14,-256.5 1429.14,-260 1439.14,-263.5 1439.14,-256.5"/>
</g>
<!-- Node29 -->
<g id="node29" class="node"><title>Node29</title>
<g id="a_node29"><a xlink:href="../../db/d19/classslogo_1_1_u_i_1_1_module_creation_helper.html#a4a6f1f009507c25be8c7c28cbba35f3b" target="_top" xlink:title="slogo.UI.ModuleCreationHelper.create\lDebugStepIntoButton">
<polygon fill="white" stroke="black" points="1714.5,-245 1714.5,-275 1911.5,-275 1911.5,-245 1714.5,-245"/>
<text text-anchor="start" x="1722.5" y="-263" font-family="Helvetica,sans-Serif" font-size="10.00">slogo.UI.ModuleCreationHelper.create</text>
<text text-anchor="middle" x="1813" y="-252" font-family="Helvetica,sans-Serif" font-size="10.00">DebugStepIntoButton</text>
</a>
</g>
</g>
<!-- Node28&#45;&gt;Node29 -->
<g id="edge36" class="edge"><title>Node28&#45;&gt;Node29</title>
<path fill="none" stroke="midnightblue" d="M1683.89,-260C1694.04,-260 1704.26,-260 1714.27,-260"/>
<polygon fill="midnightblue" stroke="midnightblue" points="1683.78,-256.5 1673.78,-260 1683.78,-263.5 1683.78,-256.5"/>
</g>
<!-- Node30 -->
<g id="node30" class="node"><title>Node30</title>
<g id="a_node30"><a xlink:href="../../db/d19/classslogo_1_1_u_i_1_1_module_creation_helper.html#a975af4ea47dc85df72215bdf1a0d20ce" target="_top" xlink:title="slogo.UI.ModuleCreationHelper.create\lDebugModules">
<polygon fill="white" stroke="black" points="1956.5,-234 1956.5,-264 2153.5,-264 2153.5,-234 1956.5,-234"/>
<text text-anchor="start" x="1964.5" y="-252" font-family="Helvetica,sans-Serif" font-size="10.00">slogo.UI.ModuleCreationHelper.create</text>
<text text-anchor="middle" x="2055" y="-241" font-family="Helvetica,sans-Serif" font-size="10.00">DebugModules</text>
</a>
</g>
</g>
<!-- Node29&#45;&gt;Node30 -->
<g id="edge37" class="edge"><title>Node29&#45;&gt;Node30</title>
<path fill="none" stroke="midnightblue" d="M1921.73,-255.062C1933.3,-254.532 1945.03,-253.995 1956.47,-253.47"/>
<polygon fill="midnightblue" stroke="midnightblue" points="1921.45,-251.572 1911.62,-255.526 1921.77,-258.564 1921.45,-251.572"/>
</g>
<!-- Node30&#45;&gt;Node11 -->
<g id="edge38" class="edge"><title>Node30&#45;&gt;Node11</title>
<path fill="none" stroke="midnightblue" d="M2163.59,-245.216C2232.49,-245.605 2323.06,-251.402 2400,-274 2442.96,-286.617 2487.6,-314.39 2512.97,-331.809"/>
<polygon fill="midnightblue" stroke="midnightblue" points="2163.6,-241.716 2153.59,-245.196 2163.58,-248.716 2163.6,-241.716"/>
</g>
<!-- Node32 -->
<g id="node32" class="node"><title>Node32</title>
<g id="a_node32"><a xlink:href="../../db/d19/classslogo_1_1_u_i_1_1_module_creation_helper.html#a0fed0bb32bf2643d6fd5c24d82e8e18e" target="_top" xlink:title="slogo.UI.ModuleCreationHelper.activate\lStepOverButton">
<polygon fill="white" stroke="black" points="1468.5,-196 1468.5,-226 1673.5,-226 1673.5,-196 1468.5,-196"/>
<text text-anchor="start" x="1476.5" y="-214" font-family="Helvetica,sans-Serif" font-size="10.00">slogo.UI.ModuleCreationHelper.activate</text>
<text text-anchor="middle" x="1571" y="-203" font-family="Helvetica,sans-Serif" font-size="10.00">StepOverButton</text>
</a>
</g>
</g>
<!-- Node31&#45;&gt;Node32 -->
<g id="edge40" class="edge"><title>Node31&#45;&gt;Node32</title>
<path fill="none" stroke="midnightblue" d="M1441.8,-214.512C1450.56,-214.272 1459.48,-214.028 1468.33,-213.786"/>
<polygon fill="midnightblue" stroke="midnightblue" points="1441.51,-211.019 1431.61,-214.791 1441.71,-218.016 1441.51,-211.019"/>
</g>
<!-- Node33 -->
<g id="node33" class="node"><title>Node33</title>
<g id="a_node33"><a xlink:href="../../db/d19/classslogo_1_1_u_i_1_1_module_creation_helper.html#aa1e7dc2b509360583790fba0d3819c8d" target="_top" xlink:title="slogo.UI.ModuleCreationHelper.create\lDebugStepOverButton">
<polygon fill="white" stroke="black" points="1714.5,-196 1714.5,-226 1911.5,-226 1911.5,-196 1714.5,-196"/>
<text text-anchor="start" x="1722.5" y="-214" font-family="Helvetica,sans-Serif" font-size="10.00">slogo.UI.ModuleCreationHelper.create</text>
<text text-anchor="middle" x="1813" y="-203" font-family="Helvetica,sans-Serif" font-size="10.00">DebugStepOverButton</text>
</a>
</g>
</g>
<!-- Node32&#45;&gt;Node33 -->
<g id="edge41" class="edge"><title>Node32&#45;&gt;Node33</title>
<path fill="none" stroke="midnightblue" d="M1683.89,-211C1694.04,-211 1704.26,-211 1714.27,-211"/>
<polygon fill="midnightblue" stroke="midnightblue" points="1683.78,-207.5 1673.78,-211 1683.78,-214.5 1683.78,-207.5"/>
</g>
<!-- Node33&#45;&gt;Node30 -->
<g id="edge42" class="edge"><title>Node33&#45;&gt;Node30</title>
<path fill="none" stroke="midnightblue" d="M1918.99,-227.623C1932.31,-229.733 1945.89,-231.883 1959.05,-233.966"/>
<polygon fill="midnightblue" stroke="midnightblue" points="1919.28,-224.126 1908.85,-226.019 1918.18,-231.039 1919.28,-224.126"/>
</g>
<!-- Node39&#45;&gt;Node3 -->
<g id="edge49" class="edge"><title>Node39&#45;&gt;Node3</title>
<path fill="none" stroke="midnightblue" d="M441.398,-396.015C453.467,-392.538 465.346,-387.978 476,-382 523.586,-355.3 562.5,-301.527 579.61,-275.209"/>
<polygon fill="midnightblue" stroke="midnightblue" points="440.473,-392.639 431.699,-398.577 442.261,-399.407 440.473,-392.639"/>
</g>
</g>
</svg>
        <g id="navigator" transform="translate(0 0)" fill="#404254">
                <rect fill="#f2f5e9" fill-opacity="0.5" stroke="#606060" stroke-width=".5" x="0" y="0" width="60" height="60"/>
                <use id="zoomplus" xlink:href="#zoomPlus" x="17" y="9" onmousedown="handleZoom(evt,'in')"/>
                <use id="zoomminus" xlink:href="#zoomMin" x="42" y="9" onmousedown="handleZoom(evt,'out')"/>
                <use id="reset" xlink:href="#resetDef" x="30" y="36" onmousedown="handleReset()"/>
                <g id="arrowUp" xlink:href="#dirArrow" transform="translate(30 24)" onmousedown="handlePan(0,-1)">
                  <use xlink:href="#rim" fill="#404040">
                        <set attributeName="fill" to="#808080" begin="arrowUp.mouseover" end="arrowUp.mouseout"/>
                  </use>
                  <path fill="none" stroke="white" stroke-width="1.5" d="M0,-3.0v7 M-2.5,-0.5L0,-3.0L2.5,-0.5"/>
                </g>
                <g id="arrowRight" xlink:href="#dirArrow" transform="rotate(90) translate(36 -43)" onmousedown="handlePan(1,0)">
                  <use xlink:href="#rim" fill="#404040">
                        <set attributeName="fill" to="#808080" begin="arrowRight.mouseover" end="arrowRight.mouseout"/>
                  </use>
                  <path fill="none" stroke="white" stroke-width="1.5" d="M0,-3.0v7 M-2.5,-0.5L0,-3.0L2.5,-0.5"/>
                </g>
                <g id="arrowDown" xlink:href="#dirArrow" transform="rotate(180) translate(-30 -48)" onmousedown="handlePan(0,1)">
                  <use xlink:href="#rim" fill="#404040">
                        <set attributeName="fill" to="#808080" begin="arrowDown.mouseover" end="arrowDown.mouseout"/>
                  </use>
                  <path fill="none" stroke="white" stroke-width="1.5" d="M0,-3.0v7 M-2.5,-0.5L0,-3.0L2.5,-0.5"/>
                </g>
                <g id="arrowLeft" xlink:href="#dirArrow" transform="rotate(270) translate(-36 17)" onmousedown="handlePan(-1,0)">
                  <use xlink:href="#rim" fill="#404040">
                        <set attributeName="fill" to="#808080" begin="arrowLeft.mouseover" end="arrowLeft.mouseout"/>
                  </use>
                  <path fill="none" stroke="white" stroke-width="1.5" d="M0,-3.0v7 M-2.5,-0.5L0,-3.0L2.5,-0.5"/>
                </g>
        </g>
        <svg viewBox="0 0 15 15" width="100%" height="30px" preserveAspectRatio="xMaxYMin meet">
         <g id="arrow_out" transform="scale(0.3 0.3)">
          <a xlink:href="interfaceslogo_1_1backend_1_1util_1_1_i_coordinates_a79bf643857961ce08b426cd660121b91_icgraph_org.svg" target="_base">
           <rect id="button" ry="5" rx="5" y="6" x="6" height="38" width="38"
                fill="#f2f5e9" fill-opacity="0.5" stroke="#606060" stroke-width="1.0"/>
           <path id="arrow"
             d="M 11.500037,31.436501 C 11.940474,20.09759 22.043105,11.32322 32.158766,21.979434 L 37.068811,17.246167 C 37.068811,17.246167 37.088388,32 37.088388,32 L 22.160133,31.978069 C 22.160133,31.978069 26.997745,27.140456 26.997745,27.140456 C 18.528582,18.264221 13.291696,25.230495 11.500037,31.436501 z"
             style="fill:#404040;"/>
          </a>
         </g>
        </svg>
</svg>
