<?xml version="1.0" encoding="UTF-8" standalone="no"?>
<!DOCTYPE svg PUBLIC "-//W3C//DTD SVG 1.1//EN"
 "http://www.w3.org/Graphics/SVG/1.1/DTD/svg11.dtd">
<!-- Generated by graphviz version 2.36.0 (20140111.2315)
 -->
<!-- Title: slogo.backend.util.ICoordinates.getDistance Pages: 1 -->
<svg width="480pt" height="136pt"
 viewBox="0.00 0.00 480.00 136.00" xmlns="http://www.w3.org/2000/svg" xmlns:xlink="http://www.w3.org/1999/xlink">
<g id="graph0" class="graph" transform="scale(1 1) rotate(0) translate(4 132)">
<title>slogo.backend.util.ICoordinates.getDistance</title>
<polygon fill="white" stroke="none" points="-4,4 -4,-132 476,-132 476,4 -4,4"/>
<!-- Node1 -->
<g id="node1" class="node"><title>Node1</title>
<polygon fill="#bfbfbf" stroke="black" points="0.5,-49 0.5,-79 185.5,-79 185.5,-49 0.5,-49"/>
<text text-anchor="start" x="8.5" y="-67" font-family="Helvetica,sans-Serif" font-size="10.00">slogo.backend.util.ICoordinates.get</text>
<text text-anchor="middle" x="93" y="-56" font-family="Helvetica,sans-Serif" font-size="10.00">Distance</text>
</g>
<!-- Node2 -->
<g id="node2" class="node"><title>Node2</title>
<g id="a_node2"><a xlink:href="../../d8/d8a/classslogo_1_1backend_1_1impl_1_1evaluation_1_1commands_1_1turtle_1_1_home.html#a61b79c73e2a4a1a7e81d9df6e8dd24ce" target="_top" xlink:title="slogo.backend.impl.evaluation.commands.turtle.\lHome.executeRaw">
<polygon fill="white" stroke="black" points="222,-98 222,-128 472,-128 472,-98 222,-98"/>
<text text-anchor="start" x="230" y="-116" font-family="Helvetica,sans-Serif" font-size="10.00">slogo.backend.impl.evaluation.commands.turtle.</text>
<text text-anchor="middle" x="347" y="-105" font-family="Helvetica,sans-Serif" font-size="10.00">Home.executeRaw</text>
</a>
</g>
</g>
<!-- Node1&#45;&gt;Node2 -->
<g id="edge1" class="edge"><title>Node1&#45;&gt;Node2</title>
<path fill="none" stroke="midnightblue" d="M181.261,-80.9674C209.739,-86.5049 241.142,-92.611 268.825,-97.9938"/>
<polygon fill="midnightblue" stroke="midnightblue" points="181.805,-77.5077 171.321,-79.0346 180.469,-84.379 181.805,-77.5077"/>
</g>
<!-- Node3 -->
<g id="node3" class="node"><title>Node3</title>
<g id="a_node3"><a xlink:href="../../d0/dbc/classslogo_1_1backend_1_1impl_1_1evaluation_1_1commands_1_1turtle_1_1_clear_screen.html#a1d80bef2e2dbeb80ec4312afbf2edcb3" target="_top" xlink:title="slogo.backend.impl.evaluation.commands.turtle.\lClearScreen.executeRaw">
<polygon fill="white" stroke="black" points="222,-49 222,-79 472,-79 472,-49 222,-49"/>
<text text-anchor="start" x="230" y="-67" font-family="Helvetica,sans-Serif" font-size="10.00">slogo.backend.impl.evaluation.commands.turtle.</text>
<text text-anchor="middle" x="347" y="-56" font-family="Helvetica,sans-Serif" font-size="10.00">ClearScreen.executeRaw</text>
</a>
</g>
</g>
<!-- Node1&#45;&gt;Node3 -->
<g id="edge2" class="edge"><title>Node1&#45;&gt;Node3</title>
<path fill="none" stroke="midnightblue" d="M195.916,-64C204.368,-64 212.971,-64 221.564,-64"/>
<polygon fill="midnightblue" stroke="midnightblue" points="195.691,-60.5001 185.691,-64 195.691,-67.5001 195.691,-60.5001"/>
</g>
<!-- Node4 -->
<g id="node4" class="node"><title>Node4</title>
<g id="a_node4"><a xlink:href="../../db/d1a/classslogo_1_1backend_1_1impl_1_1evaluation_1_1commands_1_1turtle_1_1_set_position.html#a11eacc22ed0870148d7d43799dfda826" target="_top" xlink:title="slogo.backend.impl.evaluation.commands.turtle.\lSetPosition.executeRaw">
<polygon fill="white" stroke="black" points="222,-0 222,-30 472,-30 472,-0 222,-0"/>
<text text-anchor="start" x="230" y="-18" font-family="Helvetica,sans-Serif" font-size="10.00">slogo.backend.impl.evaluation.commands.turtle.</text>
<text text-anchor="middle" x="347" y="-7" font-family="Helvetica,sans-Serif" font-size="10.00">SetPosition.executeRaw</text>
</a>
</g>
</g>
<!-- Node1&#45;&gt;Node4 -->
<g id="edge3" class="edge"><title>Node1&#45;&gt;Node4</title>
<path fill="none" stroke="midnightblue" d="M181.261,-47.0326C209.739,-41.4951 241.142,-35.389 268.825,-30.0062"/>
<polygon fill="midnightblue" stroke="midnightblue" points="180.469,-43.621 171.321,-48.9654 181.805,-50.4923 180.469,-43.621"/>
</g>
</g>
</svg>
