<?xml version="1.0" encoding="UTF-8" standalone="no"?>
<!DOCTYPE svg PUBLIC "-//W3C//DTD SVG 1.1//EN"
 "http://www.w3.org/Graphics/SVG/1.1/DTD/svg11.dtd">
<!-- Generated by graphviz version 2.36.0 (20140111.2315)
 -->
<!-- Title: slogo.UI.PathTextureSelector.create Pages: 1 -->
<svg width="616pt" height="224pt"
 viewBox="0.00 0.00 616.00 224.00" xmlns="http://www.w3.org/2000/svg" xmlns:xlink="http://www.w3.org/1999/xlink">
<g id="graph0" class="graph" transform="scale(1 1) rotate(0) translate(4 220)">
<title>slogo.UI.PathTextureSelector.create</title>
<polygon fill="white" stroke="none" points="-4,4 -4,-220 612,-220 612,4 -4,4"/>
<!-- Node1 -->
<g id="node1" class="node"><title>Node1</title>
<polygon fill="#bfbfbf" stroke="black" points="0,-93.5 0,-112.5 186,-112.5 186,-93.5 0,-93.5"/>
<text text-anchor="middle" x="93" y="-100.5" font-family="Helvetica,sans-Serif" font-size="10.00">slogo.UI.PathTextureSelector.create</text>
</g>
<!-- Node2 -->
<g id="node2" class="node"><title>Node2</title>
<g id="a_node2"><a xlink:href="../../d1/dc0/classslogo_1_1_u_i_1_1_selector_creator.html#a0c44ecd788599c95911e8cb47f8920d4" target="_top" xlink:title="slogo.UI.SelectorCreator.create\lSelectorWithLabel">
<polygon fill="white" stroke="black" points="237.5,-186 237.5,-216 404.5,-216 404.5,-186 237.5,-186"/>
<text text-anchor="start" x="245.5" y="-204" font-family="Helvetica,sans-Serif" font-size="10.00">slogo.UI.SelectorCreator.create</text>
<text text-anchor="middle" x="321" y="-193" font-family="Helvetica,sans-Serif" font-size="10.00">SelectorWithLabel</text>
</a>
</g>
</g>
<!-- Node1&#45;&gt;Node2 -->
<g id="edge1" class="edge"><title>Node1&#45;&gt;Node2</title>
<path fill="none" stroke="midnightblue" d="M107.95,-112.639C130.815,-128.041 178.12,-158.268 222,-176 228.235,-178.519 234.797,-180.845 241.45,-182.977"/>
<polygon fill="midnightblue" stroke="midnightblue" points="240.647,-186.392 251.233,-185.964 242.691,-179.697 240.647,-186.392"/>
</g>
<!-- Node4 -->
<g id="node4" class="node"><title>Node4</title>
<g id="a_node4"><a xlink:href="../../d1/dc0/classslogo_1_1_u_i_1_1_selector_creator.html#a432e9e1c42fdb5d40df67218ce891392" target="_top" xlink:title="slogo.UI.SelectorCreator.get\lSelector">
<polygon fill="white" stroke="black" points="245,-137 245,-167 397,-167 397,-137 245,-137"/>
<text text-anchor="start" x="253" y="-155" font-family="Helvetica,sans-Serif" font-size="10.00">slogo.UI.SelectorCreator.get</text>
<text text-anchor="middle" x="321" y="-144" font-family="Helvetica,sans-Serif" font-size="10.00">Selector</text>
</a>
</g>
</g>
<!-- Node1&#45;&gt;Node4 -->
<g id="edge3" class="edge"><title>Node1&#45;&gt;Node4</title>
<path fill="none" stroke="midnightblue" d="M137.843,-112.506C166.934,-118.813 205.961,-127.275 240.428,-134.748"/>
<polygon fill="midnightblue" stroke="midnightblue" points="239.973,-138.23 250.488,-136.929 241.456,-131.389 239.973,-138.23"/>
</g>
<!-- Node5 -->
<g id="node5" class="node"><title>Node5</title>
<g id="a_node5"><a xlink:href="../../d4/dbd/classslogo_1_1_u_i_1_1_path_texture_selector.html#aaa0c93c704ef7bef98c4d32d8d9b2000" target="_top" xlink:title="slogo.UI.PathTextureSelector.populate\lLineTextureList">
<polygon fill="white" stroke="black" points="222.5,-88 222.5,-118 419.5,-118 419.5,-88 222.5,-88"/>
<text text-anchor="start" x="230.5" y="-106" font-family="Helvetica,sans-Serif" font-size="10.00">slogo.UI.PathTextureSelector.populate</text>
<text text-anchor="middle" x="321" y="-95" font-family="Helvetica,sans-Serif" font-size="10.00">LineTextureList</text>
</a>
</g>
</g>
<!-- Node1&#45;&gt;Node5 -->
<g id="edge4" class="edge"><title>Node1&#45;&gt;Node5</title>
<path fill="none" stroke="midnightblue" d="M186.249,-103C194.758,-103 203.43,-103 212.063,-103"/>
<polygon fill="midnightblue" stroke="midnightblue" points="212.166,-106.5 222.166,-103 212.166,-99.5001 212.166,-106.5"/>
</g>
<!-- Node6 -->
<g id="node6" class="node"><title>Node6</title>
<g id="a_node6"><a xlink:href="../../d5/deb/classslogo_1_1_u_i_1_1_turtle.html#ae8f557ed173844e4459ac2184de3a71f" target="_top" xlink:title="slogo.UI.Turtle.setLineProperty">
<polygon fill="white" stroke="black" points="240.5,-49.5 240.5,-68.5 401.5,-68.5 401.5,-49.5 240.5,-49.5"/>
<text text-anchor="middle" x="321" y="-56.5" font-family="Helvetica,sans-Serif" font-size="10.00">slogo.UI.Turtle.setLineProperty</text>
</a>
</g>
</g>
<!-- Node1&#45;&gt;Node6 -->
<g id="edge5" class="edge"><title>Node1&#45;&gt;Node6</title>
<path fill="none" stroke="midnightblue" d="M143.039,-93.4527C177.689,-86.7066 224.303,-77.6313 260.991,-70.4886"/>
<polygon fill="midnightblue" stroke="midnightblue" points="261.91,-73.8753 271.057,-68.5287 260.572,-67.0043 261.91,-73.8753"/>
</g>
<!-- Node7 -->
<g id="node7" class="node"><title>Node7</title>
<g id="a_node7"><a xlink:href="../../d1/dc0/classslogo_1_1_u_i_1_1_selector_creator.html#acb6b75b02738ad9dca6a199d406a6aba" target="_top" xlink:title="slogo.UI.SelectorCreator.set\lUpSelector">
<polygon fill="white" stroke="black" points="245.5,-0 245.5,-30 396.5,-30 396.5,-0 245.5,-0"/>
<text text-anchor="start" x="253.5" y="-18" font-family="Helvetica,sans-Serif" font-size="10.00">slogo.UI.SelectorCreator.set</text>
<text text-anchor="middle" x="321" y="-7" font-family="Helvetica,sans-Serif" font-size="10.00">UpSelector</text>
</a>
</g>
</g>
<!-- Node1&#45;&gt;Node7 -->
<g id="edge6" class="edge"><title>Node1&#45;&gt;Node7</title>
<path fill="none" stroke="midnightblue" d="M110.486,-93.4964C134.4,-80.0358 180.408,-55.3512 222,-40 228.852,-37.4712 236.064,-35.1041 243.338,-32.9131"/>
<polygon fill="midnightblue" stroke="midnightblue" points="244.638,-36.1804 253.269,-30.0357 242.69,-29.457 244.638,-36.1804"/>
</g>
<!-- Node3 -->
<g id="node3" class="node"><title>Node3</title>
<g id="a_node3"><a xlink:href="../../d7/d0e/classslogo_1_1_u_i_1_1_label_creator.html#a9ca0989ecfc0037d473dd3d2e8ead74f" target="_top" xlink:title="slogo.UI.LabelCreator.create\lLabel">
<polygon fill="white" stroke="black" points="456,-186 456,-216 608,-216 608,-186 456,-186"/>
<text text-anchor="start" x="464" y="-204" font-family="Helvetica,sans-Serif" font-size="10.00">slogo.UI.LabelCreator.create</text>
<text text-anchor="middle" x="532" y="-193" font-family="Helvetica,sans-Serif" font-size="10.00">Label</text>
</a>
</g>
</g>
<!-- Node2&#45;&gt;Node3 -->
<g id="edge2" class="edge"><title>Node2&#45;&gt;Node3</title>
<path fill="none" stroke="midnightblue" d="M404.602,-201C418.059,-201 432.023,-201 445.546,-201"/>
<polygon fill="midnightblue" stroke="midnightblue" points="445.786,-204.5 455.786,-201 445.786,-197.5 445.786,-204.5"/>
</g>
</g>
</svg>
