<?xml version="1.0" encoding="UTF-8" standalone="no"?>
<!DOCTYPE svg PUBLIC "-//W3C//DTD SVG 1.1//EN"
 "http://www.w3.org/Graphics/SVG/1.1/DTD/svg11.dtd">
<!-- Generated by graphviz version 2.36.0 (20140111.2315)
 -->
<!-- Title: slogo.frontend.Config.ConfigReader.readFile Pages: 1 -->
<svg width="1722pt" height="60pt"
 viewBox="0.00 0.00 1722.00 60.00" xmlns="http://www.w3.org/2000/svg" xmlns:xlink="http://www.w3.org/1999/xlink">
<g id="graph0" class="graph" transform="scale(1 1) rotate(0) translate(4 56)">
<title>slogo.frontend.Config.ConfigReader.readFile</title>
<polygon fill="white" stroke="none" points="-4,4 -4,-56 1718,-56 1718,4 -4,4"/>
<!-- Node1 -->
<g id="node1" class="node"><title>Node1</title>
<polygon fill="#bfbfbf" stroke="black" points="0,-0 0,-30 152,-30 152,-0 0,-0"/>
<text text-anchor="start" x="8" y="-18" font-family="Helvetica,sans-Serif" font-size="10.00">slogo.frontend.Config.Config</text>
<text text-anchor="middle" x="76" y="-7" font-family="Helvetica,sans-Serif" font-size="10.00">Reader.readFile</text>
</g>
<!-- Node2 -->
<g id="node2" class="node"><title>Node2</title>
<g id="a_node2"><a xlink:href="../../db/d19/classslogo_1_1_u_i_1_1_module_creation_helper.html#aa6a7c88b3112494b64bba3cfc608e2be" target="_top" xlink:title="slogo.UI.ModuleCreationHelper.activate\lLoadButton">
<polygon fill="white" stroke="black" points="188.5,-0 188.5,-30 393.5,-30 393.5,-0 188.5,-0"/>
<text text-anchor="start" x="196.5" y="-18" font-family="Helvetica,sans-Serif" font-size="10.00">slogo.UI.ModuleCreationHelper.activate</text>
<text text-anchor="middle" x="291" y="-7" font-family="Helvetica,sans-Serif" font-size="10.00">LoadButton</text>
</a>
</g>
</g>
<!-- Node1&#45;&gt;Node2 -->
<g id="edge1" class="edge"><title>Node1&#45;&gt;Node2</title>
<path fill="none" stroke="midnightblue" d="M162.118,-15C170.744,-15 179.565,-15 188.342,-15"/>
<polygon fill="midnightblue" stroke="midnightblue" points="162.096,-11.5001 152.096,-15 162.096,-18.5001 162.096,-11.5001"/>
</g>
<!-- Node3 -->
<g id="node3" class="node"><title>Node3</title>
<g id="a_node3"><a xlink:href="../../db/d19/classslogo_1_1_u_i_1_1_module_creation_helper.html#ae9c212513214962b5692051497567f68" target="_top" xlink:title="slogo.UI.ModuleCreationHelper.create\lLoadButton">
<polygon fill="white" stroke="black" points="430.5,-0 430.5,-30 627.5,-30 627.5,-0 430.5,-0"/>
<text text-anchor="start" x="438.5" y="-18" font-family="Helvetica,sans-Serif" font-size="10.00">slogo.UI.ModuleCreationHelper.create</text>
<text text-anchor="middle" x="529" y="-7" font-family="Helvetica,sans-Serif" font-size="10.00">LoadButton</text>
</a>
</g>
</g>
<!-- Node2&#45;&gt;Node3 -->
<g id="edge2" class="edge"><title>Node2&#45;&gt;Node3</title>
<path fill="none" stroke="midnightblue" d="M404.051,-15C412.813,-15 421.618,-15 430.274,-15"/>
<polygon fill="midnightblue" stroke="midnightblue" points="403.798,-11.5001 393.798,-15 403.798,-18.5001 403.798,-11.5001"/>
</g>
<!-- Node4 -->
<g id="node4" class="node"><title>Node4</title>
<g id="a_node4"><a xlink:href="../../db/d19/classslogo_1_1_u_i_1_1_module_creation_helper.html#a7c650957b2389d6e6d36e8be8a33cd2b" target="_top" xlink:title="slogo.UI.ModuleCreationHelper.create\lSelectorVBoxModules">
<polygon fill="white" stroke="black" points="664.5,-0 664.5,-30 861.5,-30 861.5,-0 664.5,-0"/>
<text text-anchor="start" x="672.5" y="-18" font-family="Helvetica,sans-Serif" font-size="10.00">slogo.UI.ModuleCreationHelper.create</text>
<text text-anchor="middle" x="763" y="-7" font-family="Helvetica,sans-Serif" font-size="10.00">SelectorVBoxModules</text>
</a>
</g>
</g>
<!-- Node3&#45;&gt;Node4 -->
<g id="edge3" class="edge"><title>Node3&#45;&gt;Node4</title>
<path fill="none" stroke="midnightblue" d="M637.722,-15C646.618,-15 655.58,-15 664.396,-15"/>
<polygon fill="midnightblue" stroke="midnightblue" points="637.717,-11.5001 627.716,-15 637.716,-18.5001 637.717,-11.5001"/>
</g>
<!-- Node5 -->
<g id="node5" class="node"><title>Node5</title>
<g id="a_node5"><a xlink:href="../../db/d19/classslogo_1_1_u_i_1_1_module_creation_helper.html#afb9dbbbad7d872234a5b296fe129a34e" target="_top" xlink:title="slogo.UI.ModuleCreationHelper.create\lMainPageModules">
<polygon fill="white" stroke="black" points="898.5,-22 898.5,-52 1095.5,-52 1095.5,-22 898.5,-22"/>
<text text-anchor="start" x="906.5" y="-40" font-family="Helvetica,sans-Serif" font-size="10.00">slogo.UI.ModuleCreationHelper.create</text>
<text text-anchor="middle" x="997" y="-29" font-family="Helvetica,sans-Serif" font-size="10.00">MainPageModules</text>
</a>
</g>
</g>
<!-- Node4&#45;&gt;Node5 -->
<g id="edge4" class="edge"><title>Node4&#45;&gt;Node5</title>
<path fill="none" stroke="midnightblue" d="M871.722,-25.215C880.618,-26.0586 889.58,-26.9085 898.396,-27.7445"/>
<polygon fill="midnightblue" stroke="midnightblue" points="872.002,-21.726 861.716,-24.2662 871.341,-28.6947 872.002,-21.726"/>
</g>
<!-- Node6 -->
<g id="node6" class="node"><title>Node6</title>
<g id="a_node6"><a xlink:href="../../d9/d33/classslogo_1_1_u_i_1_1_main.html#a15b7f2e399ee24d160550993ab737e73" target="_top" xlink:title="slogo.UI.Main.start">
<polygon fill="white" stroke="black" points="1132,-27.5 1132,-46.5 1238,-46.5 1238,-27.5 1132,-27.5"/>
<text text-anchor="middle" x="1185" y="-34.5" font-family="Helvetica,sans-Serif" font-size="10.00">slogo.UI.Main.start</text>
</a>
</g>
</g>
<!-- Node5&#45;&gt;Node6 -->
<g id="edge5" class="edge"><title>Node5&#45;&gt;Node6</title>
<path fill="none" stroke="midnightblue" d="M1105.8,-37C1114.76,-37 1123.53,-37 1131.76,-37"/>
<polygon fill="midnightblue" stroke="midnightblue" points="1105.63,-33.5001 1095.63,-37 1105.63,-40.5001 1105.63,-33.5001"/>
</g>
<!-- Node7 -->
<g id="node7" class="node"><title>Node7</title>
<g id="a_node7"><a xlink:href="../../db/d19/classslogo_1_1_u_i_1_1_module_creation_helper.html#a3be12a7cc2b8a219db1e296211a2cb88" target="_top" xlink:title="slogo.UI.ModuleCreationHelper.activate\lExtraWorkspaceButton">
<polygon fill="white" stroke="black" points="1274.5,-22 1274.5,-52 1479.5,-52 1479.5,-22 1274.5,-22"/>
<text text-anchor="start" x="1282.5" y="-40" font-family="Helvetica,sans-Serif" font-size="10.00">slogo.UI.ModuleCreationHelper.activate</text>
<text text-anchor="middle" x="1377" y="-29" font-family="Helvetica,sans-Serif" font-size="10.00">ExtraWorkspaceButton</text>
</a>
</g>
</g>
<!-- Node6&#45;&gt;Node7 -->
<g id="edge6" class="edge"><title>Node6&#45;&gt;Node7</title>
<path fill="none" stroke="midnightblue" d="M1248.22,-37C1256.63,-37 1265.44,-37 1274.32,-37"/>
<polygon fill="midnightblue" stroke="midnightblue" points="1248.17,-33.5001 1238.17,-37 1248.17,-40.5001 1248.17,-33.5001"/>
</g>
<!-- Node8 -->
<g id="node8" class="node"><title>Node8</title>
<g id="a_node8"><a xlink:href="../../db/d19/classslogo_1_1_u_i_1_1_module_creation_helper.html#a702c1ebe24d2857a10c666eb1fcc315d" target="_top" xlink:title="slogo.UI.ModuleCreationHelper.create\lExtraWorkspaceButton">
<polygon fill="white" stroke="black" points="1516.5,-0 1516.5,-30 1713.5,-30 1713.5,-0 1516.5,-0"/>
<text text-anchor="start" x="1524.5" y="-18" font-family="Helvetica,sans-Serif" font-size="10.00">slogo.UI.ModuleCreationHelper.create</text>
<text text-anchor="middle" x="1615" y="-7" font-family="Helvetica,sans-Serif" font-size="10.00">ExtraWorkspaceButton</text>
</a>
</g>
</g>
<!-- Node7&#45;&gt;Node8 -->
<g id="edge7" class="edge"><title>Node7&#45;&gt;Node8</title>
<path fill="none" stroke="midnightblue" d="M1489.77,-26.5812C1498.62,-25.7556 1507.52,-24.9257 1516.27,-24.1101"/>
<polygon fill="midnightblue" stroke="midnightblue" points="1489.43,-23.0972 1479.8,-27.5104 1490.08,-30.067 1489.43,-23.0972"/>
</g>
<!-- Node8&#45;&gt;Node4 -->
<g id="edge8" class="edge"><title>Node8&#45;&gt;Node4</title>
<path fill="none" stroke="midnightblue" d="M1506.27,-12.3776C1497.38,-12.2253 1488.54,-12.0956 1480,-12 1221.35,-9.10502 1156.65,-9.10502 898,-12 886.25,-12.1315 873.921,-12.3279 861.699,-12.5584"/>
<polygon fill="midnightblue" stroke="midnightblue" points="1506.24,-15.8776 1516.3,-12.5584 1506.37,-8.87874 1506.24,-15.8776"/>
</g>
</g>
</svg>
