<?xml version="1.0" encoding="UTF-8" standalone="no"?>
<!DOCTYPE svg PUBLIC "-//W3C//DTD SVG 1.1//EN"
 "http://www.w3.org/Graphics/SVG/1.1/DTD/svg11.dtd">
<!-- Generated by graphviz version 2.36.0 (20140111.2315)
 -->
<!-- Title: slogo.frontend.Config.ConfigReader.readFile Pages: 1 -->
<svg width="576pt" height="136pt"
 viewBox="0.00 0.00 576.00 136.00" xmlns="http://www.w3.org/2000/svg" xmlns:xlink="http://www.w3.org/1999/xlink">
<g id="graph0" class="graph" transform="scale(1 1) rotate(0) translate(4 132)">
<title>slogo.frontend.Config.ConfigReader.readFile</title>
<polygon fill="white" stroke="none" points="-4,4 -4,-132 572,-132 572,4 -4,4"/>
<!-- Node1 -->
<g id="node1" class="node"><title>Node1</title>
<polygon fill="#bfbfbf" stroke="black" points="0,-49 0,-79 152,-79 152,-49 0,-49"/>
<text text-anchor="start" x="8" y="-67" font-family="Helvetica,sans-Serif" font-size="10.00">slogo.frontend.Config.Config</text>
<text text-anchor="middle" x="76" y="-56" font-family="Helvetica,sans-Serif" font-size="10.00">Reader.readFile</text>
</g>
<!-- Node2 -->
<g id="node2" class="node"><title>Node2</title>
<g id="a_node2"><a xlink:href="../../d9/d3c/classslogo_1_1frontend_1_1_config_1_1_config_reader.html#ae4744f47d2bdc03df7fdea398acf93c5" target="_top" xlink:title="slogo.frontend.Config.Config\lReader.calculateNumOfLines">
<polygon fill="white" stroke="black" points="197.5,-98 197.5,-128 350.5,-128 350.5,-98 197.5,-98"/>
<text text-anchor="start" x="205.5" y="-116" font-family="Helvetica,sans-Serif" font-size="10.00">slogo.frontend.Config.Config</text>
<text text-anchor="middle" x="274" y="-105" font-family="Helvetica,sans-Serif" font-size="10.00">Reader.calculateNumOfLines</text>
</a>
</g>
</g>
<!-- Node1&#45;&gt;Node2 -->
<g id="edge1" class="edge"><title>Node1&#45;&gt;Node2</title>
<path fill="none" stroke="midnightblue" d="M137.138,-79.0346C158.021,-84.2554 181.615,-90.1537 203.21,-95.5526"/>
<polygon fill="midnightblue" stroke="midnightblue" points="202.425,-98.9639 212.975,-97.9938 204.123,-92.1729 202.425,-98.9639"/>
</g>
<!-- Node3 -->
<g id="node3" class="node"><title>Node3</title>
<g id="a_node3"><a xlink:href="../../d9/d3c/classslogo_1_1frontend_1_1_config_1_1_config_reader.html#a4971123a7490154db778678d59b79f4d" target="_top" xlink:title="slogo.frontend.Config.Config\lReader.populateTextData">
<polygon fill="white" stroke="black" points="198,-49 198,-79 350,-79 350,-49 198,-49"/>
<text text-anchor="start" x="206" y="-67" font-family="Helvetica,sans-Serif" font-size="10.00">slogo.frontend.Config.Config</text>
<text text-anchor="middle" x="274" y="-56" font-family="Helvetica,sans-Serif" font-size="10.00">Reader.populateTextData</text>
</a>
</g>
</g>
<!-- Node1&#45;&gt;Node3 -->
<g id="edge2" class="edge"><title>Node1&#45;&gt;Node3</title>
<path fill="none" stroke="midnightblue" d="M152.218,-64C163.824,-64 175.882,-64 187.689,-64"/>
<polygon fill="midnightblue" stroke="midnightblue" points="187.983,-67.5001 197.983,-64 187.983,-60.5001 187.983,-67.5001"/>
</g>
<!-- Node4 -->
<g id="node4" class="node"><title>Node4</title>
<g id="a_node4"><a xlink:href="../../dd/def/classslogo_1_1frontend_1_1_config_1_1_parameter_distributor.html#a44241aeccc00d7aafa4c6b65abf62961" target="_top" xlink:title="slogo.frontend.Config.Parameter\lDistributor.readConfigHashMap">
<polygon fill="white" stroke="black" points="188,-0 188,-30 360,-30 360,-0 188,-0"/>
<text text-anchor="start" x="196" y="-18" font-family="Helvetica,sans-Serif" font-size="10.00">slogo.frontend.Config.Parameter</text>
<text text-anchor="middle" x="274" y="-7" font-family="Helvetica,sans-Serif" font-size="10.00">Distributor.readConfigHashMap</text>
</a>
</g>
</g>
<!-- Node1&#45;&gt;Node4 -->
<g id="edge3" class="edge"><title>Node1&#45;&gt;Node4</title>
<path fill="none" stroke="midnightblue" d="M137.138,-48.9654C158.021,-43.7446 181.615,-37.8463 203.21,-32.4474"/>
<polygon fill="midnightblue" stroke="midnightblue" points="204.123,-35.8271 212.975,-30.0062 202.425,-29.0361 204.123,-35.8271"/>
</g>
<!-- Node5 -->
<g id="node5" class="node"><title>Node5</title>
<g id="a_node5"><a xlink:href="../../dd/def/classslogo_1_1frontend_1_1_config_1_1_parameter_distributor.html#a36e5a2113ad3ba19c2005f177d542249" target="_top" xlink:title="slogo.frontend.Config.Parameter\lDistributor.distributeVariables">
<polygon fill="white" stroke="black" points="396,-0 396,-30 568,-30 568,-0 396,-0"/>
<text text-anchor="start" x="404" y="-18" font-family="Helvetica,sans-Serif" font-size="10.00">slogo.frontend.Config.Parameter</text>
<text text-anchor="middle" x="482" y="-7" font-family="Helvetica,sans-Serif" font-size="10.00">Distributor.distributeVariables</text>
</a>
</g>
</g>
<!-- Node4&#45;&gt;Node5 -->
<g id="edge4" class="edge"><title>Node4&#45;&gt;Node5</title>
<path fill="none" stroke="midnightblue" d="M360.275,-15C368.616,-15 377.118,-15 385.551,-15"/>
<polygon fill="midnightblue" stroke="midnightblue" points="385.789,-18.5001 395.789,-15 385.789,-11.5001 385.789,-18.5001"/>
</g>
</g>
</svg>
