<?xml version="1.0" encoding="UTF-8" standalone="no"?>
<!DOCTYPE svg PUBLIC "-//W3C//DTD SVG 1.1//EN"
 "http://www.w3.org/Graphics/SVG/1.1/DTD/svg11.dtd">
<!-- Generated by graphviz version 2.36.0 (20140111.2315)
 -->
<!-- Title: slogo.frontend.Config.ConfigReader.populateTextData Pages: 1 -->
<svg width="1910pt" height="60pt"
 viewBox="0.00 0.00 1910.00 60.00" xmlns="http://www.w3.org/2000/svg" xmlns:xlink="http://www.w3.org/1999/xlink">
<g id="graph0" class="graph" transform="scale(1 1) rotate(0) translate(4 56)">
<title>slogo.frontend.Config.ConfigReader.populateTextData</title>
<polygon fill="white" stroke="none" points="-4,4 -4,-56 1906,-56 1906,4 -4,4"/>
<!-- Node1 -->
<g id="node1" class="node"><title>Node1</title>
<polygon fill="#bfbfbf" stroke="black" points="0,-0 0,-30 152,-30 152,-0 0,-0"/>
<text text-anchor="start" x="8" y="-18" font-family="Helvetica,sans-Serif" font-size="10.00">slogo.frontend.Config.Config</text>
<text text-anchor="middle" x="76" y="-7" font-family="Helvetica,sans-Serif" font-size="10.00">Reader.populateTextData</text>
</g>
<!-- Node2 -->
<g id="node2" class="node"><title>Node2</title>
<g id="a_node2"><a xlink:href="../../d9/d3c/classslogo_1_1frontend_1_1_config_1_1_config_reader.html#ac79590c5fe1030679ca58c8c26ef8dab" target="_top" xlink:title="slogo.frontend.Config.Config\lReader.readFile">
<polygon fill="white" stroke="black" points="188,-0 188,-30 340,-30 340,-0 188,-0"/>
<text text-anchor="start" x="196" y="-18" font-family="Helvetica,sans-Serif" font-size="10.00">slogo.frontend.Config.Config</text>
<text text-anchor="middle" x="264" y="-7" font-family="Helvetica,sans-Serif" font-size="10.00">Reader.readFile</text>
</a>
</g>
</g>
<!-- Node1&#45;&gt;Node2 -->
<g id="edge1" class="edge"><title>Node1&#45;&gt;Node2</title>
<path fill="none" stroke="midnightblue" d="M162.147,-15C170.742,-15 179.426,-15 187.905,-15"/>
<polygon fill="midnightblue" stroke="midnightblue" points="162.117,-11.5001 152.117,-15 162.117,-18.5001 162.117,-11.5001"/>
</g>
<!-- Node3 -->
<g id="node3" class="node"><title>Node3</title>
<g id="a_node3"><a xlink:href="../../db/d19/classslogo_1_1_u_i_1_1_module_creation_helper.html#aa6a7c88b3112494b64bba3cfc608e2be" target="_top" xlink:title="slogo.UI.ModuleCreationHelper.activate\lLoadButton">
<polygon fill="white" stroke="black" points="376.5,-0 376.5,-30 581.5,-30 581.5,-0 376.5,-0"/>
<text text-anchor="start" x="384.5" y="-18" font-family="Helvetica,sans-Serif" font-size="10.00">slogo.UI.ModuleCreationHelper.activate</text>
<text text-anchor="middle" x="479" y="-7" font-family="Helvetica,sans-Serif" font-size="10.00">LoadButton</text>
</a>
</g>
</g>
<!-- Node2&#45;&gt;Node3 -->
<g id="edge2" class="edge"><title>Node2&#45;&gt;Node3</title>
<path fill="none" stroke="midnightblue" d="M350.118,-15C358.744,-15 367.565,-15 376.342,-15"/>
<polygon fill="midnightblue" stroke="midnightblue" points="350.096,-11.5001 340.096,-15 350.096,-18.5001 350.096,-11.5001"/>
</g>
<!-- Node4 -->
<g id="node4" class="node"><title>Node4</title>
<g id="a_node4"><a xlink:href="../../db/d19/classslogo_1_1_u_i_1_1_module_creation_helper.html#ae9c212513214962b5692051497567f68" target="_top" xlink:title="slogo.UI.ModuleCreationHelper.create\lLoadButton">
<polygon fill="white" stroke="black" points="618.5,-0 618.5,-30 815.5,-30 815.5,-0 618.5,-0"/>
<text text-anchor="start" x="626.5" y="-18" font-family="Helvetica,sans-Serif" font-size="10.00">slogo.UI.ModuleCreationHelper.create</text>
<text text-anchor="middle" x="717" y="-7" font-family="Helvetica,sans-Serif" font-size="10.00">LoadButton</text>
</a>
</g>
</g>
<!-- Node3&#45;&gt;Node4 -->
<g id="edge3" class="edge"><title>Node3&#45;&gt;Node4</title>
<path fill="none" stroke="midnightblue" d="M592.051,-15C600.813,-15 609.618,-15 618.274,-15"/>
<polygon fill="midnightblue" stroke="midnightblue" points="591.798,-11.5001 581.798,-15 591.798,-18.5001 591.798,-11.5001"/>
</g>
<!-- Node5 -->
<g id="node5" class="node"><title>Node5</title>
<g id="a_node5"><a xlink:href="../../db/d19/classslogo_1_1_u_i_1_1_module_creation_helper.html#a7c650957b2389d6e6d36e8be8a33cd2b" target="_top" xlink:title="slogo.UI.ModuleCreationHelper.create\lSelectorVBoxModules">
<polygon fill="white" stroke="black" points="852.5,-0 852.5,-30 1049.5,-30 1049.5,-0 852.5,-0"/>
<text text-anchor="start" x="860.5" y="-18" font-family="Helvetica,sans-Serif" font-size="10.00">slogo.UI.ModuleCreationHelper.create</text>
<text text-anchor="middle" x="951" y="-7" font-family="Helvetica,sans-Serif" font-size="10.00">SelectorVBoxModules</text>
</a>
</g>
</g>
<!-- Node4&#45;&gt;Node5 -->
<g id="edge4" class="edge"><title>Node4&#45;&gt;Node5</title>
<path fill="none" stroke="midnightblue" d="M825.722,-15C834.618,-15 843.58,-15 852.396,-15"/>
<polygon fill="midnightblue" stroke="midnightblue" points="825.717,-11.5001 815.716,-15 825.716,-18.5001 825.717,-11.5001"/>
</g>
<!-- Node6 -->
<g id="node6" class="node"><title>Node6</title>
<g id="a_node6"><a xlink:href="../../db/d19/classslogo_1_1_u_i_1_1_module_creation_helper.html#afb9dbbbad7d872234a5b296fe129a34e" target="_top" xlink:title="slogo.UI.ModuleCreationHelper.create\lMainPageModules">
<polygon fill="white" stroke="black" points="1086.5,-22 1086.5,-52 1283.5,-52 1283.5,-22 1086.5,-22"/>
<text text-anchor="start" x="1094.5" y="-40" font-family="Helvetica,sans-Serif" font-size="10.00">slogo.UI.ModuleCreationHelper.create</text>
<text text-anchor="middle" x="1185" y="-29" font-family="Helvetica,sans-Serif" font-size="10.00">MainPageModules</text>
</a>
</g>
</g>
<!-- Node5&#45;&gt;Node6 -->
<g id="edge5" class="edge"><title>Node5&#45;&gt;Node6</title>
<path fill="none" stroke="midnightblue" d="M1059.72,-25.215C1068.62,-26.0586 1077.58,-26.9085 1086.4,-27.7445"/>
<polygon fill="midnightblue" stroke="midnightblue" points="1060,-21.726 1049.72,-24.2662 1059.34,-28.6947 1060,-21.726"/>
</g>
<!-- Node7 -->
<g id="node7" class="node"><title>Node7</title>
<g id="a_node7"><a xlink:href="../../d9/d33/classslogo_1_1_u_i_1_1_main.html#a15b7f2e399ee24d160550993ab737e73" target="_top" xlink:title="slogo.UI.Main.start">
<polygon fill="white" stroke="black" points="1320,-27.5 1320,-46.5 1426,-46.5 1426,-27.5 1320,-27.5"/>
<text text-anchor="middle" x="1373" y="-34.5" font-family="Helvetica,sans-Serif" font-size="10.00">slogo.UI.Main.start</text>
</a>
</g>
</g>
<!-- Node6&#45;&gt;Node7 -->
<g id="edge6" class="edge"><title>Node6&#45;&gt;Node7</title>
<path fill="none" stroke="midnightblue" d="M1293.8,-37C1302.76,-37 1311.53,-37 1319.76,-37"/>
<polygon fill="midnightblue" stroke="midnightblue" points="1293.63,-33.5001 1283.63,-37 1293.63,-40.5001 1293.63,-33.5001"/>
</g>
<!-- Node8 -->
<g id="node8" class="node"><title>Node8</title>
<g id="a_node8"><a xlink:href="../../db/d19/classslogo_1_1_u_i_1_1_module_creation_helper.html#a3be12a7cc2b8a219db1e296211a2cb88" target="_top" xlink:title="slogo.UI.ModuleCreationHelper.activate\lExtraWorkspaceButton">
<polygon fill="white" stroke="black" points="1462.5,-22 1462.5,-52 1667.5,-52 1667.5,-22 1462.5,-22"/>
<text text-anchor="start" x="1470.5" y="-40" font-family="Helvetica,sans-Serif" font-size="10.00">slogo.UI.ModuleCreationHelper.activate</text>
<text text-anchor="middle" x="1565" y="-29" font-family="Helvetica,sans-Serif" font-size="10.00">ExtraWorkspaceButton</text>
</a>
</g>
</g>
<!-- Node7&#45;&gt;Node8 -->
<g id="edge7" class="edge"><title>Node7&#45;&gt;Node8</title>
<path fill="none" stroke="midnightblue" d="M1436.22,-37C1444.63,-37 1453.44,-37 1462.32,-37"/>
<polygon fill="midnightblue" stroke="midnightblue" points="1436.17,-33.5001 1426.17,-37 1436.17,-40.5001 1436.17,-33.5001"/>
</g>
<!-- Node9 -->
<g id="node9" class="node"><title>Node9</title>
<g id="a_node9"><a xlink:href="../../db/d19/classslogo_1_1_u_i_1_1_module_creation_helper.html#a702c1ebe24d2857a10c666eb1fcc315d" target="_top" xlink:title="slogo.UI.ModuleCreationHelper.create\lExtraWorkspaceButton">
<polygon fill="white" stroke="black" points="1704.5,-0 1704.5,-30 1901.5,-30 1901.5,-0 1704.5,-0"/>
<text text-anchor="start" x="1712.5" y="-18" font-family="Helvetica,sans-Serif" font-size="10.00">slogo.UI.ModuleCreationHelper.create</text>
<text text-anchor="middle" x="1803" y="-7" font-family="Helvetica,sans-Serif" font-size="10.00">ExtraWorkspaceButton</text>
</a>
</g>
</g>
<!-- Node8&#45;&gt;Node9 -->
<g id="edge8" class="edge"><title>Node8&#45;&gt;Node9</title>
<path fill="none" stroke="midnightblue" d="M1677.77,-26.5812C1686.62,-25.7556 1695.52,-24.9257 1704.27,-24.1101"/>
<polygon fill="midnightblue" stroke="midnightblue" points="1677.43,-23.0972 1667.8,-27.5104 1678.08,-30.067 1677.43,-23.0972"/>
</g>
<!-- Node9&#45;&gt;Node5 -->
<g id="edge9" class="edge"><title>Node9&#45;&gt;Node5</title>
<path fill="none" stroke="midnightblue" d="M1694.27,-12.3776C1685.38,-12.2253 1676.54,-12.0956 1668,-12 1409.35,-9.10502 1344.65,-9.10502 1086,-12 1074.25,-12.1315 1061.92,-12.3279 1049.7,-12.5584"/>
<polygon fill="midnightblue" stroke="midnightblue" points="1694.24,-15.8776 1704.3,-12.5584 1694.37,-8.87874 1694.24,-15.8776"/>
</g>
</g>
</svg>
