<?xml version="1.0" encoding="UTF-8" standalone="no"?>
<!DOCTYPE svg PUBLIC "-//W3C//DTD SVG 1.1//EN"
 "http://www.w3.org/Graphics/SVG/1.1/DTD/svg11.dtd">
<!-- Generated by graphviz version 2.36.0 (20140111.2315)
 -->
<!-- Title: slogo.UI.SelectorCreator.createSelectorWithLabel Pages: 1 -->
<svg width="1718pt" height="74pt"
 viewBox="0.00 0.00 1718.00 74.00" xmlns="http://www.w3.org/2000/svg" xmlns:xlink="http://www.w3.org/1999/xlink">
<g id="graph0" class="graph" transform="scale(1 1) rotate(0) translate(4 70)">
<title>slogo.UI.SelectorCreator.createSelectorWithLabel</title>
<polygon fill="white" stroke="none" points="-4,4 -4,-70 1714,-70 1714,4 -4,4"/>
<!-- Node1 -->
<g id="node1" class="node"><title>Node1</title>
<polygon fill="#bfbfbf" stroke="black" points="0.5,-14 0.5,-44 167.5,-44 167.5,-14 0.5,-14"/>
<text text-anchor="start" x="8.5" y="-32" font-family="Helvetica,sans-Serif" font-size="10.00">slogo.UI.SelectorCreator.create</text>
<text text-anchor="middle" x="84" y="-21" font-family="Helvetica,sans-Serif" font-size="10.00">SelectorWithLabel</text>
</g>
<!-- Node2 -->
<g id="node2" class="node"><title>Node2</title>
<g id="a_node2"><a xlink:href="../../d4/dbd/classslogo_1_1_u_i_1_1_path_texture_selector.html#ae80d00631de210d08b56261219333461" target="_top" xlink:title="slogo.UI.PathTextureSelector.create">
<polygon fill="white" stroke="black" points="204,-38.5 204,-57.5 390,-57.5 390,-38.5 204,-38.5"/>
<text text-anchor="middle" x="297" y="-45.5" font-family="Helvetica,sans-Serif" font-size="10.00">slogo.UI.PathTextureSelector.create</text>
</a>
</g>
</g>
<!-- Node1&#45;&gt;Node2 -->
<g id="edge1" class="edge"><title>Node1&#45;&gt;Node2</title>
<path fill="none" stroke="midnightblue" d="M177.804,-37.3567C186.393,-38.1301 195.096,-38.9138 203.68,-39.6868"/>
<polygon fill="midnightblue" stroke="midnightblue" points="178.061,-33.8658 167.787,-36.4548 177.433,-40.8376 178.061,-33.8658"/>
</g>
<!-- Node9 -->
<g id="node9" class="node"><title>Node9</title>
<g id="a_node9"><a xlink:href="../../dd/da7/classslogo_1_1_u_i_1_1_turtle_image_selector.html#a3f268d9196ffebcbb5dc322d2897a9fe" target="_top" xlink:title="slogo.UI.TurtleImageSelector.create">
<polygon fill="white" stroke="black" points="204,-0.5 204,-19.5 390,-19.5 390,-0.5 204,-0.5"/>
<text text-anchor="middle" x="297" y="-7.5" font-family="Helvetica,sans-Serif" font-size="10.00">slogo.UI.TurtleImageSelector.create</text>
</a>
</g>
</g>
<!-- Node1&#45;&gt;Node9 -->
<g id="edge9" class="edge"><title>Node1&#45;&gt;Node9</title>
<path fill="none" stroke="midnightblue" d="M177.804,-20.6433C186.393,-19.8699 195.096,-19.0862 203.68,-18.3132"/>
<polygon fill="midnightblue" stroke="midnightblue" points="177.433,-17.1624 167.787,-21.5452 178.061,-24.1342 177.433,-17.1624"/>
</g>
<!-- Node3 -->
<g id="node3" class="node"><title>Node3</title>
<g id="a_node3"><a xlink:href="../../db/d19/classslogo_1_1_u_i_1_1_module_creation_helper.html#af7f2919454fdbf6e9d7d912e99634857" target="_top" xlink:title="slogo.UI.ModuleCreationHelper.create\lSelectors">
<polygon fill="white" stroke="black" points="426.5,-14 426.5,-44 623.5,-44 623.5,-14 426.5,-14"/>
<text text-anchor="start" x="434.5" y="-32" font-family="Helvetica,sans-Serif" font-size="10.00">slogo.UI.ModuleCreationHelper.create</text>
<text text-anchor="middle" x="525" y="-21" font-family="Helvetica,sans-Serif" font-size="10.00">Selectors</text>
</a>
</g>
</g>
<!-- Node2&#45;&gt;Node3 -->
<g id="edge2" class="edge"><title>Node2&#45;&gt;Node3</title>
<path fill="none" stroke="midnightblue" d="M400.301,-39.3995C408.906,-38.676 417.596,-37.9455 426.166,-37.225"/>
<polygon fill="midnightblue" stroke="midnightblue" points="399.92,-35.919 390.249,-40.2446 400.507,-42.8944 399.92,-35.919"/>
</g>
<!-- Node4 -->
<g id="node4" class="node"><title>Node4</title>
<g id="a_node4"><a xlink:href="../../db/d19/classslogo_1_1_u_i_1_1_module_creation_helper.html#a7c650957b2389d6e6d36e8be8a33cd2b" target="_top" xlink:title="slogo.UI.ModuleCreationHelper.create\lSelectorVBoxModules">
<polygon fill="white" stroke="black" points="660.5,-14 660.5,-44 857.5,-44 857.5,-14 660.5,-14"/>
<text text-anchor="start" x="668.5" y="-32" font-family="Helvetica,sans-Serif" font-size="10.00">slogo.UI.ModuleCreationHelper.create</text>
<text text-anchor="middle" x="759" y="-21" font-family="Helvetica,sans-Serif" font-size="10.00">SelectorVBoxModules</text>
</a>
</g>
</g>
<!-- Node3&#45;&gt;Node4 -->
<g id="edge3" class="edge"><title>Node3&#45;&gt;Node4</title>
<path fill="none" stroke="midnightblue" d="M633.722,-29C642.618,-29 651.58,-29 660.396,-29"/>
<polygon fill="midnightblue" stroke="midnightblue" points="633.717,-25.5001 623.716,-29 633.716,-32.5001 633.717,-25.5001"/>
</g>
<!-- Node5 -->
<g id="node5" class="node"><title>Node5</title>
<g id="a_node5"><a xlink:href="../../db/d19/classslogo_1_1_u_i_1_1_module_creation_helper.html#afb9dbbbad7d872234a5b296fe129a34e" target="_top" xlink:title="slogo.UI.ModuleCreationHelper.create\lMainPageModules">
<polygon fill="white" stroke="black" points="894.5,-36 894.5,-66 1091.5,-66 1091.5,-36 894.5,-36"/>
<text text-anchor="start" x="902.5" y="-54" font-family="Helvetica,sans-Serif" font-size="10.00">slogo.UI.ModuleCreationHelper.create</text>
<text text-anchor="middle" x="993" y="-43" font-family="Helvetica,sans-Serif" font-size="10.00">MainPageModules</text>
</a>
</g>
</g>
<!-- Node4&#45;&gt;Node5 -->
<g id="edge4" class="edge"><title>Node4&#45;&gt;Node5</title>
<path fill="none" stroke="midnightblue" d="M867.722,-39.215C876.618,-40.0586 885.58,-40.9085 894.396,-41.7445"/>
<polygon fill="midnightblue" stroke="midnightblue" points="868.002,-35.726 857.716,-38.2662 867.341,-42.6947 868.002,-35.726"/>
</g>
<!-- Node6 -->
<g id="node6" class="node"><title>Node6</title>
<g id="a_node6"><a xlink:href="../../d9/d33/classslogo_1_1_u_i_1_1_main.html#a15b7f2e399ee24d160550993ab737e73" target="_top" xlink:title="slogo.UI.Main.start">
<polygon fill="white" stroke="black" points="1128,-41.5 1128,-60.5 1234,-60.5 1234,-41.5 1128,-41.5"/>
<text text-anchor="middle" x="1181" y="-48.5" font-family="Helvetica,sans-Serif" font-size="10.00">slogo.UI.Main.start</text>
</a>
</g>
</g>
<!-- Node5&#45;&gt;Node6 -->
<g id="edge5" class="edge"><title>Node5&#45;&gt;Node6</title>
<path fill="none" stroke="midnightblue" d="M1101.8,-51C1110.76,-51 1119.53,-51 1127.76,-51"/>
<polygon fill="midnightblue" stroke="midnightblue" points="1101.63,-47.5001 1091.63,-51 1101.63,-54.5001 1101.63,-47.5001"/>
</g>
<!-- Node7 -->
<g id="node7" class="node"><title>Node7</title>
<g id="a_node7"><a xlink:href="../../db/d19/classslogo_1_1_u_i_1_1_module_creation_helper.html#a3be12a7cc2b8a219db1e296211a2cb88" target="_top" xlink:title="slogo.UI.ModuleCreationHelper.activate\lExtraWorkspaceButton">
<polygon fill="white" stroke="black" points="1270.5,-36 1270.5,-66 1475.5,-66 1475.5,-36 1270.5,-36"/>
<text text-anchor="start" x="1278.5" y="-54" font-family="Helvetica,sans-Serif" font-size="10.00">slogo.UI.ModuleCreationHelper.activate</text>
<text text-anchor="middle" x="1373" y="-43" font-family="Helvetica,sans-Serif" font-size="10.00">ExtraWorkspaceButton</text>
</a>
</g>
</g>
<!-- Node6&#45;&gt;Node7 -->
<g id="edge6" class="edge"><title>Node6&#45;&gt;Node7</title>
<path fill="none" stroke="midnightblue" d="M1244.22,-51C1252.63,-51 1261.44,-51 1270.32,-51"/>
<polygon fill="midnightblue" stroke="midnightblue" points="1244.17,-47.5001 1234.17,-51 1244.17,-54.5001 1244.17,-47.5001"/>
</g>
<!-- Node8 -->
<g id="node8" class="node"><title>Node8</title>
<g id="a_node8"><a xlink:href="../../db/d19/classslogo_1_1_u_i_1_1_module_creation_helper.html#a702c1ebe24d2857a10c666eb1fcc315d" target="_top" xlink:title="slogo.UI.ModuleCreationHelper.create\lExtraWorkspaceButton">
<polygon fill="white" stroke="black" points="1512.5,-14 1512.5,-44 1709.5,-44 1709.5,-14 1512.5,-14"/>
<text text-anchor="start" x="1520.5" y="-32" font-family="Helvetica,sans-Serif" font-size="10.00">slogo.UI.ModuleCreationHelper.create</text>
<text text-anchor="middle" x="1611" y="-21" font-family="Helvetica,sans-Serif" font-size="10.00">ExtraWorkspaceButton</text>
</a>
</g>
</g>
<!-- Node7&#45;&gt;Node8 -->
<g id="edge7" class="edge"><title>Node7&#45;&gt;Node8</title>
<path fill="none" stroke="midnightblue" d="M1485.77,-40.5812C1494.62,-39.7556 1503.52,-38.9257 1512.27,-38.1101"/>
<polygon fill="midnightblue" stroke="midnightblue" points="1485.43,-37.0972 1475.8,-41.5104 1486.08,-44.067 1485.43,-37.0972"/>
</g>
<!-- Node8&#45;&gt;Node4 -->
<g id="edge8" class="edge"><title>Node8&#45;&gt;Node4</title>
<path fill="none" stroke="midnightblue" d="M1502.27,-26.3776C1493.38,-26.2253 1484.54,-26.0956 1476,-26 1217.35,-23.105 1152.65,-23.105 894,-26 882.25,-26.1315 869.921,-26.3279 857.699,-26.5584"/>
<polygon fill="midnightblue" stroke="midnightblue" points="1502.24,-29.8776 1512.3,-26.5584 1502.37,-22.8787 1502.24,-29.8776"/>
</g>
<!-- Node9&#45;&gt;Node3 -->
<g id="edge10" class="edge"><title>Node9&#45;&gt;Node3</title>
<path fill="none" stroke="midnightblue" d="M400.301,-18.6005C408.906,-19.324 417.596,-20.0545 426.166,-20.775"/>
<polygon fill="midnightblue" stroke="midnightblue" points="400.507,-15.1056 390.249,-17.7554 399.92,-22.081 400.507,-15.1056"/>
</g>
</g>
</svg>
