<?xml version="1.0" encoding="UTF-8" standalone="no"?>
<!DOCTYPE svg PUBLIC "-//W3C//DTD SVG 1.1//EN"
 "http://www.w3.org/Graphics/SVG/1.1/DTD/svg11.dtd">
<!-- Generated by graphviz version 2.36.0 (20140111.2315)
 -->
<!-- Title: slogo.UI.SelectorCreator.setUpSelector Pages: 1 -->
<svg width="1702pt" height="74pt"
 viewBox="0.00 0.00 1702.00 74.00" xmlns="http://www.w3.org/2000/svg" xmlns:xlink="http://www.w3.org/1999/xlink">
<g id="graph0" class="graph" transform="scale(1 1) rotate(0) translate(4 70)">
<title>slogo.UI.SelectorCreator.setUpSelector</title>
<polygon fill="white" stroke="none" points="-4,4 -4,-70 1698,-70 1698,4 -4,4"/>
<!-- Node1 -->
<g id="node1" class="node"><title>Node1</title>
<polygon fill="#bfbfbf" stroke="black" points="0.5,-14 0.5,-44 151.5,-44 151.5,-14 0.5,-14"/>
<text text-anchor="start" x="8.5" y="-32" font-family="Helvetica,sans-Serif" font-size="10.00">slogo.UI.SelectorCreator.set</text>
<text text-anchor="middle" x="76" y="-21" font-family="Helvetica,sans-Serif" font-size="10.00">UpSelector</text>
</g>
<!-- Node2 -->
<g id="node2" class="node"><title>Node2</title>
<g id="a_node2"><a xlink:href="../../d4/dbd/classslogo_1_1_u_i_1_1_path_texture_selector.html#ae80d00631de210d08b56261219333461" target="_top" xlink:title="slogo.UI.PathTextureSelector.create">
<polygon fill="white" stroke="black" points="188,-38.5 188,-57.5 374,-57.5 374,-38.5 188,-38.5"/>
<text text-anchor="middle" x="281" y="-45.5" font-family="Helvetica,sans-Serif" font-size="10.00">slogo.UI.PathTextureSelector.create</text>
</a>
</g>
</g>
<!-- Node1&#45;&gt;Node2 -->
<g id="edge1" class="edge"><title>Node1&#45;&gt;Node2</title>
<path fill="none" stroke="midnightblue" d="M161.752,-36.9325C170.372,-37.7392 179.157,-38.5615 187.85,-39.3752"/>
<polygon fill="midnightblue" stroke="midnightblue" points="162.008,-33.4412 151.725,-35.994 161.355,-40.4107 162.008,-33.4412"/>
</g>
<!-- Node9 -->
<g id="node9" class="node"><title>Node9</title>
<g id="a_node9"><a xlink:href="../../dd/da7/classslogo_1_1_u_i_1_1_turtle_image_selector.html#a3f268d9196ffebcbb5dc322d2897a9fe" target="_top" xlink:title="slogo.UI.TurtleImageSelector.create">
<polygon fill="white" stroke="black" points="188,-0.5 188,-19.5 374,-19.5 374,-0.5 188,-0.5"/>
<text text-anchor="middle" x="281" y="-7.5" font-family="Helvetica,sans-Serif" font-size="10.00">slogo.UI.TurtleImageSelector.create</text>
</a>
</g>
</g>
<!-- Node1&#45;&gt;Node9 -->
<g id="edge9" class="edge"><title>Node1&#45;&gt;Node9</title>
<path fill="none" stroke="midnightblue" d="M161.752,-21.0675C170.372,-20.2608 179.157,-19.4385 187.85,-18.6248"/>
<polygon fill="midnightblue" stroke="midnightblue" points="161.355,-17.5893 151.725,-22.006 162.008,-24.5588 161.355,-17.5893"/>
</g>
<!-- Node3 -->
<g id="node3" class="node"><title>Node3</title>
<g id="a_node3"><a xlink:href="../../db/d19/classslogo_1_1_u_i_1_1_module_creation_helper.html#af7f2919454fdbf6e9d7d912e99634857" target="_top" xlink:title="slogo.UI.ModuleCreationHelper.create\lSelectors">
<polygon fill="white" stroke="black" points="410.5,-14 410.5,-44 607.5,-44 607.5,-14 410.5,-14"/>
<text text-anchor="start" x="418.5" y="-32" font-family="Helvetica,sans-Serif" font-size="10.00">slogo.UI.ModuleCreationHelper.create</text>
<text text-anchor="middle" x="509" y="-21" font-family="Helvetica,sans-Serif" font-size="10.00">Selectors</text>
</a>
</g>
</g>
<!-- Node2&#45;&gt;Node3 -->
<g id="edge2" class="edge"><title>Node2&#45;&gt;Node3</title>
<path fill="none" stroke="midnightblue" d="M384.301,-39.3995C392.906,-38.676 401.596,-37.9455 410.166,-37.225"/>
<polygon fill="midnightblue" stroke="midnightblue" points="383.92,-35.919 374.249,-40.2446 384.507,-42.8944 383.92,-35.919"/>
</g>
<!-- Node4 -->
<g id="node4" class="node"><title>Node4</title>
<g id="a_node4"><a xlink:href="../../db/d19/classslogo_1_1_u_i_1_1_module_creation_helper.html#a7c650957b2389d6e6d36e8be8a33cd2b" target="_top" xlink:title="slogo.UI.ModuleCreationHelper.create\lSelectorVBoxModules">
<polygon fill="white" stroke="black" points="644.5,-14 644.5,-44 841.5,-44 841.5,-14 644.5,-14"/>
<text text-anchor="start" x="652.5" y="-32" font-family="Helvetica,sans-Serif" font-size="10.00">slogo.UI.ModuleCreationHelper.create</text>
<text text-anchor="middle" x="743" y="-21" font-family="Helvetica,sans-Serif" font-size="10.00">SelectorVBoxModules</text>
</a>
</g>
</g>
<!-- Node3&#45;&gt;Node4 -->
<g id="edge3" class="edge"><title>Node3&#45;&gt;Node4</title>
<path fill="none" stroke="midnightblue" d="M617.722,-29C626.618,-29 635.58,-29 644.396,-29"/>
<polygon fill="midnightblue" stroke="midnightblue" points="617.717,-25.5001 607.716,-29 617.716,-32.5001 617.717,-25.5001"/>
</g>
<!-- Node5 -->
<g id="node5" class="node"><title>Node5</title>
<g id="a_node5"><a xlink:href="../../db/d19/classslogo_1_1_u_i_1_1_module_creation_helper.html#afb9dbbbad7d872234a5b296fe129a34e" target="_top" xlink:title="slogo.UI.ModuleCreationHelper.create\lMainPageModules">
<polygon fill="white" stroke="black" points="878.5,-36 878.5,-66 1075.5,-66 1075.5,-36 878.5,-36"/>
<text text-anchor="start" x="886.5" y="-54" font-family="Helvetica,sans-Serif" font-size="10.00">slogo.UI.ModuleCreationHelper.create</text>
<text text-anchor="middle" x="977" y="-43" font-family="Helvetica,sans-Serif" font-size="10.00">MainPageModules</text>
</a>
</g>
</g>
<!-- Node4&#45;&gt;Node5 -->
<g id="edge4" class="edge"><title>Node4&#45;&gt;Node5</title>
<path fill="none" stroke="midnightblue" d="M851.722,-39.215C860.618,-40.0586 869.58,-40.9085 878.396,-41.7445"/>
<polygon fill="midnightblue" stroke="midnightblue" points="852.002,-35.726 841.716,-38.2662 851.341,-42.6947 852.002,-35.726"/>
</g>
<!-- Node6 -->
<g id="node6" class="node"><title>Node6</title>
<g id="a_node6"><a xlink:href="../../d9/d33/classslogo_1_1_u_i_1_1_main.html#a15b7f2e399ee24d160550993ab737e73" target="_top" xlink:title="slogo.UI.Main.start">
<polygon fill="white" stroke="black" points="1112,-41.5 1112,-60.5 1218,-60.5 1218,-41.5 1112,-41.5"/>
<text text-anchor="middle" x="1165" y="-48.5" font-family="Helvetica,sans-Serif" font-size="10.00">slogo.UI.Main.start</text>
</a>
</g>
</g>
<!-- Node5&#45;&gt;Node6 -->
<g id="edge5" class="edge"><title>Node5&#45;&gt;Node6</title>
<path fill="none" stroke="midnightblue" d="M1085.8,-51C1094.76,-51 1103.53,-51 1111.76,-51"/>
<polygon fill="midnightblue" stroke="midnightblue" points="1085.63,-47.5001 1075.63,-51 1085.63,-54.5001 1085.63,-47.5001"/>
</g>
<!-- Node7 -->
<g id="node7" class="node"><title>Node7</title>
<g id="a_node7"><a xlink:href="../../db/d19/classslogo_1_1_u_i_1_1_module_creation_helper.html#a3be12a7cc2b8a219db1e296211a2cb88" target="_top" xlink:title="slogo.UI.ModuleCreationHelper.activate\lExtraWorkspaceButton">
<polygon fill="white" stroke="black" points="1254.5,-36 1254.5,-66 1459.5,-66 1459.5,-36 1254.5,-36"/>
<text text-anchor="start" x="1262.5" y="-54" font-family="Helvetica,sans-Serif" font-size="10.00">slogo.UI.ModuleCreationHelper.activate</text>
<text text-anchor="middle" x="1357" y="-43" font-family="Helvetica,sans-Serif" font-size="10.00">ExtraWorkspaceButton</text>
</a>
</g>
</g>
<!-- Node6&#45;&gt;Node7 -->
<g id="edge6" class="edge"><title>Node6&#45;&gt;Node7</title>
<path fill="none" stroke="midnightblue" d="M1228.22,-51C1236.63,-51 1245.44,-51 1254.32,-51"/>
<polygon fill="midnightblue" stroke="midnightblue" points="1228.17,-47.5001 1218.17,-51 1228.17,-54.5001 1228.17,-47.5001"/>
</g>
<!-- Node8 -->
<g id="node8" class="node"><title>Node8</title>
<g id="a_node8"><a xlink:href="../../db/d19/classslogo_1_1_u_i_1_1_module_creation_helper.html#a702c1ebe24d2857a10c666eb1fcc315d" target="_top" xlink:title="slogo.UI.ModuleCreationHelper.create\lExtraWorkspaceButton">
<polygon fill="white" stroke="black" points="1496.5,-14 1496.5,-44 1693.5,-44 1693.5,-14 1496.5,-14"/>
<text text-anchor="start" x="1504.5" y="-32" font-family="Helvetica,sans-Serif" font-size="10.00">slogo.UI.ModuleCreationHelper.create</text>
<text text-anchor="middle" x="1595" y="-21" font-family="Helvetica,sans-Serif" font-size="10.00">ExtraWorkspaceButton</text>
</a>
</g>
</g>
<!-- Node7&#45;&gt;Node8 -->
<g id="edge7" class="edge"><title>Node7&#45;&gt;Node8</title>
<path fill="none" stroke="midnightblue" d="M1469.77,-40.5812C1478.62,-39.7556 1487.52,-38.9257 1496.27,-38.1101"/>
<polygon fill="midnightblue" stroke="midnightblue" points="1469.43,-37.0972 1459.8,-41.5104 1470.08,-44.067 1469.43,-37.0972"/>
</g>
<!-- Node8&#45;&gt;Node4 -->
<g id="edge8" class="edge"><title>Node8&#45;&gt;Node4</title>
<path fill="none" stroke="midnightblue" d="M1486.27,-26.3776C1477.38,-26.2253 1468.54,-26.0956 1460,-26 1201.35,-23.105 1136.65,-23.105 878,-26 866.25,-26.1315 853.921,-26.3279 841.699,-26.5584"/>
<polygon fill="midnightblue" stroke="midnightblue" points="1486.24,-29.8776 1496.3,-26.5584 1486.37,-22.8787 1486.24,-29.8776"/>
</g>
<!-- Node9&#45;&gt;Node3 -->
<g id="edge10" class="edge"><title>Node9&#45;&gt;Node3</title>
<path fill="none" stroke="midnightblue" d="M384.301,-18.6005C392.906,-19.324 401.596,-20.0545 410.166,-20.775"/>
<polygon fill="midnightblue" stroke="midnightblue" points="384.507,-15.1056 374.249,-17.7554 383.92,-22.081 384.507,-15.1056"/>
</g>
</g>
</svg>
