<?xml version="1.0" encoding="UTF-8" standalone="no"?>
<!DOCTYPE svg PUBLIC "-//W3C//DTD SVG 1.1//EN"
 "http://www.w3.org/Graphics/SVG/1.1/DTD/svg11.dtd">
<!-- Generated by graphviz version 2.36.0 (20140111.2315)
 -->
<!-- Title: slogo.backend.impl.tokenization.TokenRule.match Pages: 1 -->
<svg width="602pt" height="38pt"
 viewBox="0.00 0.00 602.00 38.00" xmlns="http://www.w3.org/2000/svg" xmlns:xlink="http://www.w3.org/1999/xlink">
<g id="graph0" class="graph" transform="scale(1 1) rotate(0) translate(4 34)">
<title>slogo.backend.impl.tokenization.TokenRule.match</title>
<polygon fill="white" stroke="none" points="-4,4 -4,-34 598,-34 598,4 -4,4"/>
<!-- Node1 -->
<g id="node1" class="node"><title>Node1</title>
<polygon fill="#bfbfbf" stroke="black" points="0.5,-0 0.5,-30 173.5,-30 173.5,-0 0.5,-0"/>
<text text-anchor="start" x="8.5" y="-18" font-family="Helvetica,sans-Serif" font-size="10.00">slogo.backend.impl.tokenization.</text>
<text text-anchor="middle" x="87" y="-7" font-family="Helvetica,sans-Serif" font-size="10.00">TokenRule.match</text>
</g>
<!-- Node2 -->
<g id="node2" class="node"><title>Node2</title>
<g id="a_node2"><a xlink:href="../../d8/dc5/classslogo_1_1backend_1_1impl_1_1tokenization_1_1_token_rule.html#af39e37cce86efcceb3ef65e43e0c7625" target="_top" xlink:title="slogo.backend.impl.tokenization.\lTokenRule.matchRaw">
<polygon fill="white" stroke="black" points="210.5,-0 210.5,-30 383.5,-30 383.5,-0 210.5,-0"/>
<text text-anchor="start" x="218.5" y="-18" font-family="Helvetica,sans-Serif" font-size="10.00">slogo.backend.impl.tokenization.</text>
<text text-anchor="middle" x="297" y="-7" font-family="Helvetica,sans-Serif" font-size="10.00">TokenRule.matchRaw</text>
</a>
</g>
</g>
<!-- Node1&#45;&gt;Node2 -->
<g id="edge1" class="edge"><title>Node1&#45;&gt;Node2</title>
<path fill="none" stroke="midnightblue" d="M173.502,-8.34581C182.376,-8.253 191.435,-8.22762 200.411,-8.26966"/>
<polygon fill="midnightblue" stroke="midnightblue" points="200.468,-11.7701 210.494,-8.34577 200.521,-4.77029 200.468,-11.7701"/>
</g>
<!-- Node2&#45;&gt;Node1 -->
<g id="edge3" class="edge"><title>Node2&#45;&gt;Node1</title>
<path fill="none" stroke="midnightblue" d="M210.494,-21.6542C201.62,-21.747 192.561,-21.7724 183.585,-21.7303"/>
<polygon fill="midnightblue" stroke="midnightblue" points="183.528,-18.2299 173.502,-21.6542 183.475,-25.2297 183.528,-18.2299"/>
</g>
<!-- Node3 -->
<g id="node3" class="node"><title>Node3</title>
<g id="a_node3"><a xlink:href="../../d8/dc5/classslogo_1_1backend_1_1impl_1_1tokenization_1_1_token_rule.html#a5643764dca0ebf61e60ba72aa53dc10d" target="_top" xlink:title="slogo.backend.impl.tokenization.\lTokenRule.generatePattern">
<polygon fill="white" stroke="black" points="420.5,-0 420.5,-30 593.5,-30 593.5,-0 420.5,-0"/>
<text text-anchor="start" x="428.5" y="-18" font-family="Helvetica,sans-Serif" font-size="10.00">slogo.backend.impl.tokenization.</text>
<text text-anchor="middle" x="507" y="-7" font-family="Helvetica,sans-Serif" font-size="10.00">TokenRule.generatePattern</text>
</a>
</g>
</g>
<!-- Node2&#45;&gt;Node3 -->
<g id="edge2" class="edge"><title>Node2&#45;&gt;Node3</title>
<path fill="none" stroke="midnightblue" d="M383.502,-15C392.376,-15 401.435,-15 410.411,-15"/>
<polygon fill="midnightblue" stroke="midnightblue" points="410.494,-18.5001 420.494,-15 410.494,-11.5001 410.494,-18.5001"/>
</g>
</g>
</svg>
