<?xml version="1.0" encoding="UTF-8" standalone="no"?>
<!DOCTYPE svg PUBLIC "-//W3C//DTD SVG 1.1//EN"
 "http://www.w3.org/Graphics/SVG/1.1/DTD/svg11.dtd">
<!-- Generated by graphviz version 2.36.0 (20140111.2315)
 -->
<!-- Title: slogo.backend.impl.tokenization.TokenRule.match Pages: 1 -->
<svg width="392pt" height="38pt"
 viewBox="0.00 0.00 392.00 38.00" xmlns="http://www.w3.org/2000/svg" xmlns:xlink="http://www.w3.org/1999/xlink">
<g id="graph0" class="graph" transform="scale(1 1) rotate(0) translate(4 34)">
<title>slogo.backend.impl.tokenization.TokenRule.match</title>
<polygon fill="white" stroke="none" points="-4,4 -4,-34 388,-34 388,4 -4,4"/>
<!-- Node1 -->
<g id="node1" class="node"><title>Node1</title>
<polygon fill="#bfbfbf" stroke="black" points="0.5,-0 0.5,-30 173.5,-30 173.5,-0 0.5,-0"/>
<text text-anchor="start" x="8.5" y="-18" font-family="Helvetica,sans-Serif" font-size="10.00">slogo.backend.impl.tokenization.</text>
<text text-anchor="middle" x="87" y="-7" font-family="Helvetica,sans-Serif" font-size="10.00">TokenRule.match</text>
</g>
<!-- Node2 -->
<g id="node2" class="node"><title>Node2</title>
<g id="a_node2"><a xlink:href="../../d8/dc5/classslogo_1_1backend_1_1impl_1_1tokenization_1_1_token_rule.html#af39e37cce86efcceb3ef65e43e0c7625" target="_top" xlink:title="slogo.backend.impl.tokenization.\lTokenRule.matchRaw">
<polygon fill="white" stroke="black" points="210.5,-0 210.5,-30 383.5,-30 383.5,-0 210.5,-0"/>
<text text-anchor="start" x="218.5" y="-18" font-family="Helvetica,sans-Serif" font-size="10.00">slogo.backend.impl.tokenization.</text>
<text text-anchor="middle" x="297" y="-7" font-family="Helvetica,sans-Serif" font-size="10.00">TokenRule.matchRaw</text>
</a>
</g>
</g>
<!-- Node1&#45;&gt;Node2 -->
<g id="edge1" class="edge"><title>Node1&#45;&gt;Node2</title>
<path fill="none" stroke="midnightblue" d="M183.585,-8.26968C192.561,-8.22762 201.62,-8.25298 210.494,-8.34577"/>
<polygon fill="midnightblue" stroke="midnightblue" points="183.475,-4.77031 173.502,-8.34581 183.528,-11.7701 183.475,-4.77031"/>
</g>
<!-- Node2&#45;&gt;Node1 -->
<g id="edge2" class="edge"><title>Node2&#45;&gt;Node1</title>
<path fill="none" stroke="midnightblue" d="M200.411,-21.7303C191.435,-21.7724 182.376,-21.747 173.502,-21.6542"/>
<polygon fill="midnightblue" stroke="midnightblue" points="200.521,-25.2297 210.494,-21.6542 200.468,-18.2299 200.521,-25.2297"/>
</g>
</g>
</svg>
