<?xml version="1.0" encoding="UTF-8" standalone="no"?>
<!DOCTYPE svg PUBLIC "-//W3C//DTD SVG 1.1//EN"
 "http://www.w3.org/Graphics/SVG/1.1/DTD/svg11.dtd">
<!-- Generated by graphviz version 2.36.0 (20140111.2315)
 -->
<!-- Title: slogo.backend.impl.tokenization.TokenRule.TokenRule Pages: 1 -->
<!--zoomable 136 -->
<svg id="main" version="1.1" xmlns="http://www.w3.org/2000/svg" xmlns:xlink="http://www.w3.org/1999/xlink" xml:space="preserve" onload="init(evt)">
<style type="text/css"><![CDATA[
.edge:hover path { stroke: red; }
.edge:hover polygon { stroke: red; fill: red; }
]]></style>
<script type="text/javascript"><![CDATA[
var edges = document.getElementsByTagName('g');
if (edges && edges.length) {
  for (var i=0;i<edges.length;i++) {
    if (edges[i].id.substr(0,4)=='edge') {
      edges[i].setAttribute('class','edge');
    }
  }
}
]]></script>
        <defs>
                <circle id="rim" cx="0" cy="0" r="7"/>
                <circle id="rim2" cx="0" cy="0" r="3.5"/>
                <g id="zoomPlus">
                        <use xlink:href="#rim" fill="#404040">
                                <set attributeName="fill" to="#808080" begin="zoomplus.mouseover" end="zoomplus.mouseout"/>
                        </use>
                        <path d="M-4,0h8M0,-4v8" fill="none" stroke="white" stroke-width="1.5" pointer-events="none"/>
                </g>
                <g id="zoomMin">
                        <use xlink:href="#rim" fill="#404040">
                                <set attributeName="fill" to="#808080" begin="zoomminus.mouseover" end="zoomminus.mouseout"/>
                        </use>
                        <path d="M-4,0h8" fill="none" stroke="white" stroke-width="1.5" pointer-events="none"/>
                </g>
                <g id="dirArrow">
                        <path fill="none" stroke="white" stroke-width="1.5" d="M0,-3.0v7 M-2.5,-0.5L0,-3.0L2.5,-0.5"/>
                </g>
               <g id="resetDef">
                       <use xlink:href="#rim2" fill="#404040">
                               <set attributeName="fill" to="#808080" begin="reset.mouseover" end="reset.mouseout"/>
                       </use>
               </g>
        </defs>

<script type="text/javascript">
var viewWidth = 804;
var viewHeight = 136;
var sectionId = 'dynsection-2';
</script>
<script xlink:href="../../svgpan.js"/>
<svg id="graph" class="graph">
<g id="viewport">
<title>slogo.backend.impl.tokenization.TokenRule.TokenRule</title>
<polygon fill="white" stroke="none" points="-4,4 -4,-132 800,-132 800,4 -4,4"/>
<!-- Node1 -->
<g id="node1" class="node"><title>Node1</title>
<polygon fill="#bfbfbf" stroke="black" points="0.5,-49 0.5,-79 173.5,-79 173.5,-49 0.5,-49"/>
<text text-anchor="start" x="8.5" y="-67" font-family="Helvetica,sans-Serif" font-size="10.00">slogo.backend.impl.tokenization.</text>
<text text-anchor="middle" x="87" y="-56" font-family="Helvetica,sans-Serif" font-size="10.00">TokenRule.TokenRule</text>
</g>
<!-- Node2 -->
<g id="node2" class="node"><title>Node2</title>
<g id="a_node2"><a xlink:href="../../d1/d5b/classslogo_1_1backend_1_1impl_1_1tokenization_1_1_token_rule_1_1_builder.html#aab124b94d44e749bd75aee3502356c7e" target="_top" xlink:title="slogo.backend.impl.tokenization.\lTokenRule.Builder.build">
<polygon fill="white" stroke="black" points="210.5,-49 210.5,-79 383.5,-79 383.5,-49 210.5,-49"/>
<text text-anchor="start" x="218.5" y="-67" font-family="Helvetica,sans-Serif" font-size="10.00">slogo.backend.impl.tokenization.</text>
<text text-anchor="middle" x="297" y="-56" font-family="Helvetica,sans-Serif" font-size="10.00">TokenRule.Builder.build</text>
</a>
</g>
</g>
<!-- Node1&#45;&gt;Node2 -->
<g id="edge1" class="edge"><title>Node1&#45;&gt;Node2</title>
<path fill="none" stroke="midnightblue" d="M183.585,-64C192.561,-64 201.62,-64 210.494,-64"/>
<polygon fill="midnightblue" stroke="midnightblue" points="183.502,-60.5001 173.502,-64 183.502,-67.5001 183.502,-60.5001"/>
</g>
<!-- Node3 -->
<g id="node3" class="node"><title>Node3</title>
<g id="a_node3"><a xlink:href="../../da/da1/classslogo_1_1backend_1_1impl_1_1_backend.html#a57e50288932944f6885af53132589ed7" target="_top" xlink:title="slogo.backend.impl.Backend.token\lRules">
<polygon fill="white" stroke="black" points="420.5,-98 420.5,-128 603.5,-128 603.5,-98 420.5,-98"/>
<text text-anchor="start" x="428.5" y="-116" font-family="Helvetica,sans-Serif" font-size="10.00">slogo.backend.impl.Backend.token</text>
<text text-anchor="middle" x="512" y="-105" font-family="Helvetica,sans-Serif" font-size="10.00">Rules</text>
</a>
</g>
</g>
<!-- Node2&#45;&gt;Node3 -->
<g id="edge2" class="edge"><title>Node2&#45;&gt;Node3</title>
<path fill="none" stroke="midnightblue" d="M373.337,-81.3309C396.985,-86.7712 422.881,-92.7285 445.769,-97.9938"/>
<polygon fill="midnightblue" stroke="midnightblue" points="373.885,-77.8657 363.355,-79.0346 372.315,-84.6875 373.885,-77.8657"/>
</g>
<!-- Node5 -->
<g id="node5" class="node"><title>Node5</title>
<g id="a_node5"><a xlink:href="../../d7/de0/classslogo_1_1backend_1_1test_1_1_tokenization_test.html#ab027ae259cec2347c6f67ead6edb41f0" target="_top" xlink:title="slogo.backend.test.Tokenization\lTest.testMatch">
<polygon fill="white" stroke="black" points="427.5,-49 427.5,-79 596.5,-79 596.5,-49 427.5,-49"/>
<text text-anchor="start" x="435.5" y="-67" font-family="Helvetica,sans-Serif" font-size="10.00">slogo.backend.test.Tokenization</text>
<text text-anchor="middle" x="512" y="-56" font-family="Helvetica,sans-Serif" font-size="10.00">Test.testMatch</text>
</a>
</g>
</g>
<!-- Node2&#45;&gt;Node5 -->
<g id="edge4" class="edge"><title>Node2&#45;&gt;Node5</title>
<path fill="none" stroke="midnightblue" d="M393.865,-64C404.982,-64 416.254,-64 427.192,-64"/>
<polygon fill="midnightblue" stroke="midnightblue" points="393.715,-60.5001 383.715,-64 393.715,-67.5001 393.715,-60.5001"/>
</g>
<!-- Node6 -->
<g id="node6" class="node"><title>Node6</title>
<g id="a_node6"><a xlink:href="../../d7/de0/classslogo_1_1backend_1_1test_1_1_tokenization_test.html#a141b1bda5bb560354cce0d2a4c3bf967" target="_top" xlink:title="slogo.backend.test.Tokenization\lTest.testTokenize">
<polygon fill="white" stroke="black" points="427.5,-0 427.5,-30 596.5,-30 596.5,-0 427.5,-0"/>
<text text-anchor="start" x="435.5" y="-18" font-family="Helvetica,sans-Serif" font-size="10.00">slogo.backend.test.Tokenization</text>
<text text-anchor="middle" x="512" y="-7" font-family="Helvetica,sans-Serif" font-size="10.00">Test.testTokenize</text>
</a>
</g>
</g>
<!-- Node2&#45;&gt;Node6 -->
<g id="edge5" class="edge"><title>Node2&#45;&gt;Node6</title>
<path fill="none" stroke="midnightblue" d="M373.337,-46.6691C396.985,-41.2288 422.881,-35.2715 445.769,-30.0062"/>
<polygon fill="midnightblue" stroke="midnightblue" points="372.315,-43.3125 363.355,-48.9654 373.885,-50.1343 372.315,-43.3125"/>
</g>
<!-- Node4 -->
<g id="node4" class="node"><title>Node4</title>
<g id="a_node4"><a xlink:href="../../da/da1/classslogo_1_1backend_1_1impl_1_1_backend.html#af2452dcfaffd59fa963bb3846d903d19" target="_top" xlink:title="slogo.backend.impl.Backend.\lBackend">
<polygon fill="white" stroke="black" points="640,-98 640,-128 796,-128 796,-98 640,-98"/>
<text text-anchor="start" x="648" y="-116" font-family="Helvetica,sans-Serif" font-size="10.00">slogo.backend.impl.Backend.</text>
<text text-anchor="middle" x="718" y="-105" font-family="Helvetica,sans-Serif" font-size="10.00">Backend</text>
</a>
</g>
</g>
<!-- Node3&#45;&gt;Node4 -->
<g id="edge3" class="edge"><title>Node3&#45;&gt;Node4</title>
<path fill="none" stroke="midnightblue" d="M613.847,-113C622.537,-113 631.238,-113 639.698,-113"/>
<polygon fill="midnightblue" stroke="midnightblue" points="613.665,-109.5 603.665,-113 613.665,-116.5 613.665,-109.5"/>
</g>
</g>
</svg>
        <g id="navigator" transform="translate(0 0)" fill="#404254">
                <rect fill="#f2f5e9" fill-opacity="0.5" stroke="#606060" stroke-width=".5" x="0" y="0" width="60" height="60"/>
                <use id="zoomplus" xlink:href="#zoomPlus" x="17" y="9" onmousedown="handleZoom(evt,'in')"/>
                <use id="zoomminus" xlink:href="#zoomMin" x="42" y="9" onmousedown="handleZoom(evt,'out')"/>
                <use id="reset" xlink:href="#resetDef" x="30" y="36" onmousedown="handleReset()"/>
                <g id="arrowUp" xlink:href="#dirArrow" transform="translate(30 24)" onmousedown="handlePan(0,-1)">
                  <use xlink:href="#rim" fill="#404040">
                        <set attributeName="fill" to="#808080" begin="arrowUp.mouseover" end="arrowUp.mouseout"/>
                  </use>
                  <path fill="none" stroke="white" stroke-width="1.5" d="M0,-3.0v7 M-2.5,-0.5L0,-3.0L2.5,-0.5"/>
                </g>
                <g id="arrowRight" xlink:href="#dirArrow" transform="rotate(90) translate(36 -43)" onmousedown="handlePan(1,0)">
                  <use xlink:href="#rim" fill="#404040">
                        <set attributeName="fill" to="#808080" begin="arrowRight.mouseover" end="arrowRight.mouseout"/>
                  </use>
                  <path fill="none" stroke="white" stroke-width="1.5" d="M0,-3.0v7 M-2.5,-0.5L0,-3.0L2.5,-0.5"/>
                </g>
                <g id="arrowDown" xlink:href="#dirArrow" transform="rotate(180) translate(-30 -48)" onmousedown="handlePan(0,1)">
                  <use xlink:href="#rim" fill="#404040">
                        <set attributeName="fill" to="#808080" begin="arrowDown.mouseover" end="arrowDown.mouseout"/>
                  </use>
                  <path fill="none" stroke="white" stroke-width="1.5" d="M0,-3.0v7 M-2.5,-0.5L0,-3.0L2.5,-0.5"/>
                </g>
                <g id="arrowLeft" xlink:href="#dirArrow" transform="rotate(270) translate(-36 17)" onmousedown="handlePan(-1,0)">
                  <use xlink:href="#rim" fill="#404040">
                        <set attributeName="fill" to="#808080" begin="arrowLeft.mouseover" end="arrowLeft.mouseout"/>
                  </use>
                  <path fill="none" stroke="white" stroke-width="1.5" d="M0,-3.0v7 M-2.5,-0.5L0,-3.0L2.5,-0.5"/>
                </g>
        </g>
        <svg viewBox="0 0 15 15" width="100%" height="30px" preserveAspectRatio="xMaxYMin meet">
         <g id="arrow_out" transform="scale(0.3 0.3)">
          <a xlink:href="classslogo_1_1backend_1_1impl_1_1tokenization_1_1_token_rule_ad2616f44a4694e9b04add930a4e6f017_icgraph_org.svg" target="_base">
           <rect id="button" ry="5" rx="5" y="6" x="6" height="38" width="38"
                fill="#f2f5e9" fill-opacity="0.5" stroke="#606060" stroke-width="1.0"/>
           <path id="arrow"
             d="M 11.500037,31.436501 C 11.940474,20.09759 22.043105,11.32322 32.158766,21.979434 L 37.068811,17.246167 C 37.068811,17.246167 37.088388,32 37.088388,32 L 22.160133,31.978069 C 22.160133,31.978069 26.997745,27.140456 26.997745,27.140456 C 18.528582,18.264221 13.291696,25.230495 11.500037,31.436501 z"
             style="fill:#404040;"/>
          </a>
         </g>
        </svg>
</svg>
