<?xml version="1.0" encoding="UTF-8" standalone="no"?>
<!DOCTYPE svg PUBLIC "-//W3C//DTD SVG 1.1//EN"
 "http://www.w3.org/Graphics/SVG/1.1/DTD/svg11.dtd">
<!-- Generated by graphviz version 2.36.0 (20140111.2315)
 -->
<!-- Title: slogo.UI.ToroidalHelper.checkXBounds Pages: 1 -->
<!--zoomable 427 -->
<svg id="main" version="1.1" xmlns="http://www.w3.org/2000/svg" xmlns:xlink="http://www.w3.org/1999/xlink" xml:space="preserve" onload="init(evt)">
<style type="text/css"><![CDATA[
.edge:hover path { stroke: red; }
.edge:hover polygon { stroke: red; fill: red; }
]]></style>
<script type="text/javascript"><![CDATA[
var edges = document.getElementsByTagName('g');
if (edges && edges.length) {
  for (var i=0;i<edges.length;i++) {
    if (edges[i].id.substr(0,4)=='edge') {
      edges[i].setAttribute('class','edge');
    }
  }
}
]]></script>
        <defs>
                <circle id="rim" cx="0" cy="0" r="7"/>
                <circle id="rim2" cx="0" cy="0" r="3.5"/>
                <g id="zoomPlus">
                        <use xlink:href="#rim" fill="#404040">
                                <set attributeName="fill" to="#808080" begin="zoomplus.mouseover" end="zoomplus.mouseout"/>
                        </use>
                        <path d="M-4,0h8M0,-4v8" fill="none" stroke="white" stroke-width="1.5" pointer-events="none"/>
                </g>
                <g id="zoomMin">
                        <use xlink:href="#rim" fill="#404040">
                                <set attributeName="fill" to="#808080" begin="zoomminus.mouseover" end="zoomminus.mouseout"/>
                        </use>
                        <path d="M-4,0h8" fill="none" stroke="white" stroke-width="1.5" pointer-events="none"/>
                </g>
                <g id="dirArrow">
                        <path fill="none" stroke="white" stroke-width="1.5" d="M0,-3.0v7 M-2.5,-0.5L0,-3.0L2.5,-0.5"/>
                </g>
               <g id="resetDef">
                       <use xlink:href="#rim2" fill="#404040">
                               <set attributeName="fill" to="#808080" begin="reset.mouseover" end="reset.mouseout"/>
                       </use>
               </g>
        </defs>

<script type="text/javascript">
var viewWidth = 3704;
var viewHeight = 427;
var sectionId = 'dynsection-5';
</script>
<script xlink:href="../../svgpan.js"/>
<svg id="graph" class="graph">
<g id="viewport">
<title>slogo.UI.ToroidalHelper.checkXBounds</title>
<polygon fill="white" stroke="none" points="-4,4 -4,-423 3700,-423 3700,4 -4,4"/>
<!-- Node1 -->
<g id="node1" class="node"><title>Node1</title>
<polygon fill="#bfbfbf" stroke="black" points="0.5,-74 0.5,-104 155.5,-104 155.5,-74 0.5,-74"/>
<text text-anchor="start" x="8.5" y="-92" font-family="Helvetica,sans-Serif" font-size="10.00">slogo.UI.ToroidalHelper.check</text>
<text text-anchor="middle" x="78" y="-81" font-family="Helvetica,sans-Serif" font-size="10.00">XBounds</text>
</g>
<!-- Node2 -->
<g id="node2" class="node"><title>Node2</title>
<g id="a_node2"><a xlink:href="../../d0/d32/classslogo_1_1_u_i_1_1_toroidal_helper.html#afe4f76a7e0638e9a7f99ee8918a5b863" target="_top" xlink:title="slogo.UI.ToroidalHelper.check\lEndBounds">
<polygon fill="white" stroke="black" points="192.5,-25 192.5,-55 347.5,-55 347.5,-25 192.5,-25"/>
<text text-anchor="start" x="200.5" y="-43" font-family="Helvetica,sans-Serif" font-size="10.00">slogo.UI.ToroidalHelper.check</text>
<text text-anchor="middle" x="270" y="-32" font-family="Helvetica,sans-Serif" font-size="10.00">EndBounds</text>
</a>
</g>
</g>
<!-- Node1&#45;&gt;Node2 -->
<g id="edge1" class="edge"><title>Node1&#45;&gt;Node2</title>
<path fill="none" stroke="midnightblue" d="M147.05,-71.4502C167.915,-66.0694 190.67,-60.201 210.813,-55.0062"/>
<polygon fill="midnightblue" stroke="midnightblue" points="146.107,-68.079 137.297,-73.9654 147.855,-74.8572 146.107,-68.079"/>
</g>
<!-- Node37 -->
<g id="node37" class="node"><title>Node37</title>
<g id="a_node37"><a xlink:href="../../d0/d32/classslogo_1_1_u_i_1_1_toroidal_helper.html#a366128809cd6506ca8d776c625a19da2" target="_top" xlink:title="slogo.UI.ToroidalHelper.run\lLineXShift">
<polygon fill="white" stroke="black" points="198.5,-74 198.5,-104 341.5,-104 341.5,-74 198.5,-74"/>
<text text-anchor="start" x="206.5" y="-92" font-family="Helvetica,sans-Serif" font-size="10.00">slogo.UI.ToroidalHelper.run</text>
<text text-anchor="middle" x="270" y="-81" font-family="Helvetica,sans-Serif" font-size="10.00">LineXShift</text>
</a>
</g>
</g>
<!-- Node1&#45;&gt;Node37 -->
<g id="edge46" class="edge"><title>Node1&#45;&gt;Node37</title>
<path fill="none" stroke="midnightblue" d="M166.064,-89C176.904,-89 187.882,-89 198.429,-89"/>
<polygon fill="midnightblue" stroke="midnightblue" points="165.733,-85.5001 155.733,-89 165.733,-92.5001 165.733,-85.5001"/>
</g>
<!-- Node39 -->
<g id="node39" class="node"><title>Node39</title>
<g id="a_node39"><a xlink:href="../../d0/d32/classslogo_1_1_u_i_1_1_toroidal_helper.html#a6ff252815c642ce9b37ff6c50f9cc466" target="_top" xlink:title="slogo.UI.ToroidalHelper.run\lXCalculations">
<polygon fill="white" stroke="black" points="198.5,-123 198.5,-153 341.5,-153 341.5,-123 198.5,-123"/>
<text text-anchor="start" x="206.5" y="-141" font-family="Helvetica,sans-Serif" font-size="10.00">slogo.UI.ToroidalHelper.run</text>
<text text-anchor="middle" x="270" y="-130" font-family="Helvetica,sans-Serif" font-size="10.00">XCalculations</text>
</a>
</g>
</g>
<!-- Node1&#45;&gt;Node39 -->
<g id="edge49" class="edge"><title>Node1&#45;&gt;Node39</title>
<path fill="none" stroke="midnightblue" d="M147.05,-106.55C167.915,-111.931 190.67,-117.799 210.813,-122.994"/>
<polygon fill="midnightblue" stroke="midnightblue" points="147.855,-103.143 137.297,-104.035 146.107,-109.921 147.855,-103.143"/>
</g>
<!-- Node3 -->
<g id="node3" class="node"><title>Node3</title>
<g id="a_node3"><a xlink:href="../../d0/d32/classslogo_1_1_u_i_1_1_toroidal_helper.html#adaa10c52a1bea944e7469a8a258891b1" target="_top" xlink:title="slogo.UI.ToroidalHelper.check\lAllBounds">
<polygon fill="white" stroke="black" points="384.5,-47 384.5,-77 539.5,-77 539.5,-47 384.5,-47"/>
<text text-anchor="start" x="392.5" y="-65" font-family="Helvetica,sans-Serif" font-size="10.00">slogo.UI.ToroidalHelper.check</text>
<text text-anchor="middle" x="462" y="-54" font-family="Helvetica,sans-Serif" font-size="10.00">AllBounds</text>
</a>
</g>
</g>
<!-- Node2&#45;&gt;Node3 -->
<g id="edge2" class="edge"><title>Node2&#45;&gt;Node3</title>
<path fill="none" stroke="midnightblue" d="M357.692,-50.038C366.565,-51.0654 375.535,-52.1041 384.29,-53.1178"/>
<polygon fill="midnightblue" stroke="midnightblue" points="358.069,-46.5584 347.733,-48.8848 357.264,-53.5119 358.069,-46.5584"/>
</g>
<!-- Node4 -->
<g id="node4" class="node"><title>Node4</title>
<g id="a_node4"><a xlink:href="../../d0/d32/classslogo_1_1_u_i_1_1_toroidal_helper.html#a3310ad36e6dae43f4741e3a67ebd0144" target="_top" xlink:title="slogo.UI.ToroidalHelper.make\lLinesToroidal">
<polygon fill="white" stroke="black" points="576.5,-49 576.5,-79 731.5,-79 731.5,-49 576.5,-49"/>
<text text-anchor="start" x="584.5" y="-67" font-family="Helvetica,sans-Serif" font-size="10.00">slogo.UI.ToroidalHelper.make</text>
<text text-anchor="middle" x="654" y="-56" font-family="Helvetica,sans-Serif" font-size="10.00">LinesToroidal</text>
</a>
</g>
</g>
<!-- Node2&#45;&gt;Node4 -->
<g id="edge3" class="edge"><title>Node2&#45;&gt;Node4</title>
<path fill="none" stroke="midnightblue" d="M357.531,-33.4217C410.413,-30.7923 479.322,-29.8514 540,-37 560.332,-39.3954 582.305,-44.1357 601.422,-48.9849"/>
<polygon fill="midnightblue" stroke="midnightblue" points="357.315,-29.9281 347.513,-33.9494 357.683,-36.9184 357.315,-29.9281"/>
</g>
<!-- Node5 -->
<g id="node5" class="node"><title>Node5</title>
<g id="a_node5"><a xlink:href="../../d9/d7e/classslogo_1_1_u_i_1_1_method_runner.html#ae05c629b80fe3379d77aea026b58b1ae" target="_top" xlink:title="slogo.UI.MethodRunner.draw\lLinesUsingToroidal">
<polygon fill="white" stroke="black" points="768,-49 768,-79 920,-79 920,-49 768,-49"/>
<text text-anchor="start" x="776" y="-67" font-family="Helvetica,sans-Serif" font-size="10.00">slogo.UI.MethodRunner.draw</text>
<text text-anchor="middle" x="844" y="-56" font-family="Helvetica,sans-Serif" font-size="10.00">LinesUsingToroidal</text>
</a>
</g>
</g>
<!-- Node4&#45;&gt;Node5 -->
<g id="edge4" class="edge"><title>Node4&#45;&gt;Node5</title>
<path fill="none" stroke="midnightblue" d="M741.834,-64C750.481,-64 759.209,-64 767.724,-64"/>
<polygon fill="midnightblue" stroke="midnightblue" points="741.738,-60.5001 731.738,-64 741.738,-67.5001 741.738,-60.5001"/>
</g>
<!-- Node6 -->
<g id="node6" class="node"><title>Node6</title>
<g id="a_node6"><a xlink:href="../../d9/d7e/classslogo_1_1_u_i_1_1_method_runner.html#a1ab80948935d4a625cf3313eabe9a51d" target="_top" xlink:title="slogo.UI.MethodRunner.move\lTurtle">
<polygon fill="white" stroke="black" points="956,-49 956,-79 1112,-79 1112,-49 956,-49"/>
<text text-anchor="start" x="964" y="-67" font-family="Helvetica,sans-Serif" font-size="10.00">slogo.UI.MethodRunner.move</text>
<text text-anchor="middle" x="1034" y="-56" font-family="Helvetica,sans-Serif" font-size="10.00">Turtle</text>
</a>
</g>
</g>
<!-- Node5&#45;&gt;Node6 -->
<g id="edge5" class="edge"><title>Node5&#45;&gt;Node6</title>
<path fill="none" stroke="midnightblue" d="M930.117,-64C938.693,-64 947.369,-64 955.855,-64"/>
<polygon fill="midnightblue" stroke="midnightblue" points="930.113,-60.5001 920.113,-64 930.113,-67.5001 930.113,-60.5001"/>
</g>
<!-- Node7 -->
<g id="node7" class="node"><title>Node7</title>
<g id="a_node7"><a xlink:href="../../d9/d7e/classslogo_1_1_u_i_1_1_method_runner.html#a5fe4a6310ba1b0851d7d30a440511324" target="_top" xlink:title="slogo.UI.MethodRunner.change\lTurtle">
<polygon fill="white" stroke="black" points="1148,-49 1148,-79 1312,-79 1312,-49 1148,-49"/>
<text text-anchor="start" x="1156" y="-67" font-family="Helvetica,sans-Serif" font-size="10.00">slogo.UI.MethodRunner.change</text>
<text text-anchor="middle" x="1230" y="-56" font-family="Helvetica,sans-Serif" font-size="10.00">Turtle</text>
</a>
</g>
</g>
<!-- Node6&#45;&gt;Node7 -->
<g id="edge6" class="edge"><title>Node6&#45;&gt;Node7</title>
<path fill="none" stroke="midnightblue" d="M1122.49,-64C1130.95,-64 1139.5,-64 1147.9,-64"/>
<polygon fill="midnightblue" stroke="midnightblue" points="1122.23,-60.5001 1112.23,-64 1122.23,-67.5001 1122.23,-60.5001"/>
</g>
<!-- Node8 -->
<g id="node8" class="node"><title>Node8</title>
<g id="a_node8"><a xlink:href="../../df/d2d/classslogo_1_1_view.html#accc79c56511a72090ff8a4d414b8d1f5" target="_top" xlink:title="slogo.View.executeTurtle\lCommands">
<polygon fill="white" stroke="black" points="1348.5,-49 1348.5,-79 1481.5,-79 1481.5,-49 1348.5,-49"/>
<text text-anchor="start" x="1356.5" y="-67" font-family="Helvetica,sans-Serif" font-size="10.00">slogo.View.executeTurtle</text>
<text text-anchor="middle" x="1415" y="-56" font-family="Helvetica,sans-Serif" font-size="10.00">Commands</text>
</a>
</g>
</g>
<!-- Node7&#45;&gt;Node8 -->
<g id="edge7" class="edge"><title>Node7&#45;&gt;Node8</title>
<path fill="none" stroke="midnightblue" d="M1322.35,-64C1331.13,-64 1339.91,-64 1348.37,-64"/>
<polygon fill="midnightblue" stroke="midnightblue" points="1322.07,-60.5001 1312.07,-64 1322.07,-67.5001 1322.07,-60.5001"/>
</g>
<!-- Node9 -->
<g id="node9" class="node"><title>Node9</title>
<g id="a_node9"><a xlink:href="../../df/d2d/classslogo_1_1_view.html#aa90e5d95d422b58b7f4b7f8a049defe1" target="_top" xlink:title="slogo.View.executeCommand">
<polygon fill="white" stroke="black" points="1518,-54.5 1518,-73.5 1676,-73.5 1676,-54.5 1518,-54.5"/>
<text text-anchor="middle" x="1597" y="-61.5" font-family="Helvetica,sans-Serif" font-size="10.00">slogo.View.executeCommand</text>
</a>
</g>
</g>
<!-- Node8&#45;&gt;Node9 -->
<g id="edge8" class="edge"><title>Node8&#45;&gt;Node9</title>
<path fill="none" stroke="midnightblue" d="M1491.78,-64C1500.42,-64 1509.24,-64 1517.9,-64"/>
<polygon fill="midnightblue" stroke="midnightblue" points="1491.75,-60.5001 1481.75,-64 1491.75,-67.5001 1491.75,-60.5001"/>
</g>
<!-- Node10 -->
<g id="node10" class="node"><title>Node10</title>
<g id="a_node10"><a xlink:href="../../df/d2d/classslogo_1_1_view.html#aee563f6a0b15ac6668e4dcbdad40c73c" target="_top" xlink:title="slogo.View.sendCommandTo\lBackend">
<polygon fill="white" stroke="black" points="1718,-213 1718,-243 1870,-243 1870,-213 1718,-213"/>
<text text-anchor="start" x="1726" y="-231" font-family="Helvetica,sans-Serif" font-size="10.00">slogo.View.sendCommandTo</text>
<text text-anchor="middle" x="1794" y="-220" font-family="Helvetica,sans-Serif" font-size="10.00">Backend</text>
</a>
</g>
</g>
<!-- Node9&#45;&gt;Node10 -->
<g id="edge9" class="edge"><title>Node9&#45;&gt;Node10</title>
<path fill="none" stroke="midnightblue" d="M1617.05,-80.0252C1654.77,-111.741 1738.43,-182.108 1775.15,-212.984"/>
<polygon fill="midnightblue" stroke="midnightblue" points="1619.23,-77.2841 1609.33,-73.5262 1614.73,-82.6414 1619.23,-77.2841"/>
</g>
<!-- Node30 -->
<g id="node30" class="node"><title>Node30</title>
<g id="a_node30"><a xlink:href="../../df/d2d/classslogo_1_1_view.html#a4c3084a198acf85804800d70eff9ee51" target="_top" xlink:title="slogo.View.stepIntoCommand">
<polygon fill="white" stroke="black" points="1715,-54.5 1715,-73.5 1873,-73.5 1873,-54.5 1715,-54.5"/>
<text text-anchor="middle" x="1794" y="-61.5" font-family="Helvetica,sans-Serif" font-size="10.00">slogo.View.stepIntoCommand</text>
</a>
</g>
</g>
<!-- Node9&#45;&gt;Node30 -->
<g id="edge37" class="edge"><title>Node9&#45;&gt;Node30</title>
<path fill="none" stroke="midnightblue" d="M1686.4,-64C1695.87,-64 1705.45,-64 1714.79,-64"/>
<polygon fill="midnightblue" stroke="midnightblue" points="1686.19,-60.5001 1676.19,-64 1686.19,-67.5001 1686.19,-60.5001"/>
</g>
<!-- Node34 -->
<g id="node34" class="node"><title>Node34</title>
<g id="a_node34"><a xlink:href="../../df/d2d/classslogo_1_1_view.html#ac8b7f574c679e744a430f1649dc55e68" target="_top" xlink:title="slogo.View.stepOverCommand">
<polygon fill="white" stroke="black" points="1712.5,-11.5 1712.5,-30.5 1875.5,-30.5 1875.5,-11.5 1712.5,-11.5"/>
<text text-anchor="middle" x="1794" y="-18.5" font-family="Helvetica,sans-Serif" font-size="10.00">slogo.View.stepOverCommand</text>
</a>
</g>
</g>
<!-- Node9&#45;&gt;Node34 -->
<g id="edge42" class="edge"><title>Node9&#45;&gt;Node34</title>
<path fill="none" stroke="midnightblue" d="M1651.06,-52.3005C1682.07,-45.462 1720.71,-36.9406 1749.84,-30.5164"/>
<polygon fill="midnightblue" stroke="midnightblue" points="1650.29,-48.8855 1641.28,-54.4569 1651.8,-55.7213 1650.29,-48.8855"/>
</g>
<!-- Node11 -->
<g id="node11" class="node"><title>Node11</title>
<g id="a_node11"><a xlink:href="../../db/d19/classslogo_1_1_u_i_1_1_module_creation_helper.html#a69e17abcc7cf9a6ed7261d8fb1d631fa" target="_top" xlink:title="slogo.UI.ModuleCreationHelper.activate\lIncreaseDecreaseButtons">
<polygon fill="white" stroke="black" points="1912.5,-389 1912.5,-419 2117.5,-419 2117.5,-389 1912.5,-389"/>
<text text-anchor="start" x="1920.5" y="-407" font-family="Helvetica,sans-Serif" font-size="10.00">slogo.UI.ModuleCreationHelper.activate</text>
<text text-anchor="middle" x="2015" y="-396" font-family="Helvetica,sans-Serif" font-size="10.00">IncreaseDecreaseButtons</text>
</a>
</g>
</g>
<!-- Node10&#45;&gt;Node11 -->
<g id="edge10" class="edge"><title>Node10&#45;&gt;Node11</title>
<path fill="none" stroke="midnightblue" d="M1808.04,-252.219C1826.78,-284.724 1864.36,-342.06 1912,-374 1921.12,-380.116 1931.51,-385.01 1942.09,-388.919"/>
<polygon fill="midnightblue" stroke="midnightblue" points="1811.01,-250.361 1803.05,-243.368 1804.91,-253.798 1811.01,-250.361"/>
</g>
<!-- Node18 -->
<g id="node18" class="node"><title>Node18</title>
<g id="a_node18"><a xlink:href="../../db/d19/classslogo_1_1_u_i_1_1_module_creation_helper.html#aa70b0ad9e90e62509149bfd2ef2ba209" target="_top" xlink:title="slogo.UI.ModuleCreationHelper.activate\lKeyEvents">
<polygon fill="white" stroke="black" points="2638.5,-136 2638.5,-166 2843.5,-166 2843.5,-136 2638.5,-136"/>
<text text-anchor="start" x="2646.5" y="-154" font-family="Helvetica,sans-Serif" font-size="10.00">slogo.UI.ModuleCreationHelper.activate</text>
<text text-anchor="middle" x="2741" y="-143" font-family="Helvetica,sans-Serif" font-size="10.00">KeyEvents</text>
</a>
</g>
</g>
<!-- Node10&#45;&gt;Node18 -->
<g id="edge18" class="edge"><title>Node10&#45;&gt;Node18</title>
<path fill="none" stroke="midnightblue" d="M1824.18,-207.164C1846.9,-192.251 1879.88,-173.388 1912,-165 2046.15,-129.97 2448.16,-139.777 2638.26,-146.744"/>
<polygon fill="midnightblue" stroke="midnightblue" points="1822.05,-204.378 1815.7,-212.86 1825.95,-210.189 1822.05,-204.378"/>
</g>
<!-- Node19 -->
<g id="node19" class="node"><title>Node19</title>
<g id="a_node19"><a xlink:href="../../db/d19/classslogo_1_1_u_i_1_1_module_creation_helper.html#a2e841243ec3ca474e8822102343acc88" target="_top" xlink:title="slogo.UI.ModuleCreationHelper.activate\lNewTurtleButton">
<polygon fill="white" stroke="black" points="2154.5,-344 2154.5,-374 2359.5,-374 2359.5,-344 2154.5,-344"/>
<text text-anchor="start" x="2162.5" y="-362" font-family="Helvetica,sans-Serif" font-size="10.00">slogo.UI.ModuleCreationHelper.activate</text>
<text text-anchor="middle" x="2257" y="-351" font-family="Helvetica,sans-Serif" font-size="10.00">NewTurtleButton</text>
</a>
</g>
</g>
<!-- Node10&#45;&gt;Node19 -->
<g id="edge20" class="edge"><title>Node10&#45;&gt;Node19</title>
<path fill="none" stroke="midnightblue" d="M1811.02,-251.155C1831.1,-278.009 1868.24,-321.013 1912,-340 1988.41,-373.152 2083.47,-375.86 2154.29,-371.435"/>
<polygon fill="midnightblue" stroke="midnightblue" points="1813.83,-249.073 1805.11,-243.055 1808.18,-253.197 1813.83,-249.073"/>
</g>
<!-- Node21 -->
<g id="node21" class="node"><title>Node21</title>
<g id="a_node21"><a xlink:href="../../db/d19/classslogo_1_1_u_i_1_1_module_creation_helper.html#a9b1f07ab673191067907a059b1b0c524" target="_top" xlink:title="slogo.UI.ModuleCreationHelper.activate\lPlayButton">
<polygon fill="white" stroke="black" points="1912.5,-301 1912.5,-331 2117.5,-331 2117.5,-301 1912.5,-301"/>
<text text-anchor="start" x="1920.5" y="-319" font-family="Helvetica,sans-Serif" font-size="10.00">slogo.UI.ModuleCreationHelper.activate</text>
<text text-anchor="middle" x="2015" y="-308" font-family="Helvetica,sans-Serif" font-size="10.00">PlayButton</text>
</a>
</g>
</g>
<!-- Node10&#45;&gt;Node21 -->
<g id="edge23" class="edge"><title>Node10&#45;&gt;Node21</title>
<path fill="none" stroke="midnightblue" d="M1827.42,-248.354C1850.33,-262.006 1882.16,-279.522 1912,-291 1921.7,-294.73 1932.14,-298.039 1942.5,-300.929"/>
<polygon fill="midnightblue" stroke="midnightblue" points="1829.16,-245.317 1818.79,-243.145 1825.54,-251.31 1829.16,-245.317"/>
</g>
<!-- Node24 -->
<g id="node24" class="node"><title>Node24</title>
<g id="a_node24"><a xlink:href="../../db/d19/classslogo_1_1_u_i_1_1_module_creation_helper.html#a3a38d485562cb17591ec3fd07cffc18a" target="_top" xlink:title="slogo.UI.ModuleCreationHelper.activate\lTurtleCanvas">
<polygon fill="white" stroke="black" points="2396.5,-87 2396.5,-117 2601.5,-117 2601.5,-87 2396.5,-87"/>
<text text-anchor="start" x="2404.5" y="-105" font-family="Helvetica,sans-Serif" font-size="10.00">slogo.UI.ModuleCreationHelper.activate</text>
<text text-anchor="middle" x="2499" y="-94" font-family="Helvetica,sans-Serif" font-size="10.00">TurtleCanvas</text>
</a>
</g>
</g>
<!-- Node10&#45;&gt;Node24 -->
<g id="edge27" class="edge"><title>Node10&#45;&gt;Node24</title>
<path fill="none" stroke="midnightblue" d="M1814.37,-205.232C1835.63,-182.064 1872.1,-147.434 1912,-132 1997.51,-98.92 2252.48,-97.5272 2396.33,-99.6157"/>
<polygon fill="midnightblue" stroke="midnightblue" points="1811.56,-203.115 1807.5,-212.898 1816.78,-207.786 1811.56,-203.115"/>
</g>
<!-- Node26 -->
<g id="node26" class="node"><title>Node26</title>
<g id="a_node26"><a xlink:href="../../d1/d5f/classslogo_1_1_u_i_1_1_path_color_selector.html#ad3d9c82a0904c97edcec7cf67b85bd7b" target="_top" xlink:title="slogo.UI.PathColorSelector.create">
<polygon fill="white" stroke="black" points="1927,-262.5 1927,-281.5 2103,-281.5 2103,-262.5 1927,-262.5"/>
<text text-anchor="middle" x="2015" y="-269.5" font-family="Helvetica,sans-Serif" font-size="10.00">slogo.UI.PathColorSelector.create</text>
</a>
</g>
</g>
<!-- Node10&#45;&gt;Node26 -->
<g id="edge30" class="edge"><title>Node10&#45;&gt;Node26</title>
<path fill="none" stroke="midnightblue" d="M1877.74,-245.065C1889.24,-247.411 1900.91,-249.776 1912,-252 1929.25,-255.46 1948.16,-259.186 1964.95,-262.473"/>
<polygon fill="midnightblue" stroke="midnightblue" points="1878.19,-241.585 1867.69,-243.013 1876.79,-248.443 1878.19,-241.585"/>
</g>
<!-- Node28 -->
<g id="node28" class="node"><title>Node28</title>
<g id="a_node28"><a xlink:href="../../d4/d8d/classslogo_1_1_u_i_1_1_background_color_selector.html#ad75ba4ce104e071811d0fe039a4e839f" target="_top" xlink:title="slogo.UI.BackgroundColor\lSelector.create">
<polygon fill="white" stroke="black" points="1945,-213 1945,-243 2085,-243 2085,-213 1945,-213"/>
<text text-anchor="start" x="1953" y="-231" font-family="Helvetica,sans-Serif" font-size="10.00">slogo.UI.BackgroundColor</text>
<text text-anchor="middle" x="2015" y="-220" font-family="Helvetica,sans-Serif" font-size="10.00">Selector.create</text>
</a>
</g>
</g>
<!-- Node10&#45;&gt;Node28 -->
<g id="edge33" class="edge"><title>Node10&#45;&gt;Node28</title>
<path fill="none" stroke="midnightblue" d="M1880.14,-228C1901.6,-228 1924.37,-228 1944.93,-228"/>
<polygon fill="midnightblue" stroke="midnightblue" points="1880.06,-224.5 1870.06,-228 1880.06,-231.5 1880.06,-224.5"/>
</g>
<!-- Node29 -->
<g id="node29" class="node"><title>Node29</title>
<g id="a_node29"><a xlink:href="../../dd/da7/classslogo_1_1_u_i_1_1_turtle_image_selector.html#a3f268d9196ffebcbb5dc322d2897a9fe" target="_top" xlink:title="slogo.UI.TurtleImageSelector.create">
<polygon fill="white" stroke="black" points="1922,-174.5 1922,-193.5 2108,-193.5 2108,-174.5 1922,-174.5"/>
<text text-anchor="middle" x="2015" y="-181.5" font-family="Helvetica,sans-Serif" font-size="10.00">slogo.UI.TurtleImageSelector.create</text>
</a>
</g>
</g>
<!-- Node10&#45;&gt;Node29 -->
<g id="edge35" class="edge"><title>Node10&#45;&gt;Node29</title>
<path fill="none" stroke="midnightblue" d="M1874.01,-210.821C1886.7,-208.147 1899.71,-205.458 1912,-203 1927.99,-199.804 1945.42,-196.493 1961.27,-193.548"/>
<polygon fill="midnightblue" stroke="midnightblue" points="1872.98,-207.463 1863.92,-212.958 1874.43,-214.311 1872.98,-207.463"/>
</g>
<!-- Node12 -->
<g id="node12" class="node"><title>Node12</title>
<g id="a_node12"><a xlink:href="../../db/d19/classslogo_1_1_u_i_1_1_module_creation_helper.html#adce7362386f9a7b3006e7db08a2d578d" target="_top" xlink:title="slogo.UI.ModuleCreationHelper.create\lIncreaseDecreaseButtons">
<polygon fill="white" stroke="black" points="2400.5,-380 2400.5,-410 2597.5,-410 2597.5,-380 2400.5,-380"/>
<text text-anchor="start" x="2408.5" y="-398" font-family="Helvetica,sans-Serif" font-size="10.00">slogo.UI.ModuleCreationHelper.create</text>
<text text-anchor="middle" x="2499" y="-387" font-family="Helvetica,sans-Serif" font-size="10.00">IncreaseDecreaseButtons</text>
</a>
</g>
</g>
<!-- Node11&#45;&gt;Node12 -->
<g id="edge11" class="edge"><title>Node11&#45;&gt;Node12</title>
<path fill="none" stroke="midnightblue" d="M2127.79,-401.913C2210.23,-400.373 2321.29,-398.299 2400.21,-396.826"/>
<polygon fill="midnightblue" stroke="midnightblue" points="2127.56,-398.416 2117.63,-402.102 2127.69,-405.415 2127.56,-398.416"/>
</g>
<!-- Node13 -->
<g id="node13" class="node"><title>Node13</title>
<g id="a_node13"><a xlink:href="../../db/d19/classslogo_1_1_u_i_1_1_module_creation_helper.html#a7c650957b2389d6e6d36e8be8a33cd2b" target="_top" xlink:title="slogo.UI.ModuleCreationHelper.create\lSelectorVBoxModules">
<polygon fill="white" stroke="black" points="2642.5,-253 2642.5,-283 2839.5,-283 2839.5,-253 2642.5,-253"/>
<text text-anchor="start" x="2650.5" y="-271" font-family="Helvetica,sans-Serif" font-size="10.00">slogo.UI.ModuleCreationHelper.create</text>
<text text-anchor="middle" x="2741" y="-260" font-family="Helvetica,sans-Serif" font-size="10.00">SelectorVBoxModules</text>
</a>
</g>
</g>
<!-- Node12&#45;&gt;Node13 -->
<g id="edge12" class="edge"><title>Node12&#45;&gt;Node13</title>
<path fill="none" stroke="midnightblue" d="M2583,-376.732C2589.54,-374.424 2595.95,-371.854 2602,-369 2650.6,-346.077 2699.46,-305.079 2723.92,-283.025"/>
<polygon fill="midnightblue" stroke="midnightblue" points="2581.75,-373.461 2573.36,-379.93 2583.95,-380.105 2581.75,-373.461"/>
</g>
<!-- Node14 -->
<g id="node14" class="node"><title>Node14</title>
<g id="a_node14"><a xlink:href="../../db/d19/classslogo_1_1_u_i_1_1_module_creation_helper.html#afb9dbbbad7d872234a5b296fe129a34e" target="_top" xlink:title="slogo.UI.ModuleCreationHelper.create\lMainPageModules">
<polygon fill="white" stroke="black" points="2880.5,-136 2880.5,-166 3077.5,-166 3077.5,-136 2880.5,-136"/>
<text text-anchor="start" x="2888.5" y="-154" font-family="Helvetica,sans-Serif" font-size="10.00">slogo.UI.ModuleCreationHelper.create</text>
<text text-anchor="middle" x="2979" y="-143" font-family="Helvetica,sans-Serif" font-size="10.00">MainPageModules</text>
</a>
</g>
</g>
<!-- Node13&#45;&gt;Node14 -->
<g id="edge13" class="edge"><title>Node13&#45;&gt;Node14</title>
<path fill="none" stroke="midnightblue" d="M2781.58,-248.38C2828.29,-225.222 2904.96,-187.212 2947.37,-166.184"/>
<polygon fill="midnightblue" stroke="midnightblue" points="2779.77,-245.366 2772.37,-252.944 2782.88,-251.638 2779.77,-245.366"/>
</g>
<!-- Node15 -->
<g id="node15" class="node"><title>Node15</title>
<g id="a_node15"><a xlink:href="../../d9/d33/classslogo_1_1_u_i_1_1_main.html#a15b7f2e399ee24d160550993ab737e73" target="_top" xlink:title="slogo.UI.Main.start">
<polygon fill="white" stroke="black" points="3114,-150.5 3114,-169.5 3220,-169.5 3220,-150.5 3114,-150.5"/>
<text text-anchor="middle" x="3167" y="-157.5" font-family="Helvetica,sans-Serif" font-size="10.00">slogo.UI.Main.start</text>
</a>
</g>
</g>
<!-- Node14&#45;&gt;Node15 -->
<g id="edge14" class="edge"><title>Node14&#45;&gt;Node15</title>
<path fill="none" stroke="midnightblue" d="M3087.8,-156.216C3096.76,-156.65 3105.53,-157.074 3113.76,-157.472"/>
<polygon fill="midnightblue" stroke="midnightblue" points="3087.79,-152.712 3077.63,-155.724 3087.45,-159.703 3087.79,-152.712"/>
</g>
<!-- Node16 -->
<g id="node16" class="node"><title>Node16</title>
<g id="a_node16"><a xlink:href="../../db/d19/classslogo_1_1_u_i_1_1_module_creation_helper.html#a3be12a7cc2b8a219db1e296211a2cb88" target="_top" xlink:title="slogo.UI.ModuleCreationHelper.activate\lExtraWorkspaceButton">
<polygon fill="white" stroke="black" points="3256.5,-163 3256.5,-193 3461.5,-193 3461.5,-163 3256.5,-163"/>
<text text-anchor="start" x="3264.5" y="-181" font-family="Helvetica,sans-Serif" font-size="10.00">slogo.UI.ModuleCreationHelper.activate</text>
<text text-anchor="middle" x="3359" y="-170" font-family="Helvetica,sans-Serif" font-size="10.00">ExtraWorkspaceButton</text>
</a>
</g>
</g>
<!-- Node15&#45;&gt;Node16 -->
<g id="edge15" class="edge"><title>Node15&#45;&gt;Node16</title>
<path fill="none" stroke="midnightblue" d="M3230.22,-165.894C3238.63,-166.691 3247.44,-167.526 3256.32,-168.367"/>
<polygon fill="midnightblue" stroke="midnightblue" points="3230.46,-162.401 3220.17,-164.942 3229.79,-169.37 3230.46,-162.401"/>
</g>
<!-- Node17 -->
<g id="node17" class="node"><title>Node17</title>
<g id="a_node17"><a xlink:href="../../db/d19/classslogo_1_1_u_i_1_1_module_creation_helper.html#a702c1ebe24d2857a10c666eb1fcc315d" target="_top" xlink:title="slogo.UI.ModuleCreationHelper.create\lExtraWorkspaceButton">
<polygon fill="white" stroke="black" points="3498.5,-189 3498.5,-219 3695.5,-219 3695.5,-189 3498.5,-189"/>
<text text-anchor="start" x="3506.5" y="-207" font-family="Helvetica,sans-Serif" font-size="10.00">slogo.UI.ModuleCreationHelper.create</text>
<text text-anchor="middle" x="3597" y="-196" font-family="Helvetica,sans-Serif" font-size="10.00">ExtraWorkspaceButton</text>
</a>
</g>
</g>
<!-- Node16&#45;&gt;Node17 -->
<g id="edge16" class="edge"><title>Node16&#45;&gt;Node17</title>
<path fill="none" stroke="midnightblue" d="M3471.77,-190.313C3480.62,-191.289 3489.52,-192.27 3498.27,-193.234"/>
<polygon fill="midnightblue" stroke="midnightblue" points="3472.12,-186.831 3461.8,-189.215 3471.35,-193.789 3472.12,-186.831"/>
</g>
<!-- Node17&#45;&gt;Node13 -->
<g id="edge17" class="edge"><title>Node17&#45;&gt;Node13</title>
<path fill="none" stroke="midnightblue" d="M3488.34,-212.068C3320.9,-224.617 3000.6,-248.62 2839.55,-260.69"/>
<polygon fill="midnightblue" stroke="midnightblue" points="3488.7,-215.551 3498.41,-211.313 3488.18,-208.571 3488.7,-215.551"/>
</g>
<!-- Node18&#45;&gt;Node14 -->
<g id="edge19" class="edge"><title>Node18&#45;&gt;Node14</title>
<path fill="none" stroke="midnightblue" d="M2854.05,-151C2862.81,-151 2871.62,-151 2880.27,-151"/>
<polygon fill="midnightblue" stroke="midnightblue" points="2853.8,-147.5 2843.8,-151 2853.8,-154.5 2853.8,-147.5"/>
</g>
<!-- Node20 -->
<g id="node20" class="node"><title>Node20</title>
<g id="a_node20"><a xlink:href="../../db/d19/classslogo_1_1_u_i_1_1_module_creation_helper.html#a07f5483df317cdf80e8ea2dda5699afa" target="_top" xlink:title="slogo.UI.ModuleCreationHelper.create\lNewTurtleButton">
<polygon fill="white" stroke="black" points="2400.5,-330 2400.5,-360 2597.5,-360 2597.5,-330 2400.5,-330"/>
<text text-anchor="start" x="2408.5" y="-348" font-family="Helvetica,sans-Serif" font-size="10.00">slogo.UI.ModuleCreationHelper.create</text>
<text text-anchor="middle" x="2499" y="-337" font-family="Helvetica,sans-Serif" font-size="10.00">NewTurtleButton</text>
</a>
</g>
</g>
<!-- Node19&#45;&gt;Node20 -->
<g id="edge21" class="edge"><title>Node19&#45;&gt;Node20</title>
<path fill="none" stroke="midnightblue" d="M2369.89,-352.473C2380.04,-351.881 2390.26,-351.285 2400.27,-350.701"/>
<polygon fill="midnightblue" stroke="midnightblue" points="2369.56,-348.986 2359.78,-353.063 2369.97,-355.974 2369.56,-348.986"/>
</g>
<!-- Node20&#45;&gt;Node13 -->
<g id="edge22" class="edge"><title>Node20&#45;&gt;Node13</title>
<path fill="none" stroke="midnightblue" d="M2570.15,-327.309C2580.87,-324.354 2591.76,-321.203 2602,-318 2635.93,-307.387 2673.86,-293.493 2701.35,-283.046"/>
<polygon fill="midnightblue" stroke="midnightblue" points="2569.12,-323.962 2560.39,-329.963 2570.96,-330.717 2569.12,-323.962"/>
</g>
<!-- Node22 -->
<g id="node22" class="node"><title>Node22</title>
<g id="a_node22"><a xlink:href="../../db/d19/classslogo_1_1_u_i_1_1_module_creation_helper.html#a9b3fb38a55b3b7812b4f793afa7a974f" target="_top" xlink:title="slogo.UI.ModuleCreationHelper.create\lPlayButton">
<polygon fill="white" stroke="black" points="2158.5,-295 2158.5,-325 2355.5,-325 2355.5,-295 2158.5,-295"/>
<text text-anchor="start" x="2166.5" y="-313" font-family="Helvetica,sans-Serif" font-size="10.00">slogo.UI.ModuleCreationHelper.create</text>
<text text-anchor="middle" x="2257" y="-302" font-family="Helvetica,sans-Serif" font-size="10.00">PlayButton</text>
</a>
</g>
</g>
<!-- Node21&#45;&gt;Node22 -->
<g id="edge24" class="edge"><title>Node21&#45;&gt;Node22</title>
<path fill="none" stroke="midnightblue" d="M2127.89,-313.203C2138.04,-312.949 2148.26,-312.694 2158.27,-312.443"/>
<polygon fill="midnightblue" stroke="midnightblue" points="2127.69,-309.707 2117.78,-313.455 2127.87,-316.704 2127.69,-309.707"/>
</g>
<!-- Node23 -->
<g id="node23" class="node"><title>Node23</title>
<g id="a_node23"><a xlink:href="../../db/d19/classslogo_1_1_u_i_1_1_module_creation_helper.html#ae1e60d37509c2e5eddcb2a6e70b4f650" target="_top" xlink:title="slogo.UI.ModuleCreationHelper.create\lFirstRowButtons">
<polygon fill="white" stroke="black" points="2400.5,-279 2400.5,-309 2597.5,-309 2597.5,-279 2400.5,-279"/>
<text text-anchor="start" x="2408.5" y="-297" font-family="Helvetica,sans-Serif" font-size="10.00">slogo.UI.ModuleCreationHelper.create</text>
<text text-anchor="middle" x="2499" y="-286" font-family="Helvetica,sans-Serif" font-size="10.00">FirstRowButtons</text>
</a>
</g>
</g>
<!-- Node22&#45;&gt;Node23 -->
<g id="edge25" class="edge"><title>Node22&#45;&gt;Node23</title>
<path fill="none" stroke="midnightblue" d="M2365.73,-302.818C2377.3,-302.046 2389.03,-301.265 2400.47,-300.502"/>
<polygon fill="midnightblue" stroke="midnightblue" points="2365.36,-299.335 2355.62,-303.492 2365.83,-306.319 2365.36,-299.335"/>
</g>
<!-- Node23&#45;&gt;Node13 -->
<g id="edge26" class="edge"><title>Node23&#45;&gt;Node13</title>
<path fill="none" stroke="midnightblue" d="M2607.73,-282.329C2619.3,-281.075 2631.03,-279.805 2642.47,-278.566"/>
<polygon fill="midnightblue" stroke="midnightblue" points="2607.18,-278.868 2597.62,-283.425 2607.94,-285.827 2607.18,-278.868"/>
</g>
<!-- Node25 -->
<g id="node25" class="node"><title>Node25</title>
<g id="a_node25"><a xlink:href="../../db/d19/classslogo_1_1_u_i_1_1_module_creation_helper.html#a803bac6b55bde712b21f2face1eeef81" target="_top" xlink:title="slogo.UI.ModuleCreationHelper.create\lTurtleCanvas">
<polygon fill="white" stroke="black" points="2642.5,-87 2642.5,-117 2839.5,-117 2839.5,-87 2642.5,-87"/>
<text text-anchor="start" x="2650.5" y="-105" font-family="Helvetica,sans-Serif" font-size="10.00">slogo.UI.ModuleCreationHelper.create</text>
<text text-anchor="middle" x="2741" y="-94" font-family="Helvetica,sans-Serif" font-size="10.00">TurtleCanvas</text>
</a>
</g>
</g>
<!-- Node24&#45;&gt;Node25 -->
<g id="edge28" class="edge"><title>Node24&#45;&gt;Node25</title>
<path fill="none" stroke="midnightblue" d="M2611.89,-102C2622.04,-102 2632.26,-102 2642.27,-102"/>
<polygon fill="midnightblue" stroke="midnightblue" points="2611.78,-98.5001 2601.78,-102 2611.78,-105.5 2611.78,-98.5001"/>
</g>
<!-- Node25&#45;&gt;Node14 -->
<g id="edge29" class="edge"><title>Node25&#45;&gt;Node14</title>
<path fill="none" stroke="midnightblue" d="M2824.42,-119.113C2850.9,-124.611 2880.03,-130.658 2905.73,-135.994"/>
<polygon fill="midnightblue" stroke="midnightblue" points="2824.91,-115.641 2814.41,-117.035 2823.49,-122.495 2824.91,-115.641"/>
</g>
<!-- Node27 -->
<g id="node27" class="node"><title>Node27</title>
<g id="a_node27"><a xlink:href="../../db/d19/classslogo_1_1_u_i_1_1_module_creation_helper.html#af7f2919454fdbf6e9d7d912e99634857" target="_top" xlink:title="slogo.UI.ModuleCreationHelper.create\lSelectors">
<polygon fill="white" stroke="black" points="2158.5,-230 2158.5,-260 2355.5,-260 2355.5,-230 2158.5,-230"/>
<text text-anchor="start" x="2166.5" y="-248" font-family="Helvetica,sans-Serif" font-size="10.00">slogo.UI.ModuleCreationHelper.create</text>
<text text-anchor="middle" x="2257" y="-237" font-family="Helvetica,sans-Serif" font-size="10.00">Selectors</text>
</a>
</g>
</g>
<!-- Node26&#45;&gt;Node27 -->
<g id="edge31" class="edge"><title>Node26&#45;&gt;Node27</title>
<path fill="none" stroke="midnightblue" d="M2110.76,-261.339C2126.36,-259.585 2142.54,-257.764 2158.21,-256.002"/>
<polygon fill="midnightblue" stroke="midnightblue" points="2110.16,-257.885 2100.62,-262.481 2110.94,-264.841 2110.16,-257.885"/>
</g>
<!-- Node27&#45;&gt;Node13 -->
<g id="edge32" class="edge"><title>Node27&#45;&gt;Node13</title>
<path fill="none" stroke="midnightblue" d="M2365.74,-250.141C2448.55,-254.092 2561.97,-259.505 2642.19,-263.333"/>
<polygon fill="midnightblue" stroke="midnightblue" points="2365.7,-246.635 2355.54,-249.654 2365.36,-253.627 2365.7,-246.635"/>
</g>
<!-- Node28&#45;&gt;Node27 -->
<g id="edge34" class="edge"><title>Node28&#45;&gt;Node27</title>
<path fill="none" stroke="midnightblue" d="M2095.18,-233.609C2115.4,-235.041 2137.37,-236.597 2158.39,-238.086"/>
<polygon fill="midnightblue" stroke="midnightblue" points="2095.32,-230.11 2085.1,-232.894 2094.82,-237.092 2095.32,-230.11"/>
</g>
<!-- Node29&#45;&gt;Node27 -->
<g id="edge36" class="edge"><title>Node29&#45;&gt;Node27</title>
<path fill="none" stroke="midnightblue" d="M2083.48,-195.473C2095.04,-197.752 2106.9,-200.287 2118,-203 2149.38,-210.673 2184.18,-221.278 2210.98,-229.911"/>
<polygon fill="midnightblue" stroke="midnightblue" points="2083.9,-191.99 2073.42,-193.539 2082.58,-198.864 2083.9,-191.99"/>
</g>
<!-- Node31 -->
<g id="node31" class="node"><title>Node31</title>
<g id="a_node31"><a xlink:href="../../db/d19/classslogo_1_1_u_i_1_1_module_creation_helper.html#a9fd730f7c1860d34bf4ac46c3828bd59" target="_top" xlink:title="slogo.UI.ModuleCreationHelper.activate\lStepIntoButton">
<polygon fill="white" stroke="black" points="1912.5,-49 1912.5,-79 2117.5,-79 2117.5,-49 1912.5,-49"/>
<text text-anchor="start" x="1920.5" y="-67" font-family="Helvetica,sans-Serif" font-size="10.00">slogo.UI.ModuleCreationHelper.activate</text>
<text text-anchor="middle" x="2015" y="-56" font-family="Helvetica,sans-Serif" font-size="10.00">StepIntoButton</text>
</a>
</g>
</g>
<!-- Node30&#45;&gt;Node31 -->
<g id="edge38" class="edge"><title>Node30&#45;&gt;Node31</title>
<path fill="none" stroke="midnightblue" d="M1883.33,-64C1892.82,-64 1902.54,-64 1912.17,-64"/>
<polygon fill="midnightblue" stroke="midnightblue" points="1883.14,-60.5001 1873.14,-64 1883.14,-67.5001 1883.14,-60.5001"/>
</g>
<!-- Node32 -->
<g id="node32" class="node"><title>Node32</title>
<g id="a_node32"><a xlink:href="../../db/d19/classslogo_1_1_u_i_1_1_module_creation_helper.html#a4a6f1f009507c25be8c7c28cbba35f3b" target="_top" xlink:title="slogo.UI.ModuleCreationHelper.create\lDebugStepIntoButton">
<polygon fill="white" stroke="black" points="2158.5,-49 2158.5,-79 2355.5,-79 2355.5,-49 2158.5,-49"/>
<text text-anchor="start" x="2166.5" y="-67" font-family="Helvetica,sans-Serif" font-size="10.00">slogo.UI.ModuleCreationHelper.create</text>
<text text-anchor="middle" x="2257" y="-56" font-family="Helvetica,sans-Serif" font-size="10.00">DebugStepIntoButton</text>
</a>
</g>
</g>
<!-- Node31&#45;&gt;Node32 -->
<g id="edge39" class="edge"><title>Node31&#45;&gt;Node32</title>
<path fill="none" stroke="midnightblue" d="M2127.89,-64C2138.04,-64 2148.26,-64 2158.27,-64"/>
<polygon fill="midnightblue" stroke="midnightblue" points="2127.78,-60.5001 2117.78,-64 2127.78,-67.5001 2127.78,-60.5001"/>
</g>
<!-- Node33 -->
<g id="node33" class="node"><title>Node33</title>
<g id="a_node33"><a xlink:href="../../db/d19/classslogo_1_1_u_i_1_1_module_creation_helper.html#a975af4ea47dc85df72215bdf1a0d20ce" target="_top" xlink:title="slogo.UI.ModuleCreationHelper.create\lDebugModules">
<polygon fill="white" stroke="black" points="2400.5,-38 2400.5,-68 2597.5,-68 2597.5,-38 2400.5,-38"/>
<text text-anchor="start" x="2408.5" y="-56" font-family="Helvetica,sans-Serif" font-size="10.00">slogo.UI.ModuleCreationHelper.create</text>
<text text-anchor="middle" x="2499" y="-45" font-family="Helvetica,sans-Serif" font-size="10.00">DebugModules</text>
</a>
</g>
</g>
<!-- Node32&#45;&gt;Node33 -->
<g id="edge40" class="edge"><title>Node32&#45;&gt;Node33</title>
<path fill="none" stroke="midnightblue" d="M2365.73,-59.0622C2377.3,-58.5319 2389.03,-57.9945 2400.47,-57.4702"/>
<polygon fill="midnightblue" stroke="midnightblue" points="2365.45,-55.5716 2355.62,-59.5259 2365.77,-62.5643 2365.45,-55.5716"/>
</g>
<!-- Node33&#45;&gt;Node14 -->
<g id="edge41" class="edge"><title>Node33&#45;&gt;Node14</title>
<path fill="none" stroke="midnightblue" d="M2607.63,-48.679C2676.53,-48.779 2767.11,-54.2973 2844,-77 2887.33,-89.7936 2932.2,-118.228 2957.46,-135.889"/>
<polygon fill="midnightblue" stroke="midnightblue" points="2607.61,-45.1789 2597.62,-48.7021 2607.63,-52.1789 2607.61,-45.1789"/>
</g>
<!-- Node35 -->
<g id="node35" class="node"><title>Node35</title>
<g id="a_node35"><a xlink:href="../../db/d19/classslogo_1_1_u_i_1_1_module_creation_helper.html#a0fed0bb32bf2643d6fd5c24d82e8e18e" target="_top" xlink:title="slogo.UI.ModuleCreationHelper.activate\lStepOverButton">
<polygon fill="white" stroke="black" points="1912.5,-0 1912.5,-30 2117.5,-30 2117.5,-0 1912.5,-0"/>
<text text-anchor="start" x="1920.5" y="-18" font-family="Helvetica,sans-Serif" font-size="10.00">slogo.UI.ModuleCreationHelper.activate</text>
<text text-anchor="middle" x="2015" y="-7" font-family="Helvetica,sans-Serif" font-size="10.00">StepOverButton</text>
</a>
</g>
</g>
<!-- Node34&#45;&gt;Node35 -->
<g id="edge43" class="edge"><title>Node34&#45;&gt;Node35</title>
<path fill="none" stroke="midnightblue" d="M1885.8,-18.5123C1894.56,-18.2724 1903.48,-18.028 1912.33,-17.7856"/>
<polygon fill="midnightblue" stroke="midnightblue" points="1885.51,-15.0187 1875.61,-18.7914 1885.71,-22.0161 1885.51,-15.0187"/>
</g>
<!-- Node36 -->
<g id="node36" class="node"><title>Node36</title>
<g id="a_node36"><a xlink:href="../../db/d19/classslogo_1_1_u_i_1_1_module_creation_helper.html#aa1e7dc2b509360583790fba0d3819c8d" target="_top" xlink:title="slogo.UI.ModuleCreationHelper.create\lDebugStepOverButton">
<polygon fill="white" stroke="black" points="2158.5,-0 2158.5,-30 2355.5,-30 2355.5,-0 2158.5,-0"/>
<text text-anchor="start" x="2166.5" y="-18" font-family="Helvetica,sans-Serif" font-size="10.00">slogo.UI.ModuleCreationHelper.create</text>
<text text-anchor="middle" x="2257" y="-7" font-family="Helvetica,sans-Serif" font-size="10.00">DebugStepOverButton</text>
</a>
</g>
</g>
<!-- Node35&#45;&gt;Node36 -->
<g id="edge44" class="edge"><title>Node35&#45;&gt;Node36</title>
<path fill="none" stroke="midnightblue" d="M2127.89,-15C2138.04,-15 2148.26,-15 2158.27,-15"/>
<polygon fill="midnightblue" stroke="midnightblue" points="2127.78,-11.5001 2117.78,-15 2127.78,-18.5001 2127.78,-11.5001"/>
</g>
<!-- Node36&#45;&gt;Node33 -->
<g id="edge45" class="edge"><title>Node36&#45;&gt;Node33</title>
<path fill="none" stroke="midnightblue" d="M2362.99,-31.6227C2376.31,-33.7329 2389.89,-35.8827 2403.05,-37.966"/>
<polygon fill="midnightblue" stroke="midnightblue" points="2363.28,-28.1256 2352.85,-30.0186 2362.18,-35.0395 2363.28,-28.1256"/>
</g>
<!-- Node38 -->
<g id="node38" class="node"><title>Node38</title>
<g id="a_node38"><a xlink:href="../../d0/d32/classslogo_1_1_u_i_1_1_toroidal_helper.html#a9d143072a1321d4267bb97cf11062922" target="_top" xlink:title="slogo.UI.ToroidalHelper.cut\lLines">
<polygon fill="white" stroke="black" points="390.5,-96 390.5,-126 533.5,-126 533.5,-96 390.5,-96"/>
<text text-anchor="start" x="398.5" y="-114" font-family="Helvetica,sans-Serif" font-size="10.00">slogo.UI.ToroidalHelper.cut</text>
<text text-anchor="middle" x="462" y="-103" font-family="Helvetica,sans-Serif" font-size="10.00">Lines</text>
</a>
</g>
</g>
<!-- Node37&#45;&gt;Node38 -->
<g id="edge47" class="edge"><title>Node37&#45;&gt;Node38</title>
<path fill="none" stroke="midnightblue" d="M351.874,-98.3644C364.615,-99.8396 377.702,-101.355 390.192,-102.801"/>
<polygon fill="midnightblue" stroke="midnightblue" points="352.085,-94.8655 341.749,-97.192 351.28,-101.819 352.085,-94.8655"/>
</g>
<!-- Node38&#45;&gt;Node4 -->
<g id="edge48" class="edge"><title>Node38&#45;&gt;Node4</title>
<path fill="none" stroke="midnightblue" d="M533.577,-93.5415C552.867,-88.7698 573.598,-83.6416 592.285,-79.019"/>
<polygon fill="midnightblue" stroke="midnightblue" points="532.507,-90.2007 523.64,-95.9997 534.187,-96.9959 532.507,-90.2007"/>
</g>
<!-- Node39&#45;&gt;Node38 -->
<g id="edge50" class="edge"><title>Node39&#45;&gt;Node38</title>
<path fill="none" stroke="midnightblue" d="M351.874,-126.507C364.615,-124.697 377.702,-122.837 390.192,-121.062"/>
<polygon fill="midnightblue" stroke="midnightblue" points="351.157,-123.074 341.749,-127.946 352.142,-130.004 351.157,-123.074"/>
</g>
</g>
</svg>
        <g id="navigator" transform="translate(0 0)" fill="#404254">
                <rect fill="#f2f5e9" fill-opacity="0.5" stroke="#606060" stroke-width=".5" x="0" y="0" width="60" height="60"/>
                <use id="zoomplus" xlink:href="#zoomPlus" x="17" y="9" onmousedown="handleZoom(evt,'in')"/>
                <use id="zoomminus" xlink:href="#zoomMin" x="42" y="9" onmousedown="handleZoom(evt,'out')"/>
                <use id="reset" xlink:href="#resetDef" x="30" y="36" onmousedown="handleReset()"/>
                <g id="arrowUp" xlink:href="#dirArrow" transform="translate(30 24)" onmousedown="handlePan(0,-1)">
                  <use xlink:href="#rim" fill="#404040">
                        <set attributeName="fill" to="#808080" begin="arrowUp.mouseover" end="arrowUp.mouseout"/>
                  </use>
                  <path fill="none" stroke="white" stroke-width="1.5" d="M0,-3.0v7 M-2.5,-0.5L0,-3.0L2.5,-0.5"/>
                </g>
                <g id="arrowRight" xlink:href="#dirArrow" transform="rotate(90) translate(36 -43)" onmousedown="handlePan(1,0)">
                  <use xlink:href="#rim" fill="#404040">
                        <set attributeName="fill" to="#808080" begin="arrowRight.mouseover" end="arrowRight.mouseout"/>
                  </use>
                  <path fill="none" stroke="white" stroke-width="1.5" d="M0,-3.0v7 M-2.5,-0.5L0,-3.0L2.5,-0.5"/>
                </g>
                <g id="arrowDown" xlink:href="#dirArrow" transform="rotate(180) translate(-30 -48)" onmousedown="handlePan(0,1)">
                  <use xlink:href="#rim" fill="#404040">
                        <set attributeName="fill" to="#808080" begin="arrowDown.mouseover" end="arrowDown.mouseout"/>
                  </use>
                  <path fill="none" stroke="white" stroke-width="1.5" d="M0,-3.0v7 M-2.5,-0.5L0,-3.0L2.5,-0.5"/>
                </g>
                <g id="arrowLeft" xlink:href="#dirArrow" transform="rotate(270) translate(-36 17)" onmousedown="handlePan(-1,0)">
                  <use xlink:href="#rim" fill="#404040">
                        <set attributeName="fill" to="#808080" begin="arrowLeft.mouseover" end="arrowLeft.mouseout"/>
                  </use>
                  <path fill="none" stroke="white" stroke-width="1.5" d="M0,-3.0v7 M-2.5,-0.5L0,-3.0L2.5,-0.5"/>
                </g>
        </g>
        <svg viewBox="0 0 15 15" width="100%" height="30px" preserveAspectRatio="xMaxYMin meet">
         <g id="arrow_out" transform="scale(0.3 0.3)">
          <a xlink:href="classslogo_1_1_u_i_1_1_toroidal_helper_a22d58c7c2d7c4237c3f1524eadd2630c_icgraph_org.svg" target="_base">
           <rect id="button" ry="5" rx="5" y="6" x="6" height="38" width="38"
                fill="#f2f5e9" fill-opacity="0.5" stroke="#606060" stroke-width="1.0"/>
           <path id="arrow"
             d="M 11.500037,31.436501 C 11.940474,20.09759 22.043105,11.32322 32.158766,21.979434 L 37.068811,17.246167 C 37.068811,17.246167 37.088388,32 37.088388,32 L 22.160133,31.978069 C 22.160133,31.978069 26.997745,27.140456 26.997745,27.140456 C 18.528582,18.264221 13.291696,25.230495 11.500037,31.436501 z"
             style="fill:#404040;"/>
          </a>
         </g>
        </svg>
</svg>
