<?xml version="1.0" encoding="UTF-8" standalone="no"?>
<!DOCTYPE svg PUBLIC "-//W3C//DTD SVG 1.1//EN"
 "http://www.w3.org/Graphics/SVG/1.1/DTD/svg11.dtd">
<!-- Generated by graphviz version 2.36.0 (20140111.2315)
 -->
<!-- Title: slogo.UI.ToroidalHelper.runLineXShift Pages: 1 -->
<svg width="344pt" height="38pt"
 viewBox="0.00 0.00 344.00 38.00" xmlns="http://www.w3.org/2000/svg" xmlns:xlink="http://www.w3.org/1999/xlink">
<g id="graph0" class="graph" transform="scale(1 1) rotate(0) translate(4 34)">
<title>slogo.UI.ToroidalHelper.runLineXShift</title>
<polygon fill="white" stroke="none" points="-4,4 -4,-34 340,-34 340,4 -4,4"/>
<!-- Node1 -->
<g id="node1" class="node"><title>Node1</title>
<polygon fill="#bfbfbf" stroke="black" points="0.5,-0 0.5,-30 143.5,-30 143.5,-0 0.5,-0"/>
<text text-anchor="start" x="8.5" y="-18" font-family="Helvetica,sans-Serif" font-size="10.00">slogo.UI.ToroidalHelper.run</text>
<text text-anchor="middle" x="72" y="-7" font-family="Helvetica,sans-Serif" font-size="10.00">LineXShift</text>
</g>
<!-- Node2 -->
<g id="node2" class="node"><title>Node2</title>
<g id="a_node2"><a xlink:href="../../d0/d32/classslogo_1_1_u_i_1_1_toroidal_helper.html#a22d58c7c2d7c4237c3f1524eadd2630c" target="_top" xlink:title="slogo.UI.ToroidalHelper.check\lXBounds">
<polygon fill="white" stroke="black" points="180.5,-0 180.5,-30 335.5,-30 335.5,-0 180.5,-0"/>
<text text-anchor="start" x="188.5" y="-18" font-family="Helvetica,sans-Serif" font-size="10.00">slogo.UI.ToroidalHelper.check</text>
<text text-anchor="middle" x="258" y="-7" font-family="Helvetica,sans-Serif" font-size="10.00">XBounds</text>
</a>
</g>
</g>
<!-- Node1&#45;&gt;Node2 -->
<g id="edge1" class="edge"><title>Node1&#45;&gt;Node2</title>
<path fill="none" stroke="midnightblue" d="M143.613,-15C152.375,-15 161.412,-15 170.38,-15"/>
<polygon fill="midnightblue" stroke="midnightblue" points="170.458,-18.5001 180.458,-15 170.458,-11.5001 170.458,-18.5001"/>
</g>
</g>
</svg>
