<?xml version="1.0" encoding="UTF-8" standalone="no"?>
<!DOCTYPE svg PUBLIC "-//W3C//DTD SVG 1.1//EN"
 "http://www.w3.org/Graphics/SVG/1.1/DTD/svg11.dtd">
<!-- Generated by graphviz version 2.36.0 (20140111.2315)
 -->
<!-- Title: slogo.UI.ToroidalHelper.cutLines Pages: 1 -->
<svg width="728pt" height="229pt"
 viewBox="0.00 0.00 728.00 229.00" xmlns="http://www.w3.org/2000/svg" xmlns:xlink="http://www.w3.org/1999/xlink">
<g id="graph0" class="graph" transform="scale(1 1) rotate(0) translate(4 225)">
<title>slogo.UI.ToroidalHelper.cutLines</title>
<polygon fill="white" stroke="none" points="-4,4 -4,-225 724,-225 724,4 -4,4"/>
<!-- Node1 -->
<g id="node1" class="node"><title>Node1</title>
<polygon fill="#bfbfbf" stroke="black" points="0.5,-93 0.5,-123 143.5,-123 143.5,-93 0.5,-93"/>
<text text-anchor="start" x="8.5" y="-111" font-family="Helvetica,sans-Serif" font-size="10.00">slogo.UI.ToroidalHelper.cut</text>
<text text-anchor="middle" x="72" y="-100" font-family="Helvetica,sans-Serif" font-size="10.00">Lines</text>
</g>
<!-- Node2 -->
<g id="node2" class="node"><title>Node2</title>
<g id="a_node2"><a xlink:href="../../d0/d32/classslogo_1_1_u_i_1_1_toroidal_helper.html#ad878914aa73174cd1b5bdebd0fcdacf9" target="_top" xlink:title="slogo.UI.ToroidalHelper.check\lStartBounds">
<polygon fill="white" stroke="black" points="180.5,-191 180.5,-221 335.5,-221 335.5,-191 180.5,-191"/>
<text text-anchor="start" x="188.5" y="-209" font-family="Helvetica,sans-Serif" font-size="10.00">slogo.UI.ToroidalHelper.check</text>
<text text-anchor="middle" x="258" y="-198" font-family="Helvetica,sans-Serif" font-size="10.00">StartBounds</text>
</a>
</g>
</g>
<!-- Node1&#45;&gt;Node2 -->
<g id="edge1" class="edge"><title>Node1&#45;&gt;Node2</title>
<path fill="none" stroke="midnightblue" d="M91.6977,-123.211C112.292,-139.36 146.894,-164.749 180,-181 184.536,-183.227 189.317,-185.321 194.184,-187.276"/>
<polygon fill="midnightblue" stroke="midnightblue" points="193.018,-190.577 203.609,-190.863 195.508,-184.035 193.018,-190.577"/>
</g>
<!-- Node3 -->
<g id="node3" class="node"><title>Node3</title>
<g id="a_node3"><a xlink:href="../../d0/d32/classslogo_1_1_u_i_1_1_toroidal_helper.html#a366128809cd6506ca8d776c625a19da2" target="_top" xlink:title="slogo.UI.ToroidalHelper.run\lLineXShift">
<polygon fill="white" stroke="black" points="186.5,-142 186.5,-172 329.5,-172 329.5,-142 186.5,-142"/>
<text text-anchor="start" x="194.5" y="-160" font-family="Helvetica,sans-Serif" font-size="10.00">slogo.UI.ToroidalHelper.run</text>
<text text-anchor="middle" x="258" y="-149" font-family="Helvetica,sans-Serif" font-size="10.00">LineXShift</text>
</a>
</g>
</g>
<!-- Node1&#45;&gt;Node3 -->
<g id="edge2" class="edge"><title>Node1&#45;&gt;Node3</title>
<path fill="none" stroke="midnightblue" d="M129.457,-123.035C148.884,-128.208 170.811,-134.048 190.935,-139.407"/>
<polygon fill="midnightblue" stroke="midnightblue" points="190.086,-142.803 200.65,-141.994 191.888,-136.038 190.086,-142.803"/>
</g>
<!-- Node5 -->
<g id="node5" class="node"><title>Node5</title>
<g id="a_node5"><a xlink:href="../../d0/d32/classslogo_1_1_u_i_1_1_toroidal_helper.html#aa1432fa1f1a208f83285575425bf96f4" target="_top" xlink:title="slogo.UI.ToroidalHelper.run\lLineYShift">
<polygon fill="white" stroke="black" points="378.5,-0 378.5,-30 521.5,-30 521.5,-0 378.5,-0"/>
<text text-anchor="start" x="386.5" y="-18" font-family="Helvetica,sans-Serif" font-size="10.00">slogo.UI.ToroidalHelper.run</text>
<text text-anchor="middle" x="450" y="-7" font-family="Helvetica,sans-Serif" font-size="10.00">LineYShift</text>
</a>
</g>
</g>
<!-- Node1&#45;&gt;Node5 -->
<g id="edge4" class="edge"><title>Node1&#45;&gt;Node5</title>
<path fill="none" stroke="midnightblue" d="M88.848,-92.8654C108.475,-75.1818 143.773,-46.7246 180,-34 240.587,-12.7191 313.47,-8.78784 368.082,-9.72394"/>
<polygon fill="midnightblue" stroke="midnightblue" points="368.327,-13.2304 378.405,-9.96224 368.489,-6.2323 368.327,-13.2304"/>
</g>
<!-- Node7 -->
<g id="node7" class="node"><title>Node7</title>
<g id="a_node7"><a xlink:href="../../d0/d32/classslogo_1_1_u_i_1_1_toroidal_helper.html#a6ff252815c642ce9b37ff6c50f9cc466" target="_top" xlink:title="slogo.UI.ToroidalHelper.run\lXCalculations">
<polygon fill="white" stroke="black" points="186.5,-93 186.5,-123 329.5,-123 329.5,-93 186.5,-93"/>
<text text-anchor="start" x="194.5" y="-111" font-family="Helvetica,sans-Serif" font-size="10.00">slogo.UI.ToroidalHelper.run</text>
<text text-anchor="middle" x="258" y="-100" font-family="Helvetica,sans-Serif" font-size="10.00">XCalculations</text>
</a>
</g>
</g>
<!-- Node1&#45;&gt;Node7 -->
<g id="edge6" class="edge"><title>Node1&#45;&gt;Node7</title>
<path fill="none" stroke="midnightblue" d="M143.613,-108C154.212,-108 165.211,-108 176.005,-108"/>
<polygon fill="midnightblue" stroke="midnightblue" points="176.272,-111.5 186.272,-108 176.272,-104.5 176.272,-111.5"/>
</g>
<!-- Node9 -->
<g id="node9" class="node"><title>Node9</title>
<g id="a_node9"><a xlink:href="../../d0/d32/classslogo_1_1_u_i_1_1_toroidal_helper.html#a6babdb66f06fca1bddc1823bb5f56f87" target="_top" xlink:title="slogo.UI.ToroidalHelper.run\lYShift">
<polygon fill="white" stroke="black" points="186.5,-44 186.5,-74 329.5,-74 329.5,-44 186.5,-44"/>
<text text-anchor="start" x="194.5" y="-62" font-family="Helvetica,sans-Serif" font-size="10.00">slogo.UI.ToroidalHelper.run</text>
<text text-anchor="middle" x="258" y="-51" font-family="Helvetica,sans-Serif" font-size="10.00">YShift</text>
</a>
</g>
</g>
<!-- Node1&#45;&gt;Node9 -->
<g id="edge9" class="edge"><title>Node1&#45;&gt;Node9</title>
<path fill="none" stroke="midnightblue" d="M129.457,-92.9654C148.884,-87.7917 170.811,-81.9525 190.935,-76.5934"/>
<polygon fill="midnightblue" stroke="midnightblue" points="191.888,-79.9617 200.65,-74.0062 190.086,-73.1975 191.888,-79.9617"/>
</g>
<!-- Node4 -->
<g id="node4" class="node"><title>Node4</title>
<g id="a_node4"><a xlink:href="../../d0/d32/classslogo_1_1_u_i_1_1_toroidal_helper.html#a22d58c7c2d7c4237c3f1524eadd2630c" target="_top" xlink:title="slogo.UI.ToroidalHelper.check\lXBounds">
<polygon fill="white" stroke="black" points="372.5,-139 372.5,-169 527.5,-169 527.5,-139 372.5,-139"/>
<text text-anchor="start" x="380.5" y="-157" font-family="Helvetica,sans-Serif" font-size="10.00">slogo.UI.ToroidalHelper.check</text>
<text text-anchor="middle" x="450" y="-146" font-family="Helvetica,sans-Serif" font-size="10.00">XBounds</text>
</a>
</g>
</g>
<!-- Node3&#45;&gt;Node4 -->
<g id="edge3" class="edge"><title>Node3&#45;&gt;Node4</title>
<path fill="none" stroke="midnightblue" d="M329.749,-155.883C340.303,-155.716 351.285,-155.543 362.125,-155.372"/>
<polygon fill="midnightblue" stroke="midnightblue" points="362.512,-158.866 372.456,-155.209 362.401,-151.867 362.512,-158.866"/>
</g>
<!-- Node6 -->
<g id="node6" class="node"><title>Node6</title>
<g id="a_node6"><a xlink:href="../../d0/d32/classslogo_1_1_u_i_1_1_toroidal_helper.html#a741cec86e924fde87b003f2979e5b048" target="_top" xlink:title="slogo.UI.ToroidalHelper.check\lYBounds">
<polygon fill="white" stroke="black" points="564.5,-22 564.5,-52 719.5,-52 719.5,-22 564.5,-22"/>
<text text-anchor="start" x="572.5" y="-40" font-family="Helvetica,sans-Serif" font-size="10.00">slogo.UI.ToroidalHelper.check</text>
<text text-anchor="middle" x="642" y="-29" font-family="Helvetica,sans-Serif" font-size="10.00">YBounds</text>
</a>
</g>
</g>
<!-- Node5&#45;&gt;Node6 -->
<g id="edge5" class="edge"><title>Node5&#45;&gt;Node6</title>
<path fill="none" stroke="midnightblue" d="M521.749,-23.192C532.412,-24.4266 543.511,-25.7119 554.46,-26.9796"/>
<polygon fill="midnightblue" stroke="midnightblue" points="554.119,-30.4634 564.456,-28.137 554.925,-23.5099 554.119,-30.4634"/>
</g>
<!-- Node7&#45;&gt;Node4 -->
<g id="edge7" class="edge"><title>Node7&#45;&gt;Node4</title>
<path fill="none" stroke="midnightblue" d="M321.213,-123.062C339.102,-127.393 358.759,-132.152 377.178,-136.612"/>
<polygon fill="midnightblue" stroke="midnightblue" points="376.429,-140.031 386.972,-138.983 378.076,-133.228 376.429,-140.031"/>
</g>
<!-- Node8 -->
<g id="node8" class="node"><title>Node8</title>
<g id="a_node8"><a xlink:href="../../d0/d32/classslogo_1_1_u_i_1_1_toroidal_helper.html#a41c57a3394c07d6aaeae4fe2cf8fe5d6" target="_top" xlink:title="slogo.UI.ToroidalHelper.set\lLineCoords">
<polygon fill="white" stroke="black" points="570.5,-71 570.5,-101 713.5,-101 713.5,-71 570.5,-71"/>
<text text-anchor="start" x="578.5" y="-89" font-family="Helvetica,sans-Serif" font-size="10.00">slogo.UI.ToroidalHelper.set</text>
<text text-anchor="middle" x="642" y="-78" font-family="Helvetica,sans-Serif" font-size="10.00">LineCoords</text>
</a>
</g>
</g>
<!-- Node7&#45;&gt;Node8 -->
<g id="edge8" class="edge"><title>Node7&#45;&gt;Node8</title>
<path fill="none" stroke="midnightblue" d="M329.51,-103.939C394.717,-100.184 491.591,-94.6047 559.96,-90.6673"/>
<polygon fill="midnightblue" stroke="midnightblue" points="560.473,-94.1436 570.255,-90.0743 560.07,-87.1552 560.473,-94.1436"/>
</g>
<!-- Node9&#45;&gt;Node5 -->
<g id="edge10" class="edge"><title>Node9&#45;&gt;Node5</title>
<path fill="none" stroke="midnightblue" d="M323.856,-43.9808C339.97,-40.2492 357.374,-36.2186 373.933,-32.384"/>
<polygon fill="midnightblue" stroke="midnightblue" points="375.162,-35.6921 384.114,-30.0262 373.582,-28.8726 375.162,-35.6921"/>
</g>
<!-- Node10 -->
<g id="node10" class="node"><title>Node10</title>
<g id="a_node10"><a xlink:href="../../d0/d32/classslogo_1_1_u_i_1_1_toroidal_helper.html#ab0c1d137b6ae06b1379ea8df424ca082" target="_top" xlink:title="slogo.UI.ToroidalHelper.run\lYCalculations">
<polygon fill="white" stroke="black" points="378.5,-49 378.5,-79 521.5,-79 521.5,-49 378.5,-49"/>
<text text-anchor="start" x="386.5" y="-67" font-family="Helvetica,sans-Serif" font-size="10.00">slogo.UI.ToroidalHelper.run</text>
<text text-anchor="middle" x="450" y="-56" font-family="Helvetica,sans-Serif" font-size="10.00">YCalculations</text>
</a>
</g>
</g>
<!-- Node9&#45;&gt;Node10 -->
<g id="edge11" class="edge"><title>Node9&#45;&gt;Node10</title>
<path fill="none" stroke="midnightblue" d="M329.749,-60.8618C342.237,-61.1904 355.324,-61.5348 368.065,-61.8701"/>
<polygon fill="midnightblue" stroke="midnightblue" points="368.103,-65.3723 378.192,-62.1366 368.287,-58.3747 368.103,-65.3723"/>
</g>
<!-- Node10&#45;&gt;Node6 -->
<g id="edge12" class="edge"><title>Node10&#45;&gt;Node6</title>
<path fill="none" stroke="midnightblue" d="M521.749,-53.9462C532.412,-52.431 543.511,-50.8536 554.46,-49.2978"/>
<polygon fill="midnightblue" stroke="midnightblue" points="555.047,-52.7496 564.456,-47.8774 554.063,-45.8192 555.047,-52.7496"/>
</g>
<!-- Node10&#45;&gt;Node8 -->
<g id="edge13" class="edge"><title>Node10&#45;&gt;Node8</title>
<path fill="none" stroke="midnightblue" d="M521.749,-72.192C534.237,-73.6379 547.324,-75.1533 560.065,-76.6286"/>
<polygon fill="midnightblue" stroke="midnightblue" points="559.856,-80.1276 570.192,-77.8012 560.661,-73.1741 559.856,-80.1276"/>
</g>
</g>
</svg>
