<?xml version="1.0" encoding="UTF-8" standalone="no"?>
<!DOCTYPE svg PUBLIC "-//W3C//DTD SVG 1.1//EN"
 "http://www.w3.org/Graphics/SVG/1.1/DTD/svg11.dtd">
<!-- Generated by graphviz version 2.36.0 (20140111.2315)
 -->
<!-- Title: slogo.UI.ToroidalHelper.cutLines Pages: 1 -->
<svg width="3308pt" height="427pt"
 viewBox="0.00 0.00 3308.00 427.00" xmlns="http://www.w3.org/2000/svg" xmlns:xlink="http://www.w3.org/1999/xlink">
<g id="graph0" class="graph" transform="scale(1 1) rotate(0) translate(4 423)">
<title>slogo.UI.ToroidalHelper.cutLines</title>
<polygon fill="white" stroke="none" points="-4,4 -4,-423 3304,-423 3304,4 -4,4"/>
<!-- Node1 -->
<g id="node1" class="node"><title>Node1</title>
<polygon fill="#bfbfbf" stroke="black" points="0.5,-49 0.5,-79 143.5,-79 143.5,-49 0.5,-49"/>
<text text-anchor="start" x="8.5" y="-67" font-family="Helvetica,sans-Serif" font-size="10.00">slogo.UI.ToroidalHelper.cut</text>
<text text-anchor="middle" x="72" y="-56" font-family="Helvetica,sans-Serif" font-size="10.00">Lines</text>
</g>
<!-- Node2 -->
<g id="node2" class="node"><title>Node2</title>
<g id="a_node2"><a xlink:href="../../d0/d32/classslogo_1_1_u_i_1_1_toroidal_helper.html#a3310ad36e6dae43f4741e3a67ebd0144" target="_top" xlink:title="slogo.UI.ToroidalHelper.make\lLinesToroidal">
<polygon fill="white" stroke="black" points="180.5,-49 180.5,-79 335.5,-79 335.5,-49 180.5,-49"/>
<text text-anchor="start" x="188.5" y="-67" font-family="Helvetica,sans-Serif" font-size="10.00">slogo.UI.ToroidalHelper.make</text>
<text text-anchor="middle" x="258" y="-56" font-family="Helvetica,sans-Serif" font-size="10.00">LinesToroidal</text>
</a>
</g>
</g>
<!-- Node1&#45;&gt;Node2 -->
<g id="edge1" class="edge"><title>Node1&#45;&gt;Node2</title>
<path fill="none" stroke="midnightblue" d="M153.892,-64C162.719,-64 171.685,-64 180.458,-64"/>
<polygon fill="midnightblue" stroke="midnightblue" points="153.613,-60.5001 143.613,-64 153.613,-67.5001 153.613,-60.5001"/>
</g>
<!-- Node3 -->
<g id="node3" class="node"><title>Node3</title>
<g id="a_node3"><a xlink:href="../../d9/d7e/classslogo_1_1_u_i_1_1_method_runner.html#ae05c629b80fe3379d77aea026b58b1ae" target="_top" xlink:title="slogo.UI.MethodRunner.draw\lLinesUsingToroidal">
<polygon fill="white" stroke="black" points="372,-49 372,-79 524,-79 524,-49 372,-49"/>
<text text-anchor="start" x="380" y="-67" font-family="Helvetica,sans-Serif" font-size="10.00">slogo.UI.MethodRunner.draw</text>
<text text-anchor="middle" x="448" y="-56" font-family="Helvetica,sans-Serif" font-size="10.00">LinesUsingToroidal</text>
</a>
</g>
</g>
<!-- Node2&#45;&gt;Node3 -->
<g id="edge2" class="edge"><title>Node2&#45;&gt;Node3</title>
<path fill="none" stroke="midnightblue" d="M345.834,-64C354.481,-64 363.209,-64 371.724,-64"/>
<polygon fill="midnightblue" stroke="midnightblue" points="345.738,-60.5001 335.738,-64 345.738,-67.5001 345.738,-60.5001"/>
</g>
<!-- Node4 -->
<g id="node4" class="node"><title>Node4</title>
<g id="a_node4"><a xlink:href="../../d9/d7e/classslogo_1_1_u_i_1_1_method_runner.html#a1ab80948935d4a625cf3313eabe9a51d" target="_top" xlink:title="slogo.UI.MethodRunner.move\lTurtle">
<polygon fill="white" stroke="black" points="560,-49 560,-79 716,-79 716,-49 560,-49"/>
<text text-anchor="start" x="568" y="-67" font-family="Helvetica,sans-Serif" font-size="10.00">slogo.UI.MethodRunner.move</text>
<text text-anchor="middle" x="638" y="-56" font-family="Helvetica,sans-Serif" font-size="10.00">Turtle</text>
</a>
</g>
</g>
<!-- Node3&#45;&gt;Node4 -->
<g id="edge3" class="edge"><title>Node3&#45;&gt;Node4</title>
<path fill="none" stroke="midnightblue" d="M534.117,-64C542.693,-64 551.369,-64 559.855,-64"/>
<polygon fill="midnightblue" stroke="midnightblue" points="534.113,-60.5001 524.113,-64 534.113,-67.5001 534.113,-60.5001"/>
</g>
<!-- Node5 -->
<g id="node5" class="node"><title>Node5</title>
<g id="a_node5"><a xlink:href="../../d9/d7e/classslogo_1_1_u_i_1_1_method_runner.html#a5fe4a6310ba1b0851d7d30a440511324" target="_top" xlink:title="slogo.UI.MethodRunner.change\lTurtle">
<polygon fill="white" stroke="black" points="752,-49 752,-79 916,-79 916,-49 752,-49"/>
<text text-anchor="start" x="760" y="-67" font-family="Helvetica,sans-Serif" font-size="10.00">slogo.UI.MethodRunner.change</text>
<text text-anchor="middle" x="834" y="-56" font-family="Helvetica,sans-Serif" font-size="10.00">Turtle</text>
</a>
</g>
</g>
<!-- Node4&#45;&gt;Node5 -->
<g id="edge4" class="edge"><title>Node4&#45;&gt;Node5</title>
<path fill="none" stroke="midnightblue" d="M726.486,-64C734.947,-64 743.505,-64 751.9,-64"/>
<polygon fill="midnightblue" stroke="midnightblue" points="726.231,-60.5001 716.231,-64 726.231,-67.5001 726.231,-60.5001"/>
</g>
<!-- Node6 -->
<g id="node6" class="node"><title>Node6</title>
<g id="a_node6"><a xlink:href="../../df/d2d/classslogo_1_1_view.html#accc79c56511a72090ff8a4d414b8d1f5" target="_top" xlink:title="slogo.View.executeTurtle\lCommands">
<polygon fill="white" stroke="black" points="952.5,-49 952.5,-79 1085.5,-79 1085.5,-49 952.5,-49"/>
<text text-anchor="start" x="960.5" y="-67" font-family="Helvetica,sans-Serif" font-size="10.00">slogo.View.executeTurtle</text>
<text text-anchor="middle" x="1019" y="-56" font-family="Helvetica,sans-Serif" font-size="10.00">Commands</text>
</a>
</g>
</g>
<!-- Node5&#45;&gt;Node6 -->
<g id="edge5" class="edge"><title>Node5&#45;&gt;Node6</title>
<path fill="none" stroke="midnightblue" d="M926.35,-64C935.128,-64 943.907,-64 952.365,-64"/>
<polygon fill="midnightblue" stroke="midnightblue" points="926.066,-60.5001 916.066,-64 926.066,-67.5001 926.066,-60.5001"/>
</g>
<!-- Node7 -->
<g id="node7" class="node"><title>Node7</title>
<g id="a_node7"><a xlink:href="../../df/d2d/classslogo_1_1_view.html#aa90e5d95d422b58b7f4b7f8a049defe1" target="_top" xlink:title="slogo.View.executeCommand">
<polygon fill="white" stroke="black" points="1122,-54.5 1122,-73.5 1280,-73.5 1280,-54.5 1122,-54.5"/>
<text text-anchor="middle" x="1201" y="-61.5" font-family="Helvetica,sans-Serif" font-size="10.00">slogo.View.executeCommand</text>
</a>
</g>
</g>
<!-- Node6&#45;&gt;Node7 -->
<g id="edge6" class="edge"><title>Node6&#45;&gt;Node7</title>
<path fill="none" stroke="midnightblue" d="M1095.78,-64C1104.42,-64 1113.24,-64 1121.9,-64"/>
<polygon fill="midnightblue" stroke="midnightblue" points="1095.75,-60.5001 1085.75,-64 1095.75,-67.5001 1095.75,-60.5001"/>
</g>
<!-- Node8 -->
<g id="node8" class="node"><title>Node8</title>
<g id="a_node8"><a xlink:href="../../df/d2d/classslogo_1_1_view.html#aee563f6a0b15ac6668e4dcbdad40c73c" target="_top" xlink:title="slogo.View.sendCommandTo\lBackend">
<polygon fill="white" stroke="black" points="1322,-213 1322,-243 1474,-243 1474,-213 1322,-213"/>
<text text-anchor="start" x="1330" y="-231" font-family="Helvetica,sans-Serif" font-size="10.00">slogo.View.sendCommandTo</text>
<text text-anchor="middle" x="1398" y="-220" font-family="Helvetica,sans-Serif" font-size="10.00">Backend</text>
</a>
</g>
</g>
<!-- Node7&#45;&gt;Node8 -->
<g id="edge7" class="edge"><title>Node7&#45;&gt;Node8</title>
<path fill="none" stroke="midnightblue" d="M1221.05,-80.0252C1258.77,-111.741 1342.43,-182.108 1379.15,-212.984"/>
<polygon fill="midnightblue" stroke="midnightblue" points="1223.23,-77.2841 1213.33,-73.5262 1218.73,-82.6414 1223.23,-77.2841"/>
</g>
<!-- Node28 -->
<g id="node28" class="node"><title>Node28</title>
<g id="a_node28"><a xlink:href="../../df/d2d/classslogo_1_1_view.html#a4c3084a198acf85804800d70eff9ee51" target="_top" xlink:title="slogo.View.stepIntoCommand">
<polygon fill="white" stroke="black" points="1319,-54.5 1319,-73.5 1477,-73.5 1477,-54.5 1319,-54.5"/>
<text text-anchor="middle" x="1398" y="-61.5" font-family="Helvetica,sans-Serif" font-size="10.00">slogo.View.stepIntoCommand</text>
</a>
</g>
</g>
<!-- Node7&#45;&gt;Node28 -->
<g id="edge35" class="edge"><title>Node7&#45;&gt;Node28</title>
<path fill="none" stroke="midnightblue" d="M1290.4,-64C1299.87,-64 1309.45,-64 1318.79,-64"/>
<polygon fill="midnightblue" stroke="midnightblue" points="1290.19,-60.5001 1280.19,-64 1290.19,-67.5001 1290.19,-60.5001"/>
</g>
<!-- Node32 -->
<g id="node32" class="node"><title>Node32</title>
<g id="a_node32"><a xlink:href="../../df/d2d/classslogo_1_1_view.html#ac8b7f574c679e744a430f1649dc55e68" target="_top" xlink:title="slogo.View.stepOverCommand">
<polygon fill="white" stroke="black" points="1316.5,-11.5 1316.5,-30.5 1479.5,-30.5 1479.5,-11.5 1316.5,-11.5"/>
<text text-anchor="middle" x="1398" y="-18.5" font-family="Helvetica,sans-Serif" font-size="10.00">slogo.View.stepOverCommand</text>
</a>
</g>
</g>
<!-- Node7&#45;&gt;Node32 -->
<g id="edge40" class="edge"><title>Node7&#45;&gt;Node32</title>
<path fill="none" stroke="midnightblue" d="M1255.06,-52.3005C1286.07,-45.462 1324.71,-36.9406 1353.84,-30.5164"/>
<polygon fill="midnightblue" stroke="midnightblue" points="1254.29,-48.8855 1245.28,-54.4569 1255.8,-55.7213 1254.29,-48.8855"/>
</g>
<!-- Node9 -->
<g id="node9" class="node"><title>Node9</title>
<g id="a_node9"><a xlink:href="../../db/d19/classslogo_1_1_u_i_1_1_module_creation_helper.html#a69e17abcc7cf9a6ed7261d8fb1d631fa" target="_top" xlink:title="slogo.UI.ModuleCreationHelper.activate\lIncreaseDecreaseButtons">
<polygon fill="white" stroke="black" points="1516.5,-389 1516.5,-419 1721.5,-419 1721.5,-389 1516.5,-389"/>
<text text-anchor="start" x="1524.5" y="-407" font-family="Helvetica,sans-Serif" font-size="10.00">slogo.UI.ModuleCreationHelper.activate</text>
<text text-anchor="middle" x="1619" y="-396" font-family="Helvetica,sans-Serif" font-size="10.00">IncreaseDecreaseButtons</text>
</a>
</g>
</g>
<!-- Node8&#45;&gt;Node9 -->
<g id="edge8" class="edge"><title>Node8&#45;&gt;Node9</title>
<path fill="none" stroke="midnightblue" d="M1412.04,-252.219C1430.78,-284.724 1468.36,-342.06 1516,-374 1525.12,-380.116 1535.51,-385.01 1546.09,-388.919"/>
<polygon fill="midnightblue" stroke="midnightblue" points="1415.01,-250.361 1407.05,-243.368 1408.91,-253.798 1415.01,-250.361"/>
</g>
<!-- Node16 -->
<g id="node16" class="node"><title>Node16</title>
<g id="a_node16"><a xlink:href="../../db/d19/classslogo_1_1_u_i_1_1_module_creation_helper.html#aa70b0ad9e90e62509149bfd2ef2ba209" target="_top" xlink:title="slogo.UI.ModuleCreationHelper.activate\lKeyEvents">
<polygon fill="white" stroke="black" points="2242.5,-136 2242.5,-166 2447.5,-166 2447.5,-136 2242.5,-136"/>
<text text-anchor="start" x="2250.5" y="-154" font-family="Helvetica,sans-Serif" font-size="10.00">slogo.UI.ModuleCreationHelper.activate</text>
<text text-anchor="middle" x="2345" y="-143" font-family="Helvetica,sans-Serif" font-size="10.00">KeyEvents</text>
</a>
</g>
</g>
<!-- Node8&#45;&gt;Node16 -->
<g id="edge16" class="edge"><title>Node8&#45;&gt;Node16</title>
<path fill="none" stroke="midnightblue" d="M1428.18,-207.164C1450.9,-192.251 1483.88,-173.388 1516,-165 1650.15,-129.97 2052.16,-139.777 2242.26,-146.744"/>
<polygon fill="midnightblue" stroke="midnightblue" points="1426.05,-204.378 1419.7,-212.86 1429.95,-210.189 1426.05,-204.378"/>
</g>
<!-- Node17 -->
<g id="node17" class="node"><title>Node17</title>
<g id="a_node17"><a xlink:href="../../db/d19/classslogo_1_1_u_i_1_1_module_creation_helper.html#a2e841243ec3ca474e8822102343acc88" target="_top" xlink:title="slogo.UI.ModuleCreationHelper.activate\lNewTurtleButton">
<polygon fill="white" stroke="black" points="1758.5,-344 1758.5,-374 1963.5,-374 1963.5,-344 1758.5,-344"/>
<text text-anchor="start" x="1766.5" y="-362" font-family="Helvetica,sans-Serif" font-size="10.00">slogo.UI.ModuleCreationHelper.activate</text>
<text text-anchor="middle" x="1861" y="-351" font-family="Helvetica,sans-Serif" font-size="10.00">NewTurtleButton</text>
</a>
</g>
</g>
<!-- Node8&#45;&gt;Node17 -->
<g id="edge18" class="edge"><title>Node8&#45;&gt;Node17</title>
<path fill="none" stroke="midnightblue" d="M1415.02,-251.155C1435.1,-278.009 1472.24,-321.013 1516,-340 1592.41,-373.152 1687.47,-375.86 1758.29,-371.435"/>
<polygon fill="midnightblue" stroke="midnightblue" points="1417.83,-249.073 1409.11,-243.055 1412.18,-253.197 1417.83,-249.073"/>
</g>
<!-- Node19 -->
<g id="node19" class="node"><title>Node19</title>
<g id="a_node19"><a xlink:href="../../db/d19/classslogo_1_1_u_i_1_1_module_creation_helper.html#a9b1f07ab673191067907a059b1b0c524" target="_top" xlink:title="slogo.UI.ModuleCreationHelper.activate\lPlayButton">
<polygon fill="white" stroke="black" points="1516.5,-301 1516.5,-331 1721.5,-331 1721.5,-301 1516.5,-301"/>
<text text-anchor="start" x="1524.5" y="-319" font-family="Helvetica,sans-Serif" font-size="10.00">slogo.UI.ModuleCreationHelper.activate</text>
<text text-anchor="middle" x="1619" y="-308" font-family="Helvetica,sans-Serif" font-size="10.00">PlayButton</text>
</a>
</g>
</g>
<!-- Node8&#45;&gt;Node19 -->
<g id="edge21" class="edge"><title>Node8&#45;&gt;Node19</title>
<path fill="none" stroke="midnightblue" d="M1431.42,-248.354C1454.33,-262.006 1486.16,-279.522 1516,-291 1525.7,-294.73 1536.14,-298.039 1546.5,-300.929"/>
<polygon fill="midnightblue" stroke="midnightblue" points="1433.16,-245.317 1422.79,-243.145 1429.54,-251.31 1433.16,-245.317"/>
</g>
<!-- Node22 -->
<g id="node22" class="node"><title>Node22</title>
<g id="a_node22"><a xlink:href="../../db/d19/classslogo_1_1_u_i_1_1_module_creation_helper.html#a3a38d485562cb17591ec3fd07cffc18a" target="_top" xlink:title="slogo.UI.ModuleCreationHelper.activate\lTurtleCanvas">
<polygon fill="white" stroke="black" points="2000.5,-87 2000.5,-117 2205.5,-117 2205.5,-87 2000.5,-87"/>
<text text-anchor="start" x="2008.5" y="-105" font-family="Helvetica,sans-Serif" font-size="10.00">slogo.UI.ModuleCreationHelper.activate</text>
<text text-anchor="middle" x="2103" y="-94" font-family="Helvetica,sans-Serif" font-size="10.00">TurtleCanvas</text>
</a>
</g>
</g>
<!-- Node8&#45;&gt;Node22 -->
<g id="edge25" class="edge"><title>Node8&#45;&gt;Node22</title>
<path fill="none" stroke="midnightblue" d="M1418.37,-205.232C1439.63,-182.064 1476.1,-147.434 1516,-132 1601.51,-98.92 1856.48,-97.5272 2000.33,-99.6157"/>
<polygon fill="midnightblue" stroke="midnightblue" points="1415.56,-203.115 1411.5,-212.898 1420.78,-207.786 1415.56,-203.115"/>
</g>
<!-- Node24 -->
<g id="node24" class="node"><title>Node24</title>
<g id="a_node24"><a xlink:href="../../d1/d5f/classslogo_1_1_u_i_1_1_path_color_selector.html#ad3d9c82a0904c97edcec7cf67b85bd7b" target="_top" xlink:title="slogo.UI.PathColorSelector.create">
<polygon fill="white" stroke="black" points="1531,-262.5 1531,-281.5 1707,-281.5 1707,-262.5 1531,-262.5"/>
<text text-anchor="middle" x="1619" y="-269.5" font-family="Helvetica,sans-Serif" font-size="10.00">slogo.UI.PathColorSelector.create</text>
</a>
</g>
</g>
<!-- Node8&#45;&gt;Node24 -->
<g id="edge28" class="edge"><title>Node8&#45;&gt;Node24</title>
<path fill="none" stroke="midnightblue" d="M1481.74,-245.065C1493.24,-247.411 1504.91,-249.776 1516,-252 1533.25,-255.46 1552.16,-259.186 1568.95,-262.473"/>
<polygon fill="midnightblue" stroke="midnightblue" points="1482.19,-241.585 1471.69,-243.013 1480.79,-248.443 1482.19,-241.585"/>
</g>
<!-- Node26 -->
<g id="node26" class="node"><title>Node26</title>
<g id="a_node26"><a xlink:href="../../d4/d8d/classslogo_1_1_u_i_1_1_background_color_selector.html#ad75ba4ce104e071811d0fe039a4e839f" target="_top" xlink:title="slogo.UI.BackgroundColor\lSelector.create">
<polygon fill="white" stroke="black" points="1549,-213 1549,-243 1689,-243 1689,-213 1549,-213"/>
<text text-anchor="start" x="1557" y="-231" font-family="Helvetica,sans-Serif" font-size="10.00">slogo.UI.BackgroundColor</text>
<text text-anchor="middle" x="1619" y="-220" font-family="Helvetica,sans-Serif" font-size="10.00">Selector.create</text>
</a>
</g>
</g>
<!-- Node8&#45;&gt;Node26 -->
<g id="edge31" class="edge"><title>Node8&#45;&gt;Node26</title>
<path fill="none" stroke="midnightblue" d="M1484.14,-228C1505.6,-228 1528.37,-228 1548.93,-228"/>
<polygon fill="midnightblue" stroke="midnightblue" points="1484.06,-224.5 1474.06,-228 1484.06,-231.5 1484.06,-224.5"/>
</g>
<!-- Node27 -->
<g id="node27" class="node"><title>Node27</title>
<g id="a_node27"><a xlink:href="../../dd/da7/classslogo_1_1_u_i_1_1_turtle_image_selector.html#a3f268d9196ffebcbb5dc322d2897a9fe" target="_top" xlink:title="slogo.UI.TurtleImageSelector.create">
<polygon fill="white" stroke="black" points="1526,-174.5 1526,-193.5 1712,-193.5 1712,-174.5 1526,-174.5"/>
<text text-anchor="middle" x="1619" y="-181.5" font-family="Helvetica,sans-Serif" font-size="10.00">slogo.UI.TurtleImageSelector.create</text>
</a>
</g>
</g>
<!-- Node8&#45;&gt;Node27 -->
<g id="edge33" class="edge"><title>Node8&#45;&gt;Node27</title>
<path fill="none" stroke="midnightblue" d="M1478.01,-210.821C1490.7,-208.147 1503.71,-205.458 1516,-203 1531.99,-199.804 1549.42,-196.493 1565.27,-193.548"/>
<polygon fill="midnightblue" stroke="midnightblue" points="1476.98,-207.463 1467.92,-212.958 1478.43,-214.311 1476.98,-207.463"/>
</g>
<!-- Node10 -->
<g id="node10" class="node"><title>Node10</title>
<g id="a_node10"><a xlink:href="../../db/d19/classslogo_1_1_u_i_1_1_module_creation_helper.html#adce7362386f9a7b3006e7db08a2d578d" target="_top" xlink:title="slogo.UI.ModuleCreationHelper.create\lIncreaseDecreaseButtons">
<polygon fill="white" stroke="black" points="2004.5,-380 2004.5,-410 2201.5,-410 2201.5,-380 2004.5,-380"/>
<text text-anchor="start" x="2012.5" y="-398" font-family="Helvetica,sans-Serif" font-size="10.00">slogo.UI.ModuleCreationHelper.create</text>
<text text-anchor="middle" x="2103" y="-387" font-family="Helvetica,sans-Serif" font-size="10.00">IncreaseDecreaseButtons</text>
</a>
</g>
</g>
<!-- Node9&#45;&gt;Node10 -->
<g id="edge9" class="edge"><title>Node9&#45;&gt;Node10</title>
<path fill="none" stroke="midnightblue" d="M1731.79,-401.913C1814.23,-400.373 1925.29,-398.299 2004.21,-396.826"/>
<polygon fill="midnightblue" stroke="midnightblue" points="1731.56,-398.416 1721.63,-402.102 1731.69,-405.415 1731.56,-398.416"/>
</g>
<!-- Node11 -->
<g id="node11" class="node"><title>Node11</title>
<g id="a_node11"><a xlink:href="../../db/d19/classslogo_1_1_u_i_1_1_module_creation_helper.html#a7c650957b2389d6e6d36e8be8a33cd2b" target="_top" xlink:title="slogo.UI.ModuleCreationHelper.create\lSelectorVBoxModules">
<polygon fill="white" stroke="black" points="2246.5,-253 2246.5,-283 2443.5,-283 2443.5,-253 2246.5,-253"/>
<text text-anchor="start" x="2254.5" y="-271" font-family="Helvetica,sans-Serif" font-size="10.00">slogo.UI.ModuleCreationHelper.create</text>
<text text-anchor="middle" x="2345" y="-260" font-family="Helvetica,sans-Serif" font-size="10.00">SelectorVBoxModules</text>
</a>
</g>
</g>
<!-- Node10&#45;&gt;Node11 -->
<g id="edge10" class="edge"><title>Node10&#45;&gt;Node11</title>
<path fill="none" stroke="midnightblue" d="M2187,-376.732C2193.54,-374.424 2199.95,-371.854 2206,-369 2254.6,-346.077 2303.46,-305.079 2327.92,-283.025"/>
<polygon fill="midnightblue" stroke="midnightblue" points="2185.75,-373.461 2177.36,-379.93 2187.95,-380.105 2185.75,-373.461"/>
</g>
<!-- Node12 -->
<g id="node12" class="node"><title>Node12</title>
<g id="a_node12"><a xlink:href="../../db/d19/classslogo_1_1_u_i_1_1_module_creation_helper.html#afb9dbbbad7d872234a5b296fe129a34e" target="_top" xlink:title="slogo.UI.ModuleCreationHelper.create\lMainPageModules">
<polygon fill="white" stroke="black" points="2484.5,-136 2484.5,-166 2681.5,-166 2681.5,-136 2484.5,-136"/>
<text text-anchor="start" x="2492.5" y="-154" font-family="Helvetica,sans-Serif" font-size="10.00">slogo.UI.ModuleCreationHelper.create</text>
<text text-anchor="middle" x="2583" y="-143" font-family="Helvetica,sans-Serif" font-size="10.00">MainPageModules</text>
</a>
</g>
</g>
<!-- Node11&#45;&gt;Node12 -->
<g id="edge11" class="edge"><title>Node11&#45;&gt;Node12</title>
<path fill="none" stroke="midnightblue" d="M2385.58,-248.38C2432.29,-225.222 2508.96,-187.212 2551.37,-166.184"/>
<polygon fill="midnightblue" stroke="midnightblue" points="2383.77,-245.366 2376.37,-252.944 2386.88,-251.638 2383.77,-245.366"/>
</g>
<!-- Node13 -->
<g id="node13" class="node"><title>Node13</title>
<g id="a_node13"><a xlink:href="../../d9/d33/classslogo_1_1_u_i_1_1_main.html#a15b7f2e399ee24d160550993ab737e73" target="_top" xlink:title="slogo.UI.Main.start">
<polygon fill="white" stroke="black" points="2718,-150.5 2718,-169.5 2824,-169.5 2824,-150.5 2718,-150.5"/>
<text text-anchor="middle" x="2771" y="-157.5" font-family="Helvetica,sans-Serif" font-size="10.00">slogo.UI.Main.start</text>
</a>
</g>
</g>
<!-- Node12&#45;&gt;Node13 -->
<g id="edge12" class="edge"><title>Node12&#45;&gt;Node13</title>
<path fill="none" stroke="midnightblue" d="M2691.8,-156.216C2700.76,-156.65 2709.53,-157.074 2717.76,-157.472"/>
<polygon fill="midnightblue" stroke="midnightblue" points="2691.79,-152.712 2681.63,-155.724 2691.45,-159.703 2691.79,-152.712"/>
</g>
<!-- Node14 -->
<g id="node14" class="node"><title>Node14</title>
<g id="a_node14"><a xlink:href="../../db/d19/classslogo_1_1_u_i_1_1_module_creation_helper.html#a3be12a7cc2b8a219db1e296211a2cb88" target="_top" xlink:title="slogo.UI.ModuleCreationHelper.activate\lExtraWorkspaceButton">
<polygon fill="white" stroke="black" points="2860.5,-163 2860.5,-193 3065.5,-193 3065.5,-163 2860.5,-163"/>
<text text-anchor="start" x="2868.5" y="-181" font-family="Helvetica,sans-Serif" font-size="10.00">slogo.UI.ModuleCreationHelper.activate</text>
<text text-anchor="middle" x="2963" y="-170" font-family="Helvetica,sans-Serif" font-size="10.00">ExtraWorkspaceButton</text>
</a>
</g>
</g>
<!-- Node13&#45;&gt;Node14 -->
<g id="edge13" class="edge"><title>Node13&#45;&gt;Node14</title>
<path fill="none" stroke="midnightblue" d="M2834.22,-165.894C2842.63,-166.691 2851.44,-167.526 2860.32,-168.367"/>
<polygon fill="midnightblue" stroke="midnightblue" points="2834.46,-162.401 2824.17,-164.942 2833.79,-169.37 2834.46,-162.401"/>
</g>
<!-- Node15 -->
<g id="node15" class="node"><title>Node15</title>
<g id="a_node15"><a xlink:href="../../db/d19/classslogo_1_1_u_i_1_1_module_creation_helper.html#a702c1ebe24d2857a10c666eb1fcc315d" target="_top" xlink:title="slogo.UI.ModuleCreationHelper.create\lExtraWorkspaceButton">
<polygon fill="white" stroke="black" points="3102.5,-189 3102.5,-219 3299.5,-219 3299.5,-189 3102.5,-189"/>
<text text-anchor="start" x="3110.5" y="-207" font-family="Helvetica,sans-Serif" font-size="10.00">slogo.UI.ModuleCreationHelper.create</text>
<text text-anchor="middle" x="3201" y="-196" font-family="Helvetica,sans-Serif" font-size="10.00">ExtraWorkspaceButton</text>
</a>
</g>
</g>
<!-- Node14&#45;&gt;Node15 -->
<g id="edge14" class="edge"><title>Node14&#45;&gt;Node15</title>
<path fill="none" stroke="midnightblue" d="M3075.77,-190.313C3084.62,-191.289 3093.52,-192.27 3102.27,-193.234"/>
<polygon fill="midnightblue" stroke="midnightblue" points="3076.12,-186.831 3065.8,-189.215 3075.35,-193.789 3076.12,-186.831"/>
</g>
<!-- Node15&#45;&gt;Node11 -->
<g id="edge15" class="edge"><title>Node15&#45;&gt;Node11</title>
<path fill="none" stroke="midnightblue" d="M3092.34,-212.068C2924.9,-224.617 2604.6,-248.62 2443.55,-260.69"/>
<polygon fill="midnightblue" stroke="midnightblue" points="3092.7,-215.551 3102.41,-211.313 3092.18,-208.571 3092.7,-215.551"/>
</g>
<!-- Node16&#45;&gt;Node12 -->
<g id="edge17" class="edge"><title>Node16&#45;&gt;Node12</title>
<path fill="none" stroke="midnightblue" d="M2458.05,-151C2466.81,-151 2475.62,-151 2484.27,-151"/>
<polygon fill="midnightblue" stroke="midnightblue" points="2457.8,-147.5 2447.8,-151 2457.8,-154.5 2457.8,-147.5"/>
</g>
<!-- Node18 -->
<g id="node18" class="node"><title>Node18</title>
<g id="a_node18"><a xlink:href="../../db/d19/classslogo_1_1_u_i_1_1_module_creation_helper.html#a07f5483df317cdf80e8ea2dda5699afa" target="_top" xlink:title="slogo.UI.ModuleCreationHelper.create\lNewTurtleButton">
<polygon fill="white" stroke="black" points="2004.5,-330 2004.5,-360 2201.5,-360 2201.5,-330 2004.5,-330"/>
<text text-anchor="start" x="2012.5" y="-348" font-family="Helvetica,sans-Serif" font-size="10.00">slogo.UI.ModuleCreationHelper.create</text>
<text text-anchor="middle" x="2103" y="-337" font-family="Helvetica,sans-Serif" font-size="10.00">NewTurtleButton</text>
</a>
</g>
</g>
<!-- Node17&#45;&gt;Node18 -->
<g id="edge19" class="edge"><title>Node17&#45;&gt;Node18</title>
<path fill="none" stroke="midnightblue" d="M1973.89,-352.473C1984.04,-351.881 1994.26,-351.285 2004.27,-350.701"/>
<polygon fill="midnightblue" stroke="midnightblue" points="1973.56,-348.986 1963.78,-353.063 1973.97,-355.974 1973.56,-348.986"/>
</g>
<!-- Node18&#45;&gt;Node11 -->
<g id="edge20" class="edge"><title>Node18&#45;&gt;Node11</title>
<path fill="none" stroke="midnightblue" d="M2174.15,-327.309C2184.87,-324.354 2195.76,-321.203 2206,-318 2239.93,-307.387 2277.86,-293.493 2305.35,-283.046"/>
<polygon fill="midnightblue" stroke="midnightblue" points="2173.12,-323.962 2164.39,-329.963 2174.96,-330.717 2173.12,-323.962"/>
</g>
<!-- Node20 -->
<g id="node20" class="node"><title>Node20</title>
<g id="a_node20"><a xlink:href="../../db/d19/classslogo_1_1_u_i_1_1_module_creation_helper.html#a9b3fb38a55b3b7812b4f793afa7a974f" target="_top" xlink:title="slogo.UI.ModuleCreationHelper.create\lPlayButton">
<polygon fill="white" stroke="black" points="1762.5,-295 1762.5,-325 1959.5,-325 1959.5,-295 1762.5,-295"/>
<text text-anchor="start" x="1770.5" y="-313" font-family="Helvetica,sans-Serif" font-size="10.00">slogo.UI.ModuleCreationHelper.create</text>
<text text-anchor="middle" x="1861" y="-302" font-family="Helvetica,sans-Serif" font-size="10.00">PlayButton</text>
</a>
</g>
</g>
<!-- Node19&#45;&gt;Node20 -->
<g id="edge22" class="edge"><title>Node19&#45;&gt;Node20</title>
<path fill="none" stroke="midnightblue" d="M1731.89,-313.203C1742.04,-312.949 1752.26,-312.694 1762.27,-312.443"/>
<polygon fill="midnightblue" stroke="midnightblue" points="1731.69,-309.707 1721.78,-313.455 1731.87,-316.704 1731.69,-309.707"/>
</g>
<!-- Node21 -->
<g id="node21" class="node"><title>Node21</title>
<g id="a_node21"><a xlink:href="../../db/d19/classslogo_1_1_u_i_1_1_module_creation_helper.html#ae1e60d37509c2e5eddcb2a6e70b4f650" target="_top" xlink:title="slogo.UI.ModuleCreationHelper.create\lFirstRowButtons">
<polygon fill="white" stroke="black" points="2004.5,-279 2004.5,-309 2201.5,-309 2201.5,-279 2004.5,-279"/>
<text text-anchor="start" x="2012.5" y="-297" font-family="Helvetica,sans-Serif" font-size="10.00">slogo.UI.ModuleCreationHelper.create</text>
<text text-anchor="middle" x="2103" y="-286" font-family="Helvetica,sans-Serif" font-size="10.00">FirstRowButtons</text>
</a>
</g>
</g>
<!-- Node20&#45;&gt;Node21 -->
<g id="edge23" class="edge"><title>Node20&#45;&gt;Node21</title>
<path fill="none" stroke="midnightblue" d="M1969.73,-302.818C1981.3,-302.046 1993.03,-301.265 2004.47,-300.502"/>
<polygon fill="midnightblue" stroke="midnightblue" points="1969.36,-299.335 1959.62,-303.492 1969.83,-306.319 1969.36,-299.335"/>
</g>
<!-- Node21&#45;&gt;Node11 -->
<g id="edge24" class="edge"><title>Node21&#45;&gt;Node11</title>
<path fill="none" stroke="midnightblue" d="M2211.73,-282.329C2223.3,-281.075 2235.03,-279.805 2246.47,-278.566"/>
<polygon fill="midnightblue" stroke="midnightblue" points="2211.18,-278.868 2201.62,-283.425 2211.94,-285.827 2211.18,-278.868"/>
</g>
<!-- Node23 -->
<g id="node23" class="node"><title>Node23</title>
<g id="a_node23"><a xlink:href="../../db/d19/classslogo_1_1_u_i_1_1_module_creation_helper.html#a803bac6b55bde712b21f2face1eeef81" target="_top" xlink:title="slogo.UI.ModuleCreationHelper.create\lTurtleCanvas">
<polygon fill="white" stroke="black" points="2246.5,-87 2246.5,-117 2443.5,-117 2443.5,-87 2246.5,-87"/>
<text text-anchor="start" x="2254.5" y="-105" font-family="Helvetica,sans-Serif" font-size="10.00">slogo.UI.ModuleCreationHelper.create</text>
<text text-anchor="middle" x="2345" y="-94" font-family="Helvetica,sans-Serif" font-size="10.00">TurtleCanvas</text>
</a>
</g>
</g>
<!-- Node22&#45;&gt;Node23 -->
<g id="edge26" class="edge"><title>Node22&#45;&gt;Node23</title>
<path fill="none" stroke="midnightblue" d="M2215.89,-102C2226.04,-102 2236.26,-102 2246.27,-102"/>
<polygon fill="midnightblue" stroke="midnightblue" points="2215.78,-98.5001 2205.78,-102 2215.78,-105.5 2215.78,-98.5001"/>
</g>
<!-- Node23&#45;&gt;Node12 -->
<g id="edge27" class="edge"><title>Node23&#45;&gt;Node12</title>
<path fill="none" stroke="midnightblue" d="M2428.42,-119.113C2454.9,-124.611 2484.03,-130.658 2509.73,-135.994"/>
<polygon fill="midnightblue" stroke="midnightblue" points="2428.91,-115.641 2418.41,-117.035 2427.49,-122.495 2428.91,-115.641"/>
</g>
<!-- Node25 -->
<g id="node25" class="node"><title>Node25</title>
<g id="a_node25"><a xlink:href="../../db/d19/classslogo_1_1_u_i_1_1_module_creation_helper.html#af7f2919454fdbf6e9d7d912e99634857" target="_top" xlink:title="slogo.UI.ModuleCreationHelper.create\lSelectors">
<polygon fill="white" stroke="black" points="1762.5,-230 1762.5,-260 1959.5,-260 1959.5,-230 1762.5,-230"/>
<text text-anchor="start" x="1770.5" y="-248" font-family="Helvetica,sans-Serif" font-size="10.00">slogo.UI.ModuleCreationHelper.create</text>
<text text-anchor="middle" x="1861" y="-237" font-family="Helvetica,sans-Serif" font-size="10.00">Selectors</text>
</a>
</g>
</g>
<!-- Node24&#45;&gt;Node25 -->
<g id="edge29" class="edge"><title>Node24&#45;&gt;Node25</title>
<path fill="none" stroke="midnightblue" d="M1714.76,-261.339C1730.36,-259.585 1746.54,-257.764 1762.21,-256.002"/>
<polygon fill="midnightblue" stroke="midnightblue" points="1714.16,-257.885 1704.62,-262.481 1714.94,-264.841 1714.16,-257.885"/>
</g>
<!-- Node25&#45;&gt;Node11 -->
<g id="edge30" class="edge"><title>Node25&#45;&gt;Node11</title>
<path fill="none" stroke="midnightblue" d="M1969.74,-250.141C2052.55,-254.092 2165.97,-259.505 2246.19,-263.333"/>
<polygon fill="midnightblue" stroke="midnightblue" points="1969.7,-246.635 1959.54,-249.654 1969.36,-253.627 1969.7,-246.635"/>
</g>
<!-- Node26&#45;&gt;Node25 -->
<g id="edge32" class="edge"><title>Node26&#45;&gt;Node25</title>
<path fill="none" stroke="midnightblue" d="M1699.18,-233.609C1719.4,-235.041 1741.37,-236.597 1762.39,-238.086"/>
<polygon fill="midnightblue" stroke="midnightblue" points="1699.32,-230.11 1689.1,-232.894 1698.82,-237.092 1699.32,-230.11"/>
</g>
<!-- Node27&#45;&gt;Node25 -->
<g id="edge34" class="edge"><title>Node27&#45;&gt;Node25</title>
<path fill="none" stroke="midnightblue" d="M1687.48,-195.473C1699.04,-197.752 1710.9,-200.287 1722,-203 1753.38,-210.673 1788.18,-221.278 1814.98,-229.911"/>
<polygon fill="midnightblue" stroke="midnightblue" points="1687.9,-191.99 1677.42,-193.539 1686.58,-198.864 1687.9,-191.99"/>
</g>
<!-- Node29 -->
<g id="node29" class="node"><title>Node29</title>
<g id="a_node29"><a xlink:href="../../db/d19/classslogo_1_1_u_i_1_1_module_creation_helper.html#a9fd730f7c1860d34bf4ac46c3828bd59" target="_top" xlink:title="slogo.UI.ModuleCreationHelper.activate\lStepIntoButton">
<polygon fill="white" stroke="black" points="1516.5,-49 1516.5,-79 1721.5,-79 1721.5,-49 1516.5,-49"/>
<text text-anchor="start" x="1524.5" y="-67" font-family="Helvetica,sans-Serif" font-size="10.00">slogo.UI.ModuleCreationHelper.activate</text>
<text text-anchor="middle" x="1619" y="-56" font-family="Helvetica,sans-Serif" font-size="10.00">StepIntoButton</text>
</a>
</g>
</g>
<!-- Node28&#45;&gt;Node29 -->
<g id="edge36" class="edge"><title>Node28&#45;&gt;Node29</title>
<path fill="none" stroke="midnightblue" d="M1487.33,-64C1496.82,-64 1506.54,-64 1516.17,-64"/>
<polygon fill="midnightblue" stroke="midnightblue" points="1487.14,-60.5001 1477.14,-64 1487.14,-67.5001 1487.14,-60.5001"/>
</g>
<!-- Node30 -->
<g id="node30" class="node"><title>Node30</title>
<g id="a_node30"><a xlink:href="../../db/d19/classslogo_1_1_u_i_1_1_module_creation_helper.html#a4a6f1f009507c25be8c7c28cbba35f3b" target="_top" xlink:title="slogo.UI.ModuleCreationHelper.create\lDebugStepIntoButton">
<polygon fill="white" stroke="black" points="1762.5,-49 1762.5,-79 1959.5,-79 1959.5,-49 1762.5,-49"/>
<text text-anchor="start" x="1770.5" y="-67" font-family="Helvetica,sans-Serif" font-size="10.00">slogo.UI.ModuleCreationHelper.create</text>
<text text-anchor="middle" x="1861" y="-56" font-family="Helvetica,sans-Serif" font-size="10.00">DebugStepIntoButton</text>
</a>
</g>
</g>
<!-- Node29&#45;&gt;Node30 -->
<g id="edge37" class="edge"><title>Node29&#45;&gt;Node30</title>
<path fill="none" stroke="midnightblue" d="M1731.89,-64C1742.04,-64 1752.26,-64 1762.27,-64"/>
<polygon fill="midnightblue" stroke="midnightblue" points="1731.78,-60.5001 1721.78,-64 1731.78,-67.5001 1731.78,-60.5001"/>
</g>
<!-- Node31 -->
<g id="node31" class="node"><title>Node31</title>
<g id="a_node31"><a xlink:href="../../db/d19/classslogo_1_1_u_i_1_1_module_creation_helper.html#a975af4ea47dc85df72215bdf1a0d20ce" target="_top" xlink:title="slogo.UI.ModuleCreationHelper.create\lDebugModules">
<polygon fill="white" stroke="black" points="2004.5,-38 2004.5,-68 2201.5,-68 2201.5,-38 2004.5,-38"/>
<text text-anchor="start" x="2012.5" y="-56" font-family="Helvetica,sans-Serif" font-size="10.00">slogo.UI.ModuleCreationHelper.create</text>
<text text-anchor="middle" x="2103" y="-45" font-family="Helvetica,sans-Serif" font-size="10.00">DebugModules</text>
</a>
</g>
</g>
<!-- Node30&#45;&gt;Node31 -->
<g id="edge38" class="edge"><title>Node30&#45;&gt;Node31</title>
<path fill="none" stroke="midnightblue" d="M1969.73,-59.0622C1981.3,-58.5319 1993.03,-57.9945 2004.47,-57.4702"/>
<polygon fill="midnightblue" stroke="midnightblue" points="1969.45,-55.5716 1959.62,-59.5259 1969.77,-62.5643 1969.45,-55.5716"/>
</g>
<!-- Node31&#45;&gt;Node12 -->
<g id="edge39" class="edge"><title>Node31&#45;&gt;Node12</title>
<path fill="none" stroke="midnightblue" d="M2211.63,-48.679C2280.53,-48.779 2371.11,-54.2973 2448,-77 2491.33,-89.7936 2536.2,-118.228 2561.46,-135.889"/>
<polygon fill="midnightblue" stroke="midnightblue" points="2211.61,-45.1789 2201.62,-48.7021 2211.63,-52.1789 2211.61,-45.1789"/>
</g>
<!-- Node33 -->
<g id="node33" class="node"><title>Node33</title>
<g id="a_node33"><a xlink:href="../../db/d19/classslogo_1_1_u_i_1_1_module_creation_helper.html#a0fed0bb32bf2643d6fd5c24d82e8e18e" target="_top" xlink:title="slogo.UI.ModuleCreationHelper.activate\lStepOverButton">
<polygon fill="white" stroke="black" points="1516.5,-0 1516.5,-30 1721.5,-30 1721.5,-0 1516.5,-0"/>
<text text-anchor="start" x="1524.5" y="-18" font-family="Helvetica,sans-Serif" font-size="10.00">slogo.UI.ModuleCreationHelper.activate</text>
<text text-anchor="middle" x="1619" y="-7" font-family="Helvetica,sans-Serif" font-size="10.00">StepOverButton</text>
</a>
</g>
</g>
<!-- Node32&#45;&gt;Node33 -->
<g id="edge41" class="edge"><title>Node32&#45;&gt;Node33</title>
<path fill="none" stroke="midnightblue" d="M1489.8,-18.5123C1498.56,-18.2724 1507.48,-18.028 1516.33,-17.7856"/>
<polygon fill="midnightblue" stroke="midnightblue" points="1489.51,-15.0187 1479.61,-18.7914 1489.71,-22.0161 1489.51,-15.0187"/>
</g>
<!-- Node34 -->
<g id="node34" class="node"><title>Node34</title>
<g id="a_node34"><a xlink:href="../../db/d19/classslogo_1_1_u_i_1_1_module_creation_helper.html#aa1e7dc2b509360583790fba0d3819c8d" target="_top" xlink:title="slogo.UI.ModuleCreationHelper.create\lDebugStepOverButton">
<polygon fill="white" stroke="black" points="1762.5,-0 1762.5,-30 1959.5,-30 1959.5,-0 1762.5,-0"/>
<text text-anchor="start" x="1770.5" y="-18" font-family="Helvetica,sans-Serif" font-size="10.00">slogo.UI.ModuleCreationHelper.create</text>
<text text-anchor="middle" x="1861" y="-7" font-family="Helvetica,sans-Serif" font-size="10.00">DebugStepOverButton</text>
</a>
</g>
</g>
<!-- Node33&#45;&gt;Node34 -->
<g id="edge42" class="edge"><title>Node33&#45;&gt;Node34</title>
<path fill="none" stroke="midnightblue" d="M1731.89,-15C1742.04,-15 1752.26,-15 1762.27,-15"/>
<polygon fill="midnightblue" stroke="midnightblue" points="1731.78,-11.5001 1721.78,-15 1731.78,-18.5001 1731.78,-11.5001"/>
</g>
<!-- Node34&#45;&gt;Node31 -->
<g id="edge43" class="edge"><title>Node34&#45;&gt;Node31</title>
<path fill="none" stroke="midnightblue" d="M1966.99,-31.6227C1980.31,-33.7329 1993.89,-35.8827 2007.05,-37.966"/>
<polygon fill="midnightblue" stroke="midnightblue" points="1967.28,-28.1256 1956.85,-30.0186 1966.18,-35.0395 1967.28,-28.1256"/>
</g>
</g>
</svg>
