<?xml version="1.0" encoding="UTF-8" standalone="no"?>
<!DOCTYPE svg PUBLIC "-//W3C//DTD SVG 1.1//EN"
 "http://www.w3.org/Graphics/SVG/1.1/DTD/svg11.dtd">
<!-- Generated by graphviz version 2.36.0 (20140111.2315)
 -->
<!-- Title: slogo.UI.ToroidalHelper.checkStartBounds Pages: 1 -->
<svg width="3512pt" height="427pt"
 viewBox="0.00 0.00 3512.00 427.00" xmlns="http://www.w3.org/2000/svg" xmlns:xlink="http://www.w3.org/1999/xlink">
<g id="graph0" class="graph" transform="scale(1 1) rotate(0) translate(4 423)">
<title>slogo.UI.ToroidalHelper.checkStartBounds</title>
<polygon fill="white" stroke="none" points="-4,4 -4,-423 3508,-423 3508,4 -4,4"/>
<!-- Node1 -->
<g id="node1" class="node"><title>Node1</title>
<polygon fill="#bfbfbf" stroke="black" points="0.5,-73 0.5,-103 155.5,-103 155.5,-73 0.5,-73"/>
<text text-anchor="start" x="8.5" y="-91" font-family="Helvetica,sans-Serif" font-size="10.00">slogo.UI.ToroidalHelper.check</text>
<text text-anchor="middle" x="78" y="-80" font-family="Helvetica,sans-Serif" font-size="10.00">StartBounds</text>
</g>
<!-- Node2 -->
<g id="node2" class="node"><title>Node2</title>
<g id="a_node2"><a xlink:href="../../d0/d32/classslogo_1_1_u_i_1_1_toroidal_helper.html#adaa10c52a1bea944e7469a8a258891b1" target="_top" xlink:title="slogo.UI.ToroidalHelper.check\lAllBounds">
<polygon fill="white" stroke="black" points="192.5,-98 192.5,-128 347.5,-128 347.5,-98 192.5,-98"/>
<text text-anchor="start" x="200.5" y="-116" font-family="Helvetica,sans-Serif" font-size="10.00">slogo.UI.ToroidalHelper.check</text>
<text text-anchor="middle" x="270" y="-105" font-family="Helvetica,sans-Serif" font-size="10.00">AllBounds</text>
</a>
</g>
</g>
<!-- Node1&#45;&gt;Node2 -->
<g id="edge1" class="edge"><title>Node1&#45;&gt;Node2</title>
<path fill="none" stroke="midnightblue" d="M165.692,-99.4069C174.565,-100.574 183.535,-101.755 192.29,-102.907"/>
<polygon fill="midnightblue" stroke="midnightblue" points="166.104,-95.9309 155.733,-98.0964 165.191,-102.871 166.104,-95.9309"/>
</g>
<!-- Node3 -->
<g id="node3" class="node"><title>Node3</title>
<g id="a_node3"><a xlink:href="../../d0/d32/classslogo_1_1_u_i_1_1_toroidal_helper.html#a9d143072a1321d4267bb97cf11062922" target="_top" xlink:title="slogo.UI.ToroidalHelper.cut\lLines">
<polygon fill="white" stroke="black" points="198.5,-49 198.5,-79 341.5,-79 341.5,-49 198.5,-49"/>
<text text-anchor="start" x="206.5" y="-67" font-family="Helvetica,sans-Serif" font-size="10.00">slogo.UI.ToroidalHelper.cut</text>
<text text-anchor="middle" x="270" y="-56" font-family="Helvetica,sans-Serif" font-size="10.00">Lines</text>
</a>
</g>
</g>
<!-- Node1&#45;&gt;Node3 -->
<g id="edge2" class="edge"><title>Node1&#45;&gt;Node3</title>
<path fill="none" stroke="midnightblue" d="M165.729,-77.0448C176.677,-75.6618 187.773,-74.2602 198.429,-72.9142"/>
<polygon fill="midnightblue" stroke="midnightblue" points="165.215,-73.5818 155.733,-78.3075 166.092,-80.5266 165.215,-73.5818"/>
</g>
<!-- Node4 -->
<g id="node4" class="node"><title>Node4</title>
<g id="a_node4"><a xlink:href="../../d0/d32/classslogo_1_1_u_i_1_1_toroidal_helper.html#a3310ad36e6dae43f4741e3a67ebd0144" target="_top" xlink:title="slogo.UI.ToroidalHelper.make\lLinesToroidal">
<polygon fill="white" stroke="black" points="384.5,-49 384.5,-79 539.5,-79 539.5,-49 384.5,-49"/>
<text text-anchor="start" x="392.5" y="-67" font-family="Helvetica,sans-Serif" font-size="10.00">slogo.UI.ToroidalHelper.make</text>
<text text-anchor="middle" x="462" y="-56" font-family="Helvetica,sans-Serif" font-size="10.00">LinesToroidal</text>
</a>
</g>
</g>
<!-- Node3&#45;&gt;Node4 -->
<g id="edge3" class="edge"><title>Node3&#45;&gt;Node4</title>
<path fill="none" stroke="midnightblue" d="M351.98,-64C362.75,-64 373.765,-64 384.456,-64"/>
<polygon fill="midnightblue" stroke="midnightblue" points="351.749,-60.5001 341.749,-64 351.749,-67.5001 351.749,-60.5001"/>
</g>
<!-- Node5 -->
<g id="node5" class="node"><title>Node5</title>
<g id="a_node5"><a xlink:href="../../d9/d7e/classslogo_1_1_u_i_1_1_method_runner.html#ae05c629b80fe3379d77aea026b58b1ae" target="_top" xlink:title="slogo.UI.MethodRunner.draw\lLinesUsingToroidal">
<polygon fill="white" stroke="black" points="576,-49 576,-79 728,-79 728,-49 576,-49"/>
<text text-anchor="start" x="584" y="-67" font-family="Helvetica,sans-Serif" font-size="10.00">slogo.UI.MethodRunner.draw</text>
<text text-anchor="middle" x="652" y="-56" font-family="Helvetica,sans-Serif" font-size="10.00">LinesUsingToroidal</text>
</a>
</g>
</g>
<!-- Node4&#45;&gt;Node5 -->
<g id="edge4" class="edge"><title>Node4&#45;&gt;Node5</title>
<path fill="none" stroke="midnightblue" d="M549.834,-64C558.481,-64 567.209,-64 575.724,-64"/>
<polygon fill="midnightblue" stroke="midnightblue" points="549.738,-60.5001 539.738,-64 549.738,-67.5001 549.738,-60.5001"/>
</g>
<!-- Node6 -->
<g id="node6" class="node"><title>Node6</title>
<g id="a_node6"><a xlink:href="../../d9/d7e/classslogo_1_1_u_i_1_1_method_runner.html#a1ab80948935d4a625cf3313eabe9a51d" target="_top" xlink:title="slogo.UI.MethodRunner.move\lTurtle">
<polygon fill="white" stroke="black" points="764,-49 764,-79 920,-79 920,-49 764,-49"/>
<text text-anchor="start" x="772" y="-67" font-family="Helvetica,sans-Serif" font-size="10.00">slogo.UI.MethodRunner.move</text>
<text text-anchor="middle" x="842" y="-56" font-family="Helvetica,sans-Serif" font-size="10.00">Turtle</text>
</a>
</g>
</g>
<!-- Node5&#45;&gt;Node6 -->
<g id="edge5" class="edge"><title>Node5&#45;&gt;Node6</title>
<path fill="none" stroke="midnightblue" d="M738.117,-64C746.693,-64 755.369,-64 763.855,-64"/>
<polygon fill="midnightblue" stroke="midnightblue" points="738.113,-60.5001 728.113,-64 738.113,-67.5001 738.113,-60.5001"/>
</g>
<!-- Node7 -->
<g id="node7" class="node"><title>Node7</title>
<g id="a_node7"><a xlink:href="../../d9/d7e/classslogo_1_1_u_i_1_1_method_runner.html#a5fe4a6310ba1b0851d7d30a440511324" target="_top" xlink:title="slogo.UI.MethodRunner.change\lTurtle">
<polygon fill="white" stroke="black" points="956,-49 956,-79 1120,-79 1120,-49 956,-49"/>
<text text-anchor="start" x="964" y="-67" font-family="Helvetica,sans-Serif" font-size="10.00">slogo.UI.MethodRunner.change</text>
<text text-anchor="middle" x="1038" y="-56" font-family="Helvetica,sans-Serif" font-size="10.00">Turtle</text>
</a>
</g>
</g>
<!-- Node6&#45;&gt;Node7 -->
<g id="edge6" class="edge"><title>Node6&#45;&gt;Node7</title>
<path fill="none" stroke="midnightblue" d="M930.486,-64C938.947,-64 947.505,-64 955.9,-64"/>
<polygon fill="midnightblue" stroke="midnightblue" points="930.231,-60.5001 920.231,-64 930.231,-67.5001 930.231,-60.5001"/>
</g>
<!-- Node8 -->
<g id="node8" class="node"><title>Node8</title>
<g id="a_node8"><a xlink:href="../../df/d2d/classslogo_1_1_view.html#accc79c56511a72090ff8a4d414b8d1f5" target="_top" xlink:title="slogo.View.executeTurtle\lCommands">
<polygon fill="white" stroke="black" points="1156.5,-49 1156.5,-79 1289.5,-79 1289.5,-49 1156.5,-49"/>
<text text-anchor="start" x="1164.5" y="-67" font-family="Helvetica,sans-Serif" font-size="10.00">slogo.View.executeTurtle</text>
<text text-anchor="middle" x="1223" y="-56" font-family="Helvetica,sans-Serif" font-size="10.00">Commands</text>
</a>
</g>
</g>
<!-- Node7&#45;&gt;Node8 -->
<g id="edge7" class="edge"><title>Node7&#45;&gt;Node8</title>
<path fill="none" stroke="midnightblue" d="M1130.35,-64C1139.13,-64 1147.91,-64 1156.37,-64"/>
<polygon fill="midnightblue" stroke="midnightblue" points="1130.07,-60.5001 1120.07,-64 1130.07,-67.5001 1130.07,-60.5001"/>
</g>
<!-- Node9 -->
<g id="node9" class="node"><title>Node9</title>
<g id="a_node9"><a xlink:href="../../df/d2d/classslogo_1_1_view.html#aa90e5d95d422b58b7f4b7f8a049defe1" target="_top" xlink:title="slogo.View.executeCommand">
<polygon fill="white" stroke="black" points="1326,-54.5 1326,-73.5 1484,-73.5 1484,-54.5 1326,-54.5"/>
<text text-anchor="middle" x="1405" y="-61.5" font-family="Helvetica,sans-Serif" font-size="10.00">slogo.View.executeCommand</text>
</a>
</g>
</g>
<!-- Node8&#45;&gt;Node9 -->
<g id="edge8" class="edge"><title>Node8&#45;&gt;Node9</title>
<path fill="none" stroke="midnightblue" d="M1299.78,-64C1308.42,-64 1317.24,-64 1325.9,-64"/>
<polygon fill="midnightblue" stroke="midnightblue" points="1299.75,-60.5001 1289.75,-64 1299.75,-67.5001 1299.75,-60.5001"/>
</g>
<!-- Node10 -->
<g id="node10" class="node"><title>Node10</title>
<g id="a_node10"><a xlink:href="../../df/d2d/classslogo_1_1_view.html#aee563f6a0b15ac6668e4dcbdad40c73c" target="_top" xlink:title="slogo.View.sendCommandTo\lBackend">
<polygon fill="white" stroke="black" points="1526,-213 1526,-243 1678,-243 1678,-213 1526,-213"/>
<text text-anchor="start" x="1534" y="-231" font-family="Helvetica,sans-Serif" font-size="10.00">slogo.View.sendCommandTo</text>
<text text-anchor="middle" x="1602" y="-220" font-family="Helvetica,sans-Serif" font-size="10.00">Backend</text>
</a>
</g>
</g>
<!-- Node9&#45;&gt;Node10 -->
<g id="edge9" class="edge"><title>Node9&#45;&gt;Node10</title>
<path fill="none" stroke="midnightblue" d="M1425.05,-80.0252C1462.77,-111.741 1546.43,-182.108 1583.15,-212.984"/>
<polygon fill="midnightblue" stroke="midnightblue" points="1427.23,-77.2841 1417.33,-73.5262 1422.73,-82.6414 1427.23,-77.2841"/>
</g>
<!-- Node30 -->
<g id="node30" class="node"><title>Node30</title>
<g id="a_node30"><a xlink:href="../../df/d2d/classslogo_1_1_view.html#a4c3084a198acf85804800d70eff9ee51" target="_top" xlink:title="slogo.View.stepIntoCommand">
<polygon fill="white" stroke="black" points="1523,-54.5 1523,-73.5 1681,-73.5 1681,-54.5 1523,-54.5"/>
<text text-anchor="middle" x="1602" y="-61.5" font-family="Helvetica,sans-Serif" font-size="10.00">slogo.View.stepIntoCommand</text>
</a>
</g>
</g>
<!-- Node9&#45;&gt;Node30 -->
<g id="edge37" class="edge"><title>Node9&#45;&gt;Node30</title>
<path fill="none" stroke="midnightblue" d="M1494.4,-64C1503.87,-64 1513.45,-64 1522.79,-64"/>
<polygon fill="midnightblue" stroke="midnightblue" points="1494.19,-60.5001 1484.19,-64 1494.19,-67.5001 1494.19,-60.5001"/>
</g>
<!-- Node34 -->
<g id="node34" class="node"><title>Node34</title>
<g id="a_node34"><a xlink:href="../../df/d2d/classslogo_1_1_view.html#ac8b7f574c679e744a430f1649dc55e68" target="_top" xlink:title="slogo.View.stepOverCommand">
<polygon fill="white" stroke="black" points="1520.5,-11.5 1520.5,-30.5 1683.5,-30.5 1683.5,-11.5 1520.5,-11.5"/>
<text text-anchor="middle" x="1602" y="-18.5" font-family="Helvetica,sans-Serif" font-size="10.00">slogo.View.stepOverCommand</text>
</a>
</g>
</g>
<!-- Node9&#45;&gt;Node34 -->
<g id="edge42" class="edge"><title>Node9&#45;&gt;Node34</title>
<path fill="none" stroke="midnightblue" d="M1459.06,-52.3005C1490.07,-45.462 1528.71,-36.9406 1557.84,-30.5164"/>
<polygon fill="midnightblue" stroke="midnightblue" points="1458.29,-48.8855 1449.28,-54.4569 1459.8,-55.7213 1458.29,-48.8855"/>
</g>
<!-- Node11 -->
<g id="node11" class="node"><title>Node11</title>
<g id="a_node11"><a xlink:href="../../db/d19/classslogo_1_1_u_i_1_1_module_creation_helper.html#a69e17abcc7cf9a6ed7261d8fb1d631fa" target="_top" xlink:title="slogo.UI.ModuleCreationHelper.activate\lIncreaseDecreaseButtons">
<polygon fill="white" stroke="black" points="1720.5,-389 1720.5,-419 1925.5,-419 1925.5,-389 1720.5,-389"/>
<text text-anchor="start" x="1728.5" y="-407" font-family="Helvetica,sans-Serif" font-size="10.00">slogo.UI.ModuleCreationHelper.activate</text>
<text text-anchor="middle" x="1823" y="-396" font-family="Helvetica,sans-Serif" font-size="10.00">IncreaseDecreaseButtons</text>
</a>
</g>
</g>
<!-- Node10&#45;&gt;Node11 -->
<g id="edge10" class="edge"><title>Node10&#45;&gt;Node11</title>
<path fill="none" stroke="midnightblue" d="M1616.04,-252.219C1634.78,-284.724 1672.36,-342.06 1720,-374 1729.12,-380.116 1739.51,-385.01 1750.09,-388.919"/>
<polygon fill="midnightblue" stroke="midnightblue" points="1619.01,-250.361 1611.05,-243.368 1612.91,-253.798 1619.01,-250.361"/>
</g>
<!-- Node18 -->
<g id="node18" class="node"><title>Node18</title>
<g id="a_node18"><a xlink:href="../../db/d19/classslogo_1_1_u_i_1_1_module_creation_helper.html#aa70b0ad9e90e62509149bfd2ef2ba209" target="_top" xlink:title="slogo.UI.ModuleCreationHelper.activate\lKeyEvents">
<polygon fill="white" stroke="black" points="2446.5,-136 2446.5,-166 2651.5,-166 2651.5,-136 2446.5,-136"/>
<text text-anchor="start" x="2454.5" y="-154" font-family="Helvetica,sans-Serif" font-size="10.00">slogo.UI.ModuleCreationHelper.activate</text>
<text text-anchor="middle" x="2549" y="-143" font-family="Helvetica,sans-Serif" font-size="10.00">KeyEvents</text>
</a>
</g>
</g>
<!-- Node10&#45;&gt;Node18 -->
<g id="edge18" class="edge"><title>Node10&#45;&gt;Node18</title>
<path fill="none" stroke="midnightblue" d="M1632.18,-207.164C1654.9,-192.251 1687.88,-173.388 1720,-165 1854.15,-129.97 2256.16,-139.777 2446.26,-146.744"/>
<polygon fill="midnightblue" stroke="midnightblue" points="1630.05,-204.378 1623.7,-212.86 1633.95,-210.189 1630.05,-204.378"/>
</g>
<!-- Node19 -->
<g id="node19" class="node"><title>Node19</title>
<g id="a_node19"><a xlink:href="../../db/d19/classslogo_1_1_u_i_1_1_module_creation_helper.html#a2e841243ec3ca474e8822102343acc88" target="_top" xlink:title="slogo.UI.ModuleCreationHelper.activate\lNewTurtleButton">
<polygon fill="white" stroke="black" points="1962.5,-344 1962.5,-374 2167.5,-374 2167.5,-344 1962.5,-344"/>
<text text-anchor="start" x="1970.5" y="-362" font-family="Helvetica,sans-Serif" font-size="10.00">slogo.UI.ModuleCreationHelper.activate</text>
<text text-anchor="middle" x="2065" y="-351" font-family="Helvetica,sans-Serif" font-size="10.00">NewTurtleButton</text>
</a>
</g>
</g>
<!-- Node10&#45;&gt;Node19 -->
<g id="edge20" class="edge"><title>Node10&#45;&gt;Node19</title>
<path fill="none" stroke="midnightblue" d="M1619.02,-251.155C1639.1,-278.009 1676.24,-321.013 1720,-340 1796.41,-373.152 1891.47,-375.86 1962.29,-371.435"/>
<polygon fill="midnightblue" stroke="midnightblue" points="1621.83,-249.073 1613.11,-243.055 1616.18,-253.197 1621.83,-249.073"/>
</g>
<!-- Node21 -->
<g id="node21" class="node"><title>Node21</title>
<g id="a_node21"><a xlink:href="../../db/d19/classslogo_1_1_u_i_1_1_module_creation_helper.html#a9b1f07ab673191067907a059b1b0c524" target="_top" xlink:title="slogo.UI.ModuleCreationHelper.activate\lPlayButton">
<polygon fill="white" stroke="black" points="1720.5,-301 1720.5,-331 1925.5,-331 1925.5,-301 1720.5,-301"/>
<text text-anchor="start" x="1728.5" y="-319" font-family="Helvetica,sans-Serif" font-size="10.00">slogo.UI.ModuleCreationHelper.activate</text>
<text text-anchor="middle" x="1823" y="-308" font-family="Helvetica,sans-Serif" font-size="10.00">PlayButton</text>
</a>
</g>
</g>
<!-- Node10&#45;&gt;Node21 -->
<g id="edge23" class="edge"><title>Node10&#45;&gt;Node21</title>
<path fill="none" stroke="midnightblue" d="M1635.42,-248.354C1658.33,-262.006 1690.16,-279.522 1720,-291 1729.7,-294.73 1740.14,-298.039 1750.5,-300.929"/>
<polygon fill="midnightblue" stroke="midnightblue" points="1637.16,-245.317 1626.79,-243.145 1633.54,-251.31 1637.16,-245.317"/>
</g>
<!-- Node24 -->
<g id="node24" class="node"><title>Node24</title>
<g id="a_node24"><a xlink:href="../../db/d19/classslogo_1_1_u_i_1_1_module_creation_helper.html#a3a38d485562cb17591ec3fd07cffc18a" target="_top" xlink:title="slogo.UI.ModuleCreationHelper.activate\lTurtleCanvas">
<polygon fill="white" stroke="black" points="2204.5,-87 2204.5,-117 2409.5,-117 2409.5,-87 2204.5,-87"/>
<text text-anchor="start" x="2212.5" y="-105" font-family="Helvetica,sans-Serif" font-size="10.00">slogo.UI.ModuleCreationHelper.activate</text>
<text text-anchor="middle" x="2307" y="-94" font-family="Helvetica,sans-Serif" font-size="10.00">TurtleCanvas</text>
</a>
</g>
</g>
<!-- Node10&#45;&gt;Node24 -->
<g id="edge27" class="edge"><title>Node10&#45;&gt;Node24</title>
<path fill="none" stroke="midnightblue" d="M1622.37,-205.232C1643.63,-182.064 1680.1,-147.434 1720,-132 1805.51,-98.92 2060.48,-97.5272 2204.33,-99.6157"/>
<polygon fill="midnightblue" stroke="midnightblue" points="1619.56,-203.115 1615.5,-212.898 1624.78,-207.786 1619.56,-203.115"/>
</g>
<!-- Node26 -->
<g id="node26" class="node"><title>Node26</title>
<g id="a_node26"><a xlink:href="../../d1/d5f/classslogo_1_1_u_i_1_1_path_color_selector.html#ad3d9c82a0904c97edcec7cf67b85bd7b" target="_top" xlink:title="slogo.UI.PathColorSelector.create">
<polygon fill="white" stroke="black" points="1735,-262.5 1735,-281.5 1911,-281.5 1911,-262.5 1735,-262.5"/>
<text text-anchor="middle" x="1823" y="-269.5" font-family="Helvetica,sans-Serif" font-size="10.00">slogo.UI.PathColorSelector.create</text>
</a>
</g>
</g>
<!-- Node10&#45;&gt;Node26 -->
<g id="edge30" class="edge"><title>Node10&#45;&gt;Node26</title>
<path fill="none" stroke="midnightblue" d="M1685.74,-245.065C1697.24,-247.411 1708.91,-249.776 1720,-252 1737.25,-255.46 1756.16,-259.186 1772.95,-262.473"/>
<polygon fill="midnightblue" stroke="midnightblue" points="1686.19,-241.585 1675.69,-243.013 1684.79,-248.443 1686.19,-241.585"/>
</g>
<!-- Node28 -->
<g id="node28" class="node"><title>Node28</title>
<g id="a_node28"><a xlink:href="../../d4/d8d/classslogo_1_1_u_i_1_1_background_color_selector.html#ad75ba4ce104e071811d0fe039a4e839f" target="_top" xlink:title="slogo.UI.BackgroundColor\lSelector.create">
<polygon fill="white" stroke="black" points="1753,-213 1753,-243 1893,-243 1893,-213 1753,-213"/>
<text text-anchor="start" x="1761" y="-231" font-family="Helvetica,sans-Serif" font-size="10.00">slogo.UI.BackgroundColor</text>
<text text-anchor="middle" x="1823" y="-220" font-family="Helvetica,sans-Serif" font-size="10.00">Selector.create</text>
</a>
</g>
</g>
<!-- Node10&#45;&gt;Node28 -->
<g id="edge33" class="edge"><title>Node10&#45;&gt;Node28</title>
<path fill="none" stroke="midnightblue" d="M1688.14,-228C1709.6,-228 1732.37,-228 1752.93,-228"/>
<polygon fill="midnightblue" stroke="midnightblue" points="1688.06,-224.5 1678.06,-228 1688.06,-231.5 1688.06,-224.5"/>
</g>
<!-- Node29 -->
<g id="node29" class="node"><title>Node29</title>
<g id="a_node29"><a xlink:href="../../dd/da7/classslogo_1_1_u_i_1_1_turtle_image_selector.html#a3f268d9196ffebcbb5dc322d2897a9fe" target="_top" xlink:title="slogo.UI.TurtleImageSelector.create">
<polygon fill="white" stroke="black" points="1730,-174.5 1730,-193.5 1916,-193.5 1916,-174.5 1730,-174.5"/>
<text text-anchor="middle" x="1823" y="-181.5" font-family="Helvetica,sans-Serif" font-size="10.00">slogo.UI.TurtleImageSelector.create</text>
</a>
</g>
</g>
<!-- Node10&#45;&gt;Node29 -->
<g id="edge35" class="edge"><title>Node10&#45;&gt;Node29</title>
<path fill="none" stroke="midnightblue" d="M1682.01,-210.821C1694.7,-208.147 1707.71,-205.458 1720,-203 1735.99,-199.804 1753.42,-196.493 1769.27,-193.548"/>
<polygon fill="midnightblue" stroke="midnightblue" points="1680.98,-207.463 1671.92,-212.958 1682.43,-214.311 1680.98,-207.463"/>
</g>
<!-- Node12 -->
<g id="node12" class="node"><title>Node12</title>
<g id="a_node12"><a xlink:href="../../db/d19/classslogo_1_1_u_i_1_1_module_creation_helper.html#adce7362386f9a7b3006e7db08a2d578d" target="_top" xlink:title="slogo.UI.ModuleCreationHelper.create\lIncreaseDecreaseButtons">
<polygon fill="white" stroke="black" points="2208.5,-380 2208.5,-410 2405.5,-410 2405.5,-380 2208.5,-380"/>
<text text-anchor="start" x="2216.5" y="-398" font-family="Helvetica,sans-Serif" font-size="10.00">slogo.UI.ModuleCreationHelper.create</text>
<text text-anchor="middle" x="2307" y="-387" font-family="Helvetica,sans-Serif" font-size="10.00">IncreaseDecreaseButtons</text>
</a>
</g>
</g>
<!-- Node11&#45;&gt;Node12 -->
<g id="edge11" class="edge"><title>Node11&#45;&gt;Node12</title>
<path fill="none" stroke="midnightblue" d="M1935.79,-401.913C2018.23,-400.373 2129.29,-398.299 2208.21,-396.826"/>
<polygon fill="midnightblue" stroke="midnightblue" points="1935.56,-398.416 1925.63,-402.102 1935.69,-405.415 1935.56,-398.416"/>
</g>
<!-- Node13 -->
<g id="node13" class="node"><title>Node13</title>
<g id="a_node13"><a xlink:href="../../db/d19/classslogo_1_1_u_i_1_1_module_creation_helper.html#a7c650957b2389d6e6d36e8be8a33cd2b" target="_top" xlink:title="slogo.UI.ModuleCreationHelper.create\lSelectorVBoxModules">
<polygon fill="white" stroke="black" points="2450.5,-253 2450.5,-283 2647.5,-283 2647.5,-253 2450.5,-253"/>
<text text-anchor="start" x="2458.5" y="-271" font-family="Helvetica,sans-Serif" font-size="10.00">slogo.UI.ModuleCreationHelper.create</text>
<text text-anchor="middle" x="2549" y="-260" font-family="Helvetica,sans-Serif" font-size="10.00">SelectorVBoxModules</text>
</a>
</g>
</g>
<!-- Node12&#45;&gt;Node13 -->
<g id="edge12" class="edge"><title>Node12&#45;&gt;Node13</title>
<path fill="none" stroke="midnightblue" d="M2391,-376.732C2397.54,-374.424 2403.95,-371.854 2410,-369 2458.6,-346.077 2507.46,-305.079 2531.92,-283.025"/>
<polygon fill="midnightblue" stroke="midnightblue" points="2389.75,-373.461 2381.36,-379.93 2391.95,-380.105 2389.75,-373.461"/>
</g>
<!-- Node14 -->
<g id="node14" class="node"><title>Node14</title>
<g id="a_node14"><a xlink:href="../../db/d19/classslogo_1_1_u_i_1_1_module_creation_helper.html#afb9dbbbad7d872234a5b296fe129a34e" target="_top" xlink:title="slogo.UI.ModuleCreationHelper.create\lMainPageModules">
<polygon fill="white" stroke="black" points="2688.5,-136 2688.5,-166 2885.5,-166 2885.5,-136 2688.5,-136"/>
<text text-anchor="start" x="2696.5" y="-154" font-family="Helvetica,sans-Serif" font-size="10.00">slogo.UI.ModuleCreationHelper.create</text>
<text text-anchor="middle" x="2787" y="-143" font-family="Helvetica,sans-Serif" font-size="10.00">MainPageModules</text>
</a>
</g>
</g>
<!-- Node13&#45;&gt;Node14 -->
<g id="edge13" class="edge"><title>Node13&#45;&gt;Node14</title>
<path fill="none" stroke="midnightblue" d="M2589.58,-248.38C2636.29,-225.222 2712.96,-187.212 2755.37,-166.184"/>
<polygon fill="midnightblue" stroke="midnightblue" points="2587.77,-245.366 2580.37,-252.944 2590.88,-251.638 2587.77,-245.366"/>
</g>
<!-- Node15 -->
<g id="node15" class="node"><title>Node15</title>
<g id="a_node15"><a xlink:href="../../d9/d33/classslogo_1_1_u_i_1_1_main.html#a15b7f2e399ee24d160550993ab737e73" target="_top" xlink:title="slogo.UI.Main.start">
<polygon fill="white" stroke="black" points="2922,-150.5 2922,-169.5 3028,-169.5 3028,-150.5 2922,-150.5"/>
<text text-anchor="middle" x="2975" y="-157.5" font-family="Helvetica,sans-Serif" font-size="10.00">slogo.UI.Main.start</text>
</a>
</g>
</g>
<!-- Node14&#45;&gt;Node15 -->
<g id="edge14" class="edge"><title>Node14&#45;&gt;Node15</title>
<path fill="none" stroke="midnightblue" d="M2895.8,-156.216C2904.76,-156.65 2913.53,-157.074 2921.76,-157.472"/>
<polygon fill="midnightblue" stroke="midnightblue" points="2895.79,-152.712 2885.63,-155.724 2895.45,-159.703 2895.79,-152.712"/>
</g>
<!-- Node16 -->
<g id="node16" class="node"><title>Node16</title>
<g id="a_node16"><a xlink:href="../../db/d19/classslogo_1_1_u_i_1_1_module_creation_helper.html#a3be12a7cc2b8a219db1e296211a2cb88" target="_top" xlink:title="slogo.UI.ModuleCreationHelper.activate\lExtraWorkspaceButton">
<polygon fill="white" stroke="black" points="3064.5,-163 3064.5,-193 3269.5,-193 3269.5,-163 3064.5,-163"/>
<text text-anchor="start" x="3072.5" y="-181" font-family="Helvetica,sans-Serif" font-size="10.00">slogo.UI.ModuleCreationHelper.activate</text>
<text text-anchor="middle" x="3167" y="-170" font-family="Helvetica,sans-Serif" font-size="10.00">ExtraWorkspaceButton</text>
</a>
</g>
</g>
<!-- Node15&#45;&gt;Node16 -->
<g id="edge15" class="edge"><title>Node15&#45;&gt;Node16</title>
<path fill="none" stroke="midnightblue" d="M3038.22,-165.894C3046.63,-166.691 3055.44,-167.526 3064.32,-168.367"/>
<polygon fill="midnightblue" stroke="midnightblue" points="3038.46,-162.401 3028.17,-164.942 3037.79,-169.37 3038.46,-162.401"/>
</g>
<!-- Node17 -->
<g id="node17" class="node"><title>Node17</title>
<g id="a_node17"><a xlink:href="../../db/d19/classslogo_1_1_u_i_1_1_module_creation_helper.html#a702c1ebe24d2857a10c666eb1fcc315d" target="_top" xlink:title="slogo.UI.ModuleCreationHelper.create\lExtraWorkspaceButton">
<polygon fill="white" stroke="black" points="3306.5,-189 3306.5,-219 3503.5,-219 3503.5,-189 3306.5,-189"/>
<text text-anchor="start" x="3314.5" y="-207" font-family="Helvetica,sans-Serif" font-size="10.00">slogo.UI.ModuleCreationHelper.create</text>
<text text-anchor="middle" x="3405" y="-196" font-family="Helvetica,sans-Serif" font-size="10.00">ExtraWorkspaceButton</text>
</a>
</g>
</g>
<!-- Node16&#45;&gt;Node17 -->
<g id="edge16" class="edge"><title>Node16&#45;&gt;Node17</title>
<path fill="none" stroke="midnightblue" d="M3279.77,-190.313C3288.62,-191.289 3297.52,-192.27 3306.27,-193.234"/>
<polygon fill="midnightblue" stroke="midnightblue" points="3280.12,-186.831 3269.8,-189.215 3279.35,-193.789 3280.12,-186.831"/>
</g>
<!-- Node17&#45;&gt;Node13 -->
<g id="edge17" class="edge"><title>Node17&#45;&gt;Node13</title>
<path fill="none" stroke="midnightblue" d="M3296.34,-212.068C3128.9,-224.617 2808.6,-248.62 2647.55,-260.69"/>
<polygon fill="midnightblue" stroke="midnightblue" points="3296.7,-215.551 3306.41,-211.313 3296.18,-208.571 3296.7,-215.551"/>
</g>
<!-- Node18&#45;&gt;Node14 -->
<g id="edge19" class="edge"><title>Node18&#45;&gt;Node14</title>
<path fill="none" stroke="midnightblue" d="M2662.05,-151C2670.81,-151 2679.62,-151 2688.27,-151"/>
<polygon fill="midnightblue" stroke="midnightblue" points="2661.8,-147.5 2651.8,-151 2661.8,-154.5 2661.8,-147.5"/>
</g>
<!-- Node20 -->
<g id="node20" class="node"><title>Node20</title>
<g id="a_node20"><a xlink:href="../../db/d19/classslogo_1_1_u_i_1_1_module_creation_helper.html#a07f5483df317cdf80e8ea2dda5699afa" target="_top" xlink:title="slogo.UI.ModuleCreationHelper.create\lNewTurtleButton">
<polygon fill="white" stroke="black" points="2208.5,-330 2208.5,-360 2405.5,-360 2405.5,-330 2208.5,-330"/>
<text text-anchor="start" x="2216.5" y="-348" font-family="Helvetica,sans-Serif" font-size="10.00">slogo.UI.ModuleCreationHelper.create</text>
<text text-anchor="middle" x="2307" y="-337" font-family="Helvetica,sans-Serif" font-size="10.00">NewTurtleButton</text>
</a>
</g>
</g>
<!-- Node19&#45;&gt;Node20 -->
<g id="edge21" class="edge"><title>Node19&#45;&gt;Node20</title>
<path fill="none" stroke="midnightblue" d="M2177.89,-352.473C2188.04,-351.881 2198.26,-351.285 2208.27,-350.701"/>
<polygon fill="midnightblue" stroke="midnightblue" points="2177.56,-348.986 2167.78,-353.063 2177.97,-355.974 2177.56,-348.986"/>
</g>
<!-- Node20&#45;&gt;Node13 -->
<g id="edge22" class="edge"><title>Node20&#45;&gt;Node13</title>
<path fill="none" stroke="midnightblue" d="M2378.15,-327.309C2388.87,-324.354 2399.76,-321.203 2410,-318 2443.93,-307.387 2481.86,-293.493 2509.35,-283.046"/>
<polygon fill="midnightblue" stroke="midnightblue" points="2377.12,-323.962 2368.39,-329.963 2378.96,-330.717 2377.12,-323.962"/>
</g>
<!-- Node22 -->
<g id="node22" class="node"><title>Node22</title>
<g id="a_node22"><a xlink:href="../../db/d19/classslogo_1_1_u_i_1_1_module_creation_helper.html#a9b3fb38a55b3b7812b4f793afa7a974f" target="_top" xlink:title="slogo.UI.ModuleCreationHelper.create\lPlayButton">
<polygon fill="white" stroke="black" points="1966.5,-295 1966.5,-325 2163.5,-325 2163.5,-295 1966.5,-295"/>
<text text-anchor="start" x="1974.5" y="-313" font-family="Helvetica,sans-Serif" font-size="10.00">slogo.UI.ModuleCreationHelper.create</text>
<text text-anchor="middle" x="2065" y="-302" font-family="Helvetica,sans-Serif" font-size="10.00">PlayButton</text>
</a>
</g>
</g>
<!-- Node21&#45;&gt;Node22 -->
<g id="edge24" class="edge"><title>Node21&#45;&gt;Node22</title>
<path fill="none" stroke="midnightblue" d="M1935.89,-313.203C1946.04,-312.949 1956.26,-312.694 1966.27,-312.443"/>
<polygon fill="midnightblue" stroke="midnightblue" points="1935.69,-309.707 1925.78,-313.455 1935.87,-316.704 1935.69,-309.707"/>
</g>
<!-- Node23 -->
<g id="node23" class="node"><title>Node23</title>
<g id="a_node23"><a xlink:href="../../db/d19/classslogo_1_1_u_i_1_1_module_creation_helper.html#ae1e60d37509c2e5eddcb2a6e70b4f650" target="_top" xlink:title="slogo.UI.ModuleCreationHelper.create\lFirstRowButtons">
<polygon fill="white" stroke="black" points="2208.5,-279 2208.5,-309 2405.5,-309 2405.5,-279 2208.5,-279"/>
<text text-anchor="start" x="2216.5" y="-297" font-family="Helvetica,sans-Serif" font-size="10.00">slogo.UI.ModuleCreationHelper.create</text>
<text text-anchor="middle" x="2307" y="-286" font-family="Helvetica,sans-Serif" font-size="10.00">FirstRowButtons</text>
</a>
</g>
</g>
<!-- Node22&#45;&gt;Node23 -->
<g id="edge25" class="edge"><title>Node22&#45;&gt;Node23</title>
<path fill="none" stroke="midnightblue" d="M2173.73,-302.818C2185.3,-302.046 2197.03,-301.265 2208.47,-300.502"/>
<polygon fill="midnightblue" stroke="midnightblue" points="2173.36,-299.335 2163.62,-303.492 2173.83,-306.319 2173.36,-299.335"/>
</g>
<!-- Node23&#45;&gt;Node13 -->
<g id="edge26" class="edge"><title>Node23&#45;&gt;Node13</title>
<path fill="none" stroke="midnightblue" d="M2415.73,-282.329C2427.3,-281.075 2439.03,-279.805 2450.47,-278.566"/>
<polygon fill="midnightblue" stroke="midnightblue" points="2415.18,-278.868 2405.62,-283.425 2415.94,-285.827 2415.18,-278.868"/>
</g>
<!-- Node25 -->
<g id="node25" class="node"><title>Node25</title>
<g id="a_node25"><a xlink:href="../../db/d19/classslogo_1_1_u_i_1_1_module_creation_helper.html#a803bac6b55bde712b21f2face1eeef81" target="_top" xlink:title="slogo.UI.ModuleCreationHelper.create\lTurtleCanvas">
<polygon fill="white" stroke="black" points="2450.5,-87 2450.5,-117 2647.5,-117 2647.5,-87 2450.5,-87"/>
<text text-anchor="start" x="2458.5" y="-105" font-family="Helvetica,sans-Serif" font-size="10.00">slogo.UI.ModuleCreationHelper.create</text>
<text text-anchor="middle" x="2549" y="-94" font-family="Helvetica,sans-Serif" font-size="10.00">TurtleCanvas</text>
</a>
</g>
</g>
<!-- Node24&#45;&gt;Node25 -->
<g id="edge28" class="edge"><title>Node24&#45;&gt;Node25</title>
<path fill="none" stroke="midnightblue" d="M2419.89,-102C2430.04,-102 2440.26,-102 2450.27,-102"/>
<polygon fill="midnightblue" stroke="midnightblue" points="2419.78,-98.5001 2409.78,-102 2419.78,-105.5 2419.78,-98.5001"/>
</g>
<!-- Node25&#45;&gt;Node14 -->
<g id="edge29" class="edge"><title>Node25&#45;&gt;Node14</title>
<path fill="none" stroke="midnightblue" d="M2632.42,-119.113C2658.9,-124.611 2688.03,-130.658 2713.73,-135.994"/>
<polygon fill="midnightblue" stroke="midnightblue" points="2632.91,-115.641 2622.41,-117.035 2631.49,-122.495 2632.91,-115.641"/>
</g>
<!-- Node27 -->
<g id="node27" class="node"><title>Node27</title>
<g id="a_node27"><a xlink:href="../../db/d19/classslogo_1_1_u_i_1_1_module_creation_helper.html#af7f2919454fdbf6e9d7d912e99634857" target="_top" xlink:title="slogo.UI.ModuleCreationHelper.create\lSelectors">
<polygon fill="white" stroke="black" points="1966.5,-230 1966.5,-260 2163.5,-260 2163.5,-230 1966.5,-230"/>
<text text-anchor="start" x="1974.5" y="-248" font-family="Helvetica,sans-Serif" font-size="10.00">slogo.UI.ModuleCreationHelper.create</text>
<text text-anchor="middle" x="2065" y="-237" font-family="Helvetica,sans-Serif" font-size="10.00">Selectors</text>
</a>
</g>
</g>
<!-- Node26&#45;&gt;Node27 -->
<g id="edge31" class="edge"><title>Node26&#45;&gt;Node27</title>
<path fill="none" stroke="midnightblue" d="M1918.76,-261.339C1934.36,-259.585 1950.54,-257.764 1966.21,-256.002"/>
<polygon fill="midnightblue" stroke="midnightblue" points="1918.16,-257.885 1908.62,-262.481 1918.94,-264.841 1918.16,-257.885"/>
</g>
<!-- Node27&#45;&gt;Node13 -->
<g id="edge32" class="edge"><title>Node27&#45;&gt;Node13</title>
<path fill="none" stroke="midnightblue" d="M2173.74,-250.141C2256.55,-254.092 2369.97,-259.505 2450.19,-263.333"/>
<polygon fill="midnightblue" stroke="midnightblue" points="2173.7,-246.635 2163.54,-249.654 2173.36,-253.627 2173.7,-246.635"/>
</g>
<!-- Node28&#45;&gt;Node27 -->
<g id="edge34" class="edge"><title>Node28&#45;&gt;Node27</title>
<path fill="none" stroke="midnightblue" d="M1903.18,-233.609C1923.4,-235.041 1945.37,-236.597 1966.39,-238.086"/>
<polygon fill="midnightblue" stroke="midnightblue" points="1903.32,-230.11 1893.1,-232.894 1902.82,-237.092 1903.32,-230.11"/>
</g>
<!-- Node29&#45;&gt;Node27 -->
<g id="edge36" class="edge"><title>Node29&#45;&gt;Node27</title>
<path fill="none" stroke="midnightblue" d="M1891.48,-195.473C1903.04,-197.752 1914.9,-200.287 1926,-203 1957.38,-210.673 1992.18,-221.278 2018.98,-229.911"/>
<polygon fill="midnightblue" stroke="midnightblue" points="1891.9,-191.99 1881.42,-193.539 1890.58,-198.864 1891.9,-191.99"/>
</g>
<!-- Node31 -->
<g id="node31" class="node"><title>Node31</title>
<g id="a_node31"><a xlink:href="../../db/d19/classslogo_1_1_u_i_1_1_module_creation_helper.html#a9fd730f7c1860d34bf4ac46c3828bd59" target="_top" xlink:title="slogo.UI.ModuleCreationHelper.activate\lStepIntoButton">
<polygon fill="white" stroke="black" points="1720.5,-49 1720.5,-79 1925.5,-79 1925.5,-49 1720.5,-49"/>
<text text-anchor="start" x="1728.5" y="-67" font-family="Helvetica,sans-Serif" font-size="10.00">slogo.UI.ModuleCreationHelper.activate</text>
<text text-anchor="middle" x="1823" y="-56" font-family="Helvetica,sans-Serif" font-size="10.00">StepIntoButton</text>
</a>
</g>
</g>
<!-- Node30&#45;&gt;Node31 -->
<g id="edge38" class="edge"><title>Node30&#45;&gt;Node31</title>
<path fill="none" stroke="midnightblue" d="M1691.33,-64C1700.82,-64 1710.54,-64 1720.17,-64"/>
<polygon fill="midnightblue" stroke="midnightblue" points="1691.14,-60.5001 1681.14,-64 1691.14,-67.5001 1691.14,-60.5001"/>
</g>
<!-- Node32 -->
<g id="node32" class="node"><title>Node32</title>
<g id="a_node32"><a xlink:href="../../db/d19/classslogo_1_1_u_i_1_1_module_creation_helper.html#a4a6f1f009507c25be8c7c28cbba35f3b" target="_top" xlink:title="slogo.UI.ModuleCreationHelper.create\lDebugStepIntoButton">
<polygon fill="white" stroke="black" points="1966.5,-49 1966.5,-79 2163.5,-79 2163.5,-49 1966.5,-49"/>
<text text-anchor="start" x="1974.5" y="-67" font-family="Helvetica,sans-Serif" font-size="10.00">slogo.UI.ModuleCreationHelper.create</text>
<text text-anchor="middle" x="2065" y="-56" font-family="Helvetica,sans-Serif" font-size="10.00">DebugStepIntoButton</text>
</a>
</g>
</g>
<!-- Node31&#45;&gt;Node32 -->
<g id="edge39" class="edge"><title>Node31&#45;&gt;Node32</title>
<path fill="none" stroke="midnightblue" d="M1935.89,-64C1946.04,-64 1956.26,-64 1966.27,-64"/>
<polygon fill="midnightblue" stroke="midnightblue" points="1935.78,-60.5001 1925.78,-64 1935.78,-67.5001 1935.78,-60.5001"/>
</g>
<!-- Node33 -->
<g id="node33" class="node"><title>Node33</title>
<g id="a_node33"><a xlink:href="../../db/d19/classslogo_1_1_u_i_1_1_module_creation_helper.html#a975af4ea47dc85df72215bdf1a0d20ce" target="_top" xlink:title="slogo.UI.ModuleCreationHelper.create\lDebugModules">
<polygon fill="white" stroke="black" points="2208.5,-38 2208.5,-68 2405.5,-68 2405.5,-38 2208.5,-38"/>
<text text-anchor="start" x="2216.5" y="-56" font-family="Helvetica,sans-Serif" font-size="10.00">slogo.UI.ModuleCreationHelper.create</text>
<text text-anchor="middle" x="2307" y="-45" font-family="Helvetica,sans-Serif" font-size="10.00">DebugModules</text>
</a>
</g>
</g>
<!-- Node32&#45;&gt;Node33 -->
<g id="edge40" class="edge"><title>Node32&#45;&gt;Node33</title>
<path fill="none" stroke="midnightblue" d="M2173.73,-59.0622C2185.3,-58.5319 2197.03,-57.9945 2208.47,-57.4702"/>
<polygon fill="midnightblue" stroke="midnightblue" points="2173.45,-55.5716 2163.62,-59.5259 2173.77,-62.5643 2173.45,-55.5716"/>
</g>
<!-- Node33&#45;&gt;Node14 -->
<g id="edge41" class="edge"><title>Node33&#45;&gt;Node14</title>
<path fill="none" stroke="midnightblue" d="M2415.63,-48.679C2484.53,-48.779 2575.11,-54.2973 2652,-77 2695.33,-89.7936 2740.2,-118.228 2765.46,-135.889"/>
<polygon fill="midnightblue" stroke="midnightblue" points="2415.61,-45.1789 2405.62,-48.7021 2415.63,-52.1789 2415.61,-45.1789"/>
</g>
<!-- Node35 -->
<g id="node35" class="node"><title>Node35</title>
<g id="a_node35"><a xlink:href="../../db/d19/classslogo_1_1_u_i_1_1_module_creation_helper.html#a0fed0bb32bf2643d6fd5c24d82e8e18e" target="_top" xlink:title="slogo.UI.ModuleCreationHelper.activate\lStepOverButton">
<polygon fill="white" stroke="black" points="1720.5,-0 1720.5,-30 1925.5,-30 1925.5,-0 1720.5,-0"/>
<text text-anchor="start" x="1728.5" y="-18" font-family="Helvetica,sans-Serif" font-size="10.00">slogo.UI.ModuleCreationHelper.activate</text>
<text text-anchor="middle" x="1823" y="-7" font-family="Helvetica,sans-Serif" font-size="10.00">StepOverButton</text>
</a>
</g>
</g>
<!-- Node34&#45;&gt;Node35 -->
<g id="edge43" class="edge"><title>Node34&#45;&gt;Node35</title>
<path fill="none" stroke="midnightblue" d="M1693.8,-18.5123C1702.56,-18.2724 1711.48,-18.028 1720.33,-17.7856"/>
<polygon fill="midnightblue" stroke="midnightblue" points="1693.51,-15.0187 1683.61,-18.7914 1693.71,-22.0161 1693.51,-15.0187"/>
</g>
<!-- Node36 -->
<g id="node36" class="node"><title>Node36</title>
<g id="a_node36"><a xlink:href="../../db/d19/classslogo_1_1_u_i_1_1_module_creation_helper.html#aa1e7dc2b509360583790fba0d3819c8d" target="_top" xlink:title="slogo.UI.ModuleCreationHelper.create\lDebugStepOverButton">
<polygon fill="white" stroke="black" points="1966.5,-0 1966.5,-30 2163.5,-30 2163.5,-0 1966.5,-0"/>
<text text-anchor="start" x="1974.5" y="-18" font-family="Helvetica,sans-Serif" font-size="10.00">slogo.UI.ModuleCreationHelper.create</text>
<text text-anchor="middle" x="2065" y="-7" font-family="Helvetica,sans-Serif" font-size="10.00">DebugStepOverButton</text>
</a>
</g>
</g>
<!-- Node35&#45;&gt;Node36 -->
<g id="edge44" class="edge"><title>Node35&#45;&gt;Node36</title>
<path fill="none" stroke="midnightblue" d="M1935.89,-15C1946.04,-15 1956.26,-15 1966.27,-15"/>
<polygon fill="midnightblue" stroke="midnightblue" points="1935.78,-11.5001 1925.78,-15 1935.78,-18.5001 1935.78,-11.5001"/>
</g>
<!-- Node36&#45;&gt;Node33 -->
<g id="edge45" class="edge"><title>Node36&#45;&gt;Node33</title>
<path fill="none" stroke="midnightblue" d="M2170.99,-31.6227C2184.31,-33.7329 2197.89,-35.8827 2211.05,-37.966"/>
<polygon fill="midnightblue" stroke="midnightblue" points="2171.28,-28.1256 2160.85,-30.0186 2170.18,-35.0395 2171.28,-28.1256"/>
</g>
</g>
</svg>
