<?xml version="1.0" encoding="UTF-8" standalone="no"?>
<!DOCTYPE svg PUBLIC "-//W3C//DTD SVG 1.1//EN"
 "http://www.w3.org/Graphics/SVG/1.1/DTD/svg11.dtd">
<!-- Generated by graphviz version 2.36.0 (20140111.2315)
 -->
<!-- Title: slogo.UI.ToroidalHelper.setLineCoords Pages: 1 -->
<svg width="3848pt" height="427pt"
 viewBox="0.00 0.00 3848.00 427.00" xmlns="http://www.w3.org/2000/svg" xmlns:xlink="http://www.w3.org/1999/xlink">
<g id="graph0" class="graph" transform="scale(1 1) rotate(0) translate(4 423)">
<title>slogo.UI.ToroidalHelper.setLineCoords</title>
<polygon fill="white" stroke="none" points="-4,4 -4,-423 3844,-423 3844,4 -4,4"/>
<!-- Node1 -->
<g id="node1" class="node"><title>Node1</title>
<polygon fill="#bfbfbf" stroke="black" points="0.5,-49 0.5,-79 143.5,-79 143.5,-49 0.5,-49"/>
<text text-anchor="start" x="8.5" y="-67" font-family="Helvetica,sans-Serif" font-size="10.00">slogo.UI.ToroidalHelper.set</text>
<text text-anchor="middle" x="72" y="-56" font-family="Helvetica,sans-Serif" font-size="10.00">LineCoords</text>
</g>
<!-- Node2 -->
<g id="node2" class="node"><title>Node2</title>
<g id="a_node2"><a xlink:href="../../d0/d32/classslogo_1_1_u_i_1_1_toroidal_helper.html#a6ff252815c642ce9b37ff6c50f9cc466" target="_top" xlink:title="slogo.UI.ToroidalHelper.run\lXCalculations">
<polygon fill="white" stroke="black" points="360.5,-74 360.5,-104 503.5,-104 503.5,-74 360.5,-74"/>
<text text-anchor="start" x="368.5" y="-92" font-family="Helvetica,sans-Serif" font-size="10.00">slogo.UI.ToroidalHelper.run</text>
<text text-anchor="middle" x="432" y="-81" font-family="Helvetica,sans-Serif" font-size="10.00">XCalculations</text>
</a>
</g>
</g>
<!-- Node1&#45;&gt;Node2 -->
<g id="edge1" class="edge"><title>Node1&#45;&gt;Node2</title>
<path fill="none" stroke="midnightblue" d="M153.887,-69.6486C216.032,-73.9883 301.007,-79.9223 360.418,-84.0711"/>
<polygon fill="midnightblue" stroke="midnightblue" points="153.949,-66.1444 143.729,-68.9392 153.461,-73.1274 153.949,-66.1444"/>
</g>
<!-- Node37 -->
<g id="node37" class="node"><title>Node37</title>
<g id="a_node37"><a xlink:href="../../d0/d32/classslogo_1_1_u_i_1_1_toroidal_helper.html#ab0c1d137b6ae06b1379ea8df424ca082" target="_top" xlink:title="slogo.UI.ToroidalHelper.run\lYCalculations">
<polygon fill="white" stroke="black" points="180.5,-27 180.5,-57 323.5,-57 323.5,-27 180.5,-27"/>
<text text-anchor="start" x="188.5" y="-45" font-family="Helvetica,sans-Serif" font-size="10.00">slogo.UI.ToroidalHelper.run</text>
<text text-anchor="middle" x="252" y="-34" font-family="Helvetica,sans-Serif" font-size="10.00">YCalculations</text>
</a>
</g>
</g>
<!-- Node1&#45;&gt;Node37 -->
<g id="edge46" class="edge"><title>Node1&#45;&gt;Node37</title>
<path fill="none" stroke="midnightblue" d="M153.646,-54.0325C162.599,-52.926 171.666,-51.8054 180.479,-50.716"/>
<polygon fill="midnightblue" stroke="midnightblue" points="153.101,-50.5731 143.606,-55.2734 153.96,-57.5203 153.101,-50.5731"/>
</g>
<!-- Node3 -->
<g id="node3" class="node"><title>Node3</title>
<g id="a_node3"><a xlink:href="../../d0/d32/classslogo_1_1_u_i_1_1_toroidal_helper.html#a9d143072a1321d4267bb97cf11062922" target="_top" xlink:title="slogo.UI.ToroidalHelper.cut\lLines">
<polygon fill="white" stroke="black" points="540.5,-49 540.5,-79 683.5,-79 683.5,-49 540.5,-49"/>
<text text-anchor="start" x="548.5" y="-67" font-family="Helvetica,sans-Serif" font-size="10.00">slogo.UI.ToroidalHelper.cut</text>
<text text-anchor="middle" x="612" y="-56" font-family="Helvetica,sans-Serif" font-size="10.00">Lines</text>
</a>
</g>
</g>
<!-- Node2&#45;&gt;Node3 -->
<g id="edge2" class="edge"><title>Node2&#45;&gt;Node3</title>
<path fill="none" stroke="midnightblue" d="M513.646,-77.6733C522.599,-76.4159 531.666,-75.1425 540.479,-73.9046"/>
<polygon fill="midnightblue" stroke="midnightblue" points="513.022,-74.2265 503.606,-79.0834 513.996,-81.1585 513.022,-74.2265"/>
</g>
<!-- Node4 -->
<g id="node4" class="node"><title>Node4</title>
<g id="a_node4"><a xlink:href="../../d0/d32/classslogo_1_1_u_i_1_1_toroidal_helper.html#a3310ad36e6dae43f4741e3a67ebd0144" target="_top" xlink:title="slogo.UI.ToroidalHelper.make\lLinesToroidal">
<polygon fill="white" stroke="black" points="720.5,-49 720.5,-79 875.5,-79 875.5,-49 720.5,-49"/>
<text text-anchor="start" x="728.5" y="-67" font-family="Helvetica,sans-Serif" font-size="10.00">slogo.UI.ToroidalHelper.make</text>
<text text-anchor="middle" x="798" y="-56" font-family="Helvetica,sans-Serif" font-size="10.00">LinesToroidal</text>
</a>
</g>
</g>
<!-- Node3&#45;&gt;Node4 -->
<g id="edge3" class="edge"><title>Node3&#45;&gt;Node4</title>
<path fill="none" stroke="midnightblue" d="M693.892,-64C702.719,-64 711.685,-64 720.458,-64"/>
<polygon fill="midnightblue" stroke="midnightblue" points="693.613,-60.5001 683.613,-64 693.613,-67.5001 693.613,-60.5001"/>
</g>
<!-- Node5 -->
<g id="node5" class="node"><title>Node5</title>
<g id="a_node5"><a xlink:href="../../d9/d7e/classslogo_1_1_u_i_1_1_method_runner.html#ae05c629b80fe3379d77aea026b58b1ae" target="_top" xlink:title="slogo.UI.MethodRunner.draw\lLinesUsingToroidal">
<polygon fill="white" stroke="black" points="912,-49 912,-79 1064,-79 1064,-49 912,-49"/>
<text text-anchor="start" x="920" y="-67" font-family="Helvetica,sans-Serif" font-size="10.00">slogo.UI.MethodRunner.draw</text>
<text text-anchor="middle" x="988" y="-56" font-family="Helvetica,sans-Serif" font-size="10.00">LinesUsingToroidal</text>
</a>
</g>
</g>
<!-- Node4&#45;&gt;Node5 -->
<g id="edge4" class="edge"><title>Node4&#45;&gt;Node5</title>
<path fill="none" stroke="midnightblue" d="M885.834,-64C894.481,-64 903.209,-64 911.724,-64"/>
<polygon fill="midnightblue" stroke="midnightblue" points="885.738,-60.5001 875.738,-64 885.738,-67.5001 885.738,-60.5001"/>
</g>
<!-- Node6 -->
<g id="node6" class="node"><title>Node6</title>
<g id="a_node6"><a xlink:href="../../d9/d7e/classslogo_1_1_u_i_1_1_method_runner.html#a1ab80948935d4a625cf3313eabe9a51d" target="_top" xlink:title="slogo.UI.MethodRunner.move\lTurtle">
<polygon fill="white" stroke="black" points="1100,-49 1100,-79 1256,-79 1256,-49 1100,-49"/>
<text text-anchor="start" x="1108" y="-67" font-family="Helvetica,sans-Serif" font-size="10.00">slogo.UI.MethodRunner.move</text>
<text text-anchor="middle" x="1178" y="-56" font-family="Helvetica,sans-Serif" font-size="10.00">Turtle</text>
</a>
</g>
</g>
<!-- Node5&#45;&gt;Node6 -->
<g id="edge5" class="edge"><title>Node5&#45;&gt;Node6</title>
<path fill="none" stroke="midnightblue" d="M1074.12,-64C1082.69,-64 1091.37,-64 1099.85,-64"/>
<polygon fill="midnightblue" stroke="midnightblue" points="1074.11,-60.5001 1064.11,-64 1074.11,-67.5001 1074.11,-60.5001"/>
</g>
<!-- Node7 -->
<g id="node7" class="node"><title>Node7</title>
<g id="a_node7"><a xlink:href="../../d9/d7e/classslogo_1_1_u_i_1_1_method_runner.html#a5fe4a6310ba1b0851d7d30a440511324" target="_top" xlink:title="slogo.UI.MethodRunner.change\lTurtle">
<polygon fill="white" stroke="black" points="1292,-49 1292,-79 1456,-79 1456,-49 1292,-49"/>
<text text-anchor="start" x="1300" y="-67" font-family="Helvetica,sans-Serif" font-size="10.00">slogo.UI.MethodRunner.change</text>
<text text-anchor="middle" x="1374" y="-56" font-family="Helvetica,sans-Serif" font-size="10.00">Turtle</text>
</a>
</g>
</g>
<!-- Node6&#45;&gt;Node7 -->
<g id="edge6" class="edge"><title>Node6&#45;&gt;Node7</title>
<path fill="none" stroke="midnightblue" d="M1266.49,-64C1274.95,-64 1283.5,-64 1291.9,-64"/>
<polygon fill="midnightblue" stroke="midnightblue" points="1266.23,-60.5001 1256.23,-64 1266.23,-67.5001 1266.23,-60.5001"/>
</g>
<!-- Node8 -->
<g id="node8" class="node"><title>Node8</title>
<g id="a_node8"><a xlink:href="../../df/d2d/classslogo_1_1_view.html#accc79c56511a72090ff8a4d414b8d1f5" target="_top" xlink:title="slogo.View.executeTurtle\lCommands">
<polygon fill="white" stroke="black" points="1492.5,-49 1492.5,-79 1625.5,-79 1625.5,-49 1492.5,-49"/>
<text text-anchor="start" x="1500.5" y="-67" font-family="Helvetica,sans-Serif" font-size="10.00">slogo.View.executeTurtle</text>
<text text-anchor="middle" x="1559" y="-56" font-family="Helvetica,sans-Serif" font-size="10.00">Commands</text>
</a>
</g>
</g>
<!-- Node7&#45;&gt;Node8 -->
<g id="edge7" class="edge"><title>Node7&#45;&gt;Node8</title>
<path fill="none" stroke="midnightblue" d="M1466.35,-64C1475.13,-64 1483.91,-64 1492.37,-64"/>
<polygon fill="midnightblue" stroke="midnightblue" points="1466.07,-60.5001 1456.07,-64 1466.07,-67.5001 1466.07,-60.5001"/>
</g>
<!-- Node9 -->
<g id="node9" class="node"><title>Node9</title>
<g id="a_node9"><a xlink:href="../../df/d2d/classslogo_1_1_view.html#aa90e5d95d422b58b7f4b7f8a049defe1" target="_top" xlink:title="slogo.View.executeCommand">
<polygon fill="white" stroke="black" points="1662,-54.5 1662,-73.5 1820,-73.5 1820,-54.5 1662,-54.5"/>
<text text-anchor="middle" x="1741" y="-61.5" font-family="Helvetica,sans-Serif" font-size="10.00">slogo.View.executeCommand</text>
</a>
</g>
</g>
<!-- Node8&#45;&gt;Node9 -->
<g id="edge8" class="edge"><title>Node8&#45;&gt;Node9</title>
<path fill="none" stroke="midnightblue" d="M1635.78,-64C1644.42,-64 1653.24,-64 1661.9,-64"/>
<polygon fill="midnightblue" stroke="midnightblue" points="1635.75,-60.5001 1625.75,-64 1635.75,-67.5001 1635.75,-60.5001"/>
</g>
<!-- Node10 -->
<g id="node10" class="node"><title>Node10</title>
<g id="a_node10"><a xlink:href="../../df/d2d/classslogo_1_1_view.html#aee563f6a0b15ac6668e4dcbdad40c73c" target="_top" xlink:title="slogo.View.sendCommandTo\lBackend">
<polygon fill="white" stroke="black" points="1862,-213 1862,-243 2014,-243 2014,-213 1862,-213"/>
<text text-anchor="start" x="1870" y="-231" font-family="Helvetica,sans-Serif" font-size="10.00">slogo.View.sendCommandTo</text>
<text text-anchor="middle" x="1938" y="-220" font-family="Helvetica,sans-Serif" font-size="10.00">Backend</text>
</a>
</g>
</g>
<!-- Node9&#45;&gt;Node10 -->
<g id="edge9" class="edge"><title>Node9&#45;&gt;Node10</title>
<path fill="none" stroke="midnightblue" d="M1761.05,-80.0252C1798.77,-111.741 1882.43,-182.108 1919.15,-212.984"/>
<polygon fill="midnightblue" stroke="midnightblue" points="1763.23,-77.2841 1753.33,-73.5262 1758.73,-82.6414 1763.23,-77.2841"/>
</g>
<!-- Node30 -->
<g id="node30" class="node"><title>Node30</title>
<g id="a_node30"><a xlink:href="../../df/d2d/classslogo_1_1_view.html#a4c3084a198acf85804800d70eff9ee51" target="_top" xlink:title="slogo.View.stepIntoCommand">
<polygon fill="white" stroke="black" points="1859,-54.5 1859,-73.5 2017,-73.5 2017,-54.5 1859,-54.5"/>
<text text-anchor="middle" x="1938" y="-61.5" font-family="Helvetica,sans-Serif" font-size="10.00">slogo.View.stepIntoCommand</text>
</a>
</g>
</g>
<!-- Node9&#45;&gt;Node30 -->
<g id="edge37" class="edge"><title>Node9&#45;&gt;Node30</title>
<path fill="none" stroke="midnightblue" d="M1830.4,-64C1839.87,-64 1849.45,-64 1858.79,-64"/>
<polygon fill="midnightblue" stroke="midnightblue" points="1830.19,-60.5001 1820.19,-64 1830.19,-67.5001 1830.19,-60.5001"/>
</g>
<!-- Node34 -->
<g id="node34" class="node"><title>Node34</title>
<g id="a_node34"><a xlink:href="../../df/d2d/classslogo_1_1_view.html#ac8b7f574c679e744a430f1649dc55e68" target="_top" xlink:title="slogo.View.stepOverCommand">
<polygon fill="white" stroke="black" points="1856.5,-11.5 1856.5,-30.5 2019.5,-30.5 2019.5,-11.5 1856.5,-11.5"/>
<text text-anchor="middle" x="1938" y="-18.5" font-family="Helvetica,sans-Serif" font-size="10.00">slogo.View.stepOverCommand</text>
</a>
</g>
</g>
<!-- Node9&#45;&gt;Node34 -->
<g id="edge42" class="edge"><title>Node9&#45;&gt;Node34</title>
<path fill="none" stroke="midnightblue" d="M1795.06,-52.3005C1826.07,-45.462 1864.71,-36.9406 1893.84,-30.5164"/>
<polygon fill="midnightblue" stroke="midnightblue" points="1794.29,-48.8855 1785.28,-54.4569 1795.8,-55.7213 1794.29,-48.8855"/>
</g>
<!-- Node11 -->
<g id="node11" class="node"><title>Node11</title>
<g id="a_node11"><a xlink:href="../../db/d19/classslogo_1_1_u_i_1_1_module_creation_helper.html#a69e17abcc7cf9a6ed7261d8fb1d631fa" target="_top" xlink:title="slogo.UI.ModuleCreationHelper.activate\lIncreaseDecreaseButtons">
<polygon fill="white" stroke="black" points="2056.5,-389 2056.5,-419 2261.5,-419 2261.5,-389 2056.5,-389"/>
<text text-anchor="start" x="2064.5" y="-407" font-family="Helvetica,sans-Serif" font-size="10.00">slogo.UI.ModuleCreationHelper.activate</text>
<text text-anchor="middle" x="2159" y="-396" font-family="Helvetica,sans-Serif" font-size="10.00">IncreaseDecreaseButtons</text>
</a>
</g>
</g>
<!-- Node10&#45;&gt;Node11 -->
<g id="edge10" class="edge"><title>Node10&#45;&gt;Node11</title>
<path fill="none" stroke="midnightblue" d="M1952.04,-252.219C1970.78,-284.724 2008.36,-342.06 2056,-374 2065.12,-380.116 2075.51,-385.01 2086.09,-388.919"/>
<polygon fill="midnightblue" stroke="midnightblue" points="1955.01,-250.361 1947.05,-243.368 1948.91,-253.798 1955.01,-250.361"/>
</g>
<!-- Node18 -->
<g id="node18" class="node"><title>Node18</title>
<g id="a_node18"><a xlink:href="../../db/d19/classslogo_1_1_u_i_1_1_module_creation_helper.html#aa70b0ad9e90e62509149bfd2ef2ba209" target="_top" xlink:title="slogo.UI.ModuleCreationHelper.activate\lKeyEvents">
<polygon fill="white" stroke="black" points="2782.5,-136 2782.5,-166 2987.5,-166 2987.5,-136 2782.5,-136"/>
<text text-anchor="start" x="2790.5" y="-154" font-family="Helvetica,sans-Serif" font-size="10.00">slogo.UI.ModuleCreationHelper.activate</text>
<text text-anchor="middle" x="2885" y="-143" font-family="Helvetica,sans-Serif" font-size="10.00">KeyEvents</text>
</a>
</g>
</g>
<!-- Node10&#45;&gt;Node18 -->
<g id="edge18" class="edge"><title>Node10&#45;&gt;Node18</title>
<path fill="none" stroke="midnightblue" d="M1968.18,-207.164C1990.9,-192.251 2023.88,-173.388 2056,-165 2190.15,-129.97 2592.16,-139.777 2782.26,-146.744"/>
<polygon fill="midnightblue" stroke="midnightblue" points="1966.05,-204.378 1959.7,-212.86 1969.95,-210.189 1966.05,-204.378"/>
</g>
<!-- Node19 -->
<g id="node19" class="node"><title>Node19</title>
<g id="a_node19"><a xlink:href="../../db/d19/classslogo_1_1_u_i_1_1_module_creation_helper.html#a2e841243ec3ca474e8822102343acc88" target="_top" xlink:title="slogo.UI.ModuleCreationHelper.activate\lNewTurtleButton">
<polygon fill="white" stroke="black" points="2298.5,-344 2298.5,-374 2503.5,-374 2503.5,-344 2298.5,-344"/>
<text text-anchor="start" x="2306.5" y="-362" font-family="Helvetica,sans-Serif" font-size="10.00">slogo.UI.ModuleCreationHelper.activate</text>
<text text-anchor="middle" x="2401" y="-351" font-family="Helvetica,sans-Serif" font-size="10.00">NewTurtleButton</text>
</a>
</g>
</g>
<!-- Node10&#45;&gt;Node19 -->
<g id="edge20" class="edge"><title>Node10&#45;&gt;Node19</title>
<path fill="none" stroke="midnightblue" d="M1955.02,-251.155C1975.1,-278.009 2012.24,-321.013 2056,-340 2132.41,-373.152 2227.47,-375.86 2298.29,-371.435"/>
<polygon fill="midnightblue" stroke="midnightblue" points="1957.83,-249.073 1949.11,-243.055 1952.18,-253.197 1957.83,-249.073"/>
</g>
<!-- Node21 -->
<g id="node21" class="node"><title>Node21</title>
<g id="a_node21"><a xlink:href="../../db/d19/classslogo_1_1_u_i_1_1_module_creation_helper.html#a9b1f07ab673191067907a059b1b0c524" target="_top" xlink:title="slogo.UI.ModuleCreationHelper.activate\lPlayButton">
<polygon fill="white" stroke="black" points="2056.5,-301 2056.5,-331 2261.5,-331 2261.5,-301 2056.5,-301"/>
<text text-anchor="start" x="2064.5" y="-319" font-family="Helvetica,sans-Serif" font-size="10.00">slogo.UI.ModuleCreationHelper.activate</text>
<text text-anchor="middle" x="2159" y="-308" font-family="Helvetica,sans-Serif" font-size="10.00">PlayButton</text>
</a>
</g>
</g>
<!-- Node10&#45;&gt;Node21 -->
<g id="edge23" class="edge"><title>Node10&#45;&gt;Node21</title>
<path fill="none" stroke="midnightblue" d="M1971.42,-248.354C1994.33,-262.006 2026.16,-279.522 2056,-291 2065.7,-294.73 2076.14,-298.039 2086.5,-300.929"/>
<polygon fill="midnightblue" stroke="midnightblue" points="1973.16,-245.317 1962.79,-243.145 1969.54,-251.31 1973.16,-245.317"/>
</g>
<!-- Node24 -->
<g id="node24" class="node"><title>Node24</title>
<g id="a_node24"><a xlink:href="../../db/d19/classslogo_1_1_u_i_1_1_module_creation_helper.html#a3a38d485562cb17591ec3fd07cffc18a" target="_top" xlink:title="slogo.UI.ModuleCreationHelper.activate\lTurtleCanvas">
<polygon fill="white" stroke="black" points="2540.5,-87 2540.5,-117 2745.5,-117 2745.5,-87 2540.5,-87"/>
<text text-anchor="start" x="2548.5" y="-105" font-family="Helvetica,sans-Serif" font-size="10.00">slogo.UI.ModuleCreationHelper.activate</text>
<text text-anchor="middle" x="2643" y="-94" font-family="Helvetica,sans-Serif" font-size="10.00">TurtleCanvas</text>
</a>
</g>
</g>
<!-- Node10&#45;&gt;Node24 -->
<g id="edge27" class="edge"><title>Node10&#45;&gt;Node24</title>
<path fill="none" stroke="midnightblue" d="M1958.37,-205.232C1979.63,-182.064 2016.1,-147.434 2056,-132 2141.51,-98.92 2396.48,-97.5272 2540.33,-99.6157"/>
<polygon fill="midnightblue" stroke="midnightblue" points="1955.56,-203.115 1951.5,-212.898 1960.78,-207.786 1955.56,-203.115"/>
</g>
<!-- Node26 -->
<g id="node26" class="node"><title>Node26</title>
<g id="a_node26"><a xlink:href="../../d1/d5f/classslogo_1_1_u_i_1_1_path_color_selector.html#ad3d9c82a0904c97edcec7cf67b85bd7b" target="_top" xlink:title="slogo.UI.PathColorSelector.create">
<polygon fill="white" stroke="black" points="2071,-262.5 2071,-281.5 2247,-281.5 2247,-262.5 2071,-262.5"/>
<text text-anchor="middle" x="2159" y="-269.5" font-family="Helvetica,sans-Serif" font-size="10.00">slogo.UI.PathColorSelector.create</text>
</a>
</g>
</g>
<!-- Node10&#45;&gt;Node26 -->
<g id="edge30" class="edge"><title>Node10&#45;&gt;Node26</title>
<path fill="none" stroke="midnightblue" d="M2021.74,-245.065C2033.24,-247.411 2044.91,-249.776 2056,-252 2073.25,-255.46 2092.16,-259.186 2108.95,-262.473"/>
<polygon fill="midnightblue" stroke="midnightblue" points="2022.19,-241.585 2011.69,-243.013 2020.79,-248.443 2022.19,-241.585"/>
</g>
<!-- Node28 -->
<g id="node28" class="node"><title>Node28</title>
<g id="a_node28"><a xlink:href="../../d4/d8d/classslogo_1_1_u_i_1_1_background_color_selector.html#ad75ba4ce104e071811d0fe039a4e839f" target="_top" xlink:title="slogo.UI.BackgroundColor\lSelector.create">
<polygon fill="white" stroke="black" points="2089,-213 2089,-243 2229,-243 2229,-213 2089,-213"/>
<text text-anchor="start" x="2097" y="-231" font-family="Helvetica,sans-Serif" font-size="10.00">slogo.UI.BackgroundColor</text>
<text text-anchor="middle" x="2159" y="-220" font-family="Helvetica,sans-Serif" font-size="10.00">Selector.create</text>
</a>
</g>
</g>
<!-- Node10&#45;&gt;Node28 -->
<g id="edge33" class="edge"><title>Node10&#45;&gt;Node28</title>
<path fill="none" stroke="midnightblue" d="M2024.14,-228C2045.6,-228 2068.37,-228 2088.93,-228"/>
<polygon fill="midnightblue" stroke="midnightblue" points="2024.06,-224.5 2014.06,-228 2024.06,-231.5 2024.06,-224.5"/>
</g>
<!-- Node29 -->
<g id="node29" class="node"><title>Node29</title>
<g id="a_node29"><a xlink:href="../../dd/da7/classslogo_1_1_u_i_1_1_turtle_image_selector.html#a3f268d9196ffebcbb5dc322d2897a9fe" target="_top" xlink:title="slogo.UI.TurtleImageSelector.create">
<polygon fill="white" stroke="black" points="2066,-174.5 2066,-193.5 2252,-193.5 2252,-174.5 2066,-174.5"/>
<text text-anchor="middle" x="2159" y="-181.5" font-family="Helvetica,sans-Serif" font-size="10.00">slogo.UI.TurtleImageSelector.create</text>
</a>
</g>
</g>
<!-- Node10&#45;&gt;Node29 -->
<g id="edge35" class="edge"><title>Node10&#45;&gt;Node29</title>
<path fill="none" stroke="midnightblue" d="M2018.01,-210.821C2030.7,-208.147 2043.71,-205.458 2056,-203 2071.99,-199.804 2089.42,-196.493 2105.27,-193.548"/>
<polygon fill="midnightblue" stroke="midnightblue" points="2016.98,-207.463 2007.92,-212.958 2018.43,-214.311 2016.98,-207.463"/>
</g>
<!-- Node12 -->
<g id="node12" class="node"><title>Node12</title>
<g id="a_node12"><a xlink:href="../../db/d19/classslogo_1_1_u_i_1_1_module_creation_helper.html#adce7362386f9a7b3006e7db08a2d578d" target="_top" xlink:title="slogo.UI.ModuleCreationHelper.create\lIncreaseDecreaseButtons">
<polygon fill="white" stroke="black" points="2544.5,-380 2544.5,-410 2741.5,-410 2741.5,-380 2544.5,-380"/>
<text text-anchor="start" x="2552.5" y="-398" font-family="Helvetica,sans-Serif" font-size="10.00">slogo.UI.ModuleCreationHelper.create</text>
<text text-anchor="middle" x="2643" y="-387" font-family="Helvetica,sans-Serif" font-size="10.00">IncreaseDecreaseButtons</text>
</a>
</g>
</g>
<!-- Node11&#45;&gt;Node12 -->
<g id="edge11" class="edge"><title>Node11&#45;&gt;Node12</title>
<path fill="none" stroke="midnightblue" d="M2271.79,-401.913C2354.23,-400.373 2465.29,-398.299 2544.21,-396.826"/>
<polygon fill="midnightblue" stroke="midnightblue" points="2271.56,-398.416 2261.63,-402.102 2271.69,-405.415 2271.56,-398.416"/>
</g>
<!-- Node13 -->
<g id="node13" class="node"><title>Node13</title>
<g id="a_node13"><a xlink:href="../../db/d19/classslogo_1_1_u_i_1_1_module_creation_helper.html#a7c650957b2389d6e6d36e8be8a33cd2b" target="_top" xlink:title="slogo.UI.ModuleCreationHelper.create\lSelectorVBoxModules">
<polygon fill="white" stroke="black" points="2786.5,-253 2786.5,-283 2983.5,-283 2983.5,-253 2786.5,-253"/>
<text text-anchor="start" x="2794.5" y="-271" font-family="Helvetica,sans-Serif" font-size="10.00">slogo.UI.ModuleCreationHelper.create</text>
<text text-anchor="middle" x="2885" y="-260" font-family="Helvetica,sans-Serif" font-size="10.00">SelectorVBoxModules</text>
</a>
</g>
</g>
<!-- Node12&#45;&gt;Node13 -->
<g id="edge12" class="edge"><title>Node12&#45;&gt;Node13</title>
<path fill="none" stroke="midnightblue" d="M2727,-376.732C2733.54,-374.424 2739.95,-371.854 2746,-369 2794.6,-346.077 2843.46,-305.079 2867.92,-283.025"/>
<polygon fill="midnightblue" stroke="midnightblue" points="2725.75,-373.461 2717.36,-379.93 2727.95,-380.105 2725.75,-373.461"/>
</g>
<!-- Node14 -->
<g id="node14" class="node"><title>Node14</title>
<g id="a_node14"><a xlink:href="../../db/d19/classslogo_1_1_u_i_1_1_module_creation_helper.html#afb9dbbbad7d872234a5b296fe129a34e" target="_top" xlink:title="slogo.UI.ModuleCreationHelper.create\lMainPageModules">
<polygon fill="white" stroke="black" points="3024.5,-136 3024.5,-166 3221.5,-166 3221.5,-136 3024.5,-136"/>
<text text-anchor="start" x="3032.5" y="-154" font-family="Helvetica,sans-Serif" font-size="10.00">slogo.UI.ModuleCreationHelper.create</text>
<text text-anchor="middle" x="3123" y="-143" font-family="Helvetica,sans-Serif" font-size="10.00">MainPageModules</text>
</a>
</g>
</g>
<!-- Node13&#45;&gt;Node14 -->
<g id="edge13" class="edge"><title>Node13&#45;&gt;Node14</title>
<path fill="none" stroke="midnightblue" d="M2925.58,-248.38C2972.29,-225.222 3048.96,-187.212 3091.37,-166.184"/>
<polygon fill="midnightblue" stroke="midnightblue" points="2923.77,-245.366 2916.37,-252.944 2926.88,-251.638 2923.77,-245.366"/>
</g>
<!-- Node15 -->
<g id="node15" class="node"><title>Node15</title>
<g id="a_node15"><a xlink:href="../../d9/d33/classslogo_1_1_u_i_1_1_main.html#a15b7f2e399ee24d160550993ab737e73" target="_top" xlink:title="slogo.UI.Main.start">
<polygon fill="white" stroke="black" points="3258,-150.5 3258,-169.5 3364,-169.5 3364,-150.5 3258,-150.5"/>
<text text-anchor="middle" x="3311" y="-157.5" font-family="Helvetica,sans-Serif" font-size="10.00">slogo.UI.Main.start</text>
</a>
</g>
</g>
<!-- Node14&#45;&gt;Node15 -->
<g id="edge14" class="edge"><title>Node14&#45;&gt;Node15</title>
<path fill="none" stroke="midnightblue" d="M3231.8,-156.216C3240.76,-156.65 3249.53,-157.074 3257.76,-157.472"/>
<polygon fill="midnightblue" stroke="midnightblue" points="3231.79,-152.712 3221.63,-155.724 3231.45,-159.703 3231.79,-152.712"/>
</g>
<!-- Node16 -->
<g id="node16" class="node"><title>Node16</title>
<g id="a_node16"><a xlink:href="../../db/d19/classslogo_1_1_u_i_1_1_module_creation_helper.html#a3be12a7cc2b8a219db1e296211a2cb88" target="_top" xlink:title="slogo.UI.ModuleCreationHelper.activate\lExtraWorkspaceButton">
<polygon fill="white" stroke="black" points="3400.5,-163 3400.5,-193 3605.5,-193 3605.5,-163 3400.5,-163"/>
<text text-anchor="start" x="3408.5" y="-181" font-family="Helvetica,sans-Serif" font-size="10.00">slogo.UI.ModuleCreationHelper.activate</text>
<text text-anchor="middle" x="3503" y="-170" font-family="Helvetica,sans-Serif" font-size="10.00">ExtraWorkspaceButton</text>
</a>
</g>
</g>
<!-- Node15&#45;&gt;Node16 -->
<g id="edge15" class="edge"><title>Node15&#45;&gt;Node16</title>
<path fill="none" stroke="midnightblue" d="M3374.22,-165.894C3382.63,-166.691 3391.44,-167.526 3400.32,-168.367"/>
<polygon fill="midnightblue" stroke="midnightblue" points="3374.46,-162.401 3364.17,-164.942 3373.79,-169.37 3374.46,-162.401"/>
</g>
<!-- Node17 -->
<g id="node17" class="node"><title>Node17</title>
<g id="a_node17"><a xlink:href="../../db/d19/classslogo_1_1_u_i_1_1_module_creation_helper.html#a702c1ebe24d2857a10c666eb1fcc315d" target="_top" xlink:title="slogo.UI.ModuleCreationHelper.create\lExtraWorkspaceButton">
<polygon fill="white" stroke="black" points="3642.5,-189 3642.5,-219 3839.5,-219 3839.5,-189 3642.5,-189"/>
<text text-anchor="start" x="3650.5" y="-207" font-family="Helvetica,sans-Serif" font-size="10.00">slogo.UI.ModuleCreationHelper.create</text>
<text text-anchor="middle" x="3741" y="-196" font-family="Helvetica,sans-Serif" font-size="10.00">ExtraWorkspaceButton</text>
</a>
</g>
</g>
<!-- Node16&#45;&gt;Node17 -->
<g id="edge16" class="edge"><title>Node16&#45;&gt;Node17</title>
<path fill="none" stroke="midnightblue" d="M3615.77,-190.313C3624.62,-191.289 3633.52,-192.27 3642.27,-193.234"/>
<polygon fill="midnightblue" stroke="midnightblue" points="3616.12,-186.831 3605.8,-189.215 3615.35,-193.789 3616.12,-186.831"/>
</g>
<!-- Node17&#45;&gt;Node13 -->
<g id="edge17" class="edge"><title>Node17&#45;&gt;Node13</title>
<path fill="none" stroke="midnightblue" d="M3632.34,-212.068C3464.9,-224.617 3144.6,-248.62 2983.55,-260.69"/>
<polygon fill="midnightblue" stroke="midnightblue" points="3632.7,-215.551 3642.41,-211.313 3632.18,-208.571 3632.7,-215.551"/>
</g>
<!-- Node18&#45;&gt;Node14 -->
<g id="edge19" class="edge"><title>Node18&#45;&gt;Node14</title>
<path fill="none" stroke="midnightblue" d="M2998.05,-151C3006.81,-151 3015.62,-151 3024.27,-151"/>
<polygon fill="midnightblue" stroke="midnightblue" points="2997.8,-147.5 2987.8,-151 2997.8,-154.5 2997.8,-147.5"/>
</g>
<!-- Node20 -->
<g id="node20" class="node"><title>Node20</title>
<g id="a_node20"><a xlink:href="../../db/d19/classslogo_1_1_u_i_1_1_module_creation_helper.html#a07f5483df317cdf80e8ea2dda5699afa" target="_top" xlink:title="slogo.UI.ModuleCreationHelper.create\lNewTurtleButton">
<polygon fill="white" stroke="black" points="2544.5,-330 2544.5,-360 2741.5,-360 2741.5,-330 2544.5,-330"/>
<text text-anchor="start" x="2552.5" y="-348" font-family="Helvetica,sans-Serif" font-size="10.00">slogo.UI.ModuleCreationHelper.create</text>
<text text-anchor="middle" x="2643" y="-337" font-family="Helvetica,sans-Serif" font-size="10.00">NewTurtleButton</text>
</a>
</g>
</g>
<!-- Node19&#45;&gt;Node20 -->
<g id="edge21" class="edge"><title>Node19&#45;&gt;Node20</title>
<path fill="none" stroke="midnightblue" d="M2513.89,-352.473C2524.04,-351.881 2534.26,-351.285 2544.27,-350.701"/>
<polygon fill="midnightblue" stroke="midnightblue" points="2513.56,-348.986 2503.78,-353.063 2513.97,-355.974 2513.56,-348.986"/>
</g>
<!-- Node20&#45;&gt;Node13 -->
<g id="edge22" class="edge"><title>Node20&#45;&gt;Node13</title>
<path fill="none" stroke="midnightblue" d="M2714.15,-327.309C2724.87,-324.354 2735.76,-321.203 2746,-318 2779.93,-307.387 2817.86,-293.493 2845.35,-283.046"/>
<polygon fill="midnightblue" stroke="midnightblue" points="2713.12,-323.962 2704.39,-329.963 2714.96,-330.717 2713.12,-323.962"/>
</g>
<!-- Node22 -->
<g id="node22" class="node"><title>Node22</title>
<g id="a_node22"><a xlink:href="../../db/d19/classslogo_1_1_u_i_1_1_module_creation_helper.html#a9b3fb38a55b3b7812b4f793afa7a974f" target="_top" xlink:title="slogo.UI.ModuleCreationHelper.create\lPlayButton">
<polygon fill="white" stroke="black" points="2302.5,-295 2302.5,-325 2499.5,-325 2499.5,-295 2302.5,-295"/>
<text text-anchor="start" x="2310.5" y="-313" font-family="Helvetica,sans-Serif" font-size="10.00">slogo.UI.ModuleCreationHelper.create</text>
<text text-anchor="middle" x="2401" y="-302" font-family="Helvetica,sans-Serif" font-size="10.00">PlayButton</text>
</a>
</g>
</g>
<!-- Node21&#45;&gt;Node22 -->
<g id="edge24" class="edge"><title>Node21&#45;&gt;Node22</title>
<path fill="none" stroke="midnightblue" d="M2271.89,-313.203C2282.04,-312.949 2292.26,-312.694 2302.27,-312.443"/>
<polygon fill="midnightblue" stroke="midnightblue" points="2271.69,-309.707 2261.78,-313.455 2271.87,-316.704 2271.69,-309.707"/>
</g>
<!-- Node23 -->
<g id="node23" class="node"><title>Node23</title>
<g id="a_node23"><a xlink:href="../../db/d19/classslogo_1_1_u_i_1_1_module_creation_helper.html#ae1e60d37509c2e5eddcb2a6e70b4f650" target="_top" xlink:title="slogo.UI.ModuleCreationHelper.create\lFirstRowButtons">
<polygon fill="white" stroke="black" points="2544.5,-279 2544.5,-309 2741.5,-309 2741.5,-279 2544.5,-279"/>
<text text-anchor="start" x="2552.5" y="-297" font-family="Helvetica,sans-Serif" font-size="10.00">slogo.UI.ModuleCreationHelper.create</text>
<text text-anchor="middle" x="2643" y="-286" font-family="Helvetica,sans-Serif" font-size="10.00">FirstRowButtons</text>
</a>
</g>
</g>
<!-- Node22&#45;&gt;Node23 -->
<g id="edge25" class="edge"><title>Node22&#45;&gt;Node23</title>
<path fill="none" stroke="midnightblue" d="M2509.73,-302.818C2521.3,-302.046 2533.03,-301.265 2544.47,-300.502"/>
<polygon fill="midnightblue" stroke="midnightblue" points="2509.36,-299.335 2499.62,-303.492 2509.83,-306.319 2509.36,-299.335"/>
</g>
<!-- Node23&#45;&gt;Node13 -->
<g id="edge26" class="edge"><title>Node23&#45;&gt;Node13</title>
<path fill="none" stroke="midnightblue" d="M2751.73,-282.329C2763.3,-281.075 2775.03,-279.805 2786.47,-278.566"/>
<polygon fill="midnightblue" stroke="midnightblue" points="2751.18,-278.868 2741.62,-283.425 2751.94,-285.827 2751.18,-278.868"/>
</g>
<!-- Node25 -->
<g id="node25" class="node"><title>Node25</title>
<g id="a_node25"><a xlink:href="../../db/d19/classslogo_1_1_u_i_1_1_module_creation_helper.html#a803bac6b55bde712b21f2face1eeef81" target="_top" xlink:title="slogo.UI.ModuleCreationHelper.create\lTurtleCanvas">
<polygon fill="white" stroke="black" points="2786.5,-87 2786.5,-117 2983.5,-117 2983.5,-87 2786.5,-87"/>
<text text-anchor="start" x="2794.5" y="-105" font-family="Helvetica,sans-Serif" font-size="10.00">slogo.UI.ModuleCreationHelper.create</text>
<text text-anchor="middle" x="2885" y="-94" font-family="Helvetica,sans-Serif" font-size="10.00">TurtleCanvas</text>
</a>
</g>
</g>
<!-- Node24&#45;&gt;Node25 -->
<g id="edge28" class="edge"><title>Node24&#45;&gt;Node25</title>
<path fill="none" stroke="midnightblue" d="M2755.89,-102C2766.04,-102 2776.26,-102 2786.27,-102"/>
<polygon fill="midnightblue" stroke="midnightblue" points="2755.78,-98.5001 2745.78,-102 2755.78,-105.5 2755.78,-98.5001"/>
</g>
<!-- Node25&#45;&gt;Node14 -->
<g id="edge29" class="edge"><title>Node25&#45;&gt;Node14</title>
<path fill="none" stroke="midnightblue" d="M2968.42,-119.113C2994.9,-124.611 3024.03,-130.658 3049.73,-135.994"/>
<polygon fill="midnightblue" stroke="midnightblue" points="2968.91,-115.641 2958.41,-117.035 2967.49,-122.495 2968.91,-115.641"/>
</g>
<!-- Node27 -->
<g id="node27" class="node"><title>Node27</title>
<g id="a_node27"><a xlink:href="../../db/d19/classslogo_1_1_u_i_1_1_module_creation_helper.html#af7f2919454fdbf6e9d7d912e99634857" target="_top" xlink:title="slogo.UI.ModuleCreationHelper.create\lSelectors">
<polygon fill="white" stroke="black" points="2302.5,-230 2302.5,-260 2499.5,-260 2499.5,-230 2302.5,-230"/>
<text text-anchor="start" x="2310.5" y="-248" font-family="Helvetica,sans-Serif" font-size="10.00">slogo.UI.ModuleCreationHelper.create</text>
<text text-anchor="middle" x="2401" y="-237" font-family="Helvetica,sans-Serif" font-size="10.00">Selectors</text>
</a>
</g>
</g>
<!-- Node26&#45;&gt;Node27 -->
<g id="edge31" class="edge"><title>Node26&#45;&gt;Node27</title>
<path fill="none" stroke="midnightblue" d="M2254.76,-261.339C2270.36,-259.585 2286.54,-257.764 2302.21,-256.002"/>
<polygon fill="midnightblue" stroke="midnightblue" points="2254.16,-257.885 2244.62,-262.481 2254.94,-264.841 2254.16,-257.885"/>
</g>
<!-- Node27&#45;&gt;Node13 -->
<g id="edge32" class="edge"><title>Node27&#45;&gt;Node13</title>
<path fill="none" stroke="midnightblue" d="M2509.74,-250.141C2592.55,-254.092 2705.97,-259.505 2786.19,-263.333"/>
<polygon fill="midnightblue" stroke="midnightblue" points="2509.7,-246.635 2499.54,-249.654 2509.36,-253.627 2509.7,-246.635"/>
</g>
<!-- Node28&#45;&gt;Node27 -->
<g id="edge34" class="edge"><title>Node28&#45;&gt;Node27</title>
<path fill="none" stroke="midnightblue" d="M2239.18,-233.609C2259.4,-235.041 2281.37,-236.597 2302.39,-238.086"/>
<polygon fill="midnightblue" stroke="midnightblue" points="2239.32,-230.11 2229.1,-232.894 2238.82,-237.092 2239.32,-230.11"/>
</g>
<!-- Node29&#45;&gt;Node27 -->
<g id="edge36" class="edge"><title>Node29&#45;&gt;Node27</title>
<path fill="none" stroke="midnightblue" d="M2227.48,-195.473C2239.04,-197.752 2250.9,-200.287 2262,-203 2293.38,-210.673 2328.18,-221.278 2354.98,-229.911"/>
<polygon fill="midnightblue" stroke="midnightblue" points="2227.9,-191.99 2217.42,-193.539 2226.58,-198.864 2227.9,-191.99"/>
</g>
<!-- Node31 -->
<g id="node31" class="node"><title>Node31</title>
<g id="a_node31"><a xlink:href="../../db/d19/classslogo_1_1_u_i_1_1_module_creation_helper.html#a9fd730f7c1860d34bf4ac46c3828bd59" target="_top" xlink:title="slogo.UI.ModuleCreationHelper.activate\lStepIntoButton">
<polygon fill="white" stroke="black" points="2056.5,-49 2056.5,-79 2261.5,-79 2261.5,-49 2056.5,-49"/>
<text text-anchor="start" x="2064.5" y="-67" font-family="Helvetica,sans-Serif" font-size="10.00">slogo.UI.ModuleCreationHelper.activate</text>
<text text-anchor="middle" x="2159" y="-56" font-family="Helvetica,sans-Serif" font-size="10.00">StepIntoButton</text>
</a>
</g>
</g>
<!-- Node30&#45;&gt;Node31 -->
<g id="edge38" class="edge"><title>Node30&#45;&gt;Node31</title>
<path fill="none" stroke="midnightblue" d="M2027.33,-64C2036.82,-64 2046.54,-64 2056.17,-64"/>
<polygon fill="midnightblue" stroke="midnightblue" points="2027.14,-60.5001 2017.14,-64 2027.14,-67.5001 2027.14,-60.5001"/>
</g>
<!-- Node32 -->
<g id="node32" class="node"><title>Node32</title>
<g id="a_node32"><a xlink:href="../../db/d19/classslogo_1_1_u_i_1_1_module_creation_helper.html#a4a6f1f009507c25be8c7c28cbba35f3b" target="_top" xlink:title="slogo.UI.ModuleCreationHelper.create\lDebugStepIntoButton">
<polygon fill="white" stroke="black" points="2302.5,-49 2302.5,-79 2499.5,-79 2499.5,-49 2302.5,-49"/>
<text text-anchor="start" x="2310.5" y="-67" font-family="Helvetica,sans-Serif" font-size="10.00">slogo.UI.ModuleCreationHelper.create</text>
<text text-anchor="middle" x="2401" y="-56" font-family="Helvetica,sans-Serif" font-size="10.00">DebugStepIntoButton</text>
</a>
</g>
</g>
<!-- Node31&#45;&gt;Node32 -->
<g id="edge39" class="edge"><title>Node31&#45;&gt;Node32</title>
<path fill="none" stroke="midnightblue" d="M2271.89,-64C2282.04,-64 2292.26,-64 2302.27,-64"/>
<polygon fill="midnightblue" stroke="midnightblue" points="2271.78,-60.5001 2261.78,-64 2271.78,-67.5001 2271.78,-60.5001"/>
</g>
<!-- Node33 -->
<g id="node33" class="node"><title>Node33</title>
<g id="a_node33"><a xlink:href="../../db/d19/classslogo_1_1_u_i_1_1_module_creation_helper.html#a975af4ea47dc85df72215bdf1a0d20ce" target="_top" xlink:title="slogo.UI.ModuleCreationHelper.create\lDebugModules">
<polygon fill="white" stroke="black" points="2544.5,-38 2544.5,-68 2741.5,-68 2741.5,-38 2544.5,-38"/>
<text text-anchor="start" x="2552.5" y="-56" font-family="Helvetica,sans-Serif" font-size="10.00">slogo.UI.ModuleCreationHelper.create</text>
<text text-anchor="middle" x="2643" y="-45" font-family="Helvetica,sans-Serif" font-size="10.00">DebugModules</text>
</a>
</g>
</g>
<!-- Node32&#45;&gt;Node33 -->
<g id="edge40" class="edge"><title>Node32&#45;&gt;Node33</title>
<path fill="none" stroke="midnightblue" d="M2509.73,-59.0622C2521.3,-58.5319 2533.03,-57.9945 2544.47,-57.4702"/>
<polygon fill="midnightblue" stroke="midnightblue" points="2509.45,-55.5716 2499.62,-59.5259 2509.77,-62.5643 2509.45,-55.5716"/>
</g>
<!-- Node33&#45;&gt;Node14 -->
<g id="edge41" class="edge"><title>Node33&#45;&gt;Node14</title>
<path fill="none" stroke="midnightblue" d="M2751.63,-48.679C2820.53,-48.779 2911.11,-54.2973 2988,-77 3031.33,-89.7936 3076.2,-118.228 3101.46,-135.889"/>
<polygon fill="midnightblue" stroke="midnightblue" points="2751.61,-45.1789 2741.62,-48.7021 2751.63,-52.1789 2751.61,-45.1789"/>
</g>
<!-- Node35 -->
<g id="node35" class="node"><title>Node35</title>
<g id="a_node35"><a xlink:href="../../db/d19/classslogo_1_1_u_i_1_1_module_creation_helper.html#a0fed0bb32bf2643d6fd5c24d82e8e18e" target="_top" xlink:title="slogo.UI.ModuleCreationHelper.activate\lStepOverButton">
<polygon fill="white" stroke="black" points="2056.5,-0 2056.5,-30 2261.5,-30 2261.5,-0 2056.5,-0"/>
<text text-anchor="start" x="2064.5" y="-18" font-family="Helvetica,sans-Serif" font-size="10.00">slogo.UI.ModuleCreationHelper.activate</text>
<text text-anchor="middle" x="2159" y="-7" font-family="Helvetica,sans-Serif" font-size="10.00">StepOverButton</text>
</a>
</g>
</g>
<!-- Node34&#45;&gt;Node35 -->
<g id="edge43" class="edge"><title>Node34&#45;&gt;Node35</title>
<path fill="none" stroke="midnightblue" d="M2029.8,-18.5123C2038.56,-18.2724 2047.48,-18.028 2056.33,-17.7856"/>
<polygon fill="midnightblue" stroke="midnightblue" points="2029.51,-15.0187 2019.61,-18.7914 2029.71,-22.0161 2029.51,-15.0187"/>
</g>
<!-- Node36 -->
<g id="node36" class="node"><title>Node36</title>
<g id="a_node36"><a xlink:href="../../db/d19/classslogo_1_1_u_i_1_1_module_creation_helper.html#aa1e7dc2b509360583790fba0d3819c8d" target="_top" xlink:title="slogo.UI.ModuleCreationHelper.create\lDebugStepOverButton">
<polygon fill="white" stroke="black" points="2302.5,-0 2302.5,-30 2499.5,-30 2499.5,-0 2302.5,-0"/>
<text text-anchor="start" x="2310.5" y="-18" font-family="Helvetica,sans-Serif" font-size="10.00">slogo.UI.ModuleCreationHelper.create</text>
<text text-anchor="middle" x="2401" y="-7" font-family="Helvetica,sans-Serif" font-size="10.00">DebugStepOverButton</text>
</a>
</g>
</g>
<!-- Node35&#45;&gt;Node36 -->
<g id="edge44" class="edge"><title>Node35&#45;&gt;Node36</title>
<path fill="none" stroke="midnightblue" d="M2271.89,-15C2282.04,-15 2292.26,-15 2302.27,-15"/>
<polygon fill="midnightblue" stroke="midnightblue" points="2271.78,-11.5001 2261.78,-15 2271.78,-18.5001 2271.78,-11.5001"/>
</g>
<!-- Node36&#45;&gt;Node33 -->
<g id="edge45" class="edge"><title>Node36&#45;&gt;Node33</title>
<path fill="none" stroke="midnightblue" d="M2506.99,-31.6227C2520.31,-33.7329 2533.89,-35.8827 2547.05,-37.966"/>
<polygon fill="midnightblue" stroke="midnightblue" points="2507.28,-28.1256 2496.85,-30.0186 2506.18,-35.0395 2507.28,-28.1256"/>
</g>
<!-- Node38 -->
<g id="node38" class="node"><title>Node38</title>
<g id="a_node38"><a xlink:href="../../d0/d32/classslogo_1_1_u_i_1_1_toroidal_helper.html#a6babdb66f06fca1bddc1823bb5f56f87" target="_top" xlink:title="slogo.UI.ToroidalHelper.run\lYShift">
<polygon fill="white" stroke="black" points="360.5,-25 360.5,-55 503.5,-55 503.5,-25 360.5,-25"/>
<text text-anchor="start" x="368.5" y="-43" font-family="Helvetica,sans-Serif" font-size="10.00">slogo.UI.ToroidalHelper.run</text>
<text text-anchor="middle" x="432" y="-32" font-family="Helvetica,sans-Serif" font-size="10.00">YShift</text>
</a>
</g>
</g>
<!-- Node37&#45;&gt;Node38 -->
<g id="edge47" class="edge"><title>Node37&#45;&gt;Node38</title>
<path fill="none" stroke="midnightblue" d="M333.646,-41.0939C342.599,-40.9933 351.666,-40.8914 360.479,-40.7924"/>
<polygon fill="midnightblue" stroke="midnightblue" points="333.566,-37.5944 323.606,-41.2067 333.645,-44.594 333.566,-37.5944"/>
</g>
<!-- Node38&#45;&gt;Node3 -->
<g id="edge48" class="edge"><title>Node38&#45;&gt;Node3</title>
<path fill="none" stroke="midnightblue" d="M513.646,-50.8736C522.599,-52.0808 531.666,-53.3032 540.479,-54.4916"/>
<polygon fill="midnightblue" stroke="midnightblue" points="513.984,-47.3876 503.606,-49.5199 513.049,-54.3248 513.984,-47.3876"/>
</g>
</g>
</svg>
