<?xml version="1.0" encoding="UTF-8" standalone="no"?>
<!DOCTYPE svg PUBLIC "-//W3C//DTD SVG 1.1//EN"
 "http://www.w3.org/Graphics/SVG/1.1/DTD/svg11.dtd">
<!-- Generated by graphviz version 2.36.0 (20140111.2315)
 -->
<!-- Title: slogo.UI.ToroidalHelper.checkAllBounds Pages: 1 -->
<svg width="548pt" height="111pt"
 viewBox="0.00 0.00 548.00 111.00" xmlns="http://www.w3.org/2000/svg" xmlns:xlink="http://www.w3.org/1999/xlink">
<g id="graph0" class="graph" transform="scale(1 1) rotate(0) translate(4 107)">
<title>slogo.UI.ToroidalHelper.checkAllBounds</title>
<polygon fill="white" stroke="none" points="-4,4 -4,-107 544,-107 544,4 -4,4"/>
<!-- Node1 -->
<g id="node1" class="node"><title>Node1</title>
<polygon fill="#bfbfbf" stroke="black" points="0.5,-24 0.5,-54 155.5,-54 155.5,-24 0.5,-24"/>
<text text-anchor="start" x="8.5" y="-42" font-family="Helvetica,sans-Serif" font-size="10.00">slogo.UI.ToroidalHelper.check</text>
<text text-anchor="middle" x="78" y="-31" font-family="Helvetica,sans-Serif" font-size="10.00">AllBounds</text>
</g>
<!-- Node2 -->
<g id="node2" class="node"><title>Node2</title>
<g id="a_node2"><a xlink:href="../../d0/d32/classslogo_1_1_u_i_1_1_toroidal_helper.html#afe4f76a7e0638e9a7f99ee8918a5b863" target="_top" xlink:title="slogo.UI.ToroidalHelper.check\lEndBounds">
<polygon fill="white" stroke="black" points="192.5,-49 192.5,-79 347.5,-79 347.5,-49 192.5,-49"/>
<text text-anchor="start" x="200.5" y="-67" font-family="Helvetica,sans-Serif" font-size="10.00">slogo.UI.ToroidalHelper.check</text>
<text text-anchor="middle" x="270" y="-56" font-family="Helvetica,sans-Serif" font-size="10.00">EndBounds</text>
</a>
</g>
</g>
<!-- Node1&#45;&gt;Node2 -->
<g id="edge1" class="edge"><title>Node1&#45;&gt;Node2</title>
<path fill="none" stroke="midnightblue" d="M155.733,-49.0964C164.488,-50.2484 173.458,-51.4287 182.331,-52.5961"/>
<polygon fill="midnightblue" stroke="midnightblue" points="181.919,-56.072 192.29,-53.9066 182.832,-49.1318 181.919,-56.072"/>
</g>
<!-- Node5 -->
<g id="node5" class="node"><title>Node5</title>
<g id="a_node5"><a xlink:href="../../d0/d32/classslogo_1_1_u_i_1_1_toroidal_helper.html#ad878914aa73174cd1b5bdebd0fcdacf9" target="_top" xlink:title="slogo.UI.ToroidalHelper.check\lStartBounds">
<polygon fill="white" stroke="black" points="192.5,-0 192.5,-30 347.5,-30 347.5,-0 192.5,-0"/>
<text text-anchor="start" x="200.5" y="-18" font-family="Helvetica,sans-Serif" font-size="10.00">slogo.UI.ToroidalHelper.check</text>
<text text-anchor="middle" x="270" y="-7" font-family="Helvetica,sans-Serif" font-size="10.00">StartBounds</text>
</a>
</g>
</g>
<!-- Node1&#45;&gt;Node5 -->
<g id="edge4" class="edge"><title>Node1&#45;&gt;Node5</title>
<path fill="none" stroke="midnightblue" d="M155.733,-29.3075C164.488,-28.2015 173.458,-27.0685 182.331,-25.9477"/>
<polygon fill="midnightblue" stroke="midnightblue" points="182.807,-29.4154 192.29,-24.6897 181.93,-22.4706 182.807,-29.4154"/>
</g>
<!-- Node3 -->
<g id="node3" class="node"><title>Node3</title>
<g id="a_node3"><a xlink:href="../../d0/d32/classslogo_1_1_u_i_1_1_toroidal_helper.html#a22d58c7c2d7c4237c3f1524eadd2630c" target="_top" xlink:title="slogo.UI.ToroidalHelper.check\lXBounds">
<polygon fill="white" stroke="black" points="384.5,-73 384.5,-103 539.5,-103 539.5,-73 384.5,-73"/>
<text text-anchor="start" x="392.5" y="-91" font-family="Helvetica,sans-Serif" font-size="10.00">slogo.UI.ToroidalHelper.check</text>
<text text-anchor="middle" x="462" y="-80" font-family="Helvetica,sans-Serif" font-size="10.00">XBounds</text>
</a>
</g>
</g>
<!-- Node2&#45;&gt;Node3 -->
<g id="edge2" class="edge"><title>Node2&#45;&gt;Node3</title>
<path fill="none" stroke="midnightblue" d="M347.733,-73.6925C356.488,-74.7985 365.458,-75.9315 374.331,-77.0523"/>
<polygon fill="midnightblue" stroke="midnightblue" points="373.93,-80.5294 384.29,-78.3103 374.807,-73.5846 373.93,-80.5294"/>
</g>
<!-- Node4 -->
<g id="node4" class="node"><title>Node4</title>
<g id="a_node4"><a xlink:href="../../d0/d32/classslogo_1_1_u_i_1_1_toroidal_helper.html#a741cec86e924fde87b003f2979e5b048" target="_top" xlink:title="slogo.UI.ToroidalHelper.check\lYBounds">
<polygon fill="white" stroke="black" points="384.5,-24 384.5,-54 539.5,-54 539.5,-24 384.5,-24"/>
<text text-anchor="start" x="392.5" y="-42" font-family="Helvetica,sans-Serif" font-size="10.00">slogo.UI.ToroidalHelper.check</text>
<text text-anchor="middle" x="462" y="-31" font-family="Helvetica,sans-Serif" font-size="10.00">YBounds</text>
</a>
</g>
</g>
<!-- Node2&#45;&gt;Node4 -->
<g id="edge3" class="edge"><title>Node2&#45;&gt;Node4</title>
<path fill="none" stroke="midnightblue" d="M347.733,-53.9036C356.488,-52.7516 365.458,-51.5713 374.331,-50.4039"/>
<polygon fill="midnightblue" stroke="midnightblue" points="374.832,-53.8682 384.29,-49.0934 373.919,-46.928 374.832,-53.8682"/>
</g>
</g>
</svg>
