<?xml version="1.0" encoding="UTF-8" standalone="no"?>
<!DOCTYPE svg PUBLIC "-//W3C//DTD SVG 1.1//EN"
 "http://www.w3.org/Graphics/SVG/1.1/DTD/svg11.dtd">
<!-- Generated by graphviz version 2.36.0 (20140111.2315)
 -->
<!-- Title: slogo.UI.ToroidalHelper.makeLinesToroidal Pages: 1 -->
<svg width="3128pt" height="427pt"
 viewBox="0.00 0.00 3128.00 427.00" xmlns="http://www.w3.org/2000/svg" xmlns:xlink="http://www.w3.org/1999/xlink">
<g id="graph0" class="graph" transform="scale(1 1) rotate(0) translate(4 423)">
<title>slogo.UI.ToroidalHelper.makeLinesToroidal</title>
<polygon fill="white" stroke="none" points="-4,4 -4,-423 3124,-423 3124,4 -4,4"/>
<!-- Node1 -->
<g id="node1" class="node"><title>Node1</title>
<polygon fill="#bfbfbf" stroke="black" points="0.5,-49 0.5,-79 155.5,-79 155.5,-49 0.5,-49"/>
<text text-anchor="start" x="8.5" y="-67" font-family="Helvetica,sans-Serif" font-size="10.00">slogo.UI.ToroidalHelper.make</text>
<text text-anchor="middle" x="78" y="-56" font-family="Helvetica,sans-Serif" font-size="10.00">LinesToroidal</text>
</g>
<!-- Node2 -->
<g id="node2" class="node"><title>Node2</title>
<g id="a_node2"><a xlink:href="../../d9/d7e/classslogo_1_1_u_i_1_1_method_runner.html#ae05c629b80fe3379d77aea026b58b1ae" target="_top" xlink:title="slogo.UI.MethodRunner.draw\lLinesUsingToroidal">
<polygon fill="white" stroke="black" points="192,-49 192,-79 344,-79 344,-49 192,-49"/>
<text text-anchor="start" x="200" y="-67" font-family="Helvetica,sans-Serif" font-size="10.00">slogo.UI.MethodRunner.draw</text>
<text text-anchor="middle" x="268" y="-56" font-family="Helvetica,sans-Serif" font-size="10.00">LinesUsingToroidal</text>
</a>
</g>
</g>
<!-- Node1&#45;&gt;Node2 -->
<g id="edge1" class="edge"><title>Node1&#45;&gt;Node2</title>
<path fill="none" stroke="midnightblue" d="M165.834,-64C174.481,-64 183.209,-64 191.724,-64"/>
<polygon fill="midnightblue" stroke="midnightblue" points="165.738,-60.5001 155.738,-64 165.738,-67.5001 165.738,-60.5001"/>
</g>
<!-- Node3 -->
<g id="node3" class="node"><title>Node3</title>
<g id="a_node3"><a xlink:href="../../d9/d7e/classslogo_1_1_u_i_1_1_method_runner.html#a1ab80948935d4a625cf3313eabe9a51d" target="_top" xlink:title="slogo.UI.MethodRunner.move\lTurtle">
<polygon fill="white" stroke="black" points="380,-49 380,-79 536,-79 536,-49 380,-49"/>
<text text-anchor="start" x="388" y="-67" font-family="Helvetica,sans-Serif" font-size="10.00">slogo.UI.MethodRunner.move</text>
<text text-anchor="middle" x="458" y="-56" font-family="Helvetica,sans-Serif" font-size="10.00">Turtle</text>
</a>
</g>
</g>
<!-- Node2&#45;&gt;Node3 -->
<g id="edge2" class="edge"><title>Node2&#45;&gt;Node3</title>
<path fill="none" stroke="midnightblue" d="M354.117,-64C362.693,-64 371.369,-64 379.855,-64"/>
<polygon fill="midnightblue" stroke="midnightblue" points="354.113,-60.5001 344.113,-64 354.113,-67.5001 354.113,-60.5001"/>
</g>
<!-- Node4 -->
<g id="node4" class="node"><title>Node4</title>
<g id="a_node4"><a xlink:href="../../d9/d7e/classslogo_1_1_u_i_1_1_method_runner.html#a5fe4a6310ba1b0851d7d30a440511324" target="_top" xlink:title="slogo.UI.MethodRunner.change\lTurtle">
<polygon fill="white" stroke="black" points="572,-49 572,-79 736,-79 736,-49 572,-49"/>
<text text-anchor="start" x="580" y="-67" font-family="Helvetica,sans-Serif" font-size="10.00">slogo.UI.MethodRunner.change</text>
<text text-anchor="middle" x="654" y="-56" font-family="Helvetica,sans-Serif" font-size="10.00">Turtle</text>
</a>
</g>
</g>
<!-- Node3&#45;&gt;Node4 -->
<g id="edge3" class="edge"><title>Node3&#45;&gt;Node4</title>
<path fill="none" stroke="midnightblue" d="M546.486,-64C554.947,-64 563.505,-64 571.9,-64"/>
<polygon fill="midnightblue" stroke="midnightblue" points="546.231,-60.5001 536.231,-64 546.231,-67.5001 546.231,-60.5001"/>
</g>
<!-- Node5 -->
<g id="node5" class="node"><title>Node5</title>
<g id="a_node5"><a xlink:href="../../df/d2d/classslogo_1_1_view.html#accc79c56511a72090ff8a4d414b8d1f5" target="_top" xlink:title="slogo.View.executeTurtle\lCommands">
<polygon fill="white" stroke="black" points="772.5,-49 772.5,-79 905.5,-79 905.5,-49 772.5,-49"/>
<text text-anchor="start" x="780.5" y="-67" font-family="Helvetica,sans-Serif" font-size="10.00">slogo.View.executeTurtle</text>
<text text-anchor="middle" x="839" y="-56" font-family="Helvetica,sans-Serif" font-size="10.00">Commands</text>
</a>
</g>
</g>
<!-- Node4&#45;&gt;Node5 -->
<g id="edge4" class="edge"><title>Node4&#45;&gt;Node5</title>
<path fill="none" stroke="midnightblue" d="M746.35,-64C755.128,-64 763.907,-64 772.365,-64"/>
<polygon fill="midnightblue" stroke="midnightblue" points="746.066,-60.5001 736.066,-64 746.066,-67.5001 746.066,-60.5001"/>
</g>
<!-- Node6 -->
<g id="node6" class="node"><title>Node6</title>
<g id="a_node6"><a xlink:href="../../df/d2d/classslogo_1_1_view.html#aa90e5d95d422b58b7f4b7f8a049defe1" target="_top" xlink:title="slogo.View.executeCommand">
<polygon fill="white" stroke="black" points="942,-54.5 942,-73.5 1100,-73.5 1100,-54.5 942,-54.5"/>
<text text-anchor="middle" x="1021" y="-61.5" font-family="Helvetica,sans-Serif" font-size="10.00">slogo.View.executeCommand</text>
</a>
</g>
</g>
<!-- Node5&#45;&gt;Node6 -->
<g id="edge5" class="edge"><title>Node5&#45;&gt;Node6</title>
<path fill="none" stroke="midnightblue" d="M915.784,-64C924.42,-64 933.235,-64 941.901,-64"/>
<polygon fill="midnightblue" stroke="midnightblue" points="915.748,-60.5001 905.748,-64 915.748,-67.5001 915.748,-60.5001"/>
</g>
<!-- Node7 -->
<g id="node7" class="node"><title>Node7</title>
<g id="a_node7"><a xlink:href="../../df/d2d/classslogo_1_1_view.html#aee563f6a0b15ac6668e4dcbdad40c73c" target="_top" xlink:title="slogo.View.sendCommandTo\lBackend">
<polygon fill="white" stroke="black" points="1142,-213 1142,-243 1294,-243 1294,-213 1142,-213"/>
<text text-anchor="start" x="1150" y="-231" font-family="Helvetica,sans-Serif" font-size="10.00">slogo.View.sendCommandTo</text>
<text text-anchor="middle" x="1218" y="-220" font-family="Helvetica,sans-Serif" font-size="10.00">Backend</text>
</a>
</g>
</g>
<!-- Node6&#45;&gt;Node7 -->
<g id="edge6" class="edge"><title>Node6&#45;&gt;Node7</title>
<path fill="none" stroke="midnightblue" d="M1041.05,-80.0252C1078.77,-111.741 1162.43,-182.108 1199.15,-212.984"/>
<polygon fill="midnightblue" stroke="midnightblue" points="1043.23,-77.2841 1033.33,-73.5262 1038.73,-82.6414 1043.23,-77.2841"/>
</g>
<!-- Node27 -->
<g id="node27" class="node"><title>Node27</title>
<g id="a_node27"><a xlink:href="../../df/d2d/classslogo_1_1_view.html#a4c3084a198acf85804800d70eff9ee51" target="_top" xlink:title="slogo.View.stepIntoCommand">
<polygon fill="white" stroke="black" points="1139,-54.5 1139,-73.5 1297,-73.5 1297,-54.5 1139,-54.5"/>
<text text-anchor="middle" x="1218" y="-61.5" font-family="Helvetica,sans-Serif" font-size="10.00">slogo.View.stepIntoCommand</text>
</a>
</g>
</g>
<!-- Node6&#45;&gt;Node27 -->
<g id="edge34" class="edge"><title>Node6&#45;&gt;Node27</title>
<path fill="none" stroke="midnightblue" d="M1110.4,-64C1119.87,-64 1129.45,-64 1138.79,-64"/>
<polygon fill="midnightblue" stroke="midnightblue" points="1110.19,-60.5001 1100.19,-64 1110.19,-67.5001 1110.19,-60.5001"/>
</g>
<!-- Node31 -->
<g id="node31" class="node"><title>Node31</title>
<g id="a_node31"><a xlink:href="../../df/d2d/classslogo_1_1_view.html#ac8b7f574c679e744a430f1649dc55e68" target="_top" xlink:title="slogo.View.stepOverCommand">
<polygon fill="white" stroke="black" points="1136.5,-11.5 1136.5,-30.5 1299.5,-30.5 1299.5,-11.5 1136.5,-11.5"/>
<text text-anchor="middle" x="1218" y="-18.5" font-family="Helvetica,sans-Serif" font-size="10.00">slogo.View.stepOverCommand</text>
</a>
</g>
</g>
<!-- Node6&#45;&gt;Node31 -->
<g id="edge39" class="edge"><title>Node6&#45;&gt;Node31</title>
<path fill="none" stroke="midnightblue" d="M1075.06,-52.3005C1106.07,-45.462 1144.71,-36.9406 1173.84,-30.5164"/>
<polygon fill="midnightblue" stroke="midnightblue" points="1074.29,-48.8855 1065.28,-54.4569 1075.8,-55.7213 1074.29,-48.8855"/>
</g>
<!-- Node8 -->
<g id="node8" class="node"><title>Node8</title>
<g id="a_node8"><a xlink:href="../../db/d19/classslogo_1_1_u_i_1_1_module_creation_helper.html#a69e17abcc7cf9a6ed7261d8fb1d631fa" target="_top" xlink:title="slogo.UI.ModuleCreationHelper.activate\lIncreaseDecreaseButtons">
<polygon fill="white" stroke="black" points="1336.5,-389 1336.5,-419 1541.5,-419 1541.5,-389 1336.5,-389"/>
<text text-anchor="start" x="1344.5" y="-407" font-family="Helvetica,sans-Serif" font-size="10.00">slogo.UI.ModuleCreationHelper.activate</text>
<text text-anchor="middle" x="1439" y="-396" font-family="Helvetica,sans-Serif" font-size="10.00">IncreaseDecreaseButtons</text>
</a>
</g>
</g>
<!-- Node7&#45;&gt;Node8 -->
<g id="edge7" class="edge"><title>Node7&#45;&gt;Node8</title>
<path fill="none" stroke="midnightblue" d="M1232.04,-252.219C1250.78,-284.724 1288.36,-342.06 1336,-374 1345.12,-380.116 1355.51,-385.01 1366.09,-388.919"/>
<polygon fill="midnightblue" stroke="midnightblue" points="1235.01,-250.361 1227.05,-243.368 1228.91,-253.798 1235.01,-250.361"/>
</g>
<!-- Node15 -->
<g id="node15" class="node"><title>Node15</title>
<g id="a_node15"><a xlink:href="../../db/d19/classslogo_1_1_u_i_1_1_module_creation_helper.html#aa70b0ad9e90e62509149bfd2ef2ba209" target="_top" xlink:title="slogo.UI.ModuleCreationHelper.activate\lKeyEvents">
<polygon fill="white" stroke="black" points="2062.5,-136 2062.5,-166 2267.5,-166 2267.5,-136 2062.5,-136"/>
<text text-anchor="start" x="2070.5" y="-154" font-family="Helvetica,sans-Serif" font-size="10.00">slogo.UI.ModuleCreationHelper.activate</text>
<text text-anchor="middle" x="2165" y="-143" font-family="Helvetica,sans-Serif" font-size="10.00">KeyEvents</text>
</a>
</g>
</g>
<!-- Node7&#45;&gt;Node15 -->
<g id="edge15" class="edge"><title>Node7&#45;&gt;Node15</title>
<path fill="none" stroke="midnightblue" d="M1248.18,-207.164C1270.9,-192.251 1303.88,-173.388 1336,-165 1470.15,-129.97 1872.16,-139.777 2062.26,-146.744"/>
<polygon fill="midnightblue" stroke="midnightblue" points="1246.05,-204.378 1239.7,-212.86 1249.95,-210.189 1246.05,-204.378"/>
</g>
<!-- Node16 -->
<g id="node16" class="node"><title>Node16</title>
<g id="a_node16"><a xlink:href="../../db/d19/classslogo_1_1_u_i_1_1_module_creation_helper.html#a2e841243ec3ca474e8822102343acc88" target="_top" xlink:title="slogo.UI.ModuleCreationHelper.activate\lNewTurtleButton">
<polygon fill="white" stroke="black" points="1578.5,-344 1578.5,-374 1783.5,-374 1783.5,-344 1578.5,-344"/>
<text text-anchor="start" x="1586.5" y="-362" font-family="Helvetica,sans-Serif" font-size="10.00">slogo.UI.ModuleCreationHelper.activate</text>
<text text-anchor="middle" x="1681" y="-351" font-family="Helvetica,sans-Serif" font-size="10.00">NewTurtleButton</text>
</a>
</g>
</g>
<!-- Node7&#45;&gt;Node16 -->
<g id="edge17" class="edge"><title>Node7&#45;&gt;Node16</title>
<path fill="none" stroke="midnightblue" d="M1235.02,-251.155C1255.1,-278.009 1292.24,-321.013 1336,-340 1412.41,-373.152 1507.47,-375.86 1578.29,-371.435"/>
<polygon fill="midnightblue" stroke="midnightblue" points="1237.83,-249.073 1229.11,-243.055 1232.18,-253.197 1237.83,-249.073"/>
</g>
<!-- Node18 -->
<g id="node18" class="node"><title>Node18</title>
<g id="a_node18"><a xlink:href="../../db/d19/classslogo_1_1_u_i_1_1_module_creation_helper.html#a9b1f07ab673191067907a059b1b0c524" target="_top" xlink:title="slogo.UI.ModuleCreationHelper.activate\lPlayButton">
<polygon fill="white" stroke="black" points="1336.5,-301 1336.5,-331 1541.5,-331 1541.5,-301 1336.5,-301"/>
<text text-anchor="start" x="1344.5" y="-319" font-family="Helvetica,sans-Serif" font-size="10.00">slogo.UI.ModuleCreationHelper.activate</text>
<text text-anchor="middle" x="1439" y="-308" font-family="Helvetica,sans-Serif" font-size="10.00">PlayButton</text>
</a>
</g>
</g>
<!-- Node7&#45;&gt;Node18 -->
<g id="edge20" class="edge"><title>Node7&#45;&gt;Node18</title>
<path fill="none" stroke="midnightblue" d="M1251.42,-248.354C1274.33,-262.006 1306.16,-279.522 1336,-291 1345.7,-294.73 1356.14,-298.039 1366.5,-300.929"/>
<polygon fill="midnightblue" stroke="midnightblue" points="1253.16,-245.317 1242.79,-243.145 1249.54,-251.31 1253.16,-245.317"/>
</g>
<!-- Node21 -->
<g id="node21" class="node"><title>Node21</title>
<g id="a_node21"><a xlink:href="../../db/d19/classslogo_1_1_u_i_1_1_module_creation_helper.html#a3a38d485562cb17591ec3fd07cffc18a" target="_top" xlink:title="slogo.UI.ModuleCreationHelper.activate\lTurtleCanvas">
<polygon fill="white" stroke="black" points="1820.5,-87 1820.5,-117 2025.5,-117 2025.5,-87 1820.5,-87"/>
<text text-anchor="start" x="1828.5" y="-105" font-family="Helvetica,sans-Serif" font-size="10.00">slogo.UI.ModuleCreationHelper.activate</text>
<text text-anchor="middle" x="1923" y="-94" font-family="Helvetica,sans-Serif" font-size="10.00">TurtleCanvas</text>
</a>
</g>
</g>
<!-- Node7&#45;&gt;Node21 -->
<g id="edge24" class="edge"><title>Node7&#45;&gt;Node21</title>
<path fill="none" stroke="midnightblue" d="M1238.37,-205.232C1259.63,-182.064 1296.1,-147.434 1336,-132 1421.51,-98.92 1676.48,-97.5272 1820.33,-99.6157"/>
<polygon fill="midnightblue" stroke="midnightblue" points="1235.56,-203.115 1231.5,-212.898 1240.78,-207.786 1235.56,-203.115"/>
</g>
<!-- Node23 -->
<g id="node23" class="node"><title>Node23</title>
<g id="a_node23"><a xlink:href="../../d1/d5f/classslogo_1_1_u_i_1_1_path_color_selector.html#ad3d9c82a0904c97edcec7cf67b85bd7b" target="_top" xlink:title="slogo.UI.PathColorSelector.create">
<polygon fill="white" stroke="black" points="1351,-262.5 1351,-281.5 1527,-281.5 1527,-262.5 1351,-262.5"/>
<text text-anchor="middle" x="1439" y="-269.5" font-family="Helvetica,sans-Serif" font-size="10.00">slogo.UI.PathColorSelector.create</text>
</a>
</g>
</g>
<!-- Node7&#45;&gt;Node23 -->
<g id="edge27" class="edge"><title>Node7&#45;&gt;Node23</title>
<path fill="none" stroke="midnightblue" d="M1301.74,-245.065C1313.24,-247.411 1324.91,-249.776 1336,-252 1353.25,-255.46 1372.16,-259.186 1388.95,-262.473"/>
<polygon fill="midnightblue" stroke="midnightblue" points="1302.19,-241.585 1291.69,-243.013 1300.79,-248.443 1302.19,-241.585"/>
</g>
<!-- Node25 -->
<g id="node25" class="node"><title>Node25</title>
<g id="a_node25"><a xlink:href="../../d4/d8d/classslogo_1_1_u_i_1_1_background_color_selector.html#ad75ba4ce104e071811d0fe039a4e839f" target="_top" xlink:title="slogo.UI.BackgroundColor\lSelector.create">
<polygon fill="white" stroke="black" points="1369,-213 1369,-243 1509,-243 1509,-213 1369,-213"/>
<text text-anchor="start" x="1377" y="-231" font-family="Helvetica,sans-Serif" font-size="10.00">slogo.UI.BackgroundColor</text>
<text text-anchor="middle" x="1439" y="-220" font-family="Helvetica,sans-Serif" font-size="10.00">Selector.create</text>
</a>
</g>
</g>
<!-- Node7&#45;&gt;Node25 -->
<g id="edge30" class="edge"><title>Node7&#45;&gt;Node25</title>
<path fill="none" stroke="midnightblue" d="M1304.14,-228C1325.6,-228 1348.37,-228 1368.93,-228"/>
<polygon fill="midnightblue" stroke="midnightblue" points="1304.06,-224.5 1294.06,-228 1304.06,-231.5 1304.06,-224.5"/>
</g>
<!-- Node26 -->
<g id="node26" class="node"><title>Node26</title>
<g id="a_node26"><a xlink:href="../../dd/da7/classslogo_1_1_u_i_1_1_turtle_image_selector.html#a3f268d9196ffebcbb5dc322d2897a9fe" target="_top" xlink:title="slogo.UI.TurtleImageSelector.create">
<polygon fill="white" stroke="black" points="1346,-174.5 1346,-193.5 1532,-193.5 1532,-174.5 1346,-174.5"/>
<text text-anchor="middle" x="1439" y="-181.5" font-family="Helvetica,sans-Serif" font-size="10.00">slogo.UI.TurtleImageSelector.create</text>
</a>
</g>
</g>
<!-- Node7&#45;&gt;Node26 -->
<g id="edge32" class="edge"><title>Node7&#45;&gt;Node26</title>
<path fill="none" stroke="midnightblue" d="M1298.01,-210.821C1310.7,-208.147 1323.71,-205.458 1336,-203 1351.99,-199.804 1369.42,-196.493 1385.27,-193.548"/>
<polygon fill="midnightblue" stroke="midnightblue" points="1296.98,-207.463 1287.92,-212.958 1298.43,-214.311 1296.98,-207.463"/>
</g>
<!-- Node9 -->
<g id="node9" class="node"><title>Node9</title>
<g id="a_node9"><a xlink:href="../../db/d19/classslogo_1_1_u_i_1_1_module_creation_helper.html#adce7362386f9a7b3006e7db08a2d578d" target="_top" xlink:title="slogo.UI.ModuleCreationHelper.create\lIncreaseDecreaseButtons">
<polygon fill="white" stroke="black" points="1824.5,-380 1824.5,-410 2021.5,-410 2021.5,-380 1824.5,-380"/>
<text text-anchor="start" x="1832.5" y="-398" font-family="Helvetica,sans-Serif" font-size="10.00">slogo.UI.ModuleCreationHelper.create</text>
<text text-anchor="middle" x="1923" y="-387" font-family="Helvetica,sans-Serif" font-size="10.00">IncreaseDecreaseButtons</text>
</a>
</g>
</g>
<!-- Node8&#45;&gt;Node9 -->
<g id="edge8" class="edge"><title>Node8&#45;&gt;Node9</title>
<path fill="none" stroke="midnightblue" d="M1551.79,-401.913C1634.23,-400.373 1745.29,-398.299 1824.21,-396.826"/>
<polygon fill="midnightblue" stroke="midnightblue" points="1551.56,-398.416 1541.63,-402.102 1551.69,-405.415 1551.56,-398.416"/>
</g>
<!-- Node10 -->
<g id="node10" class="node"><title>Node10</title>
<g id="a_node10"><a xlink:href="../../db/d19/classslogo_1_1_u_i_1_1_module_creation_helper.html#a7c650957b2389d6e6d36e8be8a33cd2b" target="_top" xlink:title="slogo.UI.ModuleCreationHelper.create\lSelectorVBoxModules">
<polygon fill="white" stroke="black" points="2066.5,-253 2066.5,-283 2263.5,-283 2263.5,-253 2066.5,-253"/>
<text text-anchor="start" x="2074.5" y="-271" font-family="Helvetica,sans-Serif" font-size="10.00">slogo.UI.ModuleCreationHelper.create</text>
<text text-anchor="middle" x="2165" y="-260" font-family="Helvetica,sans-Serif" font-size="10.00">SelectorVBoxModules</text>
</a>
</g>
</g>
<!-- Node9&#45;&gt;Node10 -->
<g id="edge9" class="edge"><title>Node9&#45;&gt;Node10</title>
<path fill="none" stroke="midnightblue" d="M2007,-376.732C2013.54,-374.424 2019.95,-371.854 2026,-369 2074.6,-346.077 2123.46,-305.079 2147.92,-283.025"/>
<polygon fill="midnightblue" stroke="midnightblue" points="2005.75,-373.461 1997.36,-379.93 2007.95,-380.105 2005.75,-373.461"/>
</g>
<!-- Node11 -->
<g id="node11" class="node"><title>Node11</title>
<g id="a_node11"><a xlink:href="../../db/d19/classslogo_1_1_u_i_1_1_module_creation_helper.html#afb9dbbbad7d872234a5b296fe129a34e" target="_top" xlink:title="slogo.UI.ModuleCreationHelper.create\lMainPageModules">
<polygon fill="white" stroke="black" points="2304.5,-136 2304.5,-166 2501.5,-166 2501.5,-136 2304.5,-136"/>
<text text-anchor="start" x="2312.5" y="-154" font-family="Helvetica,sans-Serif" font-size="10.00">slogo.UI.ModuleCreationHelper.create</text>
<text text-anchor="middle" x="2403" y="-143" font-family="Helvetica,sans-Serif" font-size="10.00">MainPageModules</text>
</a>
</g>
</g>
<!-- Node10&#45;&gt;Node11 -->
<g id="edge10" class="edge"><title>Node10&#45;&gt;Node11</title>
<path fill="none" stroke="midnightblue" d="M2205.58,-248.38C2252.29,-225.222 2328.96,-187.212 2371.37,-166.184"/>
<polygon fill="midnightblue" stroke="midnightblue" points="2203.77,-245.366 2196.37,-252.944 2206.88,-251.638 2203.77,-245.366"/>
</g>
<!-- Node12 -->
<g id="node12" class="node"><title>Node12</title>
<g id="a_node12"><a xlink:href="../../d9/d33/classslogo_1_1_u_i_1_1_main.html#a15b7f2e399ee24d160550993ab737e73" target="_top" xlink:title="slogo.UI.Main.start">
<polygon fill="white" stroke="black" points="2538,-150.5 2538,-169.5 2644,-169.5 2644,-150.5 2538,-150.5"/>
<text text-anchor="middle" x="2591" y="-157.5" font-family="Helvetica,sans-Serif" font-size="10.00">slogo.UI.Main.start</text>
</a>
</g>
</g>
<!-- Node11&#45;&gt;Node12 -->
<g id="edge11" class="edge"><title>Node11&#45;&gt;Node12</title>
<path fill="none" stroke="midnightblue" d="M2511.8,-156.216C2520.76,-156.65 2529.53,-157.074 2537.76,-157.472"/>
<polygon fill="midnightblue" stroke="midnightblue" points="2511.79,-152.712 2501.63,-155.724 2511.45,-159.703 2511.79,-152.712"/>
</g>
<!-- Node13 -->
<g id="node13" class="node"><title>Node13</title>
<g id="a_node13"><a xlink:href="../../db/d19/classslogo_1_1_u_i_1_1_module_creation_helper.html#a3be12a7cc2b8a219db1e296211a2cb88" target="_top" xlink:title="slogo.UI.ModuleCreationHelper.activate\lExtraWorkspaceButton">
<polygon fill="white" stroke="black" points="2680.5,-163 2680.5,-193 2885.5,-193 2885.5,-163 2680.5,-163"/>
<text text-anchor="start" x="2688.5" y="-181" font-family="Helvetica,sans-Serif" font-size="10.00">slogo.UI.ModuleCreationHelper.activate</text>
<text text-anchor="middle" x="2783" y="-170" font-family="Helvetica,sans-Serif" font-size="10.00">ExtraWorkspaceButton</text>
</a>
</g>
</g>
<!-- Node12&#45;&gt;Node13 -->
<g id="edge12" class="edge"><title>Node12&#45;&gt;Node13</title>
<path fill="none" stroke="midnightblue" d="M2654.22,-165.894C2662.63,-166.691 2671.44,-167.526 2680.32,-168.367"/>
<polygon fill="midnightblue" stroke="midnightblue" points="2654.46,-162.401 2644.17,-164.942 2653.79,-169.37 2654.46,-162.401"/>
</g>
<!-- Node14 -->
<g id="node14" class="node"><title>Node14</title>
<g id="a_node14"><a xlink:href="../../db/d19/classslogo_1_1_u_i_1_1_module_creation_helper.html#a702c1ebe24d2857a10c666eb1fcc315d" target="_top" xlink:title="slogo.UI.ModuleCreationHelper.create\lExtraWorkspaceButton">
<polygon fill="white" stroke="black" points="2922.5,-189 2922.5,-219 3119.5,-219 3119.5,-189 2922.5,-189"/>
<text text-anchor="start" x="2930.5" y="-207" font-family="Helvetica,sans-Serif" font-size="10.00">slogo.UI.ModuleCreationHelper.create</text>
<text text-anchor="middle" x="3021" y="-196" font-family="Helvetica,sans-Serif" font-size="10.00">ExtraWorkspaceButton</text>
</a>
</g>
</g>
<!-- Node13&#45;&gt;Node14 -->
<g id="edge13" class="edge"><title>Node13&#45;&gt;Node14</title>
<path fill="none" stroke="midnightblue" d="M2895.77,-190.313C2904.62,-191.289 2913.52,-192.27 2922.27,-193.234"/>
<polygon fill="midnightblue" stroke="midnightblue" points="2896.12,-186.831 2885.8,-189.215 2895.35,-193.789 2896.12,-186.831"/>
</g>
<!-- Node14&#45;&gt;Node10 -->
<g id="edge14" class="edge"><title>Node14&#45;&gt;Node10</title>
<path fill="none" stroke="midnightblue" d="M2912.34,-212.068C2744.9,-224.617 2424.6,-248.62 2263.55,-260.69"/>
<polygon fill="midnightblue" stroke="midnightblue" points="2912.7,-215.551 2922.41,-211.313 2912.18,-208.571 2912.7,-215.551"/>
</g>
<!-- Node15&#45;&gt;Node11 -->
<g id="edge16" class="edge"><title>Node15&#45;&gt;Node11</title>
<path fill="none" stroke="midnightblue" d="M2278.05,-151C2286.81,-151 2295.62,-151 2304.27,-151"/>
<polygon fill="midnightblue" stroke="midnightblue" points="2277.8,-147.5 2267.8,-151 2277.8,-154.5 2277.8,-147.5"/>
</g>
<!-- Node17 -->
<g id="node17" class="node"><title>Node17</title>
<g id="a_node17"><a xlink:href="../../db/d19/classslogo_1_1_u_i_1_1_module_creation_helper.html#a07f5483df317cdf80e8ea2dda5699afa" target="_top" xlink:title="slogo.UI.ModuleCreationHelper.create\lNewTurtleButton">
<polygon fill="white" stroke="black" points="1824.5,-330 1824.5,-360 2021.5,-360 2021.5,-330 1824.5,-330"/>
<text text-anchor="start" x="1832.5" y="-348" font-family="Helvetica,sans-Serif" font-size="10.00">slogo.UI.ModuleCreationHelper.create</text>
<text text-anchor="middle" x="1923" y="-337" font-family="Helvetica,sans-Serif" font-size="10.00">NewTurtleButton</text>
</a>
</g>
</g>
<!-- Node16&#45;&gt;Node17 -->
<g id="edge18" class="edge"><title>Node16&#45;&gt;Node17</title>
<path fill="none" stroke="midnightblue" d="M1793.89,-352.473C1804.04,-351.881 1814.26,-351.285 1824.27,-350.701"/>
<polygon fill="midnightblue" stroke="midnightblue" points="1793.56,-348.986 1783.78,-353.063 1793.97,-355.974 1793.56,-348.986"/>
</g>
<!-- Node17&#45;&gt;Node10 -->
<g id="edge19" class="edge"><title>Node17&#45;&gt;Node10</title>
<path fill="none" stroke="midnightblue" d="M1994.15,-327.309C2004.87,-324.354 2015.76,-321.203 2026,-318 2059.93,-307.387 2097.86,-293.493 2125.35,-283.046"/>
<polygon fill="midnightblue" stroke="midnightblue" points="1993.12,-323.962 1984.39,-329.963 1994.96,-330.717 1993.12,-323.962"/>
</g>
<!-- Node19 -->
<g id="node19" class="node"><title>Node19</title>
<g id="a_node19"><a xlink:href="../../db/d19/classslogo_1_1_u_i_1_1_module_creation_helper.html#a9b3fb38a55b3b7812b4f793afa7a974f" target="_top" xlink:title="slogo.UI.ModuleCreationHelper.create\lPlayButton">
<polygon fill="white" stroke="black" points="1582.5,-295 1582.5,-325 1779.5,-325 1779.5,-295 1582.5,-295"/>
<text text-anchor="start" x="1590.5" y="-313" font-family="Helvetica,sans-Serif" font-size="10.00">slogo.UI.ModuleCreationHelper.create</text>
<text text-anchor="middle" x="1681" y="-302" font-family="Helvetica,sans-Serif" font-size="10.00">PlayButton</text>
</a>
</g>
</g>
<!-- Node18&#45;&gt;Node19 -->
<g id="edge21" class="edge"><title>Node18&#45;&gt;Node19</title>
<path fill="none" stroke="midnightblue" d="M1551.89,-313.203C1562.04,-312.949 1572.26,-312.694 1582.27,-312.443"/>
<polygon fill="midnightblue" stroke="midnightblue" points="1551.69,-309.707 1541.78,-313.455 1551.87,-316.704 1551.69,-309.707"/>
</g>
<!-- Node20 -->
<g id="node20" class="node"><title>Node20</title>
<g id="a_node20"><a xlink:href="../../db/d19/classslogo_1_1_u_i_1_1_module_creation_helper.html#ae1e60d37509c2e5eddcb2a6e70b4f650" target="_top" xlink:title="slogo.UI.ModuleCreationHelper.create\lFirstRowButtons">
<polygon fill="white" stroke="black" points="1824.5,-279 1824.5,-309 2021.5,-309 2021.5,-279 1824.5,-279"/>
<text text-anchor="start" x="1832.5" y="-297" font-family="Helvetica,sans-Serif" font-size="10.00">slogo.UI.ModuleCreationHelper.create</text>
<text text-anchor="middle" x="1923" y="-286" font-family="Helvetica,sans-Serif" font-size="10.00">FirstRowButtons</text>
</a>
</g>
</g>
<!-- Node19&#45;&gt;Node20 -->
<g id="edge22" class="edge"><title>Node19&#45;&gt;Node20</title>
<path fill="none" stroke="midnightblue" d="M1789.73,-302.818C1801.3,-302.046 1813.03,-301.265 1824.47,-300.502"/>
<polygon fill="midnightblue" stroke="midnightblue" points="1789.36,-299.335 1779.62,-303.492 1789.83,-306.319 1789.36,-299.335"/>
</g>
<!-- Node20&#45;&gt;Node10 -->
<g id="edge23" class="edge"><title>Node20&#45;&gt;Node10</title>
<path fill="none" stroke="midnightblue" d="M2031.73,-282.329C2043.3,-281.075 2055.03,-279.805 2066.47,-278.566"/>
<polygon fill="midnightblue" stroke="midnightblue" points="2031.18,-278.868 2021.62,-283.425 2031.94,-285.827 2031.18,-278.868"/>
</g>
<!-- Node22 -->
<g id="node22" class="node"><title>Node22</title>
<g id="a_node22"><a xlink:href="../../db/d19/classslogo_1_1_u_i_1_1_module_creation_helper.html#a803bac6b55bde712b21f2face1eeef81" target="_top" xlink:title="slogo.UI.ModuleCreationHelper.create\lTurtleCanvas">
<polygon fill="white" stroke="black" points="2066.5,-87 2066.5,-117 2263.5,-117 2263.5,-87 2066.5,-87"/>
<text text-anchor="start" x="2074.5" y="-105" font-family="Helvetica,sans-Serif" font-size="10.00">slogo.UI.ModuleCreationHelper.create</text>
<text text-anchor="middle" x="2165" y="-94" font-family="Helvetica,sans-Serif" font-size="10.00">TurtleCanvas</text>
</a>
</g>
</g>
<!-- Node21&#45;&gt;Node22 -->
<g id="edge25" class="edge"><title>Node21&#45;&gt;Node22</title>
<path fill="none" stroke="midnightblue" d="M2035.89,-102C2046.04,-102 2056.26,-102 2066.27,-102"/>
<polygon fill="midnightblue" stroke="midnightblue" points="2035.78,-98.5001 2025.78,-102 2035.78,-105.5 2035.78,-98.5001"/>
</g>
<!-- Node22&#45;&gt;Node11 -->
<g id="edge26" class="edge"><title>Node22&#45;&gt;Node11</title>
<path fill="none" stroke="midnightblue" d="M2248.42,-119.113C2274.9,-124.611 2304.03,-130.658 2329.73,-135.994"/>
<polygon fill="midnightblue" stroke="midnightblue" points="2248.91,-115.641 2238.41,-117.035 2247.49,-122.495 2248.91,-115.641"/>
</g>
<!-- Node24 -->
<g id="node24" class="node"><title>Node24</title>
<g id="a_node24"><a xlink:href="../../db/d19/classslogo_1_1_u_i_1_1_module_creation_helper.html#af7f2919454fdbf6e9d7d912e99634857" target="_top" xlink:title="slogo.UI.ModuleCreationHelper.create\lSelectors">
<polygon fill="white" stroke="black" points="1582.5,-230 1582.5,-260 1779.5,-260 1779.5,-230 1582.5,-230"/>
<text text-anchor="start" x="1590.5" y="-248" font-family="Helvetica,sans-Serif" font-size="10.00">slogo.UI.ModuleCreationHelper.create</text>
<text text-anchor="middle" x="1681" y="-237" font-family="Helvetica,sans-Serif" font-size="10.00">Selectors</text>
</a>
</g>
</g>
<!-- Node23&#45;&gt;Node24 -->
<g id="edge28" class="edge"><title>Node23&#45;&gt;Node24</title>
<path fill="none" stroke="midnightblue" d="M1534.76,-261.339C1550.36,-259.585 1566.54,-257.764 1582.21,-256.002"/>
<polygon fill="midnightblue" stroke="midnightblue" points="1534.16,-257.885 1524.62,-262.481 1534.94,-264.841 1534.16,-257.885"/>
</g>
<!-- Node24&#45;&gt;Node10 -->
<g id="edge29" class="edge"><title>Node24&#45;&gt;Node10</title>
<path fill="none" stroke="midnightblue" d="M1789.74,-250.141C1872.55,-254.092 1985.97,-259.505 2066.19,-263.333"/>
<polygon fill="midnightblue" stroke="midnightblue" points="1789.7,-246.635 1779.54,-249.654 1789.36,-253.627 1789.7,-246.635"/>
</g>
<!-- Node25&#45;&gt;Node24 -->
<g id="edge31" class="edge"><title>Node25&#45;&gt;Node24</title>
<path fill="none" stroke="midnightblue" d="M1519.18,-233.609C1539.4,-235.041 1561.37,-236.597 1582.39,-238.086"/>
<polygon fill="midnightblue" stroke="midnightblue" points="1519.32,-230.11 1509.1,-232.894 1518.82,-237.092 1519.32,-230.11"/>
</g>
<!-- Node26&#45;&gt;Node24 -->
<g id="edge33" class="edge"><title>Node26&#45;&gt;Node24</title>
<path fill="none" stroke="midnightblue" d="M1507.48,-195.473C1519.04,-197.752 1530.9,-200.287 1542,-203 1573.38,-210.673 1608.18,-221.278 1634.98,-229.911"/>
<polygon fill="midnightblue" stroke="midnightblue" points="1507.9,-191.99 1497.42,-193.539 1506.58,-198.864 1507.9,-191.99"/>
</g>
<!-- Node28 -->
<g id="node28" class="node"><title>Node28</title>
<g id="a_node28"><a xlink:href="../../db/d19/classslogo_1_1_u_i_1_1_module_creation_helper.html#a9fd730f7c1860d34bf4ac46c3828bd59" target="_top" xlink:title="slogo.UI.ModuleCreationHelper.activate\lStepIntoButton">
<polygon fill="white" stroke="black" points="1336.5,-49 1336.5,-79 1541.5,-79 1541.5,-49 1336.5,-49"/>
<text text-anchor="start" x="1344.5" y="-67" font-family="Helvetica,sans-Serif" font-size="10.00">slogo.UI.ModuleCreationHelper.activate</text>
<text text-anchor="middle" x="1439" y="-56" font-family="Helvetica,sans-Serif" font-size="10.00">StepIntoButton</text>
</a>
</g>
</g>
<!-- Node27&#45;&gt;Node28 -->
<g id="edge35" class="edge"><title>Node27&#45;&gt;Node28</title>
<path fill="none" stroke="midnightblue" d="M1307.33,-64C1316.82,-64 1326.54,-64 1336.17,-64"/>
<polygon fill="midnightblue" stroke="midnightblue" points="1307.14,-60.5001 1297.14,-64 1307.14,-67.5001 1307.14,-60.5001"/>
</g>
<!-- Node29 -->
<g id="node29" class="node"><title>Node29</title>
<g id="a_node29"><a xlink:href="../../db/d19/classslogo_1_1_u_i_1_1_module_creation_helper.html#a4a6f1f009507c25be8c7c28cbba35f3b" target="_top" xlink:title="slogo.UI.ModuleCreationHelper.create\lDebugStepIntoButton">
<polygon fill="white" stroke="black" points="1582.5,-49 1582.5,-79 1779.5,-79 1779.5,-49 1582.5,-49"/>
<text text-anchor="start" x="1590.5" y="-67" font-family="Helvetica,sans-Serif" font-size="10.00">slogo.UI.ModuleCreationHelper.create</text>
<text text-anchor="middle" x="1681" y="-56" font-family="Helvetica,sans-Serif" font-size="10.00">DebugStepIntoButton</text>
</a>
</g>
</g>
<!-- Node28&#45;&gt;Node29 -->
<g id="edge36" class="edge"><title>Node28&#45;&gt;Node29</title>
<path fill="none" stroke="midnightblue" d="M1551.89,-64C1562.04,-64 1572.26,-64 1582.27,-64"/>
<polygon fill="midnightblue" stroke="midnightblue" points="1551.78,-60.5001 1541.78,-64 1551.78,-67.5001 1551.78,-60.5001"/>
</g>
<!-- Node30 -->
<g id="node30" class="node"><title>Node30</title>
<g id="a_node30"><a xlink:href="../../db/d19/classslogo_1_1_u_i_1_1_module_creation_helper.html#a975af4ea47dc85df72215bdf1a0d20ce" target="_top" xlink:title="slogo.UI.ModuleCreationHelper.create\lDebugModules">
<polygon fill="white" stroke="black" points="1824.5,-38 1824.5,-68 2021.5,-68 2021.5,-38 1824.5,-38"/>
<text text-anchor="start" x="1832.5" y="-56" font-family="Helvetica,sans-Serif" font-size="10.00">slogo.UI.ModuleCreationHelper.create</text>
<text text-anchor="middle" x="1923" y="-45" font-family="Helvetica,sans-Serif" font-size="10.00">DebugModules</text>
</a>
</g>
</g>
<!-- Node29&#45;&gt;Node30 -->
<g id="edge37" class="edge"><title>Node29&#45;&gt;Node30</title>
<path fill="none" stroke="midnightblue" d="M1789.73,-59.0622C1801.3,-58.5319 1813.03,-57.9945 1824.47,-57.4702"/>
<polygon fill="midnightblue" stroke="midnightblue" points="1789.45,-55.5716 1779.62,-59.5259 1789.77,-62.5643 1789.45,-55.5716"/>
</g>
<!-- Node30&#45;&gt;Node11 -->
<g id="edge38" class="edge"><title>Node30&#45;&gt;Node11</title>
<path fill="none" stroke="midnightblue" d="M2031.63,-48.679C2100.53,-48.779 2191.11,-54.2973 2268,-77 2311.33,-89.7936 2356.2,-118.228 2381.46,-135.889"/>
<polygon fill="midnightblue" stroke="midnightblue" points="2031.61,-45.1789 2021.62,-48.7021 2031.63,-52.1789 2031.61,-45.1789"/>
</g>
<!-- Node32 -->
<g id="node32" class="node"><title>Node32</title>
<g id="a_node32"><a xlink:href="../../db/d19/classslogo_1_1_u_i_1_1_module_creation_helper.html#a0fed0bb32bf2643d6fd5c24d82e8e18e" target="_top" xlink:title="slogo.UI.ModuleCreationHelper.activate\lStepOverButton">
<polygon fill="white" stroke="black" points="1336.5,-0 1336.5,-30 1541.5,-30 1541.5,-0 1336.5,-0"/>
<text text-anchor="start" x="1344.5" y="-18" font-family="Helvetica,sans-Serif" font-size="10.00">slogo.UI.ModuleCreationHelper.activate</text>
<text text-anchor="middle" x="1439" y="-7" font-family="Helvetica,sans-Serif" font-size="10.00">StepOverButton</text>
</a>
</g>
</g>
<!-- Node31&#45;&gt;Node32 -->
<g id="edge40" class="edge"><title>Node31&#45;&gt;Node32</title>
<path fill="none" stroke="midnightblue" d="M1309.8,-18.5123C1318.56,-18.2724 1327.48,-18.028 1336.33,-17.7856"/>
<polygon fill="midnightblue" stroke="midnightblue" points="1309.51,-15.0187 1299.61,-18.7914 1309.71,-22.0161 1309.51,-15.0187"/>
</g>
<!-- Node33 -->
<g id="node33" class="node"><title>Node33</title>
<g id="a_node33"><a xlink:href="../../db/d19/classslogo_1_1_u_i_1_1_module_creation_helper.html#aa1e7dc2b509360583790fba0d3819c8d" target="_top" xlink:title="slogo.UI.ModuleCreationHelper.create\lDebugStepOverButton">
<polygon fill="white" stroke="black" points="1582.5,-0 1582.5,-30 1779.5,-30 1779.5,-0 1582.5,-0"/>
<text text-anchor="start" x="1590.5" y="-18" font-family="Helvetica,sans-Serif" font-size="10.00">slogo.UI.ModuleCreationHelper.create</text>
<text text-anchor="middle" x="1681" y="-7" font-family="Helvetica,sans-Serif" font-size="10.00">DebugStepOverButton</text>
</a>
</g>
</g>
<!-- Node32&#45;&gt;Node33 -->
<g id="edge41" class="edge"><title>Node32&#45;&gt;Node33</title>
<path fill="none" stroke="midnightblue" d="M1551.89,-15C1562.04,-15 1572.26,-15 1582.27,-15"/>
<polygon fill="midnightblue" stroke="midnightblue" points="1551.78,-11.5001 1541.78,-15 1551.78,-18.5001 1551.78,-11.5001"/>
</g>
<!-- Node33&#45;&gt;Node30 -->
<g id="edge42" class="edge"><title>Node33&#45;&gt;Node30</title>
<path fill="none" stroke="midnightblue" d="M1786.99,-31.6227C1800.31,-33.7329 1813.89,-35.8827 1827.05,-37.966"/>
<polygon fill="midnightblue" stroke="midnightblue" points="1787.28,-28.1256 1776.85,-30.0186 1786.18,-35.0395 1787.28,-28.1256"/>
</g>
</g>
</svg>
