<?xml version="1.0" encoding="UTF-8" standalone="no"?>
<!DOCTYPE svg PUBLIC "-//W3C//DTD SVG 1.1//EN"
 "http://www.w3.org/Graphics/SVG/1.1/DTD/svg11.dtd">
<!-- Generated by graphviz version 2.36.0 (20140111.2315)
 -->
<!-- Title: slogo.UI.ToroidalHelper.checkYBounds Pages: 1 -->
<svg width="3884pt" height="446pt"
 viewBox="0.00 0.00 3884.00 446.00" xmlns="http://www.w3.org/2000/svg" xmlns:xlink="http://www.w3.org/1999/xlink">
<g id="graph0" class="graph" transform="scale(1 1) rotate(0) translate(4 442)">
<title>slogo.UI.ToroidalHelper.checkYBounds</title>
<polygon fill="white" stroke="none" points="-4,4 -4,-442 3880,-442 3880,4 -4,4"/>
<!-- Node1 -->
<g id="node1" class="node"><title>Node1</title>
<polygon fill="#bfbfbf" stroke="black" points="0.5,-49 0.5,-79 155.5,-79 155.5,-49 0.5,-49"/>
<text text-anchor="start" x="8.5" y="-67" font-family="Helvetica,sans-Serif" font-size="10.00">slogo.UI.ToroidalHelper.check</text>
<text text-anchor="middle" x="78" y="-56" font-family="Helvetica,sans-Serif" font-size="10.00">YBounds</text>
</g>
<!-- Node2 -->
<g id="node2" class="node"><title>Node2</title>
<g id="a_node2"><a xlink:href="../../d0/d32/classslogo_1_1_u_i_1_1_toroidal_helper.html#afe4f76a7e0638e9a7f99ee8918a5b863" target="_top" xlink:title="slogo.UI.ToroidalHelper.check\lEndBounds">
<polygon fill="white" stroke="black" points="192.5,-98 192.5,-128 347.5,-128 347.5,-98 192.5,-98"/>
<text text-anchor="start" x="200.5" y="-116" font-family="Helvetica,sans-Serif" font-size="10.00">slogo.UI.ToroidalHelper.check</text>
<text text-anchor="middle" x="270" y="-105" font-family="Helvetica,sans-Serif" font-size="10.00">EndBounds</text>
</a>
</g>
</g>
<!-- Node1&#45;&gt;Node2 -->
<g id="edge1" class="edge"><title>Node1&#45;&gt;Node2</title>
<path fill="none" stroke="midnightblue" d="M147.05,-81.5498C167.915,-86.9306 190.67,-92.799 210.813,-97.9938"/>
<polygon fill="midnightblue" stroke="midnightblue" points="147.855,-78.1428 137.297,-79.0346 146.107,-84.921 147.855,-78.1428"/>
</g>
<!-- Node37 -->
<g id="node37" class="node"><title>Node37</title>
<g id="a_node37"><a xlink:href="../../d0/d32/classslogo_1_1_u_i_1_1_toroidal_helper.html#aa1432fa1f1a208f83285575425bf96f4" target="_top" xlink:title="slogo.UI.ToroidalHelper.run\lLineYShift">
<polygon fill="white" stroke="black" points="198.5,-49 198.5,-79 341.5,-79 341.5,-49 198.5,-49"/>
<text text-anchor="start" x="206.5" y="-67" font-family="Helvetica,sans-Serif" font-size="10.00">slogo.UI.ToroidalHelper.run</text>
<text text-anchor="middle" x="270" y="-56" font-family="Helvetica,sans-Serif" font-size="10.00">LineYShift</text>
</a>
</g>
</g>
<!-- Node1&#45;&gt;Node37 -->
<g id="edge46" class="edge"><title>Node1&#45;&gt;Node37</title>
<path fill="none" stroke="midnightblue" d="M166.064,-64C176.904,-64 187.882,-64 198.429,-64"/>
<polygon fill="midnightblue" stroke="midnightblue" points="165.733,-60.5001 155.733,-64 165.733,-67.5001 165.733,-60.5001"/>
</g>
<!-- Node40 -->
<g id="node40" class="node"><title>Node40</title>
<g id="a_node40"><a xlink:href="../../d0/d32/classslogo_1_1_u_i_1_1_toroidal_helper.html#ab0c1d137b6ae06b1379ea8df424ca082" target="_top" xlink:title="slogo.UI.ToroidalHelper.run\lYCalculations">
<polygon fill="white" stroke="black" points="198.5,-0 198.5,-30 341.5,-30 341.5,-0 198.5,-0"/>
<text text-anchor="start" x="206.5" y="-18" font-family="Helvetica,sans-Serif" font-size="10.00">slogo.UI.ToroidalHelper.run</text>
<text text-anchor="middle" x="270" y="-7" font-family="Helvetica,sans-Serif" font-size="10.00">YCalculations</text>
</a>
</g>
</g>
<!-- Node1&#45;&gt;Node40 -->
<g id="edge51" class="edge"><title>Node1&#45;&gt;Node40</title>
<path fill="none" stroke="midnightblue" d="M147.05,-46.4502C167.915,-41.0694 190.67,-35.201 210.813,-30.0062"/>
<polygon fill="midnightblue" stroke="midnightblue" points="146.107,-43.079 137.297,-48.9654 147.855,-49.8572 146.107,-43.079"/>
</g>
<!-- Node3 -->
<g id="node3" class="node"><title>Node3</title>
<g id="a_node3"><a xlink:href="../../d0/d32/classslogo_1_1_u_i_1_1_toroidal_helper.html#adaa10c52a1bea944e7469a8a258891b1" target="_top" xlink:title="slogo.UI.ToroidalHelper.check\lAllBounds">
<polygon fill="white" stroke="black" points="384.5,-134 384.5,-164 539.5,-164 539.5,-134 384.5,-134"/>
<text text-anchor="start" x="392.5" y="-152" font-family="Helvetica,sans-Serif" font-size="10.00">slogo.UI.ToroidalHelper.check</text>
<text text-anchor="middle" x="462" y="-141" font-family="Helvetica,sans-Serif" font-size="10.00">AllBounds</text>
</a>
</g>
</g>
<!-- Node2&#45;&gt;Node3 -->
<g id="edge2" class="edge"><title>Node2&#45;&gt;Node3</title>
<path fill="none" stroke="midnightblue" d="M357.692,-129.426C366.565,-131.107 375.535,-132.807 384.29,-134.465"/>
<polygon fill="midnightblue" stroke="midnightblue" points="358.209,-125.962 347.733,-127.539 356.906,-132.839 358.209,-125.962"/>
</g>
<!-- Node4 -->
<g id="node4" class="node"><title>Node4</title>
<g id="a_node4"><a xlink:href="../../d0/d32/classslogo_1_1_u_i_1_1_toroidal_helper.html#a3310ad36e6dae43f4741e3a67ebd0144" target="_top" xlink:title="slogo.UI.ToroidalHelper.make\lLinesToroidal">
<polygon fill="white" stroke="black" points="756.5,-68 756.5,-98 911.5,-98 911.5,-68 756.5,-68"/>
<text text-anchor="start" x="764.5" y="-86" font-family="Helvetica,sans-Serif" font-size="10.00">slogo.UI.ToroidalHelper.make</text>
<text text-anchor="middle" x="834" y="-75" font-family="Helvetica,sans-Serif" font-size="10.00">LinesToroidal</text>
</a>
</g>
</g>
<!-- Node2&#45;&gt;Node4 -->
<g id="edge3" class="edge"><title>Node2&#45;&gt;Node4</title>
<path fill="none" stroke="midnightblue" d="M357.658,-108.374C466.724,-102.552 652.346,-92.6435 756.426,-87.0876"/>
<polygon fill="midnightblue" stroke="midnightblue" points="357.471,-104.879 347.672,-108.907 357.844,-111.869 357.471,-104.879"/>
</g>
<!-- Node5 -->
<g id="node5" class="node"><title>Node5</title>
<g id="a_node5"><a xlink:href="../../d9/d7e/classslogo_1_1_u_i_1_1_method_runner.html#ae05c629b80fe3379d77aea026b58b1ae" target="_top" xlink:title="slogo.UI.MethodRunner.draw\lLinesUsingToroidal">
<polygon fill="white" stroke="black" points="948,-68 948,-98 1100,-98 1100,-68 948,-68"/>
<text text-anchor="start" x="956" y="-86" font-family="Helvetica,sans-Serif" font-size="10.00">slogo.UI.MethodRunner.draw</text>
<text text-anchor="middle" x="1024" y="-75" font-family="Helvetica,sans-Serif" font-size="10.00">LinesUsingToroidal</text>
</a>
</g>
</g>
<!-- Node4&#45;&gt;Node5 -->
<g id="edge4" class="edge"><title>Node4&#45;&gt;Node5</title>
<path fill="none" stroke="midnightblue" d="M921.834,-83C930.481,-83 939.209,-83 947.724,-83"/>
<polygon fill="midnightblue" stroke="midnightblue" points="921.738,-79.5001 911.738,-83 921.738,-86.5001 921.738,-79.5001"/>
</g>
<!-- Node6 -->
<g id="node6" class="node"><title>Node6</title>
<g id="a_node6"><a xlink:href="../../d9/d7e/classslogo_1_1_u_i_1_1_method_runner.html#a1ab80948935d4a625cf3313eabe9a51d" target="_top" xlink:title="slogo.UI.MethodRunner.move\lTurtle">
<polygon fill="white" stroke="black" points="1136,-68 1136,-98 1292,-98 1292,-68 1136,-68"/>
<text text-anchor="start" x="1144" y="-86" font-family="Helvetica,sans-Serif" font-size="10.00">slogo.UI.MethodRunner.move</text>
<text text-anchor="middle" x="1214" y="-75" font-family="Helvetica,sans-Serif" font-size="10.00">Turtle</text>
</a>
</g>
</g>
<!-- Node5&#45;&gt;Node6 -->
<g id="edge5" class="edge"><title>Node5&#45;&gt;Node6</title>
<path fill="none" stroke="midnightblue" d="M1110.12,-83C1118.69,-83 1127.37,-83 1135.85,-83"/>
<polygon fill="midnightblue" stroke="midnightblue" points="1110.11,-79.5001 1100.11,-83 1110.11,-86.5001 1110.11,-79.5001"/>
</g>
<!-- Node7 -->
<g id="node7" class="node"><title>Node7</title>
<g id="a_node7"><a xlink:href="../../d9/d7e/classslogo_1_1_u_i_1_1_method_runner.html#a5fe4a6310ba1b0851d7d30a440511324" target="_top" xlink:title="slogo.UI.MethodRunner.change\lTurtle">
<polygon fill="white" stroke="black" points="1328,-68 1328,-98 1492,-98 1492,-68 1328,-68"/>
<text text-anchor="start" x="1336" y="-86" font-family="Helvetica,sans-Serif" font-size="10.00">slogo.UI.MethodRunner.change</text>
<text text-anchor="middle" x="1410" y="-75" font-family="Helvetica,sans-Serif" font-size="10.00">Turtle</text>
</a>
</g>
</g>
<!-- Node6&#45;&gt;Node7 -->
<g id="edge6" class="edge"><title>Node6&#45;&gt;Node7</title>
<path fill="none" stroke="midnightblue" d="M1302.49,-83C1310.95,-83 1319.5,-83 1327.9,-83"/>
<polygon fill="midnightblue" stroke="midnightblue" points="1302.23,-79.5001 1292.23,-83 1302.23,-86.5001 1302.23,-79.5001"/>
</g>
<!-- Node8 -->
<g id="node8" class="node"><title>Node8</title>
<g id="a_node8"><a xlink:href="../../df/d2d/classslogo_1_1_view.html#accc79c56511a72090ff8a4d414b8d1f5" target="_top" xlink:title="slogo.View.executeTurtle\lCommands">
<polygon fill="white" stroke="black" points="1528.5,-68 1528.5,-98 1661.5,-98 1661.5,-68 1528.5,-68"/>
<text text-anchor="start" x="1536.5" y="-86" font-family="Helvetica,sans-Serif" font-size="10.00">slogo.View.executeTurtle</text>
<text text-anchor="middle" x="1595" y="-75" font-family="Helvetica,sans-Serif" font-size="10.00">Commands</text>
</a>
</g>
</g>
<!-- Node7&#45;&gt;Node8 -->
<g id="edge7" class="edge"><title>Node7&#45;&gt;Node8</title>
<path fill="none" stroke="midnightblue" d="M1502.35,-83C1511.13,-83 1519.91,-83 1528.37,-83"/>
<polygon fill="midnightblue" stroke="midnightblue" points="1502.07,-79.5001 1492.07,-83 1502.07,-86.5001 1502.07,-79.5001"/>
</g>
<!-- Node9 -->
<g id="node9" class="node"><title>Node9</title>
<g id="a_node9"><a xlink:href="../../df/d2d/classslogo_1_1_view.html#aa90e5d95d422b58b7f4b7f8a049defe1" target="_top" xlink:title="slogo.View.executeCommand">
<polygon fill="white" stroke="black" points="1698,-73.5 1698,-92.5 1856,-92.5 1856,-73.5 1698,-73.5"/>
<text text-anchor="middle" x="1777" y="-80.5" font-family="Helvetica,sans-Serif" font-size="10.00">slogo.View.executeCommand</text>
</a>
</g>
</g>
<!-- Node8&#45;&gt;Node9 -->
<g id="edge8" class="edge"><title>Node8&#45;&gt;Node9</title>
<path fill="none" stroke="midnightblue" d="M1671.78,-83C1680.42,-83 1689.24,-83 1697.9,-83"/>
<polygon fill="midnightblue" stroke="midnightblue" points="1671.75,-79.5001 1661.75,-83 1671.75,-86.5001 1671.75,-79.5001"/>
</g>
<!-- Node10 -->
<g id="node10" class="node"><title>Node10</title>
<g id="a_node10"><a xlink:href="../../df/d2d/classslogo_1_1_view.html#aee563f6a0b15ac6668e4dcbdad40c73c" target="_top" xlink:title="slogo.View.sendCommandTo\lBackend">
<polygon fill="white" stroke="black" points="1898,-232 1898,-262 2050,-262 2050,-232 1898,-232"/>
<text text-anchor="start" x="1906" y="-250" font-family="Helvetica,sans-Serif" font-size="10.00">slogo.View.sendCommandTo</text>
<text text-anchor="middle" x="1974" y="-239" font-family="Helvetica,sans-Serif" font-size="10.00">Backend</text>
</a>
</g>
</g>
<!-- Node9&#45;&gt;Node10 -->
<g id="edge9" class="edge"><title>Node9&#45;&gt;Node10</title>
<path fill="none" stroke="midnightblue" d="M1797.05,-99.0252C1834.77,-130.741 1918.43,-201.108 1955.15,-231.984"/>
<polygon fill="midnightblue" stroke="midnightblue" points="1799.23,-96.2841 1789.33,-92.5262 1794.73,-101.641 1799.23,-96.2841"/>
</g>
<!-- Node30 -->
<g id="node30" class="node"><title>Node30</title>
<g id="a_node30"><a xlink:href="../../df/d2d/classslogo_1_1_view.html#a4c3084a198acf85804800d70eff9ee51" target="_top" xlink:title="slogo.View.stepIntoCommand">
<polygon fill="white" stroke="black" points="1895,-73.5 1895,-92.5 2053,-92.5 2053,-73.5 1895,-73.5"/>
<text text-anchor="middle" x="1974" y="-80.5" font-family="Helvetica,sans-Serif" font-size="10.00">slogo.View.stepIntoCommand</text>
</a>
</g>
</g>
<!-- Node9&#45;&gt;Node30 -->
<g id="edge37" class="edge"><title>Node9&#45;&gt;Node30</title>
<path fill="none" stroke="midnightblue" d="M1866.4,-83C1875.87,-83 1885.45,-83 1894.79,-83"/>
<polygon fill="midnightblue" stroke="midnightblue" points="1866.19,-79.5001 1856.19,-83 1866.19,-86.5001 1866.19,-79.5001"/>
</g>
<!-- Node34 -->
<g id="node34" class="node"><title>Node34</title>
<g id="a_node34"><a xlink:href="../../df/d2d/classslogo_1_1_view.html#ac8b7f574c679e744a430f1649dc55e68" target="_top" xlink:title="slogo.View.stepOverCommand">
<polygon fill="white" stroke="black" points="1892.5,-30.5 1892.5,-49.5 2055.5,-49.5 2055.5,-30.5 1892.5,-30.5"/>
<text text-anchor="middle" x="1974" y="-37.5" font-family="Helvetica,sans-Serif" font-size="10.00">slogo.View.stepOverCommand</text>
</a>
</g>
</g>
<!-- Node9&#45;&gt;Node34 -->
<g id="edge42" class="edge"><title>Node9&#45;&gt;Node34</title>
<path fill="none" stroke="midnightblue" d="M1831.06,-71.3005C1862.07,-64.462 1900.71,-55.9406 1929.84,-49.5164"/>
<polygon fill="midnightblue" stroke="midnightblue" points="1830.29,-67.8855 1821.28,-73.4569 1831.8,-74.7213 1830.29,-67.8855"/>
</g>
<!-- Node11 -->
<g id="node11" class="node"><title>Node11</title>
<g id="a_node11"><a xlink:href="../../db/d19/classslogo_1_1_u_i_1_1_module_creation_helper.html#a69e17abcc7cf9a6ed7261d8fb1d631fa" target="_top" xlink:title="slogo.UI.ModuleCreationHelper.activate\lIncreaseDecreaseButtons">
<polygon fill="white" stroke="black" points="2092.5,-408 2092.5,-438 2297.5,-438 2297.5,-408 2092.5,-408"/>
<text text-anchor="start" x="2100.5" y="-426" font-family="Helvetica,sans-Serif" font-size="10.00">slogo.UI.ModuleCreationHelper.activate</text>
<text text-anchor="middle" x="2195" y="-415" font-family="Helvetica,sans-Serif" font-size="10.00">IncreaseDecreaseButtons</text>
</a>
</g>
</g>
<!-- Node10&#45;&gt;Node11 -->
<g id="edge10" class="edge"><title>Node10&#45;&gt;Node11</title>
<path fill="none" stroke="midnightblue" d="M1988.04,-271.219C2006.78,-303.724 2044.36,-361.06 2092,-393 2101.12,-399.116 2111.51,-404.01 2122.09,-407.919"/>
<polygon fill="midnightblue" stroke="midnightblue" points="1991.01,-269.361 1983.05,-262.368 1984.91,-272.798 1991.01,-269.361"/>
</g>
<!-- Node18 -->
<g id="node18" class="node"><title>Node18</title>
<g id="a_node18"><a xlink:href="../../db/d19/classslogo_1_1_u_i_1_1_module_creation_helper.html#aa70b0ad9e90e62509149bfd2ef2ba209" target="_top" xlink:title="slogo.UI.ModuleCreationHelper.activate\lKeyEvents">
<polygon fill="white" stroke="black" points="2818.5,-155 2818.5,-185 3023.5,-185 3023.5,-155 2818.5,-155"/>
<text text-anchor="start" x="2826.5" y="-173" font-family="Helvetica,sans-Serif" font-size="10.00">slogo.UI.ModuleCreationHelper.activate</text>
<text text-anchor="middle" x="2921" y="-162" font-family="Helvetica,sans-Serif" font-size="10.00">KeyEvents</text>
</a>
</g>
</g>
<!-- Node10&#45;&gt;Node18 -->
<g id="edge18" class="edge"><title>Node10&#45;&gt;Node18</title>
<path fill="none" stroke="midnightblue" d="M2004.18,-226.164C2026.9,-211.251 2059.88,-192.388 2092,-184 2226.15,-148.97 2628.16,-158.777 2818.26,-165.744"/>
<polygon fill="midnightblue" stroke="midnightblue" points="2002.05,-223.378 1995.7,-231.86 2005.95,-229.189 2002.05,-223.378"/>
</g>
<!-- Node19 -->
<g id="node19" class="node"><title>Node19</title>
<g id="a_node19"><a xlink:href="../../db/d19/classslogo_1_1_u_i_1_1_module_creation_helper.html#a2e841243ec3ca474e8822102343acc88" target="_top" xlink:title="slogo.UI.ModuleCreationHelper.activate\lNewTurtleButton">
<polygon fill="white" stroke="black" points="2334.5,-363 2334.5,-393 2539.5,-393 2539.5,-363 2334.5,-363"/>
<text text-anchor="start" x="2342.5" y="-381" font-family="Helvetica,sans-Serif" font-size="10.00">slogo.UI.ModuleCreationHelper.activate</text>
<text text-anchor="middle" x="2437" y="-370" font-family="Helvetica,sans-Serif" font-size="10.00">NewTurtleButton</text>
</a>
</g>
</g>
<!-- Node10&#45;&gt;Node19 -->
<g id="edge20" class="edge"><title>Node10&#45;&gt;Node19</title>
<path fill="none" stroke="midnightblue" d="M1991.02,-270.155C2011.1,-297.009 2048.24,-340.013 2092,-359 2168.41,-392.152 2263.47,-394.86 2334.29,-390.435"/>
<polygon fill="midnightblue" stroke="midnightblue" points="1993.83,-268.073 1985.11,-262.055 1988.18,-272.197 1993.83,-268.073"/>
</g>
<!-- Node21 -->
<g id="node21" class="node"><title>Node21</title>
<g id="a_node21"><a xlink:href="../../db/d19/classslogo_1_1_u_i_1_1_module_creation_helper.html#a9b1f07ab673191067907a059b1b0c524" target="_top" xlink:title="slogo.UI.ModuleCreationHelper.activate\lPlayButton">
<polygon fill="white" stroke="black" points="2092.5,-320 2092.5,-350 2297.5,-350 2297.5,-320 2092.5,-320"/>
<text text-anchor="start" x="2100.5" y="-338" font-family="Helvetica,sans-Serif" font-size="10.00">slogo.UI.ModuleCreationHelper.activate</text>
<text text-anchor="middle" x="2195" y="-327" font-family="Helvetica,sans-Serif" font-size="10.00">PlayButton</text>
</a>
</g>
</g>
<!-- Node10&#45;&gt;Node21 -->
<g id="edge23" class="edge"><title>Node10&#45;&gt;Node21</title>
<path fill="none" stroke="midnightblue" d="M2007.42,-267.354C2030.33,-281.006 2062.16,-298.522 2092,-310 2101.7,-313.73 2112.14,-317.039 2122.5,-319.929"/>
<polygon fill="midnightblue" stroke="midnightblue" points="2009.16,-264.317 1998.79,-262.145 2005.54,-270.31 2009.16,-264.317"/>
</g>
<!-- Node24 -->
<g id="node24" class="node"><title>Node24</title>
<g id="a_node24"><a xlink:href="../../db/d19/classslogo_1_1_u_i_1_1_module_creation_helper.html#a3a38d485562cb17591ec3fd07cffc18a" target="_top" xlink:title="slogo.UI.ModuleCreationHelper.activate\lTurtleCanvas">
<polygon fill="white" stroke="black" points="2576.5,-106 2576.5,-136 2781.5,-136 2781.5,-106 2576.5,-106"/>
<text text-anchor="start" x="2584.5" y="-124" font-family="Helvetica,sans-Serif" font-size="10.00">slogo.UI.ModuleCreationHelper.activate</text>
<text text-anchor="middle" x="2679" y="-113" font-family="Helvetica,sans-Serif" font-size="10.00">TurtleCanvas</text>
</a>
</g>
</g>
<!-- Node10&#45;&gt;Node24 -->
<g id="edge27" class="edge"><title>Node10&#45;&gt;Node24</title>
<path fill="none" stroke="midnightblue" d="M1994.37,-224.232C2015.63,-201.064 2052.1,-166.434 2092,-151 2177.51,-117.92 2432.48,-116.527 2576.33,-118.616"/>
<polygon fill="midnightblue" stroke="midnightblue" points="1991.56,-222.115 1987.5,-231.898 1996.78,-226.786 1991.56,-222.115"/>
</g>
<!-- Node26 -->
<g id="node26" class="node"><title>Node26</title>
<g id="a_node26"><a xlink:href="../../d1/d5f/classslogo_1_1_u_i_1_1_path_color_selector.html#ad3d9c82a0904c97edcec7cf67b85bd7b" target="_top" xlink:title="slogo.UI.PathColorSelector.create">
<polygon fill="white" stroke="black" points="2107,-281.5 2107,-300.5 2283,-300.5 2283,-281.5 2107,-281.5"/>
<text text-anchor="middle" x="2195" y="-288.5" font-family="Helvetica,sans-Serif" font-size="10.00">slogo.UI.PathColorSelector.create</text>
</a>
</g>
</g>
<!-- Node10&#45;&gt;Node26 -->
<g id="edge30" class="edge"><title>Node10&#45;&gt;Node26</title>
<path fill="none" stroke="midnightblue" d="M2057.74,-264.065C2069.24,-266.411 2080.91,-268.776 2092,-271 2109.25,-274.46 2128.16,-278.186 2144.95,-281.473"/>
<polygon fill="midnightblue" stroke="midnightblue" points="2058.19,-260.585 2047.69,-262.013 2056.79,-267.443 2058.19,-260.585"/>
</g>
<!-- Node28 -->
<g id="node28" class="node"><title>Node28</title>
<g id="a_node28"><a xlink:href="../../d4/d8d/classslogo_1_1_u_i_1_1_background_color_selector.html#ad75ba4ce104e071811d0fe039a4e839f" target="_top" xlink:title="slogo.UI.BackgroundColor\lSelector.create">
<polygon fill="white" stroke="black" points="2125,-232 2125,-262 2265,-262 2265,-232 2125,-232"/>
<text text-anchor="start" x="2133" y="-250" font-family="Helvetica,sans-Serif" font-size="10.00">slogo.UI.BackgroundColor</text>
<text text-anchor="middle" x="2195" y="-239" font-family="Helvetica,sans-Serif" font-size="10.00">Selector.create</text>
</a>
</g>
</g>
<!-- Node10&#45;&gt;Node28 -->
<g id="edge33" class="edge"><title>Node10&#45;&gt;Node28</title>
<path fill="none" stroke="midnightblue" d="M2060.14,-247C2081.6,-247 2104.37,-247 2124.93,-247"/>
<polygon fill="midnightblue" stroke="midnightblue" points="2060.06,-243.5 2050.06,-247 2060.06,-250.5 2060.06,-243.5"/>
</g>
<!-- Node29 -->
<g id="node29" class="node"><title>Node29</title>
<g id="a_node29"><a xlink:href="../../dd/da7/classslogo_1_1_u_i_1_1_turtle_image_selector.html#a3f268d9196ffebcbb5dc322d2897a9fe" target="_top" xlink:title="slogo.UI.TurtleImageSelector.create">
<polygon fill="white" stroke="black" points="2102,-193.5 2102,-212.5 2288,-212.5 2288,-193.5 2102,-193.5"/>
<text text-anchor="middle" x="2195" y="-200.5" font-family="Helvetica,sans-Serif" font-size="10.00">slogo.UI.TurtleImageSelector.create</text>
</a>
</g>
</g>
<!-- Node10&#45;&gt;Node29 -->
<g id="edge35" class="edge"><title>Node10&#45;&gt;Node29</title>
<path fill="none" stroke="midnightblue" d="M2054.01,-229.821C2066.7,-227.147 2079.71,-224.458 2092,-222 2107.99,-218.804 2125.42,-215.493 2141.27,-212.548"/>
<polygon fill="midnightblue" stroke="midnightblue" points="2052.98,-226.463 2043.92,-231.958 2054.43,-233.311 2052.98,-226.463"/>
</g>
<!-- Node12 -->
<g id="node12" class="node"><title>Node12</title>
<g id="a_node12"><a xlink:href="../../db/d19/classslogo_1_1_u_i_1_1_module_creation_helper.html#adce7362386f9a7b3006e7db08a2d578d" target="_top" xlink:title="slogo.UI.ModuleCreationHelper.create\lIncreaseDecreaseButtons">
<polygon fill="white" stroke="black" points="2580.5,-399 2580.5,-429 2777.5,-429 2777.5,-399 2580.5,-399"/>
<text text-anchor="start" x="2588.5" y="-417" font-family="Helvetica,sans-Serif" font-size="10.00">slogo.UI.ModuleCreationHelper.create</text>
<text text-anchor="middle" x="2679" y="-406" font-family="Helvetica,sans-Serif" font-size="10.00">IncreaseDecreaseButtons</text>
</a>
</g>
</g>
<!-- Node11&#45;&gt;Node12 -->
<g id="edge11" class="edge"><title>Node11&#45;&gt;Node12</title>
<path fill="none" stroke="midnightblue" d="M2307.79,-420.913C2390.23,-419.373 2501.29,-417.299 2580.21,-415.826"/>
<polygon fill="midnightblue" stroke="midnightblue" points="2307.56,-417.416 2297.63,-421.102 2307.69,-424.415 2307.56,-417.416"/>
</g>
<!-- Node13 -->
<g id="node13" class="node"><title>Node13</title>
<g id="a_node13"><a xlink:href="../../db/d19/classslogo_1_1_u_i_1_1_module_creation_helper.html#a7c650957b2389d6e6d36e8be8a33cd2b" target="_top" xlink:title="slogo.UI.ModuleCreationHelper.create\lSelectorVBoxModules">
<polygon fill="white" stroke="black" points="2822.5,-272 2822.5,-302 3019.5,-302 3019.5,-272 2822.5,-272"/>
<text text-anchor="start" x="2830.5" y="-290" font-family="Helvetica,sans-Serif" font-size="10.00">slogo.UI.ModuleCreationHelper.create</text>
<text text-anchor="middle" x="2921" y="-279" font-family="Helvetica,sans-Serif" font-size="10.00">SelectorVBoxModules</text>
</a>
</g>
</g>
<!-- Node12&#45;&gt;Node13 -->
<g id="edge12" class="edge"><title>Node12&#45;&gt;Node13</title>
<path fill="none" stroke="midnightblue" d="M2763,-395.732C2769.54,-393.424 2775.95,-390.854 2782,-388 2830.6,-365.077 2879.46,-324.079 2903.92,-302.025"/>
<polygon fill="midnightblue" stroke="midnightblue" points="2761.75,-392.461 2753.36,-398.93 2763.95,-399.105 2761.75,-392.461"/>
</g>
<!-- Node14 -->
<g id="node14" class="node"><title>Node14</title>
<g id="a_node14"><a xlink:href="../../db/d19/classslogo_1_1_u_i_1_1_module_creation_helper.html#afb9dbbbad7d872234a5b296fe129a34e" target="_top" xlink:title="slogo.UI.ModuleCreationHelper.create\lMainPageModules">
<polygon fill="white" stroke="black" points="3060.5,-155 3060.5,-185 3257.5,-185 3257.5,-155 3060.5,-155"/>
<text text-anchor="start" x="3068.5" y="-173" font-family="Helvetica,sans-Serif" font-size="10.00">slogo.UI.ModuleCreationHelper.create</text>
<text text-anchor="middle" x="3159" y="-162" font-family="Helvetica,sans-Serif" font-size="10.00">MainPageModules</text>
</a>
</g>
</g>
<!-- Node13&#45;&gt;Node14 -->
<g id="edge13" class="edge"><title>Node13&#45;&gt;Node14</title>
<path fill="none" stroke="midnightblue" d="M2961.58,-267.38C3008.29,-244.222 3084.96,-206.212 3127.37,-185.184"/>
<polygon fill="midnightblue" stroke="midnightblue" points="2959.77,-264.366 2952.37,-271.944 2962.88,-270.638 2959.77,-264.366"/>
</g>
<!-- Node15 -->
<g id="node15" class="node"><title>Node15</title>
<g id="a_node15"><a xlink:href="../../d9/d33/classslogo_1_1_u_i_1_1_main.html#a15b7f2e399ee24d160550993ab737e73" target="_top" xlink:title="slogo.UI.Main.start">
<polygon fill="white" stroke="black" points="3294,-169.5 3294,-188.5 3400,-188.5 3400,-169.5 3294,-169.5"/>
<text text-anchor="middle" x="3347" y="-176.5" font-family="Helvetica,sans-Serif" font-size="10.00">slogo.UI.Main.start</text>
</a>
</g>
</g>
<!-- Node14&#45;&gt;Node15 -->
<g id="edge14" class="edge"><title>Node14&#45;&gt;Node15</title>
<path fill="none" stroke="midnightblue" d="M3267.8,-175.216C3276.76,-175.65 3285.53,-176.074 3293.76,-176.472"/>
<polygon fill="midnightblue" stroke="midnightblue" points="3267.79,-171.712 3257.63,-174.724 3267.45,-178.703 3267.79,-171.712"/>
</g>
<!-- Node16 -->
<g id="node16" class="node"><title>Node16</title>
<g id="a_node16"><a xlink:href="../../db/d19/classslogo_1_1_u_i_1_1_module_creation_helper.html#a3be12a7cc2b8a219db1e296211a2cb88" target="_top" xlink:title="slogo.UI.ModuleCreationHelper.activate\lExtraWorkspaceButton">
<polygon fill="white" stroke="black" points="3436.5,-182 3436.5,-212 3641.5,-212 3641.5,-182 3436.5,-182"/>
<text text-anchor="start" x="3444.5" y="-200" font-family="Helvetica,sans-Serif" font-size="10.00">slogo.UI.ModuleCreationHelper.activate</text>
<text text-anchor="middle" x="3539" y="-189" font-family="Helvetica,sans-Serif" font-size="10.00">ExtraWorkspaceButton</text>
</a>
</g>
</g>
<!-- Node15&#45;&gt;Node16 -->
<g id="edge15" class="edge"><title>Node15&#45;&gt;Node16</title>
<path fill="none" stroke="midnightblue" d="M3410.22,-184.894C3418.63,-185.691 3427.44,-186.526 3436.32,-187.367"/>
<polygon fill="midnightblue" stroke="midnightblue" points="3410.46,-181.401 3400.17,-183.942 3409.79,-188.37 3410.46,-181.401"/>
</g>
<!-- Node17 -->
<g id="node17" class="node"><title>Node17</title>
<g id="a_node17"><a xlink:href="../../db/d19/classslogo_1_1_u_i_1_1_module_creation_helper.html#a702c1ebe24d2857a10c666eb1fcc315d" target="_top" xlink:title="slogo.UI.ModuleCreationHelper.create\lExtraWorkspaceButton">
<polygon fill="white" stroke="black" points="3678.5,-208 3678.5,-238 3875.5,-238 3875.5,-208 3678.5,-208"/>
<text text-anchor="start" x="3686.5" y="-226" font-family="Helvetica,sans-Serif" font-size="10.00">slogo.UI.ModuleCreationHelper.create</text>
<text text-anchor="middle" x="3777" y="-215" font-family="Helvetica,sans-Serif" font-size="10.00">ExtraWorkspaceButton</text>
</a>
</g>
</g>
<!-- Node16&#45;&gt;Node17 -->
<g id="edge16" class="edge"><title>Node16&#45;&gt;Node17</title>
<path fill="none" stroke="midnightblue" d="M3651.77,-209.313C3660.62,-210.289 3669.52,-211.27 3678.27,-212.234"/>
<polygon fill="midnightblue" stroke="midnightblue" points="3652.12,-205.831 3641.8,-208.215 3651.35,-212.789 3652.12,-205.831"/>
</g>
<!-- Node17&#45;&gt;Node13 -->
<g id="edge17" class="edge"><title>Node17&#45;&gt;Node13</title>
<path fill="none" stroke="midnightblue" d="M3668.34,-231.068C3500.9,-243.617 3180.6,-267.62 3019.55,-279.69"/>
<polygon fill="midnightblue" stroke="midnightblue" points="3668.7,-234.551 3678.41,-230.313 3668.18,-227.571 3668.7,-234.551"/>
</g>
<!-- Node18&#45;&gt;Node14 -->
<g id="edge19" class="edge"><title>Node18&#45;&gt;Node14</title>
<path fill="none" stroke="midnightblue" d="M3034.05,-170C3042.81,-170 3051.62,-170 3060.27,-170"/>
<polygon fill="midnightblue" stroke="midnightblue" points="3033.8,-166.5 3023.8,-170 3033.8,-173.5 3033.8,-166.5"/>
</g>
<!-- Node20 -->
<g id="node20" class="node"><title>Node20</title>
<g id="a_node20"><a xlink:href="../../db/d19/classslogo_1_1_u_i_1_1_module_creation_helper.html#a07f5483df317cdf80e8ea2dda5699afa" target="_top" xlink:title="slogo.UI.ModuleCreationHelper.create\lNewTurtleButton">
<polygon fill="white" stroke="black" points="2580.5,-349 2580.5,-379 2777.5,-379 2777.5,-349 2580.5,-349"/>
<text text-anchor="start" x="2588.5" y="-367" font-family="Helvetica,sans-Serif" font-size="10.00">slogo.UI.ModuleCreationHelper.create</text>
<text text-anchor="middle" x="2679" y="-356" font-family="Helvetica,sans-Serif" font-size="10.00">NewTurtleButton</text>
</a>
</g>
</g>
<!-- Node19&#45;&gt;Node20 -->
<g id="edge21" class="edge"><title>Node19&#45;&gt;Node20</title>
<path fill="none" stroke="midnightblue" d="M2549.89,-371.473C2560.04,-370.881 2570.26,-370.285 2580.27,-369.701"/>
<polygon fill="midnightblue" stroke="midnightblue" points="2549.56,-367.986 2539.78,-372.063 2549.97,-374.974 2549.56,-367.986"/>
</g>
<!-- Node20&#45;&gt;Node13 -->
<g id="edge22" class="edge"><title>Node20&#45;&gt;Node13</title>
<path fill="none" stroke="midnightblue" d="M2750.15,-346.309C2760.87,-343.354 2771.76,-340.203 2782,-337 2815.93,-326.387 2853.86,-312.493 2881.35,-302.046"/>
<polygon fill="midnightblue" stroke="midnightblue" points="2749.12,-342.962 2740.39,-348.963 2750.96,-349.717 2749.12,-342.962"/>
</g>
<!-- Node22 -->
<g id="node22" class="node"><title>Node22</title>
<g id="a_node22"><a xlink:href="../../db/d19/classslogo_1_1_u_i_1_1_module_creation_helper.html#a9b3fb38a55b3b7812b4f793afa7a974f" target="_top" xlink:title="slogo.UI.ModuleCreationHelper.create\lPlayButton">
<polygon fill="white" stroke="black" points="2338.5,-314 2338.5,-344 2535.5,-344 2535.5,-314 2338.5,-314"/>
<text text-anchor="start" x="2346.5" y="-332" font-family="Helvetica,sans-Serif" font-size="10.00">slogo.UI.ModuleCreationHelper.create</text>
<text text-anchor="middle" x="2437" y="-321" font-family="Helvetica,sans-Serif" font-size="10.00">PlayButton</text>
</a>
</g>
</g>
<!-- Node21&#45;&gt;Node22 -->
<g id="edge24" class="edge"><title>Node21&#45;&gt;Node22</title>
<path fill="none" stroke="midnightblue" d="M2307.89,-332.203C2318.04,-331.949 2328.26,-331.694 2338.27,-331.443"/>
<polygon fill="midnightblue" stroke="midnightblue" points="2307.69,-328.707 2297.78,-332.455 2307.87,-335.704 2307.69,-328.707"/>
</g>
<!-- Node23 -->
<g id="node23" class="node"><title>Node23</title>
<g id="a_node23"><a xlink:href="../../db/d19/classslogo_1_1_u_i_1_1_module_creation_helper.html#ae1e60d37509c2e5eddcb2a6e70b4f650" target="_top" xlink:title="slogo.UI.ModuleCreationHelper.create\lFirstRowButtons">
<polygon fill="white" stroke="black" points="2580.5,-298 2580.5,-328 2777.5,-328 2777.5,-298 2580.5,-298"/>
<text text-anchor="start" x="2588.5" y="-316" font-family="Helvetica,sans-Serif" font-size="10.00">slogo.UI.ModuleCreationHelper.create</text>
<text text-anchor="middle" x="2679" y="-305" font-family="Helvetica,sans-Serif" font-size="10.00">FirstRowButtons</text>
</a>
</g>
</g>
<!-- Node22&#45;&gt;Node23 -->
<g id="edge25" class="edge"><title>Node22&#45;&gt;Node23</title>
<path fill="none" stroke="midnightblue" d="M2545.73,-321.818C2557.3,-321.046 2569.03,-320.265 2580.47,-319.502"/>
<polygon fill="midnightblue" stroke="midnightblue" points="2545.36,-318.335 2535.62,-322.492 2545.83,-325.319 2545.36,-318.335"/>
</g>
<!-- Node23&#45;&gt;Node13 -->
<g id="edge26" class="edge"><title>Node23&#45;&gt;Node13</title>
<path fill="none" stroke="midnightblue" d="M2787.73,-301.329C2799.3,-300.075 2811.03,-298.805 2822.47,-297.566"/>
<polygon fill="midnightblue" stroke="midnightblue" points="2787.18,-297.868 2777.62,-302.425 2787.94,-304.827 2787.18,-297.868"/>
</g>
<!-- Node25 -->
<g id="node25" class="node"><title>Node25</title>
<g id="a_node25"><a xlink:href="../../db/d19/classslogo_1_1_u_i_1_1_module_creation_helper.html#a803bac6b55bde712b21f2face1eeef81" target="_top" xlink:title="slogo.UI.ModuleCreationHelper.create\lTurtleCanvas">
<polygon fill="white" stroke="black" points="2822.5,-106 2822.5,-136 3019.5,-136 3019.5,-106 2822.5,-106"/>
<text text-anchor="start" x="2830.5" y="-124" font-family="Helvetica,sans-Serif" font-size="10.00">slogo.UI.ModuleCreationHelper.create</text>
<text text-anchor="middle" x="2921" y="-113" font-family="Helvetica,sans-Serif" font-size="10.00">TurtleCanvas</text>
</a>
</g>
</g>
<!-- Node24&#45;&gt;Node25 -->
<g id="edge28" class="edge"><title>Node24&#45;&gt;Node25</title>
<path fill="none" stroke="midnightblue" d="M2791.89,-121C2802.04,-121 2812.26,-121 2822.27,-121"/>
<polygon fill="midnightblue" stroke="midnightblue" points="2791.78,-117.5 2781.78,-121 2791.78,-124.5 2791.78,-117.5"/>
</g>
<!-- Node25&#45;&gt;Node14 -->
<g id="edge29" class="edge"><title>Node25&#45;&gt;Node14</title>
<path fill="none" stroke="midnightblue" d="M3004.42,-138.113C3030.9,-143.611 3060.03,-149.658 3085.73,-154.994"/>
<polygon fill="midnightblue" stroke="midnightblue" points="3004.91,-134.641 2994.41,-136.035 3003.49,-141.495 3004.91,-134.641"/>
</g>
<!-- Node27 -->
<g id="node27" class="node"><title>Node27</title>
<g id="a_node27"><a xlink:href="../../db/d19/classslogo_1_1_u_i_1_1_module_creation_helper.html#af7f2919454fdbf6e9d7d912e99634857" target="_top" xlink:title="slogo.UI.ModuleCreationHelper.create\lSelectors">
<polygon fill="white" stroke="black" points="2338.5,-249 2338.5,-279 2535.5,-279 2535.5,-249 2338.5,-249"/>
<text text-anchor="start" x="2346.5" y="-267" font-family="Helvetica,sans-Serif" font-size="10.00">slogo.UI.ModuleCreationHelper.create</text>
<text text-anchor="middle" x="2437" y="-256" font-family="Helvetica,sans-Serif" font-size="10.00">Selectors</text>
</a>
</g>
</g>
<!-- Node26&#45;&gt;Node27 -->
<g id="edge31" class="edge"><title>Node26&#45;&gt;Node27</title>
<path fill="none" stroke="midnightblue" d="M2290.76,-280.339C2306.36,-278.585 2322.54,-276.764 2338.21,-275.002"/>
<polygon fill="midnightblue" stroke="midnightblue" points="2290.16,-276.885 2280.62,-281.481 2290.94,-283.841 2290.16,-276.885"/>
</g>
<!-- Node27&#45;&gt;Node13 -->
<g id="edge32" class="edge"><title>Node27&#45;&gt;Node13</title>
<path fill="none" stroke="midnightblue" d="M2545.74,-269.141C2628.55,-273.092 2741.97,-278.505 2822.19,-282.333"/>
<polygon fill="midnightblue" stroke="midnightblue" points="2545.7,-265.635 2535.54,-268.654 2545.36,-272.627 2545.7,-265.635"/>
</g>
<!-- Node28&#45;&gt;Node27 -->
<g id="edge34" class="edge"><title>Node28&#45;&gt;Node27</title>
<path fill="none" stroke="midnightblue" d="M2275.18,-252.609C2295.4,-254.041 2317.37,-255.597 2338.39,-257.086"/>
<polygon fill="midnightblue" stroke="midnightblue" points="2275.32,-249.11 2265.1,-251.894 2274.82,-256.092 2275.32,-249.11"/>
</g>
<!-- Node29&#45;&gt;Node27 -->
<g id="edge36" class="edge"><title>Node29&#45;&gt;Node27</title>
<path fill="none" stroke="midnightblue" d="M2263.48,-214.473C2275.04,-216.752 2286.9,-219.287 2298,-222 2329.38,-229.673 2364.18,-240.278 2390.98,-248.911"/>
<polygon fill="midnightblue" stroke="midnightblue" points="2263.9,-210.99 2253.42,-212.539 2262.58,-217.864 2263.9,-210.99"/>
</g>
<!-- Node31 -->
<g id="node31" class="node"><title>Node31</title>
<g id="a_node31"><a xlink:href="../../db/d19/classslogo_1_1_u_i_1_1_module_creation_helper.html#a9fd730f7c1860d34bf4ac46c3828bd59" target="_top" xlink:title="slogo.UI.ModuleCreationHelper.activate\lStepIntoButton">
<polygon fill="white" stroke="black" points="2092.5,-68 2092.5,-98 2297.5,-98 2297.5,-68 2092.5,-68"/>
<text text-anchor="start" x="2100.5" y="-86" font-family="Helvetica,sans-Serif" font-size="10.00">slogo.UI.ModuleCreationHelper.activate</text>
<text text-anchor="middle" x="2195" y="-75" font-family="Helvetica,sans-Serif" font-size="10.00">StepIntoButton</text>
</a>
</g>
</g>
<!-- Node30&#45;&gt;Node31 -->
<g id="edge38" class="edge"><title>Node30&#45;&gt;Node31</title>
<path fill="none" stroke="midnightblue" d="M2063.33,-83C2072.82,-83 2082.54,-83 2092.17,-83"/>
<polygon fill="midnightblue" stroke="midnightblue" points="2063.14,-79.5001 2053.14,-83 2063.14,-86.5001 2063.14,-79.5001"/>
</g>
<!-- Node32 -->
<g id="node32" class="node"><title>Node32</title>
<g id="a_node32"><a xlink:href="../../db/d19/classslogo_1_1_u_i_1_1_module_creation_helper.html#a4a6f1f009507c25be8c7c28cbba35f3b" target="_top" xlink:title="slogo.UI.ModuleCreationHelper.create\lDebugStepIntoButton">
<polygon fill="white" stroke="black" points="2338.5,-68 2338.5,-98 2535.5,-98 2535.5,-68 2338.5,-68"/>
<text text-anchor="start" x="2346.5" y="-86" font-family="Helvetica,sans-Serif" font-size="10.00">slogo.UI.ModuleCreationHelper.create</text>
<text text-anchor="middle" x="2437" y="-75" font-family="Helvetica,sans-Serif" font-size="10.00">DebugStepIntoButton</text>
</a>
</g>
</g>
<!-- Node31&#45;&gt;Node32 -->
<g id="edge39" class="edge"><title>Node31&#45;&gt;Node32</title>
<path fill="none" stroke="midnightblue" d="M2307.89,-83C2318.04,-83 2328.26,-83 2338.27,-83"/>
<polygon fill="midnightblue" stroke="midnightblue" points="2307.78,-79.5001 2297.78,-83 2307.78,-86.5001 2307.78,-79.5001"/>
</g>
<!-- Node33 -->
<g id="node33" class="node"><title>Node33</title>
<g id="a_node33"><a xlink:href="../../db/d19/classslogo_1_1_u_i_1_1_module_creation_helper.html#a975af4ea47dc85df72215bdf1a0d20ce" target="_top" xlink:title="slogo.UI.ModuleCreationHelper.create\lDebugModules">
<polygon fill="white" stroke="black" points="2580.5,-57 2580.5,-87 2777.5,-87 2777.5,-57 2580.5,-57"/>
<text text-anchor="start" x="2588.5" y="-75" font-family="Helvetica,sans-Serif" font-size="10.00">slogo.UI.ModuleCreationHelper.create</text>
<text text-anchor="middle" x="2679" y="-64" font-family="Helvetica,sans-Serif" font-size="10.00">DebugModules</text>
</a>
</g>
</g>
<!-- Node32&#45;&gt;Node33 -->
<g id="edge40" class="edge"><title>Node32&#45;&gt;Node33</title>
<path fill="none" stroke="midnightblue" d="M2545.73,-78.0622C2557.3,-77.5319 2569.03,-76.9945 2580.47,-76.4702"/>
<polygon fill="midnightblue" stroke="midnightblue" points="2545.45,-74.5716 2535.62,-78.5259 2545.77,-81.5643 2545.45,-74.5716"/>
</g>
<!-- Node33&#45;&gt;Node14 -->
<g id="edge41" class="edge"><title>Node33&#45;&gt;Node14</title>
<path fill="none" stroke="midnightblue" d="M2787.63,-67.679C2856.53,-67.779 2947.11,-73.2973 3024,-96 3067.33,-108.794 3112.2,-137.228 3137.46,-154.889"/>
<polygon fill="midnightblue" stroke="midnightblue" points="2787.61,-64.1789 2777.62,-67.7021 2787.63,-71.1789 2787.61,-64.1789"/>
</g>
<!-- Node35 -->
<g id="node35" class="node"><title>Node35</title>
<g id="a_node35"><a xlink:href="../../db/d19/classslogo_1_1_u_i_1_1_module_creation_helper.html#a0fed0bb32bf2643d6fd5c24d82e8e18e" target="_top" xlink:title="slogo.UI.ModuleCreationHelper.activate\lStepOverButton">
<polygon fill="white" stroke="black" points="2092.5,-19 2092.5,-49 2297.5,-49 2297.5,-19 2092.5,-19"/>
<text text-anchor="start" x="2100.5" y="-37" font-family="Helvetica,sans-Serif" font-size="10.00">slogo.UI.ModuleCreationHelper.activate</text>
<text text-anchor="middle" x="2195" y="-26" font-family="Helvetica,sans-Serif" font-size="10.00">StepOverButton</text>
</a>
</g>
</g>
<!-- Node34&#45;&gt;Node35 -->
<g id="edge43" class="edge"><title>Node34&#45;&gt;Node35</title>
<path fill="none" stroke="midnightblue" d="M2065.8,-37.5123C2074.56,-37.2724 2083.48,-37.028 2092.33,-36.7856"/>
<polygon fill="midnightblue" stroke="midnightblue" points="2065.51,-34.0187 2055.61,-37.7914 2065.71,-41.0161 2065.51,-34.0187"/>
</g>
<!-- Node36 -->
<g id="node36" class="node"><title>Node36</title>
<g id="a_node36"><a xlink:href="../../db/d19/classslogo_1_1_u_i_1_1_module_creation_helper.html#aa1e7dc2b509360583790fba0d3819c8d" target="_top" xlink:title="slogo.UI.ModuleCreationHelper.create\lDebugStepOverButton">
<polygon fill="white" stroke="black" points="2338.5,-19 2338.5,-49 2535.5,-49 2535.5,-19 2338.5,-19"/>
<text text-anchor="start" x="2346.5" y="-37" font-family="Helvetica,sans-Serif" font-size="10.00">slogo.UI.ModuleCreationHelper.create</text>
<text text-anchor="middle" x="2437" y="-26" font-family="Helvetica,sans-Serif" font-size="10.00">DebugStepOverButton</text>
</a>
</g>
</g>
<!-- Node35&#45;&gt;Node36 -->
<g id="edge44" class="edge"><title>Node35&#45;&gt;Node36</title>
<path fill="none" stroke="midnightblue" d="M2307.89,-34C2318.04,-34 2328.26,-34 2338.27,-34"/>
<polygon fill="midnightblue" stroke="midnightblue" points="2307.78,-30.5001 2297.78,-34 2307.78,-37.5001 2307.78,-30.5001"/>
</g>
<!-- Node36&#45;&gt;Node33 -->
<g id="edge45" class="edge"><title>Node36&#45;&gt;Node33</title>
<path fill="none" stroke="midnightblue" d="M2542.99,-50.6227C2556.31,-52.7329 2569.89,-54.8827 2583.05,-56.966"/>
<polygon fill="midnightblue" stroke="midnightblue" points="2543.28,-47.1256 2532.85,-49.0186 2542.18,-54.0395 2543.28,-47.1256"/>
</g>
<!-- Node38 -->
<g id="node38" class="node"><title>Node38</title>
<g id="a_node38"><a xlink:href="../../d0/d32/classslogo_1_1_u_i_1_1_toroidal_helper.html#a9d143072a1321d4267bb97cf11062922" target="_top" xlink:title="slogo.UI.ToroidalHelper.cut\lLines">
<polygon fill="white" stroke="black" points="576.5,-46 576.5,-76 719.5,-76 719.5,-46 576.5,-46"/>
<text text-anchor="start" x="584.5" y="-64" font-family="Helvetica,sans-Serif" font-size="10.00">slogo.UI.ToroidalHelper.cut</text>
<text text-anchor="middle" x="648" y="-53" font-family="Helvetica,sans-Serif" font-size="10.00">Lines</text>
</a>
</g>
</g>
<!-- Node37&#45;&gt;Node38 -->
<g id="edge47" class="edge"><title>Node37&#45;&gt;Node38</title>
<path fill="none" stroke="midnightblue" d="M351.784,-63.3554C418.557,-62.8227 512.436,-62.0737 576.276,-61.5643"/>
<polygon fill="midnightblue" stroke="midnightblue" points="351.694,-59.856 341.723,-63.4357 351.75,-66.8557 351.694,-59.856"/>
</g>
<!-- Node39 -->
<g id="node39" class="node"><title>Node39</title>
<g id="a_node39"><a xlink:href="../../d0/d32/classslogo_1_1_u_i_1_1_toroidal_helper.html#a6babdb66f06fca1bddc1823bb5f56f87" target="_top" xlink:title="slogo.UI.ToroidalHelper.run\lYShift">
<polygon fill="white" stroke="black" points="390.5,-5 390.5,-35 533.5,-35 533.5,-5 390.5,-5"/>
<text text-anchor="start" x="398.5" y="-23" font-family="Helvetica,sans-Serif" font-size="10.00">slogo.UI.ToroidalHelper.run</text>
<text text-anchor="middle" x="462" y="-12" font-family="Helvetica,sans-Serif" font-size="10.00">YShift</text>
</a>
</g>
</g>
<!-- Node37&#45;&gt;Node39 -->
<g id="edge49" class="edge"><title>Node37&#45;&gt;Node39</title>
<path fill="none" stroke="midnightblue" d="M346.037,-46.6231C362.594,-42.7888 379.999,-38.7582 396.114,-35.0262"/>
<polygon fill="midnightblue" stroke="midnightblue" points="344.808,-43.3148 335.856,-48.9808 346.388,-50.1344 344.808,-43.3148"/>
</g>
<!-- Node38&#45;&gt;Node4 -->
<g id="edge48" class="edge"><title>Node38&#45;&gt;Node4</title>
<path fill="none" stroke="midnightblue" d="M729.604,-70.6375C738.524,-71.704 747.59,-72.7879 756.458,-73.8482"/>
<polygon fill="midnightblue" stroke="midnightblue" points="729.958,-67.1549 719.613,-69.4429 729.127,-74.1054 729.958,-67.1549"/>
</g>
<!-- Node39&#45;&gt;Node38 -->
<g id="edge50" class="edge"><title>Node39&#45;&gt;Node38</title>
<path fill="none" stroke="midnightblue" d="M540.334,-37.2321C553.36,-40.1346 566.788,-43.1267 579.538,-45.9677"/>
<polygon fill="midnightblue" stroke="midnightblue" points="540.992,-33.7929 530.47,-35.0341 539.469,-40.6253 540.992,-33.7929"/>
</g>
<!-- Node40&#45;&gt;Node39 -->
<g id="edge52" class="edge"><title>Node40&#45;&gt;Node39</title>
<path fill="none" stroke="midnightblue" d="M351.874,-17.1283C364.615,-17.4636 377.702,-17.808 390.192,-18.1366"/>
<polygon fill="midnightblue" stroke="midnightblue" points="351.838,-13.6262 341.749,-16.8618 351.653,-20.6238 351.838,-13.6262"/>
</g>
</g>
</svg>
