<?xml version="1.0" encoding="UTF-8" standalone="no"?>
<!DOCTYPE svg PUBLIC "-//W3C//DTD SVG 1.1//EN"
 "http://www.w3.org/Graphics/SVG/1.1/DTD/svg11.dtd">
<!-- Generated by graphviz version 2.36.0 (20140111.2315)
 -->
<!-- Title: slogo.UI.ToroidalHelper.checkEndBounds Pages: 1 -->
<svg width="3320pt" height="427pt"
 viewBox="0.00 0.00 3320.00 427.00" xmlns="http://www.w3.org/2000/svg" xmlns:xlink="http://www.w3.org/1999/xlink">
<g id="graph0" class="graph" transform="scale(1 1) rotate(0) translate(4 423)">
<title>slogo.UI.ToroidalHelper.checkEndBounds</title>
<polygon fill="white" stroke="none" points="-4,4 -4,-423 3316,-423 3316,4 -4,4"/>
<!-- Node1 -->
<g id="node1" class="node"><title>Node1</title>
<polygon fill="#bfbfbf" stroke="black" points="0.5,-73 0.5,-103 155.5,-103 155.5,-73 0.5,-73"/>
<text text-anchor="start" x="8.5" y="-91" font-family="Helvetica,sans-Serif" font-size="10.00">slogo.UI.ToroidalHelper.check</text>
<text text-anchor="middle" x="78" y="-80" font-family="Helvetica,sans-Serif" font-size="10.00">EndBounds</text>
</g>
<!-- Node2 -->
<g id="node2" class="node"><title>Node2</title>
<g id="a_node2"><a xlink:href="../../d0/d32/classslogo_1_1_u_i_1_1_toroidal_helper.html#adaa10c52a1bea944e7469a8a258891b1" target="_top" xlink:title="slogo.UI.ToroidalHelper.check\lAllBounds">
<polygon fill="white" stroke="black" points="192.5,-98 192.5,-128 347.5,-128 347.5,-98 192.5,-98"/>
<text text-anchor="start" x="200.5" y="-116" font-family="Helvetica,sans-Serif" font-size="10.00">slogo.UI.ToroidalHelper.check</text>
<text text-anchor="middle" x="270" y="-105" font-family="Helvetica,sans-Serif" font-size="10.00">AllBounds</text>
</a>
</g>
</g>
<!-- Node1&#45;&gt;Node2 -->
<g id="edge1" class="edge"><title>Node1&#45;&gt;Node2</title>
<path fill="none" stroke="midnightblue" d="M165.692,-99.4069C174.565,-100.574 183.535,-101.755 192.29,-102.907"/>
<polygon fill="midnightblue" stroke="midnightblue" points="166.104,-95.9309 155.733,-98.0964 165.191,-102.871 166.104,-95.9309"/>
</g>
<!-- Node3 -->
<g id="node3" class="node"><title>Node3</title>
<g id="a_node3"><a xlink:href="../../d0/d32/classslogo_1_1_u_i_1_1_toroidal_helper.html#a3310ad36e6dae43f4741e3a67ebd0144" target="_top" xlink:title="slogo.UI.ToroidalHelper.make\lLinesToroidal">
<polygon fill="white" stroke="black" points="192.5,-49 192.5,-79 347.5,-79 347.5,-49 192.5,-49"/>
<text text-anchor="start" x="200.5" y="-67" font-family="Helvetica,sans-Serif" font-size="10.00">slogo.UI.ToroidalHelper.make</text>
<text text-anchor="middle" x="270" y="-56" font-family="Helvetica,sans-Serif" font-size="10.00">LinesToroidal</text>
</a>
</g>
</g>
<!-- Node1&#45;&gt;Node3 -->
<g id="edge2" class="edge"><title>Node1&#45;&gt;Node3</title>
<path fill="none" stroke="midnightblue" d="M165.692,-77.0494C174.565,-75.9286 183.535,-74.7956 192.29,-73.6897"/>
<polygon fill="midnightblue" stroke="midnightblue" points="165.215,-73.5818 155.733,-78.3075 166.092,-80.5266 165.215,-73.5818"/>
</g>
<!-- Node4 -->
<g id="node4" class="node"><title>Node4</title>
<g id="a_node4"><a xlink:href="../../d9/d7e/classslogo_1_1_u_i_1_1_method_runner.html#ae05c629b80fe3379d77aea026b58b1ae" target="_top" xlink:title="slogo.UI.MethodRunner.draw\lLinesUsingToroidal">
<polygon fill="white" stroke="black" points="384,-49 384,-79 536,-79 536,-49 384,-49"/>
<text text-anchor="start" x="392" y="-67" font-family="Helvetica,sans-Serif" font-size="10.00">slogo.UI.MethodRunner.draw</text>
<text text-anchor="middle" x="460" y="-56" font-family="Helvetica,sans-Serif" font-size="10.00">LinesUsingToroidal</text>
</a>
</g>
</g>
<!-- Node3&#45;&gt;Node4 -->
<g id="edge3" class="edge"><title>Node3&#45;&gt;Node4</title>
<path fill="none" stroke="midnightblue" d="M357.834,-64C366.481,-64 375.209,-64 383.724,-64"/>
<polygon fill="midnightblue" stroke="midnightblue" points="357.738,-60.5001 347.738,-64 357.738,-67.5001 357.738,-60.5001"/>
</g>
<!-- Node5 -->
<g id="node5" class="node"><title>Node5</title>
<g id="a_node5"><a xlink:href="../../d9/d7e/classslogo_1_1_u_i_1_1_method_runner.html#a1ab80948935d4a625cf3313eabe9a51d" target="_top" xlink:title="slogo.UI.MethodRunner.move\lTurtle">
<polygon fill="white" stroke="black" points="572,-49 572,-79 728,-79 728,-49 572,-49"/>
<text text-anchor="start" x="580" y="-67" font-family="Helvetica,sans-Serif" font-size="10.00">slogo.UI.MethodRunner.move</text>
<text text-anchor="middle" x="650" y="-56" font-family="Helvetica,sans-Serif" font-size="10.00">Turtle</text>
</a>
</g>
</g>
<!-- Node4&#45;&gt;Node5 -->
<g id="edge4" class="edge"><title>Node4&#45;&gt;Node5</title>
<path fill="none" stroke="midnightblue" d="M546.117,-64C554.693,-64 563.369,-64 571.855,-64"/>
<polygon fill="midnightblue" stroke="midnightblue" points="546.113,-60.5001 536.113,-64 546.113,-67.5001 546.113,-60.5001"/>
</g>
<!-- Node6 -->
<g id="node6" class="node"><title>Node6</title>
<g id="a_node6"><a xlink:href="../../d9/d7e/classslogo_1_1_u_i_1_1_method_runner.html#a5fe4a6310ba1b0851d7d30a440511324" target="_top" xlink:title="slogo.UI.MethodRunner.change\lTurtle">
<polygon fill="white" stroke="black" points="764,-49 764,-79 928,-79 928,-49 764,-49"/>
<text text-anchor="start" x="772" y="-67" font-family="Helvetica,sans-Serif" font-size="10.00">slogo.UI.MethodRunner.change</text>
<text text-anchor="middle" x="846" y="-56" font-family="Helvetica,sans-Serif" font-size="10.00">Turtle</text>
</a>
</g>
</g>
<!-- Node5&#45;&gt;Node6 -->
<g id="edge5" class="edge"><title>Node5&#45;&gt;Node6</title>
<path fill="none" stroke="midnightblue" d="M738.486,-64C746.947,-64 755.505,-64 763.9,-64"/>
<polygon fill="midnightblue" stroke="midnightblue" points="738.231,-60.5001 728.231,-64 738.231,-67.5001 738.231,-60.5001"/>
</g>
<!-- Node7 -->
<g id="node7" class="node"><title>Node7</title>
<g id="a_node7"><a xlink:href="../../df/d2d/classslogo_1_1_view.html#accc79c56511a72090ff8a4d414b8d1f5" target="_top" xlink:title="slogo.View.executeTurtle\lCommands">
<polygon fill="white" stroke="black" points="964.5,-49 964.5,-79 1097.5,-79 1097.5,-49 964.5,-49"/>
<text text-anchor="start" x="972.5" y="-67" font-family="Helvetica,sans-Serif" font-size="10.00">slogo.View.executeTurtle</text>
<text text-anchor="middle" x="1031" y="-56" font-family="Helvetica,sans-Serif" font-size="10.00">Commands</text>
</a>
</g>
</g>
<!-- Node6&#45;&gt;Node7 -->
<g id="edge6" class="edge"><title>Node6&#45;&gt;Node7</title>
<path fill="none" stroke="midnightblue" d="M938.35,-64C947.128,-64 955.907,-64 964.365,-64"/>
<polygon fill="midnightblue" stroke="midnightblue" points="938.066,-60.5001 928.066,-64 938.066,-67.5001 938.066,-60.5001"/>
</g>
<!-- Node8 -->
<g id="node8" class="node"><title>Node8</title>
<g id="a_node8"><a xlink:href="../../df/d2d/classslogo_1_1_view.html#aa90e5d95d422b58b7f4b7f8a049defe1" target="_top" xlink:title="slogo.View.executeCommand">
<polygon fill="white" stroke="black" points="1134,-54.5 1134,-73.5 1292,-73.5 1292,-54.5 1134,-54.5"/>
<text text-anchor="middle" x="1213" y="-61.5" font-family="Helvetica,sans-Serif" font-size="10.00">slogo.View.executeCommand</text>
</a>
</g>
</g>
<!-- Node7&#45;&gt;Node8 -->
<g id="edge7" class="edge"><title>Node7&#45;&gt;Node8</title>
<path fill="none" stroke="midnightblue" d="M1107.78,-64C1116.42,-64 1125.24,-64 1133.9,-64"/>
<polygon fill="midnightblue" stroke="midnightblue" points="1107.75,-60.5001 1097.75,-64 1107.75,-67.5001 1107.75,-60.5001"/>
</g>
<!-- Node9 -->
<g id="node9" class="node"><title>Node9</title>
<g id="a_node9"><a xlink:href="../../df/d2d/classslogo_1_1_view.html#aee563f6a0b15ac6668e4dcbdad40c73c" target="_top" xlink:title="slogo.View.sendCommandTo\lBackend">
<polygon fill="white" stroke="black" points="1334,-213 1334,-243 1486,-243 1486,-213 1334,-213"/>
<text text-anchor="start" x="1342" y="-231" font-family="Helvetica,sans-Serif" font-size="10.00">slogo.View.sendCommandTo</text>
<text text-anchor="middle" x="1410" y="-220" font-family="Helvetica,sans-Serif" font-size="10.00">Backend</text>
</a>
</g>
</g>
<!-- Node8&#45;&gt;Node9 -->
<g id="edge8" class="edge"><title>Node8&#45;&gt;Node9</title>
<path fill="none" stroke="midnightblue" d="M1233.05,-80.0252C1270.77,-111.741 1354.43,-182.108 1391.15,-212.984"/>
<polygon fill="midnightblue" stroke="midnightblue" points="1235.23,-77.2841 1225.33,-73.5262 1230.73,-82.6414 1235.23,-77.2841"/>
</g>
<!-- Node29 -->
<g id="node29" class="node"><title>Node29</title>
<g id="a_node29"><a xlink:href="../../df/d2d/classslogo_1_1_view.html#a4c3084a198acf85804800d70eff9ee51" target="_top" xlink:title="slogo.View.stepIntoCommand">
<polygon fill="white" stroke="black" points="1331,-54.5 1331,-73.5 1489,-73.5 1489,-54.5 1331,-54.5"/>
<text text-anchor="middle" x="1410" y="-61.5" font-family="Helvetica,sans-Serif" font-size="10.00">slogo.View.stepIntoCommand</text>
</a>
</g>
</g>
<!-- Node8&#45;&gt;Node29 -->
<g id="edge36" class="edge"><title>Node8&#45;&gt;Node29</title>
<path fill="none" stroke="midnightblue" d="M1302.4,-64C1311.87,-64 1321.45,-64 1330.79,-64"/>
<polygon fill="midnightblue" stroke="midnightblue" points="1302.19,-60.5001 1292.19,-64 1302.19,-67.5001 1302.19,-60.5001"/>
</g>
<!-- Node33 -->
<g id="node33" class="node"><title>Node33</title>
<g id="a_node33"><a xlink:href="../../df/d2d/classslogo_1_1_view.html#ac8b7f574c679e744a430f1649dc55e68" target="_top" xlink:title="slogo.View.stepOverCommand">
<polygon fill="white" stroke="black" points="1328.5,-11.5 1328.5,-30.5 1491.5,-30.5 1491.5,-11.5 1328.5,-11.5"/>
<text text-anchor="middle" x="1410" y="-18.5" font-family="Helvetica,sans-Serif" font-size="10.00">slogo.View.stepOverCommand</text>
</a>
</g>
</g>
<!-- Node8&#45;&gt;Node33 -->
<g id="edge41" class="edge"><title>Node8&#45;&gt;Node33</title>
<path fill="none" stroke="midnightblue" d="M1267.06,-52.3005C1298.07,-45.462 1336.71,-36.9406 1365.84,-30.5164"/>
<polygon fill="midnightblue" stroke="midnightblue" points="1266.29,-48.8855 1257.28,-54.4569 1267.8,-55.7213 1266.29,-48.8855"/>
</g>
<!-- Node10 -->
<g id="node10" class="node"><title>Node10</title>
<g id="a_node10"><a xlink:href="../../db/d19/classslogo_1_1_u_i_1_1_module_creation_helper.html#a69e17abcc7cf9a6ed7261d8fb1d631fa" target="_top" xlink:title="slogo.UI.ModuleCreationHelper.activate\lIncreaseDecreaseButtons">
<polygon fill="white" stroke="black" points="1528.5,-389 1528.5,-419 1733.5,-419 1733.5,-389 1528.5,-389"/>
<text text-anchor="start" x="1536.5" y="-407" font-family="Helvetica,sans-Serif" font-size="10.00">slogo.UI.ModuleCreationHelper.activate</text>
<text text-anchor="middle" x="1631" y="-396" font-family="Helvetica,sans-Serif" font-size="10.00">IncreaseDecreaseButtons</text>
</a>
</g>
</g>
<!-- Node9&#45;&gt;Node10 -->
<g id="edge9" class="edge"><title>Node9&#45;&gt;Node10</title>
<path fill="none" stroke="midnightblue" d="M1424.04,-252.219C1442.78,-284.724 1480.36,-342.06 1528,-374 1537.12,-380.116 1547.51,-385.01 1558.09,-388.919"/>
<polygon fill="midnightblue" stroke="midnightblue" points="1427.01,-250.361 1419.05,-243.368 1420.91,-253.798 1427.01,-250.361"/>
</g>
<!-- Node17 -->
<g id="node17" class="node"><title>Node17</title>
<g id="a_node17"><a xlink:href="../../db/d19/classslogo_1_1_u_i_1_1_module_creation_helper.html#aa70b0ad9e90e62509149bfd2ef2ba209" target="_top" xlink:title="slogo.UI.ModuleCreationHelper.activate\lKeyEvents">
<polygon fill="white" stroke="black" points="2254.5,-136 2254.5,-166 2459.5,-166 2459.5,-136 2254.5,-136"/>
<text text-anchor="start" x="2262.5" y="-154" font-family="Helvetica,sans-Serif" font-size="10.00">slogo.UI.ModuleCreationHelper.activate</text>
<text text-anchor="middle" x="2357" y="-143" font-family="Helvetica,sans-Serif" font-size="10.00">KeyEvents</text>
</a>
</g>
</g>
<!-- Node9&#45;&gt;Node17 -->
<g id="edge17" class="edge"><title>Node9&#45;&gt;Node17</title>
<path fill="none" stroke="midnightblue" d="M1440.18,-207.164C1462.9,-192.251 1495.88,-173.388 1528,-165 1662.15,-129.97 2064.16,-139.777 2254.26,-146.744"/>
<polygon fill="midnightblue" stroke="midnightblue" points="1438.05,-204.378 1431.7,-212.86 1441.95,-210.189 1438.05,-204.378"/>
</g>
<!-- Node18 -->
<g id="node18" class="node"><title>Node18</title>
<g id="a_node18"><a xlink:href="../../db/d19/classslogo_1_1_u_i_1_1_module_creation_helper.html#a2e841243ec3ca474e8822102343acc88" target="_top" xlink:title="slogo.UI.ModuleCreationHelper.activate\lNewTurtleButton">
<polygon fill="white" stroke="black" points="1770.5,-344 1770.5,-374 1975.5,-374 1975.5,-344 1770.5,-344"/>
<text text-anchor="start" x="1778.5" y="-362" font-family="Helvetica,sans-Serif" font-size="10.00">slogo.UI.ModuleCreationHelper.activate</text>
<text text-anchor="middle" x="1873" y="-351" font-family="Helvetica,sans-Serif" font-size="10.00">NewTurtleButton</text>
</a>
</g>
</g>
<!-- Node9&#45;&gt;Node18 -->
<g id="edge19" class="edge"><title>Node9&#45;&gt;Node18</title>
<path fill="none" stroke="midnightblue" d="M1427.02,-251.155C1447.1,-278.009 1484.24,-321.013 1528,-340 1604.41,-373.152 1699.47,-375.86 1770.29,-371.435"/>
<polygon fill="midnightblue" stroke="midnightblue" points="1429.83,-249.073 1421.11,-243.055 1424.18,-253.197 1429.83,-249.073"/>
</g>
<!-- Node20 -->
<g id="node20" class="node"><title>Node20</title>
<g id="a_node20"><a xlink:href="../../db/d19/classslogo_1_1_u_i_1_1_module_creation_helper.html#a9b1f07ab673191067907a059b1b0c524" target="_top" xlink:title="slogo.UI.ModuleCreationHelper.activate\lPlayButton">
<polygon fill="white" stroke="black" points="1528.5,-301 1528.5,-331 1733.5,-331 1733.5,-301 1528.5,-301"/>
<text text-anchor="start" x="1536.5" y="-319" font-family="Helvetica,sans-Serif" font-size="10.00">slogo.UI.ModuleCreationHelper.activate</text>
<text text-anchor="middle" x="1631" y="-308" font-family="Helvetica,sans-Serif" font-size="10.00">PlayButton</text>
</a>
</g>
</g>
<!-- Node9&#45;&gt;Node20 -->
<g id="edge22" class="edge"><title>Node9&#45;&gt;Node20</title>
<path fill="none" stroke="midnightblue" d="M1443.42,-248.354C1466.33,-262.006 1498.16,-279.522 1528,-291 1537.7,-294.73 1548.14,-298.039 1558.5,-300.929"/>
<polygon fill="midnightblue" stroke="midnightblue" points="1445.16,-245.317 1434.79,-243.145 1441.54,-251.31 1445.16,-245.317"/>
</g>
<!-- Node23 -->
<g id="node23" class="node"><title>Node23</title>
<g id="a_node23"><a xlink:href="../../db/d19/classslogo_1_1_u_i_1_1_module_creation_helper.html#a3a38d485562cb17591ec3fd07cffc18a" target="_top" xlink:title="slogo.UI.ModuleCreationHelper.activate\lTurtleCanvas">
<polygon fill="white" stroke="black" points="2012.5,-87 2012.5,-117 2217.5,-117 2217.5,-87 2012.5,-87"/>
<text text-anchor="start" x="2020.5" y="-105" font-family="Helvetica,sans-Serif" font-size="10.00">slogo.UI.ModuleCreationHelper.activate</text>
<text text-anchor="middle" x="2115" y="-94" font-family="Helvetica,sans-Serif" font-size="10.00">TurtleCanvas</text>
</a>
</g>
</g>
<!-- Node9&#45;&gt;Node23 -->
<g id="edge26" class="edge"><title>Node9&#45;&gt;Node23</title>
<path fill="none" stroke="midnightblue" d="M1430.37,-205.232C1451.63,-182.064 1488.1,-147.434 1528,-132 1613.51,-98.92 1868.48,-97.5272 2012.33,-99.6157"/>
<polygon fill="midnightblue" stroke="midnightblue" points="1427.56,-203.115 1423.5,-212.898 1432.78,-207.786 1427.56,-203.115"/>
</g>
<!-- Node25 -->
<g id="node25" class="node"><title>Node25</title>
<g id="a_node25"><a xlink:href="../../d1/d5f/classslogo_1_1_u_i_1_1_path_color_selector.html#ad3d9c82a0904c97edcec7cf67b85bd7b" target="_top" xlink:title="slogo.UI.PathColorSelector.create">
<polygon fill="white" stroke="black" points="1543,-262.5 1543,-281.5 1719,-281.5 1719,-262.5 1543,-262.5"/>
<text text-anchor="middle" x="1631" y="-269.5" font-family="Helvetica,sans-Serif" font-size="10.00">slogo.UI.PathColorSelector.create</text>
</a>
</g>
</g>
<!-- Node9&#45;&gt;Node25 -->
<g id="edge29" class="edge"><title>Node9&#45;&gt;Node25</title>
<path fill="none" stroke="midnightblue" d="M1493.74,-245.065C1505.24,-247.411 1516.91,-249.776 1528,-252 1545.25,-255.46 1564.16,-259.186 1580.95,-262.473"/>
<polygon fill="midnightblue" stroke="midnightblue" points="1494.19,-241.585 1483.69,-243.013 1492.79,-248.443 1494.19,-241.585"/>
</g>
<!-- Node27 -->
<g id="node27" class="node"><title>Node27</title>
<g id="a_node27"><a xlink:href="../../d4/d8d/classslogo_1_1_u_i_1_1_background_color_selector.html#ad75ba4ce104e071811d0fe039a4e839f" target="_top" xlink:title="slogo.UI.BackgroundColor\lSelector.create">
<polygon fill="white" stroke="black" points="1561,-213 1561,-243 1701,-243 1701,-213 1561,-213"/>
<text text-anchor="start" x="1569" y="-231" font-family="Helvetica,sans-Serif" font-size="10.00">slogo.UI.BackgroundColor</text>
<text text-anchor="middle" x="1631" y="-220" font-family="Helvetica,sans-Serif" font-size="10.00">Selector.create</text>
</a>
</g>
</g>
<!-- Node9&#45;&gt;Node27 -->
<g id="edge32" class="edge"><title>Node9&#45;&gt;Node27</title>
<path fill="none" stroke="midnightblue" d="M1496.14,-228C1517.6,-228 1540.37,-228 1560.93,-228"/>
<polygon fill="midnightblue" stroke="midnightblue" points="1496.06,-224.5 1486.06,-228 1496.06,-231.5 1496.06,-224.5"/>
</g>
<!-- Node28 -->
<g id="node28" class="node"><title>Node28</title>
<g id="a_node28"><a xlink:href="../../dd/da7/classslogo_1_1_u_i_1_1_turtle_image_selector.html#a3f268d9196ffebcbb5dc322d2897a9fe" target="_top" xlink:title="slogo.UI.TurtleImageSelector.create">
<polygon fill="white" stroke="black" points="1538,-174.5 1538,-193.5 1724,-193.5 1724,-174.5 1538,-174.5"/>
<text text-anchor="middle" x="1631" y="-181.5" font-family="Helvetica,sans-Serif" font-size="10.00">slogo.UI.TurtleImageSelector.create</text>
</a>
</g>
</g>
<!-- Node9&#45;&gt;Node28 -->
<g id="edge34" class="edge"><title>Node9&#45;&gt;Node28</title>
<path fill="none" stroke="midnightblue" d="M1490.01,-210.821C1502.7,-208.147 1515.71,-205.458 1528,-203 1543.99,-199.804 1561.42,-196.493 1577.27,-193.548"/>
<polygon fill="midnightblue" stroke="midnightblue" points="1488.98,-207.463 1479.92,-212.958 1490.43,-214.311 1488.98,-207.463"/>
</g>
<!-- Node11 -->
<g id="node11" class="node"><title>Node11</title>
<g id="a_node11"><a xlink:href="../../db/d19/classslogo_1_1_u_i_1_1_module_creation_helper.html#adce7362386f9a7b3006e7db08a2d578d" target="_top" xlink:title="slogo.UI.ModuleCreationHelper.create\lIncreaseDecreaseButtons">
<polygon fill="white" stroke="black" points="2016.5,-380 2016.5,-410 2213.5,-410 2213.5,-380 2016.5,-380"/>
<text text-anchor="start" x="2024.5" y="-398" font-family="Helvetica,sans-Serif" font-size="10.00">slogo.UI.ModuleCreationHelper.create</text>
<text text-anchor="middle" x="2115" y="-387" font-family="Helvetica,sans-Serif" font-size="10.00">IncreaseDecreaseButtons</text>
</a>
</g>
</g>
<!-- Node10&#45;&gt;Node11 -->
<g id="edge10" class="edge"><title>Node10&#45;&gt;Node11</title>
<path fill="none" stroke="midnightblue" d="M1743.79,-401.913C1826.23,-400.373 1937.29,-398.299 2016.21,-396.826"/>
<polygon fill="midnightblue" stroke="midnightblue" points="1743.56,-398.416 1733.63,-402.102 1743.69,-405.415 1743.56,-398.416"/>
</g>
<!-- Node12 -->
<g id="node12" class="node"><title>Node12</title>
<g id="a_node12"><a xlink:href="../../db/d19/classslogo_1_1_u_i_1_1_module_creation_helper.html#a7c650957b2389d6e6d36e8be8a33cd2b" target="_top" xlink:title="slogo.UI.ModuleCreationHelper.create\lSelectorVBoxModules">
<polygon fill="white" stroke="black" points="2258.5,-253 2258.5,-283 2455.5,-283 2455.5,-253 2258.5,-253"/>
<text text-anchor="start" x="2266.5" y="-271" font-family="Helvetica,sans-Serif" font-size="10.00">slogo.UI.ModuleCreationHelper.create</text>
<text text-anchor="middle" x="2357" y="-260" font-family="Helvetica,sans-Serif" font-size="10.00">SelectorVBoxModules</text>
</a>
</g>
</g>
<!-- Node11&#45;&gt;Node12 -->
<g id="edge11" class="edge"><title>Node11&#45;&gt;Node12</title>
<path fill="none" stroke="midnightblue" d="M2199,-376.732C2205.54,-374.424 2211.95,-371.854 2218,-369 2266.6,-346.077 2315.46,-305.079 2339.92,-283.025"/>
<polygon fill="midnightblue" stroke="midnightblue" points="2197.75,-373.461 2189.36,-379.93 2199.95,-380.105 2197.75,-373.461"/>
</g>
<!-- Node13 -->
<g id="node13" class="node"><title>Node13</title>
<g id="a_node13"><a xlink:href="../../db/d19/classslogo_1_1_u_i_1_1_module_creation_helper.html#afb9dbbbad7d872234a5b296fe129a34e" target="_top" xlink:title="slogo.UI.ModuleCreationHelper.create\lMainPageModules">
<polygon fill="white" stroke="black" points="2496.5,-136 2496.5,-166 2693.5,-166 2693.5,-136 2496.5,-136"/>
<text text-anchor="start" x="2504.5" y="-154" font-family="Helvetica,sans-Serif" font-size="10.00">slogo.UI.ModuleCreationHelper.create</text>
<text text-anchor="middle" x="2595" y="-143" font-family="Helvetica,sans-Serif" font-size="10.00">MainPageModules</text>
</a>
</g>
</g>
<!-- Node12&#45;&gt;Node13 -->
<g id="edge12" class="edge"><title>Node12&#45;&gt;Node13</title>
<path fill="none" stroke="midnightblue" d="M2397.58,-248.38C2444.29,-225.222 2520.96,-187.212 2563.37,-166.184"/>
<polygon fill="midnightblue" stroke="midnightblue" points="2395.77,-245.366 2388.37,-252.944 2398.88,-251.638 2395.77,-245.366"/>
</g>
<!-- Node14 -->
<g id="node14" class="node"><title>Node14</title>
<g id="a_node14"><a xlink:href="../../d9/d33/classslogo_1_1_u_i_1_1_main.html#a15b7f2e399ee24d160550993ab737e73" target="_top" xlink:title="slogo.UI.Main.start">
<polygon fill="white" stroke="black" points="2730,-150.5 2730,-169.5 2836,-169.5 2836,-150.5 2730,-150.5"/>
<text text-anchor="middle" x="2783" y="-157.5" font-family="Helvetica,sans-Serif" font-size="10.00">slogo.UI.Main.start</text>
</a>
</g>
</g>
<!-- Node13&#45;&gt;Node14 -->
<g id="edge13" class="edge"><title>Node13&#45;&gt;Node14</title>
<path fill="none" stroke="midnightblue" d="M2703.8,-156.216C2712.76,-156.65 2721.53,-157.074 2729.76,-157.472"/>
<polygon fill="midnightblue" stroke="midnightblue" points="2703.79,-152.712 2693.63,-155.724 2703.45,-159.703 2703.79,-152.712"/>
</g>
<!-- Node15 -->
<g id="node15" class="node"><title>Node15</title>
<g id="a_node15"><a xlink:href="../../db/d19/classslogo_1_1_u_i_1_1_module_creation_helper.html#a3be12a7cc2b8a219db1e296211a2cb88" target="_top" xlink:title="slogo.UI.ModuleCreationHelper.activate\lExtraWorkspaceButton">
<polygon fill="white" stroke="black" points="2872.5,-163 2872.5,-193 3077.5,-193 3077.5,-163 2872.5,-163"/>
<text text-anchor="start" x="2880.5" y="-181" font-family="Helvetica,sans-Serif" font-size="10.00">slogo.UI.ModuleCreationHelper.activate</text>
<text text-anchor="middle" x="2975" y="-170" font-family="Helvetica,sans-Serif" font-size="10.00">ExtraWorkspaceButton</text>
</a>
</g>
</g>
<!-- Node14&#45;&gt;Node15 -->
<g id="edge14" class="edge"><title>Node14&#45;&gt;Node15</title>
<path fill="none" stroke="midnightblue" d="M2846.22,-165.894C2854.63,-166.691 2863.44,-167.526 2872.32,-168.367"/>
<polygon fill="midnightblue" stroke="midnightblue" points="2846.46,-162.401 2836.17,-164.942 2845.79,-169.37 2846.46,-162.401"/>
</g>
<!-- Node16 -->
<g id="node16" class="node"><title>Node16</title>
<g id="a_node16"><a xlink:href="../../db/d19/classslogo_1_1_u_i_1_1_module_creation_helper.html#a702c1ebe24d2857a10c666eb1fcc315d" target="_top" xlink:title="slogo.UI.ModuleCreationHelper.create\lExtraWorkspaceButton">
<polygon fill="white" stroke="black" points="3114.5,-189 3114.5,-219 3311.5,-219 3311.5,-189 3114.5,-189"/>
<text text-anchor="start" x="3122.5" y="-207" font-family="Helvetica,sans-Serif" font-size="10.00">slogo.UI.ModuleCreationHelper.create</text>
<text text-anchor="middle" x="3213" y="-196" font-family="Helvetica,sans-Serif" font-size="10.00">ExtraWorkspaceButton</text>
</a>
</g>
</g>
<!-- Node15&#45;&gt;Node16 -->
<g id="edge15" class="edge"><title>Node15&#45;&gt;Node16</title>
<path fill="none" stroke="midnightblue" d="M3087.77,-190.313C3096.62,-191.289 3105.52,-192.27 3114.27,-193.234"/>
<polygon fill="midnightblue" stroke="midnightblue" points="3088.12,-186.831 3077.8,-189.215 3087.35,-193.789 3088.12,-186.831"/>
</g>
<!-- Node16&#45;&gt;Node12 -->
<g id="edge16" class="edge"><title>Node16&#45;&gt;Node12</title>
<path fill="none" stroke="midnightblue" d="M3104.34,-212.068C2936.9,-224.617 2616.6,-248.62 2455.55,-260.69"/>
<polygon fill="midnightblue" stroke="midnightblue" points="3104.7,-215.551 3114.41,-211.313 3104.18,-208.571 3104.7,-215.551"/>
</g>
<!-- Node17&#45;&gt;Node13 -->
<g id="edge18" class="edge"><title>Node17&#45;&gt;Node13</title>
<path fill="none" stroke="midnightblue" d="M2470.05,-151C2478.81,-151 2487.62,-151 2496.27,-151"/>
<polygon fill="midnightblue" stroke="midnightblue" points="2469.8,-147.5 2459.8,-151 2469.8,-154.5 2469.8,-147.5"/>
</g>
<!-- Node19 -->
<g id="node19" class="node"><title>Node19</title>
<g id="a_node19"><a xlink:href="../../db/d19/classslogo_1_1_u_i_1_1_module_creation_helper.html#a07f5483df317cdf80e8ea2dda5699afa" target="_top" xlink:title="slogo.UI.ModuleCreationHelper.create\lNewTurtleButton">
<polygon fill="white" stroke="black" points="2016.5,-330 2016.5,-360 2213.5,-360 2213.5,-330 2016.5,-330"/>
<text text-anchor="start" x="2024.5" y="-348" font-family="Helvetica,sans-Serif" font-size="10.00">slogo.UI.ModuleCreationHelper.create</text>
<text text-anchor="middle" x="2115" y="-337" font-family="Helvetica,sans-Serif" font-size="10.00">NewTurtleButton</text>
</a>
</g>
</g>
<!-- Node18&#45;&gt;Node19 -->
<g id="edge20" class="edge"><title>Node18&#45;&gt;Node19</title>
<path fill="none" stroke="midnightblue" d="M1985.89,-352.473C1996.04,-351.881 2006.26,-351.285 2016.27,-350.701"/>
<polygon fill="midnightblue" stroke="midnightblue" points="1985.56,-348.986 1975.78,-353.063 1985.97,-355.974 1985.56,-348.986"/>
</g>
<!-- Node19&#45;&gt;Node12 -->
<g id="edge21" class="edge"><title>Node19&#45;&gt;Node12</title>
<path fill="none" stroke="midnightblue" d="M2186.15,-327.309C2196.87,-324.354 2207.76,-321.203 2218,-318 2251.93,-307.387 2289.86,-293.493 2317.35,-283.046"/>
<polygon fill="midnightblue" stroke="midnightblue" points="2185.12,-323.962 2176.39,-329.963 2186.96,-330.717 2185.12,-323.962"/>
</g>
<!-- Node21 -->
<g id="node21" class="node"><title>Node21</title>
<g id="a_node21"><a xlink:href="../../db/d19/classslogo_1_1_u_i_1_1_module_creation_helper.html#a9b3fb38a55b3b7812b4f793afa7a974f" target="_top" xlink:title="slogo.UI.ModuleCreationHelper.create\lPlayButton">
<polygon fill="white" stroke="black" points="1774.5,-295 1774.5,-325 1971.5,-325 1971.5,-295 1774.5,-295"/>
<text text-anchor="start" x="1782.5" y="-313" font-family="Helvetica,sans-Serif" font-size="10.00">slogo.UI.ModuleCreationHelper.create</text>
<text text-anchor="middle" x="1873" y="-302" font-family="Helvetica,sans-Serif" font-size="10.00">PlayButton</text>
</a>
</g>
</g>
<!-- Node20&#45;&gt;Node21 -->
<g id="edge23" class="edge"><title>Node20&#45;&gt;Node21</title>
<path fill="none" stroke="midnightblue" d="M1743.89,-313.203C1754.04,-312.949 1764.26,-312.694 1774.27,-312.443"/>
<polygon fill="midnightblue" stroke="midnightblue" points="1743.69,-309.707 1733.78,-313.455 1743.87,-316.704 1743.69,-309.707"/>
</g>
<!-- Node22 -->
<g id="node22" class="node"><title>Node22</title>
<g id="a_node22"><a xlink:href="../../db/d19/classslogo_1_1_u_i_1_1_module_creation_helper.html#ae1e60d37509c2e5eddcb2a6e70b4f650" target="_top" xlink:title="slogo.UI.ModuleCreationHelper.create\lFirstRowButtons">
<polygon fill="white" stroke="black" points="2016.5,-279 2016.5,-309 2213.5,-309 2213.5,-279 2016.5,-279"/>
<text text-anchor="start" x="2024.5" y="-297" font-family="Helvetica,sans-Serif" font-size="10.00">slogo.UI.ModuleCreationHelper.create</text>
<text text-anchor="middle" x="2115" y="-286" font-family="Helvetica,sans-Serif" font-size="10.00">FirstRowButtons</text>
</a>
</g>
</g>
<!-- Node21&#45;&gt;Node22 -->
<g id="edge24" class="edge"><title>Node21&#45;&gt;Node22</title>
<path fill="none" stroke="midnightblue" d="M1981.73,-302.818C1993.3,-302.046 2005.03,-301.265 2016.47,-300.502"/>
<polygon fill="midnightblue" stroke="midnightblue" points="1981.36,-299.335 1971.62,-303.492 1981.83,-306.319 1981.36,-299.335"/>
</g>
<!-- Node22&#45;&gt;Node12 -->
<g id="edge25" class="edge"><title>Node22&#45;&gt;Node12</title>
<path fill="none" stroke="midnightblue" d="M2223.73,-282.329C2235.3,-281.075 2247.03,-279.805 2258.47,-278.566"/>
<polygon fill="midnightblue" stroke="midnightblue" points="2223.18,-278.868 2213.62,-283.425 2223.94,-285.827 2223.18,-278.868"/>
</g>
<!-- Node24 -->
<g id="node24" class="node"><title>Node24</title>
<g id="a_node24"><a xlink:href="../../db/d19/classslogo_1_1_u_i_1_1_module_creation_helper.html#a803bac6b55bde712b21f2face1eeef81" target="_top" xlink:title="slogo.UI.ModuleCreationHelper.create\lTurtleCanvas">
<polygon fill="white" stroke="black" points="2258.5,-87 2258.5,-117 2455.5,-117 2455.5,-87 2258.5,-87"/>
<text text-anchor="start" x="2266.5" y="-105" font-family="Helvetica,sans-Serif" font-size="10.00">slogo.UI.ModuleCreationHelper.create</text>
<text text-anchor="middle" x="2357" y="-94" font-family="Helvetica,sans-Serif" font-size="10.00">TurtleCanvas</text>
</a>
</g>
</g>
<!-- Node23&#45;&gt;Node24 -->
<g id="edge27" class="edge"><title>Node23&#45;&gt;Node24</title>
<path fill="none" stroke="midnightblue" d="M2227.89,-102C2238.04,-102 2248.26,-102 2258.27,-102"/>
<polygon fill="midnightblue" stroke="midnightblue" points="2227.78,-98.5001 2217.78,-102 2227.78,-105.5 2227.78,-98.5001"/>
</g>
<!-- Node24&#45;&gt;Node13 -->
<g id="edge28" class="edge"><title>Node24&#45;&gt;Node13</title>
<path fill="none" stroke="midnightblue" d="M2440.42,-119.113C2466.9,-124.611 2496.03,-130.658 2521.73,-135.994"/>
<polygon fill="midnightblue" stroke="midnightblue" points="2440.91,-115.641 2430.41,-117.035 2439.49,-122.495 2440.91,-115.641"/>
</g>
<!-- Node26 -->
<g id="node26" class="node"><title>Node26</title>
<g id="a_node26"><a xlink:href="../../db/d19/classslogo_1_1_u_i_1_1_module_creation_helper.html#af7f2919454fdbf6e9d7d912e99634857" target="_top" xlink:title="slogo.UI.ModuleCreationHelper.create\lSelectors">
<polygon fill="white" stroke="black" points="1774.5,-230 1774.5,-260 1971.5,-260 1971.5,-230 1774.5,-230"/>
<text text-anchor="start" x="1782.5" y="-248" font-family="Helvetica,sans-Serif" font-size="10.00">slogo.UI.ModuleCreationHelper.create</text>
<text text-anchor="middle" x="1873" y="-237" font-family="Helvetica,sans-Serif" font-size="10.00">Selectors</text>
</a>
</g>
</g>
<!-- Node25&#45;&gt;Node26 -->
<g id="edge30" class="edge"><title>Node25&#45;&gt;Node26</title>
<path fill="none" stroke="midnightblue" d="M1726.76,-261.339C1742.36,-259.585 1758.54,-257.764 1774.21,-256.002"/>
<polygon fill="midnightblue" stroke="midnightblue" points="1726.16,-257.885 1716.62,-262.481 1726.94,-264.841 1726.16,-257.885"/>
</g>
<!-- Node26&#45;&gt;Node12 -->
<g id="edge31" class="edge"><title>Node26&#45;&gt;Node12</title>
<path fill="none" stroke="midnightblue" d="M1981.74,-250.141C2064.55,-254.092 2177.97,-259.505 2258.19,-263.333"/>
<polygon fill="midnightblue" stroke="midnightblue" points="1981.7,-246.635 1971.54,-249.654 1981.36,-253.627 1981.7,-246.635"/>
</g>
<!-- Node27&#45;&gt;Node26 -->
<g id="edge33" class="edge"><title>Node27&#45;&gt;Node26</title>
<path fill="none" stroke="midnightblue" d="M1711.18,-233.609C1731.4,-235.041 1753.37,-236.597 1774.39,-238.086"/>
<polygon fill="midnightblue" stroke="midnightblue" points="1711.32,-230.11 1701.1,-232.894 1710.82,-237.092 1711.32,-230.11"/>
</g>
<!-- Node28&#45;&gt;Node26 -->
<g id="edge35" class="edge"><title>Node28&#45;&gt;Node26</title>
<path fill="none" stroke="midnightblue" d="M1699.48,-195.473C1711.04,-197.752 1722.9,-200.287 1734,-203 1765.38,-210.673 1800.18,-221.278 1826.98,-229.911"/>
<polygon fill="midnightblue" stroke="midnightblue" points="1699.9,-191.99 1689.42,-193.539 1698.58,-198.864 1699.9,-191.99"/>
</g>
<!-- Node30 -->
<g id="node30" class="node"><title>Node30</title>
<g id="a_node30"><a xlink:href="../../db/d19/classslogo_1_1_u_i_1_1_module_creation_helper.html#a9fd730f7c1860d34bf4ac46c3828bd59" target="_top" xlink:title="slogo.UI.ModuleCreationHelper.activate\lStepIntoButton">
<polygon fill="white" stroke="black" points="1528.5,-49 1528.5,-79 1733.5,-79 1733.5,-49 1528.5,-49"/>
<text text-anchor="start" x="1536.5" y="-67" font-family="Helvetica,sans-Serif" font-size="10.00">slogo.UI.ModuleCreationHelper.activate</text>
<text text-anchor="middle" x="1631" y="-56" font-family="Helvetica,sans-Serif" font-size="10.00">StepIntoButton</text>
</a>
</g>
</g>
<!-- Node29&#45;&gt;Node30 -->
<g id="edge37" class="edge"><title>Node29&#45;&gt;Node30</title>
<path fill="none" stroke="midnightblue" d="M1499.33,-64C1508.82,-64 1518.54,-64 1528.17,-64"/>
<polygon fill="midnightblue" stroke="midnightblue" points="1499.14,-60.5001 1489.14,-64 1499.14,-67.5001 1499.14,-60.5001"/>
</g>
<!-- Node31 -->
<g id="node31" class="node"><title>Node31</title>
<g id="a_node31"><a xlink:href="../../db/d19/classslogo_1_1_u_i_1_1_module_creation_helper.html#a4a6f1f009507c25be8c7c28cbba35f3b" target="_top" xlink:title="slogo.UI.ModuleCreationHelper.create\lDebugStepIntoButton">
<polygon fill="white" stroke="black" points="1774.5,-49 1774.5,-79 1971.5,-79 1971.5,-49 1774.5,-49"/>
<text text-anchor="start" x="1782.5" y="-67" font-family="Helvetica,sans-Serif" font-size="10.00">slogo.UI.ModuleCreationHelper.create</text>
<text text-anchor="middle" x="1873" y="-56" font-family="Helvetica,sans-Serif" font-size="10.00">DebugStepIntoButton</text>
</a>
</g>
</g>
<!-- Node30&#45;&gt;Node31 -->
<g id="edge38" class="edge"><title>Node30&#45;&gt;Node31</title>
<path fill="none" stroke="midnightblue" d="M1743.89,-64C1754.04,-64 1764.26,-64 1774.27,-64"/>
<polygon fill="midnightblue" stroke="midnightblue" points="1743.78,-60.5001 1733.78,-64 1743.78,-67.5001 1743.78,-60.5001"/>
</g>
<!-- Node32 -->
<g id="node32" class="node"><title>Node32</title>
<g id="a_node32"><a xlink:href="../../db/d19/classslogo_1_1_u_i_1_1_module_creation_helper.html#a975af4ea47dc85df72215bdf1a0d20ce" target="_top" xlink:title="slogo.UI.ModuleCreationHelper.create\lDebugModules">
<polygon fill="white" stroke="black" points="2016.5,-38 2016.5,-68 2213.5,-68 2213.5,-38 2016.5,-38"/>
<text text-anchor="start" x="2024.5" y="-56" font-family="Helvetica,sans-Serif" font-size="10.00">slogo.UI.ModuleCreationHelper.create</text>
<text text-anchor="middle" x="2115" y="-45" font-family="Helvetica,sans-Serif" font-size="10.00">DebugModules</text>
</a>
</g>
</g>
<!-- Node31&#45;&gt;Node32 -->
<g id="edge39" class="edge"><title>Node31&#45;&gt;Node32</title>
<path fill="none" stroke="midnightblue" d="M1981.73,-59.0622C1993.3,-58.5319 2005.03,-57.9945 2016.47,-57.4702"/>
<polygon fill="midnightblue" stroke="midnightblue" points="1981.45,-55.5716 1971.62,-59.5259 1981.77,-62.5643 1981.45,-55.5716"/>
</g>
<!-- Node32&#45;&gt;Node13 -->
<g id="edge40" class="edge"><title>Node32&#45;&gt;Node13</title>
<path fill="none" stroke="midnightblue" d="M2223.63,-48.679C2292.53,-48.779 2383.11,-54.2973 2460,-77 2503.33,-89.7936 2548.2,-118.228 2573.46,-135.889"/>
<polygon fill="midnightblue" stroke="midnightblue" points="2223.61,-45.1789 2213.62,-48.7021 2223.63,-52.1789 2223.61,-45.1789"/>
</g>
<!-- Node34 -->
<g id="node34" class="node"><title>Node34</title>
<g id="a_node34"><a xlink:href="../../db/d19/classslogo_1_1_u_i_1_1_module_creation_helper.html#a0fed0bb32bf2643d6fd5c24d82e8e18e" target="_top" xlink:title="slogo.UI.ModuleCreationHelper.activate\lStepOverButton">
<polygon fill="white" stroke="black" points="1528.5,-0 1528.5,-30 1733.5,-30 1733.5,-0 1528.5,-0"/>
<text text-anchor="start" x="1536.5" y="-18" font-family="Helvetica,sans-Serif" font-size="10.00">slogo.UI.ModuleCreationHelper.activate</text>
<text text-anchor="middle" x="1631" y="-7" font-family="Helvetica,sans-Serif" font-size="10.00">StepOverButton</text>
</a>
</g>
</g>
<!-- Node33&#45;&gt;Node34 -->
<g id="edge42" class="edge"><title>Node33&#45;&gt;Node34</title>
<path fill="none" stroke="midnightblue" d="M1501.8,-18.5123C1510.56,-18.2724 1519.48,-18.028 1528.33,-17.7856"/>
<polygon fill="midnightblue" stroke="midnightblue" points="1501.51,-15.0187 1491.61,-18.7914 1501.71,-22.0161 1501.51,-15.0187"/>
</g>
<!-- Node35 -->
<g id="node35" class="node"><title>Node35</title>
<g id="a_node35"><a xlink:href="../../db/d19/classslogo_1_1_u_i_1_1_module_creation_helper.html#aa1e7dc2b509360583790fba0d3819c8d" target="_top" xlink:title="slogo.UI.ModuleCreationHelper.create\lDebugStepOverButton">
<polygon fill="white" stroke="black" points="1774.5,-0 1774.5,-30 1971.5,-30 1971.5,-0 1774.5,-0"/>
<text text-anchor="start" x="1782.5" y="-18" font-family="Helvetica,sans-Serif" font-size="10.00">slogo.UI.ModuleCreationHelper.create</text>
<text text-anchor="middle" x="1873" y="-7" font-family="Helvetica,sans-Serif" font-size="10.00">DebugStepOverButton</text>
</a>
</g>
</g>
<!-- Node34&#45;&gt;Node35 -->
<g id="edge43" class="edge"><title>Node34&#45;&gt;Node35</title>
<path fill="none" stroke="midnightblue" d="M1743.89,-15C1754.04,-15 1764.26,-15 1774.27,-15"/>
<polygon fill="midnightblue" stroke="midnightblue" points="1743.78,-11.5001 1733.78,-15 1743.78,-18.5001 1743.78,-11.5001"/>
</g>
<!-- Node35&#45;&gt;Node32 -->
<g id="edge44" class="edge"><title>Node35&#45;&gt;Node32</title>
<path fill="none" stroke="midnightblue" d="M1978.99,-31.6227C1992.31,-33.7329 2005.89,-35.8827 2019.05,-37.966"/>
<polygon fill="midnightblue" stroke="midnightblue" points="1979.28,-28.1256 1968.85,-30.0186 1978.18,-35.0395 1979.28,-28.1256"/>
</g>
</g>
</svg>
