<?xml version="1.0" encoding="UTF-8" standalone="no"?>
<!DOCTYPE svg PUBLIC "-//W3C//DTD SVG 1.1//EN"
 "http://www.w3.org/Graphics/SVG/1.1/DTD/svg11.dtd">
<!-- Generated by graphviz version 2.36.0 (20140111.2315)
 -->
<!-- Title: slogo.backend.impl.parsing.Parser Pages: 1 -->
<svg width="438pt" height="126pt"
 viewBox="0.00 0.00 438.00 126.00" xmlns="http://www.w3.org/2000/svg" xmlns:xlink="http://www.w3.org/1999/xlink">
<g id="graph0" class="graph" transform="scale(1 1) rotate(0) translate(4 122)">
<title>slogo.backend.impl.parsing.Parser</title>
<polygon fill="white" stroke="none" points="-4,4 -4,-122 434,-122 434,4 -4,4"/>
<!-- Node1 -->
<g id="node1" class="node"><title>Node1</title>
<polygon fill="#bfbfbf" stroke="black" points="280,-49 280,-79 430,-79 430,-49 280,-49"/>
<text text-anchor="start" x="288" y="-67" font-family="Helvetica,sans-Serif" font-size="10.00">slogo.backend.impl.parsing.</text>
<text text-anchor="middle" x="355" y="-56" font-family="Helvetica,sans-Serif" font-size="10.00">Parser</text>
</g>
<!-- Node2 -->
<g id="node2" class="node"><title>Node2</title>
<g id="a_node2"><a xlink:href="../../df/de5/interfaceslogo_1_1backend_1_1parsing_1_1_i_parser.html" target="_top" xlink:title="slogo.backend.parsing.IParser">
<polygon fill="white" stroke="black" points="0.5,-98.5 0.5,-117.5 159.5,-117.5 159.5,-98.5 0.5,-98.5"/>
<text text-anchor="middle" x="80" y="-105.5" font-family="Helvetica,sans-Serif" font-size="10.00">slogo.backend.parsing.IParser</text>
</a>
</g>
</g>
<!-- Node2&#45;&gt;Node1 -->
<g id="edge1" class="edge"><title>Node2&#45;&gt;Node1</title>
<path fill="none" stroke="midnightblue" d="M151.1,-96.8146C184.66,-91.4478 225.414,-84.9134 262,-79 267.751,-78.0704 273.704,-77.1056 279.689,-76.134"/>
<polygon fill="midnightblue" stroke="midnightblue" points="150.25,-93.4059 140.928,-98.4407 151.355,-100.318 150.25,-93.4059"/>
</g>
<!-- Node3 -->
<g id="node3" class="node"><title>Node3</title>
<g id="a_node3"><a xlink:href="../../de/dce/interfaceslogo_1_1backend_1_1evaluation_1_1_i_operation_factory.html" target="_top" xlink:title="slogo.backend.evaluation.\lIOperationFactory">
<polygon fill="white" stroke="black" points="9.5,-49 9.5,-79 150.5,-79 150.5,-49 9.5,-49"/>
<text text-anchor="start" x="17.5" y="-67" font-family="Helvetica,sans-Serif" font-size="10.00">slogo.backend.evaluation.</text>
<text text-anchor="middle" x="80" y="-56" font-family="Helvetica,sans-Serif" font-size="10.00">IOperationFactory</text>
</a>
</g>
</g>
<!-- Node3&#45;&gt;Node1 -->
<g id="edge2" class="edge"><title>Node3&#45;&gt;Node1</title>
<path fill="none" stroke="#9a32cd" stroke-dasharray="5,2" d="M160.986,-64C198.516,-64 242.968,-64 279.748,-64"/>
<polygon fill="#9a32cd" stroke="#9a32cd" points="160.596,-60.5001 150.596,-64 160.596,-67.5001 160.596,-60.5001"/>
<text text-anchor="middle" x="220" y="-67" font-family="Helvetica,sans-Serif" font-size="10.00"> operationFactory</text>
</g>
<!-- Node4 -->
<g id="node4" class="node"><title>Node4</title>
<polygon fill="white" stroke="#bfbfbf" points="2.5,-0 2.5,-30 157.5,-30 157.5,-0 2.5,-0"/>
<text text-anchor="start" x="10.5" y="-18" font-family="Helvetica,sans-Serif" font-size="10.00">List&lt; slogo.backend.parsing.</text>
<text text-anchor="middle" x="80" y="-7" font-family="Helvetica,sans-Serif" font-size="10.00">IGrammarRule &gt;</text>
</g>
<!-- Node4&#45;&gt;Node1 -->
<g id="edge3" class="edge"><title>Node4&#45;&gt;Node1</title>
<path fill="none" stroke="#9a32cd" stroke-dasharray="5,2" d="M167.774,-30.5747C203.771,-37.0359 245.113,-44.4562 279.686,-50.6616"/>
<polygon fill="#9a32cd" stroke="#9a32cd" points="168.233,-27.1014 157.772,-28.7796 166.997,-33.9913 168.233,-27.1014"/>
<text text-anchor="middle" x="220" y="-50" font-family="Helvetica,sans-Serif" font-size="10.00"> rules</text>
</g>
</g>
</svg>
