<?xml version="1.0" encoding="UTF-8" standalone="no"?>
<!DOCTYPE svg PUBLIC "-//W3C//DTD SVG 1.1//EN"
 "http://www.w3.org/Graphics/SVG/1.1/DTD/svg11.dtd">
<!-- Generated by graphviz version 2.36.0 (20140111.2315)
 -->
<!-- Title: slogo.backend.impl.util.Qualities.toColor Pages: 1 -->
<!--zoomable 525 -->
<svg id="main" version="1.1" xmlns="http://www.w3.org/2000/svg" xmlns:xlink="http://www.w3.org/1999/xlink" xml:space="preserve" onload="init(evt)">
<style type="text/css"><![CDATA[
.edge:hover path { stroke: red; }
.edge:hover polygon { stroke: red; fill: red; }
]]></style>
<script type="text/javascript"><![CDATA[
var edges = document.getElementsByTagName('g');
if (edges && edges.length) {
  for (var i=0;i<edges.length;i++) {
    if (edges[i].id.substr(0,4)=='edge') {
      edges[i].setAttribute('class','edge');
    }
  }
}
]]></script>
        <defs>
                <circle id="rim" cx="0" cy="0" r="7"/>
                <circle id="rim2" cx="0" cy="0" r="3.5"/>
                <g id="zoomPlus">
                        <use xlink:href="#rim" fill="#404040">
                                <set attributeName="fill" to="#808080" begin="zoomplus.mouseover" end="zoomplus.mouseout"/>
                        </use>
                        <path d="M-4,0h8M0,-4v8" fill="none" stroke="white" stroke-width="1.5" pointer-events="none"/>
                </g>
                <g id="zoomMin">
                        <use xlink:href="#rim" fill="#404040">
                                <set attributeName="fill" to="#808080" begin="zoomminus.mouseover" end="zoomminus.mouseout"/>
                        </use>
                        <path d="M-4,0h8" fill="none" stroke="white" stroke-width="1.5" pointer-events="none"/>
                </g>
                <g id="dirArrow">
                        <path fill="none" stroke="white" stroke-width="1.5" d="M0,-3.0v7 M-2.5,-0.5L0,-3.0L2.5,-0.5"/>
                </g>
               <g id="resetDef">
                       <use xlink:href="#rim2" fill="#404040">
                               <set attributeName="fill" to="#808080" begin="reset.mouseover" end="reset.mouseout"/>
                       </use>
               </g>
        </defs>

<script type="text/javascript">
var viewWidth = 3230;
var viewHeight = 525;
var sectionId = 'dynsection-6';
</script>
<script xlink:href="../../svgpan.js"/>
<svg id="graph" class="graph">
<g id="viewport">
<title>slogo.backend.impl.util.Qualities.toColor</title>
<polygon fill="white" stroke="none" points="-4,4 -4,-521 3226,-521 3226,4 -4,4"/>
<!-- Node1 -->
<g id="node1" class="node"><title>Node1</title>
<polygon fill="#bfbfbf" stroke="black" points="0.5,-122 0.5,-152 129.5,-152 129.5,-122 0.5,-122"/>
<text text-anchor="start" x="8.5" y="-140" font-family="Helvetica,sans-Serif" font-size="10.00">slogo.backend.impl.util.</text>
<text text-anchor="middle" x="65" y="-129" font-family="Helvetica,sans-Serif" font-size="10.00">Qualities.toColor</text>
</g>
<!-- Node2 -->
<g id="node2" class="node"><title>Node2</title>
<g id="a_node2"><a xlink:href="../../d9/d7e/classslogo_1_1_u_i_1_1_method_runner.html#ab0ecc3d04769434971f00221697447bc" target="_top" xlink:title="slogo.UI.MethodRunner.draw\lNewLine">
<polygon fill="white" stroke="black" points="230,-245 230,-275 382,-275 382,-245 230,-245"/>
<text text-anchor="start" x="238" y="-263" font-family="Helvetica,sans-Serif" font-size="10.00">slogo.UI.MethodRunner.draw</text>
<text text-anchor="middle" x="306" y="-252" font-family="Helvetica,sans-Serif" font-size="10.00">NewLine</text>
</a>
</g>
</g>
<!-- Node1&#45;&gt;Node2 -->
<g id="edge1" class="edge"><title>Node1&#45;&gt;Node2</title>
<path fill="none" stroke="midnightblue" d="M82.8947,-160.268C100.83,-183.126 131.335,-217.101 166,-235 185.499,-245.068 208.353,-251.152 229.834,-254.807"/>
<polygon fill="midnightblue" stroke="midnightblue" points="85.509,-157.925 76.6537,-152.108 79.9489,-162.177 85.509,-157.925"/>
</g>
<!-- Node34 -->
<g id="node34" class="node"><title>Node34</title>
<g id="a_node34"><a xlink:href="../../da/d18/classslogo_1_1backend_1_1impl_1_1evaluation_1_1commands_1_1turtlestatus_1_1_set_background.html#a6df9dc8998480d34bbdc1d08a99c5975" target="_top" xlink:title="slogo.backend.impl.evaluation.commands.turtlestatus.\lSetBackground.executeRaw">
<polygon fill="white" stroke="black" points="166,-196 166,-226 446,-226 446,-196 166,-196"/>
<text text-anchor="start" x="174" y="-214" font-family="Helvetica,sans-Serif" font-size="10.00">slogo.backend.impl.evaluation.commands.turtlestatus.</text>
<text text-anchor="middle" x="306" y="-203" font-family="Helvetica,sans-Serif" font-size="10.00">SetBackground.executeRaw</text>
</a>
</g>
</g>
<!-- Node1&#45;&gt;Node34 -->
<g id="edge43" class="edge"><title>Node1&#45;&gt;Node34</title>
<path fill="none" stroke="midnightblue" d="M100.681,-156.963C119.478,-167.012 143.423,-178.599 166,-186 177.766,-189.857 190.299,-193.165 202.839,-195.991"/>
<polygon fill="midnightblue" stroke="midnightblue" points="102.351,-153.888 91.8953,-152.179 99.0037,-160.035 102.351,-153.888"/>
</g>
<!-- Node35 -->
<g id="node35" class="node"><title>Node35</title>
<g id="a_node35"><a xlink:href="../../d9/de1/classslogo_1_1backend_1_1impl_1_1evaluation_1_1commands_1_1turtlestatus_1_1_set_shape.html#a6668255224dbef4cf0dbb3dcdc449f54" target="_top" xlink:title="slogo.backend.impl.evaluation.commands.turtlestatus.\lSetShape.executeRaw">
<polygon fill="white" stroke="black" points="166,-147 166,-177 446,-177 446,-147 166,-147"/>
<text text-anchor="start" x="174" y="-165" font-family="Helvetica,sans-Serif" font-size="10.00">slogo.backend.impl.evaluation.commands.turtlestatus.</text>
<text text-anchor="middle" x="306" y="-154" font-family="Helvetica,sans-Serif" font-size="10.00">SetShape.executeRaw</text>
</a>
</g>
</g>
<!-- Node1&#45;&gt;Node35 -->
<g id="edge44" class="edge"><title>Node1&#45;&gt;Node35</title>
<path fill="none" stroke="midnightblue" d="M139.77,-144.716C148.152,-145.593 156.888,-146.507 165.774,-147.437"/>
<polygon fill="midnightblue" stroke="midnightblue" points="140.044,-141.226 129.734,-143.667 139.315,-148.188 140.044,-141.226"/>
</g>
<!-- Node36 -->
<g id="node36" class="node"><title>Node36</title>
<g id="a_node36"><a xlink:href="../../d4/d26/classslogo_1_1backend_1_1impl_1_1evaluation_1_1commands_1_1turtlestatus_1_1_set_pen_color.html#a426c2364ca77893ff1437b883b0ccfd4" target="_top" xlink:title="slogo.backend.impl.evaluation.commands.turtlestatus.\lSetPenColor.executeRaw">
<polygon fill="white" stroke="black" points="166,-98 166,-128 446,-128 446,-98 166,-98"/>
<text text-anchor="start" x="174" y="-116" font-family="Helvetica,sans-Serif" font-size="10.00">slogo.backend.impl.evaluation.commands.turtlestatus.</text>
<text text-anchor="middle" x="306" y="-105" font-family="Helvetica,sans-Serif" font-size="10.00">SetPenColor.executeRaw</text>
</a>
</g>
</g>
<!-- Node1&#45;&gt;Node36 -->
<g id="edge45" class="edge"><title>Node1&#45;&gt;Node36</title>
<path fill="none" stroke="midnightblue" d="M139.77,-129.592C148.152,-128.75 156.888,-127.873 165.774,-126.981"/>
<polygon fill="midnightblue" stroke="midnightblue" points="139.334,-126.118 129.734,-130.6 140.033,-133.083 139.334,-126.118"/>
</g>
<!-- Node37 -->
<g id="node37" class="node"><title>Node37</title>
<g id="a_node37"><a xlink:href="../../da/dd9/classslogo_1_1backend_1_1impl_1_1evaluation_1_1commands_1_1turtlestatus_1_1_set_pen_size.html#adfa73c25a598a2045136e80b76125e32" target="_top" xlink:title="slogo.backend.impl.evaluation.commands.turtlestatus.\lSetPenSize.executeRaw">
<polygon fill="white" stroke="black" points="166,-49 166,-79 446,-79 446,-49 166,-49"/>
<text text-anchor="start" x="174" y="-67" font-family="Helvetica,sans-Serif" font-size="10.00">slogo.backend.impl.evaluation.commands.turtlestatus.</text>
<text text-anchor="middle" x="306" y="-56" font-family="Helvetica,sans-Serif" font-size="10.00">SetPenSize.executeRaw</text>
</a>
</g>
</g>
<!-- Node1&#45;&gt;Node37 -->
<g id="edge46" class="edge"><title>Node1&#45;&gt;Node37</title>
<path fill="none" stroke="midnightblue" d="M100.267,-117.184C119.117,-107.068 143.24,-95.3736 166,-88 176.6,-84.5659 187.823,-81.5944 199.113,-79.0295"/>
<polygon fill="midnightblue" stroke="midnightblue" points="98.5601,-114.128 91.4658,-121.997 101.919,-120.269 98.5601,-114.128"/>
</g>
<!-- Node38 -->
<g id="node38" class="node"><title>Node38</title>
<g id="a_node38"><a xlink:href="../../d9/d7e/classslogo_1_1_u_i_1_1_method_runner.html#ad9cd8e21d6cb54d79c7b14a83ed5bb1c" target="_top" xlink:title="slogo.UI.MethodRunner.set\lPenColor">
<polygon fill="white" stroke="black" points="234,-0 234,-30 378,-30 378,-0 234,-0"/>
<text text-anchor="start" x="242" y="-18" font-family="Helvetica,sans-Serif" font-size="10.00">slogo.UI.MethodRunner.set</text>
<text text-anchor="middle" x="306" y="-7" font-family="Helvetica,sans-Serif" font-size="10.00">PenColor</text>
</a>
</g>
</g>
<!-- Node1&#45;&gt;Node38 -->
<g id="edge47" class="edge"><title>Node1&#45;&gt;Node38</title>
<path fill="none" stroke="midnightblue" d="M82.8687,-113.682C100.784,-90.7834 131.272,-56.7777 166,-39 186.709,-28.3988 211.19,-22.3606 233.791,-18.9587"/>
<polygon fill="midnightblue" stroke="midnightblue" points="79.9155,-111.782 76.6356,-121.857 85.4821,-116.027 79.9155,-111.782"/>
</g>
<!-- Node3 -->
<g id="node3" class="node"><title>Node3</title>
<g id="a_node3"><a xlink:href="../../d9/d7e/classslogo_1_1_u_i_1_1_method_runner.html#a1ab80948935d4a625cf3313eabe9a51d" target="_top" xlink:title="slogo.UI.MethodRunner.move\lTurtle">
<polygon fill="white" stroke="black" points="482,-196 482,-226 638,-226 638,-196 482,-196"/>
<text text-anchor="start" x="490" y="-214" font-family="Helvetica,sans-Serif" font-size="10.00">slogo.UI.MethodRunner.move</text>
<text text-anchor="middle" x="560" y="-203" font-family="Helvetica,sans-Serif" font-size="10.00">Turtle</text>
</a>
</g>
</g>
<!-- Node2&#45;&gt;Node3 -->
<g id="edge2" class="edge"><title>Node2&#45;&gt;Node3</title>
<path fill="none" stroke="midnightblue" d="M392.432,-245.07C410.158,-241.85 428.702,-238.392 446,-235 460.269,-232.202 475.519,-229.064 490.049,-226.003"/>
<polygon fill="midnightblue" stroke="midnightblue" points="391.323,-241.713 382.105,-246.936 392.568,-248.602 391.323,-241.713"/>
</g>
<!-- Node4 -->
<g id="node4" class="node"><title>Node4</title>
<g id="a_node4"><a xlink:href="../../d9/d7e/classslogo_1_1_u_i_1_1_method_runner.html#a5fe4a6310ba1b0851d7d30a440511324" target="_top" xlink:title="slogo.UI.MethodRunner.change\lTurtle">
<polygon fill="white" stroke="black" points="674,-147 674,-177 838,-177 838,-147 674,-147"/>
<text text-anchor="start" x="682" y="-165" font-family="Helvetica,sans-Serif" font-size="10.00">slogo.UI.MethodRunner.change</text>
<text text-anchor="middle" x="756" y="-154" font-family="Helvetica,sans-Serif" font-size="10.00">Turtle</text>
</a>
</g>
</g>
<!-- Node3&#45;&gt;Node4 -->
<g id="edge3" class="edge"><title>Node3&#45;&gt;Node4</title>
<path fill="none" stroke="midnightblue" d="M630.483,-193.45C651.787,-188.069 675.021,-182.201 695.588,-177.006"/>
<polygon fill="midnightblue" stroke="midnightblue" points="629.363,-190.123 620.525,-195.965 631.077,-196.91 629.363,-190.123"/>
</g>
<!-- Node5 -->
<g id="node5" class="node"><title>Node5</title>
<g id="a_node5"><a xlink:href="../../df/d2d/classslogo_1_1_view.html#accc79c56511a72090ff8a4d414b8d1f5" target="_top" xlink:title="slogo.View.executeTurtle\lCommands">
<polygon fill="white" stroke="black" points="874.5,-147 874.5,-177 1007.5,-177 1007.5,-147 874.5,-147"/>
<text text-anchor="start" x="882.5" y="-165" font-family="Helvetica,sans-Serif" font-size="10.00">slogo.View.executeTurtle</text>
<text text-anchor="middle" x="941" y="-154" font-family="Helvetica,sans-Serif" font-size="10.00">Commands</text>
</a>
</g>
</g>
<!-- Node4&#45;&gt;Node5 -->
<g id="edge4" class="edge"><title>Node4&#45;&gt;Node5</title>
<path fill="none" stroke="midnightblue" d="M848.35,-162C857.128,-162 865.907,-162 874.365,-162"/>
<polygon fill="midnightblue" stroke="midnightblue" points="848.066,-158.5 838.066,-162 848.066,-165.5 848.066,-158.5"/>
</g>
<!-- Node6 -->
<g id="node6" class="node"><title>Node6</title>
<g id="a_node6"><a xlink:href="../../df/d2d/classslogo_1_1_view.html#aa90e5d95d422b58b7f4b7f8a049defe1" target="_top" xlink:title="slogo.View.executeCommand">
<polygon fill="white" stroke="black" points="1044,-152.5 1044,-171.5 1202,-171.5 1202,-152.5 1044,-152.5"/>
<text text-anchor="middle" x="1123" y="-159.5" font-family="Helvetica,sans-Serif" font-size="10.00">slogo.View.executeCommand</text>
</a>
</g>
</g>
<!-- Node5&#45;&gt;Node6 -->
<g id="edge5" class="edge"><title>Node5&#45;&gt;Node6</title>
<path fill="none" stroke="midnightblue" d="M1017.78,-162C1026.42,-162 1035.24,-162 1043.9,-162"/>
<polygon fill="midnightblue" stroke="midnightblue" points="1017.75,-158.5 1007.75,-162 1017.75,-165.5 1017.75,-158.5"/>
</g>
<!-- Node7 -->
<g id="node7" class="node"><title>Node7</title>
<g id="a_node7"><a xlink:href="../../df/d2d/classslogo_1_1_view.html#aee563f6a0b15ac6668e4dcbdad40c73c" target="_top" xlink:title="slogo.View.sendCommandTo\lBackend">
<polygon fill="white" stroke="black" points="1244,-311 1244,-341 1396,-341 1396,-311 1244,-311"/>
<text text-anchor="start" x="1252" y="-329" font-family="Helvetica,sans-Serif" font-size="10.00">slogo.View.sendCommandTo</text>
<text text-anchor="middle" x="1320" y="-318" font-family="Helvetica,sans-Serif" font-size="10.00">Backend</text>
</a>
</g>
</g>
<!-- Node6&#45;&gt;Node7 -->
<g id="edge6" class="edge"><title>Node6&#45;&gt;Node7</title>
<path fill="none" stroke="midnightblue" d="M1143.05,-178.025C1180.77,-209.741 1264.43,-280.108 1301.15,-310.984"/>
<polygon fill="midnightblue" stroke="midnightblue" points="1145.23,-175.284 1135.33,-171.526 1140.73,-180.641 1145.23,-175.284"/>
</g>
<!-- Node27 -->
<g id="node27" class="node"><title>Node27</title>
<g id="a_node27"><a xlink:href="../../df/d2d/classslogo_1_1_view.html#a4c3084a198acf85804800d70eff9ee51" target="_top" xlink:title="slogo.View.stepIntoCommand">
<polygon fill="white" stroke="black" points="1241,-152.5 1241,-171.5 1399,-171.5 1399,-152.5 1241,-152.5"/>
<text text-anchor="middle" x="1320" y="-159.5" font-family="Helvetica,sans-Serif" font-size="10.00">slogo.View.stepIntoCommand</text>
</a>
</g>
</g>
<!-- Node6&#45;&gt;Node27 -->
<g id="edge34" class="edge"><title>Node6&#45;&gt;Node27</title>
<path fill="none" stroke="midnightblue" d="M1212.4,-162C1221.87,-162 1231.45,-162 1240.79,-162"/>
<polygon fill="midnightblue" stroke="midnightblue" points="1212.19,-158.5 1202.19,-162 1212.19,-165.5 1212.19,-158.5"/>
</g>
<!-- Node31 -->
<g id="node31" class="node"><title>Node31</title>
<g id="a_node31"><a xlink:href="../../df/d2d/classslogo_1_1_view.html#ac8b7f574c679e744a430f1649dc55e68" target="_top" xlink:title="slogo.View.stepOverCommand">
<polygon fill="white" stroke="black" points="1238.5,-109.5 1238.5,-128.5 1401.5,-128.5 1401.5,-109.5 1238.5,-109.5"/>
<text text-anchor="middle" x="1320" y="-116.5" font-family="Helvetica,sans-Serif" font-size="10.00">slogo.View.stepOverCommand</text>
</a>
</g>
</g>
<!-- Node6&#45;&gt;Node31 -->
<g id="edge39" class="edge"><title>Node6&#45;&gt;Node31</title>
<path fill="none" stroke="midnightblue" d="M1177.06,-150.301C1208.07,-143.462 1246.71,-134.941 1275.84,-128.516"/>
<polygon fill="midnightblue" stroke="midnightblue" points="1176.29,-146.886 1167.28,-152.457 1177.8,-153.721 1176.29,-146.886"/>
</g>
<!-- Node8 -->
<g id="node8" class="node"><title>Node8</title>
<g id="a_node8"><a xlink:href="../../db/d19/classslogo_1_1_u_i_1_1_module_creation_helper.html#a69e17abcc7cf9a6ed7261d8fb1d631fa" target="_top" xlink:title="slogo.UI.ModuleCreationHelper.activate\lIncreaseDecreaseButtons">
<polygon fill="white" stroke="black" points="1438.5,-487 1438.5,-517 1643.5,-517 1643.5,-487 1438.5,-487"/>
<text text-anchor="start" x="1446.5" y="-505" font-family="Helvetica,sans-Serif" font-size="10.00">slogo.UI.ModuleCreationHelper.activate</text>
<text text-anchor="middle" x="1541" y="-494" font-family="Helvetica,sans-Serif" font-size="10.00">IncreaseDecreaseButtons</text>
</a>
</g>
</g>
<!-- Node7&#45;&gt;Node8 -->
<g id="edge7" class="edge"><title>Node7&#45;&gt;Node8</title>
<path fill="none" stroke="midnightblue" d="M1334.04,-350.219C1352.78,-382.724 1390.36,-440.06 1438,-472 1447.12,-478.116 1457.51,-483.01 1468.09,-486.919"/>
<polygon fill="midnightblue" stroke="midnightblue" points="1337.01,-348.361 1329.05,-341.368 1330.91,-351.798 1337.01,-348.361"/>
</g>
<!-- Node15 -->
<g id="node15" class="node"><title>Node15</title>
<g id="a_node15"><a xlink:href="../../db/d19/classslogo_1_1_u_i_1_1_module_creation_helper.html#aa70b0ad9e90e62509149bfd2ef2ba209" target="_top" xlink:title="slogo.UI.ModuleCreationHelper.activate\lKeyEvents">
<polygon fill="white" stroke="black" points="2164.5,-234 2164.5,-264 2369.5,-264 2369.5,-234 2164.5,-234"/>
<text text-anchor="start" x="2172.5" y="-252" font-family="Helvetica,sans-Serif" font-size="10.00">slogo.UI.ModuleCreationHelper.activate</text>
<text text-anchor="middle" x="2267" y="-241" font-family="Helvetica,sans-Serif" font-size="10.00">KeyEvents</text>
</a>
</g>
</g>
<!-- Node7&#45;&gt;Node15 -->
<g id="edge15" class="edge"><title>Node7&#45;&gt;Node15</title>
<path fill="none" stroke="midnightblue" d="M1350.18,-305.164C1372.9,-290.251 1405.88,-271.388 1438,-263 1572.15,-227.97 1974.16,-237.777 2164.26,-244.744"/>
<polygon fill="midnightblue" stroke="midnightblue" points="1348.05,-302.378 1341.7,-310.86 1351.95,-308.189 1348.05,-302.378"/>
</g>
<!-- Node16 -->
<g id="node16" class="node"><title>Node16</title>
<g id="a_node16"><a xlink:href="../../db/d19/classslogo_1_1_u_i_1_1_module_creation_helper.html#a2e841243ec3ca474e8822102343acc88" target="_top" xlink:title="slogo.UI.ModuleCreationHelper.activate\lNewTurtleButton">
<polygon fill="white" stroke="black" points="1680.5,-442 1680.5,-472 1885.5,-472 1885.5,-442 1680.5,-442"/>
<text text-anchor="start" x="1688.5" y="-460" font-family="Helvetica,sans-Serif" font-size="10.00">slogo.UI.ModuleCreationHelper.activate</text>
<text text-anchor="middle" x="1783" y="-449" font-family="Helvetica,sans-Serif" font-size="10.00">NewTurtleButton</text>
</a>
</g>
</g>
<!-- Node7&#45;&gt;Node16 -->
<g id="edge17" class="edge"><title>Node7&#45;&gt;Node16</title>
<path fill="none" stroke="midnightblue" d="M1337.02,-349.155C1357.1,-376.009 1394.24,-419.013 1438,-438 1514.41,-471.152 1609.47,-473.86 1680.29,-469.435"/>
<polygon fill="midnightblue" stroke="midnightblue" points="1339.83,-347.073 1331.11,-341.055 1334.18,-351.197 1339.83,-347.073"/>
</g>
<!-- Node18 -->
<g id="node18" class="node"><title>Node18</title>
<g id="a_node18"><a xlink:href="../../db/d19/classslogo_1_1_u_i_1_1_module_creation_helper.html#a9b1f07ab673191067907a059b1b0c524" target="_top" xlink:title="slogo.UI.ModuleCreationHelper.activate\lPlayButton">
<polygon fill="white" stroke="black" points="1438.5,-399 1438.5,-429 1643.5,-429 1643.5,-399 1438.5,-399"/>
<text text-anchor="start" x="1446.5" y="-417" font-family="Helvetica,sans-Serif" font-size="10.00">slogo.UI.ModuleCreationHelper.activate</text>
<text text-anchor="middle" x="1541" y="-406" font-family="Helvetica,sans-Serif" font-size="10.00">PlayButton</text>
</a>
</g>
</g>
<!-- Node7&#45;&gt;Node18 -->
<g id="edge20" class="edge"><title>Node7&#45;&gt;Node18</title>
<path fill="none" stroke="midnightblue" d="M1353.42,-346.354C1376.33,-360.006 1408.16,-377.522 1438,-389 1447.7,-392.73 1458.14,-396.039 1468.5,-398.929"/>
<polygon fill="midnightblue" stroke="midnightblue" points="1355.16,-343.317 1344.79,-341.145 1351.54,-349.31 1355.16,-343.317"/>
</g>
<!-- Node21 -->
<g id="node21" class="node"><title>Node21</title>
<g id="a_node21"><a xlink:href="../../db/d19/classslogo_1_1_u_i_1_1_module_creation_helper.html#a3a38d485562cb17591ec3fd07cffc18a" target="_top" xlink:title="slogo.UI.ModuleCreationHelper.activate\lTurtleCanvas">
<polygon fill="white" stroke="black" points="1922.5,-185 1922.5,-215 2127.5,-215 2127.5,-185 1922.5,-185"/>
<text text-anchor="start" x="1930.5" y="-203" font-family="Helvetica,sans-Serif" font-size="10.00">slogo.UI.ModuleCreationHelper.activate</text>
<text text-anchor="middle" x="2025" y="-192" font-family="Helvetica,sans-Serif" font-size="10.00">TurtleCanvas</text>
</a>
</g>
</g>
<!-- Node7&#45;&gt;Node21 -->
<g id="edge24" class="edge"><title>Node7&#45;&gt;Node21</title>
<path fill="none" stroke="midnightblue" d="M1340.37,-303.232C1361.63,-280.064 1398.1,-245.434 1438,-230 1523.51,-196.92 1778.48,-195.527 1922.33,-197.616"/>
<polygon fill="midnightblue" stroke="midnightblue" points="1337.56,-301.115 1333.5,-310.898 1342.78,-305.786 1337.56,-301.115"/>
</g>
<!-- Node23 -->
<g id="node23" class="node"><title>Node23</title>
<g id="a_node23"><a xlink:href="../../d1/d5f/classslogo_1_1_u_i_1_1_path_color_selector.html#ad3d9c82a0904c97edcec7cf67b85bd7b" target="_top" xlink:title="slogo.UI.PathColorSelector.create">
<polygon fill="white" stroke="black" points="1453,-360.5 1453,-379.5 1629,-379.5 1629,-360.5 1453,-360.5"/>
<text text-anchor="middle" x="1541" y="-367.5" font-family="Helvetica,sans-Serif" font-size="10.00">slogo.UI.PathColorSelector.create</text>
</a>
</g>
</g>
<!-- Node7&#45;&gt;Node23 -->
<g id="edge27" class="edge"><title>Node7&#45;&gt;Node23</title>
<path fill="none" stroke="midnightblue" d="M1403.74,-343.065C1415.24,-345.411 1426.91,-347.776 1438,-350 1455.25,-353.46 1474.16,-357.186 1490.95,-360.473"/>
<polygon fill="midnightblue" stroke="midnightblue" points="1404.19,-339.585 1393.69,-341.013 1402.79,-346.443 1404.19,-339.585"/>
</g>
<!-- Node25 -->
<g id="node25" class="node"><title>Node25</title>
<g id="a_node25"><a xlink:href="../../d4/d8d/classslogo_1_1_u_i_1_1_background_color_selector.html#ad75ba4ce104e071811d0fe039a4e839f" target="_top" xlink:title="slogo.UI.BackgroundColor\lSelector.create">
<polygon fill="white" stroke="black" points="1471,-311 1471,-341 1611,-341 1611,-311 1471,-311"/>
<text text-anchor="start" x="1479" y="-329" font-family="Helvetica,sans-Serif" font-size="10.00">slogo.UI.BackgroundColor</text>
<text text-anchor="middle" x="1541" y="-318" font-family="Helvetica,sans-Serif" font-size="10.00">Selector.create</text>
</a>
</g>
</g>
<!-- Node7&#45;&gt;Node25 -->
<g id="edge30" class="edge"><title>Node7&#45;&gt;Node25</title>
<path fill="none" stroke="midnightblue" d="M1406.14,-326C1427.6,-326 1450.37,-326 1470.93,-326"/>
<polygon fill="midnightblue" stroke="midnightblue" points="1406.06,-322.5 1396.06,-326 1406.06,-329.5 1406.06,-322.5"/>
</g>
<!-- Node26 -->
<g id="node26" class="node"><title>Node26</title>
<g id="a_node26"><a xlink:href="../../dd/da7/classslogo_1_1_u_i_1_1_turtle_image_selector.html#a3f268d9196ffebcbb5dc322d2897a9fe" target="_top" xlink:title="slogo.UI.TurtleImageSelector.create">
<polygon fill="white" stroke="black" points="1448,-272.5 1448,-291.5 1634,-291.5 1634,-272.5 1448,-272.5"/>
<text text-anchor="middle" x="1541" y="-279.5" font-family="Helvetica,sans-Serif" font-size="10.00">slogo.UI.TurtleImageSelector.create</text>
</a>
</g>
</g>
<!-- Node7&#45;&gt;Node26 -->
<g id="edge32" class="edge"><title>Node7&#45;&gt;Node26</title>
<path fill="none" stroke="midnightblue" d="M1400.01,-308.821C1412.7,-306.147 1425.71,-303.458 1438,-301 1453.99,-297.804 1471.42,-294.493 1487.27,-291.548"/>
<polygon fill="midnightblue" stroke="midnightblue" points="1398.98,-305.463 1389.92,-310.958 1400.43,-312.311 1398.98,-305.463"/>
</g>
<!-- Node9 -->
<g id="node9" class="node"><title>Node9</title>
<g id="a_node9"><a xlink:href="../../db/d19/classslogo_1_1_u_i_1_1_module_creation_helper.html#adce7362386f9a7b3006e7db08a2d578d" target="_top" xlink:title="slogo.UI.ModuleCreationHelper.create\lIncreaseDecreaseButtons">
<polygon fill="white" stroke="black" points="1926.5,-478 1926.5,-508 2123.5,-508 2123.5,-478 1926.5,-478"/>
<text text-anchor="start" x="1934.5" y="-496" font-family="Helvetica,sans-Serif" font-size="10.00">slogo.UI.ModuleCreationHelper.create</text>
<text text-anchor="middle" x="2025" y="-485" font-family="Helvetica,sans-Serif" font-size="10.00">IncreaseDecreaseButtons</text>
</a>
</g>
</g>
<!-- Node8&#45;&gt;Node9 -->
<g id="edge8" class="edge"><title>Node8&#45;&gt;Node9</title>
<path fill="none" stroke="midnightblue" d="M1653.79,-499.913C1736.23,-498.373 1847.29,-496.299 1926.21,-494.826"/>
<polygon fill="midnightblue" stroke="midnightblue" points="1653.56,-496.416 1643.63,-500.102 1653.69,-503.415 1653.56,-496.416"/>
</g>
<!-- Node10 -->
<g id="node10" class="node"><title>Node10</title>
<g id="a_node10"><a xlink:href="../../db/d19/classslogo_1_1_u_i_1_1_module_creation_helper.html#a7c650957b2389d6e6d36e8be8a33cd2b" target="_top" xlink:title="slogo.UI.ModuleCreationHelper.create\lSelectorVBoxModules">
<polygon fill="white" stroke="black" points="2168.5,-351 2168.5,-381 2365.5,-381 2365.5,-351 2168.5,-351"/>
<text text-anchor="start" x="2176.5" y="-369" font-family="Helvetica,sans-Serif" font-size="10.00">slogo.UI.ModuleCreationHelper.create</text>
<text text-anchor="middle" x="2267" y="-358" font-family="Helvetica,sans-Serif" font-size="10.00">SelectorVBoxModules</text>
</a>
</g>
</g>
<!-- Node9&#45;&gt;Node10 -->
<g id="edge9" class="edge"><title>Node9&#45;&gt;Node10</title>
<path fill="none" stroke="midnightblue" d="M2109,-474.732C2115.54,-472.424 2121.95,-469.854 2128,-467 2176.6,-444.077 2225.46,-403.079 2249.92,-381.025"/>
<polygon fill="midnightblue" stroke="midnightblue" points="2107.75,-471.461 2099.36,-477.93 2109.95,-478.105 2107.75,-471.461"/>
</g>
<!-- Node11 -->
<g id="node11" class="node"><title>Node11</title>
<g id="a_node11"><a xlink:href="../../db/d19/classslogo_1_1_u_i_1_1_module_creation_helper.html#afb9dbbbad7d872234a5b296fe129a34e" target="_top" xlink:title="slogo.UI.ModuleCreationHelper.create\lMainPageModules">
<polygon fill="white" stroke="black" points="2406.5,-234 2406.5,-264 2603.5,-264 2603.5,-234 2406.5,-234"/>
<text text-anchor="start" x="2414.5" y="-252" font-family="Helvetica,sans-Serif" font-size="10.00">slogo.UI.ModuleCreationHelper.create</text>
<text text-anchor="middle" x="2505" y="-241" font-family="Helvetica,sans-Serif" font-size="10.00">MainPageModules</text>
</a>
</g>
</g>
<!-- Node10&#45;&gt;Node11 -->
<g id="edge10" class="edge"><title>Node10&#45;&gt;Node11</title>
<path fill="none" stroke="midnightblue" d="M2307.58,-346.38C2354.29,-323.222 2430.96,-285.212 2473.37,-264.184"/>
<polygon fill="midnightblue" stroke="midnightblue" points="2305.77,-343.366 2298.37,-350.944 2308.88,-349.638 2305.77,-343.366"/>
</g>
<!-- Node12 -->
<g id="node12" class="node"><title>Node12</title>
<g id="a_node12"><a xlink:href="../../d9/d33/classslogo_1_1_u_i_1_1_main.html#a15b7f2e399ee24d160550993ab737e73" target="_top" xlink:title="slogo.UI.Main.start">
<polygon fill="white" stroke="black" points="2640,-248.5 2640,-267.5 2746,-267.5 2746,-248.5 2640,-248.5"/>
<text text-anchor="middle" x="2693" y="-255.5" font-family="Helvetica,sans-Serif" font-size="10.00">slogo.UI.Main.start</text>
</a>
</g>
</g>
<!-- Node11&#45;&gt;Node12 -->
<g id="edge11" class="edge"><title>Node11&#45;&gt;Node12</title>
<path fill="none" stroke="midnightblue" d="M2613.8,-254.216C2622.76,-254.65 2631.53,-255.074 2639.76,-255.472"/>
<polygon fill="midnightblue" stroke="midnightblue" points="2613.79,-250.712 2603.63,-253.724 2613.45,-257.703 2613.79,-250.712"/>
</g>
<!-- Node13 -->
<g id="node13" class="node"><title>Node13</title>
<g id="a_node13"><a xlink:href="../../db/d19/classslogo_1_1_u_i_1_1_module_creation_helper.html#a3be12a7cc2b8a219db1e296211a2cb88" target="_top" xlink:title="slogo.UI.ModuleCreationHelper.activate\lExtraWorkspaceButton">
<polygon fill="white" stroke="black" points="2782.5,-261 2782.5,-291 2987.5,-291 2987.5,-261 2782.5,-261"/>
<text text-anchor="start" x="2790.5" y="-279" font-family="Helvetica,sans-Serif" font-size="10.00">slogo.UI.ModuleCreationHelper.activate</text>
<text text-anchor="middle" x="2885" y="-268" font-family="Helvetica,sans-Serif" font-size="10.00">ExtraWorkspaceButton</text>
</a>
</g>
</g>
<!-- Node12&#45;&gt;Node13 -->
<g id="edge12" class="edge"><title>Node12&#45;&gt;Node13</title>
<path fill="none" stroke="midnightblue" d="M2756.22,-263.894C2764.63,-264.691 2773.44,-265.526 2782.32,-266.367"/>
<polygon fill="midnightblue" stroke="midnightblue" points="2756.46,-260.401 2746.17,-262.942 2755.79,-267.37 2756.46,-260.401"/>
</g>
<!-- Node14 -->
<g id="node14" class="node"><title>Node14</title>
<g id="a_node14"><a xlink:href="../../db/d19/classslogo_1_1_u_i_1_1_module_creation_helper.html#a702c1ebe24d2857a10c666eb1fcc315d" target="_top" xlink:title="slogo.UI.ModuleCreationHelper.create\lExtraWorkspaceButton">
<polygon fill="white" stroke="black" points="3024.5,-287 3024.5,-317 3221.5,-317 3221.5,-287 3024.5,-287"/>
<text text-anchor="start" x="3032.5" y="-305" font-family="Helvetica,sans-Serif" font-size="10.00">slogo.UI.ModuleCreationHelper.create</text>
<text text-anchor="middle" x="3123" y="-294" font-family="Helvetica,sans-Serif" font-size="10.00">ExtraWorkspaceButton</text>
</a>
</g>
</g>
<!-- Node13&#45;&gt;Node14 -->
<g id="edge13" class="edge"><title>Node13&#45;&gt;Node14</title>
<path fill="none" stroke="midnightblue" d="M2997.77,-288.313C3006.62,-289.289 3015.52,-290.27 3024.27,-291.234"/>
<polygon fill="midnightblue" stroke="midnightblue" points="2998.12,-284.831 2987.8,-287.215 2997.35,-291.789 2998.12,-284.831"/>
</g>
<!-- Node14&#45;&gt;Node10 -->
<g id="edge14" class="edge"><title>Node14&#45;&gt;Node10</title>
<path fill="none" stroke="midnightblue" d="M3014.34,-310.068C2846.9,-322.617 2526.6,-346.62 2365.55,-358.69"/>
<polygon fill="midnightblue" stroke="midnightblue" points="3014.7,-313.551 3024.41,-309.313 3014.18,-306.571 3014.7,-313.551"/>
</g>
<!-- Node15&#45;&gt;Node11 -->
<g id="edge16" class="edge"><title>Node15&#45;&gt;Node11</title>
<path fill="none" stroke="midnightblue" d="M2380.05,-249C2388.81,-249 2397.62,-249 2406.27,-249"/>
<polygon fill="midnightblue" stroke="midnightblue" points="2379.8,-245.5 2369.8,-249 2379.8,-252.5 2379.8,-245.5"/>
</g>
<!-- Node17 -->
<g id="node17" class="node"><title>Node17</title>
<g id="a_node17"><a xlink:href="../../db/d19/classslogo_1_1_u_i_1_1_module_creation_helper.html#a07f5483df317cdf80e8ea2dda5699afa" target="_top" xlink:title="slogo.UI.ModuleCreationHelper.create\lNewTurtleButton">
<polygon fill="white" stroke="black" points="1926.5,-428 1926.5,-458 2123.5,-458 2123.5,-428 1926.5,-428"/>
<text text-anchor="start" x="1934.5" y="-446" font-family="Helvetica,sans-Serif" font-size="10.00">slogo.UI.ModuleCreationHelper.create</text>
<text text-anchor="middle" x="2025" y="-435" font-family="Helvetica,sans-Serif" font-size="10.00">NewTurtleButton</text>
</a>
</g>
</g>
<!-- Node16&#45;&gt;Node17 -->
<g id="edge18" class="edge"><title>Node16&#45;&gt;Node17</title>
<path fill="none" stroke="midnightblue" d="M1895.89,-450.473C1906.04,-449.881 1916.26,-449.285 1926.27,-448.701"/>
<polygon fill="midnightblue" stroke="midnightblue" points="1895.56,-446.986 1885.78,-451.063 1895.97,-453.974 1895.56,-446.986"/>
</g>
<!-- Node17&#45;&gt;Node10 -->
<g id="edge19" class="edge"><title>Node17&#45;&gt;Node10</title>
<path fill="none" stroke="midnightblue" d="M2096.15,-425.309C2106.87,-422.354 2117.76,-419.203 2128,-416 2161.93,-405.387 2199.86,-391.493 2227.35,-381.046"/>
<polygon fill="midnightblue" stroke="midnightblue" points="2095.12,-421.962 2086.39,-427.963 2096.96,-428.717 2095.12,-421.962"/>
</g>
<!-- Node19 -->
<g id="node19" class="node"><title>Node19</title>
<g id="a_node19"><a xlink:href="../../db/d19/classslogo_1_1_u_i_1_1_module_creation_helper.html#a9b3fb38a55b3b7812b4f793afa7a974f" target="_top" xlink:title="slogo.UI.ModuleCreationHelper.create\lPlayButton">
<polygon fill="white" stroke="black" points="1684.5,-393 1684.5,-423 1881.5,-423 1881.5,-393 1684.5,-393"/>
<text text-anchor="start" x="1692.5" y="-411" font-family="Helvetica,sans-Serif" font-size="10.00">slogo.UI.ModuleCreationHelper.create</text>
<text text-anchor="middle" x="1783" y="-400" font-family="Helvetica,sans-Serif" font-size="10.00">PlayButton</text>
</a>
</g>
</g>
<!-- Node18&#45;&gt;Node19 -->
<g id="edge21" class="edge"><title>Node18&#45;&gt;Node19</title>
<path fill="none" stroke="midnightblue" d="M1653.89,-411.203C1664.04,-410.949 1674.26,-410.694 1684.27,-410.443"/>
<polygon fill="midnightblue" stroke="midnightblue" points="1653.69,-407.707 1643.78,-411.455 1653.87,-414.704 1653.69,-407.707"/>
</g>
<!-- Node20 -->
<g id="node20" class="node"><title>Node20</title>
<g id="a_node20"><a xlink:href="../../db/d19/classslogo_1_1_u_i_1_1_module_creation_helper.html#ae1e60d37509c2e5eddcb2a6e70b4f650" target="_top" xlink:title="slogo.UI.ModuleCreationHelper.create\lFirstRowButtons">
<polygon fill="white" stroke="black" points="1926.5,-377 1926.5,-407 2123.5,-407 2123.5,-377 1926.5,-377"/>
<text text-anchor="start" x="1934.5" y="-395" font-family="Helvetica,sans-Serif" font-size="10.00">slogo.UI.ModuleCreationHelper.create</text>
<text text-anchor="middle" x="2025" y="-384" font-family="Helvetica,sans-Serif" font-size="10.00">FirstRowButtons</text>
</a>
</g>
</g>
<!-- Node19&#45;&gt;Node20 -->
<g id="edge22" class="edge"><title>Node19&#45;&gt;Node20</title>
<path fill="none" stroke="midnightblue" d="M1891.73,-400.818C1903.3,-400.046 1915.03,-399.265 1926.47,-398.502"/>
<polygon fill="midnightblue" stroke="midnightblue" points="1891.36,-397.335 1881.62,-401.492 1891.83,-404.319 1891.36,-397.335"/>
</g>
<!-- Node20&#45;&gt;Node10 -->
<g id="edge23" class="edge"><title>Node20&#45;&gt;Node10</title>
<path fill="none" stroke="midnightblue" d="M2133.73,-380.329C2145.3,-379.075 2157.03,-377.805 2168.47,-376.566"/>
<polygon fill="midnightblue" stroke="midnightblue" points="2133.18,-376.868 2123.62,-381.425 2133.94,-383.827 2133.18,-376.868"/>
</g>
<!-- Node22 -->
<g id="node22" class="node"><title>Node22</title>
<g id="a_node22"><a xlink:href="../../db/d19/classslogo_1_1_u_i_1_1_module_creation_helper.html#a803bac6b55bde712b21f2face1eeef81" target="_top" xlink:title="slogo.UI.ModuleCreationHelper.create\lTurtleCanvas">
<polygon fill="white" stroke="black" points="2168.5,-185 2168.5,-215 2365.5,-215 2365.5,-185 2168.5,-185"/>
<text text-anchor="start" x="2176.5" y="-203" font-family="Helvetica,sans-Serif" font-size="10.00">slogo.UI.ModuleCreationHelper.create</text>
<text text-anchor="middle" x="2267" y="-192" font-family="Helvetica,sans-Serif" font-size="10.00">TurtleCanvas</text>
</a>
</g>
</g>
<!-- Node21&#45;&gt;Node22 -->
<g id="edge25" class="edge"><title>Node21&#45;&gt;Node22</title>
<path fill="none" stroke="midnightblue" d="M2137.89,-200C2148.04,-200 2158.26,-200 2168.27,-200"/>
<polygon fill="midnightblue" stroke="midnightblue" points="2137.78,-196.5 2127.78,-200 2137.78,-203.5 2137.78,-196.5"/>
</g>
<!-- Node22&#45;&gt;Node11 -->
<g id="edge26" class="edge"><title>Node22&#45;&gt;Node11</title>
<path fill="none" stroke="midnightblue" d="M2350.42,-217.113C2376.9,-222.611 2406.03,-228.658 2431.73,-233.994"/>
<polygon fill="midnightblue" stroke="midnightblue" points="2350.91,-213.641 2340.41,-215.035 2349.49,-220.495 2350.91,-213.641"/>
</g>
<!-- Node24 -->
<g id="node24" class="node"><title>Node24</title>
<g id="a_node24"><a xlink:href="../../db/d19/classslogo_1_1_u_i_1_1_module_creation_helper.html#af7f2919454fdbf6e9d7d912e99634857" target="_top" xlink:title="slogo.UI.ModuleCreationHelper.create\lSelectors">
<polygon fill="white" stroke="black" points="1684.5,-328 1684.5,-358 1881.5,-358 1881.5,-328 1684.5,-328"/>
<text text-anchor="start" x="1692.5" y="-346" font-family="Helvetica,sans-Serif" font-size="10.00">slogo.UI.ModuleCreationHelper.create</text>
<text text-anchor="middle" x="1783" y="-335" font-family="Helvetica,sans-Serif" font-size="10.00">Selectors</text>
</a>
</g>
</g>
<!-- Node23&#45;&gt;Node24 -->
<g id="edge28" class="edge"><title>Node23&#45;&gt;Node24</title>
<path fill="none" stroke="midnightblue" d="M1636.76,-359.339C1652.36,-357.585 1668.54,-355.764 1684.21,-354.002"/>
<polygon fill="midnightblue" stroke="midnightblue" points="1636.16,-355.885 1626.62,-360.481 1636.94,-362.841 1636.16,-355.885"/>
</g>
<!-- Node24&#45;&gt;Node10 -->
<g id="edge29" class="edge"><title>Node24&#45;&gt;Node10</title>
<path fill="none" stroke="midnightblue" d="M1891.74,-348.141C1974.55,-352.092 2087.97,-357.505 2168.19,-361.333"/>
<polygon fill="midnightblue" stroke="midnightblue" points="1891.7,-344.635 1881.54,-347.654 1891.36,-351.627 1891.7,-344.635"/>
</g>
<!-- Node25&#45;&gt;Node24 -->
<g id="edge31" class="edge"><title>Node25&#45;&gt;Node24</title>
<path fill="none" stroke="midnightblue" d="M1621.18,-331.609C1641.4,-333.041 1663.37,-334.597 1684.39,-336.086"/>
<polygon fill="midnightblue" stroke="midnightblue" points="1621.32,-328.11 1611.1,-330.894 1620.82,-335.092 1621.32,-328.11"/>
</g>
<!-- Node26&#45;&gt;Node24 -->
<g id="edge33" class="edge"><title>Node26&#45;&gt;Node24</title>
<path fill="none" stroke="midnightblue" d="M1609.48,-293.473C1621.04,-295.752 1632.9,-298.287 1644,-301 1675.38,-308.673 1710.18,-319.278 1736.98,-327.911"/>
<polygon fill="midnightblue" stroke="midnightblue" points="1609.9,-289.99 1599.42,-291.539 1608.58,-296.864 1609.9,-289.99"/>
</g>
<!-- Node28 -->
<g id="node28" class="node"><title>Node28</title>
<g id="a_node28"><a xlink:href="../../db/d19/classslogo_1_1_u_i_1_1_module_creation_helper.html#a9fd730f7c1860d34bf4ac46c3828bd59" target="_top" xlink:title="slogo.UI.ModuleCreationHelper.activate\lStepIntoButton">
<polygon fill="white" stroke="black" points="1438.5,-147 1438.5,-177 1643.5,-177 1643.5,-147 1438.5,-147"/>
<text text-anchor="start" x="1446.5" y="-165" font-family="Helvetica,sans-Serif" font-size="10.00">slogo.UI.ModuleCreationHelper.activate</text>
<text text-anchor="middle" x="1541" y="-154" font-family="Helvetica,sans-Serif" font-size="10.00">StepIntoButton</text>
</a>
</g>
</g>
<!-- Node27&#45;&gt;Node28 -->
<g id="edge35" class="edge"><title>Node27&#45;&gt;Node28</title>
<path fill="none" stroke="midnightblue" d="M1409.33,-162C1418.82,-162 1428.54,-162 1438.17,-162"/>
<polygon fill="midnightblue" stroke="midnightblue" points="1409.14,-158.5 1399.14,-162 1409.14,-165.5 1409.14,-158.5"/>
</g>
<!-- Node29 -->
<g id="node29" class="node"><title>Node29</title>
<g id="a_node29"><a xlink:href="../../db/d19/classslogo_1_1_u_i_1_1_module_creation_helper.html#a4a6f1f009507c25be8c7c28cbba35f3b" target="_top" xlink:title="slogo.UI.ModuleCreationHelper.create\lDebugStepIntoButton">
<polygon fill="white" stroke="black" points="1684.5,-147 1684.5,-177 1881.5,-177 1881.5,-147 1684.5,-147"/>
<text text-anchor="start" x="1692.5" y="-165" font-family="Helvetica,sans-Serif" font-size="10.00">slogo.UI.ModuleCreationHelper.create</text>
<text text-anchor="middle" x="1783" y="-154" font-family="Helvetica,sans-Serif" font-size="10.00">DebugStepIntoButton</text>
</a>
</g>
</g>
<!-- Node28&#45;&gt;Node29 -->
<g id="edge36" class="edge"><title>Node28&#45;&gt;Node29</title>
<path fill="none" stroke="midnightblue" d="M1653.89,-162C1664.04,-162 1674.26,-162 1684.27,-162"/>
<polygon fill="midnightblue" stroke="midnightblue" points="1653.78,-158.5 1643.78,-162 1653.78,-165.5 1653.78,-158.5"/>
</g>
<!-- Node30 -->
<g id="node30" class="node"><title>Node30</title>
<g id="a_node30"><a xlink:href="../../db/d19/classslogo_1_1_u_i_1_1_module_creation_helper.html#a975af4ea47dc85df72215bdf1a0d20ce" target="_top" xlink:title="slogo.UI.ModuleCreationHelper.create\lDebugModules">
<polygon fill="white" stroke="black" points="1926.5,-136 1926.5,-166 2123.5,-166 2123.5,-136 1926.5,-136"/>
<text text-anchor="start" x="1934.5" y="-154" font-family="Helvetica,sans-Serif" font-size="10.00">slogo.UI.ModuleCreationHelper.create</text>
<text text-anchor="middle" x="2025" y="-143" font-family="Helvetica,sans-Serif" font-size="10.00">DebugModules</text>
</a>
</g>
</g>
<!-- Node29&#45;&gt;Node30 -->
<g id="edge37" class="edge"><title>Node29&#45;&gt;Node30</title>
<path fill="none" stroke="midnightblue" d="M1891.73,-157.062C1903.3,-156.532 1915.03,-155.995 1926.47,-155.47"/>
<polygon fill="midnightblue" stroke="midnightblue" points="1891.45,-153.572 1881.62,-157.526 1891.77,-160.564 1891.45,-153.572"/>
</g>
<!-- Node30&#45;&gt;Node11 -->
<g id="edge38" class="edge"><title>Node30&#45;&gt;Node11</title>
<path fill="none" stroke="midnightblue" d="M2133.63,-146.679C2202.53,-146.779 2293.11,-152.297 2370,-175 2413.33,-187.794 2458.2,-216.228 2483.46,-233.889"/>
<polygon fill="midnightblue" stroke="midnightblue" points="2133.61,-143.179 2123.62,-146.702 2133.63,-150.179 2133.61,-143.179"/>
</g>
<!-- Node32 -->
<g id="node32" class="node"><title>Node32</title>
<g id="a_node32"><a xlink:href="../../db/d19/classslogo_1_1_u_i_1_1_module_creation_helper.html#a0fed0bb32bf2643d6fd5c24d82e8e18e" target="_top" xlink:title="slogo.UI.ModuleCreationHelper.activate\lStepOverButton">
<polygon fill="white" stroke="black" points="1438.5,-98 1438.5,-128 1643.5,-128 1643.5,-98 1438.5,-98"/>
<text text-anchor="start" x="1446.5" y="-116" font-family="Helvetica,sans-Serif" font-size="10.00">slogo.UI.ModuleCreationHelper.activate</text>
<text text-anchor="middle" x="1541" y="-105" font-family="Helvetica,sans-Serif" font-size="10.00">StepOverButton</text>
</a>
</g>
</g>
<!-- Node31&#45;&gt;Node32 -->
<g id="edge40" class="edge"><title>Node31&#45;&gt;Node32</title>
<path fill="none" stroke="midnightblue" d="M1411.8,-116.512C1420.56,-116.272 1429.48,-116.028 1438.33,-115.786"/>
<polygon fill="midnightblue" stroke="midnightblue" points="1411.51,-113.019 1401.61,-116.791 1411.71,-120.016 1411.51,-113.019"/>
</g>
<!-- Node33 -->
<g id="node33" class="node"><title>Node33</title>
<g id="a_node33"><a xlink:href="../../db/d19/classslogo_1_1_u_i_1_1_module_creation_helper.html#aa1e7dc2b509360583790fba0d3819c8d" target="_top" xlink:title="slogo.UI.ModuleCreationHelper.create\lDebugStepOverButton">
<polygon fill="white" stroke="black" points="1684.5,-98 1684.5,-128 1881.5,-128 1881.5,-98 1684.5,-98"/>
<text text-anchor="start" x="1692.5" y="-116" font-family="Helvetica,sans-Serif" font-size="10.00">slogo.UI.ModuleCreationHelper.create</text>
<text text-anchor="middle" x="1783" y="-105" font-family="Helvetica,sans-Serif" font-size="10.00">DebugStepOverButton</text>
</a>
</g>
</g>
<!-- Node32&#45;&gt;Node33 -->
<g id="edge41" class="edge"><title>Node32&#45;&gt;Node33</title>
<path fill="none" stroke="midnightblue" d="M1653.89,-113C1664.04,-113 1674.26,-113 1684.27,-113"/>
<polygon fill="midnightblue" stroke="midnightblue" points="1653.78,-109.5 1643.78,-113 1653.78,-116.5 1653.78,-109.5"/>
</g>
<!-- Node33&#45;&gt;Node30 -->
<g id="edge42" class="edge"><title>Node33&#45;&gt;Node30</title>
<path fill="none" stroke="midnightblue" d="M1888.99,-129.623C1902.31,-131.733 1915.89,-133.883 1929.05,-135.966"/>
<polygon fill="midnightblue" stroke="midnightblue" points="1889.28,-126.126 1878.85,-128.019 1888.18,-133.039 1889.28,-126.126"/>
</g>
<!-- Node39 -->
<g id="node39" class="node"><title>Node39</title>
<g id="a_node39"><a xlink:href="../../d9/d7e/classslogo_1_1_u_i_1_1_method_runner.html#a5e01d88aabd60df2be9ebb5b874837b1" target="_top" xlink:title="slogo.UI.MethodRunner.set\lPenAttributes">
<polygon fill="white" stroke="black" points="488,-98 488,-128 632,-128 632,-98 488,-98"/>
<text text-anchor="start" x="496" y="-116" font-family="Helvetica,sans-Serif" font-size="10.00">slogo.UI.MethodRunner.set</text>
<text text-anchor="middle" x="560" y="-105" font-family="Helvetica,sans-Serif" font-size="10.00">PenAttributes</text>
</a>
</g>
</g>
<!-- Node38&#45;&gt;Node39 -->
<g id="edge48" class="edge"><title>Node38&#45;&gt;Node39</title>
<path fill="none" stroke="midnightblue" d="M388.192,-23.299C407.557,-26.8278 427.859,-31.8513 446,-39 482.653,-53.4439 519.864,-80.7993 541.116,-97.8994"/>
<polygon fill="midnightblue" stroke="midnightblue" points="388.614,-19.8205 378.168,-21.5866 387.436,-26.7206 388.614,-19.8205"/>
</g>
<!-- Node39&#45;&gt;Node4 -->
<g id="edge49" class="edge"><title>Node39&#45;&gt;Node4</title>
<path fill="none" stroke="midnightblue" d="M630.483,-130.55C651.787,-135.931 675.021,-141.799 695.588,-146.994"/>
<polygon fill="midnightblue" stroke="midnightblue" points="631.077,-127.09 620.525,-128.035 629.363,-133.877 631.077,-127.09"/>
</g>
</g>
</svg>
        <g id="navigator" transform="translate(0 0)" fill="#404254">
                <rect fill="#f2f5e9" fill-opacity="0.5" stroke="#606060" stroke-width=".5" x="0" y="0" width="60" height="60"/>
                <use id="zoomplus" xlink:href="#zoomPlus" x="17" y="9" onmousedown="handleZoom(evt,'in')"/>
                <use id="zoomminus" xlink:href="#zoomMin" x="42" y="9" onmousedown="handleZoom(evt,'out')"/>
                <use id="reset" xlink:href="#resetDef" x="30" y="36" onmousedown="handleReset()"/>
                <g id="arrowUp" xlink:href="#dirArrow" transform="translate(30 24)" onmousedown="handlePan(0,-1)">
                  <use xlink:href="#rim" fill="#404040">
                        <set attributeName="fill" to="#808080" begin="arrowUp.mouseover" end="arrowUp.mouseout"/>
                  </use>
                  <path fill="none" stroke="white" stroke-width="1.5" d="M0,-3.0v7 M-2.5,-0.5L0,-3.0L2.5,-0.5"/>
                </g>
                <g id="arrowRight" xlink:href="#dirArrow" transform="rotate(90) translate(36 -43)" onmousedown="handlePan(1,0)">
                  <use xlink:href="#rim" fill="#404040">
                        <set attributeName="fill" to="#808080" begin="arrowRight.mouseover" end="arrowRight.mouseout"/>
                  </use>
                  <path fill="none" stroke="white" stroke-width="1.5" d="M0,-3.0v7 M-2.5,-0.5L0,-3.0L2.5,-0.5"/>
                </g>
                <g id="arrowDown" xlink:href="#dirArrow" transform="rotate(180) translate(-30 -48)" onmousedown="handlePan(0,1)">
                  <use xlink:href="#rim" fill="#404040">
                        <set attributeName="fill" to="#808080" begin="arrowDown.mouseover" end="arrowDown.mouseout"/>
                  </use>
                  <path fill="none" stroke="white" stroke-width="1.5" d="M0,-3.0v7 M-2.5,-0.5L0,-3.0L2.5,-0.5"/>
                </g>
                <g id="arrowLeft" xlink:href="#dirArrow" transform="rotate(270) translate(-36 17)" onmousedown="handlePan(-1,0)">
                  <use xlink:href="#rim" fill="#404040">
                        <set attributeName="fill" to="#808080" begin="arrowLeft.mouseover" end="arrowLeft.mouseout"/>
                  </use>
                  <path fill="none" stroke="white" stroke-width="1.5" d="M0,-3.0v7 M-2.5,-0.5L0,-3.0L2.5,-0.5"/>
                </g>
        </g>
        <svg viewBox="0 0 15 15" width="100%" height="30px" preserveAspectRatio="xMaxYMin meet">
         <g id="arrow_out" transform="scale(0.3 0.3)">
          <a xlink:href="classslogo_1_1backend_1_1impl_1_1util_1_1_qualities_acd8e6cd4cebb1e207a1731a47a262579_icgraph_org.svg" target="_base">
           <rect id="button" ry="5" rx="5" y="6" x="6" height="38" width="38"
                fill="#f2f5e9" fill-opacity="0.5" stroke="#606060" stroke-width="1.0"/>
           <path id="arrow"
             d="M 11.500037,31.436501 C 11.940474,20.09759 22.043105,11.32322 32.158766,21.979434 L 37.068811,17.246167 C 37.068811,17.246167 37.088388,32 37.088388,32 L 22.160133,31.978069 C 22.160133,31.978069 26.997745,27.140456 26.997745,27.140456 C 18.528582,18.264221 13.291696,25.230495 11.500037,31.436501 z"
             style="fill:#404040;"/>
          </a>
         </g>
        </svg>
</svg>
