<?xml version="1.0" encoding="UTF-8" standalone="no"?>
<!DOCTYPE svg PUBLIC "-//W3C//DTD SVG 1.1//EN"
 "http://www.w3.org/Graphics/SVG/1.1/DTD/svg11.dtd">
<!-- Generated by graphviz version 2.36.0 (20140111.2315)
 -->
<!-- Title: slogo.backend.impl.util.Qualities.setIndex Pages: 1 -->
<svg width="3082pt" height="427pt"
 viewBox="0.00 0.00 3082.00 427.00" xmlns="http://www.w3.org/2000/svg" xmlns:xlink="http://www.w3.org/1999/xlink">
<g id="graph0" class="graph" transform="scale(1 1) rotate(0) translate(4 423)">
<title>slogo.backend.impl.util.Qualities.setIndex</title>
<polygon fill="white" stroke="none" points="-4,4 -4,-423 3078,-423 3078,4 -4,4"/>
<!-- Node1 -->
<g id="node1" class="node"><title>Node1</title>
<polygon fill="#bfbfbf" stroke="black" points="0.5,-49 0.5,-79 129.5,-79 129.5,-49 0.5,-49"/>
<text text-anchor="start" x="8.5" y="-67" font-family="Helvetica,sans-Serif" font-size="10.00">slogo.backend.impl.util.</text>
<text text-anchor="middle" x="65" y="-56" font-family="Helvetica,sans-Serif" font-size="10.00">Qualities.setIndex</text>
</g>
<!-- Node2 -->
<g id="node2" class="node"><title>Node2</title>
<g id="a_node2"><a xlink:href="../../d9/d7e/classslogo_1_1_u_i_1_1_method_runner.html#a7acbc486941b60522435d579c227d6db" target="_top" xlink:title="slogo.UI.MethodRunner.set\lTurtleImage">
<polygon fill="white" stroke="black" points="166,-49 166,-79 310,-79 310,-49 166,-49"/>
<text text-anchor="start" x="174" y="-67" font-family="Helvetica,sans-Serif" font-size="10.00">slogo.UI.MethodRunner.set</text>
<text text-anchor="middle" x="238" y="-56" font-family="Helvetica,sans-Serif" font-size="10.00">TurtleImage</text>
</a>
</g>
</g>
<!-- Node1&#45;&gt;Node2 -->
<g id="edge1" class="edge"><title>Node1&#45;&gt;Node2</title>
<path fill="none" stroke="midnightblue" d="M139.728,-64C148.374,-64 157.185,-64 165.796,-64"/>
<polygon fill="midnightblue" stroke="midnightblue" points="139.674,-60.5001 129.674,-64 139.674,-67.5001 139.674,-60.5001"/>
</g>
<!-- Node3 -->
<g id="node3" class="node"><title>Node3</title>
<g id="a_node3"><a xlink:href="../../d9/d7e/classslogo_1_1_u_i_1_1_method_runner.html#a5e01d88aabd60df2be9ebb5b874837b1" target="_top" xlink:title="slogo.UI.MethodRunner.set\lPenAttributes">
<polygon fill="white" stroke="black" points="346,-49 346,-79 490,-79 490,-49 346,-49"/>
<text text-anchor="start" x="354" y="-67" font-family="Helvetica,sans-Serif" font-size="10.00">slogo.UI.MethodRunner.set</text>
<text text-anchor="middle" x="418" y="-56" font-family="Helvetica,sans-Serif" font-size="10.00">PenAttributes</text>
</a>
</g>
</g>
<!-- Node2&#45;&gt;Node3 -->
<g id="edge2" class="edge"><title>Node2&#45;&gt;Node3</title>
<path fill="none" stroke="midnightblue" d="M320.17,-64C328.789,-64 337.506,-64 345.995,-64"/>
<polygon fill="midnightblue" stroke="midnightblue" points="320.118,-60.5001 310.118,-64 320.118,-67.5001 320.118,-60.5001"/>
</g>
<!-- Node4 -->
<g id="node4" class="node"><title>Node4</title>
<g id="a_node4"><a xlink:href="../../d9/d7e/classslogo_1_1_u_i_1_1_method_runner.html#a5fe4a6310ba1b0851d7d30a440511324" target="_top" xlink:title="slogo.UI.MethodRunner.change\lTurtle">
<polygon fill="white" stroke="black" points="526,-49 526,-79 690,-79 690,-49 526,-49"/>
<text text-anchor="start" x="534" y="-67" font-family="Helvetica,sans-Serif" font-size="10.00">slogo.UI.MethodRunner.change</text>
<text text-anchor="middle" x="608" y="-56" font-family="Helvetica,sans-Serif" font-size="10.00">Turtle</text>
</a>
</g>
</g>
<!-- Node3&#45;&gt;Node4 -->
<g id="edge3" class="edge"><title>Node3&#45;&gt;Node4</title>
<path fill="none" stroke="midnightblue" d="M500.28,-64C508.719,-64 517.298,-64 525.736,-64"/>
<polygon fill="midnightblue" stroke="midnightblue" points="500.075,-60.5001 490.075,-64 500.075,-67.5001 500.075,-60.5001"/>
</g>
<!-- Node5 -->
<g id="node5" class="node"><title>Node5</title>
<g id="a_node5"><a xlink:href="../../df/d2d/classslogo_1_1_view.html#accc79c56511a72090ff8a4d414b8d1f5" target="_top" xlink:title="slogo.View.executeTurtle\lCommands">
<polygon fill="white" stroke="black" points="726.5,-49 726.5,-79 859.5,-79 859.5,-49 726.5,-49"/>
<text text-anchor="start" x="734.5" y="-67" font-family="Helvetica,sans-Serif" font-size="10.00">slogo.View.executeTurtle</text>
<text text-anchor="middle" x="793" y="-56" font-family="Helvetica,sans-Serif" font-size="10.00">Commands</text>
</a>
</g>
</g>
<!-- Node4&#45;&gt;Node5 -->
<g id="edge4" class="edge"><title>Node4&#45;&gt;Node5</title>
<path fill="none" stroke="midnightblue" d="M700.35,-64C709.128,-64 717.907,-64 726.365,-64"/>
<polygon fill="midnightblue" stroke="midnightblue" points="700.066,-60.5001 690.066,-64 700.066,-67.5001 700.066,-60.5001"/>
</g>
<!-- Node6 -->
<g id="node6" class="node"><title>Node6</title>
<g id="a_node6"><a xlink:href="../../df/d2d/classslogo_1_1_view.html#aa90e5d95d422b58b7f4b7f8a049defe1" target="_top" xlink:title="slogo.View.executeCommand">
<polygon fill="white" stroke="black" points="896,-54.5 896,-73.5 1054,-73.5 1054,-54.5 896,-54.5"/>
<text text-anchor="middle" x="975" y="-61.5" font-family="Helvetica,sans-Serif" font-size="10.00">slogo.View.executeCommand</text>
</a>
</g>
</g>
<!-- Node5&#45;&gt;Node6 -->
<g id="edge5" class="edge"><title>Node5&#45;&gt;Node6</title>
<path fill="none" stroke="midnightblue" d="M869.784,-64C878.42,-64 887.235,-64 895.901,-64"/>
<polygon fill="midnightblue" stroke="midnightblue" points="869.748,-60.5001 859.748,-64 869.748,-67.5001 869.748,-60.5001"/>
</g>
<!-- Node7 -->
<g id="node7" class="node"><title>Node7</title>
<g id="a_node7"><a xlink:href="../../df/d2d/classslogo_1_1_view.html#aee563f6a0b15ac6668e4dcbdad40c73c" target="_top" xlink:title="slogo.View.sendCommandTo\lBackend">
<polygon fill="white" stroke="black" points="1096,-213 1096,-243 1248,-243 1248,-213 1096,-213"/>
<text text-anchor="start" x="1104" y="-231" font-family="Helvetica,sans-Serif" font-size="10.00">slogo.View.sendCommandTo</text>
<text text-anchor="middle" x="1172" y="-220" font-family="Helvetica,sans-Serif" font-size="10.00">Backend</text>
</a>
</g>
</g>
<!-- Node6&#45;&gt;Node7 -->
<g id="edge6" class="edge"><title>Node6&#45;&gt;Node7</title>
<path fill="none" stroke="midnightblue" d="M995.054,-80.0252C1032.77,-111.741 1116.43,-182.108 1153.15,-212.984"/>
<polygon fill="midnightblue" stroke="midnightblue" points="997.233,-77.2841 987.327,-73.5262 992.727,-82.6414 997.233,-77.2841"/>
</g>
<!-- Node27 -->
<g id="node27" class="node"><title>Node27</title>
<g id="a_node27"><a xlink:href="../../df/d2d/classslogo_1_1_view.html#a4c3084a198acf85804800d70eff9ee51" target="_top" xlink:title="slogo.View.stepIntoCommand">
<polygon fill="white" stroke="black" points="1093,-54.5 1093,-73.5 1251,-73.5 1251,-54.5 1093,-54.5"/>
<text text-anchor="middle" x="1172" y="-61.5" font-family="Helvetica,sans-Serif" font-size="10.00">slogo.View.stepIntoCommand</text>
</a>
</g>
</g>
<!-- Node6&#45;&gt;Node27 -->
<g id="edge34" class="edge"><title>Node6&#45;&gt;Node27</title>
<path fill="none" stroke="midnightblue" d="M1064.4,-64C1073.87,-64 1083.45,-64 1092.79,-64"/>
<polygon fill="midnightblue" stroke="midnightblue" points="1064.19,-60.5001 1054.19,-64 1064.19,-67.5001 1064.19,-60.5001"/>
</g>
<!-- Node31 -->
<g id="node31" class="node"><title>Node31</title>
<g id="a_node31"><a xlink:href="../../df/d2d/classslogo_1_1_view.html#ac8b7f574c679e744a430f1649dc55e68" target="_top" xlink:title="slogo.View.stepOverCommand">
<polygon fill="white" stroke="black" points="1090.5,-11.5 1090.5,-30.5 1253.5,-30.5 1253.5,-11.5 1090.5,-11.5"/>
<text text-anchor="middle" x="1172" y="-18.5" font-family="Helvetica,sans-Serif" font-size="10.00">slogo.View.stepOverCommand</text>
</a>
</g>
</g>
<!-- Node6&#45;&gt;Node31 -->
<g id="edge39" class="edge"><title>Node6&#45;&gt;Node31</title>
<path fill="none" stroke="midnightblue" d="M1029.06,-52.3005C1060.07,-45.462 1098.71,-36.9406 1127.84,-30.5164"/>
<polygon fill="midnightblue" stroke="midnightblue" points="1028.29,-48.8855 1019.28,-54.4569 1029.8,-55.7213 1028.29,-48.8855"/>
</g>
<!-- Node8 -->
<g id="node8" class="node"><title>Node8</title>
<g id="a_node8"><a xlink:href="../../db/d19/classslogo_1_1_u_i_1_1_module_creation_helper.html#a69e17abcc7cf9a6ed7261d8fb1d631fa" target="_top" xlink:title="slogo.UI.ModuleCreationHelper.activate\lIncreaseDecreaseButtons">
<polygon fill="white" stroke="black" points="1290.5,-389 1290.5,-419 1495.5,-419 1495.5,-389 1290.5,-389"/>
<text text-anchor="start" x="1298.5" y="-407" font-family="Helvetica,sans-Serif" font-size="10.00">slogo.UI.ModuleCreationHelper.activate</text>
<text text-anchor="middle" x="1393" y="-396" font-family="Helvetica,sans-Serif" font-size="10.00">IncreaseDecreaseButtons</text>
</a>
</g>
</g>
<!-- Node7&#45;&gt;Node8 -->
<g id="edge7" class="edge"><title>Node7&#45;&gt;Node8</title>
<path fill="none" stroke="midnightblue" d="M1186.04,-252.219C1204.78,-284.724 1242.36,-342.06 1290,-374 1299.12,-380.116 1309.51,-385.01 1320.09,-388.919"/>
<polygon fill="midnightblue" stroke="midnightblue" points="1189.01,-250.361 1181.05,-243.368 1182.91,-253.798 1189.01,-250.361"/>
</g>
<!-- Node15 -->
<g id="node15" class="node"><title>Node15</title>
<g id="a_node15"><a xlink:href="../../db/d19/classslogo_1_1_u_i_1_1_module_creation_helper.html#aa70b0ad9e90e62509149bfd2ef2ba209" target="_top" xlink:title="slogo.UI.ModuleCreationHelper.activate\lKeyEvents">
<polygon fill="white" stroke="black" points="2016.5,-136 2016.5,-166 2221.5,-166 2221.5,-136 2016.5,-136"/>
<text text-anchor="start" x="2024.5" y="-154" font-family="Helvetica,sans-Serif" font-size="10.00">slogo.UI.ModuleCreationHelper.activate</text>
<text text-anchor="middle" x="2119" y="-143" font-family="Helvetica,sans-Serif" font-size="10.00">KeyEvents</text>
</a>
</g>
</g>
<!-- Node7&#45;&gt;Node15 -->
<g id="edge15" class="edge"><title>Node7&#45;&gt;Node15</title>
<path fill="none" stroke="midnightblue" d="M1202.18,-207.164C1224.9,-192.251 1257.88,-173.388 1290,-165 1424.15,-129.97 1826.16,-139.777 2016.26,-146.744"/>
<polygon fill="midnightblue" stroke="midnightblue" points="1200.05,-204.378 1193.7,-212.86 1203.95,-210.189 1200.05,-204.378"/>
</g>
<!-- Node16 -->
<g id="node16" class="node"><title>Node16</title>
<g id="a_node16"><a xlink:href="../../db/d19/classslogo_1_1_u_i_1_1_module_creation_helper.html#a2e841243ec3ca474e8822102343acc88" target="_top" xlink:title="slogo.UI.ModuleCreationHelper.activate\lNewTurtleButton">
<polygon fill="white" stroke="black" points="1532.5,-344 1532.5,-374 1737.5,-374 1737.5,-344 1532.5,-344"/>
<text text-anchor="start" x="1540.5" y="-362" font-family="Helvetica,sans-Serif" font-size="10.00">slogo.UI.ModuleCreationHelper.activate</text>
<text text-anchor="middle" x="1635" y="-351" font-family="Helvetica,sans-Serif" font-size="10.00">NewTurtleButton</text>
</a>
</g>
</g>
<!-- Node7&#45;&gt;Node16 -->
<g id="edge17" class="edge"><title>Node7&#45;&gt;Node16</title>
<path fill="none" stroke="midnightblue" d="M1189.02,-251.155C1209.1,-278.009 1246.24,-321.013 1290,-340 1366.41,-373.152 1461.47,-375.86 1532.29,-371.435"/>
<polygon fill="midnightblue" stroke="midnightblue" points="1191.83,-249.073 1183.11,-243.055 1186.18,-253.197 1191.83,-249.073"/>
</g>
<!-- Node18 -->
<g id="node18" class="node"><title>Node18</title>
<g id="a_node18"><a xlink:href="../../db/d19/classslogo_1_1_u_i_1_1_module_creation_helper.html#a9b1f07ab673191067907a059b1b0c524" target="_top" xlink:title="slogo.UI.ModuleCreationHelper.activate\lPlayButton">
<polygon fill="white" stroke="black" points="1290.5,-301 1290.5,-331 1495.5,-331 1495.5,-301 1290.5,-301"/>
<text text-anchor="start" x="1298.5" y="-319" font-family="Helvetica,sans-Serif" font-size="10.00">slogo.UI.ModuleCreationHelper.activate</text>
<text text-anchor="middle" x="1393" y="-308" font-family="Helvetica,sans-Serif" font-size="10.00">PlayButton</text>
</a>
</g>
</g>
<!-- Node7&#45;&gt;Node18 -->
<g id="edge20" class="edge"><title>Node7&#45;&gt;Node18</title>
<path fill="none" stroke="midnightblue" d="M1205.42,-248.354C1228.33,-262.006 1260.16,-279.522 1290,-291 1299.7,-294.73 1310.14,-298.039 1320.5,-300.929"/>
<polygon fill="midnightblue" stroke="midnightblue" points="1207.16,-245.317 1196.79,-243.145 1203.54,-251.31 1207.16,-245.317"/>
</g>
<!-- Node21 -->
<g id="node21" class="node"><title>Node21</title>
<g id="a_node21"><a xlink:href="../../db/d19/classslogo_1_1_u_i_1_1_module_creation_helper.html#a3a38d485562cb17591ec3fd07cffc18a" target="_top" xlink:title="slogo.UI.ModuleCreationHelper.activate\lTurtleCanvas">
<polygon fill="white" stroke="black" points="1774.5,-87 1774.5,-117 1979.5,-117 1979.5,-87 1774.5,-87"/>
<text text-anchor="start" x="1782.5" y="-105" font-family="Helvetica,sans-Serif" font-size="10.00">slogo.UI.ModuleCreationHelper.activate</text>
<text text-anchor="middle" x="1877" y="-94" font-family="Helvetica,sans-Serif" font-size="10.00">TurtleCanvas</text>
</a>
</g>
</g>
<!-- Node7&#45;&gt;Node21 -->
<g id="edge24" class="edge"><title>Node7&#45;&gt;Node21</title>
<path fill="none" stroke="midnightblue" d="M1192.37,-205.232C1213.63,-182.064 1250.1,-147.434 1290,-132 1375.51,-98.92 1630.48,-97.5272 1774.33,-99.6157"/>
<polygon fill="midnightblue" stroke="midnightblue" points="1189.56,-203.115 1185.5,-212.898 1194.78,-207.786 1189.56,-203.115"/>
</g>
<!-- Node23 -->
<g id="node23" class="node"><title>Node23</title>
<g id="a_node23"><a xlink:href="../../d1/d5f/classslogo_1_1_u_i_1_1_path_color_selector.html#ad3d9c82a0904c97edcec7cf67b85bd7b" target="_top" xlink:title="slogo.UI.PathColorSelector.create">
<polygon fill="white" stroke="black" points="1305,-262.5 1305,-281.5 1481,-281.5 1481,-262.5 1305,-262.5"/>
<text text-anchor="middle" x="1393" y="-269.5" font-family="Helvetica,sans-Serif" font-size="10.00">slogo.UI.PathColorSelector.create</text>
</a>
</g>
</g>
<!-- Node7&#45;&gt;Node23 -->
<g id="edge27" class="edge"><title>Node7&#45;&gt;Node23</title>
<path fill="none" stroke="midnightblue" d="M1255.74,-245.065C1267.24,-247.411 1278.91,-249.776 1290,-252 1307.25,-255.46 1326.16,-259.186 1342.95,-262.473"/>
<polygon fill="midnightblue" stroke="midnightblue" points="1256.19,-241.585 1245.69,-243.013 1254.79,-248.443 1256.19,-241.585"/>
</g>
<!-- Node25 -->
<g id="node25" class="node"><title>Node25</title>
<g id="a_node25"><a xlink:href="../../d4/d8d/classslogo_1_1_u_i_1_1_background_color_selector.html#ad75ba4ce104e071811d0fe039a4e839f" target="_top" xlink:title="slogo.UI.BackgroundColor\lSelector.create">
<polygon fill="white" stroke="black" points="1323,-213 1323,-243 1463,-243 1463,-213 1323,-213"/>
<text text-anchor="start" x="1331" y="-231" font-family="Helvetica,sans-Serif" font-size="10.00">slogo.UI.BackgroundColor</text>
<text text-anchor="middle" x="1393" y="-220" font-family="Helvetica,sans-Serif" font-size="10.00">Selector.create</text>
</a>
</g>
</g>
<!-- Node7&#45;&gt;Node25 -->
<g id="edge30" class="edge"><title>Node7&#45;&gt;Node25</title>
<path fill="none" stroke="midnightblue" d="M1258.14,-228C1279.6,-228 1302.37,-228 1322.93,-228"/>
<polygon fill="midnightblue" stroke="midnightblue" points="1258.06,-224.5 1248.06,-228 1258.06,-231.5 1258.06,-224.5"/>
</g>
<!-- Node26 -->
<g id="node26" class="node"><title>Node26</title>
<g id="a_node26"><a xlink:href="../../dd/da7/classslogo_1_1_u_i_1_1_turtle_image_selector.html#a3f268d9196ffebcbb5dc322d2897a9fe" target="_top" xlink:title="slogo.UI.TurtleImageSelector.create">
<polygon fill="white" stroke="black" points="1300,-174.5 1300,-193.5 1486,-193.5 1486,-174.5 1300,-174.5"/>
<text text-anchor="middle" x="1393" y="-181.5" font-family="Helvetica,sans-Serif" font-size="10.00">slogo.UI.TurtleImageSelector.create</text>
</a>
</g>
</g>
<!-- Node7&#45;&gt;Node26 -->
<g id="edge32" class="edge"><title>Node7&#45;&gt;Node26</title>
<path fill="none" stroke="midnightblue" d="M1252.01,-210.821C1264.7,-208.147 1277.71,-205.458 1290,-203 1305.99,-199.804 1323.42,-196.493 1339.27,-193.548"/>
<polygon fill="midnightblue" stroke="midnightblue" points="1250.98,-207.463 1241.92,-212.958 1252.43,-214.311 1250.98,-207.463"/>
</g>
<!-- Node9 -->
<g id="node9" class="node"><title>Node9</title>
<g id="a_node9"><a xlink:href="../../db/d19/classslogo_1_1_u_i_1_1_module_creation_helper.html#adce7362386f9a7b3006e7db08a2d578d" target="_top" xlink:title="slogo.UI.ModuleCreationHelper.create\lIncreaseDecreaseButtons">
<polygon fill="white" stroke="black" points="1778.5,-380 1778.5,-410 1975.5,-410 1975.5,-380 1778.5,-380"/>
<text text-anchor="start" x="1786.5" y="-398" font-family="Helvetica,sans-Serif" font-size="10.00">slogo.UI.ModuleCreationHelper.create</text>
<text text-anchor="middle" x="1877" y="-387" font-family="Helvetica,sans-Serif" font-size="10.00">IncreaseDecreaseButtons</text>
</a>
</g>
</g>
<!-- Node8&#45;&gt;Node9 -->
<g id="edge8" class="edge"><title>Node8&#45;&gt;Node9</title>
<path fill="none" stroke="midnightblue" d="M1505.79,-401.913C1588.23,-400.373 1699.29,-398.299 1778.21,-396.826"/>
<polygon fill="midnightblue" stroke="midnightblue" points="1505.56,-398.416 1495.63,-402.102 1505.69,-405.415 1505.56,-398.416"/>
</g>
<!-- Node10 -->
<g id="node10" class="node"><title>Node10</title>
<g id="a_node10"><a xlink:href="../../db/d19/classslogo_1_1_u_i_1_1_module_creation_helper.html#a7c650957b2389d6e6d36e8be8a33cd2b" target="_top" xlink:title="slogo.UI.ModuleCreationHelper.create\lSelectorVBoxModules">
<polygon fill="white" stroke="black" points="2020.5,-253 2020.5,-283 2217.5,-283 2217.5,-253 2020.5,-253"/>
<text text-anchor="start" x="2028.5" y="-271" font-family="Helvetica,sans-Serif" font-size="10.00">slogo.UI.ModuleCreationHelper.create</text>
<text text-anchor="middle" x="2119" y="-260" font-family="Helvetica,sans-Serif" font-size="10.00">SelectorVBoxModules</text>
</a>
</g>
</g>
<!-- Node9&#45;&gt;Node10 -->
<g id="edge9" class="edge"><title>Node9&#45;&gt;Node10</title>
<path fill="none" stroke="midnightblue" d="M1961,-376.732C1967.54,-374.424 1973.95,-371.854 1980,-369 2028.6,-346.077 2077.46,-305.079 2101.92,-283.025"/>
<polygon fill="midnightblue" stroke="midnightblue" points="1959.75,-373.461 1951.36,-379.93 1961.95,-380.105 1959.75,-373.461"/>
</g>
<!-- Node11 -->
<g id="node11" class="node"><title>Node11</title>
<g id="a_node11"><a xlink:href="../../db/d19/classslogo_1_1_u_i_1_1_module_creation_helper.html#afb9dbbbad7d872234a5b296fe129a34e" target="_top" xlink:title="slogo.UI.ModuleCreationHelper.create\lMainPageModules">
<polygon fill="white" stroke="black" points="2258.5,-136 2258.5,-166 2455.5,-166 2455.5,-136 2258.5,-136"/>
<text text-anchor="start" x="2266.5" y="-154" font-family="Helvetica,sans-Serif" font-size="10.00">slogo.UI.ModuleCreationHelper.create</text>
<text text-anchor="middle" x="2357" y="-143" font-family="Helvetica,sans-Serif" font-size="10.00">MainPageModules</text>
</a>
</g>
</g>
<!-- Node10&#45;&gt;Node11 -->
<g id="edge10" class="edge"><title>Node10&#45;&gt;Node11</title>
<path fill="none" stroke="midnightblue" d="M2159.58,-248.38C2206.29,-225.222 2282.96,-187.212 2325.37,-166.184"/>
<polygon fill="midnightblue" stroke="midnightblue" points="2157.77,-245.366 2150.37,-252.944 2160.88,-251.638 2157.77,-245.366"/>
</g>
<!-- Node12 -->
<g id="node12" class="node"><title>Node12</title>
<g id="a_node12"><a xlink:href="../../d9/d33/classslogo_1_1_u_i_1_1_main.html#a15b7f2e399ee24d160550993ab737e73" target="_top" xlink:title="slogo.UI.Main.start">
<polygon fill="white" stroke="black" points="2492,-150.5 2492,-169.5 2598,-169.5 2598,-150.5 2492,-150.5"/>
<text text-anchor="middle" x="2545" y="-157.5" font-family="Helvetica,sans-Serif" font-size="10.00">slogo.UI.Main.start</text>
</a>
</g>
</g>
<!-- Node11&#45;&gt;Node12 -->
<g id="edge11" class="edge"><title>Node11&#45;&gt;Node12</title>
<path fill="none" stroke="midnightblue" d="M2465.8,-156.216C2474.76,-156.65 2483.53,-157.074 2491.76,-157.472"/>
<polygon fill="midnightblue" stroke="midnightblue" points="2465.79,-152.712 2455.63,-155.724 2465.45,-159.703 2465.79,-152.712"/>
</g>
<!-- Node13 -->
<g id="node13" class="node"><title>Node13</title>
<g id="a_node13"><a xlink:href="../../db/d19/classslogo_1_1_u_i_1_1_module_creation_helper.html#a3be12a7cc2b8a219db1e296211a2cb88" target="_top" xlink:title="slogo.UI.ModuleCreationHelper.activate\lExtraWorkspaceButton">
<polygon fill="white" stroke="black" points="2634.5,-163 2634.5,-193 2839.5,-193 2839.5,-163 2634.5,-163"/>
<text text-anchor="start" x="2642.5" y="-181" font-family="Helvetica,sans-Serif" font-size="10.00">slogo.UI.ModuleCreationHelper.activate</text>
<text text-anchor="middle" x="2737" y="-170" font-family="Helvetica,sans-Serif" font-size="10.00">ExtraWorkspaceButton</text>
</a>
</g>
</g>
<!-- Node12&#45;&gt;Node13 -->
<g id="edge12" class="edge"><title>Node12&#45;&gt;Node13</title>
<path fill="none" stroke="midnightblue" d="M2608.22,-165.894C2616.63,-166.691 2625.44,-167.526 2634.32,-168.367"/>
<polygon fill="midnightblue" stroke="midnightblue" points="2608.46,-162.401 2598.17,-164.942 2607.79,-169.37 2608.46,-162.401"/>
</g>
<!-- Node14 -->
<g id="node14" class="node"><title>Node14</title>
<g id="a_node14"><a xlink:href="../../db/d19/classslogo_1_1_u_i_1_1_module_creation_helper.html#a702c1ebe24d2857a10c666eb1fcc315d" target="_top" xlink:title="slogo.UI.ModuleCreationHelper.create\lExtraWorkspaceButton">
<polygon fill="white" stroke="black" points="2876.5,-189 2876.5,-219 3073.5,-219 3073.5,-189 2876.5,-189"/>
<text text-anchor="start" x="2884.5" y="-207" font-family="Helvetica,sans-Serif" font-size="10.00">slogo.UI.ModuleCreationHelper.create</text>
<text text-anchor="middle" x="2975" y="-196" font-family="Helvetica,sans-Serif" font-size="10.00">ExtraWorkspaceButton</text>
</a>
</g>
</g>
<!-- Node13&#45;&gt;Node14 -->
<g id="edge13" class="edge"><title>Node13&#45;&gt;Node14</title>
<path fill="none" stroke="midnightblue" d="M2849.77,-190.313C2858.62,-191.289 2867.52,-192.27 2876.27,-193.234"/>
<polygon fill="midnightblue" stroke="midnightblue" points="2850.12,-186.831 2839.8,-189.215 2849.35,-193.789 2850.12,-186.831"/>
</g>
<!-- Node14&#45;&gt;Node10 -->
<g id="edge14" class="edge"><title>Node14&#45;&gt;Node10</title>
<path fill="none" stroke="midnightblue" d="M2866.34,-212.068C2698.9,-224.617 2378.6,-248.62 2217.55,-260.69"/>
<polygon fill="midnightblue" stroke="midnightblue" points="2866.7,-215.551 2876.41,-211.313 2866.18,-208.571 2866.7,-215.551"/>
</g>
<!-- Node15&#45;&gt;Node11 -->
<g id="edge16" class="edge"><title>Node15&#45;&gt;Node11</title>
<path fill="none" stroke="midnightblue" d="M2232.05,-151C2240.81,-151 2249.62,-151 2258.27,-151"/>
<polygon fill="midnightblue" stroke="midnightblue" points="2231.8,-147.5 2221.8,-151 2231.8,-154.5 2231.8,-147.5"/>
</g>
<!-- Node17 -->
<g id="node17" class="node"><title>Node17</title>
<g id="a_node17"><a xlink:href="../../db/d19/classslogo_1_1_u_i_1_1_module_creation_helper.html#a07f5483df317cdf80e8ea2dda5699afa" target="_top" xlink:title="slogo.UI.ModuleCreationHelper.create\lNewTurtleButton">
<polygon fill="white" stroke="black" points="1778.5,-330 1778.5,-360 1975.5,-360 1975.5,-330 1778.5,-330"/>
<text text-anchor="start" x="1786.5" y="-348" font-family="Helvetica,sans-Serif" font-size="10.00">slogo.UI.ModuleCreationHelper.create</text>
<text text-anchor="middle" x="1877" y="-337" font-family="Helvetica,sans-Serif" font-size="10.00">NewTurtleButton</text>
</a>
</g>
</g>
<!-- Node16&#45;&gt;Node17 -->
<g id="edge18" class="edge"><title>Node16&#45;&gt;Node17</title>
<path fill="none" stroke="midnightblue" d="M1747.89,-352.473C1758.04,-351.881 1768.26,-351.285 1778.27,-350.701"/>
<polygon fill="midnightblue" stroke="midnightblue" points="1747.56,-348.986 1737.78,-353.063 1747.97,-355.974 1747.56,-348.986"/>
</g>
<!-- Node17&#45;&gt;Node10 -->
<g id="edge19" class="edge"><title>Node17&#45;&gt;Node10</title>
<path fill="none" stroke="midnightblue" d="M1948.15,-327.309C1958.87,-324.354 1969.76,-321.203 1980,-318 2013.93,-307.387 2051.86,-293.493 2079.35,-283.046"/>
<polygon fill="midnightblue" stroke="midnightblue" points="1947.12,-323.962 1938.39,-329.963 1948.96,-330.717 1947.12,-323.962"/>
</g>
<!-- Node19 -->
<g id="node19" class="node"><title>Node19</title>
<g id="a_node19"><a xlink:href="../../db/d19/classslogo_1_1_u_i_1_1_module_creation_helper.html#a9b3fb38a55b3b7812b4f793afa7a974f" target="_top" xlink:title="slogo.UI.ModuleCreationHelper.create\lPlayButton">
<polygon fill="white" stroke="black" points="1536.5,-295 1536.5,-325 1733.5,-325 1733.5,-295 1536.5,-295"/>
<text text-anchor="start" x="1544.5" y="-313" font-family="Helvetica,sans-Serif" font-size="10.00">slogo.UI.ModuleCreationHelper.create</text>
<text text-anchor="middle" x="1635" y="-302" font-family="Helvetica,sans-Serif" font-size="10.00">PlayButton</text>
</a>
</g>
</g>
<!-- Node18&#45;&gt;Node19 -->
<g id="edge21" class="edge"><title>Node18&#45;&gt;Node19</title>
<path fill="none" stroke="midnightblue" d="M1505.89,-313.203C1516.04,-312.949 1526.26,-312.694 1536.27,-312.443"/>
<polygon fill="midnightblue" stroke="midnightblue" points="1505.69,-309.707 1495.78,-313.455 1505.87,-316.704 1505.69,-309.707"/>
</g>
<!-- Node20 -->
<g id="node20" class="node"><title>Node20</title>
<g id="a_node20"><a xlink:href="../../db/d19/classslogo_1_1_u_i_1_1_module_creation_helper.html#ae1e60d37509c2e5eddcb2a6e70b4f650" target="_top" xlink:title="slogo.UI.ModuleCreationHelper.create\lFirstRowButtons">
<polygon fill="white" stroke="black" points="1778.5,-279 1778.5,-309 1975.5,-309 1975.5,-279 1778.5,-279"/>
<text text-anchor="start" x="1786.5" y="-297" font-family="Helvetica,sans-Serif" font-size="10.00">slogo.UI.ModuleCreationHelper.create</text>
<text text-anchor="middle" x="1877" y="-286" font-family="Helvetica,sans-Serif" font-size="10.00">FirstRowButtons</text>
</a>
</g>
</g>
<!-- Node19&#45;&gt;Node20 -->
<g id="edge22" class="edge"><title>Node19&#45;&gt;Node20</title>
<path fill="none" stroke="midnightblue" d="M1743.73,-302.818C1755.3,-302.046 1767.03,-301.265 1778.47,-300.502"/>
<polygon fill="midnightblue" stroke="midnightblue" points="1743.36,-299.335 1733.62,-303.492 1743.83,-306.319 1743.36,-299.335"/>
</g>
<!-- Node20&#45;&gt;Node10 -->
<g id="edge23" class="edge"><title>Node20&#45;&gt;Node10</title>
<path fill="none" stroke="midnightblue" d="M1985.73,-282.329C1997.3,-281.075 2009.03,-279.805 2020.47,-278.566"/>
<polygon fill="midnightblue" stroke="midnightblue" points="1985.18,-278.868 1975.62,-283.425 1985.94,-285.827 1985.18,-278.868"/>
</g>
<!-- Node22 -->
<g id="node22" class="node"><title>Node22</title>
<g id="a_node22"><a xlink:href="../../db/d19/classslogo_1_1_u_i_1_1_module_creation_helper.html#a803bac6b55bde712b21f2face1eeef81" target="_top" xlink:title="slogo.UI.ModuleCreationHelper.create\lTurtleCanvas">
<polygon fill="white" stroke="black" points="2020.5,-87 2020.5,-117 2217.5,-117 2217.5,-87 2020.5,-87"/>
<text text-anchor="start" x="2028.5" y="-105" font-family="Helvetica,sans-Serif" font-size="10.00">slogo.UI.ModuleCreationHelper.create</text>
<text text-anchor="middle" x="2119" y="-94" font-family="Helvetica,sans-Serif" font-size="10.00">TurtleCanvas</text>
</a>
</g>
</g>
<!-- Node21&#45;&gt;Node22 -->
<g id="edge25" class="edge"><title>Node21&#45;&gt;Node22</title>
<path fill="none" stroke="midnightblue" d="M1989.89,-102C2000.04,-102 2010.26,-102 2020.27,-102"/>
<polygon fill="midnightblue" stroke="midnightblue" points="1989.78,-98.5001 1979.78,-102 1989.78,-105.5 1989.78,-98.5001"/>
</g>
<!-- Node22&#45;&gt;Node11 -->
<g id="edge26" class="edge"><title>Node22&#45;&gt;Node11</title>
<path fill="none" stroke="midnightblue" d="M2202.42,-119.113C2228.9,-124.611 2258.03,-130.658 2283.73,-135.994"/>
<polygon fill="midnightblue" stroke="midnightblue" points="2202.91,-115.641 2192.41,-117.035 2201.49,-122.495 2202.91,-115.641"/>
</g>
<!-- Node24 -->
<g id="node24" class="node"><title>Node24</title>
<g id="a_node24"><a xlink:href="../../db/d19/classslogo_1_1_u_i_1_1_module_creation_helper.html#af7f2919454fdbf6e9d7d912e99634857" target="_top" xlink:title="slogo.UI.ModuleCreationHelper.create\lSelectors">
<polygon fill="white" stroke="black" points="1536.5,-230 1536.5,-260 1733.5,-260 1733.5,-230 1536.5,-230"/>
<text text-anchor="start" x="1544.5" y="-248" font-family="Helvetica,sans-Serif" font-size="10.00">slogo.UI.ModuleCreationHelper.create</text>
<text text-anchor="middle" x="1635" y="-237" font-family="Helvetica,sans-Serif" font-size="10.00">Selectors</text>
</a>
</g>
</g>
<!-- Node23&#45;&gt;Node24 -->
<g id="edge28" class="edge"><title>Node23&#45;&gt;Node24</title>
<path fill="none" stroke="midnightblue" d="M1488.76,-261.339C1504.36,-259.585 1520.54,-257.764 1536.21,-256.002"/>
<polygon fill="midnightblue" stroke="midnightblue" points="1488.16,-257.885 1478.62,-262.481 1488.94,-264.841 1488.16,-257.885"/>
</g>
<!-- Node24&#45;&gt;Node10 -->
<g id="edge29" class="edge"><title>Node24&#45;&gt;Node10</title>
<path fill="none" stroke="midnightblue" d="M1743.74,-250.141C1826.55,-254.092 1939.97,-259.505 2020.19,-263.333"/>
<polygon fill="midnightblue" stroke="midnightblue" points="1743.7,-246.635 1733.54,-249.654 1743.36,-253.627 1743.7,-246.635"/>
</g>
<!-- Node25&#45;&gt;Node24 -->
<g id="edge31" class="edge"><title>Node25&#45;&gt;Node24</title>
<path fill="none" stroke="midnightblue" d="M1473.18,-233.609C1493.4,-235.041 1515.37,-236.597 1536.39,-238.086"/>
<polygon fill="midnightblue" stroke="midnightblue" points="1473.32,-230.11 1463.1,-232.894 1472.82,-237.092 1473.32,-230.11"/>
</g>
<!-- Node26&#45;&gt;Node24 -->
<g id="edge33" class="edge"><title>Node26&#45;&gt;Node24</title>
<path fill="none" stroke="midnightblue" d="M1461.48,-195.473C1473.04,-197.752 1484.9,-200.287 1496,-203 1527.38,-210.673 1562.18,-221.278 1588.98,-229.911"/>
<polygon fill="midnightblue" stroke="midnightblue" points="1461.9,-191.99 1451.42,-193.539 1460.58,-198.864 1461.9,-191.99"/>
</g>
<!-- Node28 -->
<g id="node28" class="node"><title>Node28</title>
<g id="a_node28"><a xlink:href="../../db/d19/classslogo_1_1_u_i_1_1_module_creation_helper.html#a9fd730f7c1860d34bf4ac46c3828bd59" target="_top" xlink:title="slogo.UI.ModuleCreationHelper.activate\lStepIntoButton">
<polygon fill="white" stroke="black" points="1290.5,-49 1290.5,-79 1495.5,-79 1495.5,-49 1290.5,-49"/>
<text text-anchor="start" x="1298.5" y="-67" font-family="Helvetica,sans-Serif" font-size="10.00">slogo.UI.ModuleCreationHelper.activate</text>
<text text-anchor="middle" x="1393" y="-56" font-family="Helvetica,sans-Serif" font-size="10.00">StepIntoButton</text>
</a>
</g>
</g>
<!-- Node27&#45;&gt;Node28 -->
<g id="edge35" class="edge"><title>Node27&#45;&gt;Node28</title>
<path fill="none" stroke="midnightblue" d="M1261.33,-64C1270.82,-64 1280.54,-64 1290.17,-64"/>
<polygon fill="midnightblue" stroke="midnightblue" points="1261.14,-60.5001 1251.14,-64 1261.14,-67.5001 1261.14,-60.5001"/>
</g>
<!-- Node29 -->
<g id="node29" class="node"><title>Node29</title>
<g id="a_node29"><a xlink:href="../../db/d19/classslogo_1_1_u_i_1_1_module_creation_helper.html#a4a6f1f009507c25be8c7c28cbba35f3b" target="_top" xlink:title="slogo.UI.ModuleCreationHelper.create\lDebugStepIntoButton">
<polygon fill="white" stroke="black" points="1536.5,-49 1536.5,-79 1733.5,-79 1733.5,-49 1536.5,-49"/>
<text text-anchor="start" x="1544.5" y="-67" font-family="Helvetica,sans-Serif" font-size="10.00">slogo.UI.ModuleCreationHelper.create</text>
<text text-anchor="middle" x="1635" y="-56" font-family="Helvetica,sans-Serif" font-size="10.00">DebugStepIntoButton</text>
</a>
</g>
</g>
<!-- Node28&#45;&gt;Node29 -->
<g id="edge36" class="edge"><title>Node28&#45;&gt;Node29</title>
<path fill="none" stroke="midnightblue" d="M1505.89,-64C1516.04,-64 1526.26,-64 1536.27,-64"/>
<polygon fill="midnightblue" stroke="midnightblue" points="1505.78,-60.5001 1495.78,-64 1505.78,-67.5001 1505.78,-60.5001"/>
</g>
<!-- Node30 -->
<g id="node30" class="node"><title>Node30</title>
<g id="a_node30"><a xlink:href="../../db/d19/classslogo_1_1_u_i_1_1_module_creation_helper.html#a975af4ea47dc85df72215bdf1a0d20ce" target="_top" xlink:title="slogo.UI.ModuleCreationHelper.create\lDebugModules">
<polygon fill="white" stroke="black" points="1778.5,-38 1778.5,-68 1975.5,-68 1975.5,-38 1778.5,-38"/>
<text text-anchor="start" x="1786.5" y="-56" font-family="Helvetica,sans-Serif" font-size="10.00">slogo.UI.ModuleCreationHelper.create</text>
<text text-anchor="middle" x="1877" y="-45" font-family="Helvetica,sans-Serif" font-size="10.00">DebugModules</text>
</a>
</g>
</g>
<!-- Node29&#45;&gt;Node30 -->
<g id="edge37" class="edge"><title>Node29&#45;&gt;Node30</title>
<path fill="none" stroke="midnightblue" d="M1743.73,-59.0622C1755.3,-58.5319 1767.03,-57.9945 1778.47,-57.4702"/>
<polygon fill="midnightblue" stroke="midnightblue" points="1743.45,-55.5716 1733.62,-59.5259 1743.77,-62.5643 1743.45,-55.5716"/>
</g>
<!-- Node30&#45;&gt;Node11 -->
<g id="edge38" class="edge"><title>Node30&#45;&gt;Node11</title>
<path fill="none" stroke="midnightblue" d="M1985.63,-48.679C2054.53,-48.779 2145.11,-54.2973 2222,-77 2265.33,-89.7936 2310.2,-118.228 2335.46,-135.889"/>
<polygon fill="midnightblue" stroke="midnightblue" points="1985.61,-45.1789 1975.62,-48.7021 1985.63,-52.1789 1985.61,-45.1789"/>
</g>
<!-- Node32 -->
<g id="node32" class="node"><title>Node32</title>
<g id="a_node32"><a xlink:href="../../db/d19/classslogo_1_1_u_i_1_1_module_creation_helper.html#a0fed0bb32bf2643d6fd5c24d82e8e18e" target="_top" xlink:title="slogo.UI.ModuleCreationHelper.activate\lStepOverButton">
<polygon fill="white" stroke="black" points="1290.5,-0 1290.5,-30 1495.5,-30 1495.5,-0 1290.5,-0"/>
<text text-anchor="start" x="1298.5" y="-18" font-family="Helvetica,sans-Serif" font-size="10.00">slogo.UI.ModuleCreationHelper.activate</text>
<text text-anchor="middle" x="1393" y="-7" font-family="Helvetica,sans-Serif" font-size="10.00">StepOverButton</text>
</a>
</g>
</g>
<!-- Node31&#45;&gt;Node32 -->
<g id="edge40" class="edge"><title>Node31&#45;&gt;Node32</title>
<path fill="none" stroke="midnightblue" d="M1263.8,-18.5123C1272.56,-18.2724 1281.48,-18.028 1290.33,-17.7856"/>
<polygon fill="midnightblue" stroke="midnightblue" points="1263.51,-15.0187 1253.61,-18.7914 1263.71,-22.0161 1263.51,-15.0187"/>
</g>
<!-- Node33 -->
<g id="node33" class="node"><title>Node33</title>
<g id="a_node33"><a xlink:href="../../db/d19/classslogo_1_1_u_i_1_1_module_creation_helper.html#aa1e7dc2b509360583790fba0d3819c8d" target="_top" xlink:title="slogo.UI.ModuleCreationHelper.create\lDebugStepOverButton">
<polygon fill="white" stroke="black" points="1536.5,-0 1536.5,-30 1733.5,-30 1733.5,-0 1536.5,-0"/>
<text text-anchor="start" x="1544.5" y="-18" font-family="Helvetica,sans-Serif" font-size="10.00">slogo.UI.ModuleCreationHelper.create</text>
<text text-anchor="middle" x="1635" y="-7" font-family="Helvetica,sans-Serif" font-size="10.00">DebugStepOverButton</text>
</a>
</g>
</g>
<!-- Node32&#45;&gt;Node33 -->
<g id="edge41" class="edge"><title>Node32&#45;&gt;Node33</title>
<path fill="none" stroke="midnightblue" d="M1505.89,-15C1516.04,-15 1526.26,-15 1536.27,-15"/>
<polygon fill="midnightblue" stroke="midnightblue" points="1505.78,-11.5001 1495.78,-15 1505.78,-18.5001 1505.78,-11.5001"/>
</g>
<!-- Node33&#45;&gt;Node30 -->
<g id="edge42" class="edge"><title>Node33&#45;&gt;Node30</title>
<path fill="none" stroke="midnightblue" d="M1740.99,-31.6227C1754.31,-33.7329 1767.89,-35.8827 1781.05,-37.966"/>
<polygon fill="midnightblue" stroke="midnightblue" points="1741.28,-28.1256 1730.85,-30.0186 1740.18,-35.0395 1741.28,-28.1256"/>
</g>
</g>
</svg>
