<?xml version="1.0" encoding="UTF-8" standalone="no"?>
<!DOCTYPE svg PUBLIC "-//W3C//DTD SVG 1.1//EN"
 "http://www.w3.org/Graphics/SVG/1.1/DTD/svg11.dtd">
<!-- Generated by graphviz version 2.36.0 (20140111.2315)
 -->
<!-- Title: slogo.backend.impl.util.Qualities.index Pages: 1 -->
<!--zoomable 427 -->
<svg id="main" version="1.1" xmlns="http://www.w3.org/2000/svg" xmlns:xlink="http://www.w3.org/1999/xlink" xml:space="preserve" onload="init(evt)">
<style type="text/css"><![CDATA[
.edge:hover path { stroke: red; }
.edge:hover polygon { stroke: red; fill: red; }
]]></style>
<script type="text/javascript"><![CDATA[
var edges = document.getElementsByTagName('g');
if (edges && edges.length) {
  for (var i=0;i<edges.length;i++) {
    if (edges[i].id.substr(0,4)=='edge') {
      edges[i].setAttribute('class','edge');
    }
  }
}
]]></script>
        <defs>
                <circle id="rim" cx="0" cy="0" r="7"/>
                <circle id="rim2" cx="0" cy="0" r="3.5"/>
                <g id="zoomPlus">
                        <use xlink:href="#rim" fill="#404040">
                                <set attributeName="fill" to="#808080" begin="zoomplus.mouseover" end="zoomplus.mouseout"/>
                        </use>
                        <path d="M-4,0h8M0,-4v8" fill="none" stroke="white" stroke-width="1.5" pointer-events="none"/>
                </g>
                <g id="zoomMin">
                        <use xlink:href="#rim" fill="#404040">
                                <set attributeName="fill" to="#808080" begin="zoomminus.mouseover" end="zoomminus.mouseout"/>
                        </use>
                        <path d="M-4,0h8" fill="none" stroke="white" stroke-width="1.5" pointer-events="none"/>
                </g>
                <g id="dirArrow">
                        <path fill="none" stroke="white" stroke-width="1.5" d="M0,-3.0v7 M-2.5,-0.5L0,-3.0L2.5,-0.5"/>
                </g>
               <g id="resetDef">
                       <use xlink:href="#rim2" fill="#404040">
                               <set attributeName="fill" to="#808080" begin="reset.mouseover" end="reset.mouseout"/>
                       </use>
               </g>
        </defs>

<script type="text/javascript">
var viewWidth = 3218;
var viewHeight = 427;
var sectionId = 'dynsection-2';
</script>
<script xlink:href="../../svgpan.js"/>
<svg id="graph" class="graph">
<g id="viewport">
<title>slogo.backend.impl.util.Qualities.index</title>
<polygon fill="white" stroke="none" points="-4,4 -4,-423 3214,-423 3214,4 -4,4"/>
<!-- Node1 -->
<g id="node1" class="node"><title>Node1</title>
<polygon fill="#bfbfbf" stroke="black" points="0.5,-122 0.5,-152 129.5,-152 129.5,-122 0.5,-122"/>
<text text-anchor="start" x="8.5" y="-140" font-family="Helvetica,sans-Serif" font-size="10.00">slogo.backend.impl.util.</text>
<text text-anchor="middle" x="65" y="-129" font-family="Helvetica,sans-Serif" font-size="10.00">Qualities.index</text>
</g>
<!-- Node2 -->
<g id="node2" class="node"><title>Node2</title>
<g id="a_node2"><a xlink:href="../../da/d18/classslogo_1_1backend_1_1impl_1_1evaluation_1_1commands_1_1turtlestatus_1_1_set_background.html#a6df9dc8998480d34bbdc1d08a99c5975" target="_top" xlink:title="slogo.backend.impl.evaluation.commands.turtlestatus.\lSetBackground.executeRaw">
<polygon fill="white" stroke="black" points="166,-196 166,-226 446,-226 446,-196 166,-196"/>
<text text-anchor="start" x="174" y="-214" font-family="Helvetica,sans-Serif" font-size="10.00">slogo.backend.impl.evaluation.commands.turtlestatus.</text>
<text text-anchor="middle" x="306" y="-203" font-family="Helvetica,sans-Serif" font-size="10.00">SetBackground.executeRaw</text>
</a>
</g>
</g>
<!-- Node1&#45;&gt;Node2 -->
<g id="edge1" class="edge"><title>Node1&#45;&gt;Node2</title>
<path fill="none" stroke="midnightblue" d="M100.681,-156.963C119.478,-167.012 143.423,-178.599 166,-186 177.766,-189.857 190.299,-193.165 202.839,-195.991"/>
<polygon fill="midnightblue" stroke="midnightblue" points="102.351,-153.888 91.8953,-152.179 99.0037,-160.035 102.351,-153.888"/>
</g>
<!-- Node3 -->
<g id="node3" class="node"><title>Node3</title>
<g id="a_node3"><a xlink:href="../../d4/d26/classslogo_1_1backend_1_1impl_1_1evaluation_1_1commands_1_1turtlestatus_1_1_set_pen_color.html#a426c2364ca77893ff1437b883b0ccfd4" target="_top" xlink:title="slogo.backend.impl.evaluation.commands.turtlestatus.\lSetPenColor.executeRaw">
<polygon fill="white" stroke="black" points="166,-147 166,-177 446,-177 446,-147 166,-147"/>
<text text-anchor="start" x="174" y="-165" font-family="Helvetica,sans-Serif" font-size="10.00">slogo.backend.impl.evaluation.commands.turtlestatus.</text>
<text text-anchor="middle" x="306" y="-154" font-family="Helvetica,sans-Serif" font-size="10.00">SetPenColor.executeRaw</text>
</a>
</g>
</g>
<!-- Node1&#45;&gt;Node3 -->
<g id="edge2" class="edge"><title>Node1&#45;&gt;Node3</title>
<path fill="none" stroke="midnightblue" d="M139.77,-144.716C148.152,-145.593 156.888,-146.507 165.774,-147.437"/>
<polygon fill="midnightblue" stroke="midnightblue" points="140.044,-141.226 129.734,-143.667 139.315,-148.188 140.044,-141.226"/>
</g>
<!-- Node4 -->
<g id="node4" class="node"><title>Node4</title>
<g id="a_node4"><a xlink:href="../../da/dd9/classslogo_1_1backend_1_1impl_1_1evaluation_1_1commands_1_1turtlestatus_1_1_set_pen_size.html#adfa73c25a598a2045136e80b76125e32" target="_top" xlink:title="slogo.backend.impl.evaluation.commands.turtlestatus.\lSetPenSize.executeRaw">
<polygon fill="white" stroke="black" points="166,-98 166,-128 446,-128 446,-98 166,-98"/>
<text text-anchor="start" x="174" y="-116" font-family="Helvetica,sans-Serif" font-size="10.00">slogo.backend.impl.evaluation.commands.turtlestatus.</text>
<text text-anchor="middle" x="306" y="-105" font-family="Helvetica,sans-Serif" font-size="10.00">SetPenSize.executeRaw</text>
</a>
</g>
</g>
<!-- Node1&#45;&gt;Node4 -->
<g id="edge3" class="edge"><title>Node1&#45;&gt;Node4</title>
<path fill="none" stroke="midnightblue" d="M139.77,-129.592C148.152,-128.75 156.888,-127.873 165.774,-126.981"/>
<polygon fill="midnightblue" stroke="midnightblue" points="139.334,-126.118 129.734,-130.6 140.033,-133.083 139.334,-126.118"/>
</g>
<!-- Node5 -->
<g id="node5" class="node"><title>Node5</title>
<g id="a_node5"><a xlink:href="../../d9/d7e/classslogo_1_1_u_i_1_1_method_runner.html#a7acbc486941b60522435d579c227d6db" target="_top" xlink:title="slogo.UI.MethodRunner.set\lTurtleImage">
<polygon fill="white" stroke="black" points="234,-49 234,-79 378,-79 378,-49 234,-49"/>
<text text-anchor="start" x="242" y="-67" font-family="Helvetica,sans-Serif" font-size="10.00">slogo.UI.MethodRunner.set</text>
<text text-anchor="middle" x="306" y="-56" font-family="Helvetica,sans-Serif" font-size="10.00">TurtleImage</text>
</a>
</g>
</g>
<!-- Node1&#45;&gt;Node5 -->
<g id="edge4" class="edge"><title>Node1&#45;&gt;Node5</title>
<path fill="none" stroke="midnightblue" d="M100.267,-117.184C119.117,-107.068 143.24,-95.3736 166,-88 187.55,-81.0186 211.674,-75.949 233.699,-72.3211"/>
<polygon fill="midnightblue" stroke="midnightblue" points="98.5601,-114.128 91.4658,-121.997 101.919,-120.269 98.5601,-114.128"/>
</g>
<!-- Node6 -->
<g id="node6" class="node"><title>Node6</title>
<g id="a_node6"><a xlink:href="../../d9/d7e/classslogo_1_1_u_i_1_1_method_runner.html#a5e01d88aabd60df2be9ebb5b874837b1" target="_top" xlink:title="slogo.UI.MethodRunner.set\lPenAttributes">
<polygon fill="white" stroke="black" points="482,-49 482,-79 626,-79 626,-49 482,-49"/>
<text text-anchor="start" x="490" y="-67" font-family="Helvetica,sans-Serif" font-size="10.00">slogo.UI.MethodRunner.set</text>
<text text-anchor="middle" x="554" y="-56" font-family="Helvetica,sans-Serif" font-size="10.00">PenAttributes</text>
</a>
</g>
</g>
<!-- Node5&#45;&gt;Node6 -->
<g id="edge5" class="edge"><title>Node5&#45;&gt;Node6</title>
<path fill="none" stroke="midnightblue" d="M388.225,-64C418.389,-64 452.357,-64 481.581,-64"/>
<polygon fill="midnightblue" stroke="midnightblue" points="388.153,-60.5001 378.153,-64 388.153,-67.5001 388.153,-60.5001"/>
</g>
<!-- Node7 -->
<g id="node7" class="node"><title>Node7</title>
<g id="a_node7"><a xlink:href="../../d9/d7e/classslogo_1_1_u_i_1_1_method_runner.html#a5fe4a6310ba1b0851d7d30a440511324" target="_top" xlink:title="slogo.UI.MethodRunner.change\lTurtle">
<polygon fill="white" stroke="black" points="662,-49 662,-79 826,-79 826,-49 662,-49"/>
<text text-anchor="start" x="670" y="-67" font-family="Helvetica,sans-Serif" font-size="10.00">slogo.UI.MethodRunner.change</text>
<text text-anchor="middle" x="744" y="-56" font-family="Helvetica,sans-Serif" font-size="10.00">Turtle</text>
</a>
</g>
</g>
<!-- Node6&#45;&gt;Node7 -->
<g id="edge6" class="edge"><title>Node6&#45;&gt;Node7</title>
<path fill="none" stroke="midnightblue" d="M636.28,-64C644.719,-64 653.298,-64 661.736,-64"/>
<polygon fill="midnightblue" stroke="midnightblue" points="636.075,-60.5001 626.075,-64 636.075,-67.5001 636.075,-60.5001"/>
</g>
<!-- Node8 -->
<g id="node8" class="node"><title>Node8</title>
<g id="a_node8"><a xlink:href="../../df/d2d/classslogo_1_1_view.html#accc79c56511a72090ff8a4d414b8d1f5" target="_top" xlink:title="slogo.View.executeTurtle\lCommands">
<polygon fill="white" stroke="black" points="862.5,-49 862.5,-79 995.5,-79 995.5,-49 862.5,-49"/>
<text text-anchor="start" x="870.5" y="-67" font-family="Helvetica,sans-Serif" font-size="10.00">slogo.View.executeTurtle</text>
<text text-anchor="middle" x="929" y="-56" font-family="Helvetica,sans-Serif" font-size="10.00">Commands</text>
</a>
</g>
</g>
<!-- Node7&#45;&gt;Node8 -->
<g id="edge7" class="edge"><title>Node7&#45;&gt;Node8</title>
<path fill="none" stroke="midnightblue" d="M836.35,-64C845.128,-64 853.907,-64 862.365,-64"/>
<polygon fill="midnightblue" stroke="midnightblue" points="836.066,-60.5001 826.066,-64 836.066,-67.5001 836.066,-60.5001"/>
</g>
<!-- Node9 -->
<g id="node9" class="node"><title>Node9</title>
<g id="a_node9"><a xlink:href="../../df/d2d/classslogo_1_1_view.html#aa90e5d95d422b58b7f4b7f8a049defe1" target="_top" xlink:title="slogo.View.executeCommand">
<polygon fill="white" stroke="black" points="1032,-54.5 1032,-73.5 1190,-73.5 1190,-54.5 1032,-54.5"/>
<text text-anchor="middle" x="1111" y="-61.5" font-family="Helvetica,sans-Serif" font-size="10.00">slogo.View.executeCommand</text>
</a>
</g>
</g>
<!-- Node8&#45;&gt;Node9 -->
<g id="edge8" class="edge"><title>Node8&#45;&gt;Node9</title>
<path fill="none" stroke="midnightblue" d="M1005.78,-64C1014.42,-64 1023.24,-64 1031.9,-64"/>
<polygon fill="midnightblue" stroke="midnightblue" points="1005.75,-60.5001 995.748,-64 1005.75,-67.5001 1005.75,-60.5001"/>
</g>
<!-- Node10 -->
<g id="node10" class="node"><title>Node10</title>
<g id="a_node10"><a xlink:href="../../df/d2d/classslogo_1_1_view.html#aee563f6a0b15ac6668e4dcbdad40c73c" target="_top" xlink:title="slogo.View.sendCommandTo\lBackend">
<polygon fill="white" stroke="black" points="1232,-213 1232,-243 1384,-243 1384,-213 1232,-213"/>
<text text-anchor="start" x="1240" y="-231" font-family="Helvetica,sans-Serif" font-size="10.00">slogo.View.sendCommandTo</text>
<text text-anchor="middle" x="1308" y="-220" font-family="Helvetica,sans-Serif" font-size="10.00">Backend</text>
</a>
</g>
</g>
<!-- Node9&#45;&gt;Node10 -->
<g id="edge9" class="edge"><title>Node9&#45;&gt;Node10</title>
<path fill="none" stroke="midnightblue" d="M1131.05,-80.0252C1168.77,-111.741 1252.43,-182.108 1289.15,-212.984"/>
<polygon fill="midnightblue" stroke="midnightblue" points="1133.23,-77.2841 1123.33,-73.5262 1128.73,-82.6414 1133.23,-77.2841"/>
</g>
<!-- Node30 -->
<g id="node30" class="node"><title>Node30</title>
<g id="a_node30"><a xlink:href="../../df/d2d/classslogo_1_1_view.html#a4c3084a198acf85804800d70eff9ee51" target="_top" xlink:title="slogo.View.stepIntoCommand">
<polygon fill="white" stroke="black" points="1229,-54.5 1229,-73.5 1387,-73.5 1387,-54.5 1229,-54.5"/>
<text text-anchor="middle" x="1308" y="-61.5" font-family="Helvetica,sans-Serif" font-size="10.00">slogo.View.stepIntoCommand</text>
</a>
</g>
</g>
<!-- Node9&#45;&gt;Node30 -->
<g id="edge37" class="edge"><title>Node9&#45;&gt;Node30</title>
<path fill="none" stroke="midnightblue" d="M1200.4,-64C1209.87,-64 1219.45,-64 1228.79,-64"/>
<polygon fill="midnightblue" stroke="midnightblue" points="1200.19,-60.5001 1190.19,-64 1200.19,-67.5001 1200.19,-60.5001"/>
</g>
<!-- Node34 -->
<g id="node34" class="node"><title>Node34</title>
<g id="a_node34"><a xlink:href="../../df/d2d/classslogo_1_1_view.html#ac8b7f574c679e744a430f1649dc55e68" target="_top" xlink:title="slogo.View.stepOverCommand">
<polygon fill="white" stroke="black" points="1226.5,-11.5 1226.5,-30.5 1389.5,-30.5 1389.5,-11.5 1226.5,-11.5"/>
<text text-anchor="middle" x="1308" y="-18.5" font-family="Helvetica,sans-Serif" font-size="10.00">slogo.View.stepOverCommand</text>
</a>
</g>
</g>
<!-- Node9&#45;&gt;Node34 -->
<g id="edge42" class="edge"><title>Node9&#45;&gt;Node34</title>
<path fill="none" stroke="midnightblue" d="M1165.06,-52.3005C1196.07,-45.462 1234.71,-36.9406 1263.84,-30.5164"/>
<polygon fill="midnightblue" stroke="midnightblue" points="1164.29,-48.8855 1155.28,-54.4569 1165.8,-55.7213 1164.29,-48.8855"/>
</g>
<!-- Node11 -->
<g id="node11" class="node"><title>Node11</title>
<g id="a_node11"><a xlink:href="../../db/d19/classslogo_1_1_u_i_1_1_module_creation_helper.html#a69e17abcc7cf9a6ed7261d8fb1d631fa" target="_top" xlink:title="slogo.UI.ModuleCreationHelper.activate\lIncreaseDecreaseButtons">
<polygon fill="white" stroke="black" points="1426.5,-389 1426.5,-419 1631.5,-419 1631.5,-389 1426.5,-389"/>
<text text-anchor="start" x="1434.5" y="-407" font-family="Helvetica,sans-Serif" font-size="10.00">slogo.UI.ModuleCreationHelper.activate</text>
<text text-anchor="middle" x="1529" y="-396" font-family="Helvetica,sans-Serif" font-size="10.00">IncreaseDecreaseButtons</text>
</a>
</g>
</g>
<!-- Node10&#45;&gt;Node11 -->
<g id="edge10" class="edge"><title>Node10&#45;&gt;Node11</title>
<path fill="none" stroke="midnightblue" d="M1322.04,-252.219C1340.78,-284.724 1378.36,-342.06 1426,-374 1435.12,-380.116 1445.51,-385.01 1456.09,-388.919"/>
<polygon fill="midnightblue" stroke="midnightblue" points="1325.01,-250.361 1317.05,-243.368 1318.91,-253.798 1325.01,-250.361"/>
</g>
<!-- Node18 -->
<g id="node18" class="node"><title>Node18</title>
<g id="a_node18"><a xlink:href="../../db/d19/classslogo_1_1_u_i_1_1_module_creation_helper.html#aa70b0ad9e90e62509149bfd2ef2ba209" target="_top" xlink:title="slogo.UI.ModuleCreationHelper.activate\lKeyEvents">
<polygon fill="white" stroke="black" points="2152.5,-136 2152.5,-166 2357.5,-166 2357.5,-136 2152.5,-136"/>
<text text-anchor="start" x="2160.5" y="-154" font-family="Helvetica,sans-Serif" font-size="10.00">slogo.UI.ModuleCreationHelper.activate</text>
<text text-anchor="middle" x="2255" y="-143" font-family="Helvetica,sans-Serif" font-size="10.00">KeyEvents</text>
</a>
</g>
</g>
<!-- Node10&#45;&gt;Node18 -->
<g id="edge18" class="edge"><title>Node10&#45;&gt;Node18</title>
<path fill="none" stroke="midnightblue" d="M1338.18,-207.164C1360.9,-192.251 1393.88,-173.388 1426,-165 1560.15,-129.97 1962.16,-139.777 2152.26,-146.744"/>
<polygon fill="midnightblue" stroke="midnightblue" points="1336.05,-204.378 1329.7,-212.86 1339.95,-210.189 1336.05,-204.378"/>
</g>
<!-- Node19 -->
<g id="node19" class="node"><title>Node19</title>
<g id="a_node19"><a xlink:href="../../db/d19/classslogo_1_1_u_i_1_1_module_creation_helper.html#a2e841243ec3ca474e8822102343acc88" target="_top" xlink:title="slogo.UI.ModuleCreationHelper.activate\lNewTurtleButton">
<polygon fill="white" stroke="black" points="1668.5,-344 1668.5,-374 1873.5,-374 1873.5,-344 1668.5,-344"/>
<text text-anchor="start" x="1676.5" y="-362" font-family="Helvetica,sans-Serif" font-size="10.00">slogo.UI.ModuleCreationHelper.activate</text>
<text text-anchor="middle" x="1771" y="-351" font-family="Helvetica,sans-Serif" font-size="10.00">NewTurtleButton</text>
</a>
</g>
</g>
<!-- Node10&#45;&gt;Node19 -->
<g id="edge20" class="edge"><title>Node10&#45;&gt;Node19</title>
<path fill="none" stroke="midnightblue" d="M1325.02,-251.155C1345.1,-278.009 1382.24,-321.013 1426,-340 1502.41,-373.152 1597.47,-375.86 1668.29,-371.435"/>
<polygon fill="midnightblue" stroke="midnightblue" points="1327.83,-249.073 1319.11,-243.055 1322.18,-253.197 1327.83,-249.073"/>
</g>
<!-- Node21 -->
<g id="node21" class="node"><title>Node21</title>
<g id="a_node21"><a xlink:href="../../db/d19/classslogo_1_1_u_i_1_1_module_creation_helper.html#a9b1f07ab673191067907a059b1b0c524" target="_top" xlink:title="slogo.UI.ModuleCreationHelper.activate\lPlayButton">
<polygon fill="white" stroke="black" points="1426.5,-301 1426.5,-331 1631.5,-331 1631.5,-301 1426.5,-301"/>
<text text-anchor="start" x="1434.5" y="-319" font-family="Helvetica,sans-Serif" font-size="10.00">slogo.UI.ModuleCreationHelper.activate</text>
<text text-anchor="middle" x="1529" y="-308" font-family="Helvetica,sans-Serif" font-size="10.00">PlayButton</text>
</a>
</g>
</g>
<!-- Node10&#45;&gt;Node21 -->
<g id="edge23" class="edge"><title>Node10&#45;&gt;Node21</title>
<path fill="none" stroke="midnightblue" d="M1341.42,-248.354C1364.33,-262.006 1396.16,-279.522 1426,-291 1435.7,-294.73 1446.14,-298.039 1456.5,-300.929"/>
<polygon fill="midnightblue" stroke="midnightblue" points="1343.16,-245.317 1332.79,-243.145 1339.54,-251.31 1343.16,-245.317"/>
</g>
<!-- Node24 -->
<g id="node24" class="node"><title>Node24</title>
<g id="a_node24"><a xlink:href="../../db/d19/classslogo_1_1_u_i_1_1_module_creation_helper.html#a3a38d485562cb17591ec3fd07cffc18a" target="_top" xlink:title="slogo.UI.ModuleCreationHelper.activate\lTurtleCanvas">
<polygon fill="white" stroke="black" points="1910.5,-87 1910.5,-117 2115.5,-117 2115.5,-87 1910.5,-87"/>
<text text-anchor="start" x="1918.5" y="-105" font-family="Helvetica,sans-Serif" font-size="10.00">slogo.UI.ModuleCreationHelper.activate</text>
<text text-anchor="middle" x="2013" y="-94" font-family="Helvetica,sans-Serif" font-size="10.00">TurtleCanvas</text>
</a>
</g>
</g>
<!-- Node10&#45;&gt;Node24 -->
<g id="edge27" class="edge"><title>Node10&#45;&gt;Node24</title>
<path fill="none" stroke="midnightblue" d="M1328.37,-205.232C1349.63,-182.064 1386.1,-147.434 1426,-132 1511.51,-98.92 1766.48,-97.5272 1910.33,-99.6157"/>
<polygon fill="midnightblue" stroke="midnightblue" points="1325.56,-203.115 1321.5,-212.898 1330.78,-207.786 1325.56,-203.115"/>
</g>
<!-- Node26 -->
<g id="node26" class="node"><title>Node26</title>
<g id="a_node26"><a xlink:href="../../d1/d5f/classslogo_1_1_u_i_1_1_path_color_selector.html#ad3d9c82a0904c97edcec7cf67b85bd7b" target="_top" xlink:title="slogo.UI.PathColorSelector.create">
<polygon fill="white" stroke="black" points="1441,-262.5 1441,-281.5 1617,-281.5 1617,-262.5 1441,-262.5"/>
<text text-anchor="middle" x="1529" y="-269.5" font-family="Helvetica,sans-Serif" font-size="10.00">slogo.UI.PathColorSelector.create</text>
</a>
</g>
</g>
<!-- Node10&#45;&gt;Node26 -->
<g id="edge30" class="edge"><title>Node10&#45;&gt;Node26</title>
<path fill="none" stroke="midnightblue" d="M1391.74,-245.065C1403.24,-247.411 1414.91,-249.776 1426,-252 1443.25,-255.46 1462.16,-259.186 1478.95,-262.473"/>
<polygon fill="midnightblue" stroke="midnightblue" points="1392.19,-241.585 1381.69,-243.013 1390.79,-248.443 1392.19,-241.585"/>
</g>
<!-- Node28 -->
<g id="node28" class="node"><title>Node28</title>
<g id="a_node28"><a xlink:href="../../d4/d8d/classslogo_1_1_u_i_1_1_background_color_selector.html#ad75ba4ce104e071811d0fe039a4e839f" target="_top" xlink:title="slogo.UI.BackgroundColor\lSelector.create">
<polygon fill="white" stroke="black" points="1459,-213 1459,-243 1599,-243 1599,-213 1459,-213"/>
<text text-anchor="start" x="1467" y="-231" font-family="Helvetica,sans-Serif" font-size="10.00">slogo.UI.BackgroundColor</text>
<text text-anchor="middle" x="1529" y="-220" font-family="Helvetica,sans-Serif" font-size="10.00">Selector.create</text>
</a>
</g>
</g>
<!-- Node10&#45;&gt;Node28 -->
<g id="edge33" class="edge"><title>Node10&#45;&gt;Node28</title>
<path fill="none" stroke="midnightblue" d="M1394.14,-228C1415.6,-228 1438.37,-228 1458.93,-228"/>
<polygon fill="midnightblue" stroke="midnightblue" points="1394.06,-224.5 1384.06,-228 1394.06,-231.5 1394.06,-224.5"/>
</g>
<!-- Node29 -->
<g id="node29" class="node"><title>Node29</title>
<g id="a_node29"><a xlink:href="../../dd/da7/classslogo_1_1_u_i_1_1_turtle_image_selector.html#a3f268d9196ffebcbb5dc322d2897a9fe" target="_top" xlink:title="slogo.UI.TurtleImageSelector.create">
<polygon fill="white" stroke="black" points="1436,-174.5 1436,-193.5 1622,-193.5 1622,-174.5 1436,-174.5"/>
<text text-anchor="middle" x="1529" y="-181.5" font-family="Helvetica,sans-Serif" font-size="10.00">slogo.UI.TurtleImageSelector.create</text>
</a>
</g>
</g>
<!-- Node10&#45;&gt;Node29 -->
<g id="edge35" class="edge"><title>Node10&#45;&gt;Node29</title>
<path fill="none" stroke="midnightblue" d="M1388.01,-210.821C1400.7,-208.147 1413.71,-205.458 1426,-203 1441.99,-199.804 1459.42,-196.493 1475.27,-193.548"/>
<polygon fill="midnightblue" stroke="midnightblue" points="1386.98,-207.463 1377.92,-212.958 1388.43,-214.311 1386.98,-207.463"/>
</g>
<!-- Node12 -->
<g id="node12" class="node"><title>Node12</title>
<g id="a_node12"><a xlink:href="../../db/d19/classslogo_1_1_u_i_1_1_module_creation_helper.html#adce7362386f9a7b3006e7db08a2d578d" target="_top" xlink:title="slogo.UI.ModuleCreationHelper.create\lIncreaseDecreaseButtons">
<polygon fill="white" stroke="black" points="1914.5,-380 1914.5,-410 2111.5,-410 2111.5,-380 1914.5,-380"/>
<text text-anchor="start" x="1922.5" y="-398" font-family="Helvetica,sans-Serif" font-size="10.00">slogo.UI.ModuleCreationHelper.create</text>
<text text-anchor="middle" x="2013" y="-387" font-family="Helvetica,sans-Serif" font-size="10.00">IncreaseDecreaseButtons</text>
</a>
</g>
</g>
<!-- Node11&#45;&gt;Node12 -->
<g id="edge11" class="edge"><title>Node11&#45;&gt;Node12</title>
<path fill="none" stroke="midnightblue" d="M1641.79,-401.913C1724.23,-400.373 1835.29,-398.299 1914.21,-396.826"/>
<polygon fill="midnightblue" stroke="midnightblue" points="1641.56,-398.416 1631.63,-402.102 1641.69,-405.415 1641.56,-398.416"/>
</g>
<!-- Node13 -->
<g id="node13" class="node"><title>Node13</title>
<g id="a_node13"><a xlink:href="../../db/d19/classslogo_1_1_u_i_1_1_module_creation_helper.html#a7c650957b2389d6e6d36e8be8a33cd2b" target="_top" xlink:title="slogo.UI.ModuleCreationHelper.create\lSelectorVBoxModules">
<polygon fill="white" stroke="black" points="2156.5,-253 2156.5,-283 2353.5,-283 2353.5,-253 2156.5,-253"/>
<text text-anchor="start" x="2164.5" y="-271" font-family="Helvetica,sans-Serif" font-size="10.00">slogo.UI.ModuleCreationHelper.create</text>
<text text-anchor="middle" x="2255" y="-260" font-family="Helvetica,sans-Serif" font-size="10.00">SelectorVBoxModules</text>
</a>
</g>
</g>
<!-- Node12&#45;&gt;Node13 -->
<g id="edge12" class="edge"><title>Node12&#45;&gt;Node13</title>
<path fill="none" stroke="midnightblue" d="M2097,-376.732C2103.54,-374.424 2109.95,-371.854 2116,-369 2164.6,-346.077 2213.46,-305.079 2237.92,-283.025"/>
<polygon fill="midnightblue" stroke="midnightblue" points="2095.75,-373.461 2087.36,-379.93 2097.95,-380.105 2095.75,-373.461"/>
</g>
<!-- Node14 -->
<g id="node14" class="node"><title>Node14</title>
<g id="a_node14"><a xlink:href="../../db/d19/classslogo_1_1_u_i_1_1_module_creation_helper.html#afb9dbbbad7d872234a5b296fe129a34e" target="_top" xlink:title="slogo.UI.ModuleCreationHelper.create\lMainPageModules">
<polygon fill="white" stroke="black" points="2394.5,-136 2394.5,-166 2591.5,-166 2591.5,-136 2394.5,-136"/>
<text text-anchor="start" x="2402.5" y="-154" font-family="Helvetica,sans-Serif" font-size="10.00">slogo.UI.ModuleCreationHelper.create</text>
<text text-anchor="middle" x="2493" y="-143" font-family="Helvetica,sans-Serif" font-size="10.00">MainPageModules</text>
</a>
</g>
</g>
<!-- Node13&#45;&gt;Node14 -->
<g id="edge13" class="edge"><title>Node13&#45;&gt;Node14</title>
<path fill="none" stroke="midnightblue" d="M2295.58,-248.38C2342.29,-225.222 2418.96,-187.212 2461.37,-166.184"/>
<polygon fill="midnightblue" stroke="midnightblue" points="2293.77,-245.366 2286.37,-252.944 2296.88,-251.638 2293.77,-245.366"/>
</g>
<!-- Node15 -->
<g id="node15" class="node"><title>Node15</title>
<g id="a_node15"><a xlink:href="../../d9/d33/classslogo_1_1_u_i_1_1_main.html#a15b7f2e399ee24d160550993ab737e73" target="_top" xlink:title="slogo.UI.Main.start">
<polygon fill="white" stroke="black" points="2628,-150.5 2628,-169.5 2734,-169.5 2734,-150.5 2628,-150.5"/>
<text text-anchor="middle" x="2681" y="-157.5" font-family="Helvetica,sans-Serif" font-size="10.00">slogo.UI.Main.start</text>
</a>
</g>
</g>
<!-- Node14&#45;&gt;Node15 -->
<g id="edge14" class="edge"><title>Node14&#45;&gt;Node15</title>
<path fill="none" stroke="midnightblue" d="M2601.8,-156.216C2610.76,-156.65 2619.53,-157.074 2627.76,-157.472"/>
<polygon fill="midnightblue" stroke="midnightblue" points="2601.79,-152.712 2591.63,-155.724 2601.45,-159.703 2601.79,-152.712"/>
</g>
<!-- Node16 -->
<g id="node16" class="node"><title>Node16</title>
<g id="a_node16"><a xlink:href="../../db/d19/classslogo_1_1_u_i_1_1_module_creation_helper.html#a3be12a7cc2b8a219db1e296211a2cb88" target="_top" xlink:title="slogo.UI.ModuleCreationHelper.activate\lExtraWorkspaceButton">
<polygon fill="white" stroke="black" points="2770.5,-163 2770.5,-193 2975.5,-193 2975.5,-163 2770.5,-163"/>
<text text-anchor="start" x="2778.5" y="-181" font-family="Helvetica,sans-Serif" font-size="10.00">slogo.UI.ModuleCreationHelper.activate</text>
<text text-anchor="middle" x="2873" y="-170" font-family="Helvetica,sans-Serif" font-size="10.00">ExtraWorkspaceButton</text>
</a>
</g>
</g>
<!-- Node15&#45;&gt;Node16 -->
<g id="edge15" class="edge"><title>Node15&#45;&gt;Node16</title>
<path fill="none" stroke="midnightblue" d="M2744.22,-165.894C2752.63,-166.691 2761.44,-167.526 2770.32,-168.367"/>
<polygon fill="midnightblue" stroke="midnightblue" points="2744.46,-162.401 2734.17,-164.942 2743.79,-169.37 2744.46,-162.401"/>
</g>
<!-- Node17 -->
<g id="node17" class="node"><title>Node17</title>
<g id="a_node17"><a xlink:href="../../db/d19/classslogo_1_1_u_i_1_1_module_creation_helper.html#a702c1ebe24d2857a10c666eb1fcc315d" target="_top" xlink:title="slogo.UI.ModuleCreationHelper.create\lExtraWorkspaceButton">
<polygon fill="white" stroke="black" points="3012.5,-189 3012.5,-219 3209.5,-219 3209.5,-189 3012.5,-189"/>
<text text-anchor="start" x="3020.5" y="-207" font-family="Helvetica,sans-Serif" font-size="10.00">slogo.UI.ModuleCreationHelper.create</text>
<text text-anchor="middle" x="3111" y="-196" font-family="Helvetica,sans-Serif" font-size="10.00">ExtraWorkspaceButton</text>
</a>
</g>
</g>
<!-- Node16&#45;&gt;Node17 -->
<g id="edge16" class="edge"><title>Node16&#45;&gt;Node17</title>
<path fill="none" stroke="midnightblue" d="M2985.77,-190.313C2994.62,-191.289 3003.52,-192.27 3012.27,-193.234"/>
<polygon fill="midnightblue" stroke="midnightblue" points="2986.12,-186.831 2975.8,-189.215 2985.35,-193.789 2986.12,-186.831"/>
</g>
<!-- Node17&#45;&gt;Node13 -->
<g id="edge17" class="edge"><title>Node17&#45;&gt;Node13</title>
<path fill="none" stroke="midnightblue" d="M3002.34,-212.068C2834.9,-224.617 2514.6,-248.62 2353.55,-260.69"/>
<polygon fill="midnightblue" stroke="midnightblue" points="3002.7,-215.551 3012.41,-211.313 3002.18,-208.571 3002.7,-215.551"/>
</g>
<!-- Node18&#45;&gt;Node14 -->
<g id="edge19" class="edge"><title>Node18&#45;&gt;Node14</title>
<path fill="none" stroke="midnightblue" d="M2368.05,-151C2376.81,-151 2385.62,-151 2394.27,-151"/>
<polygon fill="midnightblue" stroke="midnightblue" points="2367.8,-147.5 2357.8,-151 2367.8,-154.5 2367.8,-147.5"/>
</g>
<!-- Node20 -->
<g id="node20" class="node"><title>Node20</title>
<g id="a_node20"><a xlink:href="../../db/d19/classslogo_1_1_u_i_1_1_module_creation_helper.html#a07f5483df317cdf80e8ea2dda5699afa" target="_top" xlink:title="slogo.UI.ModuleCreationHelper.create\lNewTurtleButton">
<polygon fill="white" stroke="black" points="1914.5,-330 1914.5,-360 2111.5,-360 2111.5,-330 1914.5,-330"/>
<text text-anchor="start" x="1922.5" y="-348" font-family="Helvetica,sans-Serif" font-size="10.00">slogo.UI.ModuleCreationHelper.create</text>
<text text-anchor="middle" x="2013" y="-337" font-family="Helvetica,sans-Serif" font-size="10.00">NewTurtleButton</text>
</a>
</g>
</g>
<!-- Node19&#45;&gt;Node20 -->
<g id="edge21" class="edge"><title>Node19&#45;&gt;Node20</title>
<path fill="none" stroke="midnightblue" d="M1883.89,-352.473C1894.04,-351.881 1904.26,-351.285 1914.27,-350.701"/>
<polygon fill="midnightblue" stroke="midnightblue" points="1883.56,-348.986 1873.78,-353.063 1883.97,-355.974 1883.56,-348.986"/>
</g>
<!-- Node20&#45;&gt;Node13 -->
<g id="edge22" class="edge"><title>Node20&#45;&gt;Node13</title>
<path fill="none" stroke="midnightblue" d="M2084.15,-327.309C2094.87,-324.354 2105.76,-321.203 2116,-318 2149.93,-307.387 2187.86,-293.493 2215.35,-283.046"/>
<polygon fill="midnightblue" stroke="midnightblue" points="2083.12,-323.962 2074.39,-329.963 2084.96,-330.717 2083.12,-323.962"/>
</g>
<!-- Node22 -->
<g id="node22" class="node"><title>Node22</title>
<g id="a_node22"><a xlink:href="../../db/d19/classslogo_1_1_u_i_1_1_module_creation_helper.html#a9b3fb38a55b3b7812b4f793afa7a974f" target="_top" xlink:title="slogo.UI.ModuleCreationHelper.create\lPlayButton">
<polygon fill="white" stroke="black" points="1672.5,-295 1672.5,-325 1869.5,-325 1869.5,-295 1672.5,-295"/>
<text text-anchor="start" x="1680.5" y="-313" font-family="Helvetica,sans-Serif" font-size="10.00">slogo.UI.ModuleCreationHelper.create</text>
<text text-anchor="middle" x="1771" y="-302" font-family="Helvetica,sans-Serif" font-size="10.00">PlayButton</text>
</a>
</g>
</g>
<!-- Node21&#45;&gt;Node22 -->
<g id="edge24" class="edge"><title>Node21&#45;&gt;Node22</title>
<path fill="none" stroke="midnightblue" d="M1641.89,-313.203C1652.04,-312.949 1662.26,-312.694 1672.27,-312.443"/>
<polygon fill="midnightblue" stroke="midnightblue" points="1641.69,-309.707 1631.78,-313.455 1641.87,-316.704 1641.69,-309.707"/>
</g>
<!-- Node23 -->
<g id="node23" class="node"><title>Node23</title>
<g id="a_node23"><a xlink:href="../../db/d19/classslogo_1_1_u_i_1_1_module_creation_helper.html#ae1e60d37509c2e5eddcb2a6e70b4f650" target="_top" xlink:title="slogo.UI.ModuleCreationHelper.create\lFirstRowButtons">
<polygon fill="white" stroke="black" points="1914.5,-279 1914.5,-309 2111.5,-309 2111.5,-279 1914.5,-279"/>
<text text-anchor="start" x="1922.5" y="-297" font-family="Helvetica,sans-Serif" font-size="10.00">slogo.UI.ModuleCreationHelper.create</text>
<text text-anchor="middle" x="2013" y="-286" font-family="Helvetica,sans-Serif" font-size="10.00">FirstRowButtons</text>
</a>
</g>
</g>
<!-- Node22&#45;&gt;Node23 -->
<g id="edge25" class="edge"><title>Node22&#45;&gt;Node23</title>
<path fill="none" stroke="midnightblue" d="M1879.73,-302.818C1891.3,-302.046 1903.03,-301.265 1914.47,-300.502"/>
<polygon fill="midnightblue" stroke="midnightblue" points="1879.36,-299.335 1869.62,-303.492 1879.83,-306.319 1879.36,-299.335"/>
</g>
<!-- Node23&#45;&gt;Node13 -->
<g id="edge26" class="edge"><title>Node23&#45;&gt;Node13</title>
<path fill="none" stroke="midnightblue" d="M2121.73,-282.329C2133.3,-281.075 2145.03,-279.805 2156.47,-278.566"/>
<polygon fill="midnightblue" stroke="midnightblue" points="2121.18,-278.868 2111.62,-283.425 2121.94,-285.827 2121.18,-278.868"/>
</g>
<!-- Node25 -->
<g id="node25" class="node"><title>Node25</title>
<g id="a_node25"><a xlink:href="../../db/d19/classslogo_1_1_u_i_1_1_module_creation_helper.html#a803bac6b55bde712b21f2face1eeef81" target="_top" xlink:title="slogo.UI.ModuleCreationHelper.create\lTurtleCanvas">
<polygon fill="white" stroke="black" points="2156.5,-87 2156.5,-117 2353.5,-117 2353.5,-87 2156.5,-87"/>
<text text-anchor="start" x="2164.5" y="-105" font-family="Helvetica,sans-Serif" font-size="10.00">slogo.UI.ModuleCreationHelper.create</text>
<text text-anchor="middle" x="2255" y="-94" font-family="Helvetica,sans-Serif" font-size="10.00">TurtleCanvas</text>
</a>
</g>
</g>
<!-- Node24&#45;&gt;Node25 -->
<g id="edge28" class="edge"><title>Node24&#45;&gt;Node25</title>
<path fill="none" stroke="midnightblue" d="M2125.89,-102C2136.04,-102 2146.26,-102 2156.27,-102"/>
<polygon fill="midnightblue" stroke="midnightblue" points="2125.78,-98.5001 2115.78,-102 2125.78,-105.5 2125.78,-98.5001"/>
</g>
<!-- Node25&#45;&gt;Node14 -->
<g id="edge29" class="edge"><title>Node25&#45;&gt;Node14</title>
<path fill="none" stroke="midnightblue" d="M2338.42,-119.113C2364.9,-124.611 2394.03,-130.658 2419.73,-135.994"/>
<polygon fill="midnightblue" stroke="midnightblue" points="2338.91,-115.641 2328.41,-117.035 2337.49,-122.495 2338.91,-115.641"/>
</g>
<!-- Node27 -->
<g id="node27" class="node"><title>Node27</title>
<g id="a_node27"><a xlink:href="../../db/d19/classslogo_1_1_u_i_1_1_module_creation_helper.html#af7f2919454fdbf6e9d7d912e99634857" target="_top" xlink:title="slogo.UI.ModuleCreationHelper.create\lSelectors">
<polygon fill="white" stroke="black" points="1672.5,-230 1672.5,-260 1869.5,-260 1869.5,-230 1672.5,-230"/>
<text text-anchor="start" x="1680.5" y="-248" font-family="Helvetica,sans-Serif" font-size="10.00">slogo.UI.ModuleCreationHelper.create</text>
<text text-anchor="middle" x="1771" y="-237" font-family="Helvetica,sans-Serif" font-size="10.00">Selectors</text>
</a>
</g>
</g>
<!-- Node26&#45;&gt;Node27 -->
<g id="edge31" class="edge"><title>Node26&#45;&gt;Node27</title>
<path fill="none" stroke="midnightblue" d="M1624.76,-261.339C1640.36,-259.585 1656.54,-257.764 1672.21,-256.002"/>
<polygon fill="midnightblue" stroke="midnightblue" points="1624.16,-257.885 1614.62,-262.481 1624.94,-264.841 1624.16,-257.885"/>
</g>
<!-- Node27&#45;&gt;Node13 -->
<g id="edge32" class="edge"><title>Node27&#45;&gt;Node13</title>
<path fill="none" stroke="midnightblue" d="M1879.74,-250.141C1962.55,-254.092 2075.97,-259.505 2156.19,-263.333"/>
<polygon fill="midnightblue" stroke="midnightblue" points="1879.7,-246.635 1869.54,-249.654 1879.36,-253.627 1879.7,-246.635"/>
</g>
<!-- Node28&#45;&gt;Node27 -->
<g id="edge34" class="edge"><title>Node28&#45;&gt;Node27</title>
<path fill="none" stroke="midnightblue" d="M1609.18,-233.609C1629.4,-235.041 1651.37,-236.597 1672.39,-238.086"/>
<polygon fill="midnightblue" stroke="midnightblue" points="1609.32,-230.11 1599.1,-232.894 1608.82,-237.092 1609.32,-230.11"/>
</g>
<!-- Node29&#45;&gt;Node27 -->
<g id="edge36" class="edge"><title>Node29&#45;&gt;Node27</title>
<path fill="none" stroke="midnightblue" d="M1597.48,-195.473C1609.04,-197.752 1620.9,-200.287 1632,-203 1663.38,-210.673 1698.18,-221.278 1724.98,-229.911"/>
<polygon fill="midnightblue" stroke="midnightblue" points="1597.9,-191.99 1587.42,-193.539 1596.58,-198.864 1597.9,-191.99"/>
</g>
<!-- Node31 -->
<g id="node31" class="node"><title>Node31</title>
<g id="a_node31"><a xlink:href="../../db/d19/classslogo_1_1_u_i_1_1_module_creation_helper.html#a9fd730f7c1860d34bf4ac46c3828bd59" target="_top" xlink:title="slogo.UI.ModuleCreationHelper.activate\lStepIntoButton">
<polygon fill="white" stroke="black" points="1426.5,-49 1426.5,-79 1631.5,-79 1631.5,-49 1426.5,-49"/>
<text text-anchor="start" x="1434.5" y="-67" font-family="Helvetica,sans-Serif" font-size="10.00">slogo.UI.ModuleCreationHelper.activate</text>
<text text-anchor="middle" x="1529" y="-56" font-family="Helvetica,sans-Serif" font-size="10.00">StepIntoButton</text>
</a>
</g>
</g>
<!-- Node30&#45;&gt;Node31 -->
<g id="edge38" class="edge"><title>Node30&#45;&gt;Node31</title>
<path fill="none" stroke="midnightblue" d="M1397.33,-64C1406.82,-64 1416.54,-64 1426.17,-64"/>
<polygon fill="midnightblue" stroke="midnightblue" points="1397.14,-60.5001 1387.14,-64 1397.14,-67.5001 1397.14,-60.5001"/>
</g>
<!-- Node32 -->
<g id="node32" class="node"><title>Node32</title>
<g id="a_node32"><a xlink:href="../../db/d19/classslogo_1_1_u_i_1_1_module_creation_helper.html#a4a6f1f009507c25be8c7c28cbba35f3b" target="_top" xlink:title="slogo.UI.ModuleCreationHelper.create\lDebugStepIntoButton">
<polygon fill="white" stroke="black" points="1672.5,-49 1672.5,-79 1869.5,-79 1869.5,-49 1672.5,-49"/>
<text text-anchor="start" x="1680.5" y="-67" font-family="Helvetica,sans-Serif" font-size="10.00">slogo.UI.ModuleCreationHelper.create</text>
<text text-anchor="middle" x="1771" y="-56" font-family="Helvetica,sans-Serif" font-size="10.00">DebugStepIntoButton</text>
</a>
</g>
</g>
<!-- Node31&#45;&gt;Node32 -->
<g id="edge39" class="edge"><title>Node31&#45;&gt;Node32</title>
<path fill="none" stroke="midnightblue" d="M1641.89,-64C1652.04,-64 1662.26,-64 1672.27,-64"/>
<polygon fill="midnightblue" stroke="midnightblue" points="1641.78,-60.5001 1631.78,-64 1641.78,-67.5001 1641.78,-60.5001"/>
</g>
<!-- Node33 -->
<g id="node33" class="node"><title>Node33</title>
<g id="a_node33"><a xlink:href="../../db/d19/classslogo_1_1_u_i_1_1_module_creation_helper.html#a975af4ea47dc85df72215bdf1a0d20ce" target="_top" xlink:title="slogo.UI.ModuleCreationHelper.create\lDebugModules">
<polygon fill="white" stroke="black" points="1914.5,-38 1914.5,-68 2111.5,-68 2111.5,-38 1914.5,-38"/>
<text text-anchor="start" x="1922.5" y="-56" font-family="Helvetica,sans-Serif" font-size="10.00">slogo.UI.ModuleCreationHelper.create</text>
<text text-anchor="middle" x="2013" y="-45" font-family="Helvetica,sans-Serif" font-size="10.00">DebugModules</text>
</a>
</g>
</g>
<!-- Node32&#45;&gt;Node33 -->
<g id="edge40" class="edge"><title>Node32&#45;&gt;Node33</title>
<path fill="none" stroke="midnightblue" d="M1879.73,-59.0622C1891.3,-58.5319 1903.03,-57.9945 1914.47,-57.4702"/>
<polygon fill="midnightblue" stroke="midnightblue" points="1879.45,-55.5716 1869.62,-59.5259 1879.77,-62.5643 1879.45,-55.5716"/>
</g>
<!-- Node33&#45;&gt;Node14 -->
<g id="edge41" class="edge"><title>Node33&#45;&gt;Node14</title>
<path fill="none" stroke="midnightblue" d="M2121.63,-48.679C2190.53,-48.779 2281.11,-54.2973 2358,-77 2401.33,-89.7936 2446.2,-118.228 2471.46,-135.889"/>
<polygon fill="midnightblue" stroke="midnightblue" points="2121.61,-45.1789 2111.62,-48.7021 2121.63,-52.1789 2121.61,-45.1789"/>
</g>
<!-- Node35 -->
<g id="node35" class="node"><title>Node35</title>
<g id="a_node35"><a xlink:href="../../db/d19/classslogo_1_1_u_i_1_1_module_creation_helper.html#a0fed0bb32bf2643d6fd5c24d82e8e18e" target="_top" xlink:title="slogo.UI.ModuleCreationHelper.activate\lStepOverButton">
<polygon fill="white" stroke="black" points="1426.5,-0 1426.5,-30 1631.5,-30 1631.5,-0 1426.5,-0"/>
<text text-anchor="start" x="1434.5" y="-18" font-family="Helvetica,sans-Serif" font-size="10.00">slogo.UI.ModuleCreationHelper.activate</text>
<text text-anchor="middle" x="1529" y="-7" font-family="Helvetica,sans-Serif" font-size="10.00">StepOverButton</text>
</a>
</g>
</g>
<!-- Node34&#45;&gt;Node35 -->
<g id="edge43" class="edge"><title>Node34&#45;&gt;Node35</title>
<path fill="none" stroke="midnightblue" d="M1399.8,-18.5123C1408.56,-18.2724 1417.48,-18.028 1426.33,-17.7856"/>
<polygon fill="midnightblue" stroke="midnightblue" points="1399.51,-15.0187 1389.61,-18.7914 1399.71,-22.0161 1399.51,-15.0187"/>
</g>
<!-- Node36 -->
<g id="node36" class="node"><title>Node36</title>
<g id="a_node36"><a xlink:href="../../db/d19/classslogo_1_1_u_i_1_1_module_creation_helper.html#aa1e7dc2b509360583790fba0d3819c8d" target="_top" xlink:title="slogo.UI.ModuleCreationHelper.create\lDebugStepOverButton">
<polygon fill="white" stroke="black" points="1672.5,-0 1672.5,-30 1869.5,-30 1869.5,-0 1672.5,-0"/>
<text text-anchor="start" x="1680.5" y="-18" font-family="Helvetica,sans-Serif" font-size="10.00">slogo.UI.ModuleCreationHelper.create</text>
<text text-anchor="middle" x="1771" y="-7" font-family="Helvetica,sans-Serif" font-size="10.00">DebugStepOverButton</text>
</a>
</g>
</g>
<!-- Node35&#45;&gt;Node36 -->
<g id="edge44" class="edge"><title>Node35&#45;&gt;Node36</title>
<path fill="none" stroke="midnightblue" d="M1641.89,-15C1652.04,-15 1662.26,-15 1672.27,-15"/>
<polygon fill="midnightblue" stroke="midnightblue" points="1641.78,-11.5001 1631.78,-15 1641.78,-18.5001 1641.78,-11.5001"/>
</g>
<!-- Node36&#45;&gt;Node33 -->
<g id="edge45" class="edge"><title>Node36&#45;&gt;Node33</title>
<path fill="none" stroke="midnightblue" d="M1876.99,-31.6227C1890.31,-33.7329 1903.89,-35.8827 1917.05,-37.966"/>
<polygon fill="midnightblue" stroke="midnightblue" points="1877.28,-28.1256 1866.85,-30.0186 1876.18,-35.0395 1877.28,-28.1256"/>
</g>
</g>
</svg>
        <g id="navigator" transform="translate(0 0)" fill="#404254">
                <rect fill="#f2f5e9" fill-opacity="0.5" stroke="#606060" stroke-width=".5" x="0" y="0" width="60" height="60"/>
                <use id="zoomplus" xlink:href="#zoomPlus" x="17" y="9" onmousedown="handleZoom(evt,'in')"/>
                <use id="zoomminus" xlink:href="#zoomMin" x="42" y="9" onmousedown="handleZoom(evt,'out')"/>
                <use id="reset" xlink:href="#resetDef" x="30" y="36" onmousedown="handleReset()"/>
                <g id="arrowUp" xlink:href="#dirArrow" transform="translate(30 24)" onmousedown="handlePan(0,-1)">
                  <use xlink:href="#rim" fill="#404040">
                        <set attributeName="fill" to="#808080" begin="arrowUp.mouseover" end="arrowUp.mouseout"/>
                  </use>
                  <path fill="none" stroke="white" stroke-width="1.5" d="M0,-3.0v7 M-2.5,-0.5L0,-3.0L2.5,-0.5"/>
                </g>
                <g id="arrowRight" xlink:href="#dirArrow" transform="rotate(90) translate(36 -43)" onmousedown="handlePan(1,0)">
                  <use xlink:href="#rim" fill="#404040">
                        <set attributeName="fill" to="#808080" begin="arrowRight.mouseover" end="arrowRight.mouseout"/>
                  </use>
                  <path fill="none" stroke="white" stroke-width="1.5" d="M0,-3.0v7 M-2.5,-0.5L0,-3.0L2.5,-0.5"/>
                </g>
                <g id="arrowDown" xlink:href="#dirArrow" transform="rotate(180) translate(-30 -48)" onmousedown="handlePan(0,1)">
                  <use xlink:href="#rim" fill="#404040">
                        <set attributeName="fill" to="#808080" begin="arrowDown.mouseover" end="arrowDown.mouseout"/>
                  </use>
                  <path fill="none" stroke="white" stroke-width="1.5" d="M0,-3.0v7 M-2.5,-0.5L0,-3.0L2.5,-0.5"/>
                </g>
                <g id="arrowLeft" xlink:href="#dirArrow" transform="rotate(270) translate(-36 17)" onmousedown="handlePan(-1,0)">
                  <use xlink:href="#rim" fill="#404040">
                        <set attributeName="fill" to="#808080" begin="arrowLeft.mouseover" end="arrowLeft.mouseout"/>
                  </use>
                  <path fill="none" stroke="white" stroke-width="1.5" d="M0,-3.0v7 M-2.5,-0.5L0,-3.0L2.5,-0.5"/>
                </g>
        </g>
        <svg viewBox="0 0 15 15" width="100%" height="30px" preserveAspectRatio="xMaxYMin meet">
         <g id="arrow_out" transform="scale(0.3 0.3)">
          <a xlink:href="classslogo_1_1backend_1_1impl_1_1util_1_1_qualities_a9c0511ff3f9f0c06f31d6e208e278233_icgraph_org.svg" target="_base">
           <rect id="button" ry="5" rx="5" y="6" x="6" height="38" width="38"
                fill="#f2f5e9" fill-opacity="0.5" stroke="#606060" stroke-width="1.0"/>
           <path id="arrow"
             d="M 11.500037,31.436501 C 11.940474,20.09759 22.043105,11.32322 32.158766,21.979434 L 37.068811,17.246167 C 37.068811,17.246167 37.088388,32 37.088388,32 L 22.160133,31.978069 C 22.160133,31.978069 26.997745,27.140456 26.997745,27.140456 C 18.528582,18.264221 13.291696,25.230495 11.500037,31.436501 z"
             style="fill:#404040;"/>
          </a>
         </g>
        </svg>
</svg>
