<?xml version="1.0" encoding="UTF-8" standalone="no"?>
<!DOCTYPE svg PUBLIC "-//W3C//DTD SVG 1.1//EN"
 "http://www.w3.org/Graphics/SVG/1.1/DTD/svg11.dtd">
<!-- Generated by graphviz version 2.36.0 (20140111.2315)
 -->
<!-- Title: slogo.backend.impl.util.TurtleStatus.Builder.build Pages: 1 -->
<svg width="466pt" height="87pt"
 viewBox="0.00 0.00 466.00 87.00" xmlns="http://www.w3.org/2000/svg" xmlns:xlink="http://www.w3.org/1999/xlink">
<g id="graph0" class="graph" transform="scale(1 1) rotate(0) translate(4 83)">
<title>slogo.backend.impl.util.TurtleStatus.Builder.build</title>
<polygon fill="white" stroke="none" points="-4,4 -4,-83 462,-83 462,4 -4,4"/>
<!-- Node1 -->
<g id="node1" class="node"><title>Node1</title>
<polygon fill="#bfbfbf" stroke="black" points="0,-24 0,-54 134,-54 134,-24 0,-24"/>
<text text-anchor="start" x="8" y="-42" font-family="Helvetica,sans-Serif" font-size="10.00">slogo.backend.impl.util.</text>
<text text-anchor="middle" x="67" y="-31" font-family="Helvetica,sans-Serif" font-size="10.00">TurtleStatus.Builder.build</text>
</g>
<!-- Node2 -->
<g id="node2" class="node"><title>Node2</title>
<g id="a_node2"><a xlink:href="../../da/da1/classslogo_1_1backend_1_1impl_1_1_backend.html#af2452dcfaffd59fa963bb3846d903d19" target="_top" xlink:title="slogo.backend.impl.Backend.\lBackend">
<polygon fill="white" stroke="black" points="236,-49 236,-79 392,-79 392,-49 236,-49"/>
<text text-anchor="start" x="244" y="-67" font-family="Helvetica,sans-Serif" font-size="10.00">slogo.backend.impl.Backend.</text>
<text text-anchor="middle" x="314" y="-56" font-family="Helvetica,sans-Serif" font-size="10.00">Backend</text>
</a>
</g>
</g>
<!-- Node1&#45;&gt;Node2 -->
<g id="edge1" class="edge"><title>Node1&#45;&gt;Node2</title>
<path fill="none" stroke="midnightblue" d="M144.406,-46.7965C173.49,-49.7643 206.633,-53.1463 235.792,-56.1216"/>
<polygon fill="midnightblue" stroke="midnightblue" points="144.604,-43.2987 134.301,-45.7654 143.894,-50.2625 144.604,-43.2987"/>
</g>
<!-- Node3 -->
<g id="node3" class="node"><title>Node3</title>
<g id="a_node3"><a xlink:href="../../da/dba/classslogo_1_1backend_1_1impl_1_1evaluation_1_1commands_1_1multipleturtle_1_1_tell.html#af383e711dde54440f0f6cd3b47216b36" target="_top" xlink:title="slogo.backend.impl.evaluation.commands.multipleturtle.\lTell.executeRaw">
<polygon fill="white" stroke="black" points="170,-0 170,-30 458,-30 458,-0 170,-0"/>
<text text-anchor="start" x="178" y="-18" font-family="Helvetica,sans-Serif" font-size="10.00">slogo.backend.impl.evaluation.commands.multipleturtle.</text>
<text text-anchor="middle" x="314" y="-7" font-family="Helvetica,sans-Serif" font-size="10.00">Tell.executeRaw</text>
</a>
</g>
</g>
<!-- Node1&#45;&gt;Node3 -->
<g id="edge2" class="edge"><title>Node1&#45;&gt;Node3</title>
<path fill="none" stroke="midnightblue" d="M144.469,-31.5091C152.643,-30.7084 161.137,-29.8764 169.772,-29.0305"/>
<polygon fill="midnightblue" stroke="midnightblue" points="143.912,-28.0469 134.301,-32.5053 144.594,-35.0136 143.912,-28.0469"/>
</g>
</g>
</svg>
