<?xml version="1.0" encoding="UTF-8" standalone="no"?>
<!DOCTYPE svg PUBLIC "-//W3C//DTD SVG 1.1//EN"
 "http://www.w3.org/Graphics/SVG/1.1/DTD/svg11.dtd">
<!-- Generated by graphviz version 2.36.0 (20140111.2315)
 -->
<!-- Title: slogo.backend.impl.util.TurtleStatus.Builder.Builder Pages: 1 -->
<svg width="324pt" height="332pt"
 viewBox="0.00 0.00 324.00 332.00" xmlns="http://www.w3.org/2000/svg" xmlns:xlink="http://www.w3.org/1999/xlink">
<g id="graph0" class="graph" transform="scale(1 1) rotate(0) translate(4 328)">
<title>slogo.backend.impl.util.TurtleStatus.Builder.Builder</title>
<polygon fill="white" stroke="none" points="-4,4 -4,-328 320,-328 320,4 -4,4"/>
<!-- Node1 -->
<g id="node1" class="node"><title>Node1</title>
<polygon fill="#bfbfbf" stroke="black" points="0.5,-147 0.5,-177 145.5,-177 145.5,-147 0.5,-147"/>
<text text-anchor="start" x="8.5" y="-165" font-family="Helvetica,sans-Serif" font-size="10.00">slogo.backend.impl.util.</text>
<text text-anchor="middle" x="73" y="-154" font-family="Helvetica,sans-Serif" font-size="10.00">TurtleStatus.Builder.Builder</text>
</g>
<!-- Node2 -->
<g id="node2" class="node"><title>Node2</title>
<g id="a_node2"><a xlink:href="../../da/dce/interfaceslogo_1_1backend_1_1util_1_1_i_turtle_status.html#aba75fc263d688682e8a1c9417c0d171e" target="_top" xlink:title="slogo.backend.util.ITurtle\lStatus.isActive">
<polygon fill="white" stroke="black" points="182,-294 182,-324 316,-324 316,-294 182,-294"/>
<text text-anchor="start" x="190" y="-312" font-family="Helvetica,sans-Serif" font-size="10.00">slogo.backend.util.ITurtle</text>
<text text-anchor="middle" x="249" y="-301" font-family="Helvetica,sans-Serif" font-size="10.00">Status.isActive</text>
</a>
</g>
</g>
<!-- Node1&#45;&gt;Node2 -->
<g id="edge1" class="edge"><title>Node1&#45;&gt;Node2</title>
<path fill="none" stroke="midnightblue" d="M83.8203,-177.262C100.905,-202.705 138.466,-253.951 182,-284 184.723,-285.879 187.605,-287.64 190.584,-289.287"/>
<polygon fill="midnightblue" stroke="midnightblue" points="189.235,-292.526 199.742,-293.888 192.378,-286.271 189.235,-292.526"/>
</g>
<!-- Node3 -->
<g id="node3" class="node"><title>Node3</title>
<g id="a_node3"><a xlink:href="../../da/dce/interfaceslogo_1_1backend_1_1util_1_1_i_turtle_status.html#a152eefbc91fa474620751cf643f21b87" target="_top" xlink:title="slogo.backend.util.ITurtle\lStatus.lineSequence">
<polygon fill="white" stroke="black" points="182,-245 182,-275 316,-275 316,-245 182,-245"/>
<text text-anchor="start" x="190" y="-263" font-family="Helvetica,sans-Serif" font-size="10.00">slogo.backend.util.ITurtle</text>
<text text-anchor="middle" x="249" y="-252" font-family="Helvetica,sans-Serif" font-size="10.00">Status.lineSequence</text>
</a>
</g>
</g>
<!-- Node1&#45;&gt;Node3 -->
<g id="edge2" class="edge"><title>Node1&#45;&gt;Node3</title>
<path fill="none" stroke="midnightblue" d="M93.437,-177.181C114.42,-193.07 149.249,-218.023 182,-235 186.025,-237.086 190.265,-239.092 194.574,-240.996"/>
<polygon fill="midnightblue" stroke="midnightblue" points="193.487,-244.336 204.061,-244.996 196.206,-237.886 193.487,-244.336"/>
</g>
<!-- Node4 -->
<g id="node4" class="node"><title>Node4</title>
<g id="a_node4"><a xlink:href="../../da/dce/interfaceslogo_1_1backend_1_1util_1_1_i_turtle_status.html#a9529cb7782abfda8ae3de99971d9a964" target="_top" xlink:title="slogo.backend.util.ITurtle\lStatus.penState">
<polygon fill="white" stroke="black" points="182,-196 182,-226 316,-226 316,-196 182,-196"/>
<text text-anchor="start" x="190" y="-214" font-family="Helvetica,sans-Serif" font-size="10.00">slogo.backend.util.ITurtle</text>
<text text-anchor="middle" x="249" y="-203" font-family="Helvetica,sans-Serif" font-size="10.00">Status.penState</text>
</a>
</g>
</g>
<!-- Node1&#45;&gt;Node4 -->
<g id="edge3" class="edge"><title>Node1&#45;&gt;Node4</title>
<path fill="none" stroke="midnightblue" d="M127.626,-177.101C145.737,-182.202 166.124,-187.943 184.9,-193.23"/>
<polygon fill="midnightblue" stroke="midnightblue" points="183.977,-196.607 194.552,-195.948 185.875,-189.869 183.977,-196.607"/>
</g>
<!-- Node5 -->
<g id="node5" class="node"><title>Node5</title>
<g id="a_node5"><a xlink:href="../../da/dce/interfaceslogo_1_1backend_1_1util_1_1_i_turtle_status.html#a4a08f292d66a8b54cd6f9d762f96cb77" target="_top" xlink:title="slogo.backend.util.ITurtle\lStatus.turtleDirection">
<polygon fill="white" stroke="black" points="182,-147 182,-177 316,-177 316,-147 182,-147"/>
<text text-anchor="start" x="190" y="-165" font-family="Helvetica,sans-Serif" font-size="10.00">slogo.backend.util.ITurtle</text>
<text text-anchor="middle" x="249" y="-154" font-family="Helvetica,sans-Serif" font-size="10.00">Status.turtleDirection</text>
</a>
</g>
</g>
<!-- Node1&#45;&gt;Node5 -->
<g id="edge4" class="edge"><title>Node1&#45;&gt;Node5</title>
<path fill="none" stroke="midnightblue" d="M145.526,-162C154.149,-162 162.982,-162 171.671,-162"/>
<polygon fill="midnightblue" stroke="midnightblue" points="171.784,-165.5 181.784,-162 171.784,-158.5 171.784,-165.5"/>
</g>
<!-- Node6 -->
<g id="node6" class="node"><title>Node6</title>
<g id="a_node6"><a xlink:href="../../da/dce/interfaceslogo_1_1backend_1_1util_1_1_i_turtle_status.html#ae3148492422bedc104358196be2c099a" target="_top" xlink:title="slogo.backend.util.ITurtle\lStatus.turtlePosition">
<polygon fill="white" stroke="black" points="182,-98 182,-128 316,-128 316,-98 182,-98"/>
<text text-anchor="start" x="190" y="-116" font-family="Helvetica,sans-Serif" font-size="10.00">slogo.backend.util.ITurtle</text>
<text text-anchor="middle" x="249" y="-105" font-family="Helvetica,sans-Serif" font-size="10.00">Status.turtlePosition</text>
</a>
</g>
</g>
<!-- Node1&#45;&gt;Node6 -->
<g id="edge5" class="edge"><title>Node1&#45;&gt;Node6</title>
<path fill="none" stroke="midnightblue" d="M127.626,-146.899C145.737,-141.798 166.124,-136.057 184.9,-130.77"/>
<polygon fill="midnightblue" stroke="midnightblue" points="185.875,-134.131 194.552,-128.052 183.977,-127.393 185.875,-134.131"/>
</g>
<!-- Node7 -->
<g id="node7" class="node"><title>Node7</title>
<g id="a_node7"><a xlink:href="../../da/dce/interfaceslogo_1_1backend_1_1util_1_1_i_turtle_status.html#ab3f3312b9c4289ea7750dbcaa91819eb" target="_top" xlink:title="slogo.backend.util.ITurtle\lStatus.turtleQualities">
<polygon fill="white" stroke="black" points="182,-49 182,-79 316,-79 316,-49 182,-49"/>
<text text-anchor="start" x="190" y="-67" font-family="Helvetica,sans-Serif" font-size="10.00">slogo.backend.util.ITurtle</text>
<text text-anchor="middle" x="249" y="-56" font-family="Helvetica,sans-Serif" font-size="10.00">Status.turtleQualities</text>
</a>
</g>
</g>
<!-- Node1&#45;&gt;Node7 -->
<g id="edge6" class="edge"><title>Node1&#45;&gt;Node7</title>
<path fill="none" stroke="midnightblue" d="M93.437,-146.819C114.42,-130.93 149.249,-105.977 182,-89 186.025,-86.9136 190.265,-84.9081 194.574,-83.0036"/>
<polygon fill="midnightblue" stroke="midnightblue" points="196.206,-86.1139 204.061,-79.0037 193.487,-79.6638 196.206,-86.1139"/>
</g>
<!-- Node8 -->
<g id="node8" class="node"><title>Node8</title>
<g id="a_node8"><a xlink:href="../../da/dce/interfaceslogo_1_1backend_1_1util_1_1_i_turtle_status.html#ac462e594c461da9b6ca21c85d5f46341" target="_top" xlink:title="slogo.backend.util.ITurtle\lStatus.turtleVisibility">
<polygon fill="white" stroke="black" points="182,-0 182,-30 316,-30 316,-0 182,-0"/>
<text text-anchor="start" x="190" y="-18" font-family="Helvetica,sans-Serif" font-size="10.00">slogo.backend.util.ITurtle</text>
<text text-anchor="middle" x="249" y="-7" font-family="Helvetica,sans-Serif" font-size="10.00">Status.turtleVisibility</text>
</a>
</g>
</g>
<!-- Node1&#45;&gt;Node8 -->
<g id="edge7" class="edge"><title>Node1&#45;&gt;Node8</title>
<path fill="none" stroke="midnightblue" d="M83.8203,-146.738C100.905,-121.295 138.466,-70.0487 182,-40 184.723,-38.1207 187.605,-36.3598 190.584,-34.7131"/>
<polygon fill="midnightblue" stroke="midnightblue" points="192.378,-37.7286 199.742,-30.1118 189.235,-31.4736 192.378,-37.7286"/>
</g>
</g>
</svg>
