<?xml version="1.0" encoding="UTF-8" standalone="no"?>
<!DOCTYPE svg PUBLIC "-//W3C//DTD SVG 1.1//EN"
 "http://www.w3.org/Graphics/SVG/1.1/DTD/svg11.dtd">
<!-- Generated by graphviz version 2.36.0 (20140111.2315)
 -->
<!-- Title: slogo.backend.impl.tokenization.TokenRule.Builder.build Pages: 1 -->
<svg width="392pt" height="38pt"
 viewBox="0.00 0.00 392.00 38.00" xmlns="http://www.w3.org/2000/svg" xmlns:xlink="http://www.w3.org/1999/xlink">
<g id="graph0" class="graph" transform="scale(1 1) rotate(0) translate(4 34)">
<title>slogo.backend.impl.tokenization.TokenRule.Builder.build</title>
<polygon fill="white" stroke="none" points="-4,4 -4,-34 388,-34 388,4 -4,4"/>
<!-- Node1 -->
<g id="node1" class="node"><title>Node1</title>
<polygon fill="#bfbfbf" stroke="black" points="0.5,-0 0.5,-30 173.5,-30 173.5,-0 0.5,-0"/>
<text text-anchor="start" x="8.5" y="-18" font-family="Helvetica,sans-Serif" font-size="10.00">slogo.backend.impl.tokenization.</text>
<text text-anchor="middle" x="87" y="-7" font-family="Helvetica,sans-Serif" font-size="10.00">TokenRule.Builder.build</text>
</g>
<!-- Node2 -->
<g id="node2" class="node"><title>Node2</title>
<g id="a_node2"><a xlink:href="../../d8/dc5/classslogo_1_1backend_1_1impl_1_1tokenization_1_1_token_rule.html#ad2616f44a4694e9b04add930a4e6f017" target="_top" xlink:title="slogo.backend.impl.tokenization.\lTokenRule.TokenRule">
<polygon fill="white" stroke="black" points="210.5,-0 210.5,-30 383.5,-30 383.5,-0 210.5,-0"/>
<text text-anchor="start" x="218.5" y="-18" font-family="Helvetica,sans-Serif" font-size="10.00">slogo.backend.impl.tokenization.</text>
<text text-anchor="middle" x="297" y="-7" font-family="Helvetica,sans-Serif" font-size="10.00">TokenRule.TokenRule</text>
</a>
</g>
</g>
<!-- Node1&#45;&gt;Node2 -->
<g id="edge1" class="edge"><title>Node1&#45;&gt;Node2</title>
<path fill="none" stroke="midnightblue" d="M173.502,-15C182.376,-15 191.435,-15 200.411,-15"/>
<polygon fill="midnightblue" stroke="midnightblue" points="200.494,-18.5001 210.494,-15 200.494,-11.5001 200.494,-18.5001"/>
</g>
</g>
</svg>
