<?xml version="1.0" encoding="UTF-8" standalone="no"?>
<!DOCTYPE svg PUBLIC "-//W3C//DTD SVG 1.1//EN"
 "http://www.w3.org/Graphics/SVG/1.1/DTD/svg11.dtd">
<!-- Generated by graphviz version 2.36.0 (20140111.2315)
 -->
<!-- Title: slogo.backend.impl.tokenization.TokenRule.Builder.build Pages: 1 -->
<svg width="594pt" height="136pt"
 viewBox="0.00 0.00 594.00 136.00" xmlns="http://www.w3.org/2000/svg" xmlns:xlink="http://www.w3.org/1999/xlink">
<g id="graph0" class="graph" transform="scale(1 1) rotate(0) translate(4 132)">
<title>slogo.backend.impl.tokenization.TokenRule.Builder.build</title>
<polygon fill="white" stroke="none" points="-4,4 -4,-132 590,-132 590,4 -4,4"/>
<!-- Node1 -->
<g id="node1" class="node"><title>Node1</title>
<polygon fill="#bfbfbf" stroke="black" points="0.5,-49 0.5,-79 173.5,-79 173.5,-49 0.5,-49"/>
<text text-anchor="start" x="8.5" y="-67" font-family="Helvetica,sans-Serif" font-size="10.00">slogo.backend.impl.tokenization.</text>
<text text-anchor="middle" x="87" y="-56" font-family="Helvetica,sans-Serif" font-size="10.00">TokenRule.Builder.build</text>
</g>
<!-- Node2 -->
<g id="node2" class="node"><title>Node2</title>
<g id="a_node2"><a xlink:href="../../d7/de0/classslogo_1_1backend_1_1test_1_1_tokenization_test.html#ab027ae259cec2347c6f67ead6edb41f0" target="_top" xlink:title="slogo.backend.test.Tokenization\lTest.testMatch">
<polygon fill="white" stroke="black" points="217.5,-98 217.5,-128 386.5,-128 386.5,-98 217.5,-98"/>
<text text-anchor="start" x="225.5" y="-116" font-family="Helvetica,sans-Serif" font-size="10.00">slogo.backend.test.Tokenization</text>
<text text-anchor="middle" x="302" y="-105" font-family="Helvetica,sans-Serif" font-size="10.00">Test.testMatch</text>
</a>
</g>
</g>
<!-- Node1&#45;&gt;Node2 -->
<g id="edge1" class="edge"><title>Node1&#45;&gt;Node2</title>
<path fill="none" stroke="midnightblue" d="M163.337,-81.3309C186.985,-86.7712 212.881,-92.7285 235.769,-97.9938"/>
<polygon fill="midnightblue" stroke="midnightblue" points="163.885,-77.8657 153.355,-79.0346 162.315,-84.6875 163.885,-77.8657"/>
</g>
<!-- Node3 -->
<g id="node3" class="node"><title>Node3</title>
<g id="a_node3"><a xlink:href="../../d7/de0/classslogo_1_1backend_1_1test_1_1_tokenization_test.html#a141b1bda5bb560354cce0d2a4c3bf967" target="_top" xlink:title="slogo.backend.test.Tokenization\lTest.testTokenize">
<polygon fill="white" stroke="black" points="217.5,-49 217.5,-79 386.5,-79 386.5,-49 217.5,-49"/>
<text text-anchor="start" x="225.5" y="-67" font-family="Helvetica,sans-Serif" font-size="10.00">slogo.backend.test.Tokenization</text>
<text text-anchor="middle" x="302" y="-56" font-family="Helvetica,sans-Serif" font-size="10.00">Test.testTokenize</text>
</a>
</g>
</g>
<!-- Node1&#45;&gt;Node3 -->
<g id="edge2" class="edge"><title>Node1&#45;&gt;Node3</title>
<path fill="none" stroke="midnightblue" d="M183.865,-64C194.982,-64 206.254,-64 217.192,-64"/>
<polygon fill="midnightblue" stroke="midnightblue" points="183.715,-60.5001 173.715,-64 183.715,-67.5001 183.715,-60.5001"/>
</g>
<!-- Node4 -->
<g id="node4" class="node"><title>Node4</title>
<g id="a_node4"><a xlink:href="../../da/da1/classslogo_1_1backend_1_1impl_1_1_backend.html#a57e50288932944f6885af53132589ed7" target="_top" xlink:title="slogo.backend.impl.Backend.token\lRules">
<polygon fill="white" stroke="black" points="210.5,-0 210.5,-30 393.5,-30 393.5,-0 210.5,-0"/>
<text text-anchor="start" x="218.5" y="-18" font-family="Helvetica,sans-Serif" font-size="10.00">slogo.backend.impl.Backend.token</text>
<text text-anchor="middle" x="302" y="-7" font-family="Helvetica,sans-Serif" font-size="10.00">Rules</text>
</a>
</g>
</g>
<!-- Node1&#45;&gt;Node4 -->
<g id="edge3" class="edge"><title>Node1&#45;&gt;Node4</title>
<path fill="none" stroke="midnightblue" d="M163.337,-46.6691C186.985,-41.2288 212.881,-35.2715 235.769,-30.0062"/>
<polygon fill="midnightblue" stroke="midnightblue" points="162.315,-43.3125 153.355,-48.9654 163.885,-50.1343 162.315,-43.3125"/>
</g>
<!-- Node5 -->
<g id="node5" class="node"><title>Node5</title>
<g id="a_node5"><a xlink:href="../../da/da1/classslogo_1_1backend_1_1impl_1_1_backend.html#af2452dcfaffd59fa963bb3846d903d19" target="_top" xlink:title="slogo.backend.impl.Backend.\lBackend">
<polygon fill="white" stroke="black" points="430,-0 430,-30 586,-30 586,-0 430,-0"/>
<text text-anchor="start" x="438" y="-18" font-family="Helvetica,sans-Serif" font-size="10.00">slogo.backend.impl.Backend.</text>
<text text-anchor="middle" x="508" y="-7" font-family="Helvetica,sans-Serif" font-size="10.00">Backend</text>
</a>
</g>
</g>
<!-- Node4&#45;&gt;Node5 -->
<g id="edge4" class="edge"><title>Node4&#45;&gt;Node5</title>
<path fill="none" stroke="midnightblue" d="M403.847,-15C412.537,-15 421.238,-15 429.698,-15"/>
<polygon fill="midnightblue" stroke="midnightblue" points="403.665,-11.5001 393.665,-15 403.665,-18.5001 403.665,-11.5001"/>
</g>
</g>
</svg>
