<?xml version="1.0" encoding="UTF-8" standalone="no"?>
<!DOCTYPE svg PUBLIC "-//W3C//DTD SVG 1.1//EN"
 "http://www.w3.org/Graphics/SVG/1.1/DTD/svg11.dtd">
<!-- Generated by graphviz version 2.36.0 (20140111.2315)
 -->
<!-- Title: slogo.UI.ModuleCreationHelper.setListViewVariables Pages: 1 -->
<svg width="2774pt" height="427pt"
 viewBox="0.00 0.00 2774.00 427.00" xmlns="http://www.w3.org/2000/svg" xmlns:xlink="http://www.w3.org/1999/xlink">
<g id="graph0" class="graph" transform="scale(1 1) rotate(0) translate(4 423)">
<title>slogo.UI.ModuleCreationHelper.setListViewVariables</title>
<polygon fill="white" stroke="none" points="-4,4 -4,-423 2770,-423 2770,4 -4,4"/>
<!-- Node1 -->
<g id="node1" class="node"><title>Node1</title>
<polygon fill="#bfbfbf" stroke="black" points="0,-49 0,-79 182,-79 182,-49 0,-49"/>
<text text-anchor="start" x="8" y="-67" font-family="Helvetica,sans-Serif" font-size="10.00">slogo.UI.ModuleCreationHelper.set</text>
<text text-anchor="middle" x="91" y="-56" font-family="Helvetica,sans-Serif" font-size="10.00">ListViewVariables</text>
</g>
<!-- Node2 -->
<g id="node2" class="node"><title>Node2</title>
<g id="a_node2"><a xlink:href="../../d9/d7e/classslogo_1_1_u_i_1_1_method_runner.html#a5fe4a6310ba1b0851d7d30a440511324" target="_top" xlink:title="slogo.UI.MethodRunner.change\lTurtle">
<polygon fill="white" stroke="black" points="218,-49 218,-79 382,-79 382,-49 218,-49"/>
<text text-anchor="start" x="226" y="-67" font-family="Helvetica,sans-Serif" font-size="10.00">slogo.UI.MethodRunner.change</text>
<text text-anchor="middle" x="300" y="-56" font-family="Helvetica,sans-Serif" font-size="10.00">Turtle</text>
</a>
</g>
</g>
<!-- Node1&#45;&gt;Node2 -->
<g id="edge1" class="edge"><title>Node1&#45;&gt;Node2</title>
<path fill="none" stroke="midnightblue" d="M192.253,-64C200.848,-64 209.474,-64 217.891,-64"/>
<polygon fill="midnightblue" stroke="midnightblue" points="192.191,-60.5001 182.191,-64 192.191,-67.5001 192.191,-60.5001"/>
</g>
<!-- Node3 -->
<g id="node3" class="node"><title>Node3</title>
<g id="a_node3"><a xlink:href="../../df/d2d/classslogo_1_1_view.html#accc79c56511a72090ff8a4d414b8d1f5" target="_top" xlink:title="slogo.View.executeTurtle\lCommands">
<polygon fill="white" stroke="black" points="418.5,-49 418.5,-79 551.5,-79 551.5,-49 418.5,-49"/>
<text text-anchor="start" x="426.5" y="-67" font-family="Helvetica,sans-Serif" font-size="10.00">slogo.View.executeTurtle</text>
<text text-anchor="middle" x="485" y="-56" font-family="Helvetica,sans-Serif" font-size="10.00">Commands</text>
</a>
</g>
</g>
<!-- Node2&#45;&gt;Node3 -->
<g id="edge2" class="edge"><title>Node2&#45;&gt;Node3</title>
<path fill="none" stroke="midnightblue" d="M392.35,-64C401.128,-64 409.907,-64 418.365,-64"/>
<polygon fill="midnightblue" stroke="midnightblue" points="392.066,-60.5001 382.066,-64 392.066,-67.5001 392.066,-60.5001"/>
</g>
<!-- Node4 -->
<g id="node4" class="node"><title>Node4</title>
<g id="a_node4"><a xlink:href="../../df/d2d/classslogo_1_1_view.html#aa90e5d95d422b58b7f4b7f8a049defe1" target="_top" xlink:title="slogo.View.executeCommand">
<polygon fill="white" stroke="black" points="588,-54.5 588,-73.5 746,-73.5 746,-54.5 588,-54.5"/>
<text text-anchor="middle" x="667" y="-61.5" font-family="Helvetica,sans-Serif" font-size="10.00">slogo.View.executeCommand</text>
</a>
</g>
</g>
<!-- Node3&#45;&gt;Node4 -->
<g id="edge3" class="edge"><title>Node3&#45;&gt;Node4</title>
<path fill="none" stroke="midnightblue" d="M561.784,-64C570.42,-64 579.235,-64 587.901,-64"/>
<polygon fill="midnightblue" stroke="midnightblue" points="561.748,-60.5001 551.748,-64 561.748,-67.5001 561.748,-60.5001"/>
</g>
<!-- Node5 -->
<g id="node5" class="node"><title>Node5</title>
<g id="a_node5"><a xlink:href="../../df/d2d/classslogo_1_1_view.html#aee563f6a0b15ac6668e4dcbdad40c73c" target="_top" xlink:title="slogo.View.sendCommandTo\lBackend">
<polygon fill="white" stroke="black" points="788,-213 788,-243 940,-243 940,-213 788,-213"/>
<text text-anchor="start" x="796" y="-231" font-family="Helvetica,sans-Serif" font-size="10.00">slogo.View.sendCommandTo</text>
<text text-anchor="middle" x="864" y="-220" font-family="Helvetica,sans-Serif" font-size="10.00">Backend</text>
</a>
</g>
</g>
<!-- Node4&#45;&gt;Node5 -->
<g id="edge4" class="edge"><title>Node4&#45;&gt;Node5</title>
<path fill="none" stroke="midnightblue" d="M687.054,-80.0252C724.765,-111.741 808.433,-182.108 845.146,-212.984"/>
<polygon fill="midnightblue" stroke="midnightblue" points="689.233,-77.2841 679.327,-73.5262 684.727,-82.6414 689.233,-77.2841"/>
</g>
<!-- Node25 -->
<g id="node25" class="node"><title>Node25</title>
<g id="a_node25"><a xlink:href="../../df/d2d/classslogo_1_1_view.html#a4c3084a198acf85804800d70eff9ee51" target="_top" xlink:title="slogo.View.stepIntoCommand">
<polygon fill="white" stroke="black" points="785,-54.5 785,-73.5 943,-73.5 943,-54.5 785,-54.5"/>
<text text-anchor="middle" x="864" y="-61.5" font-family="Helvetica,sans-Serif" font-size="10.00">slogo.View.stepIntoCommand</text>
</a>
</g>
</g>
<!-- Node4&#45;&gt;Node25 -->
<g id="edge32" class="edge"><title>Node4&#45;&gt;Node25</title>
<path fill="none" stroke="midnightblue" d="M756.402,-64C765.87,-64 775.454,-64 784.792,-64"/>
<polygon fill="midnightblue" stroke="midnightblue" points="756.19,-60.5001 746.19,-64 756.19,-67.5001 756.19,-60.5001"/>
</g>
<!-- Node29 -->
<g id="node29" class="node"><title>Node29</title>
<g id="a_node29"><a xlink:href="../../df/d2d/classslogo_1_1_view.html#ac8b7f574c679e744a430f1649dc55e68" target="_top" xlink:title="slogo.View.stepOverCommand">
<polygon fill="white" stroke="black" points="782.5,-11.5 782.5,-30.5 945.5,-30.5 945.5,-11.5 782.5,-11.5"/>
<text text-anchor="middle" x="864" y="-18.5" font-family="Helvetica,sans-Serif" font-size="10.00">slogo.View.stepOverCommand</text>
</a>
</g>
</g>
<!-- Node4&#45;&gt;Node29 -->
<g id="edge37" class="edge"><title>Node4&#45;&gt;Node29</title>
<path fill="none" stroke="midnightblue" d="M721.056,-52.3005C752.068,-45.462 790.711,-36.9406 819.844,-30.5164"/>
<polygon fill="midnightblue" stroke="midnightblue" points="720.288,-48.8855 711.277,-54.4569 721.796,-55.7213 720.288,-48.8855"/>
</g>
<!-- Node6 -->
<g id="node6" class="node"><title>Node6</title>
<g id="a_node6"><a xlink:href="../../db/d19/classslogo_1_1_u_i_1_1_module_creation_helper.html#a69e17abcc7cf9a6ed7261d8fb1d631fa" target="_top" xlink:title="slogo.UI.ModuleCreationHelper.activate\lIncreaseDecreaseButtons">
<polygon fill="white" stroke="black" points="982.5,-389 982.5,-419 1187.5,-419 1187.5,-389 982.5,-389"/>
<text text-anchor="start" x="990.5" y="-407" font-family="Helvetica,sans-Serif" font-size="10.00">slogo.UI.ModuleCreationHelper.activate</text>
<text text-anchor="middle" x="1085" y="-396" font-family="Helvetica,sans-Serif" font-size="10.00">IncreaseDecreaseButtons</text>
</a>
</g>
</g>
<!-- Node5&#45;&gt;Node6 -->
<g id="edge5" class="edge"><title>Node5&#45;&gt;Node6</title>
<path fill="none" stroke="midnightblue" d="M878.043,-252.219C896.779,-284.724 934.363,-342.06 982,-374 991.122,-380.116 1001.51,-385.01 1012.09,-388.919"/>
<polygon fill="midnightblue" stroke="midnightblue" points="881.013,-250.361 873.054,-243.368 874.915,-253.798 881.013,-250.361"/>
</g>
<!-- Node13 -->
<g id="node13" class="node"><title>Node13</title>
<g id="a_node13"><a xlink:href="../../db/d19/classslogo_1_1_u_i_1_1_module_creation_helper.html#aa70b0ad9e90e62509149bfd2ef2ba209" target="_top" xlink:title="slogo.UI.ModuleCreationHelper.activate\lKeyEvents">
<polygon fill="white" stroke="black" points="1708.5,-136 1708.5,-166 1913.5,-166 1913.5,-136 1708.5,-136"/>
<text text-anchor="start" x="1716.5" y="-154" font-family="Helvetica,sans-Serif" font-size="10.00">slogo.UI.ModuleCreationHelper.activate</text>
<text text-anchor="middle" x="1811" y="-143" font-family="Helvetica,sans-Serif" font-size="10.00">KeyEvents</text>
</a>
</g>
</g>
<!-- Node5&#45;&gt;Node13 -->
<g id="edge13" class="edge"><title>Node5&#45;&gt;Node13</title>
<path fill="none" stroke="midnightblue" d="M894.179,-207.164C916.902,-192.251 949.88,-173.388 982,-165 1116.15,-129.97 1518.16,-139.777 1708.26,-146.744"/>
<polygon fill="midnightblue" stroke="midnightblue" points="892.049,-204.378 885.699,-212.86 895.952,-210.189 892.049,-204.378"/>
</g>
<!-- Node14 -->
<g id="node14" class="node"><title>Node14</title>
<g id="a_node14"><a xlink:href="../../db/d19/classslogo_1_1_u_i_1_1_module_creation_helper.html#a2e841243ec3ca474e8822102343acc88" target="_top" xlink:title="slogo.UI.ModuleCreationHelper.activate\lNewTurtleButton">
<polygon fill="white" stroke="black" points="1224.5,-344 1224.5,-374 1429.5,-374 1429.5,-344 1224.5,-344"/>
<text text-anchor="start" x="1232.5" y="-362" font-family="Helvetica,sans-Serif" font-size="10.00">slogo.UI.ModuleCreationHelper.activate</text>
<text text-anchor="middle" x="1327" y="-351" font-family="Helvetica,sans-Serif" font-size="10.00">NewTurtleButton</text>
</a>
</g>
</g>
<!-- Node5&#45;&gt;Node14 -->
<g id="edge15" class="edge"><title>Node5&#45;&gt;Node14</title>
<path fill="none" stroke="midnightblue" d="M881.021,-251.155C901.099,-278.009 938.24,-321.013 982,-340 1058.41,-373.152 1153.47,-375.86 1224.29,-371.435"/>
<polygon fill="midnightblue" stroke="midnightblue" points="883.834,-249.073 875.115,-243.055 878.178,-253.197 883.834,-249.073"/>
</g>
<!-- Node16 -->
<g id="node16" class="node"><title>Node16</title>
<g id="a_node16"><a xlink:href="../../db/d19/classslogo_1_1_u_i_1_1_module_creation_helper.html#a9b1f07ab673191067907a059b1b0c524" target="_top" xlink:title="slogo.UI.ModuleCreationHelper.activate\lPlayButton">
<polygon fill="white" stroke="black" points="982.5,-301 982.5,-331 1187.5,-331 1187.5,-301 982.5,-301"/>
<text text-anchor="start" x="990.5" y="-319" font-family="Helvetica,sans-Serif" font-size="10.00">slogo.UI.ModuleCreationHelper.activate</text>
<text text-anchor="middle" x="1085" y="-308" font-family="Helvetica,sans-Serif" font-size="10.00">PlayButton</text>
</a>
</g>
</g>
<!-- Node5&#45;&gt;Node16 -->
<g id="edge18" class="edge"><title>Node5&#45;&gt;Node16</title>
<path fill="none" stroke="midnightblue" d="M897.42,-248.354C920.332,-262.006 952.156,-279.522 982,-291 991.7,-294.73 1002.14,-298.039 1012.5,-300.929"/>
<polygon fill="midnightblue" stroke="midnightblue" points="899.162,-245.317 888.792,-243.145 895.544,-251.31 899.162,-245.317"/>
</g>
<!-- Node19 -->
<g id="node19" class="node"><title>Node19</title>
<g id="a_node19"><a xlink:href="../../db/d19/classslogo_1_1_u_i_1_1_module_creation_helper.html#a3a38d485562cb17591ec3fd07cffc18a" target="_top" xlink:title="slogo.UI.ModuleCreationHelper.activate\lTurtleCanvas">
<polygon fill="white" stroke="black" points="1466.5,-87 1466.5,-117 1671.5,-117 1671.5,-87 1466.5,-87"/>
<text text-anchor="start" x="1474.5" y="-105" font-family="Helvetica,sans-Serif" font-size="10.00">slogo.UI.ModuleCreationHelper.activate</text>
<text text-anchor="middle" x="1569" y="-94" font-family="Helvetica,sans-Serif" font-size="10.00">TurtleCanvas</text>
</a>
</g>
</g>
<!-- Node5&#45;&gt;Node19 -->
<g id="edge22" class="edge"><title>Node5&#45;&gt;Node19</title>
<path fill="none" stroke="midnightblue" d="M884.366,-205.232C905.633,-182.064 942.105,-147.434 982,-132 1067.51,-98.92 1322.48,-97.5272 1466.33,-99.6157"/>
<polygon fill="midnightblue" stroke="midnightblue" points="881.563,-203.115 877.497,-212.898 886.777,-207.786 881.563,-203.115"/>
</g>
<!-- Node21 -->
<g id="node21" class="node"><title>Node21</title>
<g id="a_node21"><a xlink:href="../../d1/d5f/classslogo_1_1_u_i_1_1_path_color_selector.html#ad3d9c82a0904c97edcec7cf67b85bd7b" target="_top" xlink:title="slogo.UI.PathColorSelector.create">
<polygon fill="white" stroke="black" points="997,-262.5 997,-281.5 1173,-281.5 1173,-262.5 997,-262.5"/>
<text text-anchor="middle" x="1085" y="-269.5" font-family="Helvetica,sans-Serif" font-size="10.00">slogo.UI.PathColorSelector.create</text>
</a>
</g>
</g>
<!-- Node5&#45;&gt;Node21 -->
<g id="edge25" class="edge"><title>Node5&#45;&gt;Node21</title>
<path fill="none" stroke="midnightblue" d="M947.739,-245.065C959.243,-247.411 970.914,-249.776 982,-252 999.251,-255.46 1018.16,-259.186 1034.95,-262.473"/>
<polygon fill="midnightblue" stroke="midnightblue" points="948.189,-241.585 937.69,-243.013 946.788,-248.443 948.189,-241.585"/>
</g>
<!-- Node23 -->
<g id="node23" class="node"><title>Node23</title>
<g id="a_node23"><a xlink:href="../../d4/d8d/classslogo_1_1_u_i_1_1_background_color_selector.html#ad75ba4ce104e071811d0fe039a4e839f" target="_top" xlink:title="slogo.UI.BackgroundColor\lSelector.create">
<polygon fill="white" stroke="black" points="1015,-213 1015,-243 1155,-243 1155,-213 1015,-213"/>
<text text-anchor="start" x="1023" y="-231" font-family="Helvetica,sans-Serif" font-size="10.00">slogo.UI.BackgroundColor</text>
<text text-anchor="middle" x="1085" y="-220" font-family="Helvetica,sans-Serif" font-size="10.00">Selector.create</text>
</a>
</g>
</g>
<!-- Node5&#45;&gt;Node23 -->
<g id="edge28" class="edge"><title>Node5&#45;&gt;Node23</title>
<path fill="none" stroke="midnightblue" d="M950.142,-228C971.597,-228 994.367,-228 1014.93,-228"/>
<polygon fill="midnightblue" stroke="midnightblue" points="950.061,-224.5 940.061,-228 950.061,-231.5 950.061,-224.5"/>
</g>
<!-- Node24 -->
<g id="node24" class="node"><title>Node24</title>
<g id="a_node24"><a xlink:href="../../dd/da7/classslogo_1_1_u_i_1_1_turtle_image_selector.html#a3f268d9196ffebcbb5dc322d2897a9fe" target="_top" xlink:title="slogo.UI.TurtleImageSelector.create">
<polygon fill="white" stroke="black" points="992,-174.5 992,-193.5 1178,-193.5 1178,-174.5 992,-174.5"/>
<text text-anchor="middle" x="1085" y="-181.5" font-family="Helvetica,sans-Serif" font-size="10.00">slogo.UI.TurtleImageSelector.create</text>
</a>
</g>
</g>
<!-- Node5&#45;&gt;Node24 -->
<g id="edge30" class="edge"><title>Node5&#45;&gt;Node24</title>
<path fill="none" stroke="midnightblue" d="M944.012,-210.821C956.704,-208.147 969.705,-205.458 982,-203 997.985,-199.804 1015.42,-196.493 1031.27,-193.548"/>
<polygon fill="midnightblue" stroke="midnightblue" points="942.977,-207.463 933.919,-212.958 944.427,-214.311 942.977,-207.463"/>
</g>
<!-- Node7 -->
<g id="node7" class="node"><title>Node7</title>
<g id="a_node7"><a xlink:href="../../db/d19/classslogo_1_1_u_i_1_1_module_creation_helper.html#adce7362386f9a7b3006e7db08a2d578d" target="_top" xlink:title="slogo.UI.ModuleCreationHelper.create\lIncreaseDecreaseButtons">
<polygon fill="white" stroke="black" points="1470.5,-380 1470.5,-410 1667.5,-410 1667.5,-380 1470.5,-380"/>
<text text-anchor="start" x="1478.5" y="-398" font-family="Helvetica,sans-Serif" font-size="10.00">slogo.UI.ModuleCreationHelper.create</text>
<text text-anchor="middle" x="1569" y="-387" font-family="Helvetica,sans-Serif" font-size="10.00">IncreaseDecreaseButtons</text>
</a>
</g>
</g>
<!-- Node6&#45;&gt;Node7 -->
<g id="edge6" class="edge"><title>Node6&#45;&gt;Node7</title>
<path fill="none" stroke="midnightblue" d="M1197.79,-401.913C1280.23,-400.373 1391.29,-398.299 1470.21,-396.826"/>
<polygon fill="midnightblue" stroke="midnightblue" points="1197.56,-398.416 1187.63,-402.102 1197.69,-405.415 1197.56,-398.416"/>
</g>
<!-- Node8 -->
<g id="node8" class="node"><title>Node8</title>
<g id="a_node8"><a xlink:href="../../db/d19/classslogo_1_1_u_i_1_1_module_creation_helper.html#a7c650957b2389d6e6d36e8be8a33cd2b" target="_top" xlink:title="slogo.UI.ModuleCreationHelper.create\lSelectorVBoxModules">
<polygon fill="white" stroke="black" points="1712.5,-253 1712.5,-283 1909.5,-283 1909.5,-253 1712.5,-253"/>
<text text-anchor="start" x="1720.5" y="-271" font-family="Helvetica,sans-Serif" font-size="10.00">slogo.UI.ModuleCreationHelper.create</text>
<text text-anchor="middle" x="1811" y="-260" font-family="Helvetica,sans-Serif" font-size="10.00">SelectorVBoxModules</text>
</a>
</g>
</g>
<!-- Node7&#45;&gt;Node8 -->
<g id="edge7" class="edge"><title>Node7&#45;&gt;Node8</title>
<path fill="none" stroke="midnightblue" d="M1653,-376.732C1659.54,-374.424 1665.95,-371.854 1672,-369 1720.6,-346.077 1769.46,-305.079 1793.92,-283.025"/>
<polygon fill="midnightblue" stroke="midnightblue" points="1651.75,-373.461 1643.36,-379.93 1653.95,-380.105 1651.75,-373.461"/>
</g>
<!-- Node9 -->
<g id="node9" class="node"><title>Node9</title>
<g id="a_node9"><a xlink:href="../../db/d19/classslogo_1_1_u_i_1_1_module_creation_helper.html#afb9dbbbad7d872234a5b296fe129a34e" target="_top" xlink:title="slogo.UI.ModuleCreationHelper.create\lMainPageModules">
<polygon fill="white" stroke="black" points="1950.5,-136 1950.5,-166 2147.5,-166 2147.5,-136 1950.5,-136"/>
<text text-anchor="start" x="1958.5" y="-154" font-family="Helvetica,sans-Serif" font-size="10.00">slogo.UI.ModuleCreationHelper.create</text>
<text text-anchor="middle" x="2049" y="-143" font-family="Helvetica,sans-Serif" font-size="10.00">MainPageModules</text>
</a>
</g>
</g>
<!-- Node8&#45;&gt;Node9 -->
<g id="edge8" class="edge"><title>Node8&#45;&gt;Node9</title>
<path fill="none" stroke="midnightblue" d="M1851.58,-248.38C1898.29,-225.222 1974.96,-187.212 2017.37,-166.184"/>
<polygon fill="midnightblue" stroke="midnightblue" points="1849.77,-245.366 1842.37,-252.944 1852.88,-251.638 1849.77,-245.366"/>
</g>
<!-- Node10 -->
<g id="node10" class="node"><title>Node10</title>
<g id="a_node10"><a xlink:href="../../d9/d33/classslogo_1_1_u_i_1_1_main.html#a15b7f2e399ee24d160550993ab737e73" target="_top" xlink:title="slogo.UI.Main.start">
<polygon fill="white" stroke="black" points="2184,-150.5 2184,-169.5 2290,-169.5 2290,-150.5 2184,-150.5"/>
<text text-anchor="middle" x="2237" y="-157.5" font-family="Helvetica,sans-Serif" font-size="10.00">slogo.UI.Main.start</text>
</a>
</g>
</g>
<!-- Node9&#45;&gt;Node10 -->
<g id="edge9" class="edge"><title>Node9&#45;&gt;Node10</title>
<path fill="none" stroke="midnightblue" d="M2157.8,-156.216C2166.76,-156.65 2175.53,-157.074 2183.76,-157.472"/>
<polygon fill="midnightblue" stroke="midnightblue" points="2157.79,-152.712 2147.63,-155.724 2157.45,-159.703 2157.79,-152.712"/>
</g>
<!-- Node11 -->
<g id="node11" class="node"><title>Node11</title>
<g id="a_node11"><a xlink:href="../../db/d19/classslogo_1_1_u_i_1_1_module_creation_helper.html#a3be12a7cc2b8a219db1e296211a2cb88" target="_top" xlink:title="slogo.UI.ModuleCreationHelper.activate\lExtraWorkspaceButton">
<polygon fill="white" stroke="black" points="2326.5,-163 2326.5,-193 2531.5,-193 2531.5,-163 2326.5,-163"/>
<text text-anchor="start" x="2334.5" y="-181" font-family="Helvetica,sans-Serif" font-size="10.00">slogo.UI.ModuleCreationHelper.activate</text>
<text text-anchor="middle" x="2429" y="-170" font-family="Helvetica,sans-Serif" font-size="10.00">ExtraWorkspaceButton</text>
</a>
</g>
</g>
<!-- Node10&#45;&gt;Node11 -->
<g id="edge10" class="edge"><title>Node10&#45;&gt;Node11</title>
<path fill="none" stroke="midnightblue" d="M2300.22,-165.894C2308.63,-166.691 2317.44,-167.526 2326.32,-168.367"/>
<polygon fill="midnightblue" stroke="midnightblue" points="2300.46,-162.401 2290.17,-164.942 2299.79,-169.37 2300.46,-162.401"/>
</g>
<!-- Node12 -->
<g id="node12" class="node"><title>Node12</title>
<g id="a_node12"><a xlink:href="../../db/d19/classslogo_1_1_u_i_1_1_module_creation_helper.html#a702c1ebe24d2857a10c666eb1fcc315d" target="_top" xlink:title="slogo.UI.ModuleCreationHelper.create\lExtraWorkspaceButton">
<polygon fill="white" stroke="black" points="2568.5,-189 2568.5,-219 2765.5,-219 2765.5,-189 2568.5,-189"/>
<text text-anchor="start" x="2576.5" y="-207" font-family="Helvetica,sans-Serif" font-size="10.00">slogo.UI.ModuleCreationHelper.create</text>
<text text-anchor="middle" x="2667" y="-196" font-family="Helvetica,sans-Serif" font-size="10.00">ExtraWorkspaceButton</text>
</a>
</g>
</g>
<!-- Node11&#45;&gt;Node12 -->
<g id="edge11" class="edge"><title>Node11&#45;&gt;Node12</title>
<path fill="none" stroke="midnightblue" d="M2541.77,-190.313C2550.62,-191.289 2559.52,-192.27 2568.27,-193.234"/>
<polygon fill="midnightblue" stroke="midnightblue" points="2542.12,-186.831 2531.8,-189.215 2541.35,-193.789 2542.12,-186.831"/>
</g>
<!-- Node12&#45;&gt;Node8 -->
<g id="edge12" class="edge"><title>Node12&#45;&gt;Node8</title>
<path fill="none" stroke="midnightblue" d="M2558.34,-212.068C2390.9,-224.617 2070.6,-248.62 1909.55,-260.69"/>
<polygon fill="midnightblue" stroke="midnightblue" points="2558.7,-215.551 2568.41,-211.313 2558.18,-208.571 2558.7,-215.551"/>
</g>
<!-- Node13&#45;&gt;Node9 -->
<g id="edge14" class="edge"><title>Node13&#45;&gt;Node9</title>
<path fill="none" stroke="midnightblue" d="M1924.05,-151C1932.81,-151 1941.62,-151 1950.27,-151"/>
<polygon fill="midnightblue" stroke="midnightblue" points="1923.8,-147.5 1913.8,-151 1923.8,-154.5 1923.8,-147.5"/>
</g>
<!-- Node15 -->
<g id="node15" class="node"><title>Node15</title>
<g id="a_node15"><a xlink:href="../../db/d19/classslogo_1_1_u_i_1_1_module_creation_helper.html#a07f5483df317cdf80e8ea2dda5699afa" target="_top" xlink:title="slogo.UI.ModuleCreationHelper.create\lNewTurtleButton">
<polygon fill="white" stroke="black" points="1470.5,-330 1470.5,-360 1667.5,-360 1667.5,-330 1470.5,-330"/>
<text text-anchor="start" x="1478.5" y="-348" font-family="Helvetica,sans-Serif" font-size="10.00">slogo.UI.ModuleCreationHelper.create</text>
<text text-anchor="middle" x="1569" y="-337" font-family="Helvetica,sans-Serif" font-size="10.00">NewTurtleButton</text>
</a>
</g>
</g>
<!-- Node14&#45;&gt;Node15 -->
<g id="edge16" class="edge"><title>Node14&#45;&gt;Node15</title>
<path fill="none" stroke="midnightblue" d="M1439.89,-352.473C1450.04,-351.881 1460.26,-351.285 1470.27,-350.701"/>
<polygon fill="midnightblue" stroke="midnightblue" points="1439.56,-348.986 1429.78,-353.063 1439.97,-355.974 1439.56,-348.986"/>
</g>
<!-- Node15&#45;&gt;Node8 -->
<g id="edge17" class="edge"><title>Node15&#45;&gt;Node8</title>
<path fill="none" stroke="midnightblue" d="M1640.15,-327.309C1650.87,-324.354 1661.76,-321.203 1672,-318 1705.93,-307.387 1743.86,-293.493 1771.35,-283.046"/>
<polygon fill="midnightblue" stroke="midnightblue" points="1639.12,-323.962 1630.39,-329.963 1640.96,-330.717 1639.12,-323.962"/>
</g>
<!-- Node17 -->
<g id="node17" class="node"><title>Node17</title>
<g id="a_node17"><a xlink:href="../../db/d19/classslogo_1_1_u_i_1_1_module_creation_helper.html#a9b3fb38a55b3b7812b4f793afa7a974f" target="_top" xlink:title="slogo.UI.ModuleCreationHelper.create\lPlayButton">
<polygon fill="white" stroke="black" points="1228.5,-295 1228.5,-325 1425.5,-325 1425.5,-295 1228.5,-295"/>
<text text-anchor="start" x="1236.5" y="-313" font-family="Helvetica,sans-Serif" font-size="10.00">slogo.UI.ModuleCreationHelper.create</text>
<text text-anchor="middle" x="1327" y="-302" font-family="Helvetica,sans-Serif" font-size="10.00">PlayButton</text>
</a>
</g>
</g>
<!-- Node16&#45;&gt;Node17 -->
<g id="edge19" class="edge"><title>Node16&#45;&gt;Node17</title>
<path fill="none" stroke="midnightblue" d="M1197.89,-313.203C1208.04,-312.949 1218.26,-312.694 1228.27,-312.443"/>
<polygon fill="midnightblue" stroke="midnightblue" points="1197.69,-309.707 1187.78,-313.455 1197.87,-316.704 1197.69,-309.707"/>
</g>
<!-- Node18 -->
<g id="node18" class="node"><title>Node18</title>
<g id="a_node18"><a xlink:href="../../db/d19/classslogo_1_1_u_i_1_1_module_creation_helper.html#ae1e60d37509c2e5eddcb2a6e70b4f650" target="_top" xlink:title="slogo.UI.ModuleCreationHelper.create\lFirstRowButtons">
<polygon fill="white" stroke="black" points="1470.5,-279 1470.5,-309 1667.5,-309 1667.5,-279 1470.5,-279"/>
<text text-anchor="start" x="1478.5" y="-297" font-family="Helvetica,sans-Serif" font-size="10.00">slogo.UI.ModuleCreationHelper.create</text>
<text text-anchor="middle" x="1569" y="-286" font-family="Helvetica,sans-Serif" font-size="10.00">FirstRowButtons</text>
</a>
</g>
</g>
<!-- Node17&#45;&gt;Node18 -->
<g id="edge20" class="edge"><title>Node17&#45;&gt;Node18</title>
<path fill="none" stroke="midnightblue" d="M1435.73,-302.818C1447.3,-302.046 1459.03,-301.265 1470.47,-300.502"/>
<polygon fill="midnightblue" stroke="midnightblue" points="1435.36,-299.335 1425.62,-303.492 1435.83,-306.319 1435.36,-299.335"/>
</g>
<!-- Node18&#45;&gt;Node8 -->
<g id="edge21" class="edge"><title>Node18&#45;&gt;Node8</title>
<path fill="none" stroke="midnightblue" d="M1677.73,-282.329C1689.3,-281.075 1701.03,-279.805 1712.47,-278.566"/>
<polygon fill="midnightblue" stroke="midnightblue" points="1677.18,-278.868 1667.62,-283.425 1677.94,-285.827 1677.18,-278.868"/>
</g>
<!-- Node20 -->
<g id="node20" class="node"><title>Node20</title>
<g id="a_node20"><a xlink:href="../../db/d19/classslogo_1_1_u_i_1_1_module_creation_helper.html#a803bac6b55bde712b21f2face1eeef81" target="_top" xlink:title="slogo.UI.ModuleCreationHelper.create\lTurtleCanvas">
<polygon fill="white" stroke="black" points="1712.5,-87 1712.5,-117 1909.5,-117 1909.5,-87 1712.5,-87"/>
<text text-anchor="start" x="1720.5" y="-105" font-family="Helvetica,sans-Serif" font-size="10.00">slogo.UI.ModuleCreationHelper.create</text>
<text text-anchor="middle" x="1811" y="-94" font-family="Helvetica,sans-Serif" font-size="10.00">TurtleCanvas</text>
</a>
</g>
</g>
<!-- Node19&#45;&gt;Node20 -->
<g id="edge23" class="edge"><title>Node19&#45;&gt;Node20</title>
<path fill="none" stroke="midnightblue" d="M1681.89,-102C1692.04,-102 1702.26,-102 1712.27,-102"/>
<polygon fill="midnightblue" stroke="midnightblue" points="1681.78,-98.5001 1671.78,-102 1681.78,-105.5 1681.78,-98.5001"/>
</g>
<!-- Node20&#45;&gt;Node9 -->
<g id="edge24" class="edge"><title>Node20&#45;&gt;Node9</title>
<path fill="none" stroke="midnightblue" d="M1894.42,-119.113C1920.9,-124.611 1950.03,-130.658 1975.73,-135.994"/>
<polygon fill="midnightblue" stroke="midnightblue" points="1894.91,-115.641 1884.41,-117.035 1893.49,-122.495 1894.91,-115.641"/>
</g>
<!-- Node22 -->
<g id="node22" class="node"><title>Node22</title>
<g id="a_node22"><a xlink:href="../../db/d19/classslogo_1_1_u_i_1_1_module_creation_helper.html#af7f2919454fdbf6e9d7d912e99634857" target="_top" xlink:title="slogo.UI.ModuleCreationHelper.create\lSelectors">
<polygon fill="white" stroke="black" points="1228.5,-230 1228.5,-260 1425.5,-260 1425.5,-230 1228.5,-230"/>
<text text-anchor="start" x="1236.5" y="-248" font-family="Helvetica,sans-Serif" font-size="10.00">slogo.UI.ModuleCreationHelper.create</text>
<text text-anchor="middle" x="1327" y="-237" font-family="Helvetica,sans-Serif" font-size="10.00">Selectors</text>
</a>
</g>
</g>
<!-- Node21&#45;&gt;Node22 -->
<g id="edge26" class="edge"><title>Node21&#45;&gt;Node22</title>
<path fill="none" stroke="midnightblue" d="M1180.76,-261.339C1196.36,-259.585 1212.54,-257.764 1228.21,-256.002"/>
<polygon fill="midnightblue" stroke="midnightblue" points="1180.16,-257.885 1170.62,-262.481 1180.94,-264.841 1180.16,-257.885"/>
</g>
<!-- Node22&#45;&gt;Node8 -->
<g id="edge27" class="edge"><title>Node22&#45;&gt;Node8</title>
<path fill="none" stroke="midnightblue" d="M1435.74,-250.141C1518.55,-254.092 1631.97,-259.505 1712.19,-263.333"/>
<polygon fill="midnightblue" stroke="midnightblue" points="1435.7,-246.635 1425.54,-249.654 1435.36,-253.627 1435.7,-246.635"/>
</g>
<!-- Node23&#45;&gt;Node22 -->
<g id="edge29" class="edge"><title>Node23&#45;&gt;Node22</title>
<path fill="none" stroke="midnightblue" d="M1165.18,-233.609C1185.4,-235.041 1207.37,-236.597 1228.39,-238.086"/>
<polygon fill="midnightblue" stroke="midnightblue" points="1165.32,-230.11 1155.1,-232.894 1164.82,-237.092 1165.32,-230.11"/>
</g>
<!-- Node24&#45;&gt;Node22 -->
<g id="edge31" class="edge"><title>Node24&#45;&gt;Node22</title>
<path fill="none" stroke="midnightblue" d="M1153.48,-195.473C1165.04,-197.752 1176.9,-200.287 1188,-203 1219.38,-210.673 1254.18,-221.278 1280.98,-229.911"/>
<polygon fill="midnightblue" stroke="midnightblue" points="1153.9,-191.99 1143.42,-193.539 1152.58,-198.864 1153.9,-191.99"/>
</g>
<!-- Node26 -->
<g id="node26" class="node"><title>Node26</title>
<g id="a_node26"><a xlink:href="../../db/d19/classslogo_1_1_u_i_1_1_module_creation_helper.html#a9fd730f7c1860d34bf4ac46c3828bd59" target="_top" xlink:title="slogo.UI.ModuleCreationHelper.activate\lStepIntoButton">
<polygon fill="white" stroke="black" points="982.5,-49 982.5,-79 1187.5,-79 1187.5,-49 982.5,-49"/>
<text text-anchor="start" x="990.5" y="-67" font-family="Helvetica,sans-Serif" font-size="10.00">slogo.UI.ModuleCreationHelper.activate</text>
<text text-anchor="middle" x="1085" y="-56" font-family="Helvetica,sans-Serif" font-size="10.00">StepIntoButton</text>
</a>
</g>
</g>
<!-- Node25&#45;&gt;Node26 -->
<g id="edge33" class="edge"><title>Node25&#45;&gt;Node26</title>
<path fill="none" stroke="midnightblue" d="M953.334,-64C962.824,-64 972.535,-64 982.167,-64"/>
<polygon fill="midnightblue" stroke="midnightblue" points="953.137,-60.5001 943.137,-64 953.136,-67.5001 953.137,-60.5001"/>
</g>
<!-- Node27 -->
<g id="node27" class="node"><title>Node27</title>
<g id="a_node27"><a xlink:href="../../db/d19/classslogo_1_1_u_i_1_1_module_creation_helper.html#a4a6f1f009507c25be8c7c28cbba35f3b" target="_top" xlink:title="slogo.UI.ModuleCreationHelper.create\lDebugStepIntoButton">
<polygon fill="white" stroke="black" points="1228.5,-49 1228.5,-79 1425.5,-79 1425.5,-49 1228.5,-49"/>
<text text-anchor="start" x="1236.5" y="-67" font-family="Helvetica,sans-Serif" font-size="10.00">slogo.UI.ModuleCreationHelper.create</text>
<text text-anchor="middle" x="1327" y="-56" font-family="Helvetica,sans-Serif" font-size="10.00">DebugStepIntoButton</text>
</a>
</g>
</g>
<!-- Node26&#45;&gt;Node27 -->
<g id="edge34" class="edge"><title>Node26&#45;&gt;Node27</title>
<path fill="none" stroke="midnightblue" d="M1197.89,-64C1208.04,-64 1218.26,-64 1228.27,-64"/>
<polygon fill="midnightblue" stroke="midnightblue" points="1197.78,-60.5001 1187.78,-64 1197.78,-67.5001 1197.78,-60.5001"/>
</g>
<!-- Node28 -->
<g id="node28" class="node"><title>Node28</title>
<g id="a_node28"><a xlink:href="../../db/d19/classslogo_1_1_u_i_1_1_module_creation_helper.html#a975af4ea47dc85df72215bdf1a0d20ce" target="_top" xlink:title="slogo.UI.ModuleCreationHelper.create\lDebugModules">
<polygon fill="white" stroke="black" points="1470.5,-38 1470.5,-68 1667.5,-68 1667.5,-38 1470.5,-38"/>
<text text-anchor="start" x="1478.5" y="-56" font-family="Helvetica,sans-Serif" font-size="10.00">slogo.UI.ModuleCreationHelper.create</text>
<text text-anchor="middle" x="1569" y="-45" font-family="Helvetica,sans-Serif" font-size="10.00">DebugModules</text>
</a>
</g>
</g>
<!-- Node27&#45;&gt;Node28 -->
<g id="edge35" class="edge"><title>Node27&#45;&gt;Node28</title>
<path fill="none" stroke="midnightblue" d="M1435.73,-59.0622C1447.3,-58.5319 1459.03,-57.9945 1470.47,-57.4702"/>
<polygon fill="midnightblue" stroke="midnightblue" points="1435.45,-55.5716 1425.62,-59.5259 1435.77,-62.5643 1435.45,-55.5716"/>
</g>
<!-- Node28&#45;&gt;Node9 -->
<g id="edge36" class="edge"><title>Node28&#45;&gt;Node9</title>
<path fill="none" stroke="midnightblue" d="M1677.63,-48.679C1746.53,-48.779 1837.11,-54.2973 1914,-77 1957.33,-89.7936 2002.2,-118.228 2027.46,-135.889"/>
<polygon fill="midnightblue" stroke="midnightblue" points="1677.61,-45.1789 1667.62,-48.7021 1677.63,-52.1789 1677.61,-45.1789"/>
</g>
<!-- Node30 -->
<g id="node30" class="node"><title>Node30</title>
<g id="a_node30"><a xlink:href="../../db/d19/classslogo_1_1_u_i_1_1_module_creation_helper.html#a0fed0bb32bf2643d6fd5c24d82e8e18e" target="_top" xlink:title="slogo.UI.ModuleCreationHelper.activate\lStepOverButton">
<polygon fill="white" stroke="black" points="982.5,-0 982.5,-30 1187.5,-30 1187.5,-0 982.5,-0"/>
<text text-anchor="start" x="990.5" y="-18" font-family="Helvetica,sans-Serif" font-size="10.00">slogo.UI.ModuleCreationHelper.activate</text>
<text text-anchor="middle" x="1085" y="-7" font-family="Helvetica,sans-Serif" font-size="10.00">StepOverButton</text>
</a>
</g>
</g>
<!-- Node29&#45;&gt;Node30 -->
<g id="edge38" class="edge"><title>Node29&#45;&gt;Node30</title>
<path fill="none" stroke="midnightblue" d="M955.803,-18.5123C964.557,-18.2724 973.477,-18.028 982.327,-17.7856"/>
<polygon fill="midnightblue" stroke="midnightblue" points="955.515,-15.0187 945.615,-18.7914 955.707,-22.0161 955.515,-15.0187"/>
</g>
<!-- Node31 -->
<g id="node31" class="node"><title>Node31</title>
<g id="a_node31"><a xlink:href="../../db/d19/classslogo_1_1_u_i_1_1_module_creation_helper.html#aa1e7dc2b509360583790fba0d3819c8d" target="_top" xlink:title="slogo.UI.ModuleCreationHelper.create\lDebugStepOverButton">
<polygon fill="white" stroke="black" points="1228.5,-0 1228.5,-30 1425.5,-30 1425.5,-0 1228.5,-0"/>
<text text-anchor="start" x="1236.5" y="-18" font-family="Helvetica,sans-Serif" font-size="10.00">slogo.UI.ModuleCreationHelper.create</text>
<text text-anchor="middle" x="1327" y="-7" font-family="Helvetica,sans-Serif" font-size="10.00">DebugStepOverButton</text>
</a>
</g>
</g>
<!-- Node30&#45;&gt;Node31 -->
<g id="edge39" class="edge"><title>Node30&#45;&gt;Node31</title>
<path fill="none" stroke="midnightblue" d="M1197.89,-15C1208.04,-15 1218.26,-15 1228.27,-15"/>
<polygon fill="midnightblue" stroke="midnightblue" points="1197.78,-11.5001 1187.78,-15 1197.78,-18.5001 1197.78,-11.5001"/>
</g>
<!-- Node31&#45;&gt;Node28 -->
<g id="edge40" class="edge"><title>Node31&#45;&gt;Node28</title>
<path fill="none" stroke="midnightblue" d="M1432.99,-31.6227C1446.31,-33.7329 1459.89,-35.8827 1473.05,-37.966"/>
<polygon fill="midnightblue" stroke="midnightblue" points="1433.28,-28.1256 1422.85,-30.0186 1432.18,-35.0395 1433.28,-28.1256"/>
</g>
</g>
</svg>
