<?xml version="1.0" encoding="UTF-8" standalone="no"?>
<!DOCTYPE svg PUBLIC "-//W3C//DTD SVG 1.1//EN"
 "http://www.w3.org/Graphics/SVG/1.1/DTD/svg11.dtd">
<!-- Generated by graphviz version 2.36.0 (20140111.2315)
 -->
<!-- Title: slogo.UI.ModuleCreationHelper.activateSaveButton Pages: 1 -->
<svg width="652pt" height="234pt"
 viewBox="0.00 0.00 652.00 234.00" xmlns="http://www.w3.org/2000/svg" xmlns:xlink="http://www.w3.org/1999/xlink">
<g id="graph0" class="graph" transform="scale(1 1) rotate(0) translate(4 230)">
<title>slogo.UI.ModuleCreationHelper.activateSaveButton</title>
<polygon fill="white" stroke="none" points="-4,4 -4,-230 648,-230 648,4 -4,4"/>
<!-- Node1 -->
<g id="node1" class="node"><title>Node1</title>
<polygon fill="#bfbfbf" stroke="black" points="0.5,-98 0.5,-128 205.5,-128 205.5,-98 0.5,-98"/>
<text text-anchor="start" x="8.5" y="-116" font-family="Helvetica,sans-Serif" font-size="10.00">slogo.UI.ModuleCreationHelper.activate</text>
<text text-anchor="middle" x="103" y="-105" font-family="Helvetica,sans-Serif" font-size="10.00">SaveButton</text>
</g>
<!-- Node2 -->
<g id="node2" class="node"><title>Node2</title>
<g id="a_node2"><a xlink:href="../../db/d10/classslogo_1_1frontend_1_1_config_1_1_config_hash_map_creator.html#ad94914a4d07dd7dc69aec64f685fb624" target="_top" xlink:title="slogo.frontend.Config.Config\lHashMapCreator.getConfigHashMap">
<polygon fill="white" stroke="black" points="242.5,-196 242.5,-226 433.5,-226 433.5,-196 242.5,-196"/>
<text text-anchor="start" x="250.5" y="-214" font-family="Helvetica,sans-Serif" font-size="10.00">slogo.frontend.Config.Config</text>
<text text-anchor="middle" x="338" y="-203" font-family="Helvetica,sans-Serif" font-size="10.00">HashMapCreator.getConfigHashMap</text>
</a>
</g>
</g>
<!-- Node1&#45;&gt;Node2 -->
<g id="edge1" class="edge"><title>Node1&#45;&gt;Node2</title>
<path fill="none" stroke="midnightblue" d="M128.613,-128.248C155.601,-144.43 200.589,-169.845 242,-186 248.352,-188.478 255.036,-190.791 261.795,-192.932"/>
<polygon fill="midnightblue" stroke="midnightblue" points="261.134,-196.389 271.72,-195.942 263.166,-189.69 261.134,-196.389"/>
</g>
<!-- Node3 -->
<g id="node3" class="node"><title>Node3</title>
<g id="a_node3"><a xlink:href="../../db/dc0/classslogo_1_1_u_i_1_1_list_view_all_s_l_o_g_o.html#a8d9ecbe1e3a5260f8e7e508c8a9cb66a" target="_top" xlink:title="slogo.UI.ListViewAllSLOGO.get\lItems">
<polygon fill="white" stroke="black" points="258,-147 258,-177 418,-177 418,-147 258,-147"/>
<text text-anchor="start" x="266" y="-165" font-family="Helvetica,sans-Serif" font-size="10.00">slogo.UI.ListViewAllSLOGO.get</text>
<text text-anchor="middle" x="338" y="-154" font-family="Helvetica,sans-Serif" font-size="10.00">Items</text>
</a>
</g>
</g>
<!-- Node1&#45;&gt;Node3 -->
<g id="edge2" class="edge"><title>Node1&#45;&gt;Node3</title>
<path fill="none" stroke="midnightblue" d="M175.491,-128.035C200.875,-133.373 229.629,-139.42 255.767,-144.917"/>
<polygon fill="midnightblue" stroke="midnightblue" points="255.138,-148.361 265.644,-146.994 256.578,-141.511 255.138,-148.361"/>
</g>
<!-- Node5 -->
<g id="node5" class="node"><title>Node5</title>
<g id="a_node5"><a xlink:href="../../db/d10/classslogo_1_1frontend_1_1_config_1_1_config_hash_map_creator.html#a22753815aaa14900f14ef222ec563268" target="_top" xlink:title="slogo.frontend.Config.Config\lHashMapCreator.setNumOfTurtles">
<polygon fill="white" stroke="black" points="248.5,-98 248.5,-128 427.5,-128 427.5,-98 248.5,-98"/>
<text text-anchor="start" x="256.5" y="-116" font-family="Helvetica,sans-Serif" font-size="10.00">slogo.frontend.Config.Config</text>
<text text-anchor="middle" x="338" y="-105" font-family="Helvetica,sans-Serif" font-size="10.00">HashMapCreator.setNumOfTurtles</text>
</a>
</g>
</g>
<!-- Node1&#45;&gt;Node5 -->
<g id="edge4" class="edge"><title>Node1&#45;&gt;Node5</title>
<path fill="none" stroke="midnightblue" d="M205.519,-113C216.3,-113 227.254,-113 238.005,-113"/>
<polygon fill="midnightblue" stroke="midnightblue" points="238.238,-116.5 248.238,-113 238.238,-109.5 238.238,-116.5"/>
</g>
<!-- Node7 -->
<g id="node7" class="node"><title>Node7</title>
<g id="a_node7"><a xlink:href="../../db/d10/classslogo_1_1frontend_1_1_config_1_1_config_hash_map_creator.html#a07aea807904d0069637fa4abd371da55" target="_top" xlink:title="slogo.frontend.Config.Config\lHashMapCreator.setVariableMap">
<polygon fill="white" stroke="black" points="251.5,-49 251.5,-79 424.5,-79 424.5,-49 251.5,-49"/>
<text text-anchor="start" x="259.5" y="-67" font-family="Helvetica,sans-Serif" font-size="10.00">slogo.frontend.Config.Config</text>
<text text-anchor="middle" x="338" y="-56" font-family="Helvetica,sans-Serif" font-size="10.00">HashMapCreator.setVariableMap</text>
</a>
</g>
</g>
<!-- Node1&#45;&gt;Node7 -->
<g id="edge6" class="edge"><title>Node1&#45;&gt;Node7</title>
<path fill="none" stroke="midnightblue" d="M175.491,-97.9654C200.875,-92.627 229.629,-86.5802 255.767,-81.0834"/>
<polygon fill="midnightblue" stroke="midnightblue" points="256.578,-84.4893 265.644,-79.0062 255.138,-77.6392 256.578,-84.4893"/>
</g>
<!-- Node8 -->
<g id="node8" class="node"><title>Node8</title>
<g id="a_node8"><a xlink:href="../../d4/df2/classslogo_1_1frontend_1_1_config_1_1_config_writer.html#ac5ae212e6162267c0247fbb1c05eeec3" target="_top" xlink:title="slogo.frontend.Config.Config\lWriter.writeToTextFile">
<polygon fill="white" stroke="black" points="262,-0 262,-30 414,-30 414,-0 262,-0"/>
<text text-anchor="start" x="270" y="-18" font-family="Helvetica,sans-Serif" font-size="10.00">slogo.frontend.Config.Config</text>
<text text-anchor="middle" x="338" y="-7" font-family="Helvetica,sans-Serif" font-size="10.00">Writer.writeToTextFile</text>
</a>
</g>
</g>
<!-- Node1&#45;&gt;Node8 -->
<g id="edge7" class="edge"><title>Node1&#45;&gt;Node8</title>
<path fill="none" stroke="midnightblue" d="M128.613,-97.7515C155.601,-81.5703 200.589,-56.1545 242,-40 248.352,-37.5222 255.036,-35.2086 261.795,-33.0684"/>
<polygon fill="midnightblue" stroke="midnightblue" points="263.166,-36.31 271.72,-30.0578 261.134,-29.6113 263.166,-36.31"/>
</g>
<!-- Node4 -->
<g id="node4" class="node"><title>Node4</title>
<g id="a_node4"><a xlink:href="../../da/d8f/classslogo_1_1_u_i_1_1_list_view_creator.html#a081368f4f2cd74f99d9d251625ae4871" target="_top" xlink:title="slogo.UI.ListViewCreator.get\lListView">
<polygon fill="white" stroke="black" points="482,-147 482,-177 632,-177 632,-147 482,-147"/>
<text text-anchor="start" x="490" y="-165" font-family="Helvetica,sans-Serif" font-size="10.00">slogo.UI.ListViewCreator.get</text>
<text text-anchor="middle" x="557" y="-154" font-family="Helvetica,sans-Serif" font-size="10.00">ListView</text>
</a>
</g>
</g>
<!-- Node3&#45;&gt;Node4 -->
<g id="edge3" class="edge"><title>Node3&#45;&gt;Node4</title>
<path fill="none" stroke="midnightblue" d="M418.263,-162C435.57,-162 453.949,-162 471.453,-162"/>
<polygon fill="midnightblue" stroke="midnightblue" points="471.643,-165.5 481.643,-162 471.643,-158.5 471.643,-165.5"/>
</g>
<!-- Node6 -->
<g id="node6" class="node"><title>Node6</title>
<g id="a_node6"><a xlink:href="../../db/d10/classslogo_1_1frontend_1_1_config_1_1_config_hash_map_creator.html#a1a0e11887aa8fdc8d0b3bed256ba1d09" target="_top" xlink:title="slogo.frontend.Config.Config\lHashMapCreator.fromIntToString">
<polygon fill="white" stroke="black" points="470.5,-98 470.5,-128 643.5,-128 643.5,-98 470.5,-98"/>
<text text-anchor="start" x="478.5" y="-116" font-family="Helvetica,sans-Serif" font-size="10.00">slogo.frontend.Config.Config</text>
<text text-anchor="middle" x="557" y="-105" font-family="Helvetica,sans-Serif" font-size="10.00">HashMapCreator.fromIntToString</text>
</a>
</g>
</g>
<!-- Node5&#45;&gt;Node6 -->
<g id="edge5" class="edge"><title>Node5&#45;&gt;Node6</title>
<path fill="none" stroke="midnightblue" d="M427.575,-113C438.232,-113 449.155,-113 459.913,-113"/>
<polygon fill="midnightblue" stroke="midnightblue" points="460.163,-116.5 470.163,-113 460.163,-109.5 460.163,-116.5"/>
</g>
</g>
</svg>
