<?xml version="1.0" encoding="UTF-8" standalone="no"?>
<!DOCTYPE svg PUBLIC "-//W3C//DTD SVG 1.1//EN"
 "http://www.w3.org/Graphics/SVG/1.1/DTD/svg11.dtd">
<!-- Generated by graphviz version 2.36.0 (20140111.2315)
 -->
<!-- Title: slogo.UI.ModuleCreationHelper.stepThroughCommandsHistory Pages: 1 -->
<!--zoomable 440 -->
<svg id="main" version="1.1" xmlns="http://www.w3.org/2000/svg" xmlns:xlink="http://www.w3.org/1999/xlink" xml:space="preserve" onload="init(evt)">
<style type="text/css"><![CDATA[
.edge:hover path { stroke: red; }
.edge:hover polygon { stroke: red; fill: red; }
]]></style>
<script type="text/javascript"><![CDATA[
var edges = document.getElementsByTagName('g');
if (edges && edges.length) {
  for (var i=0;i<edges.length;i++) {
    if (edges[i].id.substr(0,4)=='edge') {
      edges[i].setAttribute('class','edge');
    }
  }
}
]]></script>
        <defs>
                <circle id="rim" cx="0" cy="0" r="7"/>
                <circle id="rim2" cx="0" cy="0" r="3.5"/>
                <g id="zoomPlus">
                        <use xlink:href="#rim" fill="#404040">
                                <set attributeName="fill" to="#808080" begin="zoomplus.mouseover" end="zoomplus.mouseout"/>
                        </use>
                        <path d="M-4,0h8M0,-4v8" fill="none" stroke="white" stroke-width="1.5" pointer-events="none"/>
                </g>
                <g id="zoomMin">
                        <use xlink:href="#rim" fill="#404040">
                                <set attributeName="fill" to="#808080" begin="zoomminus.mouseover" end="zoomminus.mouseout"/>
                        </use>
                        <path d="M-4,0h8" fill="none" stroke="white" stroke-width="1.5" pointer-events="none"/>
                </g>
                <g id="dirArrow">
                        <path fill="none" stroke="white" stroke-width="1.5" d="M0,-3.0v7 M-2.5,-0.5L0,-3.0L2.5,-0.5"/>
                </g>
               <g id="resetDef">
                       <use xlink:href="#rim2" fill="#404040">
                               <set attributeName="fill" to="#808080" begin="reset.mouseover" end="reset.mouseout"/>
                       </use>
               </g>
        </defs>

<script type="text/javascript">
var viewWidth = 2108;
var viewHeight = 440;
var sectionId = 'dynsection-131';
</script>
<script xlink:href="../../svgpan.js"/>
<svg id="graph" class="graph">
<g id="viewport">
<title>slogo.UI.ModuleCreationHelper.stepThroughCommandsHistory</title>
<polygon fill="white" stroke="none" points="-4,4 -4,-436 2104,-436 2104,4 -4,4"/>
<!-- Node1 -->
<g id="node1" class="node"><title>Node1</title>
<polygon fill="#bfbfbf" stroke="black" points="0,-352 0,-382 188,-382 188,-352 0,-352"/>
<text text-anchor="start" x="8" y="-370" font-family="Helvetica,sans-Serif" font-size="10.00">slogo.UI.ModuleCreationHelper.step</text>
<text text-anchor="middle" x="94" y="-359" font-family="Helvetica,sans-Serif" font-size="10.00">ThroughCommandsHistory</text>
</g>
<!-- Node2 -->
<g id="node2" class="node"><title>Node2</title>
<g id="a_node2"><a xlink:href="../../db/d19/classslogo_1_1_u_i_1_1_module_creation_helper.html#a9fd730f7c1860d34bf4ac46c3828bd59" target="_top" xlink:title="slogo.UI.ModuleCreationHelper.activate\lStepIntoButton">
<polygon fill="white" stroke="black" points="224.5,-401 224.5,-431 429.5,-431 429.5,-401 224.5,-401"/>
<text text-anchor="start" x="232.5" y="-419" font-family="Helvetica,sans-Serif" font-size="10.00">slogo.UI.ModuleCreationHelper.activate</text>
<text text-anchor="middle" x="327" y="-408" font-family="Helvetica,sans-Serif" font-size="10.00">StepIntoButton</text>
</a>
</g>
</g>
<!-- Node1&#45;&gt;Node2 -->
<g id="edge1" class="edge"><title>Node1&#45;&gt;Node2</title>
<path fill="none" stroke="midnightblue" d="M175.674,-384.113C201.597,-389.611 230.102,-395.658 255.257,-400.994"/>
<polygon fill="midnightblue" stroke="midnightblue" points="176.386,-380.686 165.877,-382.035 174.934,-387.534 176.386,-380.686"/>
</g>
<!-- Node10 -->
<g id="node10" class="node"><title>Node10</title>
<g id="a_node10"><a xlink:href="../../db/d19/classslogo_1_1_u_i_1_1_module_creation_helper.html#a0fed0bb32bf2643d6fd5c24d82e8e18e" target="_top" xlink:title="slogo.UI.ModuleCreationHelper.activate\lStepOverButton">
<polygon fill="white" stroke="black" points="224.5,-352 224.5,-382 429.5,-382 429.5,-352 224.5,-352"/>
<text text-anchor="start" x="232.5" y="-370" font-family="Helvetica,sans-Serif" font-size="10.00">slogo.UI.ModuleCreationHelper.activate</text>
<text text-anchor="middle" x="327" y="-359" font-family="Helvetica,sans-Serif" font-size="10.00">StepOverButton</text>
</a>
</g>
</g>
<!-- Node1&#45;&gt;Node10 -->
<g id="edge10" class="edge"><title>Node1&#45;&gt;Node10</title>
<path fill="none" stroke="midnightblue" d="M198.393,-367C207.045,-367 215.789,-367 224.427,-367"/>
<polygon fill="midnightblue" stroke="midnightblue" points="198.291,-363.5 188.291,-367 198.291,-370.5 198.291,-363.5"/>
</g>
<!-- Node12 -->
<g id="node12" class="node"><title>Node12</title>
<g id="a_node12"><a xlink:href="../../df/d2d/classslogo_1_1_view.html#aee563f6a0b15ac6668e4dcbdad40c73c" target="_top" xlink:title="slogo.View.sendCommandTo\lBackend">
<polygon fill="white" stroke="black" points="251,-176 251,-206 403,-206 403,-176 251,-176"/>
<text text-anchor="start" x="259" y="-194" font-family="Helvetica,sans-Serif" font-size="10.00">slogo.View.sendCommandTo</text>
<text text-anchor="middle" x="327" y="-183" font-family="Helvetica,sans-Serif" font-size="10.00">Backend</text>
</a>
</g>
</g>
<!-- Node1&#45;&gt;Node12 -->
<g id="edge13" class="edge"><title>Node1&#45;&gt;Node12</title>
<path fill="none" stroke="midnightblue" d="M122.652,-345.932C169.817,-309.996 264.717,-237.692 306.027,-206.218"/>
<polygon fill="midnightblue" stroke="midnightblue" points="120.528,-343.15 114.695,-351.994 124.77,-348.718 120.528,-343.15"/>
</g>
<!-- Node3 -->
<g id="node3" class="node"><title>Node3</title>
<g id="a_node3"><a xlink:href="../../db/d19/classslogo_1_1_u_i_1_1_module_creation_helper.html#a4a6f1f009507c25be8c7c28cbba35f3b" target="_top" xlink:title="slogo.UI.ModuleCreationHelper.create\lDebugStepIntoButton">
<polygon fill="white" stroke="black" points="470.5,-401 470.5,-431 667.5,-431 667.5,-401 470.5,-401"/>
<text text-anchor="start" x="478.5" y="-419" font-family="Helvetica,sans-Serif" font-size="10.00">slogo.UI.ModuleCreationHelper.create</text>
<text text-anchor="middle" x="569" y="-408" font-family="Helvetica,sans-Serif" font-size="10.00">DebugStepIntoButton</text>
</a>
</g>
</g>
<!-- Node2&#45;&gt;Node3 -->
<g id="edge2" class="edge"><title>Node2&#45;&gt;Node3</title>
<path fill="none" stroke="midnightblue" d="M439.89,-416C450.035,-416 460.258,-416 470.267,-416"/>
<polygon fill="midnightblue" stroke="midnightblue" points="439.782,-412.5 429.782,-416 439.782,-419.5 439.782,-412.5"/>
</g>
<!-- Node4 -->
<g id="node4" class="node"><title>Node4</title>
<g id="a_node4"><a xlink:href="../../db/d19/classslogo_1_1_u_i_1_1_module_creation_helper.html#a975af4ea47dc85df72215bdf1a0d20ce" target="_top" xlink:title="slogo.UI.ModuleCreationHelper.create\lDebugModules">
<polygon fill="white" stroke="black" points="712.5,-362 712.5,-392 909.5,-392 909.5,-362 712.5,-362"/>
<text text-anchor="start" x="720.5" y="-380" font-family="Helvetica,sans-Serif" font-size="10.00">slogo.UI.ModuleCreationHelper.create</text>
<text text-anchor="middle" x="811" y="-369" font-family="Helvetica,sans-Serif" font-size="10.00">DebugModules</text>
</a>
</g>
</g>
<!-- Node3&#45;&gt;Node4 -->
<g id="edge3" class="edge"><title>Node3&#45;&gt;Node4</title>
<path fill="none" stroke="midnightblue" d="M672.704,-399.311C687.622,-396.886 702.903,-394.403 717.601,-392.015"/>
<polygon fill="midnightblue" stroke="midnightblue" points="671.756,-395.919 662.447,-400.977 672.879,-402.828 671.756,-395.919"/>
</g>
<!-- Node5 -->
<g id="node5" class="node"><title>Node5</title>
<g id="a_node5"><a xlink:href="../../db/d19/classslogo_1_1_u_i_1_1_module_creation_helper.html#afb9dbbbad7d872234a5b296fe129a34e" target="_top" xlink:title="slogo.UI.ModuleCreationHelper.create\lMainPageModules">
<polygon fill="white" stroke="black" points="954.5,-308 954.5,-338 1151.5,-338 1151.5,-308 954.5,-308"/>
<text text-anchor="start" x="962.5" y="-326" font-family="Helvetica,sans-Serif" font-size="10.00">slogo.UI.ModuleCreationHelper.create</text>
<text text-anchor="middle" x="1053" y="-315" font-family="Helvetica,sans-Serif" font-size="10.00">MainPageModules</text>
</a>
</g>
</g>
<!-- Node4&#45;&gt;Node5 -->
<g id="edge4" class="edge"><title>Node4&#45;&gt;Node5</title>
<path fill="none" stroke="midnightblue" d="M888.746,-359.732C919.737,-352.759 955.17,-344.787 985.089,-338.055"/>
<polygon fill="midnightblue" stroke="midnightblue" points="887.841,-356.348 878.853,-361.958 889.378,-363.177 887.841,-356.348"/>
</g>
<!-- Node6 -->
<g id="node6" class="node"><title>Node6</title>
<g id="a_node6"><a xlink:href="../../d9/d33/classslogo_1_1_u_i_1_1_main.html#a15b7f2e399ee24d160550993ab737e73" target="_top" xlink:title="slogo.UI.Main.start">
<polygon fill="white" stroke="black" points="1238,-313.5 1238,-332.5 1344,-332.5 1344,-313.5 1238,-313.5"/>
<text text-anchor="middle" x="1291" y="-320.5" font-family="Helvetica,sans-Serif" font-size="10.00">slogo.UI.Main.start</text>
</a>
</g>
</g>
<!-- Node5&#45;&gt;Node6 -->
<g id="edge5" class="edge"><title>Node5&#45;&gt;Node6</title>
<path fill="none" stroke="midnightblue" d="M1161.79,-323C1188.25,-323 1215.41,-323 1237.87,-323"/>
<polygon fill="midnightblue" stroke="midnightblue" points="1161.69,-319.5 1151.69,-323 1161.69,-326.5 1161.69,-319.5"/>
</g>
<!-- Node7 -->
<g id="node7" class="node"><title>Node7</title>
<g id="a_node7"><a xlink:href="../../db/d19/classslogo_1_1_u_i_1_1_module_creation_helper.html#a3be12a7cc2b8a219db1e296211a2cb88" target="_top" xlink:title="slogo.UI.ModuleCreationHelper.activate\lExtraWorkspaceButton">
<polygon fill="white" stroke="black" points="1426.5,-308 1426.5,-338 1631.5,-338 1631.5,-308 1426.5,-308"/>
<text text-anchor="start" x="1434.5" y="-326" font-family="Helvetica,sans-Serif" font-size="10.00">slogo.UI.ModuleCreationHelper.activate</text>
<text text-anchor="middle" x="1529" y="-315" font-family="Helvetica,sans-Serif" font-size="10.00">ExtraWorkspaceButton</text>
</a>
</g>
</g>
<!-- Node6&#45;&gt;Node7 -->
<g id="edge6" class="edge"><title>Node6&#45;&gt;Node7</title>
<path fill="none" stroke="midnightblue" d="M1354.28,-323C1376.31,-323 1401.71,-323 1426.16,-323"/>
<polygon fill="midnightblue" stroke="midnightblue" points="1354.08,-319.5 1344.08,-323 1354.08,-326.5 1354.08,-319.5"/>
</g>
<!-- Node8 -->
<g id="node8" class="node"><title>Node8</title>
<g id="a_node8"><a xlink:href="../../db/d19/classslogo_1_1_u_i_1_1_module_creation_helper.html#a702c1ebe24d2857a10c666eb1fcc315d" target="_top" xlink:title="slogo.UI.ModuleCreationHelper.create\lExtraWorkspaceButton">
<polygon fill="white" stroke="black" points="1668.5,-308 1668.5,-338 1865.5,-338 1865.5,-308 1668.5,-308"/>
<text text-anchor="start" x="1676.5" y="-326" font-family="Helvetica,sans-Serif" font-size="10.00">slogo.UI.ModuleCreationHelper.create</text>
<text text-anchor="middle" x="1767" y="-315" font-family="Helvetica,sans-Serif" font-size="10.00">ExtraWorkspaceButton</text>
</a>
</g>
</g>
<!-- Node7&#45;&gt;Node8 -->
<g id="edge7" class="edge"><title>Node7&#45;&gt;Node8</title>
<path fill="none" stroke="midnightblue" d="M1642.05,-323C1650.81,-323 1659.62,-323 1668.27,-323"/>
<polygon fill="midnightblue" stroke="midnightblue" points="1641.8,-319.5 1631.8,-323 1641.8,-326.5 1641.8,-319.5"/>
</g>
<!-- Node9 -->
<g id="node9" class="node"><title>Node9</title>
<g id="a_node9"><a xlink:href="../../db/d19/classslogo_1_1_u_i_1_1_module_creation_helper.html#a7c650957b2389d6e6d36e8be8a33cd2b" target="_top" xlink:title="slogo.UI.ModuleCreationHelper.create\lSelectorVBoxModules">
<polygon fill="white" stroke="black" points="1902.5,-199 1902.5,-229 2099.5,-229 2099.5,-199 1902.5,-199"/>
<text text-anchor="start" x="1910.5" y="-217" font-family="Helvetica,sans-Serif" font-size="10.00">slogo.UI.ModuleCreationHelper.create</text>
<text text-anchor="middle" x="2001" y="-206" font-family="Helvetica,sans-Serif" font-size="10.00">SelectorVBoxModules</text>
</a>
</g>
</g>
<!-- Node8&#45;&gt;Node9 -->
<g id="edge8" class="edge"><title>Node8&#45;&gt;Node9</title>
<path fill="none" stroke="midnightblue" d="M1834.94,-304.824C1845.49,-301.301 1856.15,-297.338 1866,-293 1907.52,-274.712 1952.25,-246.405 1978.1,-229.104"/>
<polygon fill="midnightblue" stroke="midnightblue" points="1833.75,-301.528 1825.31,-307.933 1835.91,-308.189 1833.75,-301.528"/>
</g>
<!-- Node9&#45;&gt;Node5 -->
<g id="edge9" class="edge"><title>Node9&#45;&gt;Node5</title>
<path fill="none" stroke="midnightblue" d="M1898.23,-230.532C1887.36,-232.123 1876.46,-233.646 1866,-235 1567.37,-273.658 1490.98,-268.126 1192,-304 1178.91,-305.57 1165.14,-307.333 1151.58,-309.135"/>
<polygon fill="midnightblue" stroke="midnightblue" points="1898.81,-233.984 1908.19,-229.054 1897.78,-227.06 1898.81,-233.984"/>
</g>
<!-- Node11 -->
<g id="node11" class="node"><title>Node11</title>
<g id="a_node11"><a xlink:href="../../db/d19/classslogo_1_1_u_i_1_1_module_creation_helper.html#aa1e7dc2b509360583790fba0d3819c8d" target="_top" xlink:title="slogo.UI.ModuleCreationHelper.create\lDebugStepOverButton">
<polygon fill="white" stroke="black" points="470.5,-352 470.5,-382 667.5,-382 667.5,-352 470.5,-352"/>
<text text-anchor="start" x="478.5" y="-370" font-family="Helvetica,sans-Serif" font-size="10.00">slogo.UI.ModuleCreationHelper.create</text>
<text text-anchor="middle" x="569" y="-359" font-family="Helvetica,sans-Serif" font-size="10.00">DebugStepOverButton</text>
</a>
</g>
</g>
<!-- Node10&#45;&gt;Node11 -->
<g id="edge11" class="edge"><title>Node10&#45;&gt;Node11</title>
<path fill="none" stroke="midnightblue" d="M439.89,-367C450.035,-367 460.258,-367 470.267,-367"/>
<polygon fill="midnightblue" stroke="midnightblue" points="439.782,-363.5 429.782,-367 439.782,-370.5 439.782,-363.5"/>
</g>
<!-- Node11&#45;&gt;Node4 -->
<g id="edge12" class="edge"><title>Node11&#45;&gt;Node4</title>
<path fill="none" stroke="midnightblue" d="M677.734,-371.489C689.304,-371.971 701.028,-372.46 712.469,-372.936"/>
<polygon fill="midnightblue" stroke="midnightblue" points="677.754,-367.987 667.617,-371.067 677.463,-374.981 677.754,-367.987"/>
</g>
<!-- Node13 -->
<g id="node13" class="node"><title>Node13</title>
<g id="a_node13"><a xlink:href="../../db/d19/classslogo_1_1_u_i_1_1_module_creation_helper.html#a69e17abcc7cf9a6ed7261d8fb1d631fa" target="_top" xlink:title="slogo.UI.ModuleCreationHelper.activate\lIncreaseDecreaseButtons">
<polygon fill="white" stroke="black" points="950.5,-220 950.5,-250 1155.5,-250 1155.5,-220 950.5,-220"/>
<text text-anchor="start" x="958.5" y="-238" font-family="Helvetica,sans-Serif" font-size="10.00">slogo.UI.ModuleCreationHelper.activate</text>
<text text-anchor="middle" x="1053" y="-227" font-family="Helvetica,sans-Serif" font-size="10.00">IncreaseDecreaseButtons</text>
</a>
</g>
</g>
<!-- Node12&#45;&gt;Node13 -->
<g id="edge14" class="edge"><title>Node12&#45;&gt;Node13</title>
<path fill="none" stroke="midnightblue" d="M413.404,-207.745C430.75,-210.611 448.914,-213.231 466,-215 635.221,-232.518 833.243,-235.687 950.342,-235.776"/>
<polygon fill="midnightblue" stroke="midnightblue" points="413.744,-204.252 403.3,-206.033 412.575,-211.154 413.744,-204.252"/>
</g>
<!-- Node15 -->
<g id="node15" class="node"><title>Node15</title>
<g id="a_node15"><a xlink:href="../../db/d19/classslogo_1_1_u_i_1_1_module_creation_helper.html#aa70b0ad9e90e62509149bfd2ef2ba209" target="_top" xlink:title="slogo.UI.ModuleCreationHelper.activate\lKeyEvents">
<polygon fill="white" stroke="black" points="708.5,-313 708.5,-343 913.5,-343 913.5,-313 708.5,-313"/>
<text text-anchor="start" x="716.5" y="-331" font-family="Helvetica,sans-Serif" font-size="10.00">slogo.UI.ModuleCreationHelper.activate</text>
<text text-anchor="middle" x="811" y="-320" font-family="Helvetica,sans-Serif" font-size="10.00">KeyEvents</text>
</a>
</g>
</g>
<!-- Node12&#45;&gt;Node15 -->
<g id="edge17" class="edge"><title>Node12&#45;&gt;Node15</title>
<path fill="none" stroke="midnightblue" d="M347.978,-214.137C372.659,-240.9 417.384,-283.742 466,-303 543.244,-333.598 637.808,-338.372 708.227,-336.327"/>
<polygon fill="midnightblue" stroke="midnightblue" points="350.281,-211.466 340.98,-206.392 345.087,-216.158 350.281,-211.466"/>
</g>
<!-- Node16 -->
<g id="node16" class="node"><title>Node16</title>
<g id="a_node16"><a xlink:href="../../db/d19/classslogo_1_1_u_i_1_1_module_creation_helper.html#a2e841243ec3ca474e8822102343acc88" target="_top" xlink:title="slogo.UI.ModuleCreationHelper.activate\lNewTurtleButton">
<polygon fill="white" stroke="black" points="466.5,-176 466.5,-206 671.5,-206 671.5,-176 466.5,-176"/>
<text text-anchor="start" x="474.5" y="-194" font-family="Helvetica,sans-Serif" font-size="10.00">slogo.UI.ModuleCreationHelper.activate</text>
<text text-anchor="middle" x="569" y="-183" font-family="Helvetica,sans-Serif" font-size="10.00">NewTurtleButton</text>
</a>
</g>
</g>
<!-- Node12&#45;&gt;Node16 -->
<g id="edge19" class="edge"><title>Node12&#45;&gt;Node16</title>
<path fill="none" stroke="midnightblue" d="M413.714,-191C430.702,-191 448.691,-191 466.155,-191"/>
<polygon fill="midnightblue" stroke="midnightblue" points="413.279,-187.5 403.279,-191 413.279,-194.5 413.279,-187.5"/>
</g>
<!-- Node18 -->
<g id="node18" class="node"><title>Node18</title>
<g id="a_node18"><a xlink:href="../../db/d19/classslogo_1_1_u_i_1_1_module_creation_helper.html#a9b1f07ab673191067907a059b1b0c524" target="_top" xlink:title="slogo.UI.ModuleCreationHelper.activate\lPlayButton">
<polygon fill="white" stroke="black" points="466.5,-127 466.5,-157 671.5,-157 671.5,-127 466.5,-127"/>
<text text-anchor="start" x="474.5" y="-145" font-family="Helvetica,sans-Serif" font-size="10.00">slogo.UI.ModuleCreationHelper.activate</text>
<text text-anchor="middle" x="569" y="-134" font-family="Helvetica,sans-Serif" font-size="10.00">PlayButton</text>
</a>
</g>
</g>
<!-- Node12&#45;&gt;Node18 -->
<g id="edge22" class="edge"><title>Node12&#45;&gt;Node18</title>
<path fill="none" stroke="midnightblue" d="M411.461,-173.96C438.489,-168.442 468.251,-162.366 494.5,-157.006"/>
<polygon fill="midnightblue" stroke="midnightblue" points="410.737,-170.536 401.639,-175.965 412.137,-177.394 410.737,-170.536"/>
</g>
<!-- Node21 -->
<g id="node21" class="node"><title>Node21</title>
<g id="a_node21"><a xlink:href="../../db/d19/classslogo_1_1_u_i_1_1_module_creation_helper.html#a3a38d485562cb17591ec3fd07cffc18a" target="_top" xlink:title="slogo.UI.ModuleCreationHelper.activate\lTurtleCanvas">
<polygon fill="white" stroke="black" points="466.5,-264 466.5,-294 671.5,-294 671.5,-264 466.5,-264"/>
<text text-anchor="start" x="474.5" y="-282" font-family="Helvetica,sans-Serif" font-size="10.00">slogo.UI.ModuleCreationHelper.activate</text>
<text text-anchor="middle" x="569" y="-271" font-family="Helvetica,sans-Serif" font-size="10.00">TurtleCanvas</text>
</a>
</g>
</g>
<!-- Node12&#45;&gt;Node21 -->
<g id="edge26" class="edge"><title>Node12&#45;&gt;Node21</title>
<path fill="none" stroke="midnightblue" d="M370.234,-210.198C397.307,-222.142 433.367,-237.384 466,-249 480.955,-254.323 497.373,-259.456 512.584,-263.924"/>
<polygon fill="midnightblue" stroke="midnightblue" points="371.613,-206.981 361.053,-206.122 368.772,-213.378 371.613,-206.981"/>
</g>
<!-- Node23 -->
<g id="node23" class="node"><title>Node23</title>
<g id="a_node23"><a xlink:href="../../d1/d5f/classslogo_1_1_u_i_1_1_path_color_selector.html#ad3d9c82a0904c97edcec7cf67b85bd7b" target="_top" xlink:title="slogo.UI.PathColorSelector.create">
<polygon fill="white" stroke="black" points="481,-88.5 481,-107.5 657,-107.5 657,-88.5 481,-88.5"/>
<text text-anchor="middle" x="569" y="-95.5" font-family="Helvetica,sans-Serif" font-size="10.00">slogo.UI.PathColorSelector.create</text>
</a>
</g>
</g>
<!-- Node12&#45;&gt;Node23 -->
<g id="edge29" class="edge"><title>Node12&#45;&gt;Node23</title>
<path fill="none" stroke="midnightblue" d="M359.579,-170.417C386.743,-153.622 427.521,-130.533 466,-117 476.96,-113.145 488.873,-110.027 500.561,-107.518"/>
<polygon fill="midnightblue" stroke="midnightblue" points="357.527,-167.573 350.911,-175.849 361.244,-173.504 357.527,-167.573"/>
</g>
<!-- Node25 -->
<g id="node25" class="node"><title>Node25</title>
<g id="a_node25"><a xlink:href="../../d4/d8d/classslogo_1_1_u_i_1_1_background_color_selector.html#ad75ba4ce104e071811d0fe039a4e839f" target="_top" xlink:title="slogo.UI.BackgroundColor\lSelector.create">
<polygon fill="white" stroke="black" points="499,-39 499,-69 639,-69 639,-39 499,-39"/>
<text text-anchor="start" x="507" y="-57" font-family="Helvetica,sans-Serif" font-size="10.00">slogo.UI.BackgroundColor</text>
<text text-anchor="middle" x="569" y="-46" font-family="Helvetica,sans-Serif" font-size="10.00">Selector.create</text>
</a>
</g>
</g>
<!-- Node12&#45;&gt;Node25 -->
<g id="edge32" class="edge"><title>Node12&#45;&gt;Node25</title>
<path fill="none" stroke="midnightblue" d="M349.408,-168.414C374.835,-142.922 419.67,-102.016 466,-79 476.205,-73.9302 487.507,-69.8458 498.762,-66.5678"/>
<polygon fill="midnightblue" stroke="midnightblue" points="346.67,-166.207 342.16,-175.794 351.664,-171.112 346.67,-166.207"/>
</g>
<!-- Node26 -->
<g id="node26" class="node"><title>Node26</title>
<g id="a_node26"><a xlink:href="../../dd/da7/classslogo_1_1_u_i_1_1_turtle_image_selector.html#a3f268d9196ffebcbb5dc322d2897a9fe" target="_top" xlink:title="slogo.UI.TurtleImageSelector.create">
<polygon fill="white" stroke="black" points="476,-0.5 476,-19.5 662,-19.5 662,-0.5 476,-0.5"/>
<text text-anchor="middle" x="569" y="-7.5" font-family="Helvetica,sans-Serif" font-size="10.00">slogo.UI.TurtleImageSelector.create</text>
</a>
</g>
</g>
<!-- Node12&#45;&gt;Node26 -->
<g id="edge34" class="edge"><title>Node12&#45;&gt;Node26</title>
<path fill="none" stroke="midnightblue" d="M341.102,-167.064C362.27,-130.857 407.588,-62.8099 466,-29 472.704,-25.1199 480.033,-22.0071 487.589,-19.5135"/>
<polygon fill="midnightblue" stroke="midnightblue" points="337.941,-165.542 336.014,-175.96 344.017,-169.018 337.941,-165.542"/>
</g>
<!-- Node14 -->
<g id="node14" class="node"><title>Node14</title>
<g id="a_node14"><a xlink:href="../../db/d19/classslogo_1_1_u_i_1_1_module_creation_helper.html#adce7362386f9a7b3006e7db08a2d578d" target="_top" xlink:title="slogo.UI.ModuleCreationHelper.create\lIncreaseDecreaseButtons">
<polygon fill="white" stroke="black" points="1192.5,-220 1192.5,-250 1389.5,-250 1389.5,-220 1192.5,-220"/>
<text text-anchor="start" x="1200.5" y="-238" font-family="Helvetica,sans-Serif" font-size="10.00">slogo.UI.ModuleCreationHelper.create</text>
<text text-anchor="middle" x="1291" y="-227" font-family="Helvetica,sans-Serif" font-size="10.00">IncreaseDecreaseButtons</text>
</a>
</g>
</g>
<!-- Node13&#45;&gt;Node14 -->
<g id="edge15" class="edge"><title>Node13&#45;&gt;Node14</title>
<path fill="none" stroke="midnightblue" d="M1166.05,-235C1174.81,-235 1183.62,-235 1192.27,-235"/>
<polygon fill="midnightblue" stroke="midnightblue" points="1165.8,-231.5 1155.8,-235 1165.8,-238.5 1165.8,-231.5"/>
</g>
<!-- Node14&#45;&gt;Node9 -->
<g id="edge16" class="edge"><title>Node14&#45;&gt;Node9</title>
<path fill="none" stroke="midnightblue" d="M1399.79,-231.803C1536.62,-227.744 1770.69,-220.802 1902.45,-216.893"/>
<polygon fill="midnightblue" stroke="midnightblue" points="1399.59,-228.307 1389.7,-232.102 1399.8,-235.304 1399.59,-228.307"/>
</g>
<!-- Node15&#45;&gt;Node5 -->
<g id="edge18" class="edge"><title>Node15&#45;&gt;Node5</title>
<path fill="none" stroke="midnightblue" d="M923.89,-325.669C934.035,-325.458 944.258,-325.245 954.267,-325.036"/>
<polygon fill="midnightblue" stroke="midnightblue" points="923.707,-322.172 913.782,-325.88 923.852,-329.17 923.707,-322.172"/>
</g>
<!-- Node17 -->
<g id="node17" class="node"><title>Node17</title>
<g id="a_node17"><a xlink:href="../../db/d19/classslogo_1_1_u_i_1_1_module_creation_helper.html#a07f5483df317cdf80e8ea2dda5699afa" target="_top" xlink:title="slogo.UI.ModuleCreationHelper.create\lNewTurtleButton">
<polygon fill="white" stroke="black" points="1430.5,-176 1430.5,-206 1627.5,-206 1627.5,-176 1430.5,-176"/>
<text text-anchor="start" x="1438.5" y="-194" font-family="Helvetica,sans-Serif" font-size="10.00">slogo.UI.ModuleCreationHelper.create</text>
<text text-anchor="middle" x="1529" y="-183" font-family="Helvetica,sans-Serif" font-size="10.00">NewTurtleButton</text>
</a>
</g>
</g>
<!-- Node16&#45;&gt;Node17 -->
<g id="edge20" class="edge"><title>Node16&#45;&gt;Node17</title>
<path fill="none" stroke="midnightblue" d="M681.863,-191C871.065,-191 1251.11,-191 1430.29,-191"/>
<polygon fill="midnightblue" stroke="midnightblue" points="681.616,-187.5 671.616,-191 681.616,-194.5 681.616,-187.5"/>
</g>
<!-- Node17&#45;&gt;Node9 -->
<g id="edge21" class="edge"><title>Node17&#45;&gt;Node9</title>
<path fill="none" stroke="midnightblue" d="M1637.74,-196.273C1717.49,-200.175 1825.24,-205.448 1902.46,-209.227"/>
<polygon fill="midnightblue" stroke="midnightblue" points="1637.83,-192.773 1627.67,-195.78 1637.49,-199.764 1637.83,-192.773"/>
</g>
<!-- Node19 -->
<g id="node19" class="node"><title>Node19</title>
<g id="a_node19"><a xlink:href="../../db/d19/classslogo_1_1_u_i_1_1_module_creation_helper.html#a9b3fb38a55b3b7812b4f793afa7a974f" target="_top" xlink:title="slogo.UI.ModuleCreationHelper.create\lPlayButton">
<polygon fill="white" stroke="black" points="712.5,-129 712.5,-159 909.5,-159 909.5,-129 712.5,-129"/>
<text text-anchor="start" x="720.5" y="-147" font-family="Helvetica,sans-Serif" font-size="10.00">slogo.UI.ModuleCreationHelper.create</text>
<text text-anchor="middle" x="811" y="-136" font-family="Helvetica,sans-Serif" font-size="10.00">PlayButton</text>
</a>
</g>
</g>
<!-- Node18&#45;&gt;Node19 -->
<g id="edge23" class="edge"><title>Node18&#45;&gt;Node19</title>
<path fill="none" stroke="midnightblue" d="M681.89,-142.932C692.035,-143.017 702.258,-143.102 712.267,-143.186"/>
<polygon fill="midnightblue" stroke="midnightblue" points="681.81,-139.432 671.782,-142.848 681.752,-146.431 681.81,-139.432"/>
</g>
<!-- Node20 -->
<g id="node20" class="node"><title>Node20</title>
<g id="a_node20"><a xlink:href="../../db/d19/classslogo_1_1_u_i_1_1_module_creation_helper.html#ae1e60d37509c2e5eddcb2a6e70b4f650" target="_top" xlink:title="slogo.UI.ModuleCreationHelper.create\lFirstRowButtons">
<polygon fill="white" stroke="black" points="1668.5,-134 1668.5,-164 1865.5,-164 1865.5,-134 1668.5,-134"/>
<text text-anchor="start" x="1676.5" y="-152" font-family="Helvetica,sans-Serif" font-size="10.00">slogo.UI.ModuleCreationHelper.create</text>
<text text-anchor="middle" x="1767" y="-141" font-family="Helvetica,sans-Serif" font-size="10.00">FirstRowButtons</text>
</a>
</g>
</g>
<!-- Node19&#45;&gt;Node20 -->
<g id="edge24" class="edge"><title>Node19&#45;&gt;Node20</title>
<path fill="none" stroke="midnightblue" d="M919.73,-144.565C1106.68,-145.544 1488.36,-147.545 1668.17,-148.487"/>
<polygon fill="midnightblue" stroke="midnightblue" points="919.63,-141.064 909.611,-144.512 919.593,-148.064 919.63,-141.064"/>
</g>
<!-- Node20&#45;&gt;Node9 -->
<g id="edge25" class="edge"><title>Node20&#45;&gt;Node9</title>
<path fill="none" stroke="midnightblue" d="M1831.69,-166.845C1867.58,-176.9 1911.92,-189.323 1946.08,-198.894"/>
<polygon fill="midnightblue" stroke="midnightblue" points="1832.38,-163.403 1821.81,-164.076 1830.49,-170.144 1832.38,-163.403"/>
</g>
<!-- Node22 -->
<g id="node22" class="node"><title>Node22</title>
<g id="a_node22"><a xlink:href="../../db/d19/classslogo_1_1_u_i_1_1_module_creation_helper.html#a803bac6b55bde712b21f2face1eeef81" target="_top" xlink:title="slogo.UI.ModuleCreationHelper.create\lTurtleCanvas">
<polygon fill="white" stroke="black" points="712.5,-264 712.5,-294 909.5,-294 909.5,-264 712.5,-264"/>
<text text-anchor="start" x="720.5" y="-282" font-family="Helvetica,sans-Serif" font-size="10.00">slogo.UI.ModuleCreationHelper.create</text>
<text text-anchor="middle" x="811" y="-271" font-family="Helvetica,sans-Serif" font-size="10.00">TurtleCanvas</text>
</a>
</g>
</g>
<!-- Node21&#45;&gt;Node22 -->
<g id="edge27" class="edge"><title>Node21&#45;&gt;Node22</title>
<path fill="none" stroke="midnightblue" d="M681.89,-279C692.035,-279 702.258,-279 712.267,-279"/>
<polygon fill="midnightblue" stroke="midnightblue" points="681.782,-275.5 671.782,-279 681.782,-282.5 681.782,-275.5"/>
</g>
<!-- Node22&#45;&gt;Node5 -->
<g id="edge28" class="edge"><title>Node22&#45;&gt;Node5</title>
<path fill="none" stroke="midnightblue" d="M903.831,-295.836C925.62,-299.83 948.723,-304.066 970.039,-307.974"/>
<polygon fill="midnightblue" stroke="midnightblue" points="904.39,-292.38 893.923,-294.019 903.128,-299.265 904.39,-292.38"/>
</g>
<!-- Node24 -->
<g id="node24" class="node"><title>Node24</title>
<g id="a_node24"><a xlink:href="../../db/d19/classslogo_1_1_u_i_1_1_module_creation_helper.html#af7f2919454fdbf6e9d7d912e99634857" target="_top" xlink:title="slogo.UI.ModuleCreationHelper.create\lSelectors">
<polygon fill="white" stroke="black" points="712.5,-61 712.5,-91 909.5,-91 909.5,-61 712.5,-61"/>
<text text-anchor="start" x="720.5" y="-79" font-family="Helvetica,sans-Serif" font-size="10.00">slogo.UI.ModuleCreationHelper.create</text>
<text text-anchor="middle" x="811" y="-68" font-family="Helvetica,sans-Serif" font-size="10.00">Selectors</text>
</a>
</g>
</g>
<!-- Node23&#45;&gt;Node24 -->
<g id="edge30" class="edge"><title>Node23&#45;&gt;Node24</title>
<path fill="none" stroke="midnightblue" d="M667.45,-89.0671C682.2,-87.715 697.423,-86.3196 712.181,-84.9667"/>
<polygon fill="midnightblue" stroke="midnightblue" points="666.963,-85.5969 657.324,-89.9953 667.602,-92.5677 666.963,-85.5969"/>
</g>
<!-- Node24&#45;&gt;Node9 -->
<g id="edge31" class="edge"><title>Node24&#45;&gt;Node9</title>
<path fill="none" stroke="midnightblue" d="M920.022,-81.3237C1016.88,-85.6363 1162.9,-91 1290,-91 1290,-91 1290,-91 1530,-91 1680.05,-91 1724.77,-73.2996 1866,-124 1912.95,-140.855 1959.39,-177.782 1983.34,-198.72"/>
<polygon fill="midnightblue" stroke="midnightblue" points="920.074,-77.8226 909.927,-80.8701 919.759,-84.8155 920.074,-77.8226"/>
</g>
<!-- Node25&#45;&gt;Node24 -->
<g id="edge33" class="edge"><title>Node25&#45;&gt;Node24</title>
<path fill="none" stroke="midnightblue" d="M649.179,-61.2581C669.396,-63.1113 691.368,-65.1254 712.389,-67.0523"/>
<polygon fill="midnightblue" stroke="midnightblue" points="649.374,-57.7613 639.096,-60.3338 648.735,-64.7321 649.374,-57.7613"/>
</g>
<!-- Node26&#45;&gt;Node24 -->
<g id="edge35" class="edge"><title>Node26&#45;&gt;Node24</title>
<path fill="none" stroke="midnightblue" d="M639.167,-21.488C650.208,-23.7221 661.461,-26.239 672,-29 705.91,-37.8833 743.52,-50.9114 770.902,-60.9993"/>
<polygon fill="midnightblue" stroke="midnightblue" points="639.599,-18.0063 629.113,-19.5169 638.253,-24.8755 639.599,-18.0063"/>
</g>
</g>
</svg>
        <g id="navigator" transform="translate(0 0)" fill="#404254">
                <rect fill="#f2f5e9" fill-opacity="0.5" stroke="#606060" stroke-width=".5" x="0" y="0" width="60" height="60"/>
                <use id="zoomplus" xlink:href="#zoomPlus" x="17" y="9" onmousedown="handleZoom(evt,'in')"/>
                <use id="zoomminus" xlink:href="#zoomMin" x="42" y="9" onmousedown="handleZoom(evt,'out')"/>
                <use id="reset" xlink:href="#resetDef" x="30" y="36" onmousedown="handleReset()"/>
                <g id="arrowUp" xlink:href="#dirArrow" transform="translate(30 24)" onmousedown="handlePan(0,-1)">
                  <use xlink:href="#rim" fill="#404040">
                        <set attributeName="fill" to="#808080" begin="arrowUp.mouseover" end="arrowUp.mouseout"/>
                  </use>
                  <path fill="none" stroke="white" stroke-width="1.5" d="M0,-3.0v7 M-2.5,-0.5L0,-3.0L2.5,-0.5"/>
                </g>
                <g id="arrowRight" xlink:href="#dirArrow" transform="rotate(90) translate(36 -43)" onmousedown="handlePan(1,0)">
                  <use xlink:href="#rim" fill="#404040">
                        <set attributeName="fill" to="#808080" begin="arrowRight.mouseover" end="arrowRight.mouseout"/>
                  </use>
                  <path fill="none" stroke="white" stroke-width="1.5" d="M0,-3.0v7 M-2.5,-0.5L0,-3.0L2.5,-0.5"/>
                </g>
                <g id="arrowDown" xlink:href="#dirArrow" transform="rotate(180) translate(-30 -48)" onmousedown="handlePan(0,1)">
                  <use xlink:href="#rim" fill="#404040">
                        <set attributeName="fill" to="#808080" begin="arrowDown.mouseover" end="arrowDown.mouseout"/>
                  </use>
                  <path fill="none" stroke="white" stroke-width="1.5" d="M0,-3.0v7 M-2.5,-0.5L0,-3.0L2.5,-0.5"/>
                </g>
                <g id="arrowLeft" xlink:href="#dirArrow" transform="rotate(270) translate(-36 17)" onmousedown="handlePan(-1,0)">
                  <use xlink:href="#rim" fill="#404040">
                        <set attributeName="fill" to="#808080" begin="arrowLeft.mouseover" end="arrowLeft.mouseout"/>
                  </use>
                  <path fill="none" stroke="white" stroke-width="1.5" d="M0,-3.0v7 M-2.5,-0.5L0,-3.0L2.5,-0.5"/>
                </g>
        </g>
        <svg viewBox="0 0 15 15" width="100%" height="30px" preserveAspectRatio="xMaxYMin meet">
         <g id="arrow_out" transform="scale(0.3 0.3)">
          <a xlink:href="classslogo_1_1_u_i_1_1_module_creation_helper_a19e589c1d603c2729c3d637bec776313_icgraph_org.svg" target="_base">
           <rect id="button" ry="5" rx="5" y="6" x="6" height="38" width="38"
                fill="#f2f5e9" fill-opacity="0.5" stroke="#606060" stroke-width="1.0"/>
           <path id="arrow"
             d="M 11.500037,31.436501 C 11.940474,20.09759 22.043105,11.32322 32.158766,21.979434 L 37.068811,17.246167 C 37.068811,17.246167 37.088388,32 37.088388,32 L 22.160133,31.978069 C 22.160133,31.978069 26.997745,27.140456 26.997745,27.140456 C 18.528582,18.264221 13.291696,25.230495 11.500037,31.436501 z"
             style="fill:#404040;"/>
          </a>
         </g>
        </svg>
</svg>
