<?xml version="1.0" encoding="UTF-8" standalone="no"?>
<!DOCTYPE svg PUBLIC "-//W3C//DTD SVG 1.1//EN"
 "http://www.w3.org/Graphics/SVG/1.1/DTD/svg11.dtd">
<!-- Generated by graphviz version 2.36.0 (20140111.2315)
 -->
<!-- Title: slogo.UI.ModuleCreationHelper.getTurtleSelector Pages: 1 -->
<svg width="3134pt" height="427pt"
 viewBox="0.00 0.00 3134.00 427.00" xmlns="http://www.w3.org/2000/svg" xmlns:xlink="http://www.w3.org/1999/xlink">
<g id="graph0" class="graph" transform="scale(1 1) rotate(0) translate(4 423)">
<title>slogo.UI.ModuleCreationHelper.getTurtleSelector</title>
<polygon fill="white" stroke="none" points="-4,4 -4,-423 3130,-423 3130,4 -4,4"/>
<!-- Node1 -->
<g id="node1" class="node"><title>Node1</title>
<polygon fill="#bfbfbf" stroke="black" points="0,-49 0,-79 182,-79 182,-49 0,-49"/>
<text text-anchor="start" x="8" y="-67" font-family="Helvetica,sans-Serif" font-size="10.00">slogo.UI.ModuleCreationHelper.get</text>
<text text-anchor="middle" x="91" y="-56" font-family="Helvetica,sans-Serif" font-size="10.00">TurtleSelector</text>
</g>
<!-- Node2 -->
<g id="node2" class="node"><title>Node2</title>
<g id="a_node2"><a xlink:href="../../d9/d7e/classslogo_1_1_u_i_1_1_method_runner.html#a7acbc486941b60522435d579c227d6db" target="_top" xlink:title="slogo.UI.MethodRunner.set\lTurtleImage">
<polygon fill="white" stroke="black" points="218,-49 218,-79 362,-79 362,-49 218,-49"/>
<text text-anchor="start" x="226" y="-67" font-family="Helvetica,sans-Serif" font-size="10.00">slogo.UI.MethodRunner.set</text>
<text text-anchor="middle" x="290" y="-56" font-family="Helvetica,sans-Serif" font-size="10.00">TurtleImage</text>
</a>
</g>
</g>
<!-- Node1&#45;&gt;Node2 -->
<g id="edge1" class="edge"><title>Node1&#45;&gt;Node2</title>
<path fill="none" stroke="midnightblue" d="M192.251,-64C200.87,-64 209.471,-64 217.79,-64"/>
<polygon fill="midnightblue" stroke="midnightblue" points="192.14,-60.5001 182.14,-64 192.14,-67.5001 192.14,-60.5001"/>
</g>
<!-- Node3 -->
<g id="node3" class="node"><title>Node3</title>
<g id="a_node3"><a xlink:href="../../d9/d7e/classslogo_1_1_u_i_1_1_method_runner.html#a5e01d88aabd60df2be9ebb5b874837b1" target="_top" xlink:title="slogo.UI.MethodRunner.set\lPenAttributes">
<polygon fill="white" stroke="black" points="398,-49 398,-79 542,-79 542,-49 398,-49"/>
<text text-anchor="start" x="406" y="-67" font-family="Helvetica,sans-Serif" font-size="10.00">slogo.UI.MethodRunner.set</text>
<text text-anchor="middle" x="470" y="-56" font-family="Helvetica,sans-Serif" font-size="10.00">PenAttributes</text>
</a>
</g>
</g>
<!-- Node2&#45;&gt;Node3 -->
<g id="edge2" class="edge"><title>Node2&#45;&gt;Node3</title>
<path fill="none" stroke="midnightblue" d="M372.17,-64C380.789,-64 389.506,-64 397.995,-64"/>
<polygon fill="midnightblue" stroke="midnightblue" points="372.118,-60.5001 362.118,-64 372.118,-67.5001 372.118,-60.5001"/>
</g>
<!-- Node4 -->
<g id="node4" class="node"><title>Node4</title>
<g id="a_node4"><a xlink:href="../../d9/d7e/classslogo_1_1_u_i_1_1_method_runner.html#a5fe4a6310ba1b0851d7d30a440511324" target="_top" xlink:title="slogo.UI.MethodRunner.change\lTurtle">
<polygon fill="white" stroke="black" points="578,-49 578,-79 742,-79 742,-49 578,-49"/>
<text text-anchor="start" x="586" y="-67" font-family="Helvetica,sans-Serif" font-size="10.00">slogo.UI.MethodRunner.change</text>
<text text-anchor="middle" x="660" y="-56" font-family="Helvetica,sans-Serif" font-size="10.00">Turtle</text>
</a>
</g>
</g>
<!-- Node3&#45;&gt;Node4 -->
<g id="edge3" class="edge"><title>Node3&#45;&gt;Node4</title>
<path fill="none" stroke="midnightblue" d="M552.28,-64C560.719,-64 569.298,-64 577.736,-64"/>
<polygon fill="midnightblue" stroke="midnightblue" points="552.075,-60.5001 542.075,-64 552.075,-67.5001 552.075,-60.5001"/>
</g>
<!-- Node5 -->
<g id="node5" class="node"><title>Node5</title>
<g id="a_node5"><a xlink:href="../../df/d2d/classslogo_1_1_view.html#accc79c56511a72090ff8a4d414b8d1f5" target="_top" xlink:title="slogo.View.executeTurtle\lCommands">
<polygon fill="white" stroke="black" points="778.5,-49 778.5,-79 911.5,-79 911.5,-49 778.5,-49"/>
<text text-anchor="start" x="786.5" y="-67" font-family="Helvetica,sans-Serif" font-size="10.00">slogo.View.executeTurtle</text>
<text text-anchor="middle" x="845" y="-56" font-family="Helvetica,sans-Serif" font-size="10.00">Commands</text>
</a>
</g>
</g>
<!-- Node4&#45;&gt;Node5 -->
<g id="edge4" class="edge"><title>Node4&#45;&gt;Node5</title>
<path fill="none" stroke="midnightblue" d="M752.35,-64C761.128,-64 769.907,-64 778.365,-64"/>
<polygon fill="midnightblue" stroke="midnightblue" points="752.066,-60.5001 742.066,-64 752.066,-67.5001 752.066,-60.5001"/>
</g>
<!-- Node6 -->
<g id="node6" class="node"><title>Node6</title>
<g id="a_node6"><a xlink:href="../../df/d2d/classslogo_1_1_view.html#aa90e5d95d422b58b7f4b7f8a049defe1" target="_top" xlink:title="slogo.View.executeCommand">
<polygon fill="white" stroke="black" points="948,-54.5 948,-73.5 1106,-73.5 1106,-54.5 948,-54.5"/>
<text text-anchor="middle" x="1027" y="-61.5" font-family="Helvetica,sans-Serif" font-size="10.00">slogo.View.executeCommand</text>
</a>
</g>
</g>
<!-- Node5&#45;&gt;Node6 -->
<g id="edge5" class="edge"><title>Node5&#45;&gt;Node6</title>
<path fill="none" stroke="midnightblue" d="M921.784,-64C930.42,-64 939.235,-64 947.901,-64"/>
<polygon fill="midnightblue" stroke="midnightblue" points="921.748,-60.5001 911.748,-64 921.748,-67.5001 921.748,-60.5001"/>
</g>
<!-- Node7 -->
<g id="node7" class="node"><title>Node7</title>
<g id="a_node7"><a xlink:href="../../df/d2d/classslogo_1_1_view.html#aee563f6a0b15ac6668e4dcbdad40c73c" target="_top" xlink:title="slogo.View.sendCommandTo\lBackend">
<polygon fill="white" stroke="black" points="1148,-213 1148,-243 1300,-243 1300,-213 1148,-213"/>
<text text-anchor="start" x="1156" y="-231" font-family="Helvetica,sans-Serif" font-size="10.00">slogo.View.sendCommandTo</text>
<text text-anchor="middle" x="1224" y="-220" font-family="Helvetica,sans-Serif" font-size="10.00">Backend</text>
</a>
</g>
</g>
<!-- Node6&#45;&gt;Node7 -->
<g id="edge6" class="edge"><title>Node6&#45;&gt;Node7</title>
<path fill="none" stroke="midnightblue" d="M1047.05,-80.0252C1084.77,-111.741 1168.43,-182.108 1205.15,-212.984"/>
<polygon fill="midnightblue" stroke="midnightblue" points="1049.23,-77.2841 1039.33,-73.5262 1044.73,-82.6414 1049.23,-77.2841"/>
</g>
<!-- Node27 -->
<g id="node27" class="node"><title>Node27</title>
<g id="a_node27"><a xlink:href="../../df/d2d/classslogo_1_1_view.html#a4c3084a198acf85804800d70eff9ee51" target="_top" xlink:title="slogo.View.stepIntoCommand">
<polygon fill="white" stroke="black" points="1145,-54.5 1145,-73.5 1303,-73.5 1303,-54.5 1145,-54.5"/>
<text text-anchor="middle" x="1224" y="-61.5" font-family="Helvetica,sans-Serif" font-size="10.00">slogo.View.stepIntoCommand</text>
</a>
</g>
</g>
<!-- Node6&#45;&gt;Node27 -->
<g id="edge34" class="edge"><title>Node6&#45;&gt;Node27</title>
<path fill="none" stroke="midnightblue" d="M1116.4,-64C1125.87,-64 1135.45,-64 1144.79,-64"/>
<polygon fill="midnightblue" stroke="midnightblue" points="1116.19,-60.5001 1106.19,-64 1116.19,-67.5001 1116.19,-60.5001"/>
</g>
<!-- Node31 -->
<g id="node31" class="node"><title>Node31</title>
<g id="a_node31"><a xlink:href="../../df/d2d/classslogo_1_1_view.html#ac8b7f574c679e744a430f1649dc55e68" target="_top" xlink:title="slogo.View.stepOverCommand">
<polygon fill="white" stroke="black" points="1142.5,-11.5 1142.5,-30.5 1305.5,-30.5 1305.5,-11.5 1142.5,-11.5"/>
<text text-anchor="middle" x="1224" y="-18.5" font-family="Helvetica,sans-Serif" font-size="10.00">slogo.View.stepOverCommand</text>
</a>
</g>
</g>
<!-- Node6&#45;&gt;Node31 -->
<g id="edge39" class="edge"><title>Node6&#45;&gt;Node31</title>
<path fill="none" stroke="midnightblue" d="M1081.06,-52.3005C1112.07,-45.462 1150.71,-36.9406 1179.84,-30.5164"/>
<polygon fill="midnightblue" stroke="midnightblue" points="1080.29,-48.8855 1071.28,-54.4569 1081.8,-55.7213 1080.29,-48.8855"/>
</g>
<!-- Node8 -->
<g id="node8" class="node"><title>Node8</title>
<g id="a_node8"><a xlink:href="../../db/d19/classslogo_1_1_u_i_1_1_module_creation_helper.html#a69e17abcc7cf9a6ed7261d8fb1d631fa" target="_top" xlink:title="slogo.UI.ModuleCreationHelper.activate\lIncreaseDecreaseButtons">
<polygon fill="white" stroke="black" points="1342.5,-389 1342.5,-419 1547.5,-419 1547.5,-389 1342.5,-389"/>
<text text-anchor="start" x="1350.5" y="-407" font-family="Helvetica,sans-Serif" font-size="10.00">slogo.UI.ModuleCreationHelper.activate</text>
<text text-anchor="middle" x="1445" y="-396" font-family="Helvetica,sans-Serif" font-size="10.00">IncreaseDecreaseButtons</text>
</a>
</g>
</g>
<!-- Node7&#45;&gt;Node8 -->
<g id="edge7" class="edge"><title>Node7&#45;&gt;Node8</title>
<path fill="none" stroke="midnightblue" d="M1238.04,-252.219C1256.78,-284.724 1294.36,-342.06 1342,-374 1351.12,-380.116 1361.51,-385.01 1372.09,-388.919"/>
<polygon fill="midnightblue" stroke="midnightblue" points="1241.01,-250.361 1233.05,-243.368 1234.91,-253.798 1241.01,-250.361"/>
</g>
<!-- Node15 -->
<g id="node15" class="node"><title>Node15</title>
<g id="a_node15"><a xlink:href="../../db/d19/classslogo_1_1_u_i_1_1_module_creation_helper.html#aa70b0ad9e90e62509149bfd2ef2ba209" target="_top" xlink:title="slogo.UI.ModuleCreationHelper.activate\lKeyEvents">
<polygon fill="white" stroke="black" points="2068.5,-136 2068.5,-166 2273.5,-166 2273.5,-136 2068.5,-136"/>
<text text-anchor="start" x="2076.5" y="-154" font-family="Helvetica,sans-Serif" font-size="10.00">slogo.UI.ModuleCreationHelper.activate</text>
<text text-anchor="middle" x="2171" y="-143" font-family="Helvetica,sans-Serif" font-size="10.00">KeyEvents</text>
</a>
</g>
</g>
<!-- Node7&#45;&gt;Node15 -->
<g id="edge15" class="edge"><title>Node7&#45;&gt;Node15</title>
<path fill="none" stroke="midnightblue" d="M1254.18,-207.164C1276.9,-192.251 1309.88,-173.388 1342,-165 1476.15,-129.97 1878.16,-139.777 2068.26,-146.744"/>
<polygon fill="midnightblue" stroke="midnightblue" points="1252.05,-204.378 1245.7,-212.86 1255.95,-210.189 1252.05,-204.378"/>
</g>
<!-- Node16 -->
<g id="node16" class="node"><title>Node16</title>
<g id="a_node16"><a xlink:href="../../db/d19/classslogo_1_1_u_i_1_1_module_creation_helper.html#a2e841243ec3ca474e8822102343acc88" target="_top" xlink:title="slogo.UI.ModuleCreationHelper.activate\lNewTurtleButton">
<polygon fill="white" stroke="black" points="1584.5,-344 1584.5,-374 1789.5,-374 1789.5,-344 1584.5,-344"/>
<text text-anchor="start" x="1592.5" y="-362" font-family="Helvetica,sans-Serif" font-size="10.00">slogo.UI.ModuleCreationHelper.activate</text>
<text text-anchor="middle" x="1687" y="-351" font-family="Helvetica,sans-Serif" font-size="10.00">NewTurtleButton</text>
</a>
</g>
</g>
<!-- Node7&#45;&gt;Node16 -->
<g id="edge17" class="edge"><title>Node7&#45;&gt;Node16</title>
<path fill="none" stroke="midnightblue" d="M1241.02,-251.155C1261.1,-278.009 1298.24,-321.013 1342,-340 1418.41,-373.152 1513.47,-375.86 1584.29,-371.435"/>
<polygon fill="midnightblue" stroke="midnightblue" points="1243.83,-249.073 1235.11,-243.055 1238.18,-253.197 1243.83,-249.073"/>
</g>
<!-- Node18 -->
<g id="node18" class="node"><title>Node18</title>
<g id="a_node18"><a xlink:href="../../db/d19/classslogo_1_1_u_i_1_1_module_creation_helper.html#a9b1f07ab673191067907a059b1b0c524" target="_top" xlink:title="slogo.UI.ModuleCreationHelper.activate\lPlayButton">
<polygon fill="white" stroke="black" points="1342.5,-301 1342.5,-331 1547.5,-331 1547.5,-301 1342.5,-301"/>
<text text-anchor="start" x="1350.5" y="-319" font-family="Helvetica,sans-Serif" font-size="10.00">slogo.UI.ModuleCreationHelper.activate</text>
<text text-anchor="middle" x="1445" y="-308" font-family="Helvetica,sans-Serif" font-size="10.00">PlayButton</text>
</a>
</g>
</g>
<!-- Node7&#45;&gt;Node18 -->
<g id="edge20" class="edge"><title>Node7&#45;&gt;Node18</title>
<path fill="none" stroke="midnightblue" d="M1257.42,-248.354C1280.33,-262.006 1312.16,-279.522 1342,-291 1351.7,-294.73 1362.14,-298.039 1372.5,-300.929"/>
<polygon fill="midnightblue" stroke="midnightblue" points="1259.16,-245.317 1248.79,-243.145 1255.54,-251.31 1259.16,-245.317"/>
</g>
<!-- Node21 -->
<g id="node21" class="node"><title>Node21</title>
<g id="a_node21"><a xlink:href="../../db/d19/classslogo_1_1_u_i_1_1_module_creation_helper.html#a3a38d485562cb17591ec3fd07cffc18a" target="_top" xlink:title="slogo.UI.ModuleCreationHelper.activate\lTurtleCanvas">
<polygon fill="white" stroke="black" points="1826.5,-87 1826.5,-117 2031.5,-117 2031.5,-87 1826.5,-87"/>
<text text-anchor="start" x="1834.5" y="-105" font-family="Helvetica,sans-Serif" font-size="10.00">slogo.UI.ModuleCreationHelper.activate</text>
<text text-anchor="middle" x="1929" y="-94" font-family="Helvetica,sans-Serif" font-size="10.00">TurtleCanvas</text>
</a>
</g>
</g>
<!-- Node7&#45;&gt;Node21 -->
<g id="edge24" class="edge"><title>Node7&#45;&gt;Node21</title>
<path fill="none" stroke="midnightblue" d="M1244.37,-205.232C1265.63,-182.064 1302.1,-147.434 1342,-132 1427.51,-98.92 1682.48,-97.5272 1826.33,-99.6157"/>
<polygon fill="midnightblue" stroke="midnightblue" points="1241.56,-203.115 1237.5,-212.898 1246.78,-207.786 1241.56,-203.115"/>
</g>
<!-- Node23 -->
<g id="node23" class="node"><title>Node23</title>
<g id="a_node23"><a xlink:href="../../d1/d5f/classslogo_1_1_u_i_1_1_path_color_selector.html#ad3d9c82a0904c97edcec7cf67b85bd7b" target="_top" xlink:title="slogo.UI.PathColorSelector.create">
<polygon fill="white" stroke="black" points="1357,-262.5 1357,-281.5 1533,-281.5 1533,-262.5 1357,-262.5"/>
<text text-anchor="middle" x="1445" y="-269.5" font-family="Helvetica,sans-Serif" font-size="10.00">slogo.UI.PathColorSelector.create</text>
</a>
</g>
</g>
<!-- Node7&#45;&gt;Node23 -->
<g id="edge27" class="edge"><title>Node7&#45;&gt;Node23</title>
<path fill="none" stroke="midnightblue" d="M1307.74,-245.065C1319.24,-247.411 1330.91,-249.776 1342,-252 1359.25,-255.46 1378.16,-259.186 1394.95,-262.473"/>
<polygon fill="midnightblue" stroke="midnightblue" points="1308.19,-241.585 1297.69,-243.013 1306.79,-248.443 1308.19,-241.585"/>
</g>
<!-- Node25 -->
<g id="node25" class="node"><title>Node25</title>
<g id="a_node25"><a xlink:href="../../d4/d8d/classslogo_1_1_u_i_1_1_background_color_selector.html#ad75ba4ce104e071811d0fe039a4e839f" target="_top" xlink:title="slogo.UI.BackgroundColor\lSelector.create">
<polygon fill="white" stroke="black" points="1375,-213 1375,-243 1515,-243 1515,-213 1375,-213"/>
<text text-anchor="start" x="1383" y="-231" font-family="Helvetica,sans-Serif" font-size="10.00">slogo.UI.BackgroundColor</text>
<text text-anchor="middle" x="1445" y="-220" font-family="Helvetica,sans-Serif" font-size="10.00">Selector.create</text>
</a>
</g>
</g>
<!-- Node7&#45;&gt;Node25 -->
<g id="edge30" class="edge"><title>Node7&#45;&gt;Node25</title>
<path fill="none" stroke="midnightblue" d="M1310.14,-228C1331.6,-228 1354.37,-228 1374.93,-228"/>
<polygon fill="midnightblue" stroke="midnightblue" points="1310.06,-224.5 1300.06,-228 1310.06,-231.5 1310.06,-224.5"/>
</g>
<!-- Node26 -->
<g id="node26" class="node"><title>Node26</title>
<g id="a_node26"><a xlink:href="../../dd/da7/classslogo_1_1_u_i_1_1_turtle_image_selector.html#a3f268d9196ffebcbb5dc322d2897a9fe" target="_top" xlink:title="slogo.UI.TurtleImageSelector.create">
<polygon fill="white" stroke="black" points="1352,-174.5 1352,-193.5 1538,-193.5 1538,-174.5 1352,-174.5"/>
<text text-anchor="middle" x="1445" y="-181.5" font-family="Helvetica,sans-Serif" font-size="10.00">slogo.UI.TurtleImageSelector.create</text>
</a>
</g>
</g>
<!-- Node7&#45;&gt;Node26 -->
<g id="edge32" class="edge"><title>Node7&#45;&gt;Node26</title>
<path fill="none" stroke="midnightblue" d="M1304.01,-210.821C1316.7,-208.147 1329.71,-205.458 1342,-203 1357.99,-199.804 1375.42,-196.493 1391.27,-193.548"/>
<polygon fill="midnightblue" stroke="midnightblue" points="1302.98,-207.463 1293.92,-212.958 1304.43,-214.311 1302.98,-207.463"/>
</g>
<!-- Node9 -->
<g id="node9" class="node"><title>Node9</title>
<g id="a_node9"><a xlink:href="../../db/d19/classslogo_1_1_u_i_1_1_module_creation_helper.html#adce7362386f9a7b3006e7db08a2d578d" target="_top" xlink:title="slogo.UI.ModuleCreationHelper.create\lIncreaseDecreaseButtons">
<polygon fill="white" stroke="black" points="1830.5,-380 1830.5,-410 2027.5,-410 2027.5,-380 1830.5,-380"/>
<text text-anchor="start" x="1838.5" y="-398" font-family="Helvetica,sans-Serif" font-size="10.00">slogo.UI.ModuleCreationHelper.create</text>
<text text-anchor="middle" x="1929" y="-387" font-family="Helvetica,sans-Serif" font-size="10.00">IncreaseDecreaseButtons</text>
</a>
</g>
</g>
<!-- Node8&#45;&gt;Node9 -->
<g id="edge8" class="edge"><title>Node8&#45;&gt;Node9</title>
<path fill="none" stroke="midnightblue" d="M1557.79,-401.913C1640.23,-400.373 1751.29,-398.299 1830.21,-396.826"/>
<polygon fill="midnightblue" stroke="midnightblue" points="1557.56,-398.416 1547.63,-402.102 1557.69,-405.415 1557.56,-398.416"/>
</g>
<!-- Node10 -->
<g id="node10" class="node"><title>Node10</title>
<g id="a_node10"><a xlink:href="../../db/d19/classslogo_1_1_u_i_1_1_module_creation_helper.html#a7c650957b2389d6e6d36e8be8a33cd2b" target="_top" xlink:title="slogo.UI.ModuleCreationHelper.create\lSelectorVBoxModules">
<polygon fill="white" stroke="black" points="2072.5,-253 2072.5,-283 2269.5,-283 2269.5,-253 2072.5,-253"/>
<text text-anchor="start" x="2080.5" y="-271" font-family="Helvetica,sans-Serif" font-size="10.00">slogo.UI.ModuleCreationHelper.create</text>
<text text-anchor="middle" x="2171" y="-260" font-family="Helvetica,sans-Serif" font-size="10.00">SelectorVBoxModules</text>
</a>
</g>
</g>
<!-- Node9&#45;&gt;Node10 -->
<g id="edge9" class="edge"><title>Node9&#45;&gt;Node10</title>
<path fill="none" stroke="midnightblue" d="M2013,-376.732C2019.54,-374.424 2025.95,-371.854 2032,-369 2080.6,-346.077 2129.46,-305.079 2153.92,-283.025"/>
<polygon fill="midnightblue" stroke="midnightblue" points="2011.75,-373.461 2003.36,-379.93 2013.95,-380.105 2011.75,-373.461"/>
</g>
<!-- Node11 -->
<g id="node11" class="node"><title>Node11</title>
<g id="a_node11"><a xlink:href="../../db/d19/classslogo_1_1_u_i_1_1_module_creation_helper.html#afb9dbbbad7d872234a5b296fe129a34e" target="_top" xlink:title="slogo.UI.ModuleCreationHelper.create\lMainPageModules">
<polygon fill="white" stroke="black" points="2310.5,-136 2310.5,-166 2507.5,-166 2507.5,-136 2310.5,-136"/>
<text text-anchor="start" x="2318.5" y="-154" font-family="Helvetica,sans-Serif" font-size="10.00">slogo.UI.ModuleCreationHelper.create</text>
<text text-anchor="middle" x="2409" y="-143" font-family="Helvetica,sans-Serif" font-size="10.00">MainPageModules</text>
</a>
</g>
</g>
<!-- Node10&#45;&gt;Node11 -->
<g id="edge10" class="edge"><title>Node10&#45;&gt;Node11</title>
<path fill="none" stroke="midnightblue" d="M2211.58,-248.38C2258.29,-225.222 2334.96,-187.212 2377.37,-166.184"/>
<polygon fill="midnightblue" stroke="midnightblue" points="2209.77,-245.366 2202.37,-252.944 2212.88,-251.638 2209.77,-245.366"/>
</g>
<!-- Node12 -->
<g id="node12" class="node"><title>Node12</title>
<g id="a_node12"><a xlink:href="../../d9/d33/classslogo_1_1_u_i_1_1_main.html#a15b7f2e399ee24d160550993ab737e73" target="_top" xlink:title="slogo.UI.Main.start">
<polygon fill="white" stroke="black" points="2544,-150.5 2544,-169.5 2650,-169.5 2650,-150.5 2544,-150.5"/>
<text text-anchor="middle" x="2597" y="-157.5" font-family="Helvetica,sans-Serif" font-size="10.00">slogo.UI.Main.start</text>
</a>
</g>
</g>
<!-- Node11&#45;&gt;Node12 -->
<g id="edge11" class="edge"><title>Node11&#45;&gt;Node12</title>
<path fill="none" stroke="midnightblue" d="M2517.8,-156.216C2526.76,-156.65 2535.53,-157.074 2543.76,-157.472"/>
<polygon fill="midnightblue" stroke="midnightblue" points="2517.79,-152.712 2507.63,-155.724 2517.45,-159.703 2517.79,-152.712"/>
</g>
<!-- Node13 -->
<g id="node13" class="node"><title>Node13</title>
<g id="a_node13"><a xlink:href="../../db/d19/classslogo_1_1_u_i_1_1_module_creation_helper.html#a3be12a7cc2b8a219db1e296211a2cb88" target="_top" xlink:title="slogo.UI.ModuleCreationHelper.activate\lExtraWorkspaceButton">
<polygon fill="white" stroke="black" points="2686.5,-163 2686.5,-193 2891.5,-193 2891.5,-163 2686.5,-163"/>
<text text-anchor="start" x="2694.5" y="-181" font-family="Helvetica,sans-Serif" font-size="10.00">slogo.UI.ModuleCreationHelper.activate</text>
<text text-anchor="middle" x="2789" y="-170" font-family="Helvetica,sans-Serif" font-size="10.00">ExtraWorkspaceButton</text>
</a>
</g>
</g>
<!-- Node12&#45;&gt;Node13 -->
<g id="edge12" class="edge"><title>Node12&#45;&gt;Node13</title>
<path fill="none" stroke="midnightblue" d="M2660.22,-165.894C2668.63,-166.691 2677.44,-167.526 2686.32,-168.367"/>
<polygon fill="midnightblue" stroke="midnightblue" points="2660.46,-162.401 2650.17,-164.942 2659.79,-169.37 2660.46,-162.401"/>
</g>
<!-- Node14 -->
<g id="node14" class="node"><title>Node14</title>
<g id="a_node14"><a xlink:href="../../db/d19/classslogo_1_1_u_i_1_1_module_creation_helper.html#a702c1ebe24d2857a10c666eb1fcc315d" target="_top" xlink:title="slogo.UI.ModuleCreationHelper.create\lExtraWorkspaceButton">
<polygon fill="white" stroke="black" points="2928.5,-189 2928.5,-219 3125.5,-219 3125.5,-189 2928.5,-189"/>
<text text-anchor="start" x="2936.5" y="-207" font-family="Helvetica,sans-Serif" font-size="10.00">slogo.UI.ModuleCreationHelper.create</text>
<text text-anchor="middle" x="3027" y="-196" font-family="Helvetica,sans-Serif" font-size="10.00">ExtraWorkspaceButton</text>
</a>
</g>
</g>
<!-- Node13&#45;&gt;Node14 -->
<g id="edge13" class="edge"><title>Node13&#45;&gt;Node14</title>
<path fill="none" stroke="midnightblue" d="M2901.77,-190.313C2910.62,-191.289 2919.52,-192.27 2928.27,-193.234"/>
<polygon fill="midnightblue" stroke="midnightblue" points="2902.12,-186.831 2891.8,-189.215 2901.35,-193.789 2902.12,-186.831"/>
</g>
<!-- Node14&#45;&gt;Node10 -->
<g id="edge14" class="edge"><title>Node14&#45;&gt;Node10</title>
<path fill="none" stroke="midnightblue" d="M2918.34,-212.068C2750.9,-224.617 2430.6,-248.62 2269.55,-260.69"/>
<polygon fill="midnightblue" stroke="midnightblue" points="2918.7,-215.551 2928.41,-211.313 2918.18,-208.571 2918.7,-215.551"/>
</g>
<!-- Node15&#45;&gt;Node11 -->
<g id="edge16" class="edge"><title>Node15&#45;&gt;Node11</title>
<path fill="none" stroke="midnightblue" d="M2284.05,-151C2292.81,-151 2301.62,-151 2310.27,-151"/>
<polygon fill="midnightblue" stroke="midnightblue" points="2283.8,-147.5 2273.8,-151 2283.8,-154.5 2283.8,-147.5"/>
</g>
<!-- Node17 -->
<g id="node17" class="node"><title>Node17</title>
<g id="a_node17"><a xlink:href="../../db/d19/classslogo_1_1_u_i_1_1_module_creation_helper.html#a07f5483df317cdf80e8ea2dda5699afa" target="_top" xlink:title="slogo.UI.ModuleCreationHelper.create\lNewTurtleButton">
<polygon fill="white" stroke="black" points="1830.5,-330 1830.5,-360 2027.5,-360 2027.5,-330 1830.5,-330"/>
<text text-anchor="start" x="1838.5" y="-348" font-family="Helvetica,sans-Serif" font-size="10.00">slogo.UI.ModuleCreationHelper.create</text>
<text text-anchor="middle" x="1929" y="-337" font-family="Helvetica,sans-Serif" font-size="10.00">NewTurtleButton</text>
</a>
</g>
</g>
<!-- Node16&#45;&gt;Node17 -->
<g id="edge18" class="edge"><title>Node16&#45;&gt;Node17</title>
<path fill="none" stroke="midnightblue" d="M1799.89,-352.473C1810.04,-351.881 1820.26,-351.285 1830.27,-350.701"/>
<polygon fill="midnightblue" stroke="midnightblue" points="1799.56,-348.986 1789.78,-353.063 1799.97,-355.974 1799.56,-348.986"/>
</g>
<!-- Node17&#45;&gt;Node10 -->
<g id="edge19" class="edge"><title>Node17&#45;&gt;Node10</title>
<path fill="none" stroke="midnightblue" d="M2000.15,-327.309C2010.87,-324.354 2021.76,-321.203 2032,-318 2065.93,-307.387 2103.86,-293.493 2131.35,-283.046"/>
<polygon fill="midnightblue" stroke="midnightblue" points="1999.12,-323.962 1990.39,-329.963 2000.96,-330.717 1999.12,-323.962"/>
</g>
<!-- Node19 -->
<g id="node19" class="node"><title>Node19</title>
<g id="a_node19"><a xlink:href="../../db/d19/classslogo_1_1_u_i_1_1_module_creation_helper.html#a9b3fb38a55b3b7812b4f793afa7a974f" target="_top" xlink:title="slogo.UI.ModuleCreationHelper.create\lPlayButton">
<polygon fill="white" stroke="black" points="1588.5,-295 1588.5,-325 1785.5,-325 1785.5,-295 1588.5,-295"/>
<text text-anchor="start" x="1596.5" y="-313" font-family="Helvetica,sans-Serif" font-size="10.00">slogo.UI.ModuleCreationHelper.create</text>
<text text-anchor="middle" x="1687" y="-302" font-family="Helvetica,sans-Serif" font-size="10.00">PlayButton</text>
</a>
</g>
</g>
<!-- Node18&#45;&gt;Node19 -->
<g id="edge21" class="edge"><title>Node18&#45;&gt;Node19</title>
<path fill="none" stroke="midnightblue" d="M1557.89,-313.203C1568.04,-312.949 1578.26,-312.694 1588.27,-312.443"/>
<polygon fill="midnightblue" stroke="midnightblue" points="1557.69,-309.707 1547.78,-313.455 1557.87,-316.704 1557.69,-309.707"/>
</g>
<!-- Node20 -->
<g id="node20" class="node"><title>Node20</title>
<g id="a_node20"><a xlink:href="../../db/d19/classslogo_1_1_u_i_1_1_module_creation_helper.html#ae1e60d37509c2e5eddcb2a6e70b4f650" target="_top" xlink:title="slogo.UI.ModuleCreationHelper.create\lFirstRowButtons">
<polygon fill="white" stroke="black" points="1830.5,-279 1830.5,-309 2027.5,-309 2027.5,-279 1830.5,-279"/>
<text text-anchor="start" x="1838.5" y="-297" font-family="Helvetica,sans-Serif" font-size="10.00">slogo.UI.ModuleCreationHelper.create</text>
<text text-anchor="middle" x="1929" y="-286" font-family="Helvetica,sans-Serif" font-size="10.00">FirstRowButtons</text>
</a>
</g>
</g>
<!-- Node19&#45;&gt;Node20 -->
<g id="edge22" class="edge"><title>Node19&#45;&gt;Node20</title>
<path fill="none" stroke="midnightblue" d="M1795.73,-302.818C1807.3,-302.046 1819.03,-301.265 1830.47,-300.502"/>
<polygon fill="midnightblue" stroke="midnightblue" points="1795.36,-299.335 1785.62,-303.492 1795.83,-306.319 1795.36,-299.335"/>
</g>
<!-- Node20&#45;&gt;Node10 -->
<g id="edge23" class="edge"><title>Node20&#45;&gt;Node10</title>
<path fill="none" stroke="midnightblue" d="M2037.73,-282.329C2049.3,-281.075 2061.03,-279.805 2072.47,-278.566"/>
<polygon fill="midnightblue" stroke="midnightblue" points="2037.18,-278.868 2027.62,-283.425 2037.94,-285.827 2037.18,-278.868"/>
</g>
<!-- Node22 -->
<g id="node22" class="node"><title>Node22</title>
<g id="a_node22"><a xlink:href="../../db/d19/classslogo_1_1_u_i_1_1_module_creation_helper.html#a803bac6b55bde712b21f2face1eeef81" target="_top" xlink:title="slogo.UI.ModuleCreationHelper.create\lTurtleCanvas">
<polygon fill="white" stroke="black" points="2072.5,-87 2072.5,-117 2269.5,-117 2269.5,-87 2072.5,-87"/>
<text text-anchor="start" x="2080.5" y="-105" font-family="Helvetica,sans-Serif" font-size="10.00">slogo.UI.ModuleCreationHelper.create</text>
<text text-anchor="middle" x="2171" y="-94" font-family="Helvetica,sans-Serif" font-size="10.00">TurtleCanvas</text>
</a>
</g>
</g>
<!-- Node21&#45;&gt;Node22 -->
<g id="edge25" class="edge"><title>Node21&#45;&gt;Node22</title>
<path fill="none" stroke="midnightblue" d="M2041.89,-102C2052.04,-102 2062.26,-102 2072.27,-102"/>
<polygon fill="midnightblue" stroke="midnightblue" points="2041.78,-98.5001 2031.78,-102 2041.78,-105.5 2041.78,-98.5001"/>
</g>
<!-- Node22&#45;&gt;Node11 -->
<g id="edge26" class="edge"><title>Node22&#45;&gt;Node11</title>
<path fill="none" stroke="midnightblue" d="M2254.42,-119.113C2280.9,-124.611 2310.03,-130.658 2335.73,-135.994"/>
<polygon fill="midnightblue" stroke="midnightblue" points="2254.91,-115.641 2244.41,-117.035 2253.49,-122.495 2254.91,-115.641"/>
</g>
<!-- Node24 -->
<g id="node24" class="node"><title>Node24</title>
<g id="a_node24"><a xlink:href="../../db/d19/classslogo_1_1_u_i_1_1_module_creation_helper.html#af7f2919454fdbf6e9d7d912e99634857" target="_top" xlink:title="slogo.UI.ModuleCreationHelper.create\lSelectors">
<polygon fill="white" stroke="black" points="1588.5,-230 1588.5,-260 1785.5,-260 1785.5,-230 1588.5,-230"/>
<text text-anchor="start" x="1596.5" y="-248" font-family="Helvetica,sans-Serif" font-size="10.00">slogo.UI.ModuleCreationHelper.create</text>
<text text-anchor="middle" x="1687" y="-237" font-family="Helvetica,sans-Serif" font-size="10.00">Selectors</text>
</a>
</g>
</g>
<!-- Node23&#45;&gt;Node24 -->
<g id="edge28" class="edge"><title>Node23&#45;&gt;Node24</title>
<path fill="none" stroke="midnightblue" d="M1540.76,-261.339C1556.36,-259.585 1572.54,-257.764 1588.21,-256.002"/>
<polygon fill="midnightblue" stroke="midnightblue" points="1540.16,-257.885 1530.62,-262.481 1540.94,-264.841 1540.16,-257.885"/>
</g>
<!-- Node24&#45;&gt;Node10 -->
<g id="edge29" class="edge"><title>Node24&#45;&gt;Node10</title>
<path fill="none" stroke="midnightblue" d="M1795.74,-250.141C1878.55,-254.092 1991.97,-259.505 2072.19,-263.333"/>
<polygon fill="midnightblue" stroke="midnightblue" points="1795.7,-246.635 1785.54,-249.654 1795.36,-253.627 1795.7,-246.635"/>
</g>
<!-- Node25&#45;&gt;Node24 -->
<g id="edge31" class="edge"><title>Node25&#45;&gt;Node24</title>
<path fill="none" stroke="midnightblue" d="M1525.18,-233.609C1545.4,-235.041 1567.37,-236.597 1588.39,-238.086"/>
<polygon fill="midnightblue" stroke="midnightblue" points="1525.32,-230.11 1515.1,-232.894 1524.82,-237.092 1525.32,-230.11"/>
</g>
<!-- Node26&#45;&gt;Node24 -->
<g id="edge33" class="edge"><title>Node26&#45;&gt;Node24</title>
<path fill="none" stroke="midnightblue" d="M1513.48,-195.473C1525.04,-197.752 1536.9,-200.287 1548,-203 1579.38,-210.673 1614.18,-221.278 1640.98,-229.911"/>
<polygon fill="midnightblue" stroke="midnightblue" points="1513.9,-191.99 1503.42,-193.539 1512.58,-198.864 1513.9,-191.99"/>
</g>
<!-- Node28 -->
<g id="node28" class="node"><title>Node28</title>
<g id="a_node28"><a xlink:href="../../db/d19/classslogo_1_1_u_i_1_1_module_creation_helper.html#a9fd730f7c1860d34bf4ac46c3828bd59" target="_top" xlink:title="slogo.UI.ModuleCreationHelper.activate\lStepIntoButton">
<polygon fill="white" stroke="black" points="1342.5,-49 1342.5,-79 1547.5,-79 1547.5,-49 1342.5,-49"/>
<text text-anchor="start" x="1350.5" y="-67" font-family="Helvetica,sans-Serif" font-size="10.00">slogo.UI.ModuleCreationHelper.activate</text>
<text text-anchor="middle" x="1445" y="-56" font-family="Helvetica,sans-Serif" font-size="10.00">StepIntoButton</text>
</a>
</g>
</g>
<!-- Node27&#45;&gt;Node28 -->
<g id="edge35" class="edge"><title>Node27&#45;&gt;Node28</title>
<path fill="none" stroke="midnightblue" d="M1313.33,-64C1322.82,-64 1332.54,-64 1342.17,-64"/>
<polygon fill="midnightblue" stroke="midnightblue" points="1313.14,-60.5001 1303.14,-64 1313.14,-67.5001 1313.14,-60.5001"/>
</g>
<!-- Node29 -->
<g id="node29" class="node"><title>Node29</title>
<g id="a_node29"><a xlink:href="../../db/d19/classslogo_1_1_u_i_1_1_module_creation_helper.html#a4a6f1f009507c25be8c7c28cbba35f3b" target="_top" xlink:title="slogo.UI.ModuleCreationHelper.create\lDebugStepIntoButton">
<polygon fill="white" stroke="black" points="1588.5,-49 1588.5,-79 1785.5,-79 1785.5,-49 1588.5,-49"/>
<text text-anchor="start" x="1596.5" y="-67" font-family="Helvetica,sans-Serif" font-size="10.00">slogo.UI.ModuleCreationHelper.create</text>
<text text-anchor="middle" x="1687" y="-56" font-family="Helvetica,sans-Serif" font-size="10.00">DebugStepIntoButton</text>
</a>
</g>
</g>
<!-- Node28&#45;&gt;Node29 -->
<g id="edge36" class="edge"><title>Node28&#45;&gt;Node29</title>
<path fill="none" stroke="midnightblue" d="M1557.89,-64C1568.04,-64 1578.26,-64 1588.27,-64"/>
<polygon fill="midnightblue" stroke="midnightblue" points="1557.78,-60.5001 1547.78,-64 1557.78,-67.5001 1557.78,-60.5001"/>
</g>
<!-- Node30 -->
<g id="node30" class="node"><title>Node30</title>
<g id="a_node30"><a xlink:href="../../db/d19/classslogo_1_1_u_i_1_1_module_creation_helper.html#a975af4ea47dc85df72215bdf1a0d20ce" target="_top" xlink:title="slogo.UI.ModuleCreationHelper.create\lDebugModules">
<polygon fill="white" stroke="black" points="1830.5,-38 1830.5,-68 2027.5,-68 2027.5,-38 1830.5,-38"/>
<text text-anchor="start" x="1838.5" y="-56" font-family="Helvetica,sans-Serif" font-size="10.00">slogo.UI.ModuleCreationHelper.create</text>
<text text-anchor="middle" x="1929" y="-45" font-family="Helvetica,sans-Serif" font-size="10.00">DebugModules</text>
</a>
</g>
</g>
<!-- Node29&#45;&gt;Node30 -->
<g id="edge37" class="edge"><title>Node29&#45;&gt;Node30</title>
<path fill="none" stroke="midnightblue" d="M1795.73,-59.0622C1807.3,-58.5319 1819.03,-57.9945 1830.47,-57.4702"/>
<polygon fill="midnightblue" stroke="midnightblue" points="1795.45,-55.5716 1785.62,-59.5259 1795.77,-62.5643 1795.45,-55.5716"/>
</g>
<!-- Node30&#45;&gt;Node11 -->
<g id="edge38" class="edge"><title>Node30&#45;&gt;Node11</title>
<path fill="none" stroke="midnightblue" d="M2037.63,-48.679C2106.53,-48.779 2197.11,-54.2973 2274,-77 2317.33,-89.7936 2362.2,-118.228 2387.46,-135.889"/>
<polygon fill="midnightblue" stroke="midnightblue" points="2037.61,-45.1789 2027.62,-48.7021 2037.63,-52.1789 2037.61,-45.1789"/>
</g>
<!-- Node32 -->
<g id="node32" class="node"><title>Node32</title>
<g id="a_node32"><a xlink:href="../../db/d19/classslogo_1_1_u_i_1_1_module_creation_helper.html#a0fed0bb32bf2643d6fd5c24d82e8e18e" target="_top" xlink:title="slogo.UI.ModuleCreationHelper.activate\lStepOverButton">
<polygon fill="white" stroke="black" points="1342.5,-0 1342.5,-30 1547.5,-30 1547.5,-0 1342.5,-0"/>
<text text-anchor="start" x="1350.5" y="-18" font-family="Helvetica,sans-Serif" font-size="10.00">slogo.UI.ModuleCreationHelper.activate</text>
<text text-anchor="middle" x="1445" y="-7" font-family="Helvetica,sans-Serif" font-size="10.00">StepOverButton</text>
</a>
</g>
</g>
<!-- Node31&#45;&gt;Node32 -->
<g id="edge40" class="edge"><title>Node31&#45;&gt;Node32</title>
<path fill="none" stroke="midnightblue" d="M1315.8,-18.5123C1324.56,-18.2724 1333.48,-18.028 1342.33,-17.7856"/>
<polygon fill="midnightblue" stroke="midnightblue" points="1315.51,-15.0187 1305.61,-18.7914 1315.71,-22.0161 1315.51,-15.0187"/>
</g>
<!-- Node33 -->
<g id="node33" class="node"><title>Node33</title>
<g id="a_node33"><a xlink:href="../../db/d19/classslogo_1_1_u_i_1_1_module_creation_helper.html#aa1e7dc2b509360583790fba0d3819c8d" target="_top" xlink:title="slogo.UI.ModuleCreationHelper.create\lDebugStepOverButton">
<polygon fill="white" stroke="black" points="1588.5,-0 1588.5,-30 1785.5,-30 1785.5,-0 1588.5,-0"/>
<text text-anchor="start" x="1596.5" y="-18" font-family="Helvetica,sans-Serif" font-size="10.00">slogo.UI.ModuleCreationHelper.create</text>
<text text-anchor="middle" x="1687" y="-7" font-family="Helvetica,sans-Serif" font-size="10.00">DebugStepOverButton</text>
</a>
</g>
</g>
<!-- Node32&#45;&gt;Node33 -->
<g id="edge41" class="edge"><title>Node32&#45;&gt;Node33</title>
<path fill="none" stroke="midnightblue" d="M1557.89,-15C1568.04,-15 1578.26,-15 1588.27,-15"/>
<polygon fill="midnightblue" stroke="midnightblue" points="1557.78,-11.5001 1547.78,-15 1557.78,-18.5001 1557.78,-11.5001"/>
</g>
<!-- Node33&#45;&gt;Node30 -->
<g id="edge42" class="edge"><title>Node33&#45;&gt;Node30</title>
<path fill="none" stroke="midnightblue" d="M1792.99,-31.6227C1806.31,-33.7329 1819.89,-35.8827 1833.05,-37.966"/>
<polygon fill="midnightblue" stroke="midnightblue" points="1793.28,-28.1256 1782.85,-30.0186 1792.18,-35.0395 1793.28,-28.1256"/>
</g>
</g>
</svg>
