<?xml version="1.0" encoding="UTF-8" standalone="no"?>
<!DOCTYPE svg PUBLIC "-//W3C//DTD SVG 1.1//EN"
 "http://www.w3.org/Graphics/SVG/1.1/DTD/svg11.dtd">
<!-- Generated by graphviz version 2.36.0 (20140111.2315)
 -->
<!-- Title: slogo.UI.ModuleCreationHelper.createHelpButton Pages: 1 -->
<svg width="672pt" height="87pt"
 viewBox="0.00 0.00 672.00 87.00" xmlns="http://www.w3.org/2000/svg" xmlns:xlink="http://www.w3.org/1999/xlink">
<g id="graph0" class="graph" transform="scale(1 1) rotate(0) translate(4 83)">
<title>slogo.UI.ModuleCreationHelper.createHelpButton</title>
<polygon fill="white" stroke="none" points="-4,4 -4,-83 668,-83 668,4 -4,4"/>
<!-- Node1 -->
<g id="node1" class="node"><title>Node1</title>
<polygon fill="#bfbfbf" stroke="black" points="0.5,-24 0.5,-54 197.5,-54 197.5,-24 0.5,-24"/>
<text text-anchor="start" x="8.5" y="-42" font-family="Helvetica,sans-Serif" font-size="10.00">slogo.UI.ModuleCreationHelper.create</text>
<text text-anchor="middle" x="99" y="-31" font-family="Helvetica,sans-Serif" font-size="10.00">HelpButton</text>
</g>
<!-- Node2 -->
<g id="node2" class="node"><title>Node2</title>
<g id="a_node2"><a xlink:href="../../db/d19/classslogo_1_1_u_i_1_1_module_creation_helper.html#a8a48fbaa484299e1c50b000cd3496bca" target="_top" xlink:title="slogo.UI.ModuleCreationHelper.activate\lHelpButton">
<polygon fill="white" stroke="black" points="234.5,-49 234.5,-79 439.5,-79 439.5,-49 234.5,-49"/>
<text text-anchor="start" x="242.5" y="-67" font-family="Helvetica,sans-Serif" font-size="10.00">slogo.UI.ModuleCreationHelper.activate</text>
<text text-anchor="middle" x="337" y="-56" font-family="Helvetica,sans-Serif" font-size="10.00">HelpButton</text>
</a>
</g>
</g>
<!-- Node1&#45;&gt;Node2 -->
<g id="edge1" class="edge"><title>Node1&#45;&gt;Node2</title>
<path fill="none" stroke="midnightblue" d="M197.694,-49.3489C206.446,-50.2761 215.353,-51.2196 224.212,-52.1581"/>
<polygon fill="midnightblue" stroke="midnightblue" points="223.871,-55.6415 234.184,-53.2144 224.609,-48.6804 223.871,-55.6415"/>
</g>
<!-- Node4 -->
<g id="node4" class="node"><title>Node4</title>
<g id="a_node4"><a xlink:href="../../d6/d9d/classslogo_1_1_u_i_1_1_button_creator.html#a26b4ab485f0d82531b0bb7d279cc83eb" target="_top" xlink:title="slogo.UI.ButtonCreator.create\lButton">
<polygon fill="white" stroke="black" points="257.5,-0 257.5,-30 416.5,-30 416.5,-0 257.5,-0"/>
<text text-anchor="start" x="265.5" y="-18" font-family="Helvetica,sans-Serif" font-size="10.00">slogo.UI.ButtonCreator.create</text>
<text text-anchor="middle" x="337" y="-7" font-family="Helvetica,sans-Serif" font-size="10.00">Button</text>
</a>
</g>
</g>
<!-- Node1&#45;&gt;Node4 -->
<g id="edge3" class="edge"><title>Node1&#45;&gt;Node4</title>
<path fill="none" stroke="midnightblue" d="M197.694,-29.065C214.181,-27.3884 231.213,-25.6563 247.45,-24.0051"/>
<polygon fill="midnightblue" stroke="midnightblue" points="247.851,-27.4825 257.446,-22.9886 247.143,-20.5184 247.851,-27.4825"/>
</g>
<!-- Node3 -->
<g id="node3" class="node"><title>Node3</title>
<g id="a_node3"><a xlink:href="../../d8/d0c/classslogo_1_1_u_i_1_1_h_t_m_l_help_page.html#abf6b2ec54b2bed95b33e884c959f53c8" target="_top" xlink:title="slogo.UI.HTMLHelpPage.displayPage">
<polygon fill="white" stroke="black" points="476,-54.5 476,-73.5 664,-73.5 664,-54.5 476,-54.5"/>
<text text-anchor="middle" x="570" y="-61.5" font-family="Helvetica,sans-Serif" font-size="10.00">slogo.UI.HTMLHelpPage.displayPage</text>
</a>
</g>
</g>
<!-- Node2&#45;&gt;Node3 -->
<g id="edge2" class="edge"><title>Node2&#45;&gt;Node3</title>
<path fill="none" stroke="midnightblue" d="M439.656,-64C448.269,-64 456.986,-64 465.613,-64"/>
<polygon fill="midnightblue" stroke="midnightblue" points="465.685,-67.5001 475.685,-64 465.685,-60.5001 465.685,-67.5001"/>
</g>
</g>
</svg>
