<?xml version="1.0" encoding="UTF-8" standalone="no"?>
<!DOCTYPE svg PUBLIC "-//W3C//DTD SVG 1.1//EN"
 "http://www.w3.org/Graphics/SVG/1.1/DTD/svg11.dtd">
<!-- Generated by graphviz version 2.36.0 (20140111.2315)
 -->
<!-- Title: slogo.UI.ModuleCreationHelper.createTurtleImageLoaderButton Pages: 1 -->
<svg width="888pt" height="87pt"
 viewBox="0.00 0.00 888.00 87.00" xmlns="http://www.w3.org/2000/svg" xmlns:xlink="http://www.w3.org/1999/xlink">
<g id="graph0" class="graph" transform="scale(1 1) rotate(0) translate(4 83)">
<title>slogo.UI.ModuleCreationHelper.createTurtleImageLoaderButton</title>
<polygon fill="white" stroke="none" points="-4,4 -4,-83 884,-83 884,4 -4,4"/>
<!-- Node1 -->
<g id="node1" class="node"><title>Node1</title>
<polygon fill="#bfbfbf" stroke="black" points="0.5,-24 0.5,-54 197.5,-54 197.5,-24 0.5,-24"/>
<text text-anchor="start" x="8.5" y="-42" font-family="Helvetica,sans-Serif" font-size="10.00">slogo.UI.ModuleCreationHelper.create</text>
<text text-anchor="middle" x="99" y="-31" font-family="Helvetica,sans-Serif" font-size="10.00">TurtleImageLoaderButton</text>
</g>
<!-- Node2 -->
<g id="node2" class="node"><title>Node2</title>
<g id="a_node2"><a xlink:href="../../db/d19/classslogo_1_1_u_i_1_1_module_creation_helper.html#a1da970a2c0974e2dcdf914a9012e29fb" target="_top" xlink:title="slogo.UI.ModuleCreationHelper.activate\lTurtleImageLoaderButton">
<polygon fill="white" stroke="black" points="234.5,-49 234.5,-79 439.5,-79 439.5,-49 234.5,-49"/>
<text text-anchor="start" x="242.5" y="-67" font-family="Helvetica,sans-Serif" font-size="10.00">slogo.UI.ModuleCreationHelper.activate</text>
<text text-anchor="middle" x="337" y="-56" font-family="Helvetica,sans-Serif" font-size="10.00">TurtleImageLoaderButton</text>
</a>
</g>
</g>
<!-- Node1&#45;&gt;Node2 -->
<g id="edge1" class="edge"><title>Node1&#45;&gt;Node2</title>
<path fill="none" stroke="midnightblue" d="M197.694,-49.3489C206.446,-50.2761 215.353,-51.2196 224.212,-52.1581"/>
<polygon fill="midnightblue" stroke="midnightblue" points="223.871,-55.6415 234.184,-53.2144 224.609,-48.6804 223.871,-55.6415"/>
</g>
<!-- Node5 -->
<g id="node5" class="node"><title>Node5</title>
<g id="a_node5"><a xlink:href="../../d6/d9d/classslogo_1_1_u_i_1_1_button_creator.html#a26b4ab485f0d82531b0bb7d279cc83eb" target="_top" xlink:title="slogo.UI.ButtonCreator.create\lButton">
<polygon fill="white" stroke="black" points="257.5,-0 257.5,-30 416.5,-30 416.5,-0 257.5,-0"/>
<text text-anchor="start" x="265.5" y="-18" font-family="Helvetica,sans-Serif" font-size="10.00">slogo.UI.ButtonCreator.create</text>
<text text-anchor="middle" x="337" y="-7" font-family="Helvetica,sans-Serif" font-size="10.00">Button</text>
</a>
</g>
</g>
<!-- Node1&#45;&gt;Node5 -->
<g id="edge4" class="edge"><title>Node1&#45;&gt;Node5</title>
<path fill="none" stroke="midnightblue" d="M197.694,-29.065C214.181,-27.3884 231.213,-25.6563 247.45,-24.0051"/>
<polygon fill="midnightblue" stroke="midnightblue" points="247.851,-27.4825 257.446,-22.9886 247.143,-20.5184 247.851,-27.4825"/>
</g>
<!-- Node3 -->
<g id="node3" class="node"><title>Node3</title>
<g id="a_node3"><a xlink:href="../../d4/d44/classslogo_1_1_u_i_1_1_image_loader.html#a1f2ccd3e841622268f7ca449352ee0cd" target="_top" xlink:title="slogo.UI.ImageLoader.choose\lNewImage">
<polygon fill="white" stroke="black" points="476,-49 476,-79 634,-79 634,-49 476,-49"/>
<text text-anchor="start" x="484" y="-67" font-family="Helvetica,sans-Serif" font-size="10.00">slogo.UI.ImageLoader.choose</text>
<text text-anchor="middle" x="555" y="-56" font-family="Helvetica,sans-Serif" font-size="10.00">NewImage</text>
</a>
</g>
</g>
<!-- Node2&#45;&gt;Node3 -->
<g id="edge2" class="edge"><title>Node2&#45;&gt;Node3</title>
<path fill="none" stroke="midnightblue" d="M439.675,-64C448.405,-64 457.19,-64 465.801,-64"/>
<polygon fill="midnightblue" stroke="midnightblue" points="465.816,-67.5001 475.816,-64 465.816,-60.5001 465.816,-67.5001"/>
</g>
<!-- Node4 -->
<g id="node4" class="node"><title>Node4</title>
<g id="a_node4"><a xlink:href="../../dd/da7/classslogo_1_1_u_i_1_1_turtle_image_selector.html#a4027c3cc7bec44abaaf0cb28bcb04a7b" target="_top" xlink:title="slogo.UI.TurtleImageSelector.updateMap">
<polygon fill="white" stroke="black" points="670.5,-54.5 670.5,-73.5 879.5,-73.5 879.5,-54.5 670.5,-54.5"/>
<text text-anchor="middle" x="775" y="-61.5" font-family="Helvetica,sans-Serif" font-size="10.00">slogo.UI.TurtleImageSelector.updateMap</text>
</a>
</g>
</g>
<!-- Node3&#45;&gt;Node4 -->
<g id="edge3" class="edge"><title>Node3&#45;&gt;Node4</title>
<path fill="none" stroke="midnightblue" d="M634.087,-64C642.517,-64 651.216,-64 659.958,-64"/>
<polygon fill="midnightblue" stroke="midnightblue" points="660.227,-67.5001 670.227,-64 660.227,-60.5001 660.227,-67.5001"/>
</g>
</g>
</svg>
