<?xml version="1.0" encoding="UTF-8" standalone="no"?>
<!DOCTYPE svg PUBLIC "-//W3C//DTD SVG 1.1//EN"
 "http://www.w3.org/Graphics/SVG/1.1/DTD/svg11.dtd">
<!-- Generated by graphviz version 2.36.0 (20140111.2315)
 -->
<!-- Title: slogo.UI.ModuleCreationHelper.turnOnRunningStatusLabel Pages: 1 -->
<svg width="2194pt" height="339pt"
 viewBox="0.00 0.00 2194.00 339.00" xmlns="http://www.w3.org/2000/svg" xmlns:xlink="http://www.w3.org/1999/xlink">
<g id="graph0" class="graph" transform="scale(1 1) rotate(0) translate(4 335)">
<title>slogo.UI.ModuleCreationHelper.turnOnRunningStatusLabel</title>
<polygon fill="white" stroke="none" points="-4,4 -4,-335 2190,-335 2190,4 -4,4"/>
<!-- Node1 -->
<g id="node1" class="node"><title>Node1</title>
<polygon fill="#bfbfbf" stroke="black" points="0,-142 0,-172 186,-172 186,-142 0,-142"/>
<text text-anchor="start" x="8" y="-160" font-family="Helvetica,sans-Serif" font-size="10.00">slogo.UI.ModuleCreationHelper.turn</text>
<text text-anchor="middle" x="93" y="-149" font-family="Helvetica,sans-Serif" font-size="10.00">OnRunningStatusLabel</text>
</g>
<!-- Node2 -->
<g id="node2" class="node"><title>Node2</title>
<g id="a_node2"><a xlink:href="../../df/d2d/classslogo_1_1_view.html#aee563f6a0b15ac6668e4dcbdad40c73c" target="_top" xlink:title="slogo.View.sendCommandTo\lBackend">
<polygon fill="white" stroke="black" points="222,-142 222,-172 374,-172 374,-142 222,-142"/>
<text text-anchor="start" x="230" y="-160" font-family="Helvetica,sans-Serif" font-size="10.00">slogo.View.sendCommandTo</text>
<text text-anchor="middle" x="298" y="-149" font-family="Helvetica,sans-Serif" font-size="10.00">Backend</text>
</a>
</g>
</g>
<!-- Node1&#45;&gt;Node2 -->
<g id="edge1" class="edge"><title>Node1&#45;&gt;Node2</title>
<path fill="none" stroke="midnightblue" d="M196.393,-157C205.006,-157 213.611,-157 221.959,-157"/>
<polygon fill="midnightblue" stroke="midnightblue" points="196.293,-153.5 186.293,-157 196.293,-160.5 196.293,-153.5"/>
</g>
<!-- Node3 -->
<g id="node3" class="node"><title>Node3</title>
<g id="a_node3"><a xlink:href="../../db/d19/classslogo_1_1_u_i_1_1_module_creation_helper.html#a69e17abcc7cf9a6ed7261d8fb1d631fa" target="_top" xlink:title="slogo.UI.ModuleCreationHelper.activate\lIncreaseDecreaseButtons">
<polygon fill="white" stroke="black" points="410.5,-213 410.5,-243 615.5,-243 615.5,-213 410.5,-213"/>
<text text-anchor="start" x="418.5" y="-231" font-family="Helvetica,sans-Serif" font-size="10.00">slogo.UI.ModuleCreationHelper.activate</text>
<text text-anchor="middle" x="513" y="-220" font-family="Helvetica,sans-Serif" font-size="10.00">IncreaseDecreaseButtons</text>
</a>
</g>
</g>
<!-- Node2&#45;&gt;Node3 -->
<g id="edge2" class="edge"><title>Node2&#45;&gt;Node3</title>
<path fill="none" stroke="midnightblue" d="M340.91,-176.144C361.453,-185.068 386.726,-195.375 410,-203 421.002,-206.605 432.822,-209.959 444.377,-212.966"/>
<polygon fill="midnightblue" stroke="midnightblue" points="342.096,-172.842 331.532,-172.024 339.28,-179.251 342.096,-172.842"/>
</g>
<!-- Node10 -->
<g id="node10" class="node"><title>Node10</title>
<g id="a_node10"><a xlink:href="../../db/d19/classslogo_1_1_u_i_1_1_module_creation_helper.html#aa70b0ad9e90e62509149bfd2ef2ba209" target="_top" xlink:title="slogo.UI.ModuleCreationHelper.activate\lKeyEvents">
<polygon fill="white" stroke="black" points="1128.5,-234 1128.5,-264 1333.5,-264 1333.5,-234 1128.5,-234"/>
<text text-anchor="start" x="1136.5" y="-252" font-family="Helvetica,sans-Serif" font-size="10.00">slogo.UI.ModuleCreationHelper.activate</text>
<text text-anchor="middle" x="1231" y="-241" font-family="Helvetica,sans-Serif" font-size="10.00">KeyEvents</text>
</a>
</g>
</g>
<!-- Node2&#45;&gt;Node10 -->
<g id="edge10" class="edge"><title>Node2&#45;&gt;Node10</title>
<path fill="none" stroke="midnightblue" d="M317.021,-179.913C336.904,-203.157 371.264,-237.687 410,-252 538.697,-299.554 938.455,-273.798 1128.14,-258.167"/>
<polygon fill="midnightblue" stroke="midnightblue" points="319.697,-177.658 310.608,-172.214 314.318,-182.138 319.697,-177.658"/>
</g>
<!-- Node11 -->
<g id="node11" class="node"><title>Node11</title>
<g id="a_node11"><a xlink:href="../../db/d19/classslogo_1_1_u_i_1_1_module_creation_helper.html#a2e841243ec3ca474e8822102343acc88" target="_top" xlink:title="slogo.UI.ModuleCreationHelper.activate\lNewTurtleButton">
<polygon fill="white" stroke="black" points="652.5,-71 652.5,-101 857.5,-101 857.5,-71 652.5,-71"/>
<text text-anchor="start" x="660.5" y="-89" font-family="Helvetica,sans-Serif" font-size="10.00">slogo.UI.ModuleCreationHelper.activate</text>
<text text-anchor="middle" x="755" y="-78" font-family="Helvetica,sans-Serif" font-size="10.00">NewTurtleButton</text>
</a>
</g>
</g>
<!-- Node2&#45;&gt;Node11 -->
<g id="edge12" class="edge"><title>Node2&#45;&gt;Node11</title>
<path fill="none" stroke="midnightblue" d="M321.18,-134.758C342.058,-115.522 375.237,-89.1076 410,-78 500.478,-49.0902 611.266,-59.1779 682.232,-70.973"/>
<polygon fill="midnightblue" stroke="midnightblue" points="318.665,-132.319 313.803,-141.732 323.474,-137.405 318.665,-132.319"/>
</g>
<!-- Node13 -->
<g id="node13" class="node"><title>Node13</title>
<g id="a_node13"><a xlink:href="../../db/d19/classslogo_1_1_u_i_1_1_module_creation_helper.html#a9b1f07ab673191067907a059b1b0c524" target="_top" xlink:title="slogo.UI.ModuleCreationHelper.activate\lPlayButton">
<polygon fill="white" stroke="black" points="410.5,-0 410.5,-30 615.5,-30 615.5,-0 410.5,-0"/>
<text text-anchor="start" x="418.5" y="-18" font-family="Helvetica,sans-Serif" font-size="10.00">slogo.UI.ModuleCreationHelper.activate</text>
<text text-anchor="middle" x="513" y="-7" font-family="Helvetica,sans-Serif" font-size="10.00">PlayButton</text>
</a>
</g>
</g>
<!-- Node2&#45;&gt;Node13 -->
<g id="edge15" class="edge"><title>Node2&#45;&gt;Node13</title>
<path fill="none" stroke="midnightblue" d="M315.965,-133.935C335.799,-108.567 370.925,-68.3149 410,-45 420.224,-38.8996 431.771,-33.9689 443.325,-30.0056"/>
<polygon fill="midnightblue" stroke="midnightblue" points="313.149,-131.856 309.842,-141.922 318.704,-136.116 313.149,-131.856"/>
</g>
<!-- Node16 -->
<g id="node16" class="node"><title>Node16</title>
<g id="a_node16"><a xlink:href="../../db/d19/classslogo_1_1_u_i_1_1_module_creation_helper.html#a3a38d485562cb17591ec3fd07cffc18a" target="_top" xlink:title="slogo.UI.ModuleCreationHelper.activate\lTurtleCanvas">
<polygon fill="white" stroke="black" points="652.5,-301 652.5,-331 857.5,-331 857.5,-301 652.5,-301"/>
<text text-anchor="start" x="660.5" y="-319" font-family="Helvetica,sans-Serif" font-size="10.00">slogo.UI.ModuleCreationHelper.activate</text>
<text text-anchor="middle" x="755" y="-308" font-family="Helvetica,sans-Serif" font-size="10.00">TurtleCanvas</text>
</a>
</g>
</g>
<!-- Node2&#45;&gt;Node16 -->
<g id="edge19" class="edge"><title>Node2&#45;&gt;Node16</title>
<path fill="none" stroke="midnightblue" d="M312.017,-181.404C329.713,-211.824 364.447,-262.653 410,-286 484.69,-324.281 580.568,-329.664 652.123,-326.683"/>
<polygon fill="midnightblue" stroke="midnightblue" points="314.843,-179.291 306.878,-172.305 308.748,-182.733 314.843,-179.291"/>
</g>
<!-- Node18 -->
<g id="node18" class="node"><title>Node18</title>
<g id="a_node18"><a xlink:href="../../d1/d5f/classslogo_1_1_u_i_1_1_path_color_selector.html#ad3d9c82a0904c97edcec7cf67b85bd7b" target="_top" xlink:title="slogo.UI.PathColorSelector.create">
<polygon fill="white" stroke="black" points="425,-87.5 425,-106.5 601,-106.5 601,-87.5 425,-87.5"/>
<text text-anchor="middle" x="513" y="-94.5" font-family="Helvetica,sans-Serif" font-size="10.00">slogo.UI.PathColorSelector.create</text>
</a>
</g>
</g>
<!-- Node2&#45;&gt;Node18 -->
<g id="edge22" class="edge"><title>Node2&#45;&gt;Node18</title>
<path fill="none" stroke="midnightblue" d="M344.41,-138.243C364.289,-130.552 388.045,-122.053 410,-116 423.284,-112.338 437.738,-109.168 451.475,-106.523"/>
<polygon fill="midnightblue" stroke="midnightblue" points="343.018,-135.03 334.987,-141.94 345.574,-141.546 343.018,-135.03"/>
</g>
<!-- Node20 -->
<g id="node20" class="node"><title>Node20</title>
<g id="a_node20"><a xlink:href="../../d4/d8d/classslogo_1_1_u_i_1_1_background_color_selector.html#ad75ba4ce104e071811d0fe039a4e839f" target="_top" xlink:title="slogo.UI.BackgroundColor\lSelector.create">
<polygon fill="white" stroke="black" points="443,-164 443,-194 583,-194 583,-164 443,-164"/>
<text text-anchor="start" x="451" y="-182" font-family="Helvetica,sans-Serif" font-size="10.00">slogo.UI.BackgroundColor</text>
<text text-anchor="middle" x="513" y="-171" font-family="Helvetica,sans-Serif" font-size="10.00">Selector.create</text>
</a>
</g>
</g>
<!-- Node2&#45;&gt;Node20 -->
<g id="edge25" class="edge"><title>Node2&#45;&gt;Node20</title>
<path fill="none" stroke="midnightblue" d="M384.19,-165.799C403.693,-167.813 424.191,-169.931 442.92,-171.865"/>
<polygon fill="midnightblue" stroke="midnightblue" points="384.403,-162.302 374.096,-164.756 383.683,-169.265 384.403,-162.302"/>
</g>
<!-- Node21 -->
<g id="node21" class="node"><title>Node21</title>
<g id="a_node21"><a xlink:href="../../dd/da7/classslogo_1_1_u_i_1_1_turtle_image_selector.html#a3f268d9196ffebcbb5dc322d2897a9fe" target="_top" xlink:title="slogo.UI.TurtleImageSelector.create">
<polygon fill="white" stroke="black" points="420,-125.5 420,-144.5 606,-144.5 606,-125.5 420,-125.5"/>
<text text-anchor="middle" x="513" y="-132.5" font-family="Helvetica,sans-Serif" font-size="10.00">slogo.UI.TurtleImageSelector.create</text>
</a>
</g>
</g>
<!-- Node2&#45;&gt;Node21 -->
<g id="edge27" class="edge"><title>Node2&#45;&gt;Node21</title>
<path fill="none" stroke="midnightblue" d="M384.23,-148.197C395.882,-146.993 407.889,-145.753 419.66,-144.537"/>
<polygon fill="midnightblue" stroke="midnightblue" points="383.683,-144.735 374.096,-149.244 384.403,-151.698 383.683,-144.735"/>
</g>
<!-- Node4 -->
<g id="node4" class="node"><title>Node4</title>
<g id="a_node4"><a xlink:href="../../db/d19/classslogo_1_1_u_i_1_1_module_creation_helper.html#adce7362386f9a7b3006e7db08a2d578d" target="_top" xlink:title="slogo.UI.ModuleCreationHelper.create\lIncreaseDecreaseButtons">
<polygon fill="white" stroke="black" points="894.5,-200 894.5,-230 1091.5,-230 1091.5,-200 894.5,-200"/>
<text text-anchor="start" x="902.5" y="-218" font-family="Helvetica,sans-Serif" font-size="10.00">slogo.UI.ModuleCreationHelper.create</text>
<text text-anchor="middle" x="993" y="-207" font-family="Helvetica,sans-Serif" font-size="10.00">IncreaseDecreaseButtons</text>
</a>
</g>
</g>
<!-- Node3&#45;&gt;Node4 -->
<g id="edge3" class="edge"><title>Node3&#45;&gt;Node4</title>
<path fill="none" stroke="midnightblue" d="M625.944,-224.956C707.282,-222.743 816.3,-219.778 894.164,-217.661"/>
<polygon fill="midnightblue" stroke="midnightblue" points="625.565,-221.464 615.664,-225.235 625.755,-228.462 625.565,-221.464"/>
</g>
<!-- Node5 -->
<g id="node5" class="node"><title>Node5</title>
<g id="a_node5"><a xlink:href="../../db/d19/classslogo_1_1_u_i_1_1_module_creation_helper.html#a7c650957b2389d6e6d36e8be8a33cd2b" target="_top" xlink:title="slogo.UI.ModuleCreationHelper.create\lSelectorVBoxModules">
<polygon fill="white" stroke="black" points="1132.5,-156 1132.5,-186 1329.5,-186 1329.5,-156 1132.5,-156"/>
<text text-anchor="start" x="1140.5" y="-174" font-family="Helvetica,sans-Serif" font-size="10.00">slogo.UI.ModuleCreationHelper.create</text>
<text text-anchor="middle" x="1231" y="-163" font-family="Helvetica,sans-Serif" font-size="10.00">SelectorVBoxModules</text>
</a>
</g>
</g>
<!-- Node4&#45;&gt;Node5 -->
<g id="edge4" class="edge"><title>Node4&#45;&gt;Node5</title>
<path fill="none" stroke="midnightblue" d="M1084.59,-198.11C1105.93,-194.132 1128.54,-189.917 1149.4,-186.026"/>
<polygon fill="midnightblue" stroke="midnightblue" points="1083.75,-194.707 1074.56,-199.981 1085.03,-201.589 1083.75,-194.707"/>
</g>
<!-- Node6 -->
<g id="node6" class="node"><title>Node6</title>
<g id="a_node6"><a xlink:href="../../db/d19/classslogo_1_1_u_i_1_1_module_creation_helper.html#afb9dbbbad7d872234a5b296fe129a34e" target="_top" xlink:title="slogo.UI.ModuleCreationHelper.create\lMainPageModules">
<polygon fill="white" stroke="black" points="1370.5,-231 1370.5,-261 1567.5,-261 1567.5,-231 1370.5,-231"/>
<text text-anchor="start" x="1378.5" y="-249" font-family="Helvetica,sans-Serif" font-size="10.00">slogo.UI.ModuleCreationHelper.create</text>
<text text-anchor="middle" x="1469" y="-238" font-family="Helvetica,sans-Serif" font-size="10.00">MainPageModules</text>
</a>
</g>
</g>
<!-- Node5&#45;&gt;Node6 -->
<g id="edge5" class="edge"><title>Node5&#45;&gt;Node6</title>
<path fill="none" stroke="midnightblue" d="M1289.15,-189.163C1329.42,-201.959 1382.7,-218.891 1420.6,-230.937"/>
<polygon fill="midnightblue" stroke="midnightblue" points="1290.06,-185.78 1279.47,-186.087 1287.94,-192.452 1290.06,-185.78"/>
</g>
<!-- Node7 -->
<g id="node7" class="node"><title>Node7</title>
<g id="a_node7"><a xlink:href="../../d9/d33/classslogo_1_1_u_i_1_1_main.html#a15b7f2e399ee24d160550993ab737e73" target="_top" xlink:title="slogo.UI.Main.start">
<polygon fill="white" stroke="black" points="1604,-228.5 1604,-247.5 1710,-247.5 1710,-228.5 1604,-228.5"/>
<text text-anchor="middle" x="1657" y="-235.5" font-family="Helvetica,sans-Serif" font-size="10.00">slogo.UI.Main.start</text>
</a>
</g>
</g>
<!-- Node6&#45;&gt;Node7 -->
<g id="edge6" class="edge"><title>Node6&#45;&gt;Node7</title>
<path fill="none" stroke="midnightblue" d="M1577.8,-241.363C1586.76,-240.978 1595.53,-240.601 1603.76,-240.247"/>
<polygon fill="midnightblue" stroke="midnightblue" points="1577.47,-237.874 1567.63,-241.801 1577.77,-244.868 1577.47,-237.874"/>
</g>
<!-- Node8 -->
<g id="node8" class="node"><title>Node8</title>
<g id="a_node8"><a xlink:href="../../db/d19/classslogo_1_1_u_i_1_1_module_creation_helper.html#a3be12a7cc2b8a219db1e296211a2cb88" target="_top" xlink:title="slogo.UI.ModuleCreationHelper.activate\lExtraWorkspaceButton">
<polygon fill="white" stroke="black" points="1746.5,-219 1746.5,-249 1951.5,-249 1951.5,-219 1746.5,-219"/>
<text text-anchor="start" x="1754.5" y="-237" font-family="Helvetica,sans-Serif" font-size="10.00">slogo.UI.ModuleCreationHelper.activate</text>
<text text-anchor="middle" x="1849" y="-226" font-family="Helvetica,sans-Serif" font-size="10.00">ExtraWorkspaceButton</text>
</a>
</g>
</g>
<!-- Node7&#45;&gt;Node8 -->
<g id="edge7" class="edge"><title>Node7&#45;&gt;Node8</title>
<path fill="none" stroke="midnightblue" d="M1720.22,-236.69C1728.63,-236.513 1737.44,-236.328 1746.32,-236.141"/>
<polygon fill="midnightblue" stroke="midnightblue" points="1720.09,-233.192 1710.17,-236.902 1720.24,-240.19 1720.09,-233.192"/>
</g>
<!-- Node9 -->
<g id="node9" class="node"><title>Node9</title>
<g id="a_node9"><a xlink:href="../../db/d19/classslogo_1_1_u_i_1_1_module_creation_helper.html#a702c1ebe24d2857a10c666eb1fcc315d" target="_top" xlink:title="slogo.UI.ModuleCreationHelper.create\lExtraWorkspaceButton">
<polygon fill="white" stroke="black" points="1988.5,-196 1988.5,-226 2185.5,-226 2185.5,-196 1988.5,-196"/>
<text text-anchor="start" x="1996.5" y="-214" font-family="Helvetica,sans-Serif" font-size="10.00">slogo.UI.ModuleCreationHelper.create</text>
<text text-anchor="middle" x="2087" y="-203" font-family="Helvetica,sans-Serif" font-size="10.00">ExtraWorkspaceButton</text>
</a>
</g>
</g>
<!-- Node8&#45;&gt;Node9 -->
<g id="edge8" class="edge"><title>Node8&#45;&gt;Node9</title>
<path fill="none" stroke="midnightblue" d="M1961.77,-223.108C1970.62,-222.245 1979.52,-221.377 1988.27,-220.524"/>
<polygon fill="midnightblue" stroke="midnightblue" points="1961.41,-219.625 1951.8,-224.079 1962.09,-226.592 1961.41,-219.625"/>
</g>
<!-- Node9&#45;&gt;Node5 -->
<g id="edge9" class="edge"><title>Node9&#45;&gt;Node5</title>
<path fill="none" stroke="midnightblue" d="M1978.34,-205.958C1810.9,-198.115 1490.6,-183.112 1329.55,-175.569"/>
<polygon fill="midnightblue" stroke="midnightblue" points="1978.26,-209.457 1988.41,-206.429 1978.59,-202.465 1978.26,-209.457"/>
</g>
<!-- Node10&#45;&gt;Node6 -->
<g id="edge11" class="edge"><title>Node10&#45;&gt;Node6</title>
<path fill="none" stroke="midnightblue" d="M1344.05,-247.576C1352.81,-247.464 1361.62,-247.352 1370.27,-247.242"/>
<polygon fill="midnightblue" stroke="midnightblue" points="1343.75,-244.079 1333.8,-247.706 1343.84,-251.078 1343.75,-244.079"/>
</g>
<!-- Node12 -->
<g id="node12" class="node"><title>Node12</title>
<g id="a_node12"><a xlink:href="../../db/d19/classslogo_1_1_u_i_1_1_module_creation_helper.html#a07f5483df317cdf80e8ea2dda5699afa" target="_top" xlink:title="slogo.UI.ModuleCreationHelper.create\lNewTurtleButton">
<polygon fill="white" stroke="black" points="894.5,-93 894.5,-123 1091.5,-123 1091.5,-93 894.5,-93"/>
<text text-anchor="start" x="902.5" y="-111" font-family="Helvetica,sans-Serif" font-size="10.00">slogo.UI.ModuleCreationHelper.create</text>
<text text-anchor="middle" x="993" y="-100" font-family="Helvetica,sans-Serif" font-size="10.00">NewTurtleButton</text>
</a>
</g>
</g>
<!-- Node11&#45;&gt;Node12 -->
<g id="edge13" class="edge"><title>Node11&#45;&gt;Node12</title>
<path fill="none" stroke="midnightblue" d="M867.765,-96.4188C876.621,-97.2444 885.524,-98.0743 894.274,-98.8899"/>
<polygon fill="midnightblue" stroke="midnightblue" points="868.079,-92.933 857.798,-95.4896 867.43,-99.9028 868.079,-92.933"/>
</g>
<!-- Node12&#45;&gt;Node5 -->
<g id="edge14" class="edge"><title>Node12&#45;&gt;Node5</title>
<path fill="none" stroke="midnightblue" d="M1060.1,-125.645C1095.9,-135.201 1139.65,-146.882 1173.79,-155.996"/>
<polygon fill="midnightblue" stroke="midnightblue" points="1060.79,-122.208 1050.23,-123.01 1058.99,-128.971 1060.79,-122.208"/>
</g>
<!-- Node14 -->
<g id="node14" class="node"><title>Node14</title>
<g id="a_node14"><a xlink:href="../../db/d19/classslogo_1_1_u_i_1_1_module_creation_helper.html#a9b3fb38a55b3b7812b4f793afa7a974f" target="_top" xlink:title="slogo.UI.ModuleCreationHelper.create\lPlayButton">
<polygon fill="white" stroke="black" points="656.5,-10 656.5,-40 853.5,-40 853.5,-10 656.5,-10"/>
<text text-anchor="start" x="664.5" y="-28" font-family="Helvetica,sans-Serif" font-size="10.00">slogo.UI.ModuleCreationHelper.create</text>
<text text-anchor="middle" x="755" y="-17" font-family="Helvetica,sans-Serif" font-size="10.00">PlayButton</text>
</a>
</g>
</g>
<!-- Node13&#45;&gt;Node14 -->
<g id="edge16" class="edge"><title>Node13&#45;&gt;Node14</title>
<path fill="none" stroke="midnightblue" d="M625.89,-19.6621C636.035,-20.0848 646.258,-20.5107 656.267,-20.9278"/>
<polygon fill="midnightblue" stroke="midnightblue" points="625.919,-16.1603 615.782,-19.2409 625.627,-23.1543 625.919,-16.1603"/>
</g>
<!-- Node15 -->
<g id="node15" class="node"><title>Node15</title>
<g id="a_node15"><a xlink:href="../../db/d19/classslogo_1_1_u_i_1_1_module_creation_helper.html#ae1e60d37509c2e5eddcb2a6e70b4f650" target="_top" xlink:title="slogo.UI.ModuleCreationHelper.create\lFirstRowButtons">
<polygon fill="white" stroke="black" points="894.5,-20 894.5,-50 1091.5,-50 1091.5,-20 894.5,-20"/>
<text text-anchor="start" x="902.5" y="-38" font-family="Helvetica,sans-Serif" font-size="10.00">slogo.UI.ModuleCreationHelper.create</text>
<text text-anchor="middle" x="993" y="-27" font-family="Helvetica,sans-Serif" font-size="10.00">FirstRowButtons</text>
</a>
</g>
</g>
<!-- Node14&#45;&gt;Node15 -->
<g id="edge17" class="edge"><title>Node14&#45;&gt;Node15</title>
<path fill="none" stroke="midnightblue" d="M863.832,-29.5691C874.015,-30.0006 884.299,-30.4364 894.379,-30.8635"/>
<polygon fill="midnightblue" stroke="midnightblue" points="863.833,-26.0661 853.694,-29.1396 863.537,-33.0599 863.833,-26.0661"/>
</g>
<!-- Node15&#45;&gt;Node5 -->
<g id="edge18" class="edge"><title>Node15&#45;&gt;Node5</title>
<path fill="none" stroke="midnightblue" d="M1036.5,-54.536C1053.93,-62.8757 1074.16,-72.9837 1092,-83 1134.12,-106.647 1181.16,-137.694 1208,-155.885"/>
<polygon fill="midnightblue" stroke="midnightblue" points="1037.68,-51.2195 1027.14,-50.0966 1034.68,-57.5442 1037.68,-51.2195"/>
</g>
<!-- Node17 -->
<g id="node17" class="node"><title>Node17</title>
<g id="a_node17"><a xlink:href="../../db/d19/classslogo_1_1_u_i_1_1_module_creation_helper.html#a803bac6b55bde712b21f2face1eeef81" target="_top" xlink:title="slogo.UI.ModuleCreationHelper.create\lTurtleCanvas">
<polygon fill="white" stroke="black" points="894.5,-301 894.5,-331 1091.5,-331 1091.5,-301 894.5,-301"/>
<text text-anchor="start" x="902.5" y="-319" font-family="Helvetica,sans-Serif" font-size="10.00">slogo.UI.ModuleCreationHelper.create</text>
<text text-anchor="middle" x="993" y="-308" font-family="Helvetica,sans-Serif" font-size="10.00">TurtleCanvas</text>
</a>
</g>
</g>
<!-- Node16&#45;&gt;Node17 -->
<g id="edge20" class="edge"><title>Node16&#45;&gt;Node17</title>
<path fill="none" stroke="midnightblue" d="M868.051,-316C876.813,-316 885.618,-316 894.274,-316"/>
<polygon fill="midnightblue" stroke="midnightblue" points="867.798,-312.5 857.798,-316 867.798,-319.5 867.798,-312.5"/>
</g>
<!-- Node17&#45;&gt;Node6 -->
<g id="edge21" class="edge"><title>Node17&#45;&gt;Node6</title>
<path fill="none" stroke="midnightblue" d="M1101.88,-304.395C1168.87,-296.684 1256.65,-285.667 1334,-273 1354.96,-269.568 1377.64,-265.235 1398.28,-261.051"/>
<polygon fill="midnightblue" stroke="midnightblue" points="1101.27,-300.942 1091.73,-305.556 1102.07,-307.896 1101.27,-300.942"/>
</g>
<!-- Node19 -->
<g id="node19" class="node"><title>Node19</title>
<g id="a_node19"><a xlink:href="../../db/d19/classslogo_1_1_u_i_1_1_module_creation_helper.html#af7f2919454fdbf6e9d7d912e99634857" target="_top" xlink:title="slogo.UI.ModuleCreationHelper.create\lSelectors">
<polygon fill="white" stroke="black" points="656.5,-142 656.5,-172 853.5,-172 853.5,-142 656.5,-142"/>
<text text-anchor="start" x="664.5" y="-160" font-family="Helvetica,sans-Serif" font-size="10.00">slogo.UI.ModuleCreationHelper.create</text>
<text text-anchor="middle" x="755" y="-149" font-family="Helvetica,sans-Serif" font-size="10.00">Selectors</text>
</a>
</g>
</g>
<!-- Node18&#45;&gt;Node19 -->
<g id="edge23" class="edge"><title>Node18&#45;&gt;Node19</title>
<path fill="none" stroke="midnightblue" d="M581.043,-108.453C592.741,-110.746 604.758,-113.291 616,-116 646.858,-123.436 681.062,-133.585 707.698,-141.925"/>
<polygon fill="midnightblue" stroke="midnightblue" points="581.353,-104.948 570.873,-106.505 580.036,-111.823 581.353,-104.948"/>
</g>
<!-- Node19&#45;&gt;Node5 -->
<g id="edge24" class="edge"><title>Node19&#45;&gt;Node5</title>
<path fill="none" stroke="midnightblue" d="M863.844,-160.185C944.649,-162.572 1054.29,-165.81 1132.49,-168.12"/>
<polygon fill="midnightblue" stroke="midnightblue" points="863.737,-156.681 853.638,-159.884 863.531,-163.678 863.737,-156.681"/>
</g>
<!-- Node20&#45;&gt;Node19 -->
<g id="edge26" class="edge"><title>Node20&#45;&gt;Node19</title>
<path fill="none" stroke="midnightblue" d="M593.179,-171.742C613.396,-169.889 635.368,-167.875 656.389,-165.948"/>
<polygon fill="midnightblue" stroke="midnightblue" points="592.735,-168.268 583.096,-172.666 593.374,-175.239 592.735,-168.268"/>
</g>
<!-- Node21&#45;&gt;Node19 -->
<g id="edge28" class="edge"><title>Node21&#45;&gt;Node19</title>
<path fill="none" stroke="midnightblue" d="M616.172,-144.366C629.429,-145.581 642.983,-146.823 656.166,-148.032"/>
<polygon fill="midnightblue" stroke="midnightblue" points="616.382,-140.87 606.104,-143.443 615.743,-147.841 616.382,-140.87"/>
</g>
</g>
</svg>
