<?xml version="1.0" encoding="UTF-8" standalone="no"?>
<!DOCTYPE svg PUBLIC "-//W3C//DTD SVG 1.1//EN"
 "http://www.w3.org/Graphics/SVG/1.1/DTD/svg11.dtd">
<!-- Generated by graphviz version 2.36.0 (20140111.2315)
 -->
<!-- Title: slogo.UI.ModuleCreationHelper.clearCertainList Pages: 1 -->
<svg width="580pt" height="38pt"
 viewBox="0.00 0.00 580.00 38.00" xmlns="http://www.w3.org/2000/svg" xmlns:xlink="http://www.w3.org/1999/xlink">
<g id="graph0" class="graph" transform="scale(1 1) rotate(0) translate(4 34)">
<title>slogo.UI.ModuleCreationHelper.clearCertainList</title>
<polygon fill="white" stroke="none" points="-4,4 -4,-34 576,-34 576,4 -4,4"/>
<!-- Node1 -->
<g id="node1" class="node"><title>Node1</title>
<polygon fill="#bfbfbf" stroke="black" points="0,-0 0,-30 190,-30 190,-0 0,-0"/>
<text text-anchor="start" x="8" y="-18" font-family="Helvetica,sans-Serif" font-size="10.00">slogo.UI.ModuleCreationHelper.clear</text>
<text text-anchor="middle" x="95" y="-7" font-family="Helvetica,sans-Serif" font-size="10.00">CertainList</text>
</g>
<!-- Node2 -->
<g id="node2" class="node"><title>Node2</title>
<g id="a_node2"><a xlink:href="../../db/dc0/classslogo_1_1_u_i_1_1_list_view_all_s_l_o_g_o.html#a5f743353bce4830934bcf532b97e7925" target="_top" xlink:title="slogo.UI.ListViewAllSLOGO.set\lItems">
<polygon fill="white" stroke="black" points="226.5,-0 226.5,-30 385.5,-30 385.5,-0 226.5,-0"/>
<text text-anchor="start" x="234.5" y="-18" font-family="Helvetica,sans-Serif" font-size="10.00">slogo.UI.ListViewAllSLOGO.set</text>
<text text-anchor="middle" x="306" y="-7" font-family="Helvetica,sans-Serif" font-size="10.00">Items</text>
</a>
</g>
</g>
<!-- Node1&#45;&gt;Node2 -->
<g id="edge1" class="edge"><title>Node1&#45;&gt;Node2</title>
<path fill="none" stroke="midnightblue" d="M190.106,-15C198.828,-15 207.648,-15 216.318,-15"/>
<polygon fill="midnightblue" stroke="midnightblue" points="216.414,-18.5001 226.414,-15 216.414,-11.5001 216.414,-18.5001"/>
</g>
<!-- Node3 -->
<g id="node3" class="node"><title>Node3</title>
<g id="a_node3"><a xlink:href="../../da/d8f/classslogo_1_1_u_i_1_1_list_view_creator.html#a081368f4f2cd74f99d9d251625ae4871" target="_top" xlink:title="slogo.UI.ListViewCreator.get\lListView">
<polygon fill="white" stroke="black" points="422,-0 422,-30 572,-30 572,-0 422,-0"/>
<text text-anchor="start" x="430" y="-18" font-family="Helvetica,sans-Serif" font-size="10.00">slogo.UI.ListViewCreator.get</text>
<text text-anchor="middle" x="497" y="-7" font-family="Helvetica,sans-Serif" font-size="10.00">ListView</text>
</a>
</g>
</g>
<!-- Node2&#45;&gt;Node3 -->
<g id="edge2" class="edge"><title>Node2&#45;&gt;Node3</title>
<path fill="none" stroke="midnightblue" d="M385.511,-15C394.186,-15 403.046,-15 411.787,-15"/>
<polygon fill="midnightblue" stroke="midnightblue" points="411.975,-18.5001 421.975,-15 411.975,-11.5001 411.975,-18.5001"/>
</g>
</g>
</svg>
