<?xml version="1.0" encoding="UTF-8" standalone="no"?>
<!DOCTYPE svg PUBLIC "-//W3C//DTD SVG 1.1//EN"
 "http://www.w3.org/Graphics/SVG/1.1/DTD/svg11.dtd">
<!-- Generated by graphviz version 2.36.0 (20140111.2315)
 -->
<!-- Title: slogo.UI.ModuleCreationHelper.setCommandsHistoryCounter Pages: 1 -->
<svg width="2166pt" height="60pt"
 viewBox="0.00 0.00 2166.00 60.00" xmlns="http://www.w3.org/2000/svg" xmlns:xlink="http://www.w3.org/1999/xlink">
<g id="graph0" class="graph" transform="scale(1 1) rotate(0) translate(4 56)">
<title>slogo.UI.ModuleCreationHelper.setCommandsHistoryCounter</title>
<polygon fill="white" stroke="none" points="-4,4 -4,-56 2162,-56 2162,4 -4,4"/>
<!-- Node1 -->
<g id="node1" class="node"><title>Node1</title>
<polygon fill="#bfbfbf" stroke="black" points="0,-0 0,-30 182,-30 182,-0 0,-0"/>
<text text-anchor="start" x="8" y="-18" font-family="Helvetica,sans-Serif" font-size="10.00">slogo.UI.ModuleCreationHelper.set</text>
<text text-anchor="middle" x="91" y="-7" font-family="Helvetica,sans-Serif" font-size="10.00">CommandsHistoryCounter</text>
</g>
<!-- Node2 -->
<g id="node2" class="node"><title>Node2</title>
<g id="a_node2"><a xlink:href="../../df/d2d/classslogo_1_1_view.html#a5a508e4d68f5887c79e5456d6f3a3ab4" target="_top" xlink:title="slogo.View.resetAnimation">
<polygon fill="white" stroke="black" points="218.5,-5.5 218.5,-24.5 361.5,-24.5 361.5,-5.5 218.5,-5.5"/>
<text text-anchor="middle" x="290" y="-12.5" font-family="Helvetica,sans-Serif" font-size="10.00">slogo.View.resetAnimation</text>
</a>
</g>
</g>
<!-- Node1&#45;&gt;Node2 -->
<g id="edge1" class="edge"><title>Node1&#45;&gt;Node2</title>
<path fill="none" stroke="midnightblue" d="M192.422,-15C201.187,-15 209.932,-15 218.378,-15"/>
<polygon fill="midnightblue" stroke="midnightblue" points="192.14,-11.5001 182.14,-15 192.14,-18.5001 192.14,-11.5001"/>
</g>
<!-- Node3 -->
<g id="node3" class="node"><title>Node3</title>
<g id="a_node3"><a xlink:href="../../db/d19/classslogo_1_1_u_i_1_1_module_creation_helper.html#ad548894429a51de52d1538db6d821539" target="_top" xlink:title="slogo.UI.ModuleCreationHelper.activate\lResetButton">
<polygon fill="white" stroke="black" points="398.5,-0 398.5,-30 603.5,-30 603.5,-0 398.5,-0"/>
<text text-anchor="start" x="406.5" y="-18" font-family="Helvetica,sans-Serif" font-size="10.00">slogo.UI.ModuleCreationHelper.activate</text>
<text text-anchor="middle" x="501" y="-7" font-family="Helvetica,sans-Serif" font-size="10.00">ResetButton</text>
</a>
</g>
</g>
<!-- Node2&#45;&gt;Node3 -->
<g id="edge2" class="edge"><title>Node2&#45;&gt;Node3</title>
<path fill="none" stroke="midnightblue" d="M371.785,-15C380.43,-15 389.302,-15 398.15,-15"/>
<polygon fill="midnightblue" stroke="midnightblue" points="371.758,-11.5001 361.758,-15 371.758,-18.5001 371.758,-11.5001"/>
</g>
<!-- Node4 -->
<g id="node4" class="node"><title>Node4</title>
<g id="a_node4"><a xlink:href="../../db/d19/classslogo_1_1_u_i_1_1_module_creation_helper.html#aa76f49f1feda966f0a2b6314418bf931" target="_top" xlink:title="slogo.UI.ModuleCreationHelper.create\lResetButton">
<polygon fill="white" stroke="black" points="640.5,-0 640.5,-30 837.5,-30 837.5,-0 640.5,-0"/>
<text text-anchor="start" x="648.5" y="-18" font-family="Helvetica,sans-Serif" font-size="10.00">slogo.UI.ModuleCreationHelper.create</text>
<text text-anchor="middle" x="739" y="-7" font-family="Helvetica,sans-Serif" font-size="10.00">ResetButton</text>
</a>
</g>
</g>
<!-- Node3&#45;&gt;Node4 -->
<g id="edge3" class="edge"><title>Node3&#45;&gt;Node4</title>
<path fill="none" stroke="midnightblue" d="M614.051,-15C622.813,-15 631.618,-15 640.274,-15"/>
<polygon fill="midnightblue" stroke="midnightblue" points="613.798,-11.5001 603.798,-15 613.798,-18.5001 613.798,-11.5001"/>
</g>
<!-- Node5 -->
<g id="node5" class="node"><title>Node5</title>
<g id="a_node5"><a xlink:href="../../db/d19/classslogo_1_1_u_i_1_1_module_creation_helper.html#ae1e0ce18826b0895f1c3d4786b3776b7" target="_top" xlink:title="slogo.UI.ModuleCreationHelper.create\lSecondRowButtons">
<polygon fill="white" stroke="black" points="874.5,-0 874.5,-30 1071.5,-30 1071.5,-0 874.5,-0"/>
<text text-anchor="start" x="882.5" y="-18" font-family="Helvetica,sans-Serif" font-size="10.00">slogo.UI.ModuleCreationHelper.create</text>
<text text-anchor="middle" x="973" y="-7" font-family="Helvetica,sans-Serif" font-size="10.00">SecondRowButtons</text>
</a>
</g>
</g>
<!-- Node4&#45;&gt;Node5 -->
<g id="edge4" class="edge"><title>Node4&#45;&gt;Node5</title>
<path fill="none" stroke="midnightblue" d="M847.722,-15C856.618,-15 865.58,-15 874.396,-15"/>
<polygon fill="midnightblue" stroke="midnightblue" points="847.717,-11.5001 837.716,-15 847.716,-18.5001 847.717,-11.5001"/>
</g>
<!-- Node6 -->
<g id="node6" class="node"><title>Node6</title>
<g id="a_node6"><a xlink:href="../../db/d19/classslogo_1_1_u_i_1_1_module_creation_helper.html#a7c650957b2389d6e6d36e8be8a33cd2b" target="_top" xlink:title="slogo.UI.ModuleCreationHelper.create\lSelectorVBoxModules">
<polygon fill="white" stroke="black" points="1108.5,-0 1108.5,-30 1305.5,-30 1305.5,-0 1108.5,-0"/>
<text text-anchor="start" x="1116.5" y="-18" font-family="Helvetica,sans-Serif" font-size="10.00">slogo.UI.ModuleCreationHelper.create</text>
<text text-anchor="middle" x="1207" y="-7" font-family="Helvetica,sans-Serif" font-size="10.00">SelectorVBoxModules</text>
</a>
</g>
</g>
<!-- Node5&#45;&gt;Node6 -->
<g id="edge5" class="edge"><title>Node5&#45;&gt;Node6</title>
<path fill="none" stroke="midnightblue" d="M1081.72,-15C1090.62,-15 1099.58,-15 1108.4,-15"/>
<polygon fill="midnightblue" stroke="midnightblue" points="1081.72,-11.5001 1071.72,-15 1081.72,-18.5001 1081.72,-11.5001"/>
</g>
<!-- Node7 -->
<g id="node7" class="node"><title>Node7</title>
<g id="a_node7"><a xlink:href="../../db/d19/classslogo_1_1_u_i_1_1_module_creation_helper.html#afb9dbbbad7d872234a5b296fe129a34e" target="_top" xlink:title="slogo.UI.ModuleCreationHelper.create\lMainPageModules">
<polygon fill="white" stroke="black" points="1342.5,-22 1342.5,-52 1539.5,-52 1539.5,-22 1342.5,-22"/>
<text text-anchor="start" x="1350.5" y="-40" font-family="Helvetica,sans-Serif" font-size="10.00">slogo.UI.ModuleCreationHelper.create</text>
<text text-anchor="middle" x="1441" y="-29" font-family="Helvetica,sans-Serif" font-size="10.00">MainPageModules</text>
</a>
</g>
</g>
<!-- Node6&#45;&gt;Node7 -->
<g id="edge6" class="edge"><title>Node6&#45;&gt;Node7</title>
<path fill="none" stroke="midnightblue" d="M1315.72,-25.215C1324.62,-26.0586 1333.58,-26.9085 1342.4,-27.7445"/>
<polygon fill="midnightblue" stroke="midnightblue" points="1316,-21.726 1305.72,-24.2662 1315.34,-28.6947 1316,-21.726"/>
</g>
<!-- Node8 -->
<g id="node8" class="node"><title>Node8</title>
<g id="a_node8"><a xlink:href="../../d9/d33/classslogo_1_1_u_i_1_1_main.html#a15b7f2e399ee24d160550993ab737e73" target="_top" xlink:title="slogo.UI.Main.start">
<polygon fill="white" stroke="black" points="1576,-27.5 1576,-46.5 1682,-46.5 1682,-27.5 1576,-27.5"/>
<text text-anchor="middle" x="1629" y="-34.5" font-family="Helvetica,sans-Serif" font-size="10.00">slogo.UI.Main.start</text>
</a>
</g>
</g>
<!-- Node7&#45;&gt;Node8 -->
<g id="edge7" class="edge"><title>Node7&#45;&gt;Node8</title>
<path fill="none" stroke="midnightblue" d="M1549.8,-37C1558.76,-37 1567.53,-37 1575.76,-37"/>
<polygon fill="midnightblue" stroke="midnightblue" points="1549.63,-33.5001 1539.63,-37 1549.63,-40.5001 1549.63,-33.5001"/>
</g>
<!-- Node9 -->
<g id="node9" class="node"><title>Node9</title>
<g id="a_node9"><a xlink:href="../../db/d19/classslogo_1_1_u_i_1_1_module_creation_helper.html#a3be12a7cc2b8a219db1e296211a2cb88" target="_top" xlink:title="slogo.UI.ModuleCreationHelper.activate\lExtraWorkspaceButton">
<polygon fill="white" stroke="black" points="1718.5,-22 1718.5,-52 1923.5,-52 1923.5,-22 1718.5,-22"/>
<text text-anchor="start" x="1726.5" y="-40" font-family="Helvetica,sans-Serif" font-size="10.00">slogo.UI.ModuleCreationHelper.activate</text>
<text text-anchor="middle" x="1821" y="-29" font-family="Helvetica,sans-Serif" font-size="10.00">ExtraWorkspaceButton</text>
</a>
</g>
</g>
<!-- Node8&#45;&gt;Node9 -->
<g id="edge8" class="edge"><title>Node8&#45;&gt;Node9</title>
<path fill="none" stroke="midnightblue" d="M1692.22,-37C1700.63,-37 1709.44,-37 1718.32,-37"/>
<polygon fill="midnightblue" stroke="midnightblue" points="1692.17,-33.5001 1682.17,-37 1692.17,-40.5001 1692.17,-33.5001"/>
</g>
<!-- Node10 -->
<g id="node10" class="node"><title>Node10</title>
<g id="a_node10"><a xlink:href="../../db/d19/classslogo_1_1_u_i_1_1_module_creation_helper.html#a702c1ebe24d2857a10c666eb1fcc315d" target="_top" xlink:title="slogo.UI.ModuleCreationHelper.create\lExtraWorkspaceButton">
<polygon fill="white" stroke="black" points="1960.5,-0 1960.5,-30 2157.5,-30 2157.5,-0 1960.5,-0"/>
<text text-anchor="start" x="1968.5" y="-18" font-family="Helvetica,sans-Serif" font-size="10.00">slogo.UI.ModuleCreationHelper.create</text>
<text text-anchor="middle" x="2059" y="-7" font-family="Helvetica,sans-Serif" font-size="10.00">ExtraWorkspaceButton</text>
</a>
</g>
</g>
<!-- Node9&#45;&gt;Node10 -->
<g id="edge9" class="edge"><title>Node9&#45;&gt;Node10</title>
<path fill="none" stroke="midnightblue" d="M1933.77,-26.5812C1942.62,-25.7556 1951.52,-24.9257 1960.27,-24.1101"/>
<polygon fill="midnightblue" stroke="midnightblue" points="1933.43,-23.0972 1923.8,-27.5104 1934.08,-30.067 1933.43,-23.0972"/>
</g>
<!-- Node10&#45;&gt;Node6 -->
<g id="edge10" class="edge"><title>Node10&#45;&gt;Node6</title>
<path fill="none" stroke="midnightblue" d="M1950.27,-12.3776C1941.38,-12.2253 1932.54,-12.0956 1924,-12 1665.35,-9.10502 1600.65,-9.10502 1342,-12 1330.25,-12.1315 1317.92,-12.3279 1305.7,-12.5584"/>
<polygon fill="midnightblue" stroke="midnightblue" points="1950.24,-15.8776 1960.3,-12.5584 1950.37,-8.87874 1950.24,-15.8776"/>
</g>
</g>
</svg>
