<?xml version="1.0" encoding="UTF-8" standalone="no"?>
<!DOCTYPE svg PUBLIC "-//W3C//DTD SVG 1.1//EN"
 "http://www.w3.org/Graphics/SVG/1.1/DTD/svg11.dtd">
<!-- Generated by graphviz version 2.36.0 (20140111.2315)
 -->
<!-- Title: slogo.UI.ModuleCreationHelper.clearCertainList Pages: 1 -->
<svg width="1760pt" height="60pt"
 viewBox="0.00 0.00 1760.00 60.00" xmlns="http://www.w3.org/2000/svg" xmlns:xlink="http://www.w3.org/1999/xlink">
<g id="graph0" class="graph" transform="scale(1 1) rotate(0) translate(4 56)">
<title>slogo.UI.ModuleCreationHelper.clearCertainList</title>
<polygon fill="white" stroke="none" points="-4,4 -4,-56 1756,-56 1756,4 -4,4"/>
<!-- Node1 -->
<g id="node1" class="node"><title>Node1</title>
<polygon fill="#bfbfbf" stroke="black" points="0,-0 0,-30 190,-30 190,-0 0,-0"/>
<text text-anchor="start" x="8" y="-18" font-family="Helvetica,sans-Serif" font-size="10.00">slogo.UI.ModuleCreationHelper.clear</text>
<text text-anchor="middle" x="95" y="-7" font-family="Helvetica,sans-Serif" font-size="10.00">CertainList</text>
</g>
<!-- Node2 -->
<g id="node2" class="node"><title>Node2</title>
<g id="a_node2"><a xlink:href="../../db/d19/classslogo_1_1_u_i_1_1_module_creation_helper.html#aa6a7c88b3112494b64bba3cfc608e2be" target="_top" xlink:title="slogo.UI.ModuleCreationHelper.activate\lLoadButton">
<polygon fill="white" stroke="black" points="226.5,-0 226.5,-30 431.5,-30 431.5,-0 226.5,-0"/>
<text text-anchor="start" x="234.5" y="-18" font-family="Helvetica,sans-Serif" font-size="10.00">slogo.UI.ModuleCreationHelper.activate</text>
<text text-anchor="middle" x="329" y="-7" font-family="Helvetica,sans-Serif" font-size="10.00">LoadButton</text>
</a>
</g>
</g>
<!-- Node1&#45;&gt;Node2 -->
<g id="edge1" class="edge"><title>Node1&#45;&gt;Node2</title>
<path fill="none" stroke="midnightblue" d="M200.161,-15C208.838,-15 217.604,-15 226.262,-15"/>
<polygon fill="midnightblue" stroke="midnightblue" points="200.029,-11.5001 190.029,-15 200.029,-18.5001 200.029,-11.5001"/>
</g>
<!-- Node3 -->
<g id="node3" class="node"><title>Node3</title>
<g id="a_node3"><a xlink:href="../../db/d19/classslogo_1_1_u_i_1_1_module_creation_helper.html#ae9c212513214962b5692051497567f68" target="_top" xlink:title="slogo.UI.ModuleCreationHelper.create\lLoadButton">
<polygon fill="white" stroke="black" points="468.5,-0 468.5,-30 665.5,-30 665.5,-0 468.5,-0"/>
<text text-anchor="start" x="476.5" y="-18" font-family="Helvetica,sans-Serif" font-size="10.00">slogo.UI.ModuleCreationHelper.create</text>
<text text-anchor="middle" x="567" y="-7" font-family="Helvetica,sans-Serif" font-size="10.00">LoadButton</text>
</a>
</g>
</g>
<!-- Node2&#45;&gt;Node3 -->
<g id="edge2" class="edge"><title>Node2&#45;&gt;Node3</title>
<path fill="none" stroke="midnightblue" d="M442.051,-15C450.813,-15 459.618,-15 468.274,-15"/>
<polygon fill="midnightblue" stroke="midnightblue" points="441.798,-11.5001 431.798,-15 441.798,-18.5001 441.798,-11.5001"/>
</g>
<!-- Node4 -->
<g id="node4" class="node"><title>Node4</title>
<g id="a_node4"><a xlink:href="../../db/d19/classslogo_1_1_u_i_1_1_module_creation_helper.html#a7c650957b2389d6e6d36e8be8a33cd2b" target="_top" xlink:title="slogo.UI.ModuleCreationHelper.create\lSelectorVBoxModules">
<polygon fill="white" stroke="black" points="702.5,-0 702.5,-30 899.5,-30 899.5,-0 702.5,-0"/>
<text text-anchor="start" x="710.5" y="-18" font-family="Helvetica,sans-Serif" font-size="10.00">slogo.UI.ModuleCreationHelper.create</text>
<text text-anchor="middle" x="801" y="-7" font-family="Helvetica,sans-Serif" font-size="10.00">SelectorVBoxModules</text>
</a>
</g>
</g>
<!-- Node3&#45;&gt;Node4 -->
<g id="edge3" class="edge"><title>Node3&#45;&gt;Node4</title>
<path fill="none" stroke="midnightblue" d="M675.722,-15C684.618,-15 693.58,-15 702.396,-15"/>
<polygon fill="midnightblue" stroke="midnightblue" points="675.717,-11.5001 665.716,-15 675.716,-18.5001 675.717,-11.5001"/>
</g>
<!-- Node5 -->
<g id="node5" class="node"><title>Node5</title>
<g id="a_node5"><a xlink:href="../../db/d19/classslogo_1_1_u_i_1_1_module_creation_helper.html#afb9dbbbad7d872234a5b296fe129a34e" target="_top" xlink:title="slogo.UI.ModuleCreationHelper.create\lMainPageModules">
<polygon fill="white" stroke="black" points="936.5,-22 936.5,-52 1133.5,-52 1133.5,-22 936.5,-22"/>
<text text-anchor="start" x="944.5" y="-40" font-family="Helvetica,sans-Serif" font-size="10.00">slogo.UI.ModuleCreationHelper.create</text>
<text text-anchor="middle" x="1035" y="-29" font-family="Helvetica,sans-Serif" font-size="10.00">MainPageModules</text>
</a>
</g>
</g>
<!-- Node4&#45;&gt;Node5 -->
<g id="edge4" class="edge"><title>Node4&#45;&gt;Node5</title>
<path fill="none" stroke="midnightblue" d="M909.722,-25.215C918.618,-26.0586 927.58,-26.9085 936.396,-27.7445"/>
<polygon fill="midnightblue" stroke="midnightblue" points="910.002,-21.726 899.716,-24.2662 909.341,-28.6947 910.002,-21.726"/>
</g>
<!-- Node6 -->
<g id="node6" class="node"><title>Node6</title>
<g id="a_node6"><a xlink:href="../../d9/d33/classslogo_1_1_u_i_1_1_main.html#a15b7f2e399ee24d160550993ab737e73" target="_top" xlink:title="slogo.UI.Main.start">
<polygon fill="white" stroke="black" points="1170,-27.5 1170,-46.5 1276,-46.5 1276,-27.5 1170,-27.5"/>
<text text-anchor="middle" x="1223" y="-34.5" font-family="Helvetica,sans-Serif" font-size="10.00">slogo.UI.Main.start</text>
</a>
</g>
</g>
<!-- Node5&#45;&gt;Node6 -->
<g id="edge5" class="edge"><title>Node5&#45;&gt;Node6</title>
<path fill="none" stroke="midnightblue" d="M1143.8,-37C1152.76,-37 1161.53,-37 1169.76,-37"/>
<polygon fill="midnightblue" stroke="midnightblue" points="1143.63,-33.5001 1133.63,-37 1143.63,-40.5001 1143.63,-33.5001"/>
</g>
<!-- Node7 -->
<g id="node7" class="node"><title>Node7</title>
<g id="a_node7"><a xlink:href="../../db/d19/classslogo_1_1_u_i_1_1_module_creation_helper.html#a3be12a7cc2b8a219db1e296211a2cb88" target="_top" xlink:title="slogo.UI.ModuleCreationHelper.activate\lExtraWorkspaceButton">
<polygon fill="white" stroke="black" points="1312.5,-22 1312.5,-52 1517.5,-52 1517.5,-22 1312.5,-22"/>
<text text-anchor="start" x="1320.5" y="-40" font-family="Helvetica,sans-Serif" font-size="10.00">slogo.UI.ModuleCreationHelper.activate</text>
<text text-anchor="middle" x="1415" y="-29" font-family="Helvetica,sans-Serif" font-size="10.00">ExtraWorkspaceButton</text>
</a>
</g>
</g>
<!-- Node6&#45;&gt;Node7 -->
<g id="edge6" class="edge"><title>Node6&#45;&gt;Node7</title>
<path fill="none" stroke="midnightblue" d="M1286.22,-37C1294.63,-37 1303.44,-37 1312.32,-37"/>
<polygon fill="midnightblue" stroke="midnightblue" points="1286.17,-33.5001 1276.17,-37 1286.17,-40.5001 1286.17,-33.5001"/>
</g>
<!-- Node8 -->
<g id="node8" class="node"><title>Node8</title>
<g id="a_node8"><a xlink:href="../../db/d19/classslogo_1_1_u_i_1_1_module_creation_helper.html#a702c1ebe24d2857a10c666eb1fcc315d" target="_top" xlink:title="slogo.UI.ModuleCreationHelper.create\lExtraWorkspaceButton">
<polygon fill="white" stroke="black" points="1554.5,-0 1554.5,-30 1751.5,-30 1751.5,-0 1554.5,-0"/>
<text text-anchor="start" x="1562.5" y="-18" font-family="Helvetica,sans-Serif" font-size="10.00">slogo.UI.ModuleCreationHelper.create</text>
<text text-anchor="middle" x="1653" y="-7" font-family="Helvetica,sans-Serif" font-size="10.00">ExtraWorkspaceButton</text>
</a>
</g>
</g>
<!-- Node7&#45;&gt;Node8 -->
<g id="edge7" class="edge"><title>Node7&#45;&gt;Node8</title>
<path fill="none" stroke="midnightblue" d="M1527.77,-26.5812C1536.62,-25.7556 1545.52,-24.9257 1554.27,-24.1101"/>
<polygon fill="midnightblue" stroke="midnightblue" points="1527.43,-23.0972 1517.8,-27.5104 1528.08,-30.067 1527.43,-23.0972"/>
</g>
<!-- Node8&#45;&gt;Node4 -->
<g id="edge8" class="edge"><title>Node8&#45;&gt;Node4</title>
<path fill="none" stroke="midnightblue" d="M1544.27,-12.3776C1535.38,-12.2253 1526.54,-12.0956 1518,-12 1259.35,-9.10502 1194.65,-9.10502 936,-12 924.25,-12.1315 911.921,-12.3279 899.699,-12.5584"/>
<polygon fill="midnightblue" stroke="midnightblue" points="1544.24,-15.8776 1554.3,-12.5584 1544.37,-8.87874 1544.24,-15.8776"/>
</g>
</g>
</svg>
