<?xml version="1.0" encoding="UTF-8" standalone="no"?>
<!DOCTYPE svg PUBLIC "-//W3C//DTD SVG 1.1//EN"
 "http://www.w3.org/Graphics/SVG/1.1/DTD/svg11.dtd">
<!-- Generated by graphviz version 2.36.0 (20140111.2315)
 -->
<!-- Title: slogo.UI.ModuleCreationHelper.createTextField Pages: 1 -->
<svg width="1058pt" height="234pt"
 viewBox="0.00 0.00 1058.00 234.00" xmlns="http://www.w3.org/2000/svg" xmlns:xlink="http://www.w3.org/1999/xlink">
<g id="graph0" class="graph" transform="scale(1 1) rotate(0) translate(4 230)">
<title>slogo.UI.ModuleCreationHelper.createTextField</title>
<polygon fill="white" stroke="none" points="-4,4 -4,-230 1054,-230 1054,4 -4,4"/>
<!-- Node1 -->
<g id="node1" class="node"><title>Node1</title>
<polygon fill="#bfbfbf" stroke="black" points="0.5,-49 0.5,-79 197.5,-79 197.5,-49 0.5,-49"/>
<text text-anchor="start" x="8.5" y="-67" font-family="Helvetica,sans-Serif" font-size="10.00">slogo.UI.ModuleCreationHelper.create</text>
<text text-anchor="middle" x="99" y="-56" font-family="Helvetica,sans-Serif" font-size="10.00">TextField</text>
</g>
<!-- Node2 -->
<g id="node2" class="node"><title>Node2</title>
<g id="a_node2"><a xlink:href="../../db/d19/classslogo_1_1_u_i_1_1_module_creation_helper.html#ae81191bac120ff263515d5d9453dd4dd" target="_top" xlink:title="slogo.UI.ModuleCreationHelper.activate\lTextField">
<polygon fill="white" stroke="black" points="234.5,-114 234.5,-144 439.5,-144 439.5,-114 234.5,-114"/>
<text text-anchor="start" x="242.5" y="-132" font-family="Helvetica,sans-Serif" font-size="10.00">slogo.UI.ModuleCreationHelper.activate</text>
<text text-anchor="middle" x="337" y="-121" font-family="Helvetica,sans-Serif" font-size="10.00">TextField</text>
</a>
</g>
</g>
<!-- Node1&#45;&gt;Node2 -->
<g id="edge1" class="edge"><title>Node1&#45;&gt;Node2</title>
<path fill="none" stroke="midnightblue" d="M154.736,-79.0757C189.462,-88.6399 234.565,-101.062 271.093,-111.123"/>
<polygon fill="midnightblue" stroke="midnightblue" points="270.582,-114.613 281.152,-113.894 272.441,-107.864 270.582,-114.613"/>
</g>
<!-- Node9 -->
<g id="node9" class="node"><title>Node9</title>
<g id="a_node9"><a xlink:href="../../df/de6/classslogo_1_1_u_i_1_1_commands_text_field.html#a2896618c8a73f7e72e1d9302a3f5797b" target="_top" xlink:title="slogo.UI.CommandsTextField.create\lTextField">
<polygon fill="white" stroke="black" points="243.5,-49 243.5,-79 430.5,-79 430.5,-49 243.5,-49"/>
<text text-anchor="start" x="251.5" y="-67" font-family="Helvetica,sans-Serif" font-size="10.00">slogo.UI.CommandsTextField.create</text>
<text text-anchor="middle" x="337" y="-56" font-family="Helvetica,sans-Serif" font-size="10.00">TextField</text>
</a>
</g>
</g>
<!-- Node1&#45;&gt;Node9 -->
<g id="edge8" class="edge"><title>Node1&#45;&gt;Node9</title>
<path fill="none" stroke="midnightblue" d="M197.694,-64C209.365,-64 221.309,-64 233.052,-64"/>
<polygon fill="midnightblue" stroke="midnightblue" points="233.307,-67.5001 243.307,-64 233.307,-60.5001 233.307,-67.5001"/>
</g>
<!-- Node11 -->
<g id="node11" class="node"><title>Node11</title>
<g id="a_node11"><a xlink:href="../../df/de6/classslogo_1_1_u_i_1_1_commands_text_field.html#a64abddac6879f89f091c6d751056c12d" target="_top" xlink:title="slogo.UI.CommandsTextField.get\lTextField">
<polygon fill="white" stroke="black" points="251,-0 251,-30 423,-30 423,-0 251,-0"/>
<text text-anchor="start" x="259" y="-18" font-family="Helvetica,sans-Serif" font-size="10.00">slogo.UI.CommandsTextField.get</text>
<text text-anchor="middle" x="337" y="-7" font-family="Helvetica,sans-Serif" font-size="10.00">TextField</text>
</a>
</g>
</g>
<!-- Node1&#45;&gt;Node11 -->
<g id="edge10" class="edge"><title>Node1&#45;&gt;Node11</title>
<path fill="none" stroke="midnightblue" d="M172.412,-48.9654C198.123,-43.627 227.246,-37.5802 253.721,-32.0834"/>
<polygon fill="midnightblue" stroke="midnightblue" points="254.646,-35.4661 263.725,-30.0062 253.223,-28.6123 254.646,-35.4661"/>
</g>
<!-- Node3 -->
<g id="node3" class="node"><title>Node3</title>
<g id="a_node3"><a xlink:href="../../db/d19/classslogo_1_1_u_i_1_1_module_creation_helper.html#a02dec5fb299a1543ef2758bc6ae70dfb" target="_top" xlink:title="slogo.UI.ModuleCreationHelper.add\lToCertainList">
<polygon fill="white" stroke="black" points="479.5,-196 479.5,-226 664.5,-226 664.5,-196 479.5,-196"/>
<text text-anchor="start" x="487.5" y="-214" font-family="Helvetica,sans-Serif" font-size="10.00">slogo.UI.ModuleCreationHelper.add</text>
<text text-anchor="middle" x="572" y="-203" font-family="Helvetica,sans-Serif" font-size="10.00">ToCertainList</text>
</a>
</g>
</g>
<!-- Node2&#45;&gt;Node3 -->
<g id="edge2" class="edge"><title>Node2&#45;&gt;Node3</title>
<path fill="none" stroke="midnightblue" d="M370.986,-144.095C398.65,-156.396 439.393,-173.685 476,-186 483.527,-188.532 491.459,-190.97 499.4,-193.265"/>
<polygon fill="midnightblue" stroke="midnightblue" points="498.489,-196.644 509.064,-195.989 500.388,-189.907 498.489,-196.644"/>
</g>
<!-- Node6 -->
<g id="node6" class="node"><title>Node6</title>
<g id="a_node6"><a xlink:href="../../df/de6/classslogo_1_1_u_i_1_1_commands_text_field.html#a807dbf0cd67d066122544931db8a3837" target="_top" xlink:title="slogo.UI.CommandsTextField.getText">
<polygon fill="white" stroke="black" points="476.5,-157.5 476.5,-176.5 667.5,-176.5 667.5,-157.5 476.5,-157.5"/>
<text text-anchor="middle" x="572" y="-164.5" font-family="Helvetica,sans-Serif" font-size="10.00">slogo.UI.CommandsTextField.getText</text>
</a>
</g>
</g>
<!-- Node2&#45;&gt;Node6 -->
<g id="edge5" class="edge"><title>Node2&#45;&gt;Node6</title>
<path fill="none" stroke="midnightblue" d="M430.088,-144.019C454.354,-147.976 480.1,-152.175 502.854,-155.886"/>
<polygon fill="midnightblue" stroke="midnightblue" points="502.311,-159.344 512.744,-157.499 503.438,-152.435 502.311,-159.344"/>
</g>
<!-- Node7 -->
<g id="node7" class="node"><title>Node7</title>
<g id="a_node7"><a xlink:href="../../df/d2d/classslogo_1_1_view.html#a6c6c7faf44054a6b1844610eaa159c03" target="_top" xlink:title="slogo.View.recordCommand">
<polygon fill="white" stroke="black" points="497,-119.5 497,-138.5 647,-138.5 647,-119.5 497,-119.5"/>
<text text-anchor="middle" x="572" y="-126.5" font-family="Helvetica,sans-Serif" font-size="10.00">slogo.View.recordCommand</text>
</a>
</g>
</g>
<!-- Node2&#45;&gt;Node7 -->
<g id="edge6" class="edge"><title>Node2&#45;&gt;Node7</title>
<path fill="none" stroke="midnightblue" d="M439.519,-129C455.163,-129 471.173,-129 486.396,-129"/>
<polygon fill="midnightblue" stroke="midnightblue" points="486.795,-132.5 496.795,-129 486.794,-125.5 486.795,-132.5"/>
</g>
<!-- Node8 -->
<g id="node8" class="node"><title>Node8</title>
<g id="a_node8"><a xlink:href="../../df/de6/classslogo_1_1_u_i_1_1_commands_text_field.html#a5f18e6aea317867be199cdf6b3f80e05" target="_top" xlink:title="slogo.UI.CommandsTextField.setText">
<polygon fill="white" stroke="black" points="477,-81.5 477,-100.5 667,-100.5 667,-81.5 477,-81.5"/>
<text text-anchor="middle" x="572" y="-88.5" font-family="Helvetica,sans-Serif" font-size="10.00">slogo.UI.CommandsTextField.setText</text>
</a>
</g>
</g>
<!-- Node2&#45;&gt;Node8 -->
<g id="edge7" class="edge"><title>Node2&#45;&gt;Node8</title>
<path fill="none" stroke="midnightblue" d="M430.088,-113.981C454.354,-110.024 480.1,-105.825 502.854,-102.114"/>
<polygon fill="midnightblue" stroke="midnightblue" points="503.438,-105.565 512.744,-100.501 502.311,-98.6563 503.438,-105.565"/>
</g>
<!-- Node4 -->
<g id="node4" class="node"><title>Node4</title>
<g id="a_node4"><a xlink:href="../../db/dc0/classslogo_1_1_u_i_1_1_list_view_all_s_l_o_g_o.html#a5f743353bce4830934bcf532b97e7925" target="_top" xlink:title="slogo.UI.ListViewAllSLOGO.set\lItems">
<polygon fill="white" stroke="black" points="704.5,-196 704.5,-226 863.5,-226 863.5,-196 704.5,-196"/>
<text text-anchor="start" x="712.5" y="-214" font-family="Helvetica,sans-Serif" font-size="10.00">slogo.UI.ListViewAllSLOGO.set</text>
<text text-anchor="middle" x="784" y="-203" font-family="Helvetica,sans-Serif" font-size="10.00">Items</text>
</a>
</g>
</g>
<!-- Node3&#45;&gt;Node4 -->
<g id="edge3" class="edge"><title>Node3&#45;&gt;Node4</title>
<path fill="none" stroke="midnightblue" d="M664.804,-211C674.551,-211 684.453,-211 694.166,-211"/>
<polygon fill="midnightblue" stroke="midnightblue" points="694.205,-214.5 704.205,-211 694.204,-207.5 694.205,-214.5"/>
</g>
<!-- Node5 -->
<g id="node5" class="node"><title>Node5</title>
<g id="a_node5"><a xlink:href="../../da/d8f/classslogo_1_1_u_i_1_1_list_view_creator.html#a081368f4f2cd74f99d9d251625ae4871" target="_top" xlink:title="slogo.UI.ListViewCreator.get\lListView">
<polygon fill="white" stroke="black" points="900,-196 900,-226 1050,-226 1050,-196 900,-196"/>
<text text-anchor="start" x="908" y="-214" font-family="Helvetica,sans-Serif" font-size="10.00">slogo.UI.ListViewCreator.get</text>
<text text-anchor="middle" x="975" y="-203" font-family="Helvetica,sans-Serif" font-size="10.00">ListView</text>
</a>
</g>
</g>
<!-- Node4&#45;&gt;Node5 -->
<g id="edge4" class="edge"><title>Node4&#45;&gt;Node5</title>
<path fill="none" stroke="midnightblue" d="M863.511,-211C872.186,-211 881.046,-211 889.787,-211"/>
<polygon fill="midnightblue" stroke="midnightblue" points="889.975,-214.5 899.975,-211 889.975,-207.5 889.975,-214.5"/>
</g>
<!-- Node10 -->
<g id="node10" class="node"><title>Node10</title>
<g id="a_node10"><a xlink:href="../../d7/d0e/classslogo_1_1_u_i_1_1_label_creator.html#a9ca0989ecfc0037d473dd3d2e8ead74f" target="_top" xlink:title="slogo.UI.LabelCreator.create\lLabel">
<polygon fill="white" stroke="black" points="496,-32 496,-62 648,-62 648,-32 496,-32"/>
<text text-anchor="start" x="504" y="-50" font-family="Helvetica,sans-Serif" font-size="10.00">slogo.UI.LabelCreator.create</text>
<text text-anchor="middle" x="572" y="-39" font-family="Helvetica,sans-Serif" font-size="10.00">Label</text>
</a>
</g>
</g>
<!-- Node9&#45;&gt;Node10 -->
<g id="edge9" class="edge"><title>Node9&#45;&gt;Node10</title>
<path fill="none" stroke="midnightblue" d="M430.757,-57.2323C448.792,-55.9165 467.619,-54.5428 485.41,-53.2448"/>
<polygon fill="midnightblue" stroke="midnightblue" points="486.032,-56.7087 495.751,-52.4903 485.523,-49.7273 486.032,-56.7087"/>
</g>
</g>
</svg>
