<?xml version="1.0" encoding="UTF-8" standalone="no"?>
<!DOCTYPE svg PUBLIC "-//W3C//DTD SVG 1.1//EN"
 "http://www.w3.org/Graphics/SVG/1.1/DTD/svg11.dtd">
<!-- Generated by graphviz version 2.36.0 (20140111.2315)
 -->
<!-- Title: slogo.UI.ModuleCreationHelper.getCanvas Pages: 1 -->
<svg width="2328pt" height="486pt"
 viewBox="0.00 0.00 2328.00 486.00" xmlns="http://www.w3.org/2000/svg" xmlns:xlink="http://www.w3.org/1999/xlink">
<g id="graph0" class="graph" transform="scale(1 1) rotate(0) translate(4 482)">
<title>slogo.UI.ModuleCreationHelper.getCanvas</title>
<polygon fill="white" stroke="none" points="-4,4 -4,-482 2324,-482 2324,4 -4,4"/>
<!-- Node1 -->
<g id="node1" class="node"><title>Node1</title>
<polygon fill="#bfbfbf" stroke="black" points="0,-322 0,-352 182,-352 182,-322 0,-322"/>
<text text-anchor="start" x="8" y="-340" font-family="Helvetica,sans-Serif" font-size="10.00">slogo.UI.ModuleCreationHelper.get</text>
<text text-anchor="middle" x="91" y="-329" font-family="Helvetica,sans-Serif" font-size="10.00">Canvas</text>
</g>
<!-- Node2 -->
<g id="node2" class="node"><title>Node2</title>
<g id="a_node2"><a xlink:href="../../df/d2d/classslogo_1_1_view.html#ad4c9fa7b6b599050e6cd3cc1954f39c9" target="_top" xlink:title="slogo.View.initRunner">
<polygon fill="white" stroke="black" points="232,-360.5 232,-379.5 348,-379.5 348,-360.5 232,-360.5"/>
<text text-anchor="middle" x="290" y="-367.5" font-family="Helvetica,sans-Serif" font-size="10.00">slogo.View.initRunner</text>
</a>
</g>
</g>
<!-- Node1&#45;&gt;Node2 -->
<g id="edge1" class="edge"><title>Node1&#45;&gt;Node2</title>
<path fill="none" stroke="midnightblue" d="M191.656,-353.694C205.529,-356.017 219.37,-358.336 232.081,-360.465"/>
<polygon fill="midnightblue" stroke="midnightblue" points="192.006,-350.204 181.565,-352.003 190.849,-357.107 192.006,-350.204"/>
</g>
<!-- Node8 -->
<g id="node8" class="node"><title>Node8</title>
<g id="a_node8"><a xlink:href="../../d9/d7e/classslogo_1_1_u_i_1_1_method_runner.html#a714f7c40de08d1196b78789d769d25d9" target="_top" xlink:title="slogo.UI.MethodRunner.set\lBackgroundColor">
<polygon fill="white" stroke="black" points="218,-289 218,-319 362,-319 362,-289 218,-289"/>
<text text-anchor="start" x="226" y="-307" font-family="Helvetica,sans-Serif" font-size="10.00">slogo.UI.MethodRunner.set</text>
<text text-anchor="middle" x="290" y="-296" font-family="Helvetica,sans-Serif" font-size="10.00">BackgroundColor</text>
</a>
</g>
</g>
<!-- Node1&#45;&gt;Node8 -->
<g id="edge8" class="edge"><title>Node1&#45;&gt;Node8</title>
<path fill="none" stroke="midnightblue" d="M191.596,-320.316C200.49,-318.826 209.372,-317.339 217.952,-315.901"/>
<polygon fill="midnightblue" stroke="midnightblue" points="190.849,-316.893 181.565,-321.997 192.006,-323.796 190.849,-316.893"/>
</g>
<!-- Node3 -->
<g id="node3" class="node"><title>Node3</title>
<g id="a_node3"><a xlink:href="../../d9/d33/classslogo_1_1_u_i_1_1_main.html#a15b7f2e399ee24d160550993ab737e73" target="_top" xlink:title="slogo.UI.Main.start">
<polygon fill="white" stroke="black" points="1212,-458.5 1212,-477.5 1318,-477.5 1318,-458.5 1212,-458.5"/>
<text text-anchor="middle" x="1265" y="-465.5" font-family="Helvetica,sans-Serif" font-size="10.00">slogo.UI.Main.start</text>
</a>
</g>
</g>
<!-- Node2&#45;&gt;Node3 -->
<g id="edge2" class="edge"><title>Node2&#45;&gt;Node3</title>
<path fill="none" stroke="midnightblue" d="M358.38,-373.182C433.068,-376.431 557.111,-381 664,-381 664,-381 664,-381 848,-381 990.791,-381 1022.02,-420.812 1162,-449 1178.16,-452.254 1195.8,-455.609 1211.79,-458.577"/>
<polygon fill="midnightblue" stroke="midnightblue" points="358.32,-369.676 348.175,-372.733 358.012,-376.67 358.32,-369.676"/>
</g>
<!-- Node4 -->
<g id="node4" class="node"><title>Node4</title>
<g id="a_node4"><a xlink:href="../../db/d19/classslogo_1_1_u_i_1_1_module_creation_helper.html#a3be12a7cc2b8a219db1e296211a2cb88" target="_top" xlink:title="slogo.UI.ModuleCreationHelper.activate\lExtraWorkspaceButton">
<polygon fill="white" stroke="black" points="1404.5,-402 1404.5,-432 1609.5,-432 1609.5,-402 1404.5,-402"/>
<text text-anchor="start" x="1412.5" y="-420" font-family="Helvetica,sans-Serif" font-size="10.00">slogo.UI.ModuleCreationHelper.activate</text>
<text text-anchor="middle" x="1507" y="-409" font-family="Helvetica,sans-Serif" font-size="10.00">ExtraWorkspaceButton</text>
</a>
</g>
</g>
<!-- Node3&#45;&gt;Node4 -->
<g id="edge3" class="edge"><title>Node3&#45;&gt;Node4</title>
<path fill="none" stroke="midnightblue" d="M1328.16,-456.868C1341.34,-454.384 1355.14,-451.687 1368,-449 1392.8,-443.818 1419.98,-437.626 1443.61,-432.075"/>
<polygon fill="midnightblue" stroke="midnightblue" points="1327.43,-453.446 1318.24,-458.723 1328.71,-460.326 1327.43,-453.446"/>
</g>
<!-- Node5 -->
<g id="node5" class="node"><title>Node5</title>
<g id="a_node5"><a xlink:href="../../db/d19/classslogo_1_1_u_i_1_1_module_creation_helper.html#a702c1ebe24d2857a10c666eb1fcc315d" target="_top" xlink:title="slogo.UI.ModuleCreationHelper.create\lExtraWorkspaceButton">
<polygon fill="white" stroke="black" points="1646.5,-390 1646.5,-420 1843.5,-420 1843.5,-390 1646.5,-390"/>
<text text-anchor="start" x="1654.5" y="-408" font-family="Helvetica,sans-Serif" font-size="10.00">slogo.UI.ModuleCreationHelper.create</text>
<text text-anchor="middle" x="1745" y="-397" font-family="Helvetica,sans-Serif" font-size="10.00">ExtraWorkspaceButton</text>
</a>
</g>
</g>
<!-- Node4&#45;&gt;Node5 -->
<g id="edge4" class="edge"><title>Node4&#45;&gt;Node5</title>
<path fill="none" stroke="midnightblue" d="M1620.05,-411.302C1628.81,-410.857 1637.62,-410.409 1646.27,-409.969"/>
<polygon fill="midnightblue" stroke="midnightblue" points="1619.61,-407.82 1609.8,-411.824 1619.96,-414.811 1619.61,-407.82"/>
</g>
<!-- Node6 -->
<g id="node6" class="node"><title>Node6</title>
<g id="a_node6"><a xlink:href="../../db/d19/classslogo_1_1_u_i_1_1_module_creation_helper.html#a7c650957b2389d6e6d36e8be8a33cd2b" target="_top" xlink:title="slogo.UI.ModuleCreationHelper.create\lSelectorVBoxModules">
<polygon fill="white" stroke="black" points="1884.5,-259 1884.5,-289 2081.5,-289 2081.5,-259 1884.5,-259"/>
<text text-anchor="start" x="1892.5" y="-277" font-family="Helvetica,sans-Serif" font-size="10.00">slogo.UI.ModuleCreationHelper.create</text>
<text text-anchor="middle" x="1983" y="-266" font-family="Helvetica,sans-Serif" font-size="10.00">SelectorVBoxModules</text>
</a>
</g>
</g>
<!-- Node5&#45;&gt;Node6 -->
<g id="edge5" class="edge"><title>Node5&#45;&gt;Node6</title>
<path fill="none" stroke="midnightblue" d="M1794.99,-385.907C1810.89,-379.21 1828.44,-371.278 1844,-363 1887.29,-339.973 1934.71,-307.712 1961.16,-289.021"/>
<polygon fill="midnightblue" stroke="midnightblue" points="1793.23,-382.847 1785.34,-389.909 1795.91,-389.313 1793.23,-382.847"/>
</g>
<!-- Node7 -->
<g id="node7" class="node"><title>Node7</title>
<g id="a_node7"><a xlink:href="../../db/d19/classslogo_1_1_u_i_1_1_module_creation_helper.html#afb9dbbbad7d872234a5b296fe129a34e" target="_top" xlink:title="slogo.UI.ModuleCreationHelper.create\lMainPageModules">
<polygon fill="white" stroke="black" points="2122.5,-147 2122.5,-177 2319.5,-177 2319.5,-147 2122.5,-147"/>
<text text-anchor="start" x="2130.5" y="-165" font-family="Helvetica,sans-Serif" font-size="10.00">slogo.UI.ModuleCreationHelper.create</text>
<text text-anchor="middle" x="2221" y="-154" font-family="Helvetica,sans-Serif" font-size="10.00">MainPageModules</text>
</a>
</g>
</g>
<!-- Node6&#45;&gt;Node7 -->
<g id="edge6" class="edge"><title>Node6&#45;&gt;Node7</title>
<path fill="none" stroke="midnightblue" d="M2025,-254.541C2071.44,-232.504 2146.11,-197.067 2188.3,-177.044"/>
<polygon fill="midnightblue" stroke="midnightblue" points="2023.36,-251.446 2015.83,-258.895 2026.36,-257.77 2023.36,-251.446"/>
</g>
<!-- Node7&#45;&gt;Node3 -->
<g id="edge7" class="edge"><title>Node7&#45;&gt;Node3</title>
<path fill="none" stroke="midnightblue" d="M2200.92,-185.245C2176.41,-214.118 2131.58,-263.744 2086,-298 1988.23,-371.478 1961.48,-394.994 1844,-429 1656.58,-483.252 1421.28,-477.675 1318.31,-471.792"/>
<polygon fill="midnightblue" stroke="midnightblue" points="2203.81,-187.244 2207.56,-177.336 2198.45,-182.742 2203.81,-187.244"/>
</g>
<!-- Node9 -->
<g id="node9" class="node"><title>Node9</title>
<g id="a_node9"><a xlink:href="../../d9/d7e/classslogo_1_1_u_i_1_1_method_runner.html#a5fe4a6310ba1b0851d7d30a440511324" target="_top" xlink:title="slogo.UI.MethodRunner.change\lTurtle">
<polygon fill="white" stroke="black" points="398,-162 398,-192 562,-192 562,-162 398,-162"/>
<text text-anchor="start" x="406" y="-180" font-family="Helvetica,sans-Serif" font-size="10.00">slogo.UI.MethodRunner.change</text>
<text text-anchor="middle" x="480" y="-169" font-family="Helvetica,sans-Serif" font-size="10.00">Turtle</text>
</a>
</g>
</g>
<!-- Node8&#45;&gt;Node9 -->
<g id="edge9" class="edge"><title>Node8&#45;&gt;Node9</title>
<path fill="none" stroke="midnightblue" d="M321.909,-283.12C359.844,-257.493 423.245,-214.664 456.725,-192.048"/>
<polygon fill="midnightblue" stroke="midnightblue" points="319.632,-280.435 313.304,-288.933 323.55,-286.235 319.632,-280.435"/>
</g>
<!-- Node10 -->
<g id="node10" class="node"><title>Node10</title>
<g id="a_node10"><a xlink:href="../../df/d2d/classslogo_1_1_view.html#accc79c56511a72090ff8a4d414b8d1f5" target="_top" xlink:title="slogo.View.executeTurtle\lCommands">
<polygon fill="white" stroke="black" points="598.5,-157 598.5,-187 731.5,-187 731.5,-157 598.5,-157"/>
<text text-anchor="start" x="606.5" y="-175" font-family="Helvetica,sans-Serif" font-size="10.00">slogo.View.executeTurtle</text>
<text text-anchor="middle" x="665" y="-164" font-family="Helvetica,sans-Serif" font-size="10.00">Commands</text>
</a>
</g>
</g>
<!-- Node9&#45;&gt;Node10 -->
<g id="edge10" class="edge"><title>Node9&#45;&gt;Node10</title>
<path fill="none" stroke="midnightblue" d="M572.064,-174.512C580.937,-174.269 589.815,-174.027 598.365,-173.793"/>
<polygon fill="midnightblue" stroke="midnightblue" points="571.966,-171.013 562.066,-174.785 572.158,-178.011 571.966,-171.013"/>
</g>
<!-- Node11 -->
<g id="node11" class="node"><title>Node11</title>
<g id="a_node11"><a xlink:href="../../df/d2d/classslogo_1_1_view.html#aa90e5d95d422b58b7f4b7f8a049defe1" target="_top" xlink:title="slogo.View.executeCommand">
<polygon fill="white" stroke="black" points="768,-159.5 768,-178.5 926,-178.5 926,-159.5 768,-159.5"/>
<text text-anchor="middle" x="847" y="-166.5" font-family="Helvetica,sans-Serif" font-size="10.00">slogo.View.executeCommand</text>
</a>
</g>
</g>
<!-- Node10&#45;&gt;Node11 -->
<g id="edge11" class="edge"><title>Node10&#45;&gt;Node11</title>
<path fill="none" stroke="midnightblue" d="M741.784,-170.737C750.42,-170.593 759.235,-170.446 767.901,-170.302"/>
<polygon fill="midnightblue" stroke="midnightblue" points="741.688,-167.238 731.748,-170.904 741.805,-174.237 741.688,-167.238"/>
</g>
<!-- Node12 -->
<g id="node12" class="node"><title>Node12</title>
<g id="a_node12"><a xlink:href="../../df/d2d/classslogo_1_1_view.html#aee563f6a0b15ac6668e4dcbdad40c73c" target="_top" xlink:title="slogo.View.sendCommandTo\lBackend">
<polygon fill="white" stroke="black" points="968,-235 968,-265 1120,-265 1120,-235 968,-235"/>
<text text-anchor="start" x="976" y="-253" font-family="Helvetica,sans-Serif" font-size="10.00">slogo.View.sendCommandTo</text>
<text text-anchor="middle" x="1044" y="-242" font-family="Helvetica,sans-Serif" font-size="10.00">Backend</text>
</a>
</g>
</g>
<!-- Node11&#45;&gt;Node12 -->
<g id="edge12" class="edge"><title>Node11&#45;&gt;Node12</title>
<path fill="none" stroke="midnightblue" d="M880.376,-182.448C915.173,-196.903 970.36,-219.826 1006.63,-234.892"/>
<polygon fill="midnightblue" stroke="midnightblue" points="881.712,-179.214 871.135,-178.61 879.027,-185.678 881.712,-179.214"/>
</g>
<!-- Node27 -->
<g id="node27" class="node"><title>Node27</title>
<g id="a_node27"><a xlink:href="../../df/d2d/classslogo_1_1_view.html#a4c3084a198acf85804800d70eff9ee51" target="_top" xlink:title="slogo.View.stepIntoCommand">
<polygon fill="white" stroke="black" points="965,-158.5 965,-177.5 1123,-177.5 1123,-158.5 965,-158.5"/>
<text text-anchor="middle" x="1044" y="-165.5" font-family="Helvetica,sans-Serif" font-size="10.00">slogo.View.stepIntoCommand</text>
</a>
</g>
</g>
<!-- Node11&#45;&gt;Node27 -->
<g id="edge35" class="edge"><title>Node11&#45;&gt;Node27</title>
<path fill="none" stroke="midnightblue" d="M936.402,-168.547C945.87,-168.498 955.454,-168.449 964.792,-168.401"/>
<polygon fill="midnightblue" stroke="midnightblue" points="936.172,-165.048 926.19,-168.599 936.208,-172.048 936.172,-165.048"/>
</g>
<!-- Node31 -->
<g id="node31" class="node"><title>Node31</title>
<g id="a_node31"><a xlink:href="../../df/d2d/classslogo_1_1_view.html#ac8b7f574c679e744a430f1649dc55e68" target="_top" xlink:title="slogo.View.stepOverCommand">
<polygon fill="white" stroke="black" points="962.5,-44.5 962.5,-63.5 1125.5,-63.5 1125.5,-44.5 962.5,-44.5"/>
<text text-anchor="middle" x="1044" y="-51.5" font-family="Helvetica,sans-Serif" font-size="10.00">slogo.View.stepOverCommand</text>
</a>
</g>
</g>
<!-- Node11&#45;&gt;Node31 -->
<g id="edge40" class="edge"><title>Node11&#45;&gt;Node31</title>
<path fill="none" stroke="midnightblue" d="M873.025,-154.242C913.563,-130.335 992.486,-83.7902 1026.62,-63.6606"/>
<polygon fill="midnightblue" stroke="midnightblue" points="871.126,-151.298 864.29,-159.393 874.682,-157.328 871.126,-151.298"/>
</g>
<!-- Node13 -->
<g id="node13" class="node"><title>Node13</title>
<g id="a_node13"><a xlink:href="../../db/d19/classslogo_1_1_u_i_1_1_module_creation_helper.html#a69e17abcc7cf9a6ed7261d8fb1d631fa" target="_top" xlink:title="slogo.UI.ModuleCreationHelper.activate\lIncreaseDecreaseButtons">
<polygon fill="white" stroke="black" points="1162.5,-284 1162.5,-314 1367.5,-314 1367.5,-284 1162.5,-284"/>
<text text-anchor="start" x="1170.5" y="-302" font-family="Helvetica,sans-Serif" font-size="10.00">slogo.UI.ModuleCreationHelper.activate</text>
<text text-anchor="middle" x="1265" y="-291" font-family="Helvetica,sans-Serif" font-size="10.00">IncreaseDecreaseButtons</text>
</a>
</g>
</g>
<!-- Node12&#45;&gt;Node13 -->
<g id="edge13" class="edge"><title>Node12&#45;&gt;Node13</title>
<path fill="none" stroke="midnightblue" d="M1122.13,-267.258C1146.54,-272.718 1173.29,-278.705 1196.93,-283.994"/>
<polygon fill="midnightblue" stroke="midnightblue" points="1122.72,-263.803 1112.2,-265.035 1121.19,-270.634 1122.72,-263.803"/>
</g>
<!-- Node15 -->
<g id="node15" class="node"><title>Node15</title>
<g id="a_node15"><a xlink:href="../../db/d19/classslogo_1_1_u_i_1_1_module_creation_helper.html#aa70b0ad9e90e62509149bfd2ef2ba209" target="_top" xlink:title="slogo.UI.ModuleCreationHelper.activate\lKeyEvents">
<polygon fill="white" stroke="black" points="1880.5,-147 1880.5,-177 2085.5,-177 2085.5,-147 1880.5,-147"/>
<text text-anchor="start" x="1888.5" y="-165" font-family="Helvetica,sans-Serif" font-size="10.00">slogo.UI.ModuleCreationHelper.activate</text>
<text text-anchor="middle" x="1983" y="-154" font-family="Helvetica,sans-Serif" font-size="10.00">KeyEvents</text>
</a>
</g>
</g>
<!-- Node12&#45;&gt;Node15 -->
<g id="edge16" class="edge"><title>Node12&#45;&gt;Node15</title>
<path fill="none" stroke="midnightblue" d="M1070.07,-228.334C1092.48,-210.473 1127.08,-186.439 1162,-176 1293.39,-136.719 1691.31,-148.625 1880.28,-156.927"/>
<polygon fill="midnightblue" stroke="midnightblue" points="1067.64,-225.802 1062.11,-234.837 1072.07,-231.225 1067.64,-225.802"/>
</g>
<!-- Node16 -->
<g id="node16" class="node"><title>Node16</title>
<g id="a_node16"><a xlink:href="../../db/d19/classslogo_1_1_u_i_1_1_module_creation_helper.html#a2e841243ec3ca474e8822102343acc88" target="_top" xlink:title="slogo.UI.ModuleCreationHelper.activate\lNewTurtleButton">
<polygon fill="white" stroke="black" points="1162.5,-235 1162.5,-265 1367.5,-265 1367.5,-235 1162.5,-235"/>
<text text-anchor="start" x="1170.5" y="-253" font-family="Helvetica,sans-Serif" font-size="10.00">slogo.UI.ModuleCreationHelper.activate</text>
<text text-anchor="middle" x="1265" y="-242" font-family="Helvetica,sans-Serif" font-size="10.00">NewTurtleButton</text>
</a>
</g>
</g>
<!-- Node12&#45;&gt;Node16 -->
<g id="edge18" class="edge"><title>Node12&#45;&gt;Node16</title>
<path fill="none" stroke="midnightblue" d="M1130.08,-250C1140.65,-250 1151.54,-250 1162.33,-250"/>
<polygon fill="midnightblue" stroke="midnightblue" points="1130.06,-246.5 1120.06,-250 1130.06,-253.5 1130.06,-246.5"/>
</g>
<!-- Node18 -->
<g id="node18" class="node"><title>Node18</title>
<g id="a_node18"><a xlink:href="../../db/d19/classslogo_1_1_u_i_1_1_module_creation_helper.html#a9b1f07ab673191067907a059b1b0c524" target="_top" xlink:title="slogo.UI.ModuleCreationHelper.activate\lPlayButton">
<polygon fill="white" stroke="black" points="1162.5,-186 1162.5,-216 1367.5,-216 1367.5,-186 1162.5,-186"/>
<text text-anchor="start" x="1170.5" y="-204" font-family="Helvetica,sans-Serif" font-size="10.00">slogo.UI.ModuleCreationHelper.activate</text>
<text text-anchor="middle" x="1265" y="-193" font-family="Helvetica,sans-Serif" font-size="10.00">PlayButton</text>
</a>
</g>
</g>
<!-- Node12&#45;&gt;Node18 -->
<g id="edge21" class="edge"><title>Node12&#45;&gt;Node18</title>
<path fill="none" stroke="midnightblue" d="M1122.13,-232.742C1146.54,-227.282 1173.29,-221.295 1196.93,-216.006"/>
<polygon fill="midnightblue" stroke="midnightblue" points="1121.19,-229.366 1112.2,-234.965 1122.72,-236.197 1121.19,-229.366"/>
</g>
<!-- Node21 -->
<g id="node21" class="node"><title>Node21</title>
<g id="a_node21"><a xlink:href="../../db/d19/classslogo_1_1_u_i_1_1_module_creation_helper.html#a3a38d485562cb17591ec3fd07cffc18a" target="_top" xlink:title="slogo.UI.ModuleCreationHelper.activate\lTurtleCanvas">
<polygon fill="white" stroke="black" points="1162.5,-98 1162.5,-128 1367.5,-128 1367.5,-98 1162.5,-98"/>
<text text-anchor="start" x="1170.5" y="-116" font-family="Helvetica,sans-Serif" font-size="10.00">slogo.UI.ModuleCreationHelper.activate</text>
<text text-anchor="middle" x="1265" y="-105" font-family="Helvetica,sans-Serif" font-size="10.00">TurtleCanvas</text>
</a>
</g>
</g>
<!-- Node12&#45;&gt;Node21 -->
<g id="edge25" class="edge"><title>Node12&#45;&gt;Node21</title>
<path fill="none" stroke="midnightblue" d="M1075.43,-228.86C1091.21,-217.282 1110.4,-202.221 1126,-187 1144.09,-169.355 1140.94,-156.964 1162,-143 1171.23,-136.879 1181.74,-131.98 1192.41,-128.065"/>
<polygon fill="midnightblue" stroke="midnightblue" points="1073.1,-226.218 1067.05,-234.913 1077.21,-231.892 1073.1,-226.218"/>
</g>
<!-- Node23 -->
<g id="node23" class="node"><title>Node23</title>
<g id="a_node23"><a xlink:href="../../d1/d5f/classslogo_1_1_u_i_1_1_path_color_selector.html#ad3d9c82a0904c97edcec7cf67b85bd7b" target="_top" xlink:title="slogo.UI.PathColorSelector.create">
<polygon fill="white" stroke="black" points="1177,-382.5 1177,-401.5 1353,-401.5 1353,-382.5 1177,-382.5"/>
<text text-anchor="middle" x="1265" y="-389.5" font-family="Helvetica,sans-Serif" font-size="10.00">slogo.UI.PathColorSelector.create</text>
</a>
</g>
</g>
<!-- Node12&#45;&gt;Node23 -->
<g id="edge28" class="edge"><title>Node12&#45;&gt;Node23</title>
<path fill="none" stroke="midnightblue" d="M1060.73,-273.687C1080.75,-301.838 1118.08,-348.007 1162,-372 1170,-376.369 1178.81,-379.792 1187.8,-382.473"/>
<polygon fill="midnightblue" stroke="midnightblue" points="1063.43,-271.443 1054.85,-265.232 1057.68,-275.44 1063.43,-271.443"/>
</g>
<!-- Node25 -->
<g id="node25" class="node"><title>Node25</title>
<g id="a_node25"><a xlink:href="../../d4/d8d/classslogo_1_1_u_i_1_1_background_color_selector.html#ad75ba4ce104e071811d0fe039a4e839f" target="_top" xlink:title="slogo.UI.BackgroundColor\lSelector.create">
<polygon fill="white" stroke="black" points="1195,-333 1195,-363 1335,-363 1335,-333 1195,-333"/>
<text text-anchor="start" x="1203" y="-351" font-family="Helvetica,sans-Serif" font-size="10.00">slogo.UI.BackgroundColor</text>
<text text-anchor="middle" x="1265" y="-340" font-family="Helvetica,sans-Serif" font-size="10.00">Selector.create</text>
</a>
</g>
</g>
<!-- Node12&#45;&gt;Node25 -->
<g id="edge31" class="edge"><title>Node12&#45;&gt;Node25</title>
<path fill="none" stroke="midnightblue" d="M1073.26,-271.225C1096.12,-287.491 1129.72,-309.388 1162,-323 1172.42,-327.393 1183.77,-331.124 1195,-334.257"/>
<polygon fill="midnightblue" stroke="midnightblue" points="1075.2,-268.311 1065.04,-265.296 1071.1,-273.987 1075.2,-268.311"/>
</g>
<!-- Node26 -->
<g id="node26" class="node"><title>Node26</title>
<g id="a_node26"><a xlink:href="../../dd/da7/classslogo_1_1_u_i_1_1_turtle_image_selector.html#a3f268d9196ffebcbb5dc322d2897a9fe" target="_top" xlink:title="slogo.UI.TurtleImageSelector.create">
<polygon fill="white" stroke="black" points="1172,-420.5 1172,-439.5 1358,-439.5 1358,-420.5 1172,-420.5"/>
<text text-anchor="middle" x="1265" y="-427.5" font-family="Helvetica,sans-Serif" font-size="10.00">slogo.UI.TurtleImageSelector.create</text>
</a>
</g>
</g>
<!-- Node12&#45;&gt;Node26 -->
<g id="edge33" class="edge"><title>Node12&#45;&gt;Node26</title>
<path fill="none" stroke="midnightblue" d="M1061.4,-273.515C1091.91,-317.125 1154.94,-406.545 1162,-411 1168.09,-414.847 1174.77,-417.956 1181.7,-420.463"/>
<polygon fill="midnightblue" stroke="midnightblue" points="1064.18,-271.388 1055.59,-265.196 1058.45,-275.398 1064.18,-271.388"/>
</g>
<!-- Node14 -->
<g id="node14" class="node"><title>Node14</title>
<g id="a_node14"><a xlink:href="../../db/d19/classslogo_1_1_u_i_1_1_module_creation_helper.html#adce7362386f9a7b3006e7db08a2d578d" target="_top" xlink:title="slogo.UI.ModuleCreationHelper.create\lIncreaseDecreaseButtons">
<polygon fill="white" stroke="black" points="1646.5,-284 1646.5,-314 1843.5,-314 1843.5,-284 1646.5,-284"/>
<text text-anchor="start" x="1654.5" y="-302" font-family="Helvetica,sans-Serif" font-size="10.00">slogo.UI.ModuleCreationHelper.create</text>
<text text-anchor="middle" x="1745" y="-291" font-family="Helvetica,sans-Serif" font-size="10.00">IncreaseDecreaseButtons</text>
</a>
</g>
</g>
<!-- Node13&#45;&gt;Node14 -->
<g id="edge14" class="edge"><title>Node13&#45;&gt;Node14</title>
<path fill="none" stroke="midnightblue" d="M1377.94,-299C1459.28,-299 1568.3,-299 1646.16,-299"/>
<polygon fill="midnightblue" stroke="midnightblue" points="1377.66,-295.5 1367.66,-299 1377.66,-302.5 1377.66,-295.5"/>
</g>
<!-- Node14&#45;&gt;Node6 -->
<g id="edge15" class="edge"><title>Node14&#45;&gt;Node6</title>
<path fill="none" stroke="midnightblue" d="M1853.83,-287.577C1864.01,-286.498 1874.3,-285.409 1884.38,-284.341"/>
<polygon fill="midnightblue" stroke="midnightblue" points="1853.27,-284.117 1843.69,-288.651 1854.01,-291.078 1853.27,-284.117"/>
</g>
<!-- Node15&#45;&gt;Node7 -->
<g id="edge17" class="edge"><title>Node15&#45;&gt;Node7</title>
<path fill="none" stroke="midnightblue" d="M2096.05,-162C2104.81,-162 2113.62,-162 2122.27,-162"/>
<polygon fill="midnightblue" stroke="midnightblue" points="2095.8,-158.5 2085.8,-162 2095.8,-165.5 2095.8,-158.5"/>
</g>
<!-- Node17 -->
<g id="node17" class="node"><title>Node17</title>
<g id="a_node17"><a xlink:href="../../db/d19/classslogo_1_1_u_i_1_1_module_creation_helper.html#a07f5483df317cdf80e8ea2dda5699afa" target="_top" xlink:title="slogo.UI.ModuleCreationHelper.create\lNewTurtleButton">
<polygon fill="white" stroke="black" points="1646.5,-235 1646.5,-265 1843.5,-265 1843.5,-235 1646.5,-235"/>
<text text-anchor="start" x="1654.5" y="-253" font-family="Helvetica,sans-Serif" font-size="10.00">slogo.UI.ModuleCreationHelper.create</text>
<text text-anchor="middle" x="1745" y="-242" font-family="Helvetica,sans-Serif" font-size="10.00">NewTurtleButton</text>
</a>
</g>
</g>
<!-- Node16&#45;&gt;Node17 -->
<g id="edge19" class="edge"><title>Node16&#45;&gt;Node17</title>
<path fill="none" stroke="midnightblue" d="M1377.94,-250C1459.28,-250 1568.3,-250 1646.16,-250"/>
<polygon fill="midnightblue" stroke="midnightblue" points="1377.66,-246.5 1367.66,-250 1377.66,-253.5 1377.66,-246.5"/>
</g>
<!-- Node17&#45;&gt;Node6 -->
<g id="edge20" class="edge"><title>Node17&#45;&gt;Node6</title>
<path fill="none" stroke="midnightblue" d="M1853.83,-260.966C1864.01,-262.001 1874.3,-263.047 1884.38,-264.072"/>
<polygon fill="midnightblue" stroke="midnightblue" points="1854,-257.465 1843.69,-259.935 1853.29,-264.429 1854,-257.465"/>
</g>
<!-- Node19 -->
<g id="node19" class="node"><title>Node19</title>
<g id="a_node19"><a xlink:href="../../db/d19/classslogo_1_1_u_i_1_1_module_creation_helper.html#a9b3fb38a55b3b7812b4f793afa7a974f" target="_top" xlink:title="slogo.UI.ModuleCreationHelper.create\lPlayButton">
<polygon fill="white" stroke="black" points="1408.5,-186 1408.5,-216 1605.5,-216 1605.5,-186 1408.5,-186"/>
<text text-anchor="start" x="1416.5" y="-204" font-family="Helvetica,sans-Serif" font-size="10.00">slogo.UI.ModuleCreationHelper.create</text>
<text text-anchor="middle" x="1507" y="-193" font-family="Helvetica,sans-Serif" font-size="10.00">PlayButton</text>
</a>
</g>
</g>
<!-- Node18&#45;&gt;Node19 -->
<g id="edge22" class="edge"><title>Node18&#45;&gt;Node19</title>
<path fill="none" stroke="midnightblue" d="M1377.89,-201C1388.04,-201 1398.26,-201 1408.27,-201"/>
<polygon fill="midnightblue" stroke="midnightblue" points="1377.78,-197.5 1367.78,-201 1377.78,-204.5 1377.78,-197.5"/>
</g>
<!-- Node20 -->
<g id="node20" class="node"><title>Node20</title>
<g id="a_node20"><a xlink:href="../../db/d19/classslogo_1_1_u_i_1_1_module_creation_helper.html#ae1e60d37509c2e5eddcb2a6e70b4f650" target="_top" xlink:title="slogo.UI.ModuleCreationHelper.create\lFirstRowButtons">
<polygon fill="white" stroke="black" points="1646.5,-186 1646.5,-216 1843.5,-216 1843.5,-186 1646.5,-186"/>
<text text-anchor="start" x="1654.5" y="-204" font-family="Helvetica,sans-Serif" font-size="10.00">slogo.UI.ModuleCreationHelper.create</text>
<text text-anchor="middle" x="1745" y="-193" font-family="Helvetica,sans-Serif" font-size="10.00">FirstRowButtons</text>
</a>
</g>
</g>
<!-- Node19&#45;&gt;Node20 -->
<g id="edge23" class="edge"><title>Node19&#45;&gt;Node20</title>
<path fill="none" stroke="midnightblue" d="M1615.83,-201C1626.01,-201 1636.3,-201 1646.38,-201"/>
<polygon fill="midnightblue" stroke="midnightblue" points="1615.69,-197.5 1605.69,-201 1615.69,-204.5 1615.69,-197.5"/>
</g>
<!-- Node20&#45;&gt;Node6 -->
<g id="edge24" class="edge"><title>Node20&#45;&gt;Node6</title>
<path fill="none" stroke="midnightblue" d="M1821.15,-218.58C1828.89,-220.638 1836.63,-222.794 1844,-225 1877.86,-235.128 1915.63,-248.704 1943.09,-258.997"/>
<polygon fill="midnightblue" stroke="midnightblue" points="1821.91,-215.162 1811.35,-216.029 1820.15,-221.936 1821.91,-215.162"/>
</g>
<!-- Node22 -->
<g id="node22" class="node"><title>Node22</title>
<g id="a_node22"><a xlink:href="../../db/d19/classslogo_1_1_u_i_1_1_module_creation_helper.html#a803bac6b55bde712b21f2face1eeef81" target="_top" xlink:title="slogo.UI.ModuleCreationHelper.create\lTurtleCanvas">
<polygon fill="white" stroke="black" points="1884.5,-98 1884.5,-128 2081.5,-128 2081.5,-98 1884.5,-98"/>
<text text-anchor="start" x="1892.5" y="-116" font-family="Helvetica,sans-Serif" font-size="10.00">slogo.UI.ModuleCreationHelper.create</text>
<text text-anchor="middle" x="1983" y="-105" font-family="Helvetica,sans-Serif" font-size="10.00">TurtleCanvas</text>
</a>
</g>
</g>
<!-- Node21&#45;&gt;Node22 -->
<g id="edge26" class="edge"><title>Node21&#45;&gt;Node22</title>
<path fill="none" stroke="midnightblue" d="M1378.09,-113C1517.19,-113 1752.16,-113 1884.26,-113"/>
<polygon fill="midnightblue" stroke="midnightblue" points="1377.82,-109.5 1367.82,-113 1377.82,-116.5 1377.82,-109.5"/>
</g>
<!-- Node22&#45;&gt;Node7 -->
<g id="edge27" class="edge"><title>Node22&#45;&gt;Node7</title>
<path fill="none" stroke="midnightblue" d="M2066.42,-130.113C2092.9,-135.611 2122.03,-141.658 2147.73,-146.994"/>
<polygon fill="midnightblue" stroke="midnightblue" points="2066.91,-126.641 2056.41,-128.035 2065.49,-133.495 2066.91,-126.641"/>
</g>
<!-- Node24 -->
<g id="node24" class="node"><title>Node24</title>
<g id="a_node24"><a xlink:href="../../db/d19/classslogo_1_1_u_i_1_1_module_creation_helper.html#af7f2919454fdbf6e9d7d912e99634857" target="_top" xlink:title="slogo.UI.ModuleCreationHelper.create\lSelectors">
<polygon fill="white" stroke="black" points="1408.5,-340 1408.5,-370 1605.5,-370 1605.5,-340 1408.5,-340"/>
<text text-anchor="start" x="1416.5" y="-358" font-family="Helvetica,sans-Serif" font-size="10.00">slogo.UI.ModuleCreationHelper.create</text>
<text text-anchor="middle" x="1507" y="-347" font-family="Helvetica,sans-Serif" font-size="10.00">Selectors</text>
</a>
</g>
</g>
<!-- Node23&#45;&gt;Node24 -->
<g id="edge29" class="edge"><title>Node23&#45;&gt;Node24</title>
<path fill="none" stroke="midnightblue" d="M1337.81,-380.929C1360.03,-377.503 1384.89,-373.671 1408.54,-370.025"/>
<polygon fill="midnightblue" stroke="midnightblue" points="1337.16,-377.489 1327.81,-382.472 1338.22,-384.407 1337.16,-377.489"/>
</g>
<!-- Node24&#45;&gt;Node6 -->
<g id="edge30" class="edge"><title>Node24&#45;&gt;Node6</title>
<path fill="none" stroke="midnightblue" d="M1615.73,-351.485C1682.17,-347.658 1768.77,-339.67 1844,-323 1880.12,-314.997 1919.76,-300.263 1947.25,-289.034"/>
<polygon fill="midnightblue" stroke="midnightblue" points="1615.46,-347.994 1605.66,-352.042 1615.84,-354.984 1615.46,-347.994"/>
</g>
<!-- Node25&#45;&gt;Node24 -->
<g id="edge32" class="edge"><title>Node25&#45;&gt;Node24</title>
<path fill="none" stroke="midnightblue" d="M1345.18,-350.309C1365.4,-350.899 1387.37,-351.54 1408.39,-352.153"/>
<polygon fill="midnightblue" stroke="midnightblue" points="1345.19,-346.808 1335.1,-350.015 1344.99,-353.805 1345.19,-346.808"/>
</g>
<!-- Node26&#45;&gt;Node24 -->
<g id="edge34" class="edge"><title>Node26&#45;&gt;Node24</title>
<path fill="none" stroke="midnightblue" d="M1343.11,-418.213C1351.61,-416.155 1360.05,-413.766 1368,-411 1385.09,-405.054 1387.46,-399.324 1404,-392 1422.09,-383.993 1442.5,-376.329 1460.28,-370.075"/>
<polygon fill="midnightblue" stroke="midnightblue" points="1342.12,-414.849 1333.15,-420.479 1343.67,-421.675 1342.12,-414.849"/>
</g>
<!-- Node28 -->
<g id="node28" class="node"><title>Node28</title>
<g id="a_node28"><a xlink:href="../../db/d19/classslogo_1_1_u_i_1_1_module_creation_helper.html#a9fd730f7c1860d34bf4ac46c3828bd59" target="_top" xlink:title="slogo.UI.ModuleCreationHelper.activate\lStepIntoButton">
<polygon fill="white" stroke="black" points="1162.5,-49 1162.5,-79 1367.5,-79 1367.5,-49 1162.5,-49"/>
<text text-anchor="start" x="1170.5" y="-67" font-family="Helvetica,sans-Serif" font-size="10.00">slogo.UI.ModuleCreationHelper.activate</text>
<text text-anchor="middle" x="1265" y="-56" font-family="Helvetica,sans-Serif" font-size="10.00">StepIntoButton</text>
</a>
</g>
</g>
<!-- Node27&#45;&gt;Node28 -->
<g id="edge36" class="edge"><title>Node27&#45;&gt;Node28</title>
<path fill="none" stroke="midnightblue" d="M1064.02,-151.68C1086.14,-133.524 1124.44,-104.569 1162,-88 1169.74,-84.5861 1178.03,-81.6205 1186.42,-79.0531"/>
<polygon fill="midnightblue" stroke="midnightblue" points="1061.54,-149.191 1056.1,-158.286 1066.02,-154.565 1061.54,-149.191"/>
</g>
<!-- Node29 -->
<g id="node29" class="node"><title>Node29</title>
<g id="a_node29"><a xlink:href="../../db/d19/classslogo_1_1_u_i_1_1_module_creation_helper.html#a4a6f1f009507c25be8c7c28cbba35f3b" target="_top" xlink:title="slogo.UI.ModuleCreationHelper.create\lDebugStepIntoButton">
<polygon fill="white" stroke="black" points="1408.5,-49 1408.5,-79 1605.5,-79 1605.5,-49 1408.5,-49"/>
<text text-anchor="start" x="1416.5" y="-67" font-family="Helvetica,sans-Serif" font-size="10.00">slogo.UI.ModuleCreationHelper.create</text>
<text text-anchor="middle" x="1507" y="-56" font-family="Helvetica,sans-Serif" font-size="10.00">DebugStepIntoButton</text>
</a>
</g>
</g>
<!-- Node28&#45;&gt;Node29 -->
<g id="edge37" class="edge"><title>Node28&#45;&gt;Node29</title>
<path fill="none" stroke="midnightblue" d="M1377.89,-64C1388.04,-64 1398.26,-64 1408.27,-64"/>
<polygon fill="midnightblue" stroke="midnightblue" points="1377.78,-60.5001 1367.78,-64 1377.78,-67.5001 1377.78,-60.5001"/>
</g>
<!-- Node30 -->
<g id="node30" class="node"><title>Node30</title>
<g id="a_node30"><a xlink:href="../../db/d19/classslogo_1_1_u_i_1_1_module_creation_helper.html#a975af4ea47dc85df72215bdf1a0d20ce" target="_top" xlink:title="slogo.UI.ModuleCreationHelper.create\lDebugModules">
<polygon fill="white" stroke="black" points="1646.5,-49 1646.5,-79 1843.5,-79 1843.5,-49 1646.5,-49"/>
<text text-anchor="start" x="1654.5" y="-67" font-family="Helvetica,sans-Serif" font-size="10.00">slogo.UI.ModuleCreationHelper.create</text>
<text text-anchor="middle" x="1745" y="-56" font-family="Helvetica,sans-Serif" font-size="10.00">DebugModules</text>
</a>
</g>
</g>
<!-- Node29&#45;&gt;Node30 -->
<g id="edge38" class="edge"><title>Node29&#45;&gt;Node30</title>
<path fill="none" stroke="midnightblue" d="M1615.83,-64C1626.01,-64 1636.3,-64 1646.38,-64"/>
<polygon fill="midnightblue" stroke="midnightblue" points="1615.69,-60.5001 1605.69,-64 1615.69,-67.5001 1615.69,-60.5001"/>
</g>
<!-- Node30&#45;&gt;Node7 -->
<g id="edge39" class="edge"><title>Node30&#45;&gt;Node7</title>
<path fill="none" stroke="midnightblue" d="M1853.89,-59.8415C1921.8,-60.0824 2010.57,-65.6947 2086,-88 2129.32,-100.811 2174.2,-129.24 2199.46,-146.895"/>
<polygon fill="midnightblue" stroke="midnightblue" points="1853.6,-56.3415 1843.6,-59.8453 1853.6,-63.3415 1853.6,-56.3415"/>
</g>
<!-- Node32 -->
<g id="node32" class="node"><title>Node32</title>
<g id="a_node32"><a xlink:href="../../db/d19/classslogo_1_1_u_i_1_1_module_creation_helper.html#a0fed0bb32bf2643d6fd5c24d82e8e18e" target="_top" xlink:title="slogo.UI.ModuleCreationHelper.activate\lStepOverButton">
<polygon fill="white" stroke="black" points="1162.5,-0 1162.5,-30 1367.5,-30 1367.5,-0 1162.5,-0"/>
<text text-anchor="start" x="1170.5" y="-18" font-family="Helvetica,sans-Serif" font-size="10.00">slogo.UI.ModuleCreationHelper.activate</text>
<text text-anchor="middle" x="1265" y="-7" font-family="Helvetica,sans-Serif" font-size="10.00">StepOverButton</text>
</a>
</g>
</g>
<!-- Node31&#45;&gt;Node32 -->
<g id="edge41" class="edge"><title>Node31&#45;&gt;Node32</title>
<path fill="none" stroke="midnightblue" d="M1108.51,-42.69C1130.64,-38.7487 1155.84,-34.2618 1179.41,-30.0645"/>
<polygon fill="midnightblue" stroke="midnightblue" points="1107.8,-39.2604 1098.57,-44.4595 1109.03,-46.152 1107.8,-39.2604"/>
</g>
<!-- Node33 -->
<g id="node33" class="node"><title>Node33</title>
<g id="a_node33"><a xlink:href="../../db/d19/classslogo_1_1_u_i_1_1_module_creation_helper.html#aa1e7dc2b509360583790fba0d3819c8d" target="_top" xlink:title="slogo.UI.ModuleCreationHelper.create\lDebugStepOverButton">
<polygon fill="white" stroke="black" points="1408.5,-0 1408.5,-30 1605.5,-30 1605.5,-0 1408.5,-0"/>
<text text-anchor="start" x="1416.5" y="-18" font-family="Helvetica,sans-Serif" font-size="10.00">slogo.UI.ModuleCreationHelper.create</text>
<text text-anchor="middle" x="1507" y="-7" font-family="Helvetica,sans-Serif" font-size="10.00">DebugStepOverButton</text>
</a>
</g>
</g>
<!-- Node32&#45;&gt;Node33 -->
<g id="edge42" class="edge"><title>Node32&#45;&gt;Node33</title>
<path fill="none" stroke="midnightblue" d="M1377.89,-15C1388.04,-15 1398.26,-15 1408.27,-15"/>
<polygon fill="midnightblue" stroke="midnightblue" points="1377.78,-11.5001 1367.78,-15 1377.78,-18.5001 1377.78,-11.5001"/>
</g>
<!-- Node33&#45;&gt;Node30 -->
<g id="edge43" class="edge"><title>Node33&#45;&gt;Node30</title>
<path fill="none" stroke="midnightblue" d="M1590.42,-32.1127C1616.9,-37.6115 1646.03,-43.658 1671.73,-48.9938"/>
<polygon fill="midnightblue" stroke="midnightblue" points="1590.91,-28.6407 1580.41,-30.0346 1589.49,-35.4945 1590.91,-28.6407"/>
</g>
</g>
</svg>
