<?xml version="1.0" encoding="UTF-8" standalone="no"?>
<!DOCTYPE svg PUBLIC "-//W3C//DTD SVG 1.1//EN"
 "http://www.w3.org/Graphics/SVG/1.1/DTD/svg11.dtd">
<!-- Generated by graphviz version 2.36.0 (20140111.2315)
 -->
<!-- Title: slogo.UI.ModuleCreationHelper.addToCertainList Pages: 1 -->
<svg width="576pt" height="38pt"
 viewBox="0.00 0.00 576.00 38.00" xmlns="http://www.w3.org/2000/svg" xmlns:xlink="http://www.w3.org/1999/xlink">
<g id="graph0" class="graph" transform="scale(1 1) rotate(0) translate(4 34)">
<title>slogo.UI.ModuleCreationHelper.addToCertainList</title>
<polygon fill="white" stroke="none" points="-4,4 -4,-34 572,-34 572,4 -4,4"/>
<!-- Node1 -->
<g id="node1" class="node"><title>Node1</title>
<polygon fill="#bfbfbf" stroke="black" points="0.5,-0 0.5,-30 185.5,-30 185.5,-0 0.5,-0"/>
<text text-anchor="start" x="8.5" y="-18" font-family="Helvetica,sans-Serif" font-size="10.00">slogo.UI.ModuleCreationHelper.add</text>
<text text-anchor="middle" x="93" y="-7" font-family="Helvetica,sans-Serif" font-size="10.00">ToCertainList</text>
</g>
<!-- Node2 -->
<g id="node2" class="node"><title>Node2</title>
<g id="a_node2"><a xlink:href="../../db/dc0/classslogo_1_1_u_i_1_1_list_view_all_s_l_o_g_o.html#a5f743353bce4830934bcf532b97e7925" target="_top" xlink:title="slogo.UI.ListViewAllSLOGO.set\lItems">
<polygon fill="white" stroke="black" points="222.5,-0 222.5,-30 381.5,-30 381.5,-0 222.5,-0"/>
<text text-anchor="start" x="230.5" y="-18" font-family="Helvetica,sans-Serif" font-size="10.00">slogo.UI.ListViewAllSLOGO.set</text>
<text text-anchor="middle" x="302" y="-7" font-family="Helvetica,sans-Serif" font-size="10.00">Items</text>
</a>
</g>
</g>
<!-- Node1&#45;&gt;Node2 -->
<g id="edge1" class="edge"><title>Node1&#45;&gt;Node2</title>
<path fill="none" stroke="midnightblue" d="M185.697,-15C194.48,-15 203.378,-15 212.134,-15"/>
<polygon fill="midnightblue" stroke="midnightblue" points="212.331,-18.5001 222.331,-15 212.331,-11.5001 212.331,-18.5001"/>
</g>
<!-- Node3 -->
<g id="node3" class="node"><title>Node3</title>
<g id="a_node3"><a xlink:href="../../da/d8f/classslogo_1_1_u_i_1_1_list_view_creator.html#a081368f4f2cd74f99d9d251625ae4871" target="_top" xlink:title="slogo.UI.ListViewCreator.get\lListView">
<polygon fill="white" stroke="black" points="418,-0 418,-30 568,-30 568,-0 418,-0"/>
<text text-anchor="start" x="426" y="-18" font-family="Helvetica,sans-Serif" font-size="10.00">slogo.UI.ListViewCreator.get</text>
<text text-anchor="middle" x="493" y="-7" font-family="Helvetica,sans-Serif" font-size="10.00">ListView</text>
</a>
</g>
</g>
<!-- Node2&#45;&gt;Node3 -->
<g id="edge2" class="edge"><title>Node2&#45;&gt;Node3</title>
<path fill="none" stroke="midnightblue" d="M381.511,-15C390.186,-15 399.046,-15 407.787,-15"/>
<polygon fill="midnightblue" stroke="midnightblue" points="407.975,-18.5001 417.975,-15 407.975,-11.5001 407.975,-18.5001"/>
</g>
</g>
</svg>
