<?xml version="1.0" encoding="UTF-8" standalone="no"?>
<!DOCTYPE svg PUBLIC "-//W3C//DTD SVG 1.1//EN"
 "http://www.w3.org/Graphics/SVG/1.1/DTD/svg11.dtd">
<!-- Generated by graphviz version 2.36.0 (20140111.2315)
 -->
<!-- Title: slogo.UI.ModuleCreationHelper.clearUserVariables Pages: 1 -->
<!--zoomable 427 -->
<svg id="main" version="1.1" xmlns="http://www.w3.org/2000/svg" xmlns:xlink="http://www.w3.org/1999/xlink" xml:space="preserve" onload="init(evt)">
<style type="text/css"><![CDATA[
.edge:hover path { stroke: red; }
.edge:hover polygon { stroke: red; fill: red; }
]]></style>
<script type="text/javascript"><![CDATA[
var edges = document.getElementsByTagName('g');
if (edges && edges.length) {
  for (var i=0;i<edges.length;i++) {
    if (edges[i].id.substr(0,4)=='edge') {
      edges[i].setAttribute('class','edge');
    }
  }
}
]]></script>
        <defs>
                <circle id="rim" cx="0" cy="0" r="7"/>
                <circle id="rim2" cx="0" cy="0" r="3.5"/>
                <g id="zoomPlus">
                        <use xlink:href="#rim" fill="#404040">
                                <set attributeName="fill" to="#808080" begin="zoomplus.mouseover" end="zoomplus.mouseout"/>
                        </use>
                        <path d="M-4,0h8M0,-4v8" fill="none" stroke="white" stroke-width="1.5" pointer-events="none"/>
                </g>
                <g id="zoomMin">
                        <use xlink:href="#rim" fill="#404040">
                                <set attributeName="fill" to="#808080" begin="zoomminus.mouseover" end="zoomminus.mouseout"/>
                        </use>
                        <path d="M-4,0h8" fill="none" stroke="white" stroke-width="1.5" pointer-events="none"/>
                </g>
                <g id="dirArrow">
                        <path fill="none" stroke="white" stroke-width="1.5" d="M0,-3.0v7 M-2.5,-0.5L0,-3.0L2.5,-0.5"/>
                </g>
               <g id="resetDef">
                       <use xlink:href="#rim2" fill="#404040">
                               <set attributeName="fill" to="#808080" begin="reset.mouseover" end="reset.mouseout"/>
                       </use>
               </g>
        </defs>

<script type="text/javascript">
var viewWidth = 2412;
var viewHeight = 427;
var sectionId = 'dynsection-39';
</script>
<script xlink:href="../../svgpan.js"/>
<svg id="graph" class="graph">
<g id="viewport">
<title>slogo.UI.ModuleCreationHelper.clearUserVariables</title>
<polygon fill="white" stroke="none" points="-4,4 -4,-423 2408,-423 2408,4 -4,4"/>
<!-- Node1 -->
<g id="node1" class="node"><title>Node1</title>
<polygon fill="#bfbfbf" stroke="black" points="0,-49 0,-79 190,-79 190,-49 0,-49"/>
<text text-anchor="start" x="8" y="-67" font-family="Helvetica,sans-Serif" font-size="10.00">slogo.UI.ModuleCreationHelper.clear</text>
<text text-anchor="middle" x="95" y="-56" font-family="Helvetica,sans-Serif" font-size="10.00">UserVariables</text>
</g>
<!-- Node2 -->
<g id="node2" class="node"><title>Node2</title>
<g id="a_node2"><a xlink:href="../../df/d2d/classslogo_1_1_view.html#aa90e5d95d422b58b7f4b7f8a049defe1" target="_top" xlink:title="slogo.View.executeCommand">
<polygon fill="white" stroke="black" points="226,-54.5 226,-73.5 384,-73.5 384,-54.5 226,-54.5"/>
<text text-anchor="middle" x="305" y="-61.5" font-family="Helvetica,sans-Serif" font-size="10.00">slogo.View.executeCommand</text>
</a>
</g>
</g>
<!-- Node1&#45;&gt;Node2 -->
<g id="edge1" class="edge"><title>Node1&#45;&gt;Node2</title>
<path fill="none" stroke="midnightblue" d="M200.356,-64C208.966,-64 217.572,-64 225.938,-64"/>
<polygon fill="midnightblue" stroke="midnightblue" points="200.263,-60.5001 190.263,-64 200.263,-67.5001 200.263,-60.5001"/>
</g>
<!-- Node3 -->
<g id="node3" class="node"><title>Node3</title>
<g id="a_node3"><a xlink:href="../../df/d2d/classslogo_1_1_view.html#aee563f6a0b15ac6668e4dcbdad40c73c" target="_top" xlink:title="slogo.View.sendCommandTo\lBackend">
<polygon fill="white" stroke="black" points="426,-213 426,-243 578,-243 578,-213 426,-213"/>
<text text-anchor="start" x="434" y="-231" font-family="Helvetica,sans-Serif" font-size="10.00">slogo.View.sendCommandTo</text>
<text text-anchor="middle" x="502" y="-220" font-family="Helvetica,sans-Serif" font-size="10.00">Backend</text>
</a>
</g>
</g>
<!-- Node2&#45;&gt;Node3 -->
<g id="edge2" class="edge"><title>Node2&#45;&gt;Node3</title>
<path fill="none" stroke="midnightblue" d="M325.054,-80.0252C362.765,-111.741 446.433,-182.108 483.146,-212.984"/>
<polygon fill="midnightblue" stroke="midnightblue" points="327.233,-77.2841 317.327,-73.5262 322.727,-82.6414 327.233,-77.2841"/>
</g>
<!-- Node23 -->
<g id="node23" class="node"><title>Node23</title>
<g id="a_node23"><a xlink:href="../../df/d2d/classslogo_1_1_view.html#a4c3084a198acf85804800d70eff9ee51" target="_top" xlink:title="slogo.View.stepIntoCommand">
<polygon fill="white" stroke="black" points="423,-54.5 423,-73.5 581,-73.5 581,-54.5 423,-54.5"/>
<text text-anchor="middle" x="502" y="-61.5" font-family="Helvetica,sans-Serif" font-size="10.00">slogo.View.stepIntoCommand</text>
</a>
</g>
</g>
<!-- Node2&#45;&gt;Node23 -->
<g id="edge30" class="edge"><title>Node2&#45;&gt;Node23</title>
<path fill="none" stroke="midnightblue" d="M394.402,-64C403.87,-64 413.454,-64 422.792,-64"/>
<polygon fill="midnightblue" stroke="midnightblue" points="394.19,-60.5001 384.19,-64 394.19,-67.5001 394.19,-60.5001"/>
</g>
<!-- Node27 -->
<g id="node27" class="node"><title>Node27</title>
<g id="a_node27"><a xlink:href="../../df/d2d/classslogo_1_1_view.html#ac8b7f574c679e744a430f1649dc55e68" target="_top" xlink:title="slogo.View.stepOverCommand">
<polygon fill="white" stroke="black" points="420.5,-11.5 420.5,-30.5 583.5,-30.5 583.5,-11.5 420.5,-11.5"/>
<text text-anchor="middle" x="502" y="-18.5" font-family="Helvetica,sans-Serif" font-size="10.00">slogo.View.stepOverCommand</text>
</a>
</g>
</g>
<!-- Node2&#45;&gt;Node27 -->
<g id="edge35" class="edge"><title>Node2&#45;&gt;Node27</title>
<path fill="none" stroke="midnightblue" d="M359.056,-52.3005C390.068,-45.462 428.711,-36.9406 457.844,-30.5164"/>
<polygon fill="midnightblue" stroke="midnightblue" points="358.288,-48.8855 349.277,-54.4569 359.796,-55.7213 358.288,-48.8855"/>
</g>
<!-- Node4 -->
<g id="node4" class="node"><title>Node4</title>
<g id="a_node4"><a xlink:href="../../db/d19/classslogo_1_1_u_i_1_1_module_creation_helper.html#a69e17abcc7cf9a6ed7261d8fb1d631fa" target="_top" xlink:title="slogo.UI.ModuleCreationHelper.activate\lIncreaseDecreaseButtons">
<polygon fill="white" stroke="black" points="620.5,-389 620.5,-419 825.5,-419 825.5,-389 620.5,-389"/>
<text text-anchor="start" x="628.5" y="-407" font-family="Helvetica,sans-Serif" font-size="10.00">slogo.UI.ModuleCreationHelper.activate</text>
<text text-anchor="middle" x="723" y="-396" font-family="Helvetica,sans-Serif" font-size="10.00">IncreaseDecreaseButtons</text>
</a>
</g>
</g>
<!-- Node3&#45;&gt;Node4 -->
<g id="edge3" class="edge"><title>Node3&#45;&gt;Node4</title>
<path fill="none" stroke="midnightblue" d="M516.043,-252.219C534.779,-284.724 572.363,-342.06 620,-374 629.122,-380.116 639.514,-385.01 650.092,-388.919"/>
<polygon fill="midnightblue" stroke="midnightblue" points="519.013,-250.361 511.054,-243.368 512.915,-253.798 519.013,-250.361"/>
</g>
<!-- Node11 -->
<g id="node11" class="node"><title>Node11</title>
<g id="a_node11"><a xlink:href="../../db/d19/classslogo_1_1_u_i_1_1_module_creation_helper.html#aa70b0ad9e90e62509149bfd2ef2ba209" target="_top" xlink:title="slogo.UI.ModuleCreationHelper.activate\lKeyEvents">
<polygon fill="white" stroke="black" points="1346.5,-136 1346.5,-166 1551.5,-166 1551.5,-136 1346.5,-136"/>
<text text-anchor="start" x="1354.5" y="-154" font-family="Helvetica,sans-Serif" font-size="10.00">slogo.UI.ModuleCreationHelper.activate</text>
<text text-anchor="middle" x="1449" y="-143" font-family="Helvetica,sans-Serif" font-size="10.00">KeyEvents</text>
</a>
</g>
</g>
<!-- Node3&#45;&gt;Node11 -->
<g id="edge11" class="edge"><title>Node3&#45;&gt;Node11</title>
<path fill="none" stroke="midnightblue" d="M532.179,-207.164C554.902,-192.251 587.88,-173.388 620,-165 754.15,-129.97 1156.16,-139.777 1346.26,-146.744"/>
<polygon fill="midnightblue" stroke="midnightblue" points="530.049,-204.378 523.699,-212.86 533.952,-210.189 530.049,-204.378"/>
</g>
<!-- Node12 -->
<g id="node12" class="node"><title>Node12</title>
<g id="a_node12"><a xlink:href="../../db/d19/classslogo_1_1_u_i_1_1_module_creation_helper.html#a2e841243ec3ca474e8822102343acc88" target="_top" xlink:title="slogo.UI.ModuleCreationHelper.activate\lNewTurtleButton">
<polygon fill="white" stroke="black" points="862.5,-344 862.5,-374 1067.5,-374 1067.5,-344 862.5,-344"/>
<text text-anchor="start" x="870.5" y="-362" font-family="Helvetica,sans-Serif" font-size="10.00">slogo.UI.ModuleCreationHelper.activate</text>
<text text-anchor="middle" x="965" y="-351" font-family="Helvetica,sans-Serif" font-size="10.00">NewTurtleButton</text>
</a>
</g>
</g>
<!-- Node3&#45;&gt;Node12 -->
<g id="edge13" class="edge"><title>Node3&#45;&gt;Node12</title>
<path fill="none" stroke="midnightblue" d="M519.021,-251.155C539.099,-278.009 576.24,-321.013 620,-340 696.408,-373.152 791.474,-375.86 862.293,-371.435"/>
<polygon fill="midnightblue" stroke="midnightblue" points="521.834,-249.073 513.115,-243.055 516.178,-253.197 521.834,-249.073"/>
</g>
<!-- Node14 -->
<g id="node14" class="node"><title>Node14</title>
<g id="a_node14"><a xlink:href="../../db/d19/classslogo_1_1_u_i_1_1_module_creation_helper.html#a9b1f07ab673191067907a059b1b0c524" target="_top" xlink:title="slogo.UI.ModuleCreationHelper.activate\lPlayButton">
<polygon fill="white" stroke="black" points="620.5,-301 620.5,-331 825.5,-331 825.5,-301 620.5,-301"/>
<text text-anchor="start" x="628.5" y="-319" font-family="Helvetica,sans-Serif" font-size="10.00">slogo.UI.ModuleCreationHelper.activate</text>
<text text-anchor="middle" x="723" y="-308" font-family="Helvetica,sans-Serif" font-size="10.00">PlayButton</text>
</a>
</g>
</g>
<!-- Node3&#45;&gt;Node14 -->
<g id="edge16" class="edge"><title>Node3&#45;&gt;Node14</title>
<path fill="none" stroke="midnightblue" d="M535.42,-248.354C558.332,-262.006 590.156,-279.522 620,-291 629.7,-294.73 640.137,-298.039 650.502,-300.929"/>
<polygon fill="midnightblue" stroke="midnightblue" points="537.162,-245.317 526.792,-243.145 533.544,-251.31 537.162,-245.317"/>
</g>
<!-- Node17 -->
<g id="node17" class="node"><title>Node17</title>
<g id="a_node17"><a xlink:href="../../db/d19/classslogo_1_1_u_i_1_1_module_creation_helper.html#a3a38d485562cb17591ec3fd07cffc18a" target="_top" xlink:title="slogo.UI.ModuleCreationHelper.activate\lTurtleCanvas">
<polygon fill="white" stroke="black" points="1104.5,-87 1104.5,-117 1309.5,-117 1309.5,-87 1104.5,-87"/>
<text text-anchor="start" x="1112.5" y="-105" font-family="Helvetica,sans-Serif" font-size="10.00">slogo.UI.ModuleCreationHelper.activate</text>
<text text-anchor="middle" x="1207" y="-94" font-family="Helvetica,sans-Serif" font-size="10.00">TurtleCanvas</text>
</a>
</g>
</g>
<!-- Node3&#45;&gt;Node17 -->
<g id="edge20" class="edge"><title>Node3&#45;&gt;Node17</title>
<path fill="none" stroke="midnightblue" d="M522.366,-205.232C543.633,-182.064 580.105,-147.434 620,-132 705.507,-98.92 960.479,-97.5272 1104.33,-99.6157"/>
<polygon fill="midnightblue" stroke="midnightblue" points="519.563,-203.115 515.497,-212.898 524.777,-207.786 519.563,-203.115"/>
</g>
<!-- Node19 -->
<g id="node19" class="node"><title>Node19</title>
<g id="a_node19"><a xlink:href="../../d1/d5f/classslogo_1_1_u_i_1_1_path_color_selector.html#ad3d9c82a0904c97edcec7cf67b85bd7b" target="_top" xlink:title="slogo.UI.PathColorSelector.create">
<polygon fill="white" stroke="black" points="635,-262.5 635,-281.5 811,-281.5 811,-262.5 635,-262.5"/>
<text text-anchor="middle" x="723" y="-269.5" font-family="Helvetica,sans-Serif" font-size="10.00">slogo.UI.PathColorSelector.create</text>
</a>
</g>
</g>
<!-- Node3&#45;&gt;Node19 -->
<g id="edge23" class="edge"><title>Node3&#45;&gt;Node19</title>
<path fill="none" stroke="midnightblue" d="M585.739,-245.065C597.243,-247.411 608.914,-249.776 620,-252 637.251,-255.46 656.157,-259.186 672.955,-262.473"/>
<polygon fill="midnightblue" stroke="midnightblue" points="586.189,-241.585 575.69,-243.013 584.788,-248.443 586.189,-241.585"/>
</g>
<!-- Node21 -->
<g id="node21" class="node"><title>Node21</title>
<g id="a_node21"><a xlink:href="../../d4/d8d/classslogo_1_1_u_i_1_1_background_color_selector.html#ad75ba4ce104e071811d0fe039a4e839f" target="_top" xlink:title="slogo.UI.BackgroundColor\lSelector.create">
<polygon fill="white" stroke="black" points="653,-213 653,-243 793,-243 793,-213 653,-213"/>
<text text-anchor="start" x="661" y="-231" font-family="Helvetica,sans-Serif" font-size="10.00">slogo.UI.BackgroundColor</text>
<text text-anchor="middle" x="723" y="-220" font-family="Helvetica,sans-Serif" font-size="10.00">Selector.create</text>
</a>
</g>
</g>
<!-- Node3&#45;&gt;Node21 -->
<g id="edge26" class="edge"><title>Node3&#45;&gt;Node21</title>
<path fill="none" stroke="midnightblue" d="M588.142,-228C609.597,-228 632.367,-228 652.925,-228"/>
<polygon fill="midnightblue" stroke="midnightblue" points="588.061,-224.5 578.061,-228 588.061,-231.5 588.061,-224.5"/>
</g>
<!-- Node22 -->
<g id="node22" class="node"><title>Node22</title>
<g id="a_node22"><a xlink:href="../../dd/da7/classslogo_1_1_u_i_1_1_turtle_image_selector.html#a3f268d9196ffebcbb5dc322d2897a9fe" target="_top" xlink:title="slogo.UI.TurtleImageSelector.create">
<polygon fill="white" stroke="black" points="630,-174.5 630,-193.5 816,-193.5 816,-174.5 630,-174.5"/>
<text text-anchor="middle" x="723" y="-181.5" font-family="Helvetica,sans-Serif" font-size="10.00">slogo.UI.TurtleImageSelector.create</text>
</a>
</g>
</g>
<!-- Node3&#45;&gt;Node22 -->
<g id="edge28" class="edge"><title>Node3&#45;&gt;Node22</title>
<path fill="none" stroke="midnightblue" d="M582.012,-210.821C594.704,-208.147 607.705,-205.458 620,-203 635.985,-199.804 653.416,-196.493 669.272,-193.548"/>
<polygon fill="midnightblue" stroke="midnightblue" points="580.977,-207.463 571.919,-212.958 582.427,-214.311 580.977,-207.463"/>
</g>
<!-- Node5 -->
<g id="node5" class="node"><title>Node5</title>
<g id="a_node5"><a xlink:href="../../db/d19/classslogo_1_1_u_i_1_1_module_creation_helper.html#adce7362386f9a7b3006e7db08a2d578d" target="_top" xlink:title="slogo.UI.ModuleCreationHelper.create\lIncreaseDecreaseButtons">
<polygon fill="white" stroke="black" points="1108.5,-380 1108.5,-410 1305.5,-410 1305.5,-380 1108.5,-380"/>
<text text-anchor="start" x="1116.5" y="-398" font-family="Helvetica,sans-Serif" font-size="10.00">slogo.UI.ModuleCreationHelper.create</text>
<text text-anchor="middle" x="1207" y="-387" font-family="Helvetica,sans-Serif" font-size="10.00">IncreaseDecreaseButtons</text>
</a>
</g>
</g>
<!-- Node4&#45;&gt;Node5 -->
<g id="edge4" class="edge"><title>Node4&#45;&gt;Node5</title>
<path fill="none" stroke="midnightblue" d="M835.792,-401.913C918.226,-400.373 1029.29,-398.299 1108.21,-396.826"/>
<polygon fill="midnightblue" stroke="midnightblue" points="835.564,-398.416 825.631,-402.102 835.694,-405.415 835.564,-398.416"/>
</g>
<!-- Node6 -->
<g id="node6" class="node"><title>Node6</title>
<g id="a_node6"><a xlink:href="../../db/d19/classslogo_1_1_u_i_1_1_module_creation_helper.html#a7c650957b2389d6e6d36e8be8a33cd2b" target="_top" xlink:title="slogo.UI.ModuleCreationHelper.create\lSelectorVBoxModules">
<polygon fill="white" stroke="black" points="1350.5,-253 1350.5,-283 1547.5,-283 1547.5,-253 1350.5,-253"/>
<text text-anchor="start" x="1358.5" y="-271" font-family="Helvetica,sans-Serif" font-size="10.00">slogo.UI.ModuleCreationHelper.create</text>
<text text-anchor="middle" x="1449" y="-260" font-family="Helvetica,sans-Serif" font-size="10.00">SelectorVBoxModules</text>
</a>
</g>
</g>
<!-- Node5&#45;&gt;Node6 -->
<g id="edge5" class="edge"><title>Node5&#45;&gt;Node6</title>
<path fill="none" stroke="midnightblue" d="M1291,-376.732C1297.54,-374.424 1303.95,-371.854 1310,-369 1358.6,-346.077 1407.46,-305.079 1431.92,-283.025"/>
<polygon fill="midnightblue" stroke="midnightblue" points="1289.75,-373.461 1281.36,-379.93 1291.95,-380.105 1289.75,-373.461"/>
</g>
<!-- Node7 -->
<g id="node7" class="node"><title>Node7</title>
<g id="a_node7"><a xlink:href="../../db/d19/classslogo_1_1_u_i_1_1_module_creation_helper.html#afb9dbbbad7d872234a5b296fe129a34e" target="_top" xlink:title="slogo.UI.ModuleCreationHelper.create\lMainPageModules">
<polygon fill="white" stroke="black" points="1588.5,-136 1588.5,-166 1785.5,-166 1785.5,-136 1588.5,-136"/>
<text text-anchor="start" x="1596.5" y="-154" font-family="Helvetica,sans-Serif" font-size="10.00">slogo.UI.ModuleCreationHelper.create</text>
<text text-anchor="middle" x="1687" y="-143" font-family="Helvetica,sans-Serif" font-size="10.00">MainPageModules</text>
</a>
</g>
</g>
<!-- Node6&#45;&gt;Node7 -->
<g id="edge6" class="edge"><title>Node6&#45;&gt;Node7</title>
<path fill="none" stroke="midnightblue" d="M1489.58,-248.38C1536.29,-225.222 1612.96,-187.212 1655.37,-166.184"/>
<polygon fill="midnightblue" stroke="midnightblue" points="1487.77,-245.366 1480.37,-252.944 1490.88,-251.638 1487.77,-245.366"/>
</g>
<!-- Node8 -->
<g id="node8" class="node"><title>Node8</title>
<g id="a_node8"><a xlink:href="../../d9/d33/classslogo_1_1_u_i_1_1_main.html#a15b7f2e399ee24d160550993ab737e73" target="_top" xlink:title="slogo.UI.Main.start">
<polygon fill="white" stroke="black" points="1822,-150.5 1822,-169.5 1928,-169.5 1928,-150.5 1822,-150.5"/>
<text text-anchor="middle" x="1875" y="-157.5" font-family="Helvetica,sans-Serif" font-size="10.00">slogo.UI.Main.start</text>
</a>
</g>
</g>
<!-- Node7&#45;&gt;Node8 -->
<g id="edge7" class="edge"><title>Node7&#45;&gt;Node8</title>
<path fill="none" stroke="midnightblue" d="M1795.8,-156.216C1804.76,-156.65 1813.53,-157.074 1821.76,-157.472"/>
<polygon fill="midnightblue" stroke="midnightblue" points="1795.79,-152.712 1785.63,-155.724 1795.45,-159.703 1795.79,-152.712"/>
</g>
<!-- Node9 -->
<g id="node9" class="node"><title>Node9</title>
<g id="a_node9"><a xlink:href="../../db/d19/classslogo_1_1_u_i_1_1_module_creation_helper.html#a3be12a7cc2b8a219db1e296211a2cb88" target="_top" xlink:title="slogo.UI.ModuleCreationHelper.activate\lExtraWorkspaceButton">
<polygon fill="white" stroke="black" points="1964.5,-163 1964.5,-193 2169.5,-193 2169.5,-163 1964.5,-163"/>
<text text-anchor="start" x="1972.5" y="-181" font-family="Helvetica,sans-Serif" font-size="10.00">slogo.UI.ModuleCreationHelper.activate</text>
<text text-anchor="middle" x="2067" y="-170" font-family="Helvetica,sans-Serif" font-size="10.00">ExtraWorkspaceButton</text>
</a>
</g>
</g>
<!-- Node8&#45;&gt;Node9 -->
<g id="edge8" class="edge"><title>Node8&#45;&gt;Node9</title>
<path fill="none" stroke="midnightblue" d="M1938.22,-165.894C1946.63,-166.691 1955.44,-167.526 1964.32,-168.367"/>
<polygon fill="midnightblue" stroke="midnightblue" points="1938.46,-162.401 1928.17,-164.942 1937.79,-169.37 1938.46,-162.401"/>
</g>
<!-- Node10 -->
<g id="node10" class="node"><title>Node10</title>
<g id="a_node10"><a xlink:href="../../db/d19/classslogo_1_1_u_i_1_1_module_creation_helper.html#a702c1ebe24d2857a10c666eb1fcc315d" target="_top" xlink:title="slogo.UI.ModuleCreationHelper.create\lExtraWorkspaceButton">
<polygon fill="white" stroke="black" points="2206.5,-189 2206.5,-219 2403.5,-219 2403.5,-189 2206.5,-189"/>
<text text-anchor="start" x="2214.5" y="-207" font-family="Helvetica,sans-Serif" font-size="10.00">slogo.UI.ModuleCreationHelper.create</text>
<text text-anchor="middle" x="2305" y="-196" font-family="Helvetica,sans-Serif" font-size="10.00">ExtraWorkspaceButton</text>
</a>
</g>
</g>
<!-- Node9&#45;&gt;Node10 -->
<g id="edge9" class="edge"><title>Node9&#45;&gt;Node10</title>
<path fill="none" stroke="midnightblue" d="M2179.77,-190.313C2188.62,-191.289 2197.52,-192.27 2206.27,-193.234"/>
<polygon fill="midnightblue" stroke="midnightblue" points="2180.12,-186.831 2169.8,-189.215 2179.35,-193.789 2180.12,-186.831"/>
</g>
<!-- Node10&#45;&gt;Node6 -->
<g id="edge10" class="edge"><title>Node10&#45;&gt;Node6</title>
<path fill="none" stroke="midnightblue" d="M2196.34,-212.068C2028.9,-224.617 1708.6,-248.62 1547.55,-260.69"/>
<polygon fill="midnightblue" stroke="midnightblue" points="2196.7,-215.551 2206.41,-211.313 2196.18,-208.571 2196.7,-215.551"/>
</g>
<!-- Node11&#45;&gt;Node7 -->
<g id="edge12" class="edge"><title>Node11&#45;&gt;Node7</title>
<path fill="none" stroke="midnightblue" d="M1562.05,-151C1570.81,-151 1579.62,-151 1588.27,-151"/>
<polygon fill="midnightblue" stroke="midnightblue" points="1561.8,-147.5 1551.8,-151 1561.8,-154.5 1561.8,-147.5"/>
</g>
<!-- Node13 -->
<g id="node13" class="node"><title>Node13</title>
<g id="a_node13"><a xlink:href="../../db/d19/classslogo_1_1_u_i_1_1_module_creation_helper.html#a07f5483df317cdf80e8ea2dda5699afa" target="_top" xlink:title="slogo.UI.ModuleCreationHelper.create\lNewTurtleButton">
<polygon fill="white" stroke="black" points="1108.5,-330 1108.5,-360 1305.5,-360 1305.5,-330 1108.5,-330"/>
<text text-anchor="start" x="1116.5" y="-348" font-family="Helvetica,sans-Serif" font-size="10.00">slogo.UI.ModuleCreationHelper.create</text>
<text text-anchor="middle" x="1207" y="-337" font-family="Helvetica,sans-Serif" font-size="10.00">NewTurtleButton</text>
</a>
</g>
</g>
<!-- Node12&#45;&gt;Node13 -->
<g id="edge14" class="edge"><title>Node12&#45;&gt;Node13</title>
<path fill="none" stroke="midnightblue" d="M1077.89,-352.473C1088.04,-351.881 1098.26,-351.285 1108.27,-350.701"/>
<polygon fill="midnightblue" stroke="midnightblue" points="1077.56,-348.986 1067.78,-353.063 1077.97,-355.974 1077.56,-348.986"/>
</g>
<!-- Node13&#45;&gt;Node6 -->
<g id="edge15" class="edge"><title>Node13&#45;&gt;Node6</title>
<path fill="none" stroke="midnightblue" d="M1278.15,-327.309C1288.87,-324.354 1299.76,-321.203 1310,-318 1343.93,-307.387 1381.86,-293.493 1409.35,-283.046"/>
<polygon fill="midnightblue" stroke="midnightblue" points="1277.12,-323.962 1268.39,-329.963 1278.96,-330.717 1277.12,-323.962"/>
</g>
<!-- Node15 -->
<g id="node15" class="node"><title>Node15</title>
<g id="a_node15"><a xlink:href="../../db/d19/classslogo_1_1_u_i_1_1_module_creation_helper.html#a9b3fb38a55b3b7812b4f793afa7a974f" target="_top" xlink:title="slogo.UI.ModuleCreationHelper.create\lPlayButton">
<polygon fill="white" stroke="black" points="866.5,-295 866.5,-325 1063.5,-325 1063.5,-295 866.5,-295"/>
<text text-anchor="start" x="874.5" y="-313" font-family="Helvetica,sans-Serif" font-size="10.00">slogo.UI.ModuleCreationHelper.create</text>
<text text-anchor="middle" x="965" y="-302" font-family="Helvetica,sans-Serif" font-size="10.00">PlayButton</text>
</a>
</g>
</g>
<!-- Node14&#45;&gt;Node15 -->
<g id="edge17" class="edge"><title>Node14&#45;&gt;Node15</title>
<path fill="none" stroke="midnightblue" d="M835.89,-313.203C846.035,-312.949 856.258,-312.694 866.267,-312.443"/>
<polygon fill="midnightblue" stroke="midnightblue" points="835.691,-309.707 825.782,-313.455 835.866,-316.704 835.691,-309.707"/>
</g>
<!-- Node16 -->
<g id="node16" class="node"><title>Node16</title>
<g id="a_node16"><a xlink:href="../../db/d19/classslogo_1_1_u_i_1_1_module_creation_helper.html#ae1e60d37509c2e5eddcb2a6e70b4f650" target="_top" xlink:title="slogo.UI.ModuleCreationHelper.create\lFirstRowButtons">
<polygon fill="white" stroke="black" points="1108.5,-279 1108.5,-309 1305.5,-309 1305.5,-279 1108.5,-279"/>
<text text-anchor="start" x="1116.5" y="-297" font-family="Helvetica,sans-Serif" font-size="10.00">slogo.UI.ModuleCreationHelper.create</text>
<text text-anchor="middle" x="1207" y="-286" font-family="Helvetica,sans-Serif" font-size="10.00">FirstRowButtons</text>
</a>
</g>
</g>
<!-- Node15&#45;&gt;Node16 -->
<g id="edge18" class="edge"><title>Node15&#45;&gt;Node16</title>
<path fill="none" stroke="midnightblue" d="M1073.73,-302.818C1085.3,-302.046 1097.03,-301.265 1108.47,-300.502"/>
<polygon fill="midnightblue" stroke="midnightblue" points="1073.36,-299.335 1063.62,-303.492 1073.83,-306.319 1073.36,-299.335"/>
</g>
<!-- Node16&#45;&gt;Node6 -->
<g id="edge19" class="edge"><title>Node16&#45;&gt;Node6</title>
<path fill="none" stroke="midnightblue" d="M1315.73,-282.329C1327.3,-281.075 1339.03,-279.805 1350.47,-278.566"/>
<polygon fill="midnightblue" stroke="midnightblue" points="1315.18,-278.868 1305.62,-283.425 1315.94,-285.827 1315.18,-278.868"/>
</g>
<!-- Node18 -->
<g id="node18" class="node"><title>Node18</title>
<g id="a_node18"><a xlink:href="../../db/d19/classslogo_1_1_u_i_1_1_module_creation_helper.html#a803bac6b55bde712b21f2face1eeef81" target="_top" xlink:title="slogo.UI.ModuleCreationHelper.create\lTurtleCanvas">
<polygon fill="white" stroke="black" points="1350.5,-87 1350.5,-117 1547.5,-117 1547.5,-87 1350.5,-87"/>
<text text-anchor="start" x="1358.5" y="-105" font-family="Helvetica,sans-Serif" font-size="10.00">slogo.UI.ModuleCreationHelper.create</text>
<text text-anchor="middle" x="1449" y="-94" font-family="Helvetica,sans-Serif" font-size="10.00">TurtleCanvas</text>
</a>
</g>
</g>
<!-- Node17&#45;&gt;Node18 -->
<g id="edge21" class="edge"><title>Node17&#45;&gt;Node18</title>
<path fill="none" stroke="midnightblue" d="M1319.89,-102C1330.04,-102 1340.26,-102 1350.27,-102"/>
<polygon fill="midnightblue" stroke="midnightblue" points="1319.78,-98.5001 1309.78,-102 1319.78,-105.5 1319.78,-98.5001"/>
</g>
<!-- Node18&#45;&gt;Node7 -->
<g id="edge22" class="edge"><title>Node18&#45;&gt;Node7</title>
<path fill="none" stroke="midnightblue" d="M1532.42,-119.113C1558.9,-124.611 1588.03,-130.658 1613.73,-135.994"/>
<polygon fill="midnightblue" stroke="midnightblue" points="1532.91,-115.641 1522.41,-117.035 1531.49,-122.495 1532.91,-115.641"/>
</g>
<!-- Node20 -->
<g id="node20" class="node"><title>Node20</title>
<g id="a_node20"><a xlink:href="../../db/d19/classslogo_1_1_u_i_1_1_module_creation_helper.html#af7f2919454fdbf6e9d7d912e99634857" target="_top" xlink:title="slogo.UI.ModuleCreationHelper.create\lSelectors">
<polygon fill="white" stroke="black" points="866.5,-230 866.5,-260 1063.5,-260 1063.5,-230 866.5,-230"/>
<text text-anchor="start" x="874.5" y="-248" font-family="Helvetica,sans-Serif" font-size="10.00">slogo.UI.ModuleCreationHelper.create</text>
<text text-anchor="middle" x="965" y="-237" font-family="Helvetica,sans-Serif" font-size="10.00">Selectors</text>
</a>
</g>
</g>
<!-- Node19&#45;&gt;Node20 -->
<g id="edge24" class="edge"><title>Node19&#45;&gt;Node20</title>
<path fill="none" stroke="midnightblue" d="M818.764,-261.339C834.356,-259.585 850.543,-257.764 866.207,-256.002"/>
<polygon fill="midnightblue" stroke="midnightblue" points="818.161,-257.885 808.615,-262.481 818.944,-264.841 818.161,-257.885"/>
</g>
<!-- Node20&#45;&gt;Node6 -->
<g id="edge25" class="edge"><title>Node20&#45;&gt;Node6</title>
<path fill="none" stroke="midnightblue" d="M1073.74,-250.141C1156.55,-254.092 1269.97,-259.505 1350.19,-263.333"/>
<polygon fill="midnightblue" stroke="midnightblue" points="1073.7,-246.635 1063.54,-249.654 1073.36,-253.627 1073.7,-246.635"/>
</g>
<!-- Node21&#45;&gt;Node20 -->
<g id="edge27" class="edge"><title>Node21&#45;&gt;Node20</title>
<path fill="none" stroke="midnightblue" d="M803.179,-233.609C823.396,-235.041 845.368,-236.597 866.389,-238.086"/>
<polygon fill="midnightblue" stroke="midnightblue" points="803.318,-230.11 793.096,-232.894 802.824,-237.092 803.318,-230.11"/>
</g>
<!-- Node22&#45;&gt;Node20 -->
<g id="edge29" class="edge"><title>Node22&#45;&gt;Node20</title>
<path fill="none" stroke="midnightblue" d="M791.481,-195.473C803.044,-197.752 814.903,-200.287 826,-203 857.382,-210.673 892.178,-221.278 918.978,-229.911"/>
<polygon fill="midnightblue" stroke="midnightblue" points="791.905,-191.99 781.423,-193.539 790.582,-198.864 791.905,-191.99"/>
</g>
<!-- Node24 -->
<g id="node24" class="node"><title>Node24</title>
<g id="a_node24"><a xlink:href="../../db/d19/classslogo_1_1_u_i_1_1_module_creation_helper.html#a9fd730f7c1860d34bf4ac46c3828bd59" target="_top" xlink:title="slogo.UI.ModuleCreationHelper.activate\lStepIntoButton">
<polygon fill="white" stroke="black" points="620.5,-49 620.5,-79 825.5,-79 825.5,-49 620.5,-49"/>
<text text-anchor="start" x="628.5" y="-67" font-family="Helvetica,sans-Serif" font-size="10.00">slogo.UI.ModuleCreationHelper.activate</text>
<text text-anchor="middle" x="723" y="-56" font-family="Helvetica,sans-Serif" font-size="10.00">StepIntoButton</text>
</a>
</g>
</g>
<!-- Node23&#45;&gt;Node24 -->
<g id="edge31" class="edge"><title>Node23&#45;&gt;Node24</title>
<path fill="none" stroke="midnightblue" d="M591.334,-64C600.824,-64 610.535,-64 620.167,-64"/>
<polygon fill="midnightblue" stroke="midnightblue" points="591.137,-60.5001 581.137,-64 591.136,-67.5001 591.137,-60.5001"/>
</g>
<!-- Node25 -->
<g id="node25" class="node"><title>Node25</title>
<g id="a_node25"><a xlink:href="../../db/d19/classslogo_1_1_u_i_1_1_module_creation_helper.html#a4a6f1f009507c25be8c7c28cbba35f3b" target="_top" xlink:title="slogo.UI.ModuleCreationHelper.create\lDebugStepIntoButton">
<polygon fill="white" stroke="black" points="866.5,-49 866.5,-79 1063.5,-79 1063.5,-49 866.5,-49"/>
<text text-anchor="start" x="874.5" y="-67" font-family="Helvetica,sans-Serif" font-size="10.00">slogo.UI.ModuleCreationHelper.create</text>
<text text-anchor="middle" x="965" y="-56" font-family="Helvetica,sans-Serif" font-size="10.00">DebugStepIntoButton</text>
</a>
</g>
</g>
<!-- Node24&#45;&gt;Node25 -->
<g id="edge32" class="edge"><title>Node24&#45;&gt;Node25</title>
<path fill="none" stroke="midnightblue" d="M835.89,-64C846.035,-64 856.258,-64 866.267,-64"/>
<polygon fill="midnightblue" stroke="midnightblue" points="835.782,-60.5001 825.782,-64 835.782,-67.5001 835.782,-60.5001"/>
</g>
<!-- Node26 -->
<g id="node26" class="node"><title>Node26</title>
<g id="a_node26"><a xlink:href="../../db/d19/classslogo_1_1_u_i_1_1_module_creation_helper.html#a975af4ea47dc85df72215bdf1a0d20ce" target="_top" xlink:title="slogo.UI.ModuleCreationHelper.create\lDebugModules">
<polygon fill="white" stroke="black" points="1108.5,-38 1108.5,-68 1305.5,-68 1305.5,-38 1108.5,-38"/>
<text text-anchor="start" x="1116.5" y="-56" font-family="Helvetica,sans-Serif" font-size="10.00">slogo.UI.ModuleCreationHelper.create</text>
<text text-anchor="middle" x="1207" y="-45" font-family="Helvetica,sans-Serif" font-size="10.00">DebugModules</text>
</a>
</g>
</g>
<!-- Node25&#45;&gt;Node26 -->
<g id="edge33" class="edge"><title>Node25&#45;&gt;Node26</title>
<path fill="none" stroke="midnightblue" d="M1073.73,-59.0622C1085.3,-58.5319 1097.03,-57.9945 1108.47,-57.4702"/>
<polygon fill="midnightblue" stroke="midnightblue" points="1073.45,-55.5716 1063.62,-59.5259 1073.77,-62.5643 1073.45,-55.5716"/>
</g>
<!-- Node26&#45;&gt;Node7 -->
<g id="edge34" class="edge"><title>Node26&#45;&gt;Node7</title>
<path fill="none" stroke="midnightblue" d="M1315.63,-48.679C1384.53,-48.779 1475.11,-54.2973 1552,-77 1595.33,-89.7936 1640.2,-118.228 1665.46,-135.889"/>
<polygon fill="midnightblue" stroke="midnightblue" points="1315.61,-45.1789 1305.62,-48.7021 1315.63,-52.1789 1315.61,-45.1789"/>
</g>
<!-- Node28 -->
<g id="node28" class="node"><title>Node28</title>
<g id="a_node28"><a xlink:href="../../db/d19/classslogo_1_1_u_i_1_1_module_creation_helper.html#a0fed0bb32bf2643d6fd5c24d82e8e18e" target="_top" xlink:title="slogo.UI.ModuleCreationHelper.activate\lStepOverButton">
<polygon fill="white" stroke="black" points="620.5,-0 620.5,-30 825.5,-30 825.5,-0 620.5,-0"/>
<text text-anchor="start" x="628.5" y="-18" font-family="Helvetica,sans-Serif" font-size="10.00">slogo.UI.ModuleCreationHelper.activate</text>
<text text-anchor="middle" x="723" y="-7" font-family="Helvetica,sans-Serif" font-size="10.00">StepOverButton</text>
</a>
</g>
</g>
<!-- Node27&#45;&gt;Node28 -->
<g id="edge36" class="edge"><title>Node27&#45;&gt;Node28</title>
<path fill="none" stroke="midnightblue" d="M593.803,-18.5123C602.557,-18.2724 611.477,-18.028 620.327,-17.7856"/>
<polygon fill="midnightblue" stroke="midnightblue" points="593.515,-15.0187 583.615,-18.7914 593.707,-22.0161 593.515,-15.0187"/>
</g>
<!-- Node29 -->
<g id="node29" class="node"><title>Node29</title>
<g id="a_node29"><a xlink:href="../../db/d19/classslogo_1_1_u_i_1_1_module_creation_helper.html#aa1e7dc2b509360583790fba0d3819c8d" target="_top" xlink:title="slogo.UI.ModuleCreationHelper.create\lDebugStepOverButton">
<polygon fill="white" stroke="black" points="866.5,-0 866.5,-30 1063.5,-30 1063.5,-0 866.5,-0"/>
<text text-anchor="start" x="874.5" y="-18" font-family="Helvetica,sans-Serif" font-size="10.00">slogo.UI.ModuleCreationHelper.create</text>
<text text-anchor="middle" x="965" y="-7" font-family="Helvetica,sans-Serif" font-size="10.00">DebugStepOverButton</text>
</a>
</g>
</g>
<!-- Node28&#45;&gt;Node29 -->
<g id="edge37" class="edge"><title>Node28&#45;&gt;Node29</title>
<path fill="none" stroke="midnightblue" d="M835.89,-15C846.035,-15 856.258,-15 866.267,-15"/>
<polygon fill="midnightblue" stroke="midnightblue" points="835.782,-11.5001 825.782,-15 835.782,-18.5001 835.782,-11.5001"/>
</g>
<!-- Node29&#45;&gt;Node26 -->
<g id="edge38" class="edge"><title>Node29&#45;&gt;Node26</title>
<path fill="none" stroke="midnightblue" d="M1070.99,-31.6227C1084.31,-33.7329 1097.89,-35.8827 1111.05,-37.966"/>
<polygon fill="midnightblue" stroke="midnightblue" points="1071.28,-28.1256 1060.85,-30.0186 1070.18,-35.0395 1071.28,-28.1256"/>
</g>
</g>
</svg>
        <g id="navigator" transform="translate(0 0)" fill="#404254">
                <rect fill="#f2f5e9" fill-opacity="0.5" stroke="#606060" stroke-width=".5" x="0" y="0" width="60" height="60"/>
                <use id="zoomplus" xlink:href="#zoomPlus" x="17" y="9" onmousedown="handleZoom(evt,'in')"/>
                <use id="zoomminus" xlink:href="#zoomMin" x="42" y="9" onmousedown="handleZoom(evt,'out')"/>
                <use id="reset" xlink:href="#resetDef" x="30" y="36" onmousedown="handleReset()"/>
                <g id="arrowUp" xlink:href="#dirArrow" transform="translate(30 24)" onmousedown="handlePan(0,-1)">
                  <use xlink:href="#rim" fill="#404040">
                        <set attributeName="fill" to="#808080" begin="arrowUp.mouseover" end="arrowUp.mouseout"/>
                  </use>
                  <path fill="none" stroke="white" stroke-width="1.5" d="M0,-3.0v7 M-2.5,-0.5L0,-3.0L2.5,-0.5"/>
                </g>
                <g id="arrowRight" xlink:href="#dirArrow" transform="rotate(90) translate(36 -43)" onmousedown="handlePan(1,0)">
                  <use xlink:href="#rim" fill="#404040">
                        <set attributeName="fill" to="#808080" begin="arrowRight.mouseover" end="arrowRight.mouseout"/>
                  </use>
                  <path fill="none" stroke="white" stroke-width="1.5" d="M0,-3.0v7 M-2.5,-0.5L0,-3.0L2.5,-0.5"/>
                </g>
                <g id="arrowDown" xlink:href="#dirArrow" transform="rotate(180) translate(-30 -48)" onmousedown="handlePan(0,1)">
                  <use xlink:href="#rim" fill="#404040">
                        <set attributeName="fill" to="#808080" begin="arrowDown.mouseover" end="arrowDown.mouseout"/>
                  </use>
                  <path fill="none" stroke="white" stroke-width="1.5" d="M0,-3.0v7 M-2.5,-0.5L0,-3.0L2.5,-0.5"/>
                </g>
                <g id="arrowLeft" xlink:href="#dirArrow" transform="rotate(270) translate(-36 17)" onmousedown="handlePan(-1,0)">
                  <use xlink:href="#rim" fill="#404040">
                        <set attributeName="fill" to="#808080" begin="arrowLeft.mouseover" end="arrowLeft.mouseout"/>
                  </use>
                  <path fill="none" stroke="white" stroke-width="1.5" d="M0,-3.0v7 M-2.5,-0.5L0,-3.0L2.5,-0.5"/>
                </g>
        </g>
        <svg viewBox="0 0 15 15" width="100%" height="30px" preserveAspectRatio="xMaxYMin meet">
         <g id="arrow_out" transform="scale(0.3 0.3)">
          <a xlink:href="classslogo_1_1_u_i_1_1_module_creation_helper_a9a24bcabcb1eac7d7d0fcffc7b260ccc_icgraph_org.svg" target="_base">
           <rect id="button" ry="5" rx="5" y="6" x="6" height="38" width="38"
                fill="#f2f5e9" fill-opacity="0.5" stroke="#606060" stroke-width="1.0"/>
           <path id="arrow"
             d="M 11.500037,31.436501 C 11.940474,20.09759 22.043105,11.32322 32.158766,21.979434 L 37.068811,17.246167 C 37.068811,17.246167 37.088388,32 37.088388,32 L 22.160133,31.978069 C 22.160133,31.978069 26.997745,27.140456 26.997745,27.140456 C 18.528582,18.264221 13.291696,25.230495 11.500037,31.436501 z"
             style="fill:#404040;"/>
          </a>
         </g>
        </svg>
</svg>
