<?xml version="1.0" encoding="UTF-8" standalone="no"?>
<!DOCTYPE svg PUBLIC "-//W3C//DTD SVG 1.1//EN"
 "http://www.w3.org/Graphics/SVG/1.1/DTD/svg11.dtd">
<!-- Generated by graphviz version 2.36.0 (20140111.2315)
 -->
<!-- Title: slogo.UI.ModuleCreationHelper.createAnimationSpeedSlider Pages: 1 -->
<svg width="396pt" height="87pt"
 viewBox="0.00 0.00 396.00 87.00" xmlns="http://www.w3.org/2000/svg" xmlns:xlink="http://www.w3.org/1999/xlink">
<g id="graph0" class="graph" transform="scale(1 1) rotate(0) translate(4 83)">
<title>slogo.UI.ModuleCreationHelper.createAnimationSpeedSlider</title>
<polygon fill="white" stroke="none" points="-4,4 -4,-83 392,-83 392,4 -4,4"/>
<!-- Node1 -->
<g id="node1" class="node"><title>Node1</title>
<polygon fill="#bfbfbf" stroke="black" points="0.5,-24 0.5,-54 197.5,-54 197.5,-24 0.5,-24"/>
<text text-anchor="start" x="8.5" y="-42" font-family="Helvetica,sans-Serif" font-size="10.00">slogo.UI.ModuleCreationHelper.create</text>
<text text-anchor="middle" x="99" y="-31" font-family="Helvetica,sans-Serif" font-size="10.00">AnimationSpeedSlider</text>
</g>
<!-- Node2 -->
<g id="node2" class="node"><title>Node2</title>
<g id="a_node2"><a xlink:href="../../d7/d0e/classslogo_1_1_u_i_1_1_label_creator.html#a9ca0989ecfc0037d473dd3d2e8ead74f" target="_top" xlink:title="slogo.UI.LabelCreator.create\lLabel">
<polygon fill="white" stroke="black" points="235,-49 235,-79 387,-79 387,-49 235,-49"/>
<text text-anchor="start" x="243" y="-67" font-family="Helvetica,sans-Serif" font-size="10.00">slogo.UI.LabelCreator.create</text>
<text text-anchor="middle" x="311" y="-56" font-family="Helvetica,sans-Serif" font-size="10.00">Label</text>
</a>
</g>
</g>
<!-- Node1&#45;&gt;Node2 -->
<g id="edge1" class="edge"><title>Node1&#45;&gt;Node2</title>
<path fill="none" stroke="midnightblue" d="M197.623,-50.6217C206.728,-51.7057 215.907,-52.7985 224.885,-53.8673"/>
<polygon fill="midnightblue" stroke="midnightblue" points="224.578,-57.3554 234.922,-55.0621 225.406,-50.4044 224.578,-57.3554"/>
</g>
<!-- Node3 -->
<g id="node3" class="node"><title>Node3</title>
<g id="a_node3"><a xlink:href="../../dc/d28/classslogo_1_1_u_i_1_1_slider_creator.html#a9d7a6e09db65e44f8ec72b1aa127f325" target="_top" xlink:title="slogo.UI.SliderCreator.create\lSlider">
<polygon fill="white" stroke="black" points="234,-0 234,-30 388,-30 388,-0 234,-0"/>
<text text-anchor="start" x="242" y="-18" font-family="Helvetica,sans-Serif" font-size="10.00">slogo.UI.SliderCreator.create</text>
<text text-anchor="middle" x="311" y="-7" font-family="Helvetica,sans-Serif" font-size="10.00">Slider</text>
</a>
</g>
</g>
<!-- Node1&#45;&gt;Node3 -->
<g id="edge2" class="edge"><title>Node1&#45;&gt;Node3</title>
<path fill="none" stroke="midnightblue" d="M197.623,-27.8431C206.399,-26.8401 215.244,-25.8292 223.912,-24.8386"/>
<polygon fill="midnightblue" stroke="midnightblue" points="224.452,-28.2997 233.99,-23.6868 223.658,-21.345 224.452,-28.2997"/>
</g>
</g>
</svg>
