<?xml version="1.0" encoding="UTF-8" standalone="no"?>
<!DOCTYPE svg PUBLIC "-//W3C//DTD SVG 1.1//EN"
 "http://www.w3.org/Graphics/SVG/1.1/DTD/svg11.dtd">
<!-- Generated by graphviz version 2.36.0 (20140111.2315)
 -->
<!-- Title: slogo.UI.ModuleCreationHelper.activateTextField Pages: 1 -->
<svg width="824pt" height="153pt"
 viewBox="0.00 0.00 824.00 153.00" xmlns="http://www.w3.org/2000/svg" xmlns:xlink="http://www.w3.org/1999/xlink">
<g id="graph0" class="graph" transform="scale(1 1) rotate(0) translate(4 149)">
<title>slogo.UI.ModuleCreationHelper.activateTextField</title>
<polygon fill="white" stroke="none" points="-4,4 -4,-149 820,-149 820,4 -4,4"/>
<!-- Node1 -->
<g id="node1" class="node"><title>Node1</title>
<polygon fill="#bfbfbf" stroke="black" points="0.5,-52 0.5,-82 205.5,-82 205.5,-52 0.5,-52"/>
<text text-anchor="start" x="8.5" y="-70" font-family="Helvetica,sans-Serif" font-size="10.00">slogo.UI.ModuleCreationHelper.activate</text>
<text text-anchor="middle" x="103" y="-59" font-family="Helvetica,sans-Serif" font-size="10.00">TextField</text>
</g>
<!-- Node2 -->
<g id="node2" class="node"><title>Node2</title>
<g id="a_node2"><a xlink:href="../../db/d19/classslogo_1_1_u_i_1_1_module_creation_helper.html#a02dec5fb299a1543ef2758bc6ae70dfb" target="_top" xlink:title="slogo.UI.ModuleCreationHelper.add\lToCertainList">
<polygon fill="white" stroke="black" points="245.5,-115 245.5,-145 430.5,-145 430.5,-115 245.5,-115"/>
<text text-anchor="start" x="253.5" y="-133" font-family="Helvetica,sans-Serif" font-size="10.00">slogo.UI.ModuleCreationHelper.add</text>
<text text-anchor="middle" x="338" y="-122" font-family="Helvetica,sans-Serif" font-size="10.00">ToCertainList</text>
</a>
</g>
</g>
<!-- Node1&#45;&gt;Node2 -->
<g id="edge1" class="edge"><title>Node1&#45;&gt;Node2</title>
<path fill="none" stroke="midnightblue" d="M158.031,-82.0312C183.488,-89.0739 214.285,-97.5378 242,-105 250.889,-107.393 260.253,-109.889 269.496,-112.337"/>
<polygon fill="midnightblue" stroke="midnightblue" points="268.888,-115.796 279.451,-114.968 270.677,-109.029 268.888,-115.796"/>
</g>
<!-- Node5 -->
<g id="node5" class="node"><title>Node5</title>
<g id="a_node5"><a xlink:href="../../df/de6/classslogo_1_1_u_i_1_1_commands_text_field.html#a807dbf0cd67d066122544931db8a3837" target="_top" xlink:title="slogo.UI.CommandsTextField.getText">
<polygon fill="white" stroke="black" points="242.5,-76.5 242.5,-95.5 433.5,-95.5 433.5,-76.5 242.5,-76.5"/>
<text text-anchor="middle" x="338" y="-83.5" font-family="Helvetica,sans-Serif" font-size="10.00">slogo.UI.CommandsTextField.getText</text>
</a>
</g>
</g>
<!-- Node1&#45;&gt;Node5 -->
<g id="edge4" class="edge"><title>Node1&#45;&gt;Node5</title>
<path fill="none" stroke="midnightblue" d="M205.519,-75.2784C214.43,-76.005 223.459,-76.7413 232.393,-77.4698"/>
<polygon fill="midnightblue" stroke="midnightblue" points="232.178,-80.9638 242.429,-78.2882 232.747,-73.987 232.178,-80.9638"/>
</g>
<!-- Node6 -->
<g id="node6" class="node"><title>Node6</title>
<g id="a_node6"><a xlink:href="../../df/d2d/classslogo_1_1_view.html#a6c6c7faf44054a6b1844610eaa159c03" target="_top" xlink:title="slogo.View.recordCommand">
<polygon fill="white" stroke="black" points="263,-38.5 263,-57.5 413,-57.5 413,-38.5 263,-38.5"/>
<text text-anchor="middle" x="338" y="-45.5" font-family="Helvetica,sans-Serif" font-size="10.00">slogo.View.recordCommand</text>
</a>
</g>
</g>
<!-- Node1&#45;&gt;Node6 -->
<g id="edge5" class="edge"><title>Node1&#45;&gt;Node6</title>
<path fill="none" stroke="midnightblue" d="M205.519,-58.7216C221.163,-57.4459 237.173,-56.1404 252.396,-54.8991"/>
<polygon fill="midnightblue" stroke="midnightblue" points="253.112,-58.3524 262.795,-54.0511 252.543,-51.3755 253.112,-58.3524"/>
</g>
<!-- Node7 -->
<g id="node7" class="node"><title>Node7</title>
<g id="a_node7"><a xlink:href="../../df/de6/classslogo_1_1_u_i_1_1_commands_text_field.html#a5f18e6aea317867be199cdf6b3f80e05" target="_top" xlink:title="slogo.UI.CommandsTextField.setText">
<polygon fill="white" stroke="black" points="243,-0.5 243,-19.5 433,-19.5 433,-0.5 243,-0.5"/>
<text text-anchor="middle" x="338" y="-7.5" font-family="Helvetica,sans-Serif" font-size="10.00">slogo.UI.CommandsTextField.setText</text>
</a>
</g>
</g>
<!-- Node1&#45;&gt;Node7 -->
<g id="edge6" class="edge"><title>Node1&#45;&gt;Node7</title>
<path fill="none" stroke="midnightblue" d="M155.22,-51.9596C181.118,-44.5937 213.107,-35.8581 242,-29 252.775,-26.4423 264.292,-23.9435 275.457,-21.6423"/>
<polygon fill="midnightblue" stroke="midnightblue" points="276.475,-25.0071 285.579,-19.5886 275.083,-18.1469 276.475,-25.0071"/>
</g>
<!-- Node3 -->
<g id="node3" class="node"><title>Node3</title>
<g id="a_node3"><a xlink:href="../../db/dc0/classslogo_1_1_u_i_1_1_list_view_all_s_l_o_g_o.html#a5f743353bce4830934bcf532b97e7925" target="_top" xlink:title="slogo.UI.ListViewAllSLOGO.set\lItems">
<polygon fill="white" stroke="black" points="470.5,-115 470.5,-145 629.5,-145 629.5,-115 470.5,-115"/>
<text text-anchor="start" x="478.5" y="-133" font-family="Helvetica,sans-Serif" font-size="10.00">slogo.UI.ListViewAllSLOGO.set</text>
<text text-anchor="middle" x="550" y="-122" font-family="Helvetica,sans-Serif" font-size="10.00">Items</text>
</a>
</g>
</g>
<!-- Node2&#45;&gt;Node3 -->
<g id="edge2" class="edge"><title>Node2&#45;&gt;Node3</title>
<path fill="none" stroke="midnightblue" d="M430.804,-130C440.551,-130 450.453,-130 460.166,-130"/>
<polygon fill="midnightblue" stroke="midnightblue" points="460.205,-133.5 470.205,-130 460.204,-126.5 460.205,-133.5"/>
</g>
<!-- Node4 -->
<g id="node4" class="node"><title>Node4</title>
<g id="a_node4"><a xlink:href="../../da/d8f/classslogo_1_1_u_i_1_1_list_view_creator.html#a081368f4f2cd74f99d9d251625ae4871" target="_top" xlink:title="slogo.UI.ListViewCreator.get\lListView">
<polygon fill="white" stroke="black" points="666,-115 666,-145 816,-145 816,-115 666,-115"/>
<text text-anchor="start" x="674" y="-133" font-family="Helvetica,sans-Serif" font-size="10.00">slogo.UI.ListViewCreator.get</text>
<text text-anchor="middle" x="741" y="-122" font-family="Helvetica,sans-Serif" font-size="10.00">ListView</text>
</a>
</g>
</g>
<!-- Node3&#45;&gt;Node4 -->
<g id="edge3" class="edge"><title>Node3&#45;&gt;Node4</title>
<path fill="none" stroke="midnightblue" d="M629.511,-130C638.186,-130 647.046,-130 655.787,-130"/>
<polygon fill="midnightblue" stroke="midnightblue" points="655.975,-133.5 665.975,-130 655.975,-126.5 655.975,-133.5"/>
</g>
</g>
</svg>
