<?xml version="1.0" encoding="UTF-8" standalone="no"?>
<!DOCTYPE svg PUBLIC "-//W3C//DTD SVG 1.1//EN"
 "http://www.w3.org/Graphics/SVG/1.1/DTD/svg11.dtd">
<!-- Generated by graphviz version 2.36.0 (20140111.2315)
 -->
<!-- Title: slogo.UI.ModuleCreationHelper.createDebugButton Pages: 1 -->
<svg width="448pt" height="87pt"
 viewBox="0.00 0.00 448.00 87.00" xmlns="http://www.w3.org/2000/svg" xmlns:xlink="http://www.w3.org/1999/xlink">
<g id="graph0" class="graph" transform="scale(1 1) rotate(0) translate(4 83)">
<title>slogo.UI.ModuleCreationHelper.createDebugButton</title>
<polygon fill="white" stroke="none" points="-4,4 -4,-83 444,-83 444,4 -4,4"/>
<!-- Node1 -->
<g id="node1" class="node"><title>Node1</title>
<polygon fill="#bfbfbf" stroke="black" points="0.5,-24 0.5,-54 197.5,-54 197.5,-24 0.5,-24"/>
<text text-anchor="start" x="8.5" y="-42" font-family="Helvetica,sans-Serif" font-size="10.00">slogo.UI.ModuleCreationHelper.create</text>
<text text-anchor="middle" x="99" y="-31" font-family="Helvetica,sans-Serif" font-size="10.00">DebugButton</text>
</g>
<!-- Node2 -->
<g id="node2" class="node"><title>Node2</title>
<g id="a_node2"><a xlink:href="../../db/d19/classslogo_1_1_u_i_1_1_module_creation_helper.html#a3f670278049f9557927a1c1a37580521" target="_top" xlink:title="slogo.UI.ModuleCreationHelper.activate\lDebugCB">
<polygon fill="white" stroke="black" points="234.5,-49 234.5,-79 439.5,-79 439.5,-49 234.5,-49"/>
<text text-anchor="start" x="242.5" y="-67" font-family="Helvetica,sans-Serif" font-size="10.00">slogo.UI.ModuleCreationHelper.activate</text>
<text text-anchor="middle" x="337" y="-56" font-family="Helvetica,sans-Serif" font-size="10.00">DebugCB</text>
</a>
</g>
</g>
<!-- Node1&#45;&gt;Node2 -->
<g id="edge1" class="edge"><title>Node1&#45;&gt;Node2</title>
<path fill="none" stroke="midnightblue" d="M197.694,-49.3489C206.446,-50.2761 215.353,-51.2196 224.212,-52.1581"/>
<polygon fill="midnightblue" stroke="midnightblue" points="223.871,-55.6415 234.184,-53.2144 224.609,-48.6804 223.871,-55.6415"/>
</g>
<!-- Node3 -->
<g id="node3" class="node"><title>Node3</title>
<g id="a_node3"><a xlink:href="../../d8/d71/classslogo_1_1_u_i_1_1_check_box_creator.html#aca8d8db17bad29a984aabd4056292021" target="_top" xlink:title="slogo.UI.CheckBoxCreator.create\lCheckBox">
<polygon fill="white" stroke="black" points="250,-0 250,-30 424,-30 424,-0 250,-0"/>
<text text-anchor="start" x="258" y="-18" font-family="Helvetica,sans-Serif" font-size="10.00">slogo.UI.CheckBoxCreator.create</text>
<text text-anchor="middle" x="337" y="-7" font-family="Helvetica,sans-Serif" font-size="10.00">CheckBox</text>
</a>
</g>
</g>
<!-- Node1&#45;&gt;Node3 -->
<g id="edge2" class="edge"><title>Node1&#45;&gt;Node3</title>
<path fill="none" stroke="midnightblue" d="M197.694,-29.065C211.571,-27.6538 225.835,-26.2032 239.686,-24.7947"/>
<polygon fill="midnightblue" stroke="midnightblue" points="240.093,-28.2714 249.687,-23.7776 239.384,-21.3074 240.093,-28.2714"/>
</g>
</g>
</svg>
