<?xml version="1.0" encoding="UTF-8" standalone="no"?>
<!DOCTYPE svg PUBLIC "-//W3C//DTD SVG 1.1//EN"
 "http://www.w3.org/Graphics/SVG/1.1/DTD/svg11.dtd">
<!-- Generated by graphviz version 2.36.0 (20140111.2315)
 -->
<!-- Title: slogo.UI.ModuleCreationHelper.addToCertainList Pages: 1 -->
<svg width="1756pt" height="131pt"
 viewBox="0.00 0.00 1756.00 131.00" xmlns="http://www.w3.org/2000/svg" xmlns:xlink="http://www.w3.org/1999/xlink">
<g id="graph0" class="graph" transform="scale(1 1) rotate(0) translate(4 127)">
<title>slogo.UI.ModuleCreationHelper.addToCertainList</title>
<polygon fill="white" stroke="none" points="-4,4 -4,-127 1752,-127 1752,4 -4,4"/>
<!-- Node1 -->
<g id="node1" class="node"><title>Node1</title>
<polygon fill="#bfbfbf" stroke="black" points="0.5,-44 0.5,-74 185.5,-74 185.5,-44 0.5,-44"/>
<text text-anchor="start" x="8.5" y="-62" font-family="Helvetica,sans-Serif" font-size="10.00">slogo.UI.ModuleCreationHelper.add</text>
<text text-anchor="middle" x="93" y="-51" font-family="Helvetica,sans-Serif" font-size="10.00">ToCertainList</text>
</g>
<!-- Node2 -->
<g id="node2" class="node"><title>Node2</title>
<g id="a_node2"><a xlink:href="../../db/d19/classslogo_1_1_u_i_1_1_module_creation_helper.html#aa6a7c88b3112494b64bba3cfc608e2be" target="_top" xlink:title="slogo.UI.ModuleCreationHelper.activate\lLoadButton">
<polygon fill="white" stroke="black" points="222.5,-93 222.5,-123 427.5,-123 427.5,-93 222.5,-93"/>
<text text-anchor="start" x="230.5" y="-111" font-family="Helvetica,sans-Serif" font-size="10.00">slogo.UI.ModuleCreationHelper.activate</text>
<text text-anchor="middle" x="325" y="-100" font-family="Helvetica,sans-Serif" font-size="10.00">LoadButton</text>
</a>
</g>
</g>
<!-- Node1&#45;&gt;Node2 -->
<g id="edge1" class="edge"><title>Node1&#45;&gt;Node2</title>
<path fill="none" stroke="midnightblue" d="M174.666,-76.1854C200.385,-81.6647 228.627,-87.6815 253.563,-92.9938"/>
<polygon fill="midnightblue" stroke="midnightblue" points="175.08,-72.6952 164.571,-74.0346 173.622,-79.5415 175.08,-72.6952"/>
</g>
<!-- Node9 -->
<g id="node9" class="node"><title>Node9</title>
<g id="a_node9"><a xlink:href="../../db/d19/classslogo_1_1_u_i_1_1_module_creation_helper.html#ae81191bac120ff263515d5d9453dd4dd" target="_top" xlink:title="slogo.UI.ModuleCreationHelper.activate\lTextField">
<polygon fill="white" stroke="black" points="222.5,-44 222.5,-74 427.5,-74 427.5,-44 222.5,-44"/>
<text text-anchor="start" x="230.5" y="-62" font-family="Helvetica,sans-Serif" font-size="10.00">slogo.UI.ModuleCreationHelper.activate</text>
<text text-anchor="middle" x="325" y="-51" font-family="Helvetica,sans-Serif" font-size="10.00">TextField</text>
</a>
</g>
</g>
<!-- Node1&#45;&gt;Node9 -->
<g id="edge9" class="edge"><title>Node1&#45;&gt;Node9</title>
<path fill="none" stroke="midnightblue" d="M195.782,-59C204.539,-59 213.399,-59 222.156,-59"/>
<polygon fill="midnightblue" stroke="midnightblue" points="195.563,-55.5001 185.563,-59 195.563,-62.5001 195.563,-55.5001"/>
</g>
<!-- Node11 -->
<g id="node11" class="node"><title>Node11</title>
<g id="a_node11"><a xlink:href="../../db/d19/classslogo_1_1_u_i_1_1_module_creation_helper.html#af4fd617bc69e5e9986e2634bc7f30d7d" target="_top" xlink:title="slogo.UI.ModuleCreationHelper.create\lListViews">
<polygon fill="white" stroke="black" points="698.5,-0 698.5,-30 895.5,-30 895.5,-0 698.5,-0"/>
<text text-anchor="start" x="706.5" y="-18" font-family="Helvetica,sans-Serif" font-size="10.00">slogo.UI.ModuleCreationHelper.create</text>
<text text-anchor="middle" x="797" y="-7" font-family="Helvetica,sans-Serif" font-size="10.00">ListViews</text>
</a>
</g>
</g>
<!-- Node1&#45;&gt;Node11 -->
<g id="edge12" class="edge"><title>Node1&#45;&gt;Node11</title>
<path fill="none" stroke="midnightblue" d="M170.015,-42.0813C187.041,-38.8715 205.074,-35.9206 222,-34 388.564,-15.1 583.919,-12.8299 698.409,-13.4984"/>
<polygon fill="midnightblue" stroke="midnightblue" points="169.275,-38.6595 160.122,-43.9953 170.604,-45.532 169.275,-38.6595"/>
</g>
<!-- Node3 -->
<g id="node3" class="node"><title>Node3</title>
<g id="a_node3"><a xlink:href="../../db/d19/classslogo_1_1_u_i_1_1_module_creation_helper.html#ae9c212513214962b5692051497567f68" target="_top" xlink:title="slogo.UI.ModuleCreationHelper.create\lLoadButton">
<polygon fill="white" stroke="black" points="464.5,-93 464.5,-123 661.5,-123 661.5,-93 464.5,-93"/>
<text text-anchor="start" x="472.5" y="-111" font-family="Helvetica,sans-Serif" font-size="10.00">slogo.UI.ModuleCreationHelper.create</text>
<text text-anchor="middle" x="563" y="-100" font-family="Helvetica,sans-Serif" font-size="10.00">LoadButton</text>
</a>
</g>
</g>
<!-- Node2&#45;&gt;Node3 -->
<g id="edge2" class="edge"><title>Node2&#45;&gt;Node3</title>
<path fill="none" stroke="midnightblue" d="M438.051,-108C446.813,-108 455.618,-108 464.274,-108"/>
<polygon fill="midnightblue" stroke="midnightblue" points="437.798,-104.5 427.798,-108 437.798,-111.5 437.798,-104.5"/>
</g>
<!-- Node4 -->
<g id="node4" class="node"><title>Node4</title>
<g id="a_node4"><a xlink:href="../../db/d19/classslogo_1_1_u_i_1_1_module_creation_helper.html#a7c650957b2389d6e6d36e8be8a33cd2b" target="_top" xlink:title="slogo.UI.ModuleCreationHelper.create\lSelectorVBoxModules">
<polygon fill="white" stroke="black" points="698.5,-49 698.5,-79 895.5,-79 895.5,-49 698.5,-49"/>
<text text-anchor="start" x="706.5" y="-67" font-family="Helvetica,sans-Serif" font-size="10.00">slogo.UI.ModuleCreationHelper.create</text>
<text text-anchor="middle" x="797" y="-56" font-family="Helvetica,sans-Serif" font-size="10.00">SelectorVBoxModules</text>
</a>
</g>
</g>
<!-- Node3&#45;&gt;Node4 -->
<g id="edge3" class="edge"><title>Node3&#45;&gt;Node4</title>
<path fill="none" stroke="midnightblue" d="M653.055,-91.1103C674.034,-87.1315 696.258,-82.9166 716.771,-79.0262"/>
<polygon fill="midnightblue" stroke="midnightblue" points="652.365,-87.6786 643.192,-92.9808 653.669,-94.556 652.365,-87.6786"/>
</g>
<!-- Node5 -->
<g id="node5" class="node"><title>Node5</title>
<g id="a_node5"><a xlink:href="../../db/d19/classslogo_1_1_u_i_1_1_module_creation_helper.html#afb9dbbbad7d872234a5b296fe129a34e" target="_top" xlink:title="slogo.UI.ModuleCreationHelper.create\lMainPageModules">
<polygon fill="white" stroke="black" points="932.5,-5 932.5,-35 1129.5,-35 1129.5,-5 932.5,-5"/>
<text text-anchor="start" x="940.5" y="-23" font-family="Helvetica,sans-Serif" font-size="10.00">slogo.UI.ModuleCreationHelper.create</text>
<text text-anchor="middle" x="1031" y="-12" font-family="Helvetica,sans-Serif" font-size="10.00">MainPageModules</text>
</a>
</g>
</g>
<!-- Node4&#45;&gt;Node5 -->
<g id="edge4" class="edge"><title>Node4&#45;&gt;Node5</title>
<path fill="none" stroke="midnightblue" d="M887.055,-47.1103C908.034,-43.1315 930.258,-38.9166 950.771,-35.0262"/>
<polygon fill="midnightblue" stroke="midnightblue" points="886.365,-43.6786 877.192,-48.9808 887.669,-50.556 886.365,-43.6786"/>
</g>
<!-- Node6 -->
<g id="node6" class="node"><title>Node6</title>
<g id="a_node6"><a xlink:href="../../d9/d33/classslogo_1_1_u_i_1_1_main.html#a15b7f2e399ee24d160550993ab737e73" target="_top" xlink:title="slogo.UI.Main.start">
<polygon fill="white" stroke="black" points="1166,-10.5 1166,-29.5 1272,-29.5 1272,-10.5 1166,-10.5"/>
<text text-anchor="middle" x="1219" y="-17.5" font-family="Helvetica,sans-Serif" font-size="10.00">slogo.UI.Main.start</text>
</a>
</g>
</g>
<!-- Node5&#45;&gt;Node6 -->
<g id="edge5" class="edge"><title>Node5&#45;&gt;Node6</title>
<path fill="none" stroke="midnightblue" d="M1139.8,-20C1148.76,-20 1157.53,-20 1165.76,-20"/>
<polygon fill="midnightblue" stroke="midnightblue" points="1139.63,-16.5001 1129.63,-20 1139.63,-23.5001 1139.63,-16.5001"/>
</g>
<!-- Node7 -->
<g id="node7" class="node"><title>Node7</title>
<g id="a_node7"><a xlink:href="../../db/d19/classslogo_1_1_u_i_1_1_module_creation_helper.html#a3be12a7cc2b8a219db1e296211a2cb88" target="_top" xlink:title="slogo.UI.ModuleCreationHelper.activate\lExtraWorkspaceButton">
<polygon fill="white" stroke="black" points="1308.5,-5 1308.5,-35 1513.5,-35 1513.5,-5 1308.5,-5"/>
<text text-anchor="start" x="1316.5" y="-23" font-family="Helvetica,sans-Serif" font-size="10.00">slogo.UI.ModuleCreationHelper.activate</text>
<text text-anchor="middle" x="1411" y="-12" font-family="Helvetica,sans-Serif" font-size="10.00">ExtraWorkspaceButton</text>
</a>
</g>
</g>
<!-- Node6&#45;&gt;Node7 -->
<g id="edge6" class="edge"><title>Node6&#45;&gt;Node7</title>
<path fill="none" stroke="midnightblue" d="M1282.22,-20C1290.63,-20 1299.44,-20 1308.32,-20"/>
<polygon fill="midnightblue" stroke="midnightblue" points="1282.17,-16.5001 1272.17,-20 1282.17,-23.5001 1282.17,-16.5001"/>
</g>
<!-- Node8 -->
<g id="node8" class="node"><title>Node8</title>
<g id="a_node8"><a xlink:href="../../db/d19/classslogo_1_1_u_i_1_1_module_creation_helper.html#a702c1ebe24d2857a10c666eb1fcc315d" target="_top" xlink:title="slogo.UI.ModuleCreationHelper.create\lExtraWorkspaceButton">
<polygon fill="white" stroke="black" points="1550.5,-27 1550.5,-57 1747.5,-57 1747.5,-27 1550.5,-27"/>
<text text-anchor="start" x="1558.5" y="-45" font-family="Helvetica,sans-Serif" font-size="10.00">slogo.UI.ModuleCreationHelper.create</text>
<text text-anchor="middle" x="1649" y="-34" font-family="Helvetica,sans-Serif" font-size="10.00">ExtraWorkspaceButton</text>
</a>
</g>
</g>
<!-- Node7&#45;&gt;Node8 -->
<g id="edge7" class="edge"><title>Node7&#45;&gt;Node8</title>
<path fill="none" stroke="midnightblue" d="M1523.77,-30.4188C1532.62,-31.2444 1541.52,-32.0743 1550.27,-32.8899"/>
<polygon fill="midnightblue" stroke="midnightblue" points="1524.08,-26.933 1513.8,-29.4896 1523.43,-33.9028 1524.08,-26.933"/>
</g>
<!-- Node8&#45;&gt;Node4 -->
<g id="edge8" class="edge"><title>Node8&#45;&gt;Node4</title>
<path fill="none" stroke="midnightblue" d="M1540.05,-44.7939C1373.32,-49.1094 1055.68,-57.3307 895.506,-61.4763"/>
<polygon fill="midnightblue" stroke="midnightblue" points="1540.42,-48.2857 1550.33,-44.528 1540.24,-41.288 1540.42,-48.2857"/>
</g>
<!-- Node10 -->
<g id="node10" class="node"><title>Node10</title>
<g id="a_node10"><a xlink:href="../../db/d19/classslogo_1_1_u_i_1_1_module_creation_helper.html#ab60ba223f378cf5c5444d21f2b66a61a" target="_top" xlink:title="slogo.UI.ModuleCreationHelper.create\lTextField">
<polygon fill="white" stroke="black" points="464.5,-44 464.5,-74 661.5,-74 661.5,-44 464.5,-44"/>
<text text-anchor="start" x="472.5" y="-62" font-family="Helvetica,sans-Serif" font-size="10.00">slogo.UI.ModuleCreationHelper.create</text>
<text text-anchor="middle" x="563" y="-51" font-family="Helvetica,sans-Serif" font-size="10.00">TextField</text>
</a>
</g>
</g>
<!-- Node9&#45;&gt;Node10 -->
<g id="edge10" class="edge"><title>Node9&#45;&gt;Node10</title>
<path fill="none" stroke="midnightblue" d="M438.051,-59C446.813,-59 455.618,-59 464.274,-59"/>
<polygon fill="midnightblue" stroke="midnightblue" points="437.798,-55.5001 427.798,-59 437.798,-62.5001 437.798,-55.5001"/>
</g>
<!-- Node10&#45;&gt;Node4 -->
<g id="edge11" class="edge"><title>Node10&#45;&gt;Node4</title>
<path fill="none" stroke="midnightblue" d="M671.722,-61.3216C680.618,-61.5133 689.58,-61.7065 698.396,-61.8965"/>
<polygon fill="midnightblue" stroke="midnightblue" points="671.79,-57.8223 661.716,-61.106 671.639,-64.8207 671.79,-57.8223"/>
</g>
<!-- Node11&#45;&gt;Node5 -->
<g id="edge13" class="edge"><title>Node11&#45;&gt;Node5</title>
<path fill="none" stroke="midnightblue" d="M905.722,-17.3216C914.618,-17.5133 923.58,-17.7065 932.396,-17.8965"/>
<polygon fill="midnightblue" stroke="midnightblue" points="905.79,-13.8223 895.716,-17.106 905.639,-20.8207 905.79,-13.8223"/>
</g>
</g>
</svg>
