<?xml version="1.0" encoding="UTF-8" standalone="no"?>
<!DOCTYPE svg PUBLIC "-//W3C//DTD SVG 1.1//EN"
 "http://www.w3.org/Graphics/SVG/1.1/DTD/svg11.dtd">
<!-- Generated by graphviz version 2.36.0 (20140111.2315)
 -->
<!-- Title: slogo.UI.ModuleCreationHelper.createSecondRowButtons Pages: 1 -->
<svg width="1476pt" height="263pt"
 viewBox="0.00 0.00 1476.00 263.00" xmlns="http://www.w3.org/2000/svg" xmlns:xlink="http://www.w3.org/1999/xlink">
<g id="graph0" class="graph" transform="scale(1 1) rotate(0) translate(4 259)">
<title>slogo.UI.ModuleCreationHelper.createSecondRowButtons</title>
<polygon fill="white" stroke="none" points="-4,4 -4,-259 1472,-259 1472,4 -4,4"/>
<!-- Node1 -->
<g id="node1" class="node"><title>Node1</title>
<polygon fill="#bfbfbf" stroke="black" points="0.5,-83 0.5,-113 197.5,-113 197.5,-83 0.5,-83"/>
<text text-anchor="start" x="8.5" y="-101" font-family="Helvetica,sans-Serif" font-size="10.00">slogo.UI.ModuleCreationHelper.create</text>
<text text-anchor="middle" x="99" y="-90" font-family="Helvetica,sans-Serif" font-size="10.00">SecondRowButtons</text>
</g>
<!-- Node2 -->
<g id="node2" class="node"><title>Node2</title>
<g id="a_node2"><a xlink:href="../../db/d19/classslogo_1_1_u_i_1_1_module_creation_helper.html#a938126b745e9f2d20932e126c0fd455a" target="_top" xlink:title="slogo.UI.ModuleCreationHelper.create\lPauseButton">
<polygon fill="white" stroke="black" points="234.5,-132 234.5,-162 431.5,-162 431.5,-132 234.5,-132"/>
<text text-anchor="start" x="242.5" y="-150" font-family="Helvetica,sans-Serif" font-size="10.00">slogo.UI.ModuleCreationHelper.create</text>
<text text-anchor="middle" x="333" y="-139" font-family="Helvetica,sans-Serif" font-size="10.00">PauseButton</text>
</a>
</g>
</g>
<!-- Node1&#45;&gt;Node2 -->
<g id="edge1" class="edge"><title>Node1&#45;&gt;Node2</title>
<path fill="none" stroke="midnightblue" d="M171.184,-113.035C196.46,-118.373 225.09,-124.42 251.115,-129.917"/>
<polygon fill="midnightblue" stroke="midnightblue" points="250.443,-133.352 260.95,-131.994 251.889,-126.503 250.443,-133.352"/>
</g>
<!-- Node9 -->
<g id="node9" class="node"><title>Node9</title>
<g id="a_node9"><a xlink:href="../../db/d19/classslogo_1_1_u_i_1_1_module_creation_helper.html#aa76f49f1feda966f0a2b6314418bf931" target="_top" xlink:title="slogo.UI.ModuleCreationHelper.create\lResetButton">
<polygon fill="white" stroke="black" points="234.5,-83 234.5,-113 431.5,-113 431.5,-83 234.5,-83"/>
<text text-anchor="start" x="242.5" y="-101" font-family="Helvetica,sans-Serif" font-size="10.00">slogo.UI.ModuleCreationHelper.create</text>
<text text-anchor="middle" x="333" y="-90" font-family="Helvetica,sans-Serif" font-size="10.00">ResetButton</text>
</a>
</g>
</g>
<!-- Node1&#45;&gt;Node9 -->
<g id="edge8" class="edge"><title>Node1&#45;&gt;Node9</title>
<path fill="none" stroke="midnightblue" d="M197.716,-98C206.534,-98 215.496,-98 224.392,-98"/>
<polygon fill="midnightblue" stroke="midnightblue" points="224.396,-101.5 234.396,-98 224.396,-94.5001 224.396,-101.5"/>
</g>
<!-- Node16 -->
<g id="node16" class="node"><title>Node16</title>
<g id="a_node16"><a xlink:href="../../db/d19/classslogo_1_1_u_i_1_1_module_creation_helper.html#a4795575c8a3208b4ea0e942091475154" target="_top" xlink:title="slogo.UI.ModuleCreationHelper.create\lSecondButtonRow">
<polygon fill="white" stroke="black" points="234.5,-15 234.5,-45 431.5,-45 431.5,-15 234.5,-15"/>
<text text-anchor="start" x="242.5" y="-33" font-family="Helvetica,sans-Serif" font-size="10.00">slogo.UI.ModuleCreationHelper.create</text>
<text text-anchor="middle" x="333" y="-22" font-family="Helvetica,sans-Serif" font-size="10.00">SecondButtonRow</text>
</a>
</g>
</g>
<!-- Node1&#45;&gt;Node16 -->
<g id="edge19" class="edge"><title>Node1&#45;&gt;Node16</title>
<path fill="none" stroke="midnightblue" d="M151.201,-82.9929C186.479,-72.6527 233.53,-58.8618 270.791,-47.9407"/>
<polygon fill="midnightblue" stroke="midnightblue" points="271.918,-51.2576 280.53,-45.0861 269.949,-44.5402 271.918,-51.2576"/>
</g>
<!-- Node3 -->
<g id="node3" class="node"><title>Node3</title>
<g id="a_node3"><a xlink:href="../../db/d19/classslogo_1_1_u_i_1_1_module_creation_helper.html#a9a4f9a714349d603ad1dae7f3dd4a9b3" target="_top" xlink:title="slogo.UI.ModuleCreationHelper.activate\lPauseButton">
<polygon fill="white" stroke="black" points="468.5,-225 468.5,-255 673.5,-255 673.5,-225 468.5,-225"/>
<text text-anchor="start" x="476.5" y="-243" font-family="Helvetica,sans-Serif" font-size="10.00">slogo.UI.ModuleCreationHelper.activate</text>
<text text-anchor="middle" x="571" y="-232" font-family="Helvetica,sans-Serif" font-size="10.00">PauseButton</text>
</a>
</g>
</g>
<!-- Node2&#45;&gt;Node3 -->
<g id="edge2" class="edge"><title>Node2&#45;&gt;Node3</title>
<path fill="none" stroke="midnightblue" d="M359.394,-162.112C385.77,-177.27 428.617,-200.401 468,-215 474.876,-217.549 482.109,-219.914 489.417,-222.09"/>
<polygon fill="midnightblue" stroke="midnightblue" points="488.826,-225.561 499.402,-224.939 490.747,-218.829 488.826,-225.561"/>
</g>
<!-- Node6 -->
<g id="node6" class="node"><title>Node6</title>
<g id="a_node6"><a xlink:href="../../d6/d9d/classslogo_1_1_u_i_1_1_button_creator.html#a26b4ab485f0d82531b0bb7d279cc83eb" target="_top" xlink:title="slogo.UI.ButtonCreator.create\lButton">
<polygon fill="white" stroke="black" points="491.5,-176 491.5,-206 650.5,-206 650.5,-176 491.5,-176"/>
<text text-anchor="start" x="499.5" y="-194" font-family="Helvetica,sans-Serif" font-size="10.00">slogo.UI.ButtonCreator.create</text>
<text text-anchor="middle" x="571" y="-183" font-family="Helvetica,sans-Serif" font-size="10.00">Button</text>
</a>
</g>
</g>
<!-- Node2&#45;&gt;Node6 -->
<g id="edge5" class="edge"><title>Node2&#45;&gt;Node6</title>
<path fill="none" stroke="midnightblue" d="M414.558,-162.019C436.096,-166.035 459.49,-170.397 481.434,-174.488"/>
<polygon fill="midnightblue" stroke="midnightblue" points="480.93,-177.954 491.403,-176.346 482.214,-171.073 480.93,-177.954"/>
</g>
<!-- Node7 -->
<g id="node7" class="node"><title>Node7</title>
<g id="a_node7"><a xlink:href="../../d7/d0e/classslogo_1_1_u_i_1_1_label_creator.html#a9ca0989ecfc0037d473dd3d2e8ead74f" target="_top" xlink:title="slogo.UI.LabelCreator.create\lLabel">
<polygon fill="white" stroke="black" points="495,-127 495,-157 647,-157 647,-127 495,-127"/>
<text text-anchor="start" x="503" y="-145" font-family="Helvetica,sans-Serif" font-size="10.00">slogo.UI.LabelCreator.create</text>
<text text-anchor="middle" x="571" y="-134" font-family="Helvetica,sans-Serif" font-size="10.00">Label</text>
</a>
</g>
</g>
<!-- Node2&#45;&gt;Node7 -->
<g id="edge6" class="edge"><title>Node2&#45;&gt;Node7</title>
<path fill="none" stroke="midnightblue" d="M431.694,-144.93C449.29,-144.557 467.508,-144.171 484.717,-143.807"/>
<polygon fill="midnightblue" stroke="midnightblue" points="484.798,-147.306 494.721,-143.595 484.649,-140.308 484.798,-147.306"/>
</g>
<!-- Node8 -->
<g id="node8" class="node"><title>Node8</title>
<g id="a_node8"><a xlink:href="../../d5/d66/classslogo_1_1_u_i_1_1_v_box_creator.html#a3f3304b5aed4110a7c1250c64772e2e7" target="_top" xlink:title="slogo.UI.VBoxCreator.createVBox">
<polygon fill="white" stroke="black" points="483,-88.5 483,-107.5 659,-107.5 659,-88.5 483,-88.5"/>
<text text-anchor="middle" x="571" y="-95.5" font-family="Helvetica,sans-Serif" font-size="10.00">slogo.UI.VBoxCreator.createVBox</text>
</a>
</g>
</g>
<!-- Node2&#45;&gt;Node8 -->
<g id="edge7" class="edge"><title>Node2&#45;&gt;Node8</title>
<path fill="none" stroke="midnightblue" d="M402.115,-131.99C423.215,-127.412 446.553,-122.423 468,-118 481.724,-115.17 496.507,-112.216 510.444,-109.475"/>
<polygon fill="midnightblue" stroke="midnightblue" points="511.275,-112.879 520.416,-107.521 509.929,-106.009 511.275,-112.879"/>
</g>
<!-- Node4 -->
<g id="node4" class="node"><title>Node4</title>
<g id="a_node4"><a xlink:href="../../df/d2d/classslogo_1_1_view.html#ad50bfcf609a900a0fece7334c8c66d3e" target="_top" xlink:title="slogo.View.pauseAnimation">
<polygon fill="white" stroke="black" points="710.5,-207.5 710.5,-226.5 857.5,-226.5 857.5,-207.5 710.5,-207.5"/>
<text text-anchor="middle" x="784" y="-214.5" font-family="Helvetica,sans-Serif" font-size="10.00">slogo.View.pauseAnimation</text>
</a>
</g>
</g>
<!-- Node3&#45;&gt;Node4 -->
<g id="edge3" class="edge"><title>Node3&#45;&gt;Node4</title>
<path fill="none" stroke="midnightblue" d="M673.792,-228.904C682.654,-227.938 691.551,-226.968 700.232,-226.022"/>
<polygon fill="midnightblue" stroke="midnightblue" points="700.748,-229.487 710.31,-224.924 699.989,-222.528 700.748,-229.487"/>
</g>
<!-- Node5 -->
<g id="node5" class="node"><title>Node5</title>
<g id="a_node5"><a xlink:href="../../db/d19/classslogo_1_1_u_i_1_1_module_creation_helper.html#a697317cefd8b036b0aa427c1c246cf9b" target="_top" xlink:title="slogo.UI.ModuleCreationHelper.turn\lOffRunningStatusLabel">
<polygon fill="white" stroke="black" points="897,-180 897,-210 1083,-210 1083,-180 897,-180"/>
<text text-anchor="start" x="905" y="-198" font-family="Helvetica,sans-Serif" font-size="10.00">slogo.UI.ModuleCreationHelper.turn</text>
<text text-anchor="middle" x="990" y="-187" font-family="Helvetica,sans-Serif" font-size="10.00">OffRunningStatusLabel</text>
</a>
</g>
</g>
<!-- Node4&#45;&gt;Node5 -->
<g id="edge4" class="edge"><title>Node4&#45;&gt;Node5</title>
<path fill="none" stroke="midnightblue" d="M857.785,-209.151C867.211,-208.134 877.002,-207.078 886.794,-206.022"/>
<polygon fill="midnightblue" stroke="midnightblue" points="887.418,-209.475 896.985,-204.923 886.668,-202.516 887.418,-209.475"/>
</g>
<!-- Node9&#45;&gt;Node6 -->
<g id="edge16" class="edge"><title>Node9&#45;&gt;Node6</title>
<path fill="none" stroke="midnightblue" d="M412.12,-113.067C419.09,-115.838 425.833,-119.118 432,-123 453.094,-136.277 446.844,-152.822 468,-166 472.385,-168.731 477.049,-171.165 481.877,-173.332"/>
<polygon fill="midnightblue" stroke="midnightblue" points="480.75,-176.652 491.332,-177.181 483.389,-170.168 480.75,-176.652"/>
</g>
<!-- Node9&#45;&gt;Node7 -->
<g id="edge17" class="edge"><title>Node9&#45;&gt;Node7</title>
<path fill="none" stroke="midnightblue" d="M414.558,-113.019C437.24,-117.248 461.981,-121.861 484.918,-126.137"/>
<polygon fill="midnightblue" stroke="midnightblue" points="484.498,-129.619 494.97,-128.011 485.781,-122.738 484.498,-129.619"/>
</g>
<!-- Node9&#45;&gt;Node8 -->
<g id="edge18" class="edge"><title>Node9&#45;&gt;Node8</title>
<path fill="none" stroke="midnightblue" d="M431.694,-98C445.234,-98 459.143,-98 472.677,-98"/>
<polygon fill="midnightblue" stroke="midnightblue" points="472.941,-101.5 482.941,-98 472.941,-94.5001 472.941,-101.5"/>
</g>
<!-- Node10 -->
<g id="node10" class="node"><title>Node10</title>
<g id="a_node10"><a xlink:href="../../db/d19/classslogo_1_1_u_i_1_1_module_creation_helper.html#ad548894429a51de52d1538db6d821539" target="_top" xlink:title="slogo.UI.ModuleCreationHelper.activate\lResetButton">
<polygon fill="white" stroke="black" points="468.5,-39 468.5,-69 673.5,-69 673.5,-39 468.5,-39"/>
<text text-anchor="start" x="476.5" y="-57" font-family="Helvetica,sans-Serif" font-size="10.00">slogo.UI.ModuleCreationHelper.activate</text>
<text text-anchor="middle" x="571" y="-46" font-family="Helvetica,sans-Serif" font-size="10.00">ResetButton</text>
</a>
</g>
</g>
<!-- Node9&#45;&gt;Node10 -->
<g id="edge9" class="edge"><title>Node9&#45;&gt;Node10</title>
<path fill="none" stroke="midnightblue" d="M414.558,-82.9808C435.422,-79.0908 458.029,-74.8759 479.372,-70.8968"/>
<polygon fill="midnightblue" stroke="midnightblue" points="480.216,-74.2998 489.405,-69.0262 478.933,-67.4184 480.216,-74.2998"/>
</g>
<!-- Node11 -->
<g id="node11" class="node"><title>Node11</title>
<g id="a_node11"><a xlink:href="../../df/d2d/classslogo_1_1_view.html#a5a508e4d68f5887c79e5456d6f3a3ab4" target="_top" xlink:title="slogo.View.resetAnimation">
<polygon fill="white" stroke="black" points="712.5,-88.5 712.5,-107.5 855.5,-107.5 855.5,-88.5 712.5,-88.5"/>
<text text-anchor="middle" x="784" y="-95.5" font-family="Helvetica,sans-Serif" font-size="10.00">slogo.View.resetAnimation</text>
</a>
</g>
</g>
<!-- Node10&#45;&gt;Node11 -->
<g id="edge10" class="edge"><title>Node10&#45;&gt;Node11</title>
<path fill="none" stroke="midnightblue" d="M644.024,-69.0192C671.321,-74.7115 701.954,-81.0994 727.499,-86.4264"/>
<polygon fill="midnightblue" stroke="midnightblue" points="726.88,-89.8724 737.384,-88.4876 728.309,-83.0198 726.88,-89.8724"/>
</g>
<!-- Node11&#45;&gt;Node5 -->
<g id="edge15" class="edge"><title>Node11&#45;&gt;Node5</title>
<path fill="none" stroke="midnightblue" d="M805.306,-107.655C838.45,-123.415 904.804,-154.965 948.03,-175.519"/>
<polygon fill="midnightblue" stroke="midnightblue" points="946.615,-178.722 957.15,-179.855 949.621,-172.4 946.615,-178.722"/>
</g>
<!-- Node12 -->
<g id="node12" class="node"><title>Node12</title>
<g id="a_node12"><a xlink:href="../../db/d19/classslogo_1_1_u_i_1_1_module_creation_helper.html#a98aea43b18daf0cebaabb702bf30ca81" target="_top" xlink:title="slogo.UI.ModuleCreationHelper.reset\lCommandsHistoryList">
<polygon fill="white" stroke="black" points="894.5,-59 894.5,-89 1085.5,-89 1085.5,-59 894.5,-59"/>
<text text-anchor="start" x="902.5" y="-77" font-family="Helvetica,sans-Serif" font-size="10.00">slogo.UI.ModuleCreationHelper.reset</text>
<text text-anchor="middle" x="990" y="-66" font-family="Helvetica,sans-Serif" font-size="10.00">CommandsHistoryList</text>
</a>
</g>
</g>
<!-- Node11&#45;&gt;Node12 -->
<g id="edge11" class="edge"><title>Node11&#45;&gt;Node12</title>
<path fill="none" stroke="midnightblue" d="M855.777,-89.6733C865.001,-88.5881 874.602,-87.4586 884.236,-86.3251"/>
<polygon fill="midnightblue" stroke="midnightblue" points="884.751,-89.7888 894.274,-85.1443 883.933,-82.8367 884.751,-89.7888"/>
</g>
<!-- Node15 -->
<g id="node15" class="node"><title>Node15</title>
<g id="a_node15"><a xlink:href="../../db/d19/classslogo_1_1_u_i_1_1_module_creation_helper.html#a43eb4bee8e7f4e1d3976439e0daaa350" target="_top" xlink:title="slogo.UI.ModuleCreationHelper.set\lCommandsHistoryCounter">
<polygon fill="white" stroke="black" points="899,-108 899,-138 1081,-138 1081,-108 899,-108"/>
<text text-anchor="start" x="907" y="-126" font-family="Helvetica,sans-Serif" font-size="10.00">slogo.UI.ModuleCreationHelper.set</text>
<text text-anchor="middle" x="990" y="-115" font-family="Helvetica,sans-Serif" font-size="10.00">CommandsHistoryCounter</text>
</a>
</g>
</g>
<!-- Node11&#45;&gt;Node15 -->
<g id="edge14" class="edge"><title>Node11&#45;&gt;Node15</title>
<path fill="none" stroke="midnightblue" d="M855.777,-106.674C866.438,-107.98 877.602,-109.348 888.739,-110.713"/>
<polygon fill="midnightblue" stroke="midnightblue" points="888.592,-114.221 898.944,-111.964 889.444,-107.273 888.592,-114.221"/>
</g>
<!-- Node13 -->
<g id="node13" class="node"><title>Node13</title>
<g id="a_node13"><a xlink:href="../../db/dc0/classslogo_1_1_u_i_1_1_list_view_all_s_l_o_g_o.html#a5f743353bce4830934bcf532b97e7925" target="_top" xlink:title="slogo.UI.ListViewAllSLOGO.set\lItems">
<polygon fill="white" stroke="black" points="1122.5,-59 1122.5,-89 1281.5,-89 1281.5,-59 1122.5,-59"/>
<text text-anchor="start" x="1130.5" y="-77" font-family="Helvetica,sans-Serif" font-size="10.00">slogo.UI.ListViewAllSLOGO.set</text>
<text text-anchor="middle" x="1202" y="-66" font-family="Helvetica,sans-Serif" font-size="10.00">Items</text>
</a>
</g>
</g>
<!-- Node12&#45;&gt;Node13 -->
<g id="edge12" class="edge"><title>Node12&#45;&gt;Node13</title>
<path fill="none" stroke="midnightblue" d="M1085.56,-74C1094.4,-74 1103.34,-74 1112.13,-74"/>
<polygon fill="midnightblue" stroke="midnightblue" points="1112.36,-77.5001 1122.36,-74 1112.36,-70.5001 1112.36,-77.5001"/>
</g>
<!-- Node14 -->
<g id="node14" class="node"><title>Node14</title>
<g id="a_node14"><a xlink:href="../../da/d8f/classslogo_1_1_u_i_1_1_list_view_creator.html#a081368f4f2cd74f99d9d251625ae4871" target="_top" xlink:title="slogo.UI.ListViewCreator.get\lListView">
<polygon fill="white" stroke="black" points="1318,-59 1318,-89 1468,-89 1468,-59 1318,-59"/>
<text text-anchor="start" x="1326" y="-77" font-family="Helvetica,sans-Serif" font-size="10.00">slogo.UI.ListViewCreator.get</text>
<text text-anchor="middle" x="1393" y="-66" font-family="Helvetica,sans-Serif" font-size="10.00">ListView</text>
</a>
</g>
</g>
<!-- Node13&#45;&gt;Node14 -->
<g id="edge13" class="edge"><title>Node13&#45;&gt;Node14</title>
<path fill="none" stroke="midnightblue" d="M1281.51,-74C1290.19,-74 1299.05,-74 1307.79,-74"/>
<polygon fill="midnightblue" stroke="midnightblue" points="1307.97,-77.5001 1317.97,-74 1307.97,-70.5001 1307.97,-77.5001"/>
</g>
<!-- Node17 -->
<g id="node17" class="node"><title>Node17</title>
<g id="a_node17"><a xlink:href="../../d6/d2e/classslogo_1_1_u_i_1_1_h_box_creator.html#af064f532f3ed696602cb44071e4c9842" target="_top" xlink:title="slogo.UI.HBoxCreator.createHBox">
<polygon fill="white" stroke="black" points="482,-0.5 482,-19.5 660,-19.5 660,-0.5 482,-0.5"/>
<text text-anchor="middle" x="571" y="-7.5" font-family="Helvetica,sans-Serif" font-size="10.00">slogo.UI.HBoxCreator.createHBox</text>
</a>
</g>
</g>
<!-- Node16&#45;&gt;Node17 -->
<g id="edge20" class="edge"><title>Node16&#45;&gt;Node17</title>
<path fill="none" stroke="midnightblue" d="M431.694,-21.7209C444.931,-20.599 458.52,-19.4474 471.767,-18.3248"/>
<polygon fill="midnightblue" stroke="midnightblue" points="472.15,-21.805 481.819,-17.473 471.559,-14.83 472.15,-21.805"/>
</g>
</g>
</svg>
