<?xml version="1.0" encoding="UTF-8" standalone="no"?>
<!DOCTYPE svg PUBLIC "-//W3C//DTD SVG 1.1//EN"
 "http://www.w3.org/Graphics/SVG/1.1/DTD/svg11.dtd">
<!-- Generated by graphviz version 2.36.0 (20140111.2315)
 -->
<!-- Title: slogo.UI.ModuleCreationHelper.createDebugStepOverButton Pages: 1 -->
<svg width="1526pt" height="62pt"
 viewBox="0.00 0.00 1526.00 62.00" xmlns="http://www.w3.org/2000/svg" xmlns:xlink="http://www.w3.org/1999/xlink">
<g id="graph0" class="graph" transform="scale(1 1) rotate(0) translate(4 58)">
<title>slogo.UI.ModuleCreationHelper.createDebugStepOverButton</title>
<polygon fill="white" stroke="none" points="-4,4 -4,-58 1522,-58 1522,4 -4,4"/>
<!-- Node1 -->
<g id="node1" class="node"><title>Node1</title>
<polygon fill="#bfbfbf" stroke="black" points="0.5,-0 0.5,-30 197.5,-30 197.5,-0 0.5,-0"/>
<text text-anchor="start" x="8.5" y="-18" font-family="Helvetica,sans-Serif" font-size="10.00">slogo.UI.ModuleCreationHelper.create</text>
<text text-anchor="middle" x="99" y="-7" font-family="Helvetica,sans-Serif" font-size="10.00">DebugStepOverButton</text>
</g>
<!-- Node2 -->
<g id="node2" class="node"><title>Node2</title>
<g id="a_node2"><a xlink:href="../../db/d19/classslogo_1_1_u_i_1_1_module_creation_helper.html#a975af4ea47dc85df72215bdf1a0d20ce" target="_top" xlink:title="slogo.UI.ModuleCreationHelper.create\lDebugModules">
<polygon fill="white" stroke="black" points="234.5,-0 234.5,-30 431.5,-30 431.5,-0 234.5,-0"/>
<text text-anchor="start" x="242.5" y="-18" font-family="Helvetica,sans-Serif" font-size="10.00">slogo.UI.ModuleCreationHelper.create</text>
<text text-anchor="middle" x="333" y="-7" font-family="Helvetica,sans-Serif" font-size="10.00">DebugModules</text>
</a>
</g>
</g>
<!-- Node1&#45;&gt;Node2 -->
<g id="edge1" class="edge"><title>Node1&#45;&gt;Node2</title>
<path fill="none" stroke="midnightblue" d="M207.722,-15C216.618,-15 225.58,-15 234.396,-15"/>
<polygon fill="midnightblue" stroke="midnightblue" points="207.717,-11.5001 197.716,-15 207.716,-18.5001 207.717,-11.5001"/>
</g>
<!-- Node3 -->
<g id="node3" class="node"><title>Node3</title>
<g id="a_node3"><a xlink:href="../../db/d19/classslogo_1_1_u_i_1_1_module_creation_helper.html#afb9dbbbad7d872234a5b296fe129a34e" target="_top" xlink:title="slogo.UI.ModuleCreationHelper.create\lMainPageModules">
<polygon fill="white" stroke="black" points="468.5,-0 468.5,-30 665.5,-30 665.5,-0 468.5,-0"/>
<text text-anchor="start" x="476.5" y="-18" font-family="Helvetica,sans-Serif" font-size="10.00">slogo.UI.ModuleCreationHelper.create</text>
<text text-anchor="middle" x="567" y="-7" font-family="Helvetica,sans-Serif" font-size="10.00">MainPageModules</text>
</a>
</g>
</g>
<!-- Node2&#45;&gt;Node3 -->
<g id="edge2" class="edge"><title>Node2&#45;&gt;Node3</title>
<path fill="none" stroke="midnightblue" d="M441.722,-15C450.618,-15 459.58,-15 468.396,-15"/>
<polygon fill="midnightblue" stroke="midnightblue" points="441.717,-11.5001 431.716,-15 441.716,-18.5001 441.717,-11.5001"/>
</g>
<!-- Node4 -->
<g id="node4" class="node"><title>Node4</title>
<g id="a_node4"><a xlink:href="../../d9/d33/classslogo_1_1_u_i_1_1_main.html#a15b7f2e399ee24d160550993ab737e73" target="_top" xlink:title="slogo.UI.Main.start">
<polygon fill="white" stroke="black" points="702,-26.5 702,-45.5 808,-45.5 808,-26.5 702,-26.5"/>
<text text-anchor="middle" x="755" y="-33.5" font-family="Helvetica,sans-Serif" font-size="10.00">slogo.UI.Main.start</text>
</a>
</g>
</g>
<!-- Node3&#45;&gt;Node4 -->
<g id="edge3" class="edge"><title>Node3&#45;&gt;Node4</title>
<path fill="none" stroke="midnightblue" d="M675.804,-27.1714C684.76,-28.1825 693.528,-29.1725 701.764,-30.1024"/>
<polygon fill="midnightblue" stroke="midnightblue" points="675.96,-23.6668 665.63,-26.0228 675.174,-30.6227 675.96,-23.6668"/>
</g>
<!-- Node5 -->
<g id="node5" class="node"><title>Node5</title>
<g id="a_node5"><a xlink:href="../../db/d19/classslogo_1_1_u_i_1_1_module_creation_helper.html#a3be12a7cc2b8a219db1e296211a2cb88" target="_top" xlink:title="slogo.UI.ModuleCreationHelper.activate\lExtraWorkspaceButton">
<polygon fill="white" stroke="black" points="844.5,-24 844.5,-54 1049.5,-54 1049.5,-24 844.5,-24"/>
<text text-anchor="start" x="852.5" y="-42" font-family="Helvetica,sans-Serif" font-size="10.00">slogo.UI.ModuleCreationHelper.activate</text>
<text text-anchor="middle" x="947" y="-31" font-family="Helvetica,sans-Serif" font-size="10.00">ExtraWorkspaceButton</text>
</a>
</g>
</g>
<!-- Node4&#45;&gt;Node5 -->
<g id="edge4" class="edge"><title>Node4&#45;&gt;Node5</title>
<path fill="none" stroke="midnightblue" d="M818.218,-36.9824C826.632,-37.1152 835.438,-37.2543 844.321,-37.3945"/>
<polygon fill="midnightblue" stroke="midnightblue" points="818.224,-33.4821 808.17,-36.8237 818.113,-40.4813 818.224,-33.4821"/>
</g>
<!-- Node6 -->
<g id="node6" class="node"><title>Node6</title>
<g id="a_node6"><a xlink:href="../../db/d19/classslogo_1_1_u_i_1_1_module_creation_helper.html#a702c1ebe24d2857a10c666eb1fcc315d" target="_top" xlink:title="slogo.UI.ModuleCreationHelper.create\lExtraWorkspaceButton">
<polygon fill="white" stroke="black" points="1086.5,-24 1086.5,-54 1283.5,-54 1283.5,-24 1086.5,-24"/>
<text text-anchor="start" x="1094.5" y="-42" font-family="Helvetica,sans-Serif" font-size="10.00">slogo.UI.ModuleCreationHelper.create</text>
<text text-anchor="middle" x="1185" y="-31" font-family="Helvetica,sans-Serif" font-size="10.00">ExtraWorkspaceButton</text>
</a>
</g>
</g>
<!-- Node5&#45;&gt;Node6 -->
<g id="edge5" class="edge"><title>Node5&#45;&gt;Node6</title>
<path fill="none" stroke="midnightblue" d="M1060.05,-39C1068.81,-39 1077.62,-39 1086.27,-39"/>
<polygon fill="midnightblue" stroke="midnightblue" points="1059.8,-35.5001 1049.8,-39 1059.8,-42.5001 1059.8,-35.5001"/>
</g>
<!-- Node7 -->
<g id="node7" class="node"><title>Node7</title>
<g id="a_node7"><a xlink:href="../../db/d19/classslogo_1_1_u_i_1_1_module_creation_helper.html#a7c650957b2389d6e6d36e8be8a33cd2b" target="_top" xlink:title="slogo.UI.ModuleCreationHelper.create\lSelectorVBoxModules">
<polygon fill="white" stroke="black" points="1320.5,-2 1320.5,-32 1517.5,-32 1517.5,-2 1320.5,-2"/>
<text text-anchor="start" x="1328.5" y="-20" font-family="Helvetica,sans-Serif" font-size="10.00">slogo.UI.ModuleCreationHelper.create</text>
<text text-anchor="middle" x="1419" y="-9" font-family="Helvetica,sans-Serif" font-size="10.00">SelectorVBoxModules</text>
</a>
</g>
</g>
<!-- Node6&#45;&gt;Node7 -->
<g id="edge6" class="edge"><title>Node6&#45;&gt;Node7</title>
<path fill="none" stroke="midnightblue" d="M1293.72,-28.785C1302.62,-27.9414 1311.58,-27.0915 1320.4,-26.2555"/>
<polygon fill="midnightblue" stroke="midnightblue" points="1293.34,-25.3053 1283.72,-29.7338 1294,-32.274 1293.34,-25.3053"/>
</g>
<!-- Node7&#45;&gt;Node3 -->
<g id="edge7" class="edge"><title>Node7&#45;&gt;Node3</title>
<path fill="none" stroke="midnightblue" d="M1310.27,-14.3776C1301.38,-14.2253 1292.54,-14.0956 1284,-14 1062.91,-11.5254 803.383,-12.9724 665.575,-14.086"/>
<polygon fill="midnightblue" stroke="midnightblue" points="1310.24,-17.8776 1320.3,-14.5584 1310.37,-10.8787 1310.24,-17.8776"/>
</g>
</g>
</svg>
