<?xml version="1.0" encoding="UTF-8" standalone="no"?>
<!DOCTYPE svg PUBLIC "-//W3C//DTD SVG 1.1//EN"
 "http://www.w3.org/Graphics/SVG/1.1/DTD/svg11.dtd">
<!-- Generated by graphviz version 2.36.0 (20140111.2315)
 -->
<!-- Title: slogo.UI.ModuleCreationHelper.createResetButton Pages: 1 -->
<svg width="1238pt" height="224pt"
 viewBox="0.00 0.00 1238.00 224.00" xmlns="http://www.w3.org/2000/svg" xmlns:xlink="http://www.w3.org/1999/xlink">
<g id="graph0" class="graph" transform="scale(1 1) rotate(0) translate(4 220)">
<title>slogo.UI.ModuleCreationHelper.createResetButton</title>
<polygon fill="white" stroke="none" points="-4,4 -4,-220 1234,-220 1234,4 -4,4"/>
<!-- Node1 -->
<g id="node1" class="node"><title>Node1</title>
<polygon fill="#bfbfbf" stroke="black" points="0.5,-63 0.5,-93 197.5,-93 197.5,-63 0.5,-63"/>
<text text-anchor="start" x="8.5" y="-81" font-family="Helvetica,sans-Serif" font-size="10.00">slogo.UI.ModuleCreationHelper.create</text>
<text text-anchor="middle" x="99" y="-70" font-family="Helvetica,sans-Serif" font-size="10.00">ResetButton</text>
</g>
<!-- Node2 -->
<g id="node2" class="node"><title>Node2</title>
<g id="a_node2"><a xlink:href="../../db/d19/classslogo_1_1_u_i_1_1_module_creation_helper.html#ad548894429a51de52d1538db6d821539" target="_top" xlink:title="slogo.UI.ModuleCreationHelper.activate\lResetButton">
<polygon fill="white" stroke="black" points="234.5,-137 234.5,-167 439.5,-167 439.5,-137 234.5,-137"/>
<text text-anchor="start" x="242.5" y="-155" font-family="Helvetica,sans-Serif" font-size="10.00">slogo.UI.ModuleCreationHelper.activate</text>
<text text-anchor="middle" x="337" y="-144" font-family="Helvetica,sans-Serif" font-size="10.00">ResetButton</text>
</a>
</g>
</g>
<!-- Node1&#45;&gt;Node2 -->
<g id="edge1" class="edge"><title>Node1&#45;&gt;Node2</title>
<path fill="none" stroke="midnightblue" d="M137.744,-93.0671C164.386,-103.39 201.061,-116.974 234,-127 242.518,-129.593 251.498,-132.106 260.454,-134.476"/>
<polygon fill="midnightblue" stroke="midnightblue" points="259.581,-137.865 270.14,-136.988 261.339,-131.089 259.581,-137.865"/>
</g>
<!-- Node9 -->
<g id="node9" class="node"><title>Node9</title>
<g id="a_node9"><a xlink:href="../../d6/d9d/classslogo_1_1_u_i_1_1_button_creator.html#a26b4ab485f0d82531b0bb7d279cc83eb" target="_top" xlink:title="slogo.UI.ButtonCreator.create\lButton">
<polygon fill="white" stroke="black" points="257.5,-88 257.5,-118 416.5,-118 416.5,-88 257.5,-88"/>
<text text-anchor="start" x="265.5" y="-106" font-family="Helvetica,sans-Serif" font-size="10.00">slogo.UI.ButtonCreator.create</text>
<text text-anchor="middle" x="337" y="-95" font-family="Helvetica,sans-Serif" font-size="10.00">Button</text>
</a>
</g>
</g>
<!-- Node1&#45;&gt;Node9 -->
<g id="edge8" class="edge"><title>Node1&#45;&gt;Node9</title>
<path fill="none" stroke="midnightblue" d="M197.694,-88.3489C214.181,-90.0954 231.213,-91.8997 247.45,-93.6197"/>
<polygon fill="midnightblue" stroke="midnightblue" points="247.132,-97.1056 257.446,-94.6786 247.87,-90.1445 247.132,-97.1056"/>
</g>
<!-- Node10 -->
<g id="node10" class="node"><title>Node10</title>
<g id="a_node10"><a xlink:href="../../d7/d0e/classslogo_1_1_u_i_1_1_label_creator.html#a9ca0989ecfc0037d473dd3d2e8ead74f" target="_top" xlink:title="slogo.UI.LabelCreator.create\lLabel">
<polygon fill="white" stroke="black" points="261,-39 261,-69 413,-69 413,-39 261,-39"/>
<text text-anchor="start" x="269" y="-57" font-family="Helvetica,sans-Serif" font-size="10.00">slogo.UI.LabelCreator.create</text>
<text text-anchor="middle" x="337" y="-46" font-family="Helvetica,sans-Serif" font-size="10.00">Label</text>
</a>
</g>
</g>
<!-- Node1&#45;&gt;Node10 -->
<g id="edge9" class="edge"><title>Node1&#45;&gt;Node10</title>
<path fill="none" stroke="midnightblue" d="M197.694,-68.065C215.29,-66.2756 233.508,-64.4229 250.717,-62.6728"/>
<polygon fill="midnightblue" stroke="midnightblue" points="251.127,-66.1493 260.721,-61.6555 250.418,-59.1853 251.127,-66.1493"/>
</g>
<!-- Node11 -->
<g id="node11" class="node"><title>Node11</title>
<g id="a_node11"><a xlink:href="../../d5/d66/classslogo_1_1_u_i_1_1_v_box_creator.html#a3f3304b5aed4110a7c1250c64772e2e7" target="_top" xlink:title="slogo.UI.VBoxCreator.createVBox">
<polygon fill="white" stroke="black" points="249,-0.5 249,-19.5 425,-19.5 425,-0.5 249,-0.5"/>
<text text-anchor="middle" x="337" y="-7.5" font-family="Helvetica,sans-Serif" font-size="10.00">slogo.UI.VBoxCreator.createVBox</text>
</a>
</g>
</g>
<!-- Node1&#45;&gt;Node11 -->
<g id="edge10" class="edge"><title>Node1&#45;&gt;Node11</title>
<path fill="none" stroke="midnightblue" d="M137.347,-62.9135C163.961,-52.5855 200.765,-39.1548 234,-30 245.417,-26.855 257.684,-24.0082 269.614,-21.5133"/>
<polygon fill="midnightblue" stroke="midnightblue" points="270.425,-24.92 279.53,-19.5015 269.034,-18.0597 270.425,-24.92"/>
</g>
<!-- Node3 -->
<g id="node3" class="node"><title>Node3</title>
<g id="a_node3"><a xlink:href="../../df/d2d/classslogo_1_1_view.html#a5a508e4d68f5887c79e5456d6f3a3ab4" target="_top" xlink:title="slogo.View.resetAnimation">
<polygon fill="white" stroke="black" points="476.5,-142.5 476.5,-161.5 619.5,-161.5 619.5,-142.5 476.5,-142.5"/>
<text text-anchor="middle" x="548" y="-149.5" font-family="Helvetica,sans-Serif" font-size="10.00">slogo.View.resetAnimation</text>
</a>
</g>
</g>
<!-- Node2&#45;&gt;Node3 -->
<g id="edge2" class="edge"><title>Node2&#45;&gt;Node3</title>
<path fill="none" stroke="midnightblue" d="M439.745,-152C448.624,-152 457.53,-152 466.206,-152"/>
<polygon fill="midnightblue" stroke="midnightblue" points="466.269,-155.5 476.269,-152 466.269,-148.5 466.269,-155.5"/>
</g>
<!-- Node4 -->
<g id="node4" class="node"><title>Node4</title>
<g id="a_node4"><a xlink:href="../../db/d19/classslogo_1_1_u_i_1_1_module_creation_helper.html#a98aea43b18daf0cebaabb702bf30ca81" target="_top" xlink:title="slogo.UI.ModuleCreationHelper.reset\lCommandsHistoryList">
<polygon fill="white" stroke="black" points="656.5,-186 656.5,-216 847.5,-216 847.5,-186 656.5,-186"/>
<text text-anchor="start" x="664.5" y="-204" font-family="Helvetica,sans-Serif" font-size="10.00">slogo.UI.ModuleCreationHelper.reset</text>
<text text-anchor="middle" x="752" y="-193" font-family="Helvetica,sans-Serif" font-size="10.00">CommandsHistoryList</text>
</a>
</g>
</g>
<!-- Node3&#45;&gt;Node4 -->
<g id="edge3" class="edge"><title>Node3&#45;&gt;Node4</title>
<path fill="none" stroke="midnightblue" d="M588.427,-161.564C614.224,-167.822 648.688,-176.182 679.243,-183.594"/>
<polygon fill="midnightblue" stroke="midnightblue" points="678.468,-187.007 689.011,-185.963 680.118,-180.204 678.468,-187.007"/>
</g>
<!-- Node7 -->
<g id="node7" class="node"><title>Node7</title>
<g id="a_node7"><a xlink:href="../../db/d19/classslogo_1_1_u_i_1_1_module_creation_helper.html#a43eb4bee8e7f4e1d3976439e0daaa350" target="_top" xlink:title="slogo.UI.ModuleCreationHelper.set\lCommandsHistoryCounter">
<polygon fill="white" stroke="black" points="661,-137 661,-167 843,-167 843,-137 661,-137"/>
<text text-anchor="start" x="669" y="-155" font-family="Helvetica,sans-Serif" font-size="10.00">slogo.UI.ModuleCreationHelper.set</text>
<text text-anchor="middle" x="752" y="-144" font-family="Helvetica,sans-Serif" font-size="10.00">CommandsHistoryCounter</text>
</a>
</g>
</g>
<!-- Node3&#45;&gt;Node7 -->
<g id="edge6" class="edge"><title>Node3&#45;&gt;Node7</title>
<path fill="none" stroke="midnightblue" d="M619.65,-152C629.737,-152 640.27,-152 650.791,-152"/>
<polygon fill="midnightblue" stroke="midnightblue" points="650.86,-155.5 660.86,-152 650.86,-148.5 650.86,-155.5"/>
</g>
<!-- Node8 -->
<g id="node8" class="node"><title>Node8</title>
<g id="a_node8"><a xlink:href="../../db/d19/classslogo_1_1_u_i_1_1_module_creation_helper.html#a697317cefd8b036b0aa427c1c246cf9b" target="_top" xlink:title="slogo.UI.ModuleCreationHelper.turn\lOffRunningStatusLabel">
<polygon fill="white" stroke="black" points="659,-88 659,-118 845,-118 845,-88 659,-88"/>
<text text-anchor="start" x="667" y="-106" font-family="Helvetica,sans-Serif" font-size="10.00">slogo.UI.ModuleCreationHelper.turn</text>
<text text-anchor="middle" x="752" y="-95" font-family="Helvetica,sans-Serif" font-size="10.00">OffRunningStatusLabel</text>
</a>
</g>
</g>
<!-- Node3&#45;&gt;Node8 -->
<g id="edge7" class="edge"><title>Node3&#45;&gt;Node8</title>
<path fill="none" stroke="midnightblue" d="M588.427,-142.436C614.224,-136.178 648.688,-127.818 679.243,-120.406"/>
<polygon fill="midnightblue" stroke="midnightblue" points="680.118,-123.796 689.011,-118.037 678.468,-116.993 680.118,-123.796"/>
</g>
<!-- Node5 -->
<g id="node5" class="node"><title>Node5</title>
<g id="a_node5"><a xlink:href="../../db/dc0/classslogo_1_1_u_i_1_1_list_view_all_s_l_o_g_o.html#a5f743353bce4830934bcf532b97e7925" target="_top" xlink:title="slogo.UI.ListViewAllSLOGO.set\lItems">
<polygon fill="white" stroke="black" points="884.5,-186 884.5,-216 1043.5,-216 1043.5,-186 884.5,-186"/>
<text text-anchor="start" x="892.5" y="-204" font-family="Helvetica,sans-Serif" font-size="10.00">slogo.UI.ListViewAllSLOGO.set</text>
<text text-anchor="middle" x="964" y="-193" font-family="Helvetica,sans-Serif" font-size="10.00">Items</text>
</a>
</g>
</g>
<!-- Node4&#45;&gt;Node5 -->
<g id="edge4" class="edge"><title>Node4&#45;&gt;Node5</title>
<path fill="none" stroke="midnightblue" d="M847.556,-201C856.398,-201 865.34,-201 874.127,-201"/>
<polygon fill="midnightblue" stroke="midnightblue" points="874.357,-204.5 884.357,-201 874.357,-197.5 874.357,-204.5"/>
</g>
<!-- Node6 -->
<g id="node6" class="node"><title>Node6</title>
<g id="a_node6"><a xlink:href="../../da/d8f/classslogo_1_1_u_i_1_1_list_view_creator.html#a081368f4f2cd74f99d9d251625ae4871" target="_top" xlink:title="slogo.UI.ListViewCreator.get\lListView">
<polygon fill="white" stroke="black" points="1080,-186 1080,-216 1230,-216 1230,-186 1080,-186"/>
<text text-anchor="start" x="1088" y="-204" font-family="Helvetica,sans-Serif" font-size="10.00">slogo.UI.ListViewCreator.get</text>
<text text-anchor="middle" x="1155" y="-193" font-family="Helvetica,sans-Serif" font-size="10.00">ListView</text>
</a>
</g>
</g>
<!-- Node5&#45;&gt;Node6 -->
<g id="edge5" class="edge"><title>Node5&#45;&gt;Node6</title>
<path fill="none" stroke="midnightblue" d="M1043.51,-201C1052.19,-201 1061.05,-201 1069.79,-201"/>
<polygon fill="midnightblue" stroke="midnightblue" points="1069.97,-204.5 1079.97,-201 1069.97,-197.5 1069.97,-204.5"/>
</g>
</g>
</svg>
