<?xml version="1.0" encoding="UTF-8" standalone="no"?>
<!DOCTYPE svg PUBLIC "-//W3C//DTD SVG 1.1//EN"
 "http://www.w3.org/Graphics/SVG/1.1/DTD/svg11.dtd">
<!-- Generated by graphviz version 2.36.0 (20140111.2315)
 -->
<!-- Title: slogo.UI.ModuleCreationHelper.setUserVariable Pages: 1 -->
<svg width="2808pt" height="427pt"
 viewBox="0.00 0.00 2808.00 427.00" xmlns="http://www.w3.org/2000/svg" xmlns:xlink="http://www.w3.org/1999/xlink">
<g id="graph0" class="graph" transform="scale(1 1) rotate(0) translate(4 423)">
<title>slogo.UI.ModuleCreationHelper.setUserVariable</title>
<polygon fill="white" stroke="none" points="-4,4 -4,-423 2804,-423 2804,4 -4,4"/>
<!-- Node1 -->
<g id="node1" class="node"><title>Node1</title>
<polygon fill="#bfbfbf" stroke="black" points="0,-49 0,-79 182,-79 182,-49 0,-49"/>
<text text-anchor="start" x="8" y="-67" font-family="Helvetica,sans-Serif" font-size="10.00">slogo.UI.ModuleCreationHelper.set</text>
<text text-anchor="middle" x="91" y="-56" font-family="Helvetica,sans-Serif" font-size="10.00">UserVariable</text>
</g>
<!-- Node2 -->
<g id="node2" class="node"><title>Node2</title>
<g id="a_node2"><a xlink:href="../../d9/d7e/classslogo_1_1_u_i_1_1_method_runner.html#ab7fbaeafa3fe50e148a313796ba47db9" target="_top" xlink:title="slogo.UI.MethodRunner.change\lEnvironment">
<polygon fill="white" stroke="black" points="218,-49 218,-79 382,-79 382,-49 218,-49"/>
<text text-anchor="start" x="226" y="-67" font-family="Helvetica,sans-Serif" font-size="10.00">slogo.UI.MethodRunner.change</text>
<text text-anchor="middle" x="300" y="-56" font-family="Helvetica,sans-Serif" font-size="10.00">Environment</text>
</a>
</g>
</g>
<!-- Node1&#45;&gt;Node2 -->
<g id="edge1" class="edge"><title>Node1&#45;&gt;Node2</title>
<path fill="none" stroke="midnightblue" d="M192.253,-64C200.848,-64 209.474,-64 217.891,-64"/>
<polygon fill="midnightblue" stroke="midnightblue" points="192.191,-60.5001 182.191,-64 192.191,-67.5001 192.191,-60.5001"/>
</g>
<!-- Node3 -->
<g id="node3" class="node"><title>Node3</title>
<g id="a_node3"><a xlink:href="../../df/d2d/classslogo_1_1_view.html#a0784f5391bd3b8cd985450e6902f8451" target="_top" xlink:title="slogo.View.executeEnvironment\lCommands">
<polygon fill="white" stroke="black" points="418,-49 418,-79 586,-79 586,-49 418,-49"/>
<text text-anchor="start" x="426" y="-67" font-family="Helvetica,sans-Serif" font-size="10.00">slogo.View.executeEnvironment</text>
<text text-anchor="middle" x="502" y="-56" font-family="Helvetica,sans-Serif" font-size="10.00">Commands</text>
</a>
</g>
</g>
<!-- Node2&#45;&gt;Node3 -->
<g id="edge2" class="edge"><title>Node2&#45;&gt;Node3</title>
<path fill="none" stroke="midnightblue" d="M392.089,-64C400.681,-64 409.361,-64 417.873,-64"/>
<polygon fill="midnightblue" stroke="midnightblue" points="392.059,-60.5001 382.059,-64 392.059,-67.5001 392.059,-60.5001"/>
</g>
<!-- Node4 -->
<g id="node4" class="node"><title>Node4</title>
<g id="a_node4"><a xlink:href="../../df/d2d/classslogo_1_1_view.html#aa90e5d95d422b58b7f4b7f8a049defe1" target="_top" xlink:title="slogo.View.executeCommand">
<polygon fill="white" stroke="black" points="622,-54.5 622,-73.5 780,-73.5 780,-54.5 622,-54.5"/>
<text text-anchor="middle" x="701" y="-61.5" font-family="Helvetica,sans-Serif" font-size="10.00">slogo.View.executeCommand</text>
</a>
</g>
</g>
<!-- Node3&#45;&gt;Node4 -->
<g id="edge3" class="edge"><title>Node3&#45;&gt;Node4</title>
<path fill="none" stroke="midnightblue" d="M596.517,-64C604.96,-64 613.451,-64 621.742,-64"/>
<polygon fill="midnightblue" stroke="midnightblue" points="596.26,-60.5001 586.26,-64 596.26,-67.5001 596.26,-60.5001"/>
</g>
<!-- Node5 -->
<g id="node5" class="node"><title>Node5</title>
<g id="a_node5"><a xlink:href="../../df/d2d/classslogo_1_1_view.html#aee563f6a0b15ac6668e4dcbdad40c73c" target="_top" xlink:title="slogo.View.sendCommandTo\lBackend">
<polygon fill="white" stroke="black" points="822,-213 822,-243 974,-243 974,-213 822,-213"/>
<text text-anchor="start" x="830" y="-231" font-family="Helvetica,sans-Serif" font-size="10.00">slogo.View.sendCommandTo</text>
<text text-anchor="middle" x="898" y="-220" font-family="Helvetica,sans-Serif" font-size="10.00">Backend</text>
</a>
</g>
</g>
<!-- Node4&#45;&gt;Node5 -->
<g id="edge4" class="edge"><title>Node4&#45;&gt;Node5</title>
<path fill="none" stroke="midnightblue" d="M721.054,-80.0252C758.765,-111.741 842.433,-182.108 879.146,-212.984"/>
<polygon fill="midnightblue" stroke="midnightblue" points="723.233,-77.2841 713.327,-73.5262 718.727,-82.6414 723.233,-77.2841"/>
</g>
<!-- Node25 -->
<g id="node25" class="node"><title>Node25</title>
<g id="a_node25"><a xlink:href="../../df/d2d/classslogo_1_1_view.html#a4c3084a198acf85804800d70eff9ee51" target="_top" xlink:title="slogo.View.stepIntoCommand">
<polygon fill="white" stroke="black" points="819,-54.5 819,-73.5 977,-73.5 977,-54.5 819,-54.5"/>
<text text-anchor="middle" x="898" y="-61.5" font-family="Helvetica,sans-Serif" font-size="10.00">slogo.View.stepIntoCommand</text>
</a>
</g>
</g>
<!-- Node4&#45;&gt;Node25 -->
<g id="edge32" class="edge"><title>Node4&#45;&gt;Node25</title>
<path fill="none" stroke="midnightblue" d="M790.402,-64C799.87,-64 809.454,-64 818.792,-64"/>
<polygon fill="midnightblue" stroke="midnightblue" points="790.19,-60.5001 780.19,-64 790.19,-67.5001 790.19,-60.5001"/>
</g>
<!-- Node29 -->
<g id="node29" class="node"><title>Node29</title>
<g id="a_node29"><a xlink:href="../../df/d2d/classslogo_1_1_view.html#ac8b7f574c679e744a430f1649dc55e68" target="_top" xlink:title="slogo.View.stepOverCommand">
<polygon fill="white" stroke="black" points="816.5,-11.5 816.5,-30.5 979.5,-30.5 979.5,-11.5 816.5,-11.5"/>
<text text-anchor="middle" x="898" y="-18.5" font-family="Helvetica,sans-Serif" font-size="10.00">slogo.View.stepOverCommand</text>
</a>
</g>
</g>
<!-- Node4&#45;&gt;Node29 -->
<g id="edge37" class="edge"><title>Node4&#45;&gt;Node29</title>
<path fill="none" stroke="midnightblue" d="M755.056,-52.3005C786.068,-45.462 824.711,-36.9406 853.844,-30.5164"/>
<polygon fill="midnightblue" stroke="midnightblue" points="754.288,-48.8855 745.277,-54.4569 755.796,-55.7213 754.288,-48.8855"/>
</g>
<!-- Node6 -->
<g id="node6" class="node"><title>Node6</title>
<g id="a_node6"><a xlink:href="../../db/d19/classslogo_1_1_u_i_1_1_module_creation_helper.html#a69e17abcc7cf9a6ed7261d8fb1d631fa" target="_top" xlink:title="slogo.UI.ModuleCreationHelper.activate\lIncreaseDecreaseButtons">
<polygon fill="white" stroke="black" points="1016.5,-389 1016.5,-419 1221.5,-419 1221.5,-389 1016.5,-389"/>
<text text-anchor="start" x="1024.5" y="-407" font-family="Helvetica,sans-Serif" font-size="10.00">slogo.UI.ModuleCreationHelper.activate</text>
<text text-anchor="middle" x="1119" y="-396" font-family="Helvetica,sans-Serif" font-size="10.00">IncreaseDecreaseButtons</text>
</a>
</g>
</g>
<!-- Node5&#45;&gt;Node6 -->
<g id="edge5" class="edge"><title>Node5&#45;&gt;Node6</title>
<path fill="none" stroke="midnightblue" d="M912.043,-252.219C930.779,-284.724 968.363,-342.06 1016,-374 1025.12,-380.116 1035.51,-385.01 1046.09,-388.919"/>
<polygon fill="midnightblue" stroke="midnightblue" points="915.013,-250.361 907.054,-243.368 908.915,-253.798 915.013,-250.361"/>
</g>
<!-- Node13 -->
<g id="node13" class="node"><title>Node13</title>
<g id="a_node13"><a xlink:href="../../db/d19/classslogo_1_1_u_i_1_1_module_creation_helper.html#aa70b0ad9e90e62509149bfd2ef2ba209" target="_top" xlink:title="slogo.UI.ModuleCreationHelper.activate\lKeyEvents">
<polygon fill="white" stroke="black" points="1742.5,-136 1742.5,-166 1947.5,-166 1947.5,-136 1742.5,-136"/>
<text text-anchor="start" x="1750.5" y="-154" font-family="Helvetica,sans-Serif" font-size="10.00">slogo.UI.ModuleCreationHelper.activate</text>
<text text-anchor="middle" x="1845" y="-143" font-family="Helvetica,sans-Serif" font-size="10.00">KeyEvents</text>
</a>
</g>
</g>
<!-- Node5&#45;&gt;Node13 -->
<g id="edge13" class="edge"><title>Node5&#45;&gt;Node13</title>
<path fill="none" stroke="midnightblue" d="M928.179,-207.164C950.902,-192.251 983.88,-173.388 1016,-165 1150.15,-129.97 1552.16,-139.777 1742.26,-146.744"/>
<polygon fill="midnightblue" stroke="midnightblue" points="926.049,-204.378 919.699,-212.86 929.952,-210.189 926.049,-204.378"/>
</g>
<!-- Node14 -->
<g id="node14" class="node"><title>Node14</title>
<g id="a_node14"><a xlink:href="../../db/d19/classslogo_1_1_u_i_1_1_module_creation_helper.html#a2e841243ec3ca474e8822102343acc88" target="_top" xlink:title="slogo.UI.ModuleCreationHelper.activate\lNewTurtleButton">
<polygon fill="white" stroke="black" points="1258.5,-344 1258.5,-374 1463.5,-374 1463.5,-344 1258.5,-344"/>
<text text-anchor="start" x="1266.5" y="-362" font-family="Helvetica,sans-Serif" font-size="10.00">slogo.UI.ModuleCreationHelper.activate</text>
<text text-anchor="middle" x="1361" y="-351" font-family="Helvetica,sans-Serif" font-size="10.00">NewTurtleButton</text>
</a>
</g>
</g>
<!-- Node5&#45;&gt;Node14 -->
<g id="edge15" class="edge"><title>Node5&#45;&gt;Node14</title>
<path fill="none" stroke="midnightblue" d="M915.021,-251.155C935.099,-278.009 972.24,-321.013 1016,-340 1092.41,-373.152 1187.47,-375.86 1258.29,-371.435"/>
<polygon fill="midnightblue" stroke="midnightblue" points="917.834,-249.073 909.115,-243.055 912.178,-253.197 917.834,-249.073"/>
</g>
<!-- Node16 -->
<g id="node16" class="node"><title>Node16</title>
<g id="a_node16"><a xlink:href="../../db/d19/classslogo_1_1_u_i_1_1_module_creation_helper.html#a9b1f07ab673191067907a059b1b0c524" target="_top" xlink:title="slogo.UI.ModuleCreationHelper.activate\lPlayButton">
<polygon fill="white" stroke="black" points="1016.5,-301 1016.5,-331 1221.5,-331 1221.5,-301 1016.5,-301"/>
<text text-anchor="start" x="1024.5" y="-319" font-family="Helvetica,sans-Serif" font-size="10.00">slogo.UI.ModuleCreationHelper.activate</text>
<text text-anchor="middle" x="1119" y="-308" font-family="Helvetica,sans-Serif" font-size="10.00">PlayButton</text>
</a>
</g>
</g>
<!-- Node5&#45;&gt;Node16 -->
<g id="edge18" class="edge"><title>Node5&#45;&gt;Node16</title>
<path fill="none" stroke="midnightblue" d="M931.42,-248.354C954.332,-262.006 986.156,-279.522 1016,-291 1025.7,-294.73 1036.14,-298.039 1046.5,-300.929"/>
<polygon fill="midnightblue" stroke="midnightblue" points="933.162,-245.317 922.792,-243.145 929.544,-251.31 933.162,-245.317"/>
</g>
<!-- Node19 -->
<g id="node19" class="node"><title>Node19</title>
<g id="a_node19"><a xlink:href="../../db/d19/classslogo_1_1_u_i_1_1_module_creation_helper.html#a3a38d485562cb17591ec3fd07cffc18a" target="_top" xlink:title="slogo.UI.ModuleCreationHelper.activate\lTurtleCanvas">
<polygon fill="white" stroke="black" points="1500.5,-87 1500.5,-117 1705.5,-117 1705.5,-87 1500.5,-87"/>
<text text-anchor="start" x="1508.5" y="-105" font-family="Helvetica,sans-Serif" font-size="10.00">slogo.UI.ModuleCreationHelper.activate</text>
<text text-anchor="middle" x="1603" y="-94" font-family="Helvetica,sans-Serif" font-size="10.00">TurtleCanvas</text>
</a>
</g>
</g>
<!-- Node5&#45;&gt;Node19 -->
<g id="edge22" class="edge"><title>Node5&#45;&gt;Node19</title>
<path fill="none" stroke="midnightblue" d="M918.366,-205.232C939.633,-182.064 976.105,-147.434 1016,-132 1101.51,-98.92 1356.48,-97.5272 1500.33,-99.6157"/>
<polygon fill="midnightblue" stroke="midnightblue" points="915.563,-203.115 911.497,-212.898 920.777,-207.786 915.563,-203.115"/>
</g>
<!-- Node21 -->
<g id="node21" class="node"><title>Node21</title>
<g id="a_node21"><a xlink:href="../../d1/d5f/classslogo_1_1_u_i_1_1_path_color_selector.html#ad3d9c82a0904c97edcec7cf67b85bd7b" target="_top" xlink:title="slogo.UI.PathColorSelector.create">
<polygon fill="white" stroke="black" points="1031,-262.5 1031,-281.5 1207,-281.5 1207,-262.5 1031,-262.5"/>
<text text-anchor="middle" x="1119" y="-269.5" font-family="Helvetica,sans-Serif" font-size="10.00">slogo.UI.PathColorSelector.create</text>
</a>
</g>
</g>
<!-- Node5&#45;&gt;Node21 -->
<g id="edge25" class="edge"><title>Node5&#45;&gt;Node21</title>
<path fill="none" stroke="midnightblue" d="M981.739,-245.065C993.243,-247.411 1004.91,-249.776 1016,-252 1033.25,-255.46 1052.16,-259.186 1068.95,-262.473"/>
<polygon fill="midnightblue" stroke="midnightblue" points="982.189,-241.585 971.69,-243.013 980.788,-248.443 982.189,-241.585"/>
</g>
<!-- Node23 -->
<g id="node23" class="node"><title>Node23</title>
<g id="a_node23"><a xlink:href="../../d4/d8d/classslogo_1_1_u_i_1_1_background_color_selector.html#ad75ba4ce104e071811d0fe039a4e839f" target="_top" xlink:title="slogo.UI.BackgroundColor\lSelector.create">
<polygon fill="white" stroke="black" points="1049,-213 1049,-243 1189,-243 1189,-213 1049,-213"/>
<text text-anchor="start" x="1057" y="-231" font-family="Helvetica,sans-Serif" font-size="10.00">slogo.UI.BackgroundColor</text>
<text text-anchor="middle" x="1119" y="-220" font-family="Helvetica,sans-Serif" font-size="10.00">Selector.create</text>
</a>
</g>
</g>
<!-- Node5&#45;&gt;Node23 -->
<g id="edge28" class="edge"><title>Node5&#45;&gt;Node23</title>
<path fill="none" stroke="midnightblue" d="M984.142,-228C1005.6,-228 1028.37,-228 1048.93,-228"/>
<polygon fill="midnightblue" stroke="midnightblue" points="984.061,-224.5 974.061,-228 984.061,-231.5 984.061,-224.5"/>
</g>
<!-- Node24 -->
<g id="node24" class="node"><title>Node24</title>
<g id="a_node24"><a xlink:href="../../dd/da7/classslogo_1_1_u_i_1_1_turtle_image_selector.html#a3f268d9196ffebcbb5dc322d2897a9fe" target="_top" xlink:title="slogo.UI.TurtleImageSelector.create">
<polygon fill="white" stroke="black" points="1026,-174.5 1026,-193.5 1212,-193.5 1212,-174.5 1026,-174.5"/>
<text text-anchor="middle" x="1119" y="-181.5" font-family="Helvetica,sans-Serif" font-size="10.00">slogo.UI.TurtleImageSelector.create</text>
</a>
</g>
</g>
<!-- Node5&#45;&gt;Node24 -->
<g id="edge30" class="edge"><title>Node5&#45;&gt;Node24</title>
<path fill="none" stroke="midnightblue" d="M978.012,-210.821C990.704,-208.147 1003.71,-205.458 1016,-203 1031.99,-199.804 1049.42,-196.493 1065.27,-193.548"/>
<polygon fill="midnightblue" stroke="midnightblue" points="976.977,-207.463 967.919,-212.958 978.427,-214.311 976.977,-207.463"/>
</g>
<!-- Node7 -->
<g id="node7" class="node"><title>Node7</title>
<g id="a_node7"><a xlink:href="../../db/d19/classslogo_1_1_u_i_1_1_module_creation_helper.html#adce7362386f9a7b3006e7db08a2d578d" target="_top" xlink:title="slogo.UI.ModuleCreationHelper.create\lIncreaseDecreaseButtons">
<polygon fill="white" stroke="black" points="1504.5,-380 1504.5,-410 1701.5,-410 1701.5,-380 1504.5,-380"/>
<text text-anchor="start" x="1512.5" y="-398" font-family="Helvetica,sans-Serif" font-size="10.00">slogo.UI.ModuleCreationHelper.create</text>
<text text-anchor="middle" x="1603" y="-387" font-family="Helvetica,sans-Serif" font-size="10.00">IncreaseDecreaseButtons</text>
</a>
</g>
</g>
<!-- Node6&#45;&gt;Node7 -->
<g id="edge6" class="edge"><title>Node6&#45;&gt;Node7</title>
<path fill="none" stroke="midnightblue" d="M1231.79,-401.913C1314.23,-400.373 1425.29,-398.299 1504.21,-396.826"/>
<polygon fill="midnightblue" stroke="midnightblue" points="1231.56,-398.416 1221.63,-402.102 1231.69,-405.415 1231.56,-398.416"/>
</g>
<!-- Node8 -->
<g id="node8" class="node"><title>Node8</title>
<g id="a_node8"><a xlink:href="../../db/d19/classslogo_1_1_u_i_1_1_module_creation_helper.html#a7c650957b2389d6e6d36e8be8a33cd2b" target="_top" xlink:title="slogo.UI.ModuleCreationHelper.create\lSelectorVBoxModules">
<polygon fill="white" stroke="black" points="1746.5,-253 1746.5,-283 1943.5,-283 1943.5,-253 1746.5,-253"/>
<text text-anchor="start" x="1754.5" y="-271" font-family="Helvetica,sans-Serif" font-size="10.00">slogo.UI.ModuleCreationHelper.create</text>
<text text-anchor="middle" x="1845" y="-260" font-family="Helvetica,sans-Serif" font-size="10.00">SelectorVBoxModules</text>
</a>
</g>
</g>
<!-- Node7&#45;&gt;Node8 -->
<g id="edge7" class="edge"><title>Node7&#45;&gt;Node8</title>
<path fill="none" stroke="midnightblue" d="M1687,-376.732C1693.54,-374.424 1699.95,-371.854 1706,-369 1754.6,-346.077 1803.46,-305.079 1827.92,-283.025"/>
<polygon fill="midnightblue" stroke="midnightblue" points="1685.75,-373.461 1677.36,-379.93 1687.95,-380.105 1685.75,-373.461"/>
</g>
<!-- Node9 -->
<g id="node9" class="node"><title>Node9</title>
<g id="a_node9"><a xlink:href="../../db/d19/classslogo_1_1_u_i_1_1_module_creation_helper.html#afb9dbbbad7d872234a5b296fe129a34e" target="_top" xlink:title="slogo.UI.ModuleCreationHelper.create\lMainPageModules">
<polygon fill="white" stroke="black" points="1984.5,-136 1984.5,-166 2181.5,-166 2181.5,-136 1984.5,-136"/>
<text text-anchor="start" x="1992.5" y="-154" font-family="Helvetica,sans-Serif" font-size="10.00">slogo.UI.ModuleCreationHelper.create</text>
<text text-anchor="middle" x="2083" y="-143" font-family="Helvetica,sans-Serif" font-size="10.00">MainPageModules</text>
</a>
</g>
</g>
<!-- Node8&#45;&gt;Node9 -->
<g id="edge8" class="edge"><title>Node8&#45;&gt;Node9</title>
<path fill="none" stroke="midnightblue" d="M1885.58,-248.38C1932.29,-225.222 2008.96,-187.212 2051.37,-166.184"/>
<polygon fill="midnightblue" stroke="midnightblue" points="1883.77,-245.366 1876.37,-252.944 1886.88,-251.638 1883.77,-245.366"/>
</g>
<!-- Node10 -->
<g id="node10" class="node"><title>Node10</title>
<g id="a_node10"><a xlink:href="../../d9/d33/classslogo_1_1_u_i_1_1_main.html#a15b7f2e399ee24d160550993ab737e73" target="_top" xlink:title="slogo.UI.Main.start">
<polygon fill="white" stroke="black" points="2218,-150.5 2218,-169.5 2324,-169.5 2324,-150.5 2218,-150.5"/>
<text text-anchor="middle" x="2271" y="-157.5" font-family="Helvetica,sans-Serif" font-size="10.00">slogo.UI.Main.start</text>
</a>
</g>
</g>
<!-- Node9&#45;&gt;Node10 -->
<g id="edge9" class="edge"><title>Node9&#45;&gt;Node10</title>
<path fill="none" stroke="midnightblue" d="M2191.8,-156.216C2200.76,-156.65 2209.53,-157.074 2217.76,-157.472"/>
<polygon fill="midnightblue" stroke="midnightblue" points="2191.79,-152.712 2181.63,-155.724 2191.45,-159.703 2191.79,-152.712"/>
</g>
<!-- Node11 -->
<g id="node11" class="node"><title>Node11</title>
<g id="a_node11"><a xlink:href="../../db/d19/classslogo_1_1_u_i_1_1_module_creation_helper.html#a3be12a7cc2b8a219db1e296211a2cb88" target="_top" xlink:title="slogo.UI.ModuleCreationHelper.activate\lExtraWorkspaceButton">
<polygon fill="white" stroke="black" points="2360.5,-163 2360.5,-193 2565.5,-193 2565.5,-163 2360.5,-163"/>
<text text-anchor="start" x="2368.5" y="-181" font-family="Helvetica,sans-Serif" font-size="10.00">slogo.UI.ModuleCreationHelper.activate</text>
<text text-anchor="middle" x="2463" y="-170" font-family="Helvetica,sans-Serif" font-size="10.00">ExtraWorkspaceButton</text>
</a>
</g>
</g>
<!-- Node10&#45;&gt;Node11 -->
<g id="edge10" class="edge"><title>Node10&#45;&gt;Node11</title>
<path fill="none" stroke="midnightblue" d="M2334.22,-165.894C2342.63,-166.691 2351.44,-167.526 2360.32,-168.367"/>
<polygon fill="midnightblue" stroke="midnightblue" points="2334.46,-162.401 2324.17,-164.942 2333.79,-169.37 2334.46,-162.401"/>
</g>
<!-- Node12 -->
<g id="node12" class="node"><title>Node12</title>
<g id="a_node12"><a xlink:href="../../db/d19/classslogo_1_1_u_i_1_1_module_creation_helper.html#a702c1ebe24d2857a10c666eb1fcc315d" target="_top" xlink:title="slogo.UI.ModuleCreationHelper.create\lExtraWorkspaceButton">
<polygon fill="white" stroke="black" points="2602.5,-189 2602.5,-219 2799.5,-219 2799.5,-189 2602.5,-189"/>
<text text-anchor="start" x="2610.5" y="-207" font-family="Helvetica,sans-Serif" font-size="10.00">slogo.UI.ModuleCreationHelper.create</text>
<text text-anchor="middle" x="2701" y="-196" font-family="Helvetica,sans-Serif" font-size="10.00">ExtraWorkspaceButton</text>
</a>
</g>
</g>
<!-- Node11&#45;&gt;Node12 -->
<g id="edge11" class="edge"><title>Node11&#45;&gt;Node12</title>
<path fill="none" stroke="midnightblue" d="M2575.77,-190.313C2584.62,-191.289 2593.52,-192.27 2602.27,-193.234"/>
<polygon fill="midnightblue" stroke="midnightblue" points="2576.12,-186.831 2565.8,-189.215 2575.35,-193.789 2576.12,-186.831"/>
</g>
<!-- Node12&#45;&gt;Node8 -->
<g id="edge12" class="edge"><title>Node12&#45;&gt;Node8</title>
<path fill="none" stroke="midnightblue" d="M2592.34,-212.068C2424.9,-224.617 2104.6,-248.62 1943.55,-260.69"/>
<polygon fill="midnightblue" stroke="midnightblue" points="2592.7,-215.551 2602.41,-211.313 2592.18,-208.571 2592.7,-215.551"/>
</g>
<!-- Node13&#45;&gt;Node9 -->
<g id="edge14" class="edge"><title>Node13&#45;&gt;Node9</title>
<path fill="none" stroke="midnightblue" d="M1958.05,-151C1966.81,-151 1975.62,-151 1984.27,-151"/>
<polygon fill="midnightblue" stroke="midnightblue" points="1957.8,-147.5 1947.8,-151 1957.8,-154.5 1957.8,-147.5"/>
</g>
<!-- Node15 -->
<g id="node15" class="node"><title>Node15</title>
<g id="a_node15"><a xlink:href="../../db/d19/classslogo_1_1_u_i_1_1_module_creation_helper.html#a07f5483df317cdf80e8ea2dda5699afa" target="_top" xlink:title="slogo.UI.ModuleCreationHelper.create\lNewTurtleButton">
<polygon fill="white" stroke="black" points="1504.5,-330 1504.5,-360 1701.5,-360 1701.5,-330 1504.5,-330"/>
<text text-anchor="start" x="1512.5" y="-348" font-family="Helvetica,sans-Serif" font-size="10.00">slogo.UI.ModuleCreationHelper.create</text>
<text text-anchor="middle" x="1603" y="-337" font-family="Helvetica,sans-Serif" font-size="10.00">NewTurtleButton</text>
</a>
</g>
</g>
<!-- Node14&#45;&gt;Node15 -->
<g id="edge16" class="edge"><title>Node14&#45;&gt;Node15</title>
<path fill="none" stroke="midnightblue" d="M1473.89,-352.473C1484.04,-351.881 1494.26,-351.285 1504.27,-350.701"/>
<polygon fill="midnightblue" stroke="midnightblue" points="1473.56,-348.986 1463.78,-353.063 1473.97,-355.974 1473.56,-348.986"/>
</g>
<!-- Node15&#45;&gt;Node8 -->
<g id="edge17" class="edge"><title>Node15&#45;&gt;Node8</title>
<path fill="none" stroke="midnightblue" d="M1674.15,-327.309C1684.87,-324.354 1695.76,-321.203 1706,-318 1739.93,-307.387 1777.86,-293.493 1805.35,-283.046"/>
<polygon fill="midnightblue" stroke="midnightblue" points="1673.12,-323.962 1664.39,-329.963 1674.96,-330.717 1673.12,-323.962"/>
</g>
<!-- Node17 -->
<g id="node17" class="node"><title>Node17</title>
<g id="a_node17"><a xlink:href="../../db/d19/classslogo_1_1_u_i_1_1_module_creation_helper.html#a9b3fb38a55b3b7812b4f793afa7a974f" target="_top" xlink:title="slogo.UI.ModuleCreationHelper.create\lPlayButton">
<polygon fill="white" stroke="black" points="1262.5,-295 1262.5,-325 1459.5,-325 1459.5,-295 1262.5,-295"/>
<text text-anchor="start" x="1270.5" y="-313" font-family="Helvetica,sans-Serif" font-size="10.00">slogo.UI.ModuleCreationHelper.create</text>
<text text-anchor="middle" x="1361" y="-302" font-family="Helvetica,sans-Serif" font-size="10.00">PlayButton</text>
</a>
</g>
</g>
<!-- Node16&#45;&gt;Node17 -->
<g id="edge19" class="edge"><title>Node16&#45;&gt;Node17</title>
<path fill="none" stroke="midnightblue" d="M1231.89,-313.203C1242.04,-312.949 1252.26,-312.694 1262.27,-312.443"/>
<polygon fill="midnightblue" stroke="midnightblue" points="1231.69,-309.707 1221.78,-313.455 1231.87,-316.704 1231.69,-309.707"/>
</g>
<!-- Node18 -->
<g id="node18" class="node"><title>Node18</title>
<g id="a_node18"><a xlink:href="../../db/d19/classslogo_1_1_u_i_1_1_module_creation_helper.html#ae1e60d37509c2e5eddcb2a6e70b4f650" target="_top" xlink:title="slogo.UI.ModuleCreationHelper.create\lFirstRowButtons">
<polygon fill="white" stroke="black" points="1504.5,-279 1504.5,-309 1701.5,-309 1701.5,-279 1504.5,-279"/>
<text text-anchor="start" x="1512.5" y="-297" font-family="Helvetica,sans-Serif" font-size="10.00">slogo.UI.ModuleCreationHelper.create</text>
<text text-anchor="middle" x="1603" y="-286" font-family="Helvetica,sans-Serif" font-size="10.00">FirstRowButtons</text>
</a>
</g>
</g>
<!-- Node17&#45;&gt;Node18 -->
<g id="edge20" class="edge"><title>Node17&#45;&gt;Node18</title>
<path fill="none" stroke="midnightblue" d="M1469.73,-302.818C1481.3,-302.046 1493.03,-301.265 1504.47,-300.502"/>
<polygon fill="midnightblue" stroke="midnightblue" points="1469.36,-299.335 1459.62,-303.492 1469.83,-306.319 1469.36,-299.335"/>
</g>
<!-- Node18&#45;&gt;Node8 -->
<g id="edge21" class="edge"><title>Node18&#45;&gt;Node8</title>
<path fill="none" stroke="midnightblue" d="M1711.73,-282.329C1723.3,-281.075 1735.03,-279.805 1746.47,-278.566"/>
<polygon fill="midnightblue" stroke="midnightblue" points="1711.18,-278.868 1701.62,-283.425 1711.94,-285.827 1711.18,-278.868"/>
</g>
<!-- Node20 -->
<g id="node20" class="node"><title>Node20</title>
<g id="a_node20"><a xlink:href="../../db/d19/classslogo_1_1_u_i_1_1_module_creation_helper.html#a803bac6b55bde712b21f2face1eeef81" target="_top" xlink:title="slogo.UI.ModuleCreationHelper.create\lTurtleCanvas">
<polygon fill="white" stroke="black" points="1746.5,-87 1746.5,-117 1943.5,-117 1943.5,-87 1746.5,-87"/>
<text text-anchor="start" x="1754.5" y="-105" font-family="Helvetica,sans-Serif" font-size="10.00">slogo.UI.ModuleCreationHelper.create</text>
<text text-anchor="middle" x="1845" y="-94" font-family="Helvetica,sans-Serif" font-size="10.00">TurtleCanvas</text>
</a>
</g>
</g>
<!-- Node19&#45;&gt;Node20 -->
<g id="edge23" class="edge"><title>Node19&#45;&gt;Node20</title>
<path fill="none" stroke="midnightblue" d="M1715.89,-102C1726.04,-102 1736.26,-102 1746.27,-102"/>
<polygon fill="midnightblue" stroke="midnightblue" points="1715.78,-98.5001 1705.78,-102 1715.78,-105.5 1715.78,-98.5001"/>
</g>
<!-- Node20&#45;&gt;Node9 -->
<g id="edge24" class="edge"><title>Node20&#45;&gt;Node9</title>
<path fill="none" stroke="midnightblue" d="M1928.42,-119.113C1954.9,-124.611 1984.03,-130.658 2009.73,-135.994"/>
<polygon fill="midnightblue" stroke="midnightblue" points="1928.91,-115.641 1918.41,-117.035 1927.49,-122.495 1928.91,-115.641"/>
</g>
<!-- Node22 -->
<g id="node22" class="node"><title>Node22</title>
<g id="a_node22"><a xlink:href="../../db/d19/classslogo_1_1_u_i_1_1_module_creation_helper.html#af7f2919454fdbf6e9d7d912e99634857" target="_top" xlink:title="slogo.UI.ModuleCreationHelper.create\lSelectors">
<polygon fill="white" stroke="black" points="1262.5,-230 1262.5,-260 1459.5,-260 1459.5,-230 1262.5,-230"/>
<text text-anchor="start" x="1270.5" y="-248" font-family="Helvetica,sans-Serif" font-size="10.00">slogo.UI.ModuleCreationHelper.create</text>
<text text-anchor="middle" x="1361" y="-237" font-family="Helvetica,sans-Serif" font-size="10.00">Selectors</text>
</a>
</g>
</g>
<!-- Node21&#45;&gt;Node22 -->
<g id="edge26" class="edge"><title>Node21&#45;&gt;Node22</title>
<path fill="none" stroke="midnightblue" d="M1214.76,-261.339C1230.36,-259.585 1246.54,-257.764 1262.21,-256.002"/>
<polygon fill="midnightblue" stroke="midnightblue" points="1214.16,-257.885 1204.62,-262.481 1214.94,-264.841 1214.16,-257.885"/>
</g>
<!-- Node22&#45;&gt;Node8 -->
<g id="edge27" class="edge"><title>Node22&#45;&gt;Node8</title>
<path fill="none" stroke="midnightblue" d="M1469.74,-250.141C1552.55,-254.092 1665.97,-259.505 1746.19,-263.333"/>
<polygon fill="midnightblue" stroke="midnightblue" points="1469.7,-246.635 1459.54,-249.654 1469.36,-253.627 1469.7,-246.635"/>
</g>
<!-- Node23&#45;&gt;Node22 -->
<g id="edge29" class="edge"><title>Node23&#45;&gt;Node22</title>
<path fill="none" stroke="midnightblue" d="M1199.18,-233.609C1219.4,-235.041 1241.37,-236.597 1262.39,-238.086"/>
<polygon fill="midnightblue" stroke="midnightblue" points="1199.32,-230.11 1189.1,-232.894 1198.82,-237.092 1199.32,-230.11"/>
</g>
<!-- Node24&#45;&gt;Node22 -->
<g id="edge31" class="edge"><title>Node24&#45;&gt;Node22</title>
<path fill="none" stroke="midnightblue" d="M1187.48,-195.473C1199.04,-197.752 1210.9,-200.287 1222,-203 1253.38,-210.673 1288.18,-221.278 1314.98,-229.911"/>
<polygon fill="midnightblue" stroke="midnightblue" points="1187.9,-191.99 1177.42,-193.539 1186.58,-198.864 1187.9,-191.99"/>
</g>
<!-- Node26 -->
<g id="node26" class="node"><title>Node26</title>
<g id="a_node26"><a xlink:href="../../db/d19/classslogo_1_1_u_i_1_1_module_creation_helper.html#a9fd730f7c1860d34bf4ac46c3828bd59" target="_top" xlink:title="slogo.UI.ModuleCreationHelper.activate\lStepIntoButton">
<polygon fill="white" stroke="black" points="1016.5,-49 1016.5,-79 1221.5,-79 1221.5,-49 1016.5,-49"/>
<text text-anchor="start" x="1024.5" y="-67" font-family="Helvetica,sans-Serif" font-size="10.00">slogo.UI.ModuleCreationHelper.activate</text>
<text text-anchor="middle" x="1119" y="-56" font-family="Helvetica,sans-Serif" font-size="10.00">StepIntoButton</text>
</a>
</g>
</g>
<!-- Node25&#45;&gt;Node26 -->
<g id="edge33" class="edge"><title>Node25&#45;&gt;Node26</title>
<path fill="none" stroke="midnightblue" d="M987.334,-64C996.824,-64 1006.54,-64 1016.17,-64"/>
<polygon fill="midnightblue" stroke="midnightblue" points="987.137,-60.5001 977.137,-64 987.136,-67.5001 987.137,-60.5001"/>
</g>
<!-- Node27 -->
<g id="node27" class="node"><title>Node27</title>
<g id="a_node27"><a xlink:href="../../db/d19/classslogo_1_1_u_i_1_1_module_creation_helper.html#a4a6f1f009507c25be8c7c28cbba35f3b" target="_top" xlink:title="slogo.UI.ModuleCreationHelper.create\lDebugStepIntoButton">
<polygon fill="white" stroke="black" points="1262.5,-49 1262.5,-79 1459.5,-79 1459.5,-49 1262.5,-49"/>
<text text-anchor="start" x="1270.5" y="-67" font-family="Helvetica,sans-Serif" font-size="10.00">slogo.UI.ModuleCreationHelper.create</text>
<text text-anchor="middle" x="1361" y="-56" font-family="Helvetica,sans-Serif" font-size="10.00">DebugStepIntoButton</text>
</a>
</g>
</g>
<!-- Node26&#45;&gt;Node27 -->
<g id="edge34" class="edge"><title>Node26&#45;&gt;Node27</title>
<path fill="none" stroke="midnightblue" d="M1231.89,-64C1242.04,-64 1252.26,-64 1262.27,-64"/>
<polygon fill="midnightblue" stroke="midnightblue" points="1231.78,-60.5001 1221.78,-64 1231.78,-67.5001 1231.78,-60.5001"/>
</g>
<!-- Node28 -->
<g id="node28" class="node"><title>Node28</title>
<g id="a_node28"><a xlink:href="../../db/d19/classslogo_1_1_u_i_1_1_module_creation_helper.html#a975af4ea47dc85df72215bdf1a0d20ce" target="_top" xlink:title="slogo.UI.ModuleCreationHelper.create\lDebugModules">
<polygon fill="white" stroke="black" points="1504.5,-38 1504.5,-68 1701.5,-68 1701.5,-38 1504.5,-38"/>
<text text-anchor="start" x="1512.5" y="-56" font-family="Helvetica,sans-Serif" font-size="10.00">slogo.UI.ModuleCreationHelper.create</text>
<text text-anchor="middle" x="1603" y="-45" font-family="Helvetica,sans-Serif" font-size="10.00">DebugModules</text>
</a>
</g>
</g>
<!-- Node27&#45;&gt;Node28 -->
<g id="edge35" class="edge"><title>Node27&#45;&gt;Node28</title>
<path fill="none" stroke="midnightblue" d="M1469.73,-59.0622C1481.3,-58.5319 1493.03,-57.9945 1504.47,-57.4702"/>
<polygon fill="midnightblue" stroke="midnightblue" points="1469.45,-55.5716 1459.62,-59.5259 1469.77,-62.5643 1469.45,-55.5716"/>
</g>
<!-- Node28&#45;&gt;Node9 -->
<g id="edge36" class="edge"><title>Node28&#45;&gt;Node9</title>
<path fill="none" stroke="midnightblue" d="M1711.63,-48.679C1780.53,-48.779 1871.11,-54.2973 1948,-77 1991.33,-89.7936 2036.2,-118.228 2061.46,-135.889"/>
<polygon fill="midnightblue" stroke="midnightblue" points="1711.61,-45.1789 1701.62,-48.7021 1711.63,-52.1789 1711.61,-45.1789"/>
</g>
<!-- Node30 -->
<g id="node30" class="node"><title>Node30</title>
<g id="a_node30"><a xlink:href="../../db/d19/classslogo_1_1_u_i_1_1_module_creation_helper.html#a0fed0bb32bf2643d6fd5c24d82e8e18e" target="_top" xlink:title="slogo.UI.ModuleCreationHelper.activate\lStepOverButton">
<polygon fill="white" stroke="black" points="1016.5,-0 1016.5,-30 1221.5,-30 1221.5,-0 1016.5,-0"/>
<text text-anchor="start" x="1024.5" y="-18" font-family="Helvetica,sans-Serif" font-size="10.00">slogo.UI.ModuleCreationHelper.activate</text>
<text text-anchor="middle" x="1119" y="-7" font-family="Helvetica,sans-Serif" font-size="10.00">StepOverButton</text>
</a>
</g>
</g>
<!-- Node29&#45;&gt;Node30 -->
<g id="edge38" class="edge"><title>Node29&#45;&gt;Node30</title>
<path fill="none" stroke="midnightblue" d="M989.803,-18.5123C998.557,-18.2724 1007.48,-18.028 1016.33,-17.7856"/>
<polygon fill="midnightblue" stroke="midnightblue" points="989.515,-15.0187 979.615,-18.7914 989.707,-22.0161 989.515,-15.0187"/>
</g>
<!-- Node31 -->
<g id="node31" class="node"><title>Node31</title>
<g id="a_node31"><a xlink:href="../../db/d19/classslogo_1_1_u_i_1_1_module_creation_helper.html#aa1e7dc2b509360583790fba0d3819c8d" target="_top" xlink:title="slogo.UI.ModuleCreationHelper.create\lDebugStepOverButton">
<polygon fill="white" stroke="black" points="1262.5,-0 1262.5,-30 1459.5,-30 1459.5,-0 1262.5,-0"/>
<text text-anchor="start" x="1270.5" y="-18" font-family="Helvetica,sans-Serif" font-size="10.00">slogo.UI.ModuleCreationHelper.create</text>
<text text-anchor="middle" x="1361" y="-7" font-family="Helvetica,sans-Serif" font-size="10.00">DebugStepOverButton</text>
</a>
</g>
</g>
<!-- Node30&#45;&gt;Node31 -->
<g id="edge39" class="edge"><title>Node30&#45;&gt;Node31</title>
<path fill="none" stroke="midnightblue" d="M1231.89,-15C1242.04,-15 1252.26,-15 1262.27,-15"/>
<polygon fill="midnightblue" stroke="midnightblue" points="1231.78,-11.5001 1221.78,-15 1231.78,-18.5001 1231.78,-11.5001"/>
</g>
<!-- Node31&#45;&gt;Node28 -->
<g id="edge40" class="edge"><title>Node31&#45;&gt;Node28</title>
<path fill="none" stroke="midnightblue" d="M1466.99,-31.6227C1480.31,-33.7329 1493.89,-35.8827 1507.05,-37.966"/>
<polygon fill="midnightblue" stroke="midnightblue" points="1467.28,-28.1256 1456.85,-30.0186 1466.18,-35.0395 1467.28,-28.1256"/>
</g>
</g>
</svg>
