<?xml version="1.0" encoding="UTF-8" standalone="no"?>
<!DOCTYPE svg PUBLIC "-//W3C//DTD SVG 1.1//EN"
 "http://www.w3.org/Graphics/SVG/1.1/DTD/svg11.dtd">
<!-- Generated by graphviz version 2.36.0 (20140111.2315)
 -->
<!-- Title: slogo.UI.ModuleCreationHelper.createLoadButton Pages: 1 -->
<svg width="1090pt" height="332pt"
 viewBox="0.00 0.00 1090.00 332.00" xmlns="http://www.w3.org/2000/svg" xmlns:xlink="http://www.w3.org/1999/xlink">
<g id="graph0" class="graph" transform="scale(1 1) rotate(0) translate(4 328)">
<title>slogo.UI.ModuleCreationHelper.createLoadButton</title>
<polygon fill="white" stroke="none" points="-4,4 -4,-328 1086,-328 1086,4 -4,4"/>
<!-- Node1 -->
<g id="node1" class="node"><title>Node1</title>
<polygon fill="#bfbfbf" stroke="black" points="0.5,-146 0.5,-176 197.5,-176 197.5,-146 0.5,-146"/>
<text text-anchor="start" x="8.5" y="-164" font-family="Helvetica,sans-Serif" font-size="10.00">slogo.UI.ModuleCreationHelper.create</text>
<text text-anchor="middle" x="99" y="-153" font-family="Helvetica,sans-Serif" font-size="10.00">LoadButton</text>
</g>
<!-- Node2 -->
<g id="node2" class="node"><title>Node2</title>
<g id="a_node2"><a xlink:href="../../db/d19/classslogo_1_1_u_i_1_1_module_creation_helper.html#aa6a7c88b3112494b64bba3cfc608e2be" target="_top" xlink:title="slogo.UI.ModuleCreationHelper.activate\lLoadButton">
<polygon fill="white" stroke="black" points="234.5,-171 234.5,-201 439.5,-201 439.5,-171 234.5,-171"/>
<text text-anchor="start" x="242.5" y="-189" font-family="Helvetica,sans-Serif" font-size="10.00">slogo.UI.ModuleCreationHelper.activate</text>
<text text-anchor="middle" x="337" y="-178" font-family="Helvetica,sans-Serif" font-size="10.00">LoadButton</text>
</a>
</g>
</g>
<!-- Node1&#45;&gt;Node2 -->
<g id="edge1" class="edge"><title>Node1&#45;&gt;Node2</title>
<path fill="none" stroke="midnightblue" d="M197.694,-171.349C206.446,-172.276 215.353,-173.22 224.212,-174.158"/>
<polygon fill="midnightblue" stroke="midnightblue" points="223.871,-177.641 234.184,-175.214 224.609,-170.68 223.871,-177.641"/>
</g>
<!-- Node15 -->
<g id="node15" class="node"><title>Node15</title>
<g id="a_node15"><a xlink:href="../../d6/d9d/classslogo_1_1_u_i_1_1_button_creator.html#a26b4ab485f0d82531b0bb7d279cc83eb" target="_top" xlink:title="slogo.UI.ButtonCreator.create\lButton">
<polygon fill="white" stroke="black" points="257.5,-122 257.5,-152 416.5,-152 416.5,-122 257.5,-122"/>
<text text-anchor="start" x="265.5" y="-140" font-family="Helvetica,sans-Serif" font-size="10.00">slogo.UI.ButtonCreator.create</text>
<text text-anchor="middle" x="337" y="-129" font-family="Helvetica,sans-Serif" font-size="10.00">Button</text>
</a>
</g>
</g>
<!-- Node1&#45;&gt;Node15 -->
<g id="edge15" class="edge"><title>Node1&#45;&gt;Node15</title>
<path fill="none" stroke="midnightblue" d="M197.694,-151.065C214.181,-149.388 231.213,-147.656 247.45,-146.005"/>
<polygon fill="midnightblue" stroke="midnightblue" points="247.851,-149.482 257.446,-144.989 247.143,-142.518 247.851,-149.482"/>
</g>
<!-- Node3 -->
<g id="node3" class="node"><title>Node3</title>
<g id="a_node3"><a xlink:href="../../db/d19/classslogo_1_1_u_i_1_1_module_creation_helper.html#a02dec5fb299a1543ef2758bc6ae70dfb" target="_top" xlink:title="slogo.UI.ModuleCreationHelper.add\lToCertainList">
<polygon fill="white" stroke="black" points="478.5,-294 478.5,-324 663.5,-324 663.5,-294 478.5,-294"/>
<text text-anchor="start" x="486.5" y="-312" font-family="Helvetica,sans-Serif" font-size="10.00">slogo.UI.ModuleCreationHelper.add</text>
<text text-anchor="middle" x="571" y="-301" font-family="Helvetica,sans-Serif" font-size="10.00">ToCertainList</text>
</a>
</g>
</g>
<!-- Node2&#45;&gt;Node3 -->
<g id="edge2" class="edge"><title>Node2&#45;&gt;Node3</title>
<path fill="none" stroke="midnightblue" d="M355.02,-201.2C379.886,-222.646 428.382,-261.657 476,-284 481.191,-286.436 486.658,-288.665 492.237,-290.7"/>
<polygon fill="midnightblue" stroke="midnightblue" points="491.108,-294.013 501.703,-293.943 493.377,-287.39 491.108,-294.013"/>
</g>
<!-- Node6 -->
<g id="node6" class="node"><title>Node6</title>
<g id="a_node6"><a xlink:href="../../db/d19/classslogo_1_1_u_i_1_1_module_creation_helper.html#a09c0beb9734d7a18b69412fd9b86830e" target="_top" xlink:title="slogo.UI.ModuleCreationHelper.clear\lCertainList">
<polygon fill="white" stroke="black" points="476,-245 476,-275 666,-275 666,-245 476,-245"/>
<text text-anchor="start" x="484" y="-263" font-family="Helvetica,sans-Serif" font-size="10.00">slogo.UI.ModuleCreationHelper.clear</text>
<text text-anchor="middle" x="571" y="-252" font-family="Helvetica,sans-Serif" font-size="10.00">CertainList</text>
</a>
</g>
</g>
<!-- Node2&#45;&gt;Node6 -->
<g id="edge5" class="edge"><title>Node2&#45;&gt;Node6</title>
<path fill="none" stroke="midnightblue" d="M377.57,-201.014C405.005,-211.186 442.488,-224.613 476,-235 483.999,-237.479 492.427,-239.936 500.817,-242.287"/>
<polygon fill="midnightblue" stroke="midnightblue" points="500.05,-245.706 510.621,-244.992 501.912,-238.958 500.05,-245.706"/>
</g>
<!-- Node7 -->
<g id="node7" class="node"><title>Node7</title>
<g id="a_node7"><a xlink:href="../../dd/def/classslogo_1_1frontend_1_1_config_1_1_parameter_distributor.html#a7bac9213372ffab559d6115ab33bb837" target="_top" xlink:title="slogo.frontend.Config.Parameter\lDistributor.getColorMap">
<polygon fill="white" stroke="black" points="485,-196 485,-226 657,-226 657,-196 485,-196"/>
<text text-anchor="start" x="493" y="-214" font-family="Helvetica,sans-Serif" font-size="10.00">slogo.frontend.Config.Parameter</text>
<text text-anchor="middle" x="571" y="-203" font-family="Helvetica,sans-Serif" font-size="10.00">Distributor.getColorMap</text>
</a>
</g>
</g>
<!-- Node2&#45;&gt;Node7 -->
<g id="edge7" class="edge"><title>Node2&#45;&gt;Node7</title>
<path fill="none" stroke="midnightblue" d="M439.759,-196.965C451.435,-198.224 463.307,-199.503 474.891,-200.751"/>
<polygon fill="midnightblue" stroke="midnightblue" points="474.668,-204.247 484.986,-201.839 475.418,-197.288 474.668,-204.247"/>
</g>
<!-- Node8 -->
<g id="node8" class="node"><title>Node8</title>
<g id="a_node8"><a xlink:href="../../dd/def/classslogo_1_1frontend_1_1_config_1_1_parameter_distributor.html#aea7859afe42663af17f3e64171aae246" target="_top" xlink:title="slogo.frontend.Config.Parameter\lDistributor.getNumOfTurtles">
<polygon fill="white" stroke="black" points="485,-147 485,-177 657,-177 657,-147 485,-147"/>
<text text-anchor="start" x="493" y="-165" font-family="Helvetica,sans-Serif" font-size="10.00">slogo.frontend.Config.Parameter</text>
<text text-anchor="middle" x="571" y="-154" font-family="Helvetica,sans-Serif" font-size="10.00">Distributor.getNumOfTurtles</text>
</a>
</g>
</g>
<!-- Node2&#45;&gt;Node8 -->
<g id="edge8" class="edge"><title>Node2&#45;&gt;Node8</title>
<path fill="none" stroke="midnightblue" d="M439.759,-175.473C451.435,-174.265 463.307,-173.037 474.891,-171.839"/>
<polygon fill="midnightblue" stroke="midnightblue" points="475.399,-175.305 484.986,-170.795 474.679,-168.342 475.399,-175.305"/>
</g>
<!-- Node9 -->
<g id="node9" class="node"><title>Node9</title>
<g id="a_node9"><a xlink:href="../../dd/def/classslogo_1_1frontend_1_1_config_1_1_parameter_distributor.html#abfbc8b6e3d3f278a0dc46bba3422ce76" target="_top" xlink:title="slogo.frontend.Config.Parameter\lDistributor.getVariableMap">
<polygon fill="white" stroke="black" points="485,-98 485,-128 657,-128 657,-98 485,-98"/>
<text text-anchor="start" x="493" y="-116" font-family="Helvetica,sans-Serif" font-size="10.00">slogo.frontend.Config.Parameter</text>
<text text-anchor="middle" x="571" y="-105" font-family="Helvetica,sans-Serif" font-size="10.00">Distributor.getVariableMap</text>
</a>
</g>
</g>
<!-- Node2&#45;&gt;Node9 -->
<g id="edge9" class="edge"><title>Node2&#45;&gt;Node9</title>
<path fill="none" stroke="midnightblue" d="M411.936,-170.944C421.539,-168.102 431.116,-164.803 440,-161 457.455,-153.529 458.619,-145.642 476,-138 481.63,-135.525 487.561,-133.247 493.593,-131.162"/>
<polygon fill="midnightblue" stroke="midnightblue" points="494.711,-134.479 503.127,-128.043 492.534,-127.826 494.711,-134.479"/>
</g>
<!-- Node10 -->
<g id="node10" class="node"><title>Node10</title>
<g id="a_node10"><a xlink:href="../../d9/d3c/classslogo_1_1frontend_1_1_config_1_1_config_reader.html#ac79590c5fe1030679ca58c8c26ef8dab" target="_top" xlink:title="slogo.frontend.Config.Config\lReader.readFile">
<polygon fill="white" stroke="black" points="495,-49 495,-79 647,-79 647,-49 495,-49"/>
<text text-anchor="start" x="503" y="-67" font-family="Helvetica,sans-Serif" font-size="10.00">slogo.frontend.Config.Config</text>
<text text-anchor="middle" x="571" y="-56" font-family="Helvetica,sans-Serif" font-size="10.00">Reader.readFile</text>
</a>
</g>
</g>
<!-- Node2&#45;&gt;Node10 -->
<g id="edge10" class="edge"><title>Node2&#45;&gt;Node10</title>
<path fill="none" stroke="midnightblue" d="M424.151,-170.932C429.799,-168.149 435.156,-164.868 440,-161 467.959,-138.678 448.261,-111.595 476,-89 479.079,-86.4921 482.385,-84.234 485.851,-82.201"/>
<polygon fill="midnightblue" stroke="midnightblue" points="487.482,-85.2983 494.758,-77.5969 484.267,-79.08 487.482,-85.2983"/>
</g>
<!-- Node4 -->
<g id="node4" class="node"><title>Node4</title>
<g id="a_node4"><a xlink:href="../../db/dc0/classslogo_1_1_u_i_1_1_list_view_all_s_l_o_g_o.html#a5f743353bce4830934bcf532b97e7925" target="_top" xlink:title="slogo.UI.ListViewAllSLOGO.set\lItems">
<polygon fill="white" stroke="black" points="708.5,-269 708.5,-299 867.5,-299 867.5,-269 708.5,-269"/>
<text text-anchor="start" x="716.5" y="-287" font-family="Helvetica,sans-Serif" font-size="10.00">slogo.UI.ListViewAllSLOGO.set</text>
<text text-anchor="middle" x="788" y="-276" font-family="Helvetica,sans-Serif" font-size="10.00">Items</text>
</a>
</g>
</g>
<!-- Node3&#45;&gt;Node4 -->
<g id="edge3" class="edge"><title>Node3&#45;&gt;Node4</title>
<path fill="none" stroke="midnightblue" d="M663.803,-298.325C675.279,-296.991 686.998,-295.628 698.424,-294.3"/>
<polygon fill="midnightblue" stroke="midnightblue" points="698.846,-297.774 708.375,-293.142 698.037,-290.821 698.846,-297.774"/>
</g>
<!-- Node5 -->
<g id="node5" class="node"><title>Node5</title>
<g id="a_node5"><a xlink:href="../../da/d8f/classslogo_1_1_u_i_1_1_list_view_creator.html#a081368f4f2cd74f99d9d251625ae4871" target="_top" xlink:title="slogo.UI.ListViewCreator.get\lListView">
<polygon fill="white" stroke="black" points="921,-269 921,-299 1071,-299 1071,-269 921,-269"/>
<text text-anchor="start" x="929" y="-287" font-family="Helvetica,sans-Serif" font-size="10.00">slogo.UI.ListViewCreator.get</text>
<text text-anchor="middle" x="996" y="-276" font-family="Helvetica,sans-Serif" font-size="10.00">ListView</text>
</a>
</g>
</g>
<!-- Node4&#45;&gt;Node5 -->
<g id="edge4" class="edge"><title>Node4&#45;&gt;Node5</title>
<path fill="none" stroke="midnightblue" d="M867.762,-284C881.746,-284 896.362,-284 910.497,-284"/>
<polygon fill="midnightblue" stroke="midnightblue" points="910.689,-287.5 920.689,-284 910.689,-280.5 910.689,-287.5"/>
</g>
<!-- Node6&#45;&gt;Node4 -->
<g id="edge6" class="edge"><title>Node6&#45;&gt;Node4</title>
<path fill="none" stroke="midnightblue" d="M666.302,-270.527C676.904,-271.71 687.681,-272.913 698.21,-274.089"/>
<polygon fill="midnightblue" stroke="midnightblue" points="697.889,-277.574 708.215,-275.205 698.665,-270.618 697.889,-277.574"/>
</g>
<!-- Node11 -->
<g id="node11" class="node"><title>Node11</title>
<g id="a_node11"><a xlink:href="../../d9/d3c/classslogo_1_1frontend_1_1_config_1_1_config_reader.html#ae4744f47d2bdc03df7fdea398acf93c5" target="_top" xlink:title="slogo.frontend.Config.Config\lReader.calculateNumOfLines">
<polygon fill="white" stroke="black" points="711.5,-98 711.5,-128 864.5,-128 864.5,-98 711.5,-98"/>
<text text-anchor="start" x="719.5" y="-116" font-family="Helvetica,sans-Serif" font-size="10.00">slogo.frontend.Config.Config</text>
<text text-anchor="middle" x="788" y="-105" font-family="Helvetica,sans-Serif" font-size="10.00">Reader.calculateNumOfLines</text>
</a>
</g>
</g>
<!-- Node10&#45;&gt;Node11 -->
<g id="edge11" class="edge"><title>Node10&#45;&gt;Node11</title>
<path fill="none" stroke="midnightblue" d="M637.968,-79.0346C661.185,-84.3259 687.456,-90.3133 711.404,-95.7712"/>
<polygon fill="midnightblue" stroke="midnightblue" points="710.629,-99.1841 721.157,-97.9938 712.184,-92.3591 710.629,-99.1841"/>
</g>
<!-- Node12 -->
<g id="node12" class="node"><title>Node12</title>
<g id="a_node12"><a xlink:href="../../d9/d3c/classslogo_1_1frontend_1_1_config_1_1_config_reader.html#a4971123a7490154db778678d59b79f4d" target="_top" xlink:title="slogo.frontend.Config.Config\lReader.populateTextData">
<polygon fill="white" stroke="black" points="712,-49 712,-79 864,-79 864,-49 712,-49"/>
<text text-anchor="start" x="720" y="-67" font-family="Helvetica,sans-Serif" font-size="10.00">slogo.frontend.Config.Config</text>
<text text-anchor="middle" x="788" y="-56" font-family="Helvetica,sans-Serif" font-size="10.00">Reader.populateTextData</text>
</a>
</g>
</g>
<!-- Node10&#45;&gt;Node12 -->
<g id="edge12" class="edge"><title>Node10&#45;&gt;Node12</title>
<path fill="none" stroke="midnightblue" d="M647.197,-64C664.791,-64 683.657,-64 701.657,-64"/>
<polygon fill="midnightblue" stroke="midnightblue" points="701.846,-67.5001 711.846,-64 701.846,-60.5001 701.846,-67.5001"/>
</g>
<!-- Node13 -->
<g id="node13" class="node"><title>Node13</title>
<g id="a_node13"><a xlink:href="../../dd/def/classslogo_1_1frontend_1_1_config_1_1_parameter_distributor.html#a44241aeccc00d7aafa4c6b65abf62961" target="_top" xlink:title="slogo.frontend.Config.Parameter\lDistributor.readConfigHashMap">
<polygon fill="white" stroke="black" points="702,-0 702,-30 874,-30 874,-0 702,-0"/>
<text text-anchor="start" x="710" y="-18" font-family="Helvetica,sans-Serif" font-size="10.00">slogo.frontend.Config.Parameter</text>
<text text-anchor="middle" x="788" y="-7" font-family="Helvetica,sans-Serif" font-size="10.00">Distributor.readConfigHashMap</text>
</a>
</g>
</g>
<!-- Node10&#45;&gt;Node13 -->
<g id="edge13" class="edge"><title>Node10&#45;&gt;Node13</title>
<path fill="none" stroke="midnightblue" d="M637.968,-48.9654C661.185,-43.6741 687.456,-37.6867 711.404,-32.2288"/>
<polygon fill="midnightblue" stroke="midnightblue" points="712.184,-35.6409 721.157,-30.0062 710.629,-28.8159 712.184,-35.6409"/>
</g>
<!-- Node14 -->
<g id="node14" class="node"><title>Node14</title>
<g id="a_node14"><a xlink:href="../../dd/def/classslogo_1_1frontend_1_1_config_1_1_parameter_distributor.html#a36e5a2113ad3ba19c2005f177d542249" target="_top" xlink:title="slogo.frontend.Config.Parameter\lDistributor.distributeVariables">
<polygon fill="white" stroke="black" points="910,-0 910,-30 1082,-30 1082,-0 910,-0"/>
<text text-anchor="start" x="918" y="-18" font-family="Helvetica,sans-Serif" font-size="10.00">slogo.frontend.Config.Parameter</text>
<text text-anchor="middle" x="996" y="-7" font-family="Helvetica,sans-Serif" font-size="10.00">Distributor.distributeVariables</text>
</a>
</g>
</g>
<!-- Node13&#45;&gt;Node14 -->
<g id="edge14" class="edge"><title>Node13&#45;&gt;Node14</title>
<path fill="none" stroke="midnightblue" d="M874.275,-15C882.616,-15 891.118,-15 899.551,-15"/>
<polygon fill="midnightblue" stroke="midnightblue" points="899.789,-18.5001 909.789,-15 899.789,-11.5001 899.789,-18.5001"/>
</g>
</g>
</svg>
