<?xml version="1.0" encoding="UTF-8" standalone="no"?>
<!DOCTYPE svg PUBLIC "-//W3C//DTD SVG 1.1//EN"
 "http://www.w3.org/Graphics/SVG/1.1/DTD/svg11.dtd">
<!-- Generated by graphviz version 2.36.0 (20140111.2315)
 -->
<!-- Title: slogo.UI.ModuleCreationHelper.createGridCheckBox Pages: 1 -->
<svg width="630pt" height="126pt"
 viewBox="0.00 0.00 630.00 126.00" xmlns="http://www.w3.org/2000/svg" xmlns:xlink="http://www.w3.org/1999/xlink">
<g id="graph0" class="graph" transform="scale(1 1) rotate(0) translate(4 122)">
<title>slogo.UI.ModuleCreationHelper.createGridCheckBox</title>
<polygon fill="white" stroke="none" points="-4,4 -4,-122 626,-122 626,4 -4,4"/>
<!-- Node1 -->
<g id="node1" class="node"><title>Node1</title>
<polygon fill="#bfbfbf" stroke="black" points="0.5,-49 0.5,-79 197.5,-79 197.5,-49 0.5,-49"/>
<text text-anchor="start" x="8.5" y="-67" font-family="Helvetica,sans-Serif" font-size="10.00">slogo.UI.ModuleCreationHelper.create</text>
<text text-anchor="middle" x="99" y="-56" font-family="Helvetica,sans-Serif" font-size="10.00">GridCheckBox</text>
</g>
<!-- Node2 -->
<g id="node2" class="node"><title>Node2</title>
<g id="a_node2"><a xlink:href="../../de/d15/classslogo_1_1_u_i_1_1_grid_lines_toggler.html#a8aa5a690c681e51b543cc77d6fbf144a" target="_top" xlink:title="slogo.UI.GridLinesToggler.activate">
<polygon fill="white" stroke="black" points="234,-54.5 234,-73.5 410,-73.5 410,-54.5 234,-54.5"/>
<text text-anchor="middle" x="322" y="-61.5" font-family="Helvetica,sans-Serif" font-size="10.00">slogo.UI.GridLinesToggler.activate</text>
</a>
</g>
</g>
<!-- Node1&#45;&gt;Node2 -->
<g id="edge1" class="edge"><title>Node1&#45;&gt;Node2</title>
<path fill="none" stroke="midnightblue" d="M197.577,-64C206.221,-64 214.971,-64 223.613,-64"/>
<polygon fill="midnightblue" stroke="midnightblue" points="223.695,-67.5001 233.695,-64 223.695,-60.5001 223.695,-67.5001"/>
</g>
<!-- Node3 -->
<g id="node3" class="node"><title>Node3</title>
<g id="a_node3"><a xlink:href="../../de/d15/classslogo_1_1_u_i_1_1_grid_lines_toggler.html#ae6245cdd68a7d7cd1a20ff11569dc196" target="_top" xlink:title="slogo.UI.GridLinesToggler.addLine">
<polygon fill="white" stroke="black" points="446,-98.5 446,-117.5 622,-117.5 622,-98.5 446,-98.5"/>
<text text-anchor="middle" x="534" y="-105.5" font-family="Helvetica,sans-Serif" font-size="10.00">slogo.UI.GridLinesToggler.addLine</text>
</a>
</g>
</g>
<!-- Node2&#45;&gt;Node3 -->
<g id="edge2" class="edge"><title>Node2&#45;&gt;Node3</title>
<path fill="none" stroke="midnightblue" d="M368.567,-73.5473C400.626,-80.2645 443.708,-89.2911 477.731,-96.4198"/>
<polygon fill="midnightblue" stroke="midnightblue" points="477.017,-99.8461 487.522,-98.4713 478.452,-92.9949 477.017,-99.8461"/>
</g>
<!-- Node4 -->
<g id="node4" class="node"><title>Node4</title>
<g id="a_node4"><a xlink:href="../../d1/d7e/classslogo_1_1_u_i_1_1_turtle_canvas.html#ab409c3c2a963bb1a71e825da03f25465" target="_top" xlink:title="slogo.UI.TurtleCanvas.get\lCanvas">
<polygon fill="white" stroke="black" points="465.5,-49 465.5,-79 602.5,-79 602.5,-49 465.5,-49"/>
<text text-anchor="start" x="473.5" y="-67" font-family="Helvetica,sans-Serif" font-size="10.00">slogo.UI.TurtleCanvas.get</text>
<text text-anchor="middle" x="534" y="-56" font-family="Helvetica,sans-Serif" font-size="10.00">Canvas</text>
</a>
</g>
</g>
<!-- Node2&#45;&gt;Node4 -->
<g id="edge3" class="edge"><title>Node2&#45;&gt;Node4</title>
<path fill="none" stroke="midnightblue" d="M410.235,-64C425.159,-64 440.576,-64 455.233,-64"/>
<polygon fill="midnightblue" stroke="midnightblue" points="455.244,-67.5001 465.244,-64 455.244,-60.5001 455.244,-67.5001"/>
</g>
<!-- Node5 -->
<g id="node5" class="node"><title>Node5</title>
<g id="a_node5"><a xlink:href="../../de/d15/classslogo_1_1_u_i_1_1_grid_lines_toggler.html#a8ff2ac3caf8b97a98683147f83aedef6" target="_top" xlink:title="slogo.UI.GridLinesToggler.remove\lLines">
<polygon fill="white" stroke="black" points="446.5,-0 446.5,-30 621.5,-30 621.5,-0 446.5,-0"/>
<text text-anchor="start" x="454.5" y="-18" font-family="Helvetica,sans-Serif" font-size="10.00">slogo.UI.GridLinesToggler.remove</text>
<text text-anchor="middle" x="534" y="-7" font-family="Helvetica,sans-Serif" font-size="10.00">Lines</text>
</a>
</g>
</g>
<!-- Node2&#45;&gt;Node5 -->
<g id="edge4" class="edge"><title>Node2&#45;&gt;Node5</title>
<path fill="none" stroke="midnightblue" d="M363.739,-54.4942C390.654,-48.214 426.723,-39.7979 458.649,-32.3487"/>
<polygon fill="midnightblue" stroke="midnightblue" points="459.466,-35.7521 468.409,-30.0713 457.875,-28.9352 459.466,-35.7521"/>
</g>
</g>
</svg>
