<?xml version="1.0" encoding="UTF-8" standalone="no"?>
<!DOCTYPE svg PUBLIC "-//W3C//DTD SVG 1.1//EN"
 "http://www.w3.org/Graphics/SVG/1.1/DTD/svg11.dtd">
<!-- Generated by graphviz version 2.36.0 (20140111.2315)
 -->
<!-- Title: slogo.UI.ModuleCreationHelper.createTitle Pages: 1 -->
<svg width="394pt" height="38pt"
 viewBox="0.00 0.00 394.00 38.00" xmlns="http://www.w3.org/2000/svg" xmlns:xlink="http://www.w3.org/1999/xlink">
<g id="graph0" class="graph" transform="scale(1 1) rotate(0) translate(4 34)">
<title>slogo.UI.ModuleCreationHelper.createTitle</title>
<polygon fill="white" stroke="none" points="-4,4 -4,-34 390,-34 390,4 -4,4"/>
<!-- Node1 -->
<g id="node1" class="node"><title>Node1</title>
<polygon fill="#bfbfbf" stroke="black" points="0.5,-0 0.5,-30 197.5,-30 197.5,-0 0.5,-0"/>
<text text-anchor="start" x="8.5" y="-18" font-family="Helvetica,sans-Serif" font-size="10.00">slogo.UI.ModuleCreationHelper.create</text>
<text text-anchor="middle" x="99" y="-7" font-family="Helvetica,sans-Serif" font-size="10.00">Title</text>
</g>
<!-- Node2 -->
<g id="node2" class="node"><title>Node2</title>
<g id="a_node2"><a xlink:href="../../d7/d0e/classslogo_1_1_u_i_1_1_label_creator.html#a9ca0989ecfc0037d473dd3d2e8ead74f" target="_top" xlink:title="slogo.UI.LabelCreator.create\lLabel">
<polygon fill="white" stroke="black" points="234,-0 234,-30 386,-30 386,-0 234,-0"/>
<text text-anchor="start" x="242" y="-18" font-family="Helvetica,sans-Serif" font-size="10.00">slogo.UI.LabelCreator.create</text>
<text text-anchor="middle" x="310" y="-7" font-family="Helvetica,sans-Serif" font-size="10.00">Label</text>
</a>
</g>
</g>
<!-- Node1&#45;&gt;Node2 -->
<g id="edge1" class="edge"><title>Node1&#45;&gt;Node2</title>
<path fill="none" stroke="midnightblue" d="M197.769,-15C206.379,-15 215.051,-15 223.548,-15"/>
<polygon fill="midnightblue" stroke="midnightblue" points="223.812,-18.5001 233.812,-15 223.811,-11.5001 223.812,-18.5001"/>
</g>
</g>
</svg>
