<?xml version="1.0" encoding="UTF-8" standalone="no"?>
<!DOCTYPE svg PUBLIC "-//W3C//DTD SVG 1.1//EN"
 "http://www.w3.org/Graphics/SVG/1.1/DTD/svg11.dtd">
<!-- Generated by graphviz version 2.36.0 (20140111.2315)
 -->
<!-- Title: slogo.UI.ModuleCreationHelper.getTurtleList Pages: 1 -->
<svg width="2774pt" height="464pt"
 viewBox="0.00 0.00 2774.00 464.00" xmlns="http://www.w3.org/2000/svg" xmlns:xlink="http://www.w3.org/1999/xlink">
<g id="graph0" class="graph" transform="scale(1 1) rotate(0) translate(4 460)">
<title>slogo.UI.ModuleCreationHelper.getTurtleList</title>
<polygon fill="white" stroke="none" points="-4,4 -4,-460 2770,-460 2770,4 -4,4"/>
<!-- Node1 -->
<g id="node1" class="node"><title>Node1</title>
<polygon fill="#bfbfbf" stroke="black" points="0,-395 0,-425 182,-425 182,-395 0,-395"/>
<text text-anchor="start" x="8" y="-413" font-family="Helvetica,sans-Serif" font-size="10.00">slogo.UI.ModuleCreationHelper.get</text>
<text text-anchor="middle" x="91" y="-402" font-family="Helvetica,sans-Serif" font-size="10.00">TurtleList</text>
</g>
<!-- Node2 -->
<g id="node2" class="node"><title>Node2</title>
<g id="a_node2"><a xlink:href="../../d9/d7e/classslogo_1_1_u_i_1_1_method_runner.html#a5fe4a6310ba1b0851d7d30a440511324" target="_top" xlink:title="slogo.UI.MethodRunner.change\lTurtle">
<polygon fill="white" stroke="black" points="218,-370 218,-400 382,-400 382,-370 218,-370"/>
<text text-anchor="start" x="226" y="-388" font-family="Helvetica,sans-Serif" font-size="10.00">slogo.UI.MethodRunner.change</text>
<text text-anchor="middle" x="300" y="-377" font-family="Helvetica,sans-Serif" font-size="10.00">Turtle</text>
</a>
</g>
</g>
<!-- Node1&#45;&gt;Node2 -->
<g id="edge1" class="edge"><title>Node1&#45;&gt;Node2</title>
<path fill="none" stroke="midnightblue" d="M192.253,-397.892C200.848,-396.854 209.474,-395.812 217.891,-394.796"/>
<polygon fill="midnightblue" stroke="midnightblue" points="191.699,-394.434 182.191,-399.107 192.539,-401.383 191.699,-394.434"/>
</g>
<!-- Node32 -->
<g id="node32" class="node"><title>Node32</title>
<g id="a_node32"><a xlink:href="../../df/d2d/classslogo_1_1_view.html#ad4c9fa7b6b599050e6cd3cc1954f39c9" target="_top" xlink:title="slogo.View.initRunner">
<polygon fill="white" stroke="black" points="427,-436.5 427,-455.5 543,-455.5 543,-436.5 427,-436.5"/>
<text text-anchor="middle" x="485" y="-443.5" font-family="Helvetica,sans-Serif" font-size="10.00">slogo.View.initRunner</text>
</a>
</g>
</g>
<!-- Node1&#45;&gt;Node32 -->
<g id="edge41" class="edge"><title>Node1&#45;&gt;Node32</title>
<path fill="none" stroke="midnightblue" d="M192.745,-419.252C267.063,-426.077 365.523,-435.119 426.801,-440.747"/>
<polygon fill="midnightblue" stroke="midnightblue" points="192.703,-415.734 182.425,-418.304 192.063,-422.704 192.703,-415.734"/>
</g>
<!-- Node3 -->
<g id="node3" class="node"><title>Node3</title>
<g id="a_node3"><a xlink:href="../../df/d2d/classslogo_1_1_view.html#accc79c56511a72090ff8a4d414b8d1f5" target="_top" xlink:title="slogo.View.executeTurtle\lCommands">
<polygon fill="white" stroke="black" points="418.5,-367 418.5,-397 551.5,-397 551.5,-367 418.5,-367"/>
<text text-anchor="start" x="426.5" y="-385" font-family="Helvetica,sans-Serif" font-size="10.00">slogo.View.executeTurtle</text>
<text text-anchor="middle" x="485" y="-374" font-family="Helvetica,sans-Serif" font-size="10.00">Commands</text>
</a>
</g>
</g>
<!-- Node2&#45;&gt;Node3 -->
<g id="edge2" class="edge"><title>Node2&#45;&gt;Node3</title>
<path fill="none" stroke="midnightblue" d="M392.35,-383.502C401.128,-383.359 409.907,-383.215 418.365,-383.076"/>
<polygon fill="midnightblue" stroke="midnightblue" points="392.007,-380.008 382.066,-383.671 392.122,-387.007 392.007,-380.008"/>
</g>
<!-- Node4 -->
<g id="node4" class="node"><title>Node4</title>
<g id="a_node4"><a xlink:href="../../df/d2d/classslogo_1_1_view.html#aa90e5d95d422b58b7f4b7f8a049defe1" target="_top" xlink:title="slogo.View.executeCommand">
<polygon fill="white" stroke="black" points="588,-349.5 588,-368.5 746,-368.5 746,-349.5 588,-349.5"/>
<text text-anchor="middle" x="667" y="-356.5" font-family="Helvetica,sans-Serif" font-size="10.00">slogo.View.executeCommand</text>
</a>
</g>
</g>
<!-- Node3&#45;&gt;Node4 -->
<g id="edge3" class="edge"><title>Node3&#45;&gt;Node4</title>
<path fill="none" stroke="midnightblue" d="M561.892,-372.303C571.726,-371.046 581.791,-369.76 591.6,-368.507"/>
<polygon fill="midnightblue" stroke="midnightblue" points="561.224,-368.86 551.748,-373.599 562.111,-375.803 561.224,-368.86"/>
</g>
<!-- Node5 -->
<g id="node5" class="node"><title>Node5</title>
<g id="a_node5"><a xlink:href="../../df/d2d/classslogo_1_1_view.html#aee563f6a0b15ac6668e4dcbdad40c73c" target="_top" xlink:title="slogo.View.sendCommandTo\lBackend">
<polygon fill="white" stroke="black" points="788,-176 788,-206 940,-206 940,-176 788,-176"/>
<text text-anchor="start" x="796" y="-194" font-family="Helvetica,sans-Serif" font-size="10.00">slogo.View.sendCommandTo</text>
<text text-anchor="middle" x="864" y="-183" font-family="Helvetica,sans-Serif" font-size="10.00">Backend</text>
</a>
</g>
</g>
<!-- Node4&#45;&gt;Node5 -->
<g id="edge4" class="edge"><title>Node4&#45;&gt;Node5</title>
<path fill="none" stroke="midnightblue" d="M686.74,-342.855C724.373,-310.432 808.667,-237.81 845.366,-206.192"/>
<polygon fill="midnightblue" stroke="midnightblue" points="684.334,-340.307 679.043,-349.486 688.903,-345.611 684.334,-340.307"/>
</g>
<!-- Node25 -->
<g id="node25" class="node"><title>Node25</title>
<g id="a_node25"><a xlink:href="../../df/d2d/classslogo_1_1_view.html#a4c3084a198acf85804800d70eff9ee51" target="_top" xlink:title="slogo.View.stepIntoCommand">
<polygon fill="white" stroke="black" points="785,-348.5 785,-367.5 943,-367.5 943,-348.5 785,-348.5"/>
<text text-anchor="middle" x="864" y="-355.5" font-family="Helvetica,sans-Serif" font-size="10.00">slogo.View.stepIntoCommand</text>
</a>
</g>
</g>
<!-- Node4&#45;&gt;Node25 -->
<g id="edge32" class="edge"><title>Node4&#45;&gt;Node25</title>
<path fill="none" stroke="midnightblue" d="M756.402,-358.547C765.87,-358.498 775.454,-358.449 784.792,-358.401"/>
<polygon fill="midnightblue" stroke="midnightblue" points="756.172,-355.048 746.19,-358.599 756.208,-362.048 756.172,-355.048"/>
</g>
<!-- Node29 -->
<g id="node29" class="node"><title>Node29</title>
<g id="a_node29"><a xlink:href="../../df/d2d/classslogo_1_1_view.html#ac8b7f574c679e744a430f1649dc55e68" target="_top" xlink:title="slogo.View.stepOverCommand">
<polygon fill="white" stroke="black" points="782.5,-391.5 782.5,-410.5 945.5,-410.5 945.5,-391.5 782.5,-391.5"/>
<text text-anchor="middle" x="864" y="-398.5" font-family="Helvetica,sans-Serif" font-size="10.00">slogo.View.stepOverCommand</text>
</a>
</g>
</g>
<!-- Node4&#45;&gt;Node29 -->
<g id="edge37" class="edge"><title>Node4&#45;&gt;Node29</title>
<path fill="none" stroke="midnightblue" d="M722.252,-370.685C752.611,-377.224 789.985,-385.274 818.589,-391.435"/>
<polygon fill="midnightblue" stroke="midnightblue" points="722.761,-367.215 712.249,-368.53 721.287,-374.058 722.761,-367.215"/>
</g>
<!-- Node6 -->
<g id="node6" class="node"><title>Node6</title>
<g id="a_node6"><a xlink:href="../../db/d19/classslogo_1_1_u_i_1_1_module_creation_helper.html#a69e17abcc7cf9a6ed7261d8fb1d631fa" target="_top" xlink:title="slogo.UI.ModuleCreationHelper.activate\lIncreaseDecreaseButtons">
<polygon fill="white" stroke="black" points="982.5,-0 982.5,-30 1187.5,-30 1187.5,-0 982.5,-0"/>
<text text-anchor="start" x="990.5" y="-18" font-family="Helvetica,sans-Serif" font-size="10.00">slogo.UI.ModuleCreationHelper.activate</text>
<text text-anchor="middle" x="1085" y="-7" font-family="Helvetica,sans-Serif" font-size="10.00">IncreaseDecreaseButtons</text>
</a>
</g>
</g>
<!-- Node5&#45;&gt;Node6 -->
<g id="edge5" class="edge"><title>Node5&#45;&gt;Node6</title>
<path fill="none" stroke="midnightblue" d="M877.059,-166.665C895.103,-132.86 932.384,-72.2223 982,-40 987.963,-36.1272 994.477,-32.8541 1001.24,-30.088"/>
<polygon fill="midnightblue" stroke="midnightblue" points="873.797,-165.352 872.285,-175.838 880.006,-168.584 873.797,-165.352"/>
</g>
<!-- Node13 -->
<g id="node13" class="node"><title>Node13</title>
<g id="a_node13"><a xlink:href="../../db/d19/classslogo_1_1_u_i_1_1_module_creation_helper.html#aa70b0ad9e90e62509149bfd2ef2ba209" target="_top" xlink:title="slogo.UI.ModuleCreationHelper.activate\lKeyEvents">
<polygon fill="white" stroke="black" points="1708.5,-296 1708.5,-326 1913.5,-326 1913.5,-296 1708.5,-296"/>
<text text-anchor="start" x="1716.5" y="-314" font-family="Helvetica,sans-Serif" font-size="10.00">slogo.UI.ModuleCreationHelper.activate</text>
<text text-anchor="middle" x="1811" y="-303" font-family="Helvetica,sans-Serif" font-size="10.00">KeyEvents</text>
</a>
</g>
</g>
<!-- Node5&#45;&gt;Node13 -->
<g id="edge13" class="edge"><title>Node5&#45;&gt;Node13</title>
<path fill="none" stroke="midnightblue" d="M891.099,-212.419C913.668,-229.623 947.945,-252.709 982,-264 1113.88,-307.726 1517.53,-312.235 1708.21,-311.806"/>
<polygon fill="midnightblue" stroke="midnightblue" points="893.088,-209.532 883.047,-206.151 888.788,-215.056 893.088,-209.532"/>
</g>
<!-- Node14 -->
<g id="node14" class="node"><title>Node14</title>
<g id="a_node14"><a xlink:href="../../db/d19/classslogo_1_1_u_i_1_1_module_creation_helper.html#a2e841243ec3ca474e8822102343acc88" target="_top" xlink:title="slogo.UI.ModuleCreationHelper.activate\lNewTurtleButton">
<polygon fill="white" stroke="black" points="1224.5,-211 1224.5,-241 1429.5,-241 1429.5,-211 1224.5,-211"/>
<text text-anchor="start" x="1232.5" y="-229" font-family="Helvetica,sans-Serif" font-size="10.00">slogo.UI.ModuleCreationHelper.activate</text>
<text text-anchor="middle" x="1327" y="-218" font-family="Helvetica,sans-Serif" font-size="10.00">NewTurtleButton</text>
</a>
</g>
</g>
<!-- Node5&#45;&gt;Node14 -->
<g id="edge15" class="edge"><title>Node5&#45;&gt;Node14</title>
<path fill="none" stroke="midnightblue" d="M938.298,-208.025C952.714,-210.809 967.778,-213.326 982,-215 1063.15,-224.55 1155.76,-227.036 1224.44,-227.28"/>
<polygon fill="midnightblue" stroke="midnightblue" points="938.93,-204.582 928.439,-206.062 937.563,-211.447 938.93,-204.582"/>
</g>
<!-- Node16 -->
<g id="node16" class="node"><title>Node16</title>
<g id="a_node16"><a xlink:href="../../db/d19/classslogo_1_1_u_i_1_1_module_creation_helper.html#a9b1f07ab673191067907a059b1b0c524" target="_top" xlink:title="slogo.UI.ModuleCreationHelper.activate\lPlayButton">
<polygon fill="white" stroke="black" points="982.5,-176 982.5,-206 1187.5,-206 1187.5,-176 982.5,-176"/>
<text text-anchor="start" x="990.5" y="-194" font-family="Helvetica,sans-Serif" font-size="10.00">slogo.UI.ModuleCreationHelper.activate</text>
<text text-anchor="middle" x="1085" y="-183" font-family="Helvetica,sans-Serif" font-size="10.00">PlayButton</text>
</a>
</g>
</g>
<!-- Node5&#45;&gt;Node16 -->
<g id="edge18" class="edge"><title>Node5&#45;&gt;Node16</title>
<path fill="none" stroke="midnightblue" d="M950.082,-191C960.652,-191 971.54,-191 982.327,-191"/>
<polygon fill="midnightblue" stroke="midnightblue" points="950.061,-187.5 940.061,-191 950.061,-194.5 950.061,-187.5"/>
</g>
<!-- Node19 -->
<g id="node19" class="node"><title>Node19</title>
<g id="a_node19"><a xlink:href="../../db/d19/classslogo_1_1_u_i_1_1_module_creation_helper.html#a3a38d485562cb17591ec3fd07cffc18a" target="_top" xlink:title="slogo.UI.ModuleCreationHelper.activate\lTurtleCanvas">
<polygon fill="white" stroke="black" points="1466.5,-252 1466.5,-282 1671.5,-282 1671.5,-252 1466.5,-252"/>
<text text-anchor="start" x="1474.5" y="-270" font-family="Helvetica,sans-Serif" font-size="10.00">slogo.UI.ModuleCreationHelper.activate</text>
<text text-anchor="middle" x="1569" y="-259" font-family="Helvetica,sans-Serif" font-size="10.00">TurtleCanvas</text>
</a>
</g>
</g>
<!-- Node5&#45;&gt;Node19 -->
<g id="edge22" class="edge"><title>Node5&#45;&gt;Node19</title>
<path fill="none" stroke="midnightblue" d="M906.828,-210.2C928.743,-219.361 956.305,-229.502 982,-235 1149.01,-270.737 1348.55,-273.394 1466.42,-270.969"/>
<polygon fill="midnightblue" stroke="midnightblue" points="908.065,-206.923 897.494,-206.216 905.317,-213.361 908.065,-206.923"/>
</g>
<!-- Node21 -->
<g id="node21" class="node"><title>Node21</title>
<g id="a_node21"><a xlink:href="../../d1/d5f/classslogo_1_1_u_i_1_1_path_color_selector.html#ad3d9c82a0904c97edcec7cf67b85bd7b" target="_top" xlink:title="slogo.UI.PathColorSelector.create">
<polygon fill="white" stroke="black" points="997,-137.5 997,-156.5 1173,-156.5 1173,-137.5 997,-137.5"/>
<text text-anchor="middle" x="1085" y="-144.5" font-family="Helvetica,sans-Serif" font-size="10.00">slogo.UI.PathColorSelector.create</text>
</a>
</g>
</g>
<!-- Node5&#45;&gt;Node21 -->
<g id="edge25" class="edge"><title>Node5&#45;&gt;Node21</title>
<path fill="none" stroke="midnightblue" d="M944.012,-173.821C956.704,-171.147 969.705,-168.458 982,-166 997.985,-162.804 1015.42,-159.493 1031.27,-156.548"/>
<polygon fill="midnightblue" stroke="midnightblue" points="942.977,-170.463 933.919,-175.958 944.427,-177.311 942.977,-170.463"/>
</g>
<!-- Node23 -->
<g id="node23" class="node"><title>Node23</title>
<g id="a_node23"><a xlink:href="../../d4/d8d/classslogo_1_1_u_i_1_1_background_color_selector.html#ad75ba4ce104e071811d0fe039a4e839f" target="_top" xlink:title="slogo.UI.BackgroundColor\lSelector.create">
<polygon fill="white" stroke="black" points="1015,-88 1015,-118 1155,-118 1155,-88 1015,-88"/>
<text text-anchor="start" x="1023" y="-106" font-family="Helvetica,sans-Serif" font-size="10.00">slogo.UI.BackgroundColor</text>
<text text-anchor="middle" x="1085" y="-95" font-family="Helvetica,sans-Serif" font-size="10.00">Selector.create</text>
</a>
</g>
</g>
<!-- Node5&#45;&gt;Node23 -->
<g id="edge28" class="edge"><title>Node5&#45;&gt;Node23</title>
<path fill="none" stroke="midnightblue" d="M897.42,-170.646C920.332,-156.994 952.156,-139.478 982,-128 992.466,-123.975 1003.79,-120.441 1014.96,-117.395"/>
<polygon fill="midnightblue" stroke="midnightblue" points="895.544,-167.69 888.792,-175.855 899.162,-173.683 895.544,-167.69"/>
</g>
<!-- Node24 -->
<g id="node24" class="node"><title>Node24</title>
<g id="a_node24"><a xlink:href="../../dd/da7/classslogo_1_1_u_i_1_1_turtle_image_selector.html#a3f268d9196ffebcbb5dc322d2897a9fe" target="_top" xlink:title="slogo.UI.TurtleImageSelector.create">
<polygon fill="white" stroke="black" points="992,-49.5 992,-68.5 1178,-68.5 1178,-49.5 992,-49.5"/>
<text text-anchor="middle" x="1085" y="-56.5" font-family="Helvetica,sans-Serif" font-size="10.00">slogo.UI.TurtleImageSelector.create</text>
</a>
</g>
</g>
<!-- Node5&#45;&gt;Node24 -->
<g id="edge30" class="edge"><title>Node5&#45;&gt;Node24</title>
<path fill="none" stroke="midnightblue" d="M882.352,-167.412C903.018,-141.17 940.057,-99.6277 982,-78 989.525,-74.12 997.724,-71.0242 1006.1,-68.5555"/>
<polygon fill="midnightblue" stroke="midnightblue" points="879.318,-165.616 875.988,-175.674 884.863,-169.887 879.318,-165.616"/>
</g>
<!-- Node7 -->
<g id="node7" class="node"><title>Node7</title>
<g id="a_node7"><a xlink:href="../../db/d19/classslogo_1_1_u_i_1_1_module_creation_helper.html#adce7362386f9a7b3006e7db08a2d578d" target="_top" xlink:title="slogo.UI.ModuleCreationHelper.create\lIncreaseDecreaseButtons">
<polygon fill="white" stroke="black" points="1470.5,-39 1470.5,-69 1667.5,-69 1667.5,-39 1470.5,-39"/>
<text text-anchor="start" x="1478.5" y="-57" font-family="Helvetica,sans-Serif" font-size="10.00">slogo.UI.ModuleCreationHelper.create</text>
<text text-anchor="middle" x="1569" y="-46" font-family="Helvetica,sans-Serif" font-size="10.00">IncreaseDecreaseButtons</text>
</a>
</g>
</g>
<!-- Node6&#45;&gt;Node7 -->
<g id="edge6" class="edge"><title>Node6&#45;&gt;Node7</title>
<path fill="none" stroke="midnightblue" d="M1197.79,-24.0454C1280.23,-30.7153 1391.29,-39.7022 1470.21,-46.0877"/>
<polygon fill="midnightblue" stroke="midnightblue" points="1197.88,-20.5412 1187.63,-23.2232 1197.32,-27.5184 1197.88,-20.5412"/>
</g>
<!-- Node8 -->
<g id="node8" class="node"><title>Node8</title>
<g id="a_node8"><a xlink:href="../../db/d19/classslogo_1_1_u_i_1_1_module_creation_helper.html#a7c650957b2389d6e6d36e8be8a33cd2b" target="_top" xlink:title="slogo.UI.ModuleCreationHelper.create\lSelectorVBoxModules">
<polygon fill="white" stroke="black" points="1712.5,-163 1712.5,-193 1909.5,-193 1909.5,-163 1712.5,-163"/>
<text text-anchor="start" x="1720.5" y="-181" font-family="Helvetica,sans-Serif" font-size="10.00">slogo.UI.ModuleCreationHelper.create</text>
<text text-anchor="middle" x="1811" y="-170" font-family="Helvetica,sans-Serif" font-size="10.00">SelectorVBoxModules</text>
</a>
</g>
</g>
<!-- Node7&#45;&gt;Node8 -->
<g id="edge7" class="edge"><title>Node7&#45;&gt;Node8</title>
<path fill="none" stroke="midnightblue" d="M1615.37,-73.4033C1633.19,-81.3003 1653.72,-90.7384 1672,-100 1712.26,-120.403 1757.57,-146.676 1784.94,-162.924"/>
<polygon fill="midnightblue" stroke="midnightblue" points="1616.34,-70.0065 1605.78,-69.1854 1613.52,-76.4145 1616.34,-70.0065"/>
</g>
<!-- Node9 -->
<g id="node9" class="node"><title>Node9</title>
<g id="a_node9"><a xlink:href="../../db/d19/classslogo_1_1_u_i_1_1_module_creation_helper.html#afb9dbbbad7d872234a5b296fe129a34e" target="_top" xlink:title="slogo.UI.ModuleCreationHelper.create\lMainPageModules">
<polygon fill="white" stroke="black" points="1950.5,-271 1950.5,-301 2147.5,-301 2147.5,-271 1950.5,-271"/>
<text text-anchor="start" x="1958.5" y="-289" font-family="Helvetica,sans-Serif" font-size="10.00">slogo.UI.ModuleCreationHelper.create</text>
<text text-anchor="middle" x="2049" y="-278" font-family="Helvetica,sans-Serif" font-size="10.00">MainPageModules</text>
</a>
</g>
</g>
<!-- Node8&#45;&gt;Node9 -->
<g id="edge8" class="edge"><title>Node8&#45;&gt;Node9</title>
<path fill="none" stroke="midnightblue" d="M1853.93,-197.188C1899.98,-218.262 1972.97,-251.665 2015.08,-270.937"/>
<polygon fill="midnightblue" stroke="midnightblue" points="1855.36,-193.996 1844.81,-193.017 1852.45,-200.361 1855.36,-193.996"/>
</g>
<!-- Node10 -->
<g id="node10" class="node"><title>Node10</title>
<g id="a_node10"><a xlink:href="../../d9/d33/classslogo_1_1_u_i_1_1_main.html#a15b7f2e399ee24d160550993ab737e73" target="_top" xlink:title="slogo.UI.Main.start">
<polygon fill="white" stroke="black" points="2184,-276.5 2184,-295.5 2290,-295.5 2290,-276.5 2184,-276.5"/>
<text text-anchor="middle" x="2237" y="-283.5" font-family="Helvetica,sans-Serif" font-size="10.00">slogo.UI.Main.start</text>
</a>
</g>
</g>
<!-- Node9&#45;&gt;Node10 -->
<g id="edge9" class="edge"><title>Node9&#45;&gt;Node10</title>
<path fill="none" stroke="midnightblue" d="M2157.8,-286C2166.76,-286 2175.53,-286 2183.76,-286"/>
<polygon fill="midnightblue" stroke="midnightblue" points="2157.63,-282.5 2147.63,-286 2157.63,-289.5 2157.63,-282.5"/>
</g>
<!-- Node11 -->
<g id="node11" class="node"><title>Node11</title>
<g id="a_node11"><a xlink:href="../../db/d19/classslogo_1_1_u_i_1_1_module_creation_helper.html#a3be12a7cc2b8a219db1e296211a2cb88" target="_top" xlink:title="slogo.UI.ModuleCreationHelper.activate\lExtraWorkspaceButton">
<polygon fill="white" stroke="black" points="2326.5,-235 2326.5,-265 2531.5,-265 2531.5,-235 2326.5,-235"/>
<text text-anchor="start" x="2334.5" y="-253" font-family="Helvetica,sans-Serif" font-size="10.00">slogo.UI.ModuleCreationHelper.activate</text>
<text text-anchor="middle" x="2429" y="-242" font-family="Helvetica,sans-Serif" font-size="10.00">ExtraWorkspaceButton</text>
</a>
</g>
</g>
<!-- Node10&#45;&gt;Node11 -->
<g id="edge10" class="edge"><title>Node10&#45;&gt;Node11</title>
<path fill="none" stroke="midnightblue" d="M2298.63,-274.512C2314.54,-271.498 2331.93,-268.203 2348.65,-265.034"/>
<polygon fill="midnightblue" stroke="midnightblue" points="2297.59,-271.147 2288.42,-276.447 2298.89,-278.024 2297.59,-271.147"/>
</g>
<!-- Node12 -->
<g id="node12" class="node"><title>Node12</title>
<g id="a_node12"><a xlink:href="../../db/d19/classslogo_1_1_u_i_1_1_module_creation_helper.html#a702c1ebe24d2857a10c666eb1fcc315d" target="_top" xlink:title="slogo.UI.ModuleCreationHelper.create\lExtraWorkspaceButton">
<polygon fill="white" stroke="black" points="2568.5,-204 2568.5,-234 2765.5,-234 2765.5,-204 2568.5,-204"/>
<text text-anchor="start" x="2576.5" y="-222" font-family="Helvetica,sans-Serif" font-size="10.00">slogo.UI.ModuleCreationHelper.create</text>
<text text-anchor="middle" x="2667" y="-211" font-family="Helvetica,sans-Serif" font-size="10.00">ExtraWorkspaceButton</text>
</a>
</g>
</g>
<!-- Node11&#45;&gt;Node12 -->
<g id="edge11" class="edge"><title>Node11&#45;&gt;Node12</title>
<path fill="none" stroke="midnightblue" d="M2541.77,-235.319C2550.62,-234.156 2559.52,-232.986 2568.27,-231.837"/>
<polygon fill="midnightblue" stroke="midnightblue" points="2541.26,-231.856 2531.8,-236.628 2542.17,-238.796 2541.26,-231.856"/>
</g>
<!-- Node12&#45;&gt;Node8 -->
<g id="edge12" class="edge"><title>Node12&#45;&gt;Node8</title>
<path fill="none" stroke="midnightblue" d="M2558.34,-213.831C2390.9,-205.792 2070.6,-190.415 1909.55,-182.683"/>
<polygon fill="midnightblue" stroke="midnightblue" points="2558.26,-217.331 2568.41,-214.315 2558.59,-210.339 2558.26,-217.331"/>
</g>
<!-- Node13&#45;&gt;Node9 -->
<g id="edge14" class="edge"><title>Node13&#45;&gt;Node9</title>
<path fill="none" stroke="midnightblue" d="M1923.77,-299.16C1932.62,-298.222 1941.52,-297.279 1950.27,-296.352"/>
<polygon fill="midnightblue" stroke="midnightblue" points="1923.37,-295.682 1913.8,-300.216 1924.11,-302.643 1923.37,-295.682"/>
</g>
<!-- Node15 -->
<g id="node15" class="node"><title>Node15</title>
<g id="a_node15"><a xlink:href="../../db/d19/classslogo_1_1_u_i_1_1_module_creation_helper.html#a07f5483df317cdf80e8ea2dda5699afa" target="_top" xlink:title="slogo.UI.ModuleCreationHelper.create\lNewTurtleButton">
<polygon fill="white" stroke="black" points="1470.5,-203 1470.5,-233 1667.5,-233 1667.5,-203 1470.5,-203"/>
<text text-anchor="start" x="1478.5" y="-221" font-family="Helvetica,sans-Serif" font-size="10.00">slogo.UI.ModuleCreationHelper.create</text>
<text text-anchor="middle" x="1569" y="-210" font-family="Helvetica,sans-Serif" font-size="10.00">NewTurtleButton</text>
</a>
</g>
</g>
<!-- Node14&#45;&gt;Node15 -->
<g id="edge16" class="edge"><title>Node14&#45;&gt;Node15</title>
<path fill="none" stroke="midnightblue" d="M1439.89,-222.27C1450.04,-221.932 1460.26,-221.591 1470.27,-221.258"/>
<polygon fill="midnightblue" stroke="midnightblue" points="1439.66,-218.776 1429.78,-222.607 1439.89,-225.772 1439.66,-218.776"/>
</g>
<!-- Node15&#45;&gt;Node8 -->
<g id="edge17" class="edge"><title>Node15&#45;&gt;Node8</title>
<path fill="none" stroke="midnightblue" d="M1670.22,-201.297C1686.68,-198.553 1703.65,-195.725 1719.84,-193.026"/>
<polygon fill="midnightblue" stroke="midnightblue" points="1669.34,-197.895 1660.05,-202.992 1670.49,-204.8 1669.34,-197.895"/>
</g>
<!-- Node17 -->
<g id="node17" class="node"><title>Node17</title>
<g id="a_node17"><a xlink:href="../../db/d19/classslogo_1_1_u_i_1_1_module_creation_helper.html#a9b3fb38a55b3b7812b4f793afa7a974f" target="_top" xlink:title="slogo.UI.ModuleCreationHelper.create\lPlayButton">
<polygon fill="white" stroke="black" points="1228.5,-157 1228.5,-187 1425.5,-187 1425.5,-157 1228.5,-157"/>
<text text-anchor="start" x="1236.5" y="-175" font-family="Helvetica,sans-Serif" font-size="10.00">slogo.UI.ModuleCreationHelper.create</text>
<text text-anchor="middle" x="1327" y="-164" font-family="Helvetica,sans-Serif" font-size="10.00">PlayButton</text>
</a>
</g>
</g>
<!-- Node16&#45;&gt;Node17 -->
<g id="edge19" class="edge"><title>Node16&#45;&gt;Node17</title>
<path fill="none" stroke="midnightblue" d="M1197.89,-182.142C1208.04,-181.339 1218.26,-180.53 1228.27,-179.737"/>
<polygon fill="midnightblue" stroke="midnightblue" points="1197.47,-178.664 1187.78,-182.942 1198.03,-185.642 1197.47,-178.664"/>
</g>
<!-- Node18 -->
<g id="node18" class="node"><title>Node18</title>
<g id="a_node18"><a xlink:href="../../db/d19/classslogo_1_1_u_i_1_1_module_creation_helper.html#ae1e60d37509c2e5eddcb2a6e70b4f650" target="_top" xlink:title="slogo.UI.ModuleCreationHelper.create\lFirstRowButtons">
<polygon fill="white" stroke="black" points="1470.5,-154 1470.5,-184 1667.5,-184 1667.5,-154 1470.5,-154"/>
<text text-anchor="start" x="1478.5" y="-172" font-family="Helvetica,sans-Serif" font-size="10.00">slogo.UI.ModuleCreationHelper.create</text>
<text text-anchor="middle" x="1569" y="-161" font-family="Helvetica,sans-Serif" font-size="10.00">FirstRowButtons</text>
</a>
</g>
</g>
<!-- Node17&#45;&gt;Node18 -->
<g id="edge20" class="edge"><title>Node17&#45;&gt;Node18</title>
<path fill="none" stroke="midnightblue" d="M1435.73,-170.653C1447.3,-170.509 1459.03,-170.362 1470.47,-170.219"/>
<polygon fill="midnightblue" stroke="midnightblue" points="1435.57,-167.155 1425.62,-170.78 1435.66,-174.154 1435.57,-167.155"/>
</g>
<!-- Node18&#45;&gt;Node8 -->
<g id="edge21" class="edge"><title>Node18&#45;&gt;Node8</title>
<path fill="none" stroke="midnightblue" d="M1677.73,-173.04C1689.3,-173.474 1701.03,-173.914 1712.47,-174.343"/>
<polygon fill="midnightblue" stroke="midnightblue" points="1677.74,-169.538 1667.62,-172.661 1677.48,-176.533 1677.74,-169.538"/>
</g>
<!-- Node20 -->
<g id="node20" class="node"><title>Node20</title>
<g id="a_node20"><a xlink:href="../../db/d19/classslogo_1_1_u_i_1_1_module_creation_helper.html#a803bac6b55bde712b21f2face1eeef81" target="_top" xlink:title="slogo.UI.ModuleCreationHelper.create\lTurtleCanvas">
<polygon fill="white" stroke="black" points="1712.5,-247 1712.5,-277 1909.5,-277 1909.5,-247 1712.5,-247"/>
<text text-anchor="start" x="1720.5" y="-265" font-family="Helvetica,sans-Serif" font-size="10.00">slogo.UI.ModuleCreationHelper.create</text>
<text text-anchor="middle" x="1811" y="-254" font-family="Helvetica,sans-Serif" font-size="10.00">TurtleCanvas</text>
</a>
</g>
</g>
<!-- Node19&#45;&gt;Node20 -->
<g id="edge23" class="edge"><title>Node19&#45;&gt;Node20</title>
<path fill="none" stroke="midnightblue" d="M1681.89,-264.669C1692.04,-264.458 1702.26,-264.245 1712.27,-264.036"/>
<polygon fill="midnightblue" stroke="midnightblue" points="1681.71,-261.172 1671.78,-264.88 1681.85,-268.17 1681.71,-261.172"/>
</g>
<!-- Node20&#45;&gt;Node9 -->
<g id="edge24" class="edge"><title>Node20&#45;&gt;Node9</title>
<path fill="none" stroke="midnightblue" d="M1919.83,-272.966C1930.01,-274.001 1940.3,-275.047 1950.38,-276.072"/>
<polygon fill="midnightblue" stroke="midnightblue" points="1920,-269.465 1909.69,-271.935 1919.29,-276.429 1920,-269.465"/>
</g>
<!-- Node22 -->
<g id="node22" class="node"><title>Node22</title>
<g id="a_node22"><a xlink:href="../../db/d19/classslogo_1_1_u_i_1_1_module_creation_helper.html#af7f2919454fdbf6e9d7d912e99634857" target="_top" xlink:title="slogo.UI.ModuleCreationHelper.create\lSelectors">
<polygon fill="white" stroke="black" points="1228.5,-93 1228.5,-123 1425.5,-123 1425.5,-93 1228.5,-93"/>
<text text-anchor="start" x="1236.5" y="-111" font-family="Helvetica,sans-Serif" font-size="10.00">slogo.UI.ModuleCreationHelper.create</text>
<text text-anchor="middle" x="1327" y="-100" font-family="Helvetica,sans-Serif" font-size="10.00">Selectors</text>
</a>
</g>
</g>
<!-- Node21&#45;&gt;Node22 -->
<g id="edge26" class="edge"><title>Node21&#45;&gt;Node22</title>
<path fill="none" stroke="midnightblue" d="M1154.62,-135.85C1179.11,-131.87 1207.12,-127.319 1233.3,-123.064"/>
<polygon fill="midnightblue" stroke="midnightblue" points="1154.02,-132.401 1144.71,-137.46 1155.14,-139.31 1154.02,-132.401"/>
</g>
<!-- Node22&#45;&gt;Node8 -->
<g id="edge27" class="edge"><title>Node22&#45;&gt;Node8</title>
<path fill="none" stroke="midnightblue" d="M1435.92,-115.469C1503.97,-121.122 1593.51,-130.291 1672,-144 1700.07,-148.904 1730.91,-156.303 1756.29,-162.949"/>
<polygon fill="midnightblue" stroke="midnightblue" points="1435.87,-111.953 1425.62,-114.626 1435.3,-118.93 1435.87,-111.953"/>
</g>
<!-- Node23&#45;&gt;Node22 -->
<g id="edge29" class="edge"><title>Node23&#45;&gt;Node22</title>
<path fill="none" stroke="midnightblue" d="M1165.18,-104.65C1185.4,-105.071 1207.37,-105.528 1228.39,-105.966"/>
<polygon fill="midnightblue" stroke="midnightblue" points="1165.17,-101.149 1155.1,-104.439 1165.02,-108.147 1165.17,-101.149"/>
</g>
<!-- Node24&#45;&gt;Node22 -->
<g id="edge31" class="edge"><title>Node24&#45;&gt;Node22</title>
<path fill="none" stroke="midnightblue" d="M1148.57,-70.3489C1161.61,-72.8009 1175.27,-75.4305 1188,-78 1211.07,-82.6556 1236.25,-88.0383 1258.7,-92.948"/>
<polygon fill="midnightblue" stroke="midnightblue" points="1149.21,-66.9082 1138.74,-68.5124 1147.92,-73.7892 1149.21,-66.9082"/>
</g>
<!-- Node26 -->
<g id="node26" class="node"><title>Node26</title>
<g id="a_node26"><a xlink:href="../../db/d19/classslogo_1_1_u_i_1_1_module_creation_helper.html#a9fd730f7c1860d34bf4ac46c3828bd59" target="_top" xlink:title="slogo.UI.ModuleCreationHelper.activate\lStepIntoButton">
<polygon fill="white" stroke="black" points="982.5,-340 982.5,-370 1187.5,-370 1187.5,-340 982.5,-340"/>
<text text-anchor="start" x="990.5" y="-358" font-family="Helvetica,sans-Serif" font-size="10.00">slogo.UI.ModuleCreationHelper.activate</text>
<text text-anchor="middle" x="1085" y="-347" font-family="Helvetica,sans-Serif" font-size="10.00">StepIntoButton</text>
</a>
</g>
</g>
<!-- Node25&#45;&gt;Node26 -->
<g id="edge33" class="edge"><title>Node25&#45;&gt;Node26</title>
<path fill="none" stroke="midnightblue" d="M953.334,-356.79C962.824,-356.66 972.535,-356.527 982.167,-356.395"/>
<polygon fill="midnightblue" stroke="midnightblue" points="953.088,-353.293 943.137,-356.93 953.184,-360.292 953.088,-353.293"/>
</g>
<!-- Node27 -->
<g id="node27" class="node"><title>Node27</title>
<g id="a_node27"><a xlink:href="../../db/d19/classslogo_1_1_u_i_1_1_module_creation_helper.html#a4a6f1f009507c25be8c7c28cbba35f3b" target="_top" xlink:title="slogo.UI.ModuleCreationHelper.create\lDebugStepIntoButton">
<polygon fill="white" stroke="black" points="1228.5,-340 1228.5,-370 1425.5,-370 1425.5,-340 1228.5,-340"/>
<text text-anchor="start" x="1236.5" y="-358" font-family="Helvetica,sans-Serif" font-size="10.00">slogo.UI.ModuleCreationHelper.create</text>
<text text-anchor="middle" x="1327" y="-347" font-family="Helvetica,sans-Serif" font-size="10.00">DebugStepIntoButton</text>
</a>
</g>
</g>
<!-- Node26&#45;&gt;Node27 -->
<g id="edge34" class="edge"><title>Node26&#45;&gt;Node27</title>
<path fill="none" stroke="midnightblue" d="M1197.89,-355C1208.04,-355 1218.26,-355 1228.27,-355"/>
<polygon fill="midnightblue" stroke="midnightblue" points="1197.78,-351.5 1187.78,-355 1197.78,-358.5 1197.78,-351.5"/>
</g>
<!-- Node28 -->
<g id="node28" class="node"><title>Node28</title>
<g id="a_node28"><a xlink:href="../../db/d19/classslogo_1_1_u_i_1_1_module_creation_helper.html#a975af4ea47dc85df72215bdf1a0d20ce" target="_top" xlink:title="slogo.UI.ModuleCreationHelper.create\lDebugModules">
<polygon fill="white" stroke="black" points="1470.5,-340 1470.5,-370 1667.5,-370 1667.5,-340 1470.5,-340"/>
<text text-anchor="start" x="1478.5" y="-358" font-family="Helvetica,sans-Serif" font-size="10.00">slogo.UI.ModuleCreationHelper.create</text>
<text text-anchor="middle" x="1569" y="-347" font-family="Helvetica,sans-Serif" font-size="10.00">DebugModules</text>
</a>
</g>
</g>
<!-- Node27&#45;&gt;Node28 -->
<g id="edge35" class="edge"><title>Node27&#45;&gt;Node28</title>
<path fill="none" stroke="midnightblue" d="M1435.73,-355C1447.3,-355 1459.03,-355 1470.47,-355"/>
<polygon fill="midnightblue" stroke="midnightblue" points="1435.62,-351.5 1425.62,-355 1435.62,-358.5 1435.62,-351.5"/>
</g>
<!-- Node28&#45;&gt;Node9 -->
<g id="edge36" class="edge"><title>Node28&#45;&gt;Node9</title>
<path fill="none" stroke="midnightblue" d="M1678.08,-356.765C1746.38,-355.906 1836.13,-351.135 1914,-335 1949.66,-327.612 1988.55,-312.552 2015.2,-301.067"/>
<polygon fill="midnightblue" stroke="midnightblue" points="1677.7,-353.268 1667.74,-356.867 1677.77,-360.268 1677.7,-353.268"/>
</g>
<!-- Node30 -->
<g id="node30" class="node"><title>Node30</title>
<g id="a_node30"><a xlink:href="../../db/d19/classslogo_1_1_u_i_1_1_module_creation_helper.html#a0fed0bb32bf2643d6fd5c24d82e8e18e" target="_top" xlink:title="slogo.UI.ModuleCreationHelper.activate\lStepOverButton">
<polygon fill="white" stroke="black" points="982.5,-389 982.5,-419 1187.5,-419 1187.5,-389 982.5,-389"/>
<text text-anchor="start" x="990.5" y="-407" font-family="Helvetica,sans-Serif" font-size="10.00">slogo.UI.ModuleCreationHelper.activate</text>
<text text-anchor="middle" x="1085" y="-396" font-family="Helvetica,sans-Serif" font-size="10.00">StepOverButton</text>
</a>
</g>
</g>
<!-- Node29&#45;&gt;Node30 -->
<g id="edge38" class="edge"><title>Node29&#45;&gt;Node30</title>
<path fill="none" stroke="midnightblue" d="M955.803,-402.244C964.557,-402.364 973.477,-402.486 982.327,-402.607"/>
<polygon fill="midnightblue" stroke="midnightblue" points="955.662,-398.742 945.615,-402.104 955.566,-405.741 955.662,-398.742"/>
</g>
<!-- Node31 -->
<g id="node31" class="node"><title>Node31</title>
<g id="a_node31"><a xlink:href="../../db/d19/classslogo_1_1_u_i_1_1_module_creation_helper.html#aa1e7dc2b509360583790fba0d3819c8d" target="_top" xlink:title="slogo.UI.ModuleCreationHelper.create\lDebugStepOverButton">
<polygon fill="white" stroke="black" points="1228.5,-389 1228.5,-419 1425.5,-419 1425.5,-389 1228.5,-389"/>
<text text-anchor="start" x="1236.5" y="-407" font-family="Helvetica,sans-Serif" font-size="10.00">slogo.UI.ModuleCreationHelper.create</text>
<text text-anchor="middle" x="1327" y="-396" font-family="Helvetica,sans-Serif" font-size="10.00">DebugStepOverButton</text>
</a>
</g>
</g>
<!-- Node30&#45;&gt;Node31 -->
<g id="edge39" class="edge"><title>Node30&#45;&gt;Node31</title>
<path fill="none" stroke="midnightblue" d="M1197.89,-404C1208.04,-404 1218.26,-404 1228.27,-404"/>
<polygon fill="midnightblue" stroke="midnightblue" points="1197.78,-400.5 1187.78,-404 1197.78,-407.5 1197.78,-400.5"/>
</g>
<!-- Node31&#45;&gt;Node28 -->
<g id="edge40" class="edge"><title>Node31&#45;&gt;Node28</title>
<path fill="none" stroke="midnightblue" d="M1411.46,-386.96C1438.49,-381.442 1468.25,-375.366 1494.5,-370.006"/>
<polygon fill="midnightblue" stroke="midnightblue" points="1410.74,-383.536 1401.64,-388.965 1412.14,-390.394 1410.74,-383.536"/>
</g>
<!-- Node32&#45;&gt;Node10 -->
<g id="edge42" class="edge"><title>Node32&#45;&gt;Node10</title>
<path fill="none" stroke="midnightblue" d="M553.465,-446.573C628.897,-447.164 754.698,-448 863,-448 863,-448 863,-448 1812,-448 1983.79,-448 2170.47,-330.524 2222.1,-295.649"/>
<polygon fill="midnightblue" stroke="midnightblue" points="553.19,-443.071 543.163,-446.492 553.135,-450.071 553.19,-443.071"/>
</g>
</g>
</svg>
