<?xml version="1.0" encoding="UTF-8" standalone="no"?>
<!DOCTYPE svg PUBLIC "-//W3C//DTD SVG 1.1//EN"
 "http://www.w3.org/Graphics/SVG/1.1/DTD/svg11.dtd">
<!-- Generated by graphviz version 2.36.0 (20140111.2315)
 -->
<!-- Title: slogo.UI.ModuleCreationHelper.createListViews Pages: 1 -->
<svg width="1092pt" height="214pt"
 viewBox="0.00 0.00 1092.00 214.00" xmlns="http://www.w3.org/2000/svg" xmlns:xlink="http://www.w3.org/1999/xlink">
<g id="graph0" class="graph" transform="scale(1 1) rotate(0) translate(4 210)">
<title>slogo.UI.ModuleCreationHelper.createListViews</title>
<polygon fill="white" stroke="none" points="-4,4 -4,-210 1088,-210 1088,4 -4,4"/>
<!-- Node1 -->
<g id="node1" class="node"><title>Node1</title>
<polygon fill="#bfbfbf" stroke="black" points="0.5,-83 0.5,-113 197.5,-113 197.5,-83 0.5,-83"/>
<text text-anchor="start" x="8.5" y="-101" font-family="Helvetica,sans-Serif" font-size="10.00">slogo.UI.ModuleCreationHelper.create</text>
<text text-anchor="middle" x="99" y="-90" font-family="Helvetica,sans-Serif" font-size="10.00">ListViews</text>
</g>
<!-- Node2 -->
<g id="node2" class="node"><title>Node2</title>
<g id="a_node2"><a xlink:href="../../db/d19/classslogo_1_1_u_i_1_1_module_creation_helper.html#a02dec5fb299a1543ef2758bc6ae70dfb" target="_top" xlink:title="slogo.UI.ModuleCreationHelper.add\lToCertainList">
<polygon fill="white" stroke="black" points="245.5,-171 245.5,-201 430.5,-201 430.5,-171 245.5,-171"/>
<text text-anchor="start" x="253.5" y="-189" font-family="Helvetica,sans-Serif" font-size="10.00">slogo.UI.ModuleCreationHelper.add</text>
<text text-anchor="middle" x="338" y="-178" font-family="Helvetica,sans-Serif" font-size="10.00">ToCertainList</text>
</a>
</g>
</g>
<!-- Node1&#45;&gt;Node2 -->
<g id="edge1" class="edge"><title>Node1&#45;&gt;Node2</title>
<path fill="none" stroke="midnightblue" d="M132.639,-113.076C159.528,-125.205 198.817,-142.266 234,-155 246.524,-159.533 260.063,-163.946 273.081,-167.954"/>
<polygon fill="midnightblue" stroke="midnightblue" points="272.324,-171.382 282.909,-170.936 274.356,-164.683 272.324,-171.382"/>
</g>
<!-- Node5 -->
<g id="node5" class="node"><title>Node5</title>
<g id="a_node5"><a xlink:href="../../de/d37/classslogo_1_1_u_i_1_1_list_view_user_commands.html#ac8197870dd939ccc8b43744a50d52044" target="_top" xlink:title="slogo.UI.ListViewUserCommands.create">
<polygon fill="white" stroke="black" points="234,-88.5 234,-107.5 442,-107.5 442,-88.5 234,-88.5"/>
<text text-anchor="middle" x="338" y="-95.5" font-family="Helvetica,sans-Serif" font-size="10.00">slogo.UI.ListViewUserCommands.create</text>
</a>
</g>
</g>
<!-- Node1&#45;&gt;Node5 -->
<g id="edge4" class="edge"><title>Node1&#45;&gt;Node5</title>
<path fill="none" stroke="midnightblue" d="M197.765,-98C206.288,-98 214.959,-98 223.594,-98"/>
<polygon fill="midnightblue" stroke="midnightblue" points="223.703,-101.5 233.703,-98 223.703,-94.5001 223.703,-101.5"/>
</g>
<!-- Node9 -->
<g id="node9" class="node"><title>Node9</title>
<g id="a_node9"><a xlink:href="../../de/d1a/classslogo_1_1_u_i_1_1_list_view_previous_commands.html#a539b4f10c0510a43263276fc23d742c8" target="_top" xlink:title="slogo.UI.ListViewPrevious\lCommands.create">
<polygon fill="white" stroke="black" points="269.5,-39 269.5,-69 406.5,-69 406.5,-39 269.5,-39"/>
<text text-anchor="start" x="277.5" y="-57" font-family="Helvetica,sans-Serif" font-size="10.00">slogo.UI.ListViewPrevious</text>
<text text-anchor="middle" x="338" y="-46" font-family="Helvetica,sans-Serif" font-size="10.00">Commands.create</text>
</a>
</g>
</g>
<!-- Node1&#45;&gt;Node9 -->
<g id="edge8" class="edge"><title>Node1&#45;&gt;Node9</title>
<path fill="none" stroke="midnightblue" d="M180.899,-82.9808C206.351,-78.2555 234.385,-73.0509 259.589,-68.3717"/>
<polygon fill="midnightblue" stroke="midnightblue" points="260.27,-71.8051 269.463,-66.5385 258.992,-64.9227 260.27,-71.8051"/>
</g>
<!-- Node10 -->
<g id="node10" class="node"><title>Node10</title>
<g id="a_node10"><a xlink:href="../../d3/df5/classslogo_1_1_u_i_1_1_list_view_user_variables.html#a9daee622bf33651d8ae9c07779f4973c" target="_top" xlink:title="slogo.UI.ListViewUserVariables.create">
<polygon fill="white" stroke="black" points="240,-0.5 240,-19.5 436,-19.5 436,-0.5 240,-0.5"/>
<text text-anchor="middle" x="338" y="-7.5" font-family="Helvetica,sans-Serif" font-size="10.00">slogo.UI.ListViewUserVariables.create</text>
</a>
</g>
</g>
<!-- Node1&#45;&gt;Node10 -->
<g id="edge10" class="edge"><title>Node1&#45;&gt;Node10</title>
<path fill="none" stroke="midnightblue" d="M124.223,-82.7533C150.347,-66.9849 193.635,-42.7794 234,-29 242.19,-26.2043 250.894,-23.7915 259.638,-21.7157"/>
<polygon fill="midnightblue" stroke="midnightblue" points="260.506,-25.1082 269.503,-19.5129 258.98,-18.2765 260.506,-25.1082"/>
</g>
<!-- Node11 -->
<g id="node11" class="node"><title>Node11</title>
<g id="a_node11"><a xlink:href="../../dc/d95/classslogo_1_1_u_i_1_1_list_view_s_l_o_g_o_variables.html#a9876b72a9b2e6a0887b385834e8e93b6" target="_top" xlink:title="slogo.UI.ListViewSLOGOVariables.create">
<polygon fill="white" stroke="black" points="234,-126.5 234,-145.5 442,-145.5 442,-126.5 234,-126.5"/>
<text text-anchor="middle" x="338" y="-133.5" font-family="Helvetica,sans-Serif" font-size="10.00">slogo.UI.ListViewSLOGOVariables.create</text>
</a>
</g>
</g>
<!-- Node1&#45;&gt;Node11 -->
<g id="edge12" class="edge"><title>Node1&#45;&gt;Node11</title>
<path fill="none" stroke="midnightblue" d="M193.669,-113.019C218.352,-116.976 244.539,-121.175 267.684,-124.886"/>
<polygon fill="midnightblue" stroke="midnightblue" points="267.316,-128.372 277.744,-126.499 268.424,-121.46 267.316,-128.372"/>
</g>
<!-- Node3 -->
<g id="node3" class="node"><title>Node3</title>
<g id="a_node3"><a xlink:href="../../db/dc0/classslogo_1_1_u_i_1_1_list_view_all_s_l_o_g_o.html#a5f743353bce4830934bcf532b97e7925" target="_top" xlink:title="slogo.UI.ListViewAllSLOGO.set\lItems">
<polygon fill="white" stroke="black" points="506.5,-176 506.5,-206 665.5,-206 665.5,-176 506.5,-176"/>
<text text-anchor="start" x="514.5" y="-194" font-family="Helvetica,sans-Serif" font-size="10.00">slogo.UI.ListViewAllSLOGO.set</text>
<text text-anchor="middle" x="586" y="-183" font-family="Helvetica,sans-Serif" font-size="10.00">Items</text>
</a>
</g>
</g>
<!-- Node2&#45;&gt;Node3 -->
<g id="edge2" class="edge"><title>Node2&#45;&gt;Node3</title>
<path fill="none" stroke="midnightblue" d="M430.601,-187.862C452.064,-188.298 474.894,-188.762 496.231,-189.196"/>
<polygon fill="midnightblue" stroke="midnightblue" points="496.175,-192.695 506.244,-189.399 496.318,-185.697 496.175,-192.695"/>
</g>
<!-- Node4 -->
<g id="node4" class="node"><title>Node4</title>
<g id="a_node4"><a xlink:href="../../da/d8f/classslogo_1_1_u_i_1_1_list_view_creator.html#a081368f4f2cd74f99d9d251625ae4871" target="_top" xlink:title="slogo.UI.ListViewCreator.get\lListView">
<polygon fill="white" stroke="black" points="738,-154 738,-184 888,-184 888,-154 738,-154"/>
<text text-anchor="start" x="746" y="-172" font-family="Helvetica,sans-Serif" font-size="10.00">slogo.UI.ListViewCreator.get</text>
<text text-anchor="middle" x="813" y="-161" font-family="Helvetica,sans-Serif" font-size="10.00">ListView</text>
</a>
</g>
</g>
<!-- Node3&#45;&gt;Node4 -->
<g id="edge3" class="edge"><title>Node3&#45;&gt;Node4</title>
<path fill="none" stroke="midnightblue" d="M665.694,-183.305C685.75,-181.344 707.386,-179.229 727.709,-177.242"/>
<polygon fill="midnightblue" stroke="midnightblue" points="728.271,-180.704 737.883,-176.247 727.59,-173.737 728.271,-180.704"/>
</g>
<!-- Node6 -->
<g id="node6" class="node"><title>Node6</title>
<g id="a_node6"><a xlink:href="../../db/dc0/classslogo_1_1_u_i_1_1_list_view_all_s_l_o_g_o.html#a5c010e0c2ee827d63a0990c92add658d" target="_top" xlink:title="slogo.UI.ListViewAllSLOGO.create\lListView">
<polygon fill="white" stroke="black" points="498.5,-39 498.5,-69 673.5,-69 673.5,-39 498.5,-39"/>
<text text-anchor="start" x="506.5" y="-57" font-family="Helvetica,sans-Serif" font-size="10.00">slogo.UI.ListViewAllSLOGO.create</text>
<text text-anchor="middle" x="586" y="-46" font-family="Helvetica,sans-Serif" font-size="10.00">ListView</text>
</a>
</g>
</g>
<!-- Node5&#45;&gt;Node6 -->
<g id="edge5" class="edge"><title>Node5&#45;&gt;Node6</title>
<path fill="none" stroke="midnightblue" d="M392.378,-88.4527C421.064,-83.3218 457.283,-76.8437 490.552,-70.8931"/>
<polygon fill="midnightblue" stroke="midnightblue" points="491.543,-74.2714 500.771,-69.0654 490.311,-67.3808 491.543,-74.2714"/>
</g>
<!-- Node7 -->
<g id="node7" class="node"><title>Node7</title>
<g id="a_node7"><a xlink:href="../../da/d8f/classslogo_1_1_u_i_1_1_list_view_creator.html#a80c012ec24a3b0e7dfa02f1ee816f25b" target="_top" xlink:title="slogo.UI.ListViewCreator.create\lListViewWithLabel">
<polygon fill="white" stroke="black" points="730.5,-39 730.5,-69 895.5,-69 895.5,-39 730.5,-39"/>
<text text-anchor="start" x="738.5" y="-57" font-family="Helvetica,sans-Serif" font-size="10.00">slogo.UI.ListViewCreator.create</text>
<text text-anchor="middle" x="813" y="-46" font-family="Helvetica,sans-Serif" font-size="10.00">ListViewWithLabel</text>
</a>
</g>
</g>
<!-- Node6&#45;&gt;Node7 -->
<g id="edge6" class="edge"><title>Node6&#45;&gt;Node7</title>
<path fill="none" stroke="midnightblue" d="M673.669,-54C688.902,-54 704.802,-54 720.17,-54"/>
<polygon fill="midnightblue" stroke="midnightblue" points="720.179,-57.5001 730.179,-54 720.179,-50.5001 720.179,-57.5001"/>
</g>
<!-- Node8 -->
<g id="node8" class="node"><title>Node8</title>
<g id="a_node8"><a xlink:href="../../d7/d0e/classslogo_1_1_u_i_1_1_label_creator.html#a9ca0989ecfc0037d473dd3d2e8ead74f" target="_top" xlink:title="slogo.UI.LabelCreator.create\lLabel">
<polygon fill="white" stroke="black" points="932,-39 932,-69 1084,-69 1084,-39 932,-39"/>
<text text-anchor="start" x="940" y="-57" font-family="Helvetica,sans-Serif" font-size="10.00">slogo.UI.LabelCreator.create</text>
<text text-anchor="middle" x="1008" y="-46" font-family="Helvetica,sans-Serif" font-size="10.00">Label</text>
</a>
</g>
</g>
<!-- Node7&#45;&gt;Node8 -->
<g id="edge7" class="edge"><title>Node7&#45;&gt;Node8</title>
<path fill="none" stroke="midnightblue" d="M895.57,-54C904.221,-54 913.037,-54 921.729,-54"/>
<polygon fill="midnightblue" stroke="midnightblue" points="921.859,-57.5001 931.859,-54 921.859,-50.5001 921.859,-57.5001"/>
</g>
<!-- Node9&#45;&gt;Node6 -->
<g id="edge9" class="edge"><title>Node9&#45;&gt;Node6</title>
<path fill="none" stroke="midnightblue" d="M406.546,-54C431.645,-54 460.64,-54 487.864,-54"/>
<polygon fill="midnightblue" stroke="midnightblue" points="488.2,-57.5001 498.2,-54 488.2,-50.5001 488.2,-57.5001"/>
</g>
<!-- Node10&#45;&gt;Node6 -->
<g id="edge11" class="edge"><title>Node10&#45;&gt;Node6</title>
<path fill="none" stroke="midnightblue" d="M392.378,-19.5473C421.064,-24.6782 457.283,-31.1563 490.552,-37.1069"/>
<polygon fill="midnightblue" stroke="midnightblue" points="490.311,-40.6192 500.771,-38.9346 491.543,-33.7286 490.311,-40.6192"/>
</g>
<!-- Node11&#45;&gt;Node4 -->
<g id="edge14" class="edge"><title>Node11&#45;&gt;Node4</title>
<path fill="none" stroke="midnightblue" d="M442.217,-143.201C527.85,-149.176 648.097,-157.565 727.944,-163.136"/>
<polygon fill="midnightblue" stroke="midnightblue" points="727.742,-166.63 737.961,-163.835 728.229,-159.647 727.742,-166.63"/>
</g>
<!-- Node11&#45;&gt;Node6 -->
<g id="edge13" class="edge"><title>Node11&#45;&gt;Node6</title>
<path fill="none" stroke="midnightblue" d="M419.503,-126.439C427.353,-123.96 434.994,-120.863 442,-117 462.657,-105.61 457.564,-89.7825 478,-78 481.473,-75.9978 485.098,-74.1627 488.827,-72.4806"/>
<polygon fill="midnightblue" stroke="midnightblue" points="490.356,-75.6365 498.283,-68.6067 487.702,-69.159 490.356,-75.6365"/>
</g>
<!-- Node12 -->
<g id="node12" class="node"><title>Node12</title>
<g id="a_node12"><a xlink:href="../../dc/d95/classslogo_1_1_u_i_1_1_list_view_s_l_o_g_o_variables.html#ac060fcb519b9fcb84f6eabf24361bcbd" target="_top" xlink:title="slogo.UI.ListViewSLOGOVariables.initialize\lVariablesMap">
<polygon fill="white" stroke="black" points="478.5,-88 478.5,-118 693.5,-118 693.5,-88 478.5,-88"/>
<text text-anchor="start" x="486.5" y="-106" font-family="Helvetica,sans-Serif" font-size="10.00">slogo.UI.ListViewSLOGOVariables.initialize</text>
<text text-anchor="middle" x="586" y="-95" font-family="Helvetica,sans-Serif" font-size="10.00">VariablesMap</text>
</a>
</g>
</g>
<!-- Node11&#45;&gt;Node12 -->
<g id="edge15" class="edge"><title>Node11&#45;&gt;Node12</title>
<path fill="none" stroke="midnightblue" d="M409.823,-126.499C428.037,-124.056 448.125,-121.361 468.003,-118.695"/>
<polygon fill="midnightblue" stroke="midnightblue" points="468.604,-122.146 478.05,-117.347 467.673,-115.208 468.604,-122.146"/>
</g>
</g>
</svg>
