<?xml version="1.0" encoding="UTF-8" standalone="no"?>
<!DOCTYPE svg PUBLIC "-//W3C//DTD SVG 1.1//EN"
 "http://www.w3.org/Graphics/SVG/1.1/DTD/svg11.dtd">
<!-- Generated by graphviz version 2.36.0 (20140111.2315)
 -->
<!-- Title: slogo.UI.ModuleCreationHelper.createStopButton Pages: 1 -->
<svg width="448pt" height="175pt"
 viewBox="0.00 0.00 448.00 175.00" xmlns="http://www.w3.org/2000/svg" xmlns:xlink="http://www.w3.org/1999/xlink">
<g id="graph0" class="graph" transform="scale(1 1) rotate(0) translate(4 171)">
<title>slogo.UI.ModuleCreationHelper.createStopButton</title>
<polygon fill="white" stroke="none" points="-4,4 -4,-171 444,-171 444,4 -4,4"/>
<!-- Node1 -->
<g id="node1" class="node"><title>Node1</title>
<polygon fill="#bfbfbf" stroke="black" points="0.5,-63 0.5,-93 197.5,-93 197.5,-63 0.5,-63"/>
<text text-anchor="start" x="8.5" y="-81" font-family="Helvetica,sans-Serif" font-size="10.00">slogo.UI.ModuleCreationHelper.create</text>
<text text-anchor="middle" x="99" y="-70" font-family="Helvetica,sans-Serif" font-size="10.00">StopButton</text>
</g>
<!-- Node2 -->
<g id="node2" class="node"><title>Node2</title>
<g id="a_node2"><a xlink:href="../../db/d19/classslogo_1_1_u_i_1_1_module_creation_helper.html#ac47c1d6534d09cc9ea49d339485dcb57" target="_top" xlink:title="slogo.UI.ModuleCreationHelper.activate\lExitAppButton">
<polygon fill="white" stroke="black" points="234.5,-137 234.5,-167 439.5,-167 439.5,-137 234.5,-137"/>
<text text-anchor="start" x="242.5" y="-155" font-family="Helvetica,sans-Serif" font-size="10.00">slogo.UI.ModuleCreationHelper.activate</text>
<text text-anchor="middle" x="337" y="-144" font-family="Helvetica,sans-Serif" font-size="10.00">ExitAppButton</text>
</a>
</g>
</g>
<!-- Node1&#45;&gt;Node2 -->
<g id="edge1" class="edge"><title>Node1&#45;&gt;Node2</title>
<path fill="none" stroke="midnightblue" d="M137.744,-93.0671C164.386,-103.39 201.061,-116.974 234,-127 242.518,-129.593 251.498,-132.106 260.454,-134.476"/>
<polygon fill="midnightblue" stroke="midnightblue" points="259.581,-137.865 270.14,-136.988 261.339,-131.089 259.581,-137.865"/>
</g>
<!-- Node3 -->
<g id="node3" class="node"><title>Node3</title>
<g id="a_node3"><a xlink:href="../../d6/d9d/classslogo_1_1_u_i_1_1_button_creator.html#a26b4ab485f0d82531b0bb7d279cc83eb" target="_top" xlink:title="slogo.UI.ButtonCreator.create\lButton">
<polygon fill="white" stroke="black" points="257.5,-88 257.5,-118 416.5,-118 416.5,-88 257.5,-88"/>
<text text-anchor="start" x="265.5" y="-106" font-family="Helvetica,sans-Serif" font-size="10.00">slogo.UI.ButtonCreator.create</text>
<text text-anchor="middle" x="337" y="-95" font-family="Helvetica,sans-Serif" font-size="10.00">Button</text>
</a>
</g>
</g>
<!-- Node1&#45;&gt;Node3 -->
<g id="edge2" class="edge"><title>Node1&#45;&gt;Node3</title>
<path fill="none" stroke="midnightblue" d="M197.694,-88.3489C214.181,-90.0954 231.213,-91.8997 247.45,-93.6197"/>
<polygon fill="midnightblue" stroke="midnightblue" points="247.132,-97.1056 257.446,-94.6786 247.87,-90.1445 247.132,-97.1056"/>
</g>
<!-- Node4 -->
<g id="node4" class="node"><title>Node4</title>
<g id="a_node4"><a xlink:href="../../d7/d0e/classslogo_1_1_u_i_1_1_label_creator.html#a9ca0989ecfc0037d473dd3d2e8ead74f" target="_top" xlink:title="slogo.UI.LabelCreator.create\lLabel">
<polygon fill="white" stroke="black" points="261,-39 261,-69 413,-69 413,-39 261,-39"/>
<text text-anchor="start" x="269" y="-57" font-family="Helvetica,sans-Serif" font-size="10.00">slogo.UI.LabelCreator.create</text>
<text text-anchor="middle" x="337" y="-46" font-family="Helvetica,sans-Serif" font-size="10.00">Label</text>
</a>
</g>
</g>
<!-- Node1&#45;&gt;Node4 -->
<g id="edge3" class="edge"><title>Node1&#45;&gt;Node4</title>
<path fill="none" stroke="midnightblue" d="M197.694,-68.065C215.29,-66.2756 233.508,-64.4229 250.717,-62.6728"/>
<polygon fill="midnightblue" stroke="midnightblue" points="251.127,-66.1493 260.721,-61.6555 250.418,-59.1853 251.127,-66.1493"/>
</g>
<!-- Node5 -->
<g id="node5" class="node"><title>Node5</title>
<g id="a_node5"><a xlink:href="../../d5/d66/classslogo_1_1_u_i_1_1_v_box_creator.html#a3f3304b5aed4110a7c1250c64772e2e7" target="_top" xlink:title="slogo.UI.VBoxCreator.createVBox">
<polygon fill="white" stroke="black" points="249,-0.5 249,-19.5 425,-19.5 425,-0.5 249,-0.5"/>
<text text-anchor="middle" x="337" y="-7.5" font-family="Helvetica,sans-Serif" font-size="10.00">slogo.UI.VBoxCreator.createVBox</text>
</a>
</g>
</g>
<!-- Node1&#45;&gt;Node5 -->
<g id="edge4" class="edge"><title>Node1&#45;&gt;Node5</title>
<path fill="none" stroke="midnightblue" d="M137.347,-62.9135C163.961,-52.5855 200.765,-39.1548 234,-30 245.417,-26.855 257.684,-24.0082 269.614,-21.5133"/>
<polygon fill="midnightblue" stroke="midnightblue" points="270.425,-24.92 279.53,-19.5015 269.034,-18.0597 270.425,-24.92"/>
</g>
</g>
</svg>
