<?xml version="1.0" encoding="UTF-8" standalone="no"?>
<!DOCTYPE svg PUBLIC "-//W3C//DTD SVG 1.1//EN"
 "http://www.w3.org/Graphics/SVG/1.1/DTD/svg11.dtd">
<!-- Generated by graphviz version 2.36.0 (20140111.2315)
 -->
<!-- Title: slogo.UI.ModuleCreationHelper.getCommandsHistoryCounter Pages: 1 -->
<svg width="2190pt" height="339pt"
 viewBox="0.00 0.00 2190.00 339.00" xmlns="http://www.w3.org/2000/svg" xmlns:xlink="http://www.w3.org/1999/xlink">
<g id="graph0" class="graph" transform="scale(1 1) rotate(0) translate(4 335)">
<title>slogo.UI.ModuleCreationHelper.getCommandsHistoryCounter</title>
<polygon fill="white" stroke="none" points="-4,4 -4,-335 2186,-335 2186,4 -4,4"/>
<!-- Node1 -->
<g id="node1" class="node"><title>Node1</title>
<polygon fill="#bfbfbf" stroke="black" points="0,-142 0,-172 182,-172 182,-142 0,-142"/>
<text text-anchor="start" x="8" y="-160" font-family="Helvetica,sans-Serif" font-size="10.00">slogo.UI.ModuleCreationHelper.get</text>
<text text-anchor="middle" x="91" y="-149" font-family="Helvetica,sans-Serif" font-size="10.00">CommandsHistoryCounter</text>
</g>
<!-- Node2 -->
<g id="node2" class="node"><title>Node2</title>
<g id="a_node2"><a xlink:href="../../df/d2d/classslogo_1_1_view.html#aee563f6a0b15ac6668e4dcbdad40c73c" target="_top" xlink:title="slogo.View.sendCommandTo\lBackend">
<polygon fill="white" stroke="black" points="218,-142 218,-172 370,-172 370,-142 218,-142"/>
<text text-anchor="start" x="226" y="-160" font-family="Helvetica,sans-Serif" font-size="10.00">slogo.View.sendCommandTo</text>
<text text-anchor="middle" x="294" y="-149" font-family="Helvetica,sans-Serif" font-size="10.00">Backend</text>
</a>
</g>
</g>
<!-- Node1&#45;&gt;Node2 -->
<g id="edge1" class="edge"><title>Node1&#45;&gt;Node2</title>
<path fill="none" stroke="midnightblue" d="M192.28,-157C200.872,-157 209.465,-157 217.81,-157"/>
<polygon fill="midnightblue" stroke="midnightblue" points="192.211,-153.5 182.211,-157 192.211,-160.5 192.211,-153.5"/>
</g>
<!-- Node3 -->
<g id="node3" class="node"><title>Node3</title>
<g id="a_node3"><a xlink:href="../../db/d19/classslogo_1_1_u_i_1_1_module_creation_helper.html#a69e17abcc7cf9a6ed7261d8fb1d631fa" target="_top" xlink:title="slogo.UI.ModuleCreationHelper.activate\lIncreaseDecreaseButtons">
<polygon fill="white" stroke="black" points="406.5,-213 406.5,-243 611.5,-243 611.5,-213 406.5,-213"/>
<text text-anchor="start" x="414.5" y="-231" font-family="Helvetica,sans-Serif" font-size="10.00">slogo.UI.ModuleCreationHelper.activate</text>
<text text-anchor="middle" x="509" y="-220" font-family="Helvetica,sans-Serif" font-size="10.00">IncreaseDecreaseButtons</text>
</a>
</g>
</g>
<!-- Node2&#45;&gt;Node3 -->
<g id="edge2" class="edge"><title>Node2&#45;&gt;Node3</title>
<path fill="none" stroke="midnightblue" d="M336.91,-176.144C357.453,-185.068 382.726,-195.375 406,-203 417.002,-206.605 428.822,-209.959 440.377,-212.966"/>
<polygon fill="midnightblue" stroke="midnightblue" points="338.096,-172.842 327.532,-172.024 335.28,-179.251 338.096,-172.842"/>
</g>
<!-- Node10 -->
<g id="node10" class="node"><title>Node10</title>
<g id="a_node10"><a xlink:href="../../db/d19/classslogo_1_1_u_i_1_1_module_creation_helper.html#aa70b0ad9e90e62509149bfd2ef2ba209" target="_top" xlink:title="slogo.UI.ModuleCreationHelper.activate\lKeyEvents">
<polygon fill="white" stroke="black" points="1124.5,-234 1124.5,-264 1329.5,-264 1329.5,-234 1124.5,-234"/>
<text text-anchor="start" x="1132.5" y="-252" font-family="Helvetica,sans-Serif" font-size="10.00">slogo.UI.ModuleCreationHelper.activate</text>
<text text-anchor="middle" x="1227" y="-241" font-family="Helvetica,sans-Serif" font-size="10.00">KeyEvents</text>
</a>
</g>
</g>
<!-- Node2&#45;&gt;Node10 -->
<g id="edge10" class="edge"><title>Node2&#45;&gt;Node10</title>
<path fill="none" stroke="midnightblue" d="M313.021,-179.913C332.904,-203.157 367.264,-237.687 406,-252 534.697,-299.554 934.455,-273.798 1124.14,-258.167"/>
<polygon fill="midnightblue" stroke="midnightblue" points="315.697,-177.658 306.608,-172.214 310.318,-182.138 315.697,-177.658"/>
</g>
<!-- Node11 -->
<g id="node11" class="node"><title>Node11</title>
<g id="a_node11"><a xlink:href="../../db/d19/classslogo_1_1_u_i_1_1_module_creation_helper.html#a2e841243ec3ca474e8822102343acc88" target="_top" xlink:title="slogo.UI.ModuleCreationHelper.activate\lNewTurtleButton">
<polygon fill="white" stroke="black" points="648.5,-71 648.5,-101 853.5,-101 853.5,-71 648.5,-71"/>
<text text-anchor="start" x="656.5" y="-89" font-family="Helvetica,sans-Serif" font-size="10.00">slogo.UI.ModuleCreationHelper.activate</text>
<text text-anchor="middle" x="751" y="-78" font-family="Helvetica,sans-Serif" font-size="10.00">NewTurtleButton</text>
</a>
</g>
</g>
<!-- Node2&#45;&gt;Node11 -->
<g id="edge12" class="edge"><title>Node2&#45;&gt;Node11</title>
<path fill="none" stroke="midnightblue" d="M317.18,-134.758C338.058,-115.522 371.237,-89.1076 406,-78 496.478,-49.0902 607.266,-59.1779 678.232,-70.973"/>
<polygon fill="midnightblue" stroke="midnightblue" points="314.665,-132.319 309.803,-141.732 319.474,-137.405 314.665,-132.319"/>
</g>
<!-- Node13 -->
<g id="node13" class="node"><title>Node13</title>
<g id="a_node13"><a xlink:href="../../db/d19/classslogo_1_1_u_i_1_1_module_creation_helper.html#a9b1f07ab673191067907a059b1b0c524" target="_top" xlink:title="slogo.UI.ModuleCreationHelper.activate\lPlayButton">
<polygon fill="white" stroke="black" points="406.5,-0 406.5,-30 611.5,-30 611.5,-0 406.5,-0"/>
<text text-anchor="start" x="414.5" y="-18" font-family="Helvetica,sans-Serif" font-size="10.00">slogo.UI.ModuleCreationHelper.activate</text>
<text text-anchor="middle" x="509" y="-7" font-family="Helvetica,sans-Serif" font-size="10.00">PlayButton</text>
</a>
</g>
</g>
<!-- Node2&#45;&gt;Node13 -->
<g id="edge15" class="edge"><title>Node2&#45;&gt;Node13</title>
<path fill="none" stroke="midnightblue" d="M311.965,-133.935C331.799,-108.567 366.925,-68.3149 406,-45 416.224,-38.8996 427.771,-33.9689 439.325,-30.0056"/>
<polygon fill="midnightblue" stroke="midnightblue" points="309.149,-131.856 305.842,-141.922 314.704,-136.116 309.149,-131.856"/>
</g>
<!-- Node16 -->
<g id="node16" class="node"><title>Node16</title>
<g id="a_node16"><a xlink:href="../../db/d19/classslogo_1_1_u_i_1_1_module_creation_helper.html#a3a38d485562cb17591ec3fd07cffc18a" target="_top" xlink:title="slogo.UI.ModuleCreationHelper.activate\lTurtleCanvas">
<polygon fill="white" stroke="black" points="648.5,-301 648.5,-331 853.5,-331 853.5,-301 648.5,-301"/>
<text text-anchor="start" x="656.5" y="-319" font-family="Helvetica,sans-Serif" font-size="10.00">slogo.UI.ModuleCreationHelper.activate</text>
<text text-anchor="middle" x="751" y="-308" font-family="Helvetica,sans-Serif" font-size="10.00">TurtleCanvas</text>
</a>
</g>
</g>
<!-- Node2&#45;&gt;Node16 -->
<g id="edge19" class="edge"><title>Node2&#45;&gt;Node16</title>
<path fill="none" stroke="midnightblue" d="M308.017,-181.404C325.713,-211.824 360.447,-262.653 406,-286 480.69,-324.281 576.568,-329.664 648.123,-326.683"/>
<polygon fill="midnightblue" stroke="midnightblue" points="310.843,-179.291 302.878,-172.305 304.748,-182.733 310.843,-179.291"/>
</g>
<!-- Node18 -->
<g id="node18" class="node"><title>Node18</title>
<g id="a_node18"><a xlink:href="../../d1/d5f/classslogo_1_1_u_i_1_1_path_color_selector.html#ad3d9c82a0904c97edcec7cf67b85bd7b" target="_top" xlink:title="slogo.UI.PathColorSelector.create">
<polygon fill="white" stroke="black" points="421,-87.5 421,-106.5 597,-106.5 597,-87.5 421,-87.5"/>
<text text-anchor="middle" x="509" y="-94.5" font-family="Helvetica,sans-Serif" font-size="10.00">slogo.UI.PathColorSelector.create</text>
</a>
</g>
</g>
<!-- Node2&#45;&gt;Node18 -->
<g id="edge22" class="edge"><title>Node2&#45;&gt;Node18</title>
<path fill="none" stroke="midnightblue" d="M340.41,-138.243C360.289,-130.552 384.045,-122.053 406,-116 419.284,-112.338 433.738,-109.168 447.475,-106.523"/>
<polygon fill="midnightblue" stroke="midnightblue" points="339.018,-135.03 330.987,-141.94 341.574,-141.546 339.018,-135.03"/>
</g>
<!-- Node20 -->
<g id="node20" class="node"><title>Node20</title>
<g id="a_node20"><a xlink:href="../../d4/d8d/classslogo_1_1_u_i_1_1_background_color_selector.html#ad75ba4ce104e071811d0fe039a4e839f" target="_top" xlink:title="slogo.UI.BackgroundColor\lSelector.create">
<polygon fill="white" stroke="black" points="439,-164 439,-194 579,-194 579,-164 439,-164"/>
<text text-anchor="start" x="447" y="-182" font-family="Helvetica,sans-Serif" font-size="10.00">slogo.UI.BackgroundColor</text>
<text text-anchor="middle" x="509" y="-171" font-family="Helvetica,sans-Serif" font-size="10.00">Selector.create</text>
</a>
</g>
</g>
<!-- Node2&#45;&gt;Node20 -->
<g id="edge25" class="edge"><title>Node2&#45;&gt;Node20</title>
<path fill="none" stroke="midnightblue" d="M380.19,-165.799C399.693,-167.813 420.191,-169.931 438.92,-171.865"/>
<polygon fill="midnightblue" stroke="midnightblue" points="380.403,-162.302 370.096,-164.756 379.683,-169.265 380.403,-162.302"/>
</g>
<!-- Node21 -->
<g id="node21" class="node"><title>Node21</title>
<g id="a_node21"><a xlink:href="../../dd/da7/classslogo_1_1_u_i_1_1_turtle_image_selector.html#a3f268d9196ffebcbb5dc322d2897a9fe" target="_top" xlink:title="slogo.UI.TurtleImageSelector.create">
<polygon fill="white" stroke="black" points="416,-125.5 416,-144.5 602,-144.5 602,-125.5 416,-125.5"/>
<text text-anchor="middle" x="509" y="-132.5" font-family="Helvetica,sans-Serif" font-size="10.00">slogo.UI.TurtleImageSelector.create</text>
</a>
</g>
</g>
<!-- Node2&#45;&gt;Node21 -->
<g id="edge27" class="edge"><title>Node2&#45;&gt;Node21</title>
<path fill="none" stroke="midnightblue" d="M380.23,-148.197C391.882,-146.993 403.889,-145.753 415.66,-144.537"/>
<polygon fill="midnightblue" stroke="midnightblue" points="379.683,-144.735 370.096,-149.244 380.403,-151.698 379.683,-144.735"/>
</g>
<!-- Node4 -->
<g id="node4" class="node"><title>Node4</title>
<g id="a_node4"><a xlink:href="../../db/d19/classslogo_1_1_u_i_1_1_module_creation_helper.html#adce7362386f9a7b3006e7db08a2d578d" target="_top" xlink:title="slogo.UI.ModuleCreationHelper.create\lIncreaseDecreaseButtons">
<polygon fill="white" stroke="black" points="890.5,-200 890.5,-230 1087.5,-230 1087.5,-200 890.5,-200"/>
<text text-anchor="start" x="898.5" y="-218" font-family="Helvetica,sans-Serif" font-size="10.00">slogo.UI.ModuleCreationHelper.create</text>
<text text-anchor="middle" x="989" y="-207" font-family="Helvetica,sans-Serif" font-size="10.00">IncreaseDecreaseButtons</text>
</a>
</g>
</g>
<!-- Node3&#45;&gt;Node4 -->
<g id="edge3" class="edge"><title>Node3&#45;&gt;Node4</title>
<path fill="none" stroke="midnightblue" d="M621.944,-224.956C703.282,-222.743 812.3,-219.778 890.164,-217.661"/>
<polygon fill="midnightblue" stroke="midnightblue" points="621.565,-221.464 611.664,-225.235 621.755,-228.462 621.565,-221.464"/>
</g>
<!-- Node5 -->
<g id="node5" class="node"><title>Node5</title>
<g id="a_node5"><a xlink:href="../../db/d19/classslogo_1_1_u_i_1_1_module_creation_helper.html#a7c650957b2389d6e6d36e8be8a33cd2b" target="_top" xlink:title="slogo.UI.ModuleCreationHelper.create\lSelectorVBoxModules">
<polygon fill="white" stroke="black" points="1128.5,-156 1128.5,-186 1325.5,-186 1325.5,-156 1128.5,-156"/>
<text text-anchor="start" x="1136.5" y="-174" font-family="Helvetica,sans-Serif" font-size="10.00">slogo.UI.ModuleCreationHelper.create</text>
<text text-anchor="middle" x="1227" y="-163" font-family="Helvetica,sans-Serif" font-size="10.00">SelectorVBoxModules</text>
</a>
</g>
</g>
<!-- Node4&#45;&gt;Node5 -->
<g id="edge4" class="edge"><title>Node4&#45;&gt;Node5</title>
<path fill="none" stroke="midnightblue" d="M1080.59,-198.11C1101.93,-194.132 1124.54,-189.917 1145.4,-186.026"/>
<polygon fill="midnightblue" stroke="midnightblue" points="1079.75,-194.707 1070.56,-199.981 1081.03,-201.589 1079.75,-194.707"/>
</g>
<!-- Node6 -->
<g id="node6" class="node"><title>Node6</title>
<g id="a_node6"><a xlink:href="../../db/d19/classslogo_1_1_u_i_1_1_module_creation_helper.html#afb9dbbbad7d872234a5b296fe129a34e" target="_top" xlink:title="slogo.UI.ModuleCreationHelper.create\lMainPageModules">
<polygon fill="white" stroke="black" points="1366.5,-231 1366.5,-261 1563.5,-261 1563.5,-231 1366.5,-231"/>
<text text-anchor="start" x="1374.5" y="-249" font-family="Helvetica,sans-Serif" font-size="10.00">slogo.UI.ModuleCreationHelper.create</text>
<text text-anchor="middle" x="1465" y="-238" font-family="Helvetica,sans-Serif" font-size="10.00">MainPageModules</text>
</a>
</g>
</g>
<!-- Node5&#45;&gt;Node6 -->
<g id="edge5" class="edge"><title>Node5&#45;&gt;Node6</title>
<path fill="none" stroke="midnightblue" d="M1285.15,-189.163C1325.42,-201.959 1378.7,-218.891 1416.6,-230.937"/>
<polygon fill="midnightblue" stroke="midnightblue" points="1286.06,-185.78 1275.47,-186.087 1283.94,-192.452 1286.06,-185.78"/>
</g>
<!-- Node7 -->
<g id="node7" class="node"><title>Node7</title>
<g id="a_node7"><a xlink:href="../../d9/d33/classslogo_1_1_u_i_1_1_main.html#a15b7f2e399ee24d160550993ab737e73" target="_top" xlink:title="slogo.UI.Main.start">
<polygon fill="white" stroke="black" points="1600,-228.5 1600,-247.5 1706,-247.5 1706,-228.5 1600,-228.5"/>
<text text-anchor="middle" x="1653" y="-235.5" font-family="Helvetica,sans-Serif" font-size="10.00">slogo.UI.Main.start</text>
</a>
</g>
</g>
<!-- Node6&#45;&gt;Node7 -->
<g id="edge6" class="edge"><title>Node6&#45;&gt;Node7</title>
<path fill="none" stroke="midnightblue" d="M1573.8,-241.363C1582.76,-240.978 1591.53,-240.601 1599.76,-240.247"/>
<polygon fill="midnightblue" stroke="midnightblue" points="1573.47,-237.874 1563.63,-241.801 1573.77,-244.868 1573.47,-237.874"/>
</g>
<!-- Node8 -->
<g id="node8" class="node"><title>Node8</title>
<g id="a_node8"><a xlink:href="../../db/d19/classslogo_1_1_u_i_1_1_module_creation_helper.html#a3be12a7cc2b8a219db1e296211a2cb88" target="_top" xlink:title="slogo.UI.ModuleCreationHelper.activate\lExtraWorkspaceButton">
<polygon fill="white" stroke="black" points="1742.5,-219 1742.5,-249 1947.5,-249 1947.5,-219 1742.5,-219"/>
<text text-anchor="start" x="1750.5" y="-237" font-family="Helvetica,sans-Serif" font-size="10.00">slogo.UI.ModuleCreationHelper.activate</text>
<text text-anchor="middle" x="1845" y="-226" font-family="Helvetica,sans-Serif" font-size="10.00">ExtraWorkspaceButton</text>
</a>
</g>
</g>
<!-- Node7&#45;&gt;Node8 -->
<g id="edge7" class="edge"><title>Node7&#45;&gt;Node8</title>
<path fill="none" stroke="midnightblue" d="M1716.22,-236.69C1724.63,-236.513 1733.44,-236.328 1742.32,-236.141"/>
<polygon fill="midnightblue" stroke="midnightblue" points="1716.09,-233.192 1706.17,-236.902 1716.24,-240.19 1716.09,-233.192"/>
</g>
<!-- Node9 -->
<g id="node9" class="node"><title>Node9</title>
<g id="a_node9"><a xlink:href="../../db/d19/classslogo_1_1_u_i_1_1_module_creation_helper.html#a702c1ebe24d2857a10c666eb1fcc315d" target="_top" xlink:title="slogo.UI.ModuleCreationHelper.create\lExtraWorkspaceButton">
<polygon fill="white" stroke="black" points="1984.5,-196 1984.5,-226 2181.5,-226 2181.5,-196 1984.5,-196"/>
<text text-anchor="start" x="1992.5" y="-214" font-family="Helvetica,sans-Serif" font-size="10.00">slogo.UI.ModuleCreationHelper.create</text>
<text text-anchor="middle" x="2083" y="-203" font-family="Helvetica,sans-Serif" font-size="10.00">ExtraWorkspaceButton</text>
</a>
</g>
</g>
<!-- Node8&#45;&gt;Node9 -->
<g id="edge8" class="edge"><title>Node8&#45;&gt;Node9</title>
<path fill="none" stroke="midnightblue" d="M1957.77,-223.108C1966.62,-222.245 1975.52,-221.377 1984.27,-220.524"/>
<polygon fill="midnightblue" stroke="midnightblue" points="1957.41,-219.625 1947.8,-224.079 1958.09,-226.592 1957.41,-219.625"/>
</g>
<!-- Node9&#45;&gt;Node5 -->
<g id="edge9" class="edge"><title>Node9&#45;&gt;Node5</title>
<path fill="none" stroke="midnightblue" d="M1974.34,-205.958C1806.9,-198.115 1486.6,-183.112 1325.55,-175.569"/>
<polygon fill="midnightblue" stroke="midnightblue" points="1974.26,-209.457 1984.41,-206.429 1974.59,-202.465 1974.26,-209.457"/>
</g>
<!-- Node10&#45;&gt;Node6 -->
<g id="edge11" class="edge"><title>Node10&#45;&gt;Node6</title>
<path fill="none" stroke="midnightblue" d="M1340.05,-247.576C1348.81,-247.464 1357.62,-247.352 1366.27,-247.242"/>
<polygon fill="midnightblue" stroke="midnightblue" points="1339.75,-244.079 1329.8,-247.706 1339.84,-251.078 1339.75,-244.079"/>
</g>
<!-- Node12 -->
<g id="node12" class="node"><title>Node12</title>
<g id="a_node12"><a xlink:href="../../db/d19/classslogo_1_1_u_i_1_1_module_creation_helper.html#a07f5483df317cdf80e8ea2dda5699afa" target="_top" xlink:title="slogo.UI.ModuleCreationHelper.create\lNewTurtleButton">
<polygon fill="white" stroke="black" points="890.5,-93 890.5,-123 1087.5,-123 1087.5,-93 890.5,-93"/>
<text text-anchor="start" x="898.5" y="-111" font-family="Helvetica,sans-Serif" font-size="10.00">slogo.UI.ModuleCreationHelper.create</text>
<text text-anchor="middle" x="989" y="-100" font-family="Helvetica,sans-Serif" font-size="10.00">NewTurtleButton</text>
</a>
</g>
</g>
<!-- Node11&#45;&gt;Node12 -->
<g id="edge13" class="edge"><title>Node11&#45;&gt;Node12</title>
<path fill="none" stroke="midnightblue" d="M863.765,-96.4188C872.621,-97.2444 881.524,-98.0743 890.274,-98.8899"/>
<polygon fill="midnightblue" stroke="midnightblue" points="864.079,-92.933 853.798,-95.4896 863.43,-99.9028 864.079,-92.933"/>
</g>
<!-- Node12&#45;&gt;Node5 -->
<g id="edge14" class="edge"><title>Node12&#45;&gt;Node5</title>
<path fill="none" stroke="midnightblue" d="M1056.1,-125.645C1091.9,-135.201 1135.65,-146.882 1169.79,-155.996"/>
<polygon fill="midnightblue" stroke="midnightblue" points="1056.79,-122.208 1046.23,-123.01 1054.99,-128.971 1056.79,-122.208"/>
</g>
<!-- Node14 -->
<g id="node14" class="node"><title>Node14</title>
<g id="a_node14"><a xlink:href="../../db/d19/classslogo_1_1_u_i_1_1_module_creation_helper.html#a9b3fb38a55b3b7812b4f793afa7a974f" target="_top" xlink:title="slogo.UI.ModuleCreationHelper.create\lPlayButton">
<polygon fill="white" stroke="black" points="652.5,-10 652.5,-40 849.5,-40 849.5,-10 652.5,-10"/>
<text text-anchor="start" x="660.5" y="-28" font-family="Helvetica,sans-Serif" font-size="10.00">slogo.UI.ModuleCreationHelper.create</text>
<text text-anchor="middle" x="751" y="-17" font-family="Helvetica,sans-Serif" font-size="10.00">PlayButton</text>
</a>
</g>
</g>
<!-- Node13&#45;&gt;Node14 -->
<g id="edge16" class="edge"><title>Node13&#45;&gt;Node14</title>
<path fill="none" stroke="midnightblue" d="M621.89,-19.6621C632.035,-20.0848 642.258,-20.5107 652.267,-20.9278"/>
<polygon fill="midnightblue" stroke="midnightblue" points="621.919,-16.1603 611.782,-19.2409 621.627,-23.1543 621.919,-16.1603"/>
</g>
<!-- Node15 -->
<g id="node15" class="node"><title>Node15</title>
<g id="a_node15"><a xlink:href="../../db/d19/classslogo_1_1_u_i_1_1_module_creation_helper.html#ae1e60d37509c2e5eddcb2a6e70b4f650" target="_top" xlink:title="slogo.UI.ModuleCreationHelper.create\lFirstRowButtons">
<polygon fill="white" stroke="black" points="890.5,-20 890.5,-50 1087.5,-50 1087.5,-20 890.5,-20"/>
<text text-anchor="start" x="898.5" y="-38" font-family="Helvetica,sans-Serif" font-size="10.00">slogo.UI.ModuleCreationHelper.create</text>
<text text-anchor="middle" x="989" y="-27" font-family="Helvetica,sans-Serif" font-size="10.00">FirstRowButtons</text>
</a>
</g>
</g>
<!-- Node14&#45;&gt;Node15 -->
<g id="edge17" class="edge"><title>Node14&#45;&gt;Node15</title>
<path fill="none" stroke="midnightblue" d="M859.832,-29.5691C870.015,-30.0006 880.299,-30.4364 890.379,-30.8635"/>
<polygon fill="midnightblue" stroke="midnightblue" points="859.833,-26.0661 849.694,-29.1396 859.537,-33.0599 859.833,-26.0661"/>
</g>
<!-- Node15&#45;&gt;Node5 -->
<g id="edge18" class="edge"><title>Node15&#45;&gt;Node5</title>
<path fill="none" stroke="midnightblue" d="M1032.5,-54.536C1049.93,-62.8757 1070.16,-72.9837 1088,-83 1130.12,-106.647 1177.16,-137.694 1204,-155.885"/>
<polygon fill="midnightblue" stroke="midnightblue" points="1033.68,-51.2195 1023.14,-50.0966 1030.68,-57.5442 1033.68,-51.2195"/>
</g>
<!-- Node17 -->
<g id="node17" class="node"><title>Node17</title>
<g id="a_node17"><a xlink:href="../../db/d19/classslogo_1_1_u_i_1_1_module_creation_helper.html#a803bac6b55bde712b21f2face1eeef81" target="_top" xlink:title="slogo.UI.ModuleCreationHelper.create\lTurtleCanvas">
<polygon fill="white" stroke="black" points="890.5,-301 890.5,-331 1087.5,-331 1087.5,-301 890.5,-301"/>
<text text-anchor="start" x="898.5" y="-319" font-family="Helvetica,sans-Serif" font-size="10.00">slogo.UI.ModuleCreationHelper.create</text>
<text text-anchor="middle" x="989" y="-308" font-family="Helvetica,sans-Serif" font-size="10.00">TurtleCanvas</text>
</a>
</g>
</g>
<!-- Node16&#45;&gt;Node17 -->
<g id="edge20" class="edge"><title>Node16&#45;&gt;Node17</title>
<path fill="none" stroke="midnightblue" d="M864.051,-316C872.813,-316 881.618,-316 890.274,-316"/>
<polygon fill="midnightblue" stroke="midnightblue" points="863.798,-312.5 853.798,-316 863.798,-319.5 863.798,-312.5"/>
</g>
<!-- Node17&#45;&gt;Node6 -->
<g id="edge21" class="edge"><title>Node17&#45;&gt;Node6</title>
<path fill="none" stroke="midnightblue" d="M1097.88,-304.395C1164.87,-296.684 1252.65,-285.667 1330,-273 1350.96,-269.568 1373.64,-265.235 1394.28,-261.051"/>
<polygon fill="midnightblue" stroke="midnightblue" points="1097.27,-300.942 1087.73,-305.556 1098.07,-307.896 1097.27,-300.942"/>
</g>
<!-- Node19 -->
<g id="node19" class="node"><title>Node19</title>
<g id="a_node19"><a xlink:href="../../db/d19/classslogo_1_1_u_i_1_1_module_creation_helper.html#af7f2919454fdbf6e9d7d912e99634857" target="_top" xlink:title="slogo.UI.ModuleCreationHelper.create\lSelectors">
<polygon fill="white" stroke="black" points="652.5,-142 652.5,-172 849.5,-172 849.5,-142 652.5,-142"/>
<text text-anchor="start" x="660.5" y="-160" font-family="Helvetica,sans-Serif" font-size="10.00">slogo.UI.ModuleCreationHelper.create</text>
<text text-anchor="middle" x="751" y="-149" font-family="Helvetica,sans-Serif" font-size="10.00">Selectors</text>
</a>
</g>
</g>
<!-- Node18&#45;&gt;Node19 -->
<g id="edge23" class="edge"><title>Node18&#45;&gt;Node19</title>
<path fill="none" stroke="midnightblue" d="M577.043,-108.453C588.741,-110.746 600.758,-113.291 612,-116 642.858,-123.436 677.062,-133.585 703.698,-141.925"/>
<polygon fill="midnightblue" stroke="midnightblue" points="577.353,-104.948 566.873,-106.505 576.036,-111.823 577.353,-104.948"/>
</g>
<!-- Node19&#45;&gt;Node5 -->
<g id="edge24" class="edge"><title>Node19&#45;&gt;Node5</title>
<path fill="none" stroke="midnightblue" d="M859.844,-160.185C940.649,-162.572 1050.29,-165.81 1128.49,-168.12"/>
<polygon fill="midnightblue" stroke="midnightblue" points="859.737,-156.681 849.638,-159.884 859.531,-163.678 859.737,-156.681"/>
</g>
<!-- Node20&#45;&gt;Node19 -->
<g id="edge26" class="edge"><title>Node20&#45;&gt;Node19</title>
<path fill="none" stroke="midnightblue" d="M589.179,-171.742C609.396,-169.889 631.368,-167.875 652.389,-165.948"/>
<polygon fill="midnightblue" stroke="midnightblue" points="588.735,-168.268 579.096,-172.666 589.374,-175.239 588.735,-168.268"/>
</g>
<!-- Node21&#45;&gt;Node19 -->
<g id="edge28" class="edge"><title>Node21&#45;&gt;Node19</title>
<path fill="none" stroke="midnightblue" d="M612.172,-144.366C625.429,-145.581 638.983,-146.823 652.166,-148.032"/>
<polygon fill="midnightblue" stroke="midnightblue" points="612.382,-140.87 602.104,-143.443 611.743,-147.841 612.382,-140.87"/>
</g>
</g>
</svg>
