<?xml version="1.0" encoding="UTF-8" standalone="no"?>
<!DOCTYPE svg PUBLIC "-//W3C//DTD SVG 1.1//EN"
 "http://www.w3.org/Graphics/SVG/1.1/DTD/svg11.dtd">
<!-- Generated by graphviz version 2.36.0 (20140111.2315)
 -->
<!-- Title: slogo.UI.ModuleCreationHelper.turnOffRunningStatusLabel Pages: 1 -->
<!--zoomable 496 -->
<svg id="main" version="1.1" xmlns="http://www.w3.org/2000/svg" xmlns:xlink="http://www.w3.org/1999/xlink" xml:space="preserve" onload="init(evt)">
<style type="text/css"><![CDATA[
.edge:hover path { stroke: red; }
.edge:hover polygon { stroke: red; fill: red; }
]]></style>
<script type="text/javascript"><![CDATA[
var edges = document.getElementsByTagName('g');
if (edges && edges.length) {
  for (var i=0;i<edges.length;i++) {
    if (edges[i].id.substr(0,4)=='edge') {
      edges[i].setAttribute('class','edge');
    }
  }
}
]]></script>
        <defs>
                <circle id="rim" cx="0" cy="0" r="7"/>
                <circle id="rim2" cx="0" cy="0" r="3.5"/>
                <g id="zoomPlus">
                        <use xlink:href="#rim" fill="#404040">
                                <set attributeName="fill" to="#808080" begin="zoomplus.mouseover" end="zoomplus.mouseout"/>
                        </use>
                        <path d="M-4,0h8M0,-4v8" fill="none" stroke="white" stroke-width="1.5" pointer-events="none"/>
                </g>
                <g id="zoomMin">
                        <use xlink:href="#rim" fill="#404040">
                                <set attributeName="fill" to="#808080" begin="zoomminus.mouseover" end="zoomminus.mouseout"/>
                        </use>
                        <path d="M-4,0h8" fill="none" stroke="white" stroke-width="1.5" pointer-events="none"/>
                </g>
                <g id="dirArrow">
                        <path fill="none" stroke="white" stroke-width="1.5" d="M0,-3.0v7 M-2.5,-0.5L0,-3.0L2.5,-0.5"/>
                </g>
               <g id="resetDef">
                       <use xlink:href="#rim2" fill="#404040">
                               <set attributeName="fill" to="#808080" begin="reset.mouseover" end="reset.mouseout"/>
                       </use>
               </g>
        </defs>

<script type="text/javascript">
var viewWidth = 2186;
var viewHeight = 496;
var sectionId = 'dynsection-132';
</script>
<script xlink:href="../../svgpan.js"/>
<svg id="graph" class="graph">
<g id="viewport">
<title>slogo.UI.ModuleCreationHelper.turnOffRunningStatusLabel</title>
<polygon fill="white" stroke="none" points="-4,4 -4,-491.593 2182,-491.593 2182,4 -4,4"/>
<!-- Node1 -->
<g id="node1" class="node"><title>Node1</title>
<polygon fill="#bfbfbf" stroke="black" points="0,-407.593 0,-437.593 186,-437.593 186,-407.593 0,-407.593"/>
<text text-anchor="start" x="8" y="-425.593" font-family="Helvetica,sans-Serif" font-size="10.00">slogo.UI.ModuleCreationHelper.turn</text>
<text text-anchor="middle" x="93" y="-414.593" font-family="Helvetica,sans-Serif" font-size="10.00">OffRunningStatusLabel</text>
</g>
<!-- Node2 -->
<g id="node2" class="node"><title>Node2</title>
<g id="a_node2"><a xlink:href="../../df/d2d/classslogo_1_1_view.html#ad50bfcf609a900a0fece7334c8c66d3e" target="_top" xlink:title="slogo.View.pauseAnimation">
<polygon fill="white" stroke="black" points="224.5,-456.093 224.5,-475.093 371.5,-475.093 371.5,-456.093 224.5,-456.093"/>
<text text-anchor="middle" x="298" y="-463.093" font-family="Helvetica,sans-Serif" font-size="10.00">slogo.View.pauseAnimation</text>
</a>
</g>
</g>
<!-- Node1&#45;&gt;Node2 -->
<g id="edge1" class="edge"><title>Node1&#45;&gt;Node2</title>
<path fill="none" stroke="midnightblue" d="M174.955,-439.741C201.215,-445.304 229.391,-451.272 252.046,-456.071"/>
<polygon fill="midnightblue" stroke="midnightblue" points="175.508,-436.281 165,-437.632 174.057,-443.129 175.508,-436.281"/>
</g>
<!-- Node11 -->
<g id="node11" class="node"><title>Node11</title>
<g id="a_node11"><a xlink:href="../../df/d2d/classslogo_1_1_view.html#a5a508e4d68f5887c79e5456d6f3a3ab4" target="_top" xlink:title="slogo.View.resetAnimation">
<polygon fill="white" stroke="black" points="226.5,-413.093 226.5,-432.093 369.5,-432.093 369.5,-413.093 226.5,-413.093"/>
<text text-anchor="middle" x="298" y="-420.093" font-family="Helvetica,sans-Serif" font-size="10.00">slogo.View.resetAnimation</text>
</a>
</g>
</g>
<!-- Node1&#45;&gt;Node11 -->
<g id="edge11" class="edge"><title>Node1&#45;&gt;Node11</title>
<path fill="none" stroke="midnightblue" d="M196.373,-422.593C206.465,-422.593 216.545,-422.593 226.214,-422.593"/>
<polygon fill="midnightblue" stroke="midnightblue" points="196.293,-419.093 186.293,-422.593 196.293,-426.093 196.293,-419.093"/>
</g>
<!-- Node14 -->
<g id="node14" class="node"><title>Node14</title>
<g id="a_node14"><a xlink:href="../../df/d2d/classslogo_1_1_view.html#aee563f6a0b15ac6668e4dcbdad40c73c" target="_top" xlink:title="slogo.View.sendCommandTo\lBackend">
<polygon fill="white" stroke="black" points="222,-227.593 222,-257.593 374,-257.593 374,-227.593 222,-227.593"/>
<text text-anchor="start" x="230" y="-245.593" font-family="Helvetica,sans-Serif" font-size="10.00">slogo.View.sendCommandTo</text>
<text text-anchor="middle" x="298" y="-234.593" font-family="Helvetica,sans-Serif" font-size="10.00">Backend</text>
</a>
</g>
</g>
<!-- Node1&#45;&gt;Node14 -->
<g id="edge15" class="edge"><title>Node1&#45;&gt;Node14</title>
<path fill="none" stroke="midnightblue" d="M118.472,-400.894C160.17,-363.92 243.965,-289.619 279.947,-257.714"/>
<polygon fill="midnightblue" stroke="midnightblue" points="116.119,-398.303 110.959,-407.556 120.763,-403.54 116.119,-398.303"/>
</g>
<!-- Node3 -->
<g id="node3" class="node"><title>Node3</title>
<g id="a_node3"><a xlink:href="../../db/d19/classslogo_1_1_u_i_1_1_module_creation_helper.html#a9a4f9a714349d603ad1dae7f3dd4a9b3" target="_top" xlink:title="slogo.UI.ModuleCreationHelper.activate\lPauseButton">
<polygon fill="white" stroke="black" points="410.5,-456.593 410.5,-486.593 615.5,-486.593 615.5,-456.593 410.5,-456.593"/>
<text text-anchor="start" x="418.5" y="-474.593" font-family="Helvetica,sans-Serif" font-size="10.00">slogo.UI.ModuleCreationHelper.activate</text>
<text text-anchor="middle" x="513" y="-463.593" font-family="Helvetica,sans-Serif" font-size="10.00">PauseButton</text>
</a>
</g>
</g>
<!-- Node2&#45;&gt;Node3 -->
<g id="edge2" class="edge"><title>Node2&#45;&gt;Node3</title>
<path fill="none" stroke="midnightblue" d="M381.729,-467.923C391.071,-468.187 400.67,-468.457 410.219,-468.726"/>
<polygon fill="midnightblue" stroke="midnightblue" points="381.801,-464.424 371.707,-467.641 381.604,-471.421 381.801,-464.424"/>
</g>
<!-- Node4 -->
<g id="node4" class="node"><title>Node4</title>
<g id="a_node4"><a xlink:href="../../db/d19/classslogo_1_1_u_i_1_1_module_creation_helper.html#a938126b745e9f2d20932e126c0fd455a" target="_top" xlink:title="slogo.UI.ModuleCreationHelper.create\lPauseButton">
<polygon fill="white" stroke="black" points="652.5,-456.593 652.5,-486.593 849.5,-486.593 849.5,-456.593 652.5,-456.593"/>
<text text-anchor="start" x="660.5" y="-474.593" font-family="Helvetica,sans-Serif" font-size="10.00">slogo.UI.ModuleCreationHelper.create</text>
<text text-anchor="middle" x="751" y="-463.593" font-family="Helvetica,sans-Serif" font-size="10.00">PauseButton</text>
</a>
</g>
</g>
<!-- Node3&#45;&gt;Node4 -->
<g id="edge3" class="edge"><title>Node3&#45;&gt;Node4</title>
<path fill="none" stroke="midnightblue" d="M626.051,-471.593C634.813,-471.593 643.618,-471.593 652.274,-471.593"/>
<polygon fill="midnightblue" stroke="midnightblue" points="625.798,-468.093 615.798,-471.593 625.798,-475.093 625.798,-468.093"/>
</g>
<!-- Node5 -->
<g id="node5" class="node"><title>Node5</title>
<g id="a_node5"><a xlink:href="../../db/d19/classslogo_1_1_u_i_1_1_module_creation_helper.html#ae1e0ce18826b0895f1c3d4786b3776b7" target="_top" xlink:title="slogo.UI.ModuleCreationHelper.create\lSecondRowButtons">
<polygon fill="white" stroke="black" points="886.5,-407.593 886.5,-437.593 1083.5,-437.593 1083.5,-407.593 886.5,-407.593"/>
<text text-anchor="start" x="894.5" y="-425.593" font-family="Helvetica,sans-Serif" font-size="10.00">slogo.UI.ModuleCreationHelper.create</text>
<text text-anchor="middle" x="985" y="-414.593" font-family="Helvetica,sans-Serif" font-size="10.00">SecondRowButtons</text>
</a>
</g>
</g>
<!-- Node4&#45;&gt;Node5 -->
<g id="edge4" class="edge"><title>Node4&#45;&gt;Node5</title>
<path fill="none" stroke="midnightblue" d="M833.023,-454.48C859.058,-448.982 887.687,-442.935 912.95,-437.599"/>
<polygon fill="midnightblue" stroke="midnightblue" points="832.245,-451.067 823.184,-456.558 833.692,-457.916 832.245,-451.067"/>
</g>
<!-- Node6 -->
<g id="node6" class="node"><title>Node6</title>
<g id="a_node6"><a xlink:href="../../db/d19/classslogo_1_1_u_i_1_1_module_creation_helper.html#a7c650957b2389d6e6d36e8be8a33cd2b" target="_top" xlink:title="slogo.UI.ModuleCreationHelper.create\lSelectorVBoxModules">
<polygon fill="white" stroke="black" points="1124.5,-227.593 1124.5,-257.593 1321.5,-257.593 1321.5,-227.593 1124.5,-227.593"/>
<text text-anchor="start" x="1132.5" y="-245.593" font-family="Helvetica,sans-Serif" font-size="10.00">slogo.UI.ModuleCreationHelper.create</text>
<text text-anchor="middle" x="1223" y="-234.593" font-family="Helvetica,sans-Serif" font-size="10.00">SelectorVBoxModules</text>
</a>
</g>
</g>
<!-- Node5&#45;&gt;Node6 -->
<g id="edge5" class="edge"><title>Node5&#45;&gt;Node6</title>
<path fill="none" stroke="midnightblue" d="M1053.77,-403.895C1064.29,-399.649 1074.74,-394.58 1084,-388.593 1140.83,-351.866 1190.78,-286.959 1211.64,-257.673"/>
<polygon fill="midnightblue" stroke="midnightblue" points="1052.22,-400.742 1044.11,-407.567 1054.7,-407.285 1052.22,-400.742"/>
</g>
<!-- Node7 -->
<g id="node7" class="node"><title>Node7</title>
<g id="a_node7"><a xlink:href="../../db/d19/classslogo_1_1_u_i_1_1_module_creation_helper.html#afb9dbbbad7d872234a5b296fe129a34e" target="_top" xlink:title="slogo.UI.ModuleCreationHelper.create\lMainPageModules">
<polygon fill="white" stroke="black" points="1362.5,-163.593 1362.5,-193.593 1559.5,-193.593 1559.5,-163.593 1362.5,-163.593"/>
<text text-anchor="start" x="1370.5" y="-181.593" font-family="Helvetica,sans-Serif" font-size="10.00">slogo.UI.ModuleCreationHelper.create</text>
<text text-anchor="middle" x="1461" y="-170.593" font-family="Helvetica,sans-Serif" font-size="10.00">MainPageModules</text>
</a>
</g>
</g>
<!-- Node6&#45;&gt;Node7 -->
<g id="edge6" class="edge"><title>Node6&#45;&gt;Node7</title>
<path fill="none" stroke="midnightblue" d="M1289.31,-224.881C1325.54,-215.057 1370.1,-202.973 1404.61,-193.615"/>
<polygon fill="midnightblue" stroke="midnightblue" points="1288.07,-221.592 1279.33,-227.588 1289.9,-228.348 1288.07,-221.592"/>
</g>
<!-- Node8 -->
<g id="node8" class="node"><title>Node8</title>
<g id="a_node8"><a xlink:href="../../d9/d33/classslogo_1_1_u_i_1_1_main.html#a15b7f2e399ee24d160550993ab737e73" target="_top" xlink:title="slogo.UI.Main.start">
<polygon fill="white" stroke="black" points="1596,-173.093 1596,-192.093 1702,-192.093 1702,-173.093 1596,-173.093"/>
<text text-anchor="middle" x="1649" y="-180.093" font-family="Helvetica,sans-Serif" font-size="10.00">slogo.UI.Main.start</text>
</a>
</g>
</g>
<!-- Node7&#45;&gt;Node8 -->
<g id="edge7" class="edge"><title>Node7&#45;&gt;Node8</title>
<path fill="none" stroke="midnightblue" d="M1569.8,-180.911C1578.76,-181.104 1587.53,-181.292 1595.76,-181.47"/>
<polygon fill="midnightblue" stroke="midnightblue" points="1569.7,-177.408 1559.63,-180.693 1569.55,-184.407 1569.7,-177.408"/>
</g>
<!-- Node9 -->
<g id="node9" class="node"><title>Node9</title>
<g id="a_node9"><a xlink:href="../../db/d19/classslogo_1_1_u_i_1_1_module_creation_helper.html#a3be12a7cc2b8a219db1e296211a2cb88" target="_top" xlink:title="slogo.UI.ModuleCreationHelper.activate\lExtraWorkspaceButton">
<polygon fill="white" stroke="black" points="1738.5,-173.593 1738.5,-203.593 1943.5,-203.593 1943.5,-173.593 1738.5,-173.593"/>
<text text-anchor="start" x="1746.5" y="-191.593" font-family="Helvetica,sans-Serif" font-size="10.00">slogo.UI.ModuleCreationHelper.activate</text>
<text text-anchor="middle" x="1841" y="-180.593" font-family="Helvetica,sans-Serif" font-size="10.00">ExtraWorkspaceButton</text>
</a>
</g>
</g>
<!-- Node8&#45;&gt;Node9 -->
<g id="edge8" class="edge"><title>Node8&#45;&gt;Node9</title>
<path fill="none" stroke="midnightblue" d="M1712.22,-184.558C1720.63,-184.823 1729.44,-185.102 1738.32,-185.382"/>
<polygon fill="midnightblue" stroke="midnightblue" points="1712.28,-181.058 1702.17,-184.24 1712.05,-188.054 1712.28,-181.058"/>
</g>
<!-- Node10 -->
<g id="node10" class="node"><title>Node10</title>
<g id="a_node10"><a xlink:href="../../db/d19/classslogo_1_1_u_i_1_1_module_creation_helper.html#a702c1ebe24d2857a10c666eb1fcc315d" target="_top" xlink:title="slogo.UI.ModuleCreationHelper.create\lExtraWorkspaceButton">
<polygon fill="white" stroke="black" points="1980.5,-196.593 1980.5,-226.593 2177.5,-226.593 2177.5,-196.593 1980.5,-196.593"/>
<text text-anchor="start" x="1988.5" y="-214.593" font-family="Helvetica,sans-Serif" font-size="10.00">slogo.UI.ModuleCreationHelper.create</text>
<text text-anchor="middle" x="2079" y="-203.593" font-family="Helvetica,sans-Serif" font-size="10.00">ExtraWorkspaceButton</text>
</a>
</g>
</g>
<!-- Node9&#45;&gt;Node10 -->
<g id="edge9" class="edge"><title>Node9&#45;&gt;Node10</title>
<path fill="none" stroke="midnightblue" d="M1953.77,-199.485C1962.62,-200.348 1971.52,-201.216 1980.27,-202.069"/>
<polygon fill="midnightblue" stroke="midnightblue" points="1954.09,-196 1943.8,-198.514 1953.41,-202.967 1954.09,-196"/>
</g>
<!-- Node10&#45;&gt;Node6 -->
<g id="edge10" class="edge"><title>Node10&#45;&gt;Node6</title>
<path fill="none" stroke="midnightblue" d="M1970.34,-215.501C1802.9,-221.579 1482.6,-233.206 1321.55,-239.052"/>
<polygon fill="midnightblue" stroke="midnightblue" points="1970.55,-218.996 1980.41,-215.135 1970.29,-212.001 1970.55,-218.996"/>
</g>
<!-- Node12 -->
<g id="node12" class="node"><title>Node12</title>
<g id="a_node12"><a xlink:href="../../db/d19/classslogo_1_1_u_i_1_1_module_creation_helper.html#ad548894429a51de52d1538db6d821539" target="_top" xlink:title="slogo.UI.ModuleCreationHelper.activate\lResetButton">
<polygon fill="white" stroke="black" points="410.5,-407.593 410.5,-437.593 615.5,-437.593 615.5,-407.593 410.5,-407.593"/>
<text text-anchor="start" x="418.5" y="-425.593" font-family="Helvetica,sans-Serif" font-size="10.00">slogo.UI.ModuleCreationHelper.activate</text>
<text text-anchor="middle" x="513" y="-414.593" font-family="Helvetica,sans-Serif" font-size="10.00">ResetButton</text>
</a>
</g>
</g>
<!-- Node11&#45;&gt;Node12 -->
<g id="edge12" class="edge"><title>Node11&#45;&gt;Node12</title>
<path fill="none" stroke="midnightblue" d="M379.893,-422.593C389.866,-422.593 400.159,-422.593 410.391,-422.593"/>
<polygon fill="midnightblue" stroke="midnightblue" points="379.63,-419.093 369.63,-422.593 379.63,-426.093 379.63,-419.093"/>
</g>
<!-- Node13 -->
<g id="node13" class="node"><title>Node13</title>
<g id="a_node13"><a xlink:href="../../db/d19/classslogo_1_1_u_i_1_1_module_creation_helper.html#aa76f49f1feda966f0a2b6314418bf931" target="_top" xlink:title="slogo.UI.ModuleCreationHelper.create\lResetButton">
<polygon fill="white" stroke="black" points="652.5,-407.593 652.5,-437.593 849.5,-437.593 849.5,-407.593 652.5,-407.593"/>
<text text-anchor="start" x="660.5" y="-425.593" font-family="Helvetica,sans-Serif" font-size="10.00">slogo.UI.ModuleCreationHelper.create</text>
<text text-anchor="middle" x="751" y="-414.593" font-family="Helvetica,sans-Serif" font-size="10.00">ResetButton</text>
</a>
</g>
</g>
<!-- Node12&#45;&gt;Node13 -->
<g id="edge13" class="edge"><title>Node12&#45;&gt;Node13</title>
<path fill="none" stroke="midnightblue" d="M626.051,-422.593C634.813,-422.593 643.618,-422.593 652.274,-422.593"/>
<polygon fill="midnightblue" stroke="midnightblue" points="625.798,-419.093 615.798,-422.593 625.798,-426.093 625.798,-419.093"/>
</g>
<!-- Node13&#45;&gt;Node5 -->
<g id="edge14" class="edge"><title>Node13&#45;&gt;Node5</title>
<path fill="none" stroke="midnightblue" d="M859.722,-422.593C868.618,-422.593 877.58,-422.593 886.396,-422.593"/>
<polygon fill="midnightblue" stroke="midnightblue" points="859.717,-419.093 849.716,-422.593 859.716,-426.093 859.717,-419.093"/>
</g>
<!-- Node15 -->
<g id="node15" class="node"><title>Node15</title>
<g id="a_node15"><a xlink:href="../../db/d19/classslogo_1_1_u_i_1_1_module_creation_helper.html#a69e17abcc7cf9a6ed7261d8fb1d631fa" target="_top" xlink:title="slogo.UI.ModuleCreationHelper.activate\lIncreaseDecreaseButtons">
<polygon fill="white" stroke="black" points="410.5,-134.593 410.5,-164.593 615.5,-164.593 615.5,-134.593 410.5,-134.593"/>
<text text-anchor="start" x="418.5" y="-152.593" font-family="Helvetica,sans-Serif" font-size="10.00">slogo.UI.ModuleCreationHelper.activate</text>
<text text-anchor="middle" x="513" y="-141.593" font-family="Helvetica,sans-Serif" font-size="10.00">IncreaseDecreaseButtons</text>
</a>
</g>
</g>
<!-- Node14&#45;&gt;Node15 -->
<g id="edge16" class="edge"><title>Node14&#45;&gt;Node15</title>
<path fill="none" stroke="midnightblue" d="M327.154,-221.488C348.797,-206.183 379.979,-186.061 410,-173.593 418.148,-170.209 426.87,-167.246 435.656,-164.665"/>
<polygon fill="midnightblue" stroke="midnightblue" points="324.857,-218.829 318.78,-227.507 328.943,-224.513 324.857,-218.829"/>
</g>
<!-- Node17 -->
<g id="node17" class="node"><title>Node17</title>
<g id="a_node17"><a xlink:href="../../db/d19/classslogo_1_1_u_i_1_1_module_creation_helper.html#aa70b0ad9e90e62509149bfd2ef2ba209" target="_top" xlink:title="slogo.UI.ModuleCreationHelper.activate\lKeyEvents">
<polygon fill="white" stroke="black" points="1120.5,-63.593 1120.5,-93.593 1325.5,-93.593 1325.5,-63.593 1120.5,-63.593"/>
<text text-anchor="start" x="1128.5" y="-81.593" font-family="Helvetica,sans-Serif" font-size="10.00">slogo.UI.ModuleCreationHelper.activate</text>
<text text-anchor="middle" x="1223" y="-70.593" font-family="Helvetica,sans-Serif" font-size="10.00">KeyEvents</text>
</a>
</g>
</g>
<!-- Node14&#45;&gt;Node17 -->
<g id="edge19" class="edge"><title>Node14&#45;&gt;Node17</title>
<path fill="none" stroke="midnightblue" d="M306.889,-217.898C320.719,-179.296 353.387,-105.942 410,-75.593 668.122,62.7794 1042.06,-25.4088 1173.85,-63.567"/>
<polygon fill="midnightblue" stroke="midnightblue" points="303.578,-216.763 303.629,-227.358 310.196,-219.044 303.578,-216.763"/>
</g>
<!-- Node18 -->
<g id="node18" class="node"><title>Node18</title>
<g id="a_node18"><a xlink:href="../../db/d19/classslogo_1_1_u_i_1_1_module_creation_helper.html#a2e841243ec3ca474e8822102343acc88" target="_top" xlink:title="slogo.UI.ModuleCreationHelper.activate\lNewTurtleButton">
<polygon fill="white" stroke="black" points="410.5,-358.593 410.5,-388.593 615.5,-388.593 615.5,-358.593 410.5,-358.593"/>
<text text-anchor="start" x="418.5" y="-376.593" font-family="Helvetica,sans-Serif" font-size="10.00">slogo.UI.ModuleCreationHelper.activate</text>
<text text-anchor="middle" x="513" y="-365.593" font-family="Helvetica,sans-Serif" font-size="10.00">NewTurtleButton</text>
</a>
</g>
</g>
<!-- Node14&#45;&gt;Node18 -->
<g id="edge21" class="edge"><title>Node14&#45;&gt;Node18</title>
<path fill="none" stroke="midnightblue" d="M316.966,-265.819C337.029,-290.132 371.748,-327.628 410,-348.593 417.115,-352.492 424.838,-355.792 432.744,-358.581"/>
<polygon fill="midnightblue" stroke="midnightblue" points="319.507,-263.395 310.499,-257.818 314.063,-267.795 319.507,-263.395"/>
</g>
<!-- Node20 -->
<g id="node20" class="node"><title>Node20</title>
<g id="a_node20"><a xlink:href="../../db/d19/classslogo_1_1_u_i_1_1_module_creation_helper.html#a9b1f07ab673191067907a059b1b0c524" target="_top" xlink:title="slogo.UI.ModuleCreationHelper.activate\lPlayButton">
<polygon fill="white" stroke="black" points="410.5,-309.593 410.5,-339.593 615.5,-339.593 615.5,-309.593 410.5,-309.593"/>
<text text-anchor="start" x="418.5" y="-327.593" font-family="Helvetica,sans-Serif" font-size="10.00">slogo.UI.ModuleCreationHelper.activate</text>
<text text-anchor="middle" x="513" y="-316.593" font-family="Helvetica,sans-Serif" font-size="10.00">PlayButton</text>
</a>
</g>
</g>
<!-- Node14&#45;&gt;Node20 -->
<g id="edge24" class="edge"><title>Node14&#45;&gt;Node20</title>
<path fill="none" stroke="midnightblue" d="M332.983,-262.682C354.483,-274.72 383.186,-289.58 410,-299.593 419.992,-303.324 430.744,-306.656 441.386,-309.575"/>
<polygon fill="midnightblue" stroke="midnightblue" points="334.661,-259.61 324.236,-257.719 331.206,-265.698 334.661,-259.61"/>
</g>
<!-- Node23 -->
<g id="node23" class="node"><title>Node23</title>
<g id="a_node23"><a xlink:href="../../db/d19/classslogo_1_1_u_i_1_1_module_creation_helper.html#a3a38d485562cb17591ec3fd07cffc18a" target="_top" xlink:title="slogo.UI.ModuleCreationHelper.activate\lTurtleCanvas">
<polygon fill="white" stroke="black" points="410.5,-85.593 410.5,-115.593 615.5,-115.593 615.5,-85.593 410.5,-85.593"/>
<text text-anchor="start" x="418.5" y="-103.593" font-family="Helvetica,sans-Serif" font-size="10.00">slogo.UI.ModuleCreationHelper.activate</text>
<text text-anchor="middle" x="513" y="-92.593" font-family="Helvetica,sans-Serif" font-size="10.00">TurtleCanvas</text>
</a>
</g>
</g>
<!-- Node14&#45;&gt;Node23 -->
<g id="edge28" class="edge"><title>Node14&#45;&gt;Node23</title>
<path fill="none" stroke="midnightblue" d="M314.822,-218.727C334.059,-191.656 369.076,-148.216 410,-124.593 415.987,-121.137 422.444,-118.178 429.1,-115.645"/>
<polygon fill="midnightblue" stroke="midnightblue" points="311.748,-217.018 308.917,-227.227 317.497,-221.011 311.748,-217.018"/>
</g>
<!-- Node25 -->
<g id="node25" class="node"><title>Node25</title>
<g id="a_node25"><a xlink:href="../../d1/d5f/classslogo_1_1_u_i_1_1_path_color_selector.html#ad3d9c82a0904c97edcec7cf67b85bd7b" target="_top" xlink:title="slogo.UI.PathColorSelector.create">
<polygon fill="white" stroke="black" points="425,-233.093 425,-252.093 601,-252.093 601,-233.093 425,-233.093"/>
<text text-anchor="middle" x="513" y="-240.093" font-family="Helvetica,sans-Serif" font-size="10.00">slogo.UI.PathColorSelector.create</text>
</a>
</g>
</g>
<!-- Node14&#45;&gt;Node25 -->
<g id="edge31" class="edge"><title>Node14&#45;&gt;Node25</title>
<path fill="none" stroke="midnightblue" d="M384.215,-242.593C397.587,-242.593 411.425,-242.593 424.84,-242.593"/>
<polygon fill="midnightblue" stroke="midnightblue" points="384.096,-239.093 374.096,-242.593 384.096,-246.093 384.096,-239.093"/>
</g>
<!-- Node27 -->
<g id="node27" class="node"><title>Node27</title>
<g id="a_node27"><a xlink:href="../../d4/d8d/classslogo_1_1_u_i_1_1_background_color_selector.html#ad75ba4ce104e071811d0fe039a4e839f" target="_top" xlink:title="slogo.UI.BackgroundColor\lSelector.create">
<polygon fill="white" stroke="black" points="443,-183.593 443,-213.593 583,-213.593 583,-183.593 443,-183.593"/>
<text text-anchor="start" x="451" y="-201.593" font-family="Helvetica,sans-Serif" font-size="10.00">slogo.UI.BackgroundColor</text>
<text text-anchor="middle" x="513" y="-190.593" font-family="Helvetica,sans-Serif" font-size="10.00">Selector.create</text>
</a>
</g>
</g>
<!-- Node14&#45;&gt;Node27 -->
<g id="edge34" class="edge"><title>Node14&#45;&gt;Node27</title>
<path fill="none" stroke="midnightblue" d="M381.543,-225.542C401.809,-221.355 423.295,-216.917 442.855,-212.876"/>
<polygon fill="midnightblue" stroke="midnightblue" points="380.792,-222.123 371.707,-227.574 382.208,-228.978 380.792,-222.123"/>
</g>
<!-- Node28 -->
<g id="node28" class="node"><title>Node28</title>
<g id="a_node28"><a xlink:href="../../dd/da7/classslogo_1_1_u_i_1_1_turtle_image_selector.html#a3f268d9196ffebcbb5dc322d2897a9fe" target="_top" xlink:title="slogo.UI.TurtleImageSelector.create">
<polygon fill="white" stroke="black" points="420,-271.093 420,-290.093 606,-290.093 606,-271.093 420,-271.093"/>
<text text-anchor="middle" x="513" y="-278.093" font-family="Helvetica,sans-Serif" font-size="10.00">slogo.UI.TurtleImageSelector.create</text>
</a>
</g>
</g>
<!-- Node14&#45;&gt;Node28 -->
<g id="edge36" class="edge"><title>Node14&#45;&gt;Node28</title>
<path fill="none" stroke="midnightblue" d="M384.023,-257.761C409.209,-262.255 436.066,-267.046 458.641,-271.073"/>
<polygon fill="midnightblue" stroke="midnightblue" points="384.555,-254.301 374.096,-255.99 383.326,-261.192 384.555,-254.301"/>
</g>
<!-- Node16 -->
<g id="node16" class="node"><title>Node16</title>
<g id="a_node16"><a xlink:href="../../db/d19/classslogo_1_1_u_i_1_1_module_creation_helper.html#adce7362386f9a7b3006e7db08a2d578d" target="_top" xlink:title="slogo.UI.ModuleCreationHelper.create\lIncreaseDecreaseButtons">
<polygon fill="white" stroke="black" points="886.5,-172.593 886.5,-202.593 1083.5,-202.593 1083.5,-172.593 886.5,-172.593"/>
<text text-anchor="start" x="894.5" y="-190.593" font-family="Helvetica,sans-Serif" font-size="10.00">slogo.UI.ModuleCreationHelper.create</text>
<text text-anchor="middle" x="985" y="-179.593" font-family="Helvetica,sans-Serif" font-size="10.00">IncreaseDecreaseButtons</text>
</a>
</g>
</g>
<!-- Node15&#45;&gt;Node16 -->
<g id="edge17" class="edge"><title>Node15&#45;&gt;Node16</title>
<path fill="none" stroke="midnightblue" d="M625.71,-158.625C704.919,-165.029 810.199,-173.541 886.117,-179.679"/>
<polygon fill="midnightblue" stroke="midnightblue" points="625.943,-155.132 615.694,-157.815 625.379,-162.11 625.943,-155.132"/>
</g>
<!-- Node16&#45;&gt;Node6 -->
<g id="edge18" class="edge"><title>Node16&#45;&gt;Node6</title>
<path fill="none" stroke="midnightblue" d="M1060.44,-204.941C1091.63,-212.211 1127.55,-220.582 1157.59,-227.582"/>
<polygon fill="midnightblue" stroke="midnightblue" points="1061.02,-201.483 1050.49,-202.622 1059.43,-208.3 1061.02,-201.483"/>
</g>
<!-- Node17&#45;&gt;Node7 -->
<g id="edge20" class="edge"><title>Node17&#45;&gt;Node7</title>
<path fill="none" stroke="midnightblue" d="M1268.86,-97.6009C1314.08,-116.761 1382.96,-145.948 1424.51,-163.555"/>
<polygon fill="midnightblue" stroke="midnightblue" points="1270.16,-94.3512 1259.59,-93.6723 1267.43,-100.796 1270.16,-94.3512"/>
</g>
<!-- Node19 -->
<g id="node19" class="node"><title>Node19</title>
<g id="a_node19"><a xlink:href="../../db/d19/classslogo_1_1_u_i_1_1_module_creation_helper.html#a07f5483df317cdf80e8ea2dda5699afa" target="_top" xlink:title="slogo.UI.ModuleCreationHelper.create\lNewTurtleButton">
<polygon fill="white" stroke="black" points="886.5,-349.593 886.5,-379.593 1083.5,-379.593 1083.5,-349.593 886.5,-349.593"/>
<text text-anchor="start" x="894.5" y="-367.593" font-family="Helvetica,sans-Serif" font-size="10.00">slogo.UI.ModuleCreationHelper.create</text>
<text text-anchor="middle" x="985" y="-356.593" font-family="Helvetica,sans-Serif" font-size="10.00">NewTurtleButton</text>
</a>
</g>
</g>
<!-- Node18&#45;&gt;Node19 -->
<g id="edge22" class="edge"><title>Node18&#45;&gt;Node19</title>
<path fill="none" stroke="midnightblue" d="M625.71,-371.454C704.919,-369.937 810.199,-367.921 886.117,-366.467"/>
<polygon fill="midnightblue" stroke="midnightblue" points="625.625,-367.955 615.694,-371.646 625.759,-374.953 625.625,-367.955"/>
</g>
<!-- Node19&#45;&gt;Node6 -->
<g id="edge23" class="edge"><title>Node19&#45;&gt;Node6</title>
<path fill="none" stroke="midnightblue" d="M1031.3,-345.299C1048.02,-337.904 1067.03,-329.177 1084,-320.593 1124.28,-300.224 1169.58,-273.941 1196.95,-257.682"/>
<polygon fill="midnightblue" stroke="midnightblue" points="1029.51,-342.265 1021.75,-349.488 1032.32,-348.676 1029.51,-342.265"/>
</g>
<!-- Node21 -->
<g id="node21" class="node"><title>Node21</title>
<g id="a_node21"><a xlink:href="../../db/d19/classslogo_1_1_u_i_1_1_module_creation_helper.html#a9b3fb38a55b3b7812b4f793afa7a974f" target="_top" xlink:title="slogo.UI.ModuleCreationHelper.create\lPlayButton">
<polygon fill="white" stroke="black" points="652.5,-309.593 652.5,-339.593 849.5,-339.593 849.5,-309.593 652.5,-309.593"/>
<text text-anchor="start" x="660.5" y="-327.593" font-family="Helvetica,sans-Serif" font-size="10.00">slogo.UI.ModuleCreationHelper.create</text>
<text text-anchor="middle" x="751" y="-316.593" font-family="Helvetica,sans-Serif" font-size="10.00">PlayButton</text>
</a>
</g>
</g>
<!-- Node20&#45;&gt;Node21 -->
<g id="edge25" class="edge"><title>Node20&#45;&gt;Node21</title>
<path fill="none" stroke="midnightblue" d="M626.051,-324.593C634.813,-324.593 643.618,-324.593 652.274,-324.593"/>
<polygon fill="midnightblue" stroke="midnightblue" points="625.798,-321.093 615.798,-324.593 625.798,-328.093 625.798,-321.093"/>
</g>
<!-- Node22 -->
<g id="node22" class="node"><title>Node22</title>
<g id="a_node22"><a xlink:href="../../db/d19/classslogo_1_1_u_i_1_1_module_creation_helper.html#ae1e60d37509c2e5eddcb2a6e70b4f650" target="_top" xlink:title="slogo.UI.ModuleCreationHelper.create\lFirstRowButtons">
<polygon fill="white" stroke="black" points="886.5,-281.593 886.5,-311.593 1083.5,-311.593 1083.5,-281.593 886.5,-281.593"/>
<text text-anchor="start" x="894.5" y="-299.593" font-family="Helvetica,sans-Serif" font-size="10.00">slogo.UI.ModuleCreationHelper.create</text>
<text text-anchor="middle" x="985" y="-288.593" font-family="Helvetica,sans-Serif" font-size="10.00">FirstRowButtons</text>
</a>
</g>
</g>
<!-- Node21&#45;&gt;Node22 -->
<g id="edge26" class="edge"><title>Node21&#45;&gt;Node22</title>
<path fill="none" stroke="midnightblue" d="M859.722,-311.592C868.618,-310.518 877.58,-309.437 886.396,-308.373"/>
<polygon fill="midnightblue" stroke="midnightblue" points="859.225,-308.127 849.716,-312.8 860.064,-315.076 859.225,-308.127"/>
</g>
<!-- Node22&#45;&gt;Node6 -->
<g id="edge27" class="edge"><title>Node22&#45;&gt;Node6</title>
<path fill="none" stroke="midnightblue" d="M1061.86,-279.234C1092.24,-272.283 1126.91,-264.351 1156.2,-257.648"/>
<polygon fill="midnightblue" stroke="midnightblue" points="1060.71,-275.909 1051.74,-281.551 1062.27,-282.732 1060.71,-275.909"/>
</g>
<!-- Node24 -->
<g id="node24" class="node"><title>Node24</title>
<g id="a_node24"><a xlink:href="../../db/d19/classslogo_1_1_u_i_1_1_module_creation_helper.html#a803bac6b55bde712b21f2face1eeef81" target="_top" xlink:title="slogo.UI.ModuleCreationHelper.create\lTurtleCanvas">
<polygon fill="white" stroke="black" points="1124.5,-156.593 1124.5,-186.593 1321.5,-186.593 1321.5,-156.593 1124.5,-156.593"/>
<text text-anchor="start" x="1132.5" y="-174.593" font-family="Helvetica,sans-Serif" font-size="10.00">slogo.UI.ModuleCreationHelper.create</text>
<text text-anchor="middle" x="1223" y="-163.593" font-family="Helvetica,sans-Serif" font-size="10.00">TurtleCanvas</text>
</a>
</g>
</g>
<!-- Node23&#45;&gt;Node24 -->
<g id="edge29" class="edge"><title>Node23&#45;&gt;Node24</title>
<path fill="none" stroke="midnightblue" d="M625.946,-111.819C763.259,-125.589 993.811,-148.71 1124.28,-161.793"/>
<polygon fill="midnightblue" stroke="midnightblue" points="626.115,-108.319 615.816,-110.803 625.417,-115.284 626.115,-108.319"/>
</g>
<!-- Node24&#45;&gt;Node7 -->
<g id="edge30" class="edge"><title>Node24&#45;&gt;Node7</title>
<path fill="none" stroke="midnightblue" d="M1331.83,-174.791C1342.01,-175.093 1352.3,-175.398 1362.38,-175.697"/>
<polygon fill="midnightblue" stroke="midnightblue" points="1331.79,-171.289 1321.69,-174.491 1331.59,-178.286 1331.79,-171.289"/>
</g>
<!-- Node26 -->
<g id="node26" class="node"><title>Node26</title>
<g id="a_node26"><a xlink:href="../../db/d19/classslogo_1_1_u_i_1_1_module_creation_helper.html#af7f2919454fdbf6e9d7d912e99634857" target="_top" xlink:title="slogo.UI.ModuleCreationHelper.create\lSelectors">
<polygon fill="white" stroke="black" points="652.5,-227.593 652.5,-257.593 849.5,-257.593 849.5,-227.593 652.5,-227.593"/>
<text text-anchor="start" x="660.5" y="-245.593" font-family="Helvetica,sans-Serif" font-size="10.00">slogo.UI.ModuleCreationHelper.create</text>
<text text-anchor="middle" x="751" y="-234.593" font-family="Helvetica,sans-Serif" font-size="10.00">Selectors</text>
</a>
</g>
</g>
<!-- Node25&#45;&gt;Node26 -->
<g id="edge32" class="edge"><title>Node25&#45;&gt;Node26</title>
<path fill="none" stroke="midnightblue" d="M611.466,-242.593C624.992,-242.593 638.889,-242.593 652.417,-242.593"/>
<polygon fill="midnightblue" stroke="midnightblue" points="611.207,-239.093 601.207,-242.593 611.207,-246.093 611.207,-239.093"/>
</g>
<!-- Node26&#45;&gt;Node6 -->
<g id="edge33" class="edge"><title>Node26&#45;&gt;Node6</title>
<path fill="none" stroke="midnightblue" d="M859.744,-242.593C939.494,-242.593 1047.24,-242.593 1124.46,-242.593"/>
<polygon fill="midnightblue" stroke="midnightblue" points="859.67,-239.093 849.67,-242.593 859.67,-246.093 859.67,-239.093"/>
</g>
<!-- Node27&#45;&gt;Node26 -->
<g id="edge35" class="edge"><title>Node27&#45;&gt;Node26</title>
<path fill="none" stroke="midnightblue" d="M593.164,-213.352C617.616,-217.911 644.572,-222.937 669.137,-227.517"/>
<polygon fill="midnightblue" stroke="midnightblue" points="593.685,-209.889 583.213,-211.497 592.402,-216.771 593.685,-209.889"/>
</g>
<!-- Node28&#45;&gt;Node26 -->
<g id="edge37" class="edge"><title>Node28&#45;&gt;Node26</title>
<path fill="none" stroke="midnightblue" d="M583.242,-269.444C606.231,-265.742 632.215,-261.558 656.711,-257.614"/>
<polygon fill="midnightblue" stroke="midnightblue" points="582.565,-266.008 573.248,-271.053 583.677,-272.919 582.565,-266.008"/>
</g>
</g>
</svg>
        <g id="navigator" transform="translate(0 0)" fill="#404254">
                <rect fill="#f2f5e9" fill-opacity="0.5" stroke="#606060" stroke-width=".5" x="0" y="0" width="60" height="60"/>
                <use id="zoomplus" xlink:href="#zoomPlus" x="17" y="9" onmousedown="handleZoom(evt,'in')"/>
                <use id="zoomminus" xlink:href="#zoomMin" x="42" y="9" onmousedown="handleZoom(evt,'out')"/>
                <use id="reset" xlink:href="#resetDef" x="30" y="36" onmousedown="handleReset()"/>
                <g id="arrowUp" xlink:href="#dirArrow" transform="translate(30 24)" onmousedown="handlePan(0,-1)">
                  <use xlink:href="#rim" fill="#404040">
                        <set attributeName="fill" to="#808080" begin="arrowUp.mouseover" end="arrowUp.mouseout"/>
                  </use>
                  <path fill="none" stroke="white" stroke-width="1.5" d="M0,-3.0v7 M-2.5,-0.5L0,-3.0L2.5,-0.5"/>
                </g>
                <g id="arrowRight" xlink:href="#dirArrow" transform="rotate(90) translate(36 -43)" onmousedown="handlePan(1,0)">
                  <use xlink:href="#rim" fill="#404040">
                        <set attributeName="fill" to="#808080" begin="arrowRight.mouseover" end="arrowRight.mouseout"/>
                  </use>
                  <path fill="none" stroke="white" stroke-width="1.5" d="M0,-3.0v7 M-2.5,-0.5L0,-3.0L2.5,-0.5"/>
                </g>
                <g id="arrowDown" xlink:href="#dirArrow" transform="rotate(180) translate(-30 -48)" onmousedown="handlePan(0,1)">
                  <use xlink:href="#rim" fill="#404040">
                        <set attributeName="fill" to="#808080" begin="arrowDown.mouseover" end="arrowDown.mouseout"/>
                  </use>
                  <path fill="none" stroke="white" stroke-width="1.5" d="M0,-3.0v7 M-2.5,-0.5L0,-3.0L2.5,-0.5"/>
                </g>
                <g id="arrowLeft" xlink:href="#dirArrow" transform="rotate(270) translate(-36 17)" onmousedown="handlePan(-1,0)">
                  <use xlink:href="#rim" fill="#404040">
                        <set attributeName="fill" to="#808080" begin="arrowLeft.mouseover" end="arrowLeft.mouseout"/>
                  </use>
                  <path fill="none" stroke="white" stroke-width="1.5" d="M0,-3.0v7 M-2.5,-0.5L0,-3.0L2.5,-0.5"/>
                </g>
        </g>
        <svg viewBox="0 0 15 15" width="100%" height="30px" preserveAspectRatio="xMaxYMin meet">
         <g id="arrow_out" transform="scale(0.3 0.3)">
          <a xlink:href="classslogo_1_1_u_i_1_1_module_creation_helper_a697317cefd8b036b0aa427c1c246cf9b_icgraph_org.svg" target="_base">
           <rect id="button" ry="5" rx="5" y="6" x="6" height="38" width="38"
                fill="#f2f5e9" fill-opacity="0.5" stroke="#606060" stroke-width="1.0"/>
           <path id="arrow"
             d="M 11.500037,31.436501 C 11.940474,20.09759 22.043105,11.32322 32.158766,21.979434 L 37.068811,17.246167 C 37.068811,17.246167 37.088388,32 37.088388,32 L 22.160133,31.978069 C 22.160133,31.978069 26.997745,27.140456 26.997745,27.140456 C 18.528582,18.264221 13.291696,25.230495 11.500037,31.436501 z"
             style="fill:#404040;"/>
          </a>
         </g>
        </svg>
</svg>
