<?xml version="1.0" encoding="UTF-8" standalone="no"?>
<!DOCTYPE svg PUBLIC "-//W3C//DTD SVG 1.1//EN"
 "http://www.w3.org/Graphics/SVG/1.1/DTD/svg11.dtd">
<!-- Generated by graphviz version 2.36.0 (20140111.2315)
 -->
<!-- Title: slogo.UI.ModuleCreationHelper.createMainPageModules Pages: 1 -->
<svg width="1058pt" height="62pt"
 viewBox="0.00 0.00 1058.00 62.00" xmlns="http://www.w3.org/2000/svg" xmlns:xlink="http://www.w3.org/1999/xlink">
<g id="graph0" class="graph" transform="scale(1 1) rotate(0) translate(4 58)">
<title>slogo.UI.ModuleCreationHelper.createMainPageModules</title>
<polygon fill="white" stroke="none" points="-4,4 -4,-58 1054,-58 1054,4 -4,4"/>
<!-- Node1 -->
<g id="node1" class="node"><title>Node1</title>
<polygon fill="#bfbfbf" stroke="black" points="0.5,-0 0.5,-30 197.5,-30 197.5,-0 0.5,-0"/>
<text text-anchor="start" x="8.5" y="-18" font-family="Helvetica,sans-Serif" font-size="10.00">slogo.UI.ModuleCreationHelper.create</text>
<text text-anchor="middle" x="99" y="-7" font-family="Helvetica,sans-Serif" font-size="10.00">MainPageModules</text>
</g>
<!-- Node2 -->
<g id="node2" class="node"><title>Node2</title>
<g id="a_node2"><a xlink:href="../../d9/d33/classslogo_1_1_u_i_1_1_main.html#a15b7f2e399ee24d160550993ab737e73" target="_top" xlink:title="slogo.UI.Main.start">
<polygon fill="white" stroke="black" points="234,-26.5 234,-45.5 340,-45.5 340,-26.5 234,-26.5"/>
<text text-anchor="middle" x="287" y="-33.5" font-family="Helvetica,sans-Serif" font-size="10.00">slogo.UI.Main.start</text>
</a>
</g>
</g>
<!-- Node1&#45;&gt;Node2 -->
<g id="edge1" class="edge"><title>Node1&#45;&gt;Node2</title>
<path fill="none" stroke="midnightblue" d="M207.804,-27.1714C216.76,-28.1825 225.528,-29.1725 233.764,-30.1024"/>
<polygon fill="midnightblue" stroke="midnightblue" points="207.96,-23.6668 197.63,-26.0228 207.174,-30.6227 207.96,-23.6668"/>
</g>
<!-- Node3 -->
<g id="node3" class="node"><title>Node3</title>
<g id="a_node3"><a xlink:href="../../db/d19/classslogo_1_1_u_i_1_1_module_creation_helper.html#a3be12a7cc2b8a219db1e296211a2cb88" target="_top" xlink:title="slogo.UI.ModuleCreationHelper.activate\lExtraWorkspaceButton">
<polygon fill="white" stroke="black" points="376.5,-24 376.5,-54 581.5,-54 581.5,-24 376.5,-24"/>
<text text-anchor="start" x="384.5" y="-42" font-family="Helvetica,sans-Serif" font-size="10.00">slogo.UI.ModuleCreationHelper.activate</text>
<text text-anchor="middle" x="479" y="-31" font-family="Helvetica,sans-Serif" font-size="10.00">ExtraWorkspaceButton</text>
</a>
</g>
</g>
<!-- Node2&#45;&gt;Node3 -->
<g id="edge2" class="edge"><title>Node2&#45;&gt;Node3</title>
<path fill="none" stroke="midnightblue" d="M350.218,-36.9824C358.632,-37.1152 367.438,-37.2543 376.321,-37.3945"/>
<polygon fill="midnightblue" stroke="midnightblue" points="350.224,-33.4821 340.17,-36.8237 350.113,-40.4813 350.224,-33.4821"/>
</g>
<!-- Node4 -->
<g id="node4" class="node"><title>Node4</title>
<g id="a_node4"><a xlink:href="../../db/d19/classslogo_1_1_u_i_1_1_module_creation_helper.html#a702c1ebe24d2857a10c666eb1fcc315d" target="_top" xlink:title="slogo.UI.ModuleCreationHelper.create\lExtraWorkspaceButton">
<polygon fill="white" stroke="black" points="618.5,-24 618.5,-54 815.5,-54 815.5,-24 618.5,-24"/>
<text text-anchor="start" x="626.5" y="-42" font-family="Helvetica,sans-Serif" font-size="10.00">slogo.UI.ModuleCreationHelper.create</text>
<text text-anchor="middle" x="717" y="-31" font-family="Helvetica,sans-Serif" font-size="10.00">ExtraWorkspaceButton</text>
</a>
</g>
</g>
<!-- Node3&#45;&gt;Node4 -->
<g id="edge3" class="edge"><title>Node3&#45;&gt;Node4</title>
<path fill="none" stroke="midnightblue" d="M592.051,-39C600.813,-39 609.618,-39 618.274,-39"/>
<polygon fill="midnightblue" stroke="midnightblue" points="591.798,-35.5001 581.798,-39 591.798,-42.5001 591.798,-35.5001"/>
</g>
<!-- Node5 -->
<g id="node5" class="node"><title>Node5</title>
<g id="a_node5"><a xlink:href="../../db/d19/classslogo_1_1_u_i_1_1_module_creation_helper.html#a7c650957b2389d6e6d36e8be8a33cd2b" target="_top" xlink:title="slogo.UI.ModuleCreationHelper.create\lSelectorVBoxModules">
<polygon fill="white" stroke="black" points="852.5,-2 852.5,-32 1049.5,-32 1049.5,-2 852.5,-2"/>
<text text-anchor="start" x="860.5" y="-20" font-family="Helvetica,sans-Serif" font-size="10.00">slogo.UI.ModuleCreationHelper.create</text>
<text text-anchor="middle" x="951" y="-9" font-family="Helvetica,sans-Serif" font-size="10.00">SelectorVBoxModules</text>
</a>
</g>
</g>
<!-- Node4&#45;&gt;Node5 -->
<g id="edge4" class="edge"><title>Node4&#45;&gt;Node5</title>
<path fill="none" stroke="midnightblue" d="M825.722,-28.785C834.618,-27.9414 843.58,-27.0915 852.396,-26.2555"/>
<polygon fill="midnightblue" stroke="midnightblue" points="825.341,-25.3053 815.716,-29.7338 826.002,-32.274 825.341,-25.3053"/>
</g>
<!-- Node5&#45;&gt;Node1 -->
<g id="edge5" class="edge"><title>Node5&#45;&gt;Node1</title>
<path fill="none" stroke="midnightblue" d="M842.266,-14.3776C833.38,-14.2253 824.537,-14.0956 816,-14 594.905,-11.5254 335.383,-12.9724 197.575,-14.086"/>
<polygon fill="midnightblue" stroke="midnightblue" points="842.24,-17.8776 852.301,-14.5584 842.366,-10.8787 842.24,-17.8776"/>
</g>
</g>
</svg>
