<?xml version="1.0" encoding="UTF-8" standalone="no"?>
<!DOCTYPE svg PUBLIC "-//W3C//DTD SVG 1.1//EN"
 "http://www.w3.org/Graphics/SVG/1.1/DTD/svg11.dtd">
<!-- Generated by graphviz version 2.36.0 (20140111.2315)
 -->
<!-- Title: slogo.UI.ModuleCreationHelper.createExtraWorkspaceButton Pages: 1 -->
<svg width="1058pt" height="62pt"
 viewBox="0.00 0.00 1058.00 62.00" xmlns="http://www.w3.org/2000/svg" xmlns:xlink="http://www.w3.org/1999/xlink">
<g id="graph0" class="graph" transform="scale(1 1) rotate(0) translate(4 58)">
<title>slogo.UI.ModuleCreationHelper.createExtraWorkspaceButton</title>
<polygon fill="white" stroke="none" points="-4,4 -4,-58 1054,-58 1054,4 -4,4"/>
<!-- Node1 -->
<g id="node1" class="node"><title>Node1</title>
<polygon fill="#bfbfbf" stroke="black" points="0.5,-2 0.5,-32 197.5,-32 197.5,-2 0.5,-2"/>
<text text-anchor="start" x="8.5" y="-20" font-family="Helvetica,sans-Serif" font-size="10.00">slogo.UI.ModuleCreationHelper.create</text>
<text text-anchor="middle" x="99" y="-9" font-family="Helvetica,sans-Serif" font-size="10.00">ExtraWorkspaceButton</text>
</g>
<!-- Node2 -->
<g id="node2" class="node"><title>Node2</title>
<g id="a_node2"><a xlink:href="../../db/d19/classslogo_1_1_u_i_1_1_module_creation_helper.html#a7c650957b2389d6e6d36e8be8a33cd2b" target="_top" xlink:title="slogo.UI.ModuleCreationHelper.create\lSelectorVBoxModules">
<polygon fill="white" stroke="black" points="234.5,-24 234.5,-54 431.5,-54 431.5,-24 234.5,-24"/>
<text text-anchor="start" x="242.5" y="-42" font-family="Helvetica,sans-Serif" font-size="10.00">slogo.UI.ModuleCreationHelper.create</text>
<text text-anchor="middle" x="333" y="-31" font-family="Helvetica,sans-Serif" font-size="10.00">SelectorVBoxModules</text>
</a>
</g>
</g>
<!-- Node1&#45;&gt;Node2 -->
<g id="edge1" class="edge"><title>Node1&#45;&gt;Node2</title>
<path fill="none" stroke="midnightblue" d="M207.722,-27.215C216.618,-28.0586 225.58,-28.9085 234.396,-29.7445"/>
<polygon fill="midnightblue" stroke="midnightblue" points="208.002,-23.726 197.716,-26.2662 207.341,-30.6947 208.002,-23.726"/>
</g>
<!-- Node3 -->
<g id="node3" class="node"><title>Node3</title>
<g id="a_node3"><a xlink:href="../../db/d19/classslogo_1_1_u_i_1_1_module_creation_helper.html#afb9dbbbad7d872234a5b296fe129a34e" target="_top" xlink:title="slogo.UI.ModuleCreationHelper.create\lMainPageModules">
<polygon fill="white" stroke="black" points="468.5,-24 468.5,-54 665.5,-54 665.5,-24 468.5,-24"/>
<text text-anchor="start" x="476.5" y="-42" font-family="Helvetica,sans-Serif" font-size="10.00">slogo.UI.ModuleCreationHelper.create</text>
<text text-anchor="middle" x="567" y="-31" font-family="Helvetica,sans-Serif" font-size="10.00">MainPageModules</text>
</a>
</g>
</g>
<!-- Node2&#45;&gt;Node3 -->
<g id="edge2" class="edge"><title>Node2&#45;&gt;Node3</title>
<path fill="none" stroke="midnightblue" d="M441.722,-39C450.618,-39 459.58,-39 468.396,-39"/>
<polygon fill="midnightblue" stroke="midnightblue" points="441.717,-35.5001 431.716,-39 441.716,-42.5001 441.717,-35.5001"/>
</g>
<!-- Node4 -->
<g id="node4" class="node"><title>Node4</title>
<g id="a_node4"><a xlink:href="../../d9/d33/classslogo_1_1_u_i_1_1_main.html#a15b7f2e399ee24d160550993ab737e73" target="_top" xlink:title="slogo.UI.Main.start">
<polygon fill="white" stroke="black" points="702,-26.5 702,-45.5 808,-45.5 808,-26.5 702,-26.5"/>
<text text-anchor="middle" x="755" y="-33.5" font-family="Helvetica,sans-Serif" font-size="10.00">slogo.UI.Main.start</text>
</a>
</g>
</g>
<!-- Node3&#45;&gt;Node4 -->
<g id="edge3" class="edge"><title>Node3&#45;&gt;Node4</title>
<path fill="none" stroke="midnightblue" d="M675.804,-37.2612C684.76,-37.1168 693.528,-36.9754 701.764,-36.8425"/>
<polygon fill="midnightblue" stroke="midnightblue" points="675.572,-33.7644 665.63,-37.4253 675.685,-40.7635 675.572,-33.7644"/>
</g>
<!-- Node5 -->
<g id="node5" class="node"><title>Node5</title>
<g id="a_node5"><a xlink:href="../../db/d19/classslogo_1_1_u_i_1_1_module_creation_helper.html#a3be12a7cc2b8a219db1e296211a2cb88" target="_top" xlink:title="slogo.UI.ModuleCreationHelper.activate\lExtraWorkspaceButton">
<polygon fill="white" stroke="black" points="844.5,-0 844.5,-30 1049.5,-30 1049.5,-0 844.5,-0"/>
<text text-anchor="start" x="852.5" y="-18" font-family="Helvetica,sans-Serif" font-size="10.00">slogo.UI.ModuleCreationHelper.activate</text>
<text text-anchor="middle" x="947" y="-7" font-family="Helvetica,sans-Serif" font-size="10.00">ExtraWorkspaceButton</text>
</a>
</g>
</g>
<!-- Node4&#45;&gt;Node5 -->
<g id="edge4" class="edge"><title>Node4&#45;&gt;Node5</title>
<path fill="none" stroke="midnightblue" d="M818.218,-29.1232C826.632,-28.1933 835.438,-27.22 844.321,-26.2382"/>
<polygon fill="midnightblue" stroke="midnightblue" points="817.725,-25.6564 808.17,-30.2339 818.494,-32.614 817.725,-25.6564"/>
</g>
<!-- Node5&#45;&gt;Node1 -->
<g id="edge5" class="edge"><title>Node5&#45;&gt;Node1</title>
<path fill="none" stroke="midnightblue" d="M833.976,-13.9711C693.716,-12.8837 446.08,-11.6263 234,-14 222.25,-14.1315 209.921,-14.3279 197.699,-14.5584"/>
<polygon fill="midnightblue" stroke="midnightblue" points="834.275,-17.4735 844.302,-14.0524 834.33,-10.4737 834.275,-17.4735"/>
</g>
</g>
</svg>
