<?xml version="1.0" encoding="UTF-8" standalone="no"?>
<!DOCTYPE svg PUBLIC "-//W3C//DTD SVG 1.1//EN"
 "http://www.w3.org/Graphics/SVG/1.1/DTD/svg11.dtd">
<!-- Generated by graphviz version 2.36.0 (20140111.2315)
 -->
<!-- Title: slogo.UI.ModuleCreationHelper.createSaveButton Pages: 1 -->
<svg width="886pt" height="234pt"
 viewBox="0.00 0.00 886.00 234.00" xmlns="http://www.w3.org/2000/svg" xmlns:xlink="http://www.w3.org/1999/xlink">
<g id="graph0" class="graph" transform="scale(1 1) rotate(0) translate(4 230)">
<title>slogo.UI.ModuleCreationHelper.createSaveButton</title>
<polygon fill="white" stroke="none" points="-4,4 -4,-230 882,-230 882,4 -4,4"/>
<!-- Node1 -->
<g id="node1" class="node"><title>Node1</title>
<polygon fill="#bfbfbf" stroke="black" points="0.5,-73 0.5,-103 197.5,-103 197.5,-73 0.5,-73"/>
<text text-anchor="start" x="8.5" y="-91" font-family="Helvetica,sans-Serif" font-size="10.00">slogo.UI.ModuleCreationHelper.create</text>
<text text-anchor="middle" x="99" y="-80" font-family="Helvetica,sans-Serif" font-size="10.00">SaveButton</text>
</g>
<!-- Node2 -->
<g id="node2" class="node"><title>Node2</title>
<g id="a_node2"><a xlink:href="../../db/d19/classslogo_1_1_u_i_1_1_module_creation_helper.html#a397d79a7f7d1aaf8f0db169e99728205" target="_top" xlink:title="slogo.UI.ModuleCreationHelper.activate\lSaveButton">
<polygon fill="white" stroke="black" points="234.5,-98 234.5,-128 439.5,-128 439.5,-98 234.5,-98"/>
<text text-anchor="start" x="242.5" y="-116" font-family="Helvetica,sans-Serif" font-size="10.00">slogo.UI.ModuleCreationHelper.activate</text>
<text text-anchor="middle" x="337" y="-105" font-family="Helvetica,sans-Serif" font-size="10.00">SaveButton</text>
</a>
</g>
</g>
<!-- Node1&#45;&gt;Node2 -->
<g id="edge1" class="edge"><title>Node1&#45;&gt;Node2</title>
<path fill="none" stroke="midnightblue" d="M197.694,-98.3489C206.446,-99.2761 215.353,-100.22 224.212,-101.158"/>
<polygon fill="midnightblue" stroke="midnightblue" points="223.871,-104.641 234.184,-102.214 224.609,-97.6804 223.871,-104.641"/>
</g>
<!-- Node10 -->
<g id="node10" class="node"><title>Node10</title>
<g id="a_node10"><a xlink:href="../../d6/d9d/classslogo_1_1_u_i_1_1_button_creator.html#a26b4ab485f0d82531b0bb7d279cc83eb" target="_top" xlink:title="slogo.UI.ButtonCreator.create\lButton">
<polygon fill="white" stroke="black" points="257.5,-49 257.5,-79 416.5,-79 416.5,-49 257.5,-49"/>
<text text-anchor="start" x="265.5" y="-67" font-family="Helvetica,sans-Serif" font-size="10.00">slogo.UI.ButtonCreator.create</text>
<text text-anchor="middle" x="337" y="-56" font-family="Helvetica,sans-Serif" font-size="10.00">Button</text>
</a>
</g>
</g>
<!-- Node1&#45;&gt;Node10 -->
<g id="edge9" class="edge"><title>Node1&#45;&gt;Node10</title>
<path fill="none" stroke="midnightblue" d="M197.694,-78.065C214.181,-76.3884 231.213,-74.6563 247.45,-73.0051"/>
<polygon fill="midnightblue" stroke="midnightblue" points="247.851,-76.4825 257.446,-71.9886 247.143,-69.5184 247.851,-76.4825"/>
</g>
<!-- Node3 -->
<g id="node3" class="node"><title>Node3</title>
<g id="a_node3"><a xlink:href="../../db/d10/classslogo_1_1frontend_1_1_config_1_1_config_hash_map_creator.html#ad94914a4d07dd7dc69aec64f685fb624" target="_top" xlink:title="slogo.frontend.Config.Config\lHashMapCreator.getConfigHashMap">
<polygon fill="white" stroke="black" points="476.5,-196 476.5,-226 667.5,-226 667.5,-196 476.5,-196"/>
<text text-anchor="start" x="484.5" y="-214" font-family="Helvetica,sans-Serif" font-size="10.00">slogo.frontend.Config.Config</text>
<text text-anchor="middle" x="572" y="-203" font-family="Helvetica,sans-Serif" font-size="10.00">HashMapCreator.getConfigHashMap</text>
</a>
</g>
</g>
<!-- Node2&#45;&gt;Node3 -->
<g id="edge2" class="edge"><title>Node2&#45;&gt;Node3</title>
<path fill="none" stroke="midnightblue" d="M362.613,-128.248C389.601,-144.43 434.589,-169.845 476,-186 482.352,-188.478 489.036,-190.791 495.795,-192.932"/>
<polygon fill="midnightblue" stroke="midnightblue" points="495.134,-196.389 505.72,-195.942 497.166,-189.69 495.134,-196.389"/>
</g>
<!-- Node4 -->
<g id="node4" class="node"><title>Node4</title>
<g id="a_node4"><a xlink:href="../../db/dc0/classslogo_1_1_u_i_1_1_list_view_all_s_l_o_g_o.html#a8d9ecbe1e3a5260f8e7e508c8a9cb66a" target="_top" xlink:title="slogo.UI.ListViewAllSLOGO.get\lItems">
<polygon fill="white" stroke="black" points="492,-147 492,-177 652,-177 652,-147 492,-147"/>
<text text-anchor="start" x="500" y="-165" font-family="Helvetica,sans-Serif" font-size="10.00">slogo.UI.ListViewAllSLOGO.get</text>
<text text-anchor="middle" x="572" y="-154" font-family="Helvetica,sans-Serif" font-size="10.00">Items</text>
</a>
</g>
</g>
<!-- Node2&#45;&gt;Node4 -->
<g id="edge3" class="edge"><title>Node2&#45;&gt;Node4</title>
<path fill="none" stroke="midnightblue" d="M409.491,-128.035C434.875,-133.373 463.629,-139.42 489.767,-144.917"/>
<polygon fill="midnightblue" stroke="midnightblue" points="489.138,-148.361 499.644,-146.994 490.578,-141.511 489.138,-148.361"/>
</g>
<!-- Node6 -->
<g id="node6" class="node"><title>Node6</title>
<g id="a_node6"><a xlink:href="../../db/d10/classslogo_1_1frontend_1_1_config_1_1_config_hash_map_creator.html#a22753815aaa14900f14ef222ec563268" target="_top" xlink:title="slogo.frontend.Config.Config\lHashMapCreator.setNumOfTurtles">
<polygon fill="white" stroke="black" points="482.5,-98 482.5,-128 661.5,-128 661.5,-98 482.5,-98"/>
<text text-anchor="start" x="490.5" y="-116" font-family="Helvetica,sans-Serif" font-size="10.00">slogo.frontend.Config.Config</text>
<text text-anchor="middle" x="572" y="-105" font-family="Helvetica,sans-Serif" font-size="10.00">HashMapCreator.setNumOfTurtles</text>
</a>
</g>
</g>
<!-- Node2&#45;&gt;Node6 -->
<g id="edge5" class="edge"><title>Node2&#45;&gt;Node6</title>
<path fill="none" stroke="midnightblue" d="M439.519,-113C450.3,-113 461.254,-113 472.005,-113"/>
<polygon fill="midnightblue" stroke="midnightblue" points="472.238,-116.5 482.238,-113 472.238,-109.5 472.238,-116.5"/>
</g>
<!-- Node8 -->
<g id="node8" class="node"><title>Node8</title>
<g id="a_node8"><a xlink:href="../../db/d10/classslogo_1_1frontend_1_1_config_1_1_config_hash_map_creator.html#a07aea807904d0069637fa4abd371da55" target="_top" xlink:title="slogo.frontend.Config.Config\lHashMapCreator.setVariableMap">
<polygon fill="white" stroke="black" points="485.5,-49 485.5,-79 658.5,-79 658.5,-49 485.5,-49"/>
<text text-anchor="start" x="493.5" y="-67" font-family="Helvetica,sans-Serif" font-size="10.00">slogo.frontend.Config.Config</text>
<text text-anchor="middle" x="572" y="-56" font-family="Helvetica,sans-Serif" font-size="10.00">HashMapCreator.setVariableMap</text>
</a>
</g>
</g>
<!-- Node2&#45;&gt;Node8 -->
<g id="edge7" class="edge"><title>Node2&#45;&gt;Node8</title>
<path fill="none" stroke="midnightblue" d="M409.491,-97.9654C434.875,-92.627 463.629,-86.5802 489.767,-81.0834"/>
<polygon fill="midnightblue" stroke="midnightblue" points="490.578,-84.4893 499.644,-79.0062 489.138,-77.6392 490.578,-84.4893"/>
</g>
<!-- Node9 -->
<g id="node9" class="node"><title>Node9</title>
<g id="a_node9"><a xlink:href="../../d4/df2/classslogo_1_1frontend_1_1_config_1_1_config_writer.html#ac5ae212e6162267c0247fbb1c05eeec3" target="_top" xlink:title="slogo.frontend.Config.Config\lWriter.writeToTextFile">
<polygon fill="white" stroke="black" points="496,-0 496,-30 648,-30 648,-0 496,-0"/>
<text text-anchor="start" x="504" y="-18" font-family="Helvetica,sans-Serif" font-size="10.00">slogo.frontend.Config.Config</text>
<text text-anchor="middle" x="572" y="-7" font-family="Helvetica,sans-Serif" font-size="10.00">Writer.writeToTextFile</text>
</a>
</g>
</g>
<!-- Node2&#45;&gt;Node9 -->
<g id="edge8" class="edge"><title>Node2&#45;&gt;Node9</title>
<path fill="none" stroke="midnightblue" d="M421.09,-97.9052C427.741,-95.1402 434.143,-91.8693 440,-88 462.25,-73.3008 453.876,-54.8874 476,-40 479.327,-37.761 482.845,-35.7224 486.49,-33.8663"/>
<polygon fill="midnightblue" stroke="midnightblue" points="488.139,-36.961 495.776,-29.6182 485.227,-30.5954 488.139,-36.961"/>
</g>
<!-- Node5 -->
<g id="node5" class="node"><title>Node5</title>
<g id="a_node5"><a xlink:href="../../da/d8f/classslogo_1_1_u_i_1_1_list_view_creator.html#a081368f4f2cd74f99d9d251625ae4871" target="_top" xlink:title="slogo.UI.ListViewCreator.get\lListView">
<polygon fill="white" stroke="black" points="716,-147 716,-177 866,-177 866,-147 716,-147"/>
<text text-anchor="start" x="724" y="-165" font-family="Helvetica,sans-Serif" font-size="10.00">slogo.UI.ListViewCreator.get</text>
<text text-anchor="middle" x="791" y="-154" font-family="Helvetica,sans-Serif" font-size="10.00">ListView</text>
</a>
</g>
</g>
<!-- Node4&#45;&gt;Node5 -->
<g id="edge4" class="edge"><title>Node4&#45;&gt;Node5</title>
<path fill="none" stroke="midnightblue" d="M652.263,-162C669.57,-162 687.949,-162 705.453,-162"/>
<polygon fill="midnightblue" stroke="midnightblue" points="705.643,-165.5 715.643,-162 705.643,-158.5 705.643,-165.5"/>
</g>
<!-- Node7 -->
<g id="node7" class="node"><title>Node7</title>
<g id="a_node7"><a xlink:href="../../db/d10/classslogo_1_1frontend_1_1_config_1_1_config_hash_map_creator.html#a1a0e11887aa8fdc8d0b3bed256ba1d09" target="_top" xlink:title="slogo.frontend.Config.Config\lHashMapCreator.fromIntToString">
<polygon fill="white" stroke="black" points="704.5,-98 704.5,-128 877.5,-128 877.5,-98 704.5,-98"/>
<text text-anchor="start" x="712.5" y="-116" font-family="Helvetica,sans-Serif" font-size="10.00">slogo.frontend.Config.Config</text>
<text text-anchor="middle" x="791" y="-105" font-family="Helvetica,sans-Serif" font-size="10.00">HashMapCreator.fromIntToString</text>
</a>
</g>
</g>
<!-- Node6&#45;&gt;Node7 -->
<g id="edge6" class="edge"><title>Node6&#45;&gt;Node7</title>
<path fill="none" stroke="midnightblue" d="M661.575,-113C672.232,-113 683.155,-113 693.913,-113"/>
<polygon fill="midnightblue" stroke="midnightblue" points="694.163,-116.5 704.163,-113 694.163,-109.5 694.163,-116.5"/>
</g>
</g>
</svg>
