<?xml version="1.0" encoding="UTF-8" standalone="no"?>
<!DOCTYPE svg PUBLIC "-//W3C//DTD SVG 1.1//EN"
 "http://www.w3.org/Graphics/SVG/1.1/DTD/svg11.dtd">
<!-- Generated by graphviz version 2.36.0 (20140111.2315)
 -->
<!-- Title: slogo.UI.ModuleCreationHelper.stepThroughCommandsHistory Pages: 1 -->
<svg width="578pt" height="38pt"
 viewBox="0.00 0.00 578.00 38.00" xmlns="http://www.w3.org/2000/svg" xmlns:xlink="http://www.w3.org/1999/xlink">
<g id="graph0" class="graph" transform="scale(1 1) rotate(0) translate(4 34)">
<title>slogo.UI.ModuleCreationHelper.stepThroughCommandsHistory</title>
<polygon fill="white" stroke="none" points="-4,4 -4,-34 574,-34 574,4 -4,4"/>
<!-- Node1 -->
<g id="node1" class="node"><title>Node1</title>
<polygon fill="#bfbfbf" stroke="black" points="0,-0 0,-30 188,-30 188,-0 0,-0"/>
<text text-anchor="start" x="8" y="-18" font-family="Helvetica,sans-Serif" font-size="10.00">slogo.UI.ModuleCreationHelper.step</text>
<text text-anchor="middle" x="94" y="-7" font-family="Helvetica,sans-Serif" font-size="10.00">ThroughCommandsHistory</text>
</g>
<!-- Node2 -->
<g id="node2" class="node"><title>Node2</title>
<g id="a_node2"><a xlink:href="../../db/dc0/classslogo_1_1_u_i_1_1_list_view_all_s_l_o_g_o.html#a5f743353bce4830934bcf532b97e7925" target="_top" xlink:title="slogo.UI.ListViewAllSLOGO.set\lItems">
<polygon fill="white" stroke="black" points="224.5,-0 224.5,-30 383.5,-30 383.5,-0 224.5,-0"/>
<text text-anchor="start" x="232.5" y="-18" font-family="Helvetica,sans-Serif" font-size="10.00">slogo.UI.ListViewAllSLOGO.set</text>
<text text-anchor="middle" x="304" y="-7" font-family="Helvetica,sans-Serif" font-size="10.00">Items</text>
</a>
</g>
</g>
<!-- Node1&#45;&gt;Node2 -->
<g id="edge1" class="edge"><title>Node1&#45;&gt;Node2</title>
<path fill="none" stroke="midnightblue" d="M188.049,-15C196.757,-15 205.568,-15 214.234,-15"/>
<polygon fill="midnightblue" stroke="midnightblue" points="214.327,-18.5001 224.327,-15 214.327,-11.5001 214.327,-18.5001"/>
</g>
<!-- Node3 -->
<g id="node3" class="node"><title>Node3</title>
<g id="a_node3"><a xlink:href="../../da/d8f/classslogo_1_1_u_i_1_1_list_view_creator.html#a081368f4f2cd74f99d9d251625ae4871" target="_top" xlink:title="slogo.UI.ListViewCreator.get\lListView">
<polygon fill="white" stroke="black" points="420,-0 420,-30 570,-30 570,-0 420,-0"/>
<text text-anchor="start" x="428" y="-18" font-family="Helvetica,sans-Serif" font-size="10.00">slogo.UI.ListViewCreator.get</text>
<text text-anchor="middle" x="495" y="-7" font-family="Helvetica,sans-Serif" font-size="10.00">ListView</text>
</a>
</g>
</g>
<!-- Node2&#45;&gt;Node3 -->
<g id="edge2" class="edge"><title>Node2&#45;&gt;Node3</title>
<path fill="none" stroke="midnightblue" d="M383.511,-15C392.186,-15 401.046,-15 409.787,-15"/>
<polygon fill="midnightblue" stroke="midnightblue" points="409.975,-18.5001 419.975,-15 409.975,-11.5001 409.975,-18.5001"/>
</g>
</g>
</svg>
