<?xml version="1.0" encoding="UTF-8" standalone="no"?>
<!DOCTYPE svg PUBLIC "-//W3C//DTD SVG 1.1//EN"
 "http://www.w3.org/Graphics/SVG/1.1/DTD/svg11.dtd">
<!-- Generated by graphviz version 2.36.0 (20140111.2315)
 -->
<!-- Title: slogo.UI.ModuleCreationHelper.getBackgroundColorSelector Pages: 1 -->
<svg width="2954pt" height="427pt"
 viewBox="0.00 0.00 2954.00 427.00" xmlns="http://www.w3.org/2000/svg" xmlns:xlink="http://www.w3.org/1999/xlink">
<g id="graph0" class="graph" transform="scale(1 1) rotate(0) translate(4 423)">
<title>slogo.UI.ModuleCreationHelper.getBackgroundColorSelector</title>
<polygon fill="white" stroke="none" points="-4,4 -4,-423 2950,-423 2950,4 -4,4"/>
<!-- Node1 -->
<g id="node1" class="node"><title>Node1</title>
<polygon fill="#bfbfbf" stroke="black" points="0,-49 0,-79 182,-79 182,-49 0,-49"/>
<text text-anchor="start" x="8" y="-67" font-family="Helvetica,sans-Serif" font-size="10.00">slogo.UI.ModuleCreationHelper.get</text>
<text text-anchor="middle" x="91" y="-56" font-family="Helvetica,sans-Serif" font-size="10.00">BackgroundColorSelector</text>
</g>
<!-- Node2 -->
<g id="node2" class="node"><title>Node2</title>
<g id="a_node2"><a xlink:href="../../d9/d7e/classslogo_1_1_u_i_1_1_method_runner.html#a714f7c40de08d1196b78789d769d25d9" target="_top" xlink:title="slogo.UI.MethodRunner.set\lBackgroundColor">
<polygon fill="white" stroke="black" points="218,-49 218,-79 362,-79 362,-49 218,-49"/>
<text text-anchor="start" x="226" y="-67" font-family="Helvetica,sans-Serif" font-size="10.00">slogo.UI.MethodRunner.set</text>
<text text-anchor="middle" x="290" y="-56" font-family="Helvetica,sans-Serif" font-size="10.00">BackgroundColor</text>
</a>
</g>
</g>
<!-- Node1&#45;&gt;Node2 -->
<g id="edge1" class="edge"><title>Node1&#45;&gt;Node2</title>
<path fill="none" stroke="midnightblue" d="M192.251,-64C200.87,-64 209.471,-64 217.79,-64"/>
<polygon fill="midnightblue" stroke="midnightblue" points="192.14,-60.5001 182.14,-64 192.14,-67.5001 192.14,-60.5001"/>
</g>
<!-- Node3 -->
<g id="node3" class="node"><title>Node3</title>
<g id="a_node3"><a xlink:href="../../d9/d7e/classslogo_1_1_u_i_1_1_method_runner.html#a5fe4a6310ba1b0851d7d30a440511324" target="_top" xlink:title="slogo.UI.MethodRunner.change\lTurtle">
<polygon fill="white" stroke="black" points="398,-49 398,-79 562,-79 562,-49 398,-49"/>
<text text-anchor="start" x="406" y="-67" font-family="Helvetica,sans-Serif" font-size="10.00">slogo.UI.MethodRunner.change</text>
<text text-anchor="middle" x="480" y="-56" font-family="Helvetica,sans-Serif" font-size="10.00">Turtle</text>
</a>
</g>
</g>
<!-- Node2&#45;&gt;Node3 -->
<g id="edge2" class="edge"><title>Node2&#45;&gt;Node3</title>
<path fill="none" stroke="midnightblue" d="M372.28,-64C380.719,-64 389.298,-64 397.736,-64"/>
<polygon fill="midnightblue" stroke="midnightblue" points="372.075,-60.5001 362.075,-64 372.075,-67.5001 372.075,-60.5001"/>
</g>
<!-- Node4 -->
<g id="node4" class="node"><title>Node4</title>
<g id="a_node4"><a xlink:href="../../df/d2d/classslogo_1_1_view.html#accc79c56511a72090ff8a4d414b8d1f5" target="_top" xlink:title="slogo.View.executeTurtle\lCommands">
<polygon fill="white" stroke="black" points="598.5,-49 598.5,-79 731.5,-79 731.5,-49 598.5,-49"/>
<text text-anchor="start" x="606.5" y="-67" font-family="Helvetica,sans-Serif" font-size="10.00">slogo.View.executeTurtle</text>
<text text-anchor="middle" x="665" y="-56" font-family="Helvetica,sans-Serif" font-size="10.00">Commands</text>
</a>
</g>
</g>
<!-- Node3&#45;&gt;Node4 -->
<g id="edge3" class="edge"><title>Node3&#45;&gt;Node4</title>
<path fill="none" stroke="midnightblue" d="M572.35,-64C581.128,-64 589.907,-64 598.365,-64"/>
<polygon fill="midnightblue" stroke="midnightblue" points="572.066,-60.5001 562.066,-64 572.066,-67.5001 572.066,-60.5001"/>
</g>
<!-- Node5 -->
<g id="node5" class="node"><title>Node5</title>
<g id="a_node5"><a xlink:href="../../df/d2d/classslogo_1_1_view.html#aa90e5d95d422b58b7f4b7f8a049defe1" target="_top" xlink:title="slogo.View.executeCommand">
<polygon fill="white" stroke="black" points="768,-54.5 768,-73.5 926,-73.5 926,-54.5 768,-54.5"/>
<text text-anchor="middle" x="847" y="-61.5" font-family="Helvetica,sans-Serif" font-size="10.00">slogo.View.executeCommand</text>
</a>
</g>
</g>
<!-- Node4&#45;&gt;Node5 -->
<g id="edge4" class="edge"><title>Node4&#45;&gt;Node5</title>
<path fill="none" stroke="midnightblue" d="M741.784,-64C750.42,-64 759.235,-64 767.901,-64"/>
<polygon fill="midnightblue" stroke="midnightblue" points="741.748,-60.5001 731.748,-64 741.748,-67.5001 741.748,-60.5001"/>
</g>
<!-- Node6 -->
<g id="node6" class="node"><title>Node6</title>
<g id="a_node6"><a xlink:href="../../df/d2d/classslogo_1_1_view.html#aee563f6a0b15ac6668e4dcbdad40c73c" target="_top" xlink:title="slogo.View.sendCommandTo\lBackend">
<polygon fill="white" stroke="black" points="968,-213 968,-243 1120,-243 1120,-213 968,-213"/>
<text text-anchor="start" x="976" y="-231" font-family="Helvetica,sans-Serif" font-size="10.00">slogo.View.sendCommandTo</text>
<text text-anchor="middle" x="1044" y="-220" font-family="Helvetica,sans-Serif" font-size="10.00">Backend</text>
</a>
</g>
</g>
<!-- Node5&#45;&gt;Node6 -->
<g id="edge5" class="edge"><title>Node5&#45;&gt;Node6</title>
<path fill="none" stroke="midnightblue" d="M867.054,-80.0252C904.765,-111.741 988.433,-182.108 1025.15,-212.984"/>
<polygon fill="midnightblue" stroke="midnightblue" points="869.233,-77.2841 859.327,-73.5262 864.727,-82.6414 869.233,-77.2841"/>
</g>
<!-- Node26 -->
<g id="node26" class="node"><title>Node26</title>
<g id="a_node26"><a xlink:href="../../df/d2d/classslogo_1_1_view.html#a4c3084a198acf85804800d70eff9ee51" target="_top" xlink:title="slogo.View.stepIntoCommand">
<polygon fill="white" stroke="black" points="965,-54.5 965,-73.5 1123,-73.5 1123,-54.5 965,-54.5"/>
<text text-anchor="middle" x="1044" y="-61.5" font-family="Helvetica,sans-Serif" font-size="10.00">slogo.View.stepIntoCommand</text>
</a>
</g>
</g>
<!-- Node5&#45;&gt;Node26 -->
<g id="edge33" class="edge"><title>Node5&#45;&gt;Node26</title>
<path fill="none" stroke="midnightblue" d="M936.402,-64C945.87,-64 955.454,-64 964.792,-64"/>
<polygon fill="midnightblue" stroke="midnightblue" points="936.19,-60.5001 926.19,-64 936.19,-67.5001 936.19,-60.5001"/>
</g>
<!-- Node30 -->
<g id="node30" class="node"><title>Node30</title>
<g id="a_node30"><a xlink:href="../../df/d2d/classslogo_1_1_view.html#ac8b7f574c679e744a430f1649dc55e68" target="_top" xlink:title="slogo.View.stepOverCommand">
<polygon fill="white" stroke="black" points="962.5,-11.5 962.5,-30.5 1125.5,-30.5 1125.5,-11.5 962.5,-11.5"/>
<text text-anchor="middle" x="1044" y="-18.5" font-family="Helvetica,sans-Serif" font-size="10.00">slogo.View.stepOverCommand</text>
</a>
</g>
</g>
<!-- Node5&#45;&gt;Node30 -->
<g id="edge38" class="edge"><title>Node5&#45;&gt;Node30</title>
<path fill="none" stroke="midnightblue" d="M901.056,-52.3005C932.068,-45.462 970.711,-36.9406 999.844,-30.5164"/>
<polygon fill="midnightblue" stroke="midnightblue" points="900.288,-48.8855 891.277,-54.4569 901.796,-55.7213 900.288,-48.8855"/>
</g>
<!-- Node7 -->
<g id="node7" class="node"><title>Node7</title>
<g id="a_node7"><a xlink:href="../../db/d19/classslogo_1_1_u_i_1_1_module_creation_helper.html#a69e17abcc7cf9a6ed7261d8fb1d631fa" target="_top" xlink:title="slogo.UI.ModuleCreationHelper.activate\lIncreaseDecreaseButtons">
<polygon fill="white" stroke="black" points="1162.5,-389 1162.5,-419 1367.5,-419 1367.5,-389 1162.5,-389"/>
<text text-anchor="start" x="1170.5" y="-407" font-family="Helvetica,sans-Serif" font-size="10.00">slogo.UI.ModuleCreationHelper.activate</text>
<text text-anchor="middle" x="1265" y="-396" font-family="Helvetica,sans-Serif" font-size="10.00">IncreaseDecreaseButtons</text>
</a>
</g>
</g>
<!-- Node6&#45;&gt;Node7 -->
<g id="edge6" class="edge"><title>Node6&#45;&gt;Node7</title>
<path fill="none" stroke="midnightblue" d="M1058.04,-252.219C1076.78,-284.724 1114.36,-342.06 1162,-374 1171.12,-380.116 1181.51,-385.01 1192.09,-388.919"/>
<polygon fill="midnightblue" stroke="midnightblue" points="1061.01,-250.361 1053.05,-243.368 1054.91,-253.798 1061.01,-250.361"/>
</g>
<!-- Node14 -->
<g id="node14" class="node"><title>Node14</title>
<g id="a_node14"><a xlink:href="../../db/d19/classslogo_1_1_u_i_1_1_module_creation_helper.html#aa70b0ad9e90e62509149bfd2ef2ba209" target="_top" xlink:title="slogo.UI.ModuleCreationHelper.activate\lKeyEvents">
<polygon fill="white" stroke="black" points="1888.5,-136 1888.5,-166 2093.5,-166 2093.5,-136 1888.5,-136"/>
<text text-anchor="start" x="1896.5" y="-154" font-family="Helvetica,sans-Serif" font-size="10.00">slogo.UI.ModuleCreationHelper.activate</text>
<text text-anchor="middle" x="1991" y="-143" font-family="Helvetica,sans-Serif" font-size="10.00">KeyEvents</text>
</a>
</g>
</g>
<!-- Node6&#45;&gt;Node14 -->
<g id="edge14" class="edge"><title>Node6&#45;&gt;Node14</title>
<path fill="none" stroke="midnightblue" d="M1074.18,-207.164C1096.9,-192.251 1129.88,-173.388 1162,-165 1296.15,-129.97 1698.16,-139.777 1888.26,-146.744"/>
<polygon fill="midnightblue" stroke="midnightblue" points="1072.05,-204.378 1065.7,-212.86 1075.95,-210.189 1072.05,-204.378"/>
</g>
<!-- Node15 -->
<g id="node15" class="node"><title>Node15</title>
<g id="a_node15"><a xlink:href="../../db/d19/classslogo_1_1_u_i_1_1_module_creation_helper.html#a2e841243ec3ca474e8822102343acc88" target="_top" xlink:title="slogo.UI.ModuleCreationHelper.activate\lNewTurtleButton">
<polygon fill="white" stroke="black" points="1404.5,-344 1404.5,-374 1609.5,-374 1609.5,-344 1404.5,-344"/>
<text text-anchor="start" x="1412.5" y="-362" font-family="Helvetica,sans-Serif" font-size="10.00">slogo.UI.ModuleCreationHelper.activate</text>
<text text-anchor="middle" x="1507" y="-351" font-family="Helvetica,sans-Serif" font-size="10.00">NewTurtleButton</text>
</a>
</g>
</g>
<!-- Node6&#45;&gt;Node15 -->
<g id="edge16" class="edge"><title>Node6&#45;&gt;Node15</title>
<path fill="none" stroke="midnightblue" d="M1061.02,-251.155C1081.1,-278.009 1118.24,-321.013 1162,-340 1238.41,-373.152 1333.47,-375.86 1404.29,-371.435"/>
<polygon fill="midnightblue" stroke="midnightblue" points="1063.83,-249.073 1055.11,-243.055 1058.18,-253.197 1063.83,-249.073"/>
</g>
<!-- Node17 -->
<g id="node17" class="node"><title>Node17</title>
<g id="a_node17"><a xlink:href="../../db/d19/classslogo_1_1_u_i_1_1_module_creation_helper.html#a9b1f07ab673191067907a059b1b0c524" target="_top" xlink:title="slogo.UI.ModuleCreationHelper.activate\lPlayButton">
<polygon fill="white" stroke="black" points="1162.5,-301 1162.5,-331 1367.5,-331 1367.5,-301 1162.5,-301"/>
<text text-anchor="start" x="1170.5" y="-319" font-family="Helvetica,sans-Serif" font-size="10.00">slogo.UI.ModuleCreationHelper.activate</text>
<text text-anchor="middle" x="1265" y="-308" font-family="Helvetica,sans-Serif" font-size="10.00">PlayButton</text>
</a>
</g>
</g>
<!-- Node6&#45;&gt;Node17 -->
<g id="edge19" class="edge"><title>Node6&#45;&gt;Node17</title>
<path fill="none" stroke="midnightblue" d="M1077.42,-248.354C1100.33,-262.006 1132.16,-279.522 1162,-291 1171.7,-294.73 1182.14,-298.039 1192.5,-300.929"/>
<polygon fill="midnightblue" stroke="midnightblue" points="1079.16,-245.317 1068.79,-243.145 1075.54,-251.31 1079.16,-245.317"/>
</g>
<!-- Node20 -->
<g id="node20" class="node"><title>Node20</title>
<g id="a_node20"><a xlink:href="../../db/d19/classslogo_1_1_u_i_1_1_module_creation_helper.html#a3a38d485562cb17591ec3fd07cffc18a" target="_top" xlink:title="slogo.UI.ModuleCreationHelper.activate\lTurtleCanvas">
<polygon fill="white" stroke="black" points="1646.5,-87 1646.5,-117 1851.5,-117 1851.5,-87 1646.5,-87"/>
<text text-anchor="start" x="1654.5" y="-105" font-family="Helvetica,sans-Serif" font-size="10.00">slogo.UI.ModuleCreationHelper.activate</text>
<text text-anchor="middle" x="1749" y="-94" font-family="Helvetica,sans-Serif" font-size="10.00">TurtleCanvas</text>
</a>
</g>
</g>
<!-- Node6&#45;&gt;Node20 -->
<g id="edge23" class="edge"><title>Node6&#45;&gt;Node20</title>
<path fill="none" stroke="midnightblue" d="M1064.37,-205.232C1085.63,-182.064 1122.1,-147.434 1162,-132 1247.51,-98.92 1502.48,-97.5272 1646.33,-99.6157"/>
<polygon fill="midnightblue" stroke="midnightblue" points="1061.56,-203.115 1057.5,-212.898 1066.78,-207.786 1061.56,-203.115"/>
</g>
<!-- Node22 -->
<g id="node22" class="node"><title>Node22</title>
<g id="a_node22"><a xlink:href="../../d1/d5f/classslogo_1_1_u_i_1_1_path_color_selector.html#ad3d9c82a0904c97edcec7cf67b85bd7b" target="_top" xlink:title="slogo.UI.PathColorSelector.create">
<polygon fill="white" stroke="black" points="1177,-262.5 1177,-281.5 1353,-281.5 1353,-262.5 1177,-262.5"/>
<text text-anchor="middle" x="1265" y="-269.5" font-family="Helvetica,sans-Serif" font-size="10.00">slogo.UI.PathColorSelector.create</text>
</a>
</g>
</g>
<!-- Node6&#45;&gt;Node22 -->
<g id="edge26" class="edge"><title>Node6&#45;&gt;Node22</title>
<path fill="none" stroke="midnightblue" d="M1127.74,-245.065C1139.24,-247.411 1150.91,-249.776 1162,-252 1179.25,-255.46 1198.16,-259.186 1214.95,-262.473"/>
<polygon fill="midnightblue" stroke="midnightblue" points="1128.19,-241.585 1117.69,-243.013 1126.79,-248.443 1128.19,-241.585"/>
</g>
<!-- Node24 -->
<g id="node24" class="node"><title>Node24</title>
<g id="a_node24"><a xlink:href="../../d4/d8d/classslogo_1_1_u_i_1_1_background_color_selector.html#ad75ba4ce104e071811d0fe039a4e839f" target="_top" xlink:title="slogo.UI.BackgroundColor\lSelector.create">
<polygon fill="white" stroke="black" points="1195,-213 1195,-243 1335,-243 1335,-213 1195,-213"/>
<text text-anchor="start" x="1203" y="-231" font-family="Helvetica,sans-Serif" font-size="10.00">slogo.UI.BackgroundColor</text>
<text text-anchor="middle" x="1265" y="-220" font-family="Helvetica,sans-Serif" font-size="10.00">Selector.create</text>
</a>
</g>
</g>
<!-- Node6&#45;&gt;Node24 -->
<g id="edge29" class="edge"><title>Node6&#45;&gt;Node24</title>
<path fill="none" stroke="midnightblue" d="M1130.14,-228C1151.6,-228 1174.37,-228 1194.93,-228"/>
<polygon fill="midnightblue" stroke="midnightblue" points="1130.06,-224.5 1120.06,-228 1130.06,-231.5 1130.06,-224.5"/>
</g>
<!-- Node25 -->
<g id="node25" class="node"><title>Node25</title>
<g id="a_node25"><a xlink:href="../../dd/da7/classslogo_1_1_u_i_1_1_turtle_image_selector.html#a3f268d9196ffebcbb5dc322d2897a9fe" target="_top" xlink:title="slogo.UI.TurtleImageSelector.create">
<polygon fill="white" stroke="black" points="1172,-174.5 1172,-193.5 1358,-193.5 1358,-174.5 1172,-174.5"/>
<text text-anchor="middle" x="1265" y="-181.5" font-family="Helvetica,sans-Serif" font-size="10.00">slogo.UI.TurtleImageSelector.create</text>
</a>
</g>
</g>
<!-- Node6&#45;&gt;Node25 -->
<g id="edge31" class="edge"><title>Node6&#45;&gt;Node25</title>
<path fill="none" stroke="midnightblue" d="M1124.01,-210.821C1136.7,-208.147 1149.71,-205.458 1162,-203 1177.99,-199.804 1195.42,-196.493 1211.27,-193.548"/>
<polygon fill="midnightblue" stroke="midnightblue" points="1122.98,-207.463 1113.92,-212.958 1124.43,-214.311 1122.98,-207.463"/>
</g>
<!-- Node8 -->
<g id="node8" class="node"><title>Node8</title>
<g id="a_node8"><a xlink:href="../../db/d19/classslogo_1_1_u_i_1_1_module_creation_helper.html#adce7362386f9a7b3006e7db08a2d578d" target="_top" xlink:title="slogo.UI.ModuleCreationHelper.create\lIncreaseDecreaseButtons">
<polygon fill="white" stroke="black" points="1650.5,-380 1650.5,-410 1847.5,-410 1847.5,-380 1650.5,-380"/>
<text text-anchor="start" x="1658.5" y="-398" font-family="Helvetica,sans-Serif" font-size="10.00">slogo.UI.ModuleCreationHelper.create</text>
<text text-anchor="middle" x="1749" y="-387" font-family="Helvetica,sans-Serif" font-size="10.00">IncreaseDecreaseButtons</text>
</a>
</g>
</g>
<!-- Node7&#45;&gt;Node8 -->
<g id="edge7" class="edge"><title>Node7&#45;&gt;Node8</title>
<path fill="none" stroke="midnightblue" d="M1377.79,-401.913C1460.23,-400.373 1571.29,-398.299 1650.21,-396.826"/>
<polygon fill="midnightblue" stroke="midnightblue" points="1377.56,-398.416 1367.63,-402.102 1377.69,-405.415 1377.56,-398.416"/>
</g>
<!-- Node9 -->
<g id="node9" class="node"><title>Node9</title>
<g id="a_node9"><a xlink:href="../../db/d19/classslogo_1_1_u_i_1_1_module_creation_helper.html#a7c650957b2389d6e6d36e8be8a33cd2b" target="_top" xlink:title="slogo.UI.ModuleCreationHelper.create\lSelectorVBoxModules">
<polygon fill="white" stroke="black" points="1892.5,-253 1892.5,-283 2089.5,-283 2089.5,-253 1892.5,-253"/>
<text text-anchor="start" x="1900.5" y="-271" font-family="Helvetica,sans-Serif" font-size="10.00">slogo.UI.ModuleCreationHelper.create</text>
<text text-anchor="middle" x="1991" y="-260" font-family="Helvetica,sans-Serif" font-size="10.00">SelectorVBoxModules</text>
</a>
</g>
</g>
<!-- Node8&#45;&gt;Node9 -->
<g id="edge8" class="edge"><title>Node8&#45;&gt;Node9</title>
<path fill="none" stroke="midnightblue" d="M1833,-376.732C1839.54,-374.424 1845.95,-371.854 1852,-369 1900.6,-346.077 1949.46,-305.079 1973.92,-283.025"/>
<polygon fill="midnightblue" stroke="midnightblue" points="1831.75,-373.461 1823.36,-379.93 1833.95,-380.105 1831.75,-373.461"/>
</g>
<!-- Node10 -->
<g id="node10" class="node"><title>Node10</title>
<g id="a_node10"><a xlink:href="../../db/d19/classslogo_1_1_u_i_1_1_module_creation_helper.html#afb9dbbbad7d872234a5b296fe129a34e" target="_top" xlink:title="slogo.UI.ModuleCreationHelper.create\lMainPageModules">
<polygon fill="white" stroke="black" points="2130.5,-136 2130.5,-166 2327.5,-166 2327.5,-136 2130.5,-136"/>
<text text-anchor="start" x="2138.5" y="-154" font-family="Helvetica,sans-Serif" font-size="10.00">slogo.UI.ModuleCreationHelper.create</text>
<text text-anchor="middle" x="2229" y="-143" font-family="Helvetica,sans-Serif" font-size="10.00">MainPageModules</text>
</a>
</g>
</g>
<!-- Node9&#45;&gt;Node10 -->
<g id="edge9" class="edge"><title>Node9&#45;&gt;Node10</title>
<path fill="none" stroke="midnightblue" d="M2031.58,-248.38C2078.29,-225.222 2154.96,-187.212 2197.37,-166.184"/>
<polygon fill="midnightblue" stroke="midnightblue" points="2029.77,-245.366 2022.37,-252.944 2032.88,-251.638 2029.77,-245.366"/>
</g>
<!-- Node11 -->
<g id="node11" class="node"><title>Node11</title>
<g id="a_node11"><a xlink:href="../../d9/d33/classslogo_1_1_u_i_1_1_main.html#a15b7f2e399ee24d160550993ab737e73" target="_top" xlink:title="slogo.UI.Main.start">
<polygon fill="white" stroke="black" points="2364,-150.5 2364,-169.5 2470,-169.5 2470,-150.5 2364,-150.5"/>
<text text-anchor="middle" x="2417" y="-157.5" font-family="Helvetica,sans-Serif" font-size="10.00">slogo.UI.Main.start</text>
</a>
</g>
</g>
<!-- Node10&#45;&gt;Node11 -->
<g id="edge10" class="edge"><title>Node10&#45;&gt;Node11</title>
<path fill="none" stroke="midnightblue" d="M2337.8,-156.216C2346.76,-156.65 2355.53,-157.074 2363.76,-157.472"/>
<polygon fill="midnightblue" stroke="midnightblue" points="2337.79,-152.712 2327.63,-155.724 2337.45,-159.703 2337.79,-152.712"/>
</g>
<!-- Node12 -->
<g id="node12" class="node"><title>Node12</title>
<g id="a_node12"><a xlink:href="../../db/d19/classslogo_1_1_u_i_1_1_module_creation_helper.html#a3be12a7cc2b8a219db1e296211a2cb88" target="_top" xlink:title="slogo.UI.ModuleCreationHelper.activate\lExtraWorkspaceButton">
<polygon fill="white" stroke="black" points="2506.5,-163 2506.5,-193 2711.5,-193 2711.5,-163 2506.5,-163"/>
<text text-anchor="start" x="2514.5" y="-181" font-family="Helvetica,sans-Serif" font-size="10.00">slogo.UI.ModuleCreationHelper.activate</text>
<text text-anchor="middle" x="2609" y="-170" font-family="Helvetica,sans-Serif" font-size="10.00">ExtraWorkspaceButton</text>
</a>
</g>
</g>
<!-- Node11&#45;&gt;Node12 -->
<g id="edge11" class="edge"><title>Node11&#45;&gt;Node12</title>
<path fill="none" stroke="midnightblue" d="M2480.22,-165.894C2488.63,-166.691 2497.44,-167.526 2506.32,-168.367"/>
<polygon fill="midnightblue" stroke="midnightblue" points="2480.46,-162.401 2470.17,-164.942 2479.79,-169.37 2480.46,-162.401"/>
</g>
<!-- Node13 -->
<g id="node13" class="node"><title>Node13</title>
<g id="a_node13"><a xlink:href="../../db/d19/classslogo_1_1_u_i_1_1_module_creation_helper.html#a702c1ebe24d2857a10c666eb1fcc315d" target="_top" xlink:title="slogo.UI.ModuleCreationHelper.create\lExtraWorkspaceButton">
<polygon fill="white" stroke="black" points="2748.5,-189 2748.5,-219 2945.5,-219 2945.5,-189 2748.5,-189"/>
<text text-anchor="start" x="2756.5" y="-207" font-family="Helvetica,sans-Serif" font-size="10.00">slogo.UI.ModuleCreationHelper.create</text>
<text text-anchor="middle" x="2847" y="-196" font-family="Helvetica,sans-Serif" font-size="10.00">ExtraWorkspaceButton</text>
</a>
</g>
</g>
<!-- Node12&#45;&gt;Node13 -->
<g id="edge12" class="edge"><title>Node12&#45;&gt;Node13</title>
<path fill="none" stroke="midnightblue" d="M2721.77,-190.313C2730.62,-191.289 2739.52,-192.27 2748.27,-193.234"/>
<polygon fill="midnightblue" stroke="midnightblue" points="2722.12,-186.831 2711.8,-189.215 2721.35,-193.789 2722.12,-186.831"/>
</g>
<!-- Node13&#45;&gt;Node9 -->
<g id="edge13" class="edge"><title>Node13&#45;&gt;Node9</title>
<path fill="none" stroke="midnightblue" d="M2738.34,-212.068C2570.9,-224.617 2250.6,-248.62 2089.55,-260.69"/>
<polygon fill="midnightblue" stroke="midnightblue" points="2738.7,-215.551 2748.41,-211.313 2738.18,-208.571 2738.7,-215.551"/>
</g>
<!-- Node14&#45;&gt;Node10 -->
<g id="edge15" class="edge"><title>Node14&#45;&gt;Node10</title>
<path fill="none" stroke="midnightblue" d="M2104.05,-151C2112.81,-151 2121.62,-151 2130.27,-151"/>
<polygon fill="midnightblue" stroke="midnightblue" points="2103.8,-147.5 2093.8,-151 2103.8,-154.5 2103.8,-147.5"/>
</g>
<!-- Node16 -->
<g id="node16" class="node"><title>Node16</title>
<g id="a_node16"><a xlink:href="../../db/d19/classslogo_1_1_u_i_1_1_module_creation_helper.html#a07f5483df317cdf80e8ea2dda5699afa" target="_top" xlink:title="slogo.UI.ModuleCreationHelper.create\lNewTurtleButton">
<polygon fill="white" stroke="black" points="1650.5,-330 1650.5,-360 1847.5,-360 1847.5,-330 1650.5,-330"/>
<text text-anchor="start" x="1658.5" y="-348" font-family="Helvetica,sans-Serif" font-size="10.00">slogo.UI.ModuleCreationHelper.create</text>
<text text-anchor="middle" x="1749" y="-337" font-family="Helvetica,sans-Serif" font-size="10.00">NewTurtleButton</text>
</a>
</g>
</g>
<!-- Node15&#45;&gt;Node16 -->
<g id="edge17" class="edge"><title>Node15&#45;&gt;Node16</title>
<path fill="none" stroke="midnightblue" d="M1619.89,-352.473C1630.04,-351.881 1640.26,-351.285 1650.27,-350.701"/>
<polygon fill="midnightblue" stroke="midnightblue" points="1619.56,-348.986 1609.78,-353.063 1619.97,-355.974 1619.56,-348.986"/>
</g>
<!-- Node16&#45;&gt;Node9 -->
<g id="edge18" class="edge"><title>Node16&#45;&gt;Node9</title>
<path fill="none" stroke="midnightblue" d="M1820.15,-327.309C1830.87,-324.354 1841.76,-321.203 1852,-318 1885.93,-307.387 1923.86,-293.493 1951.35,-283.046"/>
<polygon fill="midnightblue" stroke="midnightblue" points="1819.12,-323.962 1810.39,-329.963 1820.96,-330.717 1819.12,-323.962"/>
</g>
<!-- Node18 -->
<g id="node18" class="node"><title>Node18</title>
<g id="a_node18"><a xlink:href="../../db/d19/classslogo_1_1_u_i_1_1_module_creation_helper.html#a9b3fb38a55b3b7812b4f793afa7a974f" target="_top" xlink:title="slogo.UI.ModuleCreationHelper.create\lPlayButton">
<polygon fill="white" stroke="black" points="1408.5,-295 1408.5,-325 1605.5,-325 1605.5,-295 1408.5,-295"/>
<text text-anchor="start" x="1416.5" y="-313" font-family="Helvetica,sans-Serif" font-size="10.00">slogo.UI.ModuleCreationHelper.create</text>
<text text-anchor="middle" x="1507" y="-302" font-family="Helvetica,sans-Serif" font-size="10.00">PlayButton</text>
</a>
</g>
</g>
<!-- Node17&#45;&gt;Node18 -->
<g id="edge20" class="edge"><title>Node17&#45;&gt;Node18</title>
<path fill="none" stroke="midnightblue" d="M1377.89,-313.203C1388.04,-312.949 1398.26,-312.694 1408.27,-312.443"/>
<polygon fill="midnightblue" stroke="midnightblue" points="1377.69,-309.707 1367.78,-313.455 1377.87,-316.704 1377.69,-309.707"/>
</g>
<!-- Node19 -->
<g id="node19" class="node"><title>Node19</title>
<g id="a_node19"><a xlink:href="../../db/d19/classslogo_1_1_u_i_1_1_module_creation_helper.html#ae1e60d37509c2e5eddcb2a6e70b4f650" target="_top" xlink:title="slogo.UI.ModuleCreationHelper.create\lFirstRowButtons">
<polygon fill="white" stroke="black" points="1650.5,-279 1650.5,-309 1847.5,-309 1847.5,-279 1650.5,-279"/>
<text text-anchor="start" x="1658.5" y="-297" font-family="Helvetica,sans-Serif" font-size="10.00">slogo.UI.ModuleCreationHelper.create</text>
<text text-anchor="middle" x="1749" y="-286" font-family="Helvetica,sans-Serif" font-size="10.00">FirstRowButtons</text>
</a>
</g>
</g>
<!-- Node18&#45;&gt;Node19 -->
<g id="edge21" class="edge"><title>Node18&#45;&gt;Node19</title>
<path fill="none" stroke="midnightblue" d="M1615.73,-302.818C1627.3,-302.046 1639.03,-301.265 1650.47,-300.502"/>
<polygon fill="midnightblue" stroke="midnightblue" points="1615.36,-299.335 1605.62,-303.492 1615.83,-306.319 1615.36,-299.335"/>
</g>
<!-- Node19&#45;&gt;Node9 -->
<g id="edge22" class="edge"><title>Node19&#45;&gt;Node9</title>
<path fill="none" stroke="midnightblue" d="M1857.73,-282.329C1869.3,-281.075 1881.03,-279.805 1892.47,-278.566"/>
<polygon fill="midnightblue" stroke="midnightblue" points="1857.18,-278.868 1847.62,-283.425 1857.94,-285.827 1857.18,-278.868"/>
</g>
<!-- Node21 -->
<g id="node21" class="node"><title>Node21</title>
<g id="a_node21"><a xlink:href="../../db/d19/classslogo_1_1_u_i_1_1_module_creation_helper.html#a803bac6b55bde712b21f2face1eeef81" target="_top" xlink:title="slogo.UI.ModuleCreationHelper.create\lTurtleCanvas">
<polygon fill="white" stroke="black" points="1892.5,-87 1892.5,-117 2089.5,-117 2089.5,-87 1892.5,-87"/>
<text text-anchor="start" x="1900.5" y="-105" font-family="Helvetica,sans-Serif" font-size="10.00">slogo.UI.ModuleCreationHelper.create</text>
<text text-anchor="middle" x="1991" y="-94" font-family="Helvetica,sans-Serif" font-size="10.00">TurtleCanvas</text>
</a>
</g>
</g>
<!-- Node20&#45;&gt;Node21 -->
<g id="edge24" class="edge"><title>Node20&#45;&gt;Node21</title>
<path fill="none" stroke="midnightblue" d="M1861.89,-102C1872.04,-102 1882.26,-102 1892.27,-102"/>
<polygon fill="midnightblue" stroke="midnightblue" points="1861.78,-98.5001 1851.78,-102 1861.78,-105.5 1861.78,-98.5001"/>
</g>
<!-- Node21&#45;&gt;Node10 -->
<g id="edge25" class="edge"><title>Node21&#45;&gt;Node10</title>
<path fill="none" stroke="midnightblue" d="M2074.42,-119.113C2100.9,-124.611 2130.03,-130.658 2155.73,-135.994"/>
<polygon fill="midnightblue" stroke="midnightblue" points="2074.91,-115.641 2064.41,-117.035 2073.49,-122.495 2074.91,-115.641"/>
</g>
<!-- Node23 -->
<g id="node23" class="node"><title>Node23</title>
<g id="a_node23"><a xlink:href="../../db/d19/classslogo_1_1_u_i_1_1_module_creation_helper.html#af7f2919454fdbf6e9d7d912e99634857" target="_top" xlink:title="slogo.UI.ModuleCreationHelper.create\lSelectors">
<polygon fill="white" stroke="black" points="1408.5,-230 1408.5,-260 1605.5,-260 1605.5,-230 1408.5,-230"/>
<text text-anchor="start" x="1416.5" y="-248" font-family="Helvetica,sans-Serif" font-size="10.00">slogo.UI.ModuleCreationHelper.create</text>
<text text-anchor="middle" x="1507" y="-237" font-family="Helvetica,sans-Serif" font-size="10.00">Selectors</text>
</a>
</g>
</g>
<!-- Node22&#45;&gt;Node23 -->
<g id="edge27" class="edge"><title>Node22&#45;&gt;Node23</title>
<path fill="none" stroke="midnightblue" d="M1360.76,-261.339C1376.36,-259.585 1392.54,-257.764 1408.21,-256.002"/>
<polygon fill="midnightblue" stroke="midnightblue" points="1360.16,-257.885 1350.62,-262.481 1360.94,-264.841 1360.16,-257.885"/>
</g>
<!-- Node23&#45;&gt;Node9 -->
<g id="edge28" class="edge"><title>Node23&#45;&gt;Node9</title>
<path fill="none" stroke="midnightblue" d="M1615.74,-250.141C1698.55,-254.092 1811.97,-259.505 1892.19,-263.333"/>
<polygon fill="midnightblue" stroke="midnightblue" points="1615.7,-246.635 1605.54,-249.654 1615.36,-253.627 1615.7,-246.635"/>
</g>
<!-- Node24&#45;&gt;Node23 -->
<g id="edge30" class="edge"><title>Node24&#45;&gt;Node23</title>
<path fill="none" stroke="midnightblue" d="M1345.18,-233.609C1365.4,-235.041 1387.37,-236.597 1408.39,-238.086"/>
<polygon fill="midnightblue" stroke="midnightblue" points="1345.32,-230.11 1335.1,-232.894 1344.82,-237.092 1345.32,-230.11"/>
</g>
<!-- Node25&#45;&gt;Node23 -->
<g id="edge32" class="edge"><title>Node25&#45;&gt;Node23</title>
<path fill="none" stroke="midnightblue" d="M1333.48,-195.473C1345.04,-197.752 1356.9,-200.287 1368,-203 1399.38,-210.673 1434.18,-221.278 1460.98,-229.911"/>
<polygon fill="midnightblue" stroke="midnightblue" points="1333.9,-191.99 1323.42,-193.539 1332.58,-198.864 1333.9,-191.99"/>
</g>
<!-- Node27 -->
<g id="node27" class="node"><title>Node27</title>
<g id="a_node27"><a xlink:href="../../db/d19/classslogo_1_1_u_i_1_1_module_creation_helper.html#a9fd730f7c1860d34bf4ac46c3828bd59" target="_top" xlink:title="slogo.UI.ModuleCreationHelper.activate\lStepIntoButton">
<polygon fill="white" stroke="black" points="1162.5,-49 1162.5,-79 1367.5,-79 1367.5,-49 1162.5,-49"/>
<text text-anchor="start" x="1170.5" y="-67" font-family="Helvetica,sans-Serif" font-size="10.00">slogo.UI.ModuleCreationHelper.activate</text>
<text text-anchor="middle" x="1265" y="-56" font-family="Helvetica,sans-Serif" font-size="10.00">StepIntoButton</text>
</a>
</g>
</g>
<!-- Node26&#45;&gt;Node27 -->
<g id="edge34" class="edge"><title>Node26&#45;&gt;Node27</title>
<path fill="none" stroke="midnightblue" d="M1133.33,-64C1142.82,-64 1152.54,-64 1162.17,-64"/>
<polygon fill="midnightblue" stroke="midnightblue" points="1133.14,-60.5001 1123.14,-64 1133.14,-67.5001 1133.14,-60.5001"/>
</g>
<!-- Node28 -->
<g id="node28" class="node"><title>Node28</title>
<g id="a_node28"><a xlink:href="../../db/d19/classslogo_1_1_u_i_1_1_module_creation_helper.html#a4a6f1f009507c25be8c7c28cbba35f3b" target="_top" xlink:title="slogo.UI.ModuleCreationHelper.create\lDebugStepIntoButton">
<polygon fill="white" stroke="black" points="1408.5,-49 1408.5,-79 1605.5,-79 1605.5,-49 1408.5,-49"/>
<text text-anchor="start" x="1416.5" y="-67" font-family="Helvetica,sans-Serif" font-size="10.00">slogo.UI.ModuleCreationHelper.create</text>
<text text-anchor="middle" x="1507" y="-56" font-family="Helvetica,sans-Serif" font-size="10.00">DebugStepIntoButton</text>
</a>
</g>
</g>
<!-- Node27&#45;&gt;Node28 -->
<g id="edge35" class="edge"><title>Node27&#45;&gt;Node28</title>
<path fill="none" stroke="midnightblue" d="M1377.89,-64C1388.04,-64 1398.26,-64 1408.27,-64"/>
<polygon fill="midnightblue" stroke="midnightblue" points="1377.78,-60.5001 1367.78,-64 1377.78,-67.5001 1377.78,-60.5001"/>
</g>
<!-- Node29 -->
<g id="node29" class="node"><title>Node29</title>
<g id="a_node29"><a xlink:href="../../db/d19/classslogo_1_1_u_i_1_1_module_creation_helper.html#a975af4ea47dc85df72215bdf1a0d20ce" target="_top" xlink:title="slogo.UI.ModuleCreationHelper.create\lDebugModules">
<polygon fill="white" stroke="black" points="1650.5,-38 1650.5,-68 1847.5,-68 1847.5,-38 1650.5,-38"/>
<text text-anchor="start" x="1658.5" y="-56" font-family="Helvetica,sans-Serif" font-size="10.00">slogo.UI.ModuleCreationHelper.create</text>
<text text-anchor="middle" x="1749" y="-45" font-family="Helvetica,sans-Serif" font-size="10.00">DebugModules</text>
</a>
</g>
</g>
<!-- Node28&#45;&gt;Node29 -->
<g id="edge36" class="edge"><title>Node28&#45;&gt;Node29</title>
<path fill="none" stroke="midnightblue" d="M1615.73,-59.0622C1627.3,-58.5319 1639.03,-57.9945 1650.47,-57.4702"/>
<polygon fill="midnightblue" stroke="midnightblue" points="1615.45,-55.5716 1605.62,-59.5259 1615.77,-62.5643 1615.45,-55.5716"/>
</g>
<!-- Node29&#45;&gt;Node10 -->
<g id="edge37" class="edge"><title>Node29&#45;&gt;Node10</title>
<path fill="none" stroke="midnightblue" d="M1857.63,-48.679C1926.53,-48.779 2017.11,-54.2973 2094,-77 2137.33,-89.7936 2182.2,-118.228 2207.46,-135.889"/>
<polygon fill="midnightblue" stroke="midnightblue" points="1857.61,-45.1789 1847.62,-48.7021 1857.63,-52.1789 1857.61,-45.1789"/>
</g>
<!-- Node31 -->
<g id="node31" class="node"><title>Node31</title>
<g id="a_node31"><a xlink:href="../../db/d19/classslogo_1_1_u_i_1_1_module_creation_helper.html#a0fed0bb32bf2643d6fd5c24d82e8e18e" target="_top" xlink:title="slogo.UI.ModuleCreationHelper.activate\lStepOverButton">
<polygon fill="white" stroke="black" points="1162.5,-0 1162.5,-30 1367.5,-30 1367.5,-0 1162.5,-0"/>
<text text-anchor="start" x="1170.5" y="-18" font-family="Helvetica,sans-Serif" font-size="10.00">slogo.UI.ModuleCreationHelper.activate</text>
<text text-anchor="middle" x="1265" y="-7" font-family="Helvetica,sans-Serif" font-size="10.00">StepOverButton</text>
</a>
</g>
</g>
<!-- Node30&#45;&gt;Node31 -->
<g id="edge39" class="edge"><title>Node30&#45;&gt;Node31</title>
<path fill="none" stroke="midnightblue" d="M1135.8,-18.5123C1144.56,-18.2724 1153.48,-18.028 1162.33,-17.7856"/>
<polygon fill="midnightblue" stroke="midnightblue" points="1135.51,-15.0187 1125.61,-18.7914 1135.71,-22.0161 1135.51,-15.0187"/>
</g>
<!-- Node32 -->
<g id="node32" class="node"><title>Node32</title>
<g id="a_node32"><a xlink:href="../../db/d19/classslogo_1_1_u_i_1_1_module_creation_helper.html#aa1e7dc2b509360583790fba0d3819c8d" target="_top" xlink:title="slogo.UI.ModuleCreationHelper.create\lDebugStepOverButton">
<polygon fill="white" stroke="black" points="1408.5,-0 1408.5,-30 1605.5,-30 1605.5,-0 1408.5,-0"/>
<text text-anchor="start" x="1416.5" y="-18" font-family="Helvetica,sans-Serif" font-size="10.00">slogo.UI.ModuleCreationHelper.create</text>
<text text-anchor="middle" x="1507" y="-7" font-family="Helvetica,sans-Serif" font-size="10.00">DebugStepOverButton</text>
</a>
</g>
</g>
<!-- Node31&#45;&gt;Node32 -->
<g id="edge40" class="edge"><title>Node31&#45;&gt;Node32</title>
<path fill="none" stroke="midnightblue" d="M1377.89,-15C1388.04,-15 1398.26,-15 1408.27,-15"/>
<polygon fill="midnightblue" stroke="midnightblue" points="1377.78,-11.5001 1367.78,-15 1377.78,-18.5001 1377.78,-11.5001"/>
</g>
<!-- Node32&#45;&gt;Node29 -->
<g id="edge41" class="edge"><title>Node32&#45;&gt;Node29</title>
<path fill="none" stroke="midnightblue" d="M1612.99,-31.6227C1626.31,-33.7329 1639.89,-35.8827 1653.05,-37.966"/>
<polygon fill="midnightblue" stroke="midnightblue" points="1613.28,-28.1256 1602.85,-30.0186 1612.18,-35.0395 1613.28,-28.1256"/>
</g>
</g>
</svg>
