<?xml version="1.0" encoding="UTF-8" standalone="no"?>
<!DOCTYPE svg PUBLIC "-//W3C//DTD SVG 1.1//EN"
 "http://www.w3.org/Graphics/SVG/1.1/DTD/svg11.dtd">
<!-- Generated by graphviz version 2.36.0 (20140111.2315)
 -->
<!-- Title: slogo.UI.ModuleCreationHelper.resetCommandsHistoryList Pages: 1 -->
<svg width="2176pt" height="60pt"
 viewBox="0.00 0.00 2176.00 60.00" xmlns="http://www.w3.org/2000/svg" xmlns:xlink="http://www.w3.org/1999/xlink">
<g id="graph0" class="graph" transform="scale(1 1) rotate(0) translate(4 56)">
<title>slogo.UI.ModuleCreationHelper.resetCommandsHistoryList</title>
<polygon fill="white" stroke="none" points="-4,4 -4,-56 2172,-56 2172,4 -4,4"/>
<!-- Node1 -->
<g id="node1" class="node"><title>Node1</title>
<polygon fill="#bfbfbf" stroke="black" points="0.5,-0 0.5,-30 191.5,-30 191.5,-0 0.5,-0"/>
<text text-anchor="start" x="8.5" y="-18" font-family="Helvetica,sans-Serif" font-size="10.00">slogo.UI.ModuleCreationHelper.reset</text>
<text text-anchor="middle" x="96" y="-7" font-family="Helvetica,sans-Serif" font-size="10.00">CommandsHistoryList</text>
</g>
<!-- Node2 -->
<g id="node2" class="node"><title>Node2</title>
<g id="a_node2"><a xlink:href="../../df/d2d/classslogo_1_1_view.html#a5a508e4d68f5887c79e5456d6f3a3ab4" target="_top" xlink:title="slogo.View.resetAnimation">
<polygon fill="white" stroke="black" points="228.5,-5.5 228.5,-24.5 371.5,-24.5 371.5,-5.5 228.5,-5.5"/>
<text text-anchor="middle" x="300" y="-12.5" font-family="Helvetica,sans-Serif" font-size="10.00">slogo.View.resetAnimation</text>
</a>
</g>
</g>
<!-- Node1&#45;&gt;Node2 -->
<g id="edge1" class="edge"><title>Node1&#45;&gt;Node2</title>
<path fill="none" stroke="midnightblue" d="M201.893,-15C210.839,-15 219.745,-15 228.328,-15"/>
<polygon fill="midnightblue" stroke="midnightblue" points="201.79,-11.5001 191.79,-15 201.79,-18.5001 201.79,-11.5001"/>
</g>
<!-- Node3 -->
<g id="node3" class="node"><title>Node3</title>
<g id="a_node3"><a xlink:href="../../db/d19/classslogo_1_1_u_i_1_1_module_creation_helper.html#ad548894429a51de52d1538db6d821539" target="_top" xlink:title="slogo.UI.ModuleCreationHelper.activate\lResetButton">
<polygon fill="white" stroke="black" points="408.5,-0 408.5,-30 613.5,-30 613.5,-0 408.5,-0"/>
<text text-anchor="start" x="416.5" y="-18" font-family="Helvetica,sans-Serif" font-size="10.00">slogo.UI.ModuleCreationHelper.activate</text>
<text text-anchor="middle" x="511" y="-7" font-family="Helvetica,sans-Serif" font-size="10.00">ResetButton</text>
</a>
</g>
</g>
<!-- Node2&#45;&gt;Node3 -->
<g id="edge2" class="edge"><title>Node2&#45;&gt;Node3</title>
<path fill="none" stroke="midnightblue" d="M381.785,-15C390.43,-15 399.302,-15 408.15,-15"/>
<polygon fill="midnightblue" stroke="midnightblue" points="381.758,-11.5001 371.758,-15 381.758,-18.5001 381.758,-11.5001"/>
</g>
<!-- Node4 -->
<g id="node4" class="node"><title>Node4</title>
<g id="a_node4"><a xlink:href="../../db/d19/classslogo_1_1_u_i_1_1_module_creation_helper.html#aa76f49f1feda966f0a2b6314418bf931" target="_top" xlink:title="slogo.UI.ModuleCreationHelper.create\lResetButton">
<polygon fill="white" stroke="black" points="650.5,-0 650.5,-30 847.5,-30 847.5,-0 650.5,-0"/>
<text text-anchor="start" x="658.5" y="-18" font-family="Helvetica,sans-Serif" font-size="10.00">slogo.UI.ModuleCreationHelper.create</text>
<text text-anchor="middle" x="749" y="-7" font-family="Helvetica,sans-Serif" font-size="10.00">ResetButton</text>
</a>
</g>
</g>
<!-- Node3&#45;&gt;Node4 -->
<g id="edge3" class="edge"><title>Node3&#45;&gt;Node4</title>
<path fill="none" stroke="midnightblue" d="M624.051,-15C632.813,-15 641.618,-15 650.274,-15"/>
<polygon fill="midnightblue" stroke="midnightblue" points="623.798,-11.5001 613.798,-15 623.798,-18.5001 623.798,-11.5001"/>
</g>
<!-- Node5 -->
<g id="node5" class="node"><title>Node5</title>
<g id="a_node5"><a xlink:href="../../db/d19/classslogo_1_1_u_i_1_1_module_creation_helper.html#ae1e0ce18826b0895f1c3d4786b3776b7" target="_top" xlink:title="slogo.UI.ModuleCreationHelper.create\lSecondRowButtons">
<polygon fill="white" stroke="black" points="884.5,-0 884.5,-30 1081.5,-30 1081.5,-0 884.5,-0"/>
<text text-anchor="start" x="892.5" y="-18" font-family="Helvetica,sans-Serif" font-size="10.00">slogo.UI.ModuleCreationHelper.create</text>
<text text-anchor="middle" x="983" y="-7" font-family="Helvetica,sans-Serif" font-size="10.00">SecondRowButtons</text>
</a>
</g>
</g>
<!-- Node4&#45;&gt;Node5 -->
<g id="edge4" class="edge"><title>Node4&#45;&gt;Node5</title>
<path fill="none" stroke="midnightblue" d="M857.722,-15C866.618,-15 875.58,-15 884.396,-15"/>
<polygon fill="midnightblue" stroke="midnightblue" points="857.717,-11.5001 847.716,-15 857.716,-18.5001 857.717,-11.5001"/>
</g>
<!-- Node6 -->
<g id="node6" class="node"><title>Node6</title>
<g id="a_node6"><a xlink:href="../../db/d19/classslogo_1_1_u_i_1_1_module_creation_helper.html#a7c650957b2389d6e6d36e8be8a33cd2b" target="_top" xlink:title="slogo.UI.ModuleCreationHelper.create\lSelectorVBoxModules">
<polygon fill="white" stroke="black" points="1118.5,-0 1118.5,-30 1315.5,-30 1315.5,-0 1118.5,-0"/>
<text text-anchor="start" x="1126.5" y="-18" font-family="Helvetica,sans-Serif" font-size="10.00">slogo.UI.ModuleCreationHelper.create</text>
<text text-anchor="middle" x="1217" y="-7" font-family="Helvetica,sans-Serif" font-size="10.00">SelectorVBoxModules</text>
</a>
</g>
</g>
<!-- Node5&#45;&gt;Node6 -->
<g id="edge5" class="edge"><title>Node5&#45;&gt;Node6</title>
<path fill="none" stroke="midnightblue" d="M1091.72,-15C1100.62,-15 1109.58,-15 1118.4,-15"/>
<polygon fill="midnightblue" stroke="midnightblue" points="1091.72,-11.5001 1081.72,-15 1091.72,-18.5001 1091.72,-11.5001"/>
</g>
<!-- Node7 -->
<g id="node7" class="node"><title>Node7</title>
<g id="a_node7"><a xlink:href="../../db/d19/classslogo_1_1_u_i_1_1_module_creation_helper.html#afb9dbbbad7d872234a5b296fe129a34e" target="_top" xlink:title="slogo.UI.ModuleCreationHelper.create\lMainPageModules">
<polygon fill="white" stroke="black" points="1352.5,-22 1352.5,-52 1549.5,-52 1549.5,-22 1352.5,-22"/>
<text text-anchor="start" x="1360.5" y="-40" font-family="Helvetica,sans-Serif" font-size="10.00">slogo.UI.ModuleCreationHelper.create</text>
<text text-anchor="middle" x="1451" y="-29" font-family="Helvetica,sans-Serif" font-size="10.00">MainPageModules</text>
</a>
</g>
</g>
<!-- Node6&#45;&gt;Node7 -->
<g id="edge6" class="edge"><title>Node6&#45;&gt;Node7</title>
<path fill="none" stroke="midnightblue" d="M1325.72,-25.215C1334.62,-26.0586 1343.58,-26.9085 1352.4,-27.7445"/>
<polygon fill="midnightblue" stroke="midnightblue" points="1326,-21.726 1315.72,-24.2662 1325.34,-28.6947 1326,-21.726"/>
</g>
<!-- Node8 -->
<g id="node8" class="node"><title>Node8</title>
<g id="a_node8"><a xlink:href="../../d9/d33/classslogo_1_1_u_i_1_1_main.html#a15b7f2e399ee24d160550993ab737e73" target="_top" xlink:title="slogo.UI.Main.start">
<polygon fill="white" stroke="black" points="1586,-27.5 1586,-46.5 1692,-46.5 1692,-27.5 1586,-27.5"/>
<text text-anchor="middle" x="1639" y="-34.5" font-family="Helvetica,sans-Serif" font-size="10.00">slogo.UI.Main.start</text>
</a>
</g>
</g>
<!-- Node7&#45;&gt;Node8 -->
<g id="edge7" class="edge"><title>Node7&#45;&gt;Node8</title>
<path fill="none" stroke="midnightblue" d="M1559.8,-37C1568.76,-37 1577.53,-37 1585.76,-37"/>
<polygon fill="midnightblue" stroke="midnightblue" points="1559.63,-33.5001 1549.63,-37 1559.63,-40.5001 1559.63,-33.5001"/>
</g>
<!-- Node9 -->
<g id="node9" class="node"><title>Node9</title>
<g id="a_node9"><a xlink:href="../../db/d19/classslogo_1_1_u_i_1_1_module_creation_helper.html#a3be12a7cc2b8a219db1e296211a2cb88" target="_top" xlink:title="slogo.UI.ModuleCreationHelper.activate\lExtraWorkspaceButton">
<polygon fill="white" stroke="black" points="1728.5,-22 1728.5,-52 1933.5,-52 1933.5,-22 1728.5,-22"/>
<text text-anchor="start" x="1736.5" y="-40" font-family="Helvetica,sans-Serif" font-size="10.00">slogo.UI.ModuleCreationHelper.activate</text>
<text text-anchor="middle" x="1831" y="-29" font-family="Helvetica,sans-Serif" font-size="10.00">ExtraWorkspaceButton</text>
</a>
</g>
</g>
<!-- Node8&#45;&gt;Node9 -->
<g id="edge8" class="edge"><title>Node8&#45;&gt;Node9</title>
<path fill="none" stroke="midnightblue" d="M1702.22,-37C1710.63,-37 1719.44,-37 1728.32,-37"/>
<polygon fill="midnightblue" stroke="midnightblue" points="1702.17,-33.5001 1692.17,-37 1702.17,-40.5001 1702.17,-33.5001"/>
</g>
<!-- Node10 -->
<g id="node10" class="node"><title>Node10</title>
<g id="a_node10"><a xlink:href="../../db/d19/classslogo_1_1_u_i_1_1_module_creation_helper.html#a702c1ebe24d2857a10c666eb1fcc315d" target="_top" xlink:title="slogo.UI.ModuleCreationHelper.create\lExtraWorkspaceButton">
<polygon fill="white" stroke="black" points="1970.5,-0 1970.5,-30 2167.5,-30 2167.5,-0 1970.5,-0"/>
<text text-anchor="start" x="1978.5" y="-18" font-family="Helvetica,sans-Serif" font-size="10.00">slogo.UI.ModuleCreationHelper.create</text>
<text text-anchor="middle" x="2069" y="-7" font-family="Helvetica,sans-Serif" font-size="10.00">ExtraWorkspaceButton</text>
</a>
</g>
</g>
<!-- Node9&#45;&gt;Node10 -->
<g id="edge9" class="edge"><title>Node9&#45;&gt;Node10</title>
<path fill="none" stroke="midnightblue" d="M1943.77,-26.5812C1952.62,-25.7556 1961.52,-24.9257 1970.27,-24.1101"/>
<polygon fill="midnightblue" stroke="midnightblue" points="1943.43,-23.0972 1933.8,-27.5104 1944.08,-30.067 1943.43,-23.0972"/>
</g>
<!-- Node10&#45;&gt;Node6 -->
<g id="edge10" class="edge"><title>Node10&#45;&gt;Node6</title>
<path fill="none" stroke="midnightblue" d="M1960.27,-12.3776C1951.38,-12.2253 1942.54,-12.0956 1934,-12 1675.35,-9.10502 1610.65,-9.10502 1352,-12 1340.25,-12.1315 1327.92,-12.3279 1315.7,-12.5584"/>
<polygon fill="midnightblue" stroke="midnightblue" points="1960.24,-15.8776 1970.3,-12.5584 1960.37,-8.87874 1960.24,-15.8776"/>
</g>
</g>
</svg>
