<?xml version="1.0" encoding="UTF-8" standalone="no"?>
<!DOCTYPE svg PUBLIC "-//W3C//DTD SVG 1.1//EN"
 "http://www.w3.org/Graphics/SVG/1.1/DTD/svg11.dtd">
<!-- Generated by graphviz version 2.36.0 (20140111.2315)
 -->
<!-- Title: slogo.backend.tokenization.ITokenizer.tokenize Pages: 1 -->
<svg width="364pt" height="38pt"
 viewBox="0.00 0.00 364.00 38.00" xmlns="http://www.w3.org/2000/svg" xmlns:xlink="http://www.w3.org/1999/xlink">
<g id="graph0" class="graph" transform="scale(1 1) rotate(0) translate(4 34)">
<title>slogo.backend.tokenization.ITokenizer.tokenize</title>
<polygon fill="white" stroke="none" points="-4,4 -4,-34 360,-34 360,4 -4,4"/>
<!-- Node1 -->
<g id="node1" class="node"><title>Node1</title>
<polygon fill="#bfbfbf" stroke="black" points="0,-0 0,-30 150,-30 150,-0 0,-0"/>
<text text-anchor="start" x="8" y="-18" font-family="Helvetica,sans-Serif" font-size="10.00">slogo.backend.tokenization.</text>
<text text-anchor="middle" x="75" y="-7" font-family="Helvetica,sans-Serif" font-size="10.00">ITokenizer.tokenize</text>
</g>
<!-- Node2 -->
<g id="node2" class="node"><title>Node2</title>
<g id="a_node2"><a xlink:href="../../d7/de0/classslogo_1_1backend_1_1test_1_1_tokenization_test.html#a141b1bda5bb560354cce0d2a4c3bf967" target="_top" xlink:title="slogo.backend.test.Tokenization\lTest.testTokenize">
<polygon fill="white" stroke="black" points="186.5,-0 186.5,-30 355.5,-30 355.5,-0 186.5,-0"/>
<text text-anchor="start" x="194.5" y="-18" font-family="Helvetica,sans-Serif" font-size="10.00">slogo.backend.test.Tokenization</text>
<text text-anchor="middle" x="271" y="-7" font-family="Helvetica,sans-Serif" font-size="10.00">Test.testTokenize</text>
</a>
</g>
</g>
<!-- Node1&#45;&gt;Node2 -->
<g id="edge1" class="edge"><title>Node1&#45;&gt;Node2</title>
<path fill="none" stroke="midnightblue" d="M160.289,-15C168.975,-15 177.799,-15 186.477,-15"/>
<polygon fill="midnightblue" stroke="midnightblue" points="160.174,-11.5001 150.173,-15 160.173,-18.5001 160.174,-11.5001"/>
</g>
</g>
</svg>
