<?xml version="1.0" encoding="UTF-8" standalone="no"?>
<!DOCTYPE svg PUBLIC "-//W3C//DTD SVG 1.1//EN"
 "http://www.w3.org/Graphics/SVG/1.1/DTD/svg11.dtd">
<!-- Generated by graphviz version 2.36.0 (20140111.2315)
 -->
<!-- Title: slogo.backend.impl.util.TurtleStatus Pages: 1 -->
<svg width="576pt" height="291pt"
 viewBox="0.00 0.00 576.00 291.00" xmlns="http://www.w3.org/2000/svg" xmlns:xlink="http://www.w3.org/1999/xlink">
<g id="graph0" class="graph" transform="scale(1 1) rotate(0) translate(4 287)">
<title>slogo.backend.impl.util.TurtleStatus</title>
<polygon fill="white" stroke="none" points="-4,4 -4,-287 572,-287 572,4 -4,4"/>
<!-- Node1 -->
<g id="node1" class="node"><title>Node1</title>
<polygon fill="#bfbfbf" stroke="black" points="438.5,-121 438.5,-151 567.5,-151 567.5,-121 438.5,-121"/>
<text text-anchor="start" x="446.5" y="-139" font-family="Helvetica,sans-Serif" font-size="10.00">slogo.backend.impl.util.</text>
<text text-anchor="middle" x="503" y="-128" font-family="Helvetica,sans-Serif" font-size="10.00">TurtleStatus</text>
</g>
<!-- Node2 -->
<g id="node2" class="node"><title>Node2</title>
<g id="a_node2"><a xlink:href="../../da/dce/interfaceslogo_1_1backend_1_1util_1_1_i_turtle_status.html" target="_top" xlink:title="slogo.backend.util.ITurtle\lStatus">
<polygon fill="white" stroke="black" points="180,-253 180,-283 314,-283 314,-253 180,-253"/>
<text text-anchor="start" x="188" y="-271" font-family="Helvetica,sans-Serif" font-size="10.00">slogo.backend.util.ITurtle</text>
<text text-anchor="middle" x="247" y="-260" font-family="Helvetica,sans-Serif" font-size="10.00">Status</text>
</a>
</g>
</g>
<!-- Node2&#45;&gt;Node1 -->
<g id="edge1" class="edge"><title>Node2&#45;&gt;Node1</title>
<path fill="none" stroke="midnightblue" d="M324.241,-252.735C355.328,-244.463 390.758,-232.298 420,-215 448.754,-197.99 475.28,-169.01 489.988,-151.277"/>
<polygon fill="midnightblue" stroke="midnightblue" points="323.128,-249.407 314.313,-255.286 324.87,-256.187 323.128,-249.407"/>
</g>
<!-- Node3 -->
<g id="node3" class="node"><title>Node3</title>
<g id="a_node3"><a xlink:href="../../da/dc2/interfaceslogo_1_1backend_1_1util_1_1_i_coordinates.html" target="_top" xlink:title="slogo.backend.util.ICoordinates">
<polygon fill="white" stroke="black" points="164,-214.5 164,-233.5 330,-233.5 330,-214.5 164,-214.5"/>
<text text-anchor="middle" x="247" y="-221.5" font-family="Helvetica,sans-Serif" font-size="10.00">slogo.backend.util.ICoordinates</text>
</a>
</g>
</g>
<!-- Node3&#45;&gt;Node1 -->
<g id="edge2" class="edge"><title>Node3&#45;&gt;Node1</title>
<path fill="none" stroke="#9a32cd" stroke-dasharray="5,2" d="M298.04,-212.062C308.61,-209.466 319.685,-206.69 330,-204 370.171,-193.525 381.4,-194.281 420,-179 439.579,-171.249 460.593,-160.171 476.445,-151.2"/>
<polygon fill="#9a32cd" stroke="#9a32cd" points="296.988,-208.717 288.103,-214.488 298.648,-215.517 296.988,-208.717"/>
<text text-anchor="middle" x="384" y="-203" font-family="Helvetica,sans-Serif" font-size="10.00"> turtlePosition</text>
</g>
<!-- Node4 -->
<g id="node4" class="node"><title>Node4</title>
<g id="a_node4"><a xlink:href="../../d2/d25/classslogo_1_1backend_1_1impl_1_1util_1_1_qualities.html" target="_top" xlink:title="slogo.backend.impl.util.\lQualities">
<polygon fill="white" stroke="black" points="182.5,-165 182.5,-195 311.5,-195 311.5,-165 182.5,-165"/>
<text text-anchor="start" x="190.5" y="-183" font-family="Helvetica,sans-Serif" font-size="10.00">slogo.backend.impl.util.</text>
<text text-anchor="middle" x="247" y="-172" font-family="Helvetica,sans-Serif" font-size="10.00">Qualities</text>
</a>
</g>
</g>
<!-- Node4&#45;&gt;Node1 -->
<g id="edge3" class="edge"><title>Node4&#45;&gt;Node1</title>
<path fill="none" stroke="#9a32cd" stroke-dasharray="5,2" d="M321.853,-167.779C352.267,-162.686 387.844,-156.652 420,-151 425.987,-149.948 432.216,-148.837 438.447,-147.715"/>
<polygon fill="#9a32cd" stroke="#9a32cd" points="321.035,-164.367 311.749,-169.468 322.189,-171.272 321.035,-164.367"/>
<text text-anchor="middle" x="384" y="-167" font-family="Helvetica,sans-Serif" font-size="10.00"> turtleQualities</text>
</g>
<!-- Node5 -->
<g id="node5" class="node"><title>Node5</title>
<polygon fill="white" stroke="#bfbfbf" points="0.5,-170.5 0.5,-189.5 41.5,-189.5 41.5,-170.5 0.5,-170.5"/>
<text text-anchor="middle" x="21" y="-177.5" font-family="Helvetica,sans-Serif" font-size="10.00">Color</text>
</g>
<!-- Node5&#45;&gt;Node4 -->
<g id="edge4" class="edge"><title>Node5&#45;&gt;Node4</title>
<path fill="none" stroke="#9a32cd" stroke-dasharray="5,2" d="M52.2695,-180C85.4181,-180 139.533,-180 182.155,-180"/>
<polygon fill="#9a32cd" stroke="#9a32cd" points="51.8785,-176.5 41.8785,-180 51.8785,-183.5 51.8785,-176.5"/>
<text text-anchor="middle" x="103" y="-194" font-family="Helvetica,sans-Serif" font-size="10.00"> backgroundColor</text>
<text text-anchor="middle" x="103" y="-183" font-family="Helvetica,sans-Serif" font-size="10.00">pathColor</text>
</g>
<!-- Node6 -->
<g id="node6" class="node"><title>Node6</title>
<g id="a_node6"><a xlink:href="../../d9/d13/enumslogo_1_1backend_1_1util_1_1_visibility.html" target="_top" xlink:title="slogo.backend.util.Visibility">
<polygon fill="white" stroke="black" points="175,-126.5 175,-145.5 319,-145.5 319,-126.5 175,-126.5"/>
<text text-anchor="middle" x="247" y="-133.5" font-family="Helvetica,sans-Serif" font-size="10.00">slogo.backend.util.Visibility</text>
</a>
</g>
</g>
<!-- Node6&#45;&gt;Node1 -->
<g id="edge5" class="edge"><title>Node6&#45;&gt;Node1</title>
<path fill="none" stroke="#9a32cd" stroke-dasharray="5,2" d="M329.361,-136C364.619,-136 405.29,-136 438.298,-136"/>
<polygon fill="#9a32cd" stroke="#9a32cd" points="329.091,-132.5 319.091,-136 329.091,-139.5 329.091,-132.5"/>
<text text-anchor="middle" x="384" y="-139" font-family="Helvetica,sans-Serif" font-size="10.00"> turtleVisibility</text>
</g>
<!-- Node7 -->
<g id="node7" class="node"><title>Node7</title>
<polygon fill="white" stroke="#bfbfbf" points="180,-77 180,-107 314,-107 314,-77 180,-77"/>
<text text-anchor="start" x="188" y="-95" font-family="Helvetica,sans-Serif" font-size="10.00">List&lt; slogo.backend.util.</text>
<text text-anchor="middle" x="247" y="-84" font-family="Helvetica,sans-Serif" font-size="10.00">ILine &gt;</text>
</g>
<!-- Node7&#45;&gt;Node1 -->
<g id="edge6" class="edge"><title>Node7&#45;&gt;Node1</title>
<path fill="none" stroke="#9a32cd" stroke-dasharray="5,2" d="M324.143,-104.604C354.044,-109.615 388.648,-115.49 420,-121 425.987,-122.052 432.216,-123.163 438.447,-124.285"/>
<polygon fill="#9a32cd" stroke="#9a32cd" points="324.636,-101.138 314.195,-102.94 323.481,-108.042 324.636,-101.138"/>
<text text-anchor="middle" x="384" y="-124" font-family="Helvetica,sans-Serif" font-size="10.00"> lineSequence</text>
</g>
<!-- Node8 -->
<g id="node8" class="node"><title>Node8</title>
<g id="a_node8"><a xlink:href="../../df/dee/enumslogo_1_1backend_1_1util_1_1_pen_state.html" target="_top" xlink:title="slogo.backend.util.PenState">
<polygon fill="white" stroke="black" points="172,-38.5 172,-57.5 322,-57.5 322,-38.5 172,-38.5"/>
<text text-anchor="middle" x="247" y="-45.5" font-family="Helvetica,sans-Serif" font-size="10.00">slogo.backend.util.PenState</text>
</a>
</g>
</g>
<!-- Node8&#45;&gt;Node1 -->
<g id="edge7" class="edge"><title>Node8&#45;&gt;Node1</title>
<path fill="none" stroke="#9a32cd" stroke-dasharray="5,2" d="M301.357,-59.8434C310.92,-62.1138 320.775,-64.5503 330,-67 370.362,-77.7188 381.255,-78.4166 420,-94 439.143,-101.699 459.815,-112.304 475.614,-120.931"/>
<polygon fill="#9a32cd" stroke="#9a32cd" points="302.07,-56.4156 291.535,-57.5437 300.474,-63.2313 302.07,-56.4156"/>
<text text-anchor="middle" x="384" y="-97" font-family="Helvetica,sans-Serif" font-size="10.00"> penState</text>
</g>
<!-- Node9 -->
<g id="node9" class="node"><title>Node9</title>
<g id="a_node9"><a xlink:href="../../d0/d07/interfaceslogo_1_1backend_1_1util_1_1_i_direction.html" target="_top" xlink:title="slogo.backend.util.IDirection">
<polygon fill="white" stroke="black" points="171.5,-0.5 171.5,-19.5 322.5,-19.5 322.5,-0.5 171.5,-0.5"/>
<text text-anchor="middle" x="247" y="-7.5" font-family="Helvetica,sans-Serif" font-size="10.00">slogo.backend.util.IDirection</text>
</a>
</g>
</g>
<!-- Node9&#45;&gt;Node1 -->
<g id="edge8" class="edge"><title>Node9&#45;&gt;Node1</title>
<path fill="none" stroke="#9a32cd" stroke-dasharray="5,2" d="M324.123,-21.6647C355.347,-28.7124 390.91,-39.7915 420,-57 448.754,-74.0096 475.28,-102.99 489.988,-120.723"/>
<polygon fill="#9a32cd" stroke="#9a32cd" points="324.665,-18.2011 314.152,-19.5154 323.19,-25.044 324.665,-18.2011"/>
<text text-anchor="middle" x="384" y="-60" font-family="Helvetica,sans-Serif" font-size="10.00"> turtleDirection</text>
</g>
</g>
</svg>
