<?xml version="1.0" encoding="UTF-8" standalone="no"?>
<!DOCTYPE svg PUBLIC "-//W3C//DTD SVG 1.1//EN"
 "http://www.w3.org/Graphics/SVG/1.1/DTD/svg11.dtd">
<!-- Generated by graphviz version 2.36.0 (20140111.2315)
 -->
<!-- Title: slogo.View.executeCommand Pages: 1 -->
<svg width="2186pt" height="421pt"
 viewBox="0.00 0.00 2186.00 420.81" xmlns="http://www.w3.org/2000/svg" xmlns:xlink="http://www.w3.org/1999/xlink">
<g id="graph0" class="graph" transform="scale(1 1) rotate(0) translate(4 416.815)">
<title>slogo.View.executeCommand</title>
<polygon fill="white" stroke="none" points="-4,4 -4,-416.815 2182,-416.815 2182,4 -4,4"/>
<!-- Node1 -->
<g id="node1" class="node"><title>Node1</title>
<polygon fill="#bfbfbf" stroke="black" points="0,-339.315 0,-358.315 158,-358.315 158,-339.315 0,-339.315"/>
<text text-anchor="middle" x="79" y="-346.315" font-family="Helvetica,sans-Serif" font-size="10.00">slogo.View.executeCommand</text>
</g>
<!-- Node2 -->
<g id="node2" class="node"><title>Node2</title>
<g id="a_node2"><a xlink:href="../../df/d2d/classslogo_1_1_view.html#aee563f6a0b15ac6668e4dcbdad40c73c" target="_top" xlink:title="slogo.View.sendCommandTo\lBackend">
<polygon fill="white" stroke="black" points="200,-169.815 200,-199.815 352,-199.815 352,-169.815 200,-169.815"/>
<text text-anchor="start" x="208" y="-187.815" font-family="Helvetica,sans-Serif" font-size="10.00">slogo.View.sendCommandTo</text>
<text text-anchor="middle" x="276" y="-176.815" font-family="Helvetica,sans-Serif" font-size="10.00">Backend</text>
</a>
</g>
</g>
<!-- Node1&#45;&gt;Node2 -->
<g id="edge1" class="edge"><title>Node1&#45;&gt;Node2</title>
<path fill="none" stroke="midnightblue" d="M99.0543,-332.789C136.765,-301.074 220.433,-230.706 257.146,-199.831"/>
<polygon fill="midnightblue" stroke="midnightblue" points="96.7273,-330.173 91.3269,-339.288 101.233,-335.53 96.7273,-330.173"/>
</g>
<!-- Node22 -->
<g id="node22" class="node"><title>Node22</title>
<g id="a_node22"><a xlink:href="../../df/d2d/classslogo_1_1_view.html#a4c3084a198acf85804800d70eff9ee51" target="_top" xlink:title="slogo.View.stepIntoCommand">
<polygon fill="white" stroke="black" points="197,-382.315 197,-401.315 355,-401.315 355,-382.315 197,-382.315"/>
<text text-anchor="middle" x="276" y="-389.315" font-family="Helvetica,sans-Serif" font-size="10.00">slogo.View.stepIntoCommand</text>
</a>
</g>
</g>
<!-- Node1&#45;&gt;Node22 -->
<g id="edge29" class="edge"><title>Node1&#45;&gt;Node22</title>
<path fill="none" stroke="midnightblue" d="M133.056,-360.514C164.068,-367.353 202.711,-375.874 231.844,-382.298"/>
<polygon fill="midnightblue" stroke="midnightblue" points="133.796,-357.093 123.277,-358.358 132.288,-363.929 133.796,-357.093"/>
</g>
<!-- Node26 -->
<g id="node26" class="node"><title>Node26</title>
<g id="a_node26"><a xlink:href="../../df/d2d/classslogo_1_1_view.html#ac8b7f574c679e744a430f1649dc55e68" target="_top" xlink:title="slogo.View.stepOverCommand">
<polygon fill="white" stroke="black" points="194.5,-339.315 194.5,-358.315 357.5,-358.315 357.5,-339.315 194.5,-339.315"/>
<text text-anchor="middle" x="276" y="-346.315" font-family="Helvetica,sans-Serif" font-size="10.00">slogo.View.stepOverCommand</text>
</a>
</g>
</g>
<!-- Node1&#45;&gt;Node26 -->
<g id="edge34" class="edge"><title>Node1&#45;&gt;Node26</title>
<path fill="none" stroke="midnightblue" d="M168.281,-348.815C176.929,-348.815 185.675,-348.815 194.243,-348.815"/>
<polygon fill="midnightblue" stroke="midnightblue" points="168.19,-345.315 158.19,-348.815 168.19,-352.315 168.19,-345.315"/>
</g>
<!-- Node3 -->
<g id="node3" class="node"><title>Node3</title>
<g id="a_node3"><a xlink:href="../../d4/d8d/classslogo_1_1_u_i_1_1_background_color_selector.html#ad75ba4ce104e071811d0fe039a4e839f" target="_top" xlink:title="slogo.UI.BackgroundColor\lSelector.create">
<polygon fill="white" stroke="black" points="427,-120.815 427,-150.815 567,-150.815 567,-120.815 427,-120.815"/>
<text text-anchor="start" x="435" y="-138.815" font-family="Helvetica,sans-Serif" font-size="10.00">slogo.UI.BackgroundColor</text>
<text text-anchor="middle" x="497" y="-127.815" font-family="Helvetica,sans-Serif" font-size="10.00">Selector.create</text>
</a>
</g>
</g>
<!-- Node2&#45;&gt;Node3 -->
<g id="edge2" class="edge"><title>Node2&#45;&gt;Node3</title>
<path fill="none" stroke="midnightblue" d="M354.133,-167.556C378.535,-162.097 405.294,-156.11 428.932,-150.821"/>
<polygon fill="midnightblue" stroke="midnightblue" points="353.19,-164.181 344.196,-169.78 354.718,-171.012 353.19,-164.181"/>
</g>
<!-- Node10 -->
<g id="node10" class="node"><title>Node10</title>
<g id="a_node10"><a xlink:href="../../db/d19/classslogo_1_1_u_i_1_1_module_creation_helper.html#a3a38d485562cb17591ec3fd07cffc18a" target="_top" xlink:title="slogo.UI.ModuleCreationHelper.activate\lTurtleCanvas">
<polygon fill="white" stroke="black" points="878.5,-245.815 878.5,-275.815 1083.5,-275.815 1083.5,-245.815 878.5,-245.815"/>
<text text-anchor="start" x="886.5" y="-263.815" font-family="Helvetica,sans-Serif" font-size="10.00">slogo.UI.ModuleCreationHelper.activate</text>
<text text-anchor="middle" x="981" y="-252.815" font-family="Helvetica,sans-Serif" font-size="10.00">TurtleCanvas</text>
</a>
</g>
</g>
<!-- Node2&#45;&gt;Node10 -->
<g id="edge10" class="edge"><title>Node2&#45;&gt;Node10</title>
<path fill="none" stroke="midnightblue" d="M317.852,-204.015C339.906,-213.479 367.894,-224.07 394,-229.815 560.783,-266.515 760.396,-268.445 878.338,-265.403"/>
<polygon fill="midnightblue" stroke="midnightblue" points="319.04,-200.714 308.476,-199.906 316.23,-207.126 319.04,-200.714"/>
</g>
<!-- Node12 -->
<g id="node12" class="node"><title>Node12</title>
<g id="a_node12"><a xlink:href="../../db/d19/classslogo_1_1_u_i_1_1_module_creation_helper.html#a9b1f07ab673191067907a059b1b0c524" target="_top" xlink:title="slogo.UI.ModuleCreationHelper.activate\lPlayButton">
<polygon fill="white" stroke="black" points="394.5,-169.815 394.5,-199.815 599.5,-199.815 599.5,-169.815 394.5,-169.815"/>
<text text-anchor="start" x="402.5" y="-187.815" font-family="Helvetica,sans-Serif" font-size="10.00">slogo.UI.ModuleCreationHelper.activate</text>
<text text-anchor="middle" x="497" y="-176.815" font-family="Helvetica,sans-Serif" font-size="10.00">PlayButton</text>
</a>
</g>
</g>
<!-- Node2&#45;&gt;Node12 -->
<g id="edge13" class="edge"><title>Node2&#45;&gt;Node12</title>
<path fill="none" stroke="midnightblue" d="M362.082,-184.815C372.652,-184.815 383.54,-184.815 394.327,-184.815"/>
<polygon fill="midnightblue" stroke="midnightblue" points="362.061,-181.315 352.061,-184.815 362.061,-188.315 362.061,-181.315"/>
</g>
<!-- Node15 -->
<g id="node15" class="node"><title>Node15</title>
<g id="a_node15"><a xlink:href="../../db/d19/classslogo_1_1_u_i_1_1_module_creation_helper.html#a2e841243ec3ca474e8822102343acc88" target="_top" xlink:title="slogo.UI.ModuleCreationHelper.activate\lNewTurtleButton">
<polygon fill="white" stroke="black" points="636.5,-7.8146 636.5,-37.8146 841.5,-37.8146 841.5,-7.8146 636.5,-7.8146"/>
<text text-anchor="start" x="644.5" y="-25.8146" font-family="Helvetica,sans-Serif" font-size="10.00">slogo.UI.ModuleCreationHelper.activate</text>
<text text-anchor="middle" x="739" y="-14.8146" font-family="Helvetica,sans-Serif" font-size="10.00">NewTurtleButton</text>
</a>
</g>
</g>
<!-- Node2&#45;&gt;Node15 -->
<g id="edge17" class="edge"><title>Node2&#45;&gt;Node15</title>
<path fill="none" stroke="midnightblue" d="M287.751,-160.268C304.628,-125.157 340.98,-61.8553 394,-34.8146 477.845,7.9468 588.73,2.63379 661.647,-7.78532"/>
<polygon fill="midnightblue" stroke="midnightblue" points="284.371,-159.237 283.325,-169.78 290.717,-162.19 284.371,-159.237"/>
</g>
<!-- Node17 -->
<g id="node17" class="node"><title>Node17</title>
<g id="a_node17"><a xlink:href="../../db/d19/classslogo_1_1_u_i_1_1_module_creation_helper.html#a69e17abcc7cf9a6ed7261d8fb1d631fa" target="_top" xlink:title="slogo.UI.ModuleCreationHelper.activate\lIncreaseDecreaseButtons">
<polygon fill="white" stroke="black" points="636.5,-206.815 636.5,-236.815 841.5,-236.815 841.5,-206.815 636.5,-206.815"/>
<text text-anchor="start" x="644.5" y="-224.815" font-family="Helvetica,sans-Serif" font-size="10.00">slogo.UI.ModuleCreationHelper.activate</text>
<text text-anchor="middle" x="739" y="-213.815" font-family="Helvetica,sans-Serif" font-size="10.00">IncreaseDecreaseButtons</text>
</a>
</g>
</g>
<!-- Node2&#45;&gt;Node17 -->
<g id="edge20" class="edge"><title>Node2&#45;&gt;Node17</title>
<path fill="none" stroke="midnightblue" d="M350.56,-201.823C364.898,-204.593 379.866,-207.11 394,-208.815 475.14,-218.602 567.753,-221.643 636.429,-222.352"/>
<polygon fill="midnightblue" stroke="midnightblue" points="351.243,-198.39 340.752,-199.871 349.877,-205.255 351.243,-198.39"/>
</g>
<!-- Node19 -->
<g id="node19" class="node"><title>Node19</title>
<g id="a_node19"><a xlink:href="../../db/d19/classslogo_1_1_u_i_1_1_module_creation_helper.html#aa70b0ad9e90e62509149bfd2ef2ba209" target="_top" xlink:title="slogo.UI.ModuleCreationHelper.activate\lKeyEvents">
<polygon fill="white" stroke="black" points="1120.5,-289.815 1120.5,-319.815 1325.5,-319.815 1325.5,-289.815 1120.5,-289.815"/>
<text text-anchor="start" x="1128.5" y="-307.815" font-family="Helvetica,sans-Serif" font-size="10.00">slogo.UI.ModuleCreationHelper.activate</text>
<text text-anchor="middle" x="1223" y="-296.815" font-family="Helvetica,sans-Serif" font-size="10.00">KeyEvents</text>
</a>
</g>
</g>
<!-- Node2&#45;&gt;Node19 -->
<g id="edge23" class="edge"><title>Node2&#45;&gt;Node19</title>
<path fill="none" stroke="midnightblue" d="M302.65,-206.222C325.183,-223.694 359.646,-247.308 394,-258.815 525.739,-302.941 929.454,-306.678 1120.18,-305.845"/>
<polygon fill="midnightblue" stroke="midnightblue" points="304.636,-203.329 294.624,-199.864 300.289,-208.816 304.636,-203.329"/>
</g>
<!-- Node20 -->
<g id="node20" class="node"><title>Node20</title>
<g id="a_node20"><a xlink:href="../../d1/d5f/classslogo_1_1_u_i_1_1_path_color_selector.html#ad3d9c82a0904c97edcec7cf67b85bd7b" target="_top" xlink:title="slogo.UI.PathColorSelector.create">
<polygon fill="white" stroke="black" points="409,-82.3146 409,-101.315 585,-101.315 585,-82.3146 409,-82.3146"/>
<text text-anchor="middle" x="497" y="-89.3146" font-family="Helvetica,sans-Serif" font-size="10.00">slogo.UI.PathColorSelector.create</text>
</a>
</g>
</g>
<!-- Node2&#45;&gt;Node20 -->
<g id="edge25" class="edge"><title>Node2&#45;&gt;Node20</title>
<path fill="none" stroke="midnightblue" d="M304.184,-163.384C326.92,-146.539 360.871,-123.819 394,-110.815 403.893,-106.931 414.643,-103.829 425.331,-101.353"/>
<polygon fill="midnightblue" stroke="midnightblue" points="301.923,-160.705 296.044,-169.519 306.136,-166.295 301.923,-160.705"/>
</g>
<!-- Node21 -->
<g id="node21" class="node"><title>Node21</title>
<g id="a_node21"><a xlink:href="../../dd/da7/classslogo_1_1_u_i_1_1_turtle_image_selector.html#a3f268d9196ffebcbb5dc322d2897a9fe" target="_top" xlink:title="slogo.UI.TurtleImageSelector.create">
<polygon fill="white" stroke="black" points="404,-44.3146 404,-63.3146 590,-63.3146 590,-44.3146 404,-44.3146"/>
<text text-anchor="middle" x="497" y="-51.3146" font-family="Helvetica,sans-Serif" font-size="10.00">slogo.UI.TurtleImageSelector.create</text>
</a>
</g>
</g>
<!-- Node2&#45;&gt;Node21 -->
<g id="edge27" class="edge"><title>Node2&#45;&gt;Node21</title>
<path fill="none" stroke="midnightblue" d="M294.399,-161.437C315.109,-135.43 352.188,-94.2574 394,-72.8146 401.613,-68.9102 409.913,-65.8005 418.382,-63.3252"/>
<polygon fill="midnightblue" stroke="midnightblue" points="291.405,-159.586 288.021,-169.625 296.927,-163.888 291.405,-159.586"/>
</g>
<!-- Node4 -->
<g id="node4" class="node"><title>Node4</title>
<g id="a_node4"><a xlink:href="../../db/d19/classslogo_1_1_u_i_1_1_module_creation_helper.html#af7f2919454fdbf6e9d7d912e99634857" target="_top" xlink:title="slogo.UI.ModuleCreationHelper.create\lSelectors">
<polygon fill="white" stroke="black" points="640.5,-83.8146 640.5,-113.815 837.5,-113.815 837.5,-83.8146 640.5,-83.8146"/>
<text text-anchor="start" x="648.5" y="-101.815" font-family="Helvetica,sans-Serif" font-size="10.00">slogo.UI.ModuleCreationHelper.create</text>
<text text-anchor="middle" x="739" y="-90.8146" font-family="Helvetica,sans-Serif" font-size="10.00">Selectors</text>
</a>
</g>
</g>
<!-- Node3&#45;&gt;Node4 -->
<g id="edge3" class="edge"><title>Node3&#45;&gt;Node4</title>
<path fill="none" stroke="midnightblue" d="M577.179,-123.608C597.396,-120.491 619.368,-117.104 640.389,-113.863"/>
<polygon fill="midnightblue" stroke="midnightblue" points="576.446,-120.179 567.096,-125.162 577.513,-127.098 576.446,-120.179"/>
</g>
<!-- Node5 -->
<g id="node5" class="node"><title>Node5</title>
<g id="a_node5"><a xlink:href="../../db/d19/classslogo_1_1_u_i_1_1_module_creation_helper.html#a7c650957b2389d6e6d36e8be8a33cd2b" target="_top" xlink:title="slogo.UI.ModuleCreationHelper.create\lSelectorVBoxModules">
<polygon fill="white" stroke="black" points="1124.5,-150.815 1124.5,-180.815 1321.5,-180.815 1321.5,-150.815 1124.5,-150.815"/>
<text text-anchor="start" x="1132.5" y="-168.815" font-family="Helvetica,sans-Serif" font-size="10.00">slogo.UI.ModuleCreationHelper.create</text>
<text text-anchor="middle" x="1223" y="-157.815" font-family="Helvetica,sans-Serif" font-size="10.00">SelectorVBoxModules</text>
</a>
</g>
</g>
<!-- Node4&#45;&gt;Node5 -->
<g id="edge4" class="edge"><title>Node4&#45;&gt;Node5</title>
<path fill="none" stroke="midnightblue" d="M848.086,-108.626C916.014,-115.395 1005.36,-125.404 1084,-137.815 1106.82,-141.416 1131.6,-146.174 1153.78,-150.744"/>
<polygon fill="midnightblue" stroke="midnightblue" points="848.094,-105.11 837.798,-107.609 847.406,-112.076 848.094,-105.11"/>
</g>
<!-- Node6 -->
<g id="node6" class="node"><title>Node6</title>
<g id="a_node6"><a xlink:href="../../db/d19/classslogo_1_1_u_i_1_1_module_creation_helper.html#afb9dbbbad7d872234a5b296fe129a34e" target="_top" xlink:title="slogo.UI.ModuleCreationHelper.create\lMainPageModules">
<polygon fill="white" stroke="black" points="1362.5,-240.815 1362.5,-270.815 1559.5,-270.815 1559.5,-240.815 1362.5,-240.815"/>
<text text-anchor="start" x="1370.5" y="-258.815" font-family="Helvetica,sans-Serif" font-size="10.00">slogo.UI.ModuleCreationHelper.create</text>
<text text-anchor="middle" x="1461" y="-247.815" font-family="Helvetica,sans-Serif" font-size="10.00">MainPageModules</text>
</a>
</g>
</g>
<!-- Node5&#45;&gt;Node6 -->
<g id="edge5" class="edge"><title>Node5&#45;&gt;Node6</title>
<path fill="none" stroke="midnightblue" d="M1273.06,-184.524C1316.74,-201.18 1379.82,-225.238 1420.37,-240.701"/>
<polygon fill="midnightblue" stroke="midnightblue" points="1274.09,-181.172 1263.5,-180.879 1271.6,-187.712 1274.09,-181.172"/>
</g>
<!-- Node7 -->
<g id="node7" class="node"><title>Node7</title>
<g id="a_node7"><a xlink:href="../../d9/d33/classslogo_1_1_u_i_1_1_main.html#a15b7f2e399ee24d160550993ab737e73" target="_top" xlink:title="slogo.UI.Main.start">
<polygon fill="white" stroke="black" points="1596,-222.315 1596,-241.315 1702,-241.315 1702,-222.315 1596,-222.315"/>
<text text-anchor="middle" x="1649" y="-229.315" font-family="Helvetica,sans-Serif" font-size="10.00">slogo.UI.Main.start</text>
</a>
</g>
</g>
<!-- Node6&#45;&gt;Node7 -->
<g id="edge6" class="edge"><title>Node6&#45;&gt;Node7</title>
<path fill="none" stroke="midnightblue" d="M1569.8,-241.904C1578.76,-240.749 1587.53,-239.617 1595.76,-238.555"/>
<polygon fill="midnightblue" stroke="midnightblue" points="1569.1,-238.466 1559.63,-243.217 1570,-245.409 1569.1,-238.466"/>
</g>
<!-- Node8 -->
<g id="node8" class="node"><title>Node8</title>
<g id="a_node8"><a xlink:href="../../db/d19/classslogo_1_1_u_i_1_1_module_creation_helper.html#a3be12a7cc2b8a219db1e296211a2cb88" target="_top" xlink:title="slogo.UI.ModuleCreationHelper.activate\lExtraWorkspaceButton">
<polygon fill="white" stroke="black" points="1738.5,-204.815 1738.5,-234.815 1943.5,-234.815 1943.5,-204.815 1738.5,-204.815"/>
<text text-anchor="start" x="1746.5" y="-222.815" font-family="Helvetica,sans-Serif" font-size="10.00">slogo.UI.ModuleCreationHelper.activate</text>
<text text-anchor="middle" x="1841" y="-211.815" font-family="Helvetica,sans-Serif" font-size="10.00">ExtraWorkspaceButton</text>
</a>
</g>
</g>
<!-- Node7&#45;&gt;Node8 -->
<g id="edge7" class="edge"><title>Node7&#45;&gt;Node8</title>
<path fill="none" stroke="midnightblue" d="M1712.22,-227.885C1720.63,-227.354 1729.44,-226.797 1738.32,-226.236"/>
<polygon fill="midnightblue" stroke="midnightblue" points="1711.93,-224.396 1702.17,-228.52 1712.37,-231.382 1711.93,-224.396"/>
</g>
<!-- Node9 -->
<g id="node9" class="node"><title>Node9</title>
<g id="a_node9"><a xlink:href="../../db/d19/classslogo_1_1_u_i_1_1_module_creation_helper.html#a702c1ebe24d2857a10c666eb1fcc315d" target="_top" xlink:title="slogo.UI.ModuleCreationHelper.create\lExtraWorkspaceButton">
<polygon fill="white" stroke="black" points="1980.5,-179.815 1980.5,-209.815 2177.5,-209.815 2177.5,-179.815 1980.5,-179.815"/>
<text text-anchor="start" x="1988.5" y="-197.815" font-family="Helvetica,sans-Serif" font-size="10.00">slogo.UI.ModuleCreationHelper.create</text>
<text text-anchor="middle" x="2079" y="-186.815" font-family="Helvetica,sans-Serif" font-size="10.00">ExtraWorkspaceButton</text>
</a>
</g>
</g>
<!-- Node8&#45;&gt;Node9 -->
<g id="edge8" class="edge"><title>Node8&#45;&gt;Node9</title>
<path fill="none" stroke="midnightblue" d="M1953.77,-207.975C1962.62,-207.037 1971.52,-206.094 1980.27,-205.167"/>
<polygon fill="midnightblue" stroke="midnightblue" points="1953.37,-204.497 1943.8,-209.031 1954.11,-211.458 1953.37,-204.497"/>
</g>
<!-- Node9&#45;&gt;Node5 -->
<g id="edge9" class="edge"><title>Node9&#45;&gt;Node5</title>
<path fill="none" stroke="midnightblue" d="M1970.34,-191.159C1802.9,-185.473 1482.6,-174.596 1321.55,-169.127"/>
<polygon fill="midnightblue" stroke="midnightblue" points="1970.3,-194.659 1980.41,-191.501 1970.54,-187.663 1970.3,-194.659"/>
</g>
<!-- Node11 -->
<g id="node11" class="node"><title>Node11</title>
<g id="a_node11"><a xlink:href="../../db/d19/classslogo_1_1_u_i_1_1_module_creation_helper.html#a803bac6b55bde712b21f2face1eeef81" target="_top" xlink:title="slogo.UI.ModuleCreationHelper.create\lTurtleCanvas">
<polygon fill="white" stroke="black" points="1124.5,-240.815 1124.5,-270.815 1321.5,-270.815 1321.5,-240.815 1124.5,-240.815"/>
<text text-anchor="start" x="1132.5" y="-258.815" font-family="Helvetica,sans-Serif" font-size="10.00">slogo.UI.ModuleCreationHelper.create</text>
<text text-anchor="middle" x="1223" y="-247.815" font-family="Helvetica,sans-Serif" font-size="10.00">TurtleCanvas</text>
</a>
</g>
</g>
<!-- Node10&#45;&gt;Node11 -->
<g id="edge11" class="edge"><title>Node10&#45;&gt;Node11</title>
<path fill="none" stroke="midnightblue" d="M1093.89,-258.484C1104.04,-258.272 1114.26,-258.059 1124.27,-257.851"/>
<polygon fill="midnightblue" stroke="midnightblue" points="1093.71,-254.987 1083.78,-258.694 1093.85,-261.985 1093.71,-254.987"/>
</g>
<!-- Node11&#45;&gt;Node6 -->
<g id="edge12" class="edge"><title>Node11&#45;&gt;Node6</title>
<path fill="none" stroke="midnightblue" d="M1331.83,-255.815C1342.01,-255.815 1352.3,-255.815 1362.38,-255.815"/>
<polygon fill="midnightblue" stroke="midnightblue" points="1331.69,-252.315 1321.69,-255.815 1331.69,-259.315 1331.69,-252.315"/>
</g>
<!-- Node13 -->
<g id="node13" class="node"><title>Node13</title>
<g id="a_node13"><a xlink:href="../../db/d19/classslogo_1_1_u_i_1_1_module_creation_helper.html#a9b3fb38a55b3b7812b4f793afa7a974f" target="_top" xlink:title="slogo.UI.ModuleCreationHelper.create\lPlayButton">
<polygon fill="white" stroke="black" points="640.5,-154.815 640.5,-184.815 837.5,-184.815 837.5,-154.815 640.5,-154.815"/>
<text text-anchor="start" x="648.5" y="-172.815" font-family="Helvetica,sans-Serif" font-size="10.00">slogo.UI.ModuleCreationHelper.create</text>
<text text-anchor="middle" x="739" y="-161.815" font-family="Helvetica,sans-Serif" font-size="10.00">PlayButton</text>
</a>
</g>
</g>
<!-- Node12&#45;&gt;Node13 -->
<g id="edge14" class="edge"><title>Node12&#45;&gt;Node13</title>
<path fill="none" stroke="midnightblue" d="M609.89,-177.821C620.035,-177.187 630.258,-176.548 640.267,-175.923"/>
<polygon fill="midnightblue" stroke="midnightblue" points="609.544,-174.336 599.782,-178.453 609.98,-181.323 609.544,-174.336"/>
</g>
<!-- Node14 -->
<g id="node14" class="node"><title>Node14</title>
<g id="a_node14"><a xlink:href="../../db/d19/classslogo_1_1_u_i_1_1_module_creation_helper.html#ae1e60d37509c2e5eddcb2a6e70b4f650" target="_top" xlink:title="slogo.UI.ModuleCreationHelper.create\lFirstRowButtons">
<polygon fill="white" stroke="black" points="882.5,-147.815 882.5,-177.815 1079.5,-177.815 1079.5,-147.815 882.5,-147.815"/>
<text text-anchor="start" x="890.5" y="-165.815" font-family="Helvetica,sans-Serif" font-size="10.00">slogo.UI.ModuleCreationHelper.create</text>
<text text-anchor="middle" x="981" y="-154.815" font-family="Helvetica,sans-Serif" font-size="10.00">FirstRowButtons</text>
</a>
</g>
</g>
<!-- Node13&#45;&gt;Node14 -->
<g id="edge15" class="edge"><title>Node13&#45;&gt;Node14</title>
<path fill="none" stroke="midnightblue" d="M847.734,-166.672C859.304,-166.335 871.028,-165.993 882.469,-165.659"/>
<polygon fill="midnightblue" stroke="midnightblue" points="847.511,-163.177 837.617,-166.967 847.715,-170.174 847.511,-163.177"/>
</g>
<!-- Node14&#45;&gt;Node5 -->
<g id="edge16" class="edge"><title>Node14&#45;&gt;Node5</title>
<path fill="none" stroke="midnightblue" d="M1089.73,-164.161C1101.3,-164.306 1113.03,-164.452 1124.47,-164.595"/>
<polygon fill="midnightblue" stroke="midnightblue" points="1089.66,-160.66 1079.62,-164.035 1089.57,-167.66 1089.66,-160.66"/>
</g>
<!-- Node16 -->
<g id="node16" class="node"><title>Node16</title>
<g id="a_node16"><a xlink:href="../../db/d19/classslogo_1_1_u_i_1_1_module_creation_helper.html#a07f5483df317cdf80e8ea2dda5699afa" target="_top" xlink:title="slogo.UI.ModuleCreationHelper.create\lNewTurtleButton">
<polygon fill="white" stroke="black" points="882.5,-30.8146 882.5,-60.8146 1079.5,-60.8146 1079.5,-30.8146 882.5,-30.8146"/>
<text text-anchor="start" x="890.5" y="-48.8146" font-family="Helvetica,sans-Serif" font-size="10.00">slogo.UI.ModuleCreationHelper.create</text>
<text text-anchor="middle" x="981" y="-37.8146" font-family="Helvetica,sans-Serif" font-size="10.00">NewTurtleButton</text>
</a>
</g>
</g>
<!-- Node15&#45;&gt;Node16 -->
<g id="edge18" class="edge"><title>Node15&#45;&gt;Node16</title>
<path fill="none" stroke="midnightblue" d="M851.89,-33.5374C862.035,-34.5096 872.258,-35.4893 882.267,-36.4485"/>
<polygon fill="midnightblue" stroke="midnightblue" points="852.07,-30.0387 841.782,-32.5687 851.402,-37.0068 852.07,-30.0387"/>
</g>
<!-- Node16&#45;&gt;Node5 -->
<g id="edge19" class="edge"><title>Node16&#45;&gt;Node5</title>
<path fill="none" stroke="midnightblue" d="M1026.84,-65.2393C1044.75,-73.2041 1065.48,-82.6843 1084,-91.8146 1123.26,-111.165 1167.72,-135.445 1195.31,-150.8"/>
<polygon fill="midnightblue" stroke="midnightblue" points="1027.77,-61.8255 1017.21,-60.9822 1024.94,-68.2275 1027.77,-61.8255"/>
</g>
<!-- Node18 -->
<g id="node18" class="node"><title>Node18</title>
<g id="a_node18"><a xlink:href="../../db/d19/classslogo_1_1_u_i_1_1_module_creation_helper.html#adce7362386f9a7b3006e7db08a2d578d" target="_top" xlink:title="slogo.UI.ModuleCreationHelper.create\lIncreaseDecreaseButtons">
<polygon fill="white" stroke="black" points="882.5,-196.815 882.5,-226.815 1079.5,-226.815 1079.5,-196.815 882.5,-196.815"/>
<text text-anchor="start" x="890.5" y="-214.815" font-family="Helvetica,sans-Serif" font-size="10.00">slogo.UI.ModuleCreationHelper.create</text>
<text text-anchor="middle" x="981" y="-203.815" font-family="Helvetica,sans-Serif" font-size="10.00">IncreaseDecreaseButtons</text>
</a>
</g>
</g>
<!-- Node17&#45;&gt;Node18 -->
<g id="edge21" class="edge"><title>Node17&#45;&gt;Node18</title>
<path fill="none" stroke="midnightblue" d="M851.89,-217.153C862.035,-216.73 872.258,-216.304 882.267,-215.887"/>
<polygon fill="midnightblue" stroke="midnightblue" points="851.627,-213.66 841.782,-217.574 851.919,-220.654 851.627,-213.66"/>
</g>
<!-- Node18&#45;&gt;Node5 -->
<g id="edge22" class="edge"><title>Node18&#45;&gt;Node5</title>
<path fill="none" stroke="midnightblue" d="M1070.72,-194.811C1094.64,-190.226 1120.34,-185.3 1143.65,-180.832"/>
<polygon fill="midnightblue" stroke="midnightblue" points="1069.75,-191.433 1060.58,-196.752 1071.07,-198.307 1069.75,-191.433"/>
</g>
<!-- Node19&#45;&gt;Node6 -->
<g id="edge24" class="edge"><title>Node19&#45;&gt;Node6</title>
<path fill="none" stroke="midnightblue" d="M1306.42,-287.702C1332.9,-282.203 1362.03,-276.157 1387.73,-270.821"/>
<polygon fill="midnightblue" stroke="midnightblue" points="1305.49,-284.32 1296.41,-289.78 1306.91,-291.174 1305.49,-284.32"/>
</g>
<!-- Node20&#45;&gt;Node4 -->
<g id="edge26" class="edge"><title>Node20&#45;&gt;Node4</title>
<path fill="none" stroke="midnightblue" d="M595.45,-94.6569C610.2,-95.0871 625.423,-95.5311 640.181,-95.9616"/>
<polygon fill="midnightblue" stroke="midnightblue" points="595.422,-91.1547 585.324,-94.3616 595.218,-98.1517 595.422,-91.1547"/>
</g>
<!-- Node21&#45;&gt;Node4 -->
<g id="edge28" class="edge"><title>Node21&#45;&gt;Node4</title>
<path fill="none" stroke="midnightblue" d="M559.434,-65.2369C572.807,-67.7293 586.879,-70.3565 600,-72.8146 618.931,-76.3611 639.319,-80.1947 658.463,-83.8005"/>
<polygon fill="midnightblue" stroke="midnightblue" points="559.843,-61.753 549.371,-63.3623 558.561,-68.6346 559.843,-61.753"/>
</g>
<!-- Node23 -->
<g id="node23" class="node"><title>Node23</title>
<g id="a_node23"><a xlink:href="../../db/d19/classslogo_1_1_u_i_1_1_module_creation_helper.html#a9fd730f7c1860d34bf4ac46c3828bd59" target="_top" xlink:title="slogo.UI.ModuleCreationHelper.activate\lStepIntoButton">
<polygon fill="white" stroke="black" points="394.5,-382.815 394.5,-412.815 599.5,-412.815 599.5,-382.815 394.5,-382.815"/>
<text text-anchor="start" x="402.5" y="-400.815" font-family="Helvetica,sans-Serif" font-size="10.00">slogo.UI.ModuleCreationHelper.activate</text>
<text text-anchor="middle" x="497" y="-389.815" font-family="Helvetica,sans-Serif" font-size="10.00">StepIntoButton</text>
</a>
</g>
</g>
<!-- Node22&#45;&gt;Node23 -->
<g id="edge30" class="edge"><title>Node22&#45;&gt;Node23</title>
<path fill="none" stroke="midnightblue" d="M365.334,-394.235C374.824,-394.495 384.535,-394.761 394.167,-395.025"/>
<polygon fill="midnightblue" stroke="midnightblue" points="365.229,-390.731 355.137,-393.955 365.037,-397.728 365.229,-390.731"/>
</g>
<!-- Node24 -->
<g id="node24" class="node"><title>Node24</title>
<g id="a_node24"><a xlink:href="../../db/d19/classslogo_1_1_u_i_1_1_module_creation_helper.html#a4a6f1f009507c25be8c7c28cbba35f3b" target="_top" xlink:title="slogo.UI.ModuleCreationHelper.create\lDebugStepIntoButton">
<polygon fill="white" stroke="black" points="640.5,-382.815 640.5,-412.815 837.5,-412.815 837.5,-382.815 640.5,-382.815"/>
<text text-anchor="start" x="648.5" y="-400.815" font-family="Helvetica,sans-Serif" font-size="10.00">slogo.UI.ModuleCreationHelper.create</text>
<text text-anchor="middle" x="739" y="-389.815" font-family="Helvetica,sans-Serif" font-size="10.00">DebugStepIntoButton</text>
</a>
</g>
</g>
<!-- Node23&#45;&gt;Node24 -->
<g id="edge31" class="edge"><title>Node23&#45;&gt;Node24</title>
<path fill="none" stroke="midnightblue" d="M609.89,-397.815C620.035,-397.815 630.258,-397.815 640.267,-397.815"/>
<polygon fill="midnightblue" stroke="midnightblue" points="609.782,-394.315 599.782,-397.815 609.782,-401.315 609.782,-394.315"/>
</g>
<!-- Node25 -->
<g id="node25" class="node"><title>Node25</title>
<g id="a_node25"><a xlink:href="../../db/d19/classslogo_1_1_u_i_1_1_module_creation_helper.html#a975af4ea47dc85df72215bdf1a0d20ce" target="_top" xlink:title="slogo.UI.ModuleCreationHelper.create\lDebugModules">
<polygon fill="white" stroke="black" points="882.5,-333.815 882.5,-363.815 1079.5,-363.815 1079.5,-333.815 882.5,-333.815"/>
<text text-anchor="start" x="890.5" y="-351.815" font-family="Helvetica,sans-Serif" font-size="10.00">slogo.UI.ModuleCreationHelper.create</text>
<text text-anchor="middle" x="981" y="-340.815" font-family="Helvetica,sans-Serif" font-size="10.00">DebugModules</text>
</a>
</g>
</g>
<!-- Node24&#45;&gt;Node25 -->
<g id="edge32" class="edge"><title>Node24&#45;&gt;Node25</title>
<path fill="none" stroke="midnightblue" d="M823.461,-380.775C850.489,-375.256 880.251,-369.18 906.5,-363.821"/>
<polygon fill="midnightblue" stroke="midnightblue" points="822.737,-377.35 813.639,-382.78 824.137,-384.209 822.737,-377.35"/>
</g>
<!-- Node25&#45;&gt;Node6 -->
<g id="edge33" class="edge"><title>Node25&#45;&gt;Node6</title>
<path fill="none" stroke="midnightblue" d="M1089.53,-354.531C1158.4,-355.29 1248.97,-350.834 1326,-328.815 1369.05,-316.508 1413.66,-288.636 1439.01,-271.113"/>
<polygon fill="midnightblue" stroke="midnightblue" points="1089.59,-351.032 1079.53,-354.383 1089.48,-358.031 1089.59,-351.032"/>
</g>
<!-- Node27 -->
<g id="node27" class="node"><title>Node27</title>
<g id="a_node27"><a xlink:href="../../db/d19/classslogo_1_1_u_i_1_1_module_creation_helper.html#a0fed0bb32bf2643d6fd5c24d82e8e18e" target="_top" xlink:title="slogo.UI.ModuleCreationHelper.activate\lStepOverButton">
<polygon fill="white" stroke="black" points="394.5,-333.815 394.5,-363.815 599.5,-363.815 599.5,-333.815 394.5,-333.815"/>
<text text-anchor="start" x="402.5" y="-351.815" font-family="Helvetica,sans-Serif" font-size="10.00">slogo.UI.ModuleCreationHelper.activate</text>
<text text-anchor="middle" x="497" y="-340.815" font-family="Helvetica,sans-Serif" font-size="10.00">StepOverButton</text>
</a>
</g>
</g>
<!-- Node26&#45;&gt;Node27 -->
<g id="edge35" class="edge"><title>Node26&#45;&gt;Node27</title>
<path fill="none" stroke="midnightblue" d="M367.803,-348.815C376.557,-348.815 385.477,-348.815 394.327,-348.815"/>
<polygon fill="midnightblue" stroke="midnightblue" points="367.615,-345.315 357.615,-348.815 367.614,-352.315 367.615,-345.315"/>
</g>
<!-- Node28 -->
<g id="node28" class="node"><title>Node28</title>
<g id="a_node28"><a xlink:href="../../db/d19/classslogo_1_1_u_i_1_1_module_creation_helper.html#aa1e7dc2b509360583790fba0d3819c8d" target="_top" xlink:title="slogo.UI.ModuleCreationHelper.create\lDebugStepOverButton">
<polygon fill="white" stroke="black" points="640.5,-333.815 640.5,-363.815 837.5,-363.815 837.5,-333.815 640.5,-333.815"/>
<text text-anchor="start" x="648.5" y="-351.815" font-family="Helvetica,sans-Serif" font-size="10.00">slogo.UI.ModuleCreationHelper.create</text>
<text text-anchor="middle" x="739" y="-340.815" font-family="Helvetica,sans-Serif" font-size="10.00">DebugStepOverButton</text>
</a>
</g>
</g>
<!-- Node27&#45;&gt;Node28 -->
<g id="edge36" class="edge"><title>Node27&#45;&gt;Node28</title>
<path fill="none" stroke="midnightblue" d="M609.89,-348.815C620.035,-348.815 630.258,-348.815 640.267,-348.815"/>
<polygon fill="midnightblue" stroke="midnightblue" points="609.782,-345.315 599.782,-348.815 609.782,-352.315 609.782,-345.315"/>
</g>
<!-- Node28&#45;&gt;Node25 -->
<g id="edge37" class="edge"><title>Node28&#45;&gt;Node25</title>
<path fill="none" stroke="midnightblue" d="M847.734,-348.815C859.304,-348.815 871.028,-348.815 882.469,-348.815"/>
<polygon fill="midnightblue" stroke="midnightblue" points="847.617,-345.315 837.617,-348.815 847.617,-352.315 847.617,-345.315"/>
</g>
</g>
</svg>
