<?xml version="1.0" encoding="UTF-8" standalone="no"?>
<!DOCTYPE svg PUBLIC "-//W3C//DTD SVG 1.1//EN"
 "http://www.w3.org/Graphics/SVG/1.1/DTD/svg11.dtd">
<!-- Generated by graphviz version 2.36.0 (20140111.2315)
 -->
<!-- Title: slogo.View.resetAnimation Pages: 1 -->
<svg width="762pt" height="136pt"
 viewBox="0.00 0.00 762.00 136.00" xmlns="http://www.w3.org/2000/svg" xmlns:xlink="http://www.w3.org/1999/xlink">
<g id="graph0" class="graph" transform="scale(1 1) rotate(0) translate(4 132)">
<title>slogo.View.resetAnimation</title>
<polygon fill="white" stroke="none" points="-4,4 -4,-132 758,-132 758,4 -4,4"/>
<!-- Node1 -->
<g id="node1" class="node"><title>Node1</title>
<polygon fill="#bfbfbf" stroke="black" points="0.5,-54.5 0.5,-73.5 143.5,-73.5 143.5,-54.5 0.5,-54.5"/>
<text text-anchor="middle" x="72" y="-61.5" font-family="Helvetica,sans-Serif" font-size="10.00">slogo.View.resetAnimation</text>
</g>
<!-- Node2 -->
<g id="node2" class="node"><title>Node2</title>
<g id="a_node2"><a xlink:href="../../db/d19/classslogo_1_1_u_i_1_1_module_creation_helper.html#a98aea43b18daf0cebaabb702bf30ca81" target="_top" xlink:title="slogo.UI.ModuleCreationHelper.reset\lCommandsHistoryList">
<polygon fill="white" stroke="black" points="180.5,-98 180.5,-128 371.5,-128 371.5,-98 180.5,-98"/>
<text text-anchor="start" x="188.5" y="-116" font-family="Helvetica,sans-Serif" font-size="10.00">slogo.UI.ModuleCreationHelper.reset</text>
<text text-anchor="middle" x="276" y="-105" font-family="Helvetica,sans-Serif" font-size="10.00">CommandsHistoryList</text>
</a>
</g>
</g>
<!-- Node1&#45;&gt;Node2 -->
<g id="edge1" class="edge"><title>Node1&#45;&gt;Node2</title>
<path fill="none" stroke="midnightblue" d="M112.427,-73.564C138.224,-79.8218 172.688,-88.1817 203.243,-95.5937"/>
<polygon fill="midnightblue" stroke="midnightblue" points="202.468,-99.0069 213.011,-97.963 204.118,-92.2042 202.468,-99.0069"/>
</g>
<!-- Node5 -->
<g id="node5" class="node"><title>Node5</title>
<g id="a_node5"><a xlink:href="../../db/d19/classslogo_1_1_u_i_1_1_module_creation_helper.html#a43eb4bee8e7f4e1d3976439e0daaa350" target="_top" xlink:title="slogo.UI.ModuleCreationHelper.set\lCommandsHistoryCounter">
<polygon fill="white" stroke="black" points="185,-49 185,-79 367,-79 367,-49 185,-49"/>
<text text-anchor="start" x="193" y="-67" font-family="Helvetica,sans-Serif" font-size="10.00">slogo.UI.ModuleCreationHelper.set</text>
<text text-anchor="middle" x="276" y="-56" font-family="Helvetica,sans-Serif" font-size="10.00">CommandsHistoryCounter</text>
</a>
</g>
</g>
<!-- Node1&#45;&gt;Node5 -->
<g id="edge4" class="edge"><title>Node1&#45;&gt;Node5</title>
<path fill="none" stroke="midnightblue" d="M143.65,-64C153.737,-64 164.27,-64 174.791,-64"/>
<polygon fill="midnightblue" stroke="midnightblue" points="174.86,-67.5001 184.86,-64 174.86,-60.5001 174.86,-67.5001"/>
</g>
<!-- Node6 -->
<g id="node6" class="node"><title>Node6</title>
<g id="a_node6"><a xlink:href="../../db/d19/classslogo_1_1_u_i_1_1_module_creation_helper.html#a697317cefd8b036b0aa427c1c246cf9b" target="_top" xlink:title="slogo.UI.ModuleCreationHelper.turn\lOffRunningStatusLabel">
<polygon fill="white" stroke="black" points="183,-0 183,-30 369,-30 369,-0 183,-0"/>
<text text-anchor="start" x="191" y="-18" font-family="Helvetica,sans-Serif" font-size="10.00">slogo.UI.ModuleCreationHelper.turn</text>
<text text-anchor="middle" x="276" y="-7" font-family="Helvetica,sans-Serif" font-size="10.00">OffRunningStatusLabel</text>
</a>
</g>
</g>
<!-- Node1&#45;&gt;Node6 -->
<g id="edge5" class="edge"><title>Node1&#45;&gt;Node6</title>
<path fill="none" stroke="midnightblue" d="M112.427,-54.436C138.224,-48.1782 172.688,-39.8183 203.243,-32.4063"/>
<polygon fill="midnightblue" stroke="midnightblue" points="204.118,-35.7958 213.011,-30.037 202.468,-28.9931 204.118,-35.7958"/>
</g>
<!-- Node3 -->
<g id="node3" class="node"><title>Node3</title>
<g id="a_node3"><a xlink:href="../../db/dc0/classslogo_1_1_u_i_1_1_list_view_all_s_l_o_g_o.html#a5f743353bce4830934bcf532b97e7925" target="_top" xlink:title="slogo.UI.ListViewAllSLOGO.set\lItems">
<polygon fill="white" stroke="black" points="408.5,-98 408.5,-128 567.5,-128 567.5,-98 408.5,-98"/>
<text text-anchor="start" x="416.5" y="-116" font-family="Helvetica,sans-Serif" font-size="10.00">slogo.UI.ListViewAllSLOGO.set</text>
<text text-anchor="middle" x="488" y="-105" font-family="Helvetica,sans-Serif" font-size="10.00">Items</text>
</a>
</g>
</g>
<!-- Node2&#45;&gt;Node3 -->
<g id="edge2" class="edge"><title>Node2&#45;&gt;Node3</title>
<path fill="none" stroke="midnightblue" d="M371.556,-113C380.398,-113 389.34,-113 398.127,-113"/>
<polygon fill="midnightblue" stroke="midnightblue" points="398.357,-116.5 408.357,-113 398.357,-109.5 398.357,-116.5"/>
</g>
<!-- Node4 -->
<g id="node4" class="node"><title>Node4</title>
<g id="a_node4"><a xlink:href="../../da/d8f/classslogo_1_1_u_i_1_1_list_view_creator.html#a081368f4f2cd74f99d9d251625ae4871" target="_top" xlink:title="slogo.UI.ListViewCreator.get\lListView">
<polygon fill="white" stroke="black" points="604,-98 604,-128 754,-128 754,-98 604,-98"/>
<text text-anchor="start" x="612" y="-116" font-family="Helvetica,sans-Serif" font-size="10.00">slogo.UI.ListViewCreator.get</text>
<text text-anchor="middle" x="679" y="-105" font-family="Helvetica,sans-Serif" font-size="10.00">ListView</text>
</a>
</g>
</g>
<!-- Node3&#45;&gt;Node4 -->
<g id="edge3" class="edge"><title>Node3&#45;&gt;Node4</title>
<path fill="none" stroke="midnightblue" d="M567.511,-113C576.186,-113 585.046,-113 593.787,-113"/>
<polygon fill="midnightblue" stroke="midnightblue" points="593.975,-116.5 603.975,-113 593.975,-109.5 593.975,-116.5"/>
</g>
</g>
</svg>
