<?xml version="1.0" encoding="UTF-8" standalone="no"?>
<!DOCTYPE svg PUBLIC "-//W3C//DTD SVG 1.1//EN"
 "http://www.w3.org/Graphics/SVG/1.1/DTD/svg11.dtd">
<!-- Generated by graphviz version 2.36.0 (20140111.2315)
 -->
<!-- Title: slogo.View.sendCommandToBackend Pages: 1 -->
<svg width="1972pt" height="339pt"
 viewBox="0.00 0.00 1972.00 339.00" xmlns="http://www.w3.org/2000/svg" xmlns:xlink="http://www.w3.org/1999/xlink">
<g id="graph0" class="graph" transform="scale(1 1) rotate(0) translate(4 335)">
<title>slogo.View.sendCommandToBackend</title>
<polygon fill="white" stroke="none" points="-4,4 -4,-335 1968,-335 1968,4 -4,4"/>
<!-- Node1 -->
<g id="node1" class="node"><title>Node1</title>
<polygon fill="#bfbfbf" stroke="black" points="0,-142 0,-172 152,-172 152,-142 0,-142"/>
<text text-anchor="start" x="8" y="-160" font-family="Helvetica,sans-Serif" font-size="10.00">slogo.View.sendCommandTo</text>
<text text-anchor="middle" x="76" y="-149" font-family="Helvetica,sans-Serif" font-size="10.00">Backend</text>
</g>
<!-- Node2 -->
<g id="node2" class="node"><title>Node2</title>
<g id="a_node2"><a xlink:href="../../db/d19/classslogo_1_1_u_i_1_1_module_creation_helper.html#a69e17abcc7cf9a6ed7261d8fb1d631fa" target="_top" xlink:title="slogo.UI.ModuleCreationHelper.activate\lIncreaseDecreaseButtons">
<polygon fill="white" stroke="black" points="188.5,-213 188.5,-243 393.5,-243 393.5,-213 188.5,-213"/>
<text text-anchor="start" x="196.5" y="-231" font-family="Helvetica,sans-Serif" font-size="10.00">slogo.UI.ModuleCreationHelper.activate</text>
<text text-anchor="middle" x="291" y="-220" font-family="Helvetica,sans-Serif" font-size="10.00">IncreaseDecreaseButtons</text>
</a>
</g>
</g>
<!-- Node1&#45;&gt;Node2 -->
<g id="edge1" class="edge"><title>Node1&#45;&gt;Node2</title>
<path fill="none" stroke="midnightblue" d="M118.91,-176.144C139.453,-185.068 164.726,-195.375 188,-203 199.002,-206.605 210.822,-209.959 222.377,-212.966"/>
<polygon fill="midnightblue" stroke="midnightblue" points="120.096,-172.842 109.532,-172.024 117.28,-179.251 120.096,-172.842"/>
</g>
<!-- Node9 -->
<g id="node9" class="node"><title>Node9</title>
<g id="a_node9"><a xlink:href="../../db/d19/classslogo_1_1_u_i_1_1_module_creation_helper.html#aa70b0ad9e90e62509149bfd2ef2ba209" target="_top" xlink:title="slogo.UI.ModuleCreationHelper.activate\lKeyEvents">
<polygon fill="white" stroke="black" points="906.5,-234 906.5,-264 1111.5,-264 1111.5,-234 906.5,-234"/>
<text text-anchor="start" x="914.5" y="-252" font-family="Helvetica,sans-Serif" font-size="10.00">slogo.UI.ModuleCreationHelper.activate</text>
<text text-anchor="middle" x="1009" y="-241" font-family="Helvetica,sans-Serif" font-size="10.00">KeyEvents</text>
</a>
</g>
</g>
<!-- Node1&#45;&gt;Node9 -->
<g id="edge9" class="edge"><title>Node1&#45;&gt;Node9</title>
<path fill="none" stroke="midnightblue" d="M95.0205,-179.913C114.904,-203.157 149.264,-237.687 188,-252 316.697,-299.554 716.455,-273.798 906.135,-258.167"/>
<polygon fill="midnightblue" stroke="midnightblue" points="97.697,-177.658 88.6077,-172.214 92.3183,-182.138 97.697,-177.658"/>
</g>
<!-- Node10 -->
<g id="node10" class="node"><title>Node10</title>
<g id="a_node10"><a xlink:href="../../db/d19/classslogo_1_1_u_i_1_1_module_creation_helper.html#a2e841243ec3ca474e8822102343acc88" target="_top" xlink:title="slogo.UI.ModuleCreationHelper.activate\lNewTurtleButton">
<polygon fill="white" stroke="black" points="430.5,-71 430.5,-101 635.5,-101 635.5,-71 430.5,-71"/>
<text text-anchor="start" x="438.5" y="-89" font-family="Helvetica,sans-Serif" font-size="10.00">slogo.UI.ModuleCreationHelper.activate</text>
<text text-anchor="middle" x="533" y="-78" font-family="Helvetica,sans-Serif" font-size="10.00">NewTurtleButton</text>
</a>
</g>
</g>
<!-- Node1&#45;&gt;Node10 -->
<g id="edge11" class="edge"><title>Node1&#45;&gt;Node10</title>
<path fill="none" stroke="midnightblue" d="M99.1799,-134.758C120.058,-115.522 153.237,-89.1076 188,-78 278.478,-49.0902 389.266,-59.1779 460.232,-70.973"/>
<polygon fill="midnightblue" stroke="midnightblue" points="96.6653,-132.319 91.803,-141.732 101.474,-137.405 96.6653,-132.319"/>
</g>
<!-- Node12 -->
<g id="node12" class="node"><title>Node12</title>
<g id="a_node12"><a xlink:href="../../db/d19/classslogo_1_1_u_i_1_1_module_creation_helper.html#a9b1f07ab673191067907a059b1b0c524" target="_top" xlink:title="slogo.UI.ModuleCreationHelper.activate\lPlayButton">
<polygon fill="white" stroke="black" points="188.5,-0 188.5,-30 393.5,-30 393.5,-0 188.5,-0"/>
<text text-anchor="start" x="196.5" y="-18" font-family="Helvetica,sans-Serif" font-size="10.00">slogo.UI.ModuleCreationHelper.activate</text>
<text text-anchor="middle" x="291" y="-7" font-family="Helvetica,sans-Serif" font-size="10.00">PlayButton</text>
</a>
</g>
</g>
<!-- Node1&#45;&gt;Node12 -->
<g id="edge14" class="edge"><title>Node1&#45;&gt;Node12</title>
<path fill="none" stroke="midnightblue" d="M93.9655,-133.935C113.799,-108.567 148.925,-68.3149 188,-45 198.224,-38.8996 209.771,-33.9689 221.325,-30.0056"/>
<polygon fill="midnightblue" stroke="midnightblue" points="91.1491,-131.856 87.842,-141.922 96.7042,-136.116 91.1491,-131.856"/>
</g>
<!-- Node15 -->
<g id="node15" class="node"><title>Node15</title>
<g id="a_node15"><a xlink:href="../../db/d19/classslogo_1_1_u_i_1_1_module_creation_helper.html#a3a38d485562cb17591ec3fd07cffc18a" target="_top" xlink:title="slogo.UI.ModuleCreationHelper.activate\lTurtleCanvas">
<polygon fill="white" stroke="black" points="430.5,-301 430.5,-331 635.5,-331 635.5,-301 430.5,-301"/>
<text text-anchor="start" x="438.5" y="-319" font-family="Helvetica,sans-Serif" font-size="10.00">slogo.UI.ModuleCreationHelper.activate</text>
<text text-anchor="middle" x="533" y="-308" font-family="Helvetica,sans-Serif" font-size="10.00">TurtleCanvas</text>
</a>
</g>
</g>
<!-- Node1&#45;&gt;Node15 -->
<g id="edge18" class="edge"><title>Node1&#45;&gt;Node15</title>
<path fill="none" stroke="midnightblue" d="M90.0169,-181.404C107.713,-211.824 142.447,-262.653 188,-286 262.69,-324.281 358.568,-329.664 430.123,-326.683"/>
<polygon fill="midnightblue" stroke="midnightblue" points="92.8434,-179.291 84.8782,-172.305 86.7483,-182.733 92.8434,-179.291"/>
</g>
<!-- Node17 -->
<g id="node17" class="node"><title>Node17</title>
<g id="a_node17"><a xlink:href="../../d1/d5f/classslogo_1_1_u_i_1_1_path_color_selector.html#ad3d9c82a0904c97edcec7cf67b85bd7b" target="_top" xlink:title="slogo.UI.PathColorSelector.create">
<polygon fill="white" stroke="black" points="203,-87.5 203,-106.5 379,-106.5 379,-87.5 203,-87.5"/>
<text text-anchor="middle" x="291" y="-94.5" font-family="Helvetica,sans-Serif" font-size="10.00">slogo.UI.PathColorSelector.create</text>
</a>
</g>
</g>
<!-- Node1&#45;&gt;Node17 -->
<g id="edge21" class="edge"><title>Node1&#45;&gt;Node17</title>
<path fill="none" stroke="midnightblue" d="M122.41,-138.243C142.289,-130.552 166.045,-122.053 188,-116 201.284,-112.338 215.738,-109.168 229.475,-106.523"/>
<polygon fill="midnightblue" stroke="midnightblue" points="121.018,-135.03 112.987,-141.94 123.574,-141.546 121.018,-135.03"/>
</g>
<!-- Node19 -->
<g id="node19" class="node"><title>Node19</title>
<g id="a_node19"><a xlink:href="../../d4/d8d/classslogo_1_1_u_i_1_1_background_color_selector.html#ad75ba4ce104e071811d0fe039a4e839f" target="_top" xlink:title="slogo.UI.BackgroundColor\lSelector.create">
<polygon fill="white" stroke="black" points="221,-164 221,-194 361,-194 361,-164 221,-164"/>
<text text-anchor="start" x="229" y="-182" font-family="Helvetica,sans-Serif" font-size="10.00">slogo.UI.BackgroundColor</text>
<text text-anchor="middle" x="291" y="-171" font-family="Helvetica,sans-Serif" font-size="10.00">Selector.create</text>
</a>
</g>
</g>
<!-- Node1&#45;&gt;Node19 -->
<g id="edge24" class="edge"><title>Node1&#45;&gt;Node19</title>
<path fill="none" stroke="midnightblue" d="M162.19,-165.799C181.693,-167.813 202.191,-169.931 220.92,-171.865"/>
<polygon fill="midnightblue" stroke="midnightblue" points="162.403,-162.302 152.096,-164.756 161.683,-169.265 162.403,-162.302"/>
</g>
<!-- Node20 -->
<g id="node20" class="node"><title>Node20</title>
<g id="a_node20"><a xlink:href="../../dd/da7/classslogo_1_1_u_i_1_1_turtle_image_selector.html#a3f268d9196ffebcbb5dc322d2897a9fe" target="_top" xlink:title="slogo.UI.TurtleImageSelector.create">
<polygon fill="white" stroke="black" points="198,-125.5 198,-144.5 384,-144.5 384,-125.5 198,-125.5"/>
<text text-anchor="middle" x="291" y="-132.5" font-family="Helvetica,sans-Serif" font-size="10.00">slogo.UI.TurtleImageSelector.create</text>
</a>
</g>
</g>
<!-- Node1&#45;&gt;Node20 -->
<g id="edge26" class="edge"><title>Node1&#45;&gt;Node20</title>
<path fill="none" stroke="midnightblue" d="M162.23,-148.197C173.882,-146.993 185.889,-145.753 197.66,-144.537"/>
<polygon fill="midnightblue" stroke="midnightblue" points="161.683,-144.735 152.096,-149.244 162.403,-151.698 161.683,-144.735"/>
</g>
<!-- Node3 -->
<g id="node3" class="node"><title>Node3</title>
<g id="a_node3"><a xlink:href="../../db/d19/classslogo_1_1_u_i_1_1_module_creation_helper.html#adce7362386f9a7b3006e7db08a2d578d" target="_top" xlink:title="slogo.UI.ModuleCreationHelper.create\lIncreaseDecreaseButtons">
<polygon fill="white" stroke="black" points="672.5,-200 672.5,-230 869.5,-230 869.5,-200 672.5,-200"/>
<text text-anchor="start" x="680.5" y="-218" font-family="Helvetica,sans-Serif" font-size="10.00">slogo.UI.ModuleCreationHelper.create</text>
<text text-anchor="middle" x="771" y="-207" font-family="Helvetica,sans-Serif" font-size="10.00">IncreaseDecreaseButtons</text>
</a>
</g>
</g>
<!-- Node2&#45;&gt;Node3 -->
<g id="edge2" class="edge"><title>Node2&#45;&gt;Node3</title>
<path fill="none" stroke="midnightblue" d="M403.944,-224.956C485.282,-222.743 594.3,-219.778 672.164,-217.661"/>
<polygon fill="midnightblue" stroke="midnightblue" points="403.565,-221.464 393.664,-225.235 403.755,-228.462 403.565,-221.464"/>
</g>
<!-- Node4 -->
<g id="node4" class="node"><title>Node4</title>
<g id="a_node4"><a xlink:href="../../db/d19/classslogo_1_1_u_i_1_1_module_creation_helper.html#a7c650957b2389d6e6d36e8be8a33cd2b" target="_top" xlink:title="slogo.UI.ModuleCreationHelper.create\lSelectorVBoxModules">
<polygon fill="white" stroke="black" points="910.5,-156 910.5,-186 1107.5,-186 1107.5,-156 910.5,-156"/>
<text text-anchor="start" x="918.5" y="-174" font-family="Helvetica,sans-Serif" font-size="10.00">slogo.UI.ModuleCreationHelper.create</text>
<text text-anchor="middle" x="1009" y="-163" font-family="Helvetica,sans-Serif" font-size="10.00">SelectorVBoxModules</text>
</a>
</g>
</g>
<!-- Node3&#45;&gt;Node4 -->
<g id="edge3" class="edge"><title>Node3&#45;&gt;Node4</title>
<path fill="none" stroke="midnightblue" d="M862.59,-198.11C883.931,-194.132 906.538,-189.917 927.405,-186.026"/>
<polygon fill="midnightblue" stroke="midnightblue" points="861.747,-194.707 852.558,-199.981 863.03,-201.589 861.747,-194.707"/>
</g>
<!-- Node5 -->
<g id="node5" class="node"><title>Node5</title>
<g id="a_node5"><a xlink:href="../../db/d19/classslogo_1_1_u_i_1_1_module_creation_helper.html#afb9dbbbad7d872234a5b296fe129a34e" target="_top" xlink:title="slogo.UI.ModuleCreationHelper.create\lMainPageModules">
<polygon fill="white" stroke="black" points="1148.5,-231 1148.5,-261 1345.5,-261 1345.5,-231 1148.5,-231"/>
<text text-anchor="start" x="1156.5" y="-249" font-family="Helvetica,sans-Serif" font-size="10.00">slogo.UI.ModuleCreationHelper.create</text>
<text text-anchor="middle" x="1247" y="-238" font-family="Helvetica,sans-Serif" font-size="10.00">MainPageModules</text>
</a>
</g>
</g>
<!-- Node4&#45;&gt;Node5 -->
<g id="edge4" class="edge"><title>Node4&#45;&gt;Node5</title>
<path fill="none" stroke="midnightblue" d="M1067.15,-189.163C1107.42,-201.959 1160.7,-218.891 1198.6,-230.937"/>
<polygon fill="midnightblue" stroke="midnightblue" points="1068.06,-185.78 1057.47,-186.087 1065.94,-192.452 1068.06,-185.78"/>
</g>
<!-- Node6 -->
<g id="node6" class="node"><title>Node6</title>
<g id="a_node6"><a xlink:href="../../d9/d33/classslogo_1_1_u_i_1_1_main.html#a15b7f2e399ee24d160550993ab737e73" target="_top" xlink:title="slogo.UI.Main.start">
<polygon fill="white" stroke="black" points="1382,-228.5 1382,-247.5 1488,-247.5 1488,-228.5 1382,-228.5"/>
<text text-anchor="middle" x="1435" y="-235.5" font-family="Helvetica,sans-Serif" font-size="10.00">slogo.UI.Main.start</text>
</a>
</g>
</g>
<!-- Node5&#45;&gt;Node6 -->
<g id="edge5" class="edge"><title>Node5&#45;&gt;Node6</title>
<path fill="none" stroke="midnightblue" d="M1355.8,-241.363C1364.76,-240.978 1373.53,-240.601 1381.76,-240.247"/>
<polygon fill="midnightblue" stroke="midnightblue" points="1355.47,-237.874 1345.63,-241.801 1355.77,-244.868 1355.47,-237.874"/>
</g>
<!-- Node7 -->
<g id="node7" class="node"><title>Node7</title>
<g id="a_node7"><a xlink:href="../../db/d19/classslogo_1_1_u_i_1_1_module_creation_helper.html#a3be12a7cc2b8a219db1e296211a2cb88" target="_top" xlink:title="slogo.UI.ModuleCreationHelper.activate\lExtraWorkspaceButton">
<polygon fill="white" stroke="black" points="1524.5,-219 1524.5,-249 1729.5,-249 1729.5,-219 1524.5,-219"/>
<text text-anchor="start" x="1532.5" y="-237" font-family="Helvetica,sans-Serif" font-size="10.00">slogo.UI.ModuleCreationHelper.activate</text>
<text text-anchor="middle" x="1627" y="-226" font-family="Helvetica,sans-Serif" font-size="10.00">ExtraWorkspaceButton</text>
</a>
</g>
</g>
<!-- Node6&#45;&gt;Node7 -->
<g id="edge6" class="edge"><title>Node6&#45;&gt;Node7</title>
<path fill="none" stroke="midnightblue" d="M1498.22,-236.69C1506.63,-236.513 1515.44,-236.328 1524.32,-236.141"/>
<polygon fill="midnightblue" stroke="midnightblue" points="1498.09,-233.192 1488.17,-236.902 1498.24,-240.19 1498.09,-233.192"/>
</g>
<!-- Node8 -->
<g id="node8" class="node"><title>Node8</title>
<g id="a_node8"><a xlink:href="../../db/d19/classslogo_1_1_u_i_1_1_module_creation_helper.html#a702c1ebe24d2857a10c666eb1fcc315d" target="_top" xlink:title="slogo.UI.ModuleCreationHelper.create\lExtraWorkspaceButton">
<polygon fill="white" stroke="black" points="1766.5,-196 1766.5,-226 1963.5,-226 1963.5,-196 1766.5,-196"/>
<text text-anchor="start" x="1774.5" y="-214" font-family="Helvetica,sans-Serif" font-size="10.00">slogo.UI.ModuleCreationHelper.create</text>
<text text-anchor="middle" x="1865" y="-203" font-family="Helvetica,sans-Serif" font-size="10.00">ExtraWorkspaceButton</text>
</a>
</g>
</g>
<!-- Node7&#45;&gt;Node8 -->
<g id="edge7" class="edge"><title>Node7&#45;&gt;Node8</title>
<path fill="none" stroke="midnightblue" d="M1739.77,-223.108C1748.62,-222.245 1757.52,-221.377 1766.27,-220.524"/>
<polygon fill="midnightblue" stroke="midnightblue" points="1739.41,-219.625 1729.8,-224.079 1740.09,-226.592 1739.41,-219.625"/>
</g>
<!-- Node8&#45;&gt;Node4 -->
<g id="edge8" class="edge"><title>Node8&#45;&gt;Node4</title>
<path fill="none" stroke="midnightblue" d="M1756.34,-205.958C1588.9,-198.115 1268.6,-183.112 1107.55,-175.569"/>
<polygon fill="midnightblue" stroke="midnightblue" points="1756.26,-209.457 1766.41,-206.429 1756.59,-202.465 1756.26,-209.457"/>
</g>
<!-- Node9&#45;&gt;Node5 -->
<g id="edge10" class="edge"><title>Node9&#45;&gt;Node5</title>
<path fill="none" stroke="midnightblue" d="M1122.05,-247.576C1130.81,-247.464 1139.62,-247.352 1148.27,-247.242"/>
<polygon fill="midnightblue" stroke="midnightblue" points="1121.75,-244.079 1111.8,-247.706 1121.84,-251.078 1121.75,-244.079"/>
</g>
<!-- Node11 -->
<g id="node11" class="node"><title>Node11</title>
<g id="a_node11"><a xlink:href="../../db/d19/classslogo_1_1_u_i_1_1_module_creation_helper.html#a07f5483df317cdf80e8ea2dda5699afa" target="_top" xlink:title="slogo.UI.ModuleCreationHelper.create\lNewTurtleButton">
<polygon fill="white" stroke="black" points="672.5,-93 672.5,-123 869.5,-123 869.5,-93 672.5,-93"/>
<text text-anchor="start" x="680.5" y="-111" font-family="Helvetica,sans-Serif" font-size="10.00">slogo.UI.ModuleCreationHelper.create</text>
<text text-anchor="middle" x="771" y="-100" font-family="Helvetica,sans-Serif" font-size="10.00">NewTurtleButton</text>
</a>
</g>
</g>
<!-- Node10&#45;&gt;Node11 -->
<g id="edge12" class="edge"><title>Node10&#45;&gt;Node11</title>
<path fill="none" stroke="midnightblue" d="M645.765,-96.4188C654.621,-97.2444 663.524,-98.0743 672.274,-98.8899"/>
<polygon fill="midnightblue" stroke="midnightblue" points="646.079,-92.933 635.798,-95.4896 645.43,-99.9028 646.079,-92.933"/>
</g>
<!-- Node11&#45;&gt;Node4 -->
<g id="edge13" class="edge"><title>Node11&#45;&gt;Node4</title>
<path fill="none" stroke="midnightblue" d="M838.099,-125.645C873.897,-135.201 917.653,-146.882 951.794,-155.996"/>
<polygon fill="midnightblue" stroke="midnightblue" points="838.792,-122.208 828.228,-123.01 836.987,-128.971 838.792,-122.208"/>
</g>
<!-- Node13 -->
<g id="node13" class="node"><title>Node13</title>
<g id="a_node13"><a xlink:href="../../db/d19/classslogo_1_1_u_i_1_1_module_creation_helper.html#a9b3fb38a55b3b7812b4f793afa7a974f" target="_top" xlink:title="slogo.UI.ModuleCreationHelper.create\lPlayButton">
<polygon fill="white" stroke="black" points="434.5,-10 434.5,-40 631.5,-40 631.5,-10 434.5,-10"/>
<text text-anchor="start" x="442.5" y="-28" font-family="Helvetica,sans-Serif" font-size="10.00">slogo.UI.ModuleCreationHelper.create</text>
<text text-anchor="middle" x="533" y="-17" font-family="Helvetica,sans-Serif" font-size="10.00">PlayButton</text>
</a>
</g>
</g>
<!-- Node12&#45;&gt;Node13 -->
<g id="edge15" class="edge"><title>Node12&#45;&gt;Node13</title>
<path fill="none" stroke="midnightblue" d="M403.89,-19.6621C414.035,-20.0848 424.258,-20.5107 434.267,-20.9278"/>
<polygon fill="midnightblue" stroke="midnightblue" points="403.919,-16.1603 393.782,-19.2409 403.627,-23.1543 403.919,-16.1603"/>
</g>
<!-- Node14 -->
<g id="node14" class="node"><title>Node14</title>
<g id="a_node14"><a xlink:href="../../db/d19/classslogo_1_1_u_i_1_1_module_creation_helper.html#ae1e60d37509c2e5eddcb2a6e70b4f650" target="_top" xlink:title="slogo.UI.ModuleCreationHelper.create\lFirstRowButtons">
<polygon fill="white" stroke="black" points="672.5,-20 672.5,-50 869.5,-50 869.5,-20 672.5,-20"/>
<text text-anchor="start" x="680.5" y="-38" font-family="Helvetica,sans-Serif" font-size="10.00">slogo.UI.ModuleCreationHelper.create</text>
<text text-anchor="middle" x="771" y="-27" font-family="Helvetica,sans-Serif" font-size="10.00">FirstRowButtons</text>
</a>
</g>
</g>
<!-- Node13&#45;&gt;Node14 -->
<g id="edge16" class="edge"><title>Node13&#45;&gt;Node14</title>
<path fill="none" stroke="midnightblue" d="M641.832,-29.5691C652.015,-30.0006 662.299,-30.4364 672.379,-30.8635"/>
<polygon fill="midnightblue" stroke="midnightblue" points="641.833,-26.0661 631.694,-29.1396 641.537,-33.0599 641.833,-26.0661"/>
</g>
<!-- Node14&#45;&gt;Node4 -->
<g id="edge17" class="edge"><title>Node14&#45;&gt;Node4</title>
<path fill="none" stroke="midnightblue" d="M814.502,-54.536C831.929,-62.8757 852.159,-72.9837 870,-83 912.122,-106.647 959.156,-137.694 986.003,-155.885"/>
<polygon fill="midnightblue" stroke="midnightblue" points="815.676,-51.2195 805.141,-50.0966 812.677,-57.5442 815.676,-51.2195"/>
</g>
<!-- Node16 -->
<g id="node16" class="node"><title>Node16</title>
<g id="a_node16"><a xlink:href="../../db/d19/classslogo_1_1_u_i_1_1_module_creation_helper.html#a803bac6b55bde712b21f2face1eeef81" target="_top" xlink:title="slogo.UI.ModuleCreationHelper.create\lTurtleCanvas">
<polygon fill="white" stroke="black" points="672.5,-301 672.5,-331 869.5,-331 869.5,-301 672.5,-301"/>
<text text-anchor="start" x="680.5" y="-319" font-family="Helvetica,sans-Serif" font-size="10.00">slogo.UI.ModuleCreationHelper.create</text>
<text text-anchor="middle" x="771" y="-308" font-family="Helvetica,sans-Serif" font-size="10.00">TurtleCanvas</text>
</a>
</g>
</g>
<!-- Node15&#45;&gt;Node16 -->
<g id="edge19" class="edge"><title>Node15&#45;&gt;Node16</title>
<path fill="none" stroke="midnightblue" d="M646.051,-316C654.813,-316 663.618,-316 672.274,-316"/>
<polygon fill="midnightblue" stroke="midnightblue" points="645.798,-312.5 635.798,-316 645.798,-319.5 645.798,-312.5"/>
</g>
<!-- Node16&#45;&gt;Node5 -->
<g id="edge20" class="edge"><title>Node16&#45;&gt;Node5</title>
<path fill="none" stroke="midnightblue" d="M879.882,-304.395C946.872,-296.684 1034.65,-285.667 1112,-273 1132.96,-269.568 1155.64,-265.235 1176.28,-261.051"/>
<polygon fill="midnightblue" stroke="midnightblue" points="879.271,-300.942 869.734,-305.556 880.067,-307.896 879.271,-300.942"/>
</g>
<!-- Node18 -->
<g id="node18" class="node"><title>Node18</title>
<g id="a_node18"><a xlink:href="../../db/d19/classslogo_1_1_u_i_1_1_module_creation_helper.html#af7f2919454fdbf6e9d7d912e99634857" target="_top" xlink:title="slogo.UI.ModuleCreationHelper.create\lSelectors">
<polygon fill="white" stroke="black" points="434.5,-142 434.5,-172 631.5,-172 631.5,-142 434.5,-142"/>
<text text-anchor="start" x="442.5" y="-160" font-family="Helvetica,sans-Serif" font-size="10.00">slogo.UI.ModuleCreationHelper.create</text>
<text text-anchor="middle" x="533" y="-149" font-family="Helvetica,sans-Serif" font-size="10.00">Selectors</text>
</a>
</g>
</g>
<!-- Node17&#45;&gt;Node18 -->
<g id="edge22" class="edge"><title>Node17&#45;&gt;Node18</title>
<path fill="none" stroke="midnightblue" d="M359.043,-108.453C370.741,-110.746 382.758,-113.291 394,-116 424.858,-123.436 459.062,-133.585 485.698,-141.925"/>
<polygon fill="midnightblue" stroke="midnightblue" points="359.353,-104.948 348.873,-106.505 358.036,-111.823 359.353,-104.948"/>
</g>
<!-- Node18&#45;&gt;Node4 -->
<g id="edge23" class="edge"><title>Node18&#45;&gt;Node4</title>
<path fill="none" stroke="midnightblue" d="M641.844,-160.185C722.649,-162.572 832.294,-165.81 910.488,-168.12"/>
<polygon fill="midnightblue" stroke="midnightblue" points="641.737,-156.681 631.638,-159.884 641.531,-163.678 641.737,-156.681"/>
</g>
<!-- Node19&#45;&gt;Node18 -->
<g id="edge25" class="edge"><title>Node19&#45;&gt;Node18</title>
<path fill="none" stroke="midnightblue" d="M371.179,-171.742C391.396,-169.889 413.368,-167.875 434.389,-165.948"/>
<polygon fill="midnightblue" stroke="midnightblue" points="370.735,-168.268 361.096,-172.666 371.374,-175.239 370.735,-168.268"/>
</g>
<!-- Node20&#45;&gt;Node18 -->
<g id="edge27" class="edge"><title>Node20&#45;&gt;Node18</title>
<path fill="none" stroke="midnightblue" d="M394.172,-144.366C407.429,-145.581 420.983,-146.823 434.166,-148.032"/>
<polygon fill="midnightblue" stroke="midnightblue" points="394.382,-140.87 384.104,-143.443 393.743,-147.841 394.382,-140.87"/>
</g>
</g>
</svg>
