<?xml version="1.0" encoding="UTF-8" standalone="no"?>
<!DOCTYPE svg PUBLIC "-//W3C//DTD SVG 1.1//EN"
 "http://www.w3.org/Graphics/SVG/1.1/DTD/svg11.dtd">
<!-- Generated by graphviz version 2.36.0 (20140111.2315)
 -->
<!-- Title: slogo.View.pauseAnimation Pages: 1 -->
<svg width="1952pt" height="60pt"
 viewBox="0.00 0.00 1952.00 60.00" xmlns="http://www.w3.org/2000/svg" xmlns:xlink="http://www.w3.org/1999/xlink">
<g id="graph0" class="graph" transform="scale(1 1) rotate(0) translate(4 56)">
<title>slogo.View.pauseAnimation</title>
<polygon fill="white" stroke="none" points="-4,4 -4,-56 1948,-56 1948,4 -4,4"/>
<!-- Node1 -->
<g id="node1" class="node"><title>Node1</title>
<polygon fill="#bfbfbf" stroke="black" points="0.5,-5.5 0.5,-24.5 147.5,-24.5 147.5,-5.5 0.5,-5.5"/>
<text text-anchor="middle" x="74" y="-12.5" font-family="Helvetica,sans-Serif" font-size="10.00">slogo.View.pauseAnimation</text>
</g>
<!-- Node2 -->
<g id="node2" class="node"><title>Node2</title>
<g id="a_node2"><a xlink:href="../../db/d19/classslogo_1_1_u_i_1_1_module_creation_helper.html#a9a4f9a714349d603ad1dae7f3dd4a9b3" target="_top" xlink:title="slogo.UI.ModuleCreationHelper.activate\lPauseButton">
<polygon fill="white" stroke="black" points="184.5,-0 184.5,-30 389.5,-30 389.5,-0 184.5,-0"/>
<text text-anchor="start" x="192.5" y="-18" font-family="Helvetica,sans-Serif" font-size="10.00">slogo.UI.ModuleCreationHelper.activate</text>
<text text-anchor="middle" x="287" y="-7" font-family="Helvetica,sans-Serif" font-size="10.00">PauseButton</text>
</a>
</g>
</g>
<!-- Node1&#45;&gt;Node2 -->
<g id="edge1" class="edge"><title>Node1&#45;&gt;Node2</title>
<path fill="none" stroke="midnightblue" d="M157.702,-15C166.392,-15 175.299,-15 184.172,-15"/>
<polygon fill="midnightblue" stroke="midnightblue" points="157.614,-11.5001 147.614,-15 157.614,-18.5001 157.614,-11.5001"/>
</g>
<!-- Node3 -->
<g id="node3" class="node"><title>Node3</title>
<g id="a_node3"><a xlink:href="../../db/d19/classslogo_1_1_u_i_1_1_module_creation_helper.html#a938126b745e9f2d20932e126c0fd455a" target="_top" xlink:title="slogo.UI.ModuleCreationHelper.create\lPauseButton">
<polygon fill="white" stroke="black" points="426.5,-0 426.5,-30 623.5,-30 623.5,-0 426.5,-0"/>
<text text-anchor="start" x="434.5" y="-18" font-family="Helvetica,sans-Serif" font-size="10.00">slogo.UI.ModuleCreationHelper.create</text>
<text text-anchor="middle" x="525" y="-7" font-family="Helvetica,sans-Serif" font-size="10.00">PauseButton</text>
</a>
</g>
</g>
<!-- Node2&#45;&gt;Node3 -->
<g id="edge2" class="edge"><title>Node2&#45;&gt;Node3</title>
<path fill="none" stroke="midnightblue" d="M400.051,-15C408.813,-15 417.618,-15 426.274,-15"/>
<polygon fill="midnightblue" stroke="midnightblue" points="399.798,-11.5001 389.798,-15 399.798,-18.5001 399.798,-11.5001"/>
</g>
<!-- Node4 -->
<g id="node4" class="node"><title>Node4</title>
<g id="a_node4"><a xlink:href="../../db/d19/classslogo_1_1_u_i_1_1_module_creation_helper.html#ae1e0ce18826b0895f1c3d4786b3776b7" target="_top" xlink:title="slogo.UI.ModuleCreationHelper.create\lSecondRowButtons">
<polygon fill="white" stroke="black" points="660.5,-0 660.5,-30 857.5,-30 857.5,-0 660.5,-0"/>
<text text-anchor="start" x="668.5" y="-18" font-family="Helvetica,sans-Serif" font-size="10.00">slogo.UI.ModuleCreationHelper.create</text>
<text text-anchor="middle" x="759" y="-7" font-family="Helvetica,sans-Serif" font-size="10.00">SecondRowButtons</text>
</a>
</g>
</g>
<!-- Node3&#45;&gt;Node4 -->
<g id="edge3" class="edge"><title>Node3&#45;&gt;Node4</title>
<path fill="none" stroke="midnightblue" d="M633.722,-15C642.618,-15 651.58,-15 660.396,-15"/>
<polygon fill="midnightblue" stroke="midnightblue" points="633.717,-11.5001 623.716,-15 633.716,-18.5001 633.717,-11.5001"/>
</g>
<!-- Node5 -->
<g id="node5" class="node"><title>Node5</title>
<g id="a_node5"><a xlink:href="../../db/d19/classslogo_1_1_u_i_1_1_module_creation_helper.html#a7c650957b2389d6e6d36e8be8a33cd2b" target="_top" xlink:title="slogo.UI.ModuleCreationHelper.create\lSelectorVBoxModules">
<polygon fill="white" stroke="black" points="894.5,-0 894.5,-30 1091.5,-30 1091.5,-0 894.5,-0"/>
<text text-anchor="start" x="902.5" y="-18" font-family="Helvetica,sans-Serif" font-size="10.00">slogo.UI.ModuleCreationHelper.create</text>
<text text-anchor="middle" x="993" y="-7" font-family="Helvetica,sans-Serif" font-size="10.00">SelectorVBoxModules</text>
</a>
</g>
</g>
<!-- Node4&#45;&gt;Node5 -->
<g id="edge4" class="edge"><title>Node4&#45;&gt;Node5</title>
<path fill="none" stroke="midnightblue" d="M867.722,-15C876.618,-15 885.58,-15 894.396,-15"/>
<polygon fill="midnightblue" stroke="midnightblue" points="867.717,-11.5001 857.716,-15 867.716,-18.5001 867.717,-11.5001"/>
</g>
<!-- Node6 -->
<g id="node6" class="node"><title>Node6</title>
<g id="a_node6"><a xlink:href="../../db/d19/classslogo_1_1_u_i_1_1_module_creation_helper.html#afb9dbbbad7d872234a5b296fe129a34e" target="_top" xlink:title="slogo.UI.ModuleCreationHelper.create\lMainPageModules">
<polygon fill="white" stroke="black" points="1128.5,-22 1128.5,-52 1325.5,-52 1325.5,-22 1128.5,-22"/>
<text text-anchor="start" x="1136.5" y="-40" font-family="Helvetica,sans-Serif" font-size="10.00">slogo.UI.ModuleCreationHelper.create</text>
<text text-anchor="middle" x="1227" y="-29" font-family="Helvetica,sans-Serif" font-size="10.00">MainPageModules</text>
</a>
</g>
</g>
<!-- Node5&#45;&gt;Node6 -->
<g id="edge5" class="edge"><title>Node5&#45;&gt;Node6</title>
<path fill="none" stroke="midnightblue" d="M1101.72,-25.215C1110.62,-26.0586 1119.58,-26.9085 1128.4,-27.7445"/>
<polygon fill="midnightblue" stroke="midnightblue" points="1102,-21.726 1091.72,-24.2662 1101.34,-28.6947 1102,-21.726"/>
</g>
<!-- Node7 -->
<g id="node7" class="node"><title>Node7</title>
<g id="a_node7"><a xlink:href="../../d9/d33/classslogo_1_1_u_i_1_1_main.html#a15b7f2e399ee24d160550993ab737e73" target="_top" xlink:title="slogo.UI.Main.start">
<polygon fill="white" stroke="black" points="1362,-27.5 1362,-46.5 1468,-46.5 1468,-27.5 1362,-27.5"/>
<text text-anchor="middle" x="1415" y="-34.5" font-family="Helvetica,sans-Serif" font-size="10.00">slogo.UI.Main.start</text>
</a>
</g>
</g>
<!-- Node6&#45;&gt;Node7 -->
<g id="edge6" class="edge"><title>Node6&#45;&gt;Node7</title>
<path fill="none" stroke="midnightblue" d="M1335.8,-37C1344.76,-37 1353.53,-37 1361.76,-37"/>
<polygon fill="midnightblue" stroke="midnightblue" points="1335.63,-33.5001 1325.63,-37 1335.63,-40.5001 1335.63,-33.5001"/>
</g>
<!-- Node8 -->
<g id="node8" class="node"><title>Node8</title>
<g id="a_node8"><a xlink:href="../../db/d19/classslogo_1_1_u_i_1_1_module_creation_helper.html#a3be12a7cc2b8a219db1e296211a2cb88" target="_top" xlink:title="slogo.UI.ModuleCreationHelper.activate\lExtraWorkspaceButton">
<polygon fill="white" stroke="black" points="1504.5,-22 1504.5,-52 1709.5,-52 1709.5,-22 1504.5,-22"/>
<text text-anchor="start" x="1512.5" y="-40" font-family="Helvetica,sans-Serif" font-size="10.00">slogo.UI.ModuleCreationHelper.activate</text>
<text text-anchor="middle" x="1607" y="-29" font-family="Helvetica,sans-Serif" font-size="10.00">ExtraWorkspaceButton</text>
</a>
</g>
</g>
<!-- Node7&#45;&gt;Node8 -->
<g id="edge7" class="edge"><title>Node7&#45;&gt;Node8</title>
<path fill="none" stroke="midnightblue" d="M1478.22,-37C1486.63,-37 1495.44,-37 1504.32,-37"/>
<polygon fill="midnightblue" stroke="midnightblue" points="1478.17,-33.5001 1468.17,-37 1478.17,-40.5001 1478.17,-33.5001"/>
</g>
<!-- Node9 -->
<g id="node9" class="node"><title>Node9</title>
<g id="a_node9"><a xlink:href="../../db/d19/classslogo_1_1_u_i_1_1_module_creation_helper.html#a702c1ebe24d2857a10c666eb1fcc315d" target="_top" xlink:title="slogo.UI.ModuleCreationHelper.create\lExtraWorkspaceButton">
<polygon fill="white" stroke="black" points="1746.5,-0 1746.5,-30 1943.5,-30 1943.5,-0 1746.5,-0"/>
<text text-anchor="start" x="1754.5" y="-18" font-family="Helvetica,sans-Serif" font-size="10.00">slogo.UI.ModuleCreationHelper.create</text>
<text text-anchor="middle" x="1845" y="-7" font-family="Helvetica,sans-Serif" font-size="10.00">ExtraWorkspaceButton</text>
</a>
</g>
</g>
<!-- Node8&#45;&gt;Node9 -->
<g id="edge8" class="edge"><title>Node8&#45;&gt;Node9</title>
<path fill="none" stroke="midnightblue" d="M1719.77,-26.5812C1728.62,-25.7556 1737.52,-24.9257 1746.27,-24.1101"/>
<polygon fill="midnightblue" stroke="midnightblue" points="1719.43,-23.0972 1709.8,-27.5104 1720.08,-30.067 1719.43,-23.0972"/>
</g>
<!-- Node9&#45;&gt;Node5 -->
<g id="edge9" class="edge"><title>Node9&#45;&gt;Node5</title>
<path fill="none" stroke="midnightblue" d="M1736.27,-12.3776C1727.38,-12.2253 1718.54,-12.0956 1710,-12 1451.35,-9.10502 1386.65,-9.10502 1128,-12 1116.25,-12.1315 1103.92,-12.3279 1091.7,-12.5584"/>
<polygon fill="midnightblue" stroke="midnightblue" points="1736.24,-15.8776 1746.3,-12.5584 1736.37,-8.87874 1736.24,-15.8776"/>
</g>
</g>
</svg>
