<?xml version="1.0" encoding="UTF-8" standalone="no"?>
<!DOCTYPE svg PUBLIC "-//W3C//DTD SVG 1.1//EN"
 "http://www.w3.org/Graphics/SVG/1.1/DTD/svg11.dtd">
<!-- Generated by graphviz version 2.36.0 (20140111.2315)
 -->
<!-- Title: slogo.View.executeEnvironmentCommands Pages: 1 -->
<svg width="2390pt" height="421pt"
 viewBox="0.00 0.00 2390.00 420.81" xmlns="http://www.w3.org/2000/svg" xmlns:xlink="http://www.w3.org/1999/xlink">
<g id="graph0" class="graph" transform="scale(1 1) rotate(0) translate(4 416.815)">
<title>slogo.View.executeEnvironmentCommands</title>
<polygon fill="white" stroke="none" points="-4,4 -4,-416.815 2386,-416.815 2386,4 -4,4"/>
<!-- Node1 -->
<g id="node1" class="node"><title>Node1</title>
<polygon fill="#bfbfbf" stroke="black" points="0,-333.815 0,-363.815 168,-363.815 168,-333.815 0,-333.815"/>
<text text-anchor="start" x="8" y="-351.815" font-family="Helvetica,sans-Serif" font-size="10.00">slogo.View.executeEnvironment</text>
<text text-anchor="middle" x="84" y="-340.815" font-family="Helvetica,sans-Serif" font-size="10.00">Commands</text>
</g>
<!-- Node2 -->
<g id="node2" class="node"><title>Node2</title>
<g id="a_node2"><a xlink:href="../../df/d2d/classslogo_1_1_view.html#aa90e5d95d422b58b7f4b7f8a049defe1" target="_top" xlink:title="slogo.View.executeCommand">
<polygon fill="white" stroke="black" points="204,-339.315 204,-358.315 362,-358.315 362,-339.315 204,-339.315"/>
<text text-anchor="middle" x="283" y="-346.315" font-family="Helvetica,sans-Serif" font-size="10.00">slogo.View.executeCommand</text>
</a>
</g>
</g>
<!-- Node1&#45;&gt;Node2 -->
<g id="edge1" class="edge"><title>Node1&#45;&gt;Node2</title>
<path fill="none" stroke="midnightblue" d="M178.517,-348.815C186.96,-348.815 195.451,-348.815 203.742,-348.815"/>
<polygon fill="midnightblue" stroke="midnightblue" points="178.26,-345.315 168.26,-348.815 178.26,-352.315 178.26,-345.315"/>
</g>
<!-- Node3 -->
<g id="node3" class="node"><title>Node3</title>
<g id="a_node3"><a xlink:href="../../df/d2d/classslogo_1_1_view.html#aee563f6a0b15ac6668e4dcbdad40c73c" target="_top" xlink:title="slogo.View.sendCommandTo\lBackend">
<polygon fill="white" stroke="black" points="404,-169.815 404,-199.815 556,-199.815 556,-169.815 404,-169.815"/>
<text text-anchor="start" x="412" y="-187.815" font-family="Helvetica,sans-Serif" font-size="10.00">slogo.View.sendCommandTo</text>
<text text-anchor="middle" x="480" y="-176.815" font-family="Helvetica,sans-Serif" font-size="10.00">Backend</text>
</a>
</g>
</g>
<!-- Node2&#45;&gt;Node3 -->
<g id="edge2" class="edge"><title>Node2&#45;&gt;Node3</title>
<path fill="none" stroke="midnightblue" d="M303.054,-332.789C340.765,-301.074 424.433,-230.706 461.146,-199.831"/>
<polygon fill="midnightblue" stroke="midnightblue" points="300.727,-330.173 295.327,-339.288 305.233,-335.53 300.727,-330.173"/>
</g>
<!-- Node23 -->
<g id="node23" class="node"><title>Node23</title>
<g id="a_node23"><a xlink:href="../../df/d2d/classslogo_1_1_view.html#a4c3084a198acf85804800d70eff9ee51" target="_top" xlink:title="slogo.View.stepIntoCommand">
<polygon fill="white" stroke="black" points="401,-382.315 401,-401.315 559,-401.315 559,-382.315 401,-382.315"/>
<text text-anchor="middle" x="480" y="-389.315" font-family="Helvetica,sans-Serif" font-size="10.00">slogo.View.stepIntoCommand</text>
</a>
</g>
</g>
<!-- Node2&#45;&gt;Node23 -->
<g id="edge30" class="edge"><title>Node2&#45;&gt;Node23</title>
<path fill="none" stroke="midnightblue" d="M337.056,-360.514C368.068,-367.353 406.711,-375.874 435.844,-382.298"/>
<polygon fill="midnightblue" stroke="midnightblue" points="337.796,-357.093 327.277,-358.358 336.288,-363.929 337.796,-357.093"/>
</g>
<!-- Node27 -->
<g id="node27" class="node"><title>Node27</title>
<g id="a_node27"><a xlink:href="../../df/d2d/classslogo_1_1_view.html#ac8b7f574c679e744a430f1649dc55e68" target="_top" xlink:title="slogo.View.stepOverCommand">
<polygon fill="white" stroke="black" points="398.5,-339.315 398.5,-358.315 561.5,-358.315 561.5,-339.315 398.5,-339.315"/>
<text text-anchor="middle" x="480" y="-346.315" font-family="Helvetica,sans-Serif" font-size="10.00">slogo.View.stepOverCommand</text>
</a>
</g>
</g>
<!-- Node2&#45;&gt;Node27 -->
<g id="edge35" class="edge"><title>Node2&#45;&gt;Node27</title>
<path fill="none" stroke="midnightblue" d="M372.281,-348.815C380.929,-348.815 389.675,-348.815 398.243,-348.815"/>
<polygon fill="midnightblue" stroke="midnightblue" points="372.19,-345.315 362.19,-348.815 372.19,-352.315 372.19,-345.315"/>
</g>
<!-- Node4 -->
<g id="node4" class="node"><title>Node4</title>
<g id="a_node4"><a xlink:href="../../d4/d8d/classslogo_1_1_u_i_1_1_background_color_selector.html#ad75ba4ce104e071811d0fe039a4e839f" target="_top" xlink:title="slogo.UI.BackgroundColor\lSelector.create">
<polygon fill="white" stroke="black" points="631,-120.815 631,-150.815 771,-150.815 771,-120.815 631,-120.815"/>
<text text-anchor="start" x="639" y="-138.815" font-family="Helvetica,sans-Serif" font-size="10.00">slogo.UI.BackgroundColor</text>
<text text-anchor="middle" x="701" y="-127.815" font-family="Helvetica,sans-Serif" font-size="10.00">Selector.create</text>
</a>
</g>
</g>
<!-- Node3&#45;&gt;Node4 -->
<g id="edge3" class="edge"><title>Node3&#45;&gt;Node4</title>
<path fill="none" stroke="midnightblue" d="M558.133,-167.556C582.535,-162.097 609.294,-156.11 632.932,-150.821"/>
<polygon fill="midnightblue" stroke="midnightblue" points="557.19,-164.181 548.196,-169.78 558.718,-171.012 557.19,-164.181"/>
</g>
<!-- Node11 -->
<g id="node11" class="node"><title>Node11</title>
<g id="a_node11"><a xlink:href="../../db/d19/classslogo_1_1_u_i_1_1_module_creation_helper.html#a3a38d485562cb17591ec3fd07cffc18a" target="_top" xlink:title="slogo.UI.ModuleCreationHelper.activate\lTurtleCanvas">
<polygon fill="white" stroke="black" points="1082.5,-245.815 1082.5,-275.815 1287.5,-275.815 1287.5,-245.815 1082.5,-245.815"/>
<text text-anchor="start" x="1090.5" y="-263.815" font-family="Helvetica,sans-Serif" font-size="10.00">slogo.UI.ModuleCreationHelper.activate</text>
<text text-anchor="middle" x="1185" y="-252.815" font-family="Helvetica,sans-Serif" font-size="10.00">TurtleCanvas</text>
</a>
</g>
</g>
<!-- Node3&#45;&gt;Node11 -->
<g id="edge11" class="edge"><title>Node3&#45;&gt;Node11</title>
<path fill="none" stroke="midnightblue" d="M521.852,-204.015C543.906,-213.479 571.894,-224.07 598,-229.815 764.783,-266.515 964.396,-268.445 1082.34,-265.403"/>
<polygon fill="midnightblue" stroke="midnightblue" points="523.04,-200.714 512.476,-199.906 520.23,-207.126 523.04,-200.714"/>
</g>
<!-- Node13 -->
<g id="node13" class="node"><title>Node13</title>
<g id="a_node13"><a xlink:href="../../db/d19/classslogo_1_1_u_i_1_1_module_creation_helper.html#a9b1f07ab673191067907a059b1b0c524" target="_top" xlink:title="slogo.UI.ModuleCreationHelper.activate\lPlayButton">
<polygon fill="white" stroke="black" points="598.5,-169.815 598.5,-199.815 803.5,-199.815 803.5,-169.815 598.5,-169.815"/>
<text text-anchor="start" x="606.5" y="-187.815" font-family="Helvetica,sans-Serif" font-size="10.00">slogo.UI.ModuleCreationHelper.activate</text>
<text text-anchor="middle" x="701" y="-176.815" font-family="Helvetica,sans-Serif" font-size="10.00">PlayButton</text>
</a>
</g>
</g>
<!-- Node3&#45;&gt;Node13 -->
<g id="edge14" class="edge"><title>Node3&#45;&gt;Node13</title>
<path fill="none" stroke="midnightblue" d="M566.082,-184.815C576.652,-184.815 587.54,-184.815 598.327,-184.815"/>
<polygon fill="midnightblue" stroke="midnightblue" points="566.061,-181.315 556.061,-184.815 566.061,-188.315 566.061,-181.315"/>
</g>
<!-- Node16 -->
<g id="node16" class="node"><title>Node16</title>
<g id="a_node16"><a xlink:href="../../db/d19/classslogo_1_1_u_i_1_1_module_creation_helper.html#a2e841243ec3ca474e8822102343acc88" target="_top" xlink:title="slogo.UI.ModuleCreationHelper.activate\lNewTurtleButton">
<polygon fill="white" stroke="black" points="840.5,-7.8146 840.5,-37.8146 1045.5,-37.8146 1045.5,-7.8146 840.5,-7.8146"/>
<text text-anchor="start" x="848.5" y="-25.8146" font-family="Helvetica,sans-Serif" font-size="10.00">slogo.UI.ModuleCreationHelper.activate</text>
<text text-anchor="middle" x="943" y="-14.8146" font-family="Helvetica,sans-Serif" font-size="10.00">NewTurtleButton</text>
</a>
</g>
</g>
<!-- Node3&#45;&gt;Node16 -->
<g id="edge18" class="edge"><title>Node3&#45;&gt;Node16</title>
<path fill="none" stroke="midnightblue" d="M491.751,-160.268C508.628,-125.157 544.98,-61.8553 598,-34.8146 681.845,7.9468 792.73,2.63379 865.647,-7.78532"/>
<polygon fill="midnightblue" stroke="midnightblue" points="488.371,-159.237 487.325,-169.78 494.717,-162.19 488.371,-159.237"/>
</g>
<!-- Node18 -->
<g id="node18" class="node"><title>Node18</title>
<g id="a_node18"><a xlink:href="../../db/d19/classslogo_1_1_u_i_1_1_module_creation_helper.html#a69e17abcc7cf9a6ed7261d8fb1d631fa" target="_top" xlink:title="slogo.UI.ModuleCreationHelper.activate\lIncreaseDecreaseButtons">
<polygon fill="white" stroke="black" points="840.5,-206.815 840.5,-236.815 1045.5,-236.815 1045.5,-206.815 840.5,-206.815"/>
<text text-anchor="start" x="848.5" y="-224.815" font-family="Helvetica,sans-Serif" font-size="10.00">slogo.UI.ModuleCreationHelper.activate</text>
<text text-anchor="middle" x="943" y="-213.815" font-family="Helvetica,sans-Serif" font-size="10.00">IncreaseDecreaseButtons</text>
</a>
</g>
</g>
<!-- Node3&#45;&gt;Node18 -->
<g id="edge21" class="edge"><title>Node3&#45;&gt;Node18</title>
<path fill="none" stroke="midnightblue" d="M554.56,-201.823C568.898,-204.593 583.866,-207.11 598,-208.815 679.14,-218.602 771.753,-221.643 840.429,-222.352"/>
<polygon fill="midnightblue" stroke="midnightblue" points="555.243,-198.39 544.752,-199.871 553.877,-205.255 555.243,-198.39"/>
</g>
<!-- Node20 -->
<g id="node20" class="node"><title>Node20</title>
<g id="a_node20"><a xlink:href="../../db/d19/classslogo_1_1_u_i_1_1_module_creation_helper.html#aa70b0ad9e90e62509149bfd2ef2ba209" target="_top" xlink:title="slogo.UI.ModuleCreationHelper.activate\lKeyEvents">
<polygon fill="white" stroke="black" points="1324.5,-289.815 1324.5,-319.815 1529.5,-319.815 1529.5,-289.815 1324.5,-289.815"/>
<text text-anchor="start" x="1332.5" y="-307.815" font-family="Helvetica,sans-Serif" font-size="10.00">slogo.UI.ModuleCreationHelper.activate</text>
<text text-anchor="middle" x="1427" y="-296.815" font-family="Helvetica,sans-Serif" font-size="10.00">KeyEvents</text>
</a>
</g>
</g>
<!-- Node3&#45;&gt;Node20 -->
<g id="edge24" class="edge"><title>Node3&#45;&gt;Node20</title>
<path fill="none" stroke="midnightblue" d="M506.65,-206.222C529.183,-223.694 563.646,-247.308 598,-258.815 729.739,-302.941 1133.45,-306.678 1324.18,-305.845"/>
<polygon fill="midnightblue" stroke="midnightblue" points="508.636,-203.329 498.624,-199.864 504.289,-208.816 508.636,-203.329"/>
</g>
<!-- Node21 -->
<g id="node21" class="node"><title>Node21</title>
<g id="a_node21"><a xlink:href="../../d1/d5f/classslogo_1_1_u_i_1_1_path_color_selector.html#ad3d9c82a0904c97edcec7cf67b85bd7b" target="_top" xlink:title="slogo.UI.PathColorSelector.create">
<polygon fill="white" stroke="black" points="613,-82.3146 613,-101.315 789,-101.315 789,-82.3146 613,-82.3146"/>
<text text-anchor="middle" x="701" y="-89.3146" font-family="Helvetica,sans-Serif" font-size="10.00">slogo.UI.PathColorSelector.create</text>
</a>
</g>
</g>
<!-- Node3&#45;&gt;Node21 -->
<g id="edge26" class="edge"><title>Node3&#45;&gt;Node21</title>
<path fill="none" stroke="midnightblue" d="M508.184,-163.384C530.92,-146.539 564.871,-123.819 598,-110.815 607.893,-106.931 618.643,-103.829 629.331,-101.353"/>
<polygon fill="midnightblue" stroke="midnightblue" points="505.923,-160.705 500.044,-169.519 510.136,-166.295 505.923,-160.705"/>
</g>
<!-- Node22 -->
<g id="node22" class="node"><title>Node22</title>
<g id="a_node22"><a xlink:href="../../dd/da7/classslogo_1_1_u_i_1_1_turtle_image_selector.html#a3f268d9196ffebcbb5dc322d2897a9fe" target="_top" xlink:title="slogo.UI.TurtleImageSelector.create">
<polygon fill="white" stroke="black" points="608,-44.3146 608,-63.3146 794,-63.3146 794,-44.3146 608,-44.3146"/>
<text text-anchor="middle" x="701" y="-51.3146" font-family="Helvetica,sans-Serif" font-size="10.00">slogo.UI.TurtleImageSelector.create</text>
</a>
</g>
</g>
<!-- Node3&#45;&gt;Node22 -->
<g id="edge28" class="edge"><title>Node3&#45;&gt;Node22</title>
<path fill="none" stroke="midnightblue" d="M498.399,-161.437C519.109,-135.43 556.188,-94.2574 598,-72.8146 605.613,-68.9102 613.913,-65.8005 622.382,-63.3252"/>
<polygon fill="midnightblue" stroke="midnightblue" points="495.405,-159.586 492.021,-169.625 500.927,-163.888 495.405,-159.586"/>
</g>
<!-- Node5 -->
<g id="node5" class="node"><title>Node5</title>
<g id="a_node5"><a xlink:href="../../db/d19/classslogo_1_1_u_i_1_1_module_creation_helper.html#af7f2919454fdbf6e9d7d912e99634857" target="_top" xlink:title="slogo.UI.ModuleCreationHelper.create\lSelectors">
<polygon fill="white" stroke="black" points="844.5,-83.8146 844.5,-113.815 1041.5,-113.815 1041.5,-83.8146 844.5,-83.8146"/>
<text text-anchor="start" x="852.5" y="-101.815" font-family="Helvetica,sans-Serif" font-size="10.00">slogo.UI.ModuleCreationHelper.create</text>
<text text-anchor="middle" x="943" y="-90.8146" font-family="Helvetica,sans-Serif" font-size="10.00">Selectors</text>
</a>
</g>
</g>
<!-- Node4&#45;&gt;Node5 -->
<g id="edge4" class="edge"><title>Node4&#45;&gt;Node5</title>
<path fill="none" stroke="midnightblue" d="M781.179,-123.608C801.396,-120.491 823.368,-117.104 844.389,-113.863"/>
<polygon fill="midnightblue" stroke="midnightblue" points="780.446,-120.179 771.096,-125.162 781.513,-127.098 780.446,-120.179"/>
</g>
<!-- Node6 -->
<g id="node6" class="node"><title>Node6</title>
<g id="a_node6"><a xlink:href="../../db/d19/classslogo_1_1_u_i_1_1_module_creation_helper.html#a7c650957b2389d6e6d36e8be8a33cd2b" target="_top" xlink:title="slogo.UI.ModuleCreationHelper.create\lSelectorVBoxModules">
<polygon fill="white" stroke="black" points="1328.5,-150.815 1328.5,-180.815 1525.5,-180.815 1525.5,-150.815 1328.5,-150.815"/>
<text text-anchor="start" x="1336.5" y="-168.815" font-family="Helvetica,sans-Serif" font-size="10.00">slogo.UI.ModuleCreationHelper.create</text>
<text text-anchor="middle" x="1427" y="-157.815" font-family="Helvetica,sans-Serif" font-size="10.00">SelectorVBoxModules</text>
</a>
</g>
</g>
<!-- Node5&#45;&gt;Node6 -->
<g id="edge5" class="edge"><title>Node5&#45;&gt;Node6</title>
<path fill="none" stroke="midnightblue" d="M1052.09,-108.626C1120.01,-115.395 1209.36,-125.404 1288,-137.815 1310.82,-141.416 1335.6,-146.174 1357.78,-150.744"/>
<polygon fill="midnightblue" stroke="midnightblue" points="1052.09,-105.11 1041.8,-107.609 1051.41,-112.076 1052.09,-105.11"/>
</g>
<!-- Node7 -->
<g id="node7" class="node"><title>Node7</title>
<g id="a_node7"><a xlink:href="../../db/d19/classslogo_1_1_u_i_1_1_module_creation_helper.html#afb9dbbbad7d872234a5b296fe129a34e" target="_top" xlink:title="slogo.UI.ModuleCreationHelper.create\lMainPageModules">
<polygon fill="white" stroke="black" points="1566.5,-240.815 1566.5,-270.815 1763.5,-270.815 1763.5,-240.815 1566.5,-240.815"/>
<text text-anchor="start" x="1574.5" y="-258.815" font-family="Helvetica,sans-Serif" font-size="10.00">slogo.UI.ModuleCreationHelper.create</text>
<text text-anchor="middle" x="1665" y="-247.815" font-family="Helvetica,sans-Serif" font-size="10.00">MainPageModules</text>
</a>
</g>
</g>
<!-- Node6&#45;&gt;Node7 -->
<g id="edge6" class="edge"><title>Node6&#45;&gt;Node7</title>
<path fill="none" stroke="midnightblue" d="M1477.06,-184.524C1520.74,-201.18 1583.82,-225.238 1624.37,-240.701"/>
<polygon fill="midnightblue" stroke="midnightblue" points="1478.09,-181.172 1467.5,-180.879 1475.6,-187.712 1478.09,-181.172"/>
</g>
<!-- Node8 -->
<g id="node8" class="node"><title>Node8</title>
<g id="a_node8"><a xlink:href="../../d9/d33/classslogo_1_1_u_i_1_1_main.html#a15b7f2e399ee24d160550993ab737e73" target="_top" xlink:title="slogo.UI.Main.start">
<polygon fill="white" stroke="black" points="1800,-222.315 1800,-241.315 1906,-241.315 1906,-222.315 1800,-222.315"/>
<text text-anchor="middle" x="1853" y="-229.315" font-family="Helvetica,sans-Serif" font-size="10.00">slogo.UI.Main.start</text>
</a>
</g>
</g>
<!-- Node7&#45;&gt;Node8 -->
<g id="edge7" class="edge"><title>Node7&#45;&gt;Node8</title>
<path fill="none" stroke="midnightblue" d="M1773.8,-241.904C1782.76,-240.749 1791.53,-239.617 1799.76,-238.555"/>
<polygon fill="midnightblue" stroke="midnightblue" points="1773.1,-238.466 1763.63,-243.217 1774,-245.409 1773.1,-238.466"/>
</g>
<!-- Node9 -->
<g id="node9" class="node"><title>Node9</title>
<g id="a_node9"><a xlink:href="../../db/d19/classslogo_1_1_u_i_1_1_module_creation_helper.html#a3be12a7cc2b8a219db1e296211a2cb88" target="_top" xlink:title="slogo.UI.ModuleCreationHelper.activate\lExtraWorkspaceButton">
<polygon fill="white" stroke="black" points="1942.5,-204.815 1942.5,-234.815 2147.5,-234.815 2147.5,-204.815 1942.5,-204.815"/>
<text text-anchor="start" x="1950.5" y="-222.815" font-family="Helvetica,sans-Serif" font-size="10.00">slogo.UI.ModuleCreationHelper.activate</text>
<text text-anchor="middle" x="2045" y="-211.815" font-family="Helvetica,sans-Serif" font-size="10.00">ExtraWorkspaceButton</text>
</a>
</g>
</g>
<!-- Node8&#45;&gt;Node9 -->
<g id="edge8" class="edge"><title>Node8&#45;&gt;Node9</title>
<path fill="none" stroke="midnightblue" d="M1916.22,-227.885C1924.63,-227.354 1933.44,-226.797 1942.32,-226.236"/>
<polygon fill="midnightblue" stroke="midnightblue" points="1915.93,-224.396 1906.17,-228.52 1916.37,-231.382 1915.93,-224.396"/>
</g>
<!-- Node10 -->
<g id="node10" class="node"><title>Node10</title>
<g id="a_node10"><a xlink:href="../../db/d19/classslogo_1_1_u_i_1_1_module_creation_helper.html#a702c1ebe24d2857a10c666eb1fcc315d" target="_top" xlink:title="slogo.UI.ModuleCreationHelper.create\lExtraWorkspaceButton">
<polygon fill="white" stroke="black" points="2184.5,-179.815 2184.5,-209.815 2381.5,-209.815 2381.5,-179.815 2184.5,-179.815"/>
<text text-anchor="start" x="2192.5" y="-197.815" font-family="Helvetica,sans-Serif" font-size="10.00">slogo.UI.ModuleCreationHelper.create</text>
<text text-anchor="middle" x="2283" y="-186.815" font-family="Helvetica,sans-Serif" font-size="10.00">ExtraWorkspaceButton</text>
</a>
</g>
</g>
<!-- Node9&#45;&gt;Node10 -->
<g id="edge9" class="edge"><title>Node9&#45;&gt;Node10</title>
<path fill="none" stroke="midnightblue" d="M2157.77,-207.975C2166.62,-207.037 2175.52,-206.094 2184.27,-205.167"/>
<polygon fill="midnightblue" stroke="midnightblue" points="2157.37,-204.497 2147.8,-209.031 2158.11,-211.458 2157.37,-204.497"/>
</g>
<!-- Node10&#45;&gt;Node6 -->
<g id="edge10" class="edge"><title>Node10&#45;&gt;Node6</title>
<path fill="none" stroke="midnightblue" d="M2174.34,-191.159C2006.9,-185.473 1686.6,-174.596 1525.55,-169.127"/>
<polygon fill="midnightblue" stroke="midnightblue" points="2174.3,-194.659 2184.41,-191.501 2174.54,-187.663 2174.3,-194.659"/>
</g>
<!-- Node12 -->
<g id="node12" class="node"><title>Node12</title>
<g id="a_node12"><a xlink:href="../../db/d19/classslogo_1_1_u_i_1_1_module_creation_helper.html#a803bac6b55bde712b21f2face1eeef81" target="_top" xlink:title="slogo.UI.ModuleCreationHelper.create\lTurtleCanvas">
<polygon fill="white" stroke="black" points="1328.5,-240.815 1328.5,-270.815 1525.5,-270.815 1525.5,-240.815 1328.5,-240.815"/>
<text text-anchor="start" x="1336.5" y="-258.815" font-family="Helvetica,sans-Serif" font-size="10.00">slogo.UI.ModuleCreationHelper.create</text>
<text text-anchor="middle" x="1427" y="-247.815" font-family="Helvetica,sans-Serif" font-size="10.00">TurtleCanvas</text>
</a>
</g>
</g>
<!-- Node11&#45;&gt;Node12 -->
<g id="edge12" class="edge"><title>Node11&#45;&gt;Node12</title>
<path fill="none" stroke="midnightblue" d="M1297.89,-258.484C1308.04,-258.272 1318.26,-258.059 1328.27,-257.851"/>
<polygon fill="midnightblue" stroke="midnightblue" points="1297.71,-254.987 1287.78,-258.694 1297.85,-261.985 1297.71,-254.987"/>
</g>
<!-- Node12&#45;&gt;Node7 -->
<g id="edge13" class="edge"><title>Node12&#45;&gt;Node7</title>
<path fill="none" stroke="midnightblue" d="M1535.83,-255.815C1546.01,-255.815 1556.3,-255.815 1566.38,-255.815"/>
<polygon fill="midnightblue" stroke="midnightblue" points="1535.69,-252.315 1525.69,-255.815 1535.69,-259.315 1535.69,-252.315"/>
</g>
<!-- Node14 -->
<g id="node14" class="node"><title>Node14</title>
<g id="a_node14"><a xlink:href="../../db/d19/classslogo_1_1_u_i_1_1_module_creation_helper.html#a9b3fb38a55b3b7812b4f793afa7a974f" target="_top" xlink:title="slogo.UI.ModuleCreationHelper.create\lPlayButton">
<polygon fill="white" stroke="black" points="844.5,-154.815 844.5,-184.815 1041.5,-184.815 1041.5,-154.815 844.5,-154.815"/>
<text text-anchor="start" x="852.5" y="-172.815" font-family="Helvetica,sans-Serif" font-size="10.00">slogo.UI.ModuleCreationHelper.create</text>
<text text-anchor="middle" x="943" y="-161.815" font-family="Helvetica,sans-Serif" font-size="10.00">PlayButton</text>
</a>
</g>
</g>
<!-- Node13&#45;&gt;Node14 -->
<g id="edge15" class="edge"><title>Node13&#45;&gt;Node14</title>
<path fill="none" stroke="midnightblue" d="M813.89,-177.821C824.035,-177.187 834.258,-176.548 844.267,-175.923"/>
<polygon fill="midnightblue" stroke="midnightblue" points="813.544,-174.336 803.782,-178.453 813.98,-181.323 813.544,-174.336"/>
</g>
<!-- Node15 -->
<g id="node15" class="node"><title>Node15</title>
<g id="a_node15"><a xlink:href="../../db/d19/classslogo_1_1_u_i_1_1_module_creation_helper.html#ae1e60d37509c2e5eddcb2a6e70b4f650" target="_top" xlink:title="slogo.UI.ModuleCreationHelper.create\lFirstRowButtons">
<polygon fill="white" stroke="black" points="1086.5,-147.815 1086.5,-177.815 1283.5,-177.815 1283.5,-147.815 1086.5,-147.815"/>
<text text-anchor="start" x="1094.5" y="-165.815" font-family="Helvetica,sans-Serif" font-size="10.00">slogo.UI.ModuleCreationHelper.create</text>
<text text-anchor="middle" x="1185" y="-154.815" font-family="Helvetica,sans-Serif" font-size="10.00">FirstRowButtons</text>
</a>
</g>
</g>
<!-- Node14&#45;&gt;Node15 -->
<g id="edge16" class="edge"><title>Node14&#45;&gt;Node15</title>
<path fill="none" stroke="midnightblue" d="M1051.73,-166.672C1063.3,-166.335 1075.03,-165.993 1086.47,-165.659"/>
<polygon fill="midnightblue" stroke="midnightblue" points="1051.51,-163.177 1041.62,-166.967 1051.72,-170.174 1051.51,-163.177"/>
</g>
<!-- Node15&#45;&gt;Node6 -->
<g id="edge17" class="edge"><title>Node15&#45;&gt;Node6</title>
<path fill="none" stroke="midnightblue" d="M1293.73,-164.161C1305.3,-164.306 1317.03,-164.452 1328.47,-164.595"/>
<polygon fill="midnightblue" stroke="midnightblue" points="1293.66,-160.66 1283.62,-164.035 1293.57,-167.66 1293.66,-160.66"/>
</g>
<!-- Node17 -->
<g id="node17" class="node"><title>Node17</title>
<g id="a_node17"><a xlink:href="../../db/d19/classslogo_1_1_u_i_1_1_module_creation_helper.html#a07f5483df317cdf80e8ea2dda5699afa" target="_top" xlink:title="slogo.UI.ModuleCreationHelper.create\lNewTurtleButton">
<polygon fill="white" stroke="black" points="1086.5,-30.8146 1086.5,-60.8146 1283.5,-60.8146 1283.5,-30.8146 1086.5,-30.8146"/>
<text text-anchor="start" x="1094.5" y="-48.8146" font-family="Helvetica,sans-Serif" font-size="10.00">slogo.UI.ModuleCreationHelper.create</text>
<text text-anchor="middle" x="1185" y="-37.8146" font-family="Helvetica,sans-Serif" font-size="10.00">NewTurtleButton</text>
</a>
</g>
</g>
<!-- Node16&#45;&gt;Node17 -->
<g id="edge19" class="edge"><title>Node16&#45;&gt;Node17</title>
<path fill="none" stroke="midnightblue" d="M1055.89,-33.5374C1066.04,-34.5096 1076.26,-35.4893 1086.27,-36.4485"/>
<polygon fill="midnightblue" stroke="midnightblue" points="1056.07,-30.0387 1045.78,-32.5687 1055.4,-37.0068 1056.07,-30.0387"/>
</g>
<!-- Node17&#45;&gt;Node6 -->
<g id="edge20" class="edge"><title>Node17&#45;&gt;Node6</title>
<path fill="none" stroke="midnightblue" d="M1230.84,-65.2393C1248.75,-73.2041 1269.48,-82.6843 1288,-91.8146 1327.26,-111.165 1371.72,-135.445 1399.31,-150.8"/>
<polygon fill="midnightblue" stroke="midnightblue" points="1231.77,-61.8255 1221.21,-60.9822 1228.94,-68.2275 1231.77,-61.8255"/>
</g>
<!-- Node19 -->
<g id="node19" class="node"><title>Node19</title>
<g id="a_node19"><a xlink:href="../../db/d19/classslogo_1_1_u_i_1_1_module_creation_helper.html#adce7362386f9a7b3006e7db08a2d578d" target="_top" xlink:title="slogo.UI.ModuleCreationHelper.create\lIncreaseDecreaseButtons">
<polygon fill="white" stroke="black" points="1086.5,-196.815 1086.5,-226.815 1283.5,-226.815 1283.5,-196.815 1086.5,-196.815"/>
<text text-anchor="start" x="1094.5" y="-214.815" font-family="Helvetica,sans-Serif" font-size="10.00">slogo.UI.ModuleCreationHelper.create</text>
<text text-anchor="middle" x="1185" y="-203.815" font-family="Helvetica,sans-Serif" font-size="10.00">IncreaseDecreaseButtons</text>
</a>
</g>
</g>
<!-- Node18&#45;&gt;Node19 -->
<g id="edge22" class="edge"><title>Node18&#45;&gt;Node19</title>
<path fill="none" stroke="midnightblue" d="M1055.89,-217.153C1066.04,-216.73 1076.26,-216.304 1086.27,-215.887"/>
<polygon fill="midnightblue" stroke="midnightblue" points="1055.63,-213.66 1045.78,-217.574 1055.92,-220.654 1055.63,-213.66"/>
</g>
<!-- Node19&#45;&gt;Node6 -->
<g id="edge23" class="edge"><title>Node19&#45;&gt;Node6</title>
<path fill="none" stroke="midnightblue" d="M1274.72,-194.811C1298.64,-190.226 1324.34,-185.3 1347.65,-180.832"/>
<polygon fill="midnightblue" stroke="midnightblue" points="1273.75,-191.433 1264.58,-196.752 1275.07,-198.307 1273.75,-191.433"/>
</g>
<!-- Node20&#45;&gt;Node7 -->
<g id="edge25" class="edge"><title>Node20&#45;&gt;Node7</title>
<path fill="none" stroke="midnightblue" d="M1510.42,-287.702C1536.9,-282.203 1566.03,-276.157 1591.73,-270.821"/>
<polygon fill="midnightblue" stroke="midnightblue" points="1509.49,-284.32 1500.41,-289.78 1510.91,-291.174 1509.49,-284.32"/>
</g>
<!-- Node21&#45;&gt;Node5 -->
<g id="edge27" class="edge"><title>Node21&#45;&gt;Node5</title>
<path fill="none" stroke="midnightblue" d="M799.45,-94.6569C814.2,-95.0871 829.423,-95.5311 844.181,-95.9616"/>
<polygon fill="midnightblue" stroke="midnightblue" points="799.422,-91.1547 789.324,-94.3616 799.218,-98.1517 799.422,-91.1547"/>
</g>
<!-- Node22&#45;&gt;Node5 -->
<g id="edge29" class="edge"><title>Node22&#45;&gt;Node5</title>
<path fill="none" stroke="midnightblue" d="M763.434,-65.2369C776.807,-67.7293 790.879,-70.3565 804,-72.8146 822.931,-76.3611 843.319,-80.1947 862.463,-83.8005"/>
<polygon fill="midnightblue" stroke="midnightblue" points="763.843,-61.753 753.371,-63.3623 762.561,-68.6346 763.843,-61.753"/>
</g>
<!-- Node24 -->
<g id="node24" class="node"><title>Node24</title>
<g id="a_node24"><a xlink:href="../../db/d19/classslogo_1_1_u_i_1_1_module_creation_helper.html#a9fd730f7c1860d34bf4ac46c3828bd59" target="_top" xlink:title="slogo.UI.ModuleCreationHelper.activate\lStepIntoButton">
<polygon fill="white" stroke="black" points="598.5,-382.815 598.5,-412.815 803.5,-412.815 803.5,-382.815 598.5,-382.815"/>
<text text-anchor="start" x="606.5" y="-400.815" font-family="Helvetica,sans-Serif" font-size="10.00">slogo.UI.ModuleCreationHelper.activate</text>
<text text-anchor="middle" x="701" y="-389.815" font-family="Helvetica,sans-Serif" font-size="10.00">StepIntoButton</text>
</a>
</g>
</g>
<!-- Node23&#45;&gt;Node24 -->
<g id="edge31" class="edge"><title>Node23&#45;&gt;Node24</title>
<path fill="none" stroke="midnightblue" d="M569.334,-394.235C578.824,-394.495 588.535,-394.761 598.167,-395.025"/>
<polygon fill="midnightblue" stroke="midnightblue" points="569.229,-390.731 559.137,-393.955 569.037,-397.728 569.229,-390.731"/>
</g>
<!-- Node25 -->
<g id="node25" class="node"><title>Node25</title>
<g id="a_node25"><a xlink:href="../../db/d19/classslogo_1_1_u_i_1_1_module_creation_helper.html#a4a6f1f009507c25be8c7c28cbba35f3b" target="_top" xlink:title="slogo.UI.ModuleCreationHelper.create\lDebugStepIntoButton">
<polygon fill="white" stroke="black" points="844.5,-382.815 844.5,-412.815 1041.5,-412.815 1041.5,-382.815 844.5,-382.815"/>
<text text-anchor="start" x="852.5" y="-400.815" font-family="Helvetica,sans-Serif" font-size="10.00">slogo.UI.ModuleCreationHelper.create</text>
<text text-anchor="middle" x="943" y="-389.815" font-family="Helvetica,sans-Serif" font-size="10.00">DebugStepIntoButton</text>
</a>
</g>
</g>
<!-- Node24&#45;&gt;Node25 -->
<g id="edge32" class="edge"><title>Node24&#45;&gt;Node25</title>
<path fill="none" stroke="midnightblue" d="M813.89,-397.815C824.035,-397.815 834.258,-397.815 844.267,-397.815"/>
<polygon fill="midnightblue" stroke="midnightblue" points="813.782,-394.315 803.782,-397.815 813.782,-401.315 813.782,-394.315"/>
</g>
<!-- Node26 -->
<g id="node26" class="node"><title>Node26</title>
<g id="a_node26"><a xlink:href="../../db/d19/classslogo_1_1_u_i_1_1_module_creation_helper.html#a975af4ea47dc85df72215bdf1a0d20ce" target="_top" xlink:title="slogo.UI.ModuleCreationHelper.create\lDebugModules">
<polygon fill="white" stroke="black" points="1086.5,-333.815 1086.5,-363.815 1283.5,-363.815 1283.5,-333.815 1086.5,-333.815"/>
<text text-anchor="start" x="1094.5" y="-351.815" font-family="Helvetica,sans-Serif" font-size="10.00">slogo.UI.ModuleCreationHelper.create</text>
<text text-anchor="middle" x="1185" y="-340.815" font-family="Helvetica,sans-Serif" font-size="10.00">DebugModules</text>
</a>
</g>
</g>
<!-- Node25&#45;&gt;Node26 -->
<g id="edge33" class="edge"><title>Node25&#45;&gt;Node26</title>
<path fill="none" stroke="midnightblue" d="M1027.46,-380.775C1054.49,-375.256 1084.25,-369.18 1110.5,-363.821"/>
<polygon fill="midnightblue" stroke="midnightblue" points="1026.74,-377.35 1017.64,-382.78 1028.14,-384.209 1026.74,-377.35"/>
</g>
<!-- Node26&#45;&gt;Node7 -->
<g id="edge34" class="edge"><title>Node26&#45;&gt;Node7</title>
<path fill="none" stroke="midnightblue" d="M1293.53,-354.531C1362.4,-355.29 1452.97,-350.834 1530,-328.815 1573.05,-316.508 1617.66,-288.636 1643.01,-271.113"/>
<polygon fill="midnightblue" stroke="midnightblue" points="1293.59,-351.032 1283.53,-354.383 1293.48,-358.031 1293.59,-351.032"/>
</g>
<!-- Node28 -->
<g id="node28" class="node"><title>Node28</title>
<g id="a_node28"><a xlink:href="../../db/d19/classslogo_1_1_u_i_1_1_module_creation_helper.html#a0fed0bb32bf2643d6fd5c24d82e8e18e" target="_top" xlink:title="slogo.UI.ModuleCreationHelper.activate\lStepOverButton">
<polygon fill="white" stroke="black" points="598.5,-333.815 598.5,-363.815 803.5,-363.815 803.5,-333.815 598.5,-333.815"/>
<text text-anchor="start" x="606.5" y="-351.815" font-family="Helvetica,sans-Serif" font-size="10.00">slogo.UI.ModuleCreationHelper.activate</text>
<text text-anchor="middle" x="701" y="-340.815" font-family="Helvetica,sans-Serif" font-size="10.00">StepOverButton</text>
</a>
</g>
</g>
<!-- Node27&#45;&gt;Node28 -->
<g id="edge36" class="edge"><title>Node27&#45;&gt;Node28</title>
<path fill="none" stroke="midnightblue" d="M571.803,-348.815C580.557,-348.815 589.477,-348.815 598.327,-348.815"/>
<polygon fill="midnightblue" stroke="midnightblue" points="571.615,-345.315 561.615,-348.815 571.614,-352.315 571.615,-345.315"/>
</g>
<!-- Node29 -->
<g id="node29" class="node"><title>Node29</title>
<g id="a_node29"><a xlink:href="../../db/d19/classslogo_1_1_u_i_1_1_module_creation_helper.html#aa1e7dc2b509360583790fba0d3819c8d" target="_top" xlink:title="slogo.UI.ModuleCreationHelper.create\lDebugStepOverButton">
<polygon fill="white" stroke="black" points="844.5,-333.815 844.5,-363.815 1041.5,-363.815 1041.5,-333.815 844.5,-333.815"/>
<text text-anchor="start" x="852.5" y="-351.815" font-family="Helvetica,sans-Serif" font-size="10.00">slogo.UI.ModuleCreationHelper.create</text>
<text text-anchor="middle" x="943" y="-340.815" font-family="Helvetica,sans-Serif" font-size="10.00">DebugStepOverButton</text>
</a>
</g>
</g>
<!-- Node28&#45;&gt;Node29 -->
<g id="edge37" class="edge"><title>Node28&#45;&gt;Node29</title>
<path fill="none" stroke="midnightblue" d="M813.89,-348.815C824.035,-348.815 834.258,-348.815 844.267,-348.815"/>
<polygon fill="midnightblue" stroke="midnightblue" points="813.782,-345.315 803.782,-348.815 813.782,-352.315 813.782,-345.315"/>
</g>
<!-- Node29&#45;&gt;Node26 -->
<g id="edge38" class="edge"><title>Node29&#45;&gt;Node26</title>
<path fill="none" stroke="midnightblue" d="M1051.73,-348.815C1063.3,-348.815 1075.03,-348.815 1086.47,-348.815"/>
<polygon fill="midnightblue" stroke="midnightblue" points="1051.62,-345.315 1041.62,-348.815 1051.62,-352.315 1051.62,-345.315"/>
</g>
</g>
</svg>
