<?xml version="1.0" encoding="UTF-8" standalone="no"?>
<!DOCTYPE svg PUBLIC "-//W3C//DTD SVG 1.1//EN"
 "http://www.w3.org/Graphics/SVG/1.1/DTD/svg11.dtd">
<!-- Generated by graphviz version 2.36.0 (20140111.2315)
 -->
<!-- Title: slogo.View.executeTurtleCommands Pages: 1 -->
<!--zoomable 421 -->
<svg id="main" version="1.1" xmlns="http://www.w3.org/2000/svg" xmlns:xlink="http://www.w3.org/1999/xlink" xml:space="preserve" onload="init(evt)">
<style type="text/css"><![CDATA[
.edge:hover path { stroke: red; }
.edge:hover polygon { stroke: red; fill: red; }
]]></style>
<script type="text/javascript"><![CDATA[
var edges = document.getElementsByTagName('g');
if (edges && edges.length) {
  for (var i=0;i<edges.length;i++) {
    if (edges[i].id.substr(0,4)=='edge') {
      edges[i].setAttribute('class','edge');
    }
  }
}
]]></script>
        <defs>
                <circle id="rim" cx="0" cy="0" r="7"/>
                <circle id="rim2" cx="0" cy="0" r="3.5"/>
                <g id="zoomPlus">
                        <use xlink:href="#rim" fill="#404040">
                                <set attributeName="fill" to="#808080" begin="zoomplus.mouseover" end="zoomplus.mouseout"/>
                        </use>
                        <path d="M-4,0h8M0,-4v8" fill="none" stroke="white" stroke-width="1.5" pointer-events="none"/>
                </g>
                <g id="zoomMin">
                        <use xlink:href="#rim" fill="#404040">
                                <set attributeName="fill" to="#808080" begin="zoomminus.mouseover" end="zoomminus.mouseout"/>
                        </use>
                        <path d="M-4,0h8" fill="none" stroke="white" stroke-width="1.5" pointer-events="none"/>
                </g>
                <g id="dirArrow">
                        <path fill="none" stroke="white" stroke-width="1.5" d="M0,-3.0v7 M-2.5,-0.5L0,-3.0L2.5,-0.5"/>
                </g>
               <g id="resetDef">
                       <use xlink:href="#rim2" fill="#404040">
                               <set attributeName="fill" to="#808080" begin="reset.mouseover" end="reset.mouseout"/>
                       </use>
               </g>
        </defs>

<script type="text/javascript">
var viewWidth = 2356;
var viewHeight = 421;
var sectionId = 'dynsection-7';
</script>
<script xlink:href="../../svgpan.js"/>
<svg id="graph" class="graph">
<g id="viewport">
<title>slogo.View.executeTurtleCommands</title>
<polygon fill="white" stroke="none" points="-4,4 -4,-416.815 2352,-416.815 2352,4 -4,4"/>
<!-- Node1 -->
<g id="node1" class="node"><title>Node1</title>
<polygon fill="#bfbfbf" stroke="black" points="0.5,-333.815 0.5,-363.815 133.5,-363.815 133.5,-333.815 0.5,-333.815"/>
<text text-anchor="start" x="8.5" y="-351.815" font-family="Helvetica,sans-Serif" font-size="10.00">slogo.View.executeTurtle</text>
<text text-anchor="middle" x="67" y="-340.815" font-family="Helvetica,sans-Serif" font-size="10.00">Commands</text>
</g>
<!-- Node2 -->
<g id="node2" class="node"><title>Node2</title>
<g id="a_node2"><a xlink:href="../../df/d2d/classslogo_1_1_view.html#aa90e5d95d422b58b7f4b7f8a049defe1" target="_top" xlink:title="slogo.View.executeCommand">
<polygon fill="white" stroke="black" points="170,-339.315 170,-358.315 328,-358.315 328,-339.315 170,-339.315"/>
<text text-anchor="middle" x="249" y="-346.315" font-family="Helvetica,sans-Serif" font-size="10.00">slogo.View.executeCommand</text>
</a>
</g>
</g>
<!-- Node1&#45;&gt;Node2 -->
<g id="edge1" class="edge"><title>Node1&#45;&gt;Node2</title>
<path fill="none" stroke="midnightblue" d="M143.784,-348.815C152.42,-348.815 161.235,-348.815 169.901,-348.815"/>
<polygon fill="midnightblue" stroke="midnightblue" points="143.748,-345.315 133.748,-348.815 143.748,-352.315 143.748,-345.315"/>
</g>
<!-- Node3 -->
<g id="node3" class="node"><title>Node3</title>
<g id="a_node3"><a xlink:href="../../df/d2d/classslogo_1_1_view.html#aee563f6a0b15ac6668e4dcbdad40c73c" target="_top" xlink:title="slogo.View.sendCommandTo\lBackend">
<polygon fill="white" stroke="black" points="370,-169.815 370,-199.815 522,-199.815 522,-169.815 370,-169.815"/>
<text text-anchor="start" x="378" y="-187.815" font-family="Helvetica,sans-Serif" font-size="10.00">slogo.View.sendCommandTo</text>
<text text-anchor="middle" x="446" y="-176.815" font-family="Helvetica,sans-Serif" font-size="10.00">Backend</text>
</a>
</g>
</g>
<!-- Node2&#45;&gt;Node3 -->
<g id="edge2" class="edge"><title>Node2&#45;&gt;Node3</title>
<path fill="none" stroke="midnightblue" d="M269.054,-332.789C306.765,-301.074 390.433,-230.706 427.146,-199.831"/>
<polygon fill="midnightblue" stroke="midnightblue" points="266.727,-330.173 261.327,-339.288 271.233,-335.53 266.727,-330.173"/>
</g>
<!-- Node23 -->
<g id="node23" class="node"><title>Node23</title>
<g id="a_node23"><a xlink:href="../../df/d2d/classslogo_1_1_view.html#a4c3084a198acf85804800d70eff9ee51" target="_top" xlink:title="slogo.View.stepIntoCommand">
<polygon fill="white" stroke="black" points="367,-382.315 367,-401.315 525,-401.315 525,-382.315 367,-382.315"/>
<text text-anchor="middle" x="446" y="-389.315" font-family="Helvetica,sans-Serif" font-size="10.00">slogo.View.stepIntoCommand</text>
</a>
</g>
</g>
<!-- Node2&#45;&gt;Node23 -->
<g id="edge30" class="edge"><title>Node2&#45;&gt;Node23</title>
<path fill="none" stroke="midnightblue" d="M303.056,-360.514C334.068,-367.353 372.711,-375.874 401.844,-382.298"/>
<polygon fill="midnightblue" stroke="midnightblue" points="303.796,-357.093 293.277,-358.358 302.288,-363.929 303.796,-357.093"/>
</g>
<!-- Node27 -->
<g id="node27" class="node"><title>Node27</title>
<g id="a_node27"><a xlink:href="../../df/d2d/classslogo_1_1_view.html#ac8b7f574c679e744a430f1649dc55e68" target="_top" xlink:title="slogo.View.stepOverCommand">
<polygon fill="white" stroke="black" points="364.5,-339.315 364.5,-358.315 527.5,-358.315 527.5,-339.315 364.5,-339.315"/>
<text text-anchor="middle" x="446" y="-346.315" font-family="Helvetica,sans-Serif" font-size="10.00">slogo.View.stepOverCommand</text>
</a>
</g>
</g>
<!-- Node2&#45;&gt;Node27 -->
<g id="edge35" class="edge"><title>Node2&#45;&gt;Node27</title>
<path fill="none" stroke="midnightblue" d="M338.281,-348.815C346.929,-348.815 355.675,-348.815 364.243,-348.815"/>
<polygon fill="midnightblue" stroke="midnightblue" points="338.19,-345.315 328.19,-348.815 338.19,-352.315 338.19,-345.315"/>
</g>
<!-- Node4 -->
<g id="node4" class="node"><title>Node4</title>
<g id="a_node4"><a xlink:href="../../d4/d8d/classslogo_1_1_u_i_1_1_background_color_selector.html#ad75ba4ce104e071811d0fe039a4e839f" target="_top" xlink:title="slogo.UI.BackgroundColor\lSelector.create">
<polygon fill="white" stroke="black" points="597,-120.815 597,-150.815 737,-150.815 737,-120.815 597,-120.815"/>
<text text-anchor="start" x="605" y="-138.815" font-family="Helvetica,sans-Serif" font-size="10.00">slogo.UI.BackgroundColor</text>
<text text-anchor="middle" x="667" y="-127.815" font-family="Helvetica,sans-Serif" font-size="10.00">Selector.create</text>
</a>
</g>
</g>
<!-- Node3&#45;&gt;Node4 -->
<g id="edge3" class="edge"><title>Node3&#45;&gt;Node4</title>
<path fill="none" stroke="midnightblue" d="M524.133,-167.556C548.535,-162.097 575.294,-156.11 598.932,-150.821"/>
<polygon fill="midnightblue" stroke="midnightblue" points="523.19,-164.181 514.196,-169.78 524.718,-171.012 523.19,-164.181"/>
</g>
<!-- Node11 -->
<g id="node11" class="node"><title>Node11</title>
<g id="a_node11"><a xlink:href="../../db/d19/classslogo_1_1_u_i_1_1_module_creation_helper.html#a3a38d485562cb17591ec3fd07cffc18a" target="_top" xlink:title="slogo.UI.ModuleCreationHelper.activate\lTurtleCanvas">
<polygon fill="white" stroke="black" points="1048.5,-245.815 1048.5,-275.815 1253.5,-275.815 1253.5,-245.815 1048.5,-245.815"/>
<text text-anchor="start" x="1056.5" y="-263.815" font-family="Helvetica,sans-Serif" font-size="10.00">slogo.UI.ModuleCreationHelper.activate</text>
<text text-anchor="middle" x="1151" y="-252.815" font-family="Helvetica,sans-Serif" font-size="10.00">TurtleCanvas</text>
</a>
</g>
</g>
<!-- Node3&#45;&gt;Node11 -->
<g id="edge11" class="edge"><title>Node3&#45;&gt;Node11</title>
<path fill="none" stroke="midnightblue" d="M487.852,-204.015C509.906,-213.479 537.894,-224.07 564,-229.815 730.783,-266.515 930.396,-268.445 1048.34,-265.403"/>
<polygon fill="midnightblue" stroke="midnightblue" points="489.04,-200.714 478.476,-199.906 486.23,-207.126 489.04,-200.714"/>
</g>
<!-- Node13 -->
<g id="node13" class="node"><title>Node13</title>
<g id="a_node13"><a xlink:href="../../db/d19/classslogo_1_1_u_i_1_1_module_creation_helper.html#a9b1f07ab673191067907a059b1b0c524" target="_top" xlink:title="slogo.UI.ModuleCreationHelper.activate\lPlayButton">
<polygon fill="white" stroke="black" points="564.5,-169.815 564.5,-199.815 769.5,-199.815 769.5,-169.815 564.5,-169.815"/>
<text text-anchor="start" x="572.5" y="-187.815" font-family="Helvetica,sans-Serif" font-size="10.00">slogo.UI.ModuleCreationHelper.activate</text>
<text text-anchor="middle" x="667" y="-176.815" font-family="Helvetica,sans-Serif" font-size="10.00">PlayButton</text>
</a>
</g>
</g>
<!-- Node3&#45;&gt;Node13 -->
<g id="edge14" class="edge"><title>Node3&#45;&gt;Node13</title>
<path fill="none" stroke="midnightblue" d="M532.082,-184.815C542.652,-184.815 553.54,-184.815 564.327,-184.815"/>
<polygon fill="midnightblue" stroke="midnightblue" points="532.061,-181.315 522.061,-184.815 532.061,-188.315 532.061,-181.315"/>
</g>
<!-- Node16 -->
<g id="node16" class="node"><title>Node16</title>
<g id="a_node16"><a xlink:href="../../db/d19/classslogo_1_1_u_i_1_1_module_creation_helper.html#a2e841243ec3ca474e8822102343acc88" target="_top" xlink:title="slogo.UI.ModuleCreationHelper.activate\lNewTurtleButton">
<polygon fill="white" stroke="black" points="806.5,-7.8146 806.5,-37.8146 1011.5,-37.8146 1011.5,-7.8146 806.5,-7.8146"/>
<text text-anchor="start" x="814.5" y="-25.8146" font-family="Helvetica,sans-Serif" font-size="10.00">slogo.UI.ModuleCreationHelper.activate</text>
<text text-anchor="middle" x="909" y="-14.8146" font-family="Helvetica,sans-Serif" font-size="10.00">NewTurtleButton</text>
</a>
</g>
</g>
<!-- Node3&#45;&gt;Node16 -->
<g id="edge18" class="edge"><title>Node3&#45;&gt;Node16</title>
<path fill="none" stroke="midnightblue" d="M457.751,-160.268C474.628,-125.157 510.98,-61.8553 564,-34.8146 647.845,7.9468 758.73,2.63379 831.647,-7.78532"/>
<polygon fill="midnightblue" stroke="midnightblue" points="454.371,-159.237 453.325,-169.78 460.717,-162.19 454.371,-159.237"/>
</g>
<!-- Node18 -->
<g id="node18" class="node"><title>Node18</title>
<g id="a_node18"><a xlink:href="../../db/d19/classslogo_1_1_u_i_1_1_module_creation_helper.html#a69e17abcc7cf9a6ed7261d8fb1d631fa" target="_top" xlink:title="slogo.UI.ModuleCreationHelper.activate\lIncreaseDecreaseButtons">
<polygon fill="white" stroke="black" points="806.5,-206.815 806.5,-236.815 1011.5,-236.815 1011.5,-206.815 806.5,-206.815"/>
<text text-anchor="start" x="814.5" y="-224.815" font-family="Helvetica,sans-Serif" font-size="10.00">slogo.UI.ModuleCreationHelper.activate</text>
<text text-anchor="middle" x="909" y="-213.815" font-family="Helvetica,sans-Serif" font-size="10.00">IncreaseDecreaseButtons</text>
</a>
</g>
</g>
<!-- Node3&#45;&gt;Node18 -->
<g id="edge21" class="edge"><title>Node3&#45;&gt;Node18</title>
<path fill="none" stroke="midnightblue" d="M520.56,-201.823C534.898,-204.593 549.866,-207.11 564,-208.815 645.14,-218.602 737.753,-221.643 806.429,-222.352"/>
<polygon fill="midnightblue" stroke="midnightblue" points="521.243,-198.39 510.752,-199.871 519.877,-205.255 521.243,-198.39"/>
</g>
<!-- Node20 -->
<g id="node20" class="node"><title>Node20</title>
<g id="a_node20"><a xlink:href="../../db/d19/classslogo_1_1_u_i_1_1_module_creation_helper.html#aa70b0ad9e90e62509149bfd2ef2ba209" target="_top" xlink:title="slogo.UI.ModuleCreationHelper.activate\lKeyEvents">
<polygon fill="white" stroke="black" points="1290.5,-289.815 1290.5,-319.815 1495.5,-319.815 1495.5,-289.815 1290.5,-289.815"/>
<text text-anchor="start" x="1298.5" y="-307.815" font-family="Helvetica,sans-Serif" font-size="10.00">slogo.UI.ModuleCreationHelper.activate</text>
<text text-anchor="middle" x="1393" y="-296.815" font-family="Helvetica,sans-Serif" font-size="10.00">KeyEvents</text>
</a>
</g>
</g>
<!-- Node3&#45;&gt;Node20 -->
<g id="edge24" class="edge"><title>Node3&#45;&gt;Node20</title>
<path fill="none" stroke="midnightblue" d="M472.65,-206.222C495.183,-223.694 529.646,-247.308 564,-258.815 695.739,-302.941 1099.45,-306.678 1290.18,-305.845"/>
<polygon fill="midnightblue" stroke="midnightblue" points="474.636,-203.329 464.624,-199.864 470.289,-208.816 474.636,-203.329"/>
</g>
<!-- Node21 -->
<g id="node21" class="node"><title>Node21</title>
<g id="a_node21"><a xlink:href="../../d1/d5f/classslogo_1_1_u_i_1_1_path_color_selector.html#ad3d9c82a0904c97edcec7cf67b85bd7b" target="_top" xlink:title="slogo.UI.PathColorSelector.create">
<polygon fill="white" stroke="black" points="579,-82.3146 579,-101.315 755,-101.315 755,-82.3146 579,-82.3146"/>
<text text-anchor="middle" x="667" y="-89.3146" font-family="Helvetica,sans-Serif" font-size="10.00">slogo.UI.PathColorSelector.create</text>
</a>
</g>
</g>
<!-- Node3&#45;&gt;Node21 -->
<g id="edge26" class="edge"><title>Node3&#45;&gt;Node21</title>
<path fill="none" stroke="midnightblue" d="M474.184,-163.384C496.92,-146.539 530.871,-123.819 564,-110.815 573.893,-106.931 584.643,-103.829 595.331,-101.353"/>
<polygon fill="midnightblue" stroke="midnightblue" points="471.923,-160.705 466.044,-169.519 476.136,-166.295 471.923,-160.705"/>
</g>
<!-- Node22 -->
<g id="node22" class="node"><title>Node22</title>
<g id="a_node22"><a xlink:href="../../dd/da7/classslogo_1_1_u_i_1_1_turtle_image_selector.html#a3f268d9196ffebcbb5dc322d2897a9fe" target="_top" xlink:title="slogo.UI.TurtleImageSelector.create">
<polygon fill="white" stroke="black" points="574,-44.3146 574,-63.3146 760,-63.3146 760,-44.3146 574,-44.3146"/>
<text text-anchor="middle" x="667" y="-51.3146" font-family="Helvetica,sans-Serif" font-size="10.00">slogo.UI.TurtleImageSelector.create</text>
</a>
</g>
</g>
<!-- Node3&#45;&gt;Node22 -->
<g id="edge28" class="edge"><title>Node3&#45;&gt;Node22</title>
<path fill="none" stroke="midnightblue" d="M464.399,-161.437C485.109,-135.43 522.188,-94.2574 564,-72.8146 571.613,-68.9102 579.913,-65.8005 588.382,-63.3252"/>
<polygon fill="midnightblue" stroke="midnightblue" points="461.405,-159.586 458.021,-169.625 466.927,-163.888 461.405,-159.586"/>
</g>
<!-- Node5 -->
<g id="node5" class="node"><title>Node5</title>
<g id="a_node5"><a xlink:href="../../db/d19/classslogo_1_1_u_i_1_1_module_creation_helper.html#af7f2919454fdbf6e9d7d912e99634857" target="_top" xlink:title="slogo.UI.ModuleCreationHelper.create\lSelectors">
<polygon fill="white" stroke="black" points="810.5,-83.8146 810.5,-113.815 1007.5,-113.815 1007.5,-83.8146 810.5,-83.8146"/>
<text text-anchor="start" x="818.5" y="-101.815" font-family="Helvetica,sans-Serif" font-size="10.00">slogo.UI.ModuleCreationHelper.create</text>
<text text-anchor="middle" x="909" y="-90.8146" font-family="Helvetica,sans-Serif" font-size="10.00">Selectors</text>
</a>
</g>
</g>
<!-- Node4&#45;&gt;Node5 -->
<g id="edge4" class="edge"><title>Node4&#45;&gt;Node5</title>
<path fill="none" stroke="midnightblue" d="M747.179,-123.608C767.396,-120.491 789.368,-117.104 810.389,-113.863"/>
<polygon fill="midnightblue" stroke="midnightblue" points="746.446,-120.179 737.096,-125.162 747.513,-127.098 746.446,-120.179"/>
</g>
<!-- Node6 -->
<g id="node6" class="node"><title>Node6</title>
<g id="a_node6"><a xlink:href="../../db/d19/classslogo_1_1_u_i_1_1_module_creation_helper.html#a7c650957b2389d6e6d36e8be8a33cd2b" target="_top" xlink:title="slogo.UI.ModuleCreationHelper.create\lSelectorVBoxModules">
<polygon fill="white" stroke="black" points="1294.5,-150.815 1294.5,-180.815 1491.5,-180.815 1491.5,-150.815 1294.5,-150.815"/>
<text text-anchor="start" x="1302.5" y="-168.815" font-family="Helvetica,sans-Serif" font-size="10.00">slogo.UI.ModuleCreationHelper.create</text>
<text text-anchor="middle" x="1393" y="-157.815" font-family="Helvetica,sans-Serif" font-size="10.00">SelectorVBoxModules</text>
</a>
</g>
</g>
<!-- Node5&#45;&gt;Node6 -->
<g id="edge5" class="edge"><title>Node5&#45;&gt;Node6</title>
<path fill="none" stroke="midnightblue" d="M1018.09,-108.626C1086.01,-115.395 1175.36,-125.404 1254,-137.815 1276.82,-141.416 1301.6,-146.174 1323.78,-150.744"/>
<polygon fill="midnightblue" stroke="midnightblue" points="1018.09,-105.11 1007.8,-107.609 1017.41,-112.076 1018.09,-105.11"/>
</g>
<!-- Node7 -->
<g id="node7" class="node"><title>Node7</title>
<g id="a_node7"><a xlink:href="../../db/d19/classslogo_1_1_u_i_1_1_module_creation_helper.html#afb9dbbbad7d872234a5b296fe129a34e" target="_top" xlink:title="slogo.UI.ModuleCreationHelper.create\lMainPageModules">
<polygon fill="white" stroke="black" points="1532.5,-240.815 1532.5,-270.815 1729.5,-270.815 1729.5,-240.815 1532.5,-240.815"/>
<text text-anchor="start" x="1540.5" y="-258.815" font-family="Helvetica,sans-Serif" font-size="10.00">slogo.UI.ModuleCreationHelper.create</text>
<text text-anchor="middle" x="1631" y="-247.815" font-family="Helvetica,sans-Serif" font-size="10.00">MainPageModules</text>
</a>
</g>
</g>
<!-- Node6&#45;&gt;Node7 -->
<g id="edge6" class="edge"><title>Node6&#45;&gt;Node7</title>
<path fill="none" stroke="midnightblue" d="M1443.06,-184.524C1486.74,-201.18 1549.82,-225.238 1590.37,-240.701"/>
<polygon fill="midnightblue" stroke="midnightblue" points="1444.09,-181.172 1433.5,-180.879 1441.6,-187.712 1444.09,-181.172"/>
</g>
<!-- Node8 -->
<g id="node8" class="node"><title>Node8</title>
<g id="a_node8"><a xlink:href="../../d9/d33/classslogo_1_1_u_i_1_1_main.html#a15b7f2e399ee24d160550993ab737e73" target="_top" xlink:title="slogo.UI.Main.start">
<polygon fill="white" stroke="black" points="1766,-222.315 1766,-241.315 1872,-241.315 1872,-222.315 1766,-222.315"/>
<text text-anchor="middle" x="1819" y="-229.315" font-family="Helvetica,sans-Serif" font-size="10.00">slogo.UI.Main.start</text>
</a>
</g>
</g>
<!-- Node7&#45;&gt;Node8 -->
<g id="edge7" class="edge"><title>Node7&#45;&gt;Node8</title>
<path fill="none" stroke="midnightblue" d="M1739.8,-241.904C1748.76,-240.749 1757.53,-239.617 1765.76,-238.555"/>
<polygon fill="midnightblue" stroke="midnightblue" points="1739.1,-238.466 1729.63,-243.217 1740,-245.409 1739.1,-238.466"/>
</g>
<!-- Node9 -->
<g id="node9" class="node"><title>Node9</title>
<g id="a_node9"><a xlink:href="../../db/d19/classslogo_1_1_u_i_1_1_module_creation_helper.html#a3be12a7cc2b8a219db1e296211a2cb88" target="_top" xlink:title="slogo.UI.ModuleCreationHelper.activate\lExtraWorkspaceButton">
<polygon fill="white" stroke="black" points="1908.5,-204.815 1908.5,-234.815 2113.5,-234.815 2113.5,-204.815 1908.5,-204.815"/>
<text text-anchor="start" x="1916.5" y="-222.815" font-family="Helvetica,sans-Serif" font-size="10.00">slogo.UI.ModuleCreationHelper.activate</text>
<text text-anchor="middle" x="2011" y="-211.815" font-family="Helvetica,sans-Serif" font-size="10.00">ExtraWorkspaceButton</text>
</a>
</g>
</g>
<!-- Node8&#45;&gt;Node9 -->
<g id="edge8" class="edge"><title>Node8&#45;&gt;Node9</title>
<path fill="none" stroke="midnightblue" d="M1882.22,-227.885C1890.63,-227.354 1899.44,-226.797 1908.32,-226.236"/>
<polygon fill="midnightblue" stroke="midnightblue" points="1881.93,-224.396 1872.17,-228.52 1882.37,-231.382 1881.93,-224.396"/>
</g>
<!-- Node10 -->
<g id="node10" class="node"><title>Node10</title>
<g id="a_node10"><a xlink:href="../../db/d19/classslogo_1_1_u_i_1_1_module_creation_helper.html#a702c1ebe24d2857a10c666eb1fcc315d" target="_top" xlink:title="slogo.UI.ModuleCreationHelper.create\lExtraWorkspaceButton">
<polygon fill="white" stroke="black" points="2150.5,-179.815 2150.5,-209.815 2347.5,-209.815 2347.5,-179.815 2150.5,-179.815"/>
<text text-anchor="start" x="2158.5" y="-197.815" font-family="Helvetica,sans-Serif" font-size="10.00">slogo.UI.ModuleCreationHelper.create</text>
<text text-anchor="middle" x="2249" y="-186.815" font-family="Helvetica,sans-Serif" font-size="10.00">ExtraWorkspaceButton</text>
</a>
</g>
</g>
<!-- Node9&#45;&gt;Node10 -->
<g id="edge9" class="edge"><title>Node9&#45;&gt;Node10</title>
<path fill="none" stroke="midnightblue" d="M2123.77,-207.975C2132.62,-207.037 2141.52,-206.094 2150.27,-205.167"/>
<polygon fill="midnightblue" stroke="midnightblue" points="2123.37,-204.497 2113.8,-209.031 2124.11,-211.458 2123.37,-204.497"/>
</g>
<!-- Node10&#45;&gt;Node6 -->
<g id="edge10" class="edge"><title>Node10&#45;&gt;Node6</title>
<path fill="none" stroke="midnightblue" d="M2140.34,-191.159C1972.9,-185.473 1652.6,-174.596 1491.55,-169.127"/>
<polygon fill="midnightblue" stroke="midnightblue" points="2140.3,-194.659 2150.41,-191.501 2140.54,-187.663 2140.3,-194.659"/>
</g>
<!-- Node12 -->
<g id="node12" class="node"><title>Node12</title>
<g id="a_node12"><a xlink:href="../../db/d19/classslogo_1_1_u_i_1_1_module_creation_helper.html#a803bac6b55bde712b21f2face1eeef81" target="_top" xlink:title="slogo.UI.ModuleCreationHelper.create\lTurtleCanvas">
<polygon fill="white" stroke="black" points="1294.5,-240.815 1294.5,-270.815 1491.5,-270.815 1491.5,-240.815 1294.5,-240.815"/>
<text text-anchor="start" x="1302.5" y="-258.815" font-family="Helvetica,sans-Serif" font-size="10.00">slogo.UI.ModuleCreationHelper.create</text>
<text text-anchor="middle" x="1393" y="-247.815" font-family="Helvetica,sans-Serif" font-size="10.00">TurtleCanvas</text>
</a>
</g>
</g>
<!-- Node11&#45;&gt;Node12 -->
<g id="edge12" class="edge"><title>Node11&#45;&gt;Node12</title>
<path fill="none" stroke="midnightblue" d="M1263.89,-258.484C1274.04,-258.272 1284.26,-258.059 1294.27,-257.851"/>
<polygon fill="midnightblue" stroke="midnightblue" points="1263.71,-254.987 1253.78,-258.694 1263.85,-261.985 1263.71,-254.987"/>
</g>
<!-- Node12&#45;&gt;Node7 -->
<g id="edge13" class="edge"><title>Node12&#45;&gt;Node7</title>
<path fill="none" stroke="midnightblue" d="M1501.83,-255.815C1512.01,-255.815 1522.3,-255.815 1532.38,-255.815"/>
<polygon fill="midnightblue" stroke="midnightblue" points="1501.69,-252.315 1491.69,-255.815 1501.69,-259.315 1501.69,-252.315"/>
</g>
<!-- Node14 -->
<g id="node14" class="node"><title>Node14</title>
<g id="a_node14"><a xlink:href="../../db/d19/classslogo_1_1_u_i_1_1_module_creation_helper.html#a9b3fb38a55b3b7812b4f793afa7a974f" target="_top" xlink:title="slogo.UI.ModuleCreationHelper.create\lPlayButton">
<polygon fill="white" stroke="black" points="810.5,-154.815 810.5,-184.815 1007.5,-184.815 1007.5,-154.815 810.5,-154.815"/>
<text text-anchor="start" x="818.5" y="-172.815" font-family="Helvetica,sans-Serif" font-size="10.00">slogo.UI.ModuleCreationHelper.create</text>
<text text-anchor="middle" x="909" y="-161.815" font-family="Helvetica,sans-Serif" font-size="10.00">PlayButton</text>
</a>
</g>
</g>
<!-- Node13&#45;&gt;Node14 -->
<g id="edge15" class="edge"><title>Node13&#45;&gt;Node14</title>
<path fill="none" stroke="midnightblue" d="M779.89,-177.821C790.035,-177.187 800.258,-176.548 810.267,-175.923"/>
<polygon fill="midnightblue" stroke="midnightblue" points="779.544,-174.336 769.782,-178.453 779.98,-181.323 779.544,-174.336"/>
</g>
<!-- Node15 -->
<g id="node15" class="node"><title>Node15</title>
<g id="a_node15"><a xlink:href="../../db/d19/classslogo_1_1_u_i_1_1_module_creation_helper.html#ae1e60d37509c2e5eddcb2a6e70b4f650" target="_top" xlink:title="slogo.UI.ModuleCreationHelper.create\lFirstRowButtons">
<polygon fill="white" stroke="black" points="1052.5,-147.815 1052.5,-177.815 1249.5,-177.815 1249.5,-147.815 1052.5,-147.815"/>
<text text-anchor="start" x="1060.5" y="-165.815" font-family="Helvetica,sans-Serif" font-size="10.00">slogo.UI.ModuleCreationHelper.create</text>
<text text-anchor="middle" x="1151" y="-154.815" font-family="Helvetica,sans-Serif" font-size="10.00">FirstRowButtons</text>
</a>
</g>
</g>
<!-- Node14&#45;&gt;Node15 -->
<g id="edge16" class="edge"><title>Node14&#45;&gt;Node15</title>
<path fill="none" stroke="midnightblue" d="M1017.73,-166.672C1029.3,-166.335 1041.03,-165.993 1052.47,-165.659"/>
<polygon fill="midnightblue" stroke="midnightblue" points="1017.51,-163.177 1007.62,-166.967 1017.72,-170.174 1017.51,-163.177"/>
</g>
<!-- Node15&#45;&gt;Node6 -->
<g id="edge17" class="edge"><title>Node15&#45;&gt;Node6</title>
<path fill="none" stroke="midnightblue" d="M1259.73,-164.161C1271.3,-164.306 1283.03,-164.452 1294.47,-164.595"/>
<polygon fill="midnightblue" stroke="midnightblue" points="1259.66,-160.66 1249.62,-164.035 1259.57,-167.66 1259.66,-160.66"/>
</g>
<!-- Node17 -->
<g id="node17" class="node"><title>Node17</title>
<g id="a_node17"><a xlink:href="../../db/d19/classslogo_1_1_u_i_1_1_module_creation_helper.html#a07f5483df317cdf80e8ea2dda5699afa" target="_top" xlink:title="slogo.UI.ModuleCreationHelper.create\lNewTurtleButton">
<polygon fill="white" stroke="black" points="1052.5,-30.8146 1052.5,-60.8146 1249.5,-60.8146 1249.5,-30.8146 1052.5,-30.8146"/>
<text text-anchor="start" x="1060.5" y="-48.8146" font-family="Helvetica,sans-Serif" font-size="10.00">slogo.UI.ModuleCreationHelper.create</text>
<text text-anchor="middle" x="1151" y="-37.8146" font-family="Helvetica,sans-Serif" font-size="10.00">NewTurtleButton</text>
</a>
</g>
</g>
<!-- Node16&#45;&gt;Node17 -->
<g id="edge19" class="edge"><title>Node16&#45;&gt;Node17</title>
<path fill="none" stroke="midnightblue" d="M1021.89,-33.5374C1032.04,-34.5096 1042.26,-35.4893 1052.27,-36.4485"/>
<polygon fill="midnightblue" stroke="midnightblue" points="1022.07,-30.0387 1011.78,-32.5687 1021.4,-37.0068 1022.07,-30.0387"/>
</g>
<!-- Node17&#45;&gt;Node6 -->
<g id="edge20" class="edge"><title>Node17&#45;&gt;Node6</title>
<path fill="none" stroke="midnightblue" d="M1196.84,-65.2393C1214.75,-73.2041 1235.48,-82.6843 1254,-91.8146 1293.26,-111.165 1337.72,-135.445 1365.31,-150.8"/>
<polygon fill="midnightblue" stroke="midnightblue" points="1197.77,-61.8255 1187.21,-60.9822 1194.94,-68.2275 1197.77,-61.8255"/>
</g>
<!-- Node19 -->
<g id="node19" class="node"><title>Node19</title>
<g id="a_node19"><a xlink:href="../../db/d19/classslogo_1_1_u_i_1_1_module_creation_helper.html#adce7362386f9a7b3006e7db08a2d578d" target="_top" xlink:title="slogo.UI.ModuleCreationHelper.create\lIncreaseDecreaseButtons">
<polygon fill="white" stroke="black" points="1052.5,-196.815 1052.5,-226.815 1249.5,-226.815 1249.5,-196.815 1052.5,-196.815"/>
<text text-anchor="start" x="1060.5" y="-214.815" font-family="Helvetica,sans-Serif" font-size="10.00">slogo.UI.ModuleCreationHelper.create</text>
<text text-anchor="middle" x="1151" y="-203.815" font-family="Helvetica,sans-Serif" font-size="10.00">IncreaseDecreaseButtons</text>
</a>
</g>
</g>
<!-- Node18&#45;&gt;Node19 -->
<g id="edge22" class="edge"><title>Node18&#45;&gt;Node19</title>
<path fill="none" stroke="midnightblue" d="M1021.89,-217.153C1032.04,-216.73 1042.26,-216.304 1052.27,-215.887"/>
<polygon fill="midnightblue" stroke="midnightblue" points="1021.63,-213.66 1011.78,-217.574 1021.92,-220.654 1021.63,-213.66"/>
</g>
<!-- Node19&#45;&gt;Node6 -->
<g id="edge23" class="edge"><title>Node19&#45;&gt;Node6</title>
<path fill="none" stroke="midnightblue" d="M1240.72,-194.811C1264.64,-190.226 1290.34,-185.3 1313.65,-180.832"/>
<polygon fill="midnightblue" stroke="midnightblue" points="1239.75,-191.433 1230.58,-196.752 1241.07,-198.307 1239.75,-191.433"/>
</g>
<!-- Node20&#45;&gt;Node7 -->
<g id="edge25" class="edge"><title>Node20&#45;&gt;Node7</title>
<path fill="none" stroke="midnightblue" d="M1476.42,-287.702C1502.9,-282.203 1532.03,-276.157 1557.73,-270.821"/>
<polygon fill="midnightblue" stroke="midnightblue" points="1475.49,-284.32 1466.41,-289.78 1476.91,-291.174 1475.49,-284.32"/>
</g>
<!-- Node21&#45;&gt;Node5 -->
<g id="edge27" class="edge"><title>Node21&#45;&gt;Node5</title>
<path fill="none" stroke="midnightblue" d="M765.45,-94.6569C780.2,-95.0871 795.423,-95.5311 810.181,-95.9616"/>
<polygon fill="midnightblue" stroke="midnightblue" points="765.422,-91.1547 755.324,-94.3616 765.218,-98.1517 765.422,-91.1547"/>
</g>
<!-- Node22&#45;&gt;Node5 -->
<g id="edge29" class="edge"><title>Node22&#45;&gt;Node5</title>
<path fill="none" stroke="midnightblue" d="M729.434,-65.2369C742.807,-67.7293 756.879,-70.3565 770,-72.8146 788.931,-76.3611 809.319,-80.1947 828.463,-83.8005"/>
<polygon fill="midnightblue" stroke="midnightblue" points="729.843,-61.753 719.371,-63.3623 728.561,-68.6346 729.843,-61.753"/>
</g>
<!-- Node24 -->
<g id="node24" class="node"><title>Node24</title>
<g id="a_node24"><a xlink:href="../../db/d19/classslogo_1_1_u_i_1_1_module_creation_helper.html#a9fd730f7c1860d34bf4ac46c3828bd59" target="_top" xlink:title="slogo.UI.ModuleCreationHelper.activate\lStepIntoButton">
<polygon fill="white" stroke="black" points="564.5,-382.815 564.5,-412.815 769.5,-412.815 769.5,-382.815 564.5,-382.815"/>
<text text-anchor="start" x="572.5" y="-400.815" font-family="Helvetica,sans-Serif" font-size="10.00">slogo.UI.ModuleCreationHelper.activate</text>
<text text-anchor="middle" x="667" y="-389.815" font-family="Helvetica,sans-Serif" font-size="10.00">StepIntoButton</text>
</a>
</g>
</g>
<!-- Node23&#45;&gt;Node24 -->
<g id="edge31" class="edge"><title>Node23&#45;&gt;Node24</title>
<path fill="none" stroke="midnightblue" d="M535.334,-394.235C544.824,-394.495 554.535,-394.761 564.167,-395.025"/>
<polygon fill="midnightblue" stroke="midnightblue" points="535.229,-390.731 525.137,-393.955 535.037,-397.728 535.229,-390.731"/>
</g>
<!-- Node25 -->
<g id="node25" class="node"><title>Node25</title>
<g id="a_node25"><a xlink:href="../../db/d19/classslogo_1_1_u_i_1_1_module_creation_helper.html#a4a6f1f009507c25be8c7c28cbba35f3b" target="_top" xlink:title="slogo.UI.ModuleCreationHelper.create\lDebugStepIntoButton">
<polygon fill="white" stroke="black" points="810.5,-382.815 810.5,-412.815 1007.5,-412.815 1007.5,-382.815 810.5,-382.815"/>
<text text-anchor="start" x="818.5" y="-400.815" font-family="Helvetica,sans-Serif" font-size="10.00">slogo.UI.ModuleCreationHelper.create</text>
<text text-anchor="middle" x="909" y="-389.815" font-family="Helvetica,sans-Serif" font-size="10.00">DebugStepIntoButton</text>
</a>
</g>
</g>
<!-- Node24&#45;&gt;Node25 -->
<g id="edge32" class="edge"><title>Node24&#45;&gt;Node25</title>
<path fill="none" stroke="midnightblue" d="M779.89,-397.815C790.035,-397.815 800.258,-397.815 810.267,-397.815"/>
<polygon fill="midnightblue" stroke="midnightblue" points="779.782,-394.315 769.782,-397.815 779.782,-401.315 779.782,-394.315"/>
</g>
<!-- Node26 -->
<g id="node26" class="node"><title>Node26</title>
<g id="a_node26"><a xlink:href="../../db/d19/classslogo_1_1_u_i_1_1_module_creation_helper.html#a975af4ea47dc85df72215bdf1a0d20ce" target="_top" xlink:title="slogo.UI.ModuleCreationHelper.create\lDebugModules">
<polygon fill="white" stroke="black" points="1052.5,-333.815 1052.5,-363.815 1249.5,-363.815 1249.5,-333.815 1052.5,-333.815"/>
<text text-anchor="start" x="1060.5" y="-351.815" font-family="Helvetica,sans-Serif" font-size="10.00">slogo.UI.ModuleCreationHelper.create</text>
<text text-anchor="middle" x="1151" y="-340.815" font-family="Helvetica,sans-Serif" font-size="10.00">DebugModules</text>
</a>
</g>
</g>
<!-- Node25&#45;&gt;Node26 -->
<g id="edge33" class="edge"><title>Node25&#45;&gt;Node26</title>
<path fill="none" stroke="midnightblue" d="M993.461,-380.775C1020.49,-375.256 1050.25,-369.18 1076.5,-363.821"/>
<polygon fill="midnightblue" stroke="midnightblue" points="992.737,-377.35 983.639,-382.78 994.137,-384.209 992.737,-377.35"/>
</g>
<!-- Node26&#45;&gt;Node7 -->
<g id="edge34" class="edge"><title>Node26&#45;&gt;Node7</title>
<path fill="none" stroke="midnightblue" d="M1259.53,-354.531C1328.4,-355.29 1418.97,-350.834 1496,-328.815 1539.05,-316.508 1583.66,-288.636 1609.01,-271.113"/>
<polygon fill="midnightblue" stroke="midnightblue" points="1259.59,-351.032 1249.53,-354.383 1259.48,-358.031 1259.59,-351.032"/>
</g>
<!-- Node28 -->
<g id="node28" class="node"><title>Node28</title>
<g id="a_node28"><a xlink:href="../../db/d19/classslogo_1_1_u_i_1_1_module_creation_helper.html#a0fed0bb32bf2643d6fd5c24d82e8e18e" target="_top" xlink:title="slogo.UI.ModuleCreationHelper.activate\lStepOverButton">
<polygon fill="white" stroke="black" points="564.5,-333.815 564.5,-363.815 769.5,-363.815 769.5,-333.815 564.5,-333.815"/>
<text text-anchor="start" x="572.5" y="-351.815" font-family="Helvetica,sans-Serif" font-size="10.00">slogo.UI.ModuleCreationHelper.activate</text>
<text text-anchor="middle" x="667" y="-340.815" font-family="Helvetica,sans-Serif" font-size="10.00">StepOverButton</text>
</a>
</g>
</g>
<!-- Node27&#45;&gt;Node28 -->
<g id="edge36" class="edge"><title>Node27&#45;&gt;Node28</title>
<path fill="none" stroke="midnightblue" d="M537.803,-348.815C546.557,-348.815 555.477,-348.815 564.327,-348.815"/>
<polygon fill="midnightblue" stroke="midnightblue" points="537.615,-345.315 527.615,-348.815 537.614,-352.315 537.615,-345.315"/>
</g>
<!-- Node29 -->
<g id="node29" class="node"><title>Node29</title>
<g id="a_node29"><a xlink:href="../../db/d19/classslogo_1_1_u_i_1_1_module_creation_helper.html#aa1e7dc2b509360583790fba0d3819c8d" target="_top" xlink:title="slogo.UI.ModuleCreationHelper.create\lDebugStepOverButton">
<polygon fill="white" stroke="black" points="810.5,-333.815 810.5,-363.815 1007.5,-363.815 1007.5,-333.815 810.5,-333.815"/>
<text text-anchor="start" x="818.5" y="-351.815" font-family="Helvetica,sans-Serif" font-size="10.00">slogo.UI.ModuleCreationHelper.create</text>
<text text-anchor="middle" x="909" y="-340.815" font-family="Helvetica,sans-Serif" font-size="10.00">DebugStepOverButton</text>
</a>
</g>
</g>
<!-- Node28&#45;&gt;Node29 -->
<g id="edge37" class="edge"><title>Node28&#45;&gt;Node29</title>
<path fill="none" stroke="midnightblue" d="M779.89,-348.815C790.035,-348.815 800.258,-348.815 810.267,-348.815"/>
<polygon fill="midnightblue" stroke="midnightblue" points="779.782,-345.315 769.782,-348.815 779.782,-352.315 779.782,-345.315"/>
</g>
<!-- Node29&#45;&gt;Node26 -->
<g id="edge38" class="edge"><title>Node29&#45;&gt;Node26</title>
<path fill="none" stroke="midnightblue" d="M1017.73,-348.815C1029.3,-348.815 1041.03,-348.815 1052.47,-348.815"/>
<polygon fill="midnightblue" stroke="midnightblue" points="1017.62,-345.315 1007.62,-348.815 1017.62,-352.315 1017.62,-345.315"/>
</g>
</g>
</svg>
        <g id="navigator" transform="translate(0 0)" fill="#404254">
                <rect fill="#f2f5e9" fill-opacity="0.5" stroke="#606060" stroke-width=".5" x="0" y="0" width="60" height="60"/>
                <use id="zoomplus" xlink:href="#zoomPlus" x="17" y="9" onmousedown="handleZoom(evt,'in')"/>
                <use id="zoomminus" xlink:href="#zoomMin" x="42" y="9" onmousedown="handleZoom(evt,'out')"/>
                <use id="reset" xlink:href="#resetDef" x="30" y="36" onmousedown="handleReset()"/>
                <g id="arrowUp" xlink:href="#dirArrow" transform="translate(30 24)" onmousedown="handlePan(0,-1)">
                  <use xlink:href="#rim" fill="#404040">
                        <set attributeName="fill" to="#808080" begin="arrowUp.mouseover" end="arrowUp.mouseout"/>
                  </use>
                  <path fill="none" stroke="white" stroke-width="1.5" d="M0,-3.0v7 M-2.5,-0.5L0,-3.0L2.5,-0.5"/>
                </g>
                <g id="arrowRight" xlink:href="#dirArrow" transform="rotate(90) translate(36 -43)" onmousedown="handlePan(1,0)">
                  <use xlink:href="#rim" fill="#404040">
                        <set attributeName="fill" to="#808080" begin="arrowRight.mouseover" end="arrowRight.mouseout"/>
                  </use>
                  <path fill="none" stroke="white" stroke-width="1.5" d="M0,-3.0v7 M-2.5,-0.5L0,-3.0L2.5,-0.5"/>
                </g>
                <g id="arrowDown" xlink:href="#dirArrow" transform="rotate(180) translate(-30 -48)" onmousedown="handlePan(0,1)">
                  <use xlink:href="#rim" fill="#404040">
                        <set attributeName="fill" to="#808080" begin="arrowDown.mouseover" end="arrowDown.mouseout"/>
                  </use>
                  <path fill="none" stroke="white" stroke-width="1.5" d="M0,-3.0v7 M-2.5,-0.5L0,-3.0L2.5,-0.5"/>
                </g>
                <g id="arrowLeft" xlink:href="#dirArrow" transform="rotate(270) translate(-36 17)" onmousedown="handlePan(-1,0)">
                  <use xlink:href="#rim" fill="#404040">
                        <set attributeName="fill" to="#808080" begin="arrowLeft.mouseover" end="arrowLeft.mouseout"/>
                  </use>
                  <path fill="none" stroke="white" stroke-width="1.5" d="M0,-3.0v7 M-2.5,-0.5L0,-3.0L2.5,-0.5"/>
                </g>
        </g>
        <svg viewBox="0 0 15 15" width="100%" height="30px" preserveAspectRatio="xMaxYMin meet">
         <g id="arrow_out" transform="scale(0.3 0.3)">
          <a xlink:href="classslogo_1_1_view_accc79c56511a72090ff8a4d414b8d1f5_icgraph_org.svg" target="_base">
           <rect id="button" ry="5" rx="5" y="6" x="6" height="38" width="38"
                fill="#f2f5e9" fill-opacity="0.5" stroke="#606060" stroke-width="1.0"/>
           <path id="arrow"
             d="M 11.500037,31.436501 C 11.940474,20.09759 22.043105,11.32322 32.158766,21.979434 L 37.068811,17.246167 C 37.068811,17.246167 37.088388,32 37.088388,32 L 22.160133,31.978069 C 22.160133,31.978069 26.997745,27.140456 26.997745,27.140456 C 18.528582,18.264221 13.291696,25.230495 11.500037,31.436501 z"
             style="fill:#404040;"/>
          </a>
         </g>
        </svg>
</svg>
