<?xml version="1.0" encoding="UTF-8" standalone="no"?>
<!DOCTYPE svg PUBLIC "-//W3C//DTD SVG 1.1//EN"
 "http://www.w3.org/Graphics/SVG/1.1/DTD/svg11.dtd">
<!-- Generated by graphviz version 2.36.0 (20140111.2315)
 -->
<!-- Title: slogo.View.init Pages: 1 -->
<svg width="1178pt" height="60pt"
 viewBox="0.00 0.00 1178.00 60.00" xmlns="http://www.w3.org/2000/svg" xmlns:xlink="http://www.w3.org/1999/xlink">
<g id="graph0" class="graph" transform="scale(1 1) rotate(0) translate(4 56)">
<title>slogo.View.init</title>
<polygon fill="white" stroke="none" points="-4,4 -4,-56 1174,-56 1174,4 -4,4"/>
<!-- Node1 -->
<g id="node1" class="node"><title>Node1</title>
<polygon fill="#bfbfbf" stroke="black" points="0.5,-5.5 0.5,-24.5 83.5,-24.5 83.5,-5.5 0.5,-5.5"/>
<text text-anchor="middle" x="42" y="-12.5" font-family="Helvetica,sans-Serif" font-size="10.00">slogo.View.init</text>
</g>
<!-- Node2 -->
<g id="node2" class="node"><title>Node2</title>
<g id="a_node2"><a xlink:href="../../d9/d33/classslogo_1_1_u_i_1_1_main.html#a15b7f2e399ee24d160550993ab737e73" target="_top" xlink:title="slogo.UI.Main.start">
<polygon fill="white" stroke="black" points="120,-5.5 120,-24.5 226,-24.5 226,-5.5 120,-5.5"/>
<text text-anchor="middle" x="173" y="-12.5" font-family="Helvetica,sans-Serif" font-size="10.00">slogo.UI.Main.start</text>
</a>
</g>
</g>
<!-- Node1&#45;&gt;Node2 -->
<g id="edge1" class="edge"><title>Node1&#45;&gt;Node2</title>
<path fill="none" stroke="midnightblue" d="M93.9184,-15C102.367,-15 111.14,-15 119.624,-15"/>
<polygon fill="midnightblue" stroke="midnightblue" points="93.8164,-11.5001 83.8164,-15 93.8164,-18.5001 93.8164,-11.5001"/>
</g>
<!-- Node3 -->
<g id="node3" class="node"><title>Node3</title>
<g id="a_node3"><a xlink:href="../../db/d19/classslogo_1_1_u_i_1_1_module_creation_helper.html#a3be12a7cc2b8a219db1e296211a2cb88" target="_top" xlink:title="slogo.UI.ModuleCreationHelper.activate\lExtraWorkspaceButton">
<polygon fill="white" stroke="black" points="262.5,-22 262.5,-52 467.5,-52 467.5,-22 262.5,-22"/>
<text text-anchor="start" x="270.5" y="-40" font-family="Helvetica,sans-Serif" font-size="10.00">slogo.UI.ModuleCreationHelper.activate</text>
<text text-anchor="middle" x="365" y="-29" font-family="Helvetica,sans-Serif" font-size="10.00">ExtraWorkspaceButton</text>
</a>
</g>
</g>
<!-- Node2&#45;&gt;Node3 -->
<g id="edge2" class="edge"><title>Node2&#45;&gt;Node3</title>
<path fill="none" stroke="midnightblue" d="M236.218,-22.2042C244.632,-23.1785 253.438,-24.1981 262.321,-25.2267"/>
<polygon fill="midnightblue" stroke="midnightblue" points="236.506,-18.7142 226.17,-21.0407 235.701,-25.6678 236.506,-18.7142"/>
</g>
<!-- Node4 -->
<g id="node4" class="node"><title>Node4</title>
<g id="a_node4"><a xlink:href="../../db/d19/classslogo_1_1_u_i_1_1_module_creation_helper.html#a702c1ebe24d2857a10c666eb1fcc315d" target="_top" xlink:title="slogo.UI.ModuleCreationHelper.create\lExtraWorkspaceButton">
<polygon fill="white" stroke="black" points="504.5,-22 504.5,-52 701.5,-52 701.5,-22 504.5,-22"/>
<text text-anchor="start" x="512.5" y="-40" font-family="Helvetica,sans-Serif" font-size="10.00">slogo.UI.ModuleCreationHelper.create</text>
<text text-anchor="middle" x="603" y="-29" font-family="Helvetica,sans-Serif" font-size="10.00">ExtraWorkspaceButton</text>
</a>
</g>
</g>
<!-- Node3&#45;&gt;Node4 -->
<g id="edge3" class="edge"><title>Node3&#45;&gt;Node4</title>
<path fill="none" stroke="midnightblue" d="M478.051,-37C486.813,-37 495.618,-37 504.274,-37"/>
<polygon fill="midnightblue" stroke="midnightblue" points="477.798,-33.5001 467.798,-37 477.798,-40.5001 477.798,-33.5001"/>
</g>
<!-- Node5 -->
<g id="node5" class="node"><title>Node5</title>
<g id="a_node5"><a xlink:href="../../db/d19/classslogo_1_1_u_i_1_1_module_creation_helper.html#a7c650957b2389d6e6d36e8be8a33cd2b" target="_top" xlink:title="slogo.UI.ModuleCreationHelper.create\lSelectorVBoxModules">
<polygon fill="white" stroke="black" points="738.5,-22 738.5,-52 935.5,-52 935.5,-22 738.5,-22"/>
<text text-anchor="start" x="746.5" y="-40" font-family="Helvetica,sans-Serif" font-size="10.00">slogo.UI.ModuleCreationHelper.create</text>
<text text-anchor="middle" x="837" y="-29" font-family="Helvetica,sans-Serif" font-size="10.00">SelectorVBoxModules</text>
</a>
</g>
</g>
<!-- Node4&#45;&gt;Node5 -->
<g id="edge4" class="edge"><title>Node4&#45;&gt;Node5</title>
<path fill="none" stroke="midnightblue" d="M711.722,-37C720.618,-37 729.58,-37 738.396,-37"/>
<polygon fill="midnightblue" stroke="midnightblue" points="711.717,-33.5001 701.716,-37 711.716,-40.5001 711.717,-33.5001"/>
</g>
<!-- Node6 -->
<g id="node6" class="node"><title>Node6</title>
<g id="a_node6"><a xlink:href="../../db/d19/classslogo_1_1_u_i_1_1_module_creation_helper.html#afb9dbbbad7d872234a5b296fe129a34e" target="_top" xlink:title="slogo.UI.ModuleCreationHelper.create\lMainPageModules">
<polygon fill="white" stroke="black" points="972.5,-0 972.5,-30 1169.5,-30 1169.5,-0 972.5,-0"/>
<text text-anchor="start" x="980.5" y="-18" font-family="Helvetica,sans-Serif" font-size="10.00">slogo.UI.ModuleCreationHelper.create</text>
<text text-anchor="middle" x="1071" y="-7" font-family="Helvetica,sans-Serif" font-size="10.00">MainPageModules</text>
</a>
</g>
</g>
<!-- Node5&#45;&gt;Node6 -->
<g id="edge5" class="edge"><title>Node5&#45;&gt;Node6</title>
<path fill="none" stroke="midnightblue" d="M945.722,-26.785C954.618,-25.9414 963.58,-25.0915 972.396,-24.2555"/>
<polygon fill="midnightblue" stroke="midnightblue" points="945.341,-23.3053 935.716,-27.7338 946.002,-30.274 945.341,-23.3053"/>
</g>
<!-- Node6&#45;&gt;Node2 -->
<g id="edge6" class="edge"><title>Node6&#45;&gt;Node2</title>
<path fill="none" stroke="midnightblue" d="M962.266,-12.3776C953.38,-12.2253 944.537,-12.0956 936,-12 636.463,-8.6474 561.512,-6.89616 262,-12 250.384,-12.1979 237.909,-12.5428 226.109,-12.9298"/>
<polygon fill="midnightblue" stroke="midnightblue" points="962.24,-15.8776 972.301,-12.5584 962.366,-8.87874 962.24,-15.8776"/>
</g>
</g>
</svg>
