<?xml version="1.0" encoding="UTF-8" standalone="no"?>
<!DOCTYPE svg PUBLIC "-//W3C//DTD SVG 1.1//EN"
 "http://www.w3.org/Graphics/SVG/1.1/DTD/svg11.dtd">
<!-- Generated by graphviz version 2.36.0 (20140111.2315)
 -->
<!-- Title: slogo.View.initRunner Pages: 1 -->
<svg width="516pt" height="87pt"
 viewBox="0.00 0.00 516.00 87.00" xmlns="http://www.w3.org/2000/svg" xmlns:xlink="http://www.w3.org/1999/xlink">
<g id="graph0" class="graph" transform="scale(1 1) rotate(0) translate(4 83)">
<title>slogo.View.initRunner</title>
<polygon fill="white" stroke="none" points="-4,4 -4,-83 512,-83 512,4 -4,4"/>
<!-- Node1 -->
<g id="node1" class="node"><title>Node1</title>
<polygon fill="#bfbfbf" stroke="black" points="0,-29.5 0,-48.5 116,-48.5 116,-29.5 0,-29.5"/>
<text text-anchor="middle" x="58" y="-36.5" font-family="Helvetica,sans-Serif" font-size="10.00">slogo.View.initRunner</text>
</g>
<!-- Node2 -->
<g id="node2" class="node"><title>Node2</title>
<g id="a_node2"><a xlink:href="../../db/d19/classslogo_1_1_u_i_1_1_module_creation_helper.html#a08cc5ea6e2ea440ad524d13d6faf0a01" target="_top" xlink:title="slogo.UI.ModuleCreationHelper.get\lCanvas">
<polygon fill="white" stroke="black" points="152,-49 152,-79 334,-79 334,-49 152,-49"/>
<text text-anchor="start" x="160" y="-67" font-family="Helvetica,sans-Serif" font-size="10.00">slogo.UI.ModuleCreationHelper.get</text>
<text text-anchor="middle" x="243" y="-56" font-family="Helvetica,sans-Serif" font-size="10.00">Canvas</text>
</a>
</g>
</g>
<!-- Node1&#45;&gt;Node2 -->
<g id="edge1" class="edge"><title>Node1&#45;&gt;Node2</title>
<path fill="none" stroke="midnightblue" d="M116.15,-46.8073C124.379,-47.9315 133.042,-49.115 141.812,-50.3131"/>
<polygon fill="midnightblue" stroke="midnightblue" points="141.36,-53.7838 151.742,-51.6697 142.308,-46.8482 141.36,-53.7838"/>
</g>
<!-- Node4 -->
<g id="node4" class="node"><title>Node4</title>
<g id="a_node4"><a xlink:href="../../db/d19/classslogo_1_1_u_i_1_1_module_creation_helper.html#a8f984fa977c47a0bcd81daa0c6e6ab63" target="_top" xlink:title="slogo.UI.ModuleCreationHelper.get\lTurtleList">
<polygon fill="white" stroke="black" points="152,-0 152,-30 334,-30 334,-0 152,-0"/>
<text text-anchor="start" x="160" y="-18" font-family="Helvetica,sans-Serif" font-size="10.00">slogo.UI.ModuleCreationHelper.get</text>
<text text-anchor="middle" x="243" y="-7" font-family="Helvetica,sans-Serif" font-size="10.00">TurtleList</text>
</a>
</g>
</g>
<!-- Node1&#45;&gt;Node4 -->
<g id="edge3" class="edge"><title>Node1&#45;&gt;Node4</title>
<path fill="none" stroke="midnightblue" d="M116.15,-31.505C124.379,-30.4257 133.042,-29.2896 141.812,-28.1394"/>
<polygon fill="midnightblue" stroke="midnightblue" points="142.282,-31.6078 151.742,-26.8371 141.372,-24.6673 142.282,-31.6078"/>
</g>
<!-- Node3 -->
<g id="node3" class="node"><title>Node3</title>
<g id="a_node3"><a xlink:href="../../d1/d7e/classslogo_1_1_u_i_1_1_turtle_canvas.html#ab409c3c2a963bb1a71e825da03f25465" target="_top" xlink:title="slogo.UI.TurtleCanvas.get\lCanvas">
<polygon fill="white" stroke="black" points="370.5,-49 370.5,-79 507.5,-79 507.5,-49 370.5,-49"/>
<text text-anchor="start" x="378.5" y="-67" font-family="Helvetica,sans-Serif" font-size="10.00">slogo.UI.TurtleCanvas.get</text>
<text text-anchor="middle" x="439" y="-56" font-family="Helvetica,sans-Serif" font-size="10.00">Canvas</text>
</a>
</g>
</g>
<!-- Node2&#45;&gt;Node3 -->
<g id="edge2" class="edge"><title>Node2&#45;&gt;Node3</title>
<path fill="none" stroke="midnightblue" d="M334.185,-64C342.837,-64 351.563,-64 360.083,-64"/>
<polygon fill="midnightblue" stroke="midnightblue" points="360.357,-67.5001 370.357,-64 360.357,-60.5001 360.357,-67.5001"/>
</g>
</g>
</svg>
