<?xml version="1.0" encoding="UTF-8" standalone="no"?>
<!DOCTYPE svg PUBLIC "-//W3C//DTD SVG 1.1//EN"
 "http://www.w3.org/Graphics/SVG/1.1/DTD/svg11.dtd">
<!-- Generated by graphviz version 2.36.0 (20140111.2315)
 -->
<!-- Title: slogo.UI.ListViewUserCommands.create Pages: 1 -->
<svg width="818pt" height="38pt"
 viewBox="0.00 0.00 818.00 38.00" xmlns="http://www.w3.org/2000/svg" xmlns:xlink="http://www.w3.org/1999/xlink">
<g id="graph0" class="graph" transform="scale(1 1) rotate(0) translate(4 34)">
<title>slogo.UI.ListViewUserCommands.create</title>
<polygon fill="white" stroke="none" points="-4,4 -4,-34 814,-34 814,4 -4,4"/>
<!-- Node1 -->
<g id="node1" class="node"><title>Node1</title>
<polygon fill="#bfbfbf" stroke="black" points="0,-5.5 0,-24.5 208,-24.5 208,-5.5 0,-5.5"/>
<text text-anchor="middle" x="104" y="-12.5" font-family="Helvetica,sans-Serif" font-size="10.00">slogo.UI.ListViewUserCommands.create</text>
</g>
<!-- Node2 -->
<g id="node2" class="node"><title>Node2</title>
<g id="a_node2"><a xlink:href="../../db/dc0/classslogo_1_1_u_i_1_1_list_view_all_s_l_o_g_o.html#a5c010e0c2ee827d63a0990c92add658d" target="_top" xlink:title="slogo.UI.ListViewAllSLOGO.create\lListView">
<polygon fill="white" stroke="black" points="244.5,-0 244.5,-30 419.5,-30 419.5,-0 244.5,-0"/>
<text text-anchor="start" x="252.5" y="-18" font-family="Helvetica,sans-Serif" font-size="10.00">slogo.UI.ListViewAllSLOGO.create</text>
<text text-anchor="middle" x="332" y="-7" font-family="Helvetica,sans-Serif" font-size="10.00">ListView</text>
</a>
</g>
</g>
<!-- Node1&#45;&gt;Node2 -->
<g id="edge1" class="edge"><title>Node1&#45;&gt;Node2</title>
<path fill="none" stroke="midnightblue" d="M208.08,-15C216.782,-15 225.563,-15 234.215,-15"/>
<polygon fill="midnightblue" stroke="midnightblue" points="234.299,-18.5001 244.299,-15 234.299,-11.5001 234.299,-18.5001"/>
</g>
<!-- Node3 -->
<g id="node3" class="node"><title>Node3</title>
<g id="a_node3"><a xlink:href="../../da/d8f/classslogo_1_1_u_i_1_1_list_view_creator.html#a80c012ec24a3b0e7dfa02f1ee816f25b" target="_top" xlink:title="slogo.UI.ListViewCreator.create\lListViewWithLabel">
<polygon fill="white" stroke="black" points="456.5,-0 456.5,-30 621.5,-30 621.5,-0 456.5,-0"/>
<text text-anchor="start" x="464.5" y="-18" font-family="Helvetica,sans-Serif" font-size="10.00">slogo.UI.ListViewCreator.create</text>
<text text-anchor="middle" x="539" y="-7" font-family="Helvetica,sans-Serif" font-size="10.00">ListViewWithLabel</text>
</a>
</g>
</g>
<!-- Node2&#45;&gt;Node3 -->
<g id="edge2" class="edge"><title>Node2&#45;&gt;Node3</title>
<path fill="none" stroke="midnightblue" d="M419.641,-15C428.359,-15 437.234,-15 446.006,-15"/>
<polygon fill="midnightblue" stroke="midnightblue" points="446.239,-18.5001 456.239,-15 446.239,-11.5001 446.239,-18.5001"/>
</g>
<!-- Node4 -->
<g id="node4" class="node"><title>Node4</title>
<g id="a_node4"><a xlink:href="../../d7/d0e/classslogo_1_1_u_i_1_1_label_creator.html#a9ca0989ecfc0037d473dd3d2e8ead74f" target="_top" xlink:title="slogo.UI.LabelCreator.create\lLabel">
<polygon fill="white" stroke="black" points="658,-0 658,-30 810,-30 810,-0 658,-0"/>
<text text-anchor="start" x="666" y="-18" font-family="Helvetica,sans-Serif" font-size="10.00">slogo.UI.LabelCreator.create</text>
<text text-anchor="middle" x="734" y="-7" font-family="Helvetica,sans-Serif" font-size="10.00">Label</text>
</a>
</g>
</g>
<!-- Node3&#45;&gt;Node4 -->
<g id="edge3" class="edge"><title>Node3&#45;&gt;Node4</title>
<path fill="none" stroke="midnightblue" d="M621.57,-15C630.221,-15 639.037,-15 647.729,-15"/>
<polygon fill="midnightblue" stroke="midnightblue" points="647.859,-18.5001 657.859,-15 647.859,-11.5001 647.859,-18.5001"/>
</g>
</g>
</svg>
