<?xml version="1.0" encoding="UTF-8" standalone="no"?>
<!DOCTYPE svg PUBLIC "-//W3C//DTD SVG 1.1//EN"
 "http://www.w3.org/Graphics/SVG/1.1/DTD/svg11.dtd">
<!-- Generated by graphviz version 2.36.0 (20140111.2315)
 -->
<!-- Title: slogo.UI.SliderCreator.createSlider Pages: 1 -->
<svg width="352pt" height="38pt"
 viewBox="0.00 0.00 352.00 38.00" xmlns="http://www.w3.org/2000/svg" xmlns:xlink="http://www.w3.org/1999/xlink">
<g id="graph0" class="graph" transform="scale(1 1) rotate(0) translate(4 34)">
<title>slogo.UI.SliderCreator.createSlider</title>
<polygon fill="white" stroke="none" points="-4,4 -4,-34 348,-34 348,4 -4,4"/>
<!-- Node1 -->
<g id="node1" class="node"><title>Node1</title>
<polygon fill="#bfbfbf" stroke="black" points="0,-0 0,-30 154,-30 154,-0 0,-0"/>
<text text-anchor="start" x="8" y="-18" font-family="Helvetica,sans-Serif" font-size="10.00">slogo.UI.SliderCreator.create</text>
<text text-anchor="middle" x="77" y="-7" font-family="Helvetica,sans-Serif" font-size="10.00">Slider</text>
</g>
<!-- Node2 -->
<g id="node2" class="node"><title>Node2</title>
<g id="a_node2"><a xlink:href="../../dc/d28/classslogo_1_1_u_i_1_1_slider_creator.html#a9d7a6e09db65e44f8ec72b1aa127f325" target="_top" xlink:title="slogo.UI.SliderCreator.create\lSlider">
<polygon fill="white" stroke="black" points="190,-0 190,-30 344,-30 344,-0 190,-0"/>
<text text-anchor="start" x="198" y="-18" font-family="Helvetica,sans-Serif" font-size="10.00">slogo.UI.SliderCreator.create</text>
<text text-anchor="middle" x="267" y="-7" font-family="Helvetica,sans-Serif" font-size="10.00">Slider</text>
</a>
</g>
</g>
<!-- Node1&#45;&gt;Node2 -->
<g id="edge1" class="edge"><title>Node1&#45;&gt;Node2</title>
<path fill="none" stroke="midnightblue" d="M154.196,-15C162.517,-15 171.032,-15 179.466,-15"/>
<polygon fill="midnightblue" stroke="midnightblue" points="179.696,-18.5001 189.696,-15 179.696,-11.5001 179.696,-18.5001"/>
</g>
</g>
</svg>
