<?xml version="1.0" encoding="UTF-8" standalone="no"?>
<!DOCTYPE svg PUBLIC "-//W3C//DTD SVG 1.1//EN"
 "http://www.w3.org/Graphics/SVG/1.1/DTD/svg11.dtd">
<!-- Generated by graphviz version 2.36.0 (20140111.2315)
 -->
<!-- Title: slogo.UI.SliderCreator.createSlider Pages: 1 -->
<svg width="1482pt" height="110pt"
 viewBox="0.00 0.00 1482.00 110.00" xmlns="http://www.w3.org/2000/svg" xmlns:xlink="http://www.w3.org/1999/xlink">
<g id="graph0" class="graph" transform="scale(1 1) rotate(0) translate(4 106)">
<title>slogo.UI.SliderCreator.createSlider</title>
<polygon fill="white" stroke="none" points="-4,4 -4,-106 1478,-106 1478,4 -4,4"/>
<!-- Node1 -->
<g id="node1" class="node"><title>Node1</title>
<polygon fill="#bfbfbf" stroke="black" points="0,-25 0,-55 154,-55 154,-25 0,-25"/>
<text text-anchor="start" x="8" y="-43" font-family="Helvetica,sans-Serif" font-size="10.00">slogo.UI.SliderCreator.create</text>
<text text-anchor="middle" x="77" y="-32" font-family="Helvetica,sans-Serif" font-size="10.00">Slider</text>
</g>
<!-- Node2 -->
<g id="node2" class="node"><title>Node2</title>
<g id="a_node2"><a xlink:href="../../db/d19/classslogo_1_1_u_i_1_1_module_creation_helper.html#a656d4da94bd0a30d0d71770d07f1b3e2" target="_top" xlink:title="slogo.UI.ModuleCreationHelper.create\lAnimationSpeedSlider">
<polygon fill="white" stroke="black" points="190.5,-50 190.5,-80 387.5,-80 387.5,-50 190.5,-50"/>
<text text-anchor="start" x="198.5" y="-68" font-family="Helvetica,sans-Serif" font-size="10.00">slogo.UI.ModuleCreationHelper.create</text>
<text text-anchor="middle" x="289" y="-57" font-family="Helvetica,sans-Serif" font-size="10.00">AnimationSpeedSlider</text>
</a>
</g>
</g>
<!-- Node1&#45;&gt;Node2 -->
<g id="edge1" class="edge"><title>Node1&#45;&gt;Node2</title>
<path fill="none" stroke="midnightblue" d="M164.125,-50.253C172.736,-51.2781 181.522,-52.324 190.241,-53.362"/>
<polygon fill="midnightblue" stroke="midnightblue" points="164.455,-46.7677 154.112,-49.0609 163.628,-53.7186 164.455,-46.7677"/>
</g>
<!-- Node8 -->
<g id="node8" class="node"><title>Node8</title>
<g id="a_node8"><a xlink:href="../../dc/d28/classslogo_1_1_u_i_1_1_slider_creator.html#a7f56a41ca013c1b048c2dc37ff36ea54" target="_top" xlink:title="slogo.UI.SliderCreator.create\lSlider">
<polygon fill="white" stroke="black" points="212,-1 212,-31 366,-31 366,-1 212,-1"/>
<text text-anchor="start" x="220" y="-19" font-family="Helvetica,sans-Serif" font-size="10.00">slogo.UI.SliderCreator.create</text>
<text text-anchor="middle" x="289" y="-8" font-family="Helvetica,sans-Serif" font-size="10.00">Slider</text>
</a>
</g>
</g>
<!-- Node1&#45;&gt;Node8 -->
<g id="edge8" class="edge"><title>Node1&#45;&gt;Node8</title>
<path fill="none" stroke="midnightblue" d="M164.35,-30.1315C180.079,-28.3338 196.386,-26.4702 211.795,-24.7091"/>
<polygon fill="midnightblue" stroke="midnightblue" points="163.65,-26.6886 154.112,-31.3015 164.445,-33.6433 163.65,-26.6886"/>
</g>
<!-- Node3 -->
<g id="node3" class="node"><title>Node3</title>
<g id="a_node3"><a xlink:href="../../db/d19/classslogo_1_1_u_i_1_1_module_creation_helper.html#a7c650957b2389d6e6d36e8be8a33cd2b" target="_top" xlink:title="slogo.UI.ModuleCreationHelper.create\lSelectorVBoxModules">
<polygon fill="white" stroke="black" points="424.5,-50 424.5,-80 621.5,-80 621.5,-50 424.5,-50"/>
<text text-anchor="start" x="432.5" y="-68" font-family="Helvetica,sans-Serif" font-size="10.00">slogo.UI.ModuleCreationHelper.create</text>
<text text-anchor="middle" x="523" y="-57" font-family="Helvetica,sans-Serif" font-size="10.00">SelectorVBoxModules</text>
</a>
</g>
</g>
<!-- Node2&#45;&gt;Node3 -->
<g id="edge2" class="edge"><title>Node2&#45;&gt;Node3</title>
<path fill="none" stroke="midnightblue" d="M397.722,-65C406.618,-65 415.58,-65 424.396,-65"/>
<polygon fill="midnightblue" stroke="midnightblue" points="397.717,-61.5001 387.716,-65 397.716,-68.5001 397.717,-61.5001"/>
</g>
<!-- Node4 -->
<g id="node4" class="node"><title>Node4</title>
<g id="a_node4"><a xlink:href="../../db/d19/classslogo_1_1_u_i_1_1_module_creation_helper.html#afb9dbbbad7d872234a5b296fe129a34e" target="_top" xlink:title="slogo.UI.ModuleCreationHelper.create\lMainPageModules">
<polygon fill="white" stroke="black" points="658.5,-72 658.5,-102 855.5,-102 855.5,-72 658.5,-72"/>
<text text-anchor="start" x="666.5" y="-90" font-family="Helvetica,sans-Serif" font-size="10.00">slogo.UI.ModuleCreationHelper.create</text>
<text text-anchor="middle" x="757" y="-79" font-family="Helvetica,sans-Serif" font-size="10.00">MainPageModules</text>
</a>
</g>
</g>
<!-- Node3&#45;&gt;Node4 -->
<g id="edge3" class="edge"><title>Node3&#45;&gt;Node4</title>
<path fill="none" stroke="midnightblue" d="M631.722,-75.215C640.618,-76.0586 649.58,-76.9085 658.396,-77.7445"/>
<polygon fill="midnightblue" stroke="midnightblue" points="632.002,-71.726 621.716,-74.2662 631.341,-78.6947 632.002,-71.726"/>
</g>
<!-- Node5 -->
<g id="node5" class="node"><title>Node5</title>
<g id="a_node5"><a xlink:href="../../d9/d33/classslogo_1_1_u_i_1_1_main.html#a15b7f2e399ee24d160550993ab737e73" target="_top" xlink:title="slogo.UI.Main.start">
<polygon fill="white" stroke="black" points="892,-77.5 892,-96.5 998,-96.5 998,-77.5 892,-77.5"/>
<text text-anchor="middle" x="945" y="-84.5" font-family="Helvetica,sans-Serif" font-size="10.00">slogo.UI.Main.start</text>
</a>
</g>
</g>
<!-- Node4&#45;&gt;Node5 -->
<g id="edge4" class="edge"><title>Node4&#45;&gt;Node5</title>
<path fill="none" stroke="midnightblue" d="M865.804,-87C874.76,-87 883.528,-87 891.764,-87"/>
<polygon fill="midnightblue" stroke="midnightblue" points="865.63,-83.5001 855.63,-87 865.63,-90.5001 865.63,-83.5001"/>
</g>
<!-- Node6 -->
<g id="node6" class="node"><title>Node6</title>
<g id="a_node6"><a xlink:href="../../db/d19/classslogo_1_1_u_i_1_1_module_creation_helper.html#a3be12a7cc2b8a219db1e296211a2cb88" target="_top" xlink:title="slogo.UI.ModuleCreationHelper.activate\lExtraWorkspaceButton">
<polygon fill="white" stroke="black" points="1034.5,-72 1034.5,-102 1239.5,-102 1239.5,-72 1034.5,-72"/>
<text text-anchor="start" x="1042.5" y="-90" font-family="Helvetica,sans-Serif" font-size="10.00">slogo.UI.ModuleCreationHelper.activate</text>
<text text-anchor="middle" x="1137" y="-79" font-family="Helvetica,sans-Serif" font-size="10.00">ExtraWorkspaceButton</text>
</a>
</g>
</g>
<!-- Node5&#45;&gt;Node6 -->
<g id="edge5" class="edge"><title>Node5&#45;&gt;Node6</title>
<path fill="none" stroke="midnightblue" d="M1008.22,-87C1016.63,-87 1025.44,-87 1034.32,-87"/>
<polygon fill="midnightblue" stroke="midnightblue" points="1008.17,-83.5001 998.17,-87 1008.17,-90.5001 1008.17,-83.5001"/>
</g>
<!-- Node7 -->
<g id="node7" class="node"><title>Node7</title>
<g id="a_node7"><a xlink:href="../../db/d19/classslogo_1_1_u_i_1_1_module_creation_helper.html#a702c1ebe24d2857a10c666eb1fcc315d" target="_top" xlink:title="slogo.UI.ModuleCreationHelper.create\lExtraWorkspaceButton">
<polygon fill="white" stroke="black" points="1276.5,-50 1276.5,-80 1473.5,-80 1473.5,-50 1276.5,-50"/>
<text text-anchor="start" x="1284.5" y="-68" font-family="Helvetica,sans-Serif" font-size="10.00">slogo.UI.ModuleCreationHelper.create</text>
<text text-anchor="middle" x="1375" y="-57" font-family="Helvetica,sans-Serif" font-size="10.00">ExtraWorkspaceButton</text>
</a>
</g>
</g>
<!-- Node6&#45;&gt;Node7 -->
<g id="edge6" class="edge"><title>Node6&#45;&gt;Node7</title>
<path fill="none" stroke="midnightblue" d="M1249.77,-76.5812C1258.62,-75.7556 1267.52,-74.9257 1276.27,-74.1101"/>
<polygon fill="midnightblue" stroke="midnightblue" points="1249.43,-73.0972 1239.8,-77.5104 1250.08,-80.067 1249.43,-73.0972"/>
</g>
<!-- Node7&#45;&gt;Node3 -->
<g id="edge7" class="edge"><title>Node7&#45;&gt;Node3</title>
<path fill="none" stroke="midnightblue" d="M1266.26,-63.2517C1257.38,-63.1502 1248.54,-63.0637 1240,-63 981.341,-61.0698 916.659,-61.0698 658,-63 646.251,-63.0877 633.923,-63.2186 621.701,-63.3723"/>
<polygon fill="midnightblue" stroke="midnightblue" points="1266.26,-66.7518 1276.3,-63.3723 1266.34,-59.7523 1266.26,-66.7518"/>
</g>
</g>
</svg>
