<?xml version="1.0" encoding="UTF-8" standalone="no"?>
<!DOCTYPE svg PUBLIC "-//W3C//DTD SVG 1.1//EN"
 "http://www.w3.org/Graphics/SVG/1.1/DTD/svg11.dtd">
<!-- Generated by graphviz version 2.36.0 (20140111.2315)
 -->
<!-- Title: slogo.UI.CommandsTextField Pages: 1 -->
<svg width="160pt" height="96pt"
 viewBox="0.00 0.00 160.00 96.00" xmlns="http://www.w3.org/2000/svg" xmlns:xlink="http://www.w3.org/1999/xlink">
<g id="graph0" class="graph" transform="scale(1 1) rotate(0) translate(4 92)">
<title>slogo.UI.CommandsTextField</title>
<polygon fill="white" stroke="none" points="-4,4 -4,-92 156,-92 156,4 -4,4"/>
<!-- Node1 -->
<g id="node1" class="node"><title>Node1</title>
<polygon fill="#bfbfbf" stroke="black" points="-0.5,-0.5 -0.5,-19.5 152.5,-19.5 152.5,-0.5 -0.5,-0.5"/>
<text text-anchor="middle" x="76" y="-7.5" font-family="Helvetica,sans-Serif" font-size="10.00">slogo.UI.CommandsTextField</text>
</g>
<!-- Node2 -->
<g id="node2" class="node"><title>Node2</title>
<polygon fill="white" stroke="#bfbfbf" points="8,-68.5 8,-87.5 64,-87.5 64,-68.5 8,-68.5"/>
<text text-anchor="middle" x="36" y="-75.5" font-family="Helvetica,sans-Serif" font-size="10.00">TextField</text>
</g>
<!-- Node2&#45;&gt;Node1 -->
<g id="edge1" class="edge"><title>Node2&#45;&gt;Node1</title>
<path fill="none" stroke="#9a32cd" stroke-dasharray="5,2" d="M33.0802,-58.0837C32.9024,-51.3901 33.7407,-44.0313 37,-38 41.3067,-30.0306 49.1129,-23.9249 56.6161,-19.5526"/>
<polygon fill="#9a32cd" stroke="#9a32cd" points="29.6296,-58.7591 34.0907,-68.369 36.5961,-58.0746 29.6296,-58.7591"/>
<text text-anchor="middle" x="66" y="-41.5" font-family="Helvetica,sans-Serif" font-size="10.00"> myTextField</text>
</g>
<!-- Node3 -->
<g id="node3" class="node"><title>Node3</title>
<polygon fill="white" stroke="#bfbfbf" points="94,-68.5 94,-87.5 140,-87.5 140,-68.5 94,-68.5"/>
<text text-anchor="middle" x="117" y="-75.5" font-family="Helvetica,sans-Serif" font-size="10.00">Group</text>
</g>
<!-- Node3&#45;&gt;Node1 -->
<g id="edge2" class="edge"><title>Node3&#45;&gt;Node1</title>
<path fill="none" stroke="#9a32cd" stroke-dasharray="5,2" d="M107.597,-59.4671C103.828,-52.674 99.3516,-44.8886 95,-38 91.0817,-31.7973 86.3317,-25.0473 82.5613,-19.8479"/>
<polygon fill="#9a32cd" stroke="#9a32cd" points="104.656,-61.3856 112.517,-68.4897 110.802,-58.0345 104.656,-61.3856"/>
<text text-anchor="middle" x="121" y="-41.5" font-family="Helvetica,sans-Serif" font-size="10.00"> myRoot</text>
</g>
</g>
</svg>
