<?xml version="1.0" encoding="UTF-8" standalone="no"?>
<!DOCTYPE svg PUBLIC "-//W3C//DTD SVG 1.1//EN"
 "http://www.w3.org/Graphics/SVG/1.1/DTD/svg11.dtd">
<!-- Generated by graphviz version 2.36.0 (20140111.2315)
 -->
<!-- Title: slogo.frontend.Config.ConfigReader Pages: 1 -->
<svg width="417pt" height="188pt"
 viewBox="0.00 0.00 417.00 188.00" xmlns="http://www.w3.org/2000/svg" xmlns:xlink="http://www.w3.org/1999/xlink">
<g id="graph0" class="graph" transform="scale(1 1) rotate(0) translate(4 184)">
<title>slogo.frontend.Config.ConfigReader</title>
<polygon fill="white" stroke="none" points="-4,4 -4,-184 413,-184 413,4 -4,4"/>
<!-- Node1 -->
<g id="node1" class="node"><title>Node1</title>
<polygon fill="#bfbfbf" stroke="black" points="238,-1 238,-31 390,-31 390,-1 238,-1"/>
<text text-anchor="start" x="246" y="-19" font-family="Helvetica,sans-Serif" font-size="10.00">slogo.frontend.Config.Config</text>
<text text-anchor="middle" x="314" y="-8" font-family="Helvetica,sans-Serif" font-size="10.00">Reader</text>
</g>
<!-- Node2 -->
<g id="node2" class="node"><title>Node2</title>
<g id="a_node2"><a xlink:href="../../dd/def/classslogo_1_1frontend_1_1_config_1_1_parameter_distributor.html" target="_top" xlink:title="slogo.frontend.Config.Parameter\lDistributor">
<polygon fill="white" stroke="black" points="128,-81 128,-111 300,-111 300,-81 128,-81"/>
<text text-anchor="start" x="136" y="-99" font-family="Helvetica,sans-Serif" font-size="10.00">slogo.frontend.Config.Parameter</text>
<text text-anchor="middle" x="214" y="-88" font-family="Helvetica,sans-Serif" font-size="10.00">Distributor</text>
</a>
</g>
</g>
<!-- Node2&#45;&gt;Node1 -->
<g id="edge1" class="edge"><title>Node2&#45;&gt;Node1</title>
<path fill="none" stroke="#9a32cd" stroke-dasharray="5,2" d="M230.557,-72.7532C237.015,-64.9757 244.829,-56.5578 253,-50 262.015,-42.7651 272.847,-36.3157 282.865,-31.0802"/>
<polygon fill="#9a32cd" stroke="#9a32cd" points="227.621,-70.8209 224.128,-80.8231 233.096,-75.1827 227.621,-70.8209"/>
<text text-anchor="middle" x="295.5" y="-53.5" font-family="Helvetica,sans-Serif" font-size="10.00"> paramDistributor</text>
</g>
<!-- Node3 -->
<g id="node3" class="node"><title>Node3</title>
<polygon fill="white" stroke="#bfbfbf" points="-0.5,-160.5 -0.5,-179.5 118.5,-179.5 118.5,-160.5 -0.5,-160.5"/>
<text text-anchor="middle" x="59" y="-167.5" font-family="Helvetica,sans-Serif" font-size="10.00">Map&lt; String, Color &gt;</text>
</g>
<!-- Node3&#45;&gt;Node2 -->
<g id="edge2" class="edge"><title>Node3&#45;&gt;Node2</title>
<path fill="none" stroke="#9a32cd" stroke-dasharray="5,2" d="M86.7401,-156.114C114.009,-143.448 155.518,-124.166 183.653,-111.097"/>
<polygon fill="#9a32cd" stroke="#9a32cd" points="84.984,-153.071 77.3892,-160.458 87.933,-159.419 84.984,-153.071"/>
<text text-anchor="middle" x="165.5" y="-133.5" font-family="Helvetica,sans-Serif" font-size="10.00"> colorMap</text>
</g>
<!-- Node4 -->
<g id="node4" class="node"><title>Node4</title>
<polygon fill="white" stroke="#bfbfbf" points="137,-160.5 137,-179.5 265,-179.5 265,-160.5 137,-160.5"/>
<text text-anchor="middle" x="201" y="-167.5" font-family="Helvetica,sans-Serif" font-size="10.00">Map&lt; String, Integer &gt;</text>
</g>
<!-- Node4&#45;&gt;Node2 -->
<g id="edge3" class="edge"><title>Node4&#45;&gt;Node2</title>
<path fill="none" stroke="#9a32cd" stroke-dasharray="5,2" d="M200.265,-149.876C200.344,-143.507 200.787,-136.405 202,-130 203.203,-123.651 205.467,-116.902 207.707,-111.173"/>
<polygon fill="#9a32cd" stroke="#9a32cd" points="196.771,-150.296 200.425,-160.241 203.77,-150.188 196.771,-150.296"/>
<text text-anchor="middle" x="232.5" y="-133.5" font-family="Helvetica,sans-Serif" font-size="10.00"> variableMap</text>
</g>
<!-- Node5 -->
<g id="node5" class="node"><title>Node5</title>
<polygon fill="white" stroke="#bfbfbf" points="287,-160.5 287,-179.5 409,-179.5 409,-160.5 287,-160.5"/>
<text text-anchor="middle" x="348" y="-167.5" font-family="Helvetica,sans-Serif" font-size="10.00">Map&lt; String, String &gt;</text>
</g>
<!-- Node5&#45;&gt;Node1 -->
<g id="edge5" class="edge"><title>Node5&#45;&gt;Node1</title>
<path fill="none" stroke="#9a32cd" stroke-dasharray="5,2" d="M349.479,-150.074C350.679,-126.011 350.492,-83.5628 338,-50 335.479,-43.2281 331.157,-36.6137 326.87,-31.1064"/>
<polygon fill="#9a32cd" stroke="#9a32cd" points="345.971,-150.087 348.826,-160.29 352.957,-150.533 345.971,-150.087"/>
<text text-anchor="middle" x="376" y="-93.5" font-family="Helvetica,sans-Serif" font-size="10.00"> configMap</text>
</g>
<!-- Node5&#45;&gt;Node2 -->
<g id="edge4" class="edge"><title>Node5&#45;&gt;Node2</title>
<path fill="none" stroke="#9a32cd" stroke-dasharray="5,2" d="M316.591,-156.39C306.66,-152.121 295.739,-147.128 286,-142 268.131,-132.591 248.767,-120.365 234.626,-111.032"/>
<polygon fill="#9a32cd" stroke="#9a32cd" points="315.536,-159.744 326.111,-160.397 318.251,-153.292 315.536,-159.744"/>
<text text-anchor="middle" x="312" y="-133.5" font-family="Helvetica,sans-Serif" font-size="10.00"> configMap</text>
</g>
</g>
</svg>
