<?xml version="1.0" encoding="UTF-8" standalone="no"?>
<!DOCTYPE svg PUBLIC "-//W3C//DTD SVG 1.1//EN"
 "http://www.w3.org/Graphics/SVG/1.1/DTD/svg11.dtd">
<!-- Generated by graphviz version 2.36.0 (20140111.2315)
 -->
<!-- Title: slogo.UI.LabelCreator.createLabel Pages: 1 -->
<!--zoomable 640 -->
<svg id="main" version="1.1" xmlns="http://www.w3.org/2000/svg" xmlns:xlink="http://www.w3.org/1999/xlink" xml:space="preserve" onload="init(evt)">
<style type="text/css"><![CDATA[
.edge:hover path { stroke: red; }
.edge:hover polygon { stroke: red; fill: red; }
]]></style>
<script type="text/javascript"><![CDATA[
var edges = document.getElementsByTagName('g');
if (edges && edges.length) {
  for (var i=0;i<edges.length;i++) {
    if (edges[i].id.substr(0,4)=='edge') {
      edges[i].setAttribute('class','edge');
    }
  }
}
]]></script>
        <defs>
                <circle id="rim" cx="0" cy="0" r="7"/>
                <circle id="rim2" cx="0" cy="0" r="3.5"/>
                <g id="zoomPlus">
                        <use xlink:href="#rim" fill="#404040">
                                <set attributeName="fill" to="#808080" begin="zoomplus.mouseover" end="zoomplus.mouseout"/>
                        </use>
                        <path d="M-4,0h8M0,-4v8" fill="none" stroke="white" stroke-width="1.5" pointer-events="none"/>
                </g>
                <g id="zoomMin">
                        <use xlink:href="#rim" fill="#404040">
                                <set attributeName="fill" to="#808080" begin="zoomminus.mouseover" end="zoomminus.mouseout"/>
                        </use>
                        <path d="M-4,0h8" fill="none" stroke="white" stroke-width="1.5" pointer-events="none"/>
                </g>
                <g id="dirArrow">
                        <path fill="none" stroke="white" stroke-width="1.5" d="M0,-3.0v7 M-2.5,-0.5L0,-3.0L2.5,-0.5"/>
                </g>
               <g id="resetDef">
                       <use xlink:href="#rim2" fill="#404040">
                               <set attributeName="fill" to="#808080" begin="reset.mouseover" end="reset.mouseout"/>
                       </use>
               </g>
        </defs>

<script type="text/javascript">
var viewWidth = 1958;
var viewHeight = 640;
var sectionId = 'dynsection-1';
</script>
<script xlink:href="../../svgpan.js"/>
<svg id="graph" class="graph">
<g id="viewport">
<title>slogo.UI.LabelCreator.createLabel</title>
<polygon fill="white" stroke="none" points="-4,4 -4,-635.694 1954,-635.694 1954,4 -4,4"/>
<!-- Node1 -->
<g id="node1" class="node"><title>Node1</title>
<polygon fill="#bfbfbf" stroke="black" points="0,-267.387 0,-297.387 152,-297.387 152,-267.387 0,-267.387"/>
<text text-anchor="start" x="8" y="-285.387" font-family="Helvetica,sans-Serif" font-size="10.00">slogo.UI.LabelCreator.create</text>
<text text-anchor="middle" x="76" y="-274.387" font-family="Helvetica,sans-Serif" font-size="10.00">Label</text>
</g>
<!-- Node2 -->
<g id="node2" class="node"><title>Node2</title>
<g id="a_node2"><a xlink:href="../../db/d19/classslogo_1_1_u_i_1_1_module_creation_helper.html#a656d4da94bd0a30d0d71770d07f1b3e2" target="_top" xlink:title="slogo.UI.ModuleCreationHelper.create\lAnimationSpeedSlider">
<polygon fill="white" stroke="black" points="661.5,-278.387 661.5,-308.387 858.5,-308.387 858.5,-278.387 661.5,-278.387"/>
<text text-anchor="start" x="669.5" y="-296.387" font-family="Helvetica,sans-Serif" font-size="10.00">slogo.UI.ModuleCreationHelper.create</text>
<text text-anchor="middle" x="760" y="-285.387" font-family="Helvetica,sans-Serif" font-size="10.00">AnimationSpeedSlider</text>
</a>
</g>
</g>
<!-- Node1&#45;&gt;Node2 -->
<g id="edge1" class="edge"><title>Node1&#45;&gt;Node2</title>
<path fill="none" stroke="midnightblue" d="M111.837,-302.217C133.101,-313.172 161.26,-325.688 188,-331.387 375.783,-371.41 429.793,-358.565 620,-332.387 653.272,-327.808 689.796,-317.337 717.052,-308.397"/>
<polygon fill="midnightblue" stroke="midnightblue" points="113.353,-299.059 102.876,-297.483 110.083,-305.249 113.353,-299.059"/>
</g>
<!-- Node8 -->
<g id="node8" class="node"><title>Node8</title>
<g id="a_node8"><a xlink:href="../../db/d19/classslogo_1_1_u_i_1_1_module_creation_helper.html#ae437a0408e716ca803352f31e007c653" target="_top" xlink:title="slogo.UI.ModuleCreationHelper.create\lDebugLabel">
<polygon fill="white" stroke="black" points="661.5,-535.387 661.5,-565.387 858.5,-565.387 858.5,-535.387 661.5,-535.387"/>
<text text-anchor="start" x="669.5" y="-553.387" font-family="Helvetica,sans-Serif" font-size="10.00">slogo.UI.ModuleCreationHelper.create</text>
<text text-anchor="middle" x="760" y="-542.387" font-family="Helvetica,sans-Serif" font-size="10.00">DebugLabel</text>
</a>
</g>
</g>
<!-- Node1&#45;&gt;Node8 -->
<g id="edge8" class="edge"><title>Node1&#45;&gt;Node8</title>
<path fill="none" stroke="midnightblue" d="M85.1729,-307.149C99.3968,-346.051 132.6,-420.813 188,-457.387 332.17,-552.566 540.37,-561.83 661.479,-557.662"/>
<polygon fill="midnightblue" stroke="midnightblue" points="88.4422,-305.896 81.8121,-297.632 81.8417,-308.227 88.4422,-305.896"/>
</g>
<!-- Node10 -->
<g id="node10" class="node"><title>Node10</title>
<g id="a_node10"><a xlink:href="../../da/d8f/classslogo_1_1_u_i_1_1_list_view_creator.html#a80c012ec24a3b0e7dfa02f1ee816f25b" target="_top" xlink:title="slogo.UI.ListViewCreator.create\lListViewWithLabel">
<polygon fill="white" stroke="black" points="204.5,-418.387 204.5,-448.387 369.5,-448.387 369.5,-418.387 204.5,-418.387"/>
<text text-anchor="start" x="212.5" y="-436.387" font-family="Helvetica,sans-Serif" font-size="10.00">slogo.UI.ListViewCreator.create</text>
<text text-anchor="middle" x="287" y="-425.387" font-family="Helvetica,sans-Serif" font-size="10.00">ListViewWithLabel</text>
</a>
</g>
</g>
<!-- Node1&#45;&gt;Node10 -->
<g id="edge11" class="edge"><title>Node1&#45;&gt;Node10</title>
<path fill="none" stroke="midnightblue" d="M92.6599,-305.952C111.969,-333.233 147.275,-377.697 188,-403.387 197.631,-409.463 208.572,-414.376 219.566,-418.327"/>
<polygon fill="midnightblue" stroke="midnightblue" points="95.3133,-303.636 86.7401,-297.411 89.56,-307.624 95.3133,-303.636"/>
</g>
<!-- Node17 -->
<g id="node17" class="node"><title>Node17</title>
<g id="a_node17"><a xlink:href="../../db/d19/classslogo_1_1_u_i_1_1_module_creation_helper.html#a938126b745e9f2d20932e126c0fd455a" target="_top" xlink:title="slogo.UI.ModuleCreationHelper.create\lPauseButton">
<polygon fill="white" stroke="black" points="188.5,-194.387 188.5,-224.387 385.5,-224.387 385.5,-194.387 188.5,-194.387"/>
<text text-anchor="start" x="196.5" y="-212.387" font-family="Helvetica,sans-Serif" font-size="10.00">slogo.UI.ModuleCreationHelper.create</text>
<text text-anchor="middle" x="287" y="-201.387" font-family="Helvetica,sans-Serif" font-size="10.00">PauseButton</text>
</a>
</g>
</g>
<!-- Node1&#45;&gt;Node17 -->
<g id="edge22" class="edge"><title>Node1&#45;&gt;Node17</title>
<path fill="none" stroke="midnightblue" d="M116.707,-262.826C137.577,-253.069 163.789,-241.624 188,-233.387 197.535,-230.143 207.731,-227.145 217.81,-224.447"/>
<polygon fill="midnightblue" stroke="midnightblue" points="115.063,-259.732 107.521,-267.173 118.057,-266.06 115.063,-259.732"/>
</g>
<!-- Node19 -->
<g id="node19" class="node"><title>Node19</title>
<g id="a_node19"><a xlink:href="../../db/d19/classslogo_1_1_u_i_1_1_module_creation_helper.html#a9b3fb38a55b3b7812b4f793afa7a974f" target="_top" xlink:title="slogo.UI.ModuleCreationHelper.create\lPlayButton">
<polygon fill="white" stroke="black" points="188.5,-96.387 188.5,-126.387 385.5,-126.387 385.5,-96.387 188.5,-96.387"/>
<text text-anchor="start" x="196.5" y="-114.387" font-family="Helvetica,sans-Serif" font-size="10.00">slogo.UI.ModuleCreationHelper.create</text>
<text text-anchor="middle" x="287" y="-103.387" font-family="Helvetica,sans-Serif" font-size="10.00">PlayButton</text>
</a>
</g>
</g>
<!-- Node1&#45;&gt;Node19 -->
<g id="edge25" class="edge"><title>Node1&#45;&gt;Node19</title>
<path fill="none" stroke="midnightblue" d="M88.5412,-258.19C105.566,-225.183 140.59,-166.591 188,-135.387 193.267,-131.92 198.991,-128.954 204.939,-126.415"/>
<polygon fill="midnightblue" stroke="midnightblue" points="85.3936,-256.658 84.031,-267.165 91.6483,-259.801 85.3936,-256.658"/>
</g>
<!-- Node21 -->
<g id="node21" class="node"><title>Node21</title>
<g id="a_node21"><a xlink:href="../../db/d19/classslogo_1_1_u_i_1_1_module_creation_helper.html#aa76f49f1feda966f0a2b6314418bf931" target="_top" xlink:title="slogo.UI.ModuleCreationHelper.create\lResetButton">
<polygon fill="white" stroke="black" points="188.5,-145.387 188.5,-175.387 385.5,-175.387 385.5,-145.387 188.5,-145.387"/>
<text text-anchor="start" x="196.5" y="-163.387" font-family="Helvetica,sans-Serif" font-size="10.00">slogo.UI.ModuleCreationHelper.create</text>
<text text-anchor="middle" x="287" y="-152.387" font-family="Helvetica,sans-Serif" font-size="10.00">ResetButton</text>
</a>
</g>
</g>
<!-- Node1&#45;&gt;Node21 -->
<g id="edge28" class="edge"><title>Node1&#45;&gt;Node21</title>
<path fill="none" stroke="midnightblue" d="M96.6234,-259.55C117.169,-237.091 151.479,-203.48 188,-184.387 194.597,-180.938 201.705,-177.973 208.972,-175.425"/>
<polygon fill="midnightblue" stroke="midnightblue" points="93.769,-257.491 89.698,-267.272 98.9803,-262.164 93.769,-257.491"/>
</g>
<!-- Node22 -->
<g id="node22" class="node"><title>Node22</title>
<g id="a_node22"><a xlink:href="../../db/d19/classslogo_1_1_u_i_1_1_module_creation_helper.html#a4f46e008d0e87769fe171762d1c68caa" target="_top" xlink:title="slogo.UI.ModuleCreationHelper.create\lRunningStatusLabel">
<polygon fill="white" stroke="black" points="900.5,-346.387 900.5,-376.387 1097.5,-376.387 1097.5,-346.387 900.5,-346.387"/>
<text text-anchor="start" x="908.5" y="-364.387" font-family="Helvetica,sans-Serif" font-size="10.00">slogo.UI.ModuleCreationHelper.create</text>
<text text-anchor="middle" x="999" y="-353.387" font-family="Helvetica,sans-Serif" font-size="10.00">RunningStatusLabel</text>
</a>
</g>
</g>
<!-- Node1&#45;&gt;Node22 -->
<g id="edge30" class="edge"><title>Node1&#45;&gt;Node22</title>
<path fill="none" stroke="midnightblue" d="M100.079,-304.409C121.108,-322.846 153.992,-347.791 188,-358.387 196.397,-361.003 686.668,-361.362 900.283,-361.395"/>
<polygon fill="midnightblue" stroke="midnightblue" points="102.399,-301.788 92.6223,-297.705 97.7189,-306.994 102.399,-301.788"/>
</g>
<!-- Node23 -->
<g id="node23" class="node"><title>Node23</title>
<g id="a_node23"><a xlink:href="../../de/dc5/classslogo_1_1_u_i_1_1_color_selector_creator.html#a4aaffeb916bf776f4133b2c79f774202" target="_top" xlink:title="slogo.UI.ColorSelectorCreator.create\lSelectorWithLabel">
<polygon fill="white" stroke="black" points="191.5,-243.387 191.5,-273.387 382.5,-273.387 382.5,-243.387 191.5,-243.387"/>
<text text-anchor="start" x="199.5" y="-261.387" font-family="Helvetica,sans-Serif" font-size="10.00">slogo.UI.ColorSelectorCreator.create</text>
<text text-anchor="middle" x="287" y="-250.387" font-family="Helvetica,sans-Serif" font-size="10.00">SelectorWithLabel</text>
</a>
</g>
</g>
<!-- Node1&#45;&gt;Node23 -->
<g id="edge32" class="edge"><title>Node1&#45;&gt;Node23</title>
<path fill="none" stroke="midnightblue" d="M162.137,-272.611C171.805,-271.5 181.703,-270.364 191.482,-269.241"/>
<polygon fill="midnightblue" stroke="midnightblue" points="161.694,-269.138 152.159,-273.756 162.493,-276.093 161.694,-269.138"/>
</g>
<!-- Node27 -->
<g id="node27" class="node"><title>Node27</title>
<g id="a_node27"><a xlink:href="../../d1/dc0/classslogo_1_1_u_i_1_1_selector_creator.html#a0c44ecd788599c95911e8cb47f8920d4" target="_top" xlink:title="slogo.UI.SelectorCreator.create\lSelectorWithLabel">
<polygon fill="white" stroke="black" points="203.5,-292.387 203.5,-322.387 370.5,-322.387 370.5,-292.387 203.5,-292.387"/>
<text text-anchor="start" x="211.5" y="-310.387" font-family="Helvetica,sans-Serif" font-size="10.00">slogo.UI.SelectorCreator.create</text>
<text text-anchor="middle" x="287" y="-299.387" font-family="Helvetica,sans-Serif" font-size="10.00">SelectorWithLabel</text>
</a>
</g>
</g>
<!-- Node1&#45;&gt;Node27 -->
<g id="edge38" class="edge"><title>Node1&#45;&gt;Node27</title>
<path fill="none" stroke="midnightblue" d="M162.403,-292.603C175.932,-294.221 189.904,-295.892 203.368,-297.503"/>
<polygon fill="midnightblue" stroke="midnightblue" points="162.503,-289.09 152.159,-291.377 161.672,-296.04 162.503,-289.09"/>
</g>
<!-- Node30 -->
<g id="node30" class="node"><title>Node30</title>
<g id="a_node30"><a xlink:href="../../db/d19/classslogo_1_1_u_i_1_1_module_creation_helper.html#ac9c4b24e9b51fcfc8e6420978c91f24a" target="_top" xlink:title="slogo.UI.ModuleCreationHelper.create\lStopButton">
<polygon fill="white" stroke="black" points="188.5,-47.387 188.5,-77.387 385.5,-77.387 385.5,-47.387 188.5,-47.387"/>
<text text-anchor="start" x="196.5" y="-65.387" font-family="Helvetica,sans-Serif" font-size="10.00">slogo.UI.ModuleCreationHelper.create</text>
<text text-anchor="middle" x="287" y="-54.387" font-family="Helvetica,sans-Serif" font-size="10.00">StopButton</text>
</a>
</g>
</g>
<!-- Node1&#45;&gt;Node30 -->
<g id="edge43" class="edge"><title>Node1&#45;&gt;Node30</title>
<path fill="none" stroke="midnightblue" d="M83.913,-257.679C96.9719,-215.717 129.357,-130.768 188,-86.387 192.47,-83.0044 197.353,-80.0925 202.477,-77.5863"/>
<polygon fill="midnightblue" stroke="midnightblue" points="80.5267,-256.787 81.0051,-267.371 87.2314,-258.798 80.5267,-256.787"/>
</g>
<!-- Node31 -->
<g id="node31" class="node"><title>Node31</title>
<g id="a_node31"><a xlink:href="../../df/de6/classslogo_1_1_u_i_1_1_commands_text_field.html#a2896618c8a73f7e72e1d9302a3f5797b" target="_top" xlink:title="slogo.UI.CommandsTextField.create\lTextField">
<polygon fill="white" stroke="black" points="427.5,-17.387 427.5,-47.387 614.5,-47.387 614.5,-17.387 427.5,-17.387"/>
<text text-anchor="start" x="435.5" y="-35.387" font-family="Helvetica,sans-Serif" font-size="10.00">slogo.UI.CommandsTextField.create</text>
<text text-anchor="middle" x="521" y="-24.387" font-family="Helvetica,sans-Serif" font-size="10.00">TextField</text>
</a>
</g>
</g>
<!-- Node1&#45;&gt;Node31 -->
<g id="edge45" class="edge"><title>Node1&#45;&gt;Node31</title>
<path fill="none" stroke="midnightblue" d="M79.7116,-257.372C86.8082,-205.703 111.068,-87.8156 188,-37.387 272.972,18.3117 398.309,-0.314108 468.154,-17.3243"/>
<polygon fill="midnightblue" stroke="midnightblue" points="76.2329,-256.983 78.445,-267.345 83.1771,-257.865 76.2329,-256.983"/>
</g>
<!-- Node33 -->
<g id="node33" class="node"><title>Node33</title>
<g id="a_node33"><a xlink:href="../../db/d19/classslogo_1_1_u_i_1_1_module_creation_helper.html#a349d8b12e39d84b001c200165e55e0b8" target="_top" xlink:title="slogo.UI.ModuleCreationHelper.create\lTitle">
<polygon fill="white" stroke="black" points="900.5,-562.387 900.5,-592.387 1097.5,-592.387 1097.5,-562.387 900.5,-562.387"/>
<text text-anchor="start" x="908.5" y="-580.387" font-family="Helvetica,sans-Serif" font-size="10.00">slogo.UI.ModuleCreationHelper.create</text>
<text text-anchor="middle" x="999" y="-569.387" font-family="Helvetica,sans-Serif" font-size="10.00">Title</text>
</a>
</g>
</g>
<!-- Node1&#45;&gt;Node33 -->
<g id="edge48" class="edge"><title>Node1&#45;&gt;Node33</title>
<path fill="none" stroke="midnightblue" d="M81.785,-307.424C92.1991,-354.787 121.53,-457.481 188,-510.387 413.221,-689.651 793.854,-625.759 939.194,-592.406"/>
<polygon fill="midnightblue" stroke="midnightblue" points="85.1638,-306.483 79.6871,-297.413 78.3126,-307.919 85.1638,-306.483"/>
</g>
<!-- Node3 -->
<g id="node3" class="node"><title>Node3</title>
<g id="a_node3"><a xlink:href="../../db/d19/classslogo_1_1_u_i_1_1_module_creation_helper.html#a7c650957b2389d6e6d36e8be8a33cd2b" target="_top" xlink:title="slogo.UI.ModuleCreationHelper.create\lSelectorVBoxModules">
<polygon fill="white" stroke="black" points="900.5,-219.387 900.5,-249.387 1097.5,-249.387 1097.5,-219.387 900.5,-219.387"/>
<text text-anchor="start" x="908.5" y="-237.387" font-family="Helvetica,sans-Serif" font-size="10.00">slogo.UI.ModuleCreationHelper.create</text>
<text text-anchor="middle" x="999" y="-226.387" font-family="Helvetica,sans-Serif" font-size="10.00">SelectorVBoxModules</text>
</a>
</g>
</g>
<!-- Node2&#45;&gt;Node3 -->
<g id="edge2" class="edge"><title>Node2&#45;&gt;Node3</title>
<path fill="none" stroke="midnightblue" d="M831.241,-275.901C865.082,-267.476 905.256,-257.475 937.692,-249.4"/>
<polygon fill="midnightblue" stroke="midnightblue" points="830.277,-272.534 821.418,-278.346 831.968,-279.327 830.277,-272.534"/>
</g>
<!-- Node4 -->
<g id="node4" class="node"><title>Node4</title>
<g id="a_node4"><a xlink:href="../../db/d19/classslogo_1_1_u_i_1_1_module_creation_helper.html#afb9dbbbad7d872234a5b296fe129a34e" target="_top" xlink:title="slogo.UI.ModuleCreationHelper.create\lMainPageModules">
<polygon fill="white" stroke="black" points="1134.5,-380.387 1134.5,-410.387 1331.5,-410.387 1331.5,-380.387 1134.5,-380.387"/>
<text text-anchor="start" x="1142.5" y="-398.387" font-family="Helvetica,sans-Serif" font-size="10.00">slogo.UI.ModuleCreationHelper.create</text>
<text text-anchor="middle" x="1233" y="-387.387" font-family="Helvetica,sans-Serif" font-size="10.00">MainPageModules</text>
</a>
</g>
</g>
<!-- Node3&#45;&gt;Node4 -->
<g id="edge3" class="edge"><title>Node3&#45;&gt;Node4</title>
<path fill="none" stroke="midnightblue" d="M1030.15,-255.309C1077.54,-288.196 1168.35,-351.216 1210.06,-380.164"/>
<polygon fill="midnightblue" stroke="midnightblue" points="1032.04,-252.359 1021.83,-249.534 1028.05,-258.11 1032.04,-252.359"/>
</g>
<!-- Node5 -->
<g id="node5" class="node"><title>Node5</title>
<g id="a_node5"><a xlink:href="../../d9/d33/classslogo_1_1_u_i_1_1_main.html#a15b7f2e399ee24d160550993ab737e73" target="_top" xlink:title="slogo.UI.Main.start">
<polygon fill="white" stroke="black" points="1368,-327.887 1368,-346.887 1474,-346.887 1474,-327.887 1368,-327.887"/>
<text text-anchor="middle" x="1421" y="-334.887" font-family="Helvetica,sans-Serif" font-size="10.00">slogo.UI.Main.start</text>
</a>
</g>
</g>
<!-- Node4&#45;&gt;Node5 -->
<g id="edge4" class="edge"><title>Node4&#45;&gt;Node5</title>
<path fill="none" stroke="midnightblue" d="M1292.14,-377.257C1324.32,-367.223 1363.01,-355.159 1389.34,-346.948"/>
<polygon fill="midnightblue" stroke="midnightblue" points="1290.89,-373.981 1282.38,-380.3 1292.97,-380.664 1290.89,-373.981"/>
</g>
<!-- Node6 -->
<g id="node6" class="node"><title>Node6</title>
<g id="a_node6"><a xlink:href="../../db/d19/classslogo_1_1_u_i_1_1_module_creation_helper.html#a3be12a7cc2b8a219db1e296211a2cb88" target="_top" xlink:title="slogo.UI.ModuleCreationHelper.activate\lExtraWorkspaceButton">
<polygon fill="white" stroke="black" points="1510.5,-293.387 1510.5,-323.387 1715.5,-323.387 1715.5,-293.387 1510.5,-293.387"/>
<text text-anchor="start" x="1518.5" y="-311.387" font-family="Helvetica,sans-Serif" font-size="10.00">slogo.UI.ModuleCreationHelper.activate</text>
<text text-anchor="middle" x="1613" y="-300.387" font-family="Helvetica,sans-Serif" font-size="10.00">ExtraWorkspaceButton</text>
</a>
</g>
</g>
<!-- Node5&#45;&gt;Node6 -->
<g id="edge5" class="edge"><title>Node5&#45;&gt;Node6</title>
<path fill="none" stroke="midnightblue" d="M1484.21,-327.892C1493.66,-326.449 1503.61,-324.931 1513.6,-323.406"/>
<polygon fill="midnightblue" stroke="midnightblue" points="1483.53,-324.455 1474.17,-329.424 1484.58,-331.375 1483.53,-324.455"/>
</g>
<!-- Node7 -->
<g id="node7" class="node"><title>Node7</title>
<g id="a_node7"><a xlink:href="../../db/d19/classslogo_1_1_u_i_1_1_module_creation_helper.html#a702c1ebe24d2857a10c666eb1fcc315d" target="_top" xlink:title="slogo.UI.ModuleCreationHelper.create\lExtraWorkspaceButton">
<polygon fill="white" stroke="black" points="1752.5,-263.387 1752.5,-293.387 1949.5,-293.387 1949.5,-263.387 1752.5,-263.387"/>
<text text-anchor="start" x="1760.5" y="-281.387" font-family="Helvetica,sans-Serif" font-size="10.00">slogo.UI.ModuleCreationHelper.create</text>
<text text-anchor="middle" x="1851" y="-270.387" font-family="Helvetica,sans-Serif" font-size="10.00">ExtraWorkspaceButton</text>
</a>
</g>
</g>
<!-- Node6&#45;&gt;Node7 -->
<g id="edge6" class="edge"><title>Node6&#45;&gt;Node7</title>
<path fill="none" stroke="midnightblue" d="M1725.77,-294.18C1734.62,-293.054 1743.52,-291.922 1752.27,-290.81"/>
<polygon fill="midnightblue" stroke="midnightblue" points="1725.28,-290.713 1715.8,-295.447 1726.16,-297.658 1725.28,-290.713"/>
</g>
<!-- Node7&#45;&gt;Node3 -->
<g id="edge7" class="edge"><title>Node7&#45;&gt;Node3</title>
<path fill="none" stroke="midnightblue" d="M1742.05,-272.799C1575.32,-264.168 1257.68,-247.726 1097.51,-239.434"/>
<polygon fill="midnightblue" stroke="midnightblue" points="1742.16,-276.309 1752.33,-273.331 1742.52,-269.319 1742.16,-276.309"/>
</g>
<!-- Node9 -->
<g id="node9" class="node"><title>Node9</title>
<g id="a_node9"><a xlink:href="../../db/d19/classslogo_1_1_u_i_1_1_module_creation_helper.html#a975af4ea47dc85df72215bdf1a0d20ce" target="_top" xlink:title="slogo.UI.ModuleCreationHelper.create\lDebugModules">
<polygon fill="white" stroke="black" points="900.5,-497.387 900.5,-527.387 1097.5,-527.387 1097.5,-497.387 900.5,-497.387"/>
<text text-anchor="start" x="908.5" y="-515.387" font-family="Helvetica,sans-Serif" font-size="10.00">slogo.UI.ModuleCreationHelper.create</text>
<text text-anchor="middle" x="999" y="-504.387" font-family="Helvetica,sans-Serif" font-size="10.00">DebugModules</text>
</a>
</g>
</g>
<!-- Node8&#45;&gt;Node9 -->
<g id="edge9" class="edge"><title>Node8&#45;&gt;Node9</title>
<path fill="none" stroke="midnightblue" d="M864.673,-533.764C877.834,-531.654 891.242,-529.504 904.236,-527.421"/>
<polygon fill="midnightblue" stroke="midnightblue" points="863.988,-530.329 854.669,-535.368 865.097,-537.241 863.988,-530.329"/>
</g>
<!-- Node9&#45;&gt;Node4 -->
<g id="edge10" class="edge"><title>Node9&#45;&gt;Node4</title>
<path fill="none" stroke="midnightblue" d="M1038.91,-492.767C1084.82,-469.609 1160.19,-431.599 1201.89,-410.571"/>
<polygon fill="midnightblue" stroke="midnightblue" points="1037.21,-489.703 1029.85,-497.331 1040.36,-495.953 1037.21,-489.703"/>
</g>
<!-- Node11 -->
<g id="node11" class="node"><title>Node11</title>
<g id="a_node11"><a xlink:href="../../db/dc0/classslogo_1_1_u_i_1_1_list_view_all_s_l_o_g_o.html#a5c010e0c2ee827d63a0990c92add658d" target="_top" xlink:title="slogo.UI.ListViewAllSLOGO.create\lListView">
<polygon fill="white" stroke="black" points="433.5,-418.387 433.5,-448.387 608.5,-448.387 608.5,-418.387 433.5,-418.387"/>
<text text-anchor="start" x="441.5" y="-436.387" font-family="Helvetica,sans-Serif" font-size="10.00">slogo.UI.ListViewAllSLOGO.create</text>
<text text-anchor="middle" x="521" y="-425.387" font-family="Helvetica,sans-Serif" font-size="10.00">ListView</text>
</a>
</g>
</g>
<!-- Node10&#45;&gt;Node11 -->
<g id="edge12" class="edge"><title>Node10&#45;&gt;Node11</title>
<path fill="none" stroke="midnightblue" d="M380.054,-433.387C397.653,-433.387 416.02,-433.387 433.439,-433.387"/>
<polygon fill="midnightblue" stroke="midnightblue" points="379.795,-429.887 369.795,-433.387 379.794,-436.887 379.795,-429.887"/>
</g>
<!-- Node12 -->
<g id="node12" class="node"><title>Node12</title>
<g id="a_node12"><a xlink:href="../../de/d1a/classslogo_1_1_u_i_1_1_list_view_previous_commands.html#a539b4f10c0510a43263276fc23d742c8" target="_top" xlink:title="slogo.UI.ListViewPrevious\lCommands.create">
<polygon fill="white" stroke="black" points="691.5,-371.387 691.5,-401.387 828.5,-401.387 828.5,-371.387 691.5,-371.387"/>
<text text-anchor="start" x="699.5" y="-389.387" font-family="Helvetica,sans-Serif" font-size="10.00">slogo.UI.ListViewPrevious</text>
<text text-anchor="middle" x="760" y="-378.387" font-family="Helvetica,sans-Serif" font-size="10.00">Commands.create</text>
</a>
</g>
</g>
<!-- Node11&#45;&gt;Node12 -->
<g id="edge13" class="edge"><title>Node11&#45;&gt;Node12</title>
<path fill="none" stroke="midnightblue" d="M607.648,-416.402C635.163,-410.945 665.243,-404.98 691.286,-399.816"/>
<polygon fill="midnightblue" stroke="midnightblue" points="606.768,-413.008 597.64,-418.387 608.13,-419.875 606.768,-413.008"/>
</g>
<!-- Node14 -->
<g id="node14" class="node"><title>Node14</title>
<g id="a_node14"><a xlink:href="../../dc/d95/classslogo_1_1_u_i_1_1_list_view_s_l_o_g_o_variables.html#a9876b72a9b2e6a0887b385834e8e93b6" target="_top" xlink:title="slogo.UI.ListViewSLOGOVariables.create">
<polygon fill="white" stroke="black" points="656,-496.887 656,-515.887 864,-515.887 864,-496.887 656,-496.887"/>
<text text-anchor="middle" x="760" y="-503.887" font-family="Helvetica,sans-Serif" font-size="10.00">slogo.UI.ListViewSLOGOVariables.create</text>
</a>
</g>
</g>
<!-- Node11&#45;&gt;Node14 -->
<g id="edge16" class="edge"><title>Node11&#45;&gt;Node14</title>
<path fill="none" stroke="midnightblue" d="M563.33,-452.553C589.438,-464.027 624.144,-478.132 656,-487.387 668.834,-491.116 682.789,-494.27 696.164,-496.871"/>
<polygon fill="midnightblue" stroke="midnightblue" points="564.68,-449.323 554.121,-448.459 561.836,-455.72 564.68,-449.323"/>
</g>
<!-- Node15 -->
<g id="node15" class="node"><title>Node15</title>
<g id="a_node15"><a xlink:href="../../de/d37/classslogo_1_1_u_i_1_1_list_view_user_commands.html#ac8197870dd939ccc8b43744a50d52044" target="_top" xlink:title="slogo.UI.ListViewUserCommands.create">
<polygon fill="white" stroke="black" points="656,-458.887 656,-477.887 864,-477.887 864,-458.887 656,-458.887"/>
<text text-anchor="middle" x="760" y="-465.887" font-family="Helvetica,sans-Serif" font-size="10.00">slogo.UI.ListViewUserCommands.create</text>
</a>
</g>
</g>
<!-- Node11&#45;&gt;Node15 -->
<g id="edge18" class="edge"><title>Node11&#45;&gt;Node15</title>
<path fill="none" stroke="midnightblue" d="M618.661,-447.662C644.219,-451.436 671.182,-455.418 694.568,-458.872"/>
<polygon fill="midnightblue" stroke="midnightblue" points="618.973,-444.17 608.568,-446.171 617.95,-451.095 618.973,-444.17"/>
</g>
<!-- Node16 -->
<g id="node16" class="node"><title>Node16</title>
<g id="a_node16"><a xlink:href="../../d3/df5/classslogo_1_1_u_i_1_1_list_view_user_variables.html#a9daee622bf33651d8ae9c07779f4973c" target="_top" xlink:title="slogo.UI.ListViewUserVariables.create">
<polygon fill="white" stroke="black" points="662,-420.887 662,-439.887 858,-439.887 858,-420.887 662,-420.887"/>
<text text-anchor="middle" x="760" y="-427.887" font-family="Helvetica,sans-Serif" font-size="10.00">slogo.UI.ListViewUserVariables.create</text>
</a>
</g>
</g>
<!-- Node11&#45;&gt;Node16 -->
<g id="edge20" class="edge"><title>Node11&#45;&gt;Node16</title>
<path fill="none" stroke="midnightblue" d="M618.819,-432.161C633.017,-431.982 647.644,-431.797 661.849,-431.617"/>
<polygon fill="midnightblue" stroke="midnightblue" points="618.523,-428.665 608.568,-432.291 618.612,-435.664 618.523,-428.665"/>
</g>
<!-- Node13 -->
<g id="node13" class="node"><title>Node13</title>
<g id="a_node13"><a xlink:href="../../db/d19/classslogo_1_1_u_i_1_1_module_creation_helper.html#af4fd617bc69e5e9986e2634bc7f30d7d" target="_top" xlink:title="slogo.UI.ModuleCreationHelper.create\lListViews">
<polygon fill="white" stroke="black" points="900.5,-415.387 900.5,-445.387 1097.5,-445.387 1097.5,-415.387 900.5,-415.387"/>
<text text-anchor="start" x="908.5" y="-433.387" font-family="Helvetica,sans-Serif" font-size="10.00">slogo.UI.ModuleCreationHelper.create</text>
<text text-anchor="middle" x="999" y="-422.387" font-family="Helvetica,sans-Serif" font-size="10.00">ListViews</text>
</a>
</g>
</g>
<!-- Node12&#45;&gt;Node13 -->
<g id="edge14" class="edge"><title>Node12&#45;&gt;Node13</title>
<path fill="none" stroke="midnightblue" d="M838.439,-400.764C863.557,-405.427 891.483,-410.612 916.862,-415.323"/>
<polygon fill="midnightblue" stroke="midnightblue" points="839.068,-397.321 828.598,-398.937 837.791,-404.203 839.068,-397.321"/>
</g>
<!-- Node13&#45;&gt;Node4 -->
<g id="edge15" class="edge"><title>Node13&#45;&gt;Node4</title>
<path fill="none" stroke="midnightblue" d="M1107.72,-414.136C1116.62,-412.794 1125.58,-411.442 1134.4,-410.112"/>
<polygon fill="midnightblue" stroke="midnightblue" points="1107.08,-410.693 1097.72,-415.645 1108.13,-417.614 1107.08,-410.693"/>
</g>
<!-- Node14&#45;&gt;Node13 -->
<g id="edge17" class="edge"><title>Node14&#45;&gt;Node13</title>
<path fill="none" stroke="midnightblue" d="M834.829,-494.807C844.718,-492.663 854.663,-490.197 864,-487.387 900.797,-476.314 941.138,-458.295 967.842,-445.483"/>
<polygon fill="midnightblue" stroke="midnightblue" points="834.068,-491.39 824.984,-496.843 835.486,-498.245 834.068,-491.39"/>
</g>
<!-- Node15&#45;&gt;Node13 -->
<g id="edge19" class="edge"><title>Node15&#45;&gt;Node13</title>
<path fill="none" stroke="midnightblue" d="M830.536,-457.238C853.622,-453.536 879.716,-449.352 904.316,-445.408"/>
<polygon fill="midnightblue" stroke="midnightblue" points="829.819,-453.808 820.499,-458.847 830.927,-460.72 829.819,-453.808"/>
</g>
<!-- Node16&#45;&gt;Node13 -->
<g id="edge21" class="edge"><title>Node16&#45;&gt;Node13</title>
<path fill="none" stroke="midnightblue" d="M868.265,-430.387C878.939,-430.387 889.735,-430.387 900.303,-430.387"/>
<polygon fill="midnightblue" stroke="midnightblue" points="868.081,-426.887 858.081,-430.387 868.081,-433.887 868.081,-426.887"/>
</g>
<!-- Node18 -->
<g id="node18" class="node"><title>Node18</title>
<g id="a_node18"><a xlink:href="../../db/d19/classslogo_1_1_u_i_1_1_module_creation_helper.html#ae1e0ce18826b0895f1c3d4786b3776b7" target="_top" xlink:title="slogo.UI.ModuleCreationHelper.create\lSecondRowButtons">
<polygon fill="white" stroke="black" points="422.5,-128.387 422.5,-158.387 619.5,-158.387 619.5,-128.387 422.5,-128.387"/>
<text text-anchor="start" x="430.5" y="-146.387" font-family="Helvetica,sans-Serif" font-size="10.00">slogo.UI.ModuleCreationHelper.create</text>
<text text-anchor="middle" x="521" y="-135.387" font-family="Helvetica,sans-Serif" font-size="10.00">SecondRowButtons</text>
</a>
</g>
</g>
<!-- Node17&#45;&gt;Node18 -->
<g id="edge23" class="edge"><title>Node17&#45;&gt;Node18</title>
<path fill="none" stroke="midnightblue" d="M363.137,-191.605C370.912,-189.353 378.652,-186.937 386,-184.387 402.542,-178.647 405.458,-174.127 422,-168.387 432.451,-164.761 443.693,-161.405 454.704,-158.407"/>
<polygon fill="midnightblue" stroke="midnightblue" points="361.978,-188.295 353.296,-194.367 363.87,-195.034 361.978,-188.295"/>
</g>
<!-- Node18&#45;&gt;Node3 -->
<g id="edge24" class="edge"><title>Node18&#45;&gt;Node3</title>
<path fill="none" stroke="midnightblue" d="M610.638,-160.333C699.28,-177.279 834.313,-203.094 919.282,-219.338"/>
<polygon fill="midnightblue" stroke="midnightblue" points="611.081,-156.854 600.602,-158.414 609.767,-163.729 611.081,-156.854"/>
</g>
<!-- Node20 -->
<g id="node20" class="node"><title>Node20</title>
<g id="a_node20"><a xlink:href="../../db/d19/classslogo_1_1_u_i_1_1_module_creation_helper.html#ae1e60d37509c2e5eddcb2a6e70b4f650" target="_top" xlink:title="slogo.UI.ModuleCreationHelper.create\lFirstRowButtons">
<polygon fill="white" stroke="black" points="422.5,-79.387 422.5,-109.387 619.5,-109.387 619.5,-79.387 422.5,-79.387"/>
<text text-anchor="start" x="430.5" y="-97.387" font-family="Helvetica,sans-Serif" font-size="10.00">slogo.UI.ModuleCreationHelper.create</text>
<text text-anchor="middle" x="521" y="-86.387" font-family="Helvetica,sans-Serif" font-size="10.00">FirstRowButtons</text>
</a>
</g>
</g>
<!-- Node19&#45;&gt;Node20 -->
<g id="edge26" class="edge"><title>Node19&#45;&gt;Node20</title>
<path fill="none" stroke="midnightblue" d="M395.722,-103.494C404.618,-102.842 413.58,-102.185 422.396,-101.539"/>
<polygon fill="midnightblue" stroke="midnightblue" points="395.434,-100.005 385.716,-104.227 395.946,-106.987 395.434,-100.005"/>
</g>
<!-- Node20&#45;&gt;Node3 -->
<g id="edge27" class="edge"><title>Node20&#45;&gt;Node3</title>
<path fill="none" stroke="midnightblue" d="M629.596,-109.604C697.956,-121.078 787.631,-139.497 864,-166.387 903.864,-180.423 946.935,-203.926 973.191,-219.293"/>
<polygon fill="midnightblue" stroke="midnightblue" points="630.106,-106.141 619.669,-107.961 628.963,-113.047 630.106,-106.141"/>
</g>
<!-- Node21&#45;&gt;Node18 -->
<g id="edge29" class="edge"><title>Node21&#45;&gt;Node18</title>
<path fill="none" stroke="midnightblue" d="M395.722,-152.494C404.618,-151.842 413.58,-151.185 422.396,-150.539"/>
<polygon fill="midnightblue" stroke="midnightblue" points="395.434,-149.005 385.716,-153.227 395.946,-155.987 395.434,-149.005"/>
</g>
<!-- Node22&#45;&gt;Node4 -->
<g id="edge31" class="edge"><title>Node22&#45;&gt;Node4</title>
<path fill="none" stroke="midnightblue" d="M1107.72,-377.174C1116.62,-378.478 1125.58,-379.791 1134.4,-381.083"/>
<polygon fill="midnightblue" stroke="midnightblue" points="1108.12,-373.695 1097.72,-375.708 1107.1,-380.621 1108.12,-373.695"/>
</g>
<!-- Node24 -->
<g id="node24" class="node"><title>Node24</title>
<g id="a_node24"><a xlink:href="../../d1/d5f/classslogo_1_1_u_i_1_1_path_color_selector.html#ad3d9c82a0904c97edcec7cf67b85bd7b" target="_top" xlink:title="slogo.UI.PathColorSelector.create">
<polygon fill="white" stroke="black" points="433,-177.887 433,-196.887 609,-196.887 609,-177.887 433,-177.887"/>
<text text-anchor="middle" x="521" y="-184.887" font-family="Helvetica,sans-Serif" font-size="10.00">slogo.UI.PathColorSelector.create</text>
</a>
</g>
</g>
<!-- Node23&#45;&gt;Node24 -->
<g id="edge33" class="edge"><title>Node23&#45;&gt;Node24</title>
<path fill="none" stroke="midnightblue" d="M370.373,-239.953C375.746,-237.964 381.002,-235.781 386,-233.387 404.038,-224.748 403.718,-214.497 422,-206.387 430.792,-202.487 440.378,-199.385 450.001,-196.918"/>
<polygon fill="midnightblue" stroke="midnightblue" points="368.914,-236.754 360.604,-243.326 371.199,-243.371 368.914,-236.754"/>
</g>
<!-- Node26 -->
<g id="node26" class="node"><title>Node26</title>
<g id="a_node26"><a xlink:href="../../d4/d8d/classslogo_1_1_u_i_1_1_background_color_selector.html#ad75ba4ce104e071811d0fe039a4e839f" target="_top" xlink:title="slogo.UI.BackgroundColor\lSelector.create">
<polygon fill="white" stroke="black" points="451,-216.387 451,-246.387 591,-246.387 591,-216.387 451,-216.387"/>
<text text-anchor="start" x="459" y="-234.387" font-family="Helvetica,sans-Serif" font-size="10.00">slogo.UI.BackgroundColor</text>
<text text-anchor="middle" x="521" y="-223.387" font-family="Helvetica,sans-Serif" font-size="10.00">Selector.create</text>
</a>
</g>
</g>
<!-- Node23&#45;&gt;Node26 -->
<g id="edge36" class="edge"><title>Node23&#45;&gt;Node26</title>
<path fill="none" stroke="midnightblue" d="M392.645,-246.208C412.368,-243.913 432.534,-241.566 450.83,-239.437"/>
<polygon fill="midnightblue" stroke="midnightblue" points="392.226,-242.734 382.698,-247.366 393.035,-249.687 392.226,-242.734"/>
</g>
<!-- Node25 -->
<g id="node25" class="node"><title>Node25</title>
<g id="a_node25"><a xlink:href="../../db/d19/classslogo_1_1_u_i_1_1_module_creation_helper.html#af7f2919454fdbf6e9d7d912e99634857" target="_top" xlink:title="slogo.UI.ModuleCreationHelper.create\lSelectors">
<polygon fill="white" stroke="black" points="661.5,-219.387 661.5,-249.387 858.5,-249.387 858.5,-219.387 661.5,-219.387"/>
<text text-anchor="start" x="669.5" y="-237.387" font-family="Helvetica,sans-Serif" font-size="10.00">slogo.UI.ModuleCreationHelper.create</text>
<text text-anchor="middle" x="760" y="-226.387" font-family="Helvetica,sans-Serif" font-size="10.00">Selectors</text>
</a>
</g>
</g>
<!-- Node24&#45;&gt;Node25 -->
<g id="edge34" class="edge"><title>Node24&#45;&gt;Node25</title>
<path fill="none" stroke="midnightblue" d="M581.618,-198.874C594.291,-201.336 607.591,-203.934 620,-206.387 641.01,-210.54 663.793,-215.104 684.718,-219.32"/>
<polygon fill="midnightblue" stroke="midnightblue" points="582.101,-195.402 571.617,-196.934 580.768,-202.274 582.101,-195.402"/>
</g>
<!-- Node25&#45;&gt;Node3 -->
<g id="edge35" class="edge"><title>Node25&#45;&gt;Node3</title>
<path fill="none" stroke="midnightblue" d="M868.828,-234.387C879.37,-234.387 890.027,-234.387 900.459,-234.387"/>
<polygon fill="midnightblue" stroke="midnightblue" points="868.765,-230.887 858.765,-234.387 868.765,-237.887 868.765,-230.887"/>
</g>
<!-- Node26&#45;&gt;Node25 -->
<g id="edge37" class="edge"><title>Node26&#45;&gt;Node25</title>
<path fill="none" stroke="midnightblue" d="M601.354,-232.392C620.513,-232.634 641.209,-232.896 661.106,-233.148"/>
<polygon fill="midnightblue" stroke="midnightblue" points="601.231,-228.89 591.187,-232.263 601.142,-235.889 601.231,-228.89"/>
</g>
<!-- Node28 -->
<g id="node28" class="node"><title>Node28</title>
<g id="a_node28"><a xlink:href="../../d4/dbd/classslogo_1_1_u_i_1_1_path_texture_selector.html#ae80d00631de210d08b56261219333461" target="_top" xlink:title="slogo.UI.PathTextureSelector.create">
<polygon fill="white" stroke="black" points="428,-303.887 428,-322.887 614,-322.887 614,-303.887 428,-303.887"/>
<text text-anchor="middle" x="521" y="-310.887" font-family="Helvetica,sans-Serif" font-size="10.00">slogo.UI.PathTextureSelector.create</text>
</a>
</g>
</g>
<!-- Node27&#45;&gt;Node28 -->
<g id="edge39" class="edge"><title>Node27&#45;&gt;Node28</title>
<path fill="none" stroke="midnightblue" d="M380.843,-309.788C396.307,-310.188 412.344,-310.603 427.793,-311.002"/>
<polygon fill="midnightblue" stroke="midnightblue" points="380.862,-306.288 370.775,-309.528 380.681,-313.285 380.862,-306.288"/>
</g>
<!-- Node29 -->
<g id="node29" class="node"><title>Node29</title>
<g id="a_node29"><a xlink:href="../../dd/da7/classslogo_1_1_u_i_1_1_turtle_image_selector.html#a3f268d9196ffebcbb5dc322d2897a9fe" target="_top" xlink:title="slogo.UI.TurtleImageSelector.create">
<polygon fill="white" stroke="black" points="428,-265.887 428,-284.887 614,-284.887 614,-265.887 428,-265.887"/>
<text text-anchor="middle" x="521" y="-272.887" font-family="Helvetica,sans-Serif" font-size="10.00">slogo.UI.TurtleImageSelector.create</text>
</a>
</g>
</g>
<!-- Node27&#45;&gt;Node29 -->
<g id="edge41" class="edge"><title>Node27&#45;&gt;Node29</title>
<path fill="none" stroke="midnightblue" d="M380.737,-294.596C404.199,-291.36 428.984,-287.941 451.039,-284.899"/>
<polygon fill="midnightblue" stroke="midnightblue" points="380.203,-291.136 370.775,-295.97 381.159,-298.071 380.203,-291.136"/>
</g>
<!-- Node28&#45;&gt;Node25 -->
<g id="edge40" class="edge"><title>Node28&#45;&gt;Node25</title>
<path fill="none" stroke="midnightblue" d="M601.49,-301.067C607.858,-299.151 614.103,-296.94 620,-294.387 638.113,-286.547 638.423,-277.363 656,-268.387 670.674,-260.893 687.35,-254.55 702.945,-249.446"/>
<polygon fill="midnightblue" stroke="midnightblue" points="600.127,-297.813 591.414,-303.841 601.985,-304.561 600.127,-297.813"/>
</g>
<!-- Node29&#45;&gt;Node25 -->
<g id="edge42" class="edge"><title>Node29&#45;&gt;Node25</title>
<path fill="none" stroke="midnightblue" d="M587.135,-264.119C613.289,-259.594 643.826,-254.312 671.844,-249.465"/>
<polygon fill="midnightblue" stroke="midnightblue" points="586.225,-260.724 576.968,-265.878 587.419,-267.622 586.225,-260.724"/>
</g>
<!-- Node30&#45;&gt;Node20 -->
<g id="edge44" class="edge"><title>Node30&#45;&gt;Node20</title>
<path fill="none" stroke="midnightblue" d="M395.722,-77.2452C404.618,-78.4723 413.58,-79.7084 422.396,-80.9245"/>
<polygon fill="midnightblue" stroke="midnightblue" points="396.101,-73.7645 385.716,-75.8652 395.144,-80.6988 396.101,-73.7645"/>
</g>
<!-- Node32 -->
<g id="node32" class="node"><title>Node32</title>
<g id="a_node32"><a xlink:href="../../db/d19/classslogo_1_1_u_i_1_1_module_creation_helper.html#ab60ba223f378cf5c5444d21f2b66a61a" target="_top" xlink:title="slogo.UI.ModuleCreationHelper.create\lTextField">
<polygon fill="white" stroke="black" points="661.5,-30.387 661.5,-60.387 858.5,-60.387 858.5,-30.387 661.5,-30.387"/>
<text text-anchor="start" x="669.5" y="-48.387" font-family="Helvetica,sans-Serif" font-size="10.00">slogo.UI.ModuleCreationHelper.create</text>
<text text-anchor="middle" x="760" y="-37.387" font-family="Helvetica,sans-Serif" font-size="10.00">TextField</text>
</a>
</g>
</g>
<!-- Node31&#45;&gt;Node32 -->
<g id="edge46" class="edge"><title>Node31&#45;&gt;Node32</title>
<path fill="none" stroke="midnightblue" d="M624.778,-38.0246C636.912,-38.6903 649.271,-39.3682 661.332,-40.0297"/>
<polygon fill="midnightblue" stroke="midnightblue" points="624.825,-34.5221 614.649,-37.469 624.442,-41.5116 624.825,-34.5221"/>
</g>
<!-- Node32&#45;&gt;Node3 -->
<g id="edge47" class="edge"><title>Node32&#45;&gt;Node3</title>
<path fill="none" stroke="midnightblue" d="M795.907,-65.6808C816.341,-78.0627 842.307,-94.6809 864,-111.387 910.036,-146.839 959.12,-194.871 983.088,-219.084"/>
<polygon fill="midnightblue" stroke="midnightblue" points="797.607,-62.6189 787.231,-60.4756 794.006,-68.6216 797.607,-62.6189"/>
</g>
<!-- Node33&#45;&gt;Node4 -->
<g id="edge49" class="edge"><title>Node33&#45;&gt;Node4</title>
<path fill="none" stroke="midnightblue" d="M1056.57,-558.398C1070.71,-552.417 1085.42,-545.062 1098,-536.387 1151.38,-499.587 1200.07,-438.674 1221.07,-410.518"/>
<polygon fill="midnightblue" stroke="midnightblue" points="1054.86,-555.315 1046.91,-562.318 1057.49,-561.802 1054.86,-555.315"/>
</g>
</g>
</svg>
        <g id="navigator" transform="translate(0 0)" fill="#404254">
                <rect fill="#f2f5e9" fill-opacity="0.5" stroke="#606060" stroke-width=".5" x="0" y="0" width="60" height="60"/>
                <use id="zoomplus" xlink:href="#zoomPlus" x="17" y="9" onmousedown="handleZoom(evt,'in')"/>
                <use id="zoomminus" xlink:href="#zoomMin" x="42" y="9" onmousedown="handleZoom(evt,'out')"/>
                <use id="reset" xlink:href="#resetDef" x="30" y="36" onmousedown="handleReset()"/>
                <g id="arrowUp" xlink:href="#dirArrow" transform="translate(30 24)" onmousedown="handlePan(0,-1)">
                  <use xlink:href="#rim" fill="#404040">
                        <set attributeName="fill" to="#808080" begin="arrowUp.mouseover" end="arrowUp.mouseout"/>
                  </use>
                  <path fill="none" stroke="white" stroke-width="1.5" d="M0,-3.0v7 M-2.5,-0.5L0,-3.0L2.5,-0.5"/>
                </g>
                <g id="arrowRight" xlink:href="#dirArrow" transform="rotate(90) translate(36 -43)" onmousedown="handlePan(1,0)">
                  <use xlink:href="#rim" fill="#404040">
                        <set attributeName="fill" to="#808080" begin="arrowRight.mouseover" end="arrowRight.mouseout"/>
                  </use>
                  <path fill="none" stroke="white" stroke-width="1.5" d="M0,-3.0v7 M-2.5,-0.5L0,-3.0L2.5,-0.5"/>
                </g>
                <g id="arrowDown" xlink:href="#dirArrow" transform="rotate(180) translate(-30 -48)" onmousedown="handlePan(0,1)">
                  <use xlink:href="#rim" fill="#404040">
                        <set attributeName="fill" to="#808080" begin="arrowDown.mouseover" end="arrowDown.mouseout"/>
                  </use>
                  <path fill="none" stroke="white" stroke-width="1.5" d="M0,-3.0v7 M-2.5,-0.5L0,-3.0L2.5,-0.5"/>
                </g>
                <g id="arrowLeft" xlink:href="#dirArrow" transform="rotate(270) translate(-36 17)" onmousedown="handlePan(-1,0)">
                  <use xlink:href="#rim" fill="#404040">
                        <set attributeName="fill" to="#808080" begin="arrowLeft.mouseover" end="arrowLeft.mouseout"/>
                  </use>
                  <path fill="none" stroke="white" stroke-width="1.5" d="M0,-3.0v7 M-2.5,-0.5L0,-3.0L2.5,-0.5"/>
                </g>
        </g>
        <svg viewBox="0 0 15 15" width="100%" height="30px" preserveAspectRatio="xMaxYMin meet">
         <g id="arrow_out" transform="scale(0.3 0.3)">
          <a xlink:href="classslogo_1_1_u_i_1_1_label_creator_a9ca0989ecfc0037d473dd3d2e8ead74f_icgraph_org.svg" target="_base">
           <rect id="button" ry="5" rx="5" y="6" x="6" height="38" width="38"
                fill="#f2f5e9" fill-opacity="0.5" stroke="#606060" stroke-width="1.0"/>
           <path id="arrow"
             d="M 11.500037,31.436501 C 11.940474,20.09759 22.043105,11.32322 32.158766,21.979434 L 37.068811,17.246167 C 37.068811,17.246167 37.088388,32 37.088388,32 L 22.160133,31.978069 C 22.160133,31.978069 26.997745,27.140456 26.997745,27.140456 C 18.528582,18.264221 13.291696,25.230495 11.500037,31.436501 z"
             style="fill:#404040;"/>
          </a>
         </g>
        </svg>
</svg>
