<?xml version="1.0" encoding="UTF-8" standalone="no"?>
<!DOCTYPE svg PUBLIC "-//W3C//DTD SVG 1.1//EN"
 "http://www.w3.org/Graphics/SVG/1.1/DTD/svg11.dtd">
<!-- Generated by graphviz version 2.36.0 (20140111.2315)
 -->
<!-- Title: slogo.UI.LabelCreator Pages: 1 -->
<svg width="126pt" height="96pt"
 viewBox="0.00 0.00 126.00 96.00" xmlns="http://www.w3.org/2000/svg" xmlns:xlink="http://www.w3.org/1999/xlink">
<g id="graph0" class="graph" transform="scale(1 1) rotate(0) translate(4 92)">
<title>slogo.UI.LabelCreator</title>
<polygon fill="white" stroke="none" points="-4,4 -4,-92 122,-92 122,4 -4,4"/>
<!-- Node1 -->
<g id="node1" class="node"><title>Node1</title>
<polygon fill="#bfbfbf" stroke="black" points="-0.5,-0.5 -0.5,-19.5 118.5,-19.5 118.5,-0.5 -0.5,-0.5"/>
<text text-anchor="middle" x="59" y="-7.5" font-family="Helvetica,sans-Serif" font-size="10.00">slogo.UI.LabelCreator</text>
</g>
<!-- Node2 -->
<g id="node2" class="node"><title>Node2</title>
<polygon fill="white" stroke="#bfbfbf" points="7.5,-68.5 7.5,-87.5 48.5,-87.5 48.5,-68.5 7.5,-68.5"/>
<text text-anchor="middle" x="28" y="-75.5" font-family="Helvetica,sans-Serif" font-size="10.00">VBox</text>
</g>
<!-- Node2&#45;&gt;Node1 -->
<g id="edge1" class="edge"><title>Node2&#45;&gt;Node1</title>
<path fill="none" stroke="#9a32cd" stroke-dasharray="5,2" d="M33.1095,-58.3336C35.1981,-51.7556 37.8663,-44.4073 41,-38 44.1682,-31.5222 48.6682,-24.7722 52.3762,-19.6416"/>
<polygon fill="#9a32cd" stroke="#9a32cd" points="29.6203,-57.7938 30.162,-68.3748 36.3369,-59.7655 29.6203,-57.7938"/>
<text text-anchor="middle" x="54.5" y="-41.5" font-family="Helvetica,sans-Serif" font-size="10.00"> vBox</text>
</g>
<!-- Node3 -->
<g id="node3" class="node"><title>Node3</title>
<polygon fill="white" stroke="#bfbfbf" points="67,-68.5 67,-87.5 113,-87.5 113,-68.5 67,-68.5"/>
<text text-anchor="middle" x="90" y="-75.5" font-family="Helvetica,sans-Serif" font-size="10.00">Group</text>
</g>
<!-- Node3&#45;&gt;Node1 -->
<g id="edge2" class="edge"><title>Node3&#45;&gt;Node1</title>
<path fill="none" stroke="#9a32cd" stroke-dasharray="5,2" d="M81.6328,-59.1859C75.6518,-46.4523 67.8588,-29.8607 63.1526,-19.8411"/>
<polygon fill="#9a32cd" stroke="#9a32cd" points="78.5279,-60.8083 85.9473,-68.3717 84.8638,-57.8324 78.5279,-60.8083"/>
<text text-anchor="middle" x="89.5" y="-41.5" font-family="Helvetica,sans-Serif" font-size="10.00"> root</text>
</g>
</g>
</svg>
