<?xml version="1.0" encoding="UTF-8" standalone="no"?>
<!DOCTYPE svg PUBLIC "-//W3C//DTD SVG 1.1//EN"
 "http://www.w3.org/Graphics/SVG/1.1/DTD/svg11.dtd">
<!-- Generated by graphviz version 2.36.0 (20140111.2315)
 -->
<!-- Title: slogo.UI.BackgroundColorSelector.setValue Pages: 1 -->
<svg width="2912pt" height="427pt"
 viewBox="0.00 0.00 2912.00 427.00" xmlns="http://www.w3.org/2000/svg" xmlns:xlink="http://www.w3.org/1999/xlink">
<g id="graph0" class="graph" transform="scale(1 1) rotate(0) translate(4 423)">
<title>slogo.UI.BackgroundColorSelector.setValue</title>
<polygon fill="white" stroke="none" points="-4,4 -4,-423 2908,-423 2908,4 -4,4"/>
<!-- Node1 -->
<g id="node1" class="node"><title>Node1</title>
<polygon fill="#bfbfbf" stroke="black" points="0,-49 0,-79 140,-79 140,-49 0,-49"/>
<text text-anchor="start" x="8" y="-67" font-family="Helvetica,sans-Serif" font-size="10.00">slogo.UI.BackgroundColor</text>
<text text-anchor="middle" x="70" y="-56" font-family="Helvetica,sans-Serif" font-size="10.00">Selector.setValue</text>
</g>
<!-- Node2 -->
<g id="node2" class="node"><title>Node2</title>
<g id="a_node2"><a xlink:href="../../d9/d7e/classslogo_1_1_u_i_1_1_method_runner.html#a714f7c40de08d1196b78789d769d25d9" target="_top" xlink:title="slogo.UI.MethodRunner.set\lBackgroundColor">
<polygon fill="white" stroke="black" points="176,-49 176,-79 320,-79 320,-49 176,-49"/>
<text text-anchor="start" x="184" y="-67" font-family="Helvetica,sans-Serif" font-size="10.00">slogo.UI.MethodRunner.set</text>
<text text-anchor="middle" x="248" y="-56" font-family="Helvetica,sans-Serif" font-size="10.00">BackgroundColor</text>
</a>
</g>
</g>
<!-- Node1&#45;&gt;Node2 -->
<g id="edge1" class="edge"><title>Node1&#45;&gt;Node2</title>
<path fill="none" stroke="midnightblue" d="M150.06,-64C158.645,-64 167.345,-64 175.828,-64"/>
<polygon fill="midnightblue" stroke="midnightblue" points="150.055,-60.5001 140.055,-64 150.055,-67.5001 150.055,-60.5001"/>
</g>
<!-- Node3 -->
<g id="node3" class="node"><title>Node3</title>
<g id="a_node3"><a xlink:href="../../d9/d7e/classslogo_1_1_u_i_1_1_method_runner.html#a5fe4a6310ba1b0851d7d30a440511324" target="_top" xlink:title="slogo.UI.MethodRunner.change\lTurtle">
<polygon fill="white" stroke="black" points="356,-49 356,-79 520,-79 520,-49 356,-49"/>
<text text-anchor="start" x="364" y="-67" font-family="Helvetica,sans-Serif" font-size="10.00">slogo.UI.MethodRunner.change</text>
<text text-anchor="middle" x="438" y="-56" font-family="Helvetica,sans-Serif" font-size="10.00">Turtle</text>
</a>
</g>
</g>
<!-- Node2&#45;&gt;Node3 -->
<g id="edge2" class="edge"><title>Node2&#45;&gt;Node3</title>
<path fill="none" stroke="midnightblue" d="M330.28,-64C338.719,-64 347.298,-64 355.736,-64"/>
<polygon fill="midnightblue" stroke="midnightblue" points="330.075,-60.5001 320.075,-64 330.075,-67.5001 330.075,-60.5001"/>
</g>
<!-- Node4 -->
<g id="node4" class="node"><title>Node4</title>
<g id="a_node4"><a xlink:href="../../df/d2d/classslogo_1_1_view.html#accc79c56511a72090ff8a4d414b8d1f5" target="_top" xlink:title="slogo.View.executeTurtle\lCommands">
<polygon fill="white" stroke="black" points="556.5,-49 556.5,-79 689.5,-79 689.5,-49 556.5,-49"/>
<text text-anchor="start" x="564.5" y="-67" font-family="Helvetica,sans-Serif" font-size="10.00">slogo.View.executeTurtle</text>
<text text-anchor="middle" x="623" y="-56" font-family="Helvetica,sans-Serif" font-size="10.00">Commands</text>
</a>
</g>
</g>
<!-- Node3&#45;&gt;Node4 -->
<g id="edge3" class="edge"><title>Node3&#45;&gt;Node4</title>
<path fill="none" stroke="midnightblue" d="M530.35,-64C539.128,-64 547.907,-64 556.365,-64"/>
<polygon fill="midnightblue" stroke="midnightblue" points="530.066,-60.5001 520.066,-64 530.066,-67.5001 530.066,-60.5001"/>
</g>
<!-- Node5 -->
<g id="node5" class="node"><title>Node5</title>
<g id="a_node5"><a xlink:href="../../df/d2d/classslogo_1_1_view.html#aa90e5d95d422b58b7f4b7f8a049defe1" target="_top" xlink:title="slogo.View.executeCommand">
<polygon fill="white" stroke="black" points="726,-54.5 726,-73.5 884,-73.5 884,-54.5 726,-54.5"/>
<text text-anchor="middle" x="805" y="-61.5" font-family="Helvetica,sans-Serif" font-size="10.00">slogo.View.executeCommand</text>
</a>
</g>
</g>
<!-- Node4&#45;&gt;Node5 -->
<g id="edge4" class="edge"><title>Node4&#45;&gt;Node5</title>
<path fill="none" stroke="midnightblue" d="M699.784,-64C708.42,-64 717.235,-64 725.901,-64"/>
<polygon fill="midnightblue" stroke="midnightblue" points="699.748,-60.5001 689.748,-64 699.748,-67.5001 699.748,-60.5001"/>
</g>
<!-- Node6 -->
<g id="node6" class="node"><title>Node6</title>
<g id="a_node6"><a xlink:href="../../df/d2d/classslogo_1_1_view.html#aee563f6a0b15ac6668e4dcbdad40c73c" target="_top" xlink:title="slogo.View.sendCommandTo\lBackend">
<polygon fill="white" stroke="black" points="926,-213 926,-243 1078,-243 1078,-213 926,-213"/>
<text text-anchor="start" x="934" y="-231" font-family="Helvetica,sans-Serif" font-size="10.00">slogo.View.sendCommandTo</text>
<text text-anchor="middle" x="1002" y="-220" font-family="Helvetica,sans-Serif" font-size="10.00">Backend</text>
</a>
</g>
</g>
<!-- Node5&#45;&gt;Node6 -->
<g id="edge5" class="edge"><title>Node5&#45;&gt;Node6</title>
<path fill="none" stroke="midnightblue" d="M825.054,-80.0252C862.765,-111.741 946.433,-182.108 983.146,-212.984"/>
<polygon fill="midnightblue" stroke="midnightblue" points="827.233,-77.2841 817.327,-73.5262 822.727,-82.6414 827.233,-77.2841"/>
</g>
<!-- Node26 -->
<g id="node26" class="node"><title>Node26</title>
<g id="a_node26"><a xlink:href="../../df/d2d/classslogo_1_1_view.html#a4c3084a198acf85804800d70eff9ee51" target="_top" xlink:title="slogo.View.stepIntoCommand">
<polygon fill="white" stroke="black" points="923,-54.5 923,-73.5 1081,-73.5 1081,-54.5 923,-54.5"/>
<text text-anchor="middle" x="1002" y="-61.5" font-family="Helvetica,sans-Serif" font-size="10.00">slogo.View.stepIntoCommand</text>
</a>
</g>
</g>
<!-- Node5&#45;&gt;Node26 -->
<g id="edge33" class="edge"><title>Node5&#45;&gt;Node26</title>
<path fill="none" stroke="midnightblue" d="M894.402,-64C903.87,-64 913.454,-64 922.792,-64"/>
<polygon fill="midnightblue" stroke="midnightblue" points="894.19,-60.5001 884.19,-64 894.19,-67.5001 894.19,-60.5001"/>
</g>
<!-- Node30 -->
<g id="node30" class="node"><title>Node30</title>
<g id="a_node30"><a xlink:href="../../df/d2d/classslogo_1_1_view.html#ac8b7f574c679e744a430f1649dc55e68" target="_top" xlink:title="slogo.View.stepOverCommand">
<polygon fill="white" stroke="black" points="920.5,-11.5 920.5,-30.5 1083.5,-30.5 1083.5,-11.5 920.5,-11.5"/>
<text text-anchor="middle" x="1002" y="-18.5" font-family="Helvetica,sans-Serif" font-size="10.00">slogo.View.stepOverCommand</text>
</a>
</g>
</g>
<!-- Node5&#45;&gt;Node30 -->
<g id="edge38" class="edge"><title>Node5&#45;&gt;Node30</title>
<path fill="none" stroke="midnightblue" d="M859.056,-52.3005C890.068,-45.462 928.711,-36.9406 957.844,-30.5164"/>
<polygon fill="midnightblue" stroke="midnightblue" points="858.288,-48.8855 849.277,-54.4569 859.796,-55.7213 858.288,-48.8855"/>
</g>
<!-- Node7 -->
<g id="node7" class="node"><title>Node7</title>
<g id="a_node7"><a xlink:href="../../db/d19/classslogo_1_1_u_i_1_1_module_creation_helper.html#a69e17abcc7cf9a6ed7261d8fb1d631fa" target="_top" xlink:title="slogo.UI.ModuleCreationHelper.activate\lIncreaseDecreaseButtons">
<polygon fill="white" stroke="black" points="1120.5,-389 1120.5,-419 1325.5,-419 1325.5,-389 1120.5,-389"/>
<text text-anchor="start" x="1128.5" y="-407" font-family="Helvetica,sans-Serif" font-size="10.00">slogo.UI.ModuleCreationHelper.activate</text>
<text text-anchor="middle" x="1223" y="-396" font-family="Helvetica,sans-Serif" font-size="10.00">IncreaseDecreaseButtons</text>
</a>
</g>
</g>
<!-- Node6&#45;&gt;Node7 -->
<g id="edge6" class="edge"><title>Node6&#45;&gt;Node7</title>
<path fill="none" stroke="midnightblue" d="M1016.04,-252.219C1034.78,-284.724 1072.36,-342.06 1120,-374 1129.12,-380.116 1139.51,-385.01 1150.09,-388.919"/>
<polygon fill="midnightblue" stroke="midnightblue" points="1019.01,-250.361 1011.05,-243.368 1012.91,-253.798 1019.01,-250.361"/>
</g>
<!-- Node14 -->
<g id="node14" class="node"><title>Node14</title>
<g id="a_node14"><a xlink:href="../../db/d19/classslogo_1_1_u_i_1_1_module_creation_helper.html#aa70b0ad9e90e62509149bfd2ef2ba209" target="_top" xlink:title="slogo.UI.ModuleCreationHelper.activate\lKeyEvents">
<polygon fill="white" stroke="black" points="1846.5,-136 1846.5,-166 2051.5,-166 2051.5,-136 1846.5,-136"/>
<text text-anchor="start" x="1854.5" y="-154" font-family="Helvetica,sans-Serif" font-size="10.00">slogo.UI.ModuleCreationHelper.activate</text>
<text text-anchor="middle" x="1949" y="-143" font-family="Helvetica,sans-Serif" font-size="10.00">KeyEvents</text>
</a>
</g>
</g>
<!-- Node6&#45;&gt;Node14 -->
<g id="edge14" class="edge"><title>Node6&#45;&gt;Node14</title>
<path fill="none" stroke="midnightblue" d="M1032.18,-207.164C1054.9,-192.251 1087.88,-173.388 1120,-165 1254.15,-129.97 1656.16,-139.777 1846.26,-146.744"/>
<polygon fill="midnightblue" stroke="midnightblue" points="1030.05,-204.378 1023.7,-212.86 1033.95,-210.189 1030.05,-204.378"/>
</g>
<!-- Node15 -->
<g id="node15" class="node"><title>Node15</title>
<g id="a_node15"><a xlink:href="../../db/d19/classslogo_1_1_u_i_1_1_module_creation_helper.html#a2e841243ec3ca474e8822102343acc88" target="_top" xlink:title="slogo.UI.ModuleCreationHelper.activate\lNewTurtleButton">
<polygon fill="white" stroke="black" points="1362.5,-344 1362.5,-374 1567.5,-374 1567.5,-344 1362.5,-344"/>
<text text-anchor="start" x="1370.5" y="-362" font-family="Helvetica,sans-Serif" font-size="10.00">slogo.UI.ModuleCreationHelper.activate</text>
<text text-anchor="middle" x="1465" y="-351" font-family="Helvetica,sans-Serif" font-size="10.00">NewTurtleButton</text>
</a>
</g>
</g>
<!-- Node6&#45;&gt;Node15 -->
<g id="edge16" class="edge"><title>Node6&#45;&gt;Node15</title>
<path fill="none" stroke="midnightblue" d="M1019.02,-251.155C1039.1,-278.009 1076.24,-321.013 1120,-340 1196.41,-373.152 1291.47,-375.86 1362.29,-371.435"/>
<polygon fill="midnightblue" stroke="midnightblue" points="1021.83,-249.073 1013.11,-243.055 1016.18,-253.197 1021.83,-249.073"/>
</g>
<!-- Node17 -->
<g id="node17" class="node"><title>Node17</title>
<g id="a_node17"><a xlink:href="../../db/d19/classslogo_1_1_u_i_1_1_module_creation_helper.html#a9b1f07ab673191067907a059b1b0c524" target="_top" xlink:title="slogo.UI.ModuleCreationHelper.activate\lPlayButton">
<polygon fill="white" stroke="black" points="1120.5,-301 1120.5,-331 1325.5,-331 1325.5,-301 1120.5,-301"/>
<text text-anchor="start" x="1128.5" y="-319" font-family="Helvetica,sans-Serif" font-size="10.00">slogo.UI.ModuleCreationHelper.activate</text>
<text text-anchor="middle" x="1223" y="-308" font-family="Helvetica,sans-Serif" font-size="10.00">PlayButton</text>
</a>
</g>
</g>
<!-- Node6&#45;&gt;Node17 -->
<g id="edge19" class="edge"><title>Node6&#45;&gt;Node17</title>
<path fill="none" stroke="midnightblue" d="M1035.42,-248.354C1058.33,-262.006 1090.16,-279.522 1120,-291 1129.7,-294.73 1140.14,-298.039 1150.5,-300.929"/>
<polygon fill="midnightblue" stroke="midnightblue" points="1037.16,-245.317 1026.79,-243.145 1033.54,-251.31 1037.16,-245.317"/>
</g>
<!-- Node20 -->
<g id="node20" class="node"><title>Node20</title>
<g id="a_node20"><a xlink:href="../../db/d19/classslogo_1_1_u_i_1_1_module_creation_helper.html#a3a38d485562cb17591ec3fd07cffc18a" target="_top" xlink:title="slogo.UI.ModuleCreationHelper.activate\lTurtleCanvas">
<polygon fill="white" stroke="black" points="1604.5,-87 1604.5,-117 1809.5,-117 1809.5,-87 1604.5,-87"/>
<text text-anchor="start" x="1612.5" y="-105" font-family="Helvetica,sans-Serif" font-size="10.00">slogo.UI.ModuleCreationHelper.activate</text>
<text text-anchor="middle" x="1707" y="-94" font-family="Helvetica,sans-Serif" font-size="10.00">TurtleCanvas</text>
</a>
</g>
</g>
<!-- Node6&#45;&gt;Node20 -->
<g id="edge23" class="edge"><title>Node6&#45;&gt;Node20</title>
<path fill="none" stroke="midnightblue" d="M1022.37,-205.232C1043.63,-182.064 1080.1,-147.434 1120,-132 1205.51,-98.92 1460.48,-97.5272 1604.33,-99.6157"/>
<polygon fill="midnightblue" stroke="midnightblue" points="1019.56,-203.115 1015.5,-212.898 1024.78,-207.786 1019.56,-203.115"/>
</g>
<!-- Node22 -->
<g id="node22" class="node"><title>Node22</title>
<g id="a_node22"><a xlink:href="../../d1/d5f/classslogo_1_1_u_i_1_1_path_color_selector.html#ad3d9c82a0904c97edcec7cf67b85bd7b" target="_top" xlink:title="slogo.UI.PathColorSelector.create">
<polygon fill="white" stroke="black" points="1135,-262.5 1135,-281.5 1311,-281.5 1311,-262.5 1135,-262.5"/>
<text text-anchor="middle" x="1223" y="-269.5" font-family="Helvetica,sans-Serif" font-size="10.00">slogo.UI.PathColorSelector.create</text>
</a>
</g>
</g>
<!-- Node6&#45;&gt;Node22 -->
<g id="edge26" class="edge"><title>Node6&#45;&gt;Node22</title>
<path fill="none" stroke="midnightblue" d="M1085.74,-245.065C1097.24,-247.411 1108.91,-249.776 1120,-252 1137.25,-255.46 1156.16,-259.186 1172.95,-262.473"/>
<polygon fill="midnightblue" stroke="midnightblue" points="1086.19,-241.585 1075.69,-243.013 1084.79,-248.443 1086.19,-241.585"/>
</g>
<!-- Node24 -->
<g id="node24" class="node"><title>Node24</title>
<g id="a_node24"><a xlink:href="../../d4/d8d/classslogo_1_1_u_i_1_1_background_color_selector.html#ad75ba4ce104e071811d0fe039a4e839f" target="_top" xlink:title="slogo.UI.BackgroundColor\lSelector.create">
<polygon fill="white" stroke="black" points="1153,-213 1153,-243 1293,-243 1293,-213 1153,-213"/>
<text text-anchor="start" x="1161" y="-231" font-family="Helvetica,sans-Serif" font-size="10.00">slogo.UI.BackgroundColor</text>
<text text-anchor="middle" x="1223" y="-220" font-family="Helvetica,sans-Serif" font-size="10.00">Selector.create</text>
</a>
</g>
</g>
<!-- Node6&#45;&gt;Node24 -->
<g id="edge29" class="edge"><title>Node6&#45;&gt;Node24</title>
<path fill="none" stroke="midnightblue" d="M1088.14,-228C1109.6,-228 1132.37,-228 1152.93,-228"/>
<polygon fill="midnightblue" stroke="midnightblue" points="1088.06,-224.5 1078.06,-228 1088.06,-231.5 1088.06,-224.5"/>
</g>
<!-- Node25 -->
<g id="node25" class="node"><title>Node25</title>
<g id="a_node25"><a xlink:href="../../dd/da7/classslogo_1_1_u_i_1_1_turtle_image_selector.html#a3f268d9196ffebcbb5dc322d2897a9fe" target="_top" xlink:title="slogo.UI.TurtleImageSelector.create">
<polygon fill="white" stroke="black" points="1130,-174.5 1130,-193.5 1316,-193.5 1316,-174.5 1130,-174.5"/>
<text text-anchor="middle" x="1223" y="-181.5" font-family="Helvetica,sans-Serif" font-size="10.00">slogo.UI.TurtleImageSelector.create</text>
</a>
</g>
</g>
<!-- Node6&#45;&gt;Node25 -->
<g id="edge31" class="edge"><title>Node6&#45;&gt;Node25</title>
<path fill="none" stroke="midnightblue" d="M1082.01,-210.821C1094.7,-208.147 1107.71,-205.458 1120,-203 1135.99,-199.804 1153.42,-196.493 1169.27,-193.548"/>
<polygon fill="midnightblue" stroke="midnightblue" points="1080.98,-207.463 1071.92,-212.958 1082.43,-214.311 1080.98,-207.463"/>
</g>
<!-- Node8 -->
<g id="node8" class="node"><title>Node8</title>
<g id="a_node8"><a xlink:href="../../db/d19/classslogo_1_1_u_i_1_1_module_creation_helper.html#adce7362386f9a7b3006e7db08a2d578d" target="_top" xlink:title="slogo.UI.ModuleCreationHelper.create\lIncreaseDecreaseButtons">
<polygon fill="white" stroke="black" points="1608.5,-380 1608.5,-410 1805.5,-410 1805.5,-380 1608.5,-380"/>
<text text-anchor="start" x="1616.5" y="-398" font-family="Helvetica,sans-Serif" font-size="10.00">slogo.UI.ModuleCreationHelper.create</text>
<text text-anchor="middle" x="1707" y="-387" font-family="Helvetica,sans-Serif" font-size="10.00">IncreaseDecreaseButtons</text>
</a>
</g>
</g>
<!-- Node7&#45;&gt;Node8 -->
<g id="edge7" class="edge"><title>Node7&#45;&gt;Node8</title>
<path fill="none" stroke="midnightblue" d="M1335.79,-401.913C1418.23,-400.373 1529.29,-398.299 1608.21,-396.826"/>
<polygon fill="midnightblue" stroke="midnightblue" points="1335.56,-398.416 1325.63,-402.102 1335.69,-405.415 1335.56,-398.416"/>
</g>
<!-- Node9 -->
<g id="node9" class="node"><title>Node9</title>
<g id="a_node9"><a xlink:href="../../db/d19/classslogo_1_1_u_i_1_1_module_creation_helper.html#a7c650957b2389d6e6d36e8be8a33cd2b" target="_top" xlink:title="slogo.UI.ModuleCreationHelper.create\lSelectorVBoxModules">
<polygon fill="white" stroke="black" points="1850.5,-253 1850.5,-283 2047.5,-283 2047.5,-253 1850.5,-253"/>
<text text-anchor="start" x="1858.5" y="-271" font-family="Helvetica,sans-Serif" font-size="10.00">slogo.UI.ModuleCreationHelper.create</text>
<text text-anchor="middle" x="1949" y="-260" font-family="Helvetica,sans-Serif" font-size="10.00">SelectorVBoxModules</text>
</a>
</g>
</g>
<!-- Node8&#45;&gt;Node9 -->
<g id="edge8" class="edge"><title>Node8&#45;&gt;Node9</title>
<path fill="none" stroke="midnightblue" d="M1791,-376.732C1797.54,-374.424 1803.95,-371.854 1810,-369 1858.6,-346.077 1907.46,-305.079 1931.92,-283.025"/>
<polygon fill="midnightblue" stroke="midnightblue" points="1789.75,-373.461 1781.36,-379.93 1791.95,-380.105 1789.75,-373.461"/>
</g>
<!-- Node10 -->
<g id="node10" class="node"><title>Node10</title>
<g id="a_node10"><a xlink:href="../../db/d19/classslogo_1_1_u_i_1_1_module_creation_helper.html#afb9dbbbad7d872234a5b296fe129a34e" target="_top" xlink:title="slogo.UI.ModuleCreationHelper.create\lMainPageModules">
<polygon fill="white" stroke="black" points="2088.5,-136 2088.5,-166 2285.5,-166 2285.5,-136 2088.5,-136"/>
<text text-anchor="start" x="2096.5" y="-154" font-family="Helvetica,sans-Serif" font-size="10.00">slogo.UI.ModuleCreationHelper.create</text>
<text text-anchor="middle" x="2187" y="-143" font-family="Helvetica,sans-Serif" font-size="10.00">MainPageModules</text>
</a>
</g>
</g>
<!-- Node9&#45;&gt;Node10 -->
<g id="edge9" class="edge"><title>Node9&#45;&gt;Node10</title>
<path fill="none" stroke="midnightblue" d="M1989.58,-248.38C2036.29,-225.222 2112.96,-187.212 2155.37,-166.184"/>
<polygon fill="midnightblue" stroke="midnightblue" points="1987.77,-245.366 1980.37,-252.944 1990.88,-251.638 1987.77,-245.366"/>
</g>
<!-- Node11 -->
<g id="node11" class="node"><title>Node11</title>
<g id="a_node11"><a xlink:href="../../d9/d33/classslogo_1_1_u_i_1_1_main.html#a15b7f2e399ee24d160550993ab737e73" target="_top" xlink:title="slogo.UI.Main.start">
<polygon fill="white" stroke="black" points="2322,-150.5 2322,-169.5 2428,-169.5 2428,-150.5 2322,-150.5"/>
<text text-anchor="middle" x="2375" y="-157.5" font-family="Helvetica,sans-Serif" font-size="10.00">slogo.UI.Main.start</text>
</a>
</g>
</g>
<!-- Node10&#45;&gt;Node11 -->
<g id="edge10" class="edge"><title>Node10&#45;&gt;Node11</title>
<path fill="none" stroke="midnightblue" d="M2295.8,-156.216C2304.76,-156.65 2313.53,-157.074 2321.76,-157.472"/>
<polygon fill="midnightblue" stroke="midnightblue" points="2295.79,-152.712 2285.63,-155.724 2295.45,-159.703 2295.79,-152.712"/>
</g>
<!-- Node12 -->
<g id="node12" class="node"><title>Node12</title>
<g id="a_node12"><a xlink:href="../../db/d19/classslogo_1_1_u_i_1_1_module_creation_helper.html#a3be12a7cc2b8a219db1e296211a2cb88" target="_top" xlink:title="slogo.UI.ModuleCreationHelper.activate\lExtraWorkspaceButton">
<polygon fill="white" stroke="black" points="2464.5,-163 2464.5,-193 2669.5,-193 2669.5,-163 2464.5,-163"/>
<text text-anchor="start" x="2472.5" y="-181" font-family="Helvetica,sans-Serif" font-size="10.00">slogo.UI.ModuleCreationHelper.activate</text>
<text text-anchor="middle" x="2567" y="-170" font-family="Helvetica,sans-Serif" font-size="10.00">ExtraWorkspaceButton</text>
</a>
</g>
</g>
<!-- Node11&#45;&gt;Node12 -->
<g id="edge11" class="edge"><title>Node11&#45;&gt;Node12</title>
<path fill="none" stroke="midnightblue" d="M2438.22,-165.894C2446.63,-166.691 2455.44,-167.526 2464.32,-168.367"/>
<polygon fill="midnightblue" stroke="midnightblue" points="2438.46,-162.401 2428.17,-164.942 2437.79,-169.37 2438.46,-162.401"/>
</g>
<!-- Node13 -->
<g id="node13" class="node"><title>Node13</title>
<g id="a_node13"><a xlink:href="../../db/d19/classslogo_1_1_u_i_1_1_module_creation_helper.html#a702c1ebe24d2857a10c666eb1fcc315d" target="_top" xlink:title="slogo.UI.ModuleCreationHelper.create\lExtraWorkspaceButton">
<polygon fill="white" stroke="black" points="2706.5,-189 2706.5,-219 2903.5,-219 2903.5,-189 2706.5,-189"/>
<text text-anchor="start" x="2714.5" y="-207" font-family="Helvetica,sans-Serif" font-size="10.00">slogo.UI.ModuleCreationHelper.create</text>
<text text-anchor="middle" x="2805" y="-196" font-family="Helvetica,sans-Serif" font-size="10.00">ExtraWorkspaceButton</text>
</a>
</g>
</g>
<!-- Node12&#45;&gt;Node13 -->
<g id="edge12" class="edge"><title>Node12&#45;&gt;Node13</title>
<path fill="none" stroke="midnightblue" d="M2679.77,-190.313C2688.62,-191.289 2697.52,-192.27 2706.27,-193.234"/>
<polygon fill="midnightblue" stroke="midnightblue" points="2680.12,-186.831 2669.8,-189.215 2679.35,-193.789 2680.12,-186.831"/>
</g>
<!-- Node13&#45;&gt;Node9 -->
<g id="edge13" class="edge"><title>Node13&#45;&gt;Node9</title>
<path fill="none" stroke="midnightblue" d="M2696.34,-212.068C2528.9,-224.617 2208.6,-248.62 2047.55,-260.69"/>
<polygon fill="midnightblue" stroke="midnightblue" points="2696.7,-215.551 2706.41,-211.313 2696.18,-208.571 2696.7,-215.551"/>
</g>
<!-- Node14&#45;&gt;Node10 -->
<g id="edge15" class="edge"><title>Node14&#45;&gt;Node10</title>
<path fill="none" stroke="midnightblue" d="M2062.05,-151C2070.81,-151 2079.62,-151 2088.27,-151"/>
<polygon fill="midnightblue" stroke="midnightblue" points="2061.8,-147.5 2051.8,-151 2061.8,-154.5 2061.8,-147.5"/>
</g>
<!-- Node16 -->
<g id="node16" class="node"><title>Node16</title>
<g id="a_node16"><a xlink:href="../../db/d19/classslogo_1_1_u_i_1_1_module_creation_helper.html#a07f5483df317cdf80e8ea2dda5699afa" target="_top" xlink:title="slogo.UI.ModuleCreationHelper.create\lNewTurtleButton">
<polygon fill="white" stroke="black" points="1608.5,-330 1608.5,-360 1805.5,-360 1805.5,-330 1608.5,-330"/>
<text text-anchor="start" x="1616.5" y="-348" font-family="Helvetica,sans-Serif" font-size="10.00">slogo.UI.ModuleCreationHelper.create</text>
<text text-anchor="middle" x="1707" y="-337" font-family="Helvetica,sans-Serif" font-size="10.00">NewTurtleButton</text>
</a>
</g>
</g>
<!-- Node15&#45;&gt;Node16 -->
<g id="edge17" class="edge"><title>Node15&#45;&gt;Node16</title>
<path fill="none" stroke="midnightblue" d="M1577.89,-352.473C1588.04,-351.881 1598.26,-351.285 1608.27,-350.701"/>
<polygon fill="midnightblue" stroke="midnightblue" points="1577.56,-348.986 1567.78,-353.063 1577.97,-355.974 1577.56,-348.986"/>
</g>
<!-- Node16&#45;&gt;Node9 -->
<g id="edge18" class="edge"><title>Node16&#45;&gt;Node9</title>
<path fill="none" stroke="midnightblue" d="M1778.15,-327.309C1788.87,-324.354 1799.76,-321.203 1810,-318 1843.93,-307.387 1881.86,-293.493 1909.35,-283.046"/>
<polygon fill="midnightblue" stroke="midnightblue" points="1777.12,-323.962 1768.39,-329.963 1778.96,-330.717 1777.12,-323.962"/>
</g>
<!-- Node18 -->
<g id="node18" class="node"><title>Node18</title>
<g id="a_node18"><a xlink:href="../../db/d19/classslogo_1_1_u_i_1_1_module_creation_helper.html#a9b3fb38a55b3b7812b4f793afa7a974f" target="_top" xlink:title="slogo.UI.ModuleCreationHelper.create\lPlayButton">
<polygon fill="white" stroke="black" points="1366.5,-295 1366.5,-325 1563.5,-325 1563.5,-295 1366.5,-295"/>
<text text-anchor="start" x="1374.5" y="-313" font-family="Helvetica,sans-Serif" font-size="10.00">slogo.UI.ModuleCreationHelper.create</text>
<text text-anchor="middle" x="1465" y="-302" font-family="Helvetica,sans-Serif" font-size="10.00">PlayButton</text>
</a>
</g>
</g>
<!-- Node17&#45;&gt;Node18 -->
<g id="edge20" class="edge"><title>Node17&#45;&gt;Node18</title>
<path fill="none" stroke="midnightblue" d="M1335.89,-313.203C1346.04,-312.949 1356.26,-312.694 1366.27,-312.443"/>
<polygon fill="midnightblue" stroke="midnightblue" points="1335.69,-309.707 1325.78,-313.455 1335.87,-316.704 1335.69,-309.707"/>
</g>
<!-- Node19 -->
<g id="node19" class="node"><title>Node19</title>
<g id="a_node19"><a xlink:href="../../db/d19/classslogo_1_1_u_i_1_1_module_creation_helper.html#ae1e60d37509c2e5eddcb2a6e70b4f650" target="_top" xlink:title="slogo.UI.ModuleCreationHelper.create\lFirstRowButtons">
<polygon fill="white" stroke="black" points="1608.5,-279 1608.5,-309 1805.5,-309 1805.5,-279 1608.5,-279"/>
<text text-anchor="start" x="1616.5" y="-297" font-family="Helvetica,sans-Serif" font-size="10.00">slogo.UI.ModuleCreationHelper.create</text>
<text text-anchor="middle" x="1707" y="-286" font-family="Helvetica,sans-Serif" font-size="10.00">FirstRowButtons</text>
</a>
</g>
</g>
<!-- Node18&#45;&gt;Node19 -->
<g id="edge21" class="edge"><title>Node18&#45;&gt;Node19</title>
<path fill="none" stroke="midnightblue" d="M1573.73,-302.818C1585.3,-302.046 1597.03,-301.265 1608.47,-300.502"/>
<polygon fill="midnightblue" stroke="midnightblue" points="1573.36,-299.335 1563.62,-303.492 1573.83,-306.319 1573.36,-299.335"/>
</g>
<!-- Node19&#45;&gt;Node9 -->
<g id="edge22" class="edge"><title>Node19&#45;&gt;Node9</title>
<path fill="none" stroke="midnightblue" d="M1815.73,-282.329C1827.3,-281.075 1839.03,-279.805 1850.47,-278.566"/>
<polygon fill="midnightblue" stroke="midnightblue" points="1815.18,-278.868 1805.62,-283.425 1815.94,-285.827 1815.18,-278.868"/>
</g>
<!-- Node21 -->
<g id="node21" class="node"><title>Node21</title>
<g id="a_node21"><a xlink:href="../../db/d19/classslogo_1_1_u_i_1_1_module_creation_helper.html#a803bac6b55bde712b21f2face1eeef81" target="_top" xlink:title="slogo.UI.ModuleCreationHelper.create\lTurtleCanvas">
<polygon fill="white" stroke="black" points="1850.5,-87 1850.5,-117 2047.5,-117 2047.5,-87 1850.5,-87"/>
<text text-anchor="start" x="1858.5" y="-105" font-family="Helvetica,sans-Serif" font-size="10.00">slogo.UI.ModuleCreationHelper.create</text>
<text text-anchor="middle" x="1949" y="-94" font-family="Helvetica,sans-Serif" font-size="10.00">TurtleCanvas</text>
</a>
</g>
</g>
<!-- Node20&#45;&gt;Node21 -->
<g id="edge24" class="edge"><title>Node20&#45;&gt;Node21</title>
<path fill="none" stroke="midnightblue" d="M1819.89,-102C1830.04,-102 1840.26,-102 1850.27,-102"/>
<polygon fill="midnightblue" stroke="midnightblue" points="1819.78,-98.5001 1809.78,-102 1819.78,-105.5 1819.78,-98.5001"/>
</g>
<!-- Node21&#45;&gt;Node10 -->
<g id="edge25" class="edge"><title>Node21&#45;&gt;Node10</title>
<path fill="none" stroke="midnightblue" d="M2032.42,-119.113C2058.9,-124.611 2088.03,-130.658 2113.73,-135.994"/>
<polygon fill="midnightblue" stroke="midnightblue" points="2032.91,-115.641 2022.41,-117.035 2031.49,-122.495 2032.91,-115.641"/>
</g>
<!-- Node23 -->
<g id="node23" class="node"><title>Node23</title>
<g id="a_node23"><a xlink:href="../../db/d19/classslogo_1_1_u_i_1_1_module_creation_helper.html#af7f2919454fdbf6e9d7d912e99634857" target="_top" xlink:title="slogo.UI.ModuleCreationHelper.create\lSelectors">
<polygon fill="white" stroke="black" points="1366.5,-230 1366.5,-260 1563.5,-260 1563.5,-230 1366.5,-230"/>
<text text-anchor="start" x="1374.5" y="-248" font-family="Helvetica,sans-Serif" font-size="10.00">slogo.UI.ModuleCreationHelper.create</text>
<text text-anchor="middle" x="1465" y="-237" font-family="Helvetica,sans-Serif" font-size="10.00">Selectors</text>
</a>
</g>
</g>
<!-- Node22&#45;&gt;Node23 -->
<g id="edge27" class="edge"><title>Node22&#45;&gt;Node23</title>
<path fill="none" stroke="midnightblue" d="M1318.76,-261.339C1334.36,-259.585 1350.54,-257.764 1366.21,-256.002"/>
<polygon fill="midnightblue" stroke="midnightblue" points="1318.16,-257.885 1308.62,-262.481 1318.94,-264.841 1318.16,-257.885"/>
</g>
<!-- Node23&#45;&gt;Node9 -->
<g id="edge28" class="edge"><title>Node23&#45;&gt;Node9</title>
<path fill="none" stroke="midnightblue" d="M1573.74,-250.141C1656.55,-254.092 1769.97,-259.505 1850.19,-263.333"/>
<polygon fill="midnightblue" stroke="midnightblue" points="1573.7,-246.635 1563.54,-249.654 1573.36,-253.627 1573.7,-246.635"/>
</g>
<!-- Node24&#45;&gt;Node23 -->
<g id="edge30" class="edge"><title>Node24&#45;&gt;Node23</title>
<path fill="none" stroke="midnightblue" d="M1303.18,-233.609C1323.4,-235.041 1345.37,-236.597 1366.39,-238.086"/>
<polygon fill="midnightblue" stroke="midnightblue" points="1303.32,-230.11 1293.1,-232.894 1302.82,-237.092 1303.32,-230.11"/>
</g>
<!-- Node25&#45;&gt;Node23 -->
<g id="edge32" class="edge"><title>Node25&#45;&gt;Node23</title>
<path fill="none" stroke="midnightblue" d="M1291.48,-195.473C1303.04,-197.752 1314.9,-200.287 1326,-203 1357.38,-210.673 1392.18,-221.278 1418.98,-229.911"/>
<polygon fill="midnightblue" stroke="midnightblue" points="1291.9,-191.99 1281.42,-193.539 1290.58,-198.864 1291.9,-191.99"/>
</g>
<!-- Node27 -->
<g id="node27" class="node"><title>Node27</title>
<g id="a_node27"><a xlink:href="../../db/d19/classslogo_1_1_u_i_1_1_module_creation_helper.html#a9fd730f7c1860d34bf4ac46c3828bd59" target="_top" xlink:title="slogo.UI.ModuleCreationHelper.activate\lStepIntoButton">
<polygon fill="white" stroke="black" points="1120.5,-49 1120.5,-79 1325.5,-79 1325.5,-49 1120.5,-49"/>
<text text-anchor="start" x="1128.5" y="-67" font-family="Helvetica,sans-Serif" font-size="10.00">slogo.UI.ModuleCreationHelper.activate</text>
<text text-anchor="middle" x="1223" y="-56" font-family="Helvetica,sans-Serif" font-size="10.00">StepIntoButton</text>
</a>
</g>
</g>
<!-- Node26&#45;&gt;Node27 -->
<g id="edge34" class="edge"><title>Node26&#45;&gt;Node27</title>
<path fill="none" stroke="midnightblue" d="M1091.33,-64C1100.82,-64 1110.54,-64 1120.17,-64"/>
<polygon fill="midnightblue" stroke="midnightblue" points="1091.14,-60.5001 1081.14,-64 1091.14,-67.5001 1091.14,-60.5001"/>
</g>
<!-- Node28 -->
<g id="node28" class="node"><title>Node28</title>
<g id="a_node28"><a xlink:href="../../db/d19/classslogo_1_1_u_i_1_1_module_creation_helper.html#a4a6f1f009507c25be8c7c28cbba35f3b" target="_top" xlink:title="slogo.UI.ModuleCreationHelper.create\lDebugStepIntoButton">
<polygon fill="white" stroke="black" points="1366.5,-49 1366.5,-79 1563.5,-79 1563.5,-49 1366.5,-49"/>
<text text-anchor="start" x="1374.5" y="-67" font-family="Helvetica,sans-Serif" font-size="10.00">slogo.UI.ModuleCreationHelper.create</text>
<text text-anchor="middle" x="1465" y="-56" font-family="Helvetica,sans-Serif" font-size="10.00">DebugStepIntoButton</text>
</a>
</g>
</g>
<!-- Node27&#45;&gt;Node28 -->
<g id="edge35" class="edge"><title>Node27&#45;&gt;Node28</title>
<path fill="none" stroke="midnightblue" d="M1335.89,-64C1346.04,-64 1356.26,-64 1366.27,-64"/>
<polygon fill="midnightblue" stroke="midnightblue" points="1335.78,-60.5001 1325.78,-64 1335.78,-67.5001 1335.78,-60.5001"/>
</g>
<!-- Node29 -->
<g id="node29" class="node"><title>Node29</title>
<g id="a_node29"><a xlink:href="../../db/d19/classslogo_1_1_u_i_1_1_module_creation_helper.html#a975af4ea47dc85df72215bdf1a0d20ce" target="_top" xlink:title="slogo.UI.ModuleCreationHelper.create\lDebugModules">
<polygon fill="white" stroke="black" points="1608.5,-38 1608.5,-68 1805.5,-68 1805.5,-38 1608.5,-38"/>
<text text-anchor="start" x="1616.5" y="-56" font-family="Helvetica,sans-Serif" font-size="10.00">slogo.UI.ModuleCreationHelper.create</text>
<text text-anchor="middle" x="1707" y="-45" font-family="Helvetica,sans-Serif" font-size="10.00">DebugModules</text>
</a>
</g>
</g>
<!-- Node28&#45;&gt;Node29 -->
<g id="edge36" class="edge"><title>Node28&#45;&gt;Node29</title>
<path fill="none" stroke="midnightblue" d="M1573.73,-59.0622C1585.3,-58.5319 1597.03,-57.9945 1608.47,-57.4702"/>
<polygon fill="midnightblue" stroke="midnightblue" points="1573.45,-55.5716 1563.62,-59.5259 1573.77,-62.5643 1573.45,-55.5716"/>
</g>
<!-- Node29&#45;&gt;Node10 -->
<g id="edge37" class="edge"><title>Node29&#45;&gt;Node10</title>
<path fill="none" stroke="midnightblue" d="M1815.63,-48.679C1884.53,-48.779 1975.11,-54.2973 2052,-77 2095.33,-89.7936 2140.2,-118.228 2165.46,-135.889"/>
<polygon fill="midnightblue" stroke="midnightblue" points="1815.61,-45.1789 1805.62,-48.7021 1815.63,-52.1789 1815.61,-45.1789"/>
</g>
<!-- Node31 -->
<g id="node31" class="node"><title>Node31</title>
<g id="a_node31"><a xlink:href="../../db/d19/classslogo_1_1_u_i_1_1_module_creation_helper.html#a0fed0bb32bf2643d6fd5c24d82e8e18e" target="_top" xlink:title="slogo.UI.ModuleCreationHelper.activate\lStepOverButton">
<polygon fill="white" stroke="black" points="1120.5,-0 1120.5,-30 1325.5,-30 1325.5,-0 1120.5,-0"/>
<text text-anchor="start" x="1128.5" y="-18" font-family="Helvetica,sans-Serif" font-size="10.00">slogo.UI.ModuleCreationHelper.activate</text>
<text text-anchor="middle" x="1223" y="-7" font-family="Helvetica,sans-Serif" font-size="10.00">StepOverButton</text>
</a>
</g>
</g>
<!-- Node30&#45;&gt;Node31 -->
<g id="edge39" class="edge"><title>Node30&#45;&gt;Node31</title>
<path fill="none" stroke="midnightblue" d="M1093.8,-18.5123C1102.56,-18.2724 1111.48,-18.028 1120.33,-17.7856"/>
<polygon fill="midnightblue" stroke="midnightblue" points="1093.51,-15.0187 1083.61,-18.7914 1093.71,-22.0161 1093.51,-15.0187"/>
</g>
<!-- Node32 -->
<g id="node32" class="node"><title>Node32</title>
<g id="a_node32"><a xlink:href="../../db/d19/classslogo_1_1_u_i_1_1_module_creation_helper.html#aa1e7dc2b509360583790fba0d3819c8d" target="_top" xlink:title="slogo.UI.ModuleCreationHelper.create\lDebugStepOverButton">
<polygon fill="white" stroke="black" points="1366.5,-0 1366.5,-30 1563.5,-30 1563.5,-0 1366.5,-0"/>
<text text-anchor="start" x="1374.5" y="-18" font-family="Helvetica,sans-Serif" font-size="10.00">slogo.UI.ModuleCreationHelper.create</text>
<text text-anchor="middle" x="1465" y="-7" font-family="Helvetica,sans-Serif" font-size="10.00">DebugStepOverButton</text>
</a>
</g>
</g>
<!-- Node31&#45;&gt;Node32 -->
<g id="edge40" class="edge"><title>Node31&#45;&gt;Node32</title>
<path fill="none" stroke="midnightblue" d="M1335.89,-15C1346.04,-15 1356.26,-15 1366.27,-15"/>
<polygon fill="midnightblue" stroke="midnightblue" points="1335.78,-11.5001 1325.78,-15 1335.78,-18.5001 1335.78,-11.5001"/>
</g>
<!-- Node32&#45;&gt;Node29 -->
<g id="edge41" class="edge"><title>Node32&#45;&gt;Node29</title>
<path fill="none" stroke="midnightblue" d="M1570.99,-31.6227C1584.31,-33.7329 1597.89,-35.8827 1611.05,-37.966"/>
<polygon fill="midnightblue" stroke="midnightblue" points="1571.28,-28.1256 1560.85,-30.0186 1570.18,-35.0395 1571.28,-28.1256"/>
</g>
</g>
</svg>
