<?xml version="1.0" encoding="UTF-8" standalone="no"?>
<!DOCTYPE svg PUBLIC "-//W3C//DTD SVG 1.1//EN"
 "http://www.w3.org/Graphics/SVG/1.1/DTD/svg11.dtd">
<!-- Generated by graphviz version 2.36.0 (20140111.2315)
 -->
<!-- Title: slogo.backend.parsing.IGrammarRule.matches Pages: 1 -->
<svg width="378pt" height="185pt"
 viewBox="0.00 0.00 378.00 185.00" xmlns="http://www.w3.org/2000/svg" xmlns:xlink="http://www.w3.org/1999/xlink">
<g id="graph0" class="graph" transform="scale(1 1) rotate(0) translate(4 181)">
<title>slogo.backend.parsing.IGrammarRule.matches</title>
<polygon fill="white" stroke="none" points="-4,4 -4,-181 374,-181 374,4 -4,4"/>
<!-- Node1 -->
<g id="node1" class="node"><title>Node1</title>
<polygon fill="#bfbfbf" stroke="black" points="0,-73 0,-103 176,-103 176,-73 0,-73"/>
<text text-anchor="start" x="8" y="-91" font-family="Helvetica,sans-Serif" font-size="10.00">slogo.backend.parsing.IGrammar</text>
<text text-anchor="middle" x="88" y="-80" font-family="Helvetica,sans-Serif" font-size="10.00">Rule.matches</text>
</g>
<!-- Node2 -->
<g id="node2" class="node"><title>Node2</title>
<g id="a_node2"><a xlink:href="../../d8/d1e/classslogo_1_1backend_1_1test_1_1_grammar_rule_test.html#ac674e9c59c632f0a3d35932301f10d71" target="_top" xlink:title="slogo.backend.test.Grammar\lRuleTest.testDoTimes">
<polygon fill="white" stroke="black" points="212.5,-147 212.5,-177 369.5,-177 369.5,-147 212.5,-147"/>
<text text-anchor="start" x="220.5" y="-165" font-family="Helvetica,sans-Serif" font-size="10.00">slogo.backend.test.Grammar</text>
<text text-anchor="middle" x="291" y="-154" font-family="Helvetica,sans-Serif" font-size="10.00">RuleTest.testDoTimes</text>
</a>
</g>
</g>
<!-- Node1&#45;&gt;Node2 -->
<g id="edge1" class="edge"><title>Node1&#45;&gt;Node2</title>
<path fill="none" stroke="midnightblue" d="M134.349,-106.933C157.449,-116.355 186.065,-127.691 212,-137 221.369,-140.363 231.446,-143.756 241.144,-146.911"/>
<polygon fill="midnightblue" stroke="midnightblue" points="135.391,-103.578 124.811,-103.023 132.736,-110.055 135.391,-103.578"/>
</g>
<!-- Node3 -->
<g id="node3" class="node"><title>Node3</title>
<g id="a_node3"><a xlink:href="../../d6/df5/classslogo_1_1backend_1_1test_1_1_parsing_test.html#a6ffd9dd9c620839cc44b5454ec7bd79c" target="_top" xlink:title="slogo.backend.test.Parsing\lTest.testGrammarRule">
<polygon fill="white" stroke="black" points="218.5,-98 218.5,-128 363.5,-128 363.5,-98 218.5,-98"/>
<text text-anchor="start" x="226.5" y="-116" font-family="Helvetica,sans-Serif" font-size="10.00">slogo.backend.test.Parsing</text>
<text text-anchor="middle" x="291" y="-105" font-family="Helvetica,sans-Serif" font-size="10.00">Test.testGrammarRule</text>
</a>
</g>
</g>
<!-- Node1&#45;&gt;Node3 -->
<g id="edge2" class="edge"><title>Node1&#45;&gt;Node3</title>
<path fill="none" stroke="midnightblue" d="M186.236,-100.094C197.103,-101.446 208.021,-102.804 218.481,-104.105"/>
<polygon fill="midnightblue" stroke="midnightblue" points="186.64,-96.6174 176.285,-98.8563 185.776,-103.564 186.64,-96.6174"/>
</g>
<!-- Node4 -->
<g id="node4" class="node"><title>Node4</title>
<g id="a_node4"><a xlink:href="../../d8/d1e/classslogo_1_1backend_1_1test_1_1_grammar_rule_test.html#a0c50759df4ea5e93675fd070d1327175" target="_top" xlink:title="slogo.backend.test.Grammar\lRuleTest.testMatches">
<polygon fill="white" stroke="black" points="212.5,-49 212.5,-79 369.5,-79 369.5,-49 212.5,-49"/>
<text text-anchor="start" x="220.5" y="-67" font-family="Helvetica,sans-Serif" font-size="10.00">slogo.backend.test.Grammar</text>
<text text-anchor="middle" x="291" y="-56" font-family="Helvetica,sans-Serif" font-size="10.00">RuleTest.testMatches</text>
</a>
</g>
</g>
<!-- Node1&#45;&gt;Node4 -->
<g id="edge3" class="edge"><title>Node1&#45;&gt;Node4</title>
<path fill="none" stroke="midnightblue" d="M186.431,-76.3665C195.099,-75.3315 203.798,-74.2928 212.268,-73.2814"/>
<polygon fill="midnightblue" stroke="midnightblue" points="185.799,-72.9169 176.285,-77.578 186.629,-79.8676 185.799,-72.9169"/>
</g>
<!-- Node5 -->
<g id="node5" class="node"><title>Node5</title>
<g id="a_node5"><a xlink:href="../../d8/d1e/classslogo_1_1backend_1_1test_1_1_grammar_rule_test.html#a45963f1529157013bb40f6434f7ed14e" target="_top" xlink:title="slogo.backend.test.Grammar\lRuleTest.testMultiMatches">
<polygon fill="white" stroke="black" points="212.5,-0 212.5,-30 369.5,-30 369.5,-0 212.5,-0"/>
<text text-anchor="start" x="220.5" y="-18" font-family="Helvetica,sans-Serif" font-size="10.00">slogo.backend.test.Grammar</text>
<text text-anchor="middle" x="291" y="-7" font-family="Helvetica,sans-Serif" font-size="10.00">RuleTest.testMultiMatches</text>
</a>
</g>
</g>
<!-- Node1&#45;&gt;Node5 -->
<g id="edge4" class="edge"><title>Node1&#45;&gt;Node5</title>
<path fill="none" stroke="midnightblue" d="M135.398,-69.1107C158.326,-59.9772 186.483,-49.0585 212,-40 221.515,-36.6224 231.751,-33.1953 241.578,-30.0059"/>
<polygon fill="midnightblue" stroke="midnightblue" points="133.899,-65.9406 125.915,-72.9052 136.5,-72.4397 133.899,-65.9406"/>
</g>
</g>
</svg>
