<?xml version="1.0" encoding="UTF-8" standalone="no"?>
<!DOCTYPE svg PUBLIC "-//W3C//DTD SVG 1.1//EN"
 "http://www.w3.org/Graphics/SVG/1.1/DTD/svg11.dtd">
<!-- Generated by graphviz version 2.36.0 (20140111.2315)
 -->
<!-- Title: slogo.UI.ListViewPreviousCommands Pages: 1 -->
<svg width="273pt" height="234pt"
 viewBox="0.00 0.00 273.00 234.00" xmlns="http://www.w3.org/2000/svg" xmlns:xlink="http://www.w3.org/1999/xlink">
<g id="graph0" class="graph" transform="scale(1 1) rotate(0) translate(4 230)">
<title>slogo.UI.ListViewPreviousCommands</title>
<polygon fill="white" stroke="none" points="-4,4 -4,-230 269,-230 269,4 -4,4"/>
<!-- Node1 -->
<g id="node1" class="node"><title>Node1</title>
<polygon fill="#bfbfbf" stroke="black" points="51.5,-1 51.5,-31 188.5,-31 188.5,-1 51.5,-1"/>
<text text-anchor="start" x="59.5" y="-19" font-family="Helvetica,sans-Serif" font-size="10.00">slogo.UI.ListViewPrevious</text>
<text text-anchor="middle" x="120" y="-8" font-family="Helvetica,sans-Serif" font-size="10.00">Commands</text>
</g>
<!-- Node2 -->
<g id="node2" class="node"><title>Node2</title>
<g id="a_node2"><a xlink:href="../../db/dc0/classslogo_1_1_u_i_1_1_list_view_all_s_l_o_g_o.html" target="_top" xlink:title="slogo.UI.ListViewAllSLOGO">
<polygon fill="white" stroke="black" points="49,-70.5 49,-89.5 191,-89.5 191,-70.5 49,-70.5"/>
<text text-anchor="middle" x="120" y="-77.5" font-family="Helvetica,sans-Serif" font-size="10.00">slogo.UI.ListViewAllSLOGO</text>
</a>
</g>
</g>
<!-- Node2&#45;&gt;Node1 -->
<g id="edge1" class="edge"><title>Node2&#45;&gt;Node1</title>
<path fill="none" stroke="midnightblue" d="M120,-60.1826C120,-50.8859 120,-39.8507 120,-31.263"/>
<polygon fill="midnightblue" stroke="midnightblue" points="116.5,-60.3791 120,-70.3792 123.5,-60.3792 116.5,-60.3791"/>
</g>
<!-- Node3 -->
<g id="node3" class="node"><title>Node3</title>
<polygon fill="white" stroke="#bfbfbf" points="-0.5,-138.5 -0.5,-157.5 40.5,-157.5 40.5,-138.5 -0.5,-138.5"/>
<text text-anchor="middle" x="20" y="-145.5" font-family="Helvetica,sans-Serif" font-size="10.00">VBox</text>
</g>
<!-- Node3&#45;&gt;Node2 -->
<g id="edge2" class="edge"><title>Node3&#45;&gt;Node2</title>
<path fill="none" stroke="#9a32cd" stroke-dasharray="5,2" d="M41.4981,-132.811C61.3844,-119.686 90.3024,-100.6 106.924,-89.6305"/>
<polygon fill="#9a32cd" stroke="#9a32cd" points="39.4914,-129.942 33.0733,-138.372 43.3473,-135.784 39.4914,-129.942"/>
<text text-anchor="middle" x="92.5" y="-111.5" font-family="Helvetica,sans-Serif" font-size="10.00"> vBox</text>
</g>
<!-- Node4 -->
<g id="node4" class="node"><title>Node4</title>
<g id="a_node4"><a xlink:href="../../da/d8f/classslogo_1_1_u_i_1_1_list_view_creator.html" target="_top" xlink:title="slogo.UI.ListViewCreator">
<polygon fill="white" stroke="black" points="59,-138.5 59,-157.5 191,-157.5 191,-138.5 59,-138.5"/>
<text text-anchor="middle" x="125" y="-145.5" font-family="Helvetica,sans-Serif" font-size="10.00">slogo.UI.ListViewCreator</text>
</a>
</g>
</g>
<!-- Node4&#45;&gt;Node2 -->
<g id="edge3" class="edge"><title>Node4&#45;&gt;Node2</title>
<path fill="none" stroke="#9a32cd" stroke-dasharray="5,2" d="M121.871,-127.859C121.526,-125.225 121.221,-122.549 121,-120 120.1,-109.608 119.921,-97.6059 119.921,-89.6912"/>
<polygon fill="#9a32cd" stroke="#9a32cd" points="118.452,-128.66 123.392,-138.032 125.375,-127.624 118.452,-128.66"/>
<text text-anchor="middle" x="167.5" y="-111.5" font-family="Helvetica,sans-Serif" font-size="10.00"> myListViewCreator</text>
</g>
<!-- Node5 -->
<g id="node5" class="node"><title>Node5</title>
<polygon fill="white" stroke="#bfbfbf" points="72,-206.5 72,-225.5 178,-225.5 178,-206.5 72,-206.5"/>
<text text-anchor="middle" x="125" y="-213.5" font-family="Helvetica,sans-Serif" font-size="10.00">ListView&lt; String &gt;</text>
</g>
<!-- Node5&#45;&gt;Node4 -->
<g id="edge4" class="edge"><title>Node5&#45;&gt;Node4</title>
<path fill="none" stroke="#9a32cd" stroke-dasharray="5,2" d="M125,-196.041C125,-183.472 125,-167.563 125,-157.841"/>
<polygon fill="#9a32cd" stroke="#9a32cd" points="121.5,-196.372 125,-206.372 128.5,-196.372 121.5,-196.372"/>
<text text-anchor="middle" x="153.5" y="-179.5" font-family="Helvetica,sans-Serif" font-size="10.00"> myListView</text>
</g>
<!-- Node6 -->
<g id="node6" class="node"><title>Node6</title>
<polygon fill="white" stroke="#bfbfbf" points="213,-138.5 213,-157.5 259,-157.5 259,-138.5 213,-138.5"/>
<text text-anchor="middle" x="236" y="-145.5" font-family="Helvetica,sans-Serif" font-size="10.00">Group</text>
</g>
<!-- Node6&#45;&gt;Node2 -->
<g id="edge5" class="edge"><title>Node6&#45;&gt;Node2</title>
<path fill="none" stroke="#9a32cd" stroke-dasharray="5,2" d="M229.375,-128.86C225.841,-121.445 220.795,-113.366 214,-108 203.073,-99.3709 189.502,-93.4997 176.102,-89.5048"/>
<polygon fill="#9a32cd" stroke="#9a32cd" points="226.206,-130.354 233.277,-138.244 232.669,-127.666 226.206,-130.354"/>
<text text-anchor="middle" x="245" y="-111.5" font-family="Helvetica,sans-Serif" font-size="10.00"> myRoot</text>
</g>
</g>
</svg>
