<?xml version="1.0" encoding="UTF-8" standalone="no"?>
<!DOCTYPE svg PUBLIC "-//W3C//DTD SVG 1.1//EN"
 "http://www.w3.org/Graphics/SVG/1.1/DTD/svg11.dtd">
<!-- Generated by graphviz version 2.36.0 (20140111.2315)
 -->
<!-- Title: slogo.UI.CheckBoxCreator.createCheckBox Pages: 1 -->
<svg width="1736pt" height="162pt"
 viewBox="0.00 0.00 1736.00 162.00" xmlns="http://www.w3.org/2000/svg" xmlns:xlink="http://www.w3.org/1999/xlink">
<g id="graph0" class="graph" transform="scale(1 1) rotate(0) translate(4 158)">
<title>slogo.UI.CheckBoxCreator.createCheckBox</title>
<polygon fill="white" stroke="none" points="-4,4 -4,-158 1732,-158 1732,4 -4,4"/>
<!-- Node1 -->
<g id="node1" class="node"><title>Node1</title>
<polygon fill="#bfbfbf" stroke="black" points="0,-44 0,-74 174,-74 174,-44 0,-44"/>
<text text-anchor="start" x="8" y="-62" font-family="Helvetica,sans-Serif" font-size="10.00">slogo.UI.CheckBoxCreator.create</text>
<text text-anchor="middle" x="87" y="-51" font-family="Helvetica,sans-Serif" font-size="10.00">CheckBox</text>
</g>
<!-- Node2 -->
<g id="node2" class="node"><title>Node2</title>
<g id="a_node2"><a xlink:href="../../db/d19/classslogo_1_1_u_i_1_1_module_creation_helper.html#afeaf6871695e05fe4c4756dc94f61e03" target="_top" xlink:title="slogo.UI.ModuleCreationHelper.create\lDebugButton">
<polygon fill="white" stroke="black" points="210.5,-89 210.5,-119 407.5,-119 407.5,-89 210.5,-89"/>
<text text-anchor="start" x="218.5" y="-107" font-family="Helvetica,sans-Serif" font-size="10.00">slogo.UI.ModuleCreationHelper.create</text>
<text text-anchor="middle" x="309" y="-96" font-family="Helvetica,sans-Serif" font-size="10.00">DebugButton</text>
</a>
</g>
</g>
<!-- Node1&#45;&gt;Node2 -->
<g id="edge1" class="edge"><title>Node1&#45;&gt;Node2</title>
<path fill="none" stroke="midnightblue" d="M171.604,-76.1008C192.304,-80.3349 214.33,-84.8401 234.507,-88.9673"/>
<polygon fill="midnightblue" stroke="midnightblue" points="172.061,-72.6219 161.563,-74.0469 170.658,-79.48 172.061,-72.6219"/>
</g>
<!-- Node9 -->
<g id="node9" class="node"><title>Node9</title>
<g id="a_node9"><a xlink:href="../../db/d19/classslogo_1_1_u_i_1_1_module_creation_helper.html#adae20b1c5c7e8547cab8bf2ddbdd6039" target="_top" xlink:title="slogo.UI.ModuleCreationHelper.create\lLabelsCheckBox">
<polygon fill="white" stroke="black" points="444.5,-42 444.5,-72 641.5,-72 641.5,-42 444.5,-42"/>
<text text-anchor="start" x="452.5" y="-60" font-family="Helvetica,sans-Serif" font-size="10.00">slogo.UI.ModuleCreationHelper.create</text>
<text text-anchor="middle" x="543" y="-49" font-family="Helvetica,sans-Serif" font-size="10.00">LabelsCheckBox</text>
</a>
</g>
</g>
<!-- Node1&#45;&gt;Node9 -->
<g id="edge9" class="edge"><title>Node1&#45;&gt;Node9</title>
<path fill="none" stroke="midnightblue" d="M184.316,-58.5757C260.849,-58.2386 367.437,-57.769 444.323,-57.4303"/>
<polygon fill="midnightblue" stroke="midnightblue" points="184.179,-55.0762 174.195,-58.6203 184.21,-62.0761 184.179,-55.0762"/>
</g>
<!-- Node10 -->
<g id="node10" class="node"><title>Node10</title>
<g id="a_node10"><a xlink:href="../../de/d15/classslogo_1_1_u_i_1_1_grid_lines_toggler.html#a549f2284355a60d6d3e7565859a9cdce" target="_top" xlink:title="slogo.UI.GridLinesToggler.\lGridLinesToggler">
<polygon fill="white" stroke="black" points="240,-0 240,-30 378,-30 378,-0 240,-0"/>
<text text-anchor="start" x="248" y="-18" font-family="Helvetica,sans-Serif" font-size="10.00">slogo.UI.GridLinesToggler.</text>
<text text-anchor="middle" x="309" y="-7" font-family="Helvetica,sans-Serif" font-size="10.00">GridLinesToggler</text>
</a>
</g>
</g>
<!-- Node1&#45;&gt;Node10 -->
<g id="edge11" class="edge"><title>Node1&#45;&gt;Node10</title>
<path fill="none" stroke="midnightblue" d="M173.143,-41.9715C195.255,-37.5491 218.781,-32.8439 239.888,-28.6224"/>
<polygon fill="midnightblue" stroke="midnightblue" points="172.216,-38.5875 163.096,-43.9808 173.588,-45.4516 172.216,-38.5875"/>
</g>
<!-- Node3 -->
<g id="node3" class="node"><title>Node3</title>
<g id="a_node3"><a xlink:href="../../db/d19/classslogo_1_1_u_i_1_1_module_creation_helper.html#a975af4ea47dc85df72215bdf1a0d20ce" target="_top" xlink:title="slogo.UI.ModuleCreationHelper.create\lDebugModules">
<polygon fill="white" stroke="black" points="444.5,-91 444.5,-121 641.5,-121 641.5,-91 444.5,-91"/>
<text text-anchor="start" x="452.5" y="-109" font-family="Helvetica,sans-Serif" font-size="10.00">slogo.UI.ModuleCreationHelper.create</text>
<text text-anchor="middle" x="543" y="-98" font-family="Helvetica,sans-Serif" font-size="10.00">DebugModules</text>
</a>
</g>
</g>
<!-- Node2&#45;&gt;Node3 -->
<g id="edge2" class="edge"><title>Node2&#45;&gt;Node3</title>
<path fill="none" stroke="midnightblue" d="M417.722,-104.929C426.618,-105.005 435.58,-105.083 444.396,-105.159"/>
<polygon fill="midnightblue" stroke="midnightblue" points="417.746,-101.429 407.716,-104.842 417.686,-108.429 417.746,-101.429"/>
</g>
<!-- Node4 -->
<g id="node4" class="node"><title>Node4</title>
<g id="a_node4"><a xlink:href="../../db/d19/classslogo_1_1_u_i_1_1_module_creation_helper.html#afb9dbbbad7d872234a5b296fe129a34e" target="_top" xlink:title="slogo.UI.ModuleCreationHelper.create\lMainPageModules">
<polygon fill="white" stroke="black" points="678.5,-91 678.5,-121 875.5,-121 875.5,-91 678.5,-91"/>
<text text-anchor="start" x="686.5" y="-109" font-family="Helvetica,sans-Serif" font-size="10.00">slogo.UI.ModuleCreationHelper.create</text>
<text text-anchor="middle" x="777" y="-98" font-family="Helvetica,sans-Serif" font-size="10.00">MainPageModules</text>
</a>
</g>
</g>
<!-- Node3&#45;&gt;Node4 -->
<g id="edge3" class="edge"><title>Node3&#45;&gt;Node4</title>
<path fill="none" stroke="midnightblue" d="M651.722,-106C660.618,-106 669.58,-106 678.396,-106"/>
<polygon fill="midnightblue" stroke="midnightblue" points="651.717,-102.5 641.716,-106 651.716,-109.5 651.717,-102.5"/>
</g>
<!-- Node5 -->
<g id="node5" class="node"><title>Node5</title>
<g id="a_node5"><a xlink:href="../../d9/d33/classslogo_1_1_u_i_1_1_main.html#a15b7f2e399ee24d160550993ab737e73" target="_top" xlink:title="slogo.UI.Main.start">
<polygon fill="white" stroke="black" points="912,-126.5 912,-145.5 1018,-145.5 1018,-126.5 912,-126.5"/>
<text text-anchor="middle" x="965" y="-133.5" font-family="Helvetica,sans-Serif" font-size="10.00">slogo.UI.Main.start</text>
</a>
</g>
</g>
<!-- Node4&#45;&gt;Node5 -->
<g id="edge4" class="edge"><title>Node4&#45;&gt;Node5</title>
<path fill="none" stroke="midnightblue" d="M881.395,-122.677C891.915,-124.373 902.254,-126.041 911.867,-127.591"/>
<polygon fill="midnightblue" stroke="midnightblue" points="881.702,-119.181 871.272,-121.044 880.588,-126.092 881.702,-119.181"/>
</g>
<!-- Node6 -->
<g id="node6" class="node"><title>Node6</title>
<g id="a_node6"><a xlink:href="../../db/d19/classslogo_1_1_u_i_1_1_module_creation_helper.html#a3be12a7cc2b8a219db1e296211a2cb88" target="_top" xlink:title="slogo.UI.ModuleCreationHelper.activate\lExtraWorkspaceButton">
<polygon fill="white" stroke="black" points="1054.5,-124 1054.5,-154 1259.5,-154 1259.5,-124 1054.5,-124"/>
<text text-anchor="start" x="1062.5" y="-142" font-family="Helvetica,sans-Serif" font-size="10.00">slogo.UI.ModuleCreationHelper.activate</text>
<text text-anchor="middle" x="1157" y="-131" font-family="Helvetica,sans-Serif" font-size="10.00">ExtraWorkspaceButton</text>
</a>
</g>
</g>
<!-- Node5&#45;&gt;Node6 -->
<g id="edge5" class="edge"><title>Node5&#45;&gt;Node6</title>
<path fill="none" stroke="midnightblue" d="M1028.22,-136.982C1036.63,-137.115 1045.44,-137.254 1054.32,-137.395"/>
<polygon fill="midnightblue" stroke="midnightblue" points="1028.22,-133.482 1018.17,-136.824 1028.11,-140.481 1028.22,-133.482"/>
</g>
<!-- Node7 -->
<g id="node7" class="node"><title>Node7</title>
<g id="a_node7"><a xlink:href="../../db/d19/classslogo_1_1_u_i_1_1_module_creation_helper.html#a702c1ebe24d2857a10c666eb1fcc315d" target="_top" xlink:title="slogo.UI.ModuleCreationHelper.create\lExtraWorkspaceButton">
<polygon fill="white" stroke="black" points="1296.5,-124 1296.5,-154 1493.5,-154 1493.5,-124 1296.5,-124"/>
<text text-anchor="start" x="1304.5" y="-142" font-family="Helvetica,sans-Serif" font-size="10.00">slogo.UI.ModuleCreationHelper.create</text>
<text text-anchor="middle" x="1395" y="-131" font-family="Helvetica,sans-Serif" font-size="10.00">ExtraWorkspaceButton</text>
</a>
</g>
</g>
<!-- Node6&#45;&gt;Node7 -->
<g id="edge6" class="edge"><title>Node6&#45;&gt;Node7</title>
<path fill="none" stroke="midnightblue" d="M1270.05,-139C1278.81,-139 1287.62,-139 1296.27,-139"/>
<polygon fill="midnightblue" stroke="midnightblue" points="1269.8,-135.5 1259.8,-139 1269.8,-142.5 1269.8,-135.5"/>
</g>
<!-- Node8 -->
<g id="node8" class="node"><title>Node8</title>
<g id="a_node8"><a xlink:href="../../db/d19/classslogo_1_1_u_i_1_1_module_creation_helper.html#a7c650957b2389d6e6d36e8be8a33cd2b" target="_top" xlink:title="slogo.UI.ModuleCreationHelper.create\lSelectorVBoxModules">
<polygon fill="white" stroke="black" points="1530.5,-80 1530.5,-110 1727.5,-110 1727.5,-80 1530.5,-80"/>
<text text-anchor="start" x="1538.5" y="-98" font-family="Helvetica,sans-Serif" font-size="10.00">slogo.UI.ModuleCreationHelper.create</text>
<text text-anchor="middle" x="1629" y="-87" font-family="Helvetica,sans-Serif" font-size="10.00">SelectorVBoxModules</text>
</a>
</g>
</g>
<!-- Node7&#45;&gt;Node8 -->
<g id="edge7" class="edge"><title>Node7&#45;&gt;Node8</title>
<path fill="none" stroke="midnightblue" d="M1485.05,-122.11C1506.03,-118.132 1528.26,-113.917 1548.77,-110.026"/>
<polygon fill="midnightblue" stroke="midnightblue" points="1484.37,-118.679 1475.19,-123.981 1485.67,-125.556 1484.37,-118.679"/>
</g>
<!-- Node8&#45;&gt;Node4 -->
<g id="edge8" class="edge"><title>Node8&#45;&gt;Node4</title>
<path fill="none" stroke="midnightblue" d="M1520.05,-96.3969C1353.32,-98.5547 1035.68,-102.665 875.506,-104.738"/>
<polygon fill="midnightblue" stroke="midnightblue" points="1520.37,-99.8932 1530.33,-96.264 1520.28,-92.8938 1520.37,-99.8932"/>
</g>
<!-- Node9&#45;&gt;Node8 -->
<g id="edge10" class="edge"><title>Node9&#45;&gt;Node8</title>
<path fill="none" stroke="midnightblue" d="M651.758,-57C736.601,-57 857.846,-57 964,-57 964,-57 964,-57 1158,-57 1286.93,-57 1435.12,-71.3835 1530.07,-82.4521"/>
<polygon fill="midnightblue" stroke="midnightblue" points="651.596,-53.5001 641.596,-57 651.596,-60.5001 651.596,-53.5001"/>
</g>
</g>
</svg>
