<?xml version="1.0" encoding="UTF-8" standalone="no"?>
<!DOCTYPE svg PUBLIC "-//W3C//DTD SVG 1.1//EN"
 "http://www.w3.org/Graphics/SVG/1.1/DTD/svg11.dtd">
<!-- Generated by graphviz version 2.36.0 (20140111.2315)
 -->
<!-- Title: slogo.backend.impl.Backend Pages: 1 -->
<!--zoomable 273 -->
<svg id="main" version="1.1" xmlns="http://www.w3.org/2000/svg" xmlns:xlink="http://www.w3.org/1999/xlink" xml:space="preserve" onload="init(evt)">
<style type="text/css"><![CDATA[
.edge:hover path { stroke: red; }
.edge:hover polygon { stroke: red; fill: red; }
]]></style>
<script type="text/javascript"><![CDATA[
var edges = document.getElementsByTagName('g');
if (edges && edges.length) {
  for (var i=0;i<edges.length;i++) {
    if (edges[i].id.substr(0,4)=='edge') {
      edges[i].setAttribute('class','edge');
    }
  }
}
]]></script>
        <defs>
                <circle id="rim" cx="0" cy="0" r="7"/>
                <circle id="rim2" cx="0" cy="0" r="3.5"/>
                <g id="zoomPlus">
                        <use xlink:href="#rim" fill="#404040">
                                <set attributeName="fill" to="#808080" begin="zoomplus.mouseover" end="zoomplus.mouseout"/>
                        </use>
                        <path d="M-4,0h8M0,-4v8" fill="none" stroke="white" stroke-width="1.5" pointer-events="none"/>
                </g>
                <g id="zoomMin">
                        <use xlink:href="#rim" fill="#404040">
                                <set attributeName="fill" to="#808080" begin="zoomminus.mouseover" end="zoomminus.mouseout"/>
                        </use>
                        <path d="M-4,0h8" fill="none" stroke="white" stroke-width="1.5" pointer-events="none"/>
                </g>
                <g id="dirArrow">
                        <path fill="none" stroke="white" stroke-width="1.5" d="M0,-3.0v7 M-2.5,-0.5L0,-3.0L2.5,-0.5"/>
                </g>
               <g id="resetDef">
                       <use xlink:href="#rim2" fill="#404040">
                               <set attributeName="fill" to="#808080" begin="reset.mouseover" end="reset.mouseout"/>
                       </use>
               </g>
        </defs>

<script type="text/javascript">
var viewWidth = 728;
var viewHeight = 273;
var sectionId = 'dynsection-1';
</script>
<script xlink:href="../../svgpan.js"/>
<svg id="graph" class="graph">
<g id="viewport">
<title>slogo.backend.impl.Backend</title>
<polygon fill="white" stroke="none" points="-4,4 -4,-269 724,-269 724,4 -4,4"/>
<!-- Node1 -->
<g id="node1" class="node"><title>Node1</title>
<polygon fill="#bfbfbf" stroke="black" points="566.5,-127.5 566.5,-146.5 719.5,-146.5 719.5,-127.5 566.5,-127.5"/>
<text text-anchor="middle" x="643" y="-134.5" font-family="Helvetica,sans-Serif" font-size="10.00">slogo.backend.impl.Backend</text>
</g>
<!-- Node2 -->
<g id="node2" class="node"><title>Node2</title>
<g id="a_node2"><a xlink:href="../../d6/d69/interfaceslogo_1_1_i_model.html" target="_top" xlink:title="slogo.IModel">
<polygon fill="white" stroke="black" points="347,-220.5 347,-239.5 423,-239.5 423,-220.5 347,-220.5"/>
<text text-anchor="middle" x="385" y="-227.5" font-family="Helvetica,sans-Serif" font-size="10.00">slogo.IModel</text>
</a>
</g>
</g>
<!-- Node2&#45;&gt;Node1 -->
<g id="edge1" class="edge"><title>Node2&#45;&gt;Node1</title>
<path fill="none" stroke="midnightblue" d="M433.075,-220.269C445.801,-217.309 459.507,-213.817 472,-210 528.829,-192.638 592.302,-162.246 623.138,-146.724"/>
<polygon fill="midnightblue" stroke="midnightblue" points="432.1,-216.901 423.121,-222.526 433.647,-223.728 432.1,-216.901"/>
</g>
<!-- Node3 -->
<g id="node3" class="node"><title>Node3</title>
<g id="a_node3"><a xlink:href="../../dd/d4b/classslogo_1_1backend_1_1impl_1_1evaluation_1_1_evaluator.html" target="_top" xlink:title="slogo.backend.impl.evaluation.\lEvaluator">
<polygon fill="white" stroke="black" points="303,-171 303,-201 467,-201 467,-171 303,-171"/>
<text text-anchor="start" x="311" y="-189" font-family="Helvetica,sans-Serif" font-size="10.00">slogo.backend.impl.evaluation.</text>
<text text-anchor="middle" x="385" y="-178" font-family="Helvetica,sans-Serif" font-size="10.00">Evaluator</text>
</a>
</g>
</g>
<!-- Node3&#45;&gt;Node1 -->
<g id="edge2" class="edge"><title>Node3&#45;&gt;Node1</title>
<path fill="none" stroke="#9a32cd" stroke-dasharray="5,2" d="M474.437,-169.073C513.845,-161.53 558.802,-152.925 592.221,-146.528"/>
<polygon fill="#9a32cd" stroke="#9a32cd" points="473.712,-165.648 464.548,-170.965 475.028,-172.523 473.712,-165.648"/>
<text text-anchor="middle" x="519" y="-169" font-family="Helvetica,sans-Serif" font-size="10.00"> evaluator</text>
</g>
<!-- Node4 -->
<g id="node4" class="node"><title>Node4</title>
<g id="a_node4"><a xlink:href="../../d1/dd9/interfaceslogo_1_1backend_1_1evaluation_1_1_i_evaluator.html" target="_top" xlink:title="slogo.backend.evaluation.\lIEvaluator">
<polygon fill="white" stroke="black" points="18.5,-235 18.5,-265 159.5,-265 159.5,-235 18.5,-235"/>
<text text-anchor="start" x="26.5" y="-253" font-family="Helvetica,sans-Serif" font-size="10.00">slogo.backend.evaluation.</text>
<text text-anchor="middle" x="89" y="-242" font-family="Helvetica,sans-Serif" font-size="10.00">IEvaluator</text>
</a>
</g>
</g>
<!-- Node4&#45;&gt;Node3 -->
<g id="edge3" class="edge"><title>Node4&#45;&gt;Node3</title>
<path fill="none" stroke="midnightblue" d="M169.804,-242.922C204.263,-238.46 244.688,-231.316 280,-220 288.518,-217.27 289.672,-214.262 298,-211 307.121,-207.428 316.961,-204.1 326.614,-201.112"/>
<polygon fill="midnightblue" stroke="midnightblue" points="169.277,-239.46 159.784,-244.166 170.139,-246.407 169.277,-239.46"/>
</g>
<!-- Node5 -->
<g id="node5" class="node"><title>Node5</title>
<g id="a_node5"><a xlink:href="../../d3/df5/classslogo_1_1backend_1_1impl_1_1parsing_1_1_parser.html" target="_top" xlink:title="slogo.backend.impl.parsing.\lParser">
<polygon fill="white" stroke="black" points="310,-122 310,-152 460,-152 460,-122 310,-122"/>
<text text-anchor="start" x="318" y="-140" font-family="Helvetica,sans-Serif" font-size="10.00">slogo.backend.impl.parsing.</text>
<text text-anchor="middle" x="385" y="-129" font-family="Helvetica,sans-Serif" font-size="10.00">Parser</text>
</a>
</g>
</g>
<!-- Node5&#45;&gt;Node1 -->
<g id="edge4" class="edge"><title>Node5&#45;&gt;Node1</title>
<path fill="none" stroke="#9a32cd" stroke-dasharray="5,2" d="M470.387,-137C501.355,-137 536.19,-137 566.344,-137"/>
<polygon fill="#9a32cd" stroke="#9a32cd" points="470.046,-133.5 460.046,-137 470.046,-140.5 470.046,-133.5"/>
<text text-anchor="middle" x="519" y="-140" font-family="Helvetica,sans-Serif" font-size="10.00"> parser</text>
</g>
<!-- Node6 -->
<g id="node6" class="node"><title>Node6</title>
<g id="a_node6"><a xlink:href="../../df/de5/interfaceslogo_1_1backend_1_1parsing_1_1_i_parser.html" target="_top" xlink:title="slogo.backend.parsing.IParser">
<polygon fill="white" stroke="black" points="9.5,-196.5 9.5,-215.5 168.5,-215.5 168.5,-196.5 9.5,-196.5"/>
<text text-anchor="middle" x="89" y="-203.5" font-family="Helvetica,sans-Serif" font-size="10.00">slogo.backend.parsing.IParser</text>
</a>
</g>
</g>
<!-- Node6&#45;&gt;Node5 -->
<g id="edge5" class="edge"><title>Node6&#45;&gt;Node5</title>
<path fill="none" stroke="midnightblue" d="M161.731,-194.687C197.608,-188.265 241.482,-179.249 280,-168 288.239,-165.594 289.856,-163.712 298,-161 307.265,-157.914 317.179,-154.893 326.86,-152.093"/>
<polygon fill="midnightblue" stroke="midnightblue" points="161.077,-191.248 151.835,-196.429 162.291,-198.142 161.077,-191.248"/>
</g>
<!-- Node7 -->
<g id="node7" class="node"><title>Node7</title>
<g id="a_node7"><a xlink:href="../../de/dce/interfaceslogo_1_1backend_1_1evaluation_1_1_i_operation_factory.html" target="_top" xlink:title="slogo.backend.evaluation.\lIOperationFactory">
<polygon fill="white" stroke="black" points="18.5,-147 18.5,-177 159.5,-177 159.5,-147 18.5,-147"/>
<text text-anchor="start" x="26.5" y="-165" font-family="Helvetica,sans-Serif" font-size="10.00">slogo.backend.evaluation.</text>
<text text-anchor="middle" x="89" y="-154" font-family="Helvetica,sans-Serif" font-size="10.00">IOperationFactory</text>
</a>
</g>
</g>
<!-- Node7&#45;&gt;Node5 -->
<g id="edge6" class="edge"><title>Node7&#45;&gt;Node5</title>
<path fill="none" stroke="#9a32cd" stroke-dasharray="5,2" d="M169.689,-155.224C213.376,-151.509 267.178,-146.934 309.946,-143.297"/>
<polygon fill="#9a32cd" stroke="#9a32cd" points="169.341,-151.741 159.674,-156.075 169.935,-158.715 169.341,-151.741"/>
<text text-anchor="middle" x="238" y="-156" font-family="Helvetica,sans-Serif" font-size="10.00"> operationFactory</text>
</g>
<!-- Node8 -->
<g id="node8" class="node"><title>Node8</title>
<polygon fill="white" stroke="#bfbfbf" points="11.5,-98 11.5,-128 166.5,-128 166.5,-98 11.5,-98"/>
<text text-anchor="start" x="19.5" y="-116" font-family="Helvetica,sans-Serif" font-size="10.00">List&lt; slogo.backend.parsing.</text>
<text text-anchor="middle" x="89" y="-105" font-family="Helvetica,sans-Serif" font-size="10.00">IGrammarRule &gt;</text>
</g>
<!-- Node8&#45;&gt;Node5 -->
<g id="edge7" class="edge"><title>Node8&#45;&gt;Node5</title>
<path fill="none" stroke="#9a32cd" stroke-dasharray="5,2" d="M176.864,-120.091C219.138,-123.542 269.429,-127.647 309.87,-130.949"/>
<polygon fill="#9a32cd" stroke="#9a32cd" points="177.113,-116.6 166.861,-119.274 176.543,-123.576 177.113,-116.6"/>
<text text-anchor="middle" x="238" y="-131" font-family="Helvetica,sans-Serif" font-size="10.00"> rules</text>
</g>
<!-- Node9 -->
<g id="node9" class="node"><title>Node9</title>
<g id="a_node9"><a xlink:href="../../d8/db6/classslogo_1_1backend_1_1impl_1_1tokenization_1_1_tokenizer.html" target="_top" xlink:title="slogo.backend.impl.tokenization.\lTokenizer">
<polygon fill="white" stroke="black" points="298.5,-73 298.5,-103 471.5,-103 471.5,-73 298.5,-73"/>
<text text-anchor="start" x="306.5" y="-91" font-family="Helvetica,sans-Serif" font-size="10.00">slogo.backend.impl.tokenization.</text>
<text text-anchor="middle" x="385" y="-80" font-family="Helvetica,sans-Serif" font-size="10.00">Tokenizer</text>
</a>
</g>
</g>
<!-- Node9&#45;&gt;Node1 -->
<g id="edge8" class="edge"><title>Node9&#45;&gt;Node1</title>
<path fill="none" stroke="#9a32cd" stroke-dasharray="5,2" d="M474.437,-104.927C513.845,-112.47 558.802,-121.075 592.221,-127.472"/>
<polygon fill="#9a32cd" stroke="#9a32cd" points="475.028,-101.477 464.548,-103.035 473.712,-108.352 475.028,-101.477"/>
<text text-anchor="middle" x="519" y="-122" font-family="Helvetica,sans-Serif" font-size="10.00"> tokenizer</text>
</g>
<!-- Node10 -->
<g id="node10" class="node"><title>Node10</title>
<g id="a_node10"><a xlink:href="../../d4/de2/interfaceslogo_1_1backend_1_1tokenization_1_1_i_tokenizer.html" target="_top" xlink:title="slogo.backend.tokenization.\lITokenizer">
<polygon fill="white" stroke="black" points="14,-49 14,-79 164,-79 164,-49 14,-49"/>
<text text-anchor="start" x="22" y="-67" font-family="Helvetica,sans-Serif" font-size="10.00">slogo.backend.tokenization.</text>
<text text-anchor="middle" x="89" y="-56" font-family="Helvetica,sans-Serif" font-size="10.00">ITokenizer</text>
</a>
</g>
</g>
<!-- Node10&#45;&gt;Node9 -->
<g id="edge9" class="edge"><title>Node10&#45;&gt;Node9</title>
<path fill="none" stroke="midnightblue" d="M174.428,-70.8921C213.301,-74.0654 259.351,-77.8246 298.37,-81.0098"/>
<polygon fill="midnightblue" stroke="midnightblue" points="174.44,-67.3815 164.189,-70.0562 173.871,-74.3583 174.44,-67.3815"/>
</g>
<!-- Node11 -->
<g id="node11" class="node"><title>Node11</title>
<polygon fill="white" stroke="#bfbfbf" points="0,-0 0,-30 178,-30 178,-0 0,-0"/>
<text text-anchor="start" x="8" y="-18" font-family="Helvetica,sans-Serif" font-size="10.00">List&lt; slogo.backend.tokenization.</text>
<text text-anchor="middle" x="89" y="-7" font-family="Helvetica,sans-Serif" font-size="10.00">ITokenRule &gt;</text>
</g>
<!-- Node11&#45;&gt;Node9 -->
<g id="edge10" class="edge"><title>Node11&#45;&gt;Node9</title>
<path fill="none" stroke="#9a32cd" stroke-dasharray="5,2" d="M168.307,-32.3126C202.664,-40.1201 243.42,-49.6693 280,-59 296.891,-63.3086 315.235,-68.314 331.747,-72.9413"/>
<polygon fill="#9a32cd" stroke="#9a32cd" points="168.856,-28.8484 158.33,-30.0533 167.31,-35.6756 168.856,-28.8484"/>
<text text-anchor="middle" x="238" y="-62" font-family="Helvetica,sans-Serif" font-size="10.00"> rules</text>
</g>
<!-- Node12 -->
<g id="node12" class="node"><title>Node12</title>
<g id="a_node12"><a xlink:href="../../d8/d4b/interfaceslogo_1_1backend_1_1evaluation_1_1_i_execution_context.html" target="_top" xlink:title="slogo.backend.evaluation.\lIExecutionContext">
<polygon fill="white" stroke="black" points="314.5,-24 314.5,-54 455.5,-54 455.5,-24 314.5,-24"/>
<text text-anchor="start" x="322.5" y="-42" font-family="Helvetica,sans-Serif" font-size="10.00">slogo.backend.evaluation.</text>
<text text-anchor="middle" x="385" y="-31" font-family="Helvetica,sans-Serif" font-size="10.00">IExecutionContext</text>
</a>
</g>
</g>
<!-- Node12&#45;&gt;Node1 -->
<g id="edge11" class="edge"><title>Node12&#45;&gt;Node1</title>
<path fill="none" stroke="#9a32cd" stroke-dasharray="5,2" d="M453.51,-57.0404C459.79,-58.9587 466.033,-60.9579 472,-63 528.037,-82.1765 591.343,-112.015 622.52,-127.283"/>
<polygon fill="#9a32cd" stroke="#9a32cd" points="454.228,-53.6022 443.645,-54.0977 452.227,-60.3102 454.228,-53.6022"/>
<text text-anchor="middle" x="519" y="-96" font-family="Helvetica,sans-Serif" font-size="10.00"> lastContext</text>
</g>
</g>
</svg>
        <g id="navigator" transform="translate(0 0)" fill="#404254">
                <rect fill="#f2f5e9" fill-opacity="0.5" stroke="#606060" stroke-width=".5" x="0" y="0" width="60" height="60"/>
                <use id="zoomplus" xlink:href="#zoomPlus" x="17" y="9" onmousedown="handleZoom(evt,'in')"/>
                <use id="zoomminus" xlink:href="#zoomMin" x="42" y="9" onmousedown="handleZoom(evt,'out')"/>
                <use id="reset" xlink:href="#resetDef" x="30" y="36" onmousedown="handleReset()"/>
                <g id="arrowUp" xlink:href="#dirArrow" transform="translate(30 24)" onmousedown="handlePan(0,-1)">
                  <use xlink:href="#rim" fill="#404040">
                        <set attributeName="fill" to="#808080" begin="arrowUp.mouseover" end="arrowUp.mouseout"/>
                  </use>
                  <path fill="none" stroke="white" stroke-width="1.5" d="M0,-3.0v7 M-2.5,-0.5L0,-3.0L2.5,-0.5"/>
                </g>
                <g id="arrowRight" xlink:href="#dirArrow" transform="rotate(90) translate(36 -43)" onmousedown="handlePan(1,0)">
                  <use xlink:href="#rim" fill="#404040">
                        <set attributeName="fill" to="#808080" begin="arrowRight.mouseover" end="arrowRight.mouseout"/>
                  </use>
                  <path fill="none" stroke="white" stroke-width="1.5" d="M0,-3.0v7 M-2.5,-0.5L0,-3.0L2.5,-0.5"/>
                </g>
                <g id="arrowDown" xlink:href="#dirArrow" transform="rotate(180) translate(-30 -48)" onmousedown="handlePan(0,1)">
                  <use xlink:href="#rim" fill="#404040">
                        <set attributeName="fill" to="#808080" begin="arrowDown.mouseover" end="arrowDown.mouseout"/>
                  </use>
                  <path fill="none" stroke="white" stroke-width="1.5" d="M0,-3.0v7 M-2.5,-0.5L0,-3.0L2.5,-0.5"/>
                </g>
                <g id="arrowLeft" xlink:href="#dirArrow" transform="rotate(270) translate(-36 17)" onmousedown="handlePan(-1,0)">
                  <use xlink:href="#rim" fill="#404040">
                        <set attributeName="fill" to="#808080" begin="arrowLeft.mouseover" end="arrowLeft.mouseout"/>
                  </use>
                  <path fill="none" stroke="white" stroke-width="1.5" d="M0,-3.0v7 M-2.5,-0.5L0,-3.0L2.5,-0.5"/>
                </g>
        </g>
        <svg viewBox="0 0 15 15" width="100%" height="30px" preserveAspectRatio="xMaxYMin meet">
         <g id="arrow_out" transform="scale(0.3 0.3)">
          <a xlink:href="classslogo_1_1backend_1_1impl_1_1_backend__coll__graph_org.svg" target="_base">
           <rect id="button" ry="5" rx="5" y="6" x="6" height="38" width="38"
                fill="#f2f5e9" fill-opacity="0.5" stroke="#606060" stroke-width="1.0"/>
           <path id="arrow"
             d="M 11.500037,31.436501 C 11.940474,20.09759 22.043105,11.32322 32.158766,21.979434 L 37.068811,17.246167 C 37.068811,17.246167 37.088388,32 37.088388,32 L 22.160133,31.978069 C 22.160133,31.978069 26.997745,27.140456 26.997745,27.140456 C 18.528582,18.264221 13.291696,25.230495 11.500037,31.436501 z"
             style="fill:#404040;"/>
          </a>
         </g>
        </svg>
</svg>
