<?xml version="1.0" encoding="UTF-8" standalone="no"?>
<!DOCTYPE svg PUBLIC "-//W3C//DTD SVG 1.1//EN"
 "http://www.w3.org/Graphics/SVG/1.1/DTD/svg11.dtd">
<!-- Generated by graphviz version 2.36.0 (20140111.2315)
 -->
<!-- Title: slogo.UI.TurtleCanvas.getCanvas Pages: 1 -->
<svg width="3146pt" height="526pt"
 viewBox="0.00 0.00 3146.00 526.00" xmlns="http://www.w3.org/2000/svg" xmlns:xlink="http://www.w3.org/1999/xlink">
<g id="graph0" class="graph" transform="scale(1 1) rotate(0) translate(4 522)">
<title>slogo.UI.TurtleCanvas.getCanvas</title>
<polygon fill="white" stroke="none" points="-4,4 -4,-522 3142,-522 3142,4 -4,4"/>
<!-- Node1 -->
<g id="node1" class="node"><title>Node1</title>
<polygon fill="#bfbfbf" stroke="black" points="0.5,-292 0.5,-322 137.5,-322 137.5,-292 0.5,-292"/>
<text text-anchor="start" x="8.5" y="-310" font-family="Helvetica,sans-Serif" font-size="10.00">slogo.UI.TurtleCanvas.get</text>
<text text-anchor="middle" x="69" y="-299" font-family="Helvetica,sans-Serif" font-size="10.00">Canvas</text>
</g>
<!-- Node2 -->
<g id="node2" class="node"><title>Node2</title>
<g id="a_node2"><a xlink:href="../../de/d15/classslogo_1_1_u_i_1_1_grid_lines_toggler.html#a8aa5a690c681e51b543cc77d6fbf144a" target="_top" xlink:title="slogo.UI.GridLinesToggler.activate">
<polygon fill="white" stroke="black" points="177,-297.5 177,-316.5 353,-316.5 353,-297.5 177,-297.5"/>
<text text-anchor="middle" x="265" y="-304.5" font-family="Helvetica,sans-Serif" font-size="10.00">slogo.UI.GridLinesToggler.activate</text>
</a>
</g>
</g>
<!-- Node1&#45;&gt;Node2 -->
<g id="edge1" class="edge"><title>Node1&#45;&gt;Node2</title>
<path fill="none" stroke="midnightblue" d="M147.826,-307C157.38,-307 167.192,-307 176.871,-307"/>
<polygon fill="midnightblue" stroke="midnightblue" points="147.579,-303.5 137.579,-307 147.579,-310.5 147.579,-303.5"/>
</g>
<!-- Node9 -->
<g id="node9" class="node"><title>Node9</title>
<g id="a_node9"><a xlink:href="../../db/d19/classslogo_1_1_u_i_1_1_module_creation_helper.html#a3a38d485562cb17591ec3fd07cffc18a" target="_top" xlink:title="slogo.UI.ModuleCreationHelper.activate\lTurtleCanvas">
<polygon fill="white" stroke="black" points="1370.5,-389 1370.5,-419 1575.5,-419 1575.5,-389 1370.5,-389"/>
<text text-anchor="start" x="1378.5" y="-407" font-family="Helvetica,sans-Serif" font-size="10.00">slogo.UI.ModuleCreationHelper.activate</text>
<text text-anchor="middle" x="1473" y="-396" font-family="Helvetica,sans-Serif" font-size="10.00">TurtleCanvas</text>
</a>
</g>
</g>
<!-- Node1&#45;&gt;Node9 -->
<g id="edge9" class="edge"><title>Node1&#45;&gt;Node9</title>
<path fill="none" stroke="midnightblue" d="M116.128,-325.904C188.657,-353.871 334.374,-403 463,-403 463,-403 463,-403 1056,-403 1163.25,-403 1286.05,-403.336 1370.28,-403.619"/>
<polygon fill="midnightblue" stroke="midnightblue" points="116.977,-322.479 106.389,-322.106 114.434,-329 116.977,-322.479"/>
</g>
<!-- Node11 -->
<g id="node11" class="node"><title>Node11</title>
<g id="a_node11"><a xlink:href="../../db/d19/classslogo_1_1_u_i_1_1_module_creation_helper.html#a08cc5ea6e2ea440ad524d13d6faf0a01" target="_top" xlink:title="slogo.UI.ModuleCreationHelper.get\lCanvas">
<polygon fill="white" stroke="black" points="174,-248 174,-278 356,-278 356,-248 174,-248"/>
<text text-anchor="start" x="182" y="-266" font-family="Helvetica,sans-Serif" font-size="10.00">slogo.UI.ModuleCreationHelper.get</text>
<text text-anchor="middle" x="265" y="-255" font-family="Helvetica,sans-Serif" font-size="10.00">Canvas</text>
</a>
</g>
</g>
<!-- Node1&#45;&gt;Node11 -->
<g id="edge12" class="edge"><title>Node1&#45;&gt;Node11</title>
<path fill="none" stroke="midnightblue" d="M146.138,-289.732C163.187,-285.865 181.138,-281.793 197.748,-278.026"/>
<polygon fill="midnightblue" stroke="midnightblue" points="145.199,-286.356 136.221,-291.981 146.748,-293.182 145.199,-286.356"/>
</g>
<!-- Node3 -->
<g id="node3" class="node"><title>Node3</title>
<g id="a_node3"><a xlink:href="../../db/d19/classslogo_1_1_u_i_1_1_module_creation_helper.html#a55e4573d9ebd85eb1524df94985e19a6" target="_top" xlink:title="slogo.UI.ModuleCreationHelper.create\lGridCheckBox">
<polygon fill="white" stroke="black" points="572.5,-203 572.5,-233 769.5,-233 769.5,-203 572.5,-203"/>
<text text-anchor="start" x="580.5" y="-221" font-family="Helvetica,sans-Serif" font-size="10.00">slogo.UI.ModuleCreationHelper.create</text>
<text text-anchor="middle" x="671" y="-210" font-family="Helvetica,sans-Serif" font-size="10.00">GridCheckBox</text>
</a>
</g>
</g>
<!-- Node2&#45;&gt;Node3 -->
<g id="edge2" class="edge"><title>Node2&#45;&gt;Node3</title>
<path fill="none" stroke="midnightblue" d="M319.077,-295.307C391.616,-279.327 521.796,-250.649 601.581,-233.072"/>
<polygon fill="midnightblue" stroke="midnightblue" points="318.248,-291.906 309.235,-297.475 319.754,-298.742 318.248,-291.906"/>
</g>
<!-- Node4 -->
<g id="node4" class="node"><title>Node4</title>
<g id="a_node4"><a xlink:href="../../db/d19/classslogo_1_1_u_i_1_1_module_creation_helper.html#a7c650957b2389d6e6d36e8be8a33cd2b" target="_top" xlink:title="slogo.UI.ModuleCreationHelper.create\lSelectorVBoxModules">
<polygon fill="white" stroke="black" points="2084.5,-151 2084.5,-181 2281.5,-181 2281.5,-151 2084.5,-151"/>
<text text-anchor="start" x="2092.5" y="-169" font-family="Helvetica,sans-Serif" font-size="10.00">slogo.UI.ModuleCreationHelper.create</text>
<text text-anchor="middle" x="2183" y="-158" font-family="Helvetica,sans-Serif" font-size="10.00">SelectorVBoxModules</text>
</a>
</g>
</g>
<!-- Node3&#45;&gt;Node4 -->
<g id="edge3" class="edge"><title>Node3&#45;&gt;Node4</title>
<path fill="none" stroke="midnightblue" d="M698.713,-196.609C758.536,-150.935 909.398,-48 1054,-48 1054,-48 1054,-48 1712,-48 1859.8,-48 1904.65,-17.7486 2044,-67 2094.87,-84.9811 2143.53,-127.844 2167.15,-150.827"/>
<polygon fill="midnightblue" stroke="midnightblue" points="696.329,-194.028 690.559,-202.914 700.611,-199.566 696.329,-194.028"/>
</g>
<!-- Node5 -->
<g id="node5" class="node"><title>Node5</title>
<g id="a_node5"><a xlink:href="../../db/d19/classslogo_1_1_u_i_1_1_module_creation_helper.html#afb9dbbbad7d872234a5b296fe129a34e" target="_top" xlink:title="slogo.UI.ModuleCreationHelper.create\lMainPageModules">
<polygon fill="white" stroke="black" points="2322.5,-340 2322.5,-370 2519.5,-370 2519.5,-340 2322.5,-340"/>
<text text-anchor="start" x="2330.5" y="-358" font-family="Helvetica,sans-Serif" font-size="10.00">slogo.UI.ModuleCreationHelper.create</text>
<text text-anchor="middle" x="2421" y="-347" font-family="Helvetica,sans-Serif" font-size="10.00">MainPageModules</text>
</a>
</g>
</g>
<!-- Node4&#45;&gt;Node5 -->
<g id="edge4" class="edge"><title>Node4&#45;&gt;Node5</title>
<path fill="none" stroke="midnightblue" d="M2210.73,-187.406C2258.9,-225.981 2359.14,-306.26 2401,-339.781"/>
<polygon fill="midnightblue" stroke="midnightblue" points="2212.91,-184.666 2202.91,-181.147 2208.53,-190.13 2212.91,-184.666"/>
</g>
<!-- Node6 -->
<g id="node6" class="node"><title>Node6</title>
<g id="a_node6"><a xlink:href="../../d9/d33/classslogo_1_1_u_i_1_1_main.html#a15b7f2e399ee24d160550993ab737e73" target="_top" xlink:title="slogo.UI.Main.start">
<polygon fill="white" stroke="black" points="2556,-200.5 2556,-219.5 2662,-219.5 2662,-200.5 2556,-200.5"/>
<text text-anchor="middle" x="2609" y="-207.5" font-family="Helvetica,sans-Serif" font-size="10.00">slogo.UI.Main.start</text>
</a>
</g>
</g>
<!-- Node5&#45;&gt;Node6 -->
<g id="edge5" class="edge"><title>Node5&#45;&gt;Node6</title>
<path fill="none" stroke="midnightblue" d="M2449.49,-333.571C2490.37,-301.699 2565.58,-243.072 2595.37,-219.848"/>
<polygon fill="midnightblue" stroke="midnightblue" points="2447.29,-330.848 2441.55,-339.757 2451.59,-336.369 2447.29,-330.848"/>
</g>
<!-- Node7 -->
<g id="node7" class="node"><title>Node7</title>
<g id="a_node7"><a xlink:href="../../db/d19/classslogo_1_1_u_i_1_1_module_creation_helper.html#a3be12a7cc2b8a219db1e296211a2cb88" target="_top" xlink:title="slogo.UI.ModuleCreationHelper.activate\lExtraWorkspaceButton">
<polygon fill="white" stroke="black" points="2698.5,-195 2698.5,-225 2903.5,-225 2903.5,-195 2698.5,-195"/>
<text text-anchor="start" x="2706.5" y="-213" font-family="Helvetica,sans-Serif" font-size="10.00">slogo.UI.ModuleCreationHelper.activate</text>
<text text-anchor="middle" x="2801" y="-202" font-family="Helvetica,sans-Serif" font-size="10.00">ExtraWorkspaceButton</text>
</a>
</g>
</g>
<!-- Node6&#45;&gt;Node7 -->
<g id="edge6" class="edge"><title>Node6&#45;&gt;Node7</title>
<path fill="none" stroke="midnightblue" d="M2672.22,-210C2680.63,-210 2689.44,-210 2698.32,-210"/>
<polygon fill="midnightblue" stroke="midnightblue" points="2672.17,-206.5 2662.17,-210 2672.17,-213.5 2672.17,-206.5"/>
</g>
<!-- Node8 -->
<g id="node8" class="node"><title>Node8</title>
<g id="a_node8"><a xlink:href="../../db/d19/classslogo_1_1_u_i_1_1_module_creation_helper.html#a702c1ebe24d2857a10c666eb1fcc315d" target="_top" xlink:title="slogo.UI.ModuleCreationHelper.create\lExtraWorkspaceButton">
<polygon fill="white" stroke="black" points="2940.5,-173 2940.5,-203 3137.5,-203 3137.5,-173 2940.5,-173"/>
<text text-anchor="start" x="2948.5" y="-191" font-family="Helvetica,sans-Serif" font-size="10.00">slogo.UI.ModuleCreationHelper.create</text>
<text text-anchor="middle" x="3039" y="-180" font-family="Helvetica,sans-Serif" font-size="10.00">ExtraWorkspaceButton</text>
</a>
</g>
</g>
<!-- Node7&#45;&gt;Node8 -->
<g id="edge7" class="edge"><title>Node7&#45;&gt;Node8</title>
<path fill="none" stroke="midnightblue" d="M2913.77,-199.581C2922.62,-198.756 2931.52,-197.926 2940.27,-197.11"/>
<polygon fill="midnightblue" stroke="midnightblue" points="2913.43,-196.097 2903.8,-200.51 2914.08,-203.067 2913.43,-196.097"/>
</g>
<!-- Node8&#45;&gt;Node4 -->
<g id="edge8" class="edge"><title>Node8&#45;&gt;Node4</title>
<path fill="none" stroke="midnightblue" d="M2930.34,-185.227C2762.9,-180.913 2442.6,-172.662 2281.55,-168.513"/>
<polygon fill="midnightblue" stroke="midnightblue" points="2930.33,-188.727 2940.41,-185.486 2930.51,-181.73 2930.33,-188.727"/>
</g>
<!-- Node10 -->
<g id="node10" class="node"><title>Node10</title>
<g id="a_node10"><a xlink:href="../../db/d19/classslogo_1_1_u_i_1_1_module_creation_helper.html#a803bac6b55bde712b21f2face1eeef81" target="_top" xlink:title="slogo.UI.ModuleCreationHelper.create\lTurtleCanvas">
<polygon fill="white" stroke="black" points="2084.5,-389 2084.5,-419 2281.5,-419 2281.5,-389 2084.5,-389"/>
<text text-anchor="start" x="2092.5" y="-407" font-family="Helvetica,sans-Serif" font-size="10.00">slogo.UI.ModuleCreationHelper.create</text>
<text text-anchor="middle" x="2183" y="-396" font-family="Helvetica,sans-Serif" font-size="10.00">TurtleCanvas</text>
</a>
</g>
</g>
<!-- Node9&#45;&gt;Node10 -->
<g id="edge10" class="edge"><title>Node9&#45;&gt;Node10</title>
<path fill="none" stroke="midnightblue" d="M1585.95,-404C1723.26,-404 1953.81,-404 2084.28,-404"/>
<polygon fill="midnightblue" stroke="midnightblue" points="1585.82,-400.5 1575.82,-404 1585.82,-407.5 1585.82,-400.5"/>
</g>
<!-- Node10&#45;&gt;Node5 -->
<g id="edge11" class="edge"><title>Node10&#45;&gt;Node5</title>
<path fill="none" stroke="midnightblue" d="M2266.42,-386.887C2292.9,-381.389 2322.03,-375.342 2347.73,-370.006"/>
<polygon fill="midnightblue" stroke="midnightblue" points="2265.49,-383.505 2256.41,-388.965 2266.91,-390.359 2265.49,-383.505"/>
</g>
<!-- Node12 -->
<g id="node12" class="node"><title>Node12</title>
<g id="a_node12"><a xlink:href="../../df/d2d/classslogo_1_1_view.html#ad4c9fa7b6b599050e6cd3cc1954f39c9" target="_top" xlink:title="slogo.View.initRunner">
<polygon fill="white" stroke="black" points="815,-0.5 815,-19.5 931,-19.5 931,-0.5 815,-0.5"/>
<text text-anchor="middle" x="873" y="-7.5" font-family="Helvetica,sans-Serif" font-size="10.00">slogo.View.initRunner</text>
</a>
</g>
</g>
<!-- Node11&#45;&gt;Node12 -->
<g id="edge13" class="edge"><title>Node11&#45;&gt;Node12</title>
<path fill="none" stroke="midnightblue" d="M309.043,-243.839C400.118,-203.498 619.301,-107.474 806,-34 818.593,-29.0439 832.674,-23.8736 844.585,-19.6066"/>
<polygon fill="midnightblue" stroke="midnightblue" points="307.585,-240.657 299.862,-247.909 310.423,-247.056 307.585,-240.657"/>
</g>
<!-- Node13 -->
<g id="node13" class="node"><title>Node13</title>
<g id="a_node13"><a xlink:href="../../d9/d7e/classslogo_1_1_u_i_1_1_method_runner.html#a714f7c40de08d1196b78789d769d25d9" target="_top" xlink:title="slogo.UI.MethodRunner.set\lBackgroundColor">
<polygon fill="white" stroke="black" points="392,-307 392,-337 536,-337 536,-307 392,-307"/>
<text text-anchor="start" x="400" y="-325" font-family="Helvetica,sans-Serif" font-size="10.00">slogo.UI.MethodRunner.set</text>
<text text-anchor="middle" x="464" y="-314" font-family="Helvetica,sans-Serif" font-size="10.00">BackgroundColor</text>
</a>
</g>
</g>
<!-- Node11&#45;&gt;Node13 -->
<g id="edge15" class="edge"><title>Node11&#45;&gt;Node13</title>
<path fill="none" stroke="midnightblue" d="M331.093,-280.776C339.487,-283.158 347.957,-285.606 356,-288 376.083,-293.978 398.167,-300.931 417.03,-306.985"/>
<polygon fill="midnightblue" stroke="midnightblue" points="331.878,-277.361 321.304,-278.017 329.979,-284.099 331.878,-277.361"/>
</g>
<!-- Node12&#45;&gt;Node6 -->
<g id="edge14" class="edge"><title>Node12&#45;&gt;Node6</title>
<path fill="none" stroke="midnightblue" d="M941.466,-10C1016.9,-10 1142.7,-10 1251,-10 1251,-10 1251,-10 2184,-10 2364.68,-10 2550.85,-160.403 2597.11,-200.354"/>
<polygon fill="midnightblue" stroke="midnightblue" points="941.163,-6.5001 931.163,-10 941.163,-13.5001 941.163,-6.5001"/>
</g>
<!-- Node14 -->
<g id="node14" class="node"><title>Node14</title>
<g id="a_node14"><a xlink:href="../../d9/d7e/classslogo_1_1_u_i_1_1_method_runner.html#a5fe4a6310ba1b0851d7d30a440511324" target="_top" xlink:title="slogo.UI.MethodRunner.change\lTurtle">
<polygon fill="white" stroke="black" points="589,-307 589,-337 753,-337 753,-307 589,-307"/>
<text text-anchor="start" x="597" y="-325" font-family="Helvetica,sans-Serif" font-size="10.00">slogo.UI.MethodRunner.change</text>
<text text-anchor="middle" x="671" y="-314" font-family="Helvetica,sans-Serif" font-size="10.00">Turtle</text>
</a>
</g>
</g>
<!-- Node13&#45;&gt;Node14 -->
<g id="edge16" class="edge"><title>Node13&#45;&gt;Node14</title>
<path fill="none" stroke="midnightblue" d="M546.214,-322C560.229,-322 574.798,-322 588.812,-322"/>
<polygon fill="midnightblue" stroke="midnightblue" points="546.124,-318.5 536.124,-322 546.124,-325.5 546.124,-318.5"/>
</g>
<!-- Node15 -->
<g id="node15" class="node"><title>Node15</title>
<g id="a_node15"><a xlink:href="../../df/d2d/classslogo_1_1_view.html#accc79c56511a72090ff8a4d414b8d1f5" target="_top" xlink:title="slogo.View.executeTurtle\lCommands">
<polygon fill="white" stroke="black" points="806.5,-307 806.5,-337 939.5,-337 939.5,-307 806.5,-307"/>
<text text-anchor="start" x="814.5" y="-325" font-family="Helvetica,sans-Serif" font-size="10.00">slogo.View.executeTurtle</text>
<text text-anchor="middle" x="873" y="-314" font-family="Helvetica,sans-Serif" font-size="10.00">Commands</text>
</a>
</g>
</g>
<!-- Node14&#45;&gt;Node15 -->
<g id="edge17" class="edge"><title>Node14&#45;&gt;Node15</title>
<path fill="none" stroke="midnightblue" d="M763.12,-322C777.733,-322 792.601,-322 806.463,-322"/>
<polygon fill="midnightblue" stroke="midnightblue" points="763.059,-318.5 753.059,-322 763.059,-325.5 763.059,-318.5"/>
</g>
<!-- Node16 -->
<g id="node16" class="node"><title>Node16</title>
<g id="a_node16"><a xlink:href="../../df/d2d/classslogo_1_1_view.html#aa90e5d95d422b58b7f4b7f8a049defe1" target="_top" xlink:title="slogo.View.executeCommand">
<polygon fill="white" stroke="black" points="976,-313.5 976,-332.5 1134,-332.5 1134,-313.5 976,-313.5"/>
<text text-anchor="middle" x="1055" y="-320.5" font-family="Helvetica,sans-Serif" font-size="10.00">slogo.View.executeCommand</text>
</a>
</g>
</g>
<!-- Node15&#45;&gt;Node16 -->
<g id="edge18" class="edge"><title>Node15&#45;&gt;Node16</title>
<path fill="none" stroke="midnightblue" d="M949.784,-322.421C958.42,-322.469 967.235,-322.518 975.901,-322.566"/>
<polygon fill="midnightblue" stroke="midnightblue" points="949.768,-318.921 939.748,-322.365 949.729,-325.921 949.768,-318.921"/>
</g>
<!-- Node17 -->
<g id="node17" class="node"><title>Node17</title>
<g id="a_node17"><a xlink:href="../../df/d2d/classslogo_1_1_view.html#aee563f6a0b15ac6668e4dcbdad40c73c" target="_top" xlink:title="slogo.View.sendCommandTo\lBackend">
<polygon fill="white" stroke="black" points="1176,-263 1176,-293 1328,-293 1328,-263 1176,-263"/>
<text text-anchor="start" x="1184" y="-281" font-family="Helvetica,sans-Serif" font-size="10.00">slogo.View.sendCommandTo</text>
<text text-anchor="middle" x="1252" y="-270" font-family="Helvetica,sans-Serif" font-size="10.00">Backend</text>
</a>
</g>
</g>
<!-- Node16&#45;&gt;Node17 -->
<g id="edge19" class="edge"><title>Node16&#45;&gt;Node17</title>
<path fill="none" stroke="midnightblue" d="M1107.34,-311.151C1131.4,-305.599 1160.34,-298.922 1185.92,-293.02"/>
<polygon fill="midnightblue" stroke="midnightblue" points="1106.31,-307.798 1097.35,-313.457 1107.89,-314.618 1106.31,-307.798"/>
</g>
<!-- Node30 -->
<g id="node30" class="node"><title>Node30</title>
<g id="a_node30"><a xlink:href="../../df/d2d/classslogo_1_1_view.html#a4c3084a198acf85804800d70eff9ee51" target="_top" xlink:title="slogo.View.stepIntoCommand">
<polygon fill="white" stroke="black" points="1173,-354.5 1173,-373.5 1331,-373.5 1331,-354.5 1173,-354.5"/>
<text text-anchor="middle" x="1252" y="-361.5" font-family="Helvetica,sans-Serif" font-size="10.00">slogo.View.stepIntoCommand</text>
</a>
</g>
</g>
<!-- Node16&#45;&gt;Node30 -->
<g id="edge40" class="edge"><title>Node16&#45;&gt;Node30</title>
<path fill="none" stroke="midnightblue" d="M1111.09,-334.582C1140.97,-340.866 1177.46,-348.538 1205.68,-354.471"/>
<polygon fill="midnightblue" stroke="midnightblue" points="1111.73,-331.142 1101.23,-332.509 1110.29,-337.992 1111.73,-331.142"/>
</g>
<!-- Node34 -->
<g id="node34" class="node"><title>Node34</title>
<g id="a_node34"><a xlink:href="../../df/d2d/classslogo_1_1_view.html#ac8b7f574c679e744a430f1649dc55e68" target="_top" xlink:title="slogo.View.stepOverCommand">
<polygon fill="white" stroke="black" points="1170.5,-313.5 1170.5,-332.5 1333.5,-332.5 1333.5,-313.5 1170.5,-313.5"/>
<text text-anchor="middle" x="1252" y="-320.5" font-family="Helvetica,sans-Serif" font-size="10.00">slogo.View.stepOverCommand</text>
</a>
</g>
</g>
<!-- Node16&#45;&gt;Node34 -->
<g id="edge45" class="edge"><title>Node16&#45;&gt;Node34</title>
<path fill="none" stroke="midnightblue" d="M1144.28,-323C1152.93,-323 1161.68,-323 1170.24,-323"/>
<polygon fill="midnightblue" stroke="midnightblue" points="1144.19,-319.5 1134.19,-323 1144.19,-326.5 1144.19,-319.5"/>
</g>
<!-- Node17&#45;&gt;Node9 -->
<g id="edge32" class="edge"><title>Node17&#45;&gt;Node9</title>
<path fill="none" stroke="midnightblue" d="M1325.91,-298.07C1328.75,-299.879 1331.47,-301.851 1334,-304 1360.69,-326.623 1343.04,-351.706 1370,-374 1377.47,-380.175 1386.16,-385.08 1395.27,-388.974"/>
<polygon fill="midnightblue" stroke="midnightblue" points="1327.48,-294.937 1317.04,-293.113 1324.06,-301.048 1327.48,-294.937"/>
</g>
<!-- Node18 -->
<g id="node18" class="node"><title>Node18</title>
<g id="a_node18"><a xlink:href="../../db/d19/classslogo_1_1_u_i_1_1_module_creation_helper.html#a69e17abcc7cf9a6ed7261d8fb1d631fa" target="_top" xlink:title="slogo.UI.ModuleCreationHelper.activate\lIncreaseDecreaseButtons">
<polygon fill="white" stroke="black" points="1370.5,-126 1370.5,-156 1575.5,-156 1575.5,-126 1370.5,-126"/>
<text text-anchor="start" x="1378.5" y="-144" font-family="Helvetica,sans-Serif" font-size="10.00">slogo.UI.ModuleCreationHelper.activate</text>
<text text-anchor="middle" x="1473" y="-133" font-family="Helvetica,sans-Serif" font-size="10.00">IncreaseDecreaseButtons</text>
</a>
</g>
</g>
<!-- Node17&#45;&gt;Node18 -->
<g id="edge20" class="edge"><title>Node17&#45;&gt;Node18</title>
<path fill="none" stroke="midnightblue" d="M1270.54,-254.765C1291.38,-228.849 1328.58,-187.606 1370,-165 1376.31,-161.558 1383.1,-158.606 1390.07,-156.076"/>
<polygon fill="midnightblue" stroke="midnightblue" points="1267.56,-252.897 1264.12,-262.918 1273.06,-257.228 1267.56,-252.897"/>
</g>
<!-- Node20 -->
<g id="node20" class="node"><title>Node20</title>
<g id="a_node20"><a xlink:href="../../db/d19/classslogo_1_1_u_i_1_1_module_creation_helper.html#aa70b0ad9e90e62509149bfd2ef2ba209" target="_top" xlink:title="slogo.UI.ModuleCreationHelper.activate\lKeyEvents">
<polygon fill="white" stroke="black" points="2080.5,-340 2080.5,-370 2285.5,-370 2285.5,-340 2080.5,-340"/>
<text text-anchor="start" x="2088.5" y="-358" font-family="Helvetica,sans-Serif" font-size="10.00">slogo.UI.ModuleCreationHelper.activate</text>
<text text-anchor="middle" x="2183" y="-347" font-family="Helvetica,sans-Serif" font-size="10.00">KeyEvents</text>
</a>
</g>
</g>
<!-- Node17&#45;&gt;Node20 -->
<g id="edge23" class="edge"><title>Node17&#45;&gt;Node20</title>
<path fill="none" stroke="midnightblue" d="M1321.02,-297.037C1325.53,-299.143 1329.9,-301.459 1334,-304 1353.5,-316.087 1348.94,-331.893 1370,-341 1494.64,-394.901 1891.44,-375.613 2080.26,-362.761"/>
<polygon fill="midnightblue" stroke="midnightblue" points="1322.19,-293.73 1311.62,-293.001 1319.43,-300.162 1322.19,-293.73"/>
</g>
<!-- Node21 -->
<g id="node21" class="node"><title>Node21</title>
<g id="a_node21"><a xlink:href="../../db/d19/classslogo_1_1_u_i_1_1_module_creation_helper.html#a2e841243ec3ca474e8822102343acc88" target="_top" xlink:title="slogo.UI.ModuleCreationHelper.activate\lNewTurtleButton">
<polygon fill="white" stroke="black" points="1370.5,-77 1370.5,-107 1575.5,-107 1575.5,-77 1370.5,-77"/>
<text text-anchor="start" x="1378.5" y="-95" font-family="Helvetica,sans-Serif" font-size="10.00">slogo.UI.ModuleCreationHelper.activate</text>
<text text-anchor="middle" x="1473" y="-84" font-family="Helvetica,sans-Serif" font-size="10.00">NewTurtleButton</text>
</a>
</g>
</g>
<!-- Node17&#45;&gt;Node21 -->
<g id="edge25" class="edge"><title>Node17&#45;&gt;Node21</title>
<path fill="none" stroke="midnightblue" d="M1263.8,-253.396C1280.91,-217.387 1317.76,-150.84 1370,-116 1375.15,-112.568 1380.72,-109.624 1386.53,-107.1"/>
<polygon fill="midnightblue" stroke="midnightblue" points="1260.52,-252.145 1259.5,-262.691 1266.87,-255.084 1260.52,-252.145"/>
</g>
<!-- Node23 -->
<g id="node23" class="node"><title>Node23</title>
<g id="a_node23"><a xlink:href="../../db/d19/classslogo_1_1_u_i_1_1_module_creation_helper.html#a9b1f07ab673191067907a059b1b0c524" target="_top" xlink:title="slogo.UI.ModuleCreationHelper.activate\lPlayButton">
<polygon fill="white" stroke="black" points="1370.5,-175 1370.5,-205 1575.5,-205 1575.5,-175 1370.5,-175"/>
<text text-anchor="start" x="1378.5" y="-193" font-family="Helvetica,sans-Serif" font-size="10.00">slogo.UI.ModuleCreationHelper.activate</text>
<text text-anchor="middle" x="1473" y="-182" font-family="Helvetica,sans-Serif" font-size="10.00">PlayButton</text>
</a>
</g>
</g>
<!-- Node17&#45;&gt;Node23 -->
<g id="edge28" class="edge"><title>Node17&#45;&gt;Node23</title>
<path fill="none" stroke="midnightblue" d="M1285.42,-257.646C1308.33,-243.994 1340.16,-226.478 1370,-215 1379.7,-211.27 1390.14,-207.961 1400.5,-205.071"/>
<polygon fill="midnightblue" stroke="midnightblue" points="1283.54,-254.69 1276.79,-262.855 1287.16,-260.683 1283.54,-254.69"/>
</g>
<!-- Node26 -->
<g id="node26" class="node"><title>Node26</title>
<g id="a_node26"><a xlink:href="../../d1/d5f/classslogo_1_1_u_i_1_1_path_color_selector.html#ad3d9c82a0904c97edcec7cf67b85bd7b" target="_top" xlink:title="slogo.UI.PathColorSelector.create">
<polygon fill="white" stroke="black" points="1385,-312.5 1385,-331.5 1561,-331.5 1561,-312.5 1385,-312.5"/>
<text text-anchor="middle" x="1473" y="-319.5" font-family="Helvetica,sans-Serif" font-size="10.00">slogo.UI.PathColorSelector.create</text>
</a>
</g>
</g>
<!-- Node17&#45;&gt;Node26 -->
<g id="edge33" class="edge"><title>Node17&#45;&gt;Node26</title>
<path fill="none" stroke="midnightblue" d="M1335.74,-295.065C1347.24,-297.411 1358.91,-299.776 1370,-302 1387.25,-305.46 1406.16,-309.186 1422.95,-312.473"/>
<polygon fill="midnightblue" stroke="midnightblue" points="1336.19,-291.585 1325.69,-293.013 1334.79,-298.443 1336.19,-291.585"/>
</g>
<!-- Node28 -->
<g id="node28" class="node"><title>Node28</title>
<g id="a_node28"><a xlink:href="../../d4/d8d/classslogo_1_1_u_i_1_1_background_color_selector.html#ad75ba4ce104e071811d0fe039a4e839f" target="_top" xlink:title="slogo.UI.BackgroundColor\lSelector.create">
<polygon fill="white" stroke="black" points="1403,-263 1403,-293 1543,-293 1543,-263 1403,-263"/>
<text text-anchor="start" x="1411" y="-281" font-family="Helvetica,sans-Serif" font-size="10.00">slogo.UI.BackgroundColor</text>
<text text-anchor="middle" x="1473" y="-270" font-family="Helvetica,sans-Serif" font-size="10.00">Selector.create</text>
</a>
</g>
</g>
<!-- Node17&#45;&gt;Node28 -->
<g id="edge36" class="edge"><title>Node17&#45;&gt;Node28</title>
<path fill="none" stroke="midnightblue" d="M1338.14,-278C1359.6,-278 1382.37,-278 1402.93,-278"/>
<polygon fill="midnightblue" stroke="midnightblue" points="1338.06,-274.5 1328.06,-278 1338.06,-281.5 1338.06,-274.5"/>
</g>
<!-- Node29 -->
<g id="node29" class="node"><title>Node29</title>
<g id="a_node29"><a xlink:href="../../dd/da7/classslogo_1_1_u_i_1_1_turtle_image_selector.html#a3f268d9196ffebcbb5dc322d2897a9fe" target="_top" xlink:title="slogo.UI.TurtleImageSelector.create">
<polygon fill="white" stroke="black" points="1380,-224.5 1380,-243.5 1566,-243.5 1566,-224.5 1380,-224.5"/>
<text text-anchor="middle" x="1473" y="-231.5" font-family="Helvetica,sans-Serif" font-size="10.00">slogo.UI.TurtleImageSelector.create</text>
</a>
</g>
</g>
<!-- Node17&#45;&gt;Node29 -->
<g id="edge38" class="edge"><title>Node17&#45;&gt;Node29</title>
<path fill="none" stroke="midnightblue" d="M1332.01,-260.821C1344.7,-258.147 1357.71,-255.458 1370,-253 1385.99,-249.804 1403.42,-246.493 1419.27,-243.548"/>
<polygon fill="midnightblue" stroke="midnightblue" points="1330.98,-257.463 1321.92,-262.958 1332.43,-264.311 1330.98,-257.463"/>
</g>
<!-- Node19 -->
<g id="node19" class="node"><title>Node19</title>
<g id="a_node19"><a xlink:href="../../db/d19/classslogo_1_1_u_i_1_1_module_creation_helper.html#adce7362386f9a7b3006e7db08a2d578d" target="_top" xlink:title="slogo.UI.ModuleCreationHelper.create\lIncreaseDecreaseButtons">
<polygon fill="white" stroke="black" points="1846.5,-126 1846.5,-156 2043.5,-156 2043.5,-126 1846.5,-126"/>
<text text-anchor="start" x="1854.5" y="-144" font-family="Helvetica,sans-Serif" font-size="10.00">slogo.UI.ModuleCreationHelper.create</text>
<text text-anchor="middle" x="1945" y="-133" font-family="Helvetica,sans-Serif" font-size="10.00">IncreaseDecreaseButtons</text>
</a>
</g>
</g>
<!-- Node18&#45;&gt;Node19 -->
<g id="edge21" class="edge"><title>Node18&#45;&gt;Node19</title>
<path fill="none" stroke="midnightblue" d="M1585.71,-141C1664.92,-141 1770.2,-141 1846.12,-141"/>
<polygon fill="midnightblue" stroke="midnightblue" points="1585.69,-137.5 1575.69,-141 1585.69,-144.5 1585.69,-137.5"/>
</g>
<!-- Node19&#45;&gt;Node4 -->
<g id="edge22" class="edge"><title>Node19&#45;&gt;Node4</title>
<path fill="none" stroke="midnightblue" d="M2053.83,-152.423C2064.01,-153.502 2074.3,-154.591 2084.38,-155.659"/>
<polygon fill="midnightblue" stroke="midnightblue" points="2054.01,-148.922 2043.69,-151.349 2053.27,-155.883 2054.01,-148.922"/>
</g>
<!-- Node20&#45;&gt;Node5 -->
<g id="edge24" class="edge"><title>Node20&#45;&gt;Node5</title>
<path fill="none" stroke="midnightblue" d="M2296.05,-355C2304.81,-355 2313.62,-355 2322.27,-355"/>
<polygon fill="midnightblue" stroke="midnightblue" points="2295.8,-351.5 2285.8,-355 2295.8,-358.5 2295.8,-351.5"/>
</g>
<!-- Node22 -->
<g id="node22" class="node"><title>Node22</title>
<g id="a_node22"><a xlink:href="../../db/d19/classslogo_1_1_u_i_1_1_module_creation_helper.html#a07f5483df317cdf80e8ea2dda5699afa" target="_top" xlink:title="slogo.UI.ModuleCreationHelper.create\lNewTurtleButton">
<polygon fill="white" stroke="black" points="1846.5,-77 1846.5,-107 2043.5,-107 2043.5,-77 1846.5,-77"/>
<text text-anchor="start" x="1854.5" y="-95" font-family="Helvetica,sans-Serif" font-size="10.00">slogo.UI.ModuleCreationHelper.create</text>
<text text-anchor="middle" x="1945" y="-84" font-family="Helvetica,sans-Serif" font-size="10.00">NewTurtleButton</text>
</a>
</g>
</g>
<!-- Node21&#45;&gt;Node22 -->
<g id="edge26" class="edge"><title>Node21&#45;&gt;Node22</title>
<path fill="none" stroke="midnightblue" d="M1585.71,-92C1664.92,-92 1770.2,-92 1846.12,-92"/>
<polygon fill="midnightblue" stroke="midnightblue" points="1585.69,-88.5001 1575.69,-92 1585.69,-95.5001 1585.69,-88.5001"/>
</g>
<!-- Node22&#45;&gt;Node4 -->
<g id="edge27" class="edge"><title>Node22&#45;&gt;Node4</title>
<path fill="none" stroke="midnightblue" d="M2021.35,-109.581C2029.03,-111.633 2036.69,-113.788 2044,-116 2078.27,-126.371 2116.49,-140.419 2144,-150.984"/>
<polygon fill="midnightblue" stroke="midnightblue" points="2022.19,-106.184 2011.63,-107.039 2020.42,-112.956 2022.19,-106.184"/>
</g>
<!-- Node24 -->
<g id="node24" class="node"><title>Node24</title>
<g id="a_node24"><a xlink:href="../../db/d19/classslogo_1_1_u_i_1_1_module_creation_helper.html#a9b3fb38a55b3b7812b4f793afa7a974f" target="_top" xlink:title="slogo.UI.ModuleCreationHelper.create\lPlayButton">
<polygon fill="white" stroke="black" points="1612.5,-175 1612.5,-205 1809.5,-205 1809.5,-175 1612.5,-175"/>
<text text-anchor="start" x="1620.5" y="-193" font-family="Helvetica,sans-Serif" font-size="10.00">slogo.UI.ModuleCreationHelper.create</text>
<text text-anchor="middle" x="1711" y="-182" font-family="Helvetica,sans-Serif" font-size="10.00">PlayButton</text>
</a>
</g>
</g>
<!-- Node23&#45;&gt;Node24 -->
<g id="edge29" class="edge"><title>Node23&#45;&gt;Node24</title>
<path fill="none" stroke="midnightblue" d="M1586.05,-190C1594.81,-190 1603.62,-190 1612.27,-190"/>
<polygon fill="midnightblue" stroke="midnightblue" points="1585.8,-186.5 1575.8,-190 1585.8,-193.5 1585.8,-186.5"/>
</g>
<!-- Node25 -->
<g id="node25" class="node"><title>Node25</title>
<g id="a_node25"><a xlink:href="../../db/d19/classslogo_1_1_u_i_1_1_module_creation_helper.html#ae1e60d37509c2e5eddcb2a6e70b4f650" target="_top" xlink:title="slogo.UI.ModuleCreationHelper.create\lFirstRowButtons">
<polygon fill="white" stroke="black" points="1846.5,-175 1846.5,-205 2043.5,-205 2043.5,-175 1846.5,-175"/>
<text text-anchor="start" x="1854.5" y="-193" font-family="Helvetica,sans-Serif" font-size="10.00">slogo.UI.ModuleCreationHelper.create</text>
<text text-anchor="middle" x="1945" y="-182" font-family="Helvetica,sans-Serif" font-size="10.00">FirstRowButtons</text>
</a>
</g>
</g>
<!-- Node24&#45;&gt;Node25 -->
<g id="edge30" class="edge"><title>Node24&#45;&gt;Node25</title>
<path fill="none" stroke="midnightblue" d="M1819.72,-190C1828.62,-190 1837.58,-190 1846.4,-190"/>
<polygon fill="midnightblue" stroke="midnightblue" points="1819.72,-186.5 1809.72,-190 1819.72,-193.5 1819.72,-186.5"/>
</g>
<!-- Node25&#45;&gt;Node4 -->
<g id="edge31" class="edge"><title>Node25&#45;&gt;Node4</title>
<path fill="none" stroke="midnightblue" d="M2053.83,-179.034C2064.01,-177.999 2074.3,-176.953 2084.38,-175.928"/>
<polygon fill="midnightblue" stroke="midnightblue" points="2053.29,-175.571 2043.69,-180.065 2054,-182.535 2053.29,-175.571"/>
</g>
<!-- Node27 -->
<g id="node27" class="node"><title>Node27</title>
<g id="a_node27"><a xlink:href="../../db/d19/classslogo_1_1_u_i_1_1_module_creation_helper.html#af7f2919454fdbf6e9d7d912e99634857" target="_top" xlink:title="slogo.UI.ModuleCreationHelper.create\lSelectors">
<polygon fill="white" stroke="black" points="1612.5,-244 1612.5,-274 1809.5,-274 1809.5,-244 1612.5,-244"/>
<text text-anchor="start" x="1620.5" y="-262" font-family="Helvetica,sans-Serif" font-size="10.00">slogo.UI.ModuleCreationHelper.create</text>
<text text-anchor="middle" x="1711" y="-251" font-family="Helvetica,sans-Serif" font-size="10.00">Selectors</text>
</a>
</g>
</g>
<!-- Node26&#45;&gt;Node27 -->
<g id="edge34" class="edge"><title>Node26&#45;&gt;Node27</title>
<path fill="none" stroke="midnightblue" d="M1538.65,-310.508C1551.11,-307.96 1564,-305.09 1576,-302 1606.99,-294.017 1641.36,-282.945 1667.52,-274.035"/>
<polygon fill="midnightblue" stroke="midnightblue" points="1537.91,-307.087 1528.79,-312.479 1539.28,-313.952 1537.91,-307.087"/>
</g>
<!-- Node27&#45;&gt;Node4 -->
<g id="edge35" class="edge"><title>Node27&#45;&gt;Node4</title>
<path fill="none" stroke="midnightblue" d="M1819.88,-249.89C1885.32,-243.006 1970.17,-231.657 2044,-214 2079.03,-205.622 2117.66,-191.77 2145.12,-181.094"/>
<polygon fill="midnightblue" stroke="midnightblue" points="1819.14,-246.448 1809.55,-250.957 1819.86,-253.411 1819.14,-246.448"/>
</g>
<!-- Node28&#45;&gt;Node27 -->
<g id="edge37" class="edge"><title>Node28&#45;&gt;Node27</title>
<path fill="none" stroke="midnightblue" d="M1553.27,-271.618C1572.21,-270.093 1592.65,-268.448 1612.32,-266.864"/>
<polygon fill="midnightblue" stroke="midnightblue" points="1552.9,-268.136 1543.21,-272.428 1553.46,-275.114 1552.9,-268.136"/>
</g>
<!-- Node29&#45;&gt;Node27 -->
<g id="edge39" class="edge"><title>Node29&#45;&gt;Node27</title>
<path fill="none" stroke="midnightblue" d="M1574.04,-244.597C1586.77,-245.946 1599.79,-247.326 1612.49,-248.671"/>
<polygon fill="midnightblue" stroke="midnightblue" points="1574.21,-241.096 1563.89,-243.523 1573.47,-248.057 1574.21,-241.096"/>
</g>
<!-- Node31 -->
<g id="node31" class="node"><title>Node31</title>
<g id="a_node31"><a xlink:href="../../db/d19/classslogo_1_1_u_i_1_1_module_creation_helper.html#a9fd730f7c1860d34bf4ac46c3828bd59" target="_top" xlink:title="slogo.UI.ModuleCreationHelper.activate\lStepIntoButton">
<polygon fill="white" stroke="black" points="1370.5,-487 1370.5,-517 1575.5,-517 1575.5,-487 1370.5,-487"/>
<text text-anchor="start" x="1378.5" y="-505" font-family="Helvetica,sans-Serif" font-size="10.00">slogo.UI.ModuleCreationHelper.activate</text>
<text text-anchor="middle" x="1473" y="-494" font-family="Helvetica,sans-Serif" font-size="10.00">StepIntoButton</text>
</a>
</g>
</g>
<!-- Node30&#45;&gt;Node31 -->
<g id="edge41" class="edge"><title>Node30&#45;&gt;Node31</title>
<path fill="none" stroke="midnightblue" d="M1266.11,-381.555C1285.82,-406.656 1325.54,-452.471 1370,-477 1377.02,-480.876 1384.65,-484.157 1392.45,-486.935"/>
<polygon fill="midnightblue" stroke="midnightblue" points="1268.87,-379.402 1260,-373.609 1263.32,-383.67 1268.87,-379.402"/>
</g>
<!-- Node32 -->
<g id="node32" class="node"><title>Node32</title>
<g id="a_node32"><a xlink:href="../../db/d19/classslogo_1_1_u_i_1_1_module_creation_helper.html#a4a6f1f009507c25be8c7c28cbba35f3b" target="_top" xlink:title="slogo.UI.ModuleCreationHelper.create\lDebugStepIntoButton">
<polygon fill="white" stroke="black" points="1612.5,-487 1612.5,-517 1809.5,-517 1809.5,-487 1612.5,-487"/>
<text text-anchor="start" x="1620.5" y="-505" font-family="Helvetica,sans-Serif" font-size="10.00">slogo.UI.ModuleCreationHelper.create</text>
<text text-anchor="middle" x="1711" y="-494" font-family="Helvetica,sans-Serif" font-size="10.00">DebugStepIntoButton</text>
</a>
</g>
</g>
<!-- Node31&#45;&gt;Node32 -->
<g id="edge42" class="edge"><title>Node31&#45;&gt;Node32</title>
<path fill="none" stroke="midnightblue" d="M1586.05,-502C1594.81,-502 1603.62,-502 1612.27,-502"/>
<polygon fill="midnightblue" stroke="midnightblue" points="1585.8,-498.5 1575.8,-502 1585.8,-505.5 1585.8,-498.5"/>
</g>
<!-- Node33 -->
<g id="node33" class="node"><title>Node33</title>
<g id="a_node33"><a xlink:href="../../db/d19/classslogo_1_1_u_i_1_1_module_creation_helper.html#a975af4ea47dc85df72215bdf1a0d20ce" target="_top" xlink:title="slogo.UI.ModuleCreationHelper.create\lDebugModules">
<polygon fill="white" stroke="black" points="1846.5,-438 1846.5,-468 2043.5,-468 2043.5,-438 1846.5,-438"/>
<text text-anchor="start" x="1854.5" y="-456" font-family="Helvetica,sans-Serif" font-size="10.00">slogo.UI.ModuleCreationHelper.create</text>
<text text-anchor="middle" x="1945" y="-445" font-family="Helvetica,sans-Serif" font-size="10.00">DebugModules</text>
</a>
</g>
</g>
<!-- Node32&#45;&gt;Node33 -->
<g id="edge43" class="edge"><title>Node32&#45;&gt;Node33</title>
<path fill="none" stroke="midnightblue" d="M1793.02,-484.887C1819.06,-479.389 1847.69,-473.342 1872.95,-468.006"/>
<polygon fill="midnightblue" stroke="midnightblue" points="1792.25,-481.474 1783.18,-486.965 1793.69,-488.323 1792.25,-481.474"/>
</g>
<!-- Node33&#45;&gt;Node5 -->
<g id="edge44" class="edge"><title>Node33&#45;&gt;Node5</title>
<path fill="none" stroke="midnightblue" d="M2053.86,-456.617C2121.76,-456.09 2210.52,-450.204 2286,-428 2328.95,-415.364 2373.59,-387.598 2398.97,-370.185"/>
<polygon fill="midnightblue" stroke="midnightblue" points="2053.55,-453.118 2043.57,-456.657 2053.58,-460.118 2053.55,-453.118"/>
</g>
<!-- Node35 -->
<g id="node35" class="node"><title>Node35</title>
<g id="a_node35"><a xlink:href="../../db/d19/classslogo_1_1_u_i_1_1_module_creation_helper.html#a0fed0bb32bf2643d6fd5c24d82e8e18e" target="_top" xlink:title="slogo.UI.ModuleCreationHelper.activate\lStepOverButton">
<polygon fill="white" stroke="black" points="1370.5,-438 1370.5,-468 1575.5,-468 1575.5,-438 1370.5,-438"/>
<text text-anchor="start" x="1378.5" y="-456" font-family="Helvetica,sans-Serif" font-size="10.00">slogo.UI.ModuleCreationHelper.activate</text>
<text text-anchor="middle" x="1473" y="-445" font-family="Helvetica,sans-Serif" font-size="10.00">StepOverButton</text>
</a>
</g>
</g>
<!-- Node34&#45;&gt;Node35 -->
<g id="edge46" class="edge"><title>Node34&#45;&gt;Node35</title>
<path fill="none" stroke="midnightblue" d="M1321.93,-336.781C1326.26,-339.111 1330.34,-341.829 1334,-345 1364.4,-371.313 1339.27,-402.067 1370,-428 1374.6,-431.88 1379.71,-435.176 1385.12,-437.973"/>
<polygon fill="midnightblue" stroke="midnightblue" points="1323.31,-333.563 1312.77,-332.524 1320.36,-339.911 1323.31,-333.563"/>
</g>
<!-- Node36 -->
<g id="node36" class="node"><title>Node36</title>
<g id="a_node36"><a xlink:href="../../db/d19/classslogo_1_1_u_i_1_1_module_creation_helper.html#aa1e7dc2b509360583790fba0d3819c8d" target="_top" xlink:title="slogo.UI.ModuleCreationHelper.create\lDebugStepOverButton">
<polygon fill="white" stroke="black" points="1612.5,-438 1612.5,-468 1809.5,-468 1809.5,-438 1612.5,-438"/>
<text text-anchor="start" x="1620.5" y="-456" font-family="Helvetica,sans-Serif" font-size="10.00">slogo.UI.ModuleCreationHelper.create</text>
<text text-anchor="middle" x="1711" y="-445" font-family="Helvetica,sans-Serif" font-size="10.00">DebugStepOverButton</text>
</a>
</g>
</g>
<!-- Node35&#45;&gt;Node36 -->
<g id="edge47" class="edge"><title>Node35&#45;&gt;Node36</title>
<path fill="none" stroke="midnightblue" d="M1586.05,-453C1594.81,-453 1603.62,-453 1612.27,-453"/>
<polygon fill="midnightblue" stroke="midnightblue" points="1585.8,-449.5 1575.8,-453 1585.8,-456.5 1585.8,-449.5"/>
</g>
<!-- Node36&#45;&gt;Node33 -->
<g id="edge48" class="edge"><title>Node36&#45;&gt;Node33</title>
<path fill="none" stroke="midnightblue" d="M1819.72,-453C1828.62,-453 1837.58,-453 1846.4,-453"/>
<polygon fill="midnightblue" stroke="midnightblue" points="1819.72,-449.5 1809.72,-453 1819.72,-456.5 1819.72,-449.5"/>
</g>
</g>
</svg>
