<?xml version="1.0" encoding="UTF-8" standalone="no"?>
<!DOCTYPE svg PUBLIC "-//W3C//DTD SVG 1.1//EN"
 "http://www.w3.org/Graphics/SVG/1.1/DTD/svg11.dtd">
<!-- Generated by graphviz version 2.36.0 (20140111.2315)
 -->
<!-- Title: slogo.backend.impl.tokenization.TokenRule.Builder Pages: 1 -->
<svg width="180pt" height="108pt"
 viewBox="0.00 0.00 180.00 108.00" xmlns="http://www.w3.org/2000/svg" xmlns:xlink="http://www.w3.org/1999/xlink">
<g id="graph0" class="graph" transform="scale(1 1) rotate(0) translate(4 104)">
<title>slogo.backend.impl.tokenization.TokenRule.Builder</title>
<polygon fill="white" stroke="none" points="-4,4 -4,-104 176,-104 176,4 -4,4"/>
<!-- Node1 -->
<g id="node1" class="node"><title>Node1</title>
<polygon fill="#bfbfbf" stroke="black" points="-0.5,-1 -0.5,-31 172.5,-31 172.5,-1 -0.5,-1"/>
<text text-anchor="start" x="7.5" y="-19" font-family="Helvetica,sans-Serif" font-size="10.00">slogo.backend.impl.tokenization.</text>
<text text-anchor="middle" x="86" y="-8" font-family="Helvetica,sans-Serif" font-size="10.00">TokenRule.Builder</text>
</g>
<!-- Node2 -->
<g id="node2" class="node"><title>Node2</title>
<polygon fill="white" stroke="#bfbfbf" points="25,-80.5 25,-99.5 147,-99.5 147,-80.5 25,-80.5"/>
<text text-anchor="middle" x="86" y="-87.5" font-family="Helvetica,sans-Serif" font-size="10.00">Map&lt; String, String &gt;</text>
</g>
<!-- Node2&#45;&gt;Node1 -->
<g id="edge1" class="edge"><title>Node2&#45;&gt;Node1</title>
<path fill="none" stroke="#9a32cd" stroke-dasharray="5,2" d="M86,-70.0846C86,-57.9148 86,-42.3538 86,-31.2316"/>
<polygon fill="#9a32cd" stroke="#9a32cd" points="82.5001,-70.4579 86,-80.4579 89.5001,-70.4579 82.5001,-70.4579"/>
<text text-anchor="middle" x="109.5" y="-53.5" font-family="Helvetica,sans-Serif" font-size="10.00"> definition</text>
</g>
</g>
</svg>
