<?xml version="1.0" encoding="UTF-8" standalone="no"?>
<!DOCTYPE svg PUBLIC "-//W3C//DTD SVG 1.1//EN"
 "http://www.w3.org/Graphics/SVG/1.1/DTD/svg11.dtd">
<!-- Generated by graphviz version 2.36.0 (20140111.2315)
 -->
<!-- Title: slogo.UI.CheckBoxCreator Pages: 1 -->
<svg width="148pt" height="96pt"
 viewBox="0.00 0.00 148.00 96.00" xmlns="http://www.w3.org/2000/svg" xmlns:xlink="http://www.w3.org/1999/xlink">
<g id="graph0" class="graph" transform="scale(1 1) rotate(0) translate(4 92)">
<title>slogo.UI.CheckBoxCreator</title>
<polygon fill="white" stroke="none" points="-4,4 -4,-92 144,-92 144,4 -4,4"/>
<!-- Node1 -->
<g id="node1" class="node"><title>Node1</title>
<polygon fill="#bfbfbf" stroke="black" points="-0.5,-0.5 -0.5,-19.5 140.5,-19.5 140.5,-0.5 -0.5,-0.5"/>
<text text-anchor="middle" x="70" y="-7.5" font-family="Helvetica,sans-Serif" font-size="10.00">slogo.UI.CheckBoxCreator</text>
</g>
<!-- Node2 -->
<g id="node2" class="node"><title>Node2</title>
<polygon fill="white" stroke="#bfbfbf" points="18.5,-68.5 18.5,-87.5 59.5,-87.5 59.5,-68.5 18.5,-68.5"/>
<text text-anchor="middle" x="39" y="-75.5" font-family="Helvetica,sans-Serif" font-size="10.00">VBox</text>
</g>
<!-- Node2&#45;&gt;Node1 -->
<g id="edge1" class="edge"><title>Node2&#45;&gt;Node1</title>
<path fill="none" stroke="#9a32cd" stroke-dasharray="5,2" d="M44.1095,-58.3336C46.1981,-51.7556 48.8663,-44.4073 52,-38 55.1682,-31.5222 59.6682,-24.7722 63.3762,-19.6416"/>
<polygon fill="#9a32cd" stroke="#9a32cd" points="40.6203,-57.7938 41.162,-68.3748 47.3369,-59.7655 40.6203,-57.7938"/>
<text text-anchor="middle" x="65.5" y="-41.5" font-family="Helvetica,sans-Serif" font-size="10.00"> vBox</text>
</g>
<!-- Node3 -->
<g id="node3" class="node"><title>Node3</title>
<polygon fill="white" stroke="#bfbfbf" points="78,-68.5 78,-87.5 124,-87.5 124,-68.5 78,-68.5"/>
<text text-anchor="middle" x="101" y="-75.5" font-family="Helvetica,sans-Serif" font-size="10.00">Group</text>
</g>
<!-- Node3&#45;&gt;Node1 -->
<g id="edge2" class="edge"><title>Node3&#45;&gt;Node1</title>
<path fill="none" stroke="#9a32cd" stroke-dasharray="5,2" d="M92.6328,-59.1859C86.6518,-46.4523 78.8588,-29.8607 74.1526,-19.8411"/>
<polygon fill="#9a32cd" stroke="#9a32cd" points="89.5279,-60.8083 96.9473,-68.3717 95.8638,-57.8324 89.5279,-60.8083"/>
<text text-anchor="middle" x="100.5" y="-41.5" font-family="Helvetica,sans-Serif" font-size="10.00"> root</text>
</g>
</g>
</svg>
