<?xml version="1.0" encoding="UTF-8" standalone="no"?>
<!DOCTYPE svg PUBLIC "-//W3C//DTD SVG 1.1//EN"
 "http://www.w3.org/Graphics/SVG/1.1/DTD/svg11.dtd">
<!-- Generated by graphviz version 2.36.0 (20140111.2315)
 -->
<!-- Title: slogo.backend.parsing.ISyntaxNode.children Pages: 1 -->
<!--zoomable 273 -->
<svg id="main" version="1.1" xmlns="http://www.w3.org/2000/svg" xmlns:xlink="http://www.w3.org/1999/xlink" xml:space="preserve" onload="init(evt)">
<style type="text/css"><![CDATA[
.edge:hover path { stroke: red; }
.edge:hover polygon { stroke: red; fill: red; }
]]></style>
<script type="text/javascript"><![CDATA[
var edges = document.getElementsByTagName('g');
if (edges && edges.length) {
  for (var i=0;i<edges.length;i++) {
    if (edges[i].id.substr(0,4)=='edge') {
      edges[i].setAttribute('class','edge');
    }
  }
}
]]></script>
        <defs>
                <circle id="rim" cx="0" cy="0" r="7"/>
                <circle id="rim2" cx="0" cy="0" r="3.5"/>
                <g id="zoomPlus">
                        <use xlink:href="#rim" fill="#404040">
                                <set attributeName="fill" to="#808080" begin="zoomplus.mouseover" end="zoomplus.mouseout"/>
                        </use>
                        <path d="M-4,0h8M0,-4v8" fill="none" stroke="white" stroke-width="1.5" pointer-events="none"/>
                </g>
                <g id="zoomMin">
                        <use xlink:href="#rim" fill="#404040">
                                <set attributeName="fill" to="#808080" begin="zoomminus.mouseover" end="zoomminus.mouseout"/>
                        </use>
                        <path d="M-4,0h8" fill="none" stroke="white" stroke-width="1.5" pointer-events="none"/>
                </g>
                <g id="dirArrow">
                        <path fill="none" stroke="white" stroke-width="1.5" d="M0,-3.0v7 M-2.5,-0.5L0,-3.0L2.5,-0.5"/>
                </g>
               <g id="resetDef">
                       <use xlink:href="#rim2" fill="#404040">
                               <set attributeName="fill" to="#808080" begin="reset.mouseover" end="reset.mouseout"/>
                       </use>
               </g>
        </defs>

<script type="text/javascript">
var viewWidth = 988;
var viewHeight = 273;
var sectionId = 'dynsection-1';
</script>
<script xlink:href="../../svgpan.js"/>
<svg id="graph" class="graph">
<g id="viewport">
<title>slogo.backend.parsing.ISyntaxNode.children</title>
<polygon fill="white" stroke="none" points="-4,4 -4,-269 984,-269 984,4 -4,4"/>
<!-- Node1 -->
<g id="node1" class="node"><title>Node1</title>
<polygon fill="#bfbfbf" stroke="black" points="0,-110 0,-140 162,-140 162,-110 0,-110"/>
<text text-anchor="start" x="8" y="-128" font-family="Helvetica,sans-Serif" font-size="10.00">slogo.backend.parsing.ISyntax</text>
<text text-anchor="middle" x="81" y="-117" font-family="Helvetica,sans-Serif" font-size="10.00">Node.children</text>
</g>
<!-- Node2 -->
<g id="node2" class="node"><title>Node2</title>
<g id="a_node2"><a xlink:href="../../dd/d4b/classslogo_1_1backend_1_1impl_1_1evaluation_1_1_evaluator.html#a6552d5f695507b206d457087cc2c4118" target="_top" xlink:title="slogo.backend.impl.evaluation.\lEvaluator.evaluate">
<polygon fill="white" stroke="black" points="198,-147 198,-177 362,-177 362,-147 198,-147"/>
<text text-anchor="start" x="206" y="-165" font-family="Helvetica,sans-Serif" font-size="10.00">slogo.backend.impl.evaluation.</text>
<text text-anchor="middle" x="280" y="-154" font-family="Helvetica,sans-Serif" font-size="10.00">Evaluator.evaluate</text>
</a>
</g>
</g>
<!-- Node1&#45;&gt;Node2 -->
<g id="edge1" class="edge"><title>Node1&#45;&gt;Node2</title>
<path fill="none" stroke="midnightblue" d="M172.16,-141.934C181.095,-143.612 190.121,-145.307 198.944,-146.964"/>
<polygon fill="midnightblue" stroke="midnightblue" points="172.602,-138.455 162.127,-140.049 171.31,-145.335 172.602,-138.455"/>
</g>
<!-- Node12 -->
<g id="node12" class="node"><title>Node12</title>
<g id="a_node12"><a xlink:href="../../df/ddc/classslogo_1_1backend_1_1test_1_1_evaluation_test.html#aeb65396e0f78d8e00c8c15905022f6fe" target="_top" xlink:title="slogo.backend.test.Evaluation\lTest.setupTree">
<polygon fill="white" stroke="black" points="200,-74 200,-104 360,-104 360,-74 200,-74"/>
<text text-anchor="start" x="208" y="-92" font-family="Helvetica,sans-Serif" font-size="10.00">slogo.backend.test.Evaluation</text>
<text text-anchor="middle" x="280" y="-81" font-family="Helvetica,sans-Serif" font-size="10.00">Test.setupTree</text>
</a>
</g>
</g>
<!-- Node1&#45;&gt;Node12 -->
<g id="edge11" class="edge"><title>Node1&#45;&gt;Node12</title>
<path fill="none" stroke="midnightblue" d="M172.13,-108.53C181.398,-106.836 190.765,-105.124 199.901,-103.455"/>
<polygon fill="midnightblue" stroke="midnightblue" points="171.335,-105.117 162.127,-110.357 172.594,-112.003 171.335,-105.117"/>
</g>
<!-- Node3 -->
<g id="node3" class="node"><title>Node3</title>
<g id="a_node3"><a xlink:href="../../da/da1/classslogo_1_1backend_1_1impl_1_1_backend.html#a4e32fe759ec977d48686b98339d37b30" target="_top" xlink:title="slogo.backend.impl.Backend.execute">
<polygon fill="white" stroke="black" points="445,-245.5 445,-264.5 639,-264.5 639,-245.5 445,-245.5"/>
<text text-anchor="middle" x="542" y="-252.5" font-family="Helvetica,sans-Serif" font-size="10.00">slogo.backend.impl.Backend.execute</text>
</a>
</g>
</g>
<!-- Node2&#45;&gt;Node3 -->
<g id="edge2" class="edge"><title>Node2&#45;&gt;Node3</title>
<path fill="none" stroke="midnightblue" d="M307.674,-183.226C330.35,-200.1 364.477,-222.824 398,-235 412.726,-240.349 428.785,-244.278 444.649,-247.162"/>
<polygon fill="midnightblue" stroke="midnightblue" points="309.652,-180.333 299.569,-177.08 305.422,-185.911 309.652,-180.333"/>
</g>
<!-- Node4 -->
<g id="node4" class="node"><title>Node4</title>
<g id="a_node4"><a xlink:href="../../d8/d7d/classslogo_1_1backend_1_1impl_1_1evaluation_1_1commands_1_1multipleturtle_1_1_ask.html#adf155b59cb1ec5460d3b25b419d53156" target="_top" xlink:title="slogo.backend.impl.evaluation.commands.multipleturtle.\lAsk.executeRaw">
<polygon fill="white" stroke="black" points="398,-196 398,-226 686,-226 686,-196 398,-196"/>
<text text-anchor="start" x="406" y="-214" font-family="Helvetica,sans-Serif" font-size="10.00">slogo.backend.impl.evaluation.commands.multipleturtle.</text>
<text text-anchor="middle" x="542" y="-203" font-family="Helvetica,sans-Serif" font-size="10.00">Ask.executeRaw</text>
</a>
</g>
</g>
<!-- Node2&#45;&gt;Node4 -->
<g id="edge3" class="edge"><title>Node2&#45;&gt;Node4</title>
<path fill="none" stroke="midnightblue" d="M362.607,-179.058C374.469,-181.445 386.541,-183.824 398,-186 415.58,-189.339 434.408,-192.749 452.439,-195.934"/>
<polygon fill="midnightblue" stroke="midnightblue" points="363.205,-175.608 352.71,-177.055 361.817,-182.469 363.205,-175.608"/>
</g>
<!-- Node5 -->
<g id="node5" class="node"><title>Node5</title>
<g id="a_node5"><a xlink:href="../../d1/dce/classslogo_1_1backend_1_1impl_1_1evaluation_1_1commands_1_1control_1_1_conditional_operation.html#a66bac653c33a650dff344fd64547af2a" target="_top" xlink:title="slogo.backend.impl.evaluation.commands.control.\lConditionalOperation.kipling">
<polygon fill="white" stroke="black" points="413.5,-147 413.5,-177 670.5,-177 670.5,-147 413.5,-147"/>
<text text-anchor="start" x="421.5" y="-165" font-family="Helvetica,sans-Serif" font-size="10.00">slogo.backend.impl.evaluation.commands.control.</text>
<text text-anchor="middle" x="542" y="-154" font-family="Helvetica,sans-Serif" font-size="10.00">ConditionalOperation.kipling</text>
</a>
</g>
</g>
<!-- Node2&#45;&gt;Node5 -->
<g id="edge4" class="edge"><title>Node2&#45;&gt;Node5</title>
<path fill="none" stroke="midnightblue" d="M372.23,-162C385.515,-162 399.396,-162 413.243,-162"/>
<polygon fill="midnightblue" stroke="midnightblue" points="372.196,-158.5 362.196,-162 372.196,-165.5 372.196,-158.5"/>
</g>
<!-- Node8 -->
<g id="node8" class="node"><title>Node8</title>
<g id="a_node8"><a xlink:href="../../d4/d63/classslogo_1_1backend_1_1impl_1_1evaluation_1_1commands_1_1control_1_1_loop_operation.html#a500217fe29d5eecc547fbc5c7ede4dc2" target="_top" xlink:title="slogo.backend.impl.evaluation.commands.control.\lLoopOperation.loop">
<polygon fill="white" stroke="black" points="413.5,-98 413.5,-128 670.5,-128 670.5,-98 413.5,-98"/>
<text text-anchor="start" x="421.5" y="-116" font-family="Helvetica,sans-Serif" font-size="10.00">slogo.backend.impl.evaluation.commands.control.</text>
<text text-anchor="middle" x="542" y="-105" font-family="Helvetica,sans-Serif" font-size="10.00">LoopOperation.loop</text>
</a>
</g>
</g>
<!-- Node2&#45;&gt;Node8 -->
<g id="edge7" class="edge"><title>Node2&#45;&gt;Node8</title>
<path fill="none" stroke="midnightblue" d="M358.844,-144.865C371.897,-142.135 385.318,-139.418 398,-137 414.073,-133.936 431.203,-130.88 447.817,-128.026"/>
<polygon fill="midnightblue" stroke="midnightblue" points="358.015,-141.462 348.952,-146.949 359.458,-148.312 358.015,-141.462"/>
</g>
<!-- Node6 -->
<g id="node6" class="node"><title>Node6</title>
<g id="a_node6"><a xlink:href="../../d9/d51/classslogo_1_1backend_1_1impl_1_1evaluation_1_1commands_1_1control_1_1_if.html#a9414994389e47aef548aee8bcb1a584e" target="_top" xlink:title="slogo.backend.impl.evaluation.commands.control.\lIf.executeRaw">
<polygon fill="white" stroke="black" points="722.5,-196 722.5,-226 979.5,-226 979.5,-196 722.5,-196"/>
<text text-anchor="start" x="730.5" y="-214" font-family="Helvetica,sans-Serif" font-size="10.00">slogo.backend.impl.evaluation.commands.control.</text>
<text text-anchor="middle" x="851" y="-203" font-family="Helvetica,sans-Serif" font-size="10.00">If.executeRaw</text>
</a>
</g>
</g>
<!-- Node5&#45;&gt;Node6 -->
<g id="edge5" class="edge"><title>Node5&#45;&gt;Node6</title>
<path fill="none" stroke="midnightblue" d="M647.491,-178.678C682.662,-184.291 721.668,-190.517 755.982,-195.994"/>
<polygon fill="midnightblue" stroke="midnightblue" points="647.623,-175.155 637.196,-177.035 646.52,-182.067 647.623,-175.155"/>
</g>
<!-- Node7 -->
<g id="node7" class="node"><title>Node7</title>
<g id="a_node7"><a xlink:href="../../d9/d12/classslogo_1_1backend_1_1impl_1_1evaluation_1_1commands_1_1control_1_1_if_else.html#a1b3031a11dc4d9ea0b87f539c05ff72b" target="_top" xlink:title="slogo.backend.impl.evaluation.commands.control.\lIfElse.executeRaw">
<polygon fill="white" stroke="black" points="722.5,-147 722.5,-177 979.5,-177 979.5,-147 722.5,-147"/>
<text text-anchor="start" x="730.5" y="-165" font-family="Helvetica,sans-Serif" font-size="10.00">slogo.backend.impl.evaluation.commands.control.</text>
<text text-anchor="middle" x="851" y="-154" font-family="Helvetica,sans-Serif" font-size="10.00">IfElse.executeRaw</text>
</a>
</g>
</g>
<!-- Node5&#45;&gt;Node7 -->
<g id="edge6" class="edge"><title>Node5&#45;&gt;Node7</title>
<path fill="none" stroke="midnightblue" d="M680.612,-162C694.511,-162 708.586,-162 722.374,-162"/>
<polygon fill="midnightblue" stroke="midnightblue" points="680.529,-158.5 670.529,-162 680.529,-165.5 680.529,-158.5"/>
</g>
<!-- Node9 -->
<g id="node9" class="node"><title>Node9</title>
<g id="a_node9"><a xlink:href="../../dd/d73/classslogo_1_1backend_1_1impl_1_1evaluation_1_1commands_1_1control_1_1_do_times.html#a839b4dace74340585e7f52fa02b8a500" target="_top" xlink:title="slogo.backend.impl.evaluation.commands.control.\lDoTimes.executeRaw">
<polygon fill="white" stroke="black" points="722.5,-98 722.5,-128 979.5,-128 979.5,-98 722.5,-98"/>
<text text-anchor="start" x="730.5" y="-116" font-family="Helvetica,sans-Serif" font-size="10.00">slogo.backend.impl.evaluation.commands.control.</text>
<text text-anchor="middle" x="851" y="-105" font-family="Helvetica,sans-Serif" font-size="10.00">DoTimes.executeRaw</text>
</a>
</g>
</g>
<!-- Node8&#45;&gt;Node9 -->
<g id="edge8" class="edge"><title>Node8&#45;&gt;Node9</title>
<path fill="none" stroke="midnightblue" d="M680.612,-113C694.511,-113 708.586,-113 722.374,-113"/>
<polygon fill="midnightblue" stroke="midnightblue" points="680.529,-109.5 670.529,-113 680.529,-116.5 680.529,-109.5"/>
</g>
<!-- Node10 -->
<g id="node10" class="node"><title>Node10</title>
<g id="a_node10"><a xlink:href="../../d1/d3e/classslogo_1_1backend_1_1impl_1_1evaluation_1_1commands_1_1control_1_1_repeat.html#a261456e8fb1baf83c9241fdb1fd2e94e" target="_top" xlink:title="slogo.backend.impl.evaluation.commands.control.\lRepeat.executeRaw">
<polygon fill="white" stroke="black" points="722.5,-49 722.5,-79 979.5,-79 979.5,-49 722.5,-49"/>
<text text-anchor="start" x="730.5" y="-67" font-family="Helvetica,sans-Serif" font-size="10.00">slogo.backend.impl.evaluation.commands.control.</text>
<text text-anchor="middle" x="851" y="-56" font-family="Helvetica,sans-Serif" font-size="10.00">Repeat.executeRaw</text>
</a>
</g>
</g>
<!-- Node8&#45;&gt;Node10 -->
<g id="edge9" class="edge"><title>Node8&#45;&gt;Node10</title>
<path fill="none" stroke="midnightblue" d="M647.491,-96.3222C682.662,-90.7087 721.668,-84.483 755.982,-79.0062"/>
<polygon fill="midnightblue" stroke="midnightblue" points="646.52,-92.9329 637.196,-97.9654 647.623,-99.8454 646.52,-92.9329"/>
</g>
<!-- Node11 -->
<g id="node11" class="node"><title>Node11</title>
<g id="a_node11"><a xlink:href="../../d4/dac/classslogo_1_1backend_1_1impl_1_1evaluation_1_1commands_1_1control_1_1_for.html#a9ced77a4750641a0722d17214e3bff27" target="_top" xlink:title="slogo.backend.impl.evaluation.commands.control.\lFor.executeRaw">
<polygon fill="white" stroke="black" points="722.5,-0 722.5,-30 979.5,-30 979.5,-0 722.5,-0"/>
<text text-anchor="start" x="730.5" y="-18" font-family="Helvetica,sans-Serif" font-size="10.00">slogo.backend.impl.evaluation.commands.control.</text>
<text text-anchor="middle" x="851" y="-7" font-family="Helvetica,sans-Serif" font-size="10.00">For.executeRaw</text>
</a>
</g>
</g>
<!-- Node8&#45;&gt;Node11 -->
<g id="edge10" class="edge"><title>Node8&#45;&gt;Node11</title>
<path fill="none" stroke="midnightblue" d="M675.455,-93.837C679.078,-92.0482 682.603,-90.1066 686,-88 708.966,-73.7574 699.122,-53.3833 722,-39 727.455,-35.5703 733.282,-32.6069 739.33,-30.0483"/>
<polygon fill="midnightblue" stroke="midnightblue" points="673.941,-90.6799 666.259,-97.9761 676.815,-97.063 673.941,-90.6799"/>
</g>
<!-- Node13 -->
<g id="node13" class="node"><title>Node13</title>
<g id="a_node13"><a xlink:href="../../df/ddc/classslogo_1_1backend_1_1test_1_1_evaluation_test.html#afda0082434c0d095a95c638345f9df1d" target="_top" xlink:title="slogo.backend.test.Evaluation\lTest.testEvaluate">
<polygon fill="white" stroke="black" points="462,-49 462,-79 622,-79 622,-49 462,-49"/>
<text text-anchor="start" x="470" y="-67" font-family="Helvetica,sans-Serif" font-size="10.00">slogo.backend.test.Evaluation</text>
<text text-anchor="middle" x="542" y="-56" font-family="Helvetica,sans-Serif" font-size="10.00">Test.testEvaluate</text>
</a>
</g>
</g>
<!-- Node12&#45;&gt;Node13 -->
<g id="edge12" class="edge"><title>Node12&#45;&gt;Node13</title>
<path fill="none" stroke="midnightblue" d="M370.044,-80.4381C399.852,-77.5719 432.861,-74.398 461.861,-71.6096"/>
<polygon fill="midnightblue" stroke="midnightblue" points="369.687,-76.9562 360.068,-81.3974 370.357,-83.9241 369.687,-76.9562"/>
</g>
</g>
</svg>
        <g id="navigator" transform="translate(0 0)" fill="#404254">
                <rect fill="#f2f5e9" fill-opacity="0.5" stroke="#606060" stroke-width=".5" x="0" y="0" width="60" height="60"/>
                <use id="zoomplus" xlink:href="#zoomPlus" x="17" y="9" onmousedown="handleZoom(evt,'in')"/>
                <use id="zoomminus" xlink:href="#zoomMin" x="42" y="9" onmousedown="handleZoom(evt,'out')"/>
                <use id="reset" xlink:href="#resetDef" x="30" y="36" onmousedown="handleReset()"/>
                <g id="arrowUp" xlink:href="#dirArrow" transform="translate(30 24)" onmousedown="handlePan(0,-1)">
                  <use xlink:href="#rim" fill="#404040">
                        <set attributeName="fill" to="#808080" begin="arrowUp.mouseover" end="arrowUp.mouseout"/>
                  </use>
                  <path fill="none" stroke="white" stroke-width="1.5" d="M0,-3.0v7 M-2.5,-0.5L0,-3.0L2.5,-0.5"/>
                </g>
                <g id="arrowRight" xlink:href="#dirArrow" transform="rotate(90) translate(36 -43)" onmousedown="handlePan(1,0)">
                  <use xlink:href="#rim" fill="#404040">
                        <set attributeName="fill" to="#808080" begin="arrowRight.mouseover" end="arrowRight.mouseout"/>
                  </use>
                  <path fill="none" stroke="white" stroke-width="1.5" d="M0,-3.0v7 M-2.5,-0.5L0,-3.0L2.5,-0.5"/>
                </g>
                <g id="arrowDown" xlink:href="#dirArrow" transform="rotate(180) translate(-30 -48)" onmousedown="handlePan(0,1)">
                  <use xlink:href="#rim" fill="#404040">
                        <set attributeName="fill" to="#808080" begin="arrowDown.mouseover" end="arrowDown.mouseout"/>
                  </use>
                  <path fill="none" stroke="white" stroke-width="1.5" d="M0,-3.0v7 M-2.5,-0.5L0,-3.0L2.5,-0.5"/>
                </g>
                <g id="arrowLeft" xlink:href="#dirArrow" transform="rotate(270) translate(-36 17)" onmousedown="handlePan(-1,0)">
                  <use xlink:href="#rim" fill="#404040">
                        <set attributeName="fill" to="#808080" begin="arrowLeft.mouseover" end="arrowLeft.mouseout"/>
                  </use>
                  <path fill="none" stroke="white" stroke-width="1.5" d="M0,-3.0v7 M-2.5,-0.5L0,-3.0L2.5,-0.5"/>
                </g>
        </g>
        <svg viewBox="0 0 15 15" width="100%" height="30px" preserveAspectRatio="xMaxYMin meet">
         <g id="arrow_out" transform="scale(0.3 0.3)">
          <a xlink:href="interfaceslogo_1_1backend_1_1parsing_1_1_i_syntax_node_ae9c7f128dc4e816a6a383fe8feb087e4_icgraph_org.svg" target="_base">
           <rect id="button" ry="5" rx="5" y="6" x="6" height="38" width="38"
                fill="#f2f5e9" fill-opacity="0.5" stroke="#606060" stroke-width="1.0"/>
           <path id="arrow"
             d="M 11.500037,31.436501 C 11.940474,20.09759 22.043105,11.32322 32.158766,21.979434 L 37.068811,17.246167 C 37.068811,17.246167 37.088388,32 37.088388,32 L 22.160133,31.978069 C 22.160133,31.978069 26.997745,27.140456 26.997745,27.140456 C 18.528582,18.264221 13.291696,25.230495 11.500037,31.436501 z"
             style="fill:#404040;"/>
          </a>
         </g>
        </svg>
</svg>
