<?xml version="1.0" encoding="UTF-8" standalone="no"?>
<!DOCTYPE svg PUBLIC "-//W3C//DTD SVG 1.1//EN"
 "http://www.w3.org/Graphics/SVG/1.1/DTD/svg11.dtd">
<!-- Generated by graphviz version 2.36.0 (20140111.2315)
 -->
<!-- Title: slogo.backend.parsing.ISyntaxNode.setChildren Pages: 1 -->
<svg width="958pt" height="175pt"
 viewBox="0.00 0.00 958.00 175.00" xmlns="http://www.w3.org/2000/svg" xmlns:xlink="http://www.w3.org/1999/xlink">
<g id="graph0" class="graph" transform="scale(1 1) rotate(0) translate(4 171)">
<title>slogo.backend.parsing.ISyntaxNode.setChildren</title>
<polygon fill="white" stroke="none" points="-4,4 -4,-171 954,-171 954,4 -4,4"/>
<!-- Node1 -->
<g id="node1" class="node"><title>Node1</title>
<polygon fill="#bfbfbf" stroke="black" points="0,-73 0,-103 162,-103 162,-73 0,-73"/>
<text text-anchor="start" x="8" y="-91" font-family="Helvetica,sans-Serif" font-size="10.00">slogo.backend.parsing.ISyntax</text>
<text text-anchor="middle" x="81" y="-80" font-family="Helvetica,sans-Serif" font-size="10.00">Node.setChildren</text>
</g>
<!-- Node2 -->
<g id="node2" class="node"><title>Node2</title>
<g id="a_node2"><a xlink:href="../../d3/df5/classslogo_1_1backend_1_1impl_1_1parsing_1_1_parser.html#a248104544de69bf5fa16e77f0cffa1b8" target="_top" xlink:title="slogo.backend.impl.parsing.\lParser.createNestedNode">
<polygon fill="white" stroke="black" points="198,-73 198,-103 348,-103 348,-73 198,-73"/>
<text text-anchor="start" x="206" y="-91" font-family="Helvetica,sans-Serif" font-size="10.00">slogo.backend.impl.parsing.</text>
<text text-anchor="middle" x="273" y="-80" font-family="Helvetica,sans-Serif" font-size="10.00">Parser.createNestedNode</text>
</a>
</g>
</g>
<!-- Node1&#45;&gt;Node2 -->
<g id="edge1" class="edge"><title>Node1&#45;&gt;Node2</title>
<path fill="none" stroke="midnightblue" d="M172.097,-88C180.711,-88 189.38,-88 197.817,-88"/>
<polygon fill="midnightblue" stroke="midnightblue" points="172.026,-84.5001 162.026,-88 172.026,-91.5001 172.026,-84.5001"/>
</g>
<!-- Node3 -->
<g id="node3" class="node"><title>Node3</title>
<g id="a_node3"><a xlink:href="../../d3/df5/classslogo_1_1backend_1_1impl_1_1parsing_1_1_parser.html#a45c72cbdffe8b984e4e15769eeb9b437" target="_top" xlink:title="slogo.backend.impl.parsing.\lParser.reduce">
<polygon fill="white" stroke="black" points="384,-73 384,-103 534,-103 534,-73 384,-73"/>
<text text-anchor="start" x="392" y="-91" font-family="Helvetica,sans-Serif" font-size="10.00">slogo.backend.impl.parsing.</text>
<text text-anchor="middle" x="459" y="-80" font-family="Helvetica,sans-Serif" font-size="10.00">Parser.reduce</text>
</a>
</g>
</g>
<!-- Node2&#45;&gt;Node3 -->
<g id="edge2" class="edge"><title>Node2&#45;&gt;Node3</title>
<path fill="none" stroke="midnightblue" d="M358.066,-88C366.654,-88 375.336,-88 383.808,-88"/>
<polygon fill="midnightblue" stroke="midnightblue" points="358.045,-84.5001 348.044,-88 358.044,-91.5001 358.045,-84.5001"/>
</g>
<!-- Node4 -->
<g id="node4" class="node"><title>Node4</title>
<g id="a_node4"><a xlink:href="../../d3/df5/classslogo_1_1backend_1_1impl_1_1parsing_1_1_parser.html#a388145ba8a86a6e54edecca6832f3514" target="_top" xlink:title="slogo.backend.impl.parsing.\lParser.parse">
<polygon fill="white" stroke="black" points="570,-73 570,-103 720,-103 720,-73 570,-73"/>
<text text-anchor="start" x="578" y="-91" font-family="Helvetica,sans-Serif" font-size="10.00">slogo.backend.impl.parsing.</text>
<text text-anchor="middle" x="645" y="-80" font-family="Helvetica,sans-Serif" font-size="10.00">Parser.parse</text>
</a>
</g>
</g>
<!-- Node3&#45;&gt;Node4 -->
<g id="edge3" class="edge"><title>Node3&#45;&gt;Node4</title>
<path fill="none" stroke="midnightblue" d="M544.066,-88C552.654,-88 561.336,-88 569.808,-88"/>
<polygon fill="midnightblue" stroke="midnightblue" points="544.045,-84.5001 534.044,-88 544.044,-91.5001 544.045,-84.5001"/>
</g>
<!-- Node5 -->
<g id="node5" class="node"><title>Node5</title>
<g id="a_node5"><a xlink:href="../../da/da1/classslogo_1_1backend_1_1impl_1_1_backend.html#a4e32fe759ec977d48686b98339d37b30" target="_top" xlink:title="slogo.backend.impl.Backend.execute">
<polygon fill="white" stroke="black" points="756,-147.5 756,-166.5 950,-166.5 950,-147.5 756,-147.5"/>
<text text-anchor="middle" x="853" y="-154.5" font-family="Helvetica,sans-Serif" font-size="10.00">slogo.backend.impl.Backend.execute</text>
</a>
</g>
</g>
<!-- Node4&#45;&gt;Node5 -->
<g id="edge4" class="edge"><title>Node4&#45;&gt;Node5</title>
<path fill="none" stroke="midnightblue" d="M684.334,-107.505C705.119,-117.454 731.501,-129.092 756,-137 768.799,-141.131 782.841,-144.618 796.139,-147.463"/>
<polygon fill="midnightblue" stroke="midnightblue" points="685.73,-104.291 675.205,-103.071 682.672,-110.588 685.73,-104.291"/>
</g>
<!-- Node6 -->
<g id="node6" class="node"><title>Node6</title>
<g id="a_node6"><a xlink:href="../../d6/df5/classslogo_1_1backend_1_1test_1_1_parsing_test.html#a83bcd3f6b2ff419efe7c9381346e637b" target="_top" xlink:title="slogo.backend.test.Parsing\lTest.testInvalidCommand">
<polygon fill="white" stroke="black" points="780.5,-98 780.5,-128 925.5,-128 925.5,-98 780.5,-98"/>
<text text-anchor="start" x="788.5" y="-116" font-family="Helvetica,sans-Serif" font-size="10.00">slogo.backend.test.Parsing</text>
<text text-anchor="middle" x="853" y="-105" font-family="Helvetica,sans-Serif" font-size="10.00">Test.testInvalidCommand</text>
</a>
</g>
</g>
<!-- Node4&#45;&gt;Node6 -->
<g id="edge5" class="edge"><title>Node4&#45;&gt;Node6</title>
<path fill="none" stroke="midnightblue" d="M730.309,-98.2317C746.904,-100.246 764.168,-102.341 780.3,-104.299"/>
<polygon fill="midnightblue" stroke="midnightblue" points="730.429,-94.7206 720.08,-96.9903 729.585,-101.67 730.429,-94.7206"/>
</g>
<!-- Node7 -->
<g id="node7" class="node"><title>Node7</title>
<g id="a_node7"><a xlink:href="../../d6/df5/classslogo_1_1backend_1_1test_1_1_parsing_test.html#a3116cffcaf5fb3ba840f007570afeb62" target="_top" xlink:title="slogo.backend.test.Parsing\lTest.testParse">
<polygon fill="white" stroke="black" points="780.5,-49 780.5,-79 925.5,-79 925.5,-49 780.5,-49"/>
<text text-anchor="start" x="788.5" y="-67" font-family="Helvetica,sans-Serif" font-size="10.00">slogo.backend.test.Parsing</text>
<text text-anchor="middle" x="853" y="-56" font-family="Helvetica,sans-Serif" font-size="10.00">Test.testParse</text>
</a>
</g>
</g>
<!-- Node4&#45;&gt;Node7 -->
<g id="edge6" class="edge"><title>Node4&#45;&gt;Node7</title>
<path fill="none" stroke="midnightblue" d="M730.309,-78.1775C746.904,-76.2442 764.168,-74.2329 780.3,-72.3534"/>
<polygon fill="midnightblue" stroke="midnightblue" points="729.607,-74.7356 720.08,-79.3694 730.418,-81.6885 729.607,-74.7356"/>
</g>
<!-- Node8 -->
<g id="node8" class="node"><title>Node8</title>
<g id="a_node8"><a xlink:href="../../d6/df5/classslogo_1_1backend_1_1test_1_1_parsing_test.html#a26b09f1404285875861f843ebdba0a31" target="_top" xlink:title="slogo.backend.test.Parsing\lTest.testUnparseableCommand">
<polygon fill="white" stroke="black" points="769,-0 769,-30 937,-30 937,-0 769,-0"/>
<text text-anchor="start" x="777" y="-18" font-family="Helvetica,sans-Serif" font-size="10.00">slogo.backend.test.Parsing</text>
<text text-anchor="middle" x="853" y="-7" font-family="Helvetica,sans-Serif" font-size="10.00">Test.testUnparseableCommand</text>
</a>
</g>
</g>
<!-- Node4&#45;&gt;Node8 -->
<g id="edge7" class="edge"><title>Node4&#45;&gt;Node8</title>
<path fill="none" stroke="midnightblue" d="M686.59,-68.4702C707.095,-59.0738 732.542,-48.1166 756,-40 766.417,-36.3959 777.625,-33.0313 788.578,-30.0118"/>
<polygon fill="midnightblue" stroke="midnightblue" points="684.849,-65.4193 677.248,-72.7995 687.792,-71.7705 684.849,-65.4193"/>
</g>
</g>
</svg>
