<?xml version="1.0" encoding="UTF-8" standalone="no"?>
<!DOCTYPE svg PUBLIC "-//W3C//DTD SVG 1.1//EN"
 "http://www.w3.org/Graphics/SVG/1.1/DTD/svg11.dtd">
<!-- Generated by graphviz version 2.36.0 (20140111.2315)
 -->
<!-- Title: /tmp/git/duke&#45;compsci308&#45;fall2014/slogo_team03/repository/src/slogo Pages: 1 -->
<svg width="333pt" height="111pt"
 viewBox="0.00 0.00 333.00 111.00" xmlns="http://www.w3.org/2000/svg" xmlns:xlink="http://www.w3.org/1999/xlink">
<g id="graph0" class="graph" transform="scale(1 1) rotate(0) translate(4 107)">
<title>/tmp/git/duke&#45;compsci308&#45;fall2014/slogo_team03/repository/src/slogo</title>
<polygon fill="white" stroke="none" points="-4,4 -4,-107 329,-107 329,4 -4,4"/>
<g id="clust1" class="cluster"><title>clusterdir_aa041d79d3205349190d778a7ea2b6b0</title>
<g id="a_clust1"><a xlink:href="dir_aa041d79d3205349190d778a7ea2b6b0.html" target="_top" xlink:title="src">
<polygon fill="#ddddee" stroke="black" points="8,-8 8,-95 317,-95 317,-8 8,-8"/>
<text text-anchor="middle" x="162.5" y="-83" font-family="Helvetica,sans-Serif" font-size="10.00">src</text>
</a>
</g>
</g>
<g id="clust2" class="cluster"><title>clusterdir_1f983e869f102205a336b35f7f1ec6b2</title>
<g id="a_clust2"><a xlink:href="dir_1f983e869f102205a336b35f7f1ec6b2.html" target="_top">
<polygon fill="#eeeeff" stroke="black" points="16,-16 16,-68 309,-68 309,-16 16,-16"/>
</a>
</g>
</g>
<!-- dir_1f983e869f102205a336b35f7f1ec6b2 -->
<g id="node1" class="node"><title>dir_1f983e869f102205a336b35f7f1ec6b2</title>
<text text-anchor="middle" x="274" y="-39.5" font-family="Helvetica,sans-Serif" font-size="10.00">slogo</text>
</g>
<!-- dir_5b799b1ac103f709219fd1674ed9ad9e -->
<g id="node2" class="node"><title>dir_5b799b1ac103f709219fd1674ed9ad9e</title>
<g id="a_node2"><a xlink:href="dir_5b799b1ac103f709219fd1674ed9ad9e.html" target="_top" xlink:title="backend">
<polygon fill="white" stroke="red" points="228.25,-60 171.75,-60 171.75,-24 228.25,-24 228.25,-60"/>
<text text-anchor="middle" x="200" y="-39.5" font-family="Helvetica,sans-Serif" font-size="10.00">backend</text>
</a>
</g>
</g>
<!-- dir_b795477bb357b50c2502d119ebdcd295 -->
<g id="node3" class="node"><title>dir_b795477bb357b50c2502d119ebdcd295</title>
<g id="a_node3"><a xlink:href="dir_b795477bb357b50c2502d119ebdcd295.html" target="_top" xlink:title="frontend">
<polygon fill="white" stroke="red" points="153.25,-60 96.75,-60 96.75,-24 153.25,-24 153.25,-60"/>
<text text-anchor="middle" x="125" y="-39.5" font-family="Helvetica,sans-Serif" font-size="10.00">frontend</text>
</a>
</g>
</g>
<!-- dir_8bd84b66608d070ea7e424d43590b3e7 -->
<g id="node4" class="node"><title>dir_8bd84b66608d070ea7e424d43590b3e7</title>
<g id="a_node4"><a xlink:href="dir_8bd84b66608d070ea7e424d43590b3e7.html" target="_top" xlink:title="UI">
<polygon fill="white" stroke="black" points="78,-60 24,-60 24,-24 78,-24 78,-60"/>
<text text-anchor="middle" x="51" y="-39.5" font-family="Helvetica,sans-Serif" font-size="10.00">UI</text>
</a>
</g>
</g>
</g>
</svg>
