<?xml version="1.0" encoding="UTF-8" standalone="no"?>
<!DOCTYPE svg PUBLIC "-//W3C//DTD SVG 1.1//EN"
 "http://www.w3.org/Graphics/SVG/1.1/DTD/svg11.dtd">
<!-- Generated by graphviz version 2.36.0 (20140111.2315)
 -->
<!-- Title: /tmp/git/duke&#45;compsci308&#45;fall2014/slogo_team03/repository/src/slogo/backend Pages: 1 -->
<svg width="580pt" height="111pt"
 viewBox="0.00 0.00 580.00 111.00" xmlns="http://www.w3.org/2000/svg" xmlns:xlink="http://www.w3.org/1999/xlink">
<g id="graph0" class="graph" transform="scale(1 1) rotate(0) translate(4 107)">
<title>/tmp/git/duke&#45;compsci308&#45;fall2014/slogo_team03/repository/src/slogo/backend</title>
<polygon fill="white" stroke="none" points="-4,4 -4,-107 576,-107 576,4 -4,4"/>
<g id="clust1" class="cluster"><title>clusterdir_1f983e869f102205a336b35f7f1ec6b2</title>
<g id="a_clust1"><a xlink:href="dir_1f983e869f102205a336b35f7f1ec6b2.html" target="_top" xlink:title="slogo">
<polygon fill="#ddddee" stroke="black" points="8,-8 8,-95 564,-95 564,-8 8,-8"/>
<text text-anchor="middle" x="286" y="-83" font-family="Helvetica,sans-Serif" font-size="10.00">slogo</text>
</a>
</g>
</g>
<g id="clust2" class="cluster"><title>clusterdir_5b799b1ac103f709219fd1674ed9ad9e</title>
<g id="a_clust2"><a xlink:href="dir_5b799b1ac103f709219fd1674ed9ad9e.html" target="_top">
<polygon fill="#eeeeff" stroke="black" points="16,-16 16,-68 556,-68 556,-16 16,-16"/>
</a>
</g>
</g>
<!-- dir_5b799b1ac103f709219fd1674ed9ad9e -->
<g id="node1" class="node"><title>dir_5b799b1ac103f709219fd1674ed9ad9e</title>
<text text-anchor="middle" x="519" y="-39.5" font-family="Helvetica,sans-Serif" font-size="10.00">backend</text>
</g>
<!-- dir_674f0a0e3940e67b62bb4d92fc5ecac0 -->
<g id="node2" class="node"><title>dir_674f0a0e3940e67b62bb4d92fc5ecac0</title>
<g id="a_node2"><a xlink:href="dir_674f0a0e3940e67b62bb4d92fc5ecac0.html" target="_top" xlink:title="evaluation">
<polygon fill="white" stroke="black" points="472,-60 406,-60 406,-24 472,-24 472,-60"/>
<text text-anchor="middle" x="439" y="-39.5" font-family="Helvetica,sans-Serif" font-size="10.00">evaluation</text>
</a>
</g>
</g>
<!-- dir_299a59273d31b47d297cfe43e1f395d3 -->
<g id="node3" class="node"><title>dir_299a59273d31b47d297cfe43e1f395d3</title>
<g id="a_node3"><a xlink:href="dir_299a59273d31b47d297cfe43e1f395d3.html" target="_top" xlink:title="impl">
<polygon fill="white" stroke="red" points="388,-60 334,-60 334,-24 388,-24 388,-60"/>
<text text-anchor="middle" x="361" y="-39.5" font-family="Helvetica,sans-Serif" font-size="10.00">impl</text>
</a>
</g>
</g>
<!-- dir_f158cdd18146b65cb70e253841f947f8 -->
<g id="node4" class="node"><title>dir_f158cdd18146b65cb70e253841f947f8</title>
<g id="a_node4"><a xlink:href="dir_f158cdd18146b65cb70e253841f947f8.html" target="_top" xlink:title="parsing">
<polygon fill="white" stroke="black" points="316,-60 262,-60 262,-24 316,-24 316,-60"/>
<text text-anchor="middle" x="289" y="-39.5" font-family="Helvetica,sans-Serif" font-size="10.00">parsing</text>
</a>
</g>
</g>
<!-- dir_cab90ab46ed4039fea47a2a15d729337 -->
<g id="node5" class="node"><title>dir_cab90ab46ed4039fea47a2a15d729337</title>
<g id="a_node5"><a xlink:href="dir_cab90ab46ed4039fea47a2a15d729337.html" target="_top" xlink:title="test">
<polygon fill="white" stroke="black" points="244,-60 190,-60 190,-24 244,-24 244,-60"/>
<text text-anchor="middle" x="217" y="-39.5" font-family="Helvetica,sans-Serif" font-size="10.00">test</text>
</a>
</g>
</g>
<!-- dir_422e71c538f868829584ee9a686e6558 -->
<g id="node6" class="node"><title>dir_422e71c538f868829584ee9a686e6558</title>
<g id="a_node6"><a xlink:href="dir_422e71c538f868829584ee9a686e6558.html" target="_top" xlink:title="tokenization">
<polygon fill="white" stroke="black" points="171.25,-60 96.75,-60 96.75,-24 171.25,-24 171.25,-60"/>
<text text-anchor="middle" x="134" y="-39.5" font-family="Helvetica,sans-Serif" font-size="10.00">tokenization</text>
</a>
</g>
</g>
<!-- dir_221f3b211bc2cc7e43dcc6f4e7d44180 -->
<g id="node7" class="node"><title>dir_221f3b211bc2cc7e43dcc6f4e7d44180</title>
<g id="a_node7"><a xlink:href="dir_221f3b211bc2cc7e43dcc6f4e7d44180.html" target="_top" xlink:title="util">
<polygon fill="white" stroke="black" points="78,-60 24,-60 24,-24 78,-24 78,-60"/>
<text text-anchor="middle" x="51" y="-39.5" font-family="Helvetica,sans-Serif" font-size="10.00">util</text>
</a>
</g>
</g>
</g>
</svg>
