<?xml version="1.0" encoding="UTF-8" standalone="no"?>
<!DOCTYPE svg PUBLIC "-//W3C//DTD SVG 1.1//EN"
 "http://www.w3.org/Graphics/SVG/1.1/DTD/svg11.dtd">
<!-- Generated by graphviz version 2.36.0 (20140111.2315)
 -->
<!-- Title: /tmp/git/duke&#45;compsci308&#45;fall2014/slogo_team03/repository/src/slogo/backend/impl/evaluation/commands Pages: 1 -->
<svg width="610pt" height="111pt"
 viewBox="0.00 0.00 610.00 111.00" xmlns="http://www.w3.org/2000/svg" xmlns:xlink="http://www.w3.org/1999/xlink">
<g id="graph0" class="graph" transform="scale(1 1) rotate(0) translate(4 107)">
<title>/tmp/git/duke&#45;compsci308&#45;fall2014/slogo_team03/repository/src/slogo/backend/impl/evaluation/commands</title>
<polygon fill="white" stroke="none" points="-4,4 -4,-107 606,-107 606,4 -4,4"/>
<g id="clust1" class="cluster"><title>clusterdir_4970cfcdcd2c23ff0faf3852ad70680c</title>
<g id="a_clust1"><a xlink:href="dir_4970cfcdcd2c23ff0faf3852ad70680c.html" target="_top" xlink:title="evaluation">
<polygon fill="#ddddee" stroke="black" points="8,-8 8,-95 594,-95 594,-8 8,-8"/>
<text text-anchor="middle" x="301" y="-83" font-family="Helvetica,sans-Serif" font-size="10.00">evaluation</text>
</a>
</g>
</g>
<g id="clust2" class="cluster"><title>clusterdir_f6906fccfbee19b2d0ae90441b431c75</title>
<g id="a_clust2"><a xlink:href="dir_f6906fccfbee19b2d0ae90441b431c75.html" target="_top">
<polygon fill="#eeeeff" stroke="black" points="16,-16 16,-68 586,-68 586,-16 16,-16"/>
</a>
</g>
</g>
<!-- dir_f6906fccfbee19b2d0ae90441b431c75 -->
<g id="node1" class="node"><title>dir_f6906fccfbee19b2d0ae90441b431c75</title>
<text text-anchor="middle" x="542" y="-39.5" font-family="Helvetica,sans-Serif" font-size="10.00">commands</text>
</g>
<!-- dir_d21c83b565b07faec63e02f2a42feb86 -->
<g id="node2" class="node"><title>dir_d21c83b565b07faec63e02f2a42feb86</title>
<g id="a_node2"><a xlink:href="dir_d21c83b565b07faec63e02f2a42feb86.html" target="_top" xlink:title="booleans">
<polygon fill="white" stroke="black" points="487.5,-60 428.5,-60 428.5,-24 487.5,-24 487.5,-60"/>
<text text-anchor="middle" x="458" y="-39.5" font-family="Helvetica,sans-Serif" font-size="10.00">booleans</text>
</a>
</g>
</g>
<!-- dir_82886d5b0f643206eddf473bf71f2428 -->
<g id="node3" class="node"><title>dir_82886d5b0f643206eddf473bf71f2428</title>
<g id="a_node3"><a xlink:href="dir_82886d5b0f643206eddf473bf71f2428.html" target="_top" xlink:title="control">
<polygon fill="white" stroke="black" points="410,-60 356,-60 356,-24 410,-24 410,-60"/>
<text text-anchor="middle" x="383" y="-39.5" font-family="Helvetica,sans-Serif" font-size="10.00">control</text>
</a>
</g>
</g>
<!-- dir_5e1ac81311b53ca26a6031c43fd618e1 -->
<g id="node4" class="node"><title>dir_5e1ac81311b53ca26a6031c43fd618e1</title>
<g id="a_node4"><a xlink:href="dir_5e1ac81311b53ca26a6031c43fd618e1.html" target="_top" xlink:title="math">
<polygon fill="white" stroke="black" points="338,-60 284,-60 284,-24 338,-24 338,-60"/>
<text text-anchor="middle" x="311" y="-39.5" font-family="Helvetica,sans-Serif" font-size="10.00">math</text>
</a>
</g>
</g>
<!-- dir_9a671a70922e6e58691c143ab9b526aa -->
<g id="node5" class="node"><title>dir_9a671a70922e6e58691c143ab9b526aa</title>
<g id="a_node5"><a xlink:href="dir_9a671a70922e6e58691c143ab9b526aa.html" target="_top" xlink:title="multipleturtle">
<polygon fill="white" stroke="black" points="266,-60 186,-60 186,-24 266,-24 266,-60"/>
<text text-anchor="middle" x="226" y="-39.5" font-family="Helvetica,sans-Serif" font-size="10.00">multipleturtle</text>
</a>
</g>
</g>
<!-- dir_3197b34e186fe11e820e42f09aa9e6ca -->
<g id="node6" class="node"><title>dir_3197b34e186fe11e820e42f09aa9e6ca</title>
<g id="a_node6"><a xlink:href="dir_3197b34e186fe11e820e42f09aa9e6ca.html" target="_top" xlink:title="turtle">
<polygon fill="white" stroke="black" points="168,-60 114,-60 114,-24 168,-24 168,-60"/>
<text text-anchor="middle" x="141" y="-39.5" font-family="Helvetica,sans-Serif" font-size="10.00">turtle</text>
</a>
</g>
</g>
<!-- dir_a02a2e032af86f0010ccf1eff4fdd9e5 -->
<g id="node7" class="node"><title>dir_a02a2e032af86f0010ccf1eff4fdd9e5</title>
<g id="a_node7"><a xlink:href="dir_a02a2e032af86f0010ccf1eff4fdd9e5.html" target="_top" xlink:title="turtlestatus">
<polygon fill="white" stroke="black" points="96,-60 24,-60 24,-24 96,-24 96,-60"/>
<text text-anchor="middle" x="60" y="-39.5" font-family="Helvetica,sans-Serif" font-size="10.00">turtlestatus</text>
</a>
</g>
</g>
</g>
</svg>
