<?xml version="1.0" encoding="UTF-8" standalone="no"?>
<!DOCTYPE svg PUBLIC "-//W3C//DTD SVG 1.1//EN"
 "http://www.w3.org/Graphics/SVG/1.1/DTD/svg11.dtd">
<!-- Generated by graphviz version 2.36.0 (20140111.2315)
 -->
<!-- Title: /tmp/git/duke&#45;compsci308&#45;fall2014/slogo_team03/repository/src/slogo/backend/impl Pages: 1 -->
<svg width="432pt" height="111pt"
 viewBox="0.00 0.00 432.00 111.00" xmlns="http://www.w3.org/2000/svg" xmlns:xlink="http://www.w3.org/1999/xlink">
<g id="graph0" class="graph" transform="scale(1 1) rotate(0) translate(4 107)">
<title>/tmp/git/duke&#45;compsci308&#45;fall2014/slogo_team03/repository/src/slogo/backend/impl</title>
<polygon fill="white" stroke="none" points="-4,4 -4,-107 428,-107 428,4 -4,4"/>
<g id="clust1" class="cluster"><title>clusterdir_5b799b1ac103f709219fd1674ed9ad9e</title>
<g id="a_clust1"><a xlink:href="dir_5b799b1ac103f709219fd1674ed9ad9e.html" target="_top" xlink:title="backend">
<polygon fill="#ddddee" stroke="black" points="8,-8 8,-95 416,-95 416,-8 8,-8"/>
<text text-anchor="middle" x="212" y="-83" font-family="Helvetica,sans-Serif" font-size="10.00">backend</text>
</a>
</g>
</g>
<g id="clust2" class="cluster"><title>clusterdir_299a59273d31b47d297cfe43e1f395d3</title>
<g id="a_clust2"><a xlink:href="dir_299a59273d31b47d297cfe43e1f395d3.html" target="_top">
<polygon fill="#eeeeff" stroke="black" points="16,-16 16,-68 408,-68 408,-16 16,-16"/>
</a>
</g>
</g>
<!-- dir_299a59273d31b47d297cfe43e1f395d3 -->
<g id="node1" class="node"><title>dir_299a59273d31b47d297cfe43e1f395d3</title>
<text text-anchor="middle" x="373" y="-39.5" font-family="Helvetica,sans-Serif" font-size="10.00">impl</text>
</g>
<!-- dir_4970cfcdcd2c23ff0faf3852ad70680c -->
<g id="node2" class="node"><title>dir_4970cfcdcd2c23ff0faf3852ad70680c</title>
<g id="a_node2"><a xlink:href="dir_4970cfcdcd2c23ff0faf3852ad70680c.html" target="_top" xlink:title="evaluation">
<polygon fill="white" stroke="red" points="328,-60 262,-60 262,-24 328,-24 328,-60"/>
<text text-anchor="middle" x="295" y="-39.5" font-family="Helvetica,sans-Serif" font-size="10.00">evaluation</text>
</a>
</g>
</g>
<!-- dir_48bc58a3b9b37936c48900d8a75eaea1 -->
<g id="node3" class="node"><title>dir_48bc58a3b9b37936c48900d8a75eaea1</title>
<g id="a_node3"><a xlink:href="dir_48bc58a3b9b37936c48900d8a75eaea1.html" target="_top" xlink:title="parsing">
<polygon fill="white" stroke="black" points="244,-60 190,-60 190,-24 244,-24 244,-60"/>
<text text-anchor="middle" x="217" y="-39.5" font-family="Helvetica,sans-Serif" font-size="10.00">parsing</text>
</a>
</g>
</g>
<!-- dir_c358ed9e72decdeff96f7468659402ba -->
<g id="node4" class="node"><title>dir_c358ed9e72decdeff96f7468659402ba</title>
<g id="a_node4"><a xlink:href="dir_c358ed9e72decdeff96f7468659402ba.html" target="_top" xlink:title="tokenization">
<polygon fill="white" stroke="black" points="171.25,-60 96.75,-60 96.75,-24 171.25,-24 171.25,-60"/>
<text text-anchor="middle" x="134" y="-39.5" font-family="Helvetica,sans-Serif" font-size="10.00">tokenization</text>
</a>
</g>
</g>
<!-- dir_b774261c1329afb61ff681da06cb05c7 -->
<g id="node5" class="node"><title>dir_b774261c1329afb61ff681da06cb05c7</title>
<g id="a_node5"><a xlink:href="dir_b774261c1329afb61ff681da06cb05c7.html" target="_top" xlink:title="util">
<polygon fill="white" stroke="black" points="78,-60 24,-60 24,-24 78,-24 78,-60"/>
<text text-anchor="middle" x="51" y="-39.5" font-family="Helvetica,sans-Serif" font-size="10.00">util</text>
</a>
</g>
</g>
</g>
</svg>
