<?xml version="1.0" encoding="UTF-8" standalone="no"?>
<!DOCTYPE svg PUBLIC "-//W3C//DTD SVG 1.1//EN"
 "http://www.w3.org/Graphics/SVG/1.1/DTD/svg11.dtd">
<!-- Generated by graphviz version 2.36.0 (20140111.2315)
 -->
<!-- Title: /tmp/git/duke&#45;compsci308&#45;fall2014/slogo_team03/repository/src/slogo/frontend Pages: 1 -->
<svg width="258pt" height="111pt"
 viewBox="0.00 0.00 258.00 111.00" xmlns="http://www.w3.org/2000/svg" xmlns:xlink="http://www.w3.org/1999/xlink">
<g id="graph0" class="graph" transform="scale(1 1) rotate(0) translate(4 107)">
<title>/tmp/git/duke&#45;compsci308&#45;fall2014/slogo_team03/repository/src/slogo/frontend</title>
<polygon fill="white" stroke="none" points="-4,4 -4,-107 254,-107 254,4 -4,4"/>
<g id="clust1" class="cluster"><title>clusterdir_1f983e869f102205a336b35f7f1ec6b2</title>
<g id="a_clust1"><a xlink:href="dir_1f983e869f102205a336b35f7f1ec6b2.html" target="_top" xlink:title="slogo">
<polygon fill="#ddddee" stroke="black" points="8,-8 8,-95 242,-95 242,-8 8,-8"/>
<text text-anchor="middle" x="125" y="-83" font-family="Helvetica,sans-Serif" font-size="10.00">slogo</text>
</a>
</g>
</g>
<g id="clust2" class="cluster"><title>clusterdir_b795477bb357b50c2502d119ebdcd295</title>
<g id="a_clust2"><a xlink:href="dir_b795477bb357b50c2502d119ebdcd295.html" target="_top">
<polygon fill="#eeeeff" stroke="black" points="16,-16 16,-68 234,-68 234,-16 16,-16"/>
</a>
</g>
</g>
<!-- dir_b795477bb357b50c2502d119ebdcd295 -->
<g id="node1" class="node"><title>dir_b795477bb357b50c2502d119ebdcd295</title>
<text text-anchor="middle" x="197" y="-39.5" font-family="Helvetica,sans-Serif" font-size="10.00">frontend</text>
</g>
<!-- dir_850b8311fdb13917ba9c6f0f2ca95dbb -->
<g id="node2" class="node"><title>dir_850b8311fdb13917ba9c6f0f2ca95dbb</title>
<g id="a_node2"><a xlink:href="dir_850b8311fdb13917ba9c6f0f2ca95dbb.html" target="_top" xlink:title="Config">
<polygon fill="white" stroke="black" points="150,-60 96,-60 96,-24 150,-24 150,-60"/>
<text text-anchor="middle" x="123" y="-39.5" font-family="Helvetica,sans-Serif" font-size="10.00">Config</text>
</a>
</g>
</g>
<!-- dir_91ed61c9e9f4984893f62543ec04e529 -->
<g id="node3" class="node"><title>dir_91ed61c9e9f4984893f62543ec04e529</title>
<g id="a_node3"><a xlink:href="dir_91ed61c9e9f4984893f62543ec04e529.html" target="_top" xlink:title="test">
<polygon fill="white" stroke="black" points="78,-60 24,-60 24,-24 78,-24 78,-60"/>
<text text-anchor="middle" x="51" y="-39.5" font-family="Helvetica,sans-Serif" font-size="10.00">test</text>
</a>
</g>
</g>
</g>
</svg>
