<?xml version="1.0" encoding="UTF-8" standalone="no"?>
<!DOCTYPE svg PUBLIC "-//W3C//DTD SVG 1.1//EN"
 "http://www.w3.org/Graphics/SVG/1.1/DTD/svg11.dtd">
<!-- Generated by graphviz version 2.36.0 (20140111.2315)
 -->
<!-- Title: Graphical Class Hierarchy Pages: 1 -->
<svg width="308pt" height="38pt"
 viewBox="0.00 0.00 308.00 38.00" xmlns="http://www.w3.org/2000/svg" xmlns:xlink="http://www.w3.org/1999/xlink">
<g id="graph0" class="graph" transform="scale(1 1) rotate(0) translate(4 34)">
<title>Graphical Class Hierarchy</title>
<polygon fill="white" stroke="none" points="-4,4 -4,-34 304,-34 304,4 -4,4"/>
<!-- Node1 -->
<g id="node1" class="node"><title>Node1</title>
<g id="a_node1"><a xlink:href="da/dce/interfaceslogo_1_1backend_1_1util_1_1_i_turtle_status.html" target="_top" xlink:title="slogo.backend.util.ITurtle\lStatus">
<polygon fill="white" stroke="black" points="0,-0 0,-30 134,-30 134,-0 0,-0"/>
<text text-anchor="start" x="8" y="-18" font-family="Helvetica,sans-Serif" font-size="10.00">slogo.backend.util.ITurtle</text>
<text text-anchor="middle" x="67" y="-7" font-family="Helvetica,sans-Serif" font-size="10.00">Status</text>
</a>
</g>
</g>
<!-- Node2 -->
<g id="node2" class="node"><title>Node2</title>
<g id="a_node2"><a xlink:href="d0/d4d/classslogo_1_1backend_1_1impl_1_1util_1_1_turtle_status.html" target="_top" xlink:title="slogo.backend.impl.util.\lTurtleStatus">
<polygon fill="white" stroke="black" points="170.5,-0 170.5,-30 299.5,-30 299.5,-0 170.5,-0"/>
<text text-anchor="start" x="178.5" y="-18" font-family="Helvetica,sans-Serif" font-size="10.00">slogo.backend.impl.util.</text>
<text text-anchor="middle" x="235" y="-7" font-family="Helvetica,sans-Serif" font-size="10.00">TurtleStatus</text>
</a>
</g>
</g>
<!-- Node1&#45;&gt;Node2 -->
<g id="edge1" class="edge"><title>Node1&#45;&gt;Node2</title>
<path fill="none" stroke="midnightblue" d="M144.247,-15C152.963,-15 161.778,-15 170.306,-15"/>
<polygon fill="midnightblue" stroke="midnightblue" points="144.085,-11.5001 134.085,-15 144.085,-18.5001 144.085,-11.5001"/>
</g>
</g>
</svg>
