<?xml version="1.0" encoding="UTF-8" standalone="no"?>
<!DOCTYPE svg PUBLIC "-//W3C//DTD SVG 1.1//EN"
 "http://www.w3.org/Graphics/SVG/1.1/DTD/svg11.dtd">
<!-- Generated by graphviz version 2.36.0 (20140111.2315)
 -->
<!-- Title: Graphical Class Hierarchy Pages: 1 -->
<svg width="276pt" height="224pt"
 viewBox="0.00 0.00 276.00 224.00" xmlns="http://www.w3.org/2000/svg" xmlns:xlink="http://www.w3.org/1999/xlink">
<g id="graph0" class="graph" transform="scale(1 1) rotate(0) translate(4 220)">
<title>Graphical Class Hierarchy</title>
<polygon fill="white" stroke="none" points="-4,4 -4,-220 272,-220 272,4 -4,4"/>
<!-- Node1 -->
<g id="node1" class="node"><title>Node1</title>
<polygon fill="white" stroke="#bfbfbf" points="0.5,-93.5 0.5,-112.5 63.5,-112.5 63.5,-93.5 0.5,-93.5"/>
<text text-anchor="middle" x="32" y="-100.5" font-family="Helvetica,sans-Serif" font-size="10.00">Exception</text>
</g>
<!-- Node2 -->
<g id="node2" class="node"><title>Node2</title>
<g id="a_node2"><a xlink:href="de/d76/classslogo_1_1backend_1_1evaluation_1_1_malformed_syntax_exception.html" target="_top" xlink:title="slogo.backend.evaluation.\lMalformedSyntaxException">
<polygon fill="white" stroke="black" points="110.5,-186 110.5,-216 257.5,-216 257.5,-186 110.5,-186"/>
<text text-anchor="start" x="118.5" y="-204" font-family="Helvetica,sans-Serif" font-size="10.00">slogo.backend.evaluation.</text>
<text text-anchor="middle" x="184" y="-193" font-family="Helvetica,sans-Serif" font-size="10.00">MalformedSyntaxException</text>
</a>
</g>
</g>
<!-- Node1&#45;&gt;Node2 -->
<g id="edge1" class="edge"><title>Node1&#45;&gt;Node2</title>
<path fill="none" stroke="midnightblue" d="M45.0607,-120.887C57.1225,-137.46 77.1323,-161.651 100,-176 106.119,-179.84 112.861,-183.118 119.778,-185.911"/>
<polygon fill="midnightblue" stroke="midnightblue" points="47.8277,-118.737 39.2096,-112.575 42.1035,-122.767 47.8277,-118.737"/>
</g>
<!-- Node3 -->
<g id="node3" class="node"><title>Node3</title>
<g id="a_node3"><a xlink:href="d4/d22/classslogo_1_1backend_1_1impl_1_1_initialization_exception.html" target="_top" xlink:title="slogo.backend.impl.Initialization\lException">
<polygon fill="white" stroke="black" points="100,-137 100,-167 268,-167 268,-137 100,-137"/>
<text text-anchor="start" x="108" y="-155" font-family="Helvetica,sans-Serif" font-size="10.00">slogo.backend.impl.Initialization</text>
<text text-anchor="middle" x="184" y="-144" font-family="Helvetica,sans-Serif" font-size="10.00">Exception</text>
</a>
</g>
</g>
<!-- Node1&#45;&gt;Node3 -->
<g id="edge2" class="edge"><title>Node1&#45;&gt;Node3</title>
<path fill="none" stroke="midnightblue" d="M68.1193,-115.963C78.3606,-119.64 89.5951,-123.572 100,-127 110.148,-130.344 121.052,-133.755 131.511,-136.941"/>
<polygon fill="midnightblue" stroke="midnightblue" points="69.2584,-112.654 58.6641,-112.542 66.8766,-119.236 69.2584,-112.654"/>
</g>
<!-- Node4 -->
<g id="node4" class="node"><title>Node4</title>
<g id="a_node4"><a xlink:href="d6/dc5/classslogo_1_1backend_1_1parsing_1_1_invalid_grammar_rule_exception.html" target="_top" xlink:title="slogo.backend.parsing.Invalid\lGrammarRuleException">
<polygon fill="white" stroke="black" points="105.5,-88 105.5,-118 262.5,-118 262.5,-88 105.5,-88"/>
<text text-anchor="start" x="113.5" y="-106" font-family="Helvetica,sans-Serif" font-size="10.00">slogo.backend.parsing.Invalid</text>
<text text-anchor="middle" x="184" y="-95" font-family="Helvetica,sans-Serif" font-size="10.00">GrammarRuleException</text>
</a>
</g>
</g>
<!-- Node1&#45;&gt;Node4 -->
<g id="edge3" class="edge"><title>Node1&#45;&gt;Node4</title>
<path fill="none" stroke="midnightblue" d="M73.8859,-103C83.6516,-103 94.3978,-103 105.221,-103"/>
<polygon fill="midnightblue" stroke="midnightblue" points="73.7167,-99.5001 63.7167,-103 73.7167,-106.5 73.7167,-99.5001"/>
</g>
<!-- Node5 -->
<g id="node5" class="node"><title>Node5</title>
<g id="a_node5"><a xlink:href="da/d5f/classslogo_1_1backend_1_1tokenization_1_1_invalid_token_rules_exception.html" target="_top" xlink:title="slogo.backend.tokenization.\lInvalidTokenRulesException">
<polygon fill="white" stroke="black" points="109,-39 109,-69 259,-69 259,-39 109,-39"/>
<text text-anchor="start" x="117" y="-57" font-family="Helvetica,sans-Serif" font-size="10.00">slogo.backend.tokenization.</text>
<text text-anchor="middle" x="184" y="-46" font-family="Helvetica,sans-Serif" font-size="10.00">InvalidTokenRulesException</text>
</a>
</g>
</g>
<!-- Node1&#45;&gt;Node5 -->
<g id="edge4" class="edge"><title>Node1&#45;&gt;Node5</title>
<path fill="none" stroke="midnightblue" d="M68.1193,-90.0366C78.3606,-86.3604 89.5951,-82.4281 100,-79 110.148,-75.6565 121.052,-72.2446 131.511,-69.0594"/>
<polygon fill="midnightblue" stroke="midnightblue" points="66.8766,-86.7641 58.6641,-93.4578 69.2584,-93.3465 66.8766,-86.7641"/>
</g>
<!-- Node6 -->
<g id="node6" class="node"><title>Node6</title>
<g id="a_node6"><a xlink:href="d6/d83/classslogo_1_1_execution_exception.html" target="_top" xlink:title="slogo.ExecutionException">
<polygon fill="white" stroke="black" points="115,-0.5 115,-19.5 253,-19.5 253,-0.5 115,-0.5"/>
<text text-anchor="middle" x="184" y="-7.5" font-family="Helvetica,sans-Serif" font-size="10.00">slogo.ExecutionException</text>
</a>
</g>
</g>
<!-- Node1&#45;&gt;Node6 -->
<g id="edge5" class="edge"><title>Node1&#45;&gt;Node6</title>
<path fill="none" stroke="midnightblue" d="M44.8839,-84.8221C56.818,-68.0391 76.7388,-43.7024 100,-30 107.407,-25.6366 115.718,-22.2238 124.144,-19.5548"/>
<polygon fill="midnightblue" stroke="midnightblue" points="41.8717,-83.0261 39.105,-93.2534 47.6456,-86.9836 41.8717,-83.0261"/>
</g>
</g>
</svg>
