<?xml version="1.0" encoding="UTF-8" standalone="no"?>
<!DOCTYPE svg PUBLIC "-//W3C//DTD SVG 1.1//EN"
 "http://www.w3.org/Graphics/SVG/1.1/DTD/svg11.dtd">
<!-- Generated by graphviz version 2.36.0 (20140111.2315)
 -->
<!-- Title: Graphical Class Hierarchy Pages: 1 -->
<svg width="360pt" height="153pt"
 viewBox="0.00 0.00 360.00 153.00" xmlns="http://www.w3.org/2000/svg" xmlns:xlink="http://www.w3.org/1999/xlink">
<g id="graph0" class="graph" transform="scale(1 1) rotate(0) translate(4 149)">
<title>Graphical Class Hierarchy</title>
<polygon fill="white" stroke="none" points="-4,4 -4,-149 356,-149 356,4 -4,4"/>
<!-- Node1 -->
<g id="node1" class="node"><title>Node1</title>
<g id="a_node1"><a xlink:href="db/dc0/classslogo_1_1_u_i_1_1_list_view_all_s_l_o_g_o.html" target="_top" xlink:title="slogo.UI.ListViewAllSLOGO">
<polygon fill="white" stroke="black" points="0,-57.5 0,-76.5 142,-76.5 142,-57.5 0,-57.5"/>
<text text-anchor="middle" x="71" y="-64.5" font-family="Helvetica,sans-Serif" font-size="10.00">slogo.UI.ListViewAllSLOGO</text>
</a>
</g>
</g>
<!-- Node2 -->
<g id="node2" class="node"><title>Node2</title>
<g id="a_node2"><a xlink:href="de/d1a/classslogo_1_1_u_i_1_1_list_view_previous_commands.html" target="_top" xlink:title="slogo.UI.ListViewPrevious\lCommands">
<polygon fill="white" stroke="black" points="196.5,-115 196.5,-145 333.5,-145 333.5,-115 196.5,-115"/>
<text text-anchor="start" x="204.5" y="-133" font-family="Helvetica,sans-Serif" font-size="10.00">slogo.UI.ListViewPrevious</text>
<text text-anchor="middle" x="265" y="-122" font-family="Helvetica,sans-Serif" font-size="10.00">Commands</text>
</a>
</g>
</g>
<!-- Node1&#45;&gt;Node2 -->
<g id="edge1" class="edge"><title>Node1&#45;&gt;Node2</title>
<path fill="none" stroke="midnightblue" d="M107.125,-80.2029C127.677,-87.7746 154.188,-97.2788 178,-105 188.353,-108.357 199.475,-111.748 210.17,-114.902"/>
<polygon fill="midnightblue" stroke="midnightblue" points="108.145,-76.8485 97.5522,-76.6573 105.714,-83.4127 108.145,-76.8485"/>
</g>
<!-- Node3 -->
<g id="node3" class="node"><title>Node3</title>
<g id="a_node3"><a xlink:href="dc/d95/classslogo_1_1_u_i_1_1_list_view_s_l_o_g_o_variables.html" target="_top" xlink:title="slogo.UI.ListViewSLOGOVariables">
<polygon fill="white" stroke="black" points="178,-76.5 178,-95.5 352,-95.5 352,-76.5 178,-76.5"/>
<text text-anchor="middle" x="265" y="-83.5" font-family="Helvetica,sans-Serif" font-size="10.00">slogo.UI.ListViewSLOGOVariables</text>
</a>
</g>
</g>
<!-- Node1&#45;&gt;Node3 -->
<g id="edge2" class="edge"><title>Node1&#45;&gt;Node3</title>
<path fill="none" stroke="midnightblue" d="M152.282,-74.9446C160.686,-75.7762 169.254,-76.6241 177.721,-77.462"/>
<polygon fill="midnightblue" stroke="midnightblue" points="152.428,-71.442 142.131,-73.9401 151.738,-78.4079 152.428,-71.442"/>
</g>
<!-- Node4 -->
<g id="node4" class="node"><title>Node4</title>
<g id="a_node4"><a xlink:href="de/d37/classslogo_1_1_u_i_1_1_list_view_user_commands.html" target="_top" xlink:title="slogo.UI.ListViewUserCommands">
<polygon fill="white" stroke="black" points="178,-38.5 178,-57.5 352,-57.5 352,-38.5 178,-38.5"/>
<text text-anchor="middle" x="265" y="-45.5" font-family="Helvetica,sans-Serif" font-size="10.00">slogo.UI.ListViewUserCommands</text>
</a>
</g>
</g>
<!-- Node1&#45;&gt;Node4 -->
<g id="edge3" class="edge"><title>Node1&#45;&gt;Node4</title>
<path fill="none" stroke="midnightblue" d="M152.282,-59.0554C160.686,-58.2238 169.254,-57.3759 177.721,-56.538"/>
<polygon fill="midnightblue" stroke="midnightblue" points="151.738,-55.5921 142.131,-60.0599 152.428,-62.558 151.738,-55.5921"/>
</g>
<!-- Node5 -->
<g id="node5" class="node"><title>Node5</title>
<g id="a_node5"><a xlink:href="d3/df5/classslogo_1_1_u_i_1_1_list_view_user_variables.html" target="_top" xlink:title="slogo.UI.ListViewUserVariables">
<polygon fill="white" stroke="black" points="184,-0.5 184,-19.5 346,-19.5 346,-0.5 184,-0.5"/>
<text text-anchor="middle" x="265" y="-7.5" font-family="Helvetica,sans-Serif" font-size="10.00">slogo.UI.ListViewUserVariables</text>
</a>
</g>
</g>
<!-- Node1&#45;&gt;Node5 -->
<g id="edge4" class="edge"><title>Node1&#45;&gt;Node5</title>
<path fill="none" stroke="midnightblue" d="M105.715,-53.677C126.369,-45.826 153.464,-36.0775 178,-29 190.047,-25.525 203.2,-22.3268 215.515,-19.5845"/>
<polygon fill="midnightblue" stroke="midnightblue" points="104.212,-50.505 96.1322,-57.3587 106.722,-57.0393 104.212,-50.505"/>
</g>
</g>
</svg>
