<?xml version="1.0" encoding="UTF-8" standalone="no"?>
<!DOCTYPE svg PUBLIC "-//W3C//DTD SVG 1.1//EN"
 "http://www.w3.org/Graphics/SVG/1.1/DTD/svg11.dtd">
<!-- Generated by graphviz version 2.36.0 (20140111.2315)
 -->
<!-- Title: slogo.backend.impl.Languages.buildMap Pages: 1 -->
<svg width="422pt" height="87pt"
 viewBox="0.00 0.00 422.00 87.00" xmlns="http://www.w3.org/2000/svg" xmlns:xlink="http://www.w3.org/1999/xlink">
<g id="graph0" class="graph" transform="scale(1 1) rotate(0) translate(4 83)">
<title>slogo.backend.impl.Languages.buildMap</title>
<polygon fill="white" stroke="none" points="-4,4 -4,-83 418,-83 418,4 -4,4"/>
<!-- Node1 -->
<g id="node1" class="node"><title>Node1</title>
<polygon fill="#bfbfbf" stroke="black" points="0,-29.5 0,-48.5 210,-48.5 210,-29.5 0,-29.5"/>
<text text-anchor="middle" x="105" y="-36.5" font-family="Helvetica,sans-Serif" font-size="10.00">slogo.backend.impl.Languages.buildMap</text>
</g>
<!-- Node2 -->
<g id="node2" class="node"><title>Node2</title>
<g id="a_node2"><a xlink:href="../../d5/da1/classslogo_1_1backend_1_1impl_1_1_languages.html#af6875f4356224790b992b78d85a558de" target="_top" xlink:title="slogo.backend.impl.Languages.\lLanguages">
<polygon fill="white" stroke="black" points="246.5,-49 246.5,-79 413.5,-79 413.5,-49 246.5,-49"/>
<text text-anchor="start" x="254.5" y="-67" font-family="Helvetica,sans-Serif" font-size="10.00">slogo.backend.impl.Languages.</text>
<text text-anchor="middle" x="330" y="-56" font-family="Helvetica,sans-Serif" font-size="10.00">Languages</text>
</a>
</g>
</g>
<!-- Node1&#45;&gt;Node2 -->
<g id="edge1" class="edge"><title>Node1&#45;&gt;Node2</title>
<path fill="none" stroke="midnightblue" d="M201.211,-49.6739C216.155,-51.3493 231.498,-53.0693 246.135,-54.7102"/>
<polygon fill="midnightblue" stroke="midnightblue" points="201.271,-46.1587 190.943,-48.5227 200.491,-53.1151 201.271,-46.1587"/>
</g>
<!-- Node3 -->
<g id="node3" class="node"><title>Node3</title>
<g id="a_node3"><a xlink:href="../../db/d1d/classslogo_1_1backend_1_1test_1_1_backend_test.html#accd4377f44ec06d1da7dc27c96484268" target="_top" xlink:title="slogo.backend.test.Backend\lTest.testLanguages">
<polygon fill="white" stroke="black" points="254,-0 254,-30 406,-30 406,-0 254,-0"/>
<text text-anchor="start" x="262" y="-18" font-family="Helvetica,sans-Serif" font-size="10.00">slogo.backend.test.Backend</text>
<text text-anchor="middle" x="330" y="-7" font-family="Helvetica,sans-Serif" font-size="10.00">Test.testLanguages</text>
</a>
</g>
</g>
<!-- Node1&#45;&gt;Node3 -->
<g id="edge2" class="edge"><title>Node1&#45;&gt;Node3</title>
<path fill="none" stroke="midnightblue" d="M204.689,-28.3788C221.225,-26.5991 238.141,-24.7785 253.958,-23.0763"/>
<polygon fill="midnightblue" stroke="midnightblue" points="204.024,-24.93 194.456,-29.4801 204.773,-31.8899 204.024,-24.93"/>
</g>
</g>
</svg>
