<?xml version="1.0" encoding="UTF-8" standalone="no"?>
<!DOCTYPE svg PUBLIC "-//W3C//DTD SVG 1.1//EN"
 "http://www.w3.org/Graphics/SVG/1.1/DTD/svg11.dtd">
<!-- Generated by graphviz version 2.36.0 (20140111.2315)
 -->
<!-- Title: slogo.backend.impl.tokenization.Token.text Pages: 1 -->
<svg width="392pt" height="87pt"
 viewBox="0.00 0.00 392.00 87.00" xmlns="http://www.w3.org/2000/svg" xmlns:xlink="http://www.w3.org/1999/xlink">
<g id="graph0" class="graph" transform="scale(1 1) rotate(0) translate(4 83)">
<title>slogo.backend.impl.tokenization.Token.text</title>
<polygon fill="white" stroke="none" points="-4,4 -4,-83 388,-83 388,4 -4,4"/>
<!-- Node1 -->
<g id="node1" class="node"><title>Node1</title>
<polygon fill="#bfbfbf" stroke="black" points="0.5,-24 0.5,-54 173.5,-54 173.5,-24 0.5,-24"/>
<text text-anchor="start" x="8.5" y="-42" font-family="Helvetica,sans-Serif" font-size="10.00">slogo.backend.impl.tokenization.</text>
<text text-anchor="middle" x="87" y="-31" font-family="Helvetica,sans-Serif" font-size="10.00">Token.text</text>
</g>
<!-- Node2 -->
<g id="node2" class="node"><title>Node2</title>
<g id="a_node2"><a xlink:href="../../d9/d4f/classslogo_1_1backend_1_1impl_1_1tokenization_1_1_token.html#ade06915040739e635a56f1eb30bdeead" target="_top" xlink:title="slogo.backend.impl.tokenization.\lToken.Token">
<polygon fill="white" stroke="black" points="210.5,-49 210.5,-79 383.5,-79 383.5,-49 210.5,-49"/>
<text text-anchor="start" x="218.5" y="-67" font-family="Helvetica,sans-Serif" font-size="10.00">slogo.backend.impl.tokenization.</text>
<text text-anchor="middle" x="297" y="-56" font-family="Helvetica,sans-Serif" font-size="10.00">Token.Token</text>
</a>
</g>
</g>
<!-- Node1&#45;&gt;Node2 -->
<g id="edge1" class="edge"><title>Node1&#45;&gt;Node2</title>
<path fill="none" stroke="midnightblue" d="M183.585,-50.4886C192.561,-51.5674 201.62,-52.6563 210.494,-53.7228"/>
<polygon fill="midnightblue" stroke="midnightblue" points="183.848,-46.9951 173.502,-49.2767 183.013,-53.9451 183.848,-46.9951"/>
</g>
<!-- Node3 -->
<g id="node3" class="node"><title>Node3</title>
<g id="a_node3"><a xlink:href="../../d9/d4f/classslogo_1_1backend_1_1impl_1_1tokenization_1_1_token.html#a99d8d9dc63e27338bd9e4b76b4ac4e93" target="_top" xlink:title="slogo.backend.impl.tokenization.\lToken.toString">
<polygon fill="white" stroke="black" points="210.5,-0 210.5,-30 383.5,-30 383.5,-0 210.5,-0"/>
<text text-anchor="start" x="218.5" y="-18" font-family="Helvetica,sans-Serif" font-size="10.00">slogo.backend.impl.tokenization.</text>
<text text-anchor="middle" x="297" y="-7" font-family="Helvetica,sans-Serif" font-size="10.00">Token.toString</text>
</a>
</g>
</g>
<!-- Node1&#45;&gt;Node3 -->
<g id="edge2" class="edge"><title>Node1&#45;&gt;Node3</title>
<path fill="none" stroke="midnightblue" d="M183.585,-27.9709C192.561,-26.9353 201.62,-25.89 210.494,-24.8661"/>
<polygon fill="midnightblue" stroke="midnightblue" points="183.035,-24.5111 173.502,-29.1344 183.837,-31.465 183.035,-24.5111"/>
</g>
</g>
</svg>
