<?xml version="1.0" encoding="UTF-8" standalone="no"?>
<!DOCTYPE svg PUBLIC "-//W3C//DTD SVG 1.1//EN"
 "http://www.w3.org/Graphics/SVG/1.1/DTD/svg11.dtd">
<!-- Generated by graphviz version 2.36.0 (20140111.2315)
 -->
<!-- Title: slogo.UI.PathColorSelector.getValue Pages: 1 -->
<svg width="3114pt" height="427pt"
 viewBox="0.00 0.00 3114.00 427.00" xmlns="http://www.w3.org/2000/svg" xmlns:xlink="http://www.w3.org/1999/xlink">
<g id="graph0" class="graph" transform="scale(1 1) rotate(0) translate(4 423)">
<title>slogo.UI.PathColorSelector.getValue</title>
<polygon fill="white" stroke="none" points="-4,4 -4,-423 3110,-423 3110,4 -4,4"/>
<!-- Node1 -->
<g id="node1" class="node"><title>Node1</title>
<polygon fill="#bfbfbf" stroke="black" points="0.5,-49 0.5,-79 161.5,-79 161.5,-49 0.5,-49"/>
<text text-anchor="start" x="8.5" y="-67" font-family="Helvetica,sans-Serif" font-size="10.00">slogo.UI.PathColorSelector.get</text>
<text text-anchor="middle" x="81" y="-56" font-family="Helvetica,sans-Serif" font-size="10.00">Value</text>
</g>
<!-- Node2 -->
<g id="node2" class="node"><title>Node2</title>
<g id="a_node2"><a xlink:href="../../d9/d7e/classslogo_1_1_u_i_1_1_method_runner.html#ad9cd8e21d6cb54d79c7b14a83ed5bb1c" target="_top" xlink:title="slogo.UI.MethodRunner.set\lPenColor">
<polygon fill="white" stroke="black" points="198,-49 198,-79 342,-79 342,-49 198,-49"/>
<text text-anchor="start" x="206" y="-67" font-family="Helvetica,sans-Serif" font-size="10.00">slogo.UI.MethodRunner.set</text>
<text text-anchor="middle" x="270" y="-56" font-family="Helvetica,sans-Serif" font-size="10.00">PenColor</text>
</a>
</g>
</g>
<!-- Node1&#45;&gt;Node2 -->
<g id="edge1" class="edge"><title>Node1&#45;&gt;Node2</title>
<path fill="none" stroke="midnightblue" d="M171.781,-64C180.507,-64 189.276,-64 197.784,-64"/>
<polygon fill="midnightblue" stroke="midnightblue" points="171.576,-60.5001 161.576,-64 171.576,-67.5001 171.576,-60.5001"/>
</g>
<!-- Node3 -->
<g id="node3" class="node"><title>Node3</title>
<g id="a_node3"><a xlink:href="../../d9/d7e/classslogo_1_1_u_i_1_1_method_runner.html#a5e01d88aabd60df2be9ebb5b874837b1" target="_top" xlink:title="slogo.UI.MethodRunner.set\lPenAttributes">
<polygon fill="white" stroke="black" points="378,-49 378,-79 522,-79 522,-49 378,-49"/>
<text text-anchor="start" x="386" y="-67" font-family="Helvetica,sans-Serif" font-size="10.00">slogo.UI.MethodRunner.set</text>
<text text-anchor="middle" x="450" y="-56" font-family="Helvetica,sans-Serif" font-size="10.00">PenAttributes</text>
</a>
</g>
</g>
<!-- Node2&#45;&gt;Node3 -->
<g id="edge2" class="edge"><title>Node2&#45;&gt;Node3</title>
<path fill="none" stroke="midnightblue" d="M352.17,-64C360.789,-64 369.506,-64 377.995,-64"/>
<polygon fill="midnightblue" stroke="midnightblue" points="352.118,-60.5001 342.118,-64 352.118,-67.5001 352.118,-60.5001"/>
</g>
<!-- Node4 -->
<g id="node4" class="node"><title>Node4</title>
<g id="a_node4"><a xlink:href="../../d9/d7e/classslogo_1_1_u_i_1_1_method_runner.html#a5fe4a6310ba1b0851d7d30a440511324" target="_top" xlink:title="slogo.UI.MethodRunner.change\lTurtle">
<polygon fill="white" stroke="black" points="558,-49 558,-79 722,-79 722,-49 558,-49"/>
<text text-anchor="start" x="566" y="-67" font-family="Helvetica,sans-Serif" font-size="10.00">slogo.UI.MethodRunner.change</text>
<text text-anchor="middle" x="640" y="-56" font-family="Helvetica,sans-Serif" font-size="10.00">Turtle</text>
</a>
</g>
</g>
<!-- Node3&#45;&gt;Node4 -->
<g id="edge3" class="edge"><title>Node3&#45;&gt;Node4</title>
<path fill="none" stroke="midnightblue" d="M532.28,-64C540.719,-64 549.298,-64 557.736,-64"/>
<polygon fill="midnightblue" stroke="midnightblue" points="532.075,-60.5001 522.075,-64 532.075,-67.5001 532.075,-60.5001"/>
</g>
<!-- Node5 -->
<g id="node5" class="node"><title>Node5</title>
<g id="a_node5"><a xlink:href="../../df/d2d/classslogo_1_1_view.html#accc79c56511a72090ff8a4d414b8d1f5" target="_top" xlink:title="slogo.View.executeTurtle\lCommands">
<polygon fill="white" stroke="black" points="758.5,-49 758.5,-79 891.5,-79 891.5,-49 758.5,-49"/>
<text text-anchor="start" x="766.5" y="-67" font-family="Helvetica,sans-Serif" font-size="10.00">slogo.View.executeTurtle</text>
<text text-anchor="middle" x="825" y="-56" font-family="Helvetica,sans-Serif" font-size="10.00">Commands</text>
</a>
</g>
</g>
<!-- Node4&#45;&gt;Node5 -->
<g id="edge4" class="edge"><title>Node4&#45;&gt;Node5</title>
<path fill="none" stroke="midnightblue" d="M732.35,-64C741.128,-64 749.907,-64 758.365,-64"/>
<polygon fill="midnightblue" stroke="midnightblue" points="732.066,-60.5001 722.066,-64 732.066,-67.5001 732.066,-60.5001"/>
</g>
<!-- Node6 -->
<g id="node6" class="node"><title>Node6</title>
<g id="a_node6"><a xlink:href="../../df/d2d/classslogo_1_1_view.html#aa90e5d95d422b58b7f4b7f8a049defe1" target="_top" xlink:title="slogo.View.executeCommand">
<polygon fill="white" stroke="black" points="928,-54.5 928,-73.5 1086,-73.5 1086,-54.5 928,-54.5"/>
<text text-anchor="middle" x="1007" y="-61.5" font-family="Helvetica,sans-Serif" font-size="10.00">slogo.View.executeCommand</text>
</a>
</g>
</g>
<!-- Node5&#45;&gt;Node6 -->
<g id="edge5" class="edge"><title>Node5&#45;&gt;Node6</title>
<path fill="none" stroke="midnightblue" d="M901.784,-64C910.42,-64 919.235,-64 927.901,-64"/>
<polygon fill="midnightblue" stroke="midnightblue" points="901.748,-60.5001 891.748,-64 901.748,-67.5001 901.748,-60.5001"/>
</g>
<!-- Node7 -->
<g id="node7" class="node"><title>Node7</title>
<g id="a_node7"><a xlink:href="../../df/d2d/classslogo_1_1_view.html#aee563f6a0b15ac6668e4dcbdad40c73c" target="_top" xlink:title="slogo.View.sendCommandTo\lBackend">
<polygon fill="white" stroke="black" points="1128,-213 1128,-243 1280,-243 1280,-213 1128,-213"/>
<text text-anchor="start" x="1136" y="-231" font-family="Helvetica,sans-Serif" font-size="10.00">slogo.View.sendCommandTo</text>
<text text-anchor="middle" x="1204" y="-220" font-family="Helvetica,sans-Serif" font-size="10.00">Backend</text>
</a>
</g>
</g>
<!-- Node6&#45;&gt;Node7 -->
<g id="edge6" class="edge"><title>Node6&#45;&gt;Node7</title>
<path fill="none" stroke="midnightblue" d="M1027.05,-80.0252C1064.77,-111.741 1148.43,-182.108 1185.15,-212.984"/>
<polygon fill="midnightblue" stroke="midnightblue" points="1029.23,-77.2841 1019.33,-73.5262 1024.73,-82.6414 1029.23,-77.2841"/>
</g>
<!-- Node27 -->
<g id="node27" class="node"><title>Node27</title>
<g id="a_node27"><a xlink:href="../../df/d2d/classslogo_1_1_view.html#a4c3084a198acf85804800d70eff9ee51" target="_top" xlink:title="slogo.View.stepIntoCommand">
<polygon fill="white" stroke="black" points="1125,-54.5 1125,-73.5 1283,-73.5 1283,-54.5 1125,-54.5"/>
<text text-anchor="middle" x="1204" y="-61.5" font-family="Helvetica,sans-Serif" font-size="10.00">slogo.View.stepIntoCommand</text>
</a>
</g>
</g>
<!-- Node6&#45;&gt;Node27 -->
<g id="edge34" class="edge"><title>Node6&#45;&gt;Node27</title>
<path fill="none" stroke="midnightblue" d="M1096.4,-64C1105.87,-64 1115.45,-64 1124.79,-64"/>
<polygon fill="midnightblue" stroke="midnightblue" points="1096.19,-60.5001 1086.19,-64 1096.19,-67.5001 1096.19,-60.5001"/>
</g>
<!-- Node31 -->
<g id="node31" class="node"><title>Node31</title>
<g id="a_node31"><a xlink:href="../../df/d2d/classslogo_1_1_view.html#ac8b7f574c679e744a430f1649dc55e68" target="_top" xlink:title="slogo.View.stepOverCommand">
<polygon fill="white" stroke="black" points="1122.5,-11.5 1122.5,-30.5 1285.5,-30.5 1285.5,-11.5 1122.5,-11.5"/>
<text text-anchor="middle" x="1204" y="-18.5" font-family="Helvetica,sans-Serif" font-size="10.00">slogo.View.stepOverCommand</text>
</a>
</g>
</g>
<!-- Node6&#45;&gt;Node31 -->
<g id="edge39" class="edge"><title>Node6&#45;&gt;Node31</title>
<path fill="none" stroke="midnightblue" d="M1061.06,-52.3005C1092.07,-45.462 1130.71,-36.9406 1159.84,-30.5164"/>
<polygon fill="midnightblue" stroke="midnightblue" points="1060.29,-48.8855 1051.28,-54.4569 1061.8,-55.7213 1060.29,-48.8855"/>
</g>
<!-- Node8 -->
<g id="node8" class="node"><title>Node8</title>
<g id="a_node8"><a xlink:href="../../db/d19/classslogo_1_1_u_i_1_1_module_creation_helper.html#a69e17abcc7cf9a6ed7261d8fb1d631fa" target="_top" xlink:title="slogo.UI.ModuleCreationHelper.activate\lIncreaseDecreaseButtons">
<polygon fill="white" stroke="black" points="1322.5,-389 1322.5,-419 1527.5,-419 1527.5,-389 1322.5,-389"/>
<text text-anchor="start" x="1330.5" y="-407" font-family="Helvetica,sans-Serif" font-size="10.00">slogo.UI.ModuleCreationHelper.activate</text>
<text text-anchor="middle" x="1425" y="-396" font-family="Helvetica,sans-Serif" font-size="10.00">IncreaseDecreaseButtons</text>
</a>
</g>
</g>
<!-- Node7&#45;&gt;Node8 -->
<g id="edge7" class="edge"><title>Node7&#45;&gt;Node8</title>
<path fill="none" stroke="midnightblue" d="M1218.04,-252.219C1236.78,-284.724 1274.36,-342.06 1322,-374 1331.12,-380.116 1341.51,-385.01 1352.09,-388.919"/>
<polygon fill="midnightblue" stroke="midnightblue" points="1221.01,-250.361 1213.05,-243.368 1214.91,-253.798 1221.01,-250.361"/>
</g>
<!-- Node15 -->
<g id="node15" class="node"><title>Node15</title>
<g id="a_node15"><a xlink:href="../../db/d19/classslogo_1_1_u_i_1_1_module_creation_helper.html#aa70b0ad9e90e62509149bfd2ef2ba209" target="_top" xlink:title="slogo.UI.ModuleCreationHelper.activate\lKeyEvents">
<polygon fill="white" stroke="black" points="2048.5,-136 2048.5,-166 2253.5,-166 2253.5,-136 2048.5,-136"/>
<text text-anchor="start" x="2056.5" y="-154" font-family="Helvetica,sans-Serif" font-size="10.00">slogo.UI.ModuleCreationHelper.activate</text>
<text text-anchor="middle" x="2151" y="-143" font-family="Helvetica,sans-Serif" font-size="10.00">KeyEvents</text>
</a>
</g>
</g>
<!-- Node7&#45;&gt;Node15 -->
<g id="edge15" class="edge"><title>Node7&#45;&gt;Node15</title>
<path fill="none" stroke="midnightblue" d="M1234.18,-207.164C1256.9,-192.251 1289.88,-173.388 1322,-165 1456.15,-129.97 1858.16,-139.777 2048.26,-146.744"/>
<polygon fill="midnightblue" stroke="midnightblue" points="1232.05,-204.378 1225.7,-212.86 1235.95,-210.189 1232.05,-204.378"/>
</g>
<!-- Node16 -->
<g id="node16" class="node"><title>Node16</title>
<g id="a_node16"><a xlink:href="../../db/d19/classslogo_1_1_u_i_1_1_module_creation_helper.html#a2e841243ec3ca474e8822102343acc88" target="_top" xlink:title="slogo.UI.ModuleCreationHelper.activate\lNewTurtleButton">
<polygon fill="white" stroke="black" points="1564.5,-344 1564.5,-374 1769.5,-374 1769.5,-344 1564.5,-344"/>
<text text-anchor="start" x="1572.5" y="-362" font-family="Helvetica,sans-Serif" font-size="10.00">slogo.UI.ModuleCreationHelper.activate</text>
<text text-anchor="middle" x="1667" y="-351" font-family="Helvetica,sans-Serif" font-size="10.00">NewTurtleButton</text>
</a>
</g>
</g>
<!-- Node7&#45;&gt;Node16 -->
<g id="edge17" class="edge"><title>Node7&#45;&gt;Node16</title>
<path fill="none" stroke="midnightblue" d="M1221.02,-251.155C1241.1,-278.009 1278.24,-321.013 1322,-340 1398.41,-373.152 1493.47,-375.86 1564.29,-371.435"/>
<polygon fill="midnightblue" stroke="midnightblue" points="1223.83,-249.073 1215.11,-243.055 1218.18,-253.197 1223.83,-249.073"/>
</g>
<!-- Node18 -->
<g id="node18" class="node"><title>Node18</title>
<g id="a_node18"><a xlink:href="../../db/d19/classslogo_1_1_u_i_1_1_module_creation_helper.html#a9b1f07ab673191067907a059b1b0c524" target="_top" xlink:title="slogo.UI.ModuleCreationHelper.activate\lPlayButton">
<polygon fill="white" stroke="black" points="1322.5,-301 1322.5,-331 1527.5,-331 1527.5,-301 1322.5,-301"/>
<text text-anchor="start" x="1330.5" y="-319" font-family="Helvetica,sans-Serif" font-size="10.00">slogo.UI.ModuleCreationHelper.activate</text>
<text text-anchor="middle" x="1425" y="-308" font-family="Helvetica,sans-Serif" font-size="10.00">PlayButton</text>
</a>
</g>
</g>
<!-- Node7&#45;&gt;Node18 -->
<g id="edge20" class="edge"><title>Node7&#45;&gt;Node18</title>
<path fill="none" stroke="midnightblue" d="M1237.42,-248.354C1260.33,-262.006 1292.16,-279.522 1322,-291 1331.7,-294.73 1342.14,-298.039 1352.5,-300.929"/>
<polygon fill="midnightblue" stroke="midnightblue" points="1239.16,-245.317 1228.79,-243.145 1235.54,-251.31 1239.16,-245.317"/>
</g>
<!-- Node21 -->
<g id="node21" class="node"><title>Node21</title>
<g id="a_node21"><a xlink:href="../../db/d19/classslogo_1_1_u_i_1_1_module_creation_helper.html#a3a38d485562cb17591ec3fd07cffc18a" target="_top" xlink:title="slogo.UI.ModuleCreationHelper.activate\lTurtleCanvas">
<polygon fill="white" stroke="black" points="1806.5,-87 1806.5,-117 2011.5,-117 2011.5,-87 1806.5,-87"/>
<text text-anchor="start" x="1814.5" y="-105" font-family="Helvetica,sans-Serif" font-size="10.00">slogo.UI.ModuleCreationHelper.activate</text>
<text text-anchor="middle" x="1909" y="-94" font-family="Helvetica,sans-Serif" font-size="10.00">TurtleCanvas</text>
</a>
</g>
</g>
<!-- Node7&#45;&gt;Node21 -->
<g id="edge24" class="edge"><title>Node7&#45;&gt;Node21</title>
<path fill="none" stroke="midnightblue" d="M1224.37,-205.232C1245.63,-182.064 1282.1,-147.434 1322,-132 1407.51,-98.92 1662.48,-97.5272 1806.33,-99.6157"/>
<polygon fill="midnightblue" stroke="midnightblue" points="1221.56,-203.115 1217.5,-212.898 1226.78,-207.786 1221.56,-203.115"/>
</g>
<!-- Node23 -->
<g id="node23" class="node"><title>Node23</title>
<g id="a_node23"><a xlink:href="../../d1/d5f/classslogo_1_1_u_i_1_1_path_color_selector.html#ad3d9c82a0904c97edcec7cf67b85bd7b" target="_top" xlink:title="slogo.UI.PathColorSelector.create">
<polygon fill="white" stroke="black" points="1337,-262.5 1337,-281.5 1513,-281.5 1513,-262.5 1337,-262.5"/>
<text text-anchor="middle" x="1425" y="-269.5" font-family="Helvetica,sans-Serif" font-size="10.00">slogo.UI.PathColorSelector.create</text>
</a>
</g>
</g>
<!-- Node7&#45;&gt;Node23 -->
<g id="edge27" class="edge"><title>Node7&#45;&gt;Node23</title>
<path fill="none" stroke="midnightblue" d="M1287.74,-245.065C1299.24,-247.411 1310.91,-249.776 1322,-252 1339.25,-255.46 1358.16,-259.186 1374.95,-262.473"/>
<polygon fill="midnightblue" stroke="midnightblue" points="1288.19,-241.585 1277.69,-243.013 1286.79,-248.443 1288.19,-241.585"/>
</g>
<!-- Node25 -->
<g id="node25" class="node"><title>Node25</title>
<g id="a_node25"><a xlink:href="../../d4/d8d/classslogo_1_1_u_i_1_1_background_color_selector.html#ad75ba4ce104e071811d0fe039a4e839f" target="_top" xlink:title="slogo.UI.BackgroundColor\lSelector.create">
<polygon fill="white" stroke="black" points="1355,-213 1355,-243 1495,-243 1495,-213 1355,-213"/>
<text text-anchor="start" x="1363" y="-231" font-family="Helvetica,sans-Serif" font-size="10.00">slogo.UI.BackgroundColor</text>
<text text-anchor="middle" x="1425" y="-220" font-family="Helvetica,sans-Serif" font-size="10.00">Selector.create</text>
</a>
</g>
</g>
<!-- Node7&#45;&gt;Node25 -->
<g id="edge30" class="edge"><title>Node7&#45;&gt;Node25</title>
<path fill="none" stroke="midnightblue" d="M1290.14,-228C1311.6,-228 1334.37,-228 1354.93,-228"/>
<polygon fill="midnightblue" stroke="midnightblue" points="1290.06,-224.5 1280.06,-228 1290.06,-231.5 1290.06,-224.5"/>
</g>
<!-- Node26 -->
<g id="node26" class="node"><title>Node26</title>
<g id="a_node26"><a xlink:href="../../dd/da7/classslogo_1_1_u_i_1_1_turtle_image_selector.html#a3f268d9196ffebcbb5dc322d2897a9fe" target="_top" xlink:title="slogo.UI.TurtleImageSelector.create">
<polygon fill="white" stroke="black" points="1332,-174.5 1332,-193.5 1518,-193.5 1518,-174.5 1332,-174.5"/>
<text text-anchor="middle" x="1425" y="-181.5" font-family="Helvetica,sans-Serif" font-size="10.00">slogo.UI.TurtleImageSelector.create</text>
</a>
</g>
</g>
<!-- Node7&#45;&gt;Node26 -->
<g id="edge32" class="edge"><title>Node7&#45;&gt;Node26</title>
<path fill="none" stroke="midnightblue" d="M1284.01,-210.821C1296.7,-208.147 1309.71,-205.458 1322,-203 1337.99,-199.804 1355.42,-196.493 1371.27,-193.548"/>
<polygon fill="midnightblue" stroke="midnightblue" points="1282.98,-207.463 1273.92,-212.958 1284.43,-214.311 1282.98,-207.463"/>
</g>
<!-- Node9 -->
<g id="node9" class="node"><title>Node9</title>
<g id="a_node9"><a xlink:href="../../db/d19/classslogo_1_1_u_i_1_1_module_creation_helper.html#adce7362386f9a7b3006e7db08a2d578d" target="_top" xlink:title="slogo.UI.ModuleCreationHelper.create\lIncreaseDecreaseButtons">
<polygon fill="white" stroke="black" points="1810.5,-380 1810.5,-410 2007.5,-410 2007.5,-380 1810.5,-380"/>
<text text-anchor="start" x="1818.5" y="-398" font-family="Helvetica,sans-Serif" font-size="10.00">slogo.UI.ModuleCreationHelper.create</text>
<text text-anchor="middle" x="1909" y="-387" font-family="Helvetica,sans-Serif" font-size="10.00">IncreaseDecreaseButtons</text>
</a>
</g>
</g>
<!-- Node8&#45;&gt;Node9 -->
<g id="edge8" class="edge"><title>Node8&#45;&gt;Node9</title>
<path fill="none" stroke="midnightblue" d="M1537.79,-401.913C1620.23,-400.373 1731.29,-398.299 1810.21,-396.826"/>
<polygon fill="midnightblue" stroke="midnightblue" points="1537.56,-398.416 1527.63,-402.102 1537.69,-405.415 1537.56,-398.416"/>
</g>
<!-- Node10 -->
<g id="node10" class="node"><title>Node10</title>
<g id="a_node10"><a xlink:href="../../db/d19/classslogo_1_1_u_i_1_1_module_creation_helper.html#a7c650957b2389d6e6d36e8be8a33cd2b" target="_top" xlink:title="slogo.UI.ModuleCreationHelper.create\lSelectorVBoxModules">
<polygon fill="white" stroke="black" points="2052.5,-253 2052.5,-283 2249.5,-283 2249.5,-253 2052.5,-253"/>
<text text-anchor="start" x="2060.5" y="-271" font-family="Helvetica,sans-Serif" font-size="10.00">slogo.UI.ModuleCreationHelper.create</text>
<text text-anchor="middle" x="2151" y="-260" font-family="Helvetica,sans-Serif" font-size="10.00">SelectorVBoxModules</text>
</a>
</g>
</g>
<!-- Node9&#45;&gt;Node10 -->
<g id="edge9" class="edge"><title>Node9&#45;&gt;Node10</title>
<path fill="none" stroke="midnightblue" d="M1993,-376.732C1999.54,-374.424 2005.95,-371.854 2012,-369 2060.6,-346.077 2109.46,-305.079 2133.92,-283.025"/>
<polygon fill="midnightblue" stroke="midnightblue" points="1991.75,-373.461 1983.36,-379.93 1993.95,-380.105 1991.75,-373.461"/>
</g>
<!-- Node11 -->
<g id="node11" class="node"><title>Node11</title>
<g id="a_node11"><a xlink:href="../../db/d19/classslogo_1_1_u_i_1_1_module_creation_helper.html#afb9dbbbad7d872234a5b296fe129a34e" target="_top" xlink:title="slogo.UI.ModuleCreationHelper.create\lMainPageModules">
<polygon fill="white" stroke="black" points="2290.5,-136 2290.5,-166 2487.5,-166 2487.5,-136 2290.5,-136"/>
<text text-anchor="start" x="2298.5" y="-154" font-family="Helvetica,sans-Serif" font-size="10.00">slogo.UI.ModuleCreationHelper.create</text>
<text text-anchor="middle" x="2389" y="-143" font-family="Helvetica,sans-Serif" font-size="10.00">MainPageModules</text>
</a>
</g>
</g>
<!-- Node10&#45;&gt;Node11 -->
<g id="edge10" class="edge"><title>Node10&#45;&gt;Node11</title>
<path fill="none" stroke="midnightblue" d="M2191.58,-248.38C2238.29,-225.222 2314.96,-187.212 2357.37,-166.184"/>
<polygon fill="midnightblue" stroke="midnightblue" points="2189.77,-245.366 2182.37,-252.944 2192.88,-251.638 2189.77,-245.366"/>
</g>
<!-- Node12 -->
<g id="node12" class="node"><title>Node12</title>
<g id="a_node12"><a xlink:href="../../d9/d33/classslogo_1_1_u_i_1_1_main.html#a15b7f2e399ee24d160550993ab737e73" target="_top" xlink:title="slogo.UI.Main.start">
<polygon fill="white" stroke="black" points="2524,-150.5 2524,-169.5 2630,-169.5 2630,-150.5 2524,-150.5"/>
<text text-anchor="middle" x="2577" y="-157.5" font-family="Helvetica,sans-Serif" font-size="10.00">slogo.UI.Main.start</text>
</a>
</g>
</g>
<!-- Node11&#45;&gt;Node12 -->
<g id="edge11" class="edge"><title>Node11&#45;&gt;Node12</title>
<path fill="none" stroke="midnightblue" d="M2497.8,-156.216C2506.76,-156.65 2515.53,-157.074 2523.76,-157.472"/>
<polygon fill="midnightblue" stroke="midnightblue" points="2497.79,-152.712 2487.63,-155.724 2497.45,-159.703 2497.79,-152.712"/>
</g>
<!-- Node13 -->
<g id="node13" class="node"><title>Node13</title>
<g id="a_node13"><a xlink:href="../../db/d19/classslogo_1_1_u_i_1_1_module_creation_helper.html#a3be12a7cc2b8a219db1e296211a2cb88" target="_top" xlink:title="slogo.UI.ModuleCreationHelper.activate\lExtraWorkspaceButton">
<polygon fill="white" stroke="black" points="2666.5,-163 2666.5,-193 2871.5,-193 2871.5,-163 2666.5,-163"/>
<text text-anchor="start" x="2674.5" y="-181" font-family="Helvetica,sans-Serif" font-size="10.00">slogo.UI.ModuleCreationHelper.activate</text>
<text text-anchor="middle" x="2769" y="-170" font-family="Helvetica,sans-Serif" font-size="10.00">ExtraWorkspaceButton</text>
</a>
</g>
</g>
<!-- Node12&#45;&gt;Node13 -->
<g id="edge12" class="edge"><title>Node12&#45;&gt;Node13</title>
<path fill="none" stroke="midnightblue" d="M2640.22,-165.894C2648.63,-166.691 2657.44,-167.526 2666.32,-168.367"/>
<polygon fill="midnightblue" stroke="midnightblue" points="2640.46,-162.401 2630.17,-164.942 2639.79,-169.37 2640.46,-162.401"/>
</g>
<!-- Node14 -->
<g id="node14" class="node"><title>Node14</title>
<g id="a_node14"><a xlink:href="../../db/d19/classslogo_1_1_u_i_1_1_module_creation_helper.html#a702c1ebe24d2857a10c666eb1fcc315d" target="_top" xlink:title="slogo.UI.ModuleCreationHelper.create\lExtraWorkspaceButton">
<polygon fill="white" stroke="black" points="2908.5,-189 2908.5,-219 3105.5,-219 3105.5,-189 2908.5,-189"/>
<text text-anchor="start" x="2916.5" y="-207" font-family="Helvetica,sans-Serif" font-size="10.00">slogo.UI.ModuleCreationHelper.create</text>
<text text-anchor="middle" x="3007" y="-196" font-family="Helvetica,sans-Serif" font-size="10.00">ExtraWorkspaceButton</text>
</a>
</g>
</g>
<!-- Node13&#45;&gt;Node14 -->
<g id="edge13" class="edge"><title>Node13&#45;&gt;Node14</title>
<path fill="none" stroke="midnightblue" d="M2881.77,-190.313C2890.62,-191.289 2899.52,-192.27 2908.27,-193.234"/>
<polygon fill="midnightblue" stroke="midnightblue" points="2882.12,-186.831 2871.8,-189.215 2881.35,-193.789 2882.12,-186.831"/>
</g>
<!-- Node14&#45;&gt;Node10 -->
<g id="edge14" class="edge"><title>Node14&#45;&gt;Node10</title>
<path fill="none" stroke="midnightblue" d="M2898.34,-212.068C2730.9,-224.617 2410.6,-248.62 2249.55,-260.69"/>
<polygon fill="midnightblue" stroke="midnightblue" points="2898.7,-215.551 2908.41,-211.313 2898.18,-208.571 2898.7,-215.551"/>
</g>
<!-- Node15&#45;&gt;Node11 -->
<g id="edge16" class="edge"><title>Node15&#45;&gt;Node11</title>
<path fill="none" stroke="midnightblue" d="M2264.05,-151C2272.81,-151 2281.62,-151 2290.27,-151"/>
<polygon fill="midnightblue" stroke="midnightblue" points="2263.8,-147.5 2253.8,-151 2263.8,-154.5 2263.8,-147.5"/>
</g>
<!-- Node17 -->
<g id="node17" class="node"><title>Node17</title>
<g id="a_node17"><a xlink:href="../../db/d19/classslogo_1_1_u_i_1_1_module_creation_helper.html#a07f5483df317cdf80e8ea2dda5699afa" target="_top" xlink:title="slogo.UI.ModuleCreationHelper.create\lNewTurtleButton">
<polygon fill="white" stroke="black" points="1810.5,-330 1810.5,-360 2007.5,-360 2007.5,-330 1810.5,-330"/>
<text text-anchor="start" x="1818.5" y="-348" font-family="Helvetica,sans-Serif" font-size="10.00">slogo.UI.ModuleCreationHelper.create</text>
<text text-anchor="middle" x="1909" y="-337" font-family="Helvetica,sans-Serif" font-size="10.00">NewTurtleButton</text>
</a>
</g>
</g>
<!-- Node16&#45;&gt;Node17 -->
<g id="edge18" class="edge"><title>Node16&#45;&gt;Node17</title>
<path fill="none" stroke="midnightblue" d="M1779.89,-352.473C1790.04,-351.881 1800.26,-351.285 1810.27,-350.701"/>
<polygon fill="midnightblue" stroke="midnightblue" points="1779.56,-348.986 1769.78,-353.063 1779.97,-355.974 1779.56,-348.986"/>
</g>
<!-- Node17&#45;&gt;Node10 -->
<g id="edge19" class="edge"><title>Node17&#45;&gt;Node10</title>
<path fill="none" stroke="midnightblue" d="M1980.15,-327.309C1990.87,-324.354 2001.76,-321.203 2012,-318 2045.93,-307.387 2083.86,-293.493 2111.35,-283.046"/>
<polygon fill="midnightblue" stroke="midnightblue" points="1979.12,-323.962 1970.39,-329.963 1980.96,-330.717 1979.12,-323.962"/>
</g>
<!-- Node19 -->
<g id="node19" class="node"><title>Node19</title>
<g id="a_node19"><a xlink:href="../../db/d19/classslogo_1_1_u_i_1_1_module_creation_helper.html#a9b3fb38a55b3b7812b4f793afa7a974f" target="_top" xlink:title="slogo.UI.ModuleCreationHelper.create\lPlayButton">
<polygon fill="white" stroke="black" points="1568.5,-295 1568.5,-325 1765.5,-325 1765.5,-295 1568.5,-295"/>
<text text-anchor="start" x="1576.5" y="-313" font-family="Helvetica,sans-Serif" font-size="10.00">slogo.UI.ModuleCreationHelper.create</text>
<text text-anchor="middle" x="1667" y="-302" font-family="Helvetica,sans-Serif" font-size="10.00">PlayButton</text>
</a>
</g>
</g>
<!-- Node18&#45;&gt;Node19 -->
<g id="edge21" class="edge"><title>Node18&#45;&gt;Node19</title>
<path fill="none" stroke="midnightblue" d="M1537.89,-313.203C1548.04,-312.949 1558.26,-312.694 1568.27,-312.443"/>
<polygon fill="midnightblue" stroke="midnightblue" points="1537.69,-309.707 1527.78,-313.455 1537.87,-316.704 1537.69,-309.707"/>
</g>
<!-- Node20 -->
<g id="node20" class="node"><title>Node20</title>
<g id="a_node20"><a xlink:href="../../db/d19/classslogo_1_1_u_i_1_1_module_creation_helper.html#ae1e60d37509c2e5eddcb2a6e70b4f650" target="_top" xlink:title="slogo.UI.ModuleCreationHelper.create\lFirstRowButtons">
<polygon fill="white" stroke="black" points="1810.5,-279 1810.5,-309 2007.5,-309 2007.5,-279 1810.5,-279"/>
<text text-anchor="start" x="1818.5" y="-297" font-family="Helvetica,sans-Serif" font-size="10.00">slogo.UI.ModuleCreationHelper.create</text>
<text text-anchor="middle" x="1909" y="-286" font-family="Helvetica,sans-Serif" font-size="10.00">FirstRowButtons</text>
</a>
</g>
</g>
<!-- Node19&#45;&gt;Node20 -->
<g id="edge22" class="edge"><title>Node19&#45;&gt;Node20</title>
<path fill="none" stroke="midnightblue" d="M1775.73,-302.818C1787.3,-302.046 1799.03,-301.265 1810.47,-300.502"/>
<polygon fill="midnightblue" stroke="midnightblue" points="1775.36,-299.335 1765.62,-303.492 1775.83,-306.319 1775.36,-299.335"/>
</g>
<!-- Node20&#45;&gt;Node10 -->
<g id="edge23" class="edge"><title>Node20&#45;&gt;Node10</title>
<path fill="none" stroke="midnightblue" d="M2017.73,-282.329C2029.3,-281.075 2041.03,-279.805 2052.47,-278.566"/>
<polygon fill="midnightblue" stroke="midnightblue" points="2017.18,-278.868 2007.62,-283.425 2017.94,-285.827 2017.18,-278.868"/>
</g>
<!-- Node22 -->
<g id="node22" class="node"><title>Node22</title>
<g id="a_node22"><a xlink:href="../../db/d19/classslogo_1_1_u_i_1_1_module_creation_helper.html#a803bac6b55bde712b21f2face1eeef81" target="_top" xlink:title="slogo.UI.ModuleCreationHelper.create\lTurtleCanvas">
<polygon fill="white" stroke="black" points="2052.5,-87 2052.5,-117 2249.5,-117 2249.5,-87 2052.5,-87"/>
<text text-anchor="start" x="2060.5" y="-105" font-family="Helvetica,sans-Serif" font-size="10.00">slogo.UI.ModuleCreationHelper.create</text>
<text text-anchor="middle" x="2151" y="-94" font-family="Helvetica,sans-Serif" font-size="10.00">TurtleCanvas</text>
</a>
</g>
</g>
<!-- Node21&#45;&gt;Node22 -->
<g id="edge25" class="edge"><title>Node21&#45;&gt;Node22</title>
<path fill="none" stroke="midnightblue" d="M2021.89,-102C2032.04,-102 2042.26,-102 2052.27,-102"/>
<polygon fill="midnightblue" stroke="midnightblue" points="2021.78,-98.5001 2011.78,-102 2021.78,-105.5 2021.78,-98.5001"/>
</g>
<!-- Node22&#45;&gt;Node11 -->
<g id="edge26" class="edge"><title>Node22&#45;&gt;Node11</title>
<path fill="none" stroke="midnightblue" d="M2234.42,-119.113C2260.9,-124.611 2290.03,-130.658 2315.73,-135.994"/>
<polygon fill="midnightblue" stroke="midnightblue" points="2234.91,-115.641 2224.41,-117.035 2233.49,-122.495 2234.91,-115.641"/>
</g>
<!-- Node24 -->
<g id="node24" class="node"><title>Node24</title>
<g id="a_node24"><a xlink:href="../../db/d19/classslogo_1_1_u_i_1_1_module_creation_helper.html#af7f2919454fdbf6e9d7d912e99634857" target="_top" xlink:title="slogo.UI.ModuleCreationHelper.create\lSelectors">
<polygon fill="white" stroke="black" points="1568.5,-230 1568.5,-260 1765.5,-260 1765.5,-230 1568.5,-230"/>
<text text-anchor="start" x="1576.5" y="-248" font-family="Helvetica,sans-Serif" font-size="10.00">slogo.UI.ModuleCreationHelper.create</text>
<text text-anchor="middle" x="1667" y="-237" font-family="Helvetica,sans-Serif" font-size="10.00">Selectors</text>
</a>
</g>
</g>
<!-- Node23&#45;&gt;Node24 -->
<g id="edge28" class="edge"><title>Node23&#45;&gt;Node24</title>
<path fill="none" stroke="midnightblue" d="M1520.76,-261.339C1536.36,-259.585 1552.54,-257.764 1568.21,-256.002"/>
<polygon fill="midnightblue" stroke="midnightblue" points="1520.16,-257.885 1510.62,-262.481 1520.94,-264.841 1520.16,-257.885"/>
</g>
<!-- Node24&#45;&gt;Node10 -->
<g id="edge29" class="edge"><title>Node24&#45;&gt;Node10</title>
<path fill="none" stroke="midnightblue" d="M1775.74,-250.141C1858.55,-254.092 1971.97,-259.505 2052.19,-263.333"/>
<polygon fill="midnightblue" stroke="midnightblue" points="1775.7,-246.635 1765.54,-249.654 1775.36,-253.627 1775.7,-246.635"/>
</g>
<!-- Node25&#45;&gt;Node24 -->
<g id="edge31" class="edge"><title>Node25&#45;&gt;Node24</title>
<path fill="none" stroke="midnightblue" d="M1505.18,-233.609C1525.4,-235.041 1547.37,-236.597 1568.39,-238.086"/>
<polygon fill="midnightblue" stroke="midnightblue" points="1505.32,-230.11 1495.1,-232.894 1504.82,-237.092 1505.32,-230.11"/>
</g>
<!-- Node26&#45;&gt;Node24 -->
<g id="edge33" class="edge"><title>Node26&#45;&gt;Node24</title>
<path fill="none" stroke="midnightblue" d="M1493.48,-195.473C1505.04,-197.752 1516.9,-200.287 1528,-203 1559.38,-210.673 1594.18,-221.278 1620.98,-229.911"/>
<polygon fill="midnightblue" stroke="midnightblue" points="1493.9,-191.99 1483.42,-193.539 1492.58,-198.864 1493.9,-191.99"/>
</g>
<!-- Node28 -->
<g id="node28" class="node"><title>Node28</title>
<g id="a_node28"><a xlink:href="../../db/d19/classslogo_1_1_u_i_1_1_module_creation_helper.html#a9fd730f7c1860d34bf4ac46c3828bd59" target="_top" xlink:title="slogo.UI.ModuleCreationHelper.activate\lStepIntoButton">
<polygon fill="white" stroke="black" points="1322.5,-49 1322.5,-79 1527.5,-79 1527.5,-49 1322.5,-49"/>
<text text-anchor="start" x="1330.5" y="-67" font-family="Helvetica,sans-Serif" font-size="10.00">slogo.UI.ModuleCreationHelper.activate</text>
<text text-anchor="middle" x="1425" y="-56" font-family="Helvetica,sans-Serif" font-size="10.00">StepIntoButton</text>
</a>
</g>
</g>
<!-- Node27&#45;&gt;Node28 -->
<g id="edge35" class="edge"><title>Node27&#45;&gt;Node28</title>
<path fill="none" stroke="midnightblue" d="M1293.33,-64C1302.82,-64 1312.54,-64 1322.17,-64"/>
<polygon fill="midnightblue" stroke="midnightblue" points="1293.14,-60.5001 1283.14,-64 1293.14,-67.5001 1293.14,-60.5001"/>
</g>
<!-- Node29 -->
<g id="node29" class="node"><title>Node29</title>
<g id="a_node29"><a xlink:href="../../db/d19/classslogo_1_1_u_i_1_1_module_creation_helper.html#a4a6f1f009507c25be8c7c28cbba35f3b" target="_top" xlink:title="slogo.UI.ModuleCreationHelper.create\lDebugStepIntoButton">
<polygon fill="white" stroke="black" points="1568.5,-49 1568.5,-79 1765.5,-79 1765.5,-49 1568.5,-49"/>
<text text-anchor="start" x="1576.5" y="-67" font-family="Helvetica,sans-Serif" font-size="10.00">slogo.UI.ModuleCreationHelper.create</text>
<text text-anchor="middle" x="1667" y="-56" font-family="Helvetica,sans-Serif" font-size="10.00">DebugStepIntoButton</text>
</a>
</g>
</g>
<!-- Node28&#45;&gt;Node29 -->
<g id="edge36" class="edge"><title>Node28&#45;&gt;Node29</title>
<path fill="none" stroke="midnightblue" d="M1537.89,-64C1548.04,-64 1558.26,-64 1568.27,-64"/>
<polygon fill="midnightblue" stroke="midnightblue" points="1537.78,-60.5001 1527.78,-64 1537.78,-67.5001 1537.78,-60.5001"/>
</g>
<!-- Node30 -->
<g id="node30" class="node"><title>Node30</title>
<g id="a_node30"><a xlink:href="../../db/d19/classslogo_1_1_u_i_1_1_module_creation_helper.html#a975af4ea47dc85df72215bdf1a0d20ce" target="_top" xlink:title="slogo.UI.ModuleCreationHelper.create\lDebugModules">
<polygon fill="white" stroke="black" points="1810.5,-38 1810.5,-68 2007.5,-68 2007.5,-38 1810.5,-38"/>
<text text-anchor="start" x="1818.5" y="-56" font-family="Helvetica,sans-Serif" font-size="10.00">slogo.UI.ModuleCreationHelper.create</text>
<text text-anchor="middle" x="1909" y="-45" font-family="Helvetica,sans-Serif" font-size="10.00">DebugModules</text>
</a>
</g>
</g>
<!-- Node29&#45;&gt;Node30 -->
<g id="edge37" class="edge"><title>Node29&#45;&gt;Node30</title>
<path fill="none" stroke="midnightblue" d="M1775.73,-59.0622C1787.3,-58.5319 1799.03,-57.9945 1810.47,-57.4702"/>
<polygon fill="midnightblue" stroke="midnightblue" points="1775.45,-55.5716 1765.62,-59.5259 1775.77,-62.5643 1775.45,-55.5716"/>
</g>
<!-- Node30&#45;&gt;Node11 -->
<g id="edge38" class="edge"><title>Node30&#45;&gt;Node11</title>
<path fill="none" stroke="midnightblue" d="M2017.63,-48.679C2086.53,-48.779 2177.11,-54.2973 2254,-77 2297.33,-89.7936 2342.2,-118.228 2367.46,-135.889"/>
<polygon fill="midnightblue" stroke="midnightblue" points="2017.61,-45.1789 2007.62,-48.7021 2017.63,-52.1789 2017.61,-45.1789"/>
</g>
<!-- Node32 -->
<g id="node32" class="node"><title>Node32</title>
<g id="a_node32"><a xlink:href="../../db/d19/classslogo_1_1_u_i_1_1_module_creation_helper.html#a0fed0bb32bf2643d6fd5c24d82e8e18e" target="_top" xlink:title="slogo.UI.ModuleCreationHelper.activate\lStepOverButton">
<polygon fill="white" stroke="black" points="1322.5,-0 1322.5,-30 1527.5,-30 1527.5,-0 1322.5,-0"/>
<text text-anchor="start" x="1330.5" y="-18" font-family="Helvetica,sans-Serif" font-size="10.00">slogo.UI.ModuleCreationHelper.activate</text>
<text text-anchor="middle" x="1425" y="-7" font-family="Helvetica,sans-Serif" font-size="10.00">StepOverButton</text>
</a>
</g>
</g>
<!-- Node31&#45;&gt;Node32 -->
<g id="edge40" class="edge"><title>Node31&#45;&gt;Node32</title>
<path fill="none" stroke="midnightblue" d="M1295.8,-18.5123C1304.56,-18.2724 1313.48,-18.028 1322.33,-17.7856"/>
<polygon fill="midnightblue" stroke="midnightblue" points="1295.51,-15.0187 1285.61,-18.7914 1295.71,-22.0161 1295.51,-15.0187"/>
</g>
<!-- Node33 -->
<g id="node33" class="node"><title>Node33</title>
<g id="a_node33"><a xlink:href="../../db/d19/classslogo_1_1_u_i_1_1_module_creation_helper.html#aa1e7dc2b509360583790fba0d3819c8d" target="_top" xlink:title="slogo.UI.ModuleCreationHelper.create\lDebugStepOverButton">
<polygon fill="white" stroke="black" points="1568.5,-0 1568.5,-30 1765.5,-30 1765.5,-0 1568.5,-0"/>
<text text-anchor="start" x="1576.5" y="-18" font-family="Helvetica,sans-Serif" font-size="10.00">slogo.UI.ModuleCreationHelper.create</text>
<text text-anchor="middle" x="1667" y="-7" font-family="Helvetica,sans-Serif" font-size="10.00">DebugStepOverButton</text>
</a>
</g>
</g>
<!-- Node32&#45;&gt;Node33 -->
<g id="edge41" class="edge"><title>Node32&#45;&gt;Node33</title>
<path fill="none" stroke="midnightblue" d="M1537.89,-15C1548.04,-15 1558.26,-15 1568.27,-15"/>
<polygon fill="midnightblue" stroke="midnightblue" points="1537.78,-11.5001 1527.78,-15 1537.78,-18.5001 1537.78,-11.5001"/>
</g>
<!-- Node33&#45;&gt;Node30 -->
<g id="edge42" class="edge"><title>Node33&#45;&gt;Node30</title>
<path fill="none" stroke="midnightblue" d="M1772.99,-31.6227C1786.31,-33.7329 1799.89,-35.8827 1813.05,-37.966"/>
<polygon fill="midnightblue" stroke="midnightblue" points="1773.28,-28.1256 1762.85,-30.0186 1772.18,-35.0395 1773.28,-28.1256"/>
</g>
</g>
</svg>
