<?xml version="1.0" encoding="UTF-8" standalone="no"?>
<!DOCTYPE svg PUBLIC "-//W3C//DTD SVG 1.1//EN"
 "http://www.w3.org/Graphics/SVG/1.1/DTD/svg11.dtd">
<!-- Generated by graphviz version 2.36.0 (20140111.2315)
 -->
<!-- Title: slogo.UI.Turtle Pages: 1 -->
<svg width="340pt" height="96pt"
 viewBox="0.00 0.00 340.00 96.00" xmlns="http://www.w3.org/2000/svg" xmlns:xlink="http://www.w3.org/1999/xlink">
<g id="graph0" class="graph" transform="scale(1 1) rotate(0) translate(4 92)">
<title>slogo.UI.Turtle</title>
<polygon fill="white" stroke="none" points="-4,4 -4,-92 336,-92 336,4 -4,4"/>
<!-- Node1 -->
<g id="node1" class="node"><title>Node1</title>
<polygon fill="#bfbfbf" stroke="black" points="154.5,-0.5 154.5,-19.5 237.5,-19.5 237.5,-0.5 154.5,-0.5"/>
<text text-anchor="middle" x="196" y="-7.5" font-family="Helvetica,sans-Serif" font-size="10.00">slogo.UI.Turtle</text>
</g>
<!-- Node2 -->
<g id="node2" class="node"><title>Node2</title>
<polygon fill="white" stroke="#bfbfbf" points="0,-68.5 0,-87.5 124,-87.5 124,-68.5 0,-68.5"/>
<text text-anchor="middle" x="62" y="-75.5" font-family="Helvetica,sans-Serif" font-size="10.00">Map&lt; String, Image &gt;</text>
</g>
<!-- Node2&#45;&gt;Node1 -->
<g id="edge1" class="edge"><title>Node2&#45;&gt;Node1</title>
<path fill="none" stroke="#9a32cd" stroke-dasharray="5,2" d="M74.0577,-60.0919C80.382,-52.3405 88.7374,-43.6422 98,-38 115.031,-27.6258 136.121,-21.1494 154.369,-17.1511"/>
<polygon fill="#9a32cd" stroke="#9a32cd" points="71.1313,-58.1571 67.8403,-68.2278 76.6932,-62.4075 71.1313,-58.1571"/>
<text text-anchor="middle" x="127.5" y="-41.5" font-family="Helvetica,sans-Serif" font-size="10.00"> imagesMap</text>
</g>
<!-- Node3 -->
<g id="node3" class="node"><title>Node3</title>
<polygon fill="white" stroke="#bfbfbf" points="142,-68.5 142,-87.5 184,-87.5 184,-68.5 142,-68.5"/>
<text text-anchor="middle" x="163" y="-75.5" font-family="Helvetica,sans-Serif" font-size="10.00">Label</text>
</g>
<!-- Node3&#45;&gt;Node1 -->
<g id="edge2" class="edge"><title>Node3&#45;&gt;Node1</title>
<path fill="none" stroke="#9a32cd" stroke-dasharray="5,2" d="M160.399,-58.2465C160.254,-51.5695 161.032,-44.1797 164,-38 167.651,-30.3994 174.563,-24.1432 181.032,-19.5735"/>
<polygon fill="#9a32cd" stroke="#9a32cd" points="156.935,-58.8125 161.29,-68.4708 163.909,-58.2047 156.935,-58.8125"/>
<text text-anchor="middle" x="186" y="-41.5" font-family="Helvetica,sans-Serif" font-size="10.00"> myLabel</text>
</g>
<!-- Node4 -->
<g id="node4" class="node"><title>Node4</title>
<polygon fill="white" stroke="#bfbfbf" points="209,-68.5 209,-87.5 251,-87.5 251,-68.5 209,-68.5"/>
<text text-anchor="middle" x="230" y="-75.5" font-family="Helvetica,sans-Serif" font-size="10.00">Node</text>
</g>
<!-- Node4&#45;&gt;Node1 -->
<g id="edge3" class="edge"><title>Node4&#45;&gt;Node1</title>
<path fill="none" stroke="#9a32cd" stroke-dasharray="5,2" d="M220.823,-59.1859C214.263,-46.4523 205.716,-29.8607 200.555,-19.8411"/>
<polygon fill="#9a32cd" stroke="#9a32cd" points="217.864,-61.0848 225.555,-68.3717 224.087,-57.879 217.864,-61.0848"/>
<text text-anchor="middle" x="246.5" y="-41.5" font-family="Helvetica,sans-Serif" font-size="10.00"> turtleImage</text>
</g>
<!-- Node5 -->
<g id="node5" class="node"><title>Node5</title>
<polygon fill="white" stroke="#bfbfbf" points="291.5,-68.5 291.5,-87.5 332.5,-87.5 332.5,-68.5 291.5,-68.5"/>
<text text-anchor="middle" x="312" y="-75.5" font-family="Helvetica,sans-Serif" font-size="10.00">Color</text>
</g>
<!-- Node5&#45;&gt;Node1 -->
<g id="edge4" class="edge"><title>Node5&#45;&gt;Node1</title>
<path fill="none" stroke="#9a32cd" stroke-dasharray="5,2" d="M301.356,-59.9791C295.814,-52.322 288.432,-43.7358 280,-38 267.461,-29.4706 252.058,-23.5003 237.881,-19.3853"/>
<polygon fill="#9a32cd" stroke="#9a32cd" points="298.481,-61.9756 306.97,-68.3146 304.287,-58.0652 298.481,-61.9756"/>
<text text-anchor="middle" x="307.5" y="-41.5" font-family="Helvetica,sans-Serif" font-size="10.00"> color</text>
</g>
</g>
</svg>
