<?xml version="1.0" encoding="UTF-8" standalone="no"?>
<!DOCTYPE svg PUBLIC "-//W3C//DTD SVG 1.1//EN"
 "http://www.w3.org/Graphics/SVG/1.1/DTD/svg11.dtd">
<!-- Generated by graphviz version 2.36.0 (20140111.2315)
 -->
<!-- Title: slogo.backend.util.ITurtleStatus Pages: 1 -->
<svg width="142pt" height="108pt"
 viewBox="0.00 0.00 142.00 108.00" xmlns="http://www.w3.org/2000/svg" xmlns:xlink="http://www.w3.org/1999/xlink">
<g id="graph0" class="graph" transform="scale(1 1) rotate(0) translate(4 104)">
<title>slogo.backend.util.ITurtleStatus</title>
<polygon fill="white" stroke="none" points="-4,4 -4,-104 138,-104 138,4 -4,4"/>
<!-- Node1 -->
<g id="node1" class="node"><title>Node1</title>
<polygon fill="#bfbfbf" stroke="black" points="0,-69 0,-99 134,-99 134,-69 0,-69"/>
<text text-anchor="start" x="8" y="-87" font-family="Helvetica,sans-Serif" font-size="10.00">slogo.backend.util.ITurtle</text>
<text text-anchor="middle" x="67" y="-76" font-family="Helvetica,sans-Serif" font-size="10.00">Status</text>
</g>
<!-- Node2 -->
<g id="node2" class="node"><title>Node2</title>
<g id="a_node2"><a xlink:href="../../d0/d4d/classslogo_1_1backend_1_1impl_1_1util_1_1_turtle_status.html" target="_top" xlink:title="slogo.backend.impl.util.\lTurtleStatus">
<polygon fill="white" stroke="black" points="2.5,-1 2.5,-31 131.5,-31 131.5,-1 2.5,-1"/>
<text text-anchor="start" x="10.5" y="-19" font-family="Helvetica,sans-Serif" font-size="10.00">slogo.backend.impl.util.</text>
<text text-anchor="middle" x="67" y="-8" font-family="Helvetica,sans-Serif" font-size="10.00">TurtleStatus</text>
</a>
</g>
</g>
<!-- Node1&#45;&gt;Node2 -->
<g id="edge1" class="edge"><title>Node1&#45;&gt;Node2</title>
<path fill="none" stroke="midnightblue" d="M67,-58.5322C67,-49.3606 67,-39.2449 67,-31.2931"/>
<polygon fill="midnightblue" stroke="midnightblue" points="63.5001,-58.6789 67,-68.679 70.5001,-58.679 63.5001,-58.6789"/>
</g>
</g>
</svg>
