<?xml version="1.0" encoding="UTF-8" standalone="no"?>
<!DOCTYPE svg PUBLIC "-//W3C//DTD SVG 1.1//EN"
 "http://www.w3.org/Graphics/SVG/1.1/DTD/svg11.dtd">
<!-- Generated by graphviz version 2.36.0 (20140111.2315)
 -->
<!-- Title: slogo.UI.ButtonCreator.createButton Pages: 1 -->
<!--zoomable 625 -->
<svg id="main" version="1.1" xmlns="http://www.w3.org/2000/svg" xmlns:xlink="http://www.w3.org/1999/xlink" xml:space="preserve" onload="init(evt)">
<style type="text/css"><![CDATA[
.edge:hover path { stroke: red; }
.edge:hover polygon { stroke: red; fill: red; }
]]></style>
<script type="text/javascript"><![CDATA[
var edges = document.getElementsByTagName('g');
if (edges && edges.length) {
  for (var i=0;i<edges.length;i++) {
    if (edges[i].id.substr(0,4)=='edge') {
      edges[i].setAttribute('class','edge');
    }
  }
}
]]></script>
        <defs>
                <circle id="rim" cx="0" cy="0" r="7"/>
                <circle id="rim2" cx="0" cy="0" r="3.5"/>
                <g id="zoomPlus">
                        <use xlink:href="#rim" fill="#404040">
                                <set attributeName="fill" to="#808080" begin="zoomplus.mouseover" end="zoomplus.mouseout"/>
                        </use>
                        <path d="M-4,0h8M0,-4v8" fill="none" stroke="white" stroke-width="1.5" pointer-events="none"/>
                </g>
                <g id="zoomMin">
                        <use xlink:href="#rim" fill="#404040">
                                <set attributeName="fill" to="#808080" begin="zoomminus.mouseover" end="zoomminus.mouseout"/>
                        </use>
                        <path d="M-4,0h8" fill="none" stroke="white" stroke-width="1.5" pointer-events="none"/>
                </g>
                <g id="dirArrow">
                        <path fill="none" stroke="white" stroke-width="1.5" d="M0,-3.0v7 M-2.5,-0.5L0,-3.0L2.5,-0.5"/>
                </g>
               <g id="resetDef">
                       <use xlink:href="#rim2" fill="#404040">
                               <set attributeName="fill" to="#808080" begin="reset.mouseover" end="reset.mouseout"/>
                       </use>
               </g>
        </defs>

<script type="text/javascript">
var viewWidth = 1814;
var viewHeight = 625;
var sectionId = 'dynsection-1';
</script>
<script xlink:href="../../svgpan.js"/>
<svg id="graph" class="graph">
<g id="viewport">
<title>slogo.UI.ButtonCreator.createButton</title>
<polygon fill="white" stroke="none" points="-4,4 -4,-620.839 1810,-620.839 1810,4 -4,4"/>
<!-- Node1 -->
<g id="node1" class="node"><title>Node1</title>
<polygon fill="#bfbfbf" stroke="black" points="0.5,-321.36 0.5,-351.36 159.5,-351.36 159.5,-321.36 0.5,-321.36"/>
<text text-anchor="start" x="8.5" y="-339.36" font-family="Helvetica,sans-Serif" font-size="10.00">slogo.UI.ButtonCreator.create</text>
<text text-anchor="middle" x="80" y="-328.36" font-family="Helvetica,sans-Serif" font-size="10.00">Button</text>
</g>
<!-- Node2 -->
<g id="node2" class="node"><title>Node2</title>
<g id="a_node2"><a xlink:href="../../db/d19/classslogo_1_1_u_i_1_1_module_creation_helper.html#a4a6f1f009507c25be8c7c28cbba35f3b" target="_top" xlink:title="slogo.UI.ModuleCreationHelper.create\lDebugStepIntoButton">
<polygon fill="white" stroke="black" points="196.5,-578.36 196.5,-608.36 393.5,-608.36 393.5,-578.36 196.5,-578.36"/>
<text text-anchor="start" x="204.5" y="-596.36" font-family="Helvetica,sans-Serif" font-size="10.00">slogo.UI.ModuleCreationHelper.create</text>
<text text-anchor="middle" x="295" y="-585.36" font-family="Helvetica,sans-Serif" font-size="10.00">DebugStepIntoButton</text>
</a>
</g>
</g>
<!-- Node1&#45;&gt;Node2 -->
<g id="edge1" class="edge"><title>Node1&#45;&gt;Node2</title>
<path fill="none" stroke="midnightblue" d="M86.1454,-361.402C97.3163,-409.234 128.415,-513.686 196,-568.36 200.778,-572.225 206.081,-575.501 211.677,-578.276"/>
<polygon fill="midnightblue" stroke="midnightblue" points="89.5441,-360.562 83.9456,-351.567 82.7128,-362.09 89.5441,-360.562"/>
</g>
<!-- Node7 -->
<g id="node7" class="node"><title>Node7</title>
<g id="a_node7"><a xlink:href="../../db/d19/classslogo_1_1_u_i_1_1_module_creation_helper.html#a702c1ebe24d2857a10c666eb1fcc315d" target="_top" xlink:title="slogo.UI.ModuleCreationHelper.create\lExtraWorkspaceButton">
<polygon fill="white" stroke="black" points="1374.5,-491.36 1374.5,-521.36 1571.5,-521.36 1571.5,-491.36 1374.5,-491.36"/>
<text text-anchor="start" x="1382.5" y="-509.36" font-family="Helvetica,sans-Serif" font-size="10.00">slogo.UI.ModuleCreationHelper.create</text>
<text text-anchor="middle" x="1473" y="-498.36" font-family="Helvetica,sans-Serif" font-size="10.00">ExtraWorkspaceButton</text>
</a>
</g>
</g>
<!-- Node1&#45;&gt;Node7 -->
<g id="edge11" class="edge"><title>Node1&#45;&gt;Node7</title>
<path fill="none" stroke="midnightblue" d="M95.2537,-360.488C114.173,-390.07 150.549,-439.13 196,-462.36 328.247,-529.951 379.481,-500.36 528,-500.36 528,-500.36 528,-500.36 998,-500.36 1128.24,-500.36 1278.59,-502.653 1374.42,-504.404"/>
<polygon fill="midnightblue" stroke="midnightblue" points="97.992,-358.264 89.735,-351.625 92.0499,-361.964 97.992,-358.264"/>
</g>
<!-- Node9 -->
<g id="node9" class="node"><title>Node9</title>
<g id="a_node9"><a xlink:href="../../db/d19/classslogo_1_1_u_i_1_1_module_creation_helper.html#aa1e7dc2b509360583790fba0d3819c8d" target="_top" xlink:title="slogo.UI.ModuleCreationHelper.create\lDebugStepOverButton">
<polygon fill="white" stroke="black" points="196.5,-529.36 196.5,-559.36 393.5,-559.36 393.5,-529.36 196.5,-529.36"/>
<text text-anchor="start" x="204.5" y="-547.36" font-family="Helvetica,sans-Serif" font-size="10.00">slogo.UI.ModuleCreationHelper.create</text>
<text text-anchor="middle" x="295" y="-536.36" font-family="Helvetica,sans-Serif" font-size="10.00">DebugStepOverButton</text>
</a>
</g>
</g>
<!-- Node1&#45;&gt;Node9 -->
<g id="edge9" class="edge"><title>Node1&#45;&gt;Node9</title>
<path fill="none" stroke="midnightblue" d="M90.3429,-360.962C106.19,-399.405 141.975,-473.535 196,-514.36 204.163,-520.528 213.602,-525.439 223.334,-529.346"/>
<polygon fill="midnightblue" stroke="midnightblue" points="93.5435,-359.539 86.5734,-351.56 87.0462,-362.144 93.5435,-359.539"/>
</g>
<!-- Node10 -->
<g id="node10" class="node"><title>Node10</title>
<g id="a_node10"><a xlink:href="../../db/d19/classslogo_1_1_u_i_1_1_module_creation_helper.html#a2432dca0d1c44f812a59e4e0b6133722" target="_top" xlink:title="slogo.UI.ModuleCreationHelper.create\lHelpButton">
<polygon fill="white" stroke="black" points="664.5,-441.36 664.5,-471.36 861.5,-471.36 861.5,-441.36 664.5,-441.36"/>
<text text-anchor="start" x="672.5" y="-459.36" font-family="Helvetica,sans-Serif" font-size="10.00">slogo.UI.ModuleCreationHelper.create</text>
<text text-anchor="middle" x="763" y="-448.36" font-family="Helvetica,sans-Serif" font-size="10.00">HelpButton</text>
</a>
</g>
</g>
<!-- Node1&#45;&gt;Node10 -->
<g id="edge12" class="edge"><title>Node1&#45;&gt;Node10</title>
<path fill="none" stroke="midnightblue" d="M101.592,-359.068C122.845,-380.757 158.152,-412.179 196,-426.36 351.726,-484.709 548.512,-479.093 664.279,-468.537"/>
<polygon fill="midnightblue" stroke="midnightblue" points="103.86,-356.375 94.4195,-351.567 98.8014,-361.213 103.86,-356.375"/>
</g>
<!-- Node11 -->
<g id="node11" class="node"><title>Node11</title>
<g id="a_node11"><a xlink:href="../../db/d19/classslogo_1_1_u_i_1_1_module_creation_helper.html#adce7362386f9a7b3006e7db08a2d578d" target="_top" xlink:title="slogo.UI.ModuleCreationHelper.create\lIncreaseDecreaseButtons">
<polygon fill="white" stroke="black" points="898.5,-403.36 898.5,-433.36 1095.5,-433.36 1095.5,-403.36 898.5,-403.36"/>
<text text-anchor="start" x="906.5" y="-421.36" font-family="Helvetica,sans-Serif" font-size="10.00">slogo.UI.ModuleCreationHelper.create</text>
<text text-anchor="middle" x="997" y="-410.36" font-family="Helvetica,sans-Serif" font-size="10.00">IncreaseDecreaseButtons</text>
</a>
</g>
</g>
<!-- Node1&#45;&gt;Node11 -->
<g id="edge14" class="edge"><title>Node1&#45;&gt;Node11</title>
<path fill="none" stroke="midnightblue" d="M115.926,-356.446C138.094,-368.092 167.819,-381.73 196,-388.36 326.557,-419.077 714.958,-420.529 898.218,-419.384"/>
<polygon fill="midnightblue" stroke="midnightblue" points="117.38,-353.254 106.914,-351.603 114.066,-359.42 117.38,-353.254"/>
</g>
<!-- Node12 -->
<g id="node12" class="node"><title>Node12</title>
<g id="a_node12"><a xlink:href="../../db/d19/classslogo_1_1_u_i_1_1_module_creation_helper.html#ae9c212513214962b5692051497567f68" target="_top" xlink:title="slogo.UI.ModuleCreationHelper.create\lLoadButton">
<polygon fill="white" stroke="black" points="1136.5,-365.36 1136.5,-395.36 1333.5,-395.36 1333.5,-365.36 1136.5,-365.36"/>
<text text-anchor="start" x="1144.5" y="-383.36" font-family="Helvetica,sans-Serif" font-size="10.00">slogo.UI.ModuleCreationHelper.create</text>
<text text-anchor="middle" x="1235" y="-372.36" font-family="Helvetica,sans-Serif" font-size="10.00">LoadButton</text>
</a>
</g>
</g>
<!-- Node1&#45;&gt;Node12 -->
<g id="edge16" class="edge"><title>Node1&#45;&gt;Node12</title>
<path fill="none" stroke="midnightblue" d="M169.726,-348.366C259.785,-359.501 403.323,-374.36 528,-374.36 528,-374.36 528,-374.36 764,-374.36 892.73,-374.36 1041.28,-376.638 1136.34,-378.387"/>
<polygon fill="midnightblue" stroke="midnightblue" points="169.912,-344.863 159.556,-347.097 169.045,-351.809 169.912,-344.863"/>
</g>
<!-- Node13 -->
<g id="node13" class="node"><title>Node13</title>
<g id="a_node13"><a xlink:href="../../db/d19/classslogo_1_1_u_i_1_1_module_creation_helper.html#a07f5483df317cdf80e8ea2dda5699afa" target="_top" xlink:title="slogo.UI.ModuleCreationHelper.create\lNewTurtleButton">
<polygon fill="white" stroke="black" points="1374.5,-321.36 1374.5,-351.36 1571.5,-351.36 1571.5,-321.36 1374.5,-321.36"/>
<text text-anchor="start" x="1382.5" y="-339.36" font-family="Helvetica,sans-Serif" font-size="10.00">slogo.UI.ModuleCreationHelper.create</text>
<text text-anchor="middle" x="1473" y="-328.36" font-family="Helvetica,sans-Serif" font-size="10.00">NewTurtleButton</text>
</a>
</g>
</g>
<!-- Node1&#45;&gt;Node13 -->
<g id="edge18" class="edge"><title>Node1&#45;&gt;Node13</title>
<path fill="none" stroke="midnightblue" d="M169.915,-336.36C260.121,-336.36 403.771,-336.36 528,-336.36 528,-336.36 528,-336.36 998,-336.36 1128.23,-336.36 1278.58,-336.36 1374.41,-336.36"/>
<polygon fill="midnightblue" stroke="midnightblue" points="169.727,-332.86 159.727,-336.36 169.727,-339.86 169.727,-332.86"/>
</g>
<!-- Node14 -->
<g id="node14" class="node"><title>Node14</title>
<g id="a_node14"><a xlink:href="../../db/d19/classslogo_1_1_u_i_1_1_module_creation_helper.html#a938126b745e9f2d20932e126c0fd455a" target="_top" xlink:title="slogo.UI.ModuleCreationHelper.create\lPauseButton">
<polygon fill="white" stroke="black" points="196.5,-277.36 196.5,-307.36 393.5,-307.36 393.5,-277.36 196.5,-277.36"/>
<text text-anchor="start" x="204.5" y="-295.36" font-family="Helvetica,sans-Serif" font-size="10.00">slogo.UI.ModuleCreationHelper.create</text>
<text text-anchor="middle" x="295" y="-284.36" font-family="Helvetica,sans-Serif" font-size="10.00">PauseButton</text>
</a>
</g>
</g>
<!-- Node1&#45;&gt;Node14 -->
<g id="edge20" class="edge"><title>Node1&#45;&gt;Node14</title>
<path fill="none" stroke="midnightblue" d="M163.546,-319.308C182.576,-315.377 202.682,-311.224 221.26,-307.386"/>
<polygon fill="midnightblue" stroke="midnightblue" points="162.792,-315.89 153.707,-321.341 164.208,-322.745 162.792,-315.89"/>
</g>
<!-- Node16 -->
<g id="node16" class="node"><title>Node16</title>
<g id="a_node16"><a xlink:href="../../db/d19/classslogo_1_1_u_i_1_1_module_creation_helper.html#a9b3fb38a55b3b7812b4f793afa7a974f" target="_top" xlink:title="slogo.UI.ModuleCreationHelper.create\lPlayButton">
<polygon fill="white" stroke="black" points="196.5,-179.36 196.5,-209.36 393.5,-209.36 393.5,-179.36 196.5,-179.36"/>
<text text-anchor="start" x="204.5" y="-197.36" font-family="Helvetica,sans-Serif" font-size="10.00">slogo.UI.ModuleCreationHelper.create</text>
<text text-anchor="middle" x="295" y="-186.36" font-family="Helvetica,sans-Serif" font-size="10.00">PlayButton</text>
</a>
</g>
</g>
<!-- Node1&#45;&gt;Node16 -->
<g id="edge23" class="edge"><title>Node1&#45;&gt;Node16</title>
<path fill="none" stroke="midnightblue" d="M97.3686,-312.924C117.468,-285.954 154.093,-242.311 196,-218.36 202.007,-214.927 208.494,-211.981 215.169,-209.455"/>
<polygon fill="midnightblue" stroke="midnightblue" points="94.507,-310.908 91.4379,-321.049 100.161,-315.035 94.507,-310.908"/>
</g>
<!-- Node18 -->
<g id="node18" class="node"><title>Node18</title>
<g id="a_node18"><a xlink:href="../../db/d19/classslogo_1_1_u_i_1_1_module_creation_helper.html#aa76f49f1feda966f0a2b6314418bf931" target="_top" xlink:title="slogo.UI.ModuleCreationHelper.create\lResetButton">
<polygon fill="white" stroke="black" points="196.5,-228.36 196.5,-258.36 393.5,-258.36 393.5,-228.36 196.5,-228.36"/>
<text text-anchor="start" x="204.5" y="-246.36" font-family="Helvetica,sans-Serif" font-size="10.00">slogo.UI.ModuleCreationHelper.create</text>
<text text-anchor="middle" x="295" y="-235.36" font-family="Helvetica,sans-Serif" font-size="10.00">ResetButton</text>
</a>
</g>
</g>
<!-- Node1&#45;&gt;Node18 -->
<g id="edge26" class="edge"><title>Node1&#45;&gt;Node18</title>
<path fill="none" stroke="midnightblue" d="M110.433,-315.306C132.927,-300.077 165.205,-280.029 196,-267.36 204.181,-263.994 212.947,-261.023 221.751,-258.42"/>
<polygon fill="midnightblue" stroke="midnightblue" points="108.279,-312.539 102.019,-321.087 112.243,-318.309 108.279,-312.539"/>
</g>
<!-- Node19 -->
<g id="node19" class="node"><title>Node19</title>
<g id="a_node19"><a xlink:href="../../db/d19/classslogo_1_1_u_i_1_1_module_creation_helper.html#acdde1cf3a5282f70975d1e11b00b4d13" target="_top" xlink:title="slogo.UI.ModuleCreationHelper.create\lSaveButton">
<polygon fill="white" stroke="black" points="664.5,-118.36 664.5,-148.36 861.5,-148.36 861.5,-118.36 664.5,-118.36"/>
<text text-anchor="start" x="672.5" y="-136.36" font-family="Helvetica,sans-Serif" font-size="10.00">slogo.UI.ModuleCreationHelper.create</text>
<text text-anchor="middle" x="763" y="-125.36" font-family="Helvetica,sans-Serif" font-size="10.00">SaveButton</text>
</a>
</g>
</g>
<!-- Node1&#45;&gt;Node19 -->
<g id="edge28" class="edge"><title>Node1&#45;&gt;Node19</title>
<path fill="none" stroke="midnightblue" d="M85.6997,-311.2C96.0489,-263.871 125.718,-162.564 196,-120.36 272.259,-74.5668 523.623,-100.027 664.361,-118.875"/>
<polygon fill="midnightblue" stroke="midnightblue" points="82.2245,-310.722 83.6228,-321.224 89.0789,-312.142 82.2245,-310.722"/>
</g>
<!-- Node20 -->
<g id="node20" class="node"><title>Node20</title>
<g id="a_node20"><a xlink:href="../../db/d19/classslogo_1_1_u_i_1_1_module_creation_helper.html#ac9c4b24e9b51fcfc8e6420978c91f24a" target="_top" xlink:title="slogo.UI.ModuleCreationHelper.create\lStopButton">
<polygon fill="white" stroke="black" points="196.5,-130.36 196.5,-160.36 393.5,-160.36 393.5,-130.36 196.5,-130.36"/>
<text text-anchor="start" x="204.5" y="-148.36" font-family="Helvetica,sans-Serif" font-size="10.00">slogo.UI.ModuleCreationHelper.create</text>
<text text-anchor="middle" x="295" y="-137.36" font-family="Helvetica,sans-Serif" font-size="10.00">StopButton</text>
</a>
</g>
</g>
<!-- Node1&#45;&gt;Node20 -->
<g id="edge30" class="edge"><title>Node1&#45;&gt;Node20</title>
<path fill="none" stroke="midnightblue" d="M91.0804,-311.624C107.428,-274.725 143.295,-205.724 196,-169.36 200.902,-165.978 206.231,-163.07 211.786,-160.572"/>
<polygon fill="midnightblue" stroke="midnightblue" points="87.729,-310.557 86.9892,-321.126 94.1585,-313.325 87.729,-310.557"/>
</g>
<!-- Node21 -->
<g id="node21" class="node"><title>Node21</title>
<g id="a_node21"><a xlink:href="../../db/d19/classslogo_1_1_u_i_1_1_module_creation_helper.html#aece15f9312b16091af80cd03ce7615ae" target="_top" xlink:title="slogo.UI.ModuleCreationHelper.create\lTurtleImageLoaderButton">
<polygon fill="white" stroke="black" points="898.5,-59.3598 898.5,-89.3598 1095.5,-89.3598 1095.5,-59.3598 898.5,-59.3598"/>
<text text-anchor="start" x="906.5" y="-77.3598" font-family="Helvetica,sans-Serif" font-size="10.00">slogo.UI.ModuleCreationHelper.create</text>
<text text-anchor="middle" x="997" y="-66.3598" font-family="Helvetica,sans-Serif" font-size="10.00">TurtleImageLoaderButton</text>
</a>
</g>
</g>
<!-- Node1&#45;&gt;Node21 -->
<g id="edge32" class="edge"><title>Node1&#45;&gt;Node21</title>
<path fill="none" stroke="midnightblue" d="M84.1455,-311.35C92.134,-259.69 118.405,-141.821 196,-91.3598 438.238,66.1693 814.964,-21.0638 947.72,-59.3143"/>
<polygon fill="midnightblue" stroke="midnightblue" points="80.6709,-310.923 82.7065,-321.321 87.5991,-311.923 80.6709,-310.923"/>
</g>
<!-- Node3 -->
<g id="node3" class="node"><title>Node3</title>
<g id="a_node3"><a xlink:href="../../db/d19/classslogo_1_1_u_i_1_1_module_creation_helper.html#a975af4ea47dc85df72215bdf1a0d20ce" target="_top" xlink:title="slogo.UI.ModuleCreationHelper.create\lDebugModules">
<polygon fill="white" stroke="black" points="430.5,-532.36 430.5,-562.36 627.5,-562.36 627.5,-532.36 430.5,-532.36"/>
<text text-anchor="start" x="438.5" y="-550.36" font-family="Helvetica,sans-Serif" font-size="10.00">slogo.UI.ModuleCreationHelper.create</text>
<text text-anchor="middle" x="529" y="-539.36" font-family="Helvetica,sans-Serif" font-size="10.00">DebugModules</text>
</a>
</g>
</g>
<!-- Node2&#45;&gt;Node3 -->
<g id="edge2" class="edge"><title>Node2&#45;&gt;Node3</title>
<path fill="none" stroke="midnightblue" d="M382.068,-576.295C405.103,-571.727 429.828,-566.825 452.26,-562.377"/>
<polygon fill="midnightblue" stroke="midnightblue" points="381.094,-572.92 371.965,-578.298 382.455,-579.786 381.094,-572.92"/>
</g>
<!-- Node4 -->
<g id="node4" class="node"><title>Node4</title>
<g id="a_node4"><a xlink:href="../../db/d19/classslogo_1_1_u_i_1_1_module_creation_helper.html#afb9dbbbad7d872234a5b296fe129a34e" target="_top" xlink:title="slogo.UI.ModuleCreationHelper.create\lMainPageModules">
<polygon fill="white" stroke="black" points="664.5,-532.36 664.5,-562.36 861.5,-562.36 861.5,-532.36 664.5,-532.36"/>
<text text-anchor="start" x="672.5" y="-550.36" font-family="Helvetica,sans-Serif" font-size="10.00">slogo.UI.ModuleCreationHelper.create</text>
<text text-anchor="middle" x="763" y="-539.36" font-family="Helvetica,sans-Serif" font-size="10.00">MainPageModules</text>
</a>
</g>
</g>
<!-- Node3&#45;&gt;Node4 -->
<g id="edge3" class="edge"><title>Node3&#45;&gt;Node4</title>
<path fill="none" stroke="midnightblue" d="M637.722,-547.36C646.618,-547.36 655.58,-547.36 664.396,-547.36"/>
<polygon fill="midnightblue" stroke="midnightblue" points="637.717,-543.86 627.716,-547.36 637.716,-550.86 637.717,-543.86"/>
</g>
<!-- Node5 -->
<g id="node5" class="node"><title>Node5</title>
<g id="a_node5"><a xlink:href="../../d9/d33/classslogo_1_1_u_i_1_1_main.html#a15b7f2e399ee24d160550993ab737e73" target="_top" xlink:title="slogo.UI.Main.start">
<polygon fill="white" stroke="black" points="944,-536.86 944,-555.86 1050,-555.86 1050,-536.86 944,-536.86"/>
<text text-anchor="middle" x="997" y="-543.86" font-family="Helvetica,sans-Serif" font-size="10.00">slogo.UI.Main.start</text>
</a>
</g>
</g>
<!-- Node4&#45;&gt;Node5 -->
<g id="edge4" class="edge"><title>Node4&#45;&gt;Node5</title>
<path fill="none" stroke="midnightblue" d="M872.027,-546.894C897.068,-546.786 922.608,-546.676 943.948,-546.584"/>
<polygon fill="midnightblue" stroke="midnightblue" points="871.701,-543.395 861.716,-546.939 871.732,-550.395 871.701,-543.395"/>
</g>
<!-- Node6 -->
<g id="node6" class="node"><title>Node6</title>
<g id="a_node6"><a xlink:href="../../db/d19/classslogo_1_1_u_i_1_1_module_creation_helper.html#a3be12a7cc2b8a219db1e296211a2cb88" target="_top" xlink:title="slogo.UI.ModuleCreationHelper.activate\lExtraWorkspaceButton">
<polygon fill="white" stroke="black" points="1132.5,-529.36 1132.5,-559.36 1337.5,-559.36 1337.5,-529.36 1132.5,-529.36"/>
<text text-anchor="start" x="1140.5" y="-547.36" font-family="Helvetica,sans-Serif" font-size="10.00">slogo.UI.ModuleCreationHelper.activate</text>
<text text-anchor="middle" x="1235" y="-536.36" font-family="Helvetica,sans-Serif" font-size="10.00">ExtraWorkspaceButton</text>
</a>
</g>
</g>
<!-- Node5&#45;&gt;Node6 -->
<g id="edge5" class="edge"><title>Node5&#45;&gt;Node6</title>
<path fill="none" stroke="midnightblue" d="M1060.28,-545.832C1082.31,-545.645 1107.71,-545.43 1132.16,-545.223"/>
<polygon fill="midnightblue" stroke="midnightblue" points="1060.05,-542.334 1050.08,-545.918 1060.11,-549.333 1060.05,-542.334"/>
</g>
<!-- Node6&#45;&gt;Node7 -->
<g id="edge6" class="edge"><title>Node6&#45;&gt;Node7</title>
<path fill="none" stroke="midnightblue" d="M1339.24,-527.737C1352.34,-525.627 1365.69,-523.477 1378.63,-521.394"/>
<polygon fill="midnightblue" stroke="midnightblue" points="1338.59,-524.296 1329.27,-529.341 1339.7,-531.207 1338.59,-524.296"/>
</g>
<!-- Node8 -->
<g id="node8" class="node"><title>Node8</title>
<g id="a_node8"><a xlink:href="../../db/d19/classslogo_1_1_u_i_1_1_module_creation_helper.html#a7c650957b2389d6e6d36e8be8a33cd2b" target="_top" xlink:title="slogo.UI.ModuleCreationHelper.create\lSelectorVBoxModules">
<polygon fill="white" stroke="black" points="1608.5,-343.36 1608.5,-373.36 1805.5,-373.36 1805.5,-343.36 1608.5,-343.36"/>
<text text-anchor="start" x="1616.5" y="-361.36" font-family="Helvetica,sans-Serif" font-size="10.00">slogo.UI.ModuleCreationHelper.create</text>
<text text-anchor="middle" x="1707" y="-350.36" font-family="Helvetica,sans-Serif" font-size="10.00">SelectorVBoxModules</text>
</a>
</g>
</g>
<!-- Node7&#45;&gt;Node8 -->
<g id="edge7" class="edge"><title>Node7&#45;&gt;Node8</title>
<path fill="none" stroke="midnightblue" d="M1546.81,-487.908C1555.53,-484.59 1564.13,-480.758 1572,-476.36 1622.33,-448.237 1670.26,-398.689 1692.71,-373.695"/>
<polygon fill="midnightblue" stroke="midnightblue" points="1545.56,-484.64 1537.32,-491.309 1547.92,-491.229 1545.56,-484.64"/>
</g>
<!-- Node8&#45;&gt;Node4 -->
<g id="edge8" class="edge"><title>Node8&#45;&gt;Node4</title>
<path fill="none" stroke="midnightblue" d="M1694.54,-382.777C1675.17,-421.123 1632.09,-494.752 1572,-530.36 1323.04,-677.893 950.77,-598.737 815.479,-562.399"/>
<polygon fill="midnightblue" stroke="midnightblue" points="1697.89,-383.912 1699.17,-373.395 1691.61,-380.819 1697.89,-383.912"/>
</g>
<!-- Node9&#45;&gt;Node3 -->
<g id="edge10" class="edge"><title>Node9&#45;&gt;Node3</title>
<path fill="none" stroke="midnightblue" d="M403.722,-545.753C412.618,-545.868 421.58,-545.984 430.396,-546.098"/>
<polygon fill="midnightblue" stroke="midnightblue" points="403.761,-542.253 393.716,-545.623 403.67,-549.253 403.761,-542.253"/>
</g>
<!-- Node10&#45;&gt;Node8 -->
<g id="edge13" class="edge"><title>Node10&#45;&gt;Node8</title>
<path fill="none" stroke="midnightblue" d="M871.782,-460.188C1028.04,-463.414 1325.73,-460.795 1572,-407.36 1607.46,-399.665 1646.22,-384.73 1672.89,-373.362"/>
<polygon fill="midnightblue" stroke="midnightblue" points="871.771,-456.687 861.696,-459.968 871.617,-463.686 871.771,-456.687"/>
</g>
<!-- Node11&#45;&gt;Node8 -->
<g id="edge15" class="edge"><title>Node11&#45;&gt;Node8</title>
<path fill="none" stroke="midnightblue" d="M1105.97,-416.667C1221.7,-413.714 1410.59,-405.608 1572,-383.36 1591.69,-380.645 1612.89,-377.021 1632.48,-373.375"/>
<polygon fill="midnightblue" stroke="midnightblue" points="1105.6,-413.175 1095.69,-416.921 1105.77,-420.173 1105.6,-413.175"/>
</g>
<!-- Node12&#45;&gt;Node8 -->
<g id="edge17" class="edge"><title>Node12&#45;&gt;Node8</title>
<path fill="none" stroke="midnightblue" d="M1343.74,-375.316C1423.49,-371.584 1531.24,-366.54 1608.46,-362.926"/>
<polygon fill="midnightblue" stroke="midnightblue" points="1343.5,-371.824 1333.67,-375.788 1343.82,-378.817 1343.5,-371.824"/>
</g>
<!-- Node13&#45;&gt;Node8 -->
<g id="edge19" class="edge"><title>Node13&#45;&gt;Node8</title>
<path fill="none" stroke="midnightblue" d="M1581.72,-346.575C1590.62,-347.418 1599.58,-348.268 1608.4,-349.104"/>
<polygon fill="midnightblue" stroke="midnightblue" points="1582,-343.086 1571.72,-345.626 1581.34,-350.055 1582,-343.086"/>
</g>
<!-- Node15 -->
<g id="node15" class="node"><title>Node15</title>
<g id="a_node15"><a xlink:href="../../db/d19/classslogo_1_1_u_i_1_1_module_creation_helper.html#ae1e0ce18826b0895f1c3d4786b3776b7" target="_top" xlink:title="slogo.UI.ModuleCreationHelper.create\lSecondRowButtons">
<polygon fill="white" stroke="black" points="430.5,-277.36 430.5,-307.36 627.5,-307.36 627.5,-277.36 430.5,-277.36"/>
<text text-anchor="start" x="438.5" y="-295.36" font-family="Helvetica,sans-Serif" font-size="10.00">slogo.UI.ModuleCreationHelper.create</text>
<text text-anchor="middle" x="529" y="-284.36" font-family="Helvetica,sans-Serif" font-size="10.00">SecondRowButtons</text>
</a>
</g>
</g>
<!-- Node14&#45;&gt;Node15 -->
<g id="edge21" class="edge"><title>Node14&#45;&gt;Node15</title>
<path fill="none" stroke="midnightblue" d="M403.722,-292.36C412.618,-292.36 421.58,-292.36 430.396,-292.36"/>
<polygon fill="midnightblue" stroke="midnightblue" points="403.717,-288.86 393.716,-292.36 403.716,-295.86 403.717,-288.86"/>
</g>
<!-- Node15&#45;&gt;Node8 -->
<g id="edge22" class="edge"><title>Node15&#45;&gt;Node8</title>
<path fill="none" stroke="midnightblue" d="M637.87,-292.36C732.319,-292.36 873.253,-292.36 996,-292.36 996,-292.36 996,-292.36 1236,-292.36 1385.57,-292.36 1425.32,-282.097 1572,-311.36 1606.94,-318.329 1645.13,-332.406 1671.77,-343.345"/>
<polygon fill="midnightblue" stroke="midnightblue" points="637.734,-288.86 627.734,-292.36 637.734,-295.86 637.734,-288.86"/>
</g>
<!-- Node17 -->
<g id="node17" class="node"><title>Node17</title>
<g id="a_node17"><a xlink:href="../../db/d19/classslogo_1_1_u_i_1_1_module_creation_helper.html#ae1e60d37509c2e5eddcb2a6e70b4f650" target="_top" xlink:title="slogo.UI.ModuleCreationHelper.create\lFirstRowButtons">
<polygon fill="white" stroke="black" points="430.5,-179.36 430.5,-209.36 627.5,-209.36 627.5,-179.36 430.5,-179.36"/>
<text text-anchor="start" x="438.5" y="-197.36" font-family="Helvetica,sans-Serif" font-size="10.00">slogo.UI.ModuleCreationHelper.create</text>
<text text-anchor="middle" x="529" y="-186.36" font-family="Helvetica,sans-Serif" font-size="10.00">FirstRowButtons</text>
</a>
</g>
</g>
<!-- Node16&#45;&gt;Node17 -->
<g id="edge24" class="edge"><title>Node16&#45;&gt;Node17</title>
<path fill="none" stroke="midnightblue" d="M403.722,-194.36C412.618,-194.36 421.58,-194.36 430.396,-194.36"/>
<polygon fill="midnightblue" stroke="midnightblue" points="403.717,-190.86 393.716,-194.36 403.716,-197.86 403.717,-190.86"/>
</g>
<!-- Node17&#45;&gt;Node8 -->
<g id="edge25" class="edge"><title>Node17&#45;&gt;Node8</title>
<path fill="none" stroke="midnightblue" d="M637.708,-206.688C732.053,-216.417 872.927,-228.36 996,-228.36 996,-228.36 996,-228.36 1236,-228.36 1387.62,-228.36 1428.59,-238.153 1572,-287.36 1613.09,-301.458 1656.88,-326.878 1682.82,-343.168"/>
<polygon fill="midnightblue" stroke="midnightblue" points="637.892,-203.188 627.583,-205.634 637.167,-210.151 637.892,-203.188"/>
</g>
<!-- Node18&#45;&gt;Node15 -->
<g id="edge27" class="edge"><title>Node18&#45;&gt;Node15</title>
<path fill="none" stroke="midnightblue" d="M377.023,-260.472C403.058,-265.971 431.687,-272.018 456.95,-277.354"/>
<polygon fill="midnightblue" stroke="midnightblue" points="377.692,-257.037 367.184,-258.394 376.245,-263.885 377.692,-257.037"/>
</g>
<!-- Node19&#45;&gt;Node8 -->
<g id="edge29" class="edge"><title>Node19&#45;&gt;Node8</title>
<path fill="none" stroke="midnightblue" d="M872.166,-120.969C1033.65,-107.417 1343.23,-100.838 1572,-214.36 1631.96,-244.113 1678.65,-312.717 1697.25,-343.24"/>
<polygon fill="midnightblue" stroke="midnightblue" points="871.407,-117.522 861.746,-121.871 872.01,-124.495 871.407,-117.522"/>
</g>
<!-- Node20&#45;&gt;Node17 -->
<g id="edge31" class="edge"><title>Node20&#45;&gt;Node17</title>
<path fill="none" stroke="midnightblue" d="M377.023,-162.472C403.058,-167.971 431.687,-174.018 456.95,-179.354"/>
<polygon fill="midnightblue" stroke="midnightblue" points="377.692,-159.037 367.184,-160.394 376.245,-165.885 377.692,-159.037"/>
</g>
<!-- Node21&#45;&gt;Node8 -->
<g id="edge33" class="edge"><title>Node21&#45;&gt;Node8</title>
<path fill="none" stroke="midnightblue" d="M1105.75,-64.1058C1228.28,-57.8324 1429.75,-64.3703 1572,-154.36 1645.59,-200.913 1687.38,-304.18 1701,-343.111"/>
<polygon fill="midnightblue" stroke="midnightblue" points="1105.4,-60.6197 1095.61,-64.6636 1105.78,-67.6091 1105.4,-60.6197"/>
</g>
</g>
</svg>
        <g id="navigator" transform="translate(0 0)" fill="#404254">
                <rect fill="#f2f5e9" fill-opacity="0.5" stroke="#606060" stroke-width=".5" x="0" y="0" width="60" height="60"/>
                <use id="zoomplus" xlink:href="#zoomPlus" x="17" y="9" onmousedown="handleZoom(evt,'in')"/>
                <use id="zoomminus" xlink:href="#zoomMin" x="42" y="9" onmousedown="handleZoom(evt,'out')"/>
                <use id="reset" xlink:href="#resetDef" x="30" y="36" onmousedown="handleReset()"/>
                <g id="arrowUp" xlink:href="#dirArrow" transform="translate(30 24)" onmousedown="handlePan(0,-1)">
                  <use xlink:href="#rim" fill="#404040">
                        <set attributeName="fill" to="#808080" begin="arrowUp.mouseover" end="arrowUp.mouseout"/>
                  </use>
                  <path fill="none" stroke="white" stroke-width="1.5" d="M0,-3.0v7 M-2.5,-0.5L0,-3.0L2.5,-0.5"/>
                </g>
                <g id="arrowRight" xlink:href="#dirArrow" transform="rotate(90) translate(36 -43)" onmousedown="handlePan(1,0)">
                  <use xlink:href="#rim" fill="#404040">
                        <set attributeName="fill" to="#808080" begin="arrowRight.mouseover" end="arrowRight.mouseout"/>
                  </use>
                  <path fill="none" stroke="white" stroke-width="1.5" d="M0,-3.0v7 M-2.5,-0.5L0,-3.0L2.5,-0.5"/>
                </g>
                <g id="arrowDown" xlink:href="#dirArrow" transform="rotate(180) translate(-30 -48)" onmousedown="handlePan(0,1)">
                  <use xlink:href="#rim" fill="#404040">
                        <set attributeName="fill" to="#808080" begin="arrowDown.mouseover" end="arrowDown.mouseout"/>
                  </use>
                  <path fill="none" stroke="white" stroke-width="1.5" d="M0,-3.0v7 M-2.5,-0.5L0,-3.0L2.5,-0.5"/>
                </g>
                <g id="arrowLeft" xlink:href="#dirArrow" transform="rotate(270) translate(-36 17)" onmousedown="handlePan(-1,0)">
                  <use xlink:href="#rim" fill="#404040">
                        <set attributeName="fill" to="#808080" begin="arrowLeft.mouseover" end="arrowLeft.mouseout"/>
                  </use>
                  <path fill="none" stroke="white" stroke-width="1.5" d="M0,-3.0v7 M-2.5,-0.5L0,-3.0L2.5,-0.5"/>
                </g>
        </g>
        <svg viewBox="0 0 15 15" width="100%" height="30px" preserveAspectRatio="xMaxYMin meet">
         <g id="arrow_out" transform="scale(0.3 0.3)">
          <a xlink:href="classslogo_1_1_u_i_1_1_button_creator_a26b4ab485f0d82531b0bb7d279cc83eb_icgraph_org.svg" target="_base">
           <rect id="button" ry="5" rx="5" y="6" x="6" height="38" width="38"
                fill="#f2f5e9" fill-opacity="0.5" stroke="#606060" stroke-width="1.0"/>
           <path id="arrow"
             d="M 11.500037,31.436501 C 11.940474,20.09759 22.043105,11.32322 32.158766,21.979434 L 37.068811,17.246167 C 37.068811,17.246167 37.088388,32 37.088388,32 L 22.160133,31.978069 C 22.160133,31.978069 26.997745,27.140456 26.997745,27.140456 C 18.528582,18.264221 13.291696,25.230495 11.500037,31.436501 z"
             style="fill:#404040;"/>
          </a>
         </g>
        </svg>
</svg>
