<?xml version="1.0" encoding="UTF-8" standalone="no"?>
<!DOCTYPE svg PUBLIC "-//W3C//DTD SVG 1.1//EN"
 "http://www.w3.org/Graphics/SVG/1.1/DTD/svg11.dtd">
<!-- Generated by graphviz version 2.36.0 (20140111.2315)
 -->
<!-- Title: slogo.backend.util.IDirection.toDegrees Pages: 1 -->
<!--zoomable 571 -->
<svg id="main" version="1.1" xmlns="http://www.w3.org/2000/svg" xmlns:xlink="http://www.w3.org/1999/xlink" xml:space="preserve" onload="init(evt)">
<style type="text/css"><![CDATA[
.edge:hover path { stroke: red; }
.edge:hover polygon { stroke: red; fill: red; }
]]></style>
<script type="text/javascript"><![CDATA[
var edges = document.getElementsByTagName('g');
if (edges && edges.length) {
  for (var i=0;i<edges.length;i++) {
    if (edges[i].id.substr(0,4)=='edge') {
      edges[i].setAttribute('class','edge');
    }
  }
}
]]></script>
        <defs>
                <circle id="rim" cx="0" cy="0" r="7"/>
                <circle id="rim2" cx="0" cy="0" r="3.5"/>
                <g id="zoomPlus">
                        <use xlink:href="#rim" fill="#404040">
                                <set attributeName="fill" to="#808080" begin="zoomplus.mouseover" end="zoomplus.mouseout"/>
                        </use>
                        <path d="M-4,0h8M0,-4v8" fill="none" stroke="white" stroke-width="1.5" pointer-events="none"/>
                </g>
                <g id="zoomMin">
                        <use xlink:href="#rim" fill="#404040">
                                <set attributeName="fill" to="#808080" begin="zoomminus.mouseover" end="zoomminus.mouseout"/>
                        </use>
                        <path d="M-4,0h8" fill="none" stroke="white" stroke-width="1.5" pointer-events="none"/>
                </g>
                <g id="dirArrow">
                        <path fill="none" stroke="white" stroke-width="1.5" d="M0,-3.0v7 M-2.5,-0.5L0,-3.0L2.5,-0.5"/>
                </g>
               <g id="resetDef">
                       <use xlink:href="#rim2" fill="#404040">
                               <set attributeName="fill" to="#808080" begin="reset.mouseover" end="reset.mouseout"/>
                       </use>
               </g>
        </defs>

<script type="text/javascript">
var viewWidth = 3042;
var viewHeight = 571;
var sectionId = 'dynsection-1';
</script>
<script xlink:href="../../svgpan.js"/>
<svg id="graph" class="graph">
<g id="viewport">
<title>slogo.backend.util.IDirection.toDegrees</title>
<polygon fill="white" stroke="none" points="-4,4 -4,-567 3038,-567 3038,4 -4,4"/>
<!-- Node1 -->
<g id="node1" class="node"><title>Node1</title>
<polygon fill="#bfbfbf" stroke="black" points="0,-171 0,-201 164,-201 164,-171 0,-171"/>
<text text-anchor="start" x="8" y="-189" font-family="Helvetica,sans-Serif" font-size="10.00">slogo.backend.util.IDirection.to</text>
<text text-anchor="middle" x="82" y="-178" font-family="Helvetica,sans-Serif" font-size="10.00">Degrees</text>
</g>
<!-- Node2 -->
<g id="node2" class="node"><title>Node2</title>
<g id="a_node2"><a xlink:href="../../d9/d7e/classslogo_1_1_u_i_1_1_method_runner.html#a5fe4a6310ba1b0851d7d30a440511324" target="_top" xlink:title="slogo.UI.MethodRunner.change\lTurtle">
<polygon fill="white" stroke="black" points="486,-193 486,-223 650,-223 650,-193 486,-193"/>
<text text-anchor="start" x="494" y="-211" font-family="Helvetica,sans-Serif" font-size="10.00">slogo.UI.MethodRunner.change</text>
<text text-anchor="middle" x="568" y="-200" font-family="Helvetica,sans-Serif" font-size="10.00">Turtle</text>
</a>
</g>
</g>
<!-- Node1&#45;&gt;Node2 -->
<g id="edge1" class="edge"><title>Node1&#45;&gt;Node2</title>
<path fill="none" stroke="midnightblue" d="M94.0277,-210.839C111.039,-245.669 147.32,-307.6 200,-333 300.085,-381.257 348.063,-377.211 450,-333 502.359,-310.292 541.992,-251.333 558.536,-223.273"/>
<polygon fill="midnightblue" stroke="midnightblue" points="96.9937,-208.924 89.5561,-201.378 90.6649,-211.915 96.9937,-208.924"/>
</g>
<!-- Node32 -->
<g id="node32" class="node"><title>Node32</title>
<g id="a_node32"><a xlink:href="../../d6/d79/classslogo_1_1backend_1_1impl_1_1evaluation_1_1commands_1_1turtle_1_1_heading.html#a278ee534ccfd2678abe1e69c98c7e9f9" target="_top" xlink:title="slogo.backend.impl.evaluation.commands.turtle.\lHeading.executeRaw">
<polygon fill="white" stroke="black" points="200,-294 200,-324 450,-324 450,-294 200,-294"/>
<text text-anchor="start" x="208" y="-312" font-family="Helvetica,sans-Serif" font-size="10.00">slogo.backend.impl.evaluation.commands.turtle.</text>
<text text-anchor="middle" x="325" y="-301" font-family="Helvetica,sans-Serif" font-size="10.00">Heading.executeRaw</text>
</a>
</g>
</g>
<!-- Node1&#45;&gt;Node32 -->
<g id="edge41" class="edge"><title>Node1&#45;&gt;Node32</title>
<path fill="none" stroke="midnightblue" d="M103.488,-208.828C125.181,-231.515 161.548,-265.516 200,-284 208.115,-287.901 216.811,-291.194 225.695,-293.973"/>
<polygon fill="midnightblue" stroke="midnightblue" points="105.841,-206.22 96.4472,-201.32 100.734,-211.009 105.841,-206.22"/>
</g>
<!-- Node33 -->
<g id="node33" class="node"><title>Node33</title>
<g id="a_node33"><a xlink:href="../../d7/d85/classslogo_1_1backend_1_1impl_1_1evaluation_1_1commands_1_1turtle_1_1_left.html#ac46914d4fd4a010ed3054d43611959d1" target="_top" xlink:title="slogo.backend.impl.evaluation.commands.turtle.\lLeft.executeRaw">
<polygon fill="white" stroke="black" points="200,-245 200,-275 450,-275 450,-245 200,-245"/>
<text text-anchor="start" x="208" y="-263" font-family="Helvetica,sans-Serif" font-size="10.00">slogo.backend.impl.evaluation.commands.turtle.</text>
<text text-anchor="middle" x="325" y="-252" font-family="Helvetica,sans-Serif" font-size="10.00">Left.executeRaw</text>
</a>
</g>
</g>
<!-- Node1&#45;&gt;Node33 -->
<g id="edge42" class="edge"><title>Node1&#45;&gt;Node33</title>
<path fill="none" stroke="midnightblue" d="M123.285,-205.197C145.514,-215.194 173.842,-226.972 200,-235 212.177,-238.737 225.201,-242.064 238.064,-244.975"/>
<polygon fill="midnightblue" stroke="midnightblue" points="124.707,-201.999 114.156,-201.038 121.805,-208.369 124.707,-201.999"/>
</g>
<!-- Node34 -->
<g id="node34" class="node"><title>Node34</title>
<g id="a_node34"><a xlink:href="../../d4/d06/classslogo_1_1backend_1_1impl_1_1evaluation_1_1commands_1_1turtle_1_1_set_heading.html#a3b6af0c41945db86474134ca2370cbb8" target="_top" xlink:title="slogo.backend.impl.evaluation.commands.turtle.\lSetHeading.executeRaw">
<polygon fill="white" stroke="black" points="200,-196 200,-226 450,-226 450,-196 200,-196"/>
<text text-anchor="start" x="208" y="-214" font-family="Helvetica,sans-Serif" font-size="10.00">slogo.backend.impl.evaluation.commands.turtle.</text>
<text text-anchor="middle" x="325" y="-203" font-family="Helvetica,sans-Serif" font-size="10.00">SetHeading.executeRaw</text>
</a>
</g>
</g>
<!-- Node1&#45;&gt;Node34 -->
<g id="edge43" class="edge"><title>Node1&#45;&gt;Node34</title>
<path fill="none" stroke="midnightblue" d="M174.332,-195.474C182.683,-196.341 191.233,-197.227 199.808,-198.117"/>
<polygon fill="midnightblue" stroke="midnightblue" points="174.563,-191.98 164.256,-194.429 173.841,-198.942 174.563,-191.98"/>
</g>
<!-- Node35 -->
<g id="node35" class="node"><title>Node35</title>
<g id="a_node35"><a xlink:href="../../d9/ddf/classslogo_1_1backend_1_1impl_1_1evaluation_1_1commands_1_1turtle_1_1_set_towards.html#aa9eccc9b78ac427f7380c6f69fad3001" target="_top" xlink:title="slogo.backend.impl.evaluation.commands.turtle.\lSetTowards.executeRaw">
<polygon fill="white" stroke="black" points="200,-147 200,-177 450,-177 450,-147 200,-147"/>
<text text-anchor="start" x="208" y="-165" font-family="Helvetica,sans-Serif" font-size="10.00">slogo.backend.impl.evaluation.commands.turtle.</text>
<text text-anchor="middle" x="325" y="-154" font-family="Helvetica,sans-Serif" font-size="10.00">SetTowards.executeRaw</text>
</a>
</g>
</g>
<!-- Node1&#45;&gt;Node35 -->
<g id="edge44" class="edge"><title>Node1&#45;&gt;Node35</title>
<path fill="none" stroke="midnightblue" d="M174.332,-176.905C182.683,-176.073 191.233,-175.222 199.808,-174.368"/>
<polygon fill="midnightblue" stroke="midnightblue" points="173.86,-173.434 164.256,-177.908 174.553,-180.4 173.86,-173.434"/>
</g>
<!-- Node36 -->
<g id="node36" class="node"><title>Node36</title>
<g id="a_node36"><a xlink:href="../../d4/db3/classslogo_1_1backend_1_1impl_1_1evaluation_1_1commands_1_1turtle_1_1_right.html#a1d92a3b975bdede4f2dd6d9e81973533" target="_top" xlink:title="slogo.backend.impl.evaluation.commands.turtle.\lRight.executeRaw">
<polygon fill="white" stroke="black" points="200,-98 200,-128 450,-128 450,-98 200,-98"/>
<text text-anchor="start" x="208" y="-116" font-family="Helvetica,sans-Serif" font-size="10.00">slogo.backend.impl.evaluation.commands.turtle.</text>
<text text-anchor="middle" x="325" y="-105" font-family="Helvetica,sans-Serif" font-size="10.00">Right.executeRaw</text>
</a>
</g>
</g>
<!-- Node1&#45;&gt;Node36 -->
<g id="edge45" class="edge"><title>Node1&#45;&gt;Node36</title>
<path fill="none" stroke="midnightblue" d="M124.564,-166.685C146.612,-157.022 174.375,-145.762 200,-138 212.295,-134.275 225.447,-130.948 238.421,-128.03"/>
<polygon fill="midnightblue" stroke="midnightblue" points="122.896,-163.597 115.177,-170.854 125.737,-169.994 122.896,-163.597"/>
</g>
<!-- Node37 -->
<g id="node37" class="node"><title>Node37</title>
<g id="a_node37"><a xlink:href="../../d9/d7e/classslogo_1_1_u_i_1_1_method_runner.html#a01eb2d18b4b4b26c83cb80be902a9b96" target="_top" xlink:title="slogo.UI.MethodRunner.set\lTurtleDirection">
<polygon fill="white" stroke="black" points="253,-49 253,-79 397,-79 397,-49 253,-49"/>
<text text-anchor="start" x="261" y="-67" font-family="Helvetica,sans-Serif" font-size="10.00">slogo.UI.MethodRunner.set</text>
<text text-anchor="middle" x="325" y="-56" font-family="Helvetica,sans-Serif" font-size="10.00">TurtleDirection</text>
</a>
</g>
</g>
<!-- Node1&#45;&gt;Node37 -->
<g id="edge46" class="edge"><title>Node1&#45;&gt;Node37</title>
<path fill="none" stroke="midnightblue" d="M103.535,-163.411C125.267,-140.96 161.663,-107.31 200,-89 216.349,-81.1916 235.038,-75.8196 252.862,-72.1246"/>
<polygon fill="midnightblue" stroke="midnightblue" points="100.828,-161.179 96.4812,-170.841 105.905,-165.998 100.828,-161.179"/>
</g>
<!-- Node38 -->
<g id="node38" class="node"><title>Node38</title>
<g id="a_node38"><a xlink:href="../../df/dc1/classslogo_1_1backend_1_1test_1_1_operation_test.html#ab8b3fd4448844a7a931a7ce3eb20cbae" target="_top" xlink:title="slogo.backend.test.Operation\lTest.testForward">
<polygon fill="white" stroke="black" points="246,-0 246,-30 404,-30 404,-0 246,-0"/>
<text text-anchor="start" x="254" y="-18" font-family="Helvetica,sans-Serif" font-size="10.00">slogo.backend.test.Operation</text>
<text text-anchor="middle" x="325" y="-7" font-family="Helvetica,sans-Serif" font-size="10.00">Test.testForward</text>
</a>
</g>
</g>
<!-- Node1&#45;&gt;Node38 -->
<g id="edge48" class="edge"><title>Node1&#45;&gt;Node38</title>
<path fill="none" stroke="midnightblue" d="M95.3731,-161.684C113.563,-128.57 150.765,-69.989 200,-40 213.785,-31.6033 229.877,-25.9674 245.813,-22.1991"/>
<polygon fill="midnightblue" stroke="midnightblue" points="92.1837,-160.226 90.549,-170.694 98.3548,-163.53 92.1837,-160.226"/>
</g>
<!-- Node3 -->
<g id="node3" class="node"><title>Node3</title>
<g id="a_node3"><a xlink:href="../../df/d2d/classslogo_1_1_view.html#accc79c56511a72090ff8a4d414b8d1f5" target="_top" xlink:title="slogo.View.executeTurtle\lCommands">
<polygon fill="white" stroke="black" points="686.5,-193 686.5,-223 819.5,-223 819.5,-193 686.5,-193"/>
<text text-anchor="start" x="694.5" y="-211" font-family="Helvetica,sans-Serif" font-size="10.00">slogo.View.executeTurtle</text>
<text text-anchor="middle" x="753" y="-200" font-family="Helvetica,sans-Serif" font-size="10.00">Commands</text>
</a>
</g>
</g>
<!-- Node2&#45;&gt;Node3 -->
<g id="edge2" class="edge"><title>Node2&#45;&gt;Node3</title>
<path fill="none" stroke="midnightblue" d="M660.35,-208C669.128,-208 677.907,-208 686.365,-208"/>
<polygon fill="midnightblue" stroke="midnightblue" points="660.066,-204.5 650.066,-208 660.066,-211.5 660.066,-204.5"/>
</g>
<!-- Node4 -->
<g id="node4" class="node"><title>Node4</title>
<g id="a_node4"><a xlink:href="../../df/d2d/classslogo_1_1_view.html#aa90e5d95d422b58b7f4b7f8a049defe1" target="_top" xlink:title="slogo.View.executeCommand">
<polygon fill="white" stroke="black" points="856,-198.5 856,-217.5 1014,-217.5 1014,-198.5 856,-198.5"/>
<text text-anchor="middle" x="935" y="-205.5" font-family="Helvetica,sans-Serif" font-size="10.00">slogo.View.executeCommand</text>
</a>
</g>
</g>
<!-- Node3&#45;&gt;Node4 -->
<g id="edge3" class="edge"><title>Node3&#45;&gt;Node4</title>
<path fill="none" stroke="midnightblue" d="M829.784,-208C838.42,-208 847.235,-208 855.901,-208"/>
<polygon fill="midnightblue" stroke="midnightblue" points="829.748,-204.5 819.748,-208 829.748,-211.5 829.748,-204.5"/>
</g>
<!-- Node5 -->
<g id="node5" class="node"><title>Node5</title>
<g id="a_node5"><a xlink:href="../../df/d2d/classslogo_1_1_view.html#aee563f6a0b15ac6668e4dcbdad40c73c" target="_top" xlink:title="slogo.View.sendCommandTo\lBackend">
<polygon fill="white" stroke="black" points="1056,-357 1056,-387 1208,-387 1208,-357 1056,-357"/>
<text text-anchor="start" x="1064" y="-375" font-family="Helvetica,sans-Serif" font-size="10.00">slogo.View.sendCommandTo</text>
<text text-anchor="middle" x="1132" y="-364" font-family="Helvetica,sans-Serif" font-size="10.00">Backend</text>
</a>
</g>
</g>
<!-- Node4&#45;&gt;Node5 -->
<g id="edge4" class="edge"><title>Node4&#45;&gt;Node5</title>
<path fill="none" stroke="midnightblue" d="M955.054,-224.025C992.765,-255.741 1076.43,-326.108 1113.15,-356.984"/>
<polygon fill="midnightblue" stroke="midnightblue" points="957.233,-221.284 947.327,-217.526 952.727,-226.641 957.233,-221.284"/>
</g>
<!-- Node25 -->
<g id="node25" class="node"><title>Node25</title>
<g id="a_node25"><a xlink:href="../../df/d2d/classslogo_1_1_view.html#a4c3084a198acf85804800d70eff9ee51" target="_top" xlink:title="slogo.View.stepIntoCommand">
<polygon fill="white" stroke="black" points="1053,-198.5 1053,-217.5 1211,-217.5 1211,-198.5 1053,-198.5"/>
<text text-anchor="middle" x="1132" y="-205.5" font-family="Helvetica,sans-Serif" font-size="10.00">slogo.View.stepIntoCommand</text>
</a>
</g>
</g>
<!-- Node4&#45;&gt;Node25 -->
<g id="edge32" class="edge"><title>Node4&#45;&gt;Node25</title>
<path fill="none" stroke="midnightblue" d="M1024.4,-208C1033.87,-208 1043.45,-208 1052.79,-208"/>
<polygon fill="midnightblue" stroke="midnightblue" points="1024.19,-204.5 1014.19,-208 1024.19,-211.5 1024.19,-204.5"/>
</g>
<!-- Node29 -->
<g id="node29" class="node"><title>Node29</title>
<g id="a_node29"><a xlink:href="../../df/d2d/classslogo_1_1_view.html#ac8b7f574c679e744a430f1649dc55e68" target="_top" xlink:title="slogo.View.stepOverCommand">
<polygon fill="white" stroke="black" points="1050.5,-155.5 1050.5,-174.5 1213.5,-174.5 1213.5,-155.5 1050.5,-155.5"/>
<text text-anchor="middle" x="1132" y="-162.5" font-family="Helvetica,sans-Serif" font-size="10.00">slogo.View.stepOverCommand</text>
</a>
</g>
</g>
<!-- Node4&#45;&gt;Node29 -->
<g id="edge37" class="edge"><title>Node4&#45;&gt;Node29</title>
<path fill="none" stroke="midnightblue" d="M989.056,-196.301C1020.07,-189.462 1058.71,-180.941 1087.84,-174.516"/>
<polygon fill="midnightblue" stroke="midnightblue" points="988.288,-192.886 979.277,-198.457 989.796,-199.721 988.288,-192.886"/>
</g>
<!-- Node6 -->
<g id="node6" class="node"><title>Node6</title>
<g id="a_node6"><a xlink:href="../../db/d19/classslogo_1_1_u_i_1_1_module_creation_helper.html#a69e17abcc7cf9a6ed7261d8fb1d631fa" target="_top" xlink:title="slogo.UI.ModuleCreationHelper.activate\lIncreaseDecreaseButtons">
<polygon fill="white" stroke="black" points="1250.5,-533 1250.5,-563 1455.5,-563 1455.5,-533 1250.5,-533"/>
<text text-anchor="start" x="1258.5" y="-551" font-family="Helvetica,sans-Serif" font-size="10.00">slogo.UI.ModuleCreationHelper.activate</text>
<text text-anchor="middle" x="1353" y="-540" font-family="Helvetica,sans-Serif" font-size="10.00">IncreaseDecreaseButtons</text>
</a>
</g>
</g>
<!-- Node5&#45;&gt;Node6 -->
<g id="edge5" class="edge"><title>Node5&#45;&gt;Node6</title>
<path fill="none" stroke="midnightblue" d="M1146.04,-396.219C1164.78,-428.724 1202.36,-486.06 1250,-518 1259.12,-524.116 1269.51,-529.01 1280.09,-532.919"/>
<polygon fill="midnightblue" stroke="midnightblue" points="1149.01,-394.361 1141.05,-387.368 1142.91,-397.798 1149.01,-394.361"/>
</g>
<!-- Node13 -->
<g id="node13" class="node"><title>Node13</title>
<g id="a_node13"><a xlink:href="../../db/d19/classslogo_1_1_u_i_1_1_module_creation_helper.html#aa70b0ad9e90e62509149bfd2ef2ba209" target="_top" xlink:title="slogo.UI.ModuleCreationHelper.activate\lKeyEvents">
<polygon fill="white" stroke="black" points="1976.5,-280 1976.5,-310 2181.5,-310 2181.5,-280 1976.5,-280"/>
<text text-anchor="start" x="1984.5" y="-298" font-family="Helvetica,sans-Serif" font-size="10.00">slogo.UI.ModuleCreationHelper.activate</text>
<text text-anchor="middle" x="2079" y="-287" font-family="Helvetica,sans-Serif" font-size="10.00">KeyEvents</text>
</a>
</g>
</g>
<!-- Node5&#45;&gt;Node13 -->
<g id="edge13" class="edge"><title>Node5&#45;&gt;Node13</title>
<path fill="none" stroke="midnightblue" d="M1162.18,-351.164C1184.9,-336.251 1217.88,-317.388 1250,-309 1384.15,-273.97 1786.16,-283.777 1976.26,-290.744"/>
<polygon fill="midnightblue" stroke="midnightblue" points="1160.05,-348.378 1153.7,-356.86 1163.95,-354.189 1160.05,-348.378"/>
</g>
<!-- Node14 -->
<g id="node14" class="node"><title>Node14</title>
<g id="a_node14"><a xlink:href="../../db/d19/classslogo_1_1_u_i_1_1_module_creation_helper.html#a2e841243ec3ca474e8822102343acc88" target="_top" xlink:title="slogo.UI.ModuleCreationHelper.activate\lNewTurtleButton">
<polygon fill="white" stroke="black" points="1492.5,-488 1492.5,-518 1697.5,-518 1697.5,-488 1492.5,-488"/>
<text text-anchor="start" x="1500.5" y="-506" font-family="Helvetica,sans-Serif" font-size="10.00">slogo.UI.ModuleCreationHelper.activate</text>
<text text-anchor="middle" x="1595" y="-495" font-family="Helvetica,sans-Serif" font-size="10.00">NewTurtleButton</text>
</a>
</g>
</g>
<!-- Node5&#45;&gt;Node14 -->
<g id="edge15" class="edge"><title>Node5&#45;&gt;Node14</title>
<path fill="none" stroke="midnightblue" d="M1149.02,-395.155C1169.1,-422.009 1206.24,-465.013 1250,-484 1326.41,-517.152 1421.47,-519.86 1492.29,-515.435"/>
<polygon fill="midnightblue" stroke="midnightblue" points="1151.83,-393.073 1143.11,-387.055 1146.18,-397.197 1151.83,-393.073"/>
</g>
<!-- Node16 -->
<g id="node16" class="node"><title>Node16</title>
<g id="a_node16"><a xlink:href="../../db/d19/classslogo_1_1_u_i_1_1_module_creation_helper.html#a9b1f07ab673191067907a059b1b0c524" target="_top" xlink:title="slogo.UI.ModuleCreationHelper.activate\lPlayButton">
<polygon fill="white" stroke="black" points="1250.5,-445 1250.5,-475 1455.5,-475 1455.5,-445 1250.5,-445"/>
<text text-anchor="start" x="1258.5" y="-463" font-family="Helvetica,sans-Serif" font-size="10.00">slogo.UI.ModuleCreationHelper.activate</text>
<text text-anchor="middle" x="1353" y="-452" font-family="Helvetica,sans-Serif" font-size="10.00">PlayButton</text>
</a>
</g>
</g>
<!-- Node5&#45;&gt;Node16 -->
<g id="edge18" class="edge"><title>Node5&#45;&gt;Node16</title>
<path fill="none" stroke="midnightblue" d="M1165.42,-392.354C1188.33,-406.006 1220.16,-423.522 1250,-435 1259.7,-438.73 1270.14,-442.039 1280.5,-444.929"/>
<polygon fill="midnightblue" stroke="midnightblue" points="1167.16,-389.317 1156.79,-387.145 1163.54,-395.31 1167.16,-389.317"/>
</g>
<!-- Node19 -->
<g id="node19" class="node"><title>Node19</title>
<g id="a_node19"><a xlink:href="../../db/d19/classslogo_1_1_u_i_1_1_module_creation_helper.html#a3a38d485562cb17591ec3fd07cffc18a" target="_top" xlink:title="slogo.UI.ModuleCreationHelper.activate\lTurtleCanvas">
<polygon fill="white" stroke="black" points="1734.5,-231 1734.5,-261 1939.5,-261 1939.5,-231 1734.5,-231"/>
<text text-anchor="start" x="1742.5" y="-249" font-family="Helvetica,sans-Serif" font-size="10.00">slogo.UI.ModuleCreationHelper.activate</text>
<text text-anchor="middle" x="1837" y="-238" font-family="Helvetica,sans-Serif" font-size="10.00">TurtleCanvas</text>
</a>
</g>
</g>
<!-- Node5&#45;&gt;Node19 -->
<g id="edge22" class="edge"><title>Node5&#45;&gt;Node19</title>
<path fill="none" stroke="midnightblue" d="M1152.37,-349.232C1173.63,-326.064 1210.1,-291.434 1250,-276 1335.51,-242.92 1590.48,-241.527 1734.33,-243.616"/>
<polygon fill="midnightblue" stroke="midnightblue" points="1149.56,-347.115 1145.5,-356.898 1154.78,-351.786 1149.56,-347.115"/>
</g>
<!-- Node21 -->
<g id="node21" class="node"><title>Node21</title>
<g id="a_node21"><a xlink:href="../../d1/d5f/classslogo_1_1_u_i_1_1_path_color_selector.html#ad3d9c82a0904c97edcec7cf67b85bd7b" target="_top" xlink:title="slogo.UI.PathColorSelector.create">
<polygon fill="white" stroke="black" points="1265,-406.5 1265,-425.5 1441,-425.5 1441,-406.5 1265,-406.5"/>
<text text-anchor="middle" x="1353" y="-413.5" font-family="Helvetica,sans-Serif" font-size="10.00">slogo.UI.PathColorSelector.create</text>
</a>
</g>
</g>
<!-- Node5&#45;&gt;Node21 -->
<g id="edge25" class="edge"><title>Node5&#45;&gt;Node21</title>
<path fill="none" stroke="midnightblue" d="M1215.74,-389.065C1227.24,-391.411 1238.91,-393.776 1250,-396 1267.25,-399.46 1286.16,-403.186 1302.95,-406.473"/>
<polygon fill="midnightblue" stroke="midnightblue" points="1216.19,-385.585 1205.69,-387.013 1214.79,-392.443 1216.19,-385.585"/>
</g>
<!-- Node23 -->
<g id="node23" class="node"><title>Node23</title>
<g id="a_node23"><a xlink:href="../../d4/d8d/classslogo_1_1_u_i_1_1_background_color_selector.html#ad75ba4ce104e071811d0fe039a4e839f" target="_top" xlink:title="slogo.UI.BackgroundColor\lSelector.create">
<polygon fill="white" stroke="black" points="1283,-357 1283,-387 1423,-387 1423,-357 1283,-357"/>
<text text-anchor="start" x="1291" y="-375" font-family="Helvetica,sans-Serif" font-size="10.00">slogo.UI.BackgroundColor</text>
<text text-anchor="middle" x="1353" y="-364" font-family="Helvetica,sans-Serif" font-size="10.00">Selector.create</text>
</a>
</g>
</g>
<!-- Node5&#45;&gt;Node23 -->
<g id="edge28" class="edge"><title>Node5&#45;&gt;Node23</title>
<path fill="none" stroke="midnightblue" d="M1218.14,-372C1239.6,-372 1262.37,-372 1282.93,-372"/>
<polygon fill="midnightblue" stroke="midnightblue" points="1218.06,-368.5 1208.06,-372 1218.06,-375.5 1218.06,-368.5"/>
</g>
<!-- Node24 -->
<g id="node24" class="node"><title>Node24</title>
<g id="a_node24"><a xlink:href="../../dd/da7/classslogo_1_1_u_i_1_1_turtle_image_selector.html#a3f268d9196ffebcbb5dc322d2897a9fe" target="_top" xlink:title="slogo.UI.TurtleImageSelector.create">
<polygon fill="white" stroke="black" points="1260,-318.5 1260,-337.5 1446,-337.5 1446,-318.5 1260,-318.5"/>
<text text-anchor="middle" x="1353" y="-325.5" font-family="Helvetica,sans-Serif" font-size="10.00">slogo.UI.TurtleImageSelector.create</text>
</a>
</g>
</g>
<!-- Node5&#45;&gt;Node24 -->
<g id="edge30" class="edge"><title>Node5&#45;&gt;Node24</title>
<path fill="none" stroke="midnightblue" d="M1215.74,-354.935C1227.24,-352.589 1238.91,-350.224 1250,-348 1267.25,-344.54 1286.16,-340.814 1302.95,-337.527"/>
<polygon fill="midnightblue" stroke="midnightblue" points="1214.79,-351.557 1205.69,-356.987 1216.19,-358.415 1214.79,-351.557"/>
</g>
<!-- Node7 -->
<g id="node7" class="node"><title>Node7</title>
<g id="a_node7"><a xlink:href="../../db/d19/classslogo_1_1_u_i_1_1_module_creation_helper.html#adce7362386f9a7b3006e7db08a2d578d" target="_top" xlink:title="slogo.UI.ModuleCreationHelper.create\lIncreaseDecreaseButtons">
<polygon fill="white" stroke="black" points="1738.5,-524 1738.5,-554 1935.5,-554 1935.5,-524 1738.5,-524"/>
<text text-anchor="start" x="1746.5" y="-542" font-family="Helvetica,sans-Serif" font-size="10.00">slogo.UI.ModuleCreationHelper.create</text>
<text text-anchor="middle" x="1837" y="-531" font-family="Helvetica,sans-Serif" font-size="10.00">IncreaseDecreaseButtons</text>
</a>
</g>
</g>
<!-- Node6&#45;&gt;Node7 -->
<g id="edge6" class="edge"><title>Node6&#45;&gt;Node7</title>
<path fill="none" stroke="midnightblue" d="M1465.79,-545.913C1548.23,-544.373 1659.29,-542.299 1738.21,-540.826"/>
<polygon fill="midnightblue" stroke="midnightblue" points="1465.56,-542.416 1455.63,-546.102 1465.69,-549.415 1465.56,-542.416"/>
</g>
<!-- Node8 -->
<g id="node8" class="node"><title>Node8</title>
<g id="a_node8"><a xlink:href="../../db/d19/classslogo_1_1_u_i_1_1_module_creation_helper.html#a7c650957b2389d6e6d36e8be8a33cd2b" target="_top" xlink:title="slogo.UI.ModuleCreationHelper.create\lSelectorVBoxModules">
<polygon fill="white" stroke="black" points="1980.5,-397 1980.5,-427 2177.5,-427 2177.5,-397 1980.5,-397"/>
<text text-anchor="start" x="1988.5" y="-415" font-family="Helvetica,sans-Serif" font-size="10.00">slogo.UI.ModuleCreationHelper.create</text>
<text text-anchor="middle" x="2079" y="-404" font-family="Helvetica,sans-Serif" font-size="10.00">SelectorVBoxModules</text>
</a>
</g>
</g>
<!-- Node7&#45;&gt;Node8 -->
<g id="edge7" class="edge"><title>Node7&#45;&gt;Node8</title>
<path fill="none" stroke="midnightblue" d="M1921,-520.732C1927.54,-518.424 1933.95,-515.854 1940,-513 1988.6,-490.077 2037.46,-449.079 2061.92,-427.025"/>
<polygon fill="midnightblue" stroke="midnightblue" points="1919.75,-517.461 1911.36,-523.93 1921.95,-524.105 1919.75,-517.461"/>
</g>
<!-- Node9 -->
<g id="node9" class="node"><title>Node9</title>
<g id="a_node9"><a xlink:href="../../db/d19/classslogo_1_1_u_i_1_1_module_creation_helper.html#afb9dbbbad7d872234a5b296fe129a34e" target="_top" xlink:title="slogo.UI.ModuleCreationHelper.create\lMainPageModules">
<polygon fill="white" stroke="black" points="2218.5,-280 2218.5,-310 2415.5,-310 2415.5,-280 2218.5,-280"/>
<text text-anchor="start" x="2226.5" y="-298" font-family="Helvetica,sans-Serif" font-size="10.00">slogo.UI.ModuleCreationHelper.create</text>
<text text-anchor="middle" x="2317" y="-287" font-family="Helvetica,sans-Serif" font-size="10.00">MainPageModules</text>
</a>
</g>
</g>
<!-- Node8&#45;&gt;Node9 -->
<g id="edge8" class="edge"><title>Node8&#45;&gt;Node9</title>
<path fill="none" stroke="midnightblue" d="M2119.58,-392.38C2166.29,-369.222 2242.96,-331.212 2285.37,-310.184"/>
<polygon fill="midnightblue" stroke="midnightblue" points="2117.77,-389.366 2110.37,-396.944 2120.88,-395.638 2117.77,-389.366"/>
</g>
<!-- Node10 -->
<g id="node10" class="node"><title>Node10</title>
<g id="a_node10"><a xlink:href="../../d9/d33/classslogo_1_1_u_i_1_1_main.html#a15b7f2e399ee24d160550993ab737e73" target="_top" xlink:title="slogo.UI.Main.start">
<polygon fill="white" stroke="black" points="2452,-294.5 2452,-313.5 2558,-313.5 2558,-294.5 2452,-294.5"/>
<text text-anchor="middle" x="2505" y="-301.5" font-family="Helvetica,sans-Serif" font-size="10.00">slogo.UI.Main.start</text>
</a>
</g>
</g>
<!-- Node9&#45;&gt;Node10 -->
<g id="edge9" class="edge"><title>Node9&#45;&gt;Node10</title>
<path fill="none" stroke="midnightblue" d="M2425.8,-300.216C2434.76,-300.65 2443.53,-301.074 2451.76,-301.472"/>
<polygon fill="midnightblue" stroke="midnightblue" points="2425.79,-296.712 2415.63,-299.724 2425.45,-303.703 2425.79,-296.712"/>
</g>
<!-- Node11 -->
<g id="node11" class="node"><title>Node11</title>
<g id="a_node11"><a xlink:href="../../db/d19/classslogo_1_1_u_i_1_1_module_creation_helper.html#a3be12a7cc2b8a219db1e296211a2cb88" target="_top" xlink:title="slogo.UI.ModuleCreationHelper.activate\lExtraWorkspaceButton">
<polygon fill="white" stroke="black" points="2594.5,-307 2594.5,-337 2799.5,-337 2799.5,-307 2594.5,-307"/>
<text text-anchor="start" x="2602.5" y="-325" font-family="Helvetica,sans-Serif" font-size="10.00">slogo.UI.ModuleCreationHelper.activate</text>
<text text-anchor="middle" x="2697" y="-314" font-family="Helvetica,sans-Serif" font-size="10.00">ExtraWorkspaceButton</text>
</a>
</g>
</g>
<!-- Node10&#45;&gt;Node11 -->
<g id="edge10" class="edge"><title>Node10&#45;&gt;Node11</title>
<path fill="none" stroke="midnightblue" d="M2568.22,-309.894C2576.63,-310.691 2585.44,-311.526 2594.32,-312.367"/>
<polygon fill="midnightblue" stroke="midnightblue" points="2568.46,-306.401 2558.17,-308.942 2567.79,-313.37 2568.46,-306.401"/>
</g>
<!-- Node12 -->
<g id="node12" class="node"><title>Node12</title>
<g id="a_node12"><a xlink:href="../../db/d19/classslogo_1_1_u_i_1_1_module_creation_helper.html#a702c1ebe24d2857a10c666eb1fcc315d" target="_top" xlink:title="slogo.UI.ModuleCreationHelper.create\lExtraWorkspaceButton">
<polygon fill="white" stroke="black" points="2836.5,-333 2836.5,-363 3033.5,-363 3033.5,-333 2836.5,-333"/>
<text text-anchor="start" x="2844.5" y="-351" font-family="Helvetica,sans-Serif" font-size="10.00">slogo.UI.ModuleCreationHelper.create</text>
<text text-anchor="middle" x="2935" y="-340" font-family="Helvetica,sans-Serif" font-size="10.00">ExtraWorkspaceButton</text>
</a>
</g>
</g>
<!-- Node11&#45;&gt;Node12 -->
<g id="edge11" class="edge"><title>Node11&#45;&gt;Node12</title>
<path fill="none" stroke="midnightblue" d="M2809.77,-334.313C2818.62,-335.289 2827.52,-336.27 2836.27,-337.234"/>
<polygon fill="midnightblue" stroke="midnightblue" points="2810.12,-330.831 2799.8,-333.215 2809.35,-337.789 2810.12,-330.831"/>
</g>
<!-- Node12&#45;&gt;Node8 -->
<g id="edge12" class="edge"><title>Node12&#45;&gt;Node8</title>
<path fill="none" stroke="midnightblue" d="M2826.34,-356.068C2658.9,-368.617 2338.6,-392.62 2177.55,-404.69"/>
<polygon fill="midnightblue" stroke="midnightblue" points="2826.7,-359.551 2836.41,-355.313 2826.18,-352.571 2826.7,-359.551"/>
</g>
<!-- Node13&#45;&gt;Node9 -->
<g id="edge14" class="edge"><title>Node13&#45;&gt;Node9</title>
<path fill="none" stroke="midnightblue" d="M2192.05,-295C2200.81,-295 2209.62,-295 2218.27,-295"/>
<polygon fill="midnightblue" stroke="midnightblue" points="2191.8,-291.5 2181.8,-295 2191.8,-298.5 2191.8,-291.5"/>
</g>
<!-- Node15 -->
<g id="node15" class="node"><title>Node15</title>
<g id="a_node15"><a xlink:href="../../db/d19/classslogo_1_1_u_i_1_1_module_creation_helper.html#a07f5483df317cdf80e8ea2dda5699afa" target="_top" xlink:title="slogo.UI.ModuleCreationHelper.create\lNewTurtleButton">
<polygon fill="white" stroke="black" points="1738.5,-474 1738.5,-504 1935.5,-504 1935.5,-474 1738.5,-474"/>
<text text-anchor="start" x="1746.5" y="-492" font-family="Helvetica,sans-Serif" font-size="10.00">slogo.UI.ModuleCreationHelper.create</text>
<text text-anchor="middle" x="1837" y="-481" font-family="Helvetica,sans-Serif" font-size="10.00">NewTurtleButton</text>
</a>
</g>
</g>
<!-- Node14&#45;&gt;Node15 -->
<g id="edge16" class="edge"><title>Node14&#45;&gt;Node15</title>
<path fill="none" stroke="midnightblue" d="M1707.89,-496.473C1718.04,-495.881 1728.26,-495.285 1738.27,-494.701"/>
<polygon fill="midnightblue" stroke="midnightblue" points="1707.56,-492.986 1697.78,-497.063 1707.97,-499.974 1707.56,-492.986"/>
</g>
<!-- Node15&#45;&gt;Node8 -->
<g id="edge17" class="edge"><title>Node15&#45;&gt;Node8</title>
<path fill="none" stroke="midnightblue" d="M1908.15,-471.309C1918.87,-468.354 1929.76,-465.203 1940,-462 1973.93,-451.387 2011.86,-437.493 2039.35,-427.046"/>
<polygon fill="midnightblue" stroke="midnightblue" points="1907.12,-467.962 1898.39,-473.963 1908.96,-474.717 1907.12,-467.962"/>
</g>
<!-- Node17 -->
<g id="node17" class="node"><title>Node17</title>
<g id="a_node17"><a xlink:href="../../db/d19/classslogo_1_1_u_i_1_1_module_creation_helper.html#a9b3fb38a55b3b7812b4f793afa7a974f" target="_top" xlink:title="slogo.UI.ModuleCreationHelper.create\lPlayButton">
<polygon fill="white" stroke="black" points="1496.5,-439 1496.5,-469 1693.5,-469 1693.5,-439 1496.5,-439"/>
<text text-anchor="start" x="1504.5" y="-457" font-family="Helvetica,sans-Serif" font-size="10.00">slogo.UI.ModuleCreationHelper.create</text>
<text text-anchor="middle" x="1595" y="-446" font-family="Helvetica,sans-Serif" font-size="10.00">PlayButton</text>
</a>
</g>
</g>
<!-- Node16&#45;&gt;Node17 -->
<g id="edge19" class="edge"><title>Node16&#45;&gt;Node17</title>
<path fill="none" stroke="midnightblue" d="M1465.89,-457.203C1476.04,-456.949 1486.26,-456.694 1496.27,-456.443"/>
<polygon fill="midnightblue" stroke="midnightblue" points="1465.69,-453.707 1455.78,-457.455 1465.87,-460.704 1465.69,-453.707"/>
</g>
<!-- Node18 -->
<g id="node18" class="node"><title>Node18</title>
<g id="a_node18"><a xlink:href="../../db/d19/classslogo_1_1_u_i_1_1_module_creation_helper.html#ae1e60d37509c2e5eddcb2a6e70b4f650" target="_top" xlink:title="slogo.UI.ModuleCreationHelper.create\lFirstRowButtons">
<polygon fill="white" stroke="black" points="1738.5,-423 1738.5,-453 1935.5,-453 1935.5,-423 1738.5,-423"/>
<text text-anchor="start" x="1746.5" y="-441" font-family="Helvetica,sans-Serif" font-size="10.00">slogo.UI.ModuleCreationHelper.create</text>
<text text-anchor="middle" x="1837" y="-430" font-family="Helvetica,sans-Serif" font-size="10.00">FirstRowButtons</text>
</a>
</g>
</g>
<!-- Node17&#45;&gt;Node18 -->
<g id="edge20" class="edge"><title>Node17&#45;&gt;Node18</title>
<path fill="none" stroke="midnightblue" d="M1703.73,-446.818C1715.3,-446.046 1727.03,-445.265 1738.47,-444.502"/>
<polygon fill="midnightblue" stroke="midnightblue" points="1703.36,-443.335 1693.62,-447.492 1703.83,-450.319 1703.36,-443.335"/>
</g>
<!-- Node18&#45;&gt;Node8 -->
<g id="edge21" class="edge"><title>Node18&#45;&gt;Node8</title>
<path fill="none" stroke="midnightblue" d="M1945.73,-426.329C1957.3,-425.075 1969.03,-423.805 1980.47,-422.566"/>
<polygon fill="midnightblue" stroke="midnightblue" points="1945.18,-422.868 1935.62,-427.425 1945.94,-429.827 1945.18,-422.868"/>
</g>
<!-- Node20 -->
<g id="node20" class="node"><title>Node20</title>
<g id="a_node20"><a xlink:href="../../db/d19/classslogo_1_1_u_i_1_1_module_creation_helper.html#a803bac6b55bde712b21f2face1eeef81" target="_top" xlink:title="slogo.UI.ModuleCreationHelper.create\lTurtleCanvas">
<polygon fill="white" stroke="black" points="1980.5,-231 1980.5,-261 2177.5,-261 2177.5,-231 1980.5,-231"/>
<text text-anchor="start" x="1988.5" y="-249" font-family="Helvetica,sans-Serif" font-size="10.00">slogo.UI.ModuleCreationHelper.create</text>
<text text-anchor="middle" x="2079" y="-238" font-family="Helvetica,sans-Serif" font-size="10.00">TurtleCanvas</text>
</a>
</g>
</g>
<!-- Node19&#45;&gt;Node20 -->
<g id="edge23" class="edge"><title>Node19&#45;&gt;Node20</title>
<path fill="none" stroke="midnightblue" d="M1949.89,-246C1960.04,-246 1970.26,-246 1980.27,-246"/>
<polygon fill="midnightblue" stroke="midnightblue" points="1949.78,-242.5 1939.78,-246 1949.78,-249.5 1949.78,-242.5"/>
</g>
<!-- Node20&#45;&gt;Node9 -->
<g id="edge24" class="edge"><title>Node20&#45;&gt;Node9</title>
<path fill="none" stroke="midnightblue" d="M2162.42,-263.113C2188.9,-268.611 2218.03,-274.658 2243.73,-279.994"/>
<polygon fill="midnightblue" stroke="midnightblue" points="2162.91,-259.641 2152.41,-261.035 2161.49,-266.495 2162.91,-259.641"/>
</g>
<!-- Node22 -->
<g id="node22" class="node"><title>Node22</title>
<g id="a_node22"><a xlink:href="../../db/d19/classslogo_1_1_u_i_1_1_module_creation_helper.html#af7f2919454fdbf6e9d7d912e99634857" target="_top" xlink:title="slogo.UI.ModuleCreationHelper.create\lSelectors">
<polygon fill="white" stroke="black" points="1496.5,-374 1496.5,-404 1693.5,-404 1693.5,-374 1496.5,-374"/>
<text text-anchor="start" x="1504.5" y="-392" font-family="Helvetica,sans-Serif" font-size="10.00">slogo.UI.ModuleCreationHelper.create</text>
<text text-anchor="middle" x="1595" y="-381" font-family="Helvetica,sans-Serif" font-size="10.00">Selectors</text>
</a>
</g>
</g>
<!-- Node21&#45;&gt;Node22 -->
<g id="edge26" class="edge"><title>Node21&#45;&gt;Node22</title>
<path fill="none" stroke="midnightblue" d="M1448.76,-405.339C1464.36,-403.585 1480.54,-401.764 1496.21,-400.002"/>
<polygon fill="midnightblue" stroke="midnightblue" points="1448.16,-401.885 1438.62,-406.481 1448.94,-408.841 1448.16,-401.885"/>
</g>
<!-- Node22&#45;&gt;Node8 -->
<g id="edge27" class="edge"><title>Node22&#45;&gt;Node8</title>
<path fill="none" stroke="midnightblue" d="M1703.74,-394.141C1786.55,-398.092 1899.97,-403.505 1980.19,-407.333"/>
<polygon fill="midnightblue" stroke="midnightblue" points="1703.7,-390.635 1693.54,-393.654 1703.36,-397.627 1703.7,-390.635"/>
</g>
<!-- Node23&#45;&gt;Node22 -->
<g id="edge29" class="edge"><title>Node23&#45;&gt;Node22</title>
<path fill="none" stroke="midnightblue" d="M1433.18,-377.609C1453.4,-379.041 1475.37,-380.597 1496.39,-382.086"/>
<polygon fill="midnightblue" stroke="midnightblue" points="1433.32,-374.11 1423.1,-376.894 1432.82,-381.092 1433.32,-374.11"/>
</g>
<!-- Node24&#45;&gt;Node22 -->
<g id="edge31" class="edge"><title>Node24&#45;&gt;Node22</title>
<path fill="none" stroke="midnightblue" d="M1417.74,-339.528C1430.46,-342.101 1443.69,-344.973 1456,-348 1486.7,-355.552 1520.76,-365.652 1547.36,-373.938"/>
<polygon fill="midnightblue" stroke="midnightblue" points="1418.17,-336.044 1407.68,-337.531 1416.8,-342.91 1418.17,-336.044"/>
</g>
<!-- Node26 -->
<g id="node26" class="node"><title>Node26</title>
<g id="a_node26"><a xlink:href="../../db/d19/classslogo_1_1_u_i_1_1_module_creation_helper.html#a9fd730f7c1860d34bf4ac46c3828bd59" target="_top" xlink:title="slogo.UI.ModuleCreationHelper.activate\lStepIntoButton">
<polygon fill="white" stroke="black" points="1250.5,-193 1250.5,-223 1455.5,-223 1455.5,-193 1250.5,-193"/>
<text text-anchor="start" x="1258.5" y="-211" font-family="Helvetica,sans-Serif" font-size="10.00">slogo.UI.ModuleCreationHelper.activate</text>
<text text-anchor="middle" x="1353" y="-200" font-family="Helvetica,sans-Serif" font-size="10.00">StepIntoButton</text>
</a>
</g>
</g>
<!-- Node25&#45;&gt;Node26 -->
<g id="edge33" class="edge"><title>Node25&#45;&gt;Node26</title>
<path fill="none" stroke="midnightblue" d="M1221.33,-208C1230.82,-208 1240.54,-208 1250.17,-208"/>
<polygon fill="midnightblue" stroke="midnightblue" points="1221.14,-204.5 1211.14,-208 1221.14,-211.5 1221.14,-204.5"/>
</g>
<!-- Node27 -->
<g id="node27" class="node"><title>Node27</title>
<g id="a_node27"><a xlink:href="../../db/d19/classslogo_1_1_u_i_1_1_module_creation_helper.html#a4a6f1f009507c25be8c7c28cbba35f3b" target="_top" xlink:title="slogo.UI.ModuleCreationHelper.create\lDebugStepIntoButton">
<polygon fill="white" stroke="black" points="1496.5,-193 1496.5,-223 1693.5,-223 1693.5,-193 1496.5,-193"/>
<text text-anchor="start" x="1504.5" y="-211" font-family="Helvetica,sans-Serif" font-size="10.00">slogo.UI.ModuleCreationHelper.create</text>
<text text-anchor="middle" x="1595" y="-200" font-family="Helvetica,sans-Serif" font-size="10.00">DebugStepIntoButton</text>
</a>
</g>
</g>
<!-- Node26&#45;&gt;Node27 -->
<g id="edge34" class="edge"><title>Node26&#45;&gt;Node27</title>
<path fill="none" stroke="midnightblue" d="M1465.89,-208C1476.04,-208 1486.26,-208 1496.27,-208"/>
<polygon fill="midnightblue" stroke="midnightblue" points="1465.78,-204.5 1455.78,-208 1465.78,-211.5 1465.78,-204.5"/>
</g>
<!-- Node28 -->
<g id="node28" class="node"><title>Node28</title>
<g id="a_node28"><a xlink:href="../../db/d19/classslogo_1_1_u_i_1_1_module_creation_helper.html#a975af4ea47dc85df72215bdf1a0d20ce" target="_top" xlink:title="slogo.UI.ModuleCreationHelper.create\lDebugModules">
<polygon fill="white" stroke="black" points="1738.5,-182 1738.5,-212 1935.5,-212 1935.5,-182 1738.5,-182"/>
<text text-anchor="start" x="1746.5" y="-200" font-family="Helvetica,sans-Serif" font-size="10.00">slogo.UI.ModuleCreationHelper.create</text>
<text text-anchor="middle" x="1837" y="-189" font-family="Helvetica,sans-Serif" font-size="10.00">DebugModules</text>
</a>
</g>
</g>
<!-- Node27&#45;&gt;Node28 -->
<g id="edge35" class="edge"><title>Node27&#45;&gt;Node28</title>
<path fill="none" stroke="midnightblue" d="M1703.73,-203.062C1715.3,-202.532 1727.03,-201.995 1738.47,-201.47"/>
<polygon fill="midnightblue" stroke="midnightblue" points="1703.45,-199.572 1693.62,-203.526 1703.77,-206.564 1703.45,-199.572"/>
</g>
<!-- Node28&#45;&gt;Node9 -->
<g id="edge36" class="edge"><title>Node28&#45;&gt;Node9</title>
<path fill="none" stroke="midnightblue" d="M1945.59,-193.216C2014.49,-193.605 2105.06,-199.402 2182,-222 2224.96,-234.617 2269.6,-262.39 2294.97,-279.809"/>
<polygon fill="midnightblue" stroke="midnightblue" points="1945.6,-189.716 1935.59,-193.196 1945.58,-196.716 1945.6,-189.716"/>
</g>
<!-- Node30 -->
<g id="node30" class="node"><title>Node30</title>
<g id="a_node30"><a xlink:href="../../db/d19/classslogo_1_1_u_i_1_1_module_creation_helper.html#a0fed0bb32bf2643d6fd5c24d82e8e18e" target="_top" xlink:title="slogo.UI.ModuleCreationHelper.activate\lStepOverButton">
<polygon fill="white" stroke="black" points="1250.5,-144 1250.5,-174 1455.5,-174 1455.5,-144 1250.5,-144"/>
<text text-anchor="start" x="1258.5" y="-162" font-family="Helvetica,sans-Serif" font-size="10.00">slogo.UI.ModuleCreationHelper.activate</text>
<text text-anchor="middle" x="1353" y="-151" font-family="Helvetica,sans-Serif" font-size="10.00">StepOverButton</text>
</a>
</g>
</g>
<!-- Node29&#45;&gt;Node30 -->
<g id="edge38" class="edge"><title>Node29&#45;&gt;Node30</title>
<path fill="none" stroke="midnightblue" d="M1223.8,-162.512C1232.56,-162.272 1241.48,-162.028 1250.33,-161.786"/>
<polygon fill="midnightblue" stroke="midnightblue" points="1223.51,-159.019 1213.61,-162.791 1223.71,-166.016 1223.51,-159.019"/>
</g>
<!-- Node31 -->
<g id="node31" class="node"><title>Node31</title>
<g id="a_node31"><a xlink:href="../../db/d19/classslogo_1_1_u_i_1_1_module_creation_helper.html#aa1e7dc2b509360583790fba0d3819c8d" target="_top" xlink:title="slogo.UI.ModuleCreationHelper.create\lDebugStepOverButton">
<polygon fill="white" stroke="black" points="1496.5,-144 1496.5,-174 1693.5,-174 1693.5,-144 1496.5,-144"/>
<text text-anchor="start" x="1504.5" y="-162" font-family="Helvetica,sans-Serif" font-size="10.00">slogo.UI.ModuleCreationHelper.create</text>
<text text-anchor="middle" x="1595" y="-151" font-family="Helvetica,sans-Serif" font-size="10.00">DebugStepOverButton</text>
</a>
</g>
</g>
<!-- Node30&#45;&gt;Node31 -->
<g id="edge39" class="edge"><title>Node30&#45;&gt;Node31</title>
<path fill="none" stroke="midnightblue" d="M1465.89,-159C1476.04,-159 1486.26,-159 1496.27,-159"/>
<polygon fill="midnightblue" stroke="midnightblue" points="1465.78,-155.5 1455.78,-159 1465.78,-162.5 1465.78,-155.5"/>
</g>
<!-- Node31&#45;&gt;Node28 -->
<g id="edge40" class="edge"><title>Node31&#45;&gt;Node28</title>
<path fill="none" stroke="midnightblue" d="M1700.99,-175.623C1714.31,-177.733 1727.89,-179.883 1741.05,-181.966"/>
<polygon fill="midnightblue" stroke="midnightblue" points="1701.28,-172.126 1690.85,-174.019 1700.18,-179.039 1701.28,-172.126"/>
</g>
<!-- Node37&#45;&gt;Node2 -->
<g id="edge47" class="edge"><title>Node37&#45;&gt;Node2</title>
<path fill="none" stroke="midnightblue" d="M406.832,-73.0584C421.747,-76.7155 436.773,-81.8357 450,-89 497.894,-114.942 538.543,-166.959 556.758,-192.763"/>
<polygon fill="midnightblue" stroke="midnightblue" points="407.591,-69.6417 397.066,-70.8596 406.053,-76.4708 407.591,-69.6417"/>
</g>
</g>
</svg>
        <g id="navigator" transform="translate(0 0)" fill="#404254">
                <rect fill="#f2f5e9" fill-opacity="0.5" stroke="#606060" stroke-width=".5" x="0" y="0" width="60" height="60"/>
                <use id="zoomplus" xlink:href="#zoomPlus" x="17" y="9" onmousedown="handleZoom(evt,'in')"/>
                <use id="zoomminus" xlink:href="#zoomMin" x="42" y="9" onmousedown="handleZoom(evt,'out')"/>
                <use id="reset" xlink:href="#resetDef" x="30" y="36" onmousedown="handleReset()"/>
                <g id="arrowUp" xlink:href="#dirArrow" transform="translate(30 24)" onmousedown="handlePan(0,-1)">
                  <use xlink:href="#rim" fill="#404040">
                        <set attributeName="fill" to="#808080" begin="arrowUp.mouseover" end="arrowUp.mouseout"/>
                  </use>
                  <path fill="none" stroke="white" stroke-width="1.5" d="M0,-3.0v7 M-2.5,-0.5L0,-3.0L2.5,-0.5"/>
                </g>
                <g id="arrowRight" xlink:href="#dirArrow" transform="rotate(90) translate(36 -43)" onmousedown="handlePan(1,0)">
                  <use xlink:href="#rim" fill="#404040">
                        <set attributeName="fill" to="#808080" begin="arrowRight.mouseover" end="arrowRight.mouseout"/>
                  </use>
                  <path fill="none" stroke="white" stroke-width="1.5" d="M0,-3.0v7 M-2.5,-0.5L0,-3.0L2.5,-0.5"/>
                </g>
                <g id="arrowDown" xlink:href="#dirArrow" transform="rotate(180) translate(-30 -48)" onmousedown="handlePan(0,1)">
                  <use xlink:href="#rim" fill="#404040">
                        <set attributeName="fill" to="#808080" begin="arrowDown.mouseover" end="arrowDown.mouseout"/>
                  </use>
                  <path fill="none" stroke="white" stroke-width="1.5" d="M0,-3.0v7 M-2.5,-0.5L0,-3.0L2.5,-0.5"/>
                </g>
                <g id="arrowLeft" xlink:href="#dirArrow" transform="rotate(270) translate(-36 17)" onmousedown="handlePan(-1,0)">
                  <use xlink:href="#rim" fill="#404040">
                        <set attributeName="fill" to="#808080" begin="arrowLeft.mouseover" end="arrowLeft.mouseout"/>
                  </use>
                  <path fill="none" stroke="white" stroke-width="1.5" d="M0,-3.0v7 M-2.5,-0.5L0,-3.0L2.5,-0.5"/>
                </g>
        </g>
        <svg viewBox="0 0 15 15" width="100%" height="30px" preserveAspectRatio="xMaxYMin meet">
         <g id="arrow_out" transform="scale(0.3 0.3)">
          <a xlink:href="interfaceslogo_1_1backend_1_1util_1_1_i_direction_a166b3806a3c7c0145a4eaa02576d1d41_icgraph_org.svg" target="_base">
           <rect id="button" ry="5" rx="5" y="6" x="6" height="38" width="38"
                fill="#f2f5e9" fill-opacity="0.5" stroke="#606060" stroke-width="1.0"/>
           <path id="arrow"
             d="M 11.500037,31.436501 C 11.940474,20.09759 22.043105,11.32322 32.158766,21.979434 L 37.068811,17.246167 C 37.068811,17.246167 37.088388,32 37.088388,32 L 22.160133,31.978069 C 22.160133,31.978069 26.997745,27.140456 26.997745,27.140456 C 18.528582,18.264221 13.291696,25.230495 11.500037,31.436501 z"
             style="fill:#404040;"/>
          </a>
         </g>
        </svg>
</svg>
