<?xml version="1.0" encoding="UTF-8" standalone="no"?>
<!DOCTYPE svg PUBLIC "-//W3C//DTD SVG 1.1//EN"
 "http://www.w3.org/Graphics/SVG/1.1/DTD/svg11.dtd">
<!-- Generated by graphviz version 2.36.0 (20140111.2315)
 -->
<!-- Title: slogo.backend.util.IDirection.toRadians Pages: 1 -->
<svg width="458pt" height="87pt"
 viewBox="0.00 0.00 458.00 87.00" xmlns="http://www.w3.org/2000/svg" xmlns:xlink="http://www.w3.org/1999/xlink">
<g id="graph0" class="graph" transform="scale(1 1) rotate(0) translate(4 83)">
<title>slogo.backend.util.IDirection.toRadians</title>
<polygon fill="white" stroke="none" points="-4,4 -4,-83 454,-83 454,4 -4,4"/>
<!-- Node1 -->
<g id="node1" class="node"><title>Node1</title>
<polygon fill="#bfbfbf" stroke="black" points="0,-24 0,-54 164,-54 164,-24 0,-24"/>
<text text-anchor="start" x="8" y="-42" font-family="Helvetica,sans-Serif" font-size="10.00">slogo.backend.util.IDirection.to</text>
<text text-anchor="middle" x="82" y="-31" font-family="Helvetica,sans-Serif" font-size="10.00">Radians</text>
</g>
<!-- Node2 -->
<g id="node2" class="node"><title>Node2</title>
<g id="a_node2"><a xlink:href="../../da/dba/classslogo_1_1backend_1_1impl_1_1evaluation_1_1commands_1_1turtle_1_1_backward.html#a403f01b198cadf4cef192b36bd776d39" target="_top" xlink:title="slogo.backend.impl.evaluation.commands.turtle.\lBackward.executeRaw">
<polygon fill="white" stroke="black" points="200,-49 200,-79 450,-79 450,-49 200,-49"/>
<text text-anchor="start" x="208" y="-67" font-family="Helvetica,sans-Serif" font-size="10.00">slogo.backend.impl.evaluation.commands.turtle.</text>
<text text-anchor="middle" x="325" y="-56" font-family="Helvetica,sans-Serif" font-size="10.00">Backward.executeRaw</text>
</a>
</g>
</g>
<!-- Node1&#45;&gt;Node2 -->
<g id="edge1" class="edge"><title>Node1&#45;&gt;Node2</title>
<path fill="none" stroke="midnightblue" d="M174.332,-48.4742C182.683,-49.3405 191.233,-50.2275 199.808,-51.117"/>
<polygon fill="midnightblue" stroke="midnightblue" points="174.563,-44.9796 164.256,-47.429 173.841,-51.9422 174.563,-44.9796"/>
</g>
<!-- Node3 -->
<g id="node3" class="node"><title>Node3</title>
<g id="a_node3"><a xlink:href="../../da/d34/classslogo_1_1backend_1_1impl_1_1evaluation_1_1commands_1_1turtle_1_1_forward.html#a9fca7d06932aa5b628d30e79d5f30858" target="_top" xlink:title="slogo.backend.impl.evaluation.commands.turtle.\lForward.executeRaw">
<polygon fill="white" stroke="black" points="200,-0 200,-30 450,-30 450,-0 200,-0"/>
<text text-anchor="start" x="208" y="-18" font-family="Helvetica,sans-Serif" font-size="10.00">slogo.backend.impl.evaluation.commands.turtle.</text>
<text text-anchor="middle" x="325" y="-7" font-family="Helvetica,sans-Serif" font-size="10.00">Forward.executeRaw</text>
</a>
</g>
</g>
<!-- Node1&#45;&gt;Node3 -->
<g id="edge2" class="edge"><title>Node1&#45;&gt;Node3</title>
<path fill="none" stroke="midnightblue" d="M174.332,-29.9047C182.683,-29.0731 191.233,-28.2216 199.808,-27.3677"/>
<polygon fill="midnightblue" stroke="midnightblue" points="173.86,-26.4343 164.256,-30.9082 174.553,-33.3999 173.86,-26.4343"/>
</g>
</g>
</svg>
