<?xml version="1.0" encoding="UTF-8" standalone="no"?>
<!DOCTYPE svg PUBLIC "-//W3C//DTD SVG 1.1//EN"
 "http://www.w3.org/Graphics/SVG/1.1/DTD/svg11.dtd">
<!-- Generated by graphviz version 2.36.0 (20140111.2315)
 -->
<!-- Title: slogo.UI.GridLinesToggler Pages: 1 -->
<svg width="178pt" height="96pt"
 viewBox="0.00 0.00 178.00 96.00" xmlns="http://www.w3.org/2000/svg" xmlns:xlink="http://www.w3.org/1999/xlink">
<g id="graph0" class="graph" transform="scale(1 1) rotate(0) translate(4 92)">
<title>slogo.UI.GridLinesToggler</title>
<polygon fill="white" stroke="none" points="-4,4 -4,-92 174,-92 174,4 -4,4"/>
<!-- Node1 -->
<g id="node1" class="node"><title>Node1</title>
<polygon fill="#bfbfbf" stroke="black" points="8,-0.5 8,-19.5 144,-19.5 144,-0.5 8,-0.5"/>
<text text-anchor="middle" x="76" y="-7.5" font-family="Helvetica,sans-Serif" font-size="10.00">slogo.UI.GridLinesToggler</text>
</g>
<!-- Node2 -->
<g id="node2" class="node"><title>Node2</title>
<polygon fill="white" stroke="#bfbfbf" points="0,-68.5 0,-87.5 64,-87.5 64,-68.5 0,-68.5"/>
<text text-anchor="middle" x="32" y="-75.5" font-family="Helvetica,sans-Serif" font-size="10.00">CheckBox</text>
</g>
<!-- Node2&#45;&gt;Node1 -->
<g id="edge1" class="edge"><title>Node2&#45;&gt;Node1</title>
<path fill="none" stroke="#9a32cd" stroke-dasharray="5,2" d="M28.9328,-58.0019C28.7399,-51.2998 29.6063,-43.9567 33,-38 37.6255,-29.8814 45.7928,-23.8569 53.7757,-19.5843"/>
<polygon fill="#9a32cd" stroke="#9a32cd" points="25.4893,-58.7304 29.9984,-68.3178 32.4523,-58.011 25.4893,-58.7304"/>
<text text-anchor="middle" x="66" y="-41.5" font-family="Helvetica,sans-Serif" font-size="10.00"> myCheckBox</text>
</g>
<!-- Node3 -->
<g id="node3" class="node"><title>Node3</title>
<polygon fill="white" stroke="#bfbfbf" points="83.5,-68.5 83.5,-87.5 158.5,-87.5 158.5,-68.5 83.5,-68.5"/>
<text text-anchor="middle" x="121" y="-75.5" font-family="Helvetica,sans-Serif" font-size="10.00">List&lt; Line &gt;</text>
</g>
<!-- Node3&#45;&gt;Node1 -->
<g id="edge2" class="edge"><title>Node3&#45;&gt;Node1</title>
<path fill="none" stroke="#9a32cd" stroke-dasharray="5,2" d="M111.925,-59.2492C108.198,-52.428 103.665,-44.6804 99,-38 94.4874,-31.5378 88.7374,-24.7878 84.1156,-19.6533"/>
<polygon fill="#9a32cd" stroke="#9a32cd" points="108.965,-61.1399 116.73,-68.3479 115.155,-57.8708 108.965,-61.1399"/>
<text text-anchor="middle" x="138.5" y="-41.5" font-family="Helvetica,sans-Serif" font-size="10.00"> myGridLines</text>
</g>
</g>
</svg>
