<?xml version="1.0" encoding="UTF-8" standalone="no"?>
<!DOCTYPE svg PUBLIC "-//W3C//DTD SVG 1.1//EN"
 "http://www.w3.org/Graphics/SVG/1.1/DTD/svg11.dtd">
<!-- Generated by graphviz version 2.36.0 (20140111.2315)
 -->
<!-- Title: slogo.backend.impl.parsing.GrammarRule.matches Pages: 1 -->
<svg width="758pt" height="38pt"
 viewBox="0.00 0.00 758.00 38.00" xmlns="http://www.w3.org/2000/svg" xmlns:xlink="http://www.w3.org/1999/xlink">
<g id="graph0" class="graph" transform="scale(1 1) rotate(0) translate(4 34)">
<title>slogo.backend.impl.parsing.GrammarRule.matches</title>
<polygon fill="white" stroke="none" points="-4,4 -4,-34 754,-34 754,4 -4,4"/>
<!-- Node1 -->
<g id="node1" class="node"><title>Node1</title>
<polygon fill="#bfbfbf" stroke="black" points="0,-0 0,-30 150,-30 150,-0 0,-0"/>
<text text-anchor="start" x="8" y="-18" font-family="Helvetica,sans-Serif" font-size="10.00">slogo.backend.impl.parsing.</text>
<text text-anchor="middle" x="75" y="-7" font-family="Helvetica,sans-Serif" font-size="10.00">GrammarRule.matches</text>
</g>
<!-- Node2 -->
<g id="node2" class="node"><title>Node2</title>
<g id="a_node2"><a xlink:href="../../de/d7d/classslogo_1_1backend_1_1impl_1_1parsing_1_1_grammar_rule.html#ae0668da4488437d8490363df8443c8c5" target="_top" xlink:title="slogo.backend.impl.parsing.\lGrammarRule.infiniteMatches">
<polygon fill="white" stroke="black" points="186,-0 186,-30 344,-30 344,-0 186,-0"/>
<text text-anchor="start" x="194" y="-18" font-family="Helvetica,sans-Serif" font-size="10.00">slogo.backend.impl.parsing.</text>
<text text-anchor="middle" x="265" y="-7" font-family="Helvetica,sans-Serif" font-size="10.00">GrammarRule.infiniteMatches</text>
</a>
</g>
</g>
<!-- Node1&#45;&gt;Node2 -->
<g id="edge1" class="edge"><title>Node1&#45;&gt;Node2</title>
<path fill="none" stroke="midnightblue" d="M150.033,-15C158.452,-15 167.095,-15 175.675,-15"/>
<polygon fill="midnightblue" stroke="midnightblue" points="175.702,-18.5001 185.701,-15 175.701,-11.5001 175.702,-18.5001"/>
</g>
<!-- Node3 -->
<g id="node3" class="node"><title>Node3</title>
<g id="a_node3"><a xlink:href="../../de/d7d/classslogo_1_1backend_1_1impl_1_1parsing_1_1_grammar_rule.html#ae95fddbc132e8bbaf7dee288541d0dd3" target="_top" xlink:title="slogo.backend.impl.parsing.\lGrammarRule.infiniteMatchRecurse">
<polygon fill="white" stroke="black" points="380,-0 380,-30 564,-30 564,-0 380,-0"/>
<text text-anchor="start" x="388" y="-18" font-family="Helvetica,sans-Serif" font-size="10.00">slogo.backend.impl.parsing.</text>
<text text-anchor="middle" x="472" y="-7" font-family="Helvetica,sans-Serif" font-size="10.00">GrammarRule.infiniteMatchRecurse</text>
</a>
</g>
</g>
<!-- Node2&#45;&gt;Node3 -->
<g id="edge2" class="edge"><title>Node2&#45;&gt;Node3</title>
<path fill="none" stroke="midnightblue" d="M344.087,-15C352.463,-15 361.071,-15 369.667,-15"/>
<polygon fill="midnightblue" stroke="midnightblue" points="369.74,-18.5001 379.74,-15 369.74,-11.5001 369.74,-18.5001"/>
</g>
<!-- Node4 -->
<g id="node4" class="node"><title>Node4</title>
<g id="a_node4"><a xlink:href="../../de/d7d/classslogo_1_1backend_1_1impl_1_1parsing_1_1_grammar_rule.html#a49a987bd5b760e9f7984dec8013e3ed5" target="_top" xlink:title="slogo.backend.impl.parsing.\lGrammarRule.isInfinite">
<polygon fill="white" stroke="black" points="600,-0 600,-30 750,-30 750,-0 600,-0"/>
<text text-anchor="start" x="608" y="-18" font-family="Helvetica,sans-Serif" font-size="10.00">slogo.backend.impl.parsing.</text>
<text text-anchor="middle" x="675" y="-7" font-family="Helvetica,sans-Serif" font-size="10.00">GrammarRule.isInfinite</text>
</a>
</g>
</g>
<!-- Node3&#45;&gt;Node4 -->
<g id="edge3" class="edge"><title>Node3&#45;&gt;Node4</title>
<path fill="none" stroke="midnightblue" d="M564.09,-15C572.583,-15 581.165,-15 589.593,-15"/>
<polygon fill="midnightblue" stroke="midnightblue" points="589.78,-18.5001 599.78,-15 589.78,-11.5001 589.78,-18.5001"/>
</g>
</g>
</svg>
