<?xml version="1.0" encoding="UTF-8" standalone="no"?>
<!DOCTYPE svg PUBLIC "-//W3C//DTD SVG 1.1//EN"
 "http://www.w3.org/Graphics/SVG/1.1/DTD/svg11.dtd">
<!-- Generated by graphviz version 2.36.0 (20140111.2315)
 -->
<!-- Title: slogo.backend.impl.parsing.GrammarRule.isInfinite Pages: 1 -->
<!--zoomable 283 -->
<svg id="main" version="1.1" xmlns="http://www.w3.org/2000/svg" xmlns:xlink="http://www.w3.org/1999/xlink" xml:space="preserve" onload="init(evt)">
<style type="text/css"><![CDATA[
.edge:hover path { stroke: red; }
.edge:hover polygon { stroke: red; fill: red; }
]]></style>
<script type="text/javascript"><![CDATA[
var edges = document.getElementsByTagName('g');
if (edges && edges.length) {
  for (var i=0;i<edges.length;i++) {
    if (edges[i].id.substr(0,4)=='edge') {
      edges[i].setAttribute('class','edge');
    }
  }
}
]]></script>
        <defs>
                <circle id="rim" cx="0" cy="0" r="7"/>
                <circle id="rim2" cx="0" cy="0" r="3.5"/>
                <g id="zoomPlus">
                        <use xlink:href="#rim" fill="#404040">
                                <set attributeName="fill" to="#808080" begin="zoomplus.mouseover" end="zoomplus.mouseout"/>
                        </use>
                        <path d="M-4,0h8M0,-4v8" fill="none" stroke="white" stroke-width="1.5" pointer-events="none"/>
                </g>
                <g id="zoomMin">
                        <use xlink:href="#rim" fill="#404040">
                                <set attributeName="fill" to="#808080" begin="zoomminus.mouseover" end="zoomminus.mouseout"/>
                        </use>
                        <path d="M-4,0h8" fill="none" stroke="white" stroke-width="1.5" pointer-events="none"/>
                </g>
                <g id="dirArrow">
                        <path fill="none" stroke="white" stroke-width="1.5" d="M0,-3.0v7 M-2.5,-0.5L0,-3.0L2.5,-0.5"/>
                </g>
               <g id="resetDef">
                       <use xlink:href="#rim2" fill="#404040">
                               <set attributeName="fill" to="#808080" begin="reset.mouseover" end="reset.mouseout"/>
                       </use>
               </g>
        </defs>

<script type="text/javascript">
var viewWidth = 784;
var viewHeight = 283;
var sectionId = 'dynsection-6';
</script>
<script xlink:href="../../svgpan.js"/>
<svg id="graph" class="graph">
<g id="viewport">
<title>slogo.backend.impl.parsing.GrammarRule.isInfinite</title>
<polygon fill="white" stroke="none" points="-4,4 -4,-279 780,-279 780,4 -4,4"/>
<!-- Node1 -->
<g id="node1" class="node"><title>Node1</title>
<polygon fill="#bfbfbf" stroke="black" points="0,-171 0,-201 150,-201 150,-171 0,-171"/>
<text text-anchor="start" x="8" y="-189" font-family="Helvetica,sans-Serif" font-size="10.00">slogo.backend.impl.parsing.</text>
<text text-anchor="middle" x="75" y="-178" font-family="Helvetica,sans-Serif" font-size="10.00">GrammarRule.isInfinite</text>
</g>
<!-- Node2 -->
<g id="node2" class="node"><title>Node2</title>
<g id="a_node2"><a xlink:href="../../de/d7d/classslogo_1_1backend_1_1impl_1_1parsing_1_1_grammar_rule.html#ae95fddbc132e8bbaf7dee288541d0dd3" target="_top" xlink:title="slogo.backend.impl.parsing.\lGrammarRule.infiniteMatchRecurse">
<polygon fill="white" stroke="black" points="186,-171 186,-201 370,-201 370,-171 186,-171"/>
<text text-anchor="start" x="194" y="-189" font-family="Helvetica,sans-Serif" font-size="10.00">slogo.backend.impl.parsing.</text>
<text text-anchor="middle" x="278" y="-178" font-family="Helvetica,sans-Serif" font-size="10.00">GrammarRule.infiniteMatchRecurse</text>
</a>
</g>
</g>
<!-- Node1&#45;&gt;Node2 -->
<g id="edge1" class="edge"><title>Node1&#45;&gt;Node2</title>
<path fill="none" stroke="midnightblue" d="M160.469,-186C168.904,-186 177.494,-186 185.992,-186"/>
<polygon fill="midnightblue" stroke="midnightblue" points="160.274,-182.5 150.274,-186 160.274,-189.5 160.274,-182.5"/>
</g>
<!-- Node3 -->
<g id="node3" class="node"><title>Node3</title>
<g id="a_node3"><a xlink:href="../../de/d7d/classslogo_1_1backend_1_1impl_1_1parsing_1_1_grammar_rule.html#ae0668da4488437d8490363df8443c8c5" target="_top" xlink:title="slogo.backend.impl.parsing.\lGrammarRule.infiniteMatches">
<polygon fill="white" stroke="black" points="415,-220 415,-250 573,-250 573,-220 415,-220"/>
<text text-anchor="start" x="423" y="-238" font-family="Helvetica,sans-Serif" font-size="10.00">slogo.backend.impl.parsing.</text>
<text text-anchor="middle" x="494" y="-227" font-family="Helvetica,sans-Serif" font-size="10.00">GrammarRule.infiniteMatches</text>
</a>
</g>
</g>
<!-- Node2&#45;&gt;Node3 -->
<g id="edge2" class="edge"><title>Node2&#45;&gt;Node3</title>
<path fill="none" stroke="midnightblue" d="M354.69,-203.331C378.45,-208.771 404.467,-214.729 427.463,-219.994"/>
<polygon fill="midnightblue" stroke="midnightblue" points="355.19,-199.855 344.661,-201.035 353.628,-206.678 355.19,-199.855"/>
</g>
<!-- Node5 -->
<g id="node5" class="node"><title>Node5</title>
<g id="a_node5"><a xlink:href="../../d8/d1e/classslogo_1_1backend_1_1test_1_1_grammar_rule_test.html#af6337331d822cc2df1cfc40a2c3d4b82" target="_top" xlink:title="slogo.backend.test.Grammar\lRuleTest.testInfiniteMatchRecurse">
<polygon fill="white" stroke="black" points="406.5,-122 406.5,-152 581.5,-152 581.5,-122 406.5,-122"/>
<text text-anchor="start" x="414.5" y="-140" font-family="Helvetica,sans-Serif" font-size="10.00">slogo.backend.test.Grammar</text>
<text text-anchor="middle" x="494" y="-129" font-family="Helvetica,sans-Serif" font-size="10.00">RuleTest.testInfiniteMatchRecurse</text>
</a>
</g>
</g>
<!-- Node2&#45;&gt;Node5 -->
<g id="edge4" class="edge"><title>Node2&#45;&gt;Node5</title>
<path fill="none" stroke="midnightblue" d="M354.69,-168.669C378.45,-163.229 404.467,-157.271 427.463,-152.006"/>
<polygon fill="midnightblue" stroke="midnightblue" points="353.628,-165.322 344.661,-170.965 355.19,-172.145 353.628,-165.322"/>
</g>
<!-- Node4 -->
<g id="node4" class="node"><title>Node4</title>
<g id="a_node4"><a xlink:href="../../de/d7d/classslogo_1_1backend_1_1impl_1_1parsing_1_1_grammar_rule.html#a517123ed403a599fd66edfa0d813da2d" target="_top" xlink:title="slogo.backend.impl.parsing.\lGrammarRule.matches">
<polygon fill="white" stroke="black" points="622,-245 622,-275 772,-275 772,-245 622,-245"/>
<text text-anchor="start" x="630" y="-263" font-family="Helvetica,sans-Serif" font-size="10.00">slogo.backend.impl.parsing.</text>
<text text-anchor="middle" x="697" y="-252" font-family="Helvetica,sans-Serif" font-size="10.00">GrammarRule.matches</text>
</a>
</g>
</g>
<!-- Node3&#45;&gt;Node4 -->
<g id="edge3" class="edge"><title>Node3&#45;&gt;Node4</title>
<path fill="none" stroke="midnightblue" d="M583.491,-246.006C596.305,-247.6 609.383,-249.227 621.875,-250.781"/>
<polygon fill="midnightblue" stroke="midnightblue" points="583.643,-242.498 573.287,-244.737 582.779,-249.445 583.643,-242.498"/>
</g>
<!-- Node6 -->
<g id="node6" class="node"><title>Node6</title>
<g id="a_node6"><a xlink:href="../../d8/d1e/classslogo_1_1backend_1_1test_1_1_grammar_rule_test.html#a037d3f6ca3a658be4dc823dd7689b058" target="_top" xlink:title="slogo.backend.test.Grammar\lRuleTest.testSunny">
<polygon fill="white" stroke="black" points="618.5,-196 618.5,-226 775.5,-226 775.5,-196 618.5,-196"/>
<text text-anchor="start" x="626.5" y="-214" font-family="Helvetica,sans-Serif" font-size="10.00">slogo.backend.test.Grammar</text>
<text text-anchor="middle" x="697" y="-203" font-family="Helvetica,sans-Serif" font-size="10.00">RuleTest.testSunny</text>
</a>
</g>
</g>
<!-- Node5&#45;&gt;Node6 -->
<g id="edge5" class="edge"><title>Node5&#45;&gt;Node6</title>
<path fill="none" stroke="midnightblue" d="M540.349,-155.933C563.449,-165.355 592.065,-176.691 618,-186 627.369,-189.363 637.446,-192.756 647.144,-195.911"/>
<polygon fill="midnightblue" stroke="midnightblue" points="541.391,-152.578 530.811,-152.023 538.736,-159.055 541.391,-152.578"/>
</g>
<!-- Node7 -->
<g id="node7" class="node"><title>Node7</title>
<g id="a_node7"><a xlink:href="../../d8/d1e/classslogo_1_1backend_1_1test_1_1_grammar_rule_test.html#a7212ab5def97e21ec5956a6d76748374" target="_top" xlink:title="slogo.backend.test.Grammar\lRuleTest.testSunnyEnd">
<polygon fill="white" stroke="black" points="618.5,-147 618.5,-177 775.5,-177 775.5,-147 618.5,-147"/>
<text text-anchor="start" x="626.5" y="-165" font-family="Helvetica,sans-Serif" font-size="10.00">slogo.backend.test.Grammar</text>
<text text-anchor="middle" x="697" y="-154" font-family="Helvetica,sans-Serif" font-size="10.00">RuleTest.testSunnyEnd</text>
</a>
</g>
</g>
<!-- Node5&#45;&gt;Node7 -->
<g id="edge6" class="edge"><title>Node5&#45;&gt;Node7</title>
<path fill="none" stroke="midnightblue" d="M591.771,-149.036C600.719,-150.149 609.706,-151.267 618.448,-152.354"/>
<polygon fill="midnightblue" stroke="midnightblue" points="592.056,-145.545 581.7,-147.784 591.192,-152.491 592.056,-145.545"/>
</g>
<!-- Node8 -->
<g id="node8" class="node"><title>Node8</title>
<g id="a_node8"><a xlink:href="../../d8/d1e/classslogo_1_1backend_1_1test_1_1_grammar_rule_test.html#a48a19009d6ea5ad11a3eb169fb6984a5" target="_top" xlink:title="slogo.backend.test.Grammar\lRuleTest.testExtraPattern">
<polygon fill="white" stroke="black" points="618.5,-98 618.5,-128 775.5,-128 775.5,-98 618.5,-98"/>
<text text-anchor="start" x="626.5" y="-116" font-family="Helvetica,sans-Serif" font-size="10.00">slogo.backend.test.Grammar</text>
<text text-anchor="middle" x="697" y="-105" font-family="Helvetica,sans-Serif" font-size="10.00">RuleTest.testExtraPattern</text>
</a>
</g>
</g>
<!-- Node5&#45;&gt;Node8 -->
<g id="edge7" class="edge"><title>Node5&#45;&gt;Node8</title>
<path fill="none" stroke="midnightblue" d="M591.771,-125.445C600.719,-124.377 609.706,-123.304 618.448,-122.26"/>
<polygon fill="midnightblue" stroke="midnightblue" points="591.215,-121.987 581.7,-126.648 592.045,-128.937 591.215,-121.987"/>
</g>
<!-- Node9 -->
<g id="node9" class="node"><title>Node9</title>
<g id="a_node9"><a xlink:href="../../d8/d1e/classslogo_1_1backend_1_1test_1_1_grammar_rule_test.html#a89dcc434de9dc046121896064d265428" target="_top" xlink:title="slogo.backend.test.Grammar\lRuleTest.testExtraSearch">
<polygon fill="white" stroke="black" points="618.5,-49 618.5,-79 775.5,-79 775.5,-49 618.5,-49"/>
<text text-anchor="start" x="626.5" y="-67" font-family="Helvetica,sans-Serif" font-size="10.00">slogo.backend.test.Grammar</text>
<text text-anchor="middle" x="697" y="-56" font-family="Helvetica,sans-Serif" font-size="10.00">RuleTest.testExtraSearch</text>
</a>
</g>
</g>
<!-- Node5&#45;&gt;Node9 -->
<g id="edge8" class="edge"><title>Node5&#45;&gt;Node9</title>
<path fill="none" stroke="midnightblue" d="M541.398,-118.111C564.326,-108.977 592.483,-98.0585 618,-89 627.515,-85.6224 637.751,-82.1953 647.578,-79.0059"/>
<polygon fill="midnightblue" stroke="midnightblue" points="539.899,-114.941 531.915,-121.905 542.5,-121.44 539.899,-114.941"/>
</g>
<!-- Node10 -->
<g id="node10" class="node"><title>Node10</title>
<g id="a_node10"><a xlink:href="../../d8/d1e/classslogo_1_1backend_1_1test_1_1_grammar_rule_test.html#ad58a8d8eeb9aef679e44f24f753db74a" target="_top" xlink:title="slogo.backend.test.Grammar\lRuleTest.testJustOneRepeat">
<polygon fill="white" stroke="black" points="618.5,-0 618.5,-30 775.5,-30 775.5,-0 618.5,-0"/>
<text text-anchor="start" x="626.5" y="-18" font-family="Helvetica,sans-Serif" font-size="10.00">slogo.backend.test.Grammar</text>
<text text-anchor="middle" x="697" y="-7" font-family="Helvetica,sans-Serif" font-size="10.00">RuleTest.testJustOneRepeat</text>
</a>
</g>
</g>
<!-- Node5&#45;&gt;Node10 -->
<g id="edge9" class="edge"><title>Node5&#45;&gt;Node10</title>
<path fill="none" stroke="midnightblue" d="M517.746,-114.899C541.18,-93.1875 579.605,-60.4285 618,-40 625.03,-36.2595 632.717,-32.9592 640.437,-30.0855"/>
<polygon fill="midnightblue" stroke="midnightblue" points="515.287,-112.407 510.396,-121.805 520.08,-117.509 515.287,-112.407"/>
</g>
</g>
</svg>
        <g id="navigator" transform="translate(0 0)" fill="#404254">
                <rect fill="#f2f5e9" fill-opacity="0.5" stroke="#606060" stroke-width=".5" x="0" y="0" width="60" height="60"/>
                <use id="zoomplus" xlink:href="#zoomPlus" x="17" y="9" onmousedown="handleZoom(evt,'in')"/>
                <use id="zoomminus" xlink:href="#zoomMin" x="42" y="9" onmousedown="handleZoom(evt,'out')"/>
                <use id="reset" xlink:href="#resetDef" x="30" y="36" onmousedown="handleReset()"/>
                <g id="arrowUp" xlink:href="#dirArrow" transform="translate(30 24)" onmousedown="handlePan(0,-1)">
                  <use xlink:href="#rim" fill="#404040">
                        <set attributeName="fill" to="#808080" begin="arrowUp.mouseover" end="arrowUp.mouseout"/>
                  </use>
                  <path fill="none" stroke="white" stroke-width="1.5" d="M0,-3.0v7 M-2.5,-0.5L0,-3.0L2.5,-0.5"/>
                </g>
                <g id="arrowRight" xlink:href="#dirArrow" transform="rotate(90) translate(36 -43)" onmousedown="handlePan(1,0)">
                  <use xlink:href="#rim" fill="#404040">
                        <set attributeName="fill" to="#808080" begin="arrowRight.mouseover" end="arrowRight.mouseout"/>
                  </use>
                  <path fill="none" stroke="white" stroke-width="1.5" d="M0,-3.0v7 M-2.5,-0.5L0,-3.0L2.5,-0.5"/>
                </g>
                <g id="arrowDown" xlink:href="#dirArrow" transform="rotate(180) translate(-30 -48)" onmousedown="handlePan(0,1)">
                  <use xlink:href="#rim" fill="#404040">
                        <set attributeName="fill" to="#808080" begin="arrowDown.mouseover" end="arrowDown.mouseout"/>
                  </use>
                  <path fill="none" stroke="white" stroke-width="1.5" d="M0,-3.0v7 M-2.5,-0.5L0,-3.0L2.5,-0.5"/>
                </g>
                <g id="arrowLeft" xlink:href="#dirArrow" transform="rotate(270) translate(-36 17)" onmousedown="handlePan(-1,0)">
                  <use xlink:href="#rim" fill="#404040">
                        <set attributeName="fill" to="#808080" begin="arrowLeft.mouseover" end="arrowLeft.mouseout"/>
                  </use>
                  <path fill="none" stroke="white" stroke-width="1.5" d="M0,-3.0v7 M-2.5,-0.5L0,-3.0L2.5,-0.5"/>
                </g>
        </g>
        <svg viewBox="0 0 15 15" width="100%" height="30px" preserveAspectRatio="xMaxYMin meet">
         <g id="arrow_out" transform="scale(0.3 0.3)">
          <a xlink:href="classslogo_1_1backend_1_1impl_1_1parsing_1_1_grammar_rule_a49a987bd5b760e9f7984dec8013e3ed5_icgraph_org.svg" target="_base">
           <rect id="button" ry="5" rx="5" y="6" x="6" height="38" width="38"
                fill="#f2f5e9" fill-opacity="0.5" stroke="#606060" stroke-width="1.0"/>
           <path id="arrow"
             d="M 11.500037,31.436501 C 11.940474,20.09759 22.043105,11.32322 32.158766,21.979434 L 37.068811,17.246167 C 37.068811,17.246167 37.088388,32 37.088388,32 L 22.160133,31.978069 C 22.160133,31.978069 26.997745,27.140456 26.997745,27.140456 C 18.528582,18.264221 13.291696,25.230495 11.500037,31.436501 z"
             style="fill:#404040;"/>
          </a>
         </g>
        </svg>
</svg>
