<?xml version="1.0" encoding="UTF-8" standalone="no"?>
<!DOCTYPE svg PUBLIC "-//W3C//DTD SVG 1.1//EN"
 "http://www.w3.org/Graphics/SVG/1.1/DTD/svg11.dtd">
<!-- Generated by graphviz version 2.36.0 (20140111.2315)
 -->
<!-- Title: slogo.backend.impl.parsing.GrammarRule.infiniteMatchRecurse Pages: 1 -->
<svg width="598pt" height="283pt"
 viewBox="0.00 0.00 598.00 283.00" xmlns="http://www.w3.org/2000/svg" xmlns:xlink="http://www.w3.org/1999/xlink">
<g id="graph0" class="graph" transform="scale(1 1) rotate(0) translate(4 279)">
<title>slogo.backend.impl.parsing.GrammarRule.infiniteMatchRecurse</title>
<polygon fill="white" stroke="none" points="-4,4 -4,-279 594,-279 594,4 -4,4"/>
<!-- Node1 -->
<g id="node1" class="node"><title>Node1</title>
<polygon fill="#bfbfbf" stroke="black" points="0,-171 0,-201 184,-201 184,-171 0,-171"/>
<text text-anchor="start" x="8" y="-189" font-family="Helvetica,sans-Serif" font-size="10.00">slogo.backend.impl.parsing.</text>
<text text-anchor="middle" x="92" y="-178" font-family="Helvetica,sans-Serif" font-size="10.00">GrammarRule.infiniteMatchRecurse</text>
</g>
<!-- Node2 -->
<g id="node2" class="node"><title>Node2</title>
<g id="a_node2"><a xlink:href="../../de/d7d/classslogo_1_1backend_1_1impl_1_1parsing_1_1_grammar_rule.html#ae0668da4488437d8490363df8443c8c5" target="_top" xlink:title="slogo.backend.impl.parsing.\lGrammarRule.infiniteMatches">
<polygon fill="white" stroke="black" points="229,-220 229,-250 387,-250 387,-220 229,-220"/>
<text text-anchor="start" x="237" y="-238" font-family="Helvetica,sans-Serif" font-size="10.00">slogo.backend.impl.parsing.</text>
<text text-anchor="middle" x="308" y="-227" font-family="Helvetica,sans-Serif" font-size="10.00">GrammarRule.infiniteMatches</text>
</a>
</g>
</g>
<!-- Node1&#45;&gt;Node2 -->
<g id="edge1" class="edge"><title>Node1&#45;&gt;Node2</title>
<path fill="none" stroke="midnightblue" d="M168.69,-203.331C192.45,-208.771 218.467,-214.729 241.463,-219.994"/>
<polygon fill="midnightblue" stroke="midnightblue" points="169.19,-199.855 158.661,-201.035 167.628,-206.678 169.19,-199.855"/>
</g>
<!-- Node4 -->
<g id="node4" class="node"><title>Node4</title>
<g id="a_node4"><a xlink:href="../../d8/d1e/classslogo_1_1backend_1_1test_1_1_grammar_rule_test.html#af6337331d822cc2df1cfc40a2c3d4b82" target="_top" xlink:title="slogo.backend.test.Grammar\lRuleTest.testInfiniteMatchRecurse">
<polygon fill="white" stroke="black" points="220.5,-122 220.5,-152 395.5,-152 395.5,-122 220.5,-122"/>
<text text-anchor="start" x="228.5" y="-140" font-family="Helvetica,sans-Serif" font-size="10.00">slogo.backend.test.Grammar</text>
<text text-anchor="middle" x="308" y="-129" font-family="Helvetica,sans-Serif" font-size="10.00">RuleTest.testInfiniteMatchRecurse</text>
</a>
</g>
</g>
<!-- Node1&#45;&gt;Node4 -->
<g id="edge3" class="edge"><title>Node1&#45;&gt;Node4</title>
<path fill="none" stroke="midnightblue" d="M168.69,-168.669C192.45,-163.229 218.467,-157.271 241.463,-152.006"/>
<polygon fill="midnightblue" stroke="midnightblue" points="167.628,-165.322 158.661,-170.965 169.19,-172.145 167.628,-165.322"/>
</g>
<!-- Node3 -->
<g id="node3" class="node"><title>Node3</title>
<g id="a_node3"><a xlink:href="../../de/d7d/classslogo_1_1backend_1_1impl_1_1parsing_1_1_grammar_rule.html#a517123ed403a599fd66edfa0d813da2d" target="_top" xlink:title="slogo.backend.impl.parsing.\lGrammarRule.matches">
<polygon fill="white" stroke="black" points="436,-245 436,-275 586,-275 586,-245 436,-245"/>
<text text-anchor="start" x="444" y="-263" font-family="Helvetica,sans-Serif" font-size="10.00">slogo.backend.impl.parsing.</text>
<text text-anchor="middle" x="511" y="-252" font-family="Helvetica,sans-Serif" font-size="10.00">GrammarRule.matches</text>
</a>
</g>
</g>
<!-- Node2&#45;&gt;Node3 -->
<g id="edge2" class="edge"><title>Node2&#45;&gt;Node3</title>
<path fill="none" stroke="midnightblue" d="M397.491,-246.006C410.305,-247.6 423.383,-249.227 435.875,-250.781"/>
<polygon fill="midnightblue" stroke="midnightblue" points="397.643,-242.498 387.287,-244.737 396.779,-249.445 397.643,-242.498"/>
</g>
<!-- Node5 -->
<g id="node5" class="node"><title>Node5</title>
<g id="a_node5"><a xlink:href="../../d8/d1e/classslogo_1_1backend_1_1test_1_1_grammar_rule_test.html#a037d3f6ca3a658be4dc823dd7689b058" target="_top" xlink:title="slogo.backend.test.Grammar\lRuleTest.testSunny">
<polygon fill="white" stroke="black" points="432.5,-196 432.5,-226 589.5,-226 589.5,-196 432.5,-196"/>
<text text-anchor="start" x="440.5" y="-214" font-family="Helvetica,sans-Serif" font-size="10.00">slogo.backend.test.Grammar</text>
<text text-anchor="middle" x="511" y="-203" font-family="Helvetica,sans-Serif" font-size="10.00">RuleTest.testSunny</text>
</a>
</g>
</g>
<!-- Node4&#45;&gt;Node5 -->
<g id="edge4" class="edge"><title>Node4&#45;&gt;Node5</title>
<path fill="none" stroke="midnightblue" d="M354.349,-155.933C377.449,-165.355 406.065,-176.691 432,-186 441.369,-189.363 451.446,-192.756 461.144,-195.911"/>
<polygon fill="midnightblue" stroke="midnightblue" points="355.391,-152.578 344.811,-152.023 352.736,-159.055 355.391,-152.578"/>
</g>
<!-- Node6 -->
<g id="node6" class="node"><title>Node6</title>
<g id="a_node6"><a xlink:href="../../d8/d1e/classslogo_1_1backend_1_1test_1_1_grammar_rule_test.html#a7212ab5def97e21ec5956a6d76748374" target="_top" xlink:title="slogo.backend.test.Grammar\lRuleTest.testSunnyEnd">
<polygon fill="white" stroke="black" points="432.5,-147 432.5,-177 589.5,-177 589.5,-147 432.5,-147"/>
<text text-anchor="start" x="440.5" y="-165" font-family="Helvetica,sans-Serif" font-size="10.00">slogo.backend.test.Grammar</text>
<text text-anchor="middle" x="511" y="-154" font-family="Helvetica,sans-Serif" font-size="10.00">RuleTest.testSunnyEnd</text>
</a>
</g>
</g>
<!-- Node4&#45;&gt;Node6 -->
<g id="edge5" class="edge"><title>Node4&#45;&gt;Node6</title>
<path fill="none" stroke="midnightblue" d="M405.771,-149.036C414.719,-150.149 423.706,-151.267 432.448,-152.354"/>
<polygon fill="midnightblue" stroke="midnightblue" points="406.056,-145.545 395.7,-147.784 405.192,-152.491 406.056,-145.545"/>
</g>
<!-- Node7 -->
<g id="node7" class="node"><title>Node7</title>
<g id="a_node7"><a xlink:href="../../d8/d1e/classslogo_1_1backend_1_1test_1_1_grammar_rule_test.html#a48a19009d6ea5ad11a3eb169fb6984a5" target="_top" xlink:title="slogo.backend.test.Grammar\lRuleTest.testExtraPattern">
<polygon fill="white" stroke="black" points="432.5,-98 432.5,-128 589.5,-128 589.5,-98 432.5,-98"/>
<text text-anchor="start" x="440.5" y="-116" font-family="Helvetica,sans-Serif" font-size="10.00">slogo.backend.test.Grammar</text>
<text text-anchor="middle" x="511" y="-105" font-family="Helvetica,sans-Serif" font-size="10.00">RuleTest.testExtraPattern</text>
</a>
</g>
</g>
<!-- Node4&#45;&gt;Node7 -->
<g id="edge6" class="edge"><title>Node4&#45;&gt;Node7</title>
<path fill="none" stroke="midnightblue" d="M405.771,-125.445C414.719,-124.377 423.706,-123.304 432.448,-122.26"/>
<polygon fill="midnightblue" stroke="midnightblue" points="405.215,-121.987 395.7,-126.648 406.045,-128.937 405.215,-121.987"/>
</g>
<!-- Node8 -->
<g id="node8" class="node"><title>Node8</title>
<g id="a_node8"><a xlink:href="../../d8/d1e/classslogo_1_1backend_1_1test_1_1_grammar_rule_test.html#a89dcc434de9dc046121896064d265428" target="_top" xlink:title="slogo.backend.test.Grammar\lRuleTest.testExtraSearch">
<polygon fill="white" stroke="black" points="432.5,-49 432.5,-79 589.5,-79 589.5,-49 432.5,-49"/>
<text text-anchor="start" x="440.5" y="-67" font-family="Helvetica,sans-Serif" font-size="10.00">slogo.backend.test.Grammar</text>
<text text-anchor="middle" x="511" y="-56" font-family="Helvetica,sans-Serif" font-size="10.00">RuleTest.testExtraSearch</text>
</a>
</g>
</g>
<!-- Node4&#45;&gt;Node8 -->
<g id="edge7" class="edge"><title>Node4&#45;&gt;Node8</title>
<path fill="none" stroke="midnightblue" d="M355.398,-118.111C378.326,-108.977 406.483,-98.0585 432,-89 441.515,-85.6224 451.751,-82.1953 461.578,-79.0059"/>
<polygon fill="midnightblue" stroke="midnightblue" points="353.899,-114.941 345.915,-121.905 356.5,-121.44 353.899,-114.941"/>
</g>
<!-- Node9 -->
<g id="node9" class="node"><title>Node9</title>
<g id="a_node9"><a xlink:href="../../d8/d1e/classslogo_1_1backend_1_1test_1_1_grammar_rule_test.html#ad58a8d8eeb9aef679e44f24f753db74a" target="_top" xlink:title="slogo.backend.test.Grammar\lRuleTest.testJustOneRepeat">
<polygon fill="white" stroke="black" points="432.5,-0 432.5,-30 589.5,-30 589.5,-0 432.5,-0"/>
<text text-anchor="start" x="440.5" y="-18" font-family="Helvetica,sans-Serif" font-size="10.00">slogo.backend.test.Grammar</text>
<text text-anchor="middle" x="511" y="-7" font-family="Helvetica,sans-Serif" font-size="10.00">RuleTest.testJustOneRepeat</text>
</a>
</g>
</g>
<!-- Node4&#45;&gt;Node9 -->
<g id="edge8" class="edge"><title>Node4&#45;&gt;Node9</title>
<path fill="none" stroke="midnightblue" d="M331.746,-114.899C355.18,-93.1875 393.605,-60.4285 432,-40 439.03,-36.2595 446.717,-32.9592 454.437,-30.0855"/>
<polygon fill="midnightblue" stroke="midnightblue" points="329.287,-112.407 324.396,-121.805 334.08,-117.509 329.287,-112.407"/>
</g>
</g>
</svg>
