<?xml version="1.0" encoding="UTF-8" standalone="no"?>
<!DOCTYPE svg PUBLIC "-//W3C//DTD SVG 1.1//EN"
 "http://www.w3.org/Graphics/SVG/1.1/DTD/svg11.dtd">
<!-- Generated by graphviz version 2.36.0 (20140111.2315)
 -->
<!-- Title: slogo.backend.impl.parsing.GrammarRule.infiniteMatches Pages: 1 -->
<svg width="572pt" height="38pt"
 viewBox="0.00 0.00 572.00 38.00" xmlns="http://www.w3.org/2000/svg" xmlns:xlink="http://www.w3.org/1999/xlink">
<g id="graph0" class="graph" transform="scale(1 1) rotate(0) translate(4 34)">
<title>slogo.backend.impl.parsing.GrammarRule.infiniteMatches</title>
<polygon fill="white" stroke="none" points="-4,4 -4,-34 568,-34 568,4 -4,4"/>
<!-- Node1 -->
<g id="node1" class="node"><title>Node1</title>
<polygon fill="#bfbfbf" stroke="black" points="0,-0 0,-30 158,-30 158,-0 0,-0"/>
<text text-anchor="start" x="8" y="-18" font-family="Helvetica,sans-Serif" font-size="10.00">slogo.backend.impl.parsing.</text>
<text text-anchor="middle" x="79" y="-7" font-family="Helvetica,sans-Serif" font-size="10.00">GrammarRule.infiniteMatches</text>
</g>
<!-- Node2 -->
<g id="node2" class="node"><title>Node2</title>
<g id="a_node2"><a xlink:href="../../de/d7d/classslogo_1_1backend_1_1impl_1_1parsing_1_1_grammar_rule.html#ae95fddbc132e8bbaf7dee288541d0dd3" target="_top" xlink:title="slogo.backend.impl.parsing.\lGrammarRule.infiniteMatchRecurse">
<polygon fill="white" stroke="black" points="194,-0 194,-30 378,-30 378,-0 194,-0"/>
<text text-anchor="start" x="202" y="-18" font-family="Helvetica,sans-Serif" font-size="10.00">slogo.backend.impl.parsing.</text>
<text text-anchor="middle" x="286" y="-7" font-family="Helvetica,sans-Serif" font-size="10.00">GrammarRule.infiniteMatchRecurse</text>
</a>
</g>
</g>
<!-- Node1&#45;&gt;Node2 -->
<g id="edge1" class="edge"><title>Node1&#45;&gt;Node2</title>
<path fill="none" stroke="midnightblue" d="M158.087,-15C166.463,-15 175.071,-15 183.667,-15"/>
<polygon fill="midnightblue" stroke="midnightblue" points="183.74,-18.5001 193.74,-15 183.74,-11.5001 183.74,-18.5001"/>
</g>
<!-- Node3 -->
<g id="node3" class="node"><title>Node3</title>
<g id="a_node3"><a xlink:href="../../de/d7d/classslogo_1_1backend_1_1impl_1_1parsing_1_1_grammar_rule.html#a49a987bd5b760e9f7984dec8013e3ed5" target="_top" xlink:title="slogo.backend.impl.parsing.\lGrammarRule.isInfinite">
<polygon fill="white" stroke="black" points="414,-0 414,-30 564,-30 564,-0 414,-0"/>
<text text-anchor="start" x="422" y="-18" font-family="Helvetica,sans-Serif" font-size="10.00">slogo.backend.impl.parsing.</text>
<text text-anchor="middle" x="489" y="-7" font-family="Helvetica,sans-Serif" font-size="10.00">GrammarRule.isInfinite</text>
</a>
</g>
</g>
<!-- Node2&#45;&gt;Node3 -->
<g id="edge2" class="edge"><title>Node2&#45;&gt;Node3</title>
<path fill="none" stroke="midnightblue" d="M378.09,-15C386.583,-15 395.165,-15 403.593,-15"/>
<polygon fill="midnightblue" stroke="midnightblue" points="403.78,-18.5001 413.78,-15 403.78,-11.5001 403.78,-18.5001"/>
</g>
</g>
</svg>
