<?xml version="1.0" encoding="UTF-8" standalone="no"?>
<!DOCTYPE svg PUBLIC "-//W3C//DTD SVG 1.1//EN"
 "http://www.w3.org/Graphics/SVG/1.1/DTD/svg11.dtd">
<!-- Generated by graphviz version 2.36.0 (20140111.2315)
 -->
<!-- Title: slogo.backend.impl.parsing.GrammarRule.infiniteMatchRecurse Pages: 1 -->
<svg width="378pt" height="38pt"
 viewBox="0.00 0.00 378.00 38.00" xmlns="http://www.w3.org/2000/svg" xmlns:xlink="http://www.w3.org/1999/xlink">
<g id="graph0" class="graph" transform="scale(1 1) rotate(0) translate(4 34)">
<title>slogo.backend.impl.parsing.GrammarRule.infiniteMatchRecurse</title>
<polygon fill="white" stroke="none" points="-4,4 -4,-34 374,-34 374,4 -4,4"/>
<!-- Node1 -->
<g id="node1" class="node"><title>Node1</title>
<polygon fill="#bfbfbf" stroke="black" points="0,-0 0,-30 184,-30 184,-0 0,-0"/>
<text text-anchor="start" x="8" y="-18" font-family="Helvetica,sans-Serif" font-size="10.00">slogo.backend.impl.parsing.</text>
<text text-anchor="middle" x="92" y="-7" font-family="Helvetica,sans-Serif" font-size="10.00">GrammarRule.infiniteMatchRecurse</text>
</g>
<!-- Node2 -->
<g id="node2" class="node"><title>Node2</title>
<g id="a_node2"><a xlink:href="../../de/d7d/classslogo_1_1backend_1_1impl_1_1parsing_1_1_grammar_rule.html#a49a987bd5b760e9f7984dec8013e3ed5" target="_top" xlink:title="slogo.backend.impl.parsing.\lGrammarRule.isInfinite">
<polygon fill="white" stroke="black" points="220,-0 220,-30 370,-30 370,-0 220,-0"/>
<text text-anchor="start" x="228" y="-18" font-family="Helvetica,sans-Serif" font-size="10.00">slogo.backend.impl.parsing.</text>
<text text-anchor="middle" x="295" y="-7" font-family="Helvetica,sans-Serif" font-size="10.00">GrammarRule.isInfinite</text>
</a>
</g>
</g>
<!-- Node1&#45;&gt;Node2 -->
<g id="edge1" class="edge"><title>Node1&#45;&gt;Node2</title>
<path fill="none" stroke="midnightblue" d="M184.09,-15C192.583,-15 201.165,-15 209.593,-15"/>
<polygon fill="midnightblue" stroke="midnightblue" points="209.78,-18.5001 219.78,-15 209.78,-11.5001 209.78,-18.5001"/>
</g>
</g>
</svg>
