<?xml version="1.0" encoding="UTF-8" standalone="no"?>
<!DOCTYPE svg PUBLIC "-//W3C//DTD SVG 1.1//EN"
 "http://www.w3.org/Graphics/SVG/1.1/DTD/svg11.dtd">
<!-- Generated by graphviz version 2.36.0 (20140111.2315)
 -->
<!-- Title: slogo.UI.ListViewAllSLOGO Pages: 1 -->
<svg width="273pt" height="164pt"
 viewBox="0.00 0.00 273.00 164.00" xmlns="http://www.w3.org/2000/svg" xmlns:xlink="http://www.w3.org/1999/xlink">
<g id="graph0" class="graph" transform="scale(1 1) rotate(0) translate(4 160)">
<title>slogo.UI.ListViewAllSLOGO</title>
<polygon fill="white" stroke="none" points="-4,4 -4,-160 269,-160 269,4 -4,4"/>
<!-- Node1 -->
<g id="node1" class="node"><title>Node1</title>
<polygon fill="#bfbfbf" stroke="black" points="49,-0.5 49,-19.5 191,-19.5 191,-0.5 49,-0.5"/>
<text text-anchor="middle" x="120" y="-7.5" font-family="Helvetica,sans-Serif" font-size="10.00">slogo.UI.ListViewAllSLOGO</text>
</g>
<!-- Node2 -->
<g id="node2" class="node"><title>Node2</title>
<polygon fill="white" stroke="#bfbfbf" points="-0.5,-68.5 -0.5,-87.5 40.5,-87.5 40.5,-68.5 -0.5,-68.5"/>
<text text-anchor="middle" x="20" y="-75.5" font-family="Helvetica,sans-Serif" font-size="10.00">VBox</text>
</g>
<!-- Node2&#45;&gt;Node1 -->
<g id="edge1" class="edge"><title>Node2&#45;&gt;Node1</title>
<path fill="none" stroke="#9a32cd" stroke-dasharray="5,2" d="M41.4981,-62.8113C61.3844,-49.6863 90.3024,-30.6004 106.924,-19.6305"/>
<polygon fill="#9a32cd" stroke="#9a32cd" points="39.4914,-59.942 33.0733,-68.3717 43.3473,-65.7843 39.4914,-59.942"/>
<text text-anchor="middle" x="92.5" y="-41.5" font-family="Helvetica,sans-Serif" font-size="10.00"> vBox</text>
</g>
<!-- Node3 -->
<g id="node3" class="node"><title>Node3</title>
<g id="a_node3"><a xlink:href="../../da/d8f/classslogo_1_1_u_i_1_1_list_view_creator.html" target="_top" xlink:title="slogo.UI.ListViewCreator">
<polygon fill="white" stroke="black" points="59,-68.5 59,-87.5 191,-87.5 191,-68.5 59,-68.5"/>
<text text-anchor="middle" x="125" y="-75.5" font-family="Helvetica,sans-Serif" font-size="10.00">slogo.UI.ListViewCreator</text>
</a>
</g>
</g>
<!-- Node3&#45;&gt;Node1 -->
<g id="edge2" class="edge"><title>Node3&#45;&gt;Node1</title>
<path fill="none" stroke="#9a32cd" stroke-dasharray="5,2" d="M121.871,-57.8591C121.526,-55.2245 121.221,-52.5493 121,-50 120.1,-39.6084 119.921,-27.6059 119.921,-19.6912"/>
<polygon fill="#9a32cd" stroke="#9a32cd" points="118.452,-58.6598 123.392,-68.0322 125.375,-57.6245 118.452,-58.6598"/>
<text text-anchor="middle" x="167.5" y="-41.5" font-family="Helvetica,sans-Serif" font-size="10.00"> myListViewCreator</text>
</g>
<!-- Node4 -->
<g id="node4" class="node"><title>Node4</title>
<polygon fill="white" stroke="#bfbfbf" points="72,-136.5 72,-155.5 178,-155.5 178,-136.5 72,-136.5"/>
<text text-anchor="middle" x="125" y="-143.5" font-family="Helvetica,sans-Serif" font-size="10.00">ListView&lt; String &gt;</text>
</g>
<!-- Node4&#45;&gt;Node3 -->
<g id="edge3" class="edge"><title>Node4&#45;&gt;Node3</title>
<path fill="none" stroke="#9a32cd" stroke-dasharray="5,2" d="M125,-126.041C125,-113.472 125,-97.5631 125,-87.8411"/>
<polygon fill="#9a32cd" stroke="#9a32cd" points="121.5,-126.372 125,-136.372 128.5,-126.372 121.5,-126.372"/>
<text text-anchor="middle" x="153.5" y="-109.5" font-family="Helvetica,sans-Serif" font-size="10.00"> myListView</text>
</g>
<!-- Node5 -->
<g id="node5" class="node"><title>Node5</title>
<polygon fill="white" stroke="#bfbfbf" points="213,-68.5 213,-87.5 259,-87.5 259,-68.5 213,-68.5"/>
<text text-anchor="middle" x="236" y="-75.5" font-family="Helvetica,sans-Serif" font-size="10.00">Group</text>
</g>
<!-- Node5&#45;&gt;Node1 -->
<g id="edge4" class="edge"><title>Node5&#45;&gt;Node1</title>
<path fill="none" stroke="#9a32cd" stroke-dasharray="5,2" d="M229.375,-58.8601C225.841,-51.4447 220.795,-43.366 214,-38 203.073,-29.3709 189.502,-23.4997 176.102,-19.5048"/>
<polygon fill="#9a32cd" stroke="#9a32cd" points="226.206,-60.3545 233.277,-68.2438 232.669,-57.6665 226.206,-60.3545"/>
<text text-anchor="middle" x="245" y="-41.5" font-family="Helvetica,sans-Serif" font-size="10.00"> myRoot</text>
</g>
</g>
</svg>
