<?xml version="1.0" encoding="UTF-8" standalone="no"?>
<!DOCTYPE svg PUBLIC "-//W3C//DTD SVG 1.1//EN"
 "http://www.w3.org/Graphics/SVG/1.1/DTD/svg11.dtd">
<!-- Generated by graphviz version 2.36.0 (20140111.2315)
 -->
<!-- Title: slogo.UI.CommandsTextField.getTextField Pages: 1 -->
<svg width="1500pt" height="60pt"
 viewBox="0.00 0.00 1500.00 60.00" xmlns="http://www.w3.org/2000/svg" xmlns:xlink="http://www.w3.org/1999/xlink">
<g id="graph0" class="graph" transform="scale(1 1) rotate(0) translate(4 56)">
<title>slogo.UI.CommandsTextField.getTextField</title>
<polygon fill="white" stroke="none" points="-4,4 -4,-56 1496,-56 1496,4 -4,4"/>
<!-- Node1 -->
<g id="node1" class="node"><title>Node1</title>
<polygon fill="#bfbfbf" stroke="black" points="0,-0 0,-30 172,-30 172,-0 0,-0"/>
<text text-anchor="start" x="8" y="-18" font-family="Helvetica,sans-Serif" font-size="10.00">slogo.UI.CommandsTextField.get</text>
<text text-anchor="middle" x="86" y="-7" font-family="Helvetica,sans-Serif" font-size="10.00">TextField</text>
</g>
<!-- Node2 -->
<g id="node2" class="node"><title>Node2</title>
<g id="a_node2"><a xlink:href="../../db/d19/classslogo_1_1_u_i_1_1_module_creation_helper.html#ab60ba223f378cf5c5444d21f2b66a61a" target="_top" xlink:title="slogo.UI.ModuleCreationHelper.create\lTextField">
<polygon fill="white" stroke="black" points="208.5,-0 208.5,-30 405.5,-30 405.5,-0 208.5,-0"/>
<text text-anchor="start" x="216.5" y="-18" font-family="Helvetica,sans-Serif" font-size="10.00">slogo.UI.ModuleCreationHelper.create</text>
<text text-anchor="middle" x="307" y="-7" font-family="Helvetica,sans-Serif" font-size="10.00">TextField</text>
</a>
</g>
</g>
<!-- Node1&#45;&gt;Node2 -->
<g id="edge1" class="edge"><title>Node1&#45;&gt;Node2</title>
<path fill="none" stroke="midnightblue" d="M182.309,-15C190.895,-15 199.598,-15 208.204,-15"/>
<polygon fill="midnightblue" stroke="midnightblue" points="182.298,-11.5001 172.298,-15 182.298,-18.5001 182.298,-11.5001"/>
</g>
<!-- Node3 -->
<g id="node3" class="node"><title>Node3</title>
<g id="a_node3"><a xlink:href="../../db/d19/classslogo_1_1_u_i_1_1_module_creation_helper.html#a7c650957b2389d6e6d36e8be8a33cd2b" target="_top" xlink:title="slogo.UI.ModuleCreationHelper.create\lSelectorVBoxModules">
<polygon fill="white" stroke="black" points="442.5,-0 442.5,-30 639.5,-30 639.5,-0 442.5,-0"/>
<text text-anchor="start" x="450.5" y="-18" font-family="Helvetica,sans-Serif" font-size="10.00">slogo.UI.ModuleCreationHelper.create</text>
<text text-anchor="middle" x="541" y="-7" font-family="Helvetica,sans-Serif" font-size="10.00">SelectorVBoxModules</text>
</a>
</g>
</g>
<!-- Node2&#45;&gt;Node3 -->
<g id="edge2" class="edge"><title>Node2&#45;&gt;Node3</title>
<path fill="none" stroke="midnightblue" d="M415.722,-15C424.618,-15 433.58,-15 442.396,-15"/>
<polygon fill="midnightblue" stroke="midnightblue" points="415.717,-11.5001 405.716,-15 415.716,-18.5001 415.717,-11.5001"/>
</g>
<!-- Node4 -->
<g id="node4" class="node"><title>Node4</title>
<g id="a_node4"><a xlink:href="../../db/d19/classslogo_1_1_u_i_1_1_module_creation_helper.html#afb9dbbbad7d872234a5b296fe129a34e" target="_top" xlink:title="slogo.UI.ModuleCreationHelper.create\lMainPageModules">
<polygon fill="white" stroke="black" points="676.5,-22 676.5,-52 873.5,-52 873.5,-22 676.5,-22"/>
<text text-anchor="start" x="684.5" y="-40" font-family="Helvetica,sans-Serif" font-size="10.00">slogo.UI.ModuleCreationHelper.create</text>
<text text-anchor="middle" x="775" y="-29" font-family="Helvetica,sans-Serif" font-size="10.00">MainPageModules</text>
</a>
</g>
</g>
<!-- Node3&#45;&gt;Node4 -->
<g id="edge3" class="edge"><title>Node3&#45;&gt;Node4</title>
<path fill="none" stroke="midnightblue" d="M649.722,-25.215C658.618,-26.0586 667.58,-26.9085 676.396,-27.7445"/>
<polygon fill="midnightblue" stroke="midnightblue" points="650.002,-21.726 639.716,-24.2662 649.341,-28.6947 650.002,-21.726"/>
</g>
<!-- Node5 -->
<g id="node5" class="node"><title>Node5</title>
<g id="a_node5"><a xlink:href="../../d9/d33/classslogo_1_1_u_i_1_1_main.html#a15b7f2e399ee24d160550993ab737e73" target="_top" xlink:title="slogo.UI.Main.start">
<polygon fill="white" stroke="black" points="910,-27.5 910,-46.5 1016,-46.5 1016,-27.5 910,-27.5"/>
<text text-anchor="middle" x="963" y="-34.5" font-family="Helvetica,sans-Serif" font-size="10.00">slogo.UI.Main.start</text>
</a>
</g>
</g>
<!-- Node4&#45;&gt;Node5 -->
<g id="edge4" class="edge"><title>Node4&#45;&gt;Node5</title>
<path fill="none" stroke="midnightblue" d="M883.804,-37C892.76,-37 901.528,-37 909.764,-37"/>
<polygon fill="midnightblue" stroke="midnightblue" points="883.63,-33.5001 873.63,-37 883.63,-40.5001 883.63,-33.5001"/>
</g>
<!-- Node6 -->
<g id="node6" class="node"><title>Node6</title>
<g id="a_node6"><a xlink:href="../../db/d19/classslogo_1_1_u_i_1_1_module_creation_helper.html#a3be12a7cc2b8a219db1e296211a2cb88" target="_top" xlink:title="slogo.UI.ModuleCreationHelper.activate\lExtraWorkspaceButton">
<polygon fill="white" stroke="black" points="1052.5,-22 1052.5,-52 1257.5,-52 1257.5,-22 1052.5,-22"/>
<text text-anchor="start" x="1060.5" y="-40" font-family="Helvetica,sans-Serif" font-size="10.00">slogo.UI.ModuleCreationHelper.activate</text>
<text text-anchor="middle" x="1155" y="-29" font-family="Helvetica,sans-Serif" font-size="10.00">ExtraWorkspaceButton</text>
</a>
</g>
</g>
<!-- Node5&#45;&gt;Node6 -->
<g id="edge5" class="edge"><title>Node5&#45;&gt;Node6</title>
<path fill="none" stroke="midnightblue" d="M1026.22,-37C1034.63,-37 1043.44,-37 1052.32,-37"/>
<polygon fill="midnightblue" stroke="midnightblue" points="1026.17,-33.5001 1016.17,-37 1026.17,-40.5001 1026.17,-33.5001"/>
</g>
<!-- Node7 -->
<g id="node7" class="node"><title>Node7</title>
<g id="a_node7"><a xlink:href="../../db/d19/classslogo_1_1_u_i_1_1_module_creation_helper.html#a702c1ebe24d2857a10c666eb1fcc315d" target="_top" xlink:title="slogo.UI.ModuleCreationHelper.create\lExtraWorkspaceButton">
<polygon fill="white" stroke="black" points="1294.5,-0 1294.5,-30 1491.5,-30 1491.5,-0 1294.5,-0"/>
<text text-anchor="start" x="1302.5" y="-18" font-family="Helvetica,sans-Serif" font-size="10.00">slogo.UI.ModuleCreationHelper.create</text>
<text text-anchor="middle" x="1393" y="-7" font-family="Helvetica,sans-Serif" font-size="10.00">ExtraWorkspaceButton</text>
</a>
</g>
</g>
<!-- Node6&#45;&gt;Node7 -->
<g id="edge6" class="edge"><title>Node6&#45;&gt;Node7</title>
<path fill="none" stroke="midnightblue" d="M1267.77,-26.5812C1276.62,-25.7556 1285.52,-24.9257 1294.27,-24.1101"/>
<polygon fill="midnightblue" stroke="midnightblue" points="1267.43,-23.0972 1257.8,-27.5104 1268.08,-30.067 1267.43,-23.0972"/>
</g>
<!-- Node7&#45;&gt;Node3 -->
<g id="edge7" class="edge"><title>Node7&#45;&gt;Node3</title>
<path fill="none" stroke="midnightblue" d="M1284.27,-12.3776C1275.38,-12.2253 1266.54,-12.0956 1258,-12 999.35,-9.10502 934.65,-9.10502 676,-12 664.25,-12.1315 651.921,-12.3279 639.699,-12.5584"/>
<polygon fill="midnightblue" stroke="midnightblue" points="1284.24,-15.8776 1294.3,-12.5584 1284.37,-8.87874 1284.24,-15.8776"/>
</g>
</g>
</svg>
