<?xml version="1.0" encoding="UTF-8" standalone="no"?>
<!DOCTYPE svg PUBLIC "-//W3C//DTD SVG 1.1//EN"
 "http://www.w3.org/Graphics/SVG/1.1/DTD/svg11.dtd">
<!-- Generated by graphviz version 2.36.0 (20140111.2315)
 -->
<!-- Title: slogo.backend.util.ILine.end Pages: 1 -->
<!--zoomable 451 -->
<svg id="main" version="1.1" xmlns="http://www.w3.org/2000/svg" xmlns:xlink="http://www.w3.org/1999/xlink" xml:space="preserve" onload="init(evt)">
<style type="text/css"><![CDATA[
.edge:hover path { stroke: red; }
.edge:hover polygon { stroke: red; fill: red; }
]]></style>
<script type="text/javascript"><![CDATA[
var edges = document.getElementsByTagName('g');
if (edges && edges.length) {
  for (var i=0;i<edges.length;i++) {
    if (edges[i].id.substr(0,4)=='edge') {
      edges[i].setAttribute('class','edge');
    }
  }
}
]]></script>
        <defs>
                <circle id="rim" cx="0" cy="0" r="7"/>
                <circle id="rim2" cx="0" cy="0" r="3.5"/>
                <g id="zoomPlus">
                        <use xlink:href="#rim" fill="#404040">
                                <set attributeName="fill" to="#808080" begin="zoomplus.mouseover" end="zoomplus.mouseout"/>
                        </use>
                        <path d="M-4,0h8M0,-4v8" fill="none" stroke="white" stroke-width="1.5" pointer-events="none"/>
                </g>
                <g id="zoomMin">
                        <use xlink:href="#rim" fill="#404040">
                                <set attributeName="fill" to="#808080" begin="zoomminus.mouseover" end="zoomminus.mouseout"/>
                        </use>
                        <path d="M-4,0h8" fill="none" stroke="white" stroke-width="1.5" pointer-events="none"/>
                </g>
                <g id="dirArrow">
                        <path fill="none" stroke="white" stroke-width="1.5" d="M0,-3.0v7 M-2.5,-0.5L0,-3.0L2.5,-0.5"/>
                </g>
               <g id="resetDef">
                       <use xlink:href="#rim2" fill="#404040">
                               <set attributeName="fill" to="#808080" begin="reset.mouseover" end="reset.mouseout"/>
                       </use>
               </g>
        </defs>

<script type="text/javascript">
var viewWidth = 3132;
var viewHeight = 451;
var sectionId = 'dynsection-1';
</script>
<script xlink:href="../../svgpan.js"/>
<svg id="graph" class="graph">
<g id="viewport">
<title>slogo.backend.util.ILine.end</title>
<polygon fill="white" stroke="none" points="-4,4 -4,-447 3128,-447 3128,4 -4,4"/>
<!-- Node1 -->
<g id="node1" class="node"><title>Node1</title>
<polygon fill="#bfbfbf" stroke="black" points="0.5,-54.5 0.5,-73.5 149.5,-73.5 149.5,-54.5 0.5,-54.5"/>
<text text-anchor="middle" x="75" y="-61.5" font-family="Helvetica,sans-Serif" font-size="10.00">slogo.backend.util.ILine.end</text>
</g>
<!-- Node2 -->
<g id="node2" class="node"><title>Node2</title>
<g id="a_node2"><a xlink:href="../../d9/d7e/classslogo_1_1_u_i_1_1_method_runner.html#ab0ecc3d04769434971f00221697447bc" target="_top" xlink:title="slogo.UI.MethodRunner.draw\lNewLine">
<polygon fill="white" stroke="black" points="191,-49 191,-79 343,-79 343,-49 191,-49"/>
<text text-anchor="start" x="199" y="-67" font-family="Helvetica,sans-Serif" font-size="10.00">slogo.UI.MethodRunner.draw</text>
<text text-anchor="middle" x="267" y="-56" font-family="Helvetica,sans-Serif" font-size="10.00">NewLine</text>
</a>
</g>
</g>
<!-- Node1&#45;&gt;Node2 -->
<g id="edge1" class="edge"><title>Node1&#45;&gt;Node2</title>
<path fill="none" stroke="midnightblue" d="M159.918,-64C170.181,-64 180.618,-64 190.743,-64"/>
<polygon fill="midnightblue" stroke="midnightblue" points="159.731,-60.5001 149.731,-64 159.731,-67.5001 159.731,-60.5001"/>
</g>
<!-- Node34 -->
<g id="node34" class="node"><title>Node34</title>
<g id="a_node34"><a xlink:href="../../d9/d7e/classslogo_1_1_u_i_1_1_method_runner.html#a8c13f2e7cda4a596edbba9e9ab4aaacf" target="_top" xlink:title="slogo.UI.MethodRunner.redraw\lIfInScene">
<polygon fill="white" stroke="black" points="186.5,-98 186.5,-128 347.5,-128 347.5,-98 186.5,-98"/>
<text text-anchor="start" x="194.5" y="-116" font-family="Helvetica,sans-Serif" font-size="10.00">slogo.UI.MethodRunner.redraw</text>
<text text-anchor="middle" x="267" y="-105" font-family="Helvetica,sans-Serif" font-size="10.00">IfInScene</text>
</a>
</g>
</g>
<!-- Node1&#45;&gt;Node34 -->
<g id="edge43" class="edge"><title>Node1&#45;&gt;Node34</title>
<path fill="none" stroke="midnightblue" d="M122.925,-76.1018C148.541,-82.708 180.489,-90.9471 207.693,-97.963"/>
<polygon fill="midnightblue" stroke="midnightblue" points="123.642,-72.6722 113.085,-73.564 121.894,-79.4504 123.642,-72.6722"/>
</g>
<!-- Node35 -->
<g id="node35" class="node"><title>Node35</title>
<g id="a_node35"><a xlink:href="../../df/dc1/classslogo_1_1backend_1_1test_1_1_operation_test.html#ab8b3fd4448844a7a931a7ce3eb20cbae" target="_top" xlink:title="slogo.backend.test.Operation\lTest.testForward">
<polygon fill="white" stroke="black" points="188,-0 188,-30 346,-30 346,-0 188,-0"/>
<text text-anchor="start" x="196" y="-18" font-family="Helvetica,sans-Serif" font-size="10.00">slogo.backend.test.Operation</text>
<text text-anchor="middle" x="267" y="-7" font-family="Helvetica,sans-Serif" font-size="10.00">Test.testForward</text>
</a>
</g>
</g>
<!-- Node1&#45;&gt;Node35 -->
<g id="edge45" class="edge"><title>Node1&#45;&gt;Node35</title>
<path fill="none" stroke="midnightblue" d="M122.925,-51.8982C148.541,-45.292 180.489,-37.0529 207.693,-30.037"/>
<polygon fill="midnightblue" stroke="midnightblue" points="121.894,-48.5496 113.085,-54.436 123.642,-55.3278 121.894,-48.5496"/>
</g>
<!-- Node3 -->
<g id="node3" class="node"><title>Node3</title>
<g id="a_node3"><a xlink:href="../../d9/d7e/classslogo_1_1_u_i_1_1_method_runner.html#a1ab80948935d4a625cf3313eabe9a51d" target="_top" xlink:title="slogo.UI.MethodRunner.move\lTurtle">
<polygon fill="white" stroke="black" points="384,-73 384,-103 540,-103 540,-73 384,-73"/>
<text text-anchor="start" x="392" y="-91" font-family="Helvetica,sans-Serif" font-size="10.00">slogo.UI.MethodRunner.move</text>
<text text-anchor="middle" x="462" y="-80" font-family="Helvetica,sans-Serif" font-size="10.00">Turtle</text>
</a>
</g>
</g>
<!-- Node2&#45;&gt;Node3 -->
<g id="edge2" class="edge"><title>Node2&#45;&gt;Node3</title>
<path fill="none" stroke="midnightblue" d="M353.264,-74.6028C363.429,-75.8669 373.764,-77.1519 383.807,-78.4008"/>
<polygon fill="midnightblue" stroke="midnightblue" points="353.527,-71.1086 343.171,-73.3477 352.663,-78.0551 353.527,-71.1086"/>
</g>
<!-- Node4 -->
<g id="node4" class="node"><title>Node4</title>
<g id="a_node4"><a xlink:href="../../d9/d7e/classslogo_1_1_u_i_1_1_method_runner.html#a5fe4a6310ba1b0851d7d30a440511324" target="_top" xlink:title="slogo.UI.MethodRunner.change\lTurtle">
<polygon fill="white" stroke="black" points="576,-73 576,-103 740,-103 740,-73 576,-73"/>
<text text-anchor="start" x="584" y="-91" font-family="Helvetica,sans-Serif" font-size="10.00">slogo.UI.MethodRunner.change</text>
<text text-anchor="middle" x="658" y="-80" font-family="Helvetica,sans-Serif" font-size="10.00">Turtle</text>
</a>
</g>
</g>
<!-- Node3&#45;&gt;Node4 -->
<g id="edge3" class="edge"><title>Node3&#45;&gt;Node4</title>
<path fill="none" stroke="midnightblue" d="M550.486,-88C558.947,-88 567.505,-88 575.9,-88"/>
<polygon fill="midnightblue" stroke="midnightblue" points="550.231,-84.5001 540.231,-88 550.231,-91.5001 550.231,-84.5001"/>
</g>
<!-- Node5 -->
<g id="node5" class="node"><title>Node5</title>
<g id="a_node5"><a xlink:href="../../df/d2d/classslogo_1_1_view.html#accc79c56511a72090ff8a4d414b8d1f5" target="_top" xlink:title="slogo.View.executeTurtle\lCommands">
<polygon fill="white" stroke="black" points="776.5,-73 776.5,-103 909.5,-103 909.5,-73 776.5,-73"/>
<text text-anchor="start" x="784.5" y="-91" font-family="Helvetica,sans-Serif" font-size="10.00">slogo.View.executeTurtle</text>
<text text-anchor="middle" x="843" y="-80" font-family="Helvetica,sans-Serif" font-size="10.00">Commands</text>
</a>
</g>
</g>
<!-- Node4&#45;&gt;Node5 -->
<g id="edge4" class="edge"><title>Node4&#45;&gt;Node5</title>
<path fill="none" stroke="midnightblue" d="M750.35,-88C759.128,-88 767.907,-88 776.365,-88"/>
<polygon fill="midnightblue" stroke="midnightblue" points="750.066,-84.5001 740.066,-88 750.066,-91.5001 750.066,-84.5001"/>
</g>
<!-- Node6 -->
<g id="node6" class="node"><title>Node6</title>
<g id="a_node6"><a xlink:href="../../df/d2d/classslogo_1_1_view.html#aa90e5d95d422b58b7f4b7f8a049defe1" target="_top" xlink:title="slogo.View.executeCommand">
<polygon fill="white" stroke="black" points="946,-78.5 946,-97.5 1104,-97.5 1104,-78.5 946,-78.5"/>
<text text-anchor="middle" x="1025" y="-85.5" font-family="Helvetica,sans-Serif" font-size="10.00">slogo.View.executeCommand</text>
</a>
</g>
</g>
<!-- Node5&#45;&gt;Node6 -->
<g id="edge5" class="edge"><title>Node5&#45;&gt;Node6</title>
<path fill="none" stroke="midnightblue" d="M919.784,-88C928.42,-88 937.235,-88 945.901,-88"/>
<polygon fill="midnightblue" stroke="midnightblue" points="919.748,-84.5001 909.748,-88 919.748,-91.5001 919.748,-84.5001"/>
</g>
<!-- Node7 -->
<g id="node7" class="node"><title>Node7</title>
<g id="a_node7"><a xlink:href="../../df/d2d/classslogo_1_1_view.html#aee563f6a0b15ac6668e4dcbdad40c73c" target="_top" xlink:title="slogo.View.sendCommandTo\lBackend">
<polygon fill="white" stroke="black" points="1146,-237 1146,-267 1298,-267 1298,-237 1146,-237"/>
<text text-anchor="start" x="1154" y="-255" font-family="Helvetica,sans-Serif" font-size="10.00">slogo.View.sendCommandTo</text>
<text text-anchor="middle" x="1222" y="-244" font-family="Helvetica,sans-Serif" font-size="10.00">Backend</text>
</a>
</g>
</g>
<!-- Node6&#45;&gt;Node7 -->
<g id="edge6" class="edge"><title>Node6&#45;&gt;Node7</title>
<path fill="none" stroke="midnightblue" d="M1045.05,-104.025C1082.77,-135.741 1166.43,-206.108 1203.15,-236.984"/>
<polygon fill="midnightblue" stroke="midnightblue" points="1047.23,-101.284 1037.33,-97.5262 1042.73,-106.641 1047.23,-101.284"/>
</g>
<!-- Node27 -->
<g id="node27" class="node"><title>Node27</title>
<g id="a_node27"><a xlink:href="../../df/d2d/classslogo_1_1_view.html#a4c3084a198acf85804800d70eff9ee51" target="_top" xlink:title="slogo.View.stepIntoCommand">
<polygon fill="white" stroke="black" points="1143,-78.5 1143,-97.5 1301,-97.5 1301,-78.5 1143,-78.5"/>
<text text-anchor="middle" x="1222" y="-85.5" font-family="Helvetica,sans-Serif" font-size="10.00">slogo.View.stepIntoCommand</text>
</a>
</g>
</g>
<!-- Node6&#45;&gt;Node27 -->
<g id="edge34" class="edge"><title>Node6&#45;&gt;Node27</title>
<path fill="none" stroke="midnightblue" d="M1114.4,-88C1123.87,-88 1133.45,-88 1142.79,-88"/>
<polygon fill="midnightblue" stroke="midnightblue" points="1114.19,-84.5001 1104.19,-88 1114.19,-91.5001 1114.19,-84.5001"/>
</g>
<!-- Node31 -->
<g id="node31" class="node"><title>Node31</title>
<g id="a_node31"><a xlink:href="../../df/d2d/classslogo_1_1_view.html#ac8b7f574c679e744a430f1649dc55e68" target="_top" xlink:title="slogo.View.stepOverCommand">
<polygon fill="white" stroke="black" points="1140.5,-35.5 1140.5,-54.5 1303.5,-54.5 1303.5,-35.5 1140.5,-35.5"/>
<text text-anchor="middle" x="1222" y="-42.5" font-family="Helvetica,sans-Serif" font-size="10.00">slogo.View.stepOverCommand</text>
</a>
</g>
</g>
<!-- Node6&#45;&gt;Node31 -->
<g id="edge39" class="edge"><title>Node6&#45;&gt;Node31</title>
<path fill="none" stroke="midnightblue" d="M1079.06,-76.3005C1110.07,-69.462 1148.71,-60.9406 1177.84,-54.5164"/>
<polygon fill="midnightblue" stroke="midnightblue" points="1078.29,-72.8855 1069.28,-78.4569 1079.8,-79.7213 1078.29,-72.8855"/>
</g>
<!-- Node8 -->
<g id="node8" class="node"><title>Node8</title>
<g id="a_node8"><a xlink:href="../../db/d19/classslogo_1_1_u_i_1_1_module_creation_helper.html#a69e17abcc7cf9a6ed7261d8fb1d631fa" target="_top" xlink:title="slogo.UI.ModuleCreationHelper.activate\lIncreaseDecreaseButtons">
<polygon fill="white" stroke="black" points="1340.5,-413 1340.5,-443 1545.5,-443 1545.5,-413 1340.5,-413"/>
<text text-anchor="start" x="1348.5" y="-431" font-family="Helvetica,sans-Serif" font-size="10.00">slogo.UI.ModuleCreationHelper.activate</text>
<text text-anchor="middle" x="1443" y="-420" font-family="Helvetica,sans-Serif" font-size="10.00">IncreaseDecreaseButtons</text>
</a>
</g>
</g>
<!-- Node7&#45;&gt;Node8 -->
<g id="edge7" class="edge"><title>Node7&#45;&gt;Node8</title>
<path fill="none" stroke="midnightblue" d="M1236.04,-276.219C1254.78,-308.724 1292.36,-366.06 1340,-398 1349.12,-404.116 1359.51,-409.01 1370.09,-412.919"/>
<polygon fill="midnightblue" stroke="midnightblue" points="1239.01,-274.361 1231.05,-267.368 1232.91,-277.798 1239.01,-274.361"/>
</g>
<!-- Node15 -->
<g id="node15" class="node"><title>Node15</title>
<g id="a_node15"><a xlink:href="../../db/d19/classslogo_1_1_u_i_1_1_module_creation_helper.html#aa70b0ad9e90e62509149bfd2ef2ba209" target="_top" xlink:title="slogo.UI.ModuleCreationHelper.activate\lKeyEvents">
<polygon fill="white" stroke="black" points="2066.5,-160 2066.5,-190 2271.5,-190 2271.5,-160 2066.5,-160"/>
<text text-anchor="start" x="2074.5" y="-178" font-family="Helvetica,sans-Serif" font-size="10.00">slogo.UI.ModuleCreationHelper.activate</text>
<text text-anchor="middle" x="2169" y="-167" font-family="Helvetica,sans-Serif" font-size="10.00">KeyEvents</text>
</a>
</g>
</g>
<!-- Node7&#45;&gt;Node15 -->
<g id="edge15" class="edge"><title>Node7&#45;&gt;Node15</title>
<path fill="none" stroke="midnightblue" d="M1252.18,-231.164C1274.9,-216.251 1307.88,-197.388 1340,-189 1474.15,-153.97 1876.16,-163.777 2066.26,-170.744"/>
<polygon fill="midnightblue" stroke="midnightblue" points="1250.05,-228.378 1243.7,-236.86 1253.95,-234.189 1250.05,-228.378"/>
</g>
<!-- Node16 -->
<g id="node16" class="node"><title>Node16</title>
<g id="a_node16"><a xlink:href="../../db/d19/classslogo_1_1_u_i_1_1_module_creation_helper.html#a2e841243ec3ca474e8822102343acc88" target="_top" xlink:title="slogo.UI.ModuleCreationHelper.activate\lNewTurtleButton">
<polygon fill="white" stroke="black" points="1582.5,-368 1582.5,-398 1787.5,-398 1787.5,-368 1582.5,-368"/>
<text text-anchor="start" x="1590.5" y="-386" font-family="Helvetica,sans-Serif" font-size="10.00">slogo.UI.ModuleCreationHelper.activate</text>
<text text-anchor="middle" x="1685" y="-375" font-family="Helvetica,sans-Serif" font-size="10.00">NewTurtleButton</text>
</a>
</g>
</g>
<!-- Node7&#45;&gt;Node16 -->
<g id="edge17" class="edge"><title>Node7&#45;&gt;Node16</title>
<path fill="none" stroke="midnightblue" d="M1239.02,-275.155C1259.1,-302.009 1296.24,-345.013 1340,-364 1416.41,-397.152 1511.47,-399.86 1582.29,-395.435"/>
<polygon fill="midnightblue" stroke="midnightblue" points="1241.83,-273.073 1233.11,-267.055 1236.18,-277.197 1241.83,-273.073"/>
</g>
<!-- Node18 -->
<g id="node18" class="node"><title>Node18</title>
<g id="a_node18"><a xlink:href="../../db/d19/classslogo_1_1_u_i_1_1_module_creation_helper.html#a9b1f07ab673191067907a059b1b0c524" target="_top" xlink:title="slogo.UI.ModuleCreationHelper.activate\lPlayButton">
<polygon fill="white" stroke="black" points="1340.5,-325 1340.5,-355 1545.5,-355 1545.5,-325 1340.5,-325"/>
<text text-anchor="start" x="1348.5" y="-343" font-family="Helvetica,sans-Serif" font-size="10.00">slogo.UI.ModuleCreationHelper.activate</text>
<text text-anchor="middle" x="1443" y="-332" font-family="Helvetica,sans-Serif" font-size="10.00">PlayButton</text>
</a>
</g>
</g>
<!-- Node7&#45;&gt;Node18 -->
<g id="edge20" class="edge"><title>Node7&#45;&gt;Node18</title>
<path fill="none" stroke="midnightblue" d="M1255.42,-272.354C1278.33,-286.006 1310.16,-303.522 1340,-315 1349.7,-318.73 1360.14,-322.039 1370.5,-324.929"/>
<polygon fill="midnightblue" stroke="midnightblue" points="1257.16,-269.317 1246.79,-267.145 1253.54,-275.31 1257.16,-269.317"/>
</g>
<!-- Node21 -->
<g id="node21" class="node"><title>Node21</title>
<g id="a_node21"><a xlink:href="../../db/d19/classslogo_1_1_u_i_1_1_module_creation_helper.html#a3a38d485562cb17591ec3fd07cffc18a" target="_top" xlink:title="slogo.UI.ModuleCreationHelper.activate\lTurtleCanvas">
<polygon fill="white" stroke="black" points="1824.5,-111 1824.5,-141 2029.5,-141 2029.5,-111 1824.5,-111"/>
<text text-anchor="start" x="1832.5" y="-129" font-family="Helvetica,sans-Serif" font-size="10.00">slogo.UI.ModuleCreationHelper.activate</text>
<text text-anchor="middle" x="1927" y="-118" font-family="Helvetica,sans-Serif" font-size="10.00">TurtleCanvas</text>
</a>
</g>
</g>
<!-- Node7&#45;&gt;Node21 -->
<g id="edge24" class="edge"><title>Node7&#45;&gt;Node21</title>
<path fill="none" stroke="midnightblue" d="M1242.37,-229.232C1263.63,-206.064 1300.1,-171.434 1340,-156 1425.51,-122.92 1680.48,-121.527 1824.33,-123.616"/>
<polygon fill="midnightblue" stroke="midnightblue" points="1239.56,-227.115 1235.5,-236.898 1244.78,-231.786 1239.56,-227.115"/>
</g>
<!-- Node23 -->
<g id="node23" class="node"><title>Node23</title>
<g id="a_node23"><a xlink:href="../../d1/d5f/classslogo_1_1_u_i_1_1_path_color_selector.html#ad3d9c82a0904c97edcec7cf67b85bd7b" target="_top" xlink:title="slogo.UI.PathColorSelector.create">
<polygon fill="white" stroke="black" points="1355,-286.5 1355,-305.5 1531,-305.5 1531,-286.5 1355,-286.5"/>
<text text-anchor="middle" x="1443" y="-293.5" font-family="Helvetica,sans-Serif" font-size="10.00">slogo.UI.PathColorSelector.create</text>
</a>
</g>
</g>
<!-- Node7&#45;&gt;Node23 -->
<g id="edge27" class="edge"><title>Node7&#45;&gt;Node23</title>
<path fill="none" stroke="midnightblue" d="M1305.74,-269.065C1317.24,-271.411 1328.91,-273.776 1340,-276 1357.25,-279.46 1376.16,-283.186 1392.95,-286.473"/>
<polygon fill="midnightblue" stroke="midnightblue" points="1306.19,-265.585 1295.69,-267.013 1304.79,-272.443 1306.19,-265.585"/>
</g>
<!-- Node25 -->
<g id="node25" class="node"><title>Node25</title>
<g id="a_node25"><a xlink:href="../../d4/d8d/classslogo_1_1_u_i_1_1_background_color_selector.html#ad75ba4ce104e071811d0fe039a4e839f" target="_top" xlink:title="slogo.UI.BackgroundColor\lSelector.create">
<polygon fill="white" stroke="black" points="1373,-237 1373,-267 1513,-267 1513,-237 1373,-237"/>
<text text-anchor="start" x="1381" y="-255" font-family="Helvetica,sans-Serif" font-size="10.00">slogo.UI.BackgroundColor</text>
<text text-anchor="middle" x="1443" y="-244" font-family="Helvetica,sans-Serif" font-size="10.00">Selector.create</text>
</a>
</g>
</g>
<!-- Node7&#45;&gt;Node25 -->
<g id="edge30" class="edge"><title>Node7&#45;&gt;Node25</title>
<path fill="none" stroke="midnightblue" d="M1308.14,-252C1329.6,-252 1352.37,-252 1372.93,-252"/>
<polygon fill="midnightblue" stroke="midnightblue" points="1308.06,-248.5 1298.06,-252 1308.06,-255.5 1308.06,-248.5"/>
</g>
<!-- Node26 -->
<g id="node26" class="node"><title>Node26</title>
<g id="a_node26"><a xlink:href="../../dd/da7/classslogo_1_1_u_i_1_1_turtle_image_selector.html#a3f268d9196ffebcbb5dc322d2897a9fe" target="_top" xlink:title="slogo.UI.TurtleImageSelector.create">
<polygon fill="white" stroke="black" points="1350,-198.5 1350,-217.5 1536,-217.5 1536,-198.5 1350,-198.5"/>
<text text-anchor="middle" x="1443" y="-205.5" font-family="Helvetica,sans-Serif" font-size="10.00">slogo.UI.TurtleImageSelector.create</text>
</a>
</g>
</g>
<!-- Node7&#45;&gt;Node26 -->
<g id="edge32" class="edge"><title>Node7&#45;&gt;Node26</title>
<path fill="none" stroke="midnightblue" d="M1305.74,-234.935C1317.24,-232.589 1328.91,-230.224 1340,-228 1357.25,-224.54 1376.16,-220.814 1392.95,-217.527"/>
<polygon fill="midnightblue" stroke="midnightblue" points="1304.79,-231.557 1295.69,-236.987 1306.19,-238.415 1304.79,-231.557"/>
</g>
<!-- Node9 -->
<g id="node9" class="node"><title>Node9</title>
<g id="a_node9"><a xlink:href="../../db/d19/classslogo_1_1_u_i_1_1_module_creation_helper.html#adce7362386f9a7b3006e7db08a2d578d" target="_top" xlink:title="slogo.UI.ModuleCreationHelper.create\lIncreaseDecreaseButtons">
<polygon fill="white" stroke="black" points="1828.5,-404 1828.5,-434 2025.5,-434 2025.5,-404 1828.5,-404"/>
<text text-anchor="start" x="1836.5" y="-422" font-family="Helvetica,sans-Serif" font-size="10.00">slogo.UI.ModuleCreationHelper.create</text>
<text text-anchor="middle" x="1927" y="-411" font-family="Helvetica,sans-Serif" font-size="10.00">IncreaseDecreaseButtons</text>
</a>
</g>
</g>
<!-- Node8&#45;&gt;Node9 -->
<g id="edge8" class="edge"><title>Node8&#45;&gt;Node9</title>
<path fill="none" stroke="midnightblue" d="M1555.79,-425.913C1638.23,-424.373 1749.29,-422.299 1828.21,-420.826"/>
<polygon fill="midnightblue" stroke="midnightblue" points="1555.56,-422.416 1545.63,-426.102 1555.69,-429.415 1555.56,-422.416"/>
</g>
<!-- Node10 -->
<g id="node10" class="node"><title>Node10</title>
<g id="a_node10"><a xlink:href="../../db/d19/classslogo_1_1_u_i_1_1_module_creation_helper.html#a7c650957b2389d6e6d36e8be8a33cd2b" target="_top" xlink:title="slogo.UI.ModuleCreationHelper.create\lSelectorVBoxModules">
<polygon fill="white" stroke="black" points="2070.5,-277 2070.5,-307 2267.5,-307 2267.5,-277 2070.5,-277"/>
<text text-anchor="start" x="2078.5" y="-295" font-family="Helvetica,sans-Serif" font-size="10.00">slogo.UI.ModuleCreationHelper.create</text>
<text text-anchor="middle" x="2169" y="-284" font-family="Helvetica,sans-Serif" font-size="10.00">SelectorVBoxModules</text>
</a>
</g>
</g>
<!-- Node9&#45;&gt;Node10 -->
<g id="edge9" class="edge"><title>Node9&#45;&gt;Node10</title>
<path fill="none" stroke="midnightblue" d="M2011,-400.732C2017.54,-398.424 2023.95,-395.854 2030,-393 2078.6,-370.077 2127.46,-329.079 2151.92,-307.025"/>
<polygon fill="midnightblue" stroke="midnightblue" points="2009.75,-397.461 2001.36,-403.93 2011.95,-404.105 2009.75,-397.461"/>
</g>
<!-- Node11 -->
<g id="node11" class="node"><title>Node11</title>
<g id="a_node11"><a xlink:href="../../db/d19/classslogo_1_1_u_i_1_1_module_creation_helper.html#afb9dbbbad7d872234a5b296fe129a34e" target="_top" xlink:title="slogo.UI.ModuleCreationHelper.create\lMainPageModules">
<polygon fill="white" stroke="black" points="2308.5,-160 2308.5,-190 2505.5,-190 2505.5,-160 2308.5,-160"/>
<text text-anchor="start" x="2316.5" y="-178" font-family="Helvetica,sans-Serif" font-size="10.00">slogo.UI.ModuleCreationHelper.create</text>
<text text-anchor="middle" x="2407" y="-167" font-family="Helvetica,sans-Serif" font-size="10.00">MainPageModules</text>
</a>
</g>
</g>
<!-- Node10&#45;&gt;Node11 -->
<g id="edge10" class="edge"><title>Node10&#45;&gt;Node11</title>
<path fill="none" stroke="midnightblue" d="M2209.58,-272.38C2256.29,-249.222 2332.96,-211.212 2375.37,-190.184"/>
<polygon fill="midnightblue" stroke="midnightblue" points="2207.77,-269.366 2200.37,-276.944 2210.88,-275.638 2207.77,-269.366"/>
</g>
<!-- Node12 -->
<g id="node12" class="node"><title>Node12</title>
<g id="a_node12"><a xlink:href="../../d9/d33/classslogo_1_1_u_i_1_1_main.html#a15b7f2e399ee24d160550993ab737e73" target="_top" xlink:title="slogo.UI.Main.start">
<polygon fill="white" stroke="black" points="2542,-174.5 2542,-193.5 2648,-193.5 2648,-174.5 2542,-174.5"/>
<text text-anchor="middle" x="2595" y="-181.5" font-family="Helvetica,sans-Serif" font-size="10.00">slogo.UI.Main.start</text>
</a>
</g>
</g>
<!-- Node11&#45;&gt;Node12 -->
<g id="edge11" class="edge"><title>Node11&#45;&gt;Node12</title>
<path fill="none" stroke="midnightblue" d="M2515.8,-180.216C2524.76,-180.65 2533.53,-181.074 2541.76,-181.472"/>
<polygon fill="midnightblue" stroke="midnightblue" points="2515.79,-176.712 2505.63,-179.724 2515.45,-183.703 2515.79,-176.712"/>
</g>
<!-- Node13 -->
<g id="node13" class="node"><title>Node13</title>
<g id="a_node13"><a xlink:href="../../db/d19/classslogo_1_1_u_i_1_1_module_creation_helper.html#a3be12a7cc2b8a219db1e296211a2cb88" target="_top" xlink:title="slogo.UI.ModuleCreationHelper.activate\lExtraWorkspaceButton">
<polygon fill="white" stroke="black" points="2684.5,-187 2684.5,-217 2889.5,-217 2889.5,-187 2684.5,-187"/>
<text text-anchor="start" x="2692.5" y="-205" font-family="Helvetica,sans-Serif" font-size="10.00">slogo.UI.ModuleCreationHelper.activate</text>
<text text-anchor="middle" x="2787" y="-194" font-family="Helvetica,sans-Serif" font-size="10.00">ExtraWorkspaceButton</text>
</a>
</g>
</g>
<!-- Node12&#45;&gt;Node13 -->
<g id="edge12" class="edge"><title>Node12&#45;&gt;Node13</title>
<path fill="none" stroke="midnightblue" d="M2658.22,-189.894C2666.63,-190.691 2675.44,-191.526 2684.32,-192.367"/>
<polygon fill="midnightblue" stroke="midnightblue" points="2658.46,-186.401 2648.17,-188.942 2657.79,-193.37 2658.46,-186.401"/>
</g>
<!-- Node14 -->
<g id="node14" class="node"><title>Node14</title>
<g id="a_node14"><a xlink:href="../../db/d19/classslogo_1_1_u_i_1_1_module_creation_helper.html#a702c1ebe24d2857a10c666eb1fcc315d" target="_top" xlink:title="slogo.UI.ModuleCreationHelper.create\lExtraWorkspaceButton">
<polygon fill="white" stroke="black" points="2926.5,-213 2926.5,-243 3123.5,-243 3123.5,-213 2926.5,-213"/>
<text text-anchor="start" x="2934.5" y="-231" font-family="Helvetica,sans-Serif" font-size="10.00">slogo.UI.ModuleCreationHelper.create</text>
<text text-anchor="middle" x="3025" y="-220" font-family="Helvetica,sans-Serif" font-size="10.00">ExtraWorkspaceButton</text>
</a>
</g>
</g>
<!-- Node13&#45;&gt;Node14 -->
<g id="edge13" class="edge"><title>Node13&#45;&gt;Node14</title>
<path fill="none" stroke="midnightblue" d="M2899.77,-214.313C2908.62,-215.289 2917.52,-216.27 2926.27,-217.234"/>
<polygon fill="midnightblue" stroke="midnightblue" points="2900.12,-210.831 2889.8,-213.215 2899.35,-217.789 2900.12,-210.831"/>
</g>
<!-- Node14&#45;&gt;Node10 -->
<g id="edge14" class="edge"><title>Node14&#45;&gt;Node10</title>
<path fill="none" stroke="midnightblue" d="M2916.34,-236.068C2748.9,-248.617 2428.6,-272.62 2267.55,-284.69"/>
<polygon fill="midnightblue" stroke="midnightblue" points="2916.7,-239.551 2926.41,-235.313 2916.18,-232.571 2916.7,-239.551"/>
</g>
<!-- Node15&#45;&gt;Node11 -->
<g id="edge16" class="edge"><title>Node15&#45;&gt;Node11</title>
<path fill="none" stroke="midnightblue" d="M2282.05,-175C2290.81,-175 2299.62,-175 2308.27,-175"/>
<polygon fill="midnightblue" stroke="midnightblue" points="2281.8,-171.5 2271.8,-175 2281.8,-178.5 2281.8,-171.5"/>
</g>
<!-- Node17 -->
<g id="node17" class="node"><title>Node17</title>
<g id="a_node17"><a xlink:href="../../db/d19/classslogo_1_1_u_i_1_1_module_creation_helper.html#a07f5483df317cdf80e8ea2dda5699afa" target="_top" xlink:title="slogo.UI.ModuleCreationHelper.create\lNewTurtleButton">
<polygon fill="white" stroke="black" points="1828.5,-354 1828.5,-384 2025.5,-384 2025.5,-354 1828.5,-354"/>
<text text-anchor="start" x="1836.5" y="-372" font-family="Helvetica,sans-Serif" font-size="10.00">slogo.UI.ModuleCreationHelper.create</text>
<text text-anchor="middle" x="1927" y="-361" font-family="Helvetica,sans-Serif" font-size="10.00">NewTurtleButton</text>
</a>
</g>
</g>
<!-- Node16&#45;&gt;Node17 -->
<g id="edge18" class="edge"><title>Node16&#45;&gt;Node17</title>
<path fill="none" stroke="midnightblue" d="M1797.89,-376.473C1808.04,-375.881 1818.26,-375.285 1828.27,-374.701"/>
<polygon fill="midnightblue" stroke="midnightblue" points="1797.56,-372.986 1787.78,-377.063 1797.97,-379.974 1797.56,-372.986"/>
</g>
<!-- Node17&#45;&gt;Node10 -->
<g id="edge19" class="edge"><title>Node17&#45;&gt;Node10</title>
<path fill="none" stroke="midnightblue" d="M1998.15,-351.309C2008.87,-348.354 2019.76,-345.203 2030,-342 2063.93,-331.387 2101.86,-317.493 2129.35,-307.046"/>
<polygon fill="midnightblue" stroke="midnightblue" points="1997.12,-347.962 1988.39,-353.963 1998.96,-354.717 1997.12,-347.962"/>
</g>
<!-- Node19 -->
<g id="node19" class="node"><title>Node19</title>
<g id="a_node19"><a xlink:href="../../db/d19/classslogo_1_1_u_i_1_1_module_creation_helper.html#a9b3fb38a55b3b7812b4f793afa7a974f" target="_top" xlink:title="slogo.UI.ModuleCreationHelper.create\lPlayButton">
<polygon fill="white" stroke="black" points="1586.5,-319 1586.5,-349 1783.5,-349 1783.5,-319 1586.5,-319"/>
<text text-anchor="start" x="1594.5" y="-337" font-family="Helvetica,sans-Serif" font-size="10.00">slogo.UI.ModuleCreationHelper.create</text>
<text text-anchor="middle" x="1685" y="-326" font-family="Helvetica,sans-Serif" font-size="10.00">PlayButton</text>
</a>
</g>
</g>
<!-- Node18&#45;&gt;Node19 -->
<g id="edge21" class="edge"><title>Node18&#45;&gt;Node19</title>
<path fill="none" stroke="midnightblue" d="M1555.89,-337.203C1566.04,-336.949 1576.26,-336.694 1586.27,-336.443"/>
<polygon fill="midnightblue" stroke="midnightblue" points="1555.69,-333.707 1545.78,-337.455 1555.87,-340.704 1555.69,-333.707"/>
</g>
<!-- Node20 -->
<g id="node20" class="node"><title>Node20</title>
<g id="a_node20"><a xlink:href="../../db/d19/classslogo_1_1_u_i_1_1_module_creation_helper.html#ae1e60d37509c2e5eddcb2a6e70b4f650" target="_top" xlink:title="slogo.UI.ModuleCreationHelper.create\lFirstRowButtons">
<polygon fill="white" stroke="black" points="1828.5,-303 1828.5,-333 2025.5,-333 2025.5,-303 1828.5,-303"/>
<text text-anchor="start" x="1836.5" y="-321" font-family="Helvetica,sans-Serif" font-size="10.00">slogo.UI.ModuleCreationHelper.create</text>
<text text-anchor="middle" x="1927" y="-310" font-family="Helvetica,sans-Serif" font-size="10.00">FirstRowButtons</text>
</a>
</g>
</g>
<!-- Node19&#45;&gt;Node20 -->
<g id="edge22" class="edge"><title>Node19&#45;&gt;Node20</title>
<path fill="none" stroke="midnightblue" d="M1793.73,-326.818C1805.3,-326.046 1817.03,-325.265 1828.47,-324.502"/>
<polygon fill="midnightblue" stroke="midnightblue" points="1793.36,-323.335 1783.62,-327.492 1793.83,-330.319 1793.36,-323.335"/>
</g>
<!-- Node20&#45;&gt;Node10 -->
<g id="edge23" class="edge"><title>Node20&#45;&gt;Node10</title>
<path fill="none" stroke="midnightblue" d="M2035.73,-306.329C2047.3,-305.075 2059.03,-303.805 2070.47,-302.566"/>
<polygon fill="midnightblue" stroke="midnightblue" points="2035.18,-302.868 2025.62,-307.425 2035.94,-309.827 2035.18,-302.868"/>
</g>
<!-- Node22 -->
<g id="node22" class="node"><title>Node22</title>
<g id="a_node22"><a xlink:href="../../db/d19/classslogo_1_1_u_i_1_1_module_creation_helper.html#a803bac6b55bde712b21f2face1eeef81" target="_top" xlink:title="slogo.UI.ModuleCreationHelper.create\lTurtleCanvas">
<polygon fill="white" stroke="black" points="2070.5,-111 2070.5,-141 2267.5,-141 2267.5,-111 2070.5,-111"/>
<text text-anchor="start" x="2078.5" y="-129" font-family="Helvetica,sans-Serif" font-size="10.00">slogo.UI.ModuleCreationHelper.create</text>
<text text-anchor="middle" x="2169" y="-118" font-family="Helvetica,sans-Serif" font-size="10.00">TurtleCanvas</text>
</a>
</g>
</g>
<!-- Node21&#45;&gt;Node22 -->
<g id="edge25" class="edge"><title>Node21&#45;&gt;Node22</title>
<path fill="none" stroke="midnightblue" d="M2039.89,-126C2050.04,-126 2060.26,-126 2070.27,-126"/>
<polygon fill="midnightblue" stroke="midnightblue" points="2039.78,-122.5 2029.78,-126 2039.78,-129.5 2039.78,-122.5"/>
</g>
<!-- Node22&#45;&gt;Node11 -->
<g id="edge26" class="edge"><title>Node22&#45;&gt;Node11</title>
<path fill="none" stroke="midnightblue" d="M2252.42,-143.113C2278.9,-148.611 2308.03,-154.658 2333.73,-159.994"/>
<polygon fill="midnightblue" stroke="midnightblue" points="2252.91,-139.641 2242.41,-141.035 2251.49,-146.495 2252.91,-139.641"/>
</g>
<!-- Node24 -->
<g id="node24" class="node"><title>Node24</title>
<g id="a_node24"><a xlink:href="../../db/d19/classslogo_1_1_u_i_1_1_module_creation_helper.html#af7f2919454fdbf6e9d7d912e99634857" target="_top" xlink:title="slogo.UI.ModuleCreationHelper.create\lSelectors">
<polygon fill="white" stroke="black" points="1586.5,-254 1586.5,-284 1783.5,-284 1783.5,-254 1586.5,-254"/>
<text text-anchor="start" x="1594.5" y="-272" font-family="Helvetica,sans-Serif" font-size="10.00">slogo.UI.ModuleCreationHelper.create</text>
<text text-anchor="middle" x="1685" y="-261" font-family="Helvetica,sans-Serif" font-size="10.00">Selectors</text>
</a>
</g>
</g>
<!-- Node23&#45;&gt;Node24 -->
<g id="edge28" class="edge"><title>Node23&#45;&gt;Node24</title>
<path fill="none" stroke="midnightblue" d="M1538.76,-285.339C1554.36,-283.585 1570.54,-281.764 1586.21,-280.002"/>
<polygon fill="midnightblue" stroke="midnightblue" points="1538.16,-281.885 1528.62,-286.481 1538.94,-288.841 1538.16,-281.885"/>
</g>
<!-- Node24&#45;&gt;Node10 -->
<g id="edge29" class="edge"><title>Node24&#45;&gt;Node10</title>
<path fill="none" stroke="midnightblue" d="M1793.74,-274.141C1876.55,-278.092 1989.97,-283.505 2070.19,-287.333"/>
<polygon fill="midnightblue" stroke="midnightblue" points="1793.7,-270.635 1783.54,-273.654 1793.36,-277.627 1793.7,-270.635"/>
</g>
<!-- Node25&#45;&gt;Node24 -->
<g id="edge31" class="edge"><title>Node25&#45;&gt;Node24</title>
<path fill="none" stroke="midnightblue" d="M1523.18,-257.609C1543.4,-259.041 1565.37,-260.597 1586.39,-262.086"/>
<polygon fill="midnightblue" stroke="midnightblue" points="1523.32,-254.11 1513.1,-256.894 1522.82,-261.092 1523.32,-254.11"/>
</g>
<!-- Node26&#45;&gt;Node24 -->
<g id="edge33" class="edge"><title>Node26&#45;&gt;Node24</title>
<path fill="none" stroke="midnightblue" d="M1507.74,-219.528C1520.46,-222.101 1533.69,-224.973 1546,-228 1576.7,-235.552 1610.76,-245.652 1637.36,-253.938"/>
<polygon fill="midnightblue" stroke="midnightblue" points="1508.17,-216.044 1497.68,-217.531 1506.8,-222.91 1508.17,-216.044"/>
</g>
<!-- Node28 -->
<g id="node28" class="node"><title>Node28</title>
<g id="a_node28"><a xlink:href="../../db/d19/classslogo_1_1_u_i_1_1_module_creation_helper.html#a9fd730f7c1860d34bf4ac46c3828bd59" target="_top" xlink:title="slogo.UI.ModuleCreationHelper.activate\lStepIntoButton">
<polygon fill="white" stroke="black" points="1340.5,-73 1340.5,-103 1545.5,-103 1545.5,-73 1340.5,-73"/>
<text text-anchor="start" x="1348.5" y="-91" font-family="Helvetica,sans-Serif" font-size="10.00">slogo.UI.ModuleCreationHelper.activate</text>
<text text-anchor="middle" x="1443" y="-80" font-family="Helvetica,sans-Serif" font-size="10.00">StepIntoButton</text>
</a>
</g>
</g>
<!-- Node27&#45;&gt;Node28 -->
<g id="edge35" class="edge"><title>Node27&#45;&gt;Node28</title>
<path fill="none" stroke="midnightblue" d="M1311.33,-88C1320.82,-88 1330.54,-88 1340.17,-88"/>
<polygon fill="midnightblue" stroke="midnightblue" points="1311.14,-84.5001 1301.14,-88 1311.14,-91.5001 1311.14,-84.5001"/>
</g>
<!-- Node29 -->
<g id="node29" class="node"><title>Node29</title>
<g id="a_node29"><a xlink:href="../../db/d19/classslogo_1_1_u_i_1_1_module_creation_helper.html#a4a6f1f009507c25be8c7c28cbba35f3b" target="_top" xlink:title="slogo.UI.ModuleCreationHelper.create\lDebugStepIntoButton">
<polygon fill="white" stroke="black" points="1586.5,-73 1586.5,-103 1783.5,-103 1783.5,-73 1586.5,-73"/>
<text text-anchor="start" x="1594.5" y="-91" font-family="Helvetica,sans-Serif" font-size="10.00">slogo.UI.ModuleCreationHelper.create</text>
<text text-anchor="middle" x="1685" y="-80" font-family="Helvetica,sans-Serif" font-size="10.00">DebugStepIntoButton</text>
</a>
</g>
</g>
<!-- Node28&#45;&gt;Node29 -->
<g id="edge36" class="edge"><title>Node28&#45;&gt;Node29</title>
<path fill="none" stroke="midnightblue" d="M1555.89,-88C1566.04,-88 1576.26,-88 1586.27,-88"/>
<polygon fill="midnightblue" stroke="midnightblue" points="1555.78,-84.5001 1545.78,-88 1555.78,-91.5001 1555.78,-84.5001"/>
</g>
<!-- Node30 -->
<g id="node30" class="node"><title>Node30</title>
<g id="a_node30"><a xlink:href="../../db/d19/classslogo_1_1_u_i_1_1_module_creation_helper.html#a975af4ea47dc85df72215bdf1a0d20ce" target="_top" xlink:title="slogo.UI.ModuleCreationHelper.create\lDebugModules">
<polygon fill="white" stroke="black" points="1828.5,-62 1828.5,-92 2025.5,-92 2025.5,-62 1828.5,-62"/>
<text text-anchor="start" x="1836.5" y="-80" font-family="Helvetica,sans-Serif" font-size="10.00">slogo.UI.ModuleCreationHelper.create</text>
<text text-anchor="middle" x="1927" y="-69" font-family="Helvetica,sans-Serif" font-size="10.00">DebugModules</text>
</a>
</g>
</g>
<!-- Node29&#45;&gt;Node30 -->
<g id="edge37" class="edge"><title>Node29&#45;&gt;Node30</title>
<path fill="none" stroke="midnightblue" d="M1793.73,-83.0622C1805.3,-82.5319 1817.03,-81.9945 1828.47,-81.4702"/>
<polygon fill="midnightblue" stroke="midnightblue" points="1793.45,-79.5716 1783.62,-83.5259 1793.77,-86.5643 1793.45,-79.5716"/>
</g>
<!-- Node30&#45;&gt;Node11 -->
<g id="edge38" class="edge"><title>Node30&#45;&gt;Node11</title>
<path fill="none" stroke="midnightblue" d="M2035.59,-73.2158C2104.49,-73.6052 2195.06,-79.402 2272,-102 2314.96,-114.617 2359.6,-142.39 2384.97,-159.809"/>
<polygon fill="midnightblue" stroke="midnightblue" points="2035.6,-69.7159 2025.59,-73.1962 2035.58,-76.7159 2035.6,-69.7159"/>
</g>
<!-- Node32 -->
<g id="node32" class="node"><title>Node32</title>
<g id="a_node32"><a xlink:href="../../db/d19/classslogo_1_1_u_i_1_1_module_creation_helper.html#a0fed0bb32bf2643d6fd5c24d82e8e18e" target="_top" xlink:title="slogo.UI.ModuleCreationHelper.activate\lStepOverButton">
<polygon fill="white" stroke="black" points="1340.5,-24 1340.5,-54 1545.5,-54 1545.5,-24 1340.5,-24"/>
<text text-anchor="start" x="1348.5" y="-42" font-family="Helvetica,sans-Serif" font-size="10.00">slogo.UI.ModuleCreationHelper.activate</text>
<text text-anchor="middle" x="1443" y="-31" font-family="Helvetica,sans-Serif" font-size="10.00">StepOverButton</text>
</a>
</g>
</g>
<!-- Node31&#45;&gt;Node32 -->
<g id="edge40" class="edge"><title>Node31&#45;&gt;Node32</title>
<path fill="none" stroke="midnightblue" d="M1313.8,-42.5123C1322.56,-42.2724 1331.48,-42.028 1340.33,-41.7856"/>
<polygon fill="midnightblue" stroke="midnightblue" points="1313.51,-39.0187 1303.61,-42.7914 1313.71,-46.0161 1313.51,-39.0187"/>
</g>
<!-- Node33 -->
<g id="node33" class="node"><title>Node33</title>
<g id="a_node33"><a xlink:href="../../db/d19/classslogo_1_1_u_i_1_1_module_creation_helper.html#aa1e7dc2b509360583790fba0d3819c8d" target="_top" xlink:title="slogo.UI.ModuleCreationHelper.create\lDebugStepOverButton">
<polygon fill="white" stroke="black" points="1586.5,-24 1586.5,-54 1783.5,-54 1783.5,-24 1586.5,-24"/>
<text text-anchor="start" x="1594.5" y="-42" font-family="Helvetica,sans-Serif" font-size="10.00">slogo.UI.ModuleCreationHelper.create</text>
<text text-anchor="middle" x="1685" y="-31" font-family="Helvetica,sans-Serif" font-size="10.00">DebugStepOverButton</text>
</a>
</g>
</g>
<!-- Node32&#45;&gt;Node33 -->
<g id="edge41" class="edge"><title>Node32&#45;&gt;Node33</title>
<path fill="none" stroke="midnightblue" d="M1555.89,-39C1566.04,-39 1576.26,-39 1586.27,-39"/>
<polygon fill="midnightblue" stroke="midnightblue" points="1555.78,-35.5001 1545.78,-39 1555.78,-42.5001 1555.78,-35.5001"/>
</g>
<!-- Node33&#45;&gt;Node30 -->
<g id="edge42" class="edge"><title>Node33&#45;&gt;Node30</title>
<path fill="none" stroke="midnightblue" d="M1790.99,-55.6227C1804.31,-57.7329 1817.89,-59.8827 1831.05,-61.966"/>
<polygon fill="midnightblue" stroke="midnightblue" points="1791.28,-52.1256 1780.85,-54.0186 1790.18,-59.0395 1791.28,-52.1256"/>
</g>
<!-- Node34&#45;&gt;Node3 -->
<g id="edge44" class="edge"><title>Node34&#45;&gt;Node3</title>
<path fill="none" stroke="midnightblue" d="M357.758,-101.373C366.441,-100.249 375.197,-99.1143 383.744,-98.0073"/>
<polygon fill="midnightblue" stroke="midnightblue" points="357.082,-97.9315 347.615,-102.687 357.982,-104.874 357.082,-97.9315"/>
</g>
</g>
</svg>
        <g id="navigator" transform="translate(0 0)" fill="#404254">
                <rect fill="#f2f5e9" fill-opacity="0.5" stroke="#606060" stroke-width=".5" x="0" y="0" width="60" height="60"/>
                <use id="zoomplus" xlink:href="#zoomPlus" x="17" y="9" onmousedown="handleZoom(evt,'in')"/>
                <use id="zoomminus" xlink:href="#zoomMin" x="42" y="9" onmousedown="handleZoom(evt,'out')"/>
                <use id="reset" xlink:href="#resetDef" x="30" y="36" onmousedown="handleReset()"/>
                <g id="arrowUp" xlink:href="#dirArrow" transform="translate(30 24)" onmousedown="handlePan(0,-1)">
                  <use xlink:href="#rim" fill="#404040">
                        <set attributeName="fill" to="#808080" begin="arrowUp.mouseover" end="arrowUp.mouseout"/>
                  </use>
                  <path fill="none" stroke="white" stroke-width="1.5" d="M0,-3.0v7 M-2.5,-0.5L0,-3.0L2.5,-0.5"/>
                </g>
                <g id="arrowRight" xlink:href="#dirArrow" transform="rotate(90) translate(36 -43)" onmousedown="handlePan(1,0)">
                  <use xlink:href="#rim" fill="#404040">
                        <set attributeName="fill" to="#808080" begin="arrowRight.mouseover" end="arrowRight.mouseout"/>
                  </use>
                  <path fill="none" stroke="white" stroke-width="1.5" d="M0,-3.0v7 M-2.5,-0.5L0,-3.0L2.5,-0.5"/>
                </g>
                <g id="arrowDown" xlink:href="#dirArrow" transform="rotate(180) translate(-30 -48)" onmousedown="handlePan(0,1)">
                  <use xlink:href="#rim" fill="#404040">
                        <set attributeName="fill" to="#808080" begin="arrowDown.mouseover" end="arrowDown.mouseout"/>
                  </use>
                  <path fill="none" stroke="white" stroke-width="1.5" d="M0,-3.0v7 M-2.5,-0.5L0,-3.0L2.5,-0.5"/>
                </g>
                <g id="arrowLeft" xlink:href="#dirArrow" transform="rotate(270) translate(-36 17)" onmousedown="handlePan(-1,0)">
                  <use xlink:href="#rim" fill="#404040">
                        <set attributeName="fill" to="#808080" begin="arrowLeft.mouseover" end="arrowLeft.mouseout"/>
                  </use>
                  <path fill="none" stroke="white" stroke-width="1.5" d="M0,-3.0v7 M-2.5,-0.5L0,-3.0L2.5,-0.5"/>
                </g>
        </g>
        <svg viewBox="0 0 15 15" width="100%" height="30px" preserveAspectRatio="xMaxYMin meet">
         <g id="arrow_out" transform="scale(0.3 0.3)">
          <a xlink:href="interfaceslogo_1_1backend_1_1util_1_1_i_line_aa180a270cffb1f34de2d2cfb61f67be6_icgraph_org.svg" target="_base">
           <rect id="button" ry="5" rx="5" y="6" x="6" height="38" width="38"
                fill="#f2f5e9" fill-opacity="0.5" stroke="#606060" stroke-width="1.0"/>
           <path id="arrow"
             d="M 11.500037,31.436501 C 11.940474,20.09759 22.043105,11.32322 32.158766,21.979434 L 37.068811,17.246167 C 37.068811,17.246167 37.088388,32 37.088388,32 L 22.160133,31.978069 C 22.160133,31.978069 26.997745,27.140456 26.997745,27.140456 C 18.528582,18.264221 13.291696,25.230495 11.500037,31.436501 z"
             style="fill:#404040;"/>
          </a>
         </g>
        </svg>
</svg>
