<?xml version="1.0" encoding="UTF-8" standalone="no"?>
<!DOCTYPE svg PUBLIC "-//W3C//DTD SVG 1.1//EN"
 "http://www.w3.org/Graphics/SVG/1.1/DTD/svg11.dtd">
<!-- Generated by graphviz version 2.36.0 (20140111.2315)
 -->
<!-- Title: slogo.UI.TurtleImageSelector Pages: 1 -->
<svg width="318pt" height="96pt"
 viewBox="0.00 0.00 318.00 96.00" xmlns="http://www.w3.org/2000/svg" xmlns:xlink="http://www.w3.org/1999/xlink">
<g id="graph0" class="graph" transform="scale(1 1) rotate(0) translate(4 92)">
<title>slogo.UI.TurtleImageSelector</title>
<polygon fill="white" stroke="none" points="-4,4 -4,-92 314,-92 314,4 -4,4"/>
<!-- Node1 -->
<g id="node1" class="node"><title>Node1</title>
<polygon fill="#bfbfbf" stroke="black" points="54.5,-0.5 54.5,-19.5 207.5,-19.5 207.5,-0.5 54.5,-0.5"/>
<text text-anchor="middle" x="131" y="-7.5" font-family="Helvetica,sans-Serif" font-size="10.00">slogo.UI.TurtleImageSelector</text>
</g>
<!-- Node2 -->
<g id="node2" class="node"><title>Node2</title>
<polygon fill="white" stroke="#bfbfbf" points="-0.5,-68.5 -0.5,-87.5 40.5,-87.5 40.5,-68.5 -0.5,-68.5"/>
<text text-anchor="middle" x="20" y="-75.5" font-family="Helvetica,sans-Serif" font-size="10.00">VBox</text>
</g>
<!-- Node2&#45;&gt;Node1 -->
<g id="edge1" class="edge"><title>Node2&#45;&gt;Node1</title>
<path fill="none" stroke="#9a32cd" stroke-dasharray="5,2" d="M25.3065,-58.6526C28.2645,-51.3147 32.665,-43.3518 39,-38 49.1726,-29.4063 61.9717,-23.5469 74.7624,-19.5522"/>
<polygon fill="#9a32cd" stroke="#9a32cd" points="21.9414,-57.6772 22.0339,-68.2716 28.5684,-59.9319 21.9414,-57.6772"/>
<text text-anchor="middle" x="83" y="-41.5" font-family="Helvetica,sans-Serif" font-size="10.00"> mySelectorsVBox</text>
</g>
<!-- Node3 -->
<g id="node3" class="node"><title>Node3</title>
<polygon fill="white" stroke="#bfbfbf" points="89,-68.5 89,-87.5 173,-87.5 173,-68.5 89,-68.5"/>
<text text-anchor="middle" x="131" y="-75.5" font-family="Helvetica,sans-Serif" font-size="10.00">List&lt; String &gt;</text>
</g>
<!-- Node3&#45;&gt;Node1 -->
<g id="edge2" class="edge"><title>Node3&#45;&gt;Node1</title>
<path fill="none" stroke="#9a32cd" stroke-dasharray="5,2" d="M131,-58.0413C131,-45.4724 131,-29.5631 131,-19.8411"/>
<polygon fill="#9a32cd" stroke="#9a32cd" points="127.5,-58.3716 131,-68.3717 134.5,-58.3717 127.5,-58.3716"/>
<text text-anchor="middle" x="177.5" y="-41.5" font-family="Helvetica,sans-Serif" font-size="10.00"> myPossibleImages</text>
</g>
<!-- Node4 -->
<g id="node4" class="node"><title>Node4</title>
<polygon fill="white" stroke="#bfbfbf" points="191,-68.5 191,-87.5 311,-87.5 311,-68.5 191,-68.5"/>
<text text-anchor="middle" x="251" y="-75.5" font-family="Helvetica,sans-Serif" font-size="10.00">ComboBox&lt; String &gt;</text>
</g>
<!-- Node4&#45;&gt;Node1 -->
<g id="edge3" class="edge"><title>Node4&#45;&gt;Node1</title>
<path fill="none" stroke="#9a32cd" stroke-dasharray="5,2" d="M243.921,-58.8266C240.2,-51.4052 234.944,-43.331 228,-38 216.769,-29.378 202.934,-23.509 189.267,-19.5142"/>
<polygon fill="#9a32cd" stroke="#9a32cd" points="240.826,-60.4824 248.06,-68.2232 247.232,-57.6608 240.826,-60.4824"/>
<text text-anchor="middle" x="268" y="-41.5" font-family="Helvetica,sans-Serif" font-size="10.00"> mySelector</text>
</g>
</g>
</svg>
