<?xml version="1.0" encoding="UTF-8" standalone="no"?>
<!DOCTYPE svg PUBLIC "-//W3C//DTD SVG 1.1//EN"
 "http://www.w3.org/Graphics/SVG/1.1/DTD/svg11.dtd">
<!-- Generated by graphviz version 2.36.0 (20140111.2315)
 -->
<!-- Title: slogo.UI.PathColorSelector Pages: 1 -->
<svg width="151pt" height="96pt"
 viewBox="0.00 0.00 151.00 96.00" xmlns="http://www.w3.org/2000/svg" xmlns:xlink="http://www.w3.org/1999/xlink">
<g id="graph0" class="graph" transform="scale(1 1) rotate(0) translate(4 92)">
<title>slogo.UI.PathColorSelector</title>
<polygon fill="white" stroke="none" points="-4,4 -4,-92 147,-92 147,4 -4,4"/>
<!-- Node1 -->
<g id="node1" class="node"><title>Node1</title>
<polygon fill="#bfbfbf" stroke="black" points="-0.5,-0.5 -0.5,-19.5 142.5,-19.5 142.5,-0.5 -0.5,-0.5"/>
<text text-anchor="middle" x="71" y="-7.5" font-family="Helvetica,sans-Serif" font-size="10.00">slogo.UI.PathColorSelector</text>
</g>
<!-- Node2 -->
<g id="node2" class="node"><title>Node2</title>
<polygon fill="white" stroke="#bfbfbf" points="13.5,-68.5 13.5,-87.5 54.5,-87.5 54.5,-68.5 13.5,-68.5"/>
<text text-anchor="middle" x="34" y="-75.5" font-family="Helvetica,sans-Serif" font-size="10.00">VBox</text>
</g>
<!-- Node2&#45;&gt;Node1 -->
<g id="edge1" class="edge"><title>Node2&#45;&gt;Node1</title>
<path fill="none" stroke="#9a32cd" stroke-dasharray="5,2" d="M36.0913,-58.1816C37.4026,-51.498 39.5346,-44.1205 43,-38 47.0592,-30.8307 53.6086,-24.3626 59.3528,-19.5557"/>
<polygon fill="#9a32cd" stroke="#9a32cd" points="32.5763,-58.0244 34.5688,-68.4302 39.5003,-59.0531 32.5763,-58.0244"/>
<text text-anchor="middle" x="64.5" y="-41.5" font-family="Helvetica,sans-Serif" font-size="10.00"> myVbox</text>
</g>
<!-- Node3 -->
<g id="node3" class="node"><title>Node3</title>
<polygon fill="white" stroke="#bfbfbf" points="73,-68.5 73,-87.5 143,-87.5 143,-68.5 73,-68.5"/>
<text text-anchor="middle" x="108" y="-75.5" font-family="Helvetica,sans-Serif" font-size="10.00">ColorPicker</text>
</g>
<!-- Node3&#45;&gt;Node1 -->
<g id="edge2" class="edge"><title>Node3&#45;&gt;Node1</title>
<path fill="none" stroke="#9a32cd" stroke-dasharray="5,2" d="M98.2247,-59.563C91.0593,-46.7815 81.629,-29.9599 75.9564,-19.8411"/>
<polygon fill="#9a32cd" stroke="#9a32cd" points="95.2198,-61.3604 103.163,-68.3717 101.326,-57.9373 95.2198,-61.3604"/>
<text text-anchor="middle" x="118" y="-41.5" font-family="Helvetica,sans-Serif" font-size="10.00"> pathColor</text>
</g>
</g>
</svg>
