<?xml version="1.0" encoding="UTF-8" standalone="no"?>
<!DOCTYPE svg PUBLIC "-//W3C//DTD SVG 1.1//EN"
 "http://www.w3.org/Graphics/SVG/1.1/DTD/svg11.dtd">
<!-- Generated by graphviz version 2.36.0 (20140111.2315)
 -->
<!-- Title: slogo.backend.impl.Backend.Backend Pages: 1 -->
<svg width="822pt" height="136pt"
 viewBox="0.00 0.00 822.00 136.00" xmlns="http://www.w3.org/2000/svg" xmlns:xlink="http://www.w3.org/1999/xlink">
<g id="graph0" class="graph" transform="scale(1 1) rotate(0) translate(4 132)">
<title>slogo.backend.impl.Backend.Backend</title>
<polygon fill="white" stroke="none" points="-4,4 -4,-132 818,-132 818,4 -4,4"/>
<!-- Node1 -->
<g id="node1" class="node"><title>Node1</title>
<polygon fill="#bfbfbf" stroke="black" points="0,-49 0,-79 156,-79 156,-49 0,-49"/>
<text text-anchor="start" x="8" y="-67" font-family="Helvetica,sans-Serif" font-size="10.00">slogo.backend.impl.Backend.</text>
<text text-anchor="middle" x="78" y="-56" font-family="Helvetica,sans-Serif" font-size="10.00">Backend</text>
</g>
<!-- Node2 -->
<g id="node2" class="node"><title>Node2</title>
<g id="a_node2"><a xlink:href="../../de/db9/classslogo_1_1backend_1_1impl_1_1util_1_1_turtle_status_1_1_builder.html#a83f77fa599a5580f0d287846f67a4a10" target="_top" xlink:title="slogo.backend.impl.util.\lTurtleStatus.Builder.build">
<polygon fill="white" stroke="black" points="226,-98 226,-128 360,-128 360,-98 226,-98"/>
<text text-anchor="start" x="234" y="-116" font-family="Helvetica,sans-Serif" font-size="10.00">slogo.backend.impl.util.</text>
<text text-anchor="middle" x="293" y="-105" font-family="Helvetica,sans-Serif" font-size="10.00">TurtleStatus.Builder.build</text>
</a>
</g>
</g>
<!-- Node1&#45;&gt;Node2 -->
<g id="edge1" class="edge"><title>Node1&#45;&gt;Node2</title>
<path fill="none" stroke="midnightblue" d="M144.355,-79.0346C167.253,-84.3024 193.151,-90.2601 216.791,-95.6984"/>
<polygon fill="midnightblue" stroke="midnightblue" points="216.239,-99.1627 226.769,-97.9938 217.808,-92.3409 216.239,-99.1627"/>
</g>
<!-- Node4 -->
<g id="node4" class="node"><title>Node4</title>
<g id="a_node4"><a xlink:href="../../da/da1/classslogo_1_1backend_1_1impl_1_1_backend.html#a6603085f0783ae07b5b45280f27e7386" target="_top" xlink:title="slogo.backend.impl.Backend.grammar\lRules">
<polygon fill="white" stroke="black" points="192.5,-49 192.5,-79 393.5,-79 393.5,-49 192.5,-49"/>
<text text-anchor="start" x="200.5" y="-67" font-family="Helvetica,sans-Serif" font-size="10.00">slogo.backend.impl.Backend.grammar</text>
<text text-anchor="middle" x="293" y="-56" font-family="Helvetica,sans-Serif" font-size="10.00">Rules</text>
</a>
</g>
</g>
<!-- Node1&#45;&gt;Node4 -->
<g id="edge3" class="edge"><title>Node1&#45;&gt;Node4</title>
<path fill="none" stroke="midnightblue" d="M156.199,-64C164.763,-64 173.601,-64 182.466,-64"/>
<polygon fill="midnightblue" stroke="midnightblue" points="182.475,-67.5001 192.475,-64 182.475,-60.5001 182.475,-67.5001"/>
</g>
<!-- Node5 -->
<g id="node5" class="node"><title>Node5</title>
<g id="a_node5"><a xlink:href="../../da/da1/classslogo_1_1backend_1_1impl_1_1_backend.html#a57e50288932944f6885af53132589ed7" target="_top" xlink:title="slogo.backend.impl.Backend.token\lRules">
<polygon fill="white" stroke="black" points="201.5,-0 201.5,-30 384.5,-30 384.5,-0 201.5,-0"/>
<text text-anchor="start" x="209.5" y="-18" font-family="Helvetica,sans-Serif" font-size="10.00">slogo.backend.impl.Backend.token</text>
<text text-anchor="middle" x="293" y="-7" font-family="Helvetica,sans-Serif" font-size="10.00">Rules</text>
</a>
</g>
</g>
<!-- Node1&#45;&gt;Node5 -->
<g id="edge4" class="edge"><title>Node1&#45;&gt;Node5</title>
<path fill="none" stroke="midnightblue" d="M144.355,-48.9654C167.253,-43.6976 193.151,-37.7399 216.791,-32.3016"/>
<polygon fill="midnightblue" stroke="midnightblue" points="217.808,-35.6591 226.769,-30.0062 216.239,-28.8373 217.808,-35.6591"/>
</g>
<!-- Node3 -->
<g id="node3" class="node"><title>Node3</title>
<g id="a_node3"><a xlink:href="../../d0/d4d/classslogo_1_1backend_1_1impl_1_1util_1_1_turtle_status.html#a44b9c5aa3d271e66ff5979ec133fea38" target="_top" xlink:title="slogo.backend.impl.util.\lTurtleStatus.TurtleStatus">
<polygon fill="white" stroke="black" points="450,-98 450,-128 584,-128 584,-98 450,-98"/>
<text text-anchor="start" x="458" y="-116" font-family="Helvetica,sans-Serif" font-size="10.00">slogo.backend.impl.util.</text>
<text text-anchor="middle" x="517" y="-105" font-family="Helvetica,sans-Serif" font-size="10.00">TurtleStatus.TurtleStatus</text>
</a>
</g>
</g>
<!-- Node2&#45;&gt;Node3 -->
<g id="edge2" class="edge"><title>Node2&#45;&gt;Node3</title>
<path fill="none" stroke="midnightblue" d="M360.006,-113C385.055,-113 413.784,-113 439.706,-113"/>
<polygon fill="midnightblue" stroke="midnightblue" points="439.865,-116.5 449.865,-113 439.865,-109.5 439.865,-116.5"/>
</g>
<!-- Node6 -->
<g id="node6" class="node"><title>Node6</title>
<g id="a_node6"><a xlink:href="../../d1/d5b/classslogo_1_1backend_1_1impl_1_1tokenization_1_1_token_rule_1_1_builder.html#aab124b94d44e749bd75aee3502356c7e" target="_top" xlink:title="slogo.backend.impl.tokenization.\lTokenRule.Builder.build">
<polygon fill="white" stroke="black" points="430.5,-0 430.5,-30 603.5,-30 603.5,-0 430.5,-0"/>
<text text-anchor="start" x="438.5" y="-18" font-family="Helvetica,sans-Serif" font-size="10.00">slogo.backend.impl.tokenization.</text>
<text text-anchor="middle" x="517" y="-7" font-family="Helvetica,sans-Serif" font-size="10.00">TokenRule.Builder.build</text>
</a>
</g>
</g>
<!-- Node5&#45;&gt;Node6 -->
<g id="edge5" class="edge"><title>Node5&#45;&gt;Node6</title>
<path fill="none" stroke="midnightblue" d="M384.616,-15C396.3,-15 408.296,-15 420.062,-15"/>
<polygon fill="midnightblue" stroke="midnightblue" points="420.329,-18.5001 430.329,-15 420.329,-11.5001 420.329,-18.5001"/>
</g>
<!-- Node7 -->
<g id="node7" class="node"><title>Node7</title>
<g id="a_node7"><a xlink:href="../../d8/dc5/classslogo_1_1backend_1_1impl_1_1tokenization_1_1_token_rule.html#ad2616f44a4694e9b04add930a4e6f017" target="_top" xlink:title="slogo.backend.impl.tokenization.\lTokenRule.TokenRule">
<polygon fill="white" stroke="black" points="640.5,-0 640.5,-30 813.5,-30 813.5,-0 640.5,-0"/>
<text text-anchor="start" x="648.5" y="-18" font-family="Helvetica,sans-Serif" font-size="10.00">slogo.backend.impl.tokenization.</text>
<text text-anchor="middle" x="727" y="-7" font-family="Helvetica,sans-Serif" font-size="10.00">TokenRule.TokenRule</text>
</a>
</g>
</g>
<!-- Node6&#45;&gt;Node7 -->
<g id="edge6" class="edge"><title>Node6&#45;&gt;Node7</title>
<path fill="none" stroke="midnightblue" d="M603.502,-15C612.376,-15 621.435,-15 630.411,-15"/>
<polygon fill="midnightblue" stroke="midnightblue" points="630.494,-18.5001 640.494,-15 630.494,-11.5001 630.494,-18.5001"/>
</g>
</g>
</svg>
