<?xml version="1.0" encoding="UTF-8" standalone="no"?>
<!DOCTYPE svg PUBLIC "-//W3C//DTD SVG 1.1//EN"
 "http://www.w3.org/Graphics/SVG/1.1/DTD/svg11.dtd">
<!-- Generated by graphviz version 2.36.0 (20140111.2315)
 -->
<!-- Title: slogo.backend.impl.Backend.execute Pages: 1 -->
<!--zoomable 283 -->
<svg id="main" version="1.1" xmlns="http://www.w3.org/2000/svg" xmlns:xlink="http://www.w3.org/1999/xlink" xml:space="preserve" onload="init(evt)">
<style type="text/css"><![CDATA[
.edge:hover path { stroke: red; }
.edge:hover polygon { stroke: red; fill: red; }
]]></style>
<script type="text/javascript"><![CDATA[
var edges = document.getElementsByTagName('g');
if (edges && edges.length) {
  for (var i=0;i<edges.length;i++) {
    if (edges[i].id.substr(0,4)=='edge') {
      edges[i].setAttribute('class','edge');
    }
  }
}
]]></script>
        <defs>
                <circle id="rim" cx="0" cy="0" r="7"/>
                <circle id="rim2" cx="0" cy="0" r="3.5"/>
                <g id="zoomPlus">
                        <use xlink:href="#rim" fill="#404040">
                                <set attributeName="fill" to="#808080" begin="zoomplus.mouseover" end="zoomplus.mouseout"/>
                        </use>
                        <path d="M-4,0h8M0,-4v8" fill="none" stroke="white" stroke-width="1.5" pointer-events="none"/>
                </g>
                <g id="zoomMin">
                        <use xlink:href="#rim" fill="#404040">
                                <set attributeName="fill" to="#808080" begin="zoomminus.mouseover" end="zoomminus.mouseout"/>
                        </use>
                        <path d="M-4,0h8" fill="none" stroke="white" stroke-width="1.5" pointer-events="none"/>
                </g>
                <g id="dirArrow">
                        <path fill="none" stroke="white" stroke-width="1.5" d="M0,-3.0v7 M-2.5,-0.5L0,-3.0L2.5,-0.5"/>
                </g>
               <g id="resetDef">
                       <use xlink:href="#rim2" fill="#404040">
                               <set attributeName="fill" to="#808080" begin="reset.mouseover" end="reset.mouseout"/>
                       </use>
               </g>
        </defs>

<script type="text/javascript">
var viewWidth = 1146;
var viewHeight = 283;
var sectionId = 'dynsection-3';
</script>
<script xlink:href="../../svgpan.js"/>
<svg id="graph" class="graph">
<g id="viewport">
<title>slogo.backend.impl.Backend.execute</title>
<polygon fill="white" stroke="none" points="-4,4 -4,-279 1142,-279 1142,4 -4,4"/>
<!-- Node1 -->
<g id="node1" class="node"><title>Node1</title>
<polygon fill="#bfbfbf" stroke="black" points="0,-127.5 0,-146.5 194,-146.5 194,-127.5 0,-127.5"/>
<text text-anchor="middle" x="97" y="-134.5" font-family="Helvetica,sans-Serif" font-size="10.00">slogo.backend.impl.Backend.execute</text>
</g>
<!-- Node2 -->
<g id="node2" class="node"><title>Node2</title>
<g id="a_node2"><a xlink:href="../../dd/d4b/classslogo_1_1backend_1_1impl_1_1evaluation_1_1_evaluator.html#a6552d5f695507b206d457087cc2c4118" target="_top" xlink:title="slogo.backend.impl.evaluation.\lEvaluator.evaluate">
<polygon fill="white" stroke="black" points="235,-220 235,-250 399,-250 399,-220 235,-220"/>
<text text-anchor="start" x="243" y="-238" font-family="Helvetica,sans-Serif" font-size="10.00">slogo.backend.impl.evaluation.</text>
<text text-anchor="middle" x="317" y="-227" font-family="Helvetica,sans-Serif" font-size="10.00">Evaluator.evaluate</text>
</a>
</g>
</g>
<!-- Node1&#45;&gt;Node2 -->
<g id="edge1" class="edge"><title>Node1&#45;&gt;Node2</title>
<path fill="none" stroke="midnightblue" d="M119.3,-146.575C154.882,-162.571 227.068,-195.021 273.398,-215.849"/>
<polygon fill="midnightblue" stroke="midnightblue" points="272.03,-219.071 282.585,-219.979 274.9,-212.686 272.03,-219.071"/>
</g>
<!-- Node4 -->
<g id="node4" class="node"><title>Node4</title>
<g id="a_node4"><a xlink:href="../../d3/df5/classslogo_1_1backend_1_1impl_1_1parsing_1_1_parser.html#a388145ba8a86a6e54edecca6832f3514" target="_top" xlink:title="slogo.backend.impl.parsing.\lParser.parse">
<polygon fill="white" stroke="black" points="242,-122 242,-152 392,-152 392,-122 242,-122"/>
<text text-anchor="start" x="250" y="-140" font-family="Helvetica,sans-Serif" font-size="10.00">slogo.backend.impl.parsing.</text>
<text text-anchor="middle" x="317" y="-129" font-family="Helvetica,sans-Serif" font-size="10.00">Parser.parse</text>
</a>
</g>
</g>
<!-- Node1&#45;&gt;Node4 -->
<g id="edge3" class="edge"><title>Node1&#45;&gt;Node4</title>
<path fill="none" stroke="midnightblue" d="M194.253,-137C206.728,-137 219.429,-137 231.691,-137"/>
<polygon fill="midnightblue" stroke="midnightblue" points="231.872,-140.5 241.872,-137 231.872,-133.5 231.872,-140.5"/>
</g>
<!-- Node15 -->
<g id="node15" class="node"><title>Node15</title>
<g id="a_node15"><a xlink:href="../../d8/db6/classslogo_1_1backend_1_1impl_1_1tokenization_1_1_tokenizer.html#a13ff2400a05bbe19ed9d4e9667c1c1b3" target="_top" xlink:title="slogo.backend.impl.tokenization.\lTokenizer.tokenize">
<polygon fill="white" stroke="black" points="230.5,-49 230.5,-79 403.5,-79 403.5,-49 230.5,-49"/>
<text text-anchor="start" x="238.5" y="-67" font-family="Helvetica,sans-Serif" font-size="10.00">slogo.backend.impl.tokenization.</text>
<text text-anchor="middle" x="317" y="-56" font-family="Helvetica,sans-Serif" font-size="10.00">Tokenizer.tokenize</text>
</a>
</g>
</g>
<!-- Node1&#45;&gt;Node15 -->
<g id="edge14" class="edge"><title>Node1&#45;&gt;Node15</title>
<path fill="none" stroke="midnightblue" d="M126.5,-127.457C160.549,-116.055 218.277,-96.7239 261.09,-82.3872"/>
<polygon fill="midnightblue" stroke="midnightblue" points="262.434,-85.6282 270.805,-79.134 260.212,-78.9905 262.434,-85.6282"/>
</g>
<!-- Node3 -->
<g id="node3" class="node"><title>Node3</title>
<g id="a_node3"><a xlink:href="../../d4/dcd/interfaceslogo_1_1backend_1_1parsing_1_1_i_syntax_node.html#ae9c7f128dc4e816a6a383fe8feb087e4" target="_top" xlink:title="slogo.backend.parsing.ISyntax\lNode.children">
<polygon fill="white" stroke="black" points="452,-245 452,-275 614,-275 614,-245 452,-245"/>
<text text-anchor="start" x="460" y="-263" font-family="Helvetica,sans-Serif" font-size="10.00">slogo.backend.parsing.ISyntax</text>
<text text-anchor="middle" x="533" y="-252" font-family="Helvetica,sans-Serif" font-size="10.00">Node.children</text>
</a>
</g>
</g>
<!-- Node2&#45;&gt;Node3 -->
<g id="edge2" class="edge"><title>Node2&#45;&gt;Node3</title>
<path fill="none" stroke="midnightblue" d="M399.209,-244.487C413.101,-246.11 427.609,-247.805 441.719,-249.453"/>
<polygon fill="midnightblue" stroke="midnightblue" points="441.57,-252.96 451.909,-250.644 442.383,-246.007 441.57,-252.96"/>
</g>
<!-- Node5 -->
<g id="node5" class="node"><title>Node5</title>
<g id="a_node5"><a xlink:href="../../d3/df5/classslogo_1_1backend_1_1impl_1_1parsing_1_1_parser.html#aa3bd41bdfb139d987cfc3d7745492650" target="_top" xlink:title="slogo.backend.impl.parsing.\lParser.tokensToNodes">
<polygon fill="white" stroke="black" points="458,-196 458,-226 608,-226 608,-196 458,-196"/>
<text text-anchor="start" x="466" y="-214" font-family="Helvetica,sans-Serif" font-size="10.00">slogo.backend.impl.parsing.</text>
<text text-anchor="middle" x="533" y="-203" font-family="Helvetica,sans-Serif" font-size="10.00">Parser.tokensToNodes</text>
</a>
</g>
</g>
<!-- Node4&#45;&gt;Node5 -->
<g id="edge4" class="edge"><title>Node4&#45;&gt;Node5</title>
<path fill="none" stroke="midnightblue" d="M352.307,-152.027C376.538,-162.332 409.92,-175.911 440,-186 447.282,-188.443 454.947,-190.821 462.617,-193.079"/>
<polygon fill="midnightblue" stroke="midnightblue" points="461.729,-196.465 472.307,-195.869 463.666,-189.738 461.729,-196.465"/>
</g>
<!-- Node10 -->
<g id="node10" class="node"><title>Node10</title>
<g id="a_node10"><a xlink:href="../../d3/df5/classslogo_1_1backend_1_1impl_1_1parsing_1_1_parser.html#a8c294c57ebafd58e56c3aa146e488967" target="_top" xlink:title="slogo.backend.impl.parsing.\lParser.hasProduction">
<polygon fill="white" stroke="black" points="458,-147 458,-177 608,-177 608,-147 458,-147"/>
<text text-anchor="start" x="466" y="-165" font-family="Helvetica,sans-Serif" font-size="10.00">slogo.backend.impl.parsing.</text>
<text text-anchor="middle" x="533" y="-154" font-family="Helvetica,sans-Serif" font-size="10.00">Parser.hasProduction</text>
</a>
</g>
</g>
<!-- Node4&#45;&gt;Node10 -->
<g id="edge9" class="edge"><title>Node4&#45;&gt;Node10</title>
<path fill="none" stroke="midnightblue" d="M392.246,-145.674C410.173,-147.768 429.457,-150.021 447.804,-152.164"/>
<polygon fill="midnightblue" stroke="midnightblue" points="447.546,-155.658 457.885,-153.342 448.359,-148.705 447.546,-155.658"/>
</g>
<!-- Node11 -->
<g id="node11" class="node"><title>Node11</title>
<g id="a_node11"><a xlink:href="../../d3/df5/classslogo_1_1backend_1_1impl_1_1parsing_1_1_parser.html#a45c72cbdffe8b984e4e15769eeb9b437" target="_top" xlink:title="slogo.backend.impl.parsing.\lParser.reduce">
<polygon fill="white" stroke="black" points="458,-98 458,-128 608,-128 608,-98 458,-98"/>
<text text-anchor="start" x="466" y="-116" font-family="Helvetica,sans-Serif" font-size="10.00">slogo.backend.impl.parsing.</text>
<text text-anchor="middle" x="533" y="-105" font-family="Helvetica,sans-Serif" font-size="10.00">Parser.reduce</text>
</a>
</g>
</g>
<!-- Node4&#45;&gt;Node11 -->
<g id="edge10" class="edge"><title>Node4&#45;&gt;Node11</title>
<path fill="none" stroke="midnightblue" d="M392.246,-128.673C410.173,-126.663 429.457,-124.5 447.804,-122.443"/>
<polygon fill="midnightblue" stroke="midnightblue" points="448.337,-125.905 457.885,-121.312 447.557,-118.948 448.337,-125.905"/>
</g>
<!-- Node14 -->
<g id="node14" class="node"><title>Node14</title>
<g id="a_node14"><a xlink:href="../../d3/df5/classslogo_1_1backend_1_1impl_1_1parsing_1_1_parser.html#a9952d00b4efaccfd87c5bf720cd8f5b5" target="_top" xlink:title="slogo.backend.impl.parsing.\lParser.generateParseErrorMessage">
<polygon fill="white" stroke="black" points="440.5,-49 440.5,-79 625.5,-79 625.5,-49 440.5,-49"/>
<text text-anchor="start" x="448.5" y="-67" font-family="Helvetica,sans-Serif" font-size="10.00">slogo.backend.impl.parsing.</text>
<text text-anchor="middle" x="533" y="-56" font-family="Helvetica,sans-Serif" font-size="10.00">Parser.generateParseErrorMessage</text>
</a>
</g>
</g>
<!-- Node4&#45;&gt;Node14 -->
<g id="edge13" class="edge"><title>Node4&#45;&gt;Node14</title>
<path fill="none" stroke="midnightblue" d="M352.014,-121.989C376.251,-111.626 409.761,-97.9723 440,-88 446.425,-85.8812 453.151,-83.8257 459.916,-81.8675"/>
<polygon fill="midnightblue" stroke="midnightblue" points="461.152,-85.1555 469.826,-79.0722 459.252,-78.4184 461.152,-85.1555"/>
</g>
<!-- Node6 -->
<g id="node6" class="node"><title>Node6</title>
<g id="a_node6"><a xlink:href="../../d9/db8/classslogo_1_1backend_1_1impl_1_1evaluation_1_1commands_1_1_operation.html#a99c335d45415a08baca52ac1cbfb5108" target="_top" xlink:title="slogo.backend.impl.evaluation.commands.\lOperation.type">
<polygon fill="white" stroke="black" points="662.5,-245 662.5,-275 883.5,-275 883.5,-245 662.5,-245"/>
<text text-anchor="start" x="670.5" y="-263" font-family="Helvetica,sans-Serif" font-size="10.00">slogo.backend.impl.evaluation.commands.</text>
<text text-anchor="middle" x="773" y="-252" font-family="Helvetica,sans-Serif" font-size="10.00">Operation.type</text>
</a>
</g>
</g>
<!-- Node5&#45;&gt;Node6 -->
<g id="edge5" class="edge"><title>Node5&#45;&gt;Node6</title>
<path fill="none" stroke="midnightblue" d="M607.025,-226.035C632.954,-231.373 662.325,-237.42 689.024,-242.917"/>
<polygon fill="midnightblue" stroke="midnightblue" points="688.612,-246.405 699.113,-244.994 690.024,-239.549 688.612,-246.405"/>
</g>
<!-- Node7 -->
<g id="node7" class="node"><title>Node7</title>
<g id="a_node7"><a xlink:href="../../d3/df5/classslogo_1_1backend_1_1impl_1_1parsing_1_1_parser.html#aa4ac9c44dc526c6248a0ef797280ffcc" target="_top" xlink:title="slogo.backend.impl.parsing.\lParser.dereference">
<polygon fill="white" stroke="black" points="698,-196 698,-226 848,-226 848,-196 698,-196"/>
<text text-anchor="start" x="706" y="-214" font-family="Helvetica,sans-Serif" font-size="10.00">slogo.backend.impl.parsing.</text>
<text text-anchor="middle" x="773" y="-203" font-family="Helvetica,sans-Serif" font-size="10.00">Parser.dereference</text>
</a>
</g>
</g>
<!-- Node5&#45;&gt;Node7 -->
<g id="edge6" class="edge"><title>Node5&#45;&gt;Node7</title>
<path fill="none" stroke="midnightblue" d="M608,-211C633.177,-211 661.506,-211 687.446,-211"/>
<polygon fill="midnightblue" stroke="midnightblue" points="687.636,-214.5 697.636,-211 687.636,-207.5 687.636,-214.5"/>
</g>
<!-- Node9 -->
<g id="node9" class="node"><title>Node9</title>
<g id="a_node9"><a xlink:href="../../de/dce/interfaceslogo_1_1backend_1_1evaluation_1_1_i_operation_factory.html#a484e02a0983f8f810ce40e7fe71f38fd" target="_top" xlink:title="slogo.backend.evaluation.\lIOperationFactory.makeElement">
<polygon fill="white" stroke="black" points="688.5,-147 688.5,-177 857.5,-177 857.5,-147 688.5,-147"/>
<text text-anchor="start" x="696.5" y="-165" font-family="Helvetica,sans-Serif" font-size="10.00">slogo.backend.evaluation.</text>
<text text-anchor="middle" x="773" y="-154" font-family="Helvetica,sans-Serif" font-size="10.00">IOperationFactory.makeElement</text>
</a>
</g>
</g>
<!-- Node5&#45;&gt;Node9 -->
<g id="edge8" class="edge"><title>Node5&#45;&gt;Node9</title>
<path fill="none" stroke="midnightblue" d="M607.025,-195.965C632.954,-190.627 662.325,-184.58 689.024,-179.083"/>
<polygon fill="midnightblue" stroke="midnightblue" points="690.024,-182.451 699.113,-177.006 688.612,-175.595 690.024,-182.451"/>
</g>
<!-- Node8 -->
<g id="node8" class="node"><title>Node8</title>
<g id="a_node8"><a xlink:href="../../d5/da1/classslogo_1_1backend_1_1impl_1_1_languages.html#a8f179469305c23fe460321ba214b4071" target="_top" xlink:title="slogo.backend.impl.Languages.returnMap">
<polygon fill="white" stroke="black" points="920.5,-201.5 920.5,-220.5 1137.5,-220.5 1137.5,-201.5 920.5,-201.5"/>
<text text-anchor="middle" x="1029" y="-208.5" font-family="Helvetica,sans-Serif" font-size="10.00">slogo.backend.impl.Languages.returnMap</text>
</a>
</g>
</g>
<!-- Node7&#45;&gt;Node8 -->
<g id="edge7" class="edge"><title>Node7&#45;&gt;Node8</title>
<path fill="none" stroke="midnightblue" d="M848.15,-211C867.617,-211 889.101,-211 910.241,-211"/>
<polygon fill="midnightblue" stroke="midnightblue" points="910.25,-214.5 920.249,-211 910.249,-207.5 910.25,-214.5"/>
</g>
<!-- Node12 -->
<g id="node12" class="node"><title>Node12</title>
<g id="a_node12"><a xlink:href="../../d3/df5/classslogo_1_1backend_1_1impl_1_1parsing_1_1_parser.html#a248104544de69bf5fa16e77f0cffa1b8" target="_top" xlink:title="slogo.backend.impl.parsing.\lParser.createNestedNode">
<polygon fill="white" stroke="black" points="698,-98 698,-128 848,-128 848,-98 698,-98"/>
<text text-anchor="start" x="706" y="-116" font-family="Helvetica,sans-Serif" font-size="10.00">slogo.backend.impl.parsing.</text>
<text text-anchor="middle" x="773" y="-105" font-family="Helvetica,sans-Serif" font-size="10.00">Parser.createNestedNode</text>
</a>
</g>
</g>
<!-- Node11&#45;&gt;Node12 -->
<g id="edge11" class="edge"><title>Node11&#45;&gt;Node12</title>
<path fill="none" stroke="midnightblue" d="M608,-113C633.177,-113 661.506,-113 687.446,-113"/>
<polygon fill="midnightblue" stroke="midnightblue" points="687.636,-116.5 697.636,-113 687.636,-109.5 687.636,-116.5"/>
</g>
<!-- Node13 -->
<g id="node13" class="node"><title>Node13</title>
<g id="a_node13"><a xlink:href="../../d4/dcd/interfaceslogo_1_1backend_1_1parsing_1_1_i_syntax_node.html#a8a5430b12768100c00442d4057a3cccf" target="_top" xlink:title="slogo.backend.parsing.ISyntax\lNode.setChildren">
<polygon fill="white" stroke="black" points="948,-98 948,-128 1110,-128 1110,-98 948,-98"/>
<text text-anchor="start" x="956" y="-116" font-family="Helvetica,sans-Serif" font-size="10.00">slogo.backend.parsing.ISyntax</text>
<text text-anchor="middle" x="1029" y="-105" font-family="Helvetica,sans-Serif" font-size="10.00">Node.setChildren</text>
</a>
</g>
</g>
<!-- Node12&#45;&gt;Node13 -->
<g id="edge12" class="edge"><title>Node12&#45;&gt;Node13</title>
<path fill="none" stroke="midnightblue" d="M848.15,-113C876.181,-113 908.392,-113 937.74,-113"/>
<polygon fill="midnightblue" stroke="midnightblue" points="937.99,-116.5 947.99,-113 937.99,-109.5 937.99,-116.5"/>
</g>
<!-- Node16 -->
<g id="node16" class="node"><title>Node16</title>
<g id="a_node16"><a xlink:href="../../de/d95/interfaceslogo_1_1backend_1_1tokenization_1_1_i_token.html#a29aa24424e142df621d986639256b0c2" target="_top" xlink:title="slogo.backend.tokenization.\lIToken.text">
<polygon fill="white" stroke="black" points="458,-0 458,-30 608,-30 608,-0 458,-0"/>
<text text-anchor="start" x="466" y="-18" font-family="Helvetica,sans-Serif" font-size="10.00">slogo.backend.tokenization.</text>
<text text-anchor="middle" x="533" y="-7" font-family="Helvetica,sans-Serif" font-size="10.00">IToken.text</text>
</a>
</g>
</g>
<!-- Node15&#45;&gt;Node16 -->
<g id="edge15" class="edge"><title>Node15&#45;&gt;Node16</title>
<path fill="none" stroke="midnightblue" d="M383.661,-48.9654C406.668,-43.6976 432.687,-37.7399 456.438,-32.3016"/>
<polygon fill="midnightblue" stroke="midnightblue" points="457.496,-35.6499 466.463,-30.0062 455.934,-28.8265 457.496,-35.6499"/>
</g>
</g>
</svg>
        <g id="navigator" transform="translate(0 0)" fill="#404254">
                <rect fill="#f2f5e9" fill-opacity="0.5" stroke="#606060" stroke-width=".5" x="0" y="0" width="60" height="60"/>
                <use id="zoomplus" xlink:href="#zoomPlus" x="17" y="9" onmousedown="handleZoom(evt,'in')"/>
                <use id="zoomminus" xlink:href="#zoomMin" x="42" y="9" onmousedown="handleZoom(evt,'out')"/>
                <use id="reset" xlink:href="#resetDef" x="30" y="36" onmousedown="handleReset()"/>
                <g id="arrowUp" xlink:href="#dirArrow" transform="translate(30 24)" onmousedown="handlePan(0,-1)">
                  <use xlink:href="#rim" fill="#404040">
                        <set attributeName="fill" to="#808080" begin="arrowUp.mouseover" end="arrowUp.mouseout"/>
                  </use>
                  <path fill="none" stroke="white" stroke-width="1.5" d="M0,-3.0v7 M-2.5,-0.5L0,-3.0L2.5,-0.5"/>
                </g>
                <g id="arrowRight" xlink:href="#dirArrow" transform="rotate(90) translate(36 -43)" onmousedown="handlePan(1,0)">
                  <use xlink:href="#rim" fill="#404040">
                        <set attributeName="fill" to="#808080" begin="arrowRight.mouseover" end="arrowRight.mouseout"/>
                  </use>
                  <path fill="none" stroke="white" stroke-width="1.5" d="M0,-3.0v7 M-2.5,-0.5L0,-3.0L2.5,-0.5"/>
                </g>
                <g id="arrowDown" xlink:href="#dirArrow" transform="rotate(180) translate(-30 -48)" onmousedown="handlePan(0,1)">
                  <use xlink:href="#rim" fill="#404040">
                        <set attributeName="fill" to="#808080" begin="arrowDown.mouseover" end="arrowDown.mouseout"/>
                  </use>
                  <path fill="none" stroke="white" stroke-width="1.5" d="M0,-3.0v7 M-2.5,-0.5L0,-3.0L2.5,-0.5"/>
                </g>
                <g id="arrowLeft" xlink:href="#dirArrow" transform="rotate(270) translate(-36 17)" onmousedown="handlePan(-1,0)">
                  <use xlink:href="#rim" fill="#404040">
                        <set attributeName="fill" to="#808080" begin="arrowLeft.mouseover" end="arrowLeft.mouseout"/>
                  </use>
                  <path fill="none" stroke="white" stroke-width="1.5" d="M0,-3.0v7 M-2.5,-0.5L0,-3.0L2.5,-0.5"/>
                </g>
        </g>
        <svg viewBox="0 0 15 15" width="100%" height="30px" preserveAspectRatio="xMaxYMin meet">
         <g id="arrow_out" transform="scale(0.3 0.3)">
          <a xlink:href="classslogo_1_1backend_1_1impl_1_1_backend_a4e32fe759ec977d48686b98339d37b30_cgraph_org.svg" target="_base">
           <rect id="button" ry="5" rx="5" y="6" x="6" height="38" width="38"
                fill="#f2f5e9" fill-opacity="0.5" stroke="#606060" stroke-width="1.0"/>
           <path id="arrow"
             d="M 11.500037,31.436501 C 11.940474,20.09759 22.043105,11.32322 32.158766,21.979434 L 37.068811,17.246167 C 37.068811,17.246167 37.088388,32 37.088388,32 L 22.160133,31.978069 C 22.160133,31.978069 26.997745,27.140456 26.997745,27.140456 C 18.528582,18.264221 13.291696,25.230495 11.500037,31.436501 z"
             style="fill:#404040;"/>
          </a>
         </g>
        </svg>
</svg>
