<?xml version="1.0" encoding="UTF-8" standalone="no"?>
<!DOCTYPE svg PUBLIC "-//W3C//DTD SVG 1.1//EN"
 "http://www.w3.org/Graphics/SVG/1.1/DTD/svg11.dtd">
<!-- Generated by graphviz version 2.36.0 (20140111.2315)
 -->
<!-- Title: slogo.UI.ListViewSLOGOVariables.initializeVariablesMap Pages: 1 -->
<svg width="1788pt" height="62pt"
 viewBox="0.00 0.00 1788.00 62.00" xmlns="http://www.w3.org/2000/svg" xmlns:xlink="http://www.w3.org/1999/xlink">
<g id="graph0" class="graph" transform="scale(1 1) rotate(0) translate(4 58)">
<title>slogo.UI.ListViewSLOGOVariables.initializeVariablesMap</title>
<polygon fill="white" stroke="none" points="-4,4 -4,-58 1784,-58 1784,4 -4,4"/>
<!-- Node1 -->
<g id="node1" class="node"><title>Node1</title>
<polygon fill="#bfbfbf" stroke="black" points="0.5,-0 0.5,-30 215.5,-30 215.5,-0 0.5,-0"/>
<text text-anchor="start" x="8.5" y="-18" font-family="Helvetica,sans-Serif" font-size="10.00">slogo.UI.ListViewSLOGOVariables.initialize</text>
<text text-anchor="middle" x="108" y="-7" font-family="Helvetica,sans-Serif" font-size="10.00">VariablesMap</text>
</g>
<!-- Node2 -->
<g id="node2" class="node"><title>Node2</title>
<g id="a_node2"><a xlink:href="../../dc/d95/classslogo_1_1_u_i_1_1_list_view_s_l_o_g_o_variables.html#a9876b72a9b2e6a0887b385834e8e93b6" target="_top" xlink:title="slogo.UI.ListViewSLOGOVariables.create">
<polygon fill="white" stroke="black" points="252,-5.5 252,-24.5 460,-24.5 460,-5.5 252,-5.5"/>
<text text-anchor="middle" x="356" y="-12.5" font-family="Helvetica,sans-Serif" font-size="10.00">slogo.UI.ListViewSLOGOVariables.create</text>
</a>
</g>
</g>
<!-- Node1&#45;&gt;Node2 -->
<g id="edge1" class="edge"><title>Node1&#45;&gt;Node2</title>
<path fill="none" stroke="midnightblue" d="M225.93,-15C234.561,-15 243.233,-15 251.774,-15"/>
<polygon fill="midnightblue" stroke="midnightblue" points="225.826,-11.5001 215.826,-15 225.826,-18.5001 225.826,-11.5001"/>
</g>
<!-- Node3 -->
<g id="node3" class="node"><title>Node3</title>
<g id="a_node3"><a xlink:href="../../db/d19/classslogo_1_1_u_i_1_1_module_creation_helper.html#af4fd617bc69e5e9986e2634bc7f30d7d" target="_top" xlink:title="slogo.UI.ModuleCreationHelper.create\lListViews">
<polygon fill="white" stroke="black" points="496.5,-0 496.5,-30 693.5,-30 693.5,-0 496.5,-0"/>
<text text-anchor="start" x="504.5" y="-18" font-family="Helvetica,sans-Serif" font-size="10.00">slogo.UI.ModuleCreationHelper.create</text>
<text text-anchor="middle" x="595" y="-7" font-family="Helvetica,sans-Serif" font-size="10.00">ListViews</text>
</a>
</g>
</g>
<!-- Node2&#45;&gt;Node3 -->
<g id="edge2" class="edge"><title>Node2&#45;&gt;Node3</title>
<path fill="none" stroke="midnightblue" d="M470.405,-15C479.069,-15 487.769,-15 496.32,-15"/>
<polygon fill="midnightblue" stroke="midnightblue" points="470.262,-11.5001 460.262,-15 470.262,-18.5001 470.262,-11.5001"/>
</g>
<!-- Node4 -->
<g id="node4" class="node"><title>Node4</title>
<g id="a_node4"><a xlink:href="../../db/d19/classslogo_1_1_u_i_1_1_module_creation_helper.html#afb9dbbbad7d872234a5b296fe129a34e" target="_top" xlink:title="slogo.UI.ModuleCreationHelper.create\lMainPageModules">
<polygon fill="white" stroke="black" points="730.5,-0 730.5,-30 927.5,-30 927.5,-0 730.5,-0"/>
<text text-anchor="start" x="738.5" y="-18" font-family="Helvetica,sans-Serif" font-size="10.00">slogo.UI.ModuleCreationHelper.create</text>
<text text-anchor="middle" x="829" y="-7" font-family="Helvetica,sans-Serif" font-size="10.00">MainPageModules</text>
</a>
</g>
</g>
<!-- Node3&#45;&gt;Node4 -->
<g id="edge3" class="edge"><title>Node3&#45;&gt;Node4</title>
<path fill="none" stroke="midnightblue" d="M703.722,-15C712.618,-15 721.58,-15 730.396,-15"/>
<polygon fill="midnightblue" stroke="midnightblue" points="703.717,-11.5001 693.716,-15 703.716,-18.5001 703.717,-11.5001"/>
</g>
<!-- Node5 -->
<g id="node5" class="node"><title>Node5</title>
<g id="a_node5"><a xlink:href="../../d9/d33/classslogo_1_1_u_i_1_1_main.html#a15b7f2e399ee24d160550993ab737e73" target="_top" xlink:title="slogo.UI.Main.start">
<polygon fill="white" stroke="black" points="964,-26.5 964,-45.5 1070,-45.5 1070,-26.5 964,-26.5"/>
<text text-anchor="middle" x="1017" y="-33.5" font-family="Helvetica,sans-Serif" font-size="10.00">slogo.UI.Main.start</text>
</a>
</g>
</g>
<!-- Node4&#45;&gt;Node5 -->
<g id="edge4" class="edge"><title>Node4&#45;&gt;Node5</title>
<path fill="none" stroke="midnightblue" d="M937.804,-27.1714C946.76,-28.1825 955.528,-29.1725 963.764,-30.1024"/>
<polygon fill="midnightblue" stroke="midnightblue" points="937.96,-23.6668 927.63,-26.0228 937.174,-30.6227 937.96,-23.6668"/>
</g>
<!-- Node6 -->
<g id="node6" class="node"><title>Node6</title>
<g id="a_node6"><a xlink:href="../../db/d19/classslogo_1_1_u_i_1_1_module_creation_helper.html#a3be12a7cc2b8a219db1e296211a2cb88" target="_top" xlink:title="slogo.UI.ModuleCreationHelper.activate\lExtraWorkspaceButton">
<polygon fill="white" stroke="black" points="1106.5,-24 1106.5,-54 1311.5,-54 1311.5,-24 1106.5,-24"/>
<text text-anchor="start" x="1114.5" y="-42" font-family="Helvetica,sans-Serif" font-size="10.00">slogo.UI.ModuleCreationHelper.activate</text>
<text text-anchor="middle" x="1209" y="-31" font-family="Helvetica,sans-Serif" font-size="10.00">ExtraWorkspaceButton</text>
</a>
</g>
</g>
<!-- Node5&#45;&gt;Node6 -->
<g id="edge5" class="edge"><title>Node5&#45;&gt;Node6</title>
<path fill="none" stroke="midnightblue" d="M1080.22,-36.9824C1088.63,-37.1152 1097.44,-37.2543 1106.32,-37.3945"/>
<polygon fill="midnightblue" stroke="midnightblue" points="1080.22,-33.4821 1070.17,-36.8237 1080.11,-40.4813 1080.22,-33.4821"/>
</g>
<!-- Node7 -->
<g id="node7" class="node"><title>Node7</title>
<g id="a_node7"><a xlink:href="../../db/d19/classslogo_1_1_u_i_1_1_module_creation_helper.html#a702c1ebe24d2857a10c666eb1fcc315d" target="_top" xlink:title="slogo.UI.ModuleCreationHelper.create\lExtraWorkspaceButton">
<polygon fill="white" stroke="black" points="1348.5,-24 1348.5,-54 1545.5,-54 1545.5,-24 1348.5,-24"/>
<text text-anchor="start" x="1356.5" y="-42" font-family="Helvetica,sans-Serif" font-size="10.00">slogo.UI.ModuleCreationHelper.create</text>
<text text-anchor="middle" x="1447" y="-31" font-family="Helvetica,sans-Serif" font-size="10.00">ExtraWorkspaceButton</text>
</a>
</g>
</g>
<!-- Node6&#45;&gt;Node7 -->
<g id="edge6" class="edge"><title>Node6&#45;&gt;Node7</title>
<path fill="none" stroke="midnightblue" d="M1322.05,-39C1330.81,-39 1339.62,-39 1348.27,-39"/>
<polygon fill="midnightblue" stroke="midnightblue" points="1321.8,-35.5001 1311.8,-39 1321.8,-42.5001 1321.8,-35.5001"/>
</g>
<!-- Node8 -->
<g id="node8" class="node"><title>Node8</title>
<g id="a_node8"><a xlink:href="../../db/d19/classslogo_1_1_u_i_1_1_module_creation_helper.html#a7c650957b2389d6e6d36e8be8a33cd2b" target="_top" xlink:title="slogo.UI.ModuleCreationHelper.create\lSelectorVBoxModules">
<polygon fill="white" stroke="black" points="1582.5,-2 1582.5,-32 1779.5,-32 1779.5,-2 1582.5,-2"/>
<text text-anchor="start" x="1590.5" y="-20" font-family="Helvetica,sans-Serif" font-size="10.00">slogo.UI.ModuleCreationHelper.create</text>
<text text-anchor="middle" x="1681" y="-9" font-family="Helvetica,sans-Serif" font-size="10.00">SelectorVBoxModules</text>
</a>
</g>
</g>
<!-- Node7&#45;&gt;Node8 -->
<g id="edge7" class="edge"><title>Node7&#45;&gt;Node8</title>
<path fill="none" stroke="midnightblue" d="M1555.72,-28.785C1564.62,-27.9414 1573.58,-27.0915 1582.4,-26.2555"/>
<polygon fill="midnightblue" stroke="midnightblue" points="1555.34,-25.3053 1545.72,-29.7338 1556,-32.274 1555.34,-25.3053"/>
</g>
<!-- Node8&#45;&gt;Node4 -->
<g id="edge8" class="edge"><title>Node8&#45;&gt;Node4</title>
<path fill="none" stroke="midnightblue" d="M1572.27,-14.3776C1563.38,-14.2253 1554.54,-14.0956 1546,-14 1324.91,-11.5254 1065.38,-12.9724 927.575,-14.086"/>
<polygon fill="midnightblue" stroke="midnightblue" points="1572.24,-17.8776 1582.3,-14.5584 1572.37,-10.8787 1572.24,-17.8776"/>
</g>
</g>
</svg>
