<?xml version="1.0" encoding="UTF-8" standalone="no"?>
<!DOCTYPE svg PUBLIC "-//W3C//DTD SVG 1.1//EN"
 "http://www.w3.org/Graphics/SVG/1.1/DTD/svg11.dtd">
<!-- Generated by graphviz version 2.36.0 (20140111.2315)
 -->
<!-- Title: slogo.UI.ListViewSLOGOVariables.create Pages: 1 -->
<svg width="858pt" height="136pt"
 viewBox="0.00 0.00 858.00 136.00" xmlns="http://www.w3.org/2000/svg" xmlns:xlink="http://www.w3.org/1999/xlink">
<g id="graph0" class="graph" transform="scale(1 1) rotate(0) translate(4 132)">
<title>slogo.UI.ListViewSLOGOVariables.create</title>
<polygon fill="white" stroke="none" points="-4,4 -4,-132 854,-132 854,4 -4,4"/>
<!-- Node1 -->
<g id="node1" class="node"><title>Node1</title>
<polygon fill="#bfbfbf" stroke="black" points="0,-54.5 0,-73.5 208,-73.5 208,-54.5 0,-54.5"/>
<text text-anchor="middle" x="104" y="-61.5" font-family="Helvetica,sans-Serif" font-size="10.00">slogo.UI.ListViewSLOGOVariables.create</text>
</g>
<!-- Node2 -->
<g id="node2" class="node"><title>Node2</title>
<g id="a_node2"><a xlink:href="../../db/dc0/classslogo_1_1_u_i_1_1_list_view_all_s_l_o_g_o.html#a5c010e0c2ee827d63a0990c92add658d" target="_top" xlink:title="slogo.UI.ListViewAllSLOGO.create\lListView">
<polygon fill="white" stroke="black" points="264.5,-98 264.5,-128 439.5,-128 439.5,-98 264.5,-98"/>
<text text-anchor="start" x="272.5" y="-116" font-family="Helvetica,sans-Serif" font-size="10.00">slogo.UI.ListViewAllSLOGO.create</text>
<text text-anchor="middle" x="352" y="-105" font-family="Helvetica,sans-Serif" font-size="10.00">ListView</text>
</a>
</g>
</g>
<!-- Node1&#45;&gt;Node2 -->
<g id="edge1" class="edge"><title>Node1&#45;&gt;Node2</title>
<path fill="none" stroke="midnightblue" d="M152.723,-73.5058C184.66,-79.8672 227.599,-88.4201 265.351,-95.9398"/>
<polygon fill="midnightblue" stroke="midnightblue" points="264.845,-99.4077 275.336,-97.9287 266.212,-92.5426 264.845,-99.4077"/>
</g>
<!-- Node5 -->
<g id="node5" class="node"><title>Node5</title>
<g id="a_node5"><a xlink:href="../../da/d8f/classslogo_1_1_u_i_1_1_list_view_creator.html#a081368f4f2cd74f99d9d251625ae4871" target="_top" xlink:title="slogo.UI.ListViewCreator.get\lListView">
<polygon fill="white" stroke="black" points="277,-49 277,-79 427,-79 427,-49 277,-49"/>
<text text-anchor="start" x="285" y="-67" font-family="Helvetica,sans-Serif" font-size="10.00">slogo.UI.ListViewCreator.get</text>
<text text-anchor="middle" x="352" y="-56" font-family="Helvetica,sans-Serif" font-size="10.00">ListView</text>
</a>
</g>
</g>
<!-- Node1&#45;&gt;Node5 -->
<g id="edge4" class="edge"><title>Node1&#45;&gt;Node5</title>
<path fill="none" stroke="midnightblue" d="M208.257,-64C227.761,-64 247.946,-64 266.779,-64"/>
<polygon fill="midnightblue" stroke="midnightblue" points="266.791,-67.5001 276.791,-64 266.791,-60.5001 266.791,-67.5001"/>
</g>
<!-- Node6 -->
<g id="node6" class="node"><title>Node6</title>
<g id="a_node6"><a xlink:href="../../dc/d95/classslogo_1_1_u_i_1_1_list_view_s_l_o_g_o_variables.html#ac060fcb519b9fcb84f6eabf24361bcbd" target="_top" xlink:title="slogo.UI.ListViewSLOGOVariables.initialize\lVariablesMap">
<polygon fill="white" stroke="black" points="244.5,-0 244.5,-30 459.5,-30 459.5,-0 244.5,-0"/>
<text text-anchor="start" x="252.5" y="-18" font-family="Helvetica,sans-Serif" font-size="10.00">slogo.UI.ListViewSLOGOVariables.initialize</text>
<text text-anchor="middle" x="352" y="-7" font-family="Helvetica,sans-Serif" font-size="10.00">VariablesMap</text>
</a>
</g>
</g>
<!-- Node1&#45;&gt;Node6 -->
<g id="edge5" class="edge"><title>Node1&#45;&gt;Node6</title>
<path fill="none" stroke="midnightblue" d="M152.723,-54.4942C184.66,-48.1328 227.599,-39.5799 265.351,-32.0602"/>
<polygon fill="midnightblue" stroke="midnightblue" points="266.212,-35.4574 275.336,-30.0713 264.845,-28.5923 266.212,-35.4574"/>
</g>
<!-- Node3 -->
<g id="node3" class="node"><title>Node3</title>
<g id="a_node3"><a xlink:href="../../da/d8f/classslogo_1_1_u_i_1_1_list_view_creator.html#a80c012ec24a3b0e7dfa02f1ee816f25b" target="_top" xlink:title="slogo.UI.ListViewCreator.create\lListViewWithLabel">
<polygon fill="white" stroke="black" points="496.5,-98 496.5,-128 661.5,-128 661.5,-98 496.5,-98"/>
<text text-anchor="start" x="504.5" y="-116" font-family="Helvetica,sans-Serif" font-size="10.00">slogo.UI.ListViewCreator.create</text>
<text text-anchor="middle" x="579" y="-105" font-family="Helvetica,sans-Serif" font-size="10.00">ListViewWithLabel</text>
</a>
</g>
</g>
<!-- Node2&#45;&gt;Node3 -->
<g id="edge2" class="edge"><title>Node2&#45;&gt;Node3</title>
<path fill="none" stroke="midnightblue" d="M439.669,-113C454.902,-113 470.802,-113 486.17,-113"/>
<polygon fill="midnightblue" stroke="midnightblue" points="486.179,-116.5 496.179,-113 486.179,-109.5 486.179,-116.5"/>
</g>
<!-- Node4 -->
<g id="node4" class="node"><title>Node4</title>
<g id="a_node4"><a xlink:href="../../d7/d0e/classslogo_1_1_u_i_1_1_label_creator.html#a9ca0989ecfc0037d473dd3d2e8ead74f" target="_top" xlink:title="slogo.UI.LabelCreator.create\lLabel">
<polygon fill="white" stroke="black" points="698,-98 698,-128 850,-128 850,-98 698,-98"/>
<text text-anchor="start" x="706" y="-116" font-family="Helvetica,sans-Serif" font-size="10.00">slogo.UI.LabelCreator.create</text>
<text text-anchor="middle" x="774" y="-105" font-family="Helvetica,sans-Serif" font-size="10.00">Label</text>
</a>
</g>
</g>
<!-- Node3&#45;&gt;Node4 -->
<g id="edge3" class="edge"><title>Node3&#45;&gt;Node4</title>
<path fill="none" stroke="midnightblue" d="M661.57,-113C670.221,-113 679.037,-113 687.729,-113"/>
<polygon fill="midnightblue" stroke="midnightblue" points="687.859,-116.5 697.859,-113 687.859,-109.5 687.859,-116.5"/>
</g>
</g>
</svg>
