<?xml version="1.0" encoding="UTF-8" standalone="no"?>
<!DOCTYPE svg PUBLIC "-//W3C//DTD SVG 1.1//EN"
 "http://www.w3.org/Graphics/SVG/1.1/DTD/svg11.dtd">
<!-- Generated by graphviz version 2.36.0 (20140111.2315)
 -->
<!-- Title: slogo.frontend.Config.ParameterDistributor Pages: 1 -->
<svg width="413pt" height="108pt"
 viewBox="0.00 0.00 413.00 108.00" xmlns="http://www.w3.org/2000/svg" xmlns:xlink="http://www.w3.org/1999/xlink">
<g id="graph0" class="graph" transform="scale(1 1) rotate(0) translate(4 104)">
<title>slogo.frontend.Config.ParameterDistributor</title>
<polygon fill="white" stroke="none" points="-4,4 -4,-104 409,-104 409,4 -4,4"/>
<!-- Node1 -->
<g id="node1" class="node"><title>Node1</title>
<polygon fill="#bfbfbf" stroke="black" points="115,-1 115,-31 287,-31 287,-1 115,-1"/>
<text text-anchor="start" x="123" y="-19" font-family="Helvetica,sans-Serif" font-size="10.00">slogo.frontend.Config.Parameter</text>
<text text-anchor="middle" x="201" y="-8" font-family="Helvetica,sans-Serif" font-size="10.00">Distributor</text>
</g>
<!-- Node2 -->
<g id="node2" class="node"><title>Node2</title>
<polygon fill="white" stroke="#bfbfbf" points="-0.5,-80.5 -0.5,-99.5 118.5,-99.5 118.5,-80.5 -0.5,-80.5"/>
<text text-anchor="middle" x="59" y="-87.5" font-family="Helvetica,sans-Serif" font-size="10.00">Map&lt; String, Color &gt;</text>
</g>
<!-- Node2&#45;&gt;Node1 -->
<g id="edge1" class="edge"><title>Node2&#45;&gt;Node1</title>
<path fill="none" stroke="#9a32cd" stroke-dasharray="5,2" d="M85.0739,-75.7794C110.061,-63.1098 147.649,-44.0512 173.198,-31.0968"/>
<polygon fill="#9a32cd" stroke="#9a32cd" points="83.1831,-72.8139 75.8469,-80.4579 86.3487,-79.0572 83.1831,-72.8139"/>
<text text-anchor="middle" x="158.5" y="-53.5" font-family="Helvetica,sans-Serif" font-size="10.00"> colorMap</text>
</g>
<!-- Node3 -->
<g id="node3" class="node"><title>Node3</title>
<polygon fill="white" stroke="#bfbfbf" points="137,-80.5 137,-99.5 265,-99.5 265,-80.5 137,-80.5"/>
<text text-anchor="middle" x="201" y="-87.5" font-family="Helvetica,sans-Serif" font-size="10.00">Map&lt; String, Integer &gt;</text>
</g>
<!-- Node3&#45;&gt;Node1 -->
<g id="edge2" class="edge"><title>Node3&#45;&gt;Node1</title>
<path fill="none" stroke="#9a32cd" stroke-dasharray="5,2" d="M201,-70.0846C201,-57.9148 201,-42.3538 201,-31.2316"/>
<polygon fill="#9a32cd" stroke="#9a32cd" points="197.5,-70.4579 201,-80.4579 204.5,-70.4579 197.5,-70.4579"/>
<text text-anchor="middle" x="231.5" y="-53.5" font-family="Helvetica,sans-Serif" font-size="10.00"> variableMap</text>
</g>
<!-- Node4 -->
<g id="node4" class="node"><title>Node4</title>
<polygon fill="white" stroke="#bfbfbf" points="283,-80.5 283,-99.5 405,-99.5 405,-80.5 283,-80.5"/>
<text text-anchor="middle" x="344" y="-87.5" font-family="Helvetica,sans-Serif" font-size="10.00">Map&lt; String, String &gt;</text>
</g>
<!-- Node4&#45;&gt;Node1 -->
<g id="edge3" class="edge"><title>Node4&#45;&gt;Node1</title>
<path fill="none" stroke="#9a32cd" stroke-dasharray="5,2" d="M318.076,-75.9472C292.914,-63.2786 254.841,-44.1085 228.998,-31.0968"/>
<polygon fill="#9a32cd" stroke="#9a32cd" points="316.529,-79.0869 327.034,-80.4579 319.677,-72.8346 316.529,-79.0869"/>
<text text-anchor="middle" x="316" y="-53.5" font-family="Helvetica,sans-Serif" font-size="10.00"> configMap</text>
</g>
</g>
</svg>
