<?xml version="1.0" encoding="UTF-8" standalone="no"?>
<!DOCTYPE svg PUBLIC "-//W3C//DTD SVG 1.1//EN"
 "http://www.w3.org/Graphics/SVG/1.1/DTD/svg11.dtd">
<!-- Generated by graphviz version 2.36.0 (20140111.2315)
 -->
<!-- Title: slogo.UI.HTMLHelpPage.displayPage Pages: 1 -->
<svg width="1758pt" height="60pt"
 viewBox="0.00 0.00 1758.00 60.00" xmlns="http://www.w3.org/2000/svg" xmlns:xlink="http://www.w3.org/1999/xlink">
<g id="graph0" class="graph" transform="scale(1 1) rotate(0) translate(4 56)">
<title>slogo.UI.HTMLHelpPage.displayPage</title>
<polygon fill="white" stroke="none" points="-4,4 -4,-56 1754,-56 1754,4 -4,4"/>
<!-- Node1 -->
<g id="node1" class="node"><title>Node1</title>
<polygon fill="#bfbfbf" stroke="black" points="0,-5.5 0,-24.5 188,-24.5 188,-5.5 0,-5.5"/>
<text text-anchor="middle" x="94" y="-12.5" font-family="Helvetica,sans-Serif" font-size="10.00">slogo.UI.HTMLHelpPage.displayPage</text>
</g>
<!-- Node2 -->
<g id="node2" class="node"><title>Node2</title>
<g id="a_node2"><a xlink:href="../../db/d19/classslogo_1_1_u_i_1_1_module_creation_helper.html#a8a48fbaa484299e1c50b000cd3496bca" target="_top" xlink:title="slogo.UI.ModuleCreationHelper.activate\lHelpButton">
<polygon fill="white" stroke="black" points="224.5,-0 224.5,-30 429.5,-30 429.5,-0 224.5,-0"/>
<text text-anchor="start" x="232.5" y="-18" font-family="Helvetica,sans-Serif" font-size="10.00">slogo.UI.ModuleCreationHelper.activate</text>
<text text-anchor="middle" x="327" y="-7" font-family="Helvetica,sans-Serif" font-size="10.00">HelpButton</text>
</a>
</g>
</g>
<!-- Node1&#45;&gt;Node2 -->
<g id="edge1" class="edge"><title>Node1&#45;&gt;Node2</title>
<path fill="none" stroke="midnightblue" d="M198.393,-15C207.045,-15 215.789,-15 224.427,-15"/>
<polygon fill="midnightblue" stroke="midnightblue" points="198.291,-11.5001 188.291,-15 198.291,-18.5001 198.291,-11.5001"/>
</g>
<!-- Node3 -->
<g id="node3" class="node"><title>Node3</title>
<g id="a_node3"><a xlink:href="../../db/d19/classslogo_1_1_u_i_1_1_module_creation_helper.html#a2432dca0d1c44f812a59e4e0b6133722" target="_top" xlink:title="slogo.UI.ModuleCreationHelper.create\lHelpButton">
<polygon fill="white" stroke="black" points="466.5,-0 466.5,-30 663.5,-30 663.5,-0 466.5,-0"/>
<text text-anchor="start" x="474.5" y="-18" font-family="Helvetica,sans-Serif" font-size="10.00">slogo.UI.ModuleCreationHelper.create</text>
<text text-anchor="middle" x="565" y="-7" font-family="Helvetica,sans-Serif" font-size="10.00">HelpButton</text>
</a>
</g>
</g>
<!-- Node2&#45;&gt;Node3 -->
<g id="edge2" class="edge"><title>Node2&#45;&gt;Node3</title>
<path fill="none" stroke="midnightblue" d="M440.051,-15C448.813,-15 457.618,-15 466.274,-15"/>
<polygon fill="midnightblue" stroke="midnightblue" points="439.798,-11.5001 429.798,-15 439.798,-18.5001 439.798,-11.5001"/>
</g>
<!-- Node4 -->
<g id="node4" class="node"><title>Node4</title>
<g id="a_node4"><a xlink:href="../../db/d19/classslogo_1_1_u_i_1_1_module_creation_helper.html#a7c650957b2389d6e6d36e8be8a33cd2b" target="_top" xlink:title="slogo.UI.ModuleCreationHelper.create\lSelectorVBoxModules">
<polygon fill="white" stroke="black" points="700.5,-0 700.5,-30 897.5,-30 897.5,-0 700.5,-0"/>
<text text-anchor="start" x="708.5" y="-18" font-family="Helvetica,sans-Serif" font-size="10.00">slogo.UI.ModuleCreationHelper.create</text>
<text text-anchor="middle" x="799" y="-7" font-family="Helvetica,sans-Serif" font-size="10.00">SelectorVBoxModules</text>
</a>
</g>
</g>
<!-- Node3&#45;&gt;Node4 -->
<g id="edge3" class="edge"><title>Node3&#45;&gt;Node4</title>
<path fill="none" stroke="midnightblue" d="M673.722,-15C682.618,-15 691.58,-15 700.396,-15"/>
<polygon fill="midnightblue" stroke="midnightblue" points="673.717,-11.5001 663.716,-15 673.716,-18.5001 673.717,-11.5001"/>
</g>
<!-- Node5 -->
<g id="node5" class="node"><title>Node5</title>
<g id="a_node5"><a xlink:href="../../db/d19/classslogo_1_1_u_i_1_1_module_creation_helper.html#afb9dbbbad7d872234a5b296fe129a34e" target="_top" xlink:title="slogo.UI.ModuleCreationHelper.create\lMainPageModules">
<polygon fill="white" stroke="black" points="934.5,-22 934.5,-52 1131.5,-52 1131.5,-22 934.5,-22"/>
<text text-anchor="start" x="942.5" y="-40" font-family="Helvetica,sans-Serif" font-size="10.00">slogo.UI.ModuleCreationHelper.create</text>
<text text-anchor="middle" x="1033" y="-29" font-family="Helvetica,sans-Serif" font-size="10.00">MainPageModules</text>
</a>
</g>
</g>
<!-- Node4&#45;&gt;Node5 -->
<g id="edge4" class="edge"><title>Node4&#45;&gt;Node5</title>
<path fill="none" stroke="midnightblue" d="M907.722,-25.215C916.618,-26.0586 925.58,-26.9085 934.396,-27.7445"/>
<polygon fill="midnightblue" stroke="midnightblue" points="908.002,-21.726 897.716,-24.2662 907.341,-28.6947 908.002,-21.726"/>
</g>
<!-- Node6 -->
<g id="node6" class="node"><title>Node6</title>
<g id="a_node6"><a xlink:href="../../d9/d33/classslogo_1_1_u_i_1_1_main.html#a15b7f2e399ee24d160550993ab737e73" target="_top" xlink:title="slogo.UI.Main.start">
<polygon fill="white" stroke="black" points="1168,-27.5 1168,-46.5 1274,-46.5 1274,-27.5 1168,-27.5"/>
<text text-anchor="middle" x="1221" y="-34.5" font-family="Helvetica,sans-Serif" font-size="10.00">slogo.UI.Main.start</text>
</a>
</g>
</g>
<!-- Node5&#45;&gt;Node6 -->
<g id="edge5" class="edge"><title>Node5&#45;&gt;Node6</title>
<path fill="none" stroke="midnightblue" d="M1141.8,-37C1150.76,-37 1159.53,-37 1167.76,-37"/>
<polygon fill="midnightblue" stroke="midnightblue" points="1141.63,-33.5001 1131.63,-37 1141.63,-40.5001 1141.63,-33.5001"/>
</g>
<!-- Node7 -->
<g id="node7" class="node"><title>Node7</title>
<g id="a_node7"><a xlink:href="../../db/d19/classslogo_1_1_u_i_1_1_module_creation_helper.html#a3be12a7cc2b8a219db1e296211a2cb88" target="_top" xlink:title="slogo.UI.ModuleCreationHelper.activate\lExtraWorkspaceButton">
<polygon fill="white" stroke="black" points="1310.5,-22 1310.5,-52 1515.5,-52 1515.5,-22 1310.5,-22"/>
<text text-anchor="start" x="1318.5" y="-40" font-family="Helvetica,sans-Serif" font-size="10.00">slogo.UI.ModuleCreationHelper.activate</text>
<text text-anchor="middle" x="1413" y="-29" font-family="Helvetica,sans-Serif" font-size="10.00">ExtraWorkspaceButton</text>
</a>
</g>
</g>
<!-- Node6&#45;&gt;Node7 -->
<g id="edge6" class="edge"><title>Node6&#45;&gt;Node7</title>
<path fill="none" stroke="midnightblue" d="M1284.22,-37C1292.63,-37 1301.44,-37 1310.32,-37"/>
<polygon fill="midnightblue" stroke="midnightblue" points="1284.17,-33.5001 1274.17,-37 1284.17,-40.5001 1284.17,-33.5001"/>
</g>
<!-- Node8 -->
<g id="node8" class="node"><title>Node8</title>
<g id="a_node8"><a xlink:href="../../db/d19/classslogo_1_1_u_i_1_1_module_creation_helper.html#a702c1ebe24d2857a10c666eb1fcc315d" target="_top" xlink:title="slogo.UI.ModuleCreationHelper.create\lExtraWorkspaceButton">
<polygon fill="white" stroke="black" points="1552.5,-0 1552.5,-30 1749.5,-30 1749.5,-0 1552.5,-0"/>
<text text-anchor="start" x="1560.5" y="-18" font-family="Helvetica,sans-Serif" font-size="10.00">slogo.UI.ModuleCreationHelper.create</text>
<text text-anchor="middle" x="1651" y="-7" font-family="Helvetica,sans-Serif" font-size="10.00">ExtraWorkspaceButton</text>
</a>
</g>
</g>
<!-- Node7&#45;&gt;Node8 -->
<g id="edge7" class="edge"><title>Node7&#45;&gt;Node8</title>
<path fill="none" stroke="midnightblue" d="M1525.77,-26.5812C1534.62,-25.7556 1543.52,-24.9257 1552.27,-24.1101"/>
<polygon fill="midnightblue" stroke="midnightblue" points="1525.43,-23.0972 1515.8,-27.5104 1526.08,-30.067 1525.43,-23.0972"/>
</g>
<!-- Node8&#45;&gt;Node4 -->
<g id="edge8" class="edge"><title>Node8&#45;&gt;Node4</title>
<path fill="none" stroke="midnightblue" d="M1542.27,-12.3776C1533.38,-12.2253 1524.54,-12.0956 1516,-12 1257.35,-9.10502 1192.65,-9.10502 934,-12 922.25,-12.1315 909.921,-12.3279 897.699,-12.5584"/>
<polygon fill="midnightblue" stroke="midnightblue" points="1542.24,-15.8776 1552.3,-12.5584 1542.37,-8.87874 1542.24,-15.8776"/>
</g>
</g>
</svg>
