<?xml version="1.0" encoding="UTF-8" standalone="no"?>
<!DOCTYPE svg PUBLIC "-//W3C//DTD SVG 1.1//EN"
 "http://www.w3.org/Graphics/SVG/1.1/DTD/svg11.dtd">
<!-- Generated by graphviz version 2.36.0 (20140111.2315)
 -->
<!-- Title: slogo.backend.impl.parsing.SyntaxNode.children Pages: 1 -->
<svg width="344pt" height="87pt"
 viewBox="0.00 0.00 344.00 87.00" xmlns="http://www.w3.org/2000/svg" xmlns:xlink="http://www.w3.org/1999/xlink">
<g id="graph0" class="graph" transform="scale(1 1) rotate(0) translate(4 83)">
<title>slogo.backend.impl.parsing.SyntaxNode.children</title>
<polygon fill="white" stroke="none" points="-4,4 -4,-83 340,-83 340,4 -4,4"/>
<!-- Node1 -->
<g id="node1" class="node"><title>Node1</title>
<polygon fill="#bfbfbf" stroke="black" points="0,-24 0,-54 150,-54 150,-24 0,-24"/>
<text text-anchor="start" x="8" y="-42" font-family="Helvetica,sans-Serif" font-size="10.00">slogo.backend.impl.parsing.</text>
<text text-anchor="middle" x="75" y="-31" font-family="Helvetica,sans-Serif" font-size="10.00">SyntaxNode.children</text>
</g>
<!-- Node2 -->
<g id="node2" class="node"><title>Node2</title>
<g id="a_node2"><a xlink:href="../../df/d7d/classslogo_1_1backend_1_1impl_1_1parsing_1_1_syntax_node.html#a44cac49b1e7b61fa836c3f715484d392" target="_top" xlink:title="slogo.backend.impl.parsing.\lSyntaxNode.setChildren">
<polygon fill="white" stroke="black" points="186,-49 186,-79 336,-79 336,-49 186,-49"/>
<text text-anchor="start" x="194" y="-67" font-family="Helvetica,sans-Serif" font-size="10.00">slogo.backend.impl.parsing.</text>
<text text-anchor="middle" x="261" y="-56" font-family="Helvetica,sans-Serif" font-size="10.00">SyntaxNode.setChildren</text>
</a>
</g>
</g>
<!-- Node1&#45;&gt;Node2 -->
<g id="edge1" class="edge"><title>Node1&#45;&gt;Node2</title>
<path fill="none" stroke="midnightblue" d="M160.066,-50.422C168.654,-51.5889 177.336,-52.7684 185.808,-53.9195"/>
<polygon fill="midnightblue" stroke="midnightblue" points="160.425,-46.9387 150.044,-49.0604 159.482,-53.8749 160.425,-46.9387"/>
</g>
<!-- Node3 -->
<g id="node3" class="node"><title>Node3</title>
<g id="a_node3"><a xlink:href="../../df/d7d/classslogo_1_1backend_1_1impl_1_1parsing_1_1_syntax_node.html#affbd5eab9889f60a2c5a185c537fb9a2" target="_top" xlink:title="slogo.backend.impl.parsing.\lSyntaxNode.SyntaxNode">
<polygon fill="white" stroke="black" points="186,-0 186,-30 336,-30 336,-0 186,-0"/>
<text text-anchor="start" x="194" y="-18" font-family="Helvetica,sans-Serif" font-size="10.00">slogo.backend.impl.parsing.</text>
<text text-anchor="middle" x="261" y="-7" font-family="Helvetica,sans-Serif" font-size="10.00">SyntaxNode.SyntaxNode</text>
</a>
</g>
</g>
<!-- Node1&#45;&gt;Node3 -->
<g id="edge2" class="edge"><title>Node1&#45;&gt;Node3</title>
<path fill="none" stroke="midnightblue" d="M160.066,-28.0349C168.654,-26.9147 177.336,-25.7823 185.808,-24.6773"/>
<polygon fill="midnightblue" stroke="midnightblue" points="159.508,-24.5779 150.044,-29.342 160.413,-31.5191 159.508,-24.5779"/>
</g>
</g>
</svg>
