<?xml version="1.0" encoding="UTF-8" standalone="no"?>
<!DOCTYPE svg PUBLIC "-//W3C//DTD SVG 1.1//EN"
 "http://www.w3.org/Graphics/SVG/1.1/DTD/svg11.dtd">
<!-- Generated by graphviz version 2.36.0 (20140111.2315)
 -->
<!-- Title: slogo.backend.impl.parsing.SyntaxNode.SyntaxNode Pages: 1 -->
<svg width="344pt" height="136pt"
 viewBox="0.00 0.00 344.00 136.00" xmlns="http://www.w3.org/2000/svg" xmlns:xlink="http://www.w3.org/1999/xlink">
<g id="graph0" class="graph" transform="scale(1 1) rotate(0) translate(4 132)">
<title>slogo.backend.impl.parsing.SyntaxNode.SyntaxNode</title>
<polygon fill="white" stroke="none" points="-4,4 -4,-132 340,-132 340,4 -4,4"/>
<!-- Node1 -->
<g id="node1" class="node"><title>Node1</title>
<polygon fill="#bfbfbf" stroke="black" points="0,-49 0,-79 150,-79 150,-49 0,-49"/>
<text text-anchor="start" x="8" y="-67" font-family="Helvetica,sans-Serif" font-size="10.00">slogo.backend.impl.parsing.</text>
<text text-anchor="middle" x="75" y="-56" font-family="Helvetica,sans-Serif" font-size="10.00">SyntaxNode.SyntaxNode</text>
</g>
<!-- Node2 -->
<g id="node2" class="node"><title>Node2</title>
<g id="a_node2"><a xlink:href="../../df/d7d/classslogo_1_1backend_1_1impl_1_1parsing_1_1_syntax_node.html#a2e5db0ffa7b1b11922c0e5a6124cf2d3" target="_top" xlink:title="slogo.backend.impl.parsing.\lSyntaxNode.children">
<polygon fill="white" stroke="black" points="186,-98 186,-128 336,-128 336,-98 186,-98"/>
<text text-anchor="start" x="194" y="-116" font-family="Helvetica,sans-Serif" font-size="10.00">slogo.backend.impl.parsing.</text>
<text text-anchor="middle" x="261" y="-105" font-family="Helvetica,sans-Serif" font-size="10.00">SyntaxNode.children</text>
</a>
</g>
</g>
<!-- Node1&#45;&gt;Node2 -->
<g id="edge1" class="edge"><title>Node1&#45;&gt;Node2</title>
<path fill="none" stroke="midnightblue" d="M132.457,-79.0346C151.884,-84.2083 173.811,-90.0475 193.935,-95.4066"/>
<polygon fill="midnightblue" stroke="midnightblue" points="193.086,-98.8025 203.65,-97.9938 194.888,-92.0383 193.086,-98.8025"/>
</g>
<!-- Node3 -->
<g id="node3" class="node"><title>Node3</title>
<g id="a_node3"><a xlink:href="../../df/d7d/classslogo_1_1backend_1_1impl_1_1parsing_1_1_syntax_node.html#ab895d0f8a1fa38b76f2d6e1280c32f55" target="_top" xlink:title="slogo.backend.impl.parsing.\lSyntaxNode.operation">
<polygon fill="white" stroke="black" points="186,-49 186,-79 336,-79 336,-49 186,-49"/>
<text text-anchor="start" x="194" y="-67" font-family="Helvetica,sans-Serif" font-size="10.00">slogo.backend.impl.parsing.</text>
<text text-anchor="middle" x="261" y="-56" font-family="Helvetica,sans-Serif" font-size="10.00">SyntaxNode.operation</text>
</a>
</g>
</g>
<!-- Node1&#45;&gt;Node3 -->
<g id="edge2" class="edge"><title>Node1&#45;&gt;Node3</title>
<path fill="none" stroke="midnightblue" d="M150.044,-64C158.514,-64 167.195,-64 175.784,-64"/>
<polygon fill="midnightblue" stroke="midnightblue" points="175.808,-67.5001 185.808,-64 175.807,-60.5001 175.808,-67.5001"/>
</g>
<!-- Node4 -->
<g id="node4" class="node"><title>Node4</title>
<g id="a_node4"><a xlink:href="../../df/d7d/classslogo_1_1backend_1_1impl_1_1parsing_1_1_syntax_node.html#a27eb4ce4a59313b25168f33781da9f5d" target="_top" xlink:title="slogo.backend.impl.parsing.\lSyntaxNode.type">
<polygon fill="white" stroke="black" points="186,-0 186,-30 336,-30 336,-0 186,-0"/>
<text text-anchor="start" x="194" y="-18" font-family="Helvetica,sans-Serif" font-size="10.00">slogo.backend.impl.parsing.</text>
<text text-anchor="middle" x="261" y="-7" font-family="Helvetica,sans-Serif" font-size="10.00">SyntaxNode.type</text>
</a>
</g>
</g>
<!-- Node1&#45;&gt;Node4 -->
<g id="edge3" class="edge"><title>Node1&#45;&gt;Node4</title>
<path fill="none" stroke="midnightblue" d="M132.457,-48.9654C151.884,-43.7917 173.811,-37.9525 193.935,-32.5934"/>
<polygon fill="midnightblue" stroke="midnightblue" points="194.888,-35.9617 203.65,-30.0062 193.086,-29.1975 194.888,-35.9617"/>
</g>
</g>
</svg>
