<?xml version="1.0" encoding="UTF-8" standalone="no"?>
<!DOCTYPE svg PUBLIC "-//W3C//DTD SVG 1.1//EN"
 "http://www.w3.org/Graphics/SVG/1.1/DTD/svg11.dtd">
<!-- Generated by graphviz version 2.36.0 (20140111.2315)
 -->
<!-- Title: slogo.UI.ImageLoader.chooseNewImage Pages: 1 -->
<svg width="1728pt" height="60pt"
 viewBox="0.00 0.00 1728.00 60.00" xmlns="http://www.w3.org/2000/svg" xmlns:xlink="http://www.w3.org/1999/xlink">
<g id="graph0" class="graph" transform="scale(1 1) rotate(0) translate(4 56)">
<title>slogo.UI.ImageLoader.chooseNewImage</title>
<polygon fill="white" stroke="none" points="-4,4 -4,-56 1724,-56 1724,4 -4,4"/>
<!-- Node1 -->
<g id="node1" class="node"><title>Node1</title>
<polygon fill="#bfbfbf" stroke="black" points="0,-0 0,-30 158,-30 158,-0 0,-0"/>
<text text-anchor="start" x="8" y="-18" font-family="Helvetica,sans-Serif" font-size="10.00">slogo.UI.ImageLoader.choose</text>
<text text-anchor="middle" x="79" y="-7" font-family="Helvetica,sans-Serif" font-size="10.00">NewImage</text>
</g>
<!-- Node2 -->
<g id="node2" class="node"><title>Node2</title>
<g id="a_node2"><a xlink:href="../../db/d19/classslogo_1_1_u_i_1_1_module_creation_helper.html#a1da970a2c0974e2dcdf914a9012e29fb" target="_top" xlink:title="slogo.UI.ModuleCreationHelper.activate\lTurtleImageLoaderButton">
<polygon fill="white" stroke="black" points="194.5,-0 194.5,-30 399.5,-30 399.5,-0 194.5,-0"/>
<text text-anchor="start" x="202.5" y="-18" font-family="Helvetica,sans-Serif" font-size="10.00">slogo.UI.ModuleCreationHelper.activate</text>
<text text-anchor="middle" x="297" y="-7" font-family="Helvetica,sans-Serif" font-size="10.00">TurtleImageLoaderButton</text>
</a>
</g>
</g>
<!-- Node1&#45;&gt;Node2 -->
<g id="edge1" class="edge"><title>Node1&#45;&gt;Node2</title>
<path fill="none" stroke="midnightblue" d="M168.554,-15C177.051,-15 185.715,-15 194.324,-15"/>
<polygon fill="midnightblue" stroke="midnightblue" points="168.286,-11.5001 158.286,-15 168.286,-18.5001 168.286,-11.5001"/>
</g>
<!-- Node3 -->
<g id="node3" class="node"><title>Node3</title>
<g id="a_node3"><a xlink:href="../../db/d19/classslogo_1_1_u_i_1_1_module_creation_helper.html#aece15f9312b16091af80cd03ce7615ae" target="_top" xlink:title="slogo.UI.ModuleCreationHelper.create\lTurtleImageLoaderButton">
<polygon fill="white" stroke="black" points="436.5,-0 436.5,-30 633.5,-30 633.5,-0 436.5,-0"/>
<text text-anchor="start" x="444.5" y="-18" font-family="Helvetica,sans-Serif" font-size="10.00">slogo.UI.ModuleCreationHelper.create</text>
<text text-anchor="middle" x="535" y="-7" font-family="Helvetica,sans-Serif" font-size="10.00">TurtleImageLoaderButton</text>
</a>
</g>
</g>
<!-- Node2&#45;&gt;Node3 -->
<g id="edge2" class="edge"><title>Node2&#45;&gt;Node3</title>
<path fill="none" stroke="midnightblue" d="M410.051,-15C418.813,-15 427.618,-15 436.274,-15"/>
<polygon fill="midnightblue" stroke="midnightblue" points="409.798,-11.5001 399.798,-15 409.798,-18.5001 409.798,-11.5001"/>
</g>
<!-- Node4 -->
<g id="node4" class="node"><title>Node4</title>
<g id="a_node4"><a xlink:href="../../db/d19/classslogo_1_1_u_i_1_1_module_creation_helper.html#a7c650957b2389d6e6d36e8be8a33cd2b" target="_top" xlink:title="slogo.UI.ModuleCreationHelper.create\lSelectorVBoxModules">
<polygon fill="white" stroke="black" points="670.5,-0 670.5,-30 867.5,-30 867.5,-0 670.5,-0"/>
<text text-anchor="start" x="678.5" y="-18" font-family="Helvetica,sans-Serif" font-size="10.00">slogo.UI.ModuleCreationHelper.create</text>
<text text-anchor="middle" x="769" y="-7" font-family="Helvetica,sans-Serif" font-size="10.00">SelectorVBoxModules</text>
</a>
</g>
</g>
<!-- Node3&#45;&gt;Node4 -->
<g id="edge3" class="edge"><title>Node3&#45;&gt;Node4</title>
<path fill="none" stroke="midnightblue" d="M643.722,-15C652.618,-15 661.58,-15 670.396,-15"/>
<polygon fill="midnightblue" stroke="midnightblue" points="643.717,-11.5001 633.716,-15 643.716,-18.5001 643.717,-11.5001"/>
</g>
<!-- Node5 -->
<g id="node5" class="node"><title>Node5</title>
<g id="a_node5"><a xlink:href="../../db/d19/classslogo_1_1_u_i_1_1_module_creation_helper.html#afb9dbbbad7d872234a5b296fe129a34e" target="_top" xlink:title="slogo.UI.ModuleCreationHelper.create\lMainPageModules">
<polygon fill="white" stroke="black" points="904.5,-22 904.5,-52 1101.5,-52 1101.5,-22 904.5,-22"/>
<text text-anchor="start" x="912.5" y="-40" font-family="Helvetica,sans-Serif" font-size="10.00">slogo.UI.ModuleCreationHelper.create</text>
<text text-anchor="middle" x="1003" y="-29" font-family="Helvetica,sans-Serif" font-size="10.00">MainPageModules</text>
</a>
</g>
</g>
<!-- Node4&#45;&gt;Node5 -->
<g id="edge4" class="edge"><title>Node4&#45;&gt;Node5</title>
<path fill="none" stroke="midnightblue" d="M877.722,-25.215C886.618,-26.0586 895.58,-26.9085 904.396,-27.7445"/>
<polygon fill="midnightblue" stroke="midnightblue" points="878.002,-21.726 867.716,-24.2662 877.341,-28.6947 878.002,-21.726"/>
</g>
<!-- Node6 -->
<g id="node6" class="node"><title>Node6</title>
<g id="a_node6"><a xlink:href="../../d9/d33/classslogo_1_1_u_i_1_1_main.html#a15b7f2e399ee24d160550993ab737e73" target="_top" xlink:title="slogo.UI.Main.start">
<polygon fill="white" stroke="black" points="1138,-27.5 1138,-46.5 1244,-46.5 1244,-27.5 1138,-27.5"/>
<text text-anchor="middle" x="1191" y="-34.5" font-family="Helvetica,sans-Serif" font-size="10.00">slogo.UI.Main.start</text>
</a>
</g>
</g>
<!-- Node5&#45;&gt;Node6 -->
<g id="edge5" class="edge"><title>Node5&#45;&gt;Node6</title>
<path fill="none" stroke="midnightblue" d="M1111.8,-37C1120.76,-37 1129.53,-37 1137.76,-37"/>
<polygon fill="midnightblue" stroke="midnightblue" points="1111.63,-33.5001 1101.63,-37 1111.63,-40.5001 1111.63,-33.5001"/>
</g>
<!-- Node7 -->
<g id="node7" class="node"><title>Node7</title>
<g id="a_node7"><a xlink:href="../../db/d19/classslogo_1_1_u_i_1_1_module_creation_helper.html#a3be12a7cc2b8a219db1e296211a2cb88" target="_top" xlink:title="slogo.UI.ModuleCreationHelper.activate\lExtraWorkspaceButton">
<polygon fill="white" stroke="black" points="1280.5,-22 1280.5,-52 1485.5,-52 1485.5,-22 1280.5,-22"/>
<text text-anchor="start" x="1288.5" y="-40" font-family="Helvetica,sans-Serif" font-size="10.00">slogo.UI.ModuleCreationHelper.activate</text>
<text text-anchor="middle" x="1383" y="-29" font-family="Helvetica,sans-Serif" font-size="10.00">ExtraWorkspaceButton</text>
</a>
</g>
</g>
<!-- Node6&#45;&gt;Node7 -->
<g id="edge6" class="edge"><title>Node6&#45;&gt;Node7</title>
<path fill="none" stroke="midnightblue" d="M1254.22,-37C1262.63,-37 1271.44,-37 1280.32,-37"/>
<polygon fill="midnightblue" stroke="midnightblue" points="1254.17,-33.5001 1244.17,-37 1254.17,-40.5001 1254.17,-33.5001"/>
</g>
<!-- Node8 -->
<g id="node8" class="node"><title>Node8</title>
<g id="a_node8"><a xlink:href="../../db/d19/classslogo_1_1_u_i_1_1_module_creation_helper.html#a702c1ebe24d2857a10c666eb1fcc315d" target="_top" xlink:title="slogo.UI.ModuleCreationHelper.create\lExtraWorkspaceButton">
<polygon fill="white" stroke="black" points="1522.5,-0 1522.5,-30 1719.5,-30 1719.5,-0 1522.5,-0"/>
<text text-anchor="start" x="1530.5" y="-18" font-family="Helvetica,sans-Serif" font-size="10.00">slogo.UI.ModuleCreationHelper.create</text>
<text text-anchor="middle" x="1621" y="-7" font-family="Helvetica,sans-Serif" font-size="10.00">ExtraWorkspaceButton</text>
</a>
</g>
</g>
<!-- Node7&#45;&gt;Node8 -->
<g id="edge7" class="edge"><title>Node7&#45;&gt;Node8</title>
<path fill="none" stroke="midnightblue" d="M1495.77,-26.5812C1504.62,-25.7556 1513.52,-24.9257 1522.27,-24.1101"/>
<polygon fill="midnightblue" stroke="midnightblue" points="1495.43,-23.0972 1485.8,-27.5104 1496.08,-30.067 1495.43,-23.0972"/>
</g>
<!-- Node8&#45;&gt;Node4 -->
<g id="edge8" class="edge"><title>Node8&#45;&gt;Node4</title>
<path fill="none" stroke="midnightblue" d="M1512.27,-12.3776C1503.38,-12.2253 1494.54,-12.0956 1486,-12 1227.35,-9.10502 1162.65,-9.10502 904,-12 892.25,-12.1315 879.921,-12.3279 867.699,-12.5584"/>
<polygon fill="midnightblue" stroke="midnightblue" points="1512.24,-15.8776 1522.3,-12.5584 1512.37,-8.87874 1512.24,-15.8776"/>
</g>
</g>
</svg>
