<?xml version="1.0" encoding="UTF-8" standalone="no"?>
<!DOCTYPE svg PUBLIC "-//W3C//DTD SVG 1.1//EN"
 "http://www.w3.org/Graphics/SVG/1.1/DTD/svg11.dtd">
<!-- Generated by graphviz version 2.36.0 (20140111.2315)
 -->
<!-- Title: slogo.frontend.Config.ConfigHashMapCreator.setVariableMap Pages: 1 -->
<svg width="1744pt" height="60pt"
 viewBox="0.00 0.00 1744.00 60.00" xmlns="http://www.w3.org/2000/svg" xmlns:xlink="http://www.w3.org/1999/xlink">
<g id="graph0" class="graph" transform="scale(1 1) rotate(0) translate(4 56)">
<title>slogo.frontend.Config.ConfigHashMapCreator.setVariableMap</title>
<polygon fill="white" stroke="none" points="-4,4 -4,-56 1740,-56 1740,4 -4,4"/>
<!-- Node1 -->
<g id="node1" class="node"><title>Node1</title>
<polygon fill="#bfbfbf" stroke="black" points="0.5,-0 0.5,-30 173.5,-30 173.5,-0 0.5,-0"/>
<text text-anchor="start" x="8.5" y="-18" font-family="Helvetica,sans-Serif" font-size="10.00">slogo.frontend.Config.Config</text>
<text text-anchor="middle" x="87" y="-7" font-family="Helvetica,sans-Serif" font-size="10.00">HashMapCreator.setVariableMap</text>
</g>
<!-- Node2 -->
<g id="node2" class="node"><title>Node2</title>
<g id="a_node2"><a xlink:href="../../db/d19/classslogo_1_1_u_i_1_1_module_creation_helper.html#a397d79a7f7d1aaf8f0db169e99728205" target="_top" xlink:title="slogo.UI.ModuleCreationHelper.activate\lSaveButton">
<polygon fill="white" stroke="black" points="210.5,-0 210.5,-30 415.5,-30 415.5,-0 210.5,-0"/>
<text text-anchor="start" x="218.5" y="-18" font-family="Helvetica,sans-Serif" font-size="10.00">slogo.UI.ModuleCreationHelper.activate</text>
<text text-anchor="middle" x="313" y="-7" font-family="Helvetica,sans-Serif" font-size="10.00">SaveButton</text>
</a>
</g>
</g>
<!-- Node1&#45;&gt;Node2 -->
<g id="edge1" class="edge"><title>Node1&#45;&gt;Node2</title>
<path fill="none" stroke="midnightblue" d="M183.84,-15C192.59,-15 201.474,-15 210.272,-15"/>
<polygon fill="midnightblue" stroke="midnightblue" points="183.644,-11.5001 173.644,-15 183.644,-18.5001 183.644,-11.5001"/>
</g>
<!-- Node3 -->
<g id="node3" class="node"><title>Node3</title>
<g id="a_node3"><a xlink:href="../../db/d19/classslogo_1_1_u_i_1_1_module_creation_helper.html#acdde1cf3a5282f70975d1e11b00b4d13" target="_top" xlink:title="slogo.UI.ModuleCreationHelper.create\lSaveButton">
<polygon fill="white" stroke="black" points="452.5,-0 452.5,-30 649.5,-30 649.5,-0 452.5,-0"/>
<text text-anchor="start" x="460.5" y="-18" font-family="Helvetica,sans-Serif" font-size="10.00">slogo.UI.ModuleCreationHelper.create</text>
<text text-anchor="middle" x="551" y="-7" font-family="Helvetica,sans-Serif" font-size="10.00">SaveButton</text>
</a>
</g>
</g>
<!-- Node2&#45;&gt;Node3 -->
<g id="edge2" class="edge"><title>Node2&#45;&gt;Node3</title>
<path fill="none" stroke="midnightblue" d="M426.051,-15C434.813,-15 443.618,-15 452.274,-15"/>
<polygon fill="midnightblue" stroke="midnightblue" points="425.798,-11.5001 415.798,-15 425.798,-18.5001 425.798,-11.5001"/>
</g>
<!-- Node4 -->
<g id="node4" class="node"><title>Node4</title>
<g id="a_node4"><a xlink:href="../../db/d19/classslogo_1_1_u_i_1_1_module_creation_helper.html#a7c650957b2389d6e6d36e8be8a33cd2b" target="_top" xlink:title="slogo.UI.ModuleCreationHelper.create\lSelectorVBoxModules">
<polygon fill="white" stroke="black" points="686.5,-0 686.5,-30 883.5,-30 883.5,-0 686.5,-0"/>
<text text-anchor="start" x="694.5" y="-18" font-family="Helvetica,sans-Serif" font-size="10.00">slogo.UI.ModuleCreationHelper.create</text>
<text text-anchor="middle" x="785" y="-7" font-family="Helvetica,sans-Serif" font-size="10.00">SelectorVBoxModules</text>
</a>
</g>
</g>
<!-- Node3&#45;&gt;Node4 -->
<g id="edge3" class="edge"><title>Node3&#45;&gt;Node4</title>
<path fill="none" stroke="midnightblue" d="M659.722,-15C668.618,-15 677.58,-15 686.396,-15"/>
<polygon fill="midnightblue" stroke="midnightblue" points="659.717,-11.5001 649.716,-15 659.716,-18.5001 659.717,-11.5001"/>
</g>
<!-- Node5 -->
<g id="node5" class="node"><title>Node5</title>
<g id="a_node5"><a xlink:href="../../db/d19/classslogo_1_1_u_i_1_1_module_creation_helper.html#afb9dbbbad7d872234a5b296fe129a34e" target="_top" xlink:title="slogo.UI.ModuleCreationHelper.create\lMainPageModules">
<polygon fill="white" stroke="black" points="920.5,-22 920.5,-52 1117.5,-52 1117.5,-22 920.5,-22"/>
<text text-anchor="start" x="928.5" y="-40" font-family="Helvetica,sans-Serif" font-size="10.00">slogo.UI.ModuleCreationHelper.create</text>
<text text-anchor="middle" x="1019" y="-29" font-family="Helvetica,sans-Serif" font-size="10.00">MainPageModules</text>
</a>
</g>
</g>
<!-- Node4&#45;&gt;Node5 -->
<g id="edge4" class="edge"><title>Node4&#45;&gt;Node5</title>
<path fill="none" stroke="midnightblue" d="M893.722,-25.215C902.618,-26.0586 911.58,-26.9085 920.396,-27.7445"/>
<polygon fill="midnightblue" stroke="midnightblue" points="894.002,-21.726 883.716,-24.2662 893.341,-28.6947 894.002,-21.726"/>
</g>
<!-- Node6 -->
<g id="node6" class="node"><title>Node6</title>
<g id="a_node6"><a xlink:href="../../d9/d33/classslogo_1_1_u_i_1_1_main.html#a15b7f2e399ee24d160550993ab737e73" target="_top" xlink:title="slogo.UI.Main.start">
<polygon fill="white" stroke="black" points="1154,-27.5 1154,-46.5 1260,-46.5 1260,-27.5 1154,-27.5"/>
<text text-anchor="middle" x="1207" y="-34.5" font-family="Helvetica,sans-Serif" font-size="10.00">slogo.UI.Main.start</text>
</a>
</g>
</g>
<!-- Node5&#45;&gt;Node6 -->
<g id="edge5" class="edge"><title>Node5&#45;&gt;Node6</title>
<path fill="none" stroke="midnightblue" d="M1127.8,-37C1136.76,-37 1145.53,-37 1153.76,-37"/>
<polygon fill="midnightblue" stroke="midnightblue" points="1127.63,-33.5001 1117.63,-37 1127.63,-40.5001 1127.63,-33.5001"/>
</g>
<!-- Node7 -->
<g id="node7" class="node"><title>Node7</title>
<g id="a_node7"><a xlink:href="../../db/d19/classslogo_1_1_u_i_1_1_module_creation_helper.html#a3be12a7cc2b8a219db1e296211a2cb88" target="_top" xlink:title="slogo.UI.ModuleCreationHelper.activate\lExtraWorkspaceButton">
<polygon fill="white" stroke="black" points="1296.5,-22 1296.5,-52 1501.5,-52 1501.5,-22 1296.5,-22"/>
<text text-anchor="start" x="1304.5" y="-40" font-family="Helvetica,sans-Serif" font-size="10.00">slogo.UI.ModuleCreationHelper.activate</text>
<text text-anchor="middle" x="1399" y="-29" font-family="Helvetica,sans-Serif" font-size="10.00">ExtraWorkspaceButton</text>
</a>
</g>
</g>
<!-- Node6&#45;&gt;Node7 -->
<g id="edge6" class="edge"><title>Node6&#45;&gt;Node7</title>
<path fill="none" stroke="midnightblue" d="M1270.22,-37C1278.63,-37 1287.44,-37 1296.32,-37"/>
<polygon fill="midnightblue" stroke="midnightblue" points="1270.17,-33.5001 1260.17,-37 1270.17,-40.5001 1270.17,-33.5001"/>
</g>
<!-- Node8 -->
<g id="node8" class="node"><title>Node8</title>
<g id="a_node8"><a xlink:href="../../db/d19/classslogo_1_1_u_i_1_1_module_creation_helper.html#a702c1ebe24d2857a10c666eb1fcc315d" target="_top" xlink:title="slogo.UI.ModuleCreationHelper.create\lExtraWorkspaceButton">
<polygon fill="white" stroke="black" points="1538.5,-0 1538.5,-30 1735.5,-30 1735.5,-0 1538.5,-0"/>
<text text-anchor="start" x="1546.5" y="-18" font-family="Helvetica,sans-Serif" font-size="10.00">slogo.UI.ModuleCreationHelper.create</text>
<text text-anchor="middle" x="1637" y="-7" font-family="Helvetica,sans-Serif" font-size="10.00">ExtraWorkspaceButton</text>
</a>
</g>
</g>
<!-- Node7&#45;&gt;Node8 -->
<g id="edge7" class="edge"><title>Node7&#45;&gt;Node8</title>
<path fill="none" stroke="midnightblue" d="M1511.77,-26.5812C1520.62,-25.7556 1529.52,-24.9257 1538.27,-24.1101"/>
<polygon fill="midnightblue" stroke="midnightblue" points="1511.43,-23.0972 1501.8,-27.5104 1512.08,-30.067 1511.43,-23.0972"/>
</g>
<!-- Node8&#45;&gt;Node4 -->
<g id="edge8" class="edge"><title>Node8&#45;&gt;Node4</title>
<path fill="none" stroke="midnightblue" d="M1528.27,-12.3776C1519.38,-12.2253 1510.54,-12.0956 1502,-12 1243.35,-9.10502 1178.65,-9.10502 920,-12 908.25,-12.1315 895.921,-12.3279 883.699,-12.5584"/>
<polygon fill="midnightblue" stroke="midnightblue" points="1528.24,-15.8776 1538.3,-12.5584 1528.37,-8.87874 1528.24,-15.8776"/>
</g>
</g>
</svg>
