<?xml version="1.0" encoding="UTF-8" standalone="no"?>
<!DOCTYPE svg PUBLIC "-//W3C//DTD SVG 1.1//EN"
 "http://www.w3.org/Graphics/SVG/1.1/DTD/svg11.dtd">
<!-- Generated by graphviz version 2.36.0 (20140111.2315)
 -->
<!-- Title: slogo.frontend.Config.ConfigHashMapCreator.fromIntToString Pages: 1 -->
<svg width="1960pt" height="60pt"
 viewBox="0.00 0.00 1960.00 60.00" xmlns="http://www.w3.org/2000/svg" xmlns:xlink="http://www.w3.org/1999/xlink">
<g id="graph0" class="graph" transform="scale(1 1) rotate(0) translate(4 56)">
<title>slogo.frontend.Config.ConfigHashMapCreator.fromIntToString</title>
<polygon fill="white" stroke="none" points="-4,4 -4,-56 1956,-56 1956,4 -4,4"/>
<!-- Node1 -->
<g id="node1" class="node"><title>Node1</title>
<polygon fill="#bfbfbf" stroke="black" points="0.5,-0 0.5,-30 173.5,-30 173.5,-0 0.5,-0"/>
<text text-anchor="start" x="8.5" y="-18" font-family="Helvetica,sans-Serif" font-size="10.00">slogo.frontend.Config.Config</text>
<text text-anchor="middle" x="87" y="-7" font-family="Helvetica,sans-Serif" font-size="10.00">HashMapCreator.fromIntToString</text>
</g>
<!-- Node2 -->
<g id="node2" class="node"><title>Node2</title>
<g id="a_node2"><a xlink:href="../../db/d10/classslogo_1_1frontend_1_1_config_1_1_config_hash_map_creator.html#a22753815aaa14900f14ef222ec563268" target="_top" xlink:title="slogo.frontend.Config.Config\lHashMapCreator.setNumOfTurtles">
<polygon fill="white" stroke="black" points="210.5,-0 210.5,-30 389.5,-30 389.5,-0 210.5,-0"/>
<text text-anchor="start" x="218.5" y="-18" font-family="Helvetica,sans-Serif" font-size="10.00">slogo.frontend.Config.Config</text>
<text text-anchor="middle" x="300" y="-7" font-family="Helvetica,sans-Serif" font-size="10.00">HashMapCreator.setNumOfTurtles</text>
</a>
</g>
</g>
<!-- Node1&#45;&gt;Node2 -->
<g id="edge1" class="edge"><title>Node1&#45;&gt;Node2</title>
<path fill="none" stroke="midnightblue" d="M183.519,-15C192.425,-15 201.427,-15 210.268,-15"/>
<polygon fill="midnightblue" stroke="midnightblue" points="183.518,-11.5001 173.518,-15 183.518,-18.5001 183.518,-11.5001"/>
</g>
<!-- Node3 -->
<g id="node3" class="node"><title>Node3</title>
<g id="a_node3"><a xlink:href="../../db/d19/classslogo_1_1_u_i_1_1_module_creation_helper.html#a397d79a7f7d1aaf8f0db169e99728205" target="_top" xlink:title="slogo.UI.ModuleCreationHelper.activate\lSaveButton">
<polygon fill="white" stroke="black" points="426.5,-0 426.5,-30 631.5,-30 631.5,-0 426.5,-0"/>
<text text-anchor="start" x="434.5" y="-18" font-family="Helvetica,sans-Serif" font-size="10.00">slogo.UI.ModuleCreationHelper.activate</text>
<text text-anchor="middle" x="529" y="-7" font-family="Helvetica,sans-Serif" font-size="10.00">SaveButton</text>
</a>
</g>
</g>
<!-- Node2&#45;&gt;Node3 -->
<g id="edge2" class="edge"><title>Node2&#45;&gt;Node3</title>
<path fill="none" stroke="midnightblue" d="M399.89,-15C408.594,-15 417.414,-15 426.141,-15"/>
<polygon fill="midnightblue" stroke="midnightblue" points="399.739,-11.5001 389.739,-15 399.739,-18.5001 399.739,-11.5001"/>
</g>
<!-- Node4 -->
<g id="node4" class="node"><title>Node4</title>
<g id="a_node4"><a xlink:href="../../db/d19/classslogo_1_1_u_i_1_1_module_creation_helper.html#acdde1cf3a5282f70975d1e11b00b4d13" target="_top" xlink:title="slogo.UI.ModuleCreationHelper.create\lSaveButton">
<polygon fill="white" stroke="black" points="668.5,-0 668.5,-30 865.5,-30 865.5,-0 668.5,-0"/>
<text text-anchor="start" x="676.5" y="-18" font-family="Helvetica,sans-Serif" font-size="10.00">slogo.UI.ModuleCreationHelper.create</text>
<text text-anchor="middle" x="767" y="-7" font-family="Helvetica,sans-Serif" font-size="10.00">SaveButton</text>
</a>
</g>
</g>
<!-- Node3&#45;&gt;Node4 -->
<g id="edge3" class="edge"><title>Node3&#45;&gt;Node4</title>
<path fill="none" stroke="midnightblue" d="M642.051,-15C650.813,-15 659.618,-15 668.274,-15"/>
<polygon fill="midnightblue" stroke="midnightblue" points="641.798,-11.5001 631.798,-15 641.798,-18.5001 641.798,-11.5001"/>
</g>
<!-- Node5 -->
<g id="node5" class="node"><title>Node5</title>
<g id="a_node5"><a xlink:href="../../db/d19/classslogo_1_1_u_i_1_1_module_creation_helper.html#a7c650957b2389d6e6d36e8be8a33cd2b" target="_top" xlink:title="slogo.UI.ModuleCreationHelper.create\lSelectorVBoxModules">
<polygon fill="white" stroke="black" points="902.5,-0 902.5,-30 1099.5,-30 1099.5,-0 902.5,-0"/>
<text text-anchor="start" x="910.5" y="-18" font-family="Helvetica,sans-Serif" font-size="10.00">slogo.UI.ModuleCreationHelper.create</text>
<text text-anchor="middle" x="1001" y="-7" font-family="Helvetica,sans-Serif" font-size="10.00">SelectorVBoxModules</text>
</a>
</g>
</g>
<!-- Node4&#45;&gt;Node5 -->
<g id="edge4" class="edge"><title>Node4&#45;&gt;Node5</title>
<path fill="none" stroke="midnightblue" d="M875.722,-15C884.618,-15 893.58,-15 902.396,-15"/>
<polygon fill="midnightblue" stroke="midnightblue" points="875.717,-11.5001 865.716,-15 875.716,-18.5001 875.717,-11.5001"/>
</g>
<!-- Node6 -->
<g id="node6" class="node"><title>Node6</title>
<g id="a_node6"><a xlink:href="../../db/d19/classslogo_1_1_u_i_1_1_module_creation_helper.html#afb9dbbbad7d872234a5b296fe129a34e" target="_top" xlink:title="slogo.UI.ModuleCreationHelper.create\lMainPageModules">
<polygon fill="white" stroke="black" points="1136.5,-22 1136.5,-52 1333.5,-52 1333.5,-22 1136.5,-22"/>
<text text-anchor="start" x="1144.5" y="-40" font-family="Helvetica,sans-Serif" font-size="10.00">slogo.UI.ModuleCreationHelper.create</text>
<text text-anchor="middle" x="1235" y="-29" font-family="Helvetica,sans-Serif" font-size="10.00">MainPageModules</text>
</a>
</g>
</g>
<!-- Node5&#45;&gt;Node6 -->
<g id="edge5" class="edge"><title>Node5&#45;&gt;Node6</title>
<path fill="none" stroke="midnightblue" d="M1109.72,-25.215C1118.62,-26.0586 1127.58,-26.9085 1136.4,-27.7445"/>
<polygon fill="midnightblue" stroke="midnightblue" points="1110,-21.726 1099.72,-24.2662 1109.34,-28.6947 1110,-21.726"/>
</g>
<!-- Node7 -->
<g id="node7" class="node"><title>Node7</title>
<g id="a_node7"><a xlink:href="../../d9/d33/classslogo_1_1_u_i_1_1_main.html#a15b7f2e399ee24d160550993ab737e73" target="_top" xlink:title="slogo.UI.Main.start">
<polygon fill="white" stroke="black" points="1370,-27.5 1370,-46.5 1476,-46.5 1476,-27.5 1370,-27.5"/>
<text text-anchor="middle" x="1423" y="-34.5" font-family="Helvetica,sans-Serif" font-size="10.00">slogo.UI.Main.start</text>
</a>
</g>
</g>
<!-- Node6&#45;&gt;Node7 -->
<g id="edge6" class="edge"><title>Node6&#45;&gt;Node7</title>
<path fill="none" stroke="midnightblue" d="M1343.8,-37C1352.76,-37 1361.53,-37 1369.76,-37"/>
<polygon fill="midnightblue" stroke="midnightblue" points="1343.63,-33.5001 1333.63,-37 1343.63,-40.5001 1343.63,-33.5001"/>
</g>
<!-- Node8 -->
<g id="node8" class="node"><title>Node8</title>
<g id="a_node8"><a xlink:href="../../db/d19/classslogo_1_1_u_i_1_1_module_creation_helper.html#a3be12a7cc2b8a219db1e296211a2cb88" target="_top" xlink:title="slogo.UI.ModuleCreationHelper.activate\lExtraWorkspaceButton">
<polygon fill="white" stroke="black" points="1512.5,-22 1512.5,-52 1717.5,-52 1717.5,-22 1512.5,-22"/>
<text text-anchor="start" x="1520.5" y="-40" font-family="Helvetica,sans-Serif" font-size="10.00">slogo.UI.ModuleCreationHelper.activate</text>
<text text-anchor="middle" x="1615" y="-29" font-family="Helvetica,sans-Serif" font-size="10.00">ExtraWorkspaceButton</text>
</a>
</g>
</g>
<!-- Node7&#45;&gt;Node8 -->
<g id="edge7" class="edge"><title>Node7&#45;&gt;Node8</title>
<path fill="none" stroke="midnightblue" d="M1486.22,-37C1494.63,-37 1503.44,-37 1512.32,-37"/>
<polygon fill="midnightblue" stroke="midnightblue" points="1486.17,-33.5001 1476.17,-37 1486.17,-40.5001 1486.17,-33.5001"/>
</g>
<!-- Node9 -->
<g id="node9" class="node"><title>Node9</title>
<g id="a_node9"><a xlink:href="../../db/d19/classslogo_1_1_u_i_1_1_module_creation_helper.html#a702c1ebe24d2857a10c666eb1fcc315d" target="_top" xlink:title="slogo.UI.ModuleCreationHelper.create\lExtraWorkspaceButton">
<polygon fill="white" stroke="black" points="1754.5,-0 1754.5,-30 1951.5,-30 1951.5,-0 1754.5,-0"/>
<text text-anchor="start" x="1762.5" y="-18" font-family="Helvetica,sans-Serif" font-size="10.00">slogo.UI.ModuleCreationHelper.create</text>
<text text-anchor="middle" x="1853" y="-7" font-family="Helvetica,sans-Serif" font-size="10.00">ExtraWorkspaceButton</text>
</a>
</g>
</g>
<!-- Node8&#45;&gt;Node9 -->
<g id="edge8" class="edge"><title>Node8&#45;&gt;Node9</title>
<path fill="none" stroke="midnightblue" d="M1727.77,-26.5812C1736.62,-25.7556 1745.52,-24.9257 1754.27,-24.1101"/>
<polygon fill="midnightblue" stroke="midnightblue" points="1727.43,-23.0972 1717.8,-27.5104 1728.08,-30.067 1727.43,-23.0972"/>
</g>
<!-- Node9&#45;&gt;Node5 -->
<g id="edge9" class="edge"><title>Node9&#45;&gt;Node5</title>
<path fill="none" stroke="midnightblue" d="M1744.27,-12.3776C1735.38,-12.2253 1726.54,-12.0956 1718,-12 1459.35,-9.10502 1394.65,-9.10502 1136,-12 1124.25,-12.1315 1111.92,-12.3279 1099.7,-12.5584"/>
<polygon fill="midnightblue" stroke="midnightblue" points="1744.24,-15.8776 1754.3,-12.5584 1744.37,-8.87874 1744.24,-15.8776"/>
</g>
</g>
</svg>
