<?xml version="1.0" encoding="UTF-8" standalone="no"?>
<!DOCTYPE svg PUBLIC "-//W3C//DTD SVG 1.1//EN"
 "http://www.w3.org/Graphics/SVG/1.1/DTD/svg11.dtd">
<!-- Generated by graphviz version 2.36.0 (20140111.2315)
 -->
<!-- Title: slogo.UI.VBoxCreator.createVBoxScrollable Pages: 1 -->
<svg width="1480pt" height="87pt"
 viewBox="0.00 0.00 1480.00 87.00" xmlns="http://www.w3.org/2000/svg" xmlns:xlink="http://www.w3.org/1999/xlink">
<g id="graph0" class="graph" transform="scale(1 1) rotate(0) translate(4 83)">
<title>slogo.UI.VBoxCreator.createVBoxScrollable</title>
<polygon fill="white" stroke="none" points="-4,4 -4,-83 1476,-83 1476,4 -4,4"/>
<!-- Node1 -->
<g id="node1" class="node"><title>Node1</title>
<polygon fill="#bfbfbf" stroke="black" points="0,-24 0,-54 152,-54 152,-24 0,-24"/>
<text text-anchor="start" x="8" y="-42" font-family="Helvetica,sans-Serif" font-size="10.00">slogo.UI.VBoxCreator.create</text>
<text text-anchor="middle" x="76" y="-31" font-family="Helvetica,sans-Serif" font-size="10.00">VBoxScrollable</text>
</g>
<!-- Node2 -->
<g id="node2" class="node"><title>Node2</title>
<g id="a_node2"><a xlink:href="../../db/d19/classslogo_1_1_u_i_1_1_module_creation_helper.html#a6e38c15bc7b44e69bdf77d28d34d2ecf" target="_top" xlink:title="slogo.UI.ModuleCreationHelper.create\lListVBox">
<polygon fill="white" stroke="black" points="188.5,-49 188.5,-79 385.5,-79 385.5,-49 188.5,-49"/>
<text text-anchor="start" x="196.5" y="-67" font-family="Helvetica,sans-Serif" font-size="10.00">slogo.UI.ModuleCreationHelper.create</text>
<text text-anchor="middle" x="287" y="-56" font-family="Helvetica,sans-Serif" font-size="10.00">ListVBox</text>
</a>
</g>
</g>
<!-- Node1&#45;&gt;Node2 -->
<g id="edge1" class="edge"><title>Node1&#45;&gt;Node2</title>
<path fill="none" stroke="midnightblue" d="M162.145,-49.1848C170.735,-50.2123 179.506,-51.2615 188.214,-52.3032"/>
<polygon fill="midnightblue" stroke="midnightblue" points="162.503,-45.7028 152.159,-47.9903 161.672,-52.6533 162.503,-45.7028"/>
</g>
<!-- Node8 -->
<g id="node8" class="node"><title>Node8</title>
<g id="a_node8"><a xlink:href="../../db/d19/classslogo_1_1_u_i_1_1_module_creation_helper.html#a8f9b4027c734eecffc42662626b2e601" target="_top" xlink:title="slogo.UI.ModuleCreationHelper.create\lSelectorVBox">
<polygon fill="white" stroke="black" points="188.5,-0 188.5,-30 385.5,-30 385.5,-0 188.5,-0"/>
<text text-anchor="start" x="196.5" y="-18" font-family="Helvetica,sans-Serif" font-size="10.00">slogo.UI.ModuleCreationHelper.create</text>
<text text-anchor="middle" x="287" y="-7" font-family="Helvetica,sans-Serif" font-size="10.00">SelectorVBox</text>
</a>
</g>
</g>
<!-- Node1&#45;&gt;Node8 -->
<g id="edge8" class="edge"><title>Node1&#45;&gt;Node8</title>
<path fill="none" stroke="midnightblue" d="M162.145,-29.2226C170.735,-28.2362 179.506,-27.229 188.214,-26.229"/>
<polygon fill="midnightblue" stroke="midnightblue" points="161.694,-25.7513 152.159,-30.3694 162.493,-32.7056 161.694,-25.7513"/>
</g>
<!-- Node3 -->
<g id="node3" class="node"><title>Node3</title>
<g id="a_node3"><a xlink:href="../../db/d19/classslogo_1_1_u_i_1_1_module_creation_helper.html#afb9dbbbad7d872234a5b296fe129a34e" target="_top" xlink:title="slogo.UI.ModuleCreationHelper.create\lMainPageModules">
<polygon fill="white" stroke="black" points="422.5,-24 422.5,-54 619.5,-54 619.5,-24 422.5,-24"/>
<text text-anchor="start" x="430.5" y="-42" font-family="Helvetica,sans-Serif" font-size="10.00">slogo.UI.ModuleCreationHelper.create</text>
<text text-anchor="middle" x="521" y="-31" font-family="Helvetica,sans-Serif" font-size="10.00">MainPageModules</text>
</a>
</g>
</g>
<!-- Node2&#45;&gt;Node3 -->
<g id="edge2" class="edge"><title>Node2&#45;&gt;Node3</title>
<path fill="none" stroke="midnightblue" d="M395.722,-52.392C404.618,-51.4334 413.58,-50.4677 422.396,-49.5176"/>
<polygon fill="midnightblue" stroke="midnightblue" points="395.284,-48.9189 385.716,-53.4702 396.034,-55.8786 395.284,-48.9189"/>
</g>
<!-- Node4 -->
<g id="node4" class="node"><title>Node4</title>
<g id="a_node4"><a xlink:href="../../d9/d33/classslogo_1_1_u_i_1_1_main.html#a15b7f2e399ee24d160550993ab737e73" target="_top" xlink:title="slogo.UI.Main.start">
<polygon fill="white" stroke="black" points="656,-51.5 656,-70.5 762,-70.5 762,-51.5 656,-51.5"/>
<text text-anchor="middle" x="709" y="-58.5" font-family="Helvetica,sans-Serif" font-size="10.00">slogo.UI.Main.start</text>
</a>
</g>
</g>
<!-- Node3&#45;&gt;Node4 -->
<g id="edge3" class="edge"><title>Node3&#45;&gt;Node4</title>
<path fill="none" stroke="midnightblue" d="M629.804,-51.751C638.76,-52.8103 647.528,-53.8474 655.764,-54.8216"/>
<polygon fill="midnightblue" stroke="midnightblue" points="629.972,-48.2466 619.63,-50.5477 629.15,-55.1981 629.972,-48.2466"/>
</g>
<!-- Node5 -->
<g id="node5" class="node"><title>Node5</title>
<g id="a_node5"><a xlink:href="../../db/d19/classslogo_1_1_u_i_1_1_module_creation_helper.html#a3be12a7cc2b8a219db1e296211a2cb88" target="_top" xlink:title="slogo.UI.ModuleCreationHelper.activate\lExtraWorkspaceButton">
<polygon fill="white" stroke="black" points="798.5,-49 798.5,-79 1003.5,-79 1003.5,-49 798.5,-49"/>
<text text-anchor="start" x="806.5" y="-67" font-family="Helvetica,sans-Serif" font-size="10.00">slogo.UI.ModuleCreationHelper.activate</text>
<text text-anchor="middle" x="901" y="-56" font-family="Helvetica,sans-Serif" font-size="10.00">ExtraWorkspaceButton</text>
</a>
</g>
</g>
<!-- Node4&#45;&gt;Node5 -->
<g id="edge4" class="edge"><title>Node4&#45;&gt;Node5</title>
<path fill="none" stroke="midnightblue" d="M772.218,-61.9824C780.632,-62.1152 789.438,-62.2543 798.321,-62.3945"/>
<polygon fill="midnightblue" stroke="midnightblue" points="772.224,-58.4821 762.17,-61.8237 772.113,-65.4813 772.224,-58.4821"/>
</g>
<!-- Node6 -->
<g id="node6" class="node"><title>Node6</title>
<g id="a_node6"><a xlink:href="../../db/d19/classslogo_1_1_u_i_1_1_module_creation_helper.html#a702c1ebe24d2857a10c666eb1fcc315d" target="_top" xlink:title="slogo.UI.ModuleCreationHelper.create\lExtraWorkspaceButton">
<polygon fill="white" stroke="black" points="1040.5,-49 1040.5,-79 1237.5,-79 1237.5,-49 1040.5,-49"/>
<text text-anchor="start" x="1048.5" y="-67" font-family="Helvetica,sans-Serif" font-size="10.00">slogo.UI.ModuleCreationHelper.create</text>
<text text-anchor="middle" x="1139" y="-56" font-family="Helvetica,sans-Serif" font-size="10.00">ExtraWorkspaceButton</text>
</a>
</g>
</g>
<!-- Node5&#45;&gt;Node6 -->
<g id="edge5" class="edge"><title>Node5&#45;&gt;Node6</title>
<path fill="none" stroke="midnightblue" d="M1014.05,-64C1022.81,-64 1031.62,-64 1040.27,-64"/>
<polygon fill="midnightblue" stroke="midnightblue" points="1013.8,-60.5001 1003.8,-64 1013.8,-67.5001 1013.8,-60.5001"/>
</g>
<!-- Node7 -->
<g id="node7" class="node"><title>Node7</title>
<g id="a_node7"><a xlink:href="../../db/d19/classslogo_1_1_u_i_1_1_module_creation_helper.html#a7c650957b2389d6e6d36e8be8a33cd2b" target="_top" xlink:title="slogo.UI.ModuleCreationHelper.create\lSelectorVBoxModules">
<polygon fill="white" stroke="black" points="1274.5,-27 1274.5,-57 1471.5,-57 1471.5,-27 1274.5,-27"/>
<text text-anchor="start" x="1282.5" y="-45" font-family="Helvetica,sans-Serif" font-size="10.00">slogo.UI.ModuleCreationHelper.create</text>
<text text-anchor="middle" x="1373" y="-34" font-family="Helvetica,sans-Serif" font-size="10.00">SelectorVBoxModules</text>
</a>
</g>
</g>
<!-- Node6&#45;&gt;Node7 -->
<g id="edge6" class="edge"><title>Node6&#45;&gt;Node7</title>
<path fill="none" stroke="midnightblue" d="M1247.72,-53.785C1256.62,-52.9414 1265.58,-52.0915 1274.4,-51.2555"/>
<polygon fill="midnightblue" stroke="midnightblue" points="1247.34,-50.3053 1237.72,-54.7338 1248,-57.274 1247.34,-50.3053"/>
</g>
<!-- Node7&#45;&gt;Node3 -->
<g id="edge7" class="edge"><title>Node7&#45;&gt;Node3</title>
<path fill="none" stroke="midnightblue" d="M1264.27,-39.3776C1255.38,-39.2253 1246.54,-39.0956 1238,-39 1016.91,-36.5254 757.384,-37.4896 619.575,-38.3086"/>
<polygon fill="midnightblue" stroke="midnightblue" points="1264.24,-42.8776 1274.3,-39.5584 1264.37,-35.8787 1264.24,-42.8776"/>
</g>
<!-- Node8&#45;&gt;Node3 -->
<g id="edge9" class="edge"><title>Node8&#45;&gt;Node3</title>
<path fill="none" stroke="midnightblue" d="M395.722,-26.1436C404.618,-27.064 413.58,-27.991 422.396,-28.9031"/>
<polygon fill="midnightblue" stroke="midnightblue" points="396.024,-22.6563 385.716,-25.1086 395.303,-29.6191 396.024,-22.6563"/>
</g>
</g>
</svg>
