<?xml version="1.0" encoding="UTF-8" standalone="no"?>
<!DOCTYPE svg PUBLIC "-//W3C//DTD SVG 1.1//EN"
 "http://www.w3.org/Graphics/SVG/1.1/DTD/svg11.dtd">
<!-- Generated by graphviz version 2.36.0 (20140111.2315)
 -->
<!-- Title: slogo.UI.ListViewCreator.createListViewWithLabel Pages: 1 -->
<svg width="362pt" height="38pt"
 viewBox="0.00 0.00 362.00 38.00" xmlns="http://www.w3.org/2000/svg" xmlns:xlink="http://www.w3.org/1999/xlink">
<g id="graph0" class="graph" transform="scale(1 1) rotate(0) translate(4 34)">
<title>slogo.UI.ListViewCreator.createListViewWithLabel</title>
<polygon fill="white" stroke="none" points="-4,4 -4,-34 358,-34 358,4 -4,4"/>
<!-- Node1 -->
<g id="node1" class="node"><title>Node1</title>
<polygon fill="#bfbfbf" stroke="black" points="0.5,-0 0.5,-30 165.5,-30 165.5,-0 0.5,-0"/>
<text text-anchor="start" x="8.5" y="-18" font-family="Helvetica,sans-Serif" font-size="10.00">slogo.UI.ListViewCreator.create</text>
<text text-anchor="middle" x="83" y="-7" font-family="Helvetica,sans-Serif" font-size="10.00">ListViewWithLabel</text>
</g>
<!-- Node2 -->
<g id="node2" class="node"><title>Node2</title>
<g id="a_node2"><a xlink:href="../../d7/d0e/classslogo_1_1_u_i_1_1_label_creator.html#a9ca0989ecfc0037d473dd3d2e8ead74f" target="_top" xlink:title="slogo.UI.LabelCreator.create\lLabel">
<polygon fill="white" stroke="black" points="202,-0 202,-30 354,-30 354,-0 202,-0"/>
<text text-anchor="start" x="210" y="-18" font-family="Helvetica,sans-Serif" font-size="10.00">slogo.UI.LabelCreator.create</text>
<text text-anchor="middle" x="278" y="-7" font-family="Helvetica,sans-Serif" font-size="10.00">Label</text>
</a>
</g>
</g>
<!-- Node1&#45;&gt;Node2 -->
<g id="edge1" class="edge"><title>Node1&#45;&gt;Node2</title>
<path fill="none" stroke="midnightblue" d="M165.57,-15C174.221,-15 183.037,-15 191.729,-15"/>
<polygon fill="midnightblue" stroke="midnightblue" points="191.859,-18.5001 201.859,-15 191.859,-11.5001 191.859,-18.5001"/>
</g>
</g>
</svg>
