<?xml version="1.0" encoding="UTF-8" standalone="no"?>
<!DOCTYPE svg PUBLIC "-//W3C//DTD SVG 1.1//EN"
 "http://www.w3.org/Graphics/SVG/1.1/DTD/svg11.dtd">
<!-- Generated by graphviz version 2.36.0 (20140111.2315)
 -->
<!-- Title: slogo.UI.ListViewCreator.createListViewWithLabel Pages: 1 -->
<svg width="1950pt" height="153pt"
 viewBox="0.00 0.00 1950.00 153.00" xmlns="http://www.w3.org/2000/svg" xmlns:xlink="http://www.w3.org/1999/xlink">
<g id="graph0" class="graph" transform="scale(1 1) rotate(0) translate(4 149)">
<title>slogo.UI.ListViewCreator.createListViewWithLabel</title>
<polygon fill="white" stroke="none" points="-4,4 -4,-149 1946,-149 1946,4 -4,4"/>
<!-- Node1 -->
<g id="node1" class="node"><title>Node1</title>
<polygon fill="#bfbfbf" stroke="black" points="0.5,-52 0.5,-82 165.5,-82 165.5,-52 0.5,-52"/>
<text text-anchor="start" x="8.5" y="-70" font-family="Helvetica,sans-Serif" font-size="10.00">slogo.UI.ListViewCreator.create</text>
<text text-anchor="middle" x="83" y="-59" font-family="Helvetica,sans-Serif" font-size="10.00">ListViewWithLabel</text>
</g>
<!-- Node2 -->
<g id="node2" class="node"><title>Node2</title>
<g id="a_node2"><a xlink:href="../../db/dc0/classslogo_1_1_u_i_1_1_list_view_all_s_l_o_g_o.html#a5c010e0c2ee827d63a0990c92add658d" target="_top" xlink:title="slogo.UI.ListViewAllSLOGO.create\lListView">
<polygon fill="white" stroke="black" points="202.5,-52 202.5,-82 377.5,-82 377.5,-52 202.5,-52"/>
<text text-anchor="start" x="210.5" y="-70" font-family="Helvetica,sans-Serif" font-size="10.00">slogo.UI.ListViewAllSLOGO.create</text>
<text text-anchor="middle" x="290" y="-59" font-family="Helvetica,sans-Serif" font-size="10.00">ListView</text>
</a>
</g>
</g>
<!-- Node1&#45;&gt;Node2 -->
<g id="edge1" class="edge"><title>Node1&#45;&gt;Node2</title>
<path fill="none" stroke="midnightblue" d="M175.865,-67C184.655,-67 193.55,-67 202.289,-67"/>
<polygon fill="midnightblue" stroke="midnightblue" points="175.61,-63.5001 165.61,-67 175.61,-70.5001 175.61,-63.5001"/>
</g>
<!-- Node3 -->
<g id="node3" class="node"><title>Node3</title>
<g id="a_node3"><a xlink:href="../../de/d1a/classslogo_1_1_u_i_1_1_list_view_previous_commands.html#a539b4f10c0510a43263276fc23d742c8" target="_top" xlink:title="slogo.UI.ListViewPrevious\lCommands.create">
<polygon fill="white" stroke="black" points="449.5,-115 449.5,-145 586.5,-145 586.5,-115 449.5,-115"/>
<text text-anchor="start" x="457.5" y="-133" font-family="Helvetica,sans-Serif" font-size="10.00">slogo.UI.ListViewPrevious</text>
<text text-anchor="middle" x="518" y="-122" font-family="Helvetica,sans-Serif" font-size="10.00">Commands.create</text>
</a>
</g>
</g>
<!-- Node2&#45;&gt;Node3 -->
<g id="edge2" class="edge"><title>Node2&#45;&gt;Node3</title>
<path fill="none" stroke="midnightblue" d="M346.937,-85.0773C367.891,-91.6387 391.958,-98.9262 414,-105 426.329,-108.397 439.556,-111.793 452.283,-114.937"/>
<polygon fill="midnightblue" stroke="midnightblue" points="347.826,-81.6878 337.236,-82.0223 345.723,-88.3646 347.826,-81.6878"/>
</g>
<!-- Node10 -->
<g id="node10" class="node"><title>Node10</title>
<g id="a_node10"><a xlink:href="../../d3/df5/classslogo_1_1_u_i_1_1_list_view_user_variables.html#a9daee622bf33651d8ae9c07779f4973c" target="_top" xlink:title="slogo.UI.ListViewUserVariables.create">
<polygon fill="white" stroke="black" points="420,-76.5 420,-95.5 616,-95.5 616,-76.5 420,-76.5"/>
<text text-anchor="middle" x="518" y="-83.5" font-family="Helvetica,sans-Serif" font-size="10.00">slogo.UI.ListViewUserVariables.create</text>
</a>
</g>
</g>
<!-- Node2&#45;&gt;Node10 -->
<g id="edge10" class="edge"><title>Node2&#45;&gt;Node10</title>
<path fill="none" stroke="midnightblue" d="M387.855,-75.1427C398.49,-76.0368 409.32,-76.9472 419.957,-77.8415"/>
<polygon fill="midnightblue" stroke="midnightblue" points="387.989,-71.6417 377.731,-74.2916 387.403,-78.6171 387.989,-71.6417"/>
</g>
<!-- Node11 -->
<g id="node11" class="node"><title>Node11</title>
<g id="a_node11"><a xlink:href="../../de/d37/classslogo_1_1_u_i_1_1_list_view_user_commands.html#ac8197870dd939ccc8b43744a50d52044" target="_top" xlink:title="slogo.UI.ListViewUserCommands.create">
<polygon fill="white" stroke="black" points="414,-38.5 414,-57.5 622,-57.5 622,-38.5 414,-38.5"/>
<text text-anchor="middle" x="518" y="-45.5" font-family="Helvetica,sans-Serif" font-size="10.00">slogo.UI.ListViewUserCommands.create</text>
</a>
</g>
</g>
<!-- Node2&#45;&gt;Node11 -->
<g id="edge12" class="edge"><title>Node2&#45;&gt;Node11</title>
<path fill="none" stroke="midnightblue" d="M387.793,-58.8625C396.425,-58.1368 405.186,-57.4003 413.869,-56.6703"/>
<polygon fill="midnightblue" stroke="midnightblue" points="387.403,-55.3829 377.731,-59.7084 387.989,-62.3583 387.403,-55.3829"/>
</g>
<!-- Node12 -->
<g id="node12" class="node"><title>Node12</title>
<g id="a_node12"><a xlink:href="../../dc/d95/classslogo_1_1_u_i_1_1_list_view_s_l_o_g_o_variables.html#a9876b72a9b2e6a0887b385834e8e93b6" target="_top" xlink:title="slogo.UI.ListViewSLOGOVariables.create">
<polygon fill="white" stroke="black" points="414,-0.5 414,-19.5 622,-19.5 622,-0.5 414,-0.5"/>
<text text-anchor="middle" x="518" y="-7.5" font-family="Helvetica,sans-Serif" font-size="10.00">slogo.UI.ListViewSLOGOVariables.create</text>
</a>
</g>
</g>
<!-- Node2&#45;&gt;Node12 -->
<g id="edge14" class="edge"><title>Node2&#45;&gt;Node12</title>
<path fill="none" stroke="midnightblue" d="M344.891,-48.8512C366.252,-42.0522 391.132,-34.6211 414,-29 428.391,-25.4625 444.059,-22.2517 458.731,-19.5181"/>
<polygon fill="midnightblue" stroke="midnightblue" points="343.791,-45.5281 335.343,-51.9218 345.935,-52.1919 343.791,-45.5281"/>
</g>
<!-- Node4 -->
<g id="node4" class="node"><title>Node4</title>
<g id="a_node4"><a xlink:href="../../db/d19/classslogo_1_1_u_i_1_1_module_creation_helper.html#af4fd617bc69e5e9986e2634bc7f30d7d" target="_top" xlink:title="slogo.UI.ModuleCreationHelper.create\lListViews">
<polygon fill="white" stroke="black" points="658.5,-52 658.5,-82 855.5,-82 855.5,-52 658.5,-52"/>
<text text-anchor="start" x="666.5" y="-70" font-family="Helvetica,sans-Serif" font-size="10.00">slogo.UI.ModuleCreationHelper.create</text>
<text text-anchor="middle" x="757" y="-59" font-family="Helvetica,sans-Serif" font-size="10.00">ListViews</text>
</a>
</g>
</g>
<!-- Node3&#45;&gt;Node4 -->
<g id="edge3" class="edge"><title>Node3&#45;&gt;Node4</title>
<path fill="none" stroke="midnightblue" d="M592.444,-112.538C602.393,-110.066 612.457,-107.51 622,-105 649.361,-97.8027 679.702,-89.2468 704.584,-82.0776"/>
<polygon fill="midnightblue" stroke="midnightblue" points="591.428,-109.183 582.557,-114.977 593.104,-115.979 591.428,-109.183"/>
</g>
<!-- Node5 -->
<g id="node5" class="node"><title>Node5</title>
<g id="a_node5"><a xlink:href="../../db/d19/classslogo_1_1_u_i_1_1_module_creation_helper.html#afb9dbbbad7d872234a5b296fe129a34e" target="_top" xlink:title="slogo.UI.ModuleCreationHelper.create\lMainPageModules">
<polygon fill="white" stroke="black" points="892.5,-52 892.5,-82 1089.5,-82 1089.5,-52 892.5,-52"/>
<text text-anchor="start" x="900.5" y="-70" font-family="Helvetica,sans-Serif" font-size="10.00">slogo.UI.ModuleCreationHelper.create</text>
<text text-anchor="middle" x="991" y="-59" font-family="Helvetica,sans-Serif" font-size="10.00">MainPageModules</text>
</a>
</g>
</g>
<!-- Node4&#45;&gt;Node5 -->
<g id="edge4" class="edge"><title>Node4&#45;&gt;Node5</title>
<path fill="none" stroke="midnightblue" d="M865.722,-67C874.618,-67 883.58,-67 892.396,-67"/>
<polygon fill="midnightblue" stroke="midnightblue" points="865.717,-63.5001 855.716,-67 865.716,-70.5001 865.717,-63.5001"/>
</g>
<!-- Node6 -->
<g id="node6" class="node"><title>Node6</title>
<g id="a_node6"><a xlink:href="../../d9/d33/classslogo_1_1_u_i_1_1_main.html#a15b7f2e399ee24d160550993ab737e73" target="_top" xlink:title="slogo.UI.Main.start">
<polygon fill="white" stroke="black" points="1126,-79.5 1126,-98.5 1232,-98.5 1232,-79.5 1126,-79.5"/>
<text text-anchor="middle" x="1179" y="-86.5" font-family="Helvetica,sans-Serif" font-size="10.00">slogo.UI.Main.start</text>
</a>
</g>
</g>
<!-- Node5&#45;&gt;Node6 -->
<g id="edge5" class="edge"><title>Node5&#45;&gt;Node6</title>
<path fill="none" stroke="midnightblue" d="M1099.8,-79.751C1108.76,-80.8103 1117.53,-81.8474 1125.76,-82.8216"/>
<polygon fill="midnightblue" stroke="midnightblue" points="1099.97,-76.2466 1089.63,-78.5477 1099.15,-83.1981 1099.97,-76.2466"/>
</g>
<!-- Node7 -->
<g id="node7" class="node"><title>Node7</title>
<g id="a_node7"><a xlink:href="../../db/d19/classslogo_1_1_u_i_1_1_module_creation_helper.html#a3be12a7cc2b8a219db1e296211a2cb88" target="_top" xlink:title="slogo.UI.ModuleCreationHelper.activate\lExtraWorkspaceButton">
<polygon fill="white" stroke="black" points="1268.5,-77 1268.5,-107 1473.5,-107 1473.5,-77 1268.5,-77"/>
<text text-anchor="start" x="1276.5" y="-95" font-family="Helvetica,sans-Serif" font-size="10.00">slogo.UI.ModuleCreationHelper.activate</text>
<text text-anchor="middle" x="1371" y="-84" font-family="Helvetica,sans-Serif" font-size="10.00">ExtraWorkspaceButton</text>
</a>
</g>
</g>
<!-- Node6&#45;&gt;Node7 -->
<g id="edge6" class="edge"><title>Node6&#45;&gt;Node7</title>
<path fill="none" stroke="midnightblue" d="M1242.22,-89.9824C1250.63,-90.1152 1259.44,-90.2543 1268.32,-90.3945"/>
<polygon fill="midnightblue" stroke="midnightblue" points="1242.22,-86.4821 1232.17,-89.8237 1242.11,-93.4813 1242.22,-86.4821"/>
</g>
<!-- Node8 -->
<g id="node8" class="node"><title>Node8</title>
<g id="a_node8"><a xlink:href="../../db/d19/classslogo_1_1_u_i_1_1_module_creation_helper.html#a702c1ebe24d2857a10c666eb1fcc315d" target="_top" xlink:title="slogo.UI.ModuleCreationHelper.create\lExtraWorkspaceButton">
<polygon fill="white" stroke="black" points="1510.5,-77 1510.5,-107 1707.5,-107 1707.5,-77 1510.5,-77"/>
<text text-anchor="start" x="1518.5" y="-95" font-family="Helvetica,sans-Serif" font-size="10.00">slogo.UI.ModuleCreationHelper.create</text>
<text text-anchor="middle" x="1609" y="-84" font-family="Helvetica,sans-Serif" font-size="10.00">ExtraWorkspaceButton</text>
</a>
</g>
</g>
<!-- Node7&#45;&gt;Node8 -->
<g id="edge7" class="edge"><title>Node7&#45;&gt;Node8</title>
<path fill="none" stroke="midnightblue" d="M1484.05,-92C1492.81,-92 1501.62,-92 1510.27,-92"/>
<polygon fill="midnightblue" stroke="midnightblue" points="1483.8,-88.5001 1473.8,-92 1483.8,-95.5001 1483.8,-88.5001"/>
</g>
<!-- Node9 -->
<g id="node9" class="node"><title>Node9</title>
<g id="a_node9"><a xlink:href="../../db/d19/classslogo_1_1_u_i_1_1_module_creation_helper.html#a7c650957b2389d6e6d36e8be8a33cd2b" target="_top" xlink:title="slogo.UI.ModuleCreationHelper.create\lSelectorVBoxModules">
<polygon fill="white" stroke="black" points="1744.5,-55 1744.5,-85 1941.5,-85 1941.5,-55 1744.5,-55"/>
<text text-anchor="start" x="1752.5" y="-73" font-family="Helvetica,sans-Serif" font-size="10.00">slogo.UI.ModuleCreationHelper.create</text>
<text text-anchor="middle" x="1843" y="-62" font-family="Helvetica,sans-Serif" font-size="10.00">SelectorVBoxModules</text>
</a>
</g>
</g>
<!-- Node8&#45;&gt;Node9 -->
<g id="edge8" class="edge"><title>Node8&#45;&gt;Node9</title>
<path fill="none" stroke="midnightblue" d="M1717.72,-81.785C1726.62,-80.9414 1735.58,-80.0915 1744.4,-79.2555"/>
<polygon fill="midnightblue" stroke="midnightblue" points="1717.34,-78.3053 1707.72,-82.7338 1718,-85.274 1717.34,-78.3053"/>
</g>
<!-- Node9&#45;&gt;Node5 -->
<g id="edge9" class="edge"><title>Node9&#45;&gt;Node5</title>
<path fill="none" stroke="midnightblue" d="M1734.26,-68.2649C1725.38,-68.1604 1716.54,-68.0697 1708,-68 1486.9,-66.1957 1227.38,-66.4159 1089.57,-66.7184"/>
<polygon fill="midnightblue" stroke="midnightblue" points="1734.26,-71.7649 1744.3,-68.3881 1734.34,-64.7655 1734.26,-71.7649"/>
</g>
<!-- Node10&#45;&gt;Node4 -->
<g id="edge11" class="edge"><title>Node10&#45;&gt;Node4</title>
<path fill="none" stroke="midnightblue" d="M626.265,-77.4007C636.939,-76.545 647.735,-75.6795 658.303,-74.8323"/>
<polygon fill="midnightblue" stroke="midnightblue" points="625.769,-73.9291 616.081,-78.2172 626.329,-80.9067 625.769,-73.9291"/>
</g>
<!-- Node11&#45;&gt;Node4 -->
<g id="edge13" class="edge"><title>Node11&#45;&gt;Node4</title>
<path fill="none" stroke="midnightblue" d="M632.405,-57.0915C641.069,-57.7861 649.769,-58.4836 658.32,-59.1691"/>
<polygon fill="midnightblue" stroke="midnightblue" points="632.51,-53.5888 622.262,-56.2784 631.951,-60.5664 632.51,-53.5888"/>
</g>
<!-- Node12&#45;&gt;Node4 -->
<g id="edge15" class="edge"><title>Node12&#45;&gt;Node4</title>
<path fill="none" stroke="midnightblue" d="M585.886,-21.3932C597.948,-23.7161 610.38,-26.2868 622,-29 650.493,-35.6525 681.987,-44.5057 707.28,-51.993"/>
<polygon fill="midnightblue" stroke="midnightblue" points="586.341,-17.9174 575.865,-19.5024 585.043,-24.796 586.341,-17.9174"/>
</g>
</g>
</svg>
