<?xml version="1.0" encoding="UTF-8" standalone="no"?>
<!DOCTYPE svg PUBLIC "-//W3C//DTD SVG 1.1//EN"
 "http://www.w3.org/Graphics/SVG/1.1/DTD/svg11.dtd">
<!-- Generated by graphviz version 2.36.0 (20140111.2315)
 -->
<!-- Title: slogo.backend.impl.util.TurtleStatus.Builder Pages: 1 -->
<svg width="576pt" height="242pt"
 viewBox="0.00 0.00 576.00 242.00" xmlns="http://www.w3.org/2000/svg" xmlns:xlink="http://www.w3.org/1999/xlink">
<g id="graph0" class="graph" transform="scale(1 1) rotate(0) translate(4 238)">
<title>slogo.backend.impl.util.TurtleStatus.Builder</title>
<polygon fill="white" stroke="none" points="-4,4 -4,-238 572,-238 572,4 -4,4"/>
<!-- Node1 -->
<g id="node1" class="node"><title>Node1</title>
<polygon fill="#bfbfbf" stroke="black" points="438.5,-99 438.5,-129 567.5,-129 567.5,-99 438.5,-99"/>
<text text-anchor="start" x="446.5" y="-117" font-family="Helvetica,sans-Serif" font-size="10.00">slogo.backend.impl.util.</text>
<text text-anchor="middle" x="503" y="-106" font-family="Helvetica,sans-Serif" font-size="10.00">TurtleStatus.Builder</text>
</g>
<!-- Node2 -->
<g id="node2" class="node"><title>Node2</title>
<g id="a_node2"><a xlink:href="../../da/dc2/interfaceslogo_1_1backend_1_1util_1_1_i_coordinates.html" target="_top" xlink:title="slogo.backend.util.ICoordinates">
<polygon fill="white" stroke="black" points="164,-214.5 164,-233.5 330,-233.5 330,-214.5 164,-214.5"/>
<text text-anchor="middle" x="247" y="-221.5" font-family="Helvetica,sans-Serif" font-size="10.00">slogo.backend.util.ICoordinates</text>
</a>
</g>
</g>
<!-- Node2&#45;&gt;Node1 -->
<g id="edge1" class="edge"><title>Node2&#45;&gt;Node1</title>
<path fill="none" stroke="#9a32cd" stroke-dasharray="5,2" d="M311.711,-212.188C345.152,-204.443 386.105,-192.459 420,-175 444.449,-162.406 469.352,-142.701 485.197,-129.112"/>
<polygon fill="#9a32cd" stroke="#9a32cd" points="310.582,-208.854 301.59,-214.456 312.113,-215.684 310.582,-208.854"/>
<text text-anchor="middle" x="384" y="-204" font-family="Helvetica,sans-Serif" font-size="10.00"> turtlePosition</text>
</g>
<!-- Node3 -->
<g id="node3" class="node"><title>Node3</title>
<g id="a_node3"><a xlink:href="../../d2/d25/classslogo_1_1backend_1_1impl_1_1util_1_1_qualities.html" target="_top" xlink:title="slogo.backend.impl.util.\lQualities">
<polygon fill="white" stroke="black" points="182.5,-165 182.5,-195 311.5,-195 311.5,-165 182.5,-165"/>
<text text-anchor="start" x="190.5" y="-183" font-family="Helvetica,sans-Serif" font-size="10.00">slogo.backend.impl.util.</text>
<text text-anchor="middle" x="247" y="-172" font-family="Helvetica,sans-Serif" font-size="10.00">Qualities</text>
</a>
</g>
</g>
<!-- Node3&#45;&gt;Node1 -->
<g id="edge2" class="edge"><title>Node3&#45;&gt;Node1</title>
<path fill="none" stroke="#9a32cd" stroke-dasharray="5,2" d="M321.883,-165.567C352.444,-159.108 388.121,-150.934 420,-142 433.471,-138.225 447.976,-133.497 460.987,-129.007"/>
<polygon fill="#9a32cd" stroke="#9a32cd" points="320.8,-162.217 311.728,-167.69 322.232,-169.069 320.8,-162.217"/>
<text text-anchor="middle" x="384" y="-163" font-family="Helvetica,sans-Serif" font-size="10.00"> turtleQualities</text>
</g>
<!-- Node4 -->
<g id="node4" class="node"><title>Node4</title>
<polygon fill="white" stroke="#bfbfbf" points="0.5,-170.5 0.5,-189.5 41.5,-189.5 41.5,-170.5 0.5,-170.5"/>
<text text-anchor="middle" x="21" y="-177.5" font-family="Helvetica,sans-Serif" font-size="10.00">Color</text>
</g>
<!-- Node4&#45;&gt;Node3 -->
<g id="edge3" class="edge"><title>Node4&#45;&gt;Node3</title>
<path fill="none" stroke="#9a32cd" stroke-dasharray="5,2" d="M52.2695,-180C85.4181,-180 139.533,-180 182.155,-180"/>
<polygon fill="#9a32cd" stroke="#9a32cd" points="51.8785,-176.5 41.8785,-180 51.8785,-183.5 51.8785,-176.5"/>
<text text-anchor="middle" x="103" y="-194" font-family="Helvetica,sans-Serif" font-size="10.00"> backgroundColor</text>
<text text-anchor="middle" x="103" y="-183" font-family="Helvetica,sans-Serif" font-size="10.00">pathColor</text>
</g>
<!-- Node5 -->
<g id="node5" class="node"><title>Node5</title>
<g id="a_node5"><a xlink:href="../../d9/d13/enumslogo_1_1backend_1_1util_1_1_visibility.html" target="_top" xlink:title="slogo.backend.util.Visibility">
<polygon fill="white" stroke="black" points="175,-126.5 175,-145.5 319,-145.5 319,-126.5 175,-126.5"/>
<text text-anchor="middle" x="247" y="-133.5" font-family="Helvetica,sans-Serif" font-size="10.00">slogo.backend.util.Visibility</text>
</a>
</g>
</g>
<!-- Node5&#45;&gt;Node1 -->
<g id="edge4" class="edge"><title>Node5&#45;&gt;Node1</title>
<path fill="none" stroke="#9a32cd" stroke-dasharray="5,2" d="M329.361,-128.953C364.619,-125.899 405.29,-122.376 438.298,-119.518"/>
<polygon fill="#9a32cd" stroke="#9a32cd" points="328.752,-125.493 319.091,-129.843 329.356,-132.466 328.752,-125.493"/>
<text text-anchor="middle" x="384" y="-130" font-family="Helvetica,sans-Serif" font-size="10.00"> turtleVisibility</text>
</g>
<!-- Node6 -->
<g id="node6" class="node"><title>Node6</title>
<polygon fill="white" stroke="#bfbfbf" points="180,-77 180,-107 314,-107 314,-77 180,-77"/>
<text text-anchor="start" x="188" y="-95" font-family="Helvetica,sans-Serif" font-size="10.00">List&lt; slogo.backend.util.</text>
<text text-anchor="middle" x="247" y="-84" font-family="Helvetica,sans-Serif" font-size="10.00">ILine &gt;</text>
</g>
<!-- Node6&#45;&gt;Node1 -->
<g id="edge5" class="edge"><title>Node6&#45;&gt;Node1</title>
<path fill="none" stroke="#9a32cd" stroke-dasharray="5,2" d="M324.166,-98.5971C360.627,-101.755 403.782,-105.493 438.449,-108.496"/>
<polygon fill="#9a32cd" stroke="#9a32cd" points="324.337,-95.0989 314.072,-97.7228 323.733,-102.073 324.337,-95.0989"/>
<text text-anchor="middle" x="384" y="-110" font-family="Helvetica,sans-Serif" font-size="10.00"> lineSequence</text>
</g>
<!-- Node7 -->
<g id="node7" class="node"><title>Node7</title>
<g id="a_node7"><a xlink:href="../../df/dee/enumslogo_1_1backend_1_1util_1_1_pen_state.html" target="_top" xlink:title="slogo.backend.util.PenState">
<polygon fill="white" stroke="black" points="172,-38.5 172,-57.5 322,-57.5 322,-38.5 172,-38.5"/>
<text text-anchor="middle" x="247" y="-45.5" font-family="Helvetica,sans-Serif" font-size="10.00">slogo.backend.util.PenState</text>
</a>
</g>
</g>
<!-- Node7&#45;&gt;Node1 -->
<g id="edge6" class="edge"><title>Node7&#45;&gt;Node1</title>
<path fill="none" stroke="#9a32cd" stroke-dasharray="5,2" d="M305.847,-59.6812C339.38,-66.8094 382.298,-76.544 420,-87 432.71,-90.5248 446.371,-94.8167 458.828,-98.9319"/>
<polygon fill="#9a32cd" stroke="#9a32cd" points="306.264,-56.1923 295.758,-57.5547 304.821,-63.0419 306.264,-56.1923"/>
<text text-anchor="middle" x="384" y="-90" font-family="Helvetica,sans-Serif" font-size="10.00"> penState</text>
</g>
<!-- Node8 -->
<g id="node8" class="node"><title>Node8</title>
<g id="a_node8"><a xlink:href="../../d0/d07/interfaceslogo_1_1backend_1_1util_1_1_i_direction.html" target="_top" xlink:title="slogo.backend.util.IDirection">
<polygon fill="white" stroke="black" points="171.5,-0.5 171.5,-19.5 322.5,-19.5 322.5,-0.5 171.5,-0.5"/>
<text text-anchor="middle" x="247" y="-7.5" font-family="Helvetica,sans-Serif" font-size="10.00">slogo.backend.util.IDirection</text>
</a>
</g>
</g>
<!-- Node8&#45;&gt;Node1 -->
<g id="edge7" class="edge"><title>Node8&#45;&gt;Node1</title>
<path fill="none" stroke="#9a32cd" stroke-dasharray="5,2" d="M317.166,-21.6104C349.464,-28.6397 387.798,-39.3467 420,-55 444.291,-66.8078 469.031,-85.7601 484.889,-98.9882"/>
<polygon fill="#9a32cd" stroke="#9a32cd" points="317.857,-18.179 307.35,-19.5455 316.416,-25.0291 317.857,-18.179"/>
<text text-anchor="middle" x="384" y="-58" font-family="Helvetica,sans-Serif" font-size="10.00"> turtleDirection</text>
</g>
</g>
</svg>
