<?xml version="1.0" encoding="UTF-8" standalone="no"?>
<!DOCTYPE svg PUBLIC "-//W3C//DTD SVG 1.1//EN"
 "http://www.w3.org/Graphics/SVG/1.1/DTD/svg11.dtd">
<!-- Generated by graphviz version 2.36.0 (20140111.2315)
 -->
<!-- Title: slogo.backend.impl.util.TurtleStatus.TurtleStatus Pages: 1 -->
<svg width="636pt" height="87pt"
 viewBox="0.00 0.00 636.00 87.00" xmlns="http://www.w3.org/2000/svg" xmlns:xlink="http://www.w3.org/1999/xlink">
<g id="graph0" class="graph" transform="scale(1 1) rotate(0) translate(4 83)">
<title>slogo.backend.impl.util.TurtleStatus.TurtleStatus</title>
<polygon fill="white" stroke="none" points="-4,4 -4,-83 632,-83 632,4 -4,4"/>
<!-- Node1 -->
<g id="node1" class="node"><title>Node1</title>
<polygon fill="#bfbfbf" stroke="black" points="0,-24 0,-54 134,-54 134,-24 0,-24"/>
<text text-anchor="start" x="8" y="-42" font-family="Helvetica,sans-Serif" font-size="10.00">slogo.backend.impl.util.</text>
<text text-anchor="middle" x="67" y="-31" font-family="Helvetica,sans-Serif" font-size="10.00">TurtleStatus.TurtleStatus</text>
</g>
<!-- Node2 -->
<g id="node2" class="node"><title>Node2</title>
<g id="a_node2"><a xlink:href="../../de/db9/classslogo_1_1backend_1_1impl_1_1util_1_1_turtle_status_1_1_builder.html#a83f77fa599a5580f0d287846f67a4a10" target="_top" xlink:title="slogo.backend.impl.util.\lTurtleStatus.Builder.build">
<polygon fill="white" stroke="black" points="170,-24 170,-54 304,-54 304,-24 170,-24"/>
<text text-anchor="start" x="178" y="-42" font-family="Helvetica,sans-Serif" font-size="10.00">slogo.backend.impl.util.</text>
<text text-anchor="middle" x="237" y="-31" font-family="Helvetica,sans-Serif" font-size="10.00">TurtleStatus.Builder.build</text>
</a>
</g>
</g>
<!-- Node1&#45;&gt;Node2 -->
<g id="edge1" class="edge"><title>Node1&#45;&gt;Node2</title>
<path fill="none" stroke="midnightblue" d="M144.595,-39C153.013,-39 161.532,-39 169.809,-39"/>
<polygon fill="midnightblue" stroke="midnightblue" points="144.398,-35.5001 134.398,-39 144.398,-42.5001 144.398,-35.5001"/>
</g>
<!-- Node3 -->
<g id="node3" class="node"><title>Node3</title>
<g id="a_node3"><a xlink:href="../../da/da1/classslogo_1_1backend_1_1impl_1_1_backend.html#af2452dcfaffd59fa963bb3846d903d19" target="_top" xlink:title="slogo.backend.impl.Backend.\lBackend">
<polygon fill="white" stroke="black" points="406,-49 406,-79 562,-79 562,-49 406,-49"/>
<text text-anchor="start" x="414" y="-67" font-family="Helvetica,sans-Serif" font-size="10.00">slogo.backend.impl.Backend.</text>
<text text-anchor="middle" x="484" y="-56" font-family="Helvetica,sans-Serif" font-size="10.00">Backend</text>
</a>
</g>
</g>
<!-- Node2&#45;&gt;Node3 -->
<g id="edge2" class="edge"><title>Node2&#45;&gt;Node3</title>
<path fill="none" stroke="midnightblue" d="M314.406,-46.7965C343.49,-49.7643 376.633,-53.1463 405.792,-56.1216"/>
<polygon fill="midnightblue" stroke="midnightblue" points="314.604,-43.2987 304.301,-45.7654 313.894,-50.2625 314.604,-43.2987"/>
</g>
<!-- Node4 -->
<g id="node4" class="node"><title>Node4</title>
<g id="a_node4"><a xlink:href="../../da/dba/classslogo_1_1backend_1_1impl_1_1evaluation_1_1commands_1_1multipleturtle_1_1_tell.html#af383e711dde54440f0f6cd3b47216b36" target="_top" xlink:title="slogo.backend.impl.evaluation.commands.multipleturtle.\lTell.executeRaw">
<polygon fill="white" stroke="black" points="340,-0 340,-30 628,-30 628,-0 340,-0"/>
<text text-anchor="start" x="348" y="-18" font-family="Helvetica,sans-Serif" font-size="10.00">slogo.backend.impl.evaluation.commands.multipleturtle.</text>
<text text-anchor="middle" x="484" y="-7" font-family="Helvetica,sans-Serif" font-size="10.00">Tell.executeRaw</text>
</a>
</g>
</g>
<!-- Node2&#45;&gt;Node4 -->
<g id="edge3" class="edge"><title>Node2&#45;&gt;Node4</title>
<path fill="none" stroke="midnightblue" d="M314.469,-31.5091C322.643,-30.7084 331.137,-29.8764 339.772,-29.0305"/>
<polygon fill="midnightblue" stroke="midnightblue" points="313.912,-28.0469 304.301,-32.5053 314.594,-35.0136 313.912,-28.0469"/>
</g>
</g>
</svg>
