<?xml version="1.0" encoding="UTF-8" standalone="no"?>
<!DOCTYPE svg PUBLIC "-//W3C//DTD SVG 1.1//EN"
 "http://www.w3.org/Graphics/SVG/1.1/DTD/svg11.dtd">
<!-- Generated by graphviz version 2.36.0 (20140111.2315)
 -->
<!-- Title: slogo.UI.VBoxCreator Pages: 1 -->
<svg width="126pt" height="96pt"
 viewBox="0.00 0.00 126.00 96.00" xmlns="http://www.w3.org/2000/svg" xmlns:xlink="http://www.w3.org/1999/xlink">
<g id="graph0" class="graph" transform="scale(1 1) rotate(0) translate(4 92)">
<title>slogo.UI.VBoxCreator</title>
<polygon fill="white" stroke="none" points="-4,4 -4,-92 122,-92 122,4 -4,4"/>
<!-- Node1 -->
<g id="node1" class="node"><title>Node1</title>
<polygon fill="#bfbfbf" stroke="black" points="-0.5,-0.5 -0.5,-19.5 118.5,-19.5 118.5,-0.5 -0.5,-0.5"/>
<text text-anchor="middle" x="59" y="-7.5" font-family="Helvetica,sans-Serif" font-size="10.00">slogo.UI.VBoxCreator</text>
</g>
<!-- Node2 -->
<g id="node2" class="node"><title>Node2</title>
<polygon fill="white" stroke="#bfbfbf" points="5,-68.5 5,-87.5 51,-87.5 51,-68.5 5,-68.5"/>
<text text-anchor="middle" x="28" y="-75.5" font-family="Helvetica,sans-Serif" font-size="10.00">Group</text>
</g>
<!-- Node2&#45;&gt;Node1 -->
<g id="edge1" class="edge"><title>Node2&#45;&gt;Node1</title>
<path fill="none" stroke="#9a32cd" stroke-dasharray="5,2" d="M35.6148,-58.8402C38.4636,-52.2348 41.7888,-44.7386 45,-38 47.9075,-31.8987 51.4075,-25.1487 54.1806,-19.9241"/>
<polygon fill="#9a32cd" stroke="#9a32cd" points="32.3059,-57.6777 31.6153,-68.25 38.7482,-60.416 32.3059,-57.6777"/>
<text text-anchor="middle" x="56.5" y="-41.5" font-family="Helvetica,sans-Serif" font-size="10.00"> root</text>
</g>
<!-- Node3 -->
<g id="node3" class="node"><title>Node3</title>
<polygon fill="white" stroke="#bfbfbf" points="69,-68.5 69,-87.5 111,-87.5 111,-68.5 69,-68.5"/>
<text text-anchor="middle" x="90" y="-75.5" font-family="Helvetica,sans-Serif" font-size="10.00">HBox</text>
</g>
<!-- Node3&#45;&gt;Node1 -->
<g id="edge2" class="edge"><title>Node3&#45;&gt;Node1</title>
<path fill="none" stroke="#9a32cd" stroke-dasharray="5,2" d="M81.6328,-59.1859C75.6518,-46.4523 67.8588,-29.8607 63.1526,-19.8411"/>
<polygon fill="#9a32cd" stroke="#9a32cd" points="78.5279,-60.8083 85.9473,-68.3717 84.8638,-57.8324 78.5279,-60.8083"/>
<text text-anchor="middle" x="91" y="-41.5" font-family="Helvetica,sans-Serif" font-size="10.00"> hBox</text>
</g>
</g>
</svg>
