<?xml version="1.0" encoding="UTF-8" standalone="no"?>
<!DOCTYPE svg PUBLIC "-//W3C//DTD SVG 1.1//EN"
 "http://www.w3.org/Graphics/SVG/1.1/DTD/svg11.dtd">
<!-- Generated by graphviz version 2.36.0 (20140111.2315)
 -->
<!-- Title: slogo.UI.SelectorCreator Pages: 1 -->
<svg width="194pt" height="96pt"
 viewBox="0.00 0.00 194.00 96.00" xmlns="http://www.w3.org/2000/svg" xmlns:xlink="http://www.w3.org/1999/xlink">
<g id="graph0" class="graph" transform="scale(1 1) rotate(0) translate(4 92)">
<title>slogo.UI.SelectorCreator</title>
<polygon fill="white" stroke="none" points="-4,4 -4,-92 190,-92 190,4 -4,4"/>
<!-- Node1 -->
<g id="node1" class="node"><title>Node1</title>
<polygon fill="#bfbfbf" stroke="black" points="43,-0.5 43,-19.5 177,-19.5 177,-0.5 43,-0.5"/>
<text text-anchor="middle" x="110" y="-7.5" font-family="Helvetica,sans-Serif" font-size="10.00">slogo.UI.SelectorCreator</text>
</g>
<!-- Node2 -->
<g id="node2" class="node"><title>Node2</title>
<polygon fill="white" stroke="#bfbfbf" points="0,-68.5 0,-87.5 120,-87.5 120,-68.5 0,-68.5"/>
<text text-anchor="middle" x="60" y="-75.5" font-family="Helvetica,sans-Serif" font-size="10.00">ComboBox&lt; String &gt;</text>
</g>
<!-- Node2&#45;&gt;Node1 -->
<g id="edge1" class="edge"><title>Node2&#45;&gt;Node1</title>
<path fill="none" stroke="#9a32cd" stroke-dasharray="5,2" d="M68.0338,-59.198C71.5484,-52.2703 76.0109,-44.4614 81,-38 86.2972,-31.1395 93.4052,-24.4916 99.2582,-19.509"/>
<polygon fill="#9a32cd" stroke="#9a32cd" points="64.7627,-57.9258 63.6116,-68.4579 71.0794,-60.9425 64.7627,-57.9258"/>
<text text-anchor="middle" x="110" y="-41.5" font-family="Helvetica,sans-Serif" font-size="10.00"> mySelector</text>
</g>
<!-- Node3 -->
<g id="node3" class="node"><title>Node3</title>
<polygon fill="white" stroke="#bfbfbf" points="138,-68.5 138,-87.5 184,-87.5 184,-68.5 138,-68.5"/>
<text text-anchor="middle" x="161" y="-75.5" font-family="Helvetica,sans-Serif" font-size="10.00">Group</text>
</g>
<!-- Node3&#45;&gt;Node1 -->
<g id="edge2" class="edge"><title>Node3&#45;&gt;Node1</title>
<path fill="none" stroke="#9a32cd" stroke-dasharray="5,2" d="M152.461,-59.2191C148.762,-52.2943 144.107,-44.482 139,-38 133.636,-31.1919 126.527,-24.5448 120.69,-19.5495"/>
<polygon fill="#9a32cd" stroke="#9a32cd" points="149.503,-61.126 157.138,-68.4714 155.75,-57.9678 149.503,-61.126"/>
<text text-anchor="middle" x="166" y="-41.5" font-family="Helvetica,sans-Serif" font-size="10.00"> myRoot</text>
</g>
</g>
</svg>
