<?xml version="1.0" encoding="UTF-8" standalone="no"?>
<!DOCTYPE svg PUBLIC "-//W3C//DTD SVG 1.1//EN"
 "http://www.w3.org/Graphics/SVG/1.1/DTD/svg11.dtd">
<!-- Generated by graphviz version 2.36.0 (20140111.2315)
 -->
<!-- Title: slogo.backend.impl.parsing.GrammarRule Pages: 1 -->
<svg width="445pt" height="108pt"
 viewBox="0.00 0.00 445.00 108.00" xmlns="http://www.w3.org/2000/svg" xmlns:xlink="http://www.w3.org/1999/xlink">
<g id="graph0" class="graph" transform="scale(1 1) rotate(0) translate(4 104)">
<title>slogo.backend.impl.parsing.GrammarRule</title>
<polygon fill="white" stroke="none" points="-4,4 -4,-104 441,-104 441,4 -4,4"/>
<!-- Node1 -->
<g id="node1" class="node"><title>Node1</title>
<polygon fill="#bfbfbf" stroke="black" points="179,-1 179,-31 329,-31 329,-1 179,-1"/>
<text text-anchor="start" x="187" y="-19" font-family="Helvetica,sans-Serif" font-size="10.00">slogo.backend.impl.parsing.</text>
<text text-anchor="middle" x="254" y="-8" font-family="Helvetica,sans-Serif" font-size="10.00">GrammarRule</text>
</g>
<!-- Node2 -->
<g id="node2" class="node"><title>Node2</title>
<g id="a_node2"><a xlink:href="../../d2/dce/interfaceslogo_1_1backend_1_1parsing_1_1_i_grammar_rule.html" target="_top" xlink:title="slogo.backend.parsing.IGrammarRule">
<polygon fill="white" stroke="black" points="-0.5,-80.5 -0.5,-99.5 194.5,-99.5 194.5,-80.5 -0.5,-80.5"/>
<text text-anchor="middle" x="97" y="-87.5" font-family="Helvetica,sans-Serif" font-size="10.00">slogo.backend.parsing.IGrammarRule</text>
</a>
</g>
</g>
<!-- Node2&#45;&gt;Node1 -->
<g id="edge1" class="edge"><title>Node2&#45;&gt;Node1</title>
<path fill="none" stroke="midnightblue" d="M124.735,-76.2806C152.349,-63.6168 194.638,-44.2231 223.261,-31.0968"/>
<polygon fill="midnightblue" stroke="midnightblue" points="123.257,-73.1079 115.626,-80.4579 126.175,-79.4707 123.257,-73.1079"/>
</g>
<!-- Node3 -->
<g id="node3" class="node"><title>Node3</title>
<polygon fill="white" stroke="#bfbfbf" points="212,-80.5 212,-99.5 296,-99.5 296,-80.5 212,-80.5"/>
<text text-anchor="middle" x="254" y="-87.5" font-family="Helvetica,sans-Serif" font-size="10.00">List&lt; String &gt;</text>
</g>
<!-- Node3&#45;&gt;Node1 -->
<g id="edge2" class="edge"><title>Node3&#45;&gt;Node1</title>
<path fill="none" stroke="#9a32cd" stroke-dasharray="5,2" d="M254,-70.0846C254,-57.9148 254,-42.3538 254,-31.2316"/>
<polygon fill="#9a32cd" stroke="#9a32cd" points="250.5,-70.4579 254,-80.4579 257.5,-70.4579 250.5,-70.4579"/>
<text text-anchor="middle" x="280" y="-53.5" font-family="Helvetica,sans-Serif" font-size="10.00"> command</text>
</g>
<!-- Node4 -->
<g id="node4" class="node"><title>Node4</title>
<polygon fill="white" stroke="#bfbfbf" points="314.5,-80.5 314.5,-99.5 437.5,-99.5 437.5,-80.5 314.5,-80.5"/>
<text text-anchor="middle" x="376" y="-87.5" font-family="Helvetica,sans-Serif" font-size="10.00">List&lt; List&lt; String &gt; &gt;</text>
</g>
<!-- Node4&#45;&gt;Node1 -->
<g id="edge3" class="edge"><title>Node4&#45;&gt;Node1</title>
<path fill="none" stroke="#9a32cd" stroke-dasharray="5,2" d="M352.642,-75.1883C340.018,-67.726 324.158,-58.3545 310,-50 299.504,-43.8062 287.897,-36.9651 277.985,-31.1253"/>
<polygon fill="#9a32cd" stroke="#9a32cd" points="351.194,-78.3979 361.583,-80.4741 354.756,-72.3721 351.194,-78.3979"/>
<text text-anchor="middle" x="342.5" y="-53.5" font-family="Helvetica,sans-Serif" font-size="10.00"> args</text>
</g>
</g>
</svg>
