<?xml version="1.0" encoding="UTF-8" standalone="no"?>
<!DOCTYPE svg PUBLIC "-//W3C//DTD SVG 1.1//EN"
 "http://www.w3.org/Graphics/SVG/1.1/DTD/svg11.dtd">
<!-- Generated by graphviz version 2.36.0 (20140111.2315)
 -->
<!-- Title: slogo.backend.impl.parsing.Parser.dereference Pages: 1 -->
<svg width="760pt" height="175pt"
 viewBox="0.00 0.00 760.00 175.00" xmlns="http://www.w3.org/2000/svg" xmlns:xlink="http://www.w3.org/1999/xlink">
<g id="graph0" class="graph" transform="scale(1 1) rotate(0) translate(4 171)">
<title>slogo.backend.impl.parsing.Parser.dereference</title>
<polygon fill="white" stroke="none" points="-4,4 -4,-171 756,-171 756,4 -4,4"/>
<!-- Node1 -->
<g id="node1" class="node"><title>Node1</title>
<polygon fill="#bfbfbf" stroke="black" points="0,-48 0,-78 150,-78 150,-48 0,-48"/>
<text text-anchor="start" x="8" y="-66" font-family="Helvetica,sans-Serif" font-size="10.00">slogo.backend.impl.parsing.</text>
<text text-anchor="middle" x="75" y="-55" font-family="Helvetica,sans-Serif" font-size="10.00">Parser.dereference</text>
</g>
<!-- Node2 -->
<g id="node2" class="node"><title>Node2</title>
<g id="a_node2"><a xlink:href="../../d3/df5/classslogo_1_1backend_1_1impl_1_1parsing_1_1_parser.html#aa3bd41bdfb139d987cfc3d7745492650" target="_top" xlink:title="slogo.backend.impl.parsing.\lParser.tokensToNodes">
<polygon fill="white" stroke="black" points="186,-48 186,-78 336,-78 336,-48 186,-48"/>
<text text-anchor="start" x="194" y="-66" font-family="Helvetica,sans-Serif" font-size="10.00">slogo.backend.impl.parsing.</text>
<text text-anchor="middle" x="261" y="-55" font-family="Helvetica,sans-Serif" font-size="10.00">Parser.tokensToNodes</text>
</a>
</g>
</g>
<!-- Node1&#45;&gt;Node2 -->
<g id="edge1" class="edge"><title>Node1&#45;&gt;Node2</title>
<path fill="none" stroke="midnightblue" d="M160.066,-63C168.654,-63 177.336,-63 185.808,-63"/>
<polygon fill="midnightblue" stroke="midnightblue" points="160.045,-59.5001 150.044,-63 160.044,-66.5001 160.045,-59.5001"/>
</g>
<!-- Node3 -->
<g id="node3" class="node"><title>Node3</title>
<g id="a_node3"><a xlink:href="../../d3/df5/classslogo_1_1backend_1_1impl_1_1parsing_1_1_parser.html#a388145ba8a86a6e54edecca6832f3514" target="_top" xlink:title="slogo.backend.impl.parsing.\lParser.parse">
<polygon fill="white" stroke="black" points="372,-73 372,-103 522,-103 522,-73 372,-73"/>
<text text-anchor="start" x="380" y="-91" font-family="Helvetica,sans-Serif" font-size="10.00">slogo.backend.impl.parsing.</text>
<text text-anchor="middle" x="447" y="-80" font-family="Helvetica,sans-Serif" font-size="10.00">Parser.parse</text>
</a>
</g>
</g>
<!-- Node2&#45;&gt;Node3 -->
<g id="edge2" class="edge"><title>Node2&#45;&gt;Node3</title>
<path fill="none" stroke="midnightblue" d="M346.066,-74.422C354.654,-75.5889 363.336,-76.7684 371.808,-77.9195"/>
<polygon fill="midnightblue" stroke="midnightblue" points="346.425,-70.9387 336.044,-73.0604 345.482,-77.8749 346.425,-70.9387"/>
</g>
<!-- Node8 -->
<g id="node8" class="node"><title>Node8</title>
<g id="a_node8"><a xlink:href="../../d6/df5/classslogo_1_1backend_1_1test_1_1_parsing_test.html#ace470e577b4af0d49612cb2b2a029743" target="_top" xlink:title="slogo.backend.test.Parsing\lTest.testTokenToNode">
<polygon fill="white" stroke="black" points="374.5,-24 374.5,-54 519.5,-54 519.5,-24 374.5,-24"/>
<text text-anchor="start" x="382.5" y="-42" font-family="Helvetica,sans-Serif" font-size="10.00">slogo.backend.test.Parsing</text>
<text text-anchor="middle" x="447" y="-31" font-family="Helvetica,sans-Serif" font-size="10.00">Test.testTokenToNode</text>
</a>
</g>
</g>
<!-- Node2&#45;&gt;Node8 -->
<g id="edge7" class="edge"><title>Node2&#45;&gt;Node8</title>
<path fill="none" stroke="midnightblue" d="M346.232,-52.0132C355.678,-50.7812 365.233,-49.5348 374.497,-48.3265"/>
<polygon fill="midnightblue" stroke="midnightblue" points="345.508,-48.5779 336.044,-53.342 346.413,-55.5191 345.508,-48.5779"/>
</g>
<!-- Node4 -->
<g id="node4" class="node"><title>Node4</title>
<g id="a_node4"><a xlink:href="../../da/da1/classslogo_1_1backend_1_1impl_1_1_backend.html#a4e32fe759ec977d48686b98339d37b30" target="_top" xlink:title="slogo.backend.impl.Backend.execute">
<polygon fill="white" stroke="black" points="558,-147.5 558,-166.5 752,-166.5 752,-147.5 558,-147.5"/>
<text text-anchor="middle" x="655" y="-154.5" font-family="Helvetica,sans-Serif" font-size="10.00">slogo.backend.impl.Backend.execute</text>
</a>
</g>
</g>
<!-- Node3&#45;&gt;Node4 -->
<g id="edge3" class="edge"><title>Node3&#45;&gt;Node4</title>
<path fill="none" stroke="midnightblue" d="M486.334,-107.505C507.119,-117.454 533.501,-129.092 558,-137 570.799,-141.131 584.841,-144.618 598.139,-147.463"/>
<polygon fill="midnightblue" stroke="midnightblue" points="487.73,-104.291 477.205,-103.071 484.672,-110.588 487.73,-104.291"/>
</g>
<!-- Node5 -->
<g id="node5" class="node"><title>Node5</title>
<g id="a_node5"><a xlink:href="../../d6/df5/classslogo_1_1backend_1_1test_1_1_parsing_test.html#a3116cffcaf5fb3ba840f007570afeb62" target="_top" xlink:title="slogo.backend.test.Parsing\lTest.testParse">
<polygon fill="white" stroke="black" points="582.5,-98 582.5,-128 727.5,-128 727.5,-98 582.5,-98"/>
<text text-anchor="start" x="590.5" y="-116" font-family="Helvetica,sans-Serif" font-size="10.00">slogo.backend.test.Parsing</text>
<text text-anchor="middle" x="655" y="-105" font-family="Helvetica,sans-Serif" font-size="10.00">Test.testParse</text>
</a>
</g>
</g>
<!-- Node3&#45;&gt;Node5 -->
<g id="edge4" class="edge"><title>Node3&#45;&gt;Node5</title>
<path fill="none" stroke="midnightblue" d="M532.309,-98.2317C548.904,-100.246 566.168,-102.341 582.3,-104.299"/>
<polygon fill="midnightblue" stroke="midnightblue" points="532.429,-94.7206 522.08,-96.9903 531.585,-101.67 532.429,-94.7206"/>
</g>
<!-- Node6 -->
<g id="node6" class="node"><title>Node6</title>
<g id="a_node6"><a xlink:href="../../d6/df5/classslogo_1_1backend_1_1test_1_1_parsing_test.html#a83bcd3f6b2ff419efe7c9381346e637b" target="_top" xlink:title="slogo.backend.test.Parsing\lTest.testInvalidCommand">
<polygon fill="white" stroke="black" points="582.5,-49 582.5,-79 727.5,-79 727.5,-49 582.5,-49"/>
<text text-anchor="start" x="590.5" y="-67" font-family="Helvetica,sans-Serif" font-size="10.00">slogo.backend.test.Parsing</text>
<text text-anchor="middle" x="655" y="-56" font-family="Helvetica,sans-Serif" font-size="10.00">Test.testInvalidCommand</text>
</a>
</g>
</g>
<!-- Node3&#45;&gt;Node6 -->
<g id="edge5" class="edge"><title>Node3&#45;&gt;Node6</title>
<path fill="none" stroke="midnightblue" d="M532.309,-78.1775C548.904,-76.2442 566.168,-74.2329 582.3,-72.3534"/>
<polygon fill="midnightblue" stroke="midnightblue" points="531.607,-74.7356 522.08,-79.3694 532.418,-81.6885 531.607,-74.7356"/>
</g>
<!-- Node7 -->
<g id="node7" class="node"><title>Node7</title>
<g id="a_node7"><a xlink:href="../../d6/df5/classslogo_1_1backend_1_1test_1_1_parsing_test.html#a26b09f1404285875861f843ebdba0a31" target="_top" xlink:title="slogo.backend.test.Parsing\lTest.testUnparseableCommand">
<polygon fill="white" stroke="black" points="571,-0 571,-30 739,-30 739,-0 571,-0"/>
<text text-anchor="start" x="579" y="-18" font-family="Helvetica,sans-Serif" font-size="10.00">slogo.backend.test.Parsing</text>
<text text-anchor="middle" x="655" y="-7" font-family="Helvetica,sans-Serif" font-size="10.00">Test.testUnparseableCommand</text>
</a>
</g>
</g>
<!-- Node3&#45;&gt;Node7 -->
<g id="edge6" class="edge"><title>Node3&#45;&gt;Node7</title>
<path fill="none" stroke="midnightblue" d="M507.57,-69.302C512.513,-67.3214 517.38,-65.2154 522,-63 539.12,-54.79 540.599,-47.5968 558,-40 566.681,-36.21 576.063,-32.8945 585.444,-30.0247"/>
<polygon fill="midnightblue" stroke="midnightblue" points="506.112,-66.1125 498.02,-72.9522 508.611,-72.6512 506.112,-66.1125"/>
</g>
</g>
</svg>
