<?xml version="1.0" encoding="UTF-8" standalone="no"?>
<!DOCTYPE svg PUBLIC "-//W3C//DTD SVG 1.1//EN"
 "http://www.w3.org/Graphics/SVG/1.1/DTD/svg11.dtd">
<!-- Generated by graphviz version 2.36.0 (20140111.2315)
 -->
<!-- Title: slogo.backend.impl.parsing.Parser.tokensToNodes Pages: 1 -->
<svg width="574pt" height="175pt"
 viewBox="0.00 0.00 574.00 175.00" xmlns="http://www.w3.org/2000/svg" xmlns:xlink="http://www.w3.org/1999/xlink">
<g id="graph0" class="graph" transform="scale(1 1) rotate(0) translate(4 171)">
<title>slogo.backend.impl.parsing.Parser.tokensToNodes</title>
<polygon fill="white" stroke="none" points="-4,4 -4,-171 570,-171 570,4 -4,4"/>
<!-- Node1 -->
<g id="node1" class="node"><title>Node1</title>
<polygon fill="#bfbfbf" stroke="black" points="0,-48 0,-78 150,-78 150,-48 0,-48"/>
<text text-anchor="start" x="8" y="-66" font-family="Helvetica,sans-Serif" font-size="10.00">slogo.backend.impl.parsing.</text>
<text text-anchor="middle" x="75" y="-55" font-family="Helvetica,sans-Serif" font-size="10.00">Parser.tokensToNodes</text>
</g>
<!-- Node2 -->
<g id="node2" class="node"><title>Node2</title>
<g id="a_node2"><a xlink:href="../../d3/df5/classslogo_1_1backend_1_1impl_1_1parsing_1_1_parser.html#a388145ba8a86a6e54edecca6832f3514" target="_top" xlink:title="slogo.backend.impl.parsing.\lParser.parse">
<polygon fill="white" stroke="black" points="186,-73 186,-103 336,-103 336,-73 186,-73"/>
<text text-anchor="start" x="194" y="-91" font-family="Helvetica,sans-Serif" font-size="10.00">slogo.backend.impl.parsing.</text>
<text text-anchor="middle" x="261" y="-80" font-family="Helvetica,sans-Serif" font-size="10.00">Parser.parse</text>
</a>
</g>
</g>
<!-- Node1&#45;&gt;Node2 -->
<g id="edge1" class="edge"><title>Node1&#45;&gt;Node2</title>
<path fill="none" stroke="midnightblue" d="M160.066,-74.422C168.654,-75.5889 177.336,-76.7684 185.808,-77.9195"/>
<polygon fill="midnightblue" stroke="midnightblue" points="160.425,-70.9387 150.044,-73.0604 159.482,-77.8749 160.425,-70.9387"/>
</g>
<!-- Node7 -->
<g id="node7" class="node"><title>Node7</title>
<g id="a_node7"><a xlink:href="../../d6/df5/classslogo_1_1backend_1_1test_1_1_parsing_test.html#ace470e577b4af0d49612cb2b2a029743" target="_top" xlink:title="slogo.backend.test.Parsing\lTest.testTokenToNode">
<polygon fill="white" stroke="black" points="188.5,-24 188.5,-54 333.5,-54 333.5,-24 188.5,-24"/>
<text text-anchor="start" x="196.5" y="-42" font-family="Helvetica,sans-Serif" font-size="10.00">slogo.backend.test.Parsing</text>
<text text-anchor="middle" x="261" y="-31" font-family="Helvetica,sans-Serif" font-size="10.00">Test.testTokenToNode</text>
</a>
</g>
</g>
<!-- Node1&#45;&gt;Node7 -->
<g id="edge6" class="edge"><title>Node1&#45;&gt;Node7</title>
<path fill="none" stroke="midnightblue" d="M160.232,-52.0132C169.678,-50.7812 179.233,-49.5348 188.497,-48.3265"/>
<polygon fill="midnightblue" stroke="midnightblue" points="159.508,-48.5779 150.044,-53.342 160.413,-55.5191 159.508,-48.5779"/>
</g>
<!-- Node3 -->
<g id="node3" class="node"><title>Node3</title>
<g id="a_node3"><a xlink:href="../../da/da1/classslogo_1_1backend_1_1impl_1_1_backend.html#a4e32fe759ec977d48686b98339d37b30" target="_top" xlink:title="slogo.backend.impl.Backend.execute">
<polygon fill="white" stroke="black" points="372,-147.5 372,-166.5 566,-166.5 566,-147.5 372,-147.5"/>
<text text-anchor="middle" x="469" y="-154.5" font-family="Helvetica,sans-Serif" font-size="10.00">slogo.backend.impl.Backend.execute</text>
</a>
</g>
</g>
<!-- Node2&#45;&gt;Node3 -->
<g id="edge2" class="edge"><title>Node2&#45;&gt;Node3</title>
<path fill="none" stroke="midnightblue" d="M300.334,-107.505C321.119,-117.454 347.501,-129.092 372,-137 384.799,-141.131 398.841,-144.618 412.139,-147.463"/>
<polygon fill="midnightblue" stroke="midnightblue" points="301.73,-104.291 291.205,-103.071 298.672,-110.588 301.73,-104.291"/>
</g>
<!-- Node4 -->
<g id="node4" class="node"><title>Node4</title>
<g id="a_node4"><a xlink:href="../../d6/df5/classslogo_1_1backend_1_1test_1_1_parsing_test.html#a83bcd3f6b2ff419efe7c9381346e637b" target="_top" xlink:title="slogo.backend.test.Parsing\lTest.testInvalidCommand">
<polygon fill="white" stroke="black" points="396.5,-98 396.5,-128 541.5,-128 541.5,-98 396.5,-98"/>
<text text-anchor="start" x="404.5" y="-116" font-family="Helvetica,sans-Serif" font-size="10.00">slogo.backend.test.Parsing</text>
<text text-anchor="middle" x="469" y="-105" font-family="Helvetica,sans-Serif" font-size="10.00">Test.testInvalidCommand</text>
</a>
</g>
</g>
<!-- Node2&#45;&gt;Node4 -->
<g id="edge3" class="edge"><title>Node2&#45;&gt;Node4</title>
<path fill="none" stroke="midnightblue" d="M346.309,-98.2317C362.904,-100.246 380.168,-102.341 396.3,-104.299"/>
<polygon fill="midnightblue" stroke="midnightblue" points="346.429,-94.7206 336.08,-96.9903 345.585,-101.67 346.429,-94.7206"/>
</g>
<!-- Node5 -->
<g id="node5" class="node"><title>Node5</title>
<g id="a_node5"><a xlink:href="../../d6/df5/classslogo_1_1backend_1_1test_1_1_parsing_test.html#a3116cffcaf5fb3ba840f007570afeb62" target="_top" xlink:title="slogo.backend.test.Parsing\lTest.testParse">
<polygon fill="white" stroke="black" points="396.5,-49 396.5,-79 541.5,-79 541.5,-49 396.5,-49"/>
<text text-anchor="start" x="404.5" y="-67" font-family="Helvetica,sans-Serif" font-size="10.00">slogo.backend.test.Parsing</text>
<text text-anchor="middle" x="469" y="-56" font-family="Helvetica,sans-Serif" font-size="10.00">Test.testParse</text>
</a>
</g>
</g>
<!-- Node2&#45;&gt;Node5 -->
<g id="edge4" class="edge"><title>Node2&#45;&gt;Node5</title>
<path fill="none" stroke="midnightblue" d="M346.309,-78.1775C362.904,-76.2442 380.168,-74.2329 396.3,-72.3534"/>
<polygon fill="midnightblue" stroke="midnightblue" points="345.607,-74.7356 336.08,-79.3694 346.418,-81.6885 345.607,-74.7356"/>
</g>
<!-- Node6 -->
<g id="node6" class="node"><title>Node6</title>
<g id="a_node6"><a xlink:href="../../d6/df5/classslogo_1_1backend_1_1test_1_1_parsing_test.html#a26b09f1404285875861f843ebdba0a31" target="_top" xlink:title="slogo.backend.test.Parsing\lTest.testUnparseableCommand">
<polygon fill="white" stroke="black" points="385,-0 385,-30 553,-30 553,-0 385,-0"/>
<text text-anchor="start" x="393" y="-18" font-family="Helvetica,sans-Serif" font-size="10.00">slogo.backend.test.Parsing</text>
<text text-anchor="middle" x="469" y="-7" font-family="Helvetica,sans-Serif" font-size="10.00">Test.testUnparseableCommand</text>
</a>
</g>
</g>
<!-- Node2&#45;&gt;Node6 -->
<g id="edge5" class="edge"><title>Node2&#45;&gt;Node6</title>
<path fill="none" stroke="midnightblue" d="M321.57,-69.302C326.513,-67.3214 331.38,-65.2154 336,-63 353.12,-54.79 354.599,-47.5968 372,-40 380.681,-36.21 390.063,-32.8945 399.444,-30.0247"/>
<polygon fill="midnightblue" stroke="midnightblue" points="320.112,-66.1125 312.02,-72.9522 322.611,-72.6512 320.112,-66.1125"/>
</g>
</g>
</svg>
