<?xml version="1.0" encoding="UTF-8" standalone="no"?>
<!DOCTYPE svg PUBLIC "-//W3C//DTD SVG 1.1//EN"
 "http://www.w3.org/Graphics/SVG/1.1/DTD/svg11.dtd">
<!-- Generated by graphviz version 2.36.0 (20140111.2315)
 -->
<!-- Title: slogo.backend.impl.parsing.Parser.reduce Pages: 1 -->
<svg width="542pt" height="38pt"
 viewBox="0.00 0.00 542.00 38.00" xmlns="http://www.w3.org/2000/svg" xmlns:xlink="http://www.w3.org/1999/xlink">
<g id="graph0" class="graph" transform="scale(1 1) rotate(0) translate(4 34)">
<title>slogo.backend.impl.parsing.Parser.reduce</title>
<polygon fill="white" stroke="none" points="-4,4 -4,-34 538,-34 538,4 -4,4"/>
<!-- Node1 -->
<g id="node1" class="node"><title>Node1</title>
<polygon fill="#bfbfbf" stroke="black" points="0,-0 0,-30 150,-30 150,-0 0,-0"/>
<text text-anchor="start" x="8" y="-18" font-family="Helvetica,sans-Serif" font-size="10.00">slogo.backend.impl.parsing.</text>
<text text-anchor="middle" x="75" y="-7" font-family="Helvetica,sans-Serif" font-size="10.00">Parser.reduce</text>
</g>
<!-- Node2 -->
<g id="node2" class="node"><title>Node2</title>
<g id="a_node2"><a xlink:href="../../d3/df5/classslogo_1_1backend_1_1impl_1_1parsing_1_1_parser.html#a248104544de69bf5fa16e77f0cffa1b8" target="_top" xlink:title="slogo.backend.impl.parsing.\lParser.createNestedNode">
<polygon fill="white" stroke="black" points="186,-0 186,-30 336,-30 336,-0 186,-0"/>
<text text-anchor="start" x="194" y="-18" font-family="Helvetica,sans-Serif" font-size="10.00">slogo.backend.impl.parsing.</text>
<text text-anchor="middle" x="261" y="-7" font-family="Helvetica,sans-Serif" font-size="10.00">Parser.createNestedNode</text>
</a>
</g>
</g>
<!-- Node1&#45;&gt;Node2 -->
<g id="edge1" class="edge"><title>Node1&#45;&gt;Node2</title>
<path fill="none" stroke="midnightblue" d="M150.044,-15C158.514,-15 167.195,-15 175.784,-15"/>
<polygon fill="midnightblue" stroke="midnightblue" points="175.808,-18.5001 185.808,-15 175.807,-11.5001 175.808,-18.5001"/>
</g>
<!-- Node3 -->
<g id="node3" class="node"><title>Node3</title>
<g id="a_node3"><a xlink:href="../../d4/dcd/interfaceslogo_1_1backend_1_1parsing_1_1_i_syntax_node.html#a8a5430b12768100c00442d4057a3cccf" target="_top" xlink:title="slogo.backend.parsing.ISyntax\lNode.setChildren">
<polygon fill="white" stroke="black" points="372,-0 372,-30 534,-30 534,-0 372,-0"/>
<text text-anchor="start" x="380" y="-18" font-family="Helvetica,sans-Serif" font-size="10.00">slogo.backend.parsing.ISyntax</text>
<text text-anchor="middle" x="453" y="-7" font-family="Helvetica,sans-Serif" font-size="10.00">Node.setChildren</text>
</a>
</g>
</g>
<!-- Node2&#45;&gt;Node3 -->
<g id="edge2" class="edge"><title>Node2&#45;&gt;Node3</title>
<path fill="none" stroke="midnightblue" d="M336.003,-15C344.466,-15 353.163,-15 361.806,-15"/>
<polygon fill="midnightblue" stroke="midnightblue" points="361.911,-18.5001 371.911,-15 361.911,-11.5001 361.911,-18.5001"/>
</g>
</g>
</svg>
