<?xml version="1.0" encoding="UTF-8" standalone="no"?>
<!DOCTYPE svg PUBLIC "-//W3C//DTD SVG 1.1//EN"
 "http://www.w3.org/Graphics/SVG/1.1/DTD/svg11.dtd">
<!-- Generated by graphviz version 2.36.0 (20140111.2315)
 -->
<!-- Title: slogo.backend.impl.parsing.Parser.generateParseErrorMessage Pages: 1 -->
<!--zoomable 175 -->
<svg id="main" version="1.1" xmlns="http://www.w3.org/2000/svg" xmlns:xlink="http://www.w3.org/1999/xlink" xml:space="preserve" onload="init(evt)">
<style type="text/css"><![CDATA[
.edge:hover path { stroke: red; }
.edge:hover polygon { stroke: red; fill: red; }
]]></style>
<script type="text/javascript"><![CDATA[
var edges = document.getElementsByTagName('g');
if (edges && edges.length) {
  for (var i=0;i<edges.length;i++) {
    if (edges[i].id.substr(0,4)=='edge') {
      edges[i].setAttribute('class','edge');
    }
  }
}
]]></script>
        <defs>
                <circle id="rim" cx="0" cy="0" r="7"/>
                <circle id="rim2" cx="0" cy="0" r="3.5"/>
                <g id="zoomPlus">
                        <use xlink:href="#rim" fill="#404040">
                                <set attributeName="fill" to="#808080" begin="zoomplus.mouseover" end="zoomplus.mouseout"/>
                        </use>
                        <path d="M-4,0h8M0,-4v8" fill="none" stroke="white" stroke-width="1.5" pointer-events="none"/>
                </g>
                <g id="zoomMin">
                        <use xlink:href="#rim" fill="#404040">
                                <set attributeName="fill" to="#808080" begin="zoomminus.mouseover" end="zoomminus.mouseout"/>
                        </use>
                        <path d="M-4,0h8" fill="none" stroke="white" stroke-width="1.5" pointer-events="none"/>
                </g>
                <g id="dirArrow">
                        <path fill="none" stroke="white" stroke-width="1.5" d="M0,-3.0v7 M-2.5,-0.5L0,-3.0L2.5,-0.5"/>
                </g>
               <g id="resetDef">
                       <use xlink:href="#rim2" fill="#404040">
                               <set attributeName="fill" to="#808080" begin="reset.mouseover" end="reset.mouseout"/>
                       </use>
               </g>
        </defs>

<script type="text/javascript">
var viewWidth = 610;
var viewHeight = 175;
var sectionId = 'dynsection-7';
</script>
<script xlink:href="../../svgpan.js"/>
<svg id="graph" class="graph">
<g id="viewport">
<title>slogo.backend.impl.parsing.Parser.generateParseErrorMessage</title>
<polygon fill="white" stroke="none" points="-4,4 -4,-171 606,-171 606,4 -4,4"/>
<!-- Node1 -->
<g id="node1" class="node"><title>Node1</title>
<polygon fill="#bfbfbf" stroke="black" points="0.5,-73 0.5,-103 185.5,-103 185.5,-73 0.5,-73"/>
<text text-anchor="start" x="8.5" y="-91" font-family="Helvetica,sans-Serif" font-size="10.00">slogo.backend.impl.parsing.</text>
<text text-anchor="middle" x="93" y="-80" font-family="Helvetica,sans-Serif" font-size="10.00">Parser.generateParseErrorMessage</text>
</g>
<!-- Node2 -->
<g id="node2" class="node"><title>Node2</title>
<g id="a_node2"><a xlink:href="../../d3/df5/classslogo_1_1backend_1_1impl_1_1parsing_1_1_parser.html#a388145ba8a86a6e54edecca6832f3514" target="_top" xlink:title="slogo.backend.impl.parsing.\lParser.parse">
<polygon fill="white" stroke="black" points="222,-73 222,-103 372,-103 372,-73 222,-73"/>
<text text-anchor="start" x="230" y="-91" font-family="Helvetica,sans-Serif" font-size="10.00">slogo.backend.impl.parsing.</text>
<text text-anchor="middle" x="297" y="-80" font-family="Helvetica,sans-Serif" font-size="10.00">Parser.parse</text>
</a>
</g>
</g>
<!-- Node1&#45;&gt;Node2 -->
<g id="edge1" class="edge"><title>Node1&#45;&gt;Node2</title>
<path fill="none" stroke="midnightblue" d="M195.788,-88C204.526,-88 213.255,-88 221.715,-88"/>
<polygon fill="midnightblue" stroke="midnightblue" points="195.544,-84.5001 185.544,-88 195.544,-91.5001 195.544,-84.5001"/>
</g>
<!-- Node3 -->
<g id="node3" class="node"><title>Node3</title>
<g id="a_node3"><a xlink:href="../../da/da1/classslogo_1_1backend_1_1impl_1_1_backend.html#a4e32fe759ec977d48686b98339d37b30" target="_top" xlink:title="slogo.backend.impl.Backend.execute">
<polygon fill="white" stroke="black" points="408,-147.5 408,-166.5 602,-166.5 602,-147.5 408,-147.5"/>
<text text-anchor="middle" x="505" y="-154.5" font-family="Helvetica,sans-Serif" font-size="10.00">slogo.backend.impl.Backend.execute</text>
</a>
</g>
</g>
<!-- Node2&#45;&gt;Node3 -->
<g id="edge2" class="edge"><title>Node2&#45;&gt;Node3</title>
<path fill="none" stroke="midnightblue" d="M336.334,-107.505C357.119,-117.454 383.501,-129.092 408,-137 420.799,-141.131 434.841,-144.618 448.139,-147.463"/>
<polygon fill="midnightblue" stroke="midnightblue" points="337.73,-104.291 327.205,-103.071 334.672,-110.588 337.73,-104.291"/>
</g>
<!-- Node4 -->
<g id="node4" class="node"><title>Node4</title>
<g id="a_node4"><a xlink:href="../../d6/df5/classslogo_1_1backend_1_1test_1_1_parsing_test.html#a3116cffcaf5fb3ba840f007570afeb62" target="_top" xlink:title="slogo.backend.test.Parsing\lTest.testParse">
<polygon fill="white" stroke="black" points="432.5,-98 432.5,-128 577.5,-128 577.5,-98 432.5,-98"/>
<text text-anchor="start" x="440.5" y="-116" font-family="Helvetica,sans-Serif" font-size="10.00">slogo.backend.test.Parsing</text>
<text text-anchor="middle" x="505" y="-105" font-family="Helvetica,sans-Serif" font-size="10.00">Test.testParse</text>
</a>
</g>
</g>
<!-- Node2&#45;&gt;Node4 -->
<g id="edge3" class="edge"><title>Node2&#45;&gt;Node4</title>
<path fill="none" stroke="midnightblue" d="M382.309,-98.2317C398.904,-100.246 416.168,-102.341 432.3,-104.299"/>
<polygon fill="midnightblue" stroke="midnightblue" points="382.429,-94.7206 372.08,-96.9903 381.585,-101.67 382.429,-94.7206"/>
</g>
<!-- Node5 -->
<g id="node5" class="node"><title>Node5</title>
<g id="a_node5"><a xlink:href="../../d6/df5/classslogo_1_1backend_1_1test_1_1_parsing_test.html#a83bcd3f6b2ff419efe7c9381346e637b" target="_top" xlink:title="slogo.backend.test.Parsing\lTest.testInvalidCommand">
<polygon fill="white" stroke="black" points="432.5,-49 432.5,-79 577.5,-79 577.5,-49 432.5,-49"/>
<text text-anchor="start" x="440.5" y="-67" font-family="Helvetica,sans-Serif" font-size="10.00">slogo.backend.test.Parsing</text>
<text text-anchor="middle" x="505" y="-56" font-family="Helvetica,sans-Serif" font-size="10.00">Test.testInvalidCommand</text>
</a>
</g>
</g>
<!-- Node2&#45;&gt;Node5 -->
<g id="edge4" class="edge"><title>Node2&#45;&gt;Node5</title>
<path fill="none" stroke="midnightblue" d="M382.309,-78.1775C398.904,-76.2442 416.168,-74.2329 432.3,-72.3534"/>
<polygon fill="midnightblue" stroke="midnightblue" points="381.607,-74.7356 372.08,-79.3694 382.418,-81.6885 381.607,-74.7356"/>
</g>
<!-- Node6 -->
<g id="node6" class="node"><title>Node6</title>
<g id="a_node6"><a xlink:href="../../d6/df5/classslogo_1_1backend_1_1test_1_1_parsing_test.html#a26b09f1404285875861f843ebdba0a31" target="_top" xlink:title="slogo.backend.test.Parsing\lTest.testUnparseableCommand">
<polygon fill="white" stroke="black" points="421,-0 421,-30 589,-30 589,-0 421,-0"/>
<text text-anchor="start" x="429" y="-18" font-family="Helvetica,sans-Serif" font-size="10.00">slogo.backend.test.Parsing</text>
<text text-anchor="middle" x="505" y="-7" font-family="Helvetica,sans-Serif" font-size="10.00">Test.testUnparseableCommand</text>
</a>
</g>
</g>
<!-- Node2&#45;&gt;Node6 -->
<g id="edge5" class="edge"><title>Node2&#45;&gt;Node6</title>
<path fill="none" stroke="midnightblue" d="M338.59,-68.4702C359.095,-59.0738 384.542,-48.1166 408,-40 418.417,-36.3959 429.625,-33.0313 440.578,-30.0118"/>
<polygon fill="midnightblue" stroke="midnightblue" points="336.849,-65.4193 329.248,-72.7995 339.792,-71.7705 336.849,-65.4193"/>
</g>
</g>
</svg>
        <g id="navigator" transform="translate(0 0)" fill="#404254">
                <rect fill="#f2f5e9" fill-opacity="0.5" stroke="#606060" stroke-width=".5" x="0" y="0" width="60" height="60"/>
                <use id="zoomplus" xlink:href="#zoomPlus" x="17" y="9" onmousedown="handleZoom(evt,'in')"/>
                <use id="zoomminus" xlink:href="#zoomMin" x="42" y="9" onmousedown="handleZoom(evt,'out')"/>
                <use id="reset" xlink:href="#resetDef" x="30" y="36" onmousedown="handleReset()"/>
                <g id="arrowUp" xlink:href="#dirArrow" transform="translate(30 24)" onmousedown="handlePan(0,-1)">
                  <use xlink:href="#rim" fill="#404040">
                        <set attributeName="fill" to="#808080" begin="arrowUp.mouseover" end="arrowUp.mouseout"/>
                  </use>
                  <path fill="none" stroke="white" stroke-width="1.5" d="M0,-3.0v7 M-2.5,-0.5L0,-3.0L2.5,-0.5"/>
                </g>
                <g id="arrowRight" xlink:href="#dirArrow" transform="rotate(90) translate(36 -43)" onmousedown="handlePan(1,0)">
                  <use xlink:href="#rim" fill="#404040">
                        <set attributeName="fill" to="#808080" begin="arrowRight.mouseover" end="arrowRight.mouseout"/>
                  </use>
                  <path fill="none" stroke="white" stroke-width="1.5" d="M0,-3.0v7 M-2.5,-0.5L0,-3.0L2.5,-0.5"/>
                </g>
                <g id="arrowDown" xlink:href="#dirArrow" transform="rotate(180) translate(-30 -48)" onmousedown="handlePan(0,1)">
                  <use xlink:href="#rim" fill="#404040">
                        <set attributeName="fill" to="#808080" begin="arrowDown.mouseover" end="arrowDown.mouseout"/>
                  </use>
                  <path fill="none" stroke="white" stroke-width="1.5" d="M0,-3.0v7 M-2.5,-0.5L0,-3.0L2.5,-0.5"/>
                </g>
                <g id="arrowLeft" xlink:href="#dirArrow" transform="rotate(270) translate(-36 17)" onmousedown="handlePan(-1,0)">
                  <use xlink:href="#rim" fill="#404040">
                        <set attributeName="fill" to="#808080" begin="arrowLeft.mouseover" end="arrowLeft.mouseout"/>
                  </use>
                  <path fill="none" stroke="white" stroke-width="1.5" d="M0,-3.0v7 M-2.5,-0.5L0,-3.0L2.5,-0.5"/>
                </g>
        </g>
        <svg viewBox="0 0 15 15" width="100%" height="30px" preserveAspectRatio="xMaxYMin meet">
         <g id="arrow_out" transform="scale(0.3 0.3)">
          <a xlink:href="classslogo_1_1backend_1_1impl_1_1parsing_1_1_parser_a9952d00b4efaccfd87c5bf720cd8f5b5_icgraph_org.svg" target="_base">
           <rect id="button" ry="5" rx="5" y="6" x="6" height="38" width="38"
                fill="#f2f5e9" fill-opacity="0.5" stroke="#606060" stroke-width="1.0"/>
           <path id="arrow"
             d="M 11.500037,31.436501 C 11.940474,20.09759 22.043105,11.32322 32.158766,21.979434 L 37.068811,17.246167 C 37.068811,17.246167 37.088388,32 37.088388,32 L 22.160133,31.978069 C 22.160133,31.978069 26.997745,27.140456 26.997745,27.140456 C 18.528582,18.264221 13.291696,25.230495 11.500037,31.436501 z"
             style="fill:#404040;"/>
          </a>
         </g>
        </svg>
</svg>
