<?xml version="1.0" encoding="UTF-8" standalone="no"?>
<!DOCTYPE svg PUBLIC "-//W3C//DTD SVG 1.1//EN"
 "http://www.w3.org/Graphics/SVG/1.1/DTD/svg11.dtd">
<!-- Generated by graphviz version 2.36.0 (20140111.2315)
 -->
<!-- Title: slogo.backend.impl.parsing.Parser.parse Pages: 1 -->
<svg width="892pt" height="270pt"
 viewBox="0.00 0.00 892.00 270.00" xmlns="http://www.w3.org/2000/svg" xmlns:xlink="http://www.w3.org/1999/xlink">
<g id="graph0" class="graph" transform="scale(1 1) rotate(0) translate(4 266)">
<title>slogo.backend.impl.parsing.Parser.parse</title>
<polygon fill="white" stroke="none" points="-4,4 -4,-266 888,-266 888,4 -4,4"/>
<!-- Node1 -->
<g id="node1" class="node"><title>Node1</title>
<polygon fill="#bfbfbf" stroke="black" points="0,-158 0,-188 150,-188 150,-158 0,-158"/>
<text text-anchor="start" x="8" y="-176" font-family="Helvetica,sans-Serif" font-size="10.00">slogo.backend.impl.parsing.</text>
<text text-anchor="middle" x="75" y="-165" font-family="Helvetica,sans-Serif" font-size="10.00">Parser.parse</text>
</g>
<!-- Node2 -->
<g id="node2" class="node"><title>Node2</title>
<g id="a_node2"><a xlink:href="../../d3/df5/classslogo_1_1backend_1_1impl_1_1parsing_1_1_parser.html#a9952d00b4efaccfd87c5bf720cd8f5b5" target="_top" xlink:title="slogo.backend.impl.parsing.\lParser.generateParseErrorMessage">
<polygon fill="white" stroke="black" points="186.5,-232 186.5,-262 371.5,-262 371.5,-232 186.5,-232"/>
<text text-anchor="start" x="194.5" y="-250" font-family="Helvetica,sans-Serif" font-size="10.00">slogo.backend.impl.parsing.</text>
<text text-anchor="middle" x="279" y="-239" font-family="Helvetica,sans-Serif" font-size="10.00">Parser.generateParseErrorMessage</text>
</a>
</g>
</g>
<!-- Node1&#45;&gt;Node2 -->
<g id="edge1" class="edge"><title>Node1&#45;&gt;Node2</title>
<path fill="none" stroke="midnightblue" d="M106.305,-188.015C128.115,-198.445 158.428,-212.179 186,-222 192.86,-224.444 200.08,-226.786 207.333,-228.989"/>
<polygon fill="midnightblue" stroke="midnightblue" points="206.632,-232.432 217.214,-231.905 208.613,-225.718 206.632,-232.432"/>
</g>
<!-- Node3 -->
<g id="node3" class="node"><title>Node3</title>
<g id="a_node3"><a xlink:href="../../d3/df5/classslogo_1_1backend_1_1impl_1_1parsing_1_1_parser.html#a8c294c57ebafd58e56c3aa146e488967" target="_top" xlink:title="slogo.backend.impl.parsing.\lParser.hasProduction">
<polygon fill="white" stroke="black" points="204,-183 204,-213 354,-213 354,-183 204,-183"/>
<text text-anchor="start" x="212" y="-201" font-family="Helvetica,sans-Serif" font-size="10.00">slogo.backend.impl.parsing.</text>
<text text-anchor="middle" x="279" y="-190" font-family="Helvetica,sans-Serif" font-size="10.00">Parser.hasProduction</text>
</a>
</g>
</g>
<!-- Node1&#45;&gt;Node3 -->
<g id="edge2" class="edge"><title>Node1&#45;&gt;Node3</title>
<path fill="none" stroke="midnightblue" d="M150.07,-182.167C164.342,-183.933 179.388,-185.796 193.95,-187.598"/>
<polygon fill="midnightblue" stroke="midnightblue" points="193.584,-191.079 203.939,-188.834 194.444,-184.132 193.584,-191.079"/>
</g>
<!-- Node4 -->
<g id="node4" class="node"><title>Node4</title>
<g id="a_node4"><a xlink:href="../../d3/df5/classslogo_1_1backend_1_1impl_1_1parsing_1_1_parser.html#a45c72cbdffe8b984e4e15769eeb9b437" target="_top" xlink:title="slogo.backend.impl.parsing.\lParser.reduce">
<polygon fill="white" stroke="black" points="204,-134 204,-164 354,-164 354,-134 204,-134"/>
<text text-anchor="start" x="212" y="-152" font-family="Helvetica,sans-Serif" font-size="10.00">slogo.backend.impl.parsing.</text>
<text text-anchor="middle" x="279" y="-141" font-family="Helvetica,sans-Serif" font-size="10.00">Parser.reduce</text>
</a>
</g>
</g>
<!-- Node1&#45;&gt;Node4 -->
<g id="edge3" class="edge"><title>Node1&#45;&gt;Node4</title>
<path fill="none" stroke="midnightblue" d="M150.07,-164.2C164.342,-162.504 179.388,-160.716 193.95,-158.986"/>
<polygon fill="midnightblue" stroke="midnightblue" points="194.421,-162.455 203.939,-157.799 193.595,-155.504 194.421,-162.455"/>
</g>
<!-- Node7 -->
<g id="node7" class="node"><title>Node7</title>
<g id="a_node7"><a xlink:href="../../d3/df5/classslogo_1_1backend_1_1impl_1_1parsing_1_1_parser.html#aa3bd41bdfb139d987cfc3d7745492650" target="_top" xlink:title="slogo.backend.impl.parsing.\lParser.tokensToNodes">
<polygon fill="white" stroke="black" points="204,-61 204,-91 354,-91 354,-61 204,-61"/>
<text text-anchor="start" x="212" y="-79" font-family="Helvetica,sans-Serif" font-size="10.00">slogo.backend.impl.parsing.</text>
<text text-anchor="middle" x="279" y="-68" font-family="Helvetica,sans-Serif" font-size="10.00">Parser.tokensToNodes</text>
</a>
</g>
</g>
<!-- Node1&#45;&gt;Node7 -->
<g id="edge6" class="edge"><title>Node1&#45;&gt;Node7</title>
<path fill="none" stroke="midnightblue" d="M107.562,-157.844C142.547,-141.044 199.074,-113.9 237.346,-95.5218"/>
<polygon fill="midnightblue" stroke="midnightblue" points="239.16,-98.5337 246.659,-91.0498 236.13,-92.2235 239.16,-98.5337"/>
</g>
<!-- Node5 -->
<g id="node5" class="node"><title>Node5</title>
<g id="a_node5"><a xlink:href="../../d3/df5/classslogo_1_1backend_1_1impl_1_1parsing_1_1_parser.html#a248104544de69bf5fa16e77f0cffa1b8" target="_top" xlink:title="slogo.backend.impl.parsing.\lParser.createNestedNode">
<polygon fill="white" stroke="black" points="444,-147 444,-177 594,-177 594,-147 444,-147"/>
<text text-anchor="start" x="452" y="-165" font-family="Helvetica,sans-Serif" font-size="10.00">slogo.backend.impl.parsing.</text>
<text text-anchor="middle" x="519" y="-154" font-family="Helvetica,sans-Serif" font-size="10.00">Parser.createNestedNode</text>
</a>
</g>
</g>
<!-- Node4&#45;&gt;Node5 -->
<g id="edge4" class="edge"><title>Node4&#45;&gt;Node5</title>
<path fill="none" stroke="midnightblue" d="M354,-153.042C379.177,-154.417 407.506,-155.965 433.446,-157.381"/>
<polygon fill="midnightblue" stroke="midnightblue" points="433.46,-160.887 443.636,-157.938 433.842,-153.898 433.46,-160.887"/>
</g>
<!-- Node6 -->
<g id="node6" class="node"><title>Node6</title>
<g id="a_node6"><a xlink:href="../../d4/dcd/interfaceslogo_1_1backend_1_1parsing_1_1_i_syntax_node.html#a8a5430b12768100c00442d4057a3cccf" target="_top" xlink:title="slogo.backend.parsing.ISyntax\lNode.setChildren">
<polygon fill="white" stroke="black" points="694,-147 694,-177 856,-177 856,-147 694,-147"/>
<text text-anchor="start" x="702" y="-165" font-family="Helvetica,sans-Serif" font-size="10.00">slogo.backend.parsing.ISyntax</text>
<text text-anchor="middle" x="775" y="-154" font-family="Helvetica,sans-Serif" font-size="10.00">Node.setChildren</text>
</a>
</g>
</g>
<!-- Node5&#45;&gt;Node6 -->
<g id="edge5" class="edge"><title>Node5&#45;&gt;Node6</title>
<path fill="none" stroke="midnightblue" d="M594.15,-162C622.181,-162 654.392,-162 683.74,-162"/>
<polygon fill="midnightblue" stroke="midnightblue" points="683.99,-165.5 693.99,-162 683.99,-158.5 683.99,-165.5"/>
</g>
<!-- Node8 -->
<g id="node8" class="node"><title>Node8</title>
<g id="a_node8"><a xlink:href="../../d9/db8/classslogo_1_1backend_1_1impl_1_1evaluation_1_1commands_1_1_operation.html#a99c335d45415a08baca52ac1cbfb5108" target="_top" xlink:title="slogo.backend.impl.evaluation.commands.\lOperation.type">
<polygon fill="white" stroke="black" points="408.5,-98 408.5,-128 629.5,-128 629.5,-98 408.5,-98"/>
<text text-anchor="start" x="416.5" y="-116" font-family="Helvetica,sans-Serif" font-size="10.00">slogo.backend.impl.evaluation.commands.</text>
<text text-anchor="middle" x="519" y="-105" font-family="Helvetica,sans-Serif" font-size="10.00">Operation.type</text>
</a>
</g>
</g>
<!-- Node7&#45;&gt;Node8 -->
<g id="edge7" class="edge"><title>Node7&#45;&gt;Node8</title>
<path fill="none" stroke="midnightblue" d="M354,-87.5042C372.127,-90.3223 391.888,-93.3944 411.215,-96.399"/>
<polygon fill="midnightblue" stroke="midnightblue" points="410.852,-99.8846 421.271,-97.9624 411.928,-92.9676 410.852,-99.8846"/>
</g>
<!-- Node9 -->
<g id="node9" class="node"><title>Node9</title>
<g id="a_node9"><a xlink:href="../../d3/df5/classslogo_1_1backend_1_1impl_1_1parsing_1_1_parser.html#aa4ac9c44dc526c6248a0ef797280ffcc" target="_top" xlink:title="slogo.backend.impl.parsing.\lParser.dereference">
<polygon fill="white" stroke="black" points="444,-49 444,-79 594,-79 594,-49 444,-49"/>
<text text-anchor="start" x="452" y="-67" font-family="Helvetica,sans-Serif" font-size="10.00">slogo.backend.impl.parsing.</text>
<text text-anchor="middle" x="519" y="-56" font-family="Helvetica,sans-Serif" font-size="10.00">Parser.dereference</text>
</a>
</g>
</g>
<!-- Node7&#45;&gt;Node9 -->
<g id="edge8" class="edge"><title>Node7&#45;&gt;Node9</title>
<path fill="none" stroke="midnightblue" d="M354,-72.2689C379.177,-70.9995 407.506,-69.5711 433.446,-68.2633"/>
<polygon fill="midnightblue" stroke="midnightblue" points="433.825,-71.7487 443.636,-67.7494 433.473,-64.7575 433.825,-71.7487"/>
</g>
<!-- Node11 -->
<g id="node11" class="node"><title>Node11</title>
<g id="a_node11"><a xlink:href="../../de/dce/interfaceslogo_1_1backend_1_1evaluation_1_1_i_operation_factory.html#a484e02a0983f8f810ce40e7fe71f38fd" target="_top" xlink:title="slogo.backend.evaluation.\lIOperationFactory.makeElement">
<polygon fill="white" stroke="black" points="434.5,-0 434.5,-30 603.5,-30 603.5,-0 434.5,-0"/>
<text text-anchor="start" x="442.5" y="-18" font-family="Helvetica,sans-Serif" font-size="10.00">slogo.backend.evaluation.</text>
<text text-anchor="middle" x="519" y="-7" font-family="Helvetica,sans-Serif" font-size="10.00">IOperationFactory.makeElement</text>
</a>
</g>
</g>
<!-- Node7&#45;&gt;Node11 -->
<g id="edge10" class="edge"><title>Node7&#45;&gt;Node11</title>
<path fill="none" stroke="midnightblue" d="M329.026,-60.9992C352.773,-53.9457 381.764,-45.6461 408,-39 417,-36.72 426.448,-34.4599 435.866,-32.2907"/>
<polygon fill="midnightblue" stroke="midnightblue" points="436.676,-35.696 445.651,-30.066 435.124,-28.8702 436.676,-35.696"/>
</g>
<!-- Node10 -->
<g id="node10" class="node"><title>Node10</title>
<g id="a_node10"><a xlink:href="../../d5/da1/classslogo_1_1backend_1_1impl_1_1_languages.html#a8f179469305c23fe460321ba214b4071" target="_top" xlink:title="slogo.backend.impl.Languages.returnMap">
<polygon fill="white" stroke="black" points="666.5,-54.5 666.5,-73.5 883.5,-73.5 883.5,-54.5 666.5,-54.5"/>
<text text-anchor="middle" x="775" y="-61.5" font-family="Helvetica,sans-Serif" font-size="10.00">slogo.backend.impl.Languages.returnMap</text>
</a>
</g>
</g>
<!-- Node9&#45;&gt;Node10 -->
<g id="edge9" class="edge"><title>Node9&#45;&gt;Node10</title>
<path fill="none" stroke="midnightblue" d="M594.15,-64C613.617,-64 635.101,-64 656.241,-64"/>
<polygon fill="midnightblue" stroke="midnightblue" points="656.25,-67.5001 666.249,-64 656.249,-60.5001 656.25,-67.5001"/>
</g>
</g>
</svg>
