<?xml version="1.0" encoding="UTF-8" standalone="no"?>
<!DOCTYPE svg PUBLIC "-//W3C//DTD SVG 1.1//EN"
 "http://www.w3.org/Graphics/SVG/1.1/DTD/svg11.dtd">
<!-- Generated by graphviz version 2.36.0 (20140111.2315)
 -->
<!-- Title: slogo.UI.ListViewUserVariables.create Pages: 1 -->
<svg width="1524pt" height="62pt"
 viewBox="0.00 0.00 1524.00 62.00" xmlns="http://www.w3.org/2000/svg" xmlns:xlink="http://www.w3.org/1999/xlink">
<g id="graph0" class="graph" transform="scale(1 1) rotate(0) translate(4 58)">
<title>slogo.UI.ListViewUserVariables.create</title>
<polygon fill="white" stroke="none" points="-4,4 -4,-58 1520,-58 1520,4 -4,4"/>
<!-- Node1 -->
<g id="node1" class="node"><title>Node1</title>
<polygon fill="#bfbfbf" stroke="black" points="0,-5.5 0,-24.5 196,-24.5 196,-5.5 0,-5.5"/>
<text text-anchor="middle" x="98" y="-12.5" font-family="Helvetica,sans-Serif" font-size="10.00">slogo.UI.ListViewUserVariables.create</text>
</g>
<!-- Node2 -->
<g id="node2" class="node"><title>Node2</title>
<g id="a_node2"><a xlink:href="../../db/d19/classslogo_1_1_u_i_1_1_module_creation_helper.html#af4fd617bc69e5e9986e2634bc7f30d7d" target="_top" xlink:title="slogo.UI.ModuleCreationHelper.create\lListViews">
<polygon fill="white" stroke="black" points="232.5,-0 232.5,-30 429.5,-30 429.5,-0 232.5,-0"/>
<text text-anchor="start" x="240.5" y="-18" font-family="Helvetica,sans-Serif" font-size="10.00">slogo.UI.ModuleCreationHelper.create</text>
<text text-anchor="middle" x="331" y="-7" font-family="Helvetica,sans-Serif" font-size="10.00">ListViews</text>
</a>
</g>
</g>
<!-- Node1&#45;&gt;Node2 -->
<g id="edge1" class="edge"><title>Node1&#45;&gt;Node2</title>
<path fill="none" stroke="midnightblue" d="M206.438,-15C215.113,-15 223.848,-15 232.447,-15"/>
<polygon fill="midnightblue" stroke="midnightblue" points="206.295,-11.5001 196.295,-15 206.295,-18.5001 206.295,-11.5001"/>
</g>
<!-- Node3 -->
<g id="node3" class="node"><title>Node3</title>
<g id="a_node3"><a xlink:href="../../db/d19/classslogo_1_1_u_i_1_1_module_creation_helper.html#afb9dbbbad7d872234a5b296fe129a34e" target="_top" xlink:title="slogo.UI.ModuleCreationHelper.create\lMainPageModules">
<polygon fill="white" stroke="black" points="466.5,-0 466.5,-30 663.5,-30 663.5,-0 466.5,-0"/>
<text text-anchor="start" x="474.5" y="-18" font-family="Helvetica,sans-Serif" font-size="10.00">slogo.UI.ModuleCreationHelper.create</text>
<text text-anchor="middle" x="565" y="-7" font-family="Helvetica,sans-Serif" font-size="10.00">MainPageModules</text>
</a>
</g>
</g>
<!-- Node2&#45;&gt;Node3 -->
<g id="edge2" class="edge"><title>Node2&#45;&gt;Node3</title>
<path fill="none" stroke="midnightblue" d="M439.722,-15C448.618,-15 457.58,-15 466.396,-15"/>
<polygon fill="midnightblue" stroke="midnightblue" points="439.717,-11.5001 429.716,-15 439.716,-18.5001 439.717,-11.5001"/>
</g>
<!-- Node4 -->
<g id="node4" class="node"><title>Node4</title>
<g id="a_node4"><a xlink:href="../../d9/d33/classslogo_1_1_u_i_1_1_main.html#a15b7f2e399ee24d160550993ab737e73" target="_top" xlink:title="slogo.UI.Main.start">
<polygon fill="white" stroke="black" points="700,-26.5 700,-45.5 806,-45.5 806,-26.5 700,-26.5"/>
<text text-anchor="middle" x="753" y="-33.5" font-family="Helvetica,sans-Serif" font-size="10.00">slogo.UI.Main.start</text>
</a>
</g>
</g>
<!-- Node3&#45;&gt;Node4 -->
<g id="edge3" class="edge"><title>Node3&#45;&gt;Node4</title>
<path fill="none" stroke="midnightblue" d="M673.804,-27.1714C682.76,-28.1825 691.528,-29.1725 699.764,-30.1024"/>
<polygon fill="midnightblue" stroke="midnightblue" points="673.96,-23.6668 663.63,-26.0228 673.174,-30.6227 673.96,-23.6668"/>
</g>
<!-- Node5 -->
<g id="node5" class="node"><title>Node5</title>
<g id="a_node5"><a xlink:href="../../db/d19/classslogo_1_1_u_i_1_1_module_creation_helper.html#a3be12a7cc2b8a219db1e296211a2cb88" target="_top" xlink:title="slogo.UI.ModuleCreationHelper.activate\lExtraWorkspaceButton">
<polygon fill="white" stroke="black" points="842.5,-24 842.5,-54 1047.5,-54 1047.5,-24 842.5,-24"/>
<text text-anchor="start" x="850.5" y="-42" font-family="Helvetica,sans-Serif" font-size="10.00">slogo.UI.ModuleCreationHelper.activate</text>
<text text-anchor="middle" x="945" y="-31" font-family="Helvetica,sans-Serif" font-size="10.00">ExtraWorkspaceButton</text>
</a>
</g>
</g>
<!-- Node4&#45;&gt;Node5 -->
<g id="edge4" class="edge"><title>Node4&#45;&gt;Node5</title>
<path fill="none" stroke="midnightblue" d="M816.218,-36.9824C824.632,-37.1152 833.438,-37.2543 842.321,-37.3945"/>
<polygon fill="midnightblue" stroke="midnightblue" points="816.224,-33.4821 806.17,-36.8237 816.113,-40.4813 816.224,-33.4821"/>
</g>
<!-- Node6 -->
<g id="node6" class="node"><title>Node6</title>
<g id="a_node6"><a xlink:href="../../db/d19/classslogo_1_1_u_i_1_1_module_creation_helper.html#a702c1ebe24d2857a10c666eb1fcc315d" target="_top" xlink:title="slogo.UI.ModuleCreationHelper.create\lExtraWorkspaceButton">
<polygon fill="white" stroke="black" points="1084.5,-24 1084.5,-54 1281.5,-54 1281.5,-24 1084.5,-24"/>
<text text-anchor="start" x="1092.5" y="-42" font-family="Helvetica,sans-Serif" font-size="10.00">slogo.UI.ModuleCreationHelper.create</text>
<text text-anchor="middle" x="1183" y="-31" font-family="Helvetica,sans-Serif" font-size="10.00">ExtraWorkspaceButton</text>
</a>
</g>
</g>
<!-- Node5&#45;&gt;Node6 -->
<g id="edge5" class="edge"><title>Node5&#45;&gt;Node6</title>
<path fill="none" stroke="midnightblue" d="M1058.05,-39C1066.81,-39 1075.62,-39 1084.27,-39"/>
<polygon fill="midnightblue" stroke="midnightblue" points="1057.8,-35.5001 1047.8,-39 1057.8,-42.5001 1057.8,-35.5001"/>
</g>
<!-- Node7 -->
<g id="node7" class="node"><title>Node7</title>
<g id="a_node7"><a xlink:href="../../db/d19/classslogo_1_1_u_i_1_1_module_creation_helper.html#a7c650957b2389d6e6d36e8be8a33cd2b" target="_top" xlink:title="slogo.UI.ModuleCreationHelper.create\lSelectorVBoxModules">
<polygon fill="white" stroke="black" points="1318.5,-2 1318.5,-32 1515.5,-32 1515.5,-2 1318.5,-2"/>
<text text-anchor="start" x="1326.5" y="-20" font-family="Helvetica,sans-Serif" font-size="10.00">slogo.UI.ModuleCreationHelper.create</text>
<text text-anchor="middle" x="1417" y="-9" font-family="Helvetica,sans-Serif" font-size="10.00">SelectorVBoxModules</text>
</a>
</g>
</g>
<!-- Node6&#45;&gt;Node7 -->
<g id="edge6" class="edge"><title>Node6&#45;&gt;Node7</title>
<path fill="none" stroke="midnightblue" d="M1291.72,-28.785C1300.62,-27.9414 1309.58,-27.0915 1318.4,-26.2555"/>
<polygon fill="midnightblue" stroke="midnightblue" points="1291.34,-25.3053 1281.72,-29.7338 1292,-32.274 1291.34,-25.3053"/>
</g>
<!-- Node7&#45;&gt;Node3 -->
<g id="edge7" class="edge"><title>Node7&#45;&gt;Node3</title>
<path fill="none" stroke="midnightblue" d="M1308.27,-14.3776C1299.38,-14.2253 1290.54,-14.0956 1282,-14 1060.91,-11.5254 801.383,-12.9724 663.575,-14.086"/>
<polygon fill="midnightblue" stroke="midnightblue" points="1308.24,-17.8776 1318.3,-14.5584 1308.37,-10.8787 1308.24,-17.8776"/>
</g>
</g>
</svg>
