<?xml version="1.0" encoding="UTF-8" standalone="no"?>
<!DOCTYPE svg PUBLIC "-//W3C//DTD SVG 1.1//EN"
 "http://www.w3.org/Graphics/SVG/1.1/DTD/svg11.dtd">
<!-- Generated by graphviz version 2.36.0 (20140111.2315)
 -->
<!-- Title: slogo.backend.impl.parsing.Parser.tokensToNodes Pages: 1 -->
<svg width="670pt" height="136pt"
 viewBox="0.00 0.00 670.00 136.00" xmlns="http://www.w3.org/2000/svg" xmlns:xlink="http://www.w3.org/1999/xlink">
<g id="graph0" class="graph" transform="scale(1 1) rotate(0) translate(4 132)">
<title>slogo.backend.impl.parsing.Parser.tokensToNodes</title>
<polygon fill="white" stroke="none" points="-4,4 -4,-132 666,-132 666,4 -4,4"/>
<!-- Node1 -->
<g id="node1" class="node"><title>Node1</title>
<polygon fill="#bfbfbf" stroke="black" points="0,-49 0,-79 150,-79 150,-49 0,-49"/>
<text text-anchor="start" x="8" y="-67" font-family="Helvetica,sans-Serif" font-size="10.00">slogo.backend.impl.parsing.</text>
<text text-anchor="middle" x="75" y="-56" font-family="Helvetica,sans-Serif" font-size="10.00">Parser.tokensToNodes</text>
</g>
<!-- Node2 -->
<g id="node2" class="node"><title>Node2</title>
<g id="a_node2"><a xlink:href="../../d3/df5/classslogo_1_1backend_1_1impl_1_1parsing_1_1_parser.html#aa4ac9c44dc526c6248a0ef797280ffcc" target="_top" xlink:title="slogo.backend.impl.parsing.\lParser.dereference">
<polygon fill="white" stroke="black" points="222,-98 222,-128 372,-128 372,-98 222,-98"/>
<text text-anchor="start" x="230" y="-116" font-family="Helvetica,sans-Serif" font-size="10.00">slogo.backend.impl.parsing.</text>
<text text-anchor="middle" x="297" y="-105" font-family="Helvetica,sans-Serif" font-size="10.00">Parser.dereference</text>
</a>
</g>
</g>
<!-- Node1&#45;&gt;Node2 -->
<g id="edge1" class="edge"><title>Node1&#45;&gt;Node2</title>
<path fill="none" stroke="midnightblue" d="M143.502,-79.0346C167.259,-84.3259 194.141,-90.3133 218.646,-95.7712"/>
<polygon fill="midnightblue" stroke="midnightblue" points="218.104,-99.236 228.625,-97.9938 219.625,-92.4034 218.104,-99.236"/>
</g>
<!-- Node4 -->
<g id="node4" class="node"><title>Node4</title>
<g id="a_node4"><a xlink:href="../../de/dce/interfaceslogo_1_1backend_1_1evaluation_1_1_i_operation_factory.html#a484e02a0983f8f810ce40e7fe71f38fd" target="_top" xlink:title="slogo.backend.evaluation.\lIOperationFactory.makeElement">
<polygon fill="white" stroke="black" points="212.5,-49 212.5,-79 381.5,-79 381.5,-49 212.5,-49"/>
<text text-anchor="start" x="220.5" y="-67" font-family="Helvetica,sans-Serif" font-size="10.00">slogo.backend.evaluation.</text>
<text text-anchor="middle" x="297" y="-56" font-family="Helvetica,sans-Serif" font-size="10.00">IOperationFactory.makeElement</text>
</a>
</g>
</g>
<!-- Node1&#45;&gt;Node4 -->
<g id="edge3" class="edge"><title>Node1&#45;&gt;Node4</title>
<path fill="none" stroke="midnightblue" d="M150.175,-64C166.86,-64 184.778,-64 202.148,-64"/>
<polygon fill="midnightblue" stroke="midnightblue" points="202.298,-67.5001 212.298,-64 202.298,-60.5001 202.298,-67.5001"/>
</g>
<!-- Node5 -->
<g id="node5" class="node"><title>Node5</title>
<g id="a_node5"><a xlink:href="../../d9/db8/classslogo_1_1backend_1_1impl_1_1evaluation_1_1commands_1_1_operation.html#a99c335d45415a08baca52ac1cbfb5108" target="_top" xlink:title="slogo.backend.impl.evaluation.commands.\lOperation.type">
<polygon fill="white" stroke="black" points="186.5,-0 186.5,-30 407.5,-30 407.5,-0 186.5,-0"/>
<text text-anchor="start" x="194.5" y="-18" font-family="Helvetica,sans-Serif" font-size="10.00">slogo.backend.impl.evaluation.commands.</text>
<text text-anchor="middle" x="297" y="-7" font-family="Helvetica,sans-Serif" font-size="10.00">Operation.type</text>
</a>
</g>
</g>
<!-- Node1&#45;&gt;Node5 -->
<g id="edge4" class="edge"><title>Node1&#45;&gt;Node5</title>
<path fill="none" stroke="midnightblue" d="M143.502,-48.9654C167.259,-43.6741 194.141,-37.6867 218.646,-32.2288"/>
<polygon fill="midnightblue" stroke="midnightblue" points="219.625,-35.5966 228.625,-30.0062 218.104,-28.764 219.625,-35.5966"/>
</g>
<!-- Node3 -->
<g id="node3" class="node"><title>Node3</title>
<g id="a_node3"><a xlink:href="../../d5/da1/classslogo_1_1backend_1_1impl_1_1_languages.html#a8f179469305c23fe460321ba214b4071" target="_top" xlink:title="slogo.backend.impl.Languages.returnMap">
<polygon fill="white" stroke="black" points="444.5,-103.5 444.5,-122.5 661.5,-122.5 661.5,-103.5 444.5,-103.5"/>
<text text-anchor="middle" x="553" y="-110.5" font-family="Helvetica,sans-Serif" font-size="10.00">slogo.backend.impl.Languages.returnMap</text>
</a>
</g>
</g>
<!-- Node2&#45;&gt;Node3 -->
<g id="edge2" class="edge"><title>Node2&#45;&gt;Node3</title>
<path fill="none" stroke="midnightblue" d="M372.15,-113C391.617,-113 413.101,-113 434.241,-113"/>
<polygon fill="midnightblue" stroke="midnightblue" points="434.25,-116.5 444.249,-113 434.249,-109.5 434.25,-116.5"/>
</g>
</g>
</svg>
