<?xml version="1.0" encoding="UTF-8" standalone="no"?>
<!DOCTYPE svg PUBLIC "-//W3C//DTD SVG 1.1//EN"
 "http://www.w3.org/Graphics/SVG/1.1/DTD/svg11.dtd">
<!-- Generated by graphviz version 2.36.0 (20140111.2315)
 -->
<!-- Title: slogo.UI.PathTextureSelector Pages: 1 -->
<svg width="193pt" height="96pt"
 viewBox="0.00 0.00 193.00 96.00" xmlns="http://www.w3.org/2000/svg" xmlns:xlink="http://www.w3.org/1999/xlink">
<g id="graph0" class="graph" transform="scale(1 1) rotate(0) translate(4 92)">
<title>slogo.UI.PathTextureSelector</title>
<polygon fill="white" stroke="none" points="-4,4 -4,-92 189,-92 189,4 -4,4"/>
<!-- Node1 -->
<g id="node1" class="node"><title>Node1</title>
<polygon fill="#bfbfbf" stroke="black" points="-0.5,-0.5 -0.5,-19.5 152.5,-19.5 152.5,-0.5 -0.5,-0.5"/>
<text text-anchor="middle" x="76" y="-7.5" font-family="Helvetica,sans-Serif" font-size="10.00">slogo.UI.PathTextureSelector</text>
</g>
<!-- Node2 -->
<g id="node2" class="node"><title>Node2</title>
<polygon fill="white" stroke="#bfbfbf" points="6.5,-68.5 6.5,-87.5 47.5,-87.5 47.5,-68.5 6.5,-68.5"/>
<text text-anchor="middle" x="27" y="-75.5" font-family="Helvetica,sans-Serif" font-size="10.00">VBox</text>
</g>
<!-- Node2&#45;&gt;Node1 -->
<g id="edge1" class="edge"><title>Node2&#45;&gt;Node1</title>
<path fill="none" stroke="#9a32cd" stroke-dasharray="5,2" d="M39.391,-60.3101C48.9433,-47.4437 61.7764,-30.1583 69.4361,-19.8411"/>
<polygon fill="#9a32cd" stroke="#9a32cd" points="36.5567,-58.2562 33.4059,-68.3717 42.1771,-62.4289 36.5567,-58.2562"/>
<text text-anchor="middle" x="77.5" y="-41.5" font-family="Helvetica,sans-Serif" font-size="10.00"> myVbox</text>
</g>
<!-- Node3 -->
<g id="node3" class="node"><title>Node3</title>
<polygon fill="white" stroke="#bfbfbf" points="66,-68.5 66,-87.5 186,-87.5 186,-68.5 66,-68.5"/>
<text text-anchor="middle" x="126" y="-75.5" font-family="Helvetica,sans-Serif" font-size="10.00">ComboBox&lt; String &gt;</text>
</g>
<!-- Node3&#45;&gt;Node1 -->
<g id="edge2" class="edge"><title>Node3&#45;&gt;Node1</title>
<path fill="none" stroke="#9a32cd" stroke-dasharray="5,2" d="M116.689,-59.0742C112.815,-52.2304 108.046,-44.5131 103,-38 97.8846,-31.3969 91.264,-24.7531 85.859,-19.7081"/>
<polygon fill="#9a32cd" stroke="#9a32cd" points="113.81,-61.1084 121.651,-68.2339 119.965,-57.774 113.81,-61.1084"/>
<text text-anchor="middle" x="141" y="-41.5" font-family="Helvetica,sans-Serif" font-size="10.00"> pathTexture</text>
</g>
</g>
</svg>
