<?xml version="1.0" encoding="UTF-8" standalone="no"?>
<!DOCTYPE svg PUBLIC "-//W3C//DTD SVG 1.1//EN"
 "http://www.w3.org/Graphics/SVG/1.1/DTD/svg11.dtd">
<!-- Generated by graphviz version 2.36.0 (20140111.2315)
 -->
<!-- Title: slogo.UI.ListViewSLOGOVariables Pages: 1 -->
<svg width="355pt" height="232pt"
 viewBox="0.00 0.00 355.00 232.00" xmlns="http://www.w3.org/2000/svg" xmlns:xlink="http://www.w3.org/1999/xlink">
<g id="graph0" class="graph" transform="scale(1 1) rotate(0) translate(4 228)">
<title>slogo.UI.ListViewSLOGOVariables</title>
<polygon fill="white" stroke="none" points="-4,4 -4,-228 351,-228 351,4 -4,4"/>
<!-- Node1 -->
<g id="node1" class="node"><title>Node1</title>
<polygon fill="#bfbfbf" stroke="black" points="151,-0.5 151,-19.5 325,-19.5 325,-0.5 151,-0.5"/>
<text text-anchor="middle" x="238" y="-7.5" font-family="Helvetica,sans-Serif" font-size="10.00">slogo.UI.ListViewSLOGOVariables</text>
</g>
<!-- Node2 -->
<g id="node2" class="node"><title>Node2</title>
<g id="a_node2"><a xlink:href="../../db/dc0/classslogo_1_1_u_i_1_1_list_view_all_s_l_o_g_o.html" target="_top" xlink:title="slogo.UI.ListViewAllSLOGO">
<polygon fill="white" stroke="black" points="49,-68.5 49,-87.5 191,-87.5 191,-68.5 49,-68.5"/>
<text text-anchor="middle" x="120" y="-75.5" font-family="Helvetica,sans-Serif" font-size="10.00">slogo.UI.ListViewAllSLOGO</text>
</a>
</g>
</g>
<!-- Node2&#45;&gt;Node1 -->
<g id="edge1" class="edge"><title>Node2&#45;&gt;Node1</title>
<path fill="none" stroke="midnightblue" d="M144.422,-63.3401C167.909,-50.2036 202.692,-30.7487 222.57,-19.6305"/>
<polygon fill="midnightblue" stroke="midnightblue" points="142.445,-60.4354 135.426,-68.3717 145.863,-66.5447 142.445,-60.4354"/>
</g>
<!-- Node3 -->
<g id="node3" class="node"><title>Node3</title>
<polygon fill="white" stroke="#bfbfbf" points="-0.5,-136.5 -0.5,-155.5 40.5,-155.5 40.5,-136.5 -0.5,-136.5"/>
<text text-anchor="middle" x="20" y="-143.5" font-family="Helvetica,sans-Serif" font-size="10.00">VBox</text>
</g>
<!-- Node3&#45;&gt;Node2 -->
<g id="edge2" class="edge"><title>Node3&#45;&gt;Node2</title>
<path fill="none" stroke="#9a32cd" stroke-dasharray="5,2" d="M41.4981,-130.811C61.3844,-117.686 90.3024,-98.6004 106.924,-87.6305"/>
<polygon fill="#9a32cd" stroke="#9a32cd" points="39.4914,-127.942 33.0733,-136.372 43.3473,-133.784 39.4914,-127.942"/>
<text text-anchor="middle" x="92.5" y="-109.5" font-family="Helvetica,sans-Serif" font-size="10.00"> vBox</text>
</g>
<!-- Node4 -->
<g id="node4" class="node"><title>Node4</title>
<g id="a_node4"><a xlink:href="../../da/d8f/classslogo_1_1_u_i_1_1_list_view_creator.html" target="_top" xlink:title="slogo.UI.ListViewCreator">
<polygon fill="white" stroke="black" points="59,-136.5 59,-155.5 191,-155.5 191,-136.5 59,-136.5"/>
<text text-anchor="middle" x="125" y="-143.5" font-family="Helvetica,sans-Serif" font-size="10.00">slogo.UI.ListViewCreator</text>
</a>
</g>
</g>
<!-- Node4&#45;&gt;Node2 -->
<g id="edge3" class="edge"><title>Node4&#45;&gt;Node2</title>
<path fill="none" stroke="#9a32cd" stroke-dasharray="5,2" d="M121.871,-125.859C121.526,-123.225 121.221,-120.549 121,-118 120.1,-107.608 119.921,-95.6059 119.921,-87.6912"/>
<polygon fill="#9a32cd" stroke="#9a32cd" points="118.452,-126.66 123.392,-136.032 125.375,-125.624 118.452,-126.66"/>
<text text-anchor="middle" x="167.5" y="-109.5" font-family="Helvetica,sans-Serif" font-size="10.00"> myListViewCreator</text>
</g>
<!-- Node5 -->
<g id="node5" class="node"><title>Node5</title>
<polygon fill="white" stroke="#bfbfbf" points="72,-204.5 72,-223.5 178,-223.5 178,-204.5 72,-204.5"/>
<text text-anchor="middle" x="125" y="-211.5" font-family="Helvetica,sans-Serif" font-size="10.00">ListView&lt; String &gt;</text>
</g>
<!-- Node5&#45;&gt;Node4 -->
<g id="edge4" class="edge"><title>Node5&#45;&gt;Node4</title>
<path fill="none" stroke="#9a32cd" stroke-dasharray="5,2" d="M125,-194.041C125,-181.472 125,-165.563 125,-155.841"/>
<polygon fill="#9a32cd" stroke="#9a32cd" points="121.5,-194.372 125,-204.372 128.5,-194.372 121.5,-194.372"/>
<text text-anchor="middle" x="153.5" y="-177.5" font-family="Helvetica,sans-Serif" font-size="10.00"> myListView</text>
</g>
<!-- Node6 -->
<g id="node6" class="node"><title>Node6</title>
<polygon fill="white" stroke="#bfbfbf" points="213,-136.5 213,-155.5 259,-155.5 259,-136.5 213,-136.5"/>
<text text-anchor="middle" x="236" y="-143.5" font-family="Helvetica,sans-Serif" font-size="10.00">Group</text>
</g>
<!-- Node6&#45;&gt;Node2 -->
<g id="edge5" class="edge"><title>Node6&#45;&gt;Node2</title>
<path fill="none" stroke="#9a32cd" stroke-dasharray="5,2" d="M229.375,-126.86C225.841,-119.445 220.795,-111.366 214,-106 203.073,-97.3709 189.502,-91.4997 176.102,-87.5048"/>
<polygon fill="#9a32cd" stroke="#9a32cd" points="226.206,-128.354 233.277,-136.244 232.669,-125.666 226.206,-128.354"/>
<text text-anchor="middle" x="245" y="-109.5" font-family="Helvetica,sans-Serif" font-size="10.00"> myRoot</text>
</g>
<!-- Node7 -->
<g id="node7" class="node"><title>Node7</title>
<polygon fill="white" stroke="#bfbfbf" points="209,-68.5 209,-87.5 347,-87.5 347,-68.5 209,-68.5"/>
<text text-anchor="middle" x="278" y="-75.5" font-family="Helvetica,sans-Serif" font-size="10.00">ObservableList&lt; String &gt;</text>
</g>
<!-- Node7&#45;&gt;Node1 -->
<g id="edge6" class="edge"><title>Node7&#45;&gt;Node1</title>
<path fill="none" stroke="#9a32cd" stroke-dasharray="5,2" d="M267.432,-59.563C259.686,-46.7815 249.491,-29.9599 243.358,-19.8411"/>
<polygon fill="#9a32cd" stroke="#9a32cd" points="264.594,-61.6337 272.771,-68.3717 270.581,-58.0056 264.594,-61.6337"/>
<text text-anchor="middle" x="279.5" y="-41.5" font-family="Helvetica,sans-Serif" font-size="10.00"> myList</text>
</g>
</g>
</svg>
