<?xml version="1.0" encoding="UTF-8" standalone="no"?>
<!DOCTYPE svg PUBLIC "-//W3C//DTD SVG 1.1//EN"
 "http://www.w3.org/Graphics/SVG/1.1/DTD/svg11.dtd">
<!-- Generated by graphviz version 2.36.0 (20140111.2315)
 -->
<!-- Title: slogo.UI.Turtle.setColor Pages: 1 -->
<svg width="3078pt" height="427pt"
 viewBox="0.00 0.00 3078.00 427.00" xmlns="http://www.w3.org/2000/svg" xmlns:xlink="http://www.w3.org/1999/xlink">
<g id="graph0" class="graph" transform="scale(1 1) rotate(0) translate(4 423)">
<title>slogo.UI.Turtle.setColor</title>
<polygon fill="white" stroke="none" points="-4,4 -4,-423 3074,-423 3074,4 -4,4"/>
<!-- Node1 -->
<g id="node1" class="node"><title>Node1</title>
<polygon fill="#bfbfbf" stroke="black" points="0,-54.5 0,-73.5 126,-73.5 126,-54.5 0,-54.5"/>
<text text-anchor="middle" x="63" y="-61.5" font-family="Helvetica,sans-Serif" font-size="10.00">slogo.UI.Turtle.setColor</text>
</g>
<!-- Node2 -->
<g id="node2" class="node"><title>Node2</title>
<g id="a_node2"><a xlink:href="../../d9/d7e/classslogo_1_1_u_i_1_1_method_runner.html#ad9cd8e21d6cb54d79c7b14a83ed5bb1c" target="_top" xlink:title="slogo.UI.MethodRunner.set\lPenColor">
<polygon fill="white" stroke="black" points="162,-49 162,-79 306,-79 306,-49 162,-49"/>
<text text-anchor="start" x="170" y="-67" font-family="Helvetica,sans-Serif" font-size="10.00">slogo.UI.MethodRunner.set</text>
<text text-anchor="middle" x="234" y="-56" font-family="Helvetica,sans-Serif" font-size="10.00">PenColor</text>
</a>
</g>
</g>
<!-- Node1&#45;&gt;Node2 -->
<g id="edge1" class="edge"><title>Node1&#45;&gt;Node2</title>
<path fill="none" stroke="midnightblue" d="M136.604,-64C145.013,-64 153.583,-64 161.971,-64"/>
<polygon fill="midnightblue" stroke="midnightblue" points="136.449,-60.5001 126.449,-64 136.449,-67.5001 136.449,-60.5001"/>
</g>
<!-- Node3 -->
<g id="node3" class="node"><title>Node3</title>
<g id="a_node3"><a xlink:href="../../d9/d7e/classslogo_1_1_u_i_1_1_method_runner.html#a5e01d88aabd60df2be9ebb5b874837b1" target="_top" xlink:title="slogo.UI.MethodRunner.set\lPenAttributes">
<polygon fill="white" stroke="black" points="342,-49 342,-79 486,-79 486,-49 342,-49"/>
<text text-anchor="start" x="350" y="-67" font-family="Helvetica,sans-Serif" font-size="10.00">slogo.UI.MethodRunner.set</text>
<text text-anchor="middle" x="414" y="-56" font-family="Helvetica,sans-Serif" font-size="10.00">PenAttributes</text>
</a>
</g>
</g>
<!-- Node2&#45;&gt;Node3 -->
<g id="edge2" class="edge"><title>Node2&#45;&gt;Node3</title>
<path fill="none" stroke="midnightblue" d="M316.17,-64C324.789,-64 333.506,-64 341.995,-64"/>
<polygon fill="midnightblue" stroke="midnightblue" points="316.118,-60.5001 306.118,-64 316.118,-67.5001 316.118,-60.5001"/>
</g>
<!-- Node4 -->
<g id="node4" class="node"><title>Node4</title>
<g id="a_node4"><a xlink:href="../../d9/d7e/classslogo_1_1_u_i_1_1_method_runner.html#a5fe4a6310ba1b0851d7d30a440511324" target="_top" xlink:title="slogo.UI.MethodRunner.change\lTurtle">
<polygon fill="white" stroke="black" points="522,-49 522,-79 686,-79 686,-49 522,-49"/>
<text text-anchor="start" x="530" y="-67" font-family="Helvetica,sans-Serif" font-size="10.00">slogo.UI.MethodRunner.change</text>
<text text-anchor="middle" x="604" y="-56" font-family="Helvetica,sans-Serif" font-size="10.00">Turtle</text>
</a>
</g>
</g>
<!-- Node3&#45;&gt;Node4 -->
<g id="edge3" class="edge"><title>Node3&#45;&gt;Node4</title>
<path fill="none" stroke="midnightblue" d="M496.28,-64C504.719,-64 513.298,-64 521.736,-64"/>
<polygon fill="midnightblue" stroke="midnightblue" points="496.075,-60.5001 486.075,-64 496.075,-67.5001 496.075,-60.5001"/>
</g>
<!-- Node5 -->
<g id="node5" class="node"><title>Node5</title>
<g id="a_node5"><a xlink:href="../../df/d2d/classslogo_1_1_view.html#accc79c56511a72090ff8a4d414b8d1f5" target="_top" xlink:title="slogo.View.executeTurtle\lCommands">
<polygon fill="white" stroke="black" points="722.5,-49 722.5,-79 855.5,-79 855.5,-49 722.5,-49"/>
<text text-anchor="start" x="730.5" y="-67" font-family="Helvetica,sans-Serif" font-size="10.00">slogo.View.executeTurtle</text>
<text text-anchor="middle" x="789" y="-56" font-family="Helvetica,sans-Serif" font-size="10.00">Commands</text>
</a>
</g>
</g>
<!-- Node4&#45;&gt;Node5 -->
<g id="edge4" class="edge"><title>Node4&#45;&gt;Node5</title>
<path fill="none" stroke="midnightblue" d="M696.35,-64C705.128,-64 713.907,-64 722.365,-64"/>
<polygon fill="midnightblue" stroke="midnightblue" points="696.066,-60.5001 686.066,-64 696.066,-67.5001 696.066,-60.5001"/>
</g>
<!-- Node6 -->
<g id="node6" class="node"><title>Node6</title>
<g id="a_node6"><a xlink:href="../../df/d2d/classslogo_1_1_view.html#aa90e5d95d422b58b7f4b7f8a049defe1" target="_top" xlink:title="slogo.View.executeCommand">
<polygon fill="white" stroke="black" points="892,-54.5 892,-73.5 1050,-73.5 1050,-54.5 892,-54.5"/>
<text text-anchor="middle" x="971" y="-61.5" font-family="Helvetica,sans-Serif" font-size="10.00">slogo.View.executeCommand</text>
</a>
</g>
</g>
<!-- Node5&#45;&gt;Node6 -->
<g id="edge5" class="edge"><title>Node5&#45;&gt;Node6</title>
<path fill="none" stroke="midnightblue" d="M865.784,-64C874.42,-64 883.235,-64 891.901,-64"/>
<polygon fill="midnightblue" stroke="midnightblue" points="865.748,-60.5001 855.748,-64 865.748,-67.5001 865.748,-60.5001"/>
</g>
<!-- Node7 -->
<g id="node7" class="node"><title>Node7</title>
<g id="a_node7"><a xlink:href="../../df/d2d/classslogo_1_1_view.html#aee563f6a0b15ac6668e4dcbdad40c73c" target="_top" xlink:title="slogo.View.sendCommandTo\lBackend">
<polygon fill="white" stroke="black" points="1092,-213 1092,-243 1244,-243 1244,-213 1092,-213"/>
<text text-anchor="start" x="1100" y="-231" font-family="Helvetica,sans-Serif" font-size="10.00">slogo.View.sendCommandTo</text>
<text text-anchor="middle" x="1168" y="-220" font-family="Helvetica,sans-Serif" font-size="10.00">Backend</text>
</a>
</g>
</g>
<!-- Node6&#45;&gt;Node7 -->
<g id="edge6" class="edge"><title>Node6&#45;&gt;Node7</title>
<path fill="none" stroke="midnightblue" d="M991.054,-80.0252C1028.77,-111.741 1112.43,-182.108 1149.15,-212.984"/>
<polygon fill="midnightblue" stroke="midnightblue" points="993.233,-77.2841 983.327,-73.5262 988.727,-82.6414 993.233,-77.2841"/>
</g>
<!-- Node27 -->
<g id="node27" class="node"><title>Node27</title>
<g id="a_node27"><a xlink:href="../../df/d2d/classslogo_1_1_view.html#a4c3084a198acf85804800d70eff9ee51" target="_top" xlink:title="slogo.View.stepIntoCommand">
<polygon fill="white" stroke="black" points="1089,-54.5 1089,-73.5 1247,-73.5 1247,-54.5 1089,-54.5"/>
<text text-anchor="middle" x="1168" y="-61.5" font-family="Helvetica,sans-Serif" font-size="10.00">slogo.View.stepIntoCommand</text>
</a>
</g>
</g>
<!-- Node6&#45;&gt;Node27 -->
<g id="edge34" class="edge"><title>Node6&#45;&gt;Node27</title>
<path fill="none" stroke="midnightblue" d="M1060.4,-64C1069.87,-64 1079.45,-64 1088.79,-64"/>
<polygon fill="midnightblue" stroke="midnightblue" points="1060.19,-60.5001 1050.19,-64 1060.19,-67.5001 1060.19,-60.5001"/>
</g>
<!-- Node31 -->
<g id="node31" class="node"><title>Node31</title>
<g id="a_node31"><a xlink:href="../../df/d2d/classslogo_1_1_view.html#ac8b7f574c679e744a430f1649dc55e68" target="_top" xlink:title="slogo.View.stepOverCommand">
<polygon fill="white" stroke="black" points="1086.5,-11.5 1086.5,-30.5 1249.5,-30.5 1249.5,-11.5 1086.5,-11.5"/>
<text text-anchor="middle" x="1168" y="-18.5" font-family="Helvetica,sans-Serif" font-size="10.00">slogo.View.stepOverCommand</text>
</a>
</g>
</g>
<!-- Node6&#45;&gt;Node31 -->
<g id="edge39" class="edge"><title>Node6&#45;&gt;Node31</title>
<path fill="none" stroke="midnightblue" d="M1025.06,-52.3005C1056.07,-45.462 1094.71,-36.9406 1123.84,-30.5164"/>
<polygon fill="midnightblue" stroke="midnightblue" points="1024.29,-48.8855 1015.28,-54.4569 1025.8,-55.7213 1024.29,-48.8855"/>
</g>
<!-- Node8 -->
<g id="node8" class="node"><title>Node8</title>
<g id="a_node8"><a xlink:href="../../db/d19/classslogo_1_1_u_i_1_1_module_creation_helper.html#a69e17abcc7cf9a6ed7261d8fb1d631fa" target="_top" xlink:title="slogo.UI.ModuleCreationHelper.activate\lIncreaseDecreaseButtons">
<polygon fill="white" stroke="black" points="1286.5,-389 1286.5,-419 1491.5,-419 1491.5,-389 1286.5,-389"/>
<text text-anchor="start" x="1294.5" y="-407" font-family="Helvetica,sans-Serif" font-size="10.00">slogo.UI.ModuleCreationHelper.activate</text>
<text text-anchor="middle" x="1389" y="-396" font-family="Helvetica,sans-Serif" font-size="10.00">IncreaseDecreaseButtons</text>
</a>
</g>
</g>
<!-- Node7&#45;&gt;Node8 -->
<g id="edge7" class="edge"><title>Node7&#45;&gt;Node8</title>
<path fill="none" stroke="midnightblue" d="M1182.04,-252.219C1200.78,-284.724 1238.36,-342.06 1286,-374 1295.12,-380.116 1305.51,-385.01 1316.09,-388.919"/>
<polygon fill="midnightblue" stroke="midnightblue" points="1185.01,-250.361 1177.05,-243.368 1178.91,-253.798 1185.01,-250.361"/>
</g>
<!-- Node15 -->
<g id="node15" class="node"><title>Node15</title>
<g id="a_node15"><a xlink:href="../../db/d19/classslogo_1_1_u_i_1_1_module_creation_helper.html#aa70b0ad9e90e62509149bfd2ef2ba209" target="_top" xlink:title="slogo.UI.ModuleCreationHelper.activate\lKeyEvents">
<polygon fill="white" stroke="black" points="2012.5,-136 2012.5,-166 2217.5,-166 2217.5,-136 2012.5,-136"/>
<text text-anchor="start" x="2020.5" y="-154" font-family="Helvetica,sans-Serif" font-size="10.00">slogo.UI.ModuleCreationHelper.activate</text>
<text text-anchor="middle" x="2115" y="-143" font-family="Helvetica,sans-Serif" font-size="10.00">KeyEvents</text>
</a>
</g>
</g>
<!-- Node7&#45;&gt;Node15 -->
<g id="edge15" class="edge"><title>Node7&#45;&gt;Node15</title>
<path fill="none" stroke="midnightblue" d="M1198.18,-207.164C1220.9,-192.251 1253.88,-173.388 1286,-165 1420.15,-129.97 1822.16,-139.777 2012.26,-146.744"/>
<polygon fill="midnightblue" stroke="midnightblue" points="1196.05,-204.378 1189.7,-212.86 1199.95,-210.189 1196.05,-204.378"/>
</g>
<!-- Node16 -->
<g id="node16" class="node"><title>Node16</title>
<g id="a_node16"><a xlink:href="../../db/d19/classslogo_1_1_u_i_1_1_module_creation_helper.html#a2e841243ec3ca474e8822102343acc88" target="_top" xlink:title="slogo.UI.ModuleCreationHelper.activate\lNewTurtleButton">
<polygon fill="white" stroke="black" points="1528.5,-344 1528.5,-374 1733.5,-374 1733.5,-344 1528.5,-344"/>
<text text-anchor="start" x="1536.5" y="-362" font-family="Helvetica,sans-Serif" font-size="10.00">slogo.UI.ModuleCreationHelper.activate</text>
<text text-anchor="middle" x="1631" y="-351" font-family="Helvetica,sans-Serif" font-size="10.00">NewTurtleButton</text>
</a>
</g>
</g>
<!-- Node7&#45;&gt;Node16 -->
<g id="edge17" class="edge"><title>Node7&#45;&gt;Node16</title>
<path fill="none" stroke="midnightblue" d="M1185.02,-251.155C1205.1,-278.009 1242.24,-321.013 1286,-340 1362.41,-373.152 1457.47,-375.86 1528.29,-371.435"/>
<polygon fill="midnightblue" stroke="midnightblue" points="1187.83,-249.073 1179.11,-243.055 1182.18,-253.197 1187.83,-249.073"/>
</g>
<!-- Node18 -->
<g id="node18" class="node"><title>Node18</title>
<g id="a_node18"><a xlink:href="../../db/d19/classslogo_1_1_u_i_1_1_module_creation_helper.html#a9b1f07ab673191067907a059b1b0c524" target="_top" xlink:title="slogo.UI.ModuleCreationHelper.activate\lPlayButton">
<polygon fill="white" stroke="black" points="1286.5,-301 1286.5,-331 1491.5,-331 1491.5,-301 1286.5,-301"/>
<text text-anchor="start" x="1294.5" y="-319" font-family="Helvetica,sans-Serif" font-size="10.00">slogo.UI.ModuleCreationHelper.activate</text>
<text text-anchor="middle" x="1389" y="-308" font-family="Helvetica,sans-Serif" font-size="10.00">PlayButton</text>
</a>
</g>
</g>
<!-- Node7&#45;&gt;Node18 -->
<g id="edge20" class="edge"><title>Node7&#45;&gt;Node18</title>
<path fill="none" stroke="midnightblue" d="M1201.42,-248.354C1224.33,-262.006 1256.16,-279.522 1286,-291 1295.7,-294.73 1306.14,-298.039 1316.5,-300.929"/>
<polygon fill="midnightblue" stroke="midnightblue" points="1203.16,-245.317 1192.79,-243.145 1199.54,-251.31 1203.16,-245.317"/>
</g>
<!-- Node21 -->
<g id="node21" class="node"><title>Node21</title>
<g id="a_node21"><a xlink:href="../../db/d19/classslogo_1_1_u_i_1_1_module_creation_helper.html#a3a38d485562cb17591ec3fd07cffc18a" target="_top" xlink:title="slogo.UI.ModuleCreationHelper.activate\lTurtleCanvas">
<polygon fill="white" stroke="black" points="1770.5,-87 1770.5,-117 1975.5,-117 1975.5,-87 1770.5,-87"/>
<text text-anchor="start" x="1778.5" y="-105" font-family="Helvetica,sans-Serif" font-size="10.00">slogo.UI.ModuleCreationHelper.activate</text>
<text text-anchor="middle" x="1873" y="-94" font-family="Helvetica,sans-Serif" font-size="10.00">TurtleCanvas</text>
</a>
</g>
</g>
<!-- Node7&#45;&gt;Node21 -->
<g id="edge24" class="edge"><title>Node7&#45;&gt;Node21</title>
<path fill="none" stroke="midnightblue" d="M1188.37,-205.232C1209.63,-182.064 1246.1,-147.434 1286,-132 1371.51,-98.92 1626.48,-97.5272 1770.33,-99.6157"/>
<polygon fill="midnightblue" stroke="midnightblue" points="1185.56,-203.115 1181.5,-212.898 1190.78,-207.786 1185.56,-203.115"/>
</g>
<!-- Node23 -->
<g id="node23" class="node"><title>Node23</title>
<g id="a_node23"><a xlink:href="../../d1/d5f/classslogo_1_1_u_i_1_1_path_color_selector.html#ad3d9c82a0904c97edcec7cf67b85bd7b" target="_top" xlink:title="slogo.UI.PathColorSelector.create">
<polygon fill="white" stroke="black" points="1301,-262.5 1301,-281.5 1477,-281.5 1477,-262.5 1301,-262.5"/>
<text text-anchor="middle" x="1389" y="-269.5" font-family="Helvetica,sans-Serif" font-size="10.00">slogo.UI.PathColorSelector.create</text>
</a>
</g>
</g>
<!-- Node7&#45;&gt;Node23 -->
<g id="edge27" class="edge"><title>Node7&#45;&gt;Node23</title>
<path fill="none" stroke="midnightblue" d="M1251.74,-245.065C1263.24,-247.411 1274.91,-249.776 1286,-252 1303.25,-255.46 1322.16,-259.186 1338.95,-262.473"/>
<polygon fill="midnightblue" stroke="midnightblue" points="1252.19,-241.585 1241.69,-243.013 1250.79,-248.443 1252.19,-241.585"/>
</g>
<!-- Node25 -->
<g id="node25" class="node"><title>Node25</title>
<g id="a_node25"><a xlink:href="../../d4/d8d/classslogo_1_1_u_i_1_1_background_color_selector.html#ad75ba4ce104e071811d0fe039a4e839f" target="_top" xlink:title="slogo.UI.BackgroundColor\lSelector.create">
<polygon fill="white" stroke="black" points="1319,-213 1319,-243 1459,-243 1459,-213 1319,-213"/>
<text text-anchor="start" x="1327" y="-231" font-family="Helvetica,sans-Serif" font-size="10.00">slogo.UI.BackgroundColor</text>
<text text-anchor="middle" x="1389" y="-220" font-family="Helvetica,sans-Serif" font-size="10.00">Selector.create</text>
</a>
</g>
</g>
<!-- Node7&#45;&gt;Node25 -->
<g id="edge30" class="edge"><title>Node7&#45;&gt;Node25</title>
<path fill="none" stroke="midnightblue" d="M1254.14,-228C1275.6,-228 1298.37,-228 1318.93,-228"/>
<polygon fill="midnightblue" stroke="midnightblue" points="1254.06,-224.5 1244.06,-228 1254.06,-231.5 1254.06,-224.5"/>
</g>
<!-- Node26 -->
<g id="node26" class="node"><title>Node26</title>
<g id="a_node26"><a xlink:href="../../dd/da7/classslogo_1_1_u_i_1_1_turtle_image_selector.html#a3f268d9196ffebcbb5dc322d2897a9fe" target="_top" xlink:title="slogo.UI.TurtleImageSelector.create">
<polygon fill="white" stroke="black" points="1296,-174.5 1296,-193.5 1482,-193.5 1482,-174.5 1296,-174.5"/>
<text text-anchor="middle" x="1389" y="-181.5" font-family="Helvetica,sans-Serif" font-size="10.00">slogo.UI.TurtleImageSelector.create</text>
</a>
</g>
</g>
<!-- Node7&#45;&gt;Node26 -->
<g id="edge32" class="edge"><title>Node7&#45;&gt;Node26</title>
<path fill="none" stroke="midnightblue" d="M1248.01,-210.821C1260.7,-208.147 1273.71,-205.458 1286,-203 1301.99,-199.804 1319.42,-196.493 1335.27,-193.548"/>
<polygon fill="midnightblue" stroke="midnightblue" points="1246.98,-207.463 1237.92,-212.958 1248.43,-214.311 1246.98,-207.463"/>
</g>
<!-- Node9 -->
<g id="node9" class="node"><title>Node9</title>
<g id="a_node9"><a xlink:href="../../db/d19/classslogo_1_1_u_i_1_1_module_creation_helper.html#adce7362386f9a7b3006e7db08a2d578d" target="_top" xlink:title="slogo.UI.ModuleCreationHelper.create\lIncreaseDecreaseButtons">
<polygon fill="white" stroke="black" points="1774.5,-380 1774.5,-410 1971.5,-410 1971.5,-380 1774.5,-380"/>
<text text-anchor="start" x="1782.5" y="-398" font-family="Helvetica,sans-Serif" font-size="10.00">slogo.UI.ModuleCreationHelper.create</text>
<text text-anchor="middle" x="1873" y="-387" font-family="Helvetica,sans-Serif" font-size="10.00">IncreaseDecreaseButtons</text>
</a>
</g>
</g>
<!-- Node8&#45;&gt;Node9 -->
<g id="edge8" class="edge"><title>Node8&#45;&gt;Node9</title>
<path fill="none" stroke="midnightblue" d="M1501.79,-401.913C1584.23,-400.373 1695.29,-398.299 1774.21,-396.826"/>
<polygon fill="midnightblue" stroke="midnightblue" points="1501.56,-398.416 1491.63,-402.102 1501.69,-405.415 1501.56,-398.416"/>
</g>
<!-- Node10 -->
<g id="node10" class="node"><title>Node10</title>
<g id="a_node10"><a xlink:href="../../db/d19/classslogo_1_1_u_i_1_1_module_creation_helper.html#a7c650957b2389d6e6d36e8be8a33cd2b" target="_top" xlink:title="slogo.UI.ModuleCreationHelper.create\lSelectorVBoxModules">
<polygon fill="white" stroke="black" points="2016.5,-253 2016.5,-283 2213.5,-283 2213.5,-253 2016.5,-253"/>
<text text-anchor="start" x="2024.5" y="-271" font-family="Helvetica,sans-Serif" font-size="10.00">slogo.UI.ModuleCreationHelper.create</text>
<text text-anchor="middle" x="2115" y="-260" font-family="Helvetica,sans-Serif" font-size="10.00">SelectorVBoxModules</text>
</a>
</g>
</g>
<!-- Node9&#45;&gt;Node10 -->
<g id="edge9" class="edge"><title>Node9&#45;&gt;Node10</title>
<path fill="none" stroke="midnightblue" d="M1957,-376.732C1963.54,-374.424 1969.95,-371.854 1976,-369 2024.6,-346.077 2073.46,-305.079 2097.92,-283.025"/>
<polygon fill="midnightblue" stroke="midnightblue" points="1955.75,-373.461 1947.36,-379.93 1957.95,-380.105 1955.75,-373.461"/>
</g>
<!-- Node11 -->
<g id="node11" class="node"><title>Node11</title>
<g id="a_node11"><a xlink:href="../../db/d19/classslogo_1_1_u_i_1_1_module_creation_helper.html#afb9dbbbad7d872234a5b296fe129a34e" target="_top" xlink:title="slogo.UI.ModuleCreationHelper.create\lMainPageModules">
<polygon fill="white" stroke="black" points="2254.5,-136 2254.5,-166 2451.5,-166 2451.5,-136 2254.5,-136"/>
<text text-anchor="start" x="2262.5" y="-154" font-family="Helvetica,sans-Serif" font-size="10.00">slogo.UI.ModuleCreationHelper.create</text>
<text text-anchor="middle" x="2353" y="-143" font-family="Helvetica,sans-Serif" font-size="10.00">MainPageModules</text>
</a>
</g>
</g>
<!-- Node10&#45;&gt;Node11 -->
<g id="edge10" class="edge"><title>Node10&#45;&gt;Node11</title>
<path fill="none" stroke="midnightblue" d="M2155.58,-248.38C2202.29,-225.222 2278.96,-187.212 2321.37,-166.184"/>
<polygon fill="midnightblue" stroke="midnightblue" points="2153.77,-245.366 2146.37,-252.944 2156.88,-251.638 2153.77,-245.366"/>
</g>
<!-- Node12 -->
<g id="node12" class="node"><title>Node12</title>
<g id="a_node12"><a xlink:href="../../d9/d33/classslogo_1_1_u_i_1_1_main.html#a15b7f2e399ee24d160550993ab737e73" target="_top" xlink:title="slogo.UI.Main.start">
<polygon fill="white" stroke="black" points="2488,-150.5 2488,-169.5 2594,-169.5 2594,-150.5 2488,-150.5"/>
<text text-anchor="middle" x="2541" y="-157.5" font-family="Helvetica,sans-Serif" font-size="10.00">slogo.UI.Main.start</text>
</a>
</g>
</g>
<!-- Node11&#45;&gt;Node12 -->
<g id="edge11" class="edge"><title>Node11&#45;&gt;Node12</title>
<path fill="none" stroke="midnightblue" d="M2461.8,-156.216C2470.76,-156.65 2479.53,-157.074 2487.76,-157.472"/>
<polygon fill="midnightblue" stroke="midnightblue" points="2461.79,-152.712 2451.63,-155.724 2461.45,-159.703 2461.79,-152.712"/>
</g>
<!-- Node13 -->
<g id="node13" class="node"><title>Node13</title>
<g id="a_node13"><a xlink:href="../../db/d19/classslogo_1_1_u_i_1_1_module_creation_helper.html#a3be12a7cc2b8a219db1e296211a2cb88" target="_top" xlink:title="slogo.UI.ModuleCreationHelper.activate\lExtraWorkspaceButton">
<polygon fill="white" stroke="black" points="2630.5,-163 2630.5,-193 2835.5,-193 2835.5,-163 2630.5,-163"/>
<text text-anchor="start" x="2638.5" y="-181" font-family="Helvetica,sans-Serif" font-size="10.00">slogo.UI.ModuleCreationHelper.activate</text>
<text text-anchor="middle" x="2733" y="-170" font-family="Helvetica,sans-Serif" font-size="10.00">ExtraWorkspaceButton</text>
</a>
</g>
</g>
<!-- Node12&#45;&gt;Node13 -->
<g id="edge12" class="edge"><title>Node12&#45;&gt;Node13</title>
<path fill="none" stroke="midnightblue" d="M2604.22,-165.894C2612.63,-166.691 2621.44,-167.526 2630.32,-168.367"/>
<polygon fill="midnightblue" stroke="midnightblue" points="2604.46,-162.401 2594.17,-164.942 2603.79,-169.37 2604.46,-162.401"/>
</g>
<!-- Node14 -->
<g id="node14" class="node"><title>Node14</title>
<g id="a_node14"><a xlink:href="../../db/d19/classslogo_1_1_u_i_1_1_module_creation_helper.html#a702c1ebe24d2857a10c666eb1fcc315d" target="_top" xlink:title="slogo.UI.ModuleCreationHelper.create\lExtraWorkspaceButton">
<polygon fill="white" stroke="black" points="2872.5,-189 2872.5,-219 3069.5,-219 3069.5,-189 2872.5,-189"/>
<text text-anchor="start" x="2880.5" y="-207" font-family="Helvetica,sans-Serif" font-size="10.00">slogo.UI.ModuleCreationHelper.create</text>
<text text-anchor="middle" x="2971" y="-196" font-family="Helvetica,sans-Serif" font-size="10.00">ExtraWorkspaceButton</text>
</a>
</g>
</g>
<!-- Node13&#45;&gt;Node14 -->
<g id="edge13" class="edge"><title>Node13&#45;&gt;Node14</title>
<path fill="none" stroke="midnightblue" d="M2845.77,-190.313C2854.62,-191.289 2863.52,-192.27 2872.27,-193.234"/>
<polygon fill="midnightblue" stroke="midnightblue" points="2846.12,-186.831 2835.8,-189.215 2845.35,-193.789 2846.12,-186.831"/>
</g>
<!-- Node14&#45;&gt;Node10 -->
<g id="edge14" class="edge"><title>Node14&#45;&gt;Node10</title>
<path fill="none" stroke="midnightblue" d="M2862.34,-212.068C2694.9,-224.617 2374.6,-248.62 2213.55,-260.69"/>
<polygon fill="midnightblue" stroke="midnightblue" points="2862.7,-215.551 2872.41,-211.313 2862.18,-208.571 2862.7,-215.551"/>
</g>
<!-- Node15&#45;&gt;Node11 -->
<g id="edge16" class="edge"><title>Node15&#45;&gt;Node11</title>
<path fill="none" stroke="midnightblue" d="M2228.05,-151C2236.81,-151 2245.62,-151 2254.27,-151"/>
<polygon fill="midnightblue" stroke="midnightblue" points="2227.8,-147.5 2217.8,-151 2227.8,-154.5 2227.8,-147.5"/>
</g>
<!-- Node17 -->
<g id="node17" class="node"><title>Node17</title>
<g id="a_node17"><a xlink:href="../../db/d19/classslogo_1_1_u_i_1_1_module_creation_helper.html#a07f5483df317cdf80e8ea2dda5699afa" target="_top" xlink:title="slogo.UI.ModuleCreationHelper.create\lNewTurtleButton">
<polygon fill="white" stroke="black" points="1774.5,-330 1774.5,-360 1971.5,-360 1971.5,-330 1774.5,-330"/>
<text text-anchor="start" x="1782.5" y="-348" font-family="Helvetica,sans-Serif" font-size="10.00">slogo.UI.ModuleCreationHelper.create</text>
<text text-anchor="middle" x="1873" y="-337" font-family="Helvetica,sans-Serif" font-size="10.00">NewTurtleButton</text>
</a>
</g>
</g>
<!-- Node16&#45;&gt;Node17 -->
<g id="edge18" class="edge"><title>Node16&#45;&gt;Node17</title>
<path fill="none" stroke="midnightblue" d="M1743.89,-352.473C1754.04,-351.881 1764.26,-351.285 1774.27,-350.701"/>
<polygon fill="midnightblue" stroke="midnightblue" points="1743.56,-348.986 1733.78,-353.063 1743.97,-355.974 1743.56,-348.986"/>
</g>
<!-- Node17&#45;&gt;Node10 -->
<g id="edge19" class="edge"><title>Node17&#45;&gt;Node10</title>
<path fill="none" stroke="midnightblue" d="M1944.15,-327.309C1954.87,-324.354 1965.76,-321.203 1976,-318 2009.93,-307.387 2047.86,-293.493 2075.35,-283.046"/>
<polygon fill="midnightblue" stroke="midnightblue" points="1943.12,-323.962 1934.39,-329.963 1944.96,-330.717 1943.12,-323.962"/>
</g>
<!-- Node19 -->
<g id="node19" class="node"><title>Node19</title>
<g id="a_node19"><a xlink:href="../../db/d19/classslogo_1_1_u_i_1_1_module_creation_helper.html#a9b3fb38a55b3b7812b4f793afa7a974f" target="_top" xlink:title="slogo.UI.ModuleCreationHelper.create\lPlayButton">
<polygon fill="white" stroke="black" points="1532.5,-295 1532.5,-325 1729.5,-325 1729.5,-295 1532.5,-295"/>
<text text-anchor="start" x="1540.5" y="-313" font-family="Helvetica,sans-Serif" font-size="10.00">slogo.UI.ModuleCreationHelper.create</text>
<text text-anchor="middle" x="1631" y="-302" font-family="Helvetica,sans-Serif" font-size="10.00">PlayButton</text>
</a>
</g>
</g>
<!-- Node18&#45;&gt;Node19 -->
<g id="edge21" class="edge"><title>Node18&#45;&gt;Node19</title>
<path fill="none" stroke="midnightblue" d="M1501.89,-313.203C1512.04,-312.949 1522.26,-312.694 1532.27,-312.443"/>
<polygon fill="midnightblue" stroke="midnightblue" points="1501.69,-309.707 1491.78,-313.455 1501.87,-316.704 1501.69,-309.707"/>
</g>
<!-- Node20 -->
<g id="node20" class="node"><title>Node20</title>
<g id="a_node20"><a xlink:href="../../db/d19/classslogo_1_1_u_i_1_1_module_creation_helper.html#ae1e60d37509c2e5eddcb2a6e70b4f650" target="_top" xlink:title="slogo.UI.ModuleCreationHelper.create\lFirstRowButtons">
<polygon fill="white" stroke="black" points="1774.5,-279 1774.5,-309 1971.5,-309 1971.5,-279 1774.5,-279"/>
<text text-anchor="start" x="1782.5" y="-297" font-family="Helvetica,sans-Serif" font-size="10.00">slogo.UI.ModuleCreationHelper.create</text>
<text text-anchor="middle" x="1873" y="-286" font-family="Helvetica,sans-Serif" font-size="10.00">FirstRowButtons</text>
</a>
</g>
</g>
<!-- Node19&#45;&gt;Node20 -->
<g id="edge22" class="edge"><title>Node19&#45;&gt;Node20</title>
<path fill="none" stroke="midnightblue" d="M1739.73,-302.818C1751.3,-302.046 1763.03,-301.265 1774.47,-300.502"/>
<polygon fill="midnightblue" stroke="midnightblue" points="1739.36,-299.335 1729.62,-303.492 1739.83,-306.319 1739.36,-299.335"/>
</g>
<!-- Node20&#45;&gt;Node10 -->
<g id="edge23" class="edge"><title>Node20&#45;&gt;Node10</title>
<path fill="none" stroke="midnightblue" d="M1981.73,-282.329C1993.3,-281.075 2005.03,-279.805 2016.47,-278.566"/>
<polygon fill="midnightblue" stroke="midnightblue" points="1981.18,-278.868 1971.62,-283.425 1981.94,-285.827 1981.18,-278.868"/>
</g>
<!-- Node22 -->
<g id="node22" class="node"><title>Node22</title>
<g id="a_node22"><a xlink:href="../../db/d19/classslogo_1_1_u_i_1_1_module_creation_helper.html#a803bac6b55bde712b21f2face1eeef81" target="_top" xlink:title="slogo.UI.ModuleCreationHelper.create\lTurtleCanvas">
<polygon fill="white" stroke="black" points="2016.5,-87 2016.5,-117 2213.5,-117 2213.5,-87 2016.5,-87"/>
<text text-anchor="start" x="2024.5" y="-105" font-family="Helvetica,sans-Serif" font-size="10.00">slogo.UI.ModuleCreationHelper.create</text>
<text text-anchor="middle" x="2115" y="-94" font-family="Helvetica,sans-Serif" font-size="10.00">TurtleCanvas</text>
</a>
</g>
</g>
<!-- Node21&#45;&gt;Node22 -->
<g id="edge25" class="edge"><title>Node21&#45;&gt;Node22</title>
<path fill="none" stroke="midnightblue" d="M1985.89,-102C1996.04,-102 2006.26,-102 2016.27,-102"/>
<polygon fill="midnightblue" stroke="midnightblue" points="1985.78,-98.5001 1975.78,-102 1985.78,-105.5 1985.78,-98.5001"/>
</g>
<!-- Node22&#45;&gt;Node11 -->
<g id="edge26" class="edge"><title>Node22&#45;&gt;Node11</title>
<path fill="none" stroke="midnightblue" d="M2198.42,-119.113C2224.9,-124.611 2254.03,-130.658 2279.73,-135.994"/>
<polygon fill="midnightblue" stroke="midnightblue" points="2198.91,-115.641 2188.41,-117.035 2197.49,-122.495 2198.91,-115.641"/>
</g>
<!-- Node24 -->
<g id="node24" class="node"><title>Node24</title>
<g id="a_node24"><a xlink:href="../../db/d19/classslogo_1_1_u_i_1_1_module_creation_helper.html#af7f2919454fdbf6e9d7d912e99634857" target="_top" xlink:title="slogo.UI.ModuleCreationHelper.create\lSelectors">
<polygon fill="white" stroke="black" points="1532.5,-230 1532.5,-260 1729.5,-260 1729.5,-230 1532.5,-230"/>
<text text-anchor="start" x="1540.5" y="-248" font-family="Helvetica,sans-Serif" font-size="10.00">slogo.UI.ModuleCreationHelper.create</text>
<text text-anchor="middle" x="1631" y="-237" font-family="Helvetica,sans-Serif" font-size="10.00">Selectors</text>
</a>
</g>
</g>
<!-- Node23&#45;&gt;Node24 -->
<g id="edge28" class="edge"><title>Node23&#45;&gt;Node24</title>
<path fill="none" stroke="midnightblue" d="M1484.76,-261.339C1500.36,-259.585 1516.54,-257.764 1532.21,-256.002"/>
<polygon fill="midnightblue" stroke="midnightblue" points="1484.16,-257.885 1474.62,-262.481 1484.94,-264.841 1484.16,-257.885"/>
</g>
<!-- Node24&#45;&gt;Node10 -->
<g id="edge29" class="edge"><title>Node24&#45;&gt;Node10</title>
<path fill="none" stroke="midnightblue" d="M1739.74,-250.141C1822.55,-254.092 1935.97,-259.505 2016.19,-263.333"/>
<polygon fill="midnightblue" stroke="midnightblue" points="1739.7,-246.635 1729.54,-249.654 1739.36,-253.627 1739.7,-246.635"/>
</g>
<!-- Node25&#45;&gt;Node24 -->
<g id="edge31" class="edge"><title>Node25&#45;&gt;Node24</title>
<path fill="none" stroke="midnightblue" d="M1469.18,-233.609C1489.4,-235.041 1511.37,-236.597 1532.39,-238.086"/>
<polygon fill="midnightblue" stroke="midnightblue" points="1469.32,-230.11 1459.1,-232.894 1468.82,-237.092 1469.32,-230.11"/>
</g>
<!-- Node26&#45;&gt;Node24 -->
<g id="edge33" class="edge"><title>Node26&#45;&gt;Node24</title>
<path fill="none" stroke="midnightblue" d="M1457.48,-195.473C1469.04,-197.752 1480.9,-200.287 1492,-203 1523.38,-210.673 1558.18,-221.278 1584.98,-229.911"/>
<polygon fill="midnightblue" stroke="midnightblue" points="1457.9,-191.99 1447.42,-193.539 1456.58,-198.864 1457.9,-191.99"/>
</g>
<!-- Node28 -->
<g id="node28" class="node"><title>Node28</title>
<g id="a_node28"><a xlink:href="../../db/d19/classslogo_1_1_u_i_1_1_module_creation_helper.html#a9fd730f7c1860d34bf4ac46c3828bd59" target="_top" xlink:title="slogo.UI.ModuleCreationHelper.activate\lStepIntoButton">
<polygon fill="white" stroke="black" points="1286.5,-49 1286.5,-79 1491.5,-79 1491.5,-49 1286.5,-49"/>
<text text-anchor="start" x="1294.5" y="-67" font-family="Helvetica,sans-Serif" font-size="10.00">slogo.UI.ModuleCreationHelper.activate</text>
<text text-anchor="middle" x="1389" y="-56" font-family="Helvetica,sans-Serif" font-size="10.00">StepIntoButton</text>
</a>
</g>
</g>
<!-- Node27&#45;&gt;Node28 -->
<g id="edge35" class="edge"><title>Node27&#45;&gt;Node28</title>
<path fill="none" stroke="midnightblue" d="M1257.33,-64C1266.82,-64 1276.54,-64 1286.17,-64"/>
<polygon fill="midnightblue" stroke="midnightblue" points="1257.14,-60.5001 1247.14,-64 1257.14,-67.5001 1257.14,-60.5001"/>
</g>
<!-- Node29 -->
<g id="node29" class="node"><title>Node29</title>
<g id="a_node29"><a xlink:href="../../db/d19/classslogo_1_1_u_i_1_1_module_creation_helper.html#a4a6f1f009507c25be8c7c28cbba35f3b" target="_top" xlink:title="slogo.UI.ModuleCreationHelper.create\lDebugStepIntoButton">
<polygon fill="white" stroke="black" points="1532.5,-49 1532.5,-79 1729.5,-79 1729.5,-49 1532.5,-49"/>
<text text-anchor="start" x="1540.5" y="-67" font-family="Helvetica,sans-Serif" font-size="10.00">slogo.UI.ModuleCreationHelper.create</text>
<text text-anchor="middle" x="1631" y="-56" font-family="Helvetica,sans-Serif" font-size="10.00">DebugStepIntoButton</text>
</a>
</g>
</g>
<!-- Node28&#45;&gt;Node29 -->
<g id="edge36" class="edge"><title>Node28&#45;&gt;Node29</title>
<path fill="none" stroke="midnightblue" d="M1501.89,-64C1512.04,-64 1522.26,-64 1532.27,-64"/>
<polygon fill="midnightblue" stroke="midnightblue" points="1501.78,-60.5001 1491.78,-64 1501.78,-67.5001 1501.78,-60.5001"/>
</g>
<!-- Node30 -->
<g id="node30" class="node"><title>Node30</title>
<g id="a_node30"><a xlink:href="../../db/d19/classslogo_1_1_u_i_1_1_module_creation_helper.html#a975af4ea47dc85df72215bdf1a0d20ce" target="_top" xlink:title="slogo.UI.ModuleCreationHelper.create\lDebugModules">
<polygon fill="white" stroke="black" points="1774.5,-38 1774.5,-68 1971.5,-68 1971.5,-38 1774.5,-38"/>
<text text-anchor="start" x="1782.5" y="-56" font-family="Helvetica,sans-Serif" font-size="10.00">slogo.UI.ModuleCreationHelper.create</text>
<text text-anchor="middle" x="1873" y="-45" font-family="Helvetica,sans-Serif" font-size="10.00">DebugModules</text>
</a>
</g>
</g>
<!-- Node29&#45;&gt;Node30 -->
<g id="edge37" class="edge"><title>Node29&#45;&gt;Node30</title>
<path fill="none" stroke="midnightblue" d="M1739.73,-59.0622C1751.3,-58.5319 1763.03,-57.9945 1774.47,-57.4702"/>
<polygon fill="midnightblue" stroke="midnightblue" points="1739.45,-55.5716 1729.62,-59.5259 1739.77,-62.5643 1739.45,-55.5716"/>
</g>
<!-- Node30&#45;&gt;Node11 -->
<g id="edge38" class="edge"><title>Node30&#45;&gt;Node11</title>
<path fill="none" stroke="midnightblue" d="M1981.63,-48.679C2050.53,-48.779 2141.11,-54.2973 2218,-77 2261.33,-89.7936 2306.2,-118.228 2331.46,-135.889"/>
<polygon fill="midnightblue" stroke="midnightblue" points="1981.61,-45.1789 1971.62,-48.7021 1981.63,-52.1789 1981.61,-45.1789"/>
</g>
<!-- Node32 -->
<g id="node32" class="node"><title>Node32</title>
<g id="a_node32"><a xlink:href="../../db/d19/classslogo_1_1_u_i_1_1_module_creation_helper.html#a0fed0bb32bf2643d6fd5c24d82e8e18e" target="_top" xlink:title="slogo.UI.ModuleCreationHelper.activate\lStepOverButton">
<polygon fill="white" stroke="black" points="1286.5,-0 1286.5,-30 1491.5,-30 1491.5,-0 1286.5,-0"/>
<text text-anchor="start" x="1294.5" y="-18" font-family="Helvetica,sans-Serif" font-size="10.00">slogo.UI.ModuleCreationHelper.activate</text>
<text text-anchor="middle" x="1389" y="-7" font-family="Helvetica,sans-Serif" font-size="10.00">StepOverButton</text>
</a>
</g>
</g>
<!-- Node31&#45;&gt;Node32 -->
<g id="edge40" class="edge"><title>Node31&#45;&gt;Node32</title>
<path fill="none" stroke="midnightblue" d="M1259.8,-18.5123C1268.56,-18.2724 1277.48,-18.028 1286.33,-17.7856"/>
<polygon fill="midnightblue" stroke="midnightblue" points="1259.51,-15.0187 1249.61,-18.7914 1259.71,-22.0161 1259.51,-15.0187"/>
</g>
<!-- Node33 -->
<g id="node33" class="node"><title>Node33</title>
<g id="a_node33"><a xlink:href="../../db/d19/classslogo_1_1_u_i_1_1_module_creation_helper.html#aa1e7dc2b509360583790fba0d3819c8d" target="_top" xlink:title="slogo.UI.ModuleCreationHelper.create\lDebugStepOverButton">
<polygon fill="white" stroke="black" points="1532.5,-0 1532.5,-30 1729.5,-30 1729.5,-0 1532.5,-0"/>
<text text-anchor="start" x="1540.5" y="-18" font-family="Helvetica,sans-Serif" font-size="10.00">slogo.UI.ModuleCreationHelper.create</text>
<text text-anchor="middle" x="1631" y="-7" font-family="Helvetica,sans-Serif" font-size="10.00">DebugStepOverButton</text>
</a>
</g>
</g>
<!-- Node32&#45;&gt;Node33 -->
<g id="edge41" class="edge"><title>Node32&#45;&gt;Node33</title>
<path fill="none" stroke="midnightblue" d="M1501.89,-15C1512.04,-15 1522.26,-15 1532.27,-15"/>
<polygon fill="midnightblue" stroke="midnightblue" points="1501.78,-11.5001 1491.78,-15 1501.78,-18.5001 1501.78,-11.5001"/>
</g>
<!-- Node33&#45;&gt;Node30 -->
<g id="edge42" class="edge"><title>Node33&#45;&gt;Node30</title>
<path fill="none" stroke="midnightblue" d="M1736.99,-31.6227C1750.31,-33.7329 1763.89,-35.8827 1777.05,-37.966"/>
<polygon fill="midnightblue" stroke="midnightblue" points="1737.28,-28.1256 1726.85,-30.0186 1736.18,-35.0395 1737.28,-28.1256"/>
</g>
</g>
</svg>
