<?xml version="1.0" encoding="UTF-8" standalone="no"?>
<!DOCTYPE svg PUBLIC "-//W3C//DTD SVG 1.1//EN"
 "http://www.w3.org/Graphics/SVG/1.1/DTD/svg11.dtd">
<!-- Generated by graphviz version 2.36.0 (20140111.2315)
 -->
<!-- Title: slogo.UI.Turtle.getImage Pages: 1 -->
<!--zoomable 427 -->
<svg id="main" version="1.1" xmlns="http://www.w3.org/2000/svg" xmlns:xlink="http://www.w3.org/1999/xlink" xml:space="preserve" onload="init(evt)">
<style type="text/css"><![CDATA[
.edge:hover path { stroke: red; }
.edge:hover polygon { stroke: red; fill: red; }
]]></style>
<script type="text/javascript"><![CDATA[
var edges = document.getElementsByTagName('g');
if (edges && edges.length) {
  for (var i=0;i<edges.length;i++) {
    if (edges[i].id.substr(0,4)=='edge') {
      edges[i].setAttribute('class','edge');
    }
  }
}
]]></script>
        <defs>
                <circle id="rim" cx="0" cy="0" r="7"/>
                <circle id="rim2" cx="0" cy="0" r="3.5"/>
                <g id="zoomPlus">
                        <use xlink:href="#rim" fill="#404040">
                                <set attributeName="fill" to="#808080" begin="zoomplus.mouseover" end="zoomplus.mouseout"/>
                        </use>
                        <path d="M-4,0h8M0,-4v8" fill="none" stroke="white" stroke-width="1.5" pointer-events="none"/>
                </g>
                <g id="zoomMin">
                        <use xlink:href="#rim" fill="#404040">
                                <set attributeName="fill" to="#808080" begin="zoomminus.mouseover" end="zoomminus.mouseout"/>
                        </use>
                        <path d="M-4,0h8" fill="none" stroke="white" stroke-width="1.5" pointer-events="none"/>
                </g>
                <g id="dirArrow">
                        <path fill="none" stroke="white" stroke-width="1.5" d="M0,-3.0v7 M-2.5,-0.5L0,-3.0L2.5,-0.5"/>
                </g>
               <g id="resetDef">
                       <use xlink:href="#rim2" fill="#404040">
                               <set attributeName="fill" to="#808080" begin="reset.mouseover" end="reset.mouseout"/>
                       </use>
               </g>
        </defs>

<script type="text/javascript">
var viewWidth = 2904;
var viewHeight = 427;
var sectionId = 'dynsection-4';
</script>
<script xlink:href="../../svgpan.js"/>
<svg id="graph" class="graph">
<g id="viewport">
<title>slogo.UI.Turtle.getImage</title>
<polygon fill="white" stroke="none" points="-4,4 -4,-423 2900,-423 2900,4 -4,4"/>
<!-- Node1 -->
<g id="node1" class="node"><title>Node1</title>
<polygon fill="#bfbfbf" stroke="black" points="0,-54.5 0,-73.5 132,-73.5 132,-54.5 0,-54.5"/>
<text text-anchor="middle" x="66" y="-61.5" font-family="Helvetica,sans-Serif" font-size="10.00">slogo.UI.Turtle.getImage</text>
</g>
<!-- Node2 -->
<g id="node2" class="node"><title>Node2</title>
<g id="a_node2"><a xlink:href="../../d9/d7e/classslogo_1_1_u_i_1_1_method_runner.html#ab9a37be0679ebbac7866f565ef738192" target="_top" xlink:title="slogo.UI.MethodRunner.set\lTurtleVisibility">
<polygon fill="white" stroke="black" points="168,-49 168,-79 312,-79 312,-49 168,-49"/>
<text text-anchor="start" x="176" y="-67" font-family="Helvetica,sans-Serif" font-size="10.00">slogo.UI.MethodRunner.set</text>
<text text-anchor="middle" x="240" y="-56" font-family="Helvetica,sans-Serif" font-size="10.00">TurtleVisibility</text>
</a>
</g>
</g>
<!-- Node1&#45;&gt;Node2 -->
<g id="edge1" class="edge"><title>Node1&#45;&gt;Node2</title>
<path fill="none" stroke="midnightblue" d="M142.289,-64C150.778,-64 159.409,-64 167.844,-64"/>
<polygon fill="midnightblue" stroke="midnightblue" points="142.026,-60.5001 132.026,-64 142.026,-67.5001 142.026,-60.5001"/>
</g>
<!-- Node3 -->
<g id="node3" class="node"><title>Node3</title>
<g id="a_node3"><a xlink:href="../../d9/d7e/classslogo_1_1_u_i_1_1_method_runner.html#a5fe4a6310ba1b0851d7d30a440511324" target="_top" xlink:title="slogo.UI.MethodRunner.change\lTurtle">
<polygon fill="white" stroke="black" points="348,-49 348,-79 512,-79 512,-49 348,-49"/>
<text text-anchor="start" x="356" y="-67" font-family="Helvetica,sans-Serif" font-size="10.00">slogo.UI.MethodRunner.change</text>
<text text-anchor="middle" x="430" y="-56" font-family="Helvetica,sans-Serif" font-size="10.00">Turtle</text>
</a>
</g>
</g>
<!-- Node2&#45;&gt;Node3 -->
<g id="edge2" class="edge"><title>Node2&#45;&gt;Node3</title>
<path fill="none" stroke="midnightblue" d="M322.28,-64C330.719,-64 339.298,-64 347.736,-64"/>
<polygon fill="midnightblue" stroke="midnightblue" points="322.075,-60.5001 312.075,-64 322.075,-67.5001 322.075,-60.5001"/>
</g>
<!-- Node4 -->
<g id="node4" class="node"><title>Node4</title>
<g id="a_node4"><a xlink:href="../../df/d2d/classslogo_1_1_view.html#accc79c56511a72090ff8a4d414b8d1f5" target="_top" xlink:title="slogo.View.executeTurtle\lCommands">
<polygon fill="white" stroke="black" points="548.5,-49 548.5,-79 681.5,-79 681.5,-49 548.5,-49"/>
<text text-anchor="start" x="556.5" y="-67" font-family="Helvetica,sans-Serif" font-size="10.00">slogo.View.executeTurtle</text>
<text text-anchor="middle" x="615" y="-56" font-family="Helvetica,sans-Serif" font-size="10.00">Commands</text>
</a>
</g>
</g>
<!-- Node3&#45;&gt;Node4 -->
<g id="edge3" class="edge"><title>Node3&#45;&gt;Node4</title>
<path fill="none" stroke="midnightblue" d="M522.35,-64C531.128,-64 539.907,-64 548.365,-64"/>
<polygon fill="midnightblue" stroke="midnightblue" points="522.066,-60.5001 512.066,-64 522.066,-67.5001 522.066,-60.5001"/>
</g>
<!-- Node5 -->
<g id="node5" class="node"><title>Node5</title>
<g id="a_node5"><a xlink:href="../../df/d2d/classslogo_1_1_view.html#aa90e5d95d422b58b7f4b7f8a049defe1" target="_top" xlink:title="slogo.View.executeCommand">
<polygon fill="white" stroke="black" points="718,-54.5 718,-73.5 876,-73.5 876,-54.5 718,-54.5"/>
<text text-anchor="middle" x="797" y="-61.5" font-family="Helvetica,sans-Serif" font-size="10.00">slogo.View.executeCommand</text>
</a>
</g>
</g>
<!-- Node4&#45;&gt;Node5 -->
<g id="edge4" class="edge"><title>Node4&#45;&gt;Node5</title>
<path fill="none" stroke="midnightblue" d="M691.784,-64C700.42,-64 709.235,-64 717.901,-64"/>
<polygon fill="midnightblue" stroke="midnightblue" points="691.748,-60.5001 681.748,-64 691.748,-67.5001 691.748,-60.5001"/>
</g>
<!-- Node6 -->
<g id="node6" class="node"><title>Node6</title>
<g id="a_node6"><a xlink:href="../../df/d2d/classslogo_1_1_view.html#aee563f6a0b15ac6668e4dcbdad40c73c" target="_top" xlink:title="slogo.View.sendCommandTo\lBackend">
<polygon fill="white" stroke="black" points="918,-213 918,-243 1070,-243 1070,-213 918,-213"/>
<text text-anchor="start" x="926" y="-231" font-family="Helvetica,sans-Serif" font-size="10.00">slogo.View.sendCommandTo</text>
<text text-anchor="middle" x="994" y="-220" font-family="Helvetica,sans-Serif" font-size="10.00">Backend</text>
</a>
</g>
</g>
<!-- Node5&#45;&gt;Node6 -->
<g id="edge5" class="edge"><title>Node5&#45;&gt;Node6</title>
<path fill="none" stroke="midnightblue" d="M817.054,-80.0252C854.765,-111.741 938.433,-182.108 975.146,-212.984"/>
<polygon fill="midnightblue" stroke="midnightblue" points="819.233,-77.2841 809.327,-73.5262 814.727,-82.6414 819.233,-77.2841"/>
</g>
<!-- Node26 -->
<g id="node26" class="node"><title>Node26</title>
<g id="a_node26"><a xlink:href="../../df/d2d/classslogo_1_1_view.html#a4c3084a198acf85804800d70eff9ee51" target="_top" xlink:title="slogo.View.stepIntoCommand">
<polygon fill="white" stroke="black" points="915,-54.5 915,-73.5 1073,-73.5 1073,-54.5 915,-54.5"/>
<text text-anchor="middle" x="994" y="-61.5" font-family="Helvetica,sans-Serif" font-size="10.00">slogo.View.stepIntoCommand</text>
</a>
</g>
</g>
<!-- Node5&#45;&gt;Node26 -->
<g id="edge33" class="edge"><title>Node5&#45;&gt;Node26</title>
<path fill="none" stroke="midnightblue" d="M886.402,-64C895.87,-64 905.454,-64 914.792,-64"/>
<polygon fill="midnightblue" stroke="midnightblue" points="886.19,-60.5001 876.19,-64 886.19,-67.5001 886.19,-60.5001"/>
</g>
<!-- Node30 -->
<g id="node30" class="node"><title>Node30</title>
<g id="a_node30"><a xlink:href="../../df/d2d/classslogo_1_1_view.html#ac8b7f574c679e744a430f1649dc55e68" target="_top" xlink:title="slogo.View.stepOverCommand">
<polygon fill="white" stroke="black" points="912.5,-11.5 912.5,-30.5 1075.5,-30.5 1075.5,-11.5 912.5,-11.5"/>
<text text-anchor="middle" x="994" y="-18.5" font-family="Helvetica,sans-Serif" font-size="10.00">slogo.View.stepOverCommand</text>
</a>
</g>
</g>
<!-- Node5&#45;&gt;Node30 -->
<g id="edge38" class="edge"><title>Node5&#45;&gt;Node30</title>
<path fill="none" stroke="midnightblue" d="M851.056,-52.3005C882.068,-45.462 920.711,-36.9406 949.844,-30.5164"/>
<polygon fill="midnightblue" stroke="midnightblue" points="850.288,-48.8855 841.277,-54.4569 851.796,-55.7213 850.288,-48.8855"/>
</g>
<!-- Node7 -->
<g id="node7" class="node"><title>Node7</title>
<g id="a_node7"><a xlink:href="../../db/d19/classslogo_1_1_u_i_1_1_module_creation_helper.html#a69e17abcc7cf9a6ed7261d8fb1d631fa" target="_top" xlink:title="slogo.UI.ModuleCreationHelper.activate\lIncreaseDecreaseButtons">
<polygon fill="white" stroke="black" points="1112.5,-389 1112.5,-419 1317.5,-419 1317.5,-389 1112.5,-389"/>
<text text-anchor="start" x="1120.5" y="-407" font-family="Helvetica,sans-Serif" font-size="10.00">slogo.UI.ModuleCreationHelper.activate</text>
<text text-anchor="middle" x="1215" y="-396" font-family="Helvetica,sans-Serif" font-size="10.00">IncreaseDecreaseButtons</text>
</a>
</g>
</g>
<!-- Node6&#45;&gt;Node7 -->
<g id="edge6" class="edge"><title>Node6&#45;&gt;Node7</title>
<path fill="none" stroke="midnightblue" d="M1008.04,-252.219C1026.78,-284.724 1064.36,-342.06 1112,-374 1121.12,-380.116 1131.51,-385.01 1142.09,-388.919"/>
<polygon fill="midnightblue" stroke="midnightblue" points="1011.01,-250.361 1003.05,-243.368 1004.91,-253.798 1011.01,-250.361"/>
</g>
<!-- Node14 -->
<g id="node14" class="node"><title>Node14</title>
<g id="a_node14"><a xlink:href="../../db/d19/classslogo_1_1_u_i_1_1_module_creation_helper.html#aa70b0ad9e90e62509149bfd2ef2ba209" target="_top" xlink:title="slogo.UI.ModuleCreationHelper.activate\lKeyEvents">
<polygon fill="white" stroke="black" points="1838.5,-136 1838.5,-166 2043.5,-166 2043.5,-136 1838.5,-136"/>
<text text-anchor="start" x="1846.5" y="-154" font-family="Helvetica,sans-Serif" font-size="10.00">slogo.UI.ModuleCreationHelper.activate</text>
<text text-anchor="middle" x="1941" y="-143" font-family="Helvetica,sans-Serif" font-size="10.00">KeyEvents</text>
</a>
</g>
</g>
<!-- Node6&#45;&gt;Node14 -->
<g id="edge14" class="edge"><title>Node6&#45;&gt;Node14</title>
<path fill="none" stroke="midnightblue" d="M1024.18,-207.164C1046.9,-192.251 1079.88,-173.388 1112,-165 1246.15,-129.97 1648.16,-139.777 1838.26,-146.744"/>
<polygon fill="midnightblue" stroke="midnightblue" points="1022.05,-204.378 1015.7,-212.86 1025.95,-210.189 1022.05,-204.378"/>
</g>
<!-- Node15 -->
<g id="node15" class="node"><title>Node15</title>
<g id="a_node15"><a xlink:href="../../db/d19/classslogo_1_1_u_i_1_1_module_creation_helper.html#a2e841243ec3ca474e8822102343acc88" target="_top" xlink:title="slogo.UI.ModuleCreationHelper.activate\lNewTurtleButton">
<polygon fill="white" stroke="black" points="1354.5,-344 1354.5,-374 1559.5,-374 1559.5,-344 1354.5,-344"/>
<text text-anchor="start" x="1362.5" y="-362" font-family="Helvetica,sans-Serif" font-size="10.00">slogo.UI.ModuleCreationHelper.activate</text>
<text text-anchor="middle" x="1457" y="-351" font-family="Helvetica,sans-Serif" font-size="10.00">NewTurtleButton</text>
</a>
</g>
</g>
<!-- Node6&#45;&gt;Node15 -->
<g id="edge16" class="edge"><title>Node6&#45;&gt;Node15</title>
<path fill="none" stroke="midnightblue" d="M1011.02,-251.155C1031.1,-278.009 1068.24,-321.013 1112,-340 1188.41,-373.152 1283.47,-375.86 1354.29,-371.435"/>
<polygon fill="midnightblue" stroke="midnightblue" points="1013.83,-249.073 1005.11,-243.055 1008.18,-253.197 1013.83,-249.073"/>
</g>
<!-- Node17 -->
<g id="node17" class="node"><title>Node17</title>
<g id="a_node17"><a xlink:href="../../db/d19/classslogo_1_1_u_i_1_1_module_creation_helper.html#a9b1f07ab673191067907a059b1b0c524" target="_top" xlink:title="slogo.UI.ModuleCreationHelper.activate\lPlayButton">
<polygon fill="white" stroke="black" points="1112.5,-301 1112.5,-331 1317.5,-331 1317.5,-301 1112.5,-301"/>
<text text-anchor="start" x="1120.5" y="-319" font-family="Helvetica,sans-Serif" font-size="10.00">slogo.UI.ModuleCreationHelper.activate</text>
<text text-anchor="middle" x="1215" y="-308" font-family="Helvetica,sans-Serif" font-size="10.00">PlayButton</text>
</a>
</g>
</g>
<!-- Node6&#45;&gt;Node17 -->
<g id="edge19" class="edge"><title>Node6&#45;&gt;Node17</title>
<path fill="none" stroke="midnightblue" d="M1027.42,-248.354C1050.33,-262.006 1082.16,-279.522 1112,-291 1121.7,-294.73 1132.14,-298.039 1142.5,-300.929"/>
<polygon fill="midnightblue" stroke="midnightblue" points="1029.16,-245.317 1018.79,-243.145 1025.54,-251.31 1029.16,-245.317"/>
</g>
<!-- Node20 -->
<g id="node20" class="node"><title>Node20</title>
<g id="a_node20"><a xlink:href="../../db/d19/classslogo_1_1_u_i_1_1_module_creation_helper.html#a3a38d485562cb17591ec3fd07cffc18a" target="_top" xlink:title="slogo.UI.ModuleCreationHelper.activate\lTurtleCanvas">
<polygon fill="white" stroke="black" points="1596.5,-87 1596.5,-117 1801.5,-117 1801.5,-87 1596.5,-87"/>
<text text-anchor="start" x="1604.5" y="-105" font-family="Helvetica,sans-Serif" font-size="10.00">slogo.UI.ModuleCreationHelper.activate</text>
<text text-anchor="middle" x="1699" y="-94" font-family="Helvetica,sans-Serif" font-size="10.00">TurtleCanvas</text>
</a>
</g>
</g>
<!-- Node6&#45;&gt;Node20 -->
<g id="edge23" class="edge"><title>Node6&#45;&gt;Node20</title>
<path fill="none" stroke="midnightblue" d="M1014.37,-205.232C1035.63,-182.064 1072.1,-147.434 1112,-132 1197.51,-98.92 1452.48,-97.5272 1596.33,-99.6157"/>
<polygon fill="midnightblue" stroke="midnightblue" points="1011.56,-203.115 1007.5,-212.898 1016.78,-207.786 1011.56,-203.115"/>
</g>
<!-- Node22 -->
<g id="node22" class="node"><title>Node22</title>
<g id="a_node22"><a xlink:href="../../d1/d5f/classslogo_1_1_u_i_1_1_path_color_selector.html#ad3d9c82a0904c97edcec7cf67b85bd7b" target="_top" xlink:title="slogo.UI.PathColorSelector.create">
<polygon fill="white" stroke="black" points="1127,-262.5 1127,-281.5 1303,-281.5 1303,-262.5 1127,-262.5"/>
<text text-anchor="middle" x="1215" y="-269.5" font-family="Helvetica,sans-Serif" font-size="10.00">slogo.UI.PathColorSelector.create</text>
</a>
</g>
</g>
<!-- Node6&#45;&gt;Node22 -->
<g id="edge26" class="edge"><title>Node6&#45;&gt;Node22</title>
<path fill="none" stroke="midnightblue" d="M1077.74,-245.065C1089.24,-247.411 1100.91,-249.776 1112,-252 1129.25,-255.46 1148.16,-259.186 1164.95,-262.473"/>
<polygon fill="midnightblue" stroke="midnightblue" points="1078.19,-241.585 1067.69,-243.013 1076.79,-248.443 1078.19,-241.585"/>
</g>
<!-- Node24 -->
<g id="node24" class="node"><title>Node24</title>
<g id="a_node24"><a xlink:href="../../d4/d8d/classslogo_1_1_u_i_1_1_background_color_selector.html#ad75ba4ce104e071811d0fe039a4e839f" target="_top" xlink:title="slogo.UI.BackgroundColor\lSelector.create">
<polygon fill="white" stroke="black" points="1145,-213 1145,-243 1285,-243 1285,-213 1145,-213"/>
<text text-anchor="start" x="1153" y="-231" font-family="Helvetica,sans-Serif" font-size="10.00">slogo.UI.BackgroundColor</text>
<text text-anchor="middle" x="1215" y="-220" font-family="Helvetica,sans-Serif" font-size="10.00">Selector.create</text>
</a>
</g>
</g>
<!-- Node6&#45;&gt;Node24 -->
<g id="edge29" class="edge"><title>Node6&#45;&gt;Node24</title>
<path fill="none" stroke="midnightblue" d="M1080.14,-228C1101.6,-228 1124.37,-228 1144.93,-228"/>
<polygon fill="midnightblue" stroke="midnightblue" points="1080.06,-224.5 1070.06,-228 1080.06,-231.5 1080.06,-224.5"/>
</g>
<!-- Node25 -->
<g id="node25" class="node"><title>Node25</title>
<g id="a_node25"><a xlink:href="../../dd/da7/classslogo_1_1_u_i_1_1_turtle_image_selector.html#a3f268d9196ffebcbb5dc322d2897a9fe" target="_top" xlink:title="slogo.UI.TurtleImageSelector.create">
<polygon fill="white" stroke="black" points="1122,-174.5 1122,-193.5 1308,-193.5 1308,-174.5 1122,-174.5"/>
<text text-anchor="middle" x="1215" y="-181.5" font-family="Helvetica,sans-Serif" font-size="10.00">slogo.UI.TurtleImageSelector.create</text>
</a>
</g>
</g>
<!-- Node6&#45;&gt;Node25 -->
<g id="edge31" class="edge"><title>Node6&#45;&gt;Node25</title>
<path fill="none" stroke="midnightblue" d="M1074.01,-210.821C1086.7,-208.147 1099.71,-205.458 1112,-203 1127.99,-199.804 1145.42,-196.493 1161.27,-193.548"/>
<polygon fill="midnightblue" stroke="midnightblue" points="1072.98,-207.463 1063.92,-212.958 1074.43,-214.311 1072.98,-207.463"/>
</g>
<!-- Node8 -->
<g id="node8" class="node"><title>Node8</title>
<g id="a_node8"><a xlink:href="../../db/d19/classslogo_1_1_u_i_1_1_module_creation_helper.html#adce7362386f9a7b3006e7db08a2d578d" target="_top" xlink:title="slogo.UI.ModuleCreationHelper.create\lIncreaseDecreaseButtons">
<polygon fill="white" stroke="black" points="1600.5,-380 1600.5,-410 1797.5,-410 1797.5,-380 1600.5,-380"/>
<text text-anchor="start" x="1608.5" y="-398" font-family="Helvetica,sans-Serif" font-size="10.00">slogo.UI.ModuleCreationHelper.create</text>
<text text-anchor="middle" x="1699" y="-387" font-family="Helvetica,sans-Serif" font-size="10.00">IncreaseDecreaseButtons</text>
</a>
</g>
</g>
<!-- Node7&#45;&gt;Node8 -->
<g id="edge7" class="edge"><title>Node7&#45;&gt;Node8</title>
<path fill="none" stroke="midnightblue" d="M1327.79,-401.913C1410.23,-400.373 1521.29,-398.299 1600.21,-396.826"/>
<polygon fill="midnightblue" stroke="midnightblue" points="1327.56,-398.416 1317.63,-402.102 1327.69,-405.415 1327.56,-398.416"/>
</g>
<!-- Node9 -->
<g id="node9" class="node"><title>Node9</title>
<g id="a_node9"><a xlink:href="../../db/d19/classslogo_1_1_u_i_1_1_module_creation_helper.html#a7c650957b2389d6e6d36e8be8a33cd2b" target="_top" xlink:title="slogo.UI.ModuleCreationHelper.create\lSelectorVBoxModules">
<polygon fill="white" stroke="black" points="1842.5,-253 1842.5,-283 2039.5,-283 2039.5,-253 1842.5,-253"/>
<text text-anchor="start" x="1850.5" y="-271" font-family="Helvetica,sans-Serif" font-size="10.00">slogo.UI.ModuleCreationHelper.create</text>
<text text-anchor="middle" x="1941" y="-260" font-family="Helvetica,sans-Serif" font-size="10.00">SelectorVBoxModules</text>
</a>
</g>
</g>
<!-- Node8&#45;&gt;Node9 -->
<g id="edge8" class="edge"><title>Node8&#45;&gt;Node9</title>
<path fill="none" stroke="midnightblue" d="M1783,-376.732C1789.54,-374.424 1795.95,-371.854 1802,-369 1850.6,-346.077 1899.46,-305.079 1923.92,-283.025"/>
<polygon fill="midnightblue" stroke="midnightblue" points="1781.75,-373.461 1773.36,-379.93 1783.95,-380.105 1781.75,-373.461"/>
</g>
<!-- Node10 -->
<g id="node10" class="node"><title>Node10</title>
<g id="a_node10"><a xlink:href="../../db/d19/classslogo_1_1_u_i_1_1_module_creation_helper.html#afb9dbbbad7d872234a5b296fe129a34e" target="_top" xlink:title="slogo.UI.ModuleCreationHelper.create\lMainPageModules">
<polygon fill="white" stroke="black" points="2080.5,-136 2080.5,-166 2277.5,-166 2277.5,-136 2080.5,-136"/>
<text text-anchor="start" x="2088.5" y="-154" font-family="Helvetica,sans-Serif" font-size="10.00">slogo.UI.ModuleCreationHelper.create</text>
<text text-anchor="middle" x="2179" y="-143" font-family="Helvetica,sans-Serif" font-size="10.00">MainPageModules</text>
</a>
</g>
</g>
<!-- Node9&#45;&gt;Node10 -->
<g id="edge9" class="edge"><title>Node9&#45;&gt;Node10</title>
<path fill="none" stroke="midnightblue" d="M1981.58,-248.38C2028.29,-225.222 2104.96,-187.212 2147.37,-166.184"/>
<polygon fill="midnightblue" stroke="midnightblue" points="1979.77,-245.366 1972.37,-252.944 1982.88,-251.638 1979.77,-245.366"/>
</g>
<!-- Node11 -->
<g id="node11" class="node"><title>Node11</title>
<g id="a_node11"><a xlink:href="../../d9/d33/classslogo_1_1_u_i_1_1_main.html#a15b7f2e399ee24d160550993ab737e73" target="_top" xlink:title="slogo.UI.Main.start">
<polygon fill="white" stroke="black" points="2314,-150.5 2314,-169.5 2420,-169.5 2420,-150.5 2314,-150.5"/>
<text text-anchor="middle" x="2367" y="-157.5" font-family="Helvetica,sans-Serif" font-size="10.00">slogo.UI.Main.start</text>
</a>
</g>
</g>
<!-- Node10&#45;&gt;Node11 -->
<g id="edge10" class="edge"><title>Node10&#45;&gt;Node11</title>
<path fill="none" stroke="midnightblue" d="M2287.8,-156.216C2296.76,-156.65 2305.53,-157.074 2313.76,-157.472"/>
<polygon fill="midnightblue" stroke="midnightblue" points="2287.79,-152.712 2277.63,-155.724 2287.45,-159.703 2287.79,-152.712"/>
</g>
<!-- Node12 -->
<g id="node12" class="node"><title>Node12</title>
<g id="a_node12"><a xlink:href="../../db/d19/classslogo_1_1_u_i_1_1_module_creation_helper.html#a3be12a7cc2b8a219db1e296211a2cb88" target="_top" xlink:title="slogo.UI.ModuleCreationHelper.activate\lExtraWorkspaceButton">
<polygon fill="white" stroke="black" points="2456.5,-163 2456.5,-193 2661.5,-193 2661.5,-163 2456.5,-163"/>
<text text-anchor="start" x="2464.5" y="-181" font-family="Helvetica,sans-Serif" font-size="10.00">slogo.UI.ModuleCreationHelper.activate</text>
<text text-anchor="middle" x="2559" y="-170" font-family="Helvetica,sans-Serif" font-size="10.00">ExtraWorkspaceButton</text>
</a>
</g>
</g>
<!-- Node11&#45;&gt;Node12 -->
<g id="edge11" class="edge"><title>Node11&#45;&gt;Node12</title>
<path fill="none" stroke="midnightblue" d="M2430.22,-165.894C2438.63,-166.691 2447.44,-167.526 2456.32,-168.367"/>
<polygon fill="midnightblue" stroke="midnightblue" points="2430.46,-162.401 2420.17,-164.942 2429.79,-169.37 2430.46,-162.401"/>
</g>
<!-- Node13 -->
<g id="node13" class="node"><title>Node13</title>
<g id="a_node13"><a xlink:href="../../db/d19/classslogo_1_1_u_i_1_1_module_creation_helper.html#a702c1ebe24d2857a10c666eb1fcc315d" target="_top" xlink:title="slogo.UI.ModuleCreationHelper.create\lExtraWorkspaceButton">
<polygon fill="white" stroke="black" points="2698.5,-189 2698.5,-219 2895.5,-219 2895.5,-189 2698.5,-189"/>
<text text-anchor="start" x="2706.5" y="-207" font-family="Helvetica,sans-Serif" font-size="10.00">slogo.UI.ModuleCreationHelper.create</text>
<text text-anchor="middle" x="2797" y="-196" font-family="Helvetica,sans-Serif" font-size="10.00">ExtraWorkspaceButton</text>
</a>
</g>
</g>
<!-- Node12&#45;&gt;Node13 -->
<g id="edge12" class="edge"><title>Node12&#45;&gt;Node13</title>
<path fill="none" stroke="midnightblue" d="M2671.77,-190.313C2680.62,-191.289 2689.52,-192.27 2698.27,-193.234"/>
<polygon fill="midnightblue" stroke="midnightblue" points="2672.12,-186.831 2661.8,-189.215 2671.35,-193.789 2672.12,-186.831"/>
</g>
<!-- Node13&#45;&gt;Node9 -->
<g id="edge13" class="edge"><title>Node13&#45;&gt;Node9</title>
<path fill="none" stroke="midnightblue" d="M2688.34,-212.068C2520.9,-224.617 2200.6,-248.62 2039.55,-260.69"/>
<polygon fill="midnightblue" stroke="midnightblue" points="2688.7,-215.551 2698.41,-211.313 2688.18,-208.571 2688.7,-215.551"/>
</g>
<!-- Node14&#45;&gt;Node10 -->
<g id="edge15" class="edge"><title>Node14&#45;&gt;Node10</title>
<path fill="none" stroke="midnightblue" d="M2054.05,-151C2062.81,-151 2071.62,-151 2080.27,-151"/>
<polygon fill="midnightblue" stroke="midnightblue" points="2053.8,-147.5 2043.8,-151 2053.8,-154.5 2053.8,-147.5"/>
</g>
<!-- Node16 -->
<g id="node16" class="node"><title>Node16</title>
<g id="a_node16"><a xlink:href="../../db/d19/classslogo_1_1_u_i_1_1_module_creation_helper.html#a07f5483df317cdf80e8ea2dda5699afa" target="_top" xlink:title="slogo.UI.ModuleCreationHelper.create\lNewTurtleButton">
<polygon fill="white" stroke="black" points="1600.5,-330 1600.5,-360 1797.5,-360 1797.5,-330 1600.5,-330"/>
<text text-anchor="start" x="1608.5" y="-348" font-family="Helvetica,sans-Serif" font-size="10.00">slogo.UI.ModuleCreationHelper.create</text>
<text text-anchor="middle" x="1699" y="-337" font-family="Helvetica,sans-Serif" font-size="10.00">NewTurtleButton</text>
</a>
</g>
</g>
<!-- Node15&#45;&gt;Node16 -->
<g id="edge17" class="edge"><title>Node15&#45;&gt;Node16</title>
<path fill="none" stroke="midnightblue" d="M1569.89,-352.473C1580.04,-351.881 1590.26,-351.285 1600.27,-350.701"/>
<polygon fill="midnightblue" stroke="midnightblue" points="1569.56,-348.986 1559.78,-353.063 1569.97,-355.974 1569.56,-348.986"/>
</g>
<!-- Node16&#45;&gt;Node9 -->
<g id="edge18" class="edge"><title>Node16&#45;&gt;Node9</title>
<path fill="none" stroke="midnightblue" d="M1770.15,-327.309C1780.87,-324.354 1791.76,-321.203 1802,-318 1835.93,-307.387 1873.86,-293.493 1901.35,-283.046"/>
<polygon fill="midnightblue" stroke="midnightblue" points="1769.12,-323.962 1760.39,-329.963 1770.96,-330.717 1769.12,-323.962"/>
</g>
<!-- Node18 -->
<g id="node18" class="node"><title>Node18</title>
<g id="a_node18"><a xlink:href="../../db/d19/classslogo_1_1_u_i_1_1_module_creation_helper.html#a9b3fb38a55b3b7812b4f793afa7a974f" target="_top" xlink:title="slogo.UI.ModuleCreationHelper.create\lPlayButton">
<polygon fill="white" stroke="black" points="1358.5,-295 1358.5,-325 1555.5,-325 1555.5,-295 1358.5,-295"/>
<text text-anchor="start" x="1366.5" y="-313" font-family="Helvetica,sans-Serif" font-size="10.00">slogo.UI.ModuleCreationHelper.create</text>
<text text-anchor="middle" x="1457" y="-302" font-family="Helvetica,sans-Serif" font-size="10.00">PlayButton</text>
</a>
</g>
</g>
<!-- Node17&#45;&gt;Node18 -->
<g id="edge20" class="edge"><title>Node17&#45;&gt;Node18</title>
<path fill="none" stroke="midnightblue" d="M1327.89,-313.203C1338.04,-312.949 1348.26,-312.694 1358.27,-312.443"/>
<polygon fill="midnightblue" stroke="midnightblue" points="1327.69,-309.707 1317.78,-313.455 1327.87,-316.704 1327.69,-309.707"/>
</g>
<!-- Node19 -->
<g id="node19" class="node"><title>Node19</title>
<g id="a_node19"><a xlink:href="../../db/d19/classslogo_1_1_u_i_1_1_module_creation_helper.html#ae1e60d37509c2e5eddcb2a6e70b4f650" target="_top" xlink:title="slogo.UI.ModuleCreationHelper.create\lFirstRowButtons">
<polygon fill="white" stroke="black" points="1600.5,-279 1600.5,-309 1797.5,-309 1797.5,-279 1600.5,-279"/>
<text text-anchor="start" x="1608.5" y="-297" font-family="Helvetica,sans-Serif" font-size="10.00">slogo.UI.ModuleCreationHelper.create</text>
<text text-anchor="middle" x="1699" y="-286" font-family="Helvetica,sans-Serif" font-size="10.00">FirstRowButtons</text>
</a>
</g>
</g>
<!-- Node18&#45;&gt;Node19 -->
<g id="edge21" class="edge"><title>Node18&#45;&gt;Node19</title>
<path fill="none" stroke="midnightblue" d="M1565.73,-302.818C1577.3,-302.046 1589.03,-301.265 1600.47,-300.502"/>
<polygon fill="midnightblue" stroke="midnightblue" points="1565.36,-299.335 1555.62,-303.492 1565.83,-306.319 1565.36,-299.335"/>
</g>
<!-- Node19&#45;&gt;Node9 -->
<g id="edge22" class="edge"><title>Node19&#45;&gt;Node9</title>
<path fill="none" stroke="midnightblue" d="M1807.73,-282.329C1819.3,-281.075 1831.03,-279.805 1842.47,-278.566"/>
<polygon fill="midnightblue" stroke="midnightblue" points="1807.18,-278.868 1797.62,-283.425 1807.94,-285.827 1807.18,-278.868"/>
</g>
<!-- Node21 -->
<g id="node21" class="node"><title>Node21</title>
<g id="a_node21"><a xlink:href="../../db/d19/classslogo_1_1_u_i_1_1_module_creation_helper.html#a803bac6b55bde712b21f2face1eeef81" target="_top" xlink:title="slogo.UI.ModuleCreationHelper.create\lTurtleCanvas">
<polygon fill="white" stroke="black" points="1842.5,-87 1842.5,-117 2039.5,-117 2039.5,-87 1842.5,-87"/>
<text text-anchor="start" x="1850.5" y="-105" font-family="Helvetica,sans-Serif" font-size="10.00">slogo.UI.ModuleCreationHelper.create</text>
<text text-anchor="middle" x="1941" y="-94" font-family="Helvetica,sans-Serif" font-size="10.00">TurtleCanvas</text>
</a>
</g>
</g>
<!-- Node20&#45;&gt;Node21 -->
<g id="edge24" class="edge"><title>Node20&#45;&gt;Node21</title>
<path fill="none" stroke="midnightblue" d="M1811.89,-102C1822.04,-102 1832.26,-102 1842.27,-102"/>
<polygon fill="midnightblue" stroke="midnightblue" points="1811.78,-98.5001 1801.78,-102 1811.78,-105.5 1811.78,-98.5001"/>
</g>
<!-- Node21&#45;&gt;Node10 -->
<g id="edge25" class="edge"><title>Node21&#45;&gt;Node10</title>
<path fill="none" stroke="midnightblue" d="M2024.42,-119.113C2050.9,-124.611 2080.03,-130.658 2105.73,-135.994"/>
<polygon fill="midnightblue" stroke="midnightblue" points="2024.91,-115.641 2014.41,-117.035 2023.49,-122.495 2024.91,-115.641"/>
</g>
<!-- Node23 -->
<g id="node23" class="node"><title>Node23</title>
<g id="a_node23"><a xlink:href="../../db/d19/classslogo_1_1_u_i_1_1_module_creation_helper.html#af7f2919454fdbf6e9d7d912e99634857" target="_top" xlink:title="slogo.UI.ModuleCreationHelper.create\lSelectors">
<polygon fill="white" stroke="black" points="1358.5,-230 1358.5,-260 1555.5,-260 1555.5,-230 1358.5,-230"/>
<text text-anchor="start" x="1366.5" y="-248" font-family="Helvetica,sans-Serif" font-size="10.00">slogo.UI.ModuleCreationHelper.create</text>
<text text-anchor="middle" x="1457" y="-237" font-family="Helvetica,sans-Serif" font-size="10.00">Selectors</text>
</a>
</g>
</g>
<!-- Node22&#45;&gt;Node23 -->
<g id="edge27" class="edge"><title>Node22&#45;&gt;Node23</title>
<path fill="none" stroke="midnightblue" d="M1310.76,-261.339C1326.36,-259.585 1342.54,-257.764 1358.21,-256.002"/>
<polygon fill="midnightblue" stroke="midnightblue" points="1310.16,-257.885 1300.62,-262.481 1310.94,-264.841 1310.16,-257.885"/>
</g>
<!-- Node23&#45;&gt;Node9 -->
<g id="edge28" class="edge"><title>Node23&#45;&gt;Node9</title>
<path fill="none" stroke="midnightblue" d="M1565.74,-250.141C1648.55,-254.092 1761.97,-259.505 1842.19,-263.333"/>
<polygon fill="midnightblue" stroke="midnightblue" points="1565.7,-246.635 1555.54,-249.654 1565.36,-253.627 1565.7,-246.635"/>
</g>
<!-- Node24&#45;&gt;Node23 -->
<g id="edge30" class="edge"><title>Node24&#45;&gt;Node23</title>
<path fill="none" stroke="midnightblue" d="M1295.18,-233.609C1315.4,-235.041 1337.37,-236.597 1358.39,-238.086"/>
<polygon fill="midnightblue" stroke="midnightblue" points="1295.32,-230.11 1285.1,-232.894 1294.82,-237.092 1295.32,-230.11"/>
</g>
<!-- Node25&#45;&gt;Node23 -->
<g id="edge32" class="edge"><title>Node25&#45;&gt;Node23</title>
<path fill="none" stroke="midnightblue" d="M1283.48,-195.473C1295.04,-197.752 1306.9,-200.287 1318,-203 1349.38,-210.673 1384.18,-221.278 1410.98,-229.911"/>
<polygon fill="midnightblue" stroke="midnightblue" points="1283.9,-191.99 1273.42,-193.539 1282.58,-198.864 1283.9,-191.99"/>
</g>
<!-- Node27 -->
<g id="node27" class="node"><title>Node27</title>
<g id="a_node27"><a xlink:href="../../db/d19/classslogo_1_1_u_i_1_1_module_creation_helper.html#a9fd730f7c1860d34bf4ac46c3828bd59" target="_top" xlink:title="slogo.UI.ModuleCreationHelper.activate\lStepIntoButton">
<polygon fill="white" stroke="black" points="1112.5,-49 1112.5,-79 1317.5,-79 1317.5,-49 1112.5,-49"/>
<text text-anchor="start" x="1120.5" y="-67" font-family="Helvetica,sans-Serif" font-size="10.00">slogo.UI.ModuleCreationHelper.activate</text>
<text text-anchor="middle" x="1215" y="-56" font-family="Helvetica,sans-Serif" font-size="10.00">StepIntoButton</text>
</a>
</g>
</g>
<!-- Node26&#45;&gt;Node27 -->
<g id="edge34" class="edge"><title>Node26&#45;&gt;Node27</title>
<path fill="none" stroke="midnightblue" d="M1083.33,-64C1092.82,-64 1102.54,-64 1112.17,-64"/>
<polygon fill="midnightblue" stroke="midnightblue" points="1083.14,-60.5001 1073.14,-64 1083.14,-67.5001 1083.14,-60.5001"/>
</g>
<!-- Node28 -->
<g id="node28" class="node"><title>Node28</title>
<g id="a_node28"><a xlink:href="../../db/d19/classslogo_1_1_u_i_1_1_module_creation_helper.html#a4a6f1f009507c25be8c7c28cbba35f3b" target="_top" xlink:title="slogo.UI.ModuleCreationHelper.create\lDebugStepIntoButton">
<polygon fill="white" stroke="black" points="1358.5,-49 1358.5,-79 1555.5,-79 1555.5,-49 1358.5,-49"/>
<text text-anchor="start" x="1366.5" y="-67" font-family="Helvetica,sans-Serif" font-size="10.00">slogo.UI.ModuleCreationHelper.create</text>
<text text-anchor="middle" x="1457" y="-56" font-family="Helvetica,sans-Serif" font-size="10.00">DebugStepIntoButton</text>
</a>
</g>
</g>
<!-- Node27&#45;&gt;Node28 -->
<g id="edge35" class="edge"><title>Node27&#45;&gt;Node28</title>
<path fill="none" stroke="midnightblue" d="M1327.89,-64C1338.04,-64 1348.26,-64 1358.27,-64"/>
<polygon fill="midnightblue" stroke="midnightblue" points="1327.78,-60.5001 1317.78,-64 1327.78,-67.5001 1327.78,-60.5001"/>
</g>
<!-- Node29 -->
<g id="node29" class="node"><title>Node29</title>
<g id="a_node29"><a xlink:href="../../db/d19/classslogo_1_1_u_i_1_1_module_creation_helper.html#a975af4ea47dc85df72215bdf1a0d20ce" target="_top" xlink:title="slogo.UI.ModuleCreationHelper.create\lDebugModules">
<polygon fill="white" stroke="black" points="1600.5,-38 1600.5,-68 1797.5,-68 1797.5,-38 1600.5,-38"/>
<text text-anchor="start" x="1608.5" y="-56" font-family="Helvetica,sans-Serif" font-size="10.00">slogo.UI.ModuleCreationHelper.create</text>
<text text-anchor="middle" x="1699" y="-45" font-family="Helvetica,sans-Serif" font-size="10.00">DebugModules</text>
</a>
</g>
</g>
<!-- Node28&#45;&gt;Node29 -->
<g id="edge36" class="edge"><title>Node28&#45;&gt;Node29</title>
<path fill="none" stroke="midnightblue" d="M1565.73,-59.0622C1577.3,-58.5319 1589.03,-57.9945 1600.47,-57.4702"/>
<polygon fill="midnightblue" stroke="midnightblue" points="1565.45,-55.5716 1555.62,-59.5259 1565.77,-62.5643 1565.45,-55.5716"/>
</g>
<!-- Node29&#45;&gt;Node10 -->
<g id="edge37" class="edge"><title>Node29&#45;&gt;Node10</title>
<path fill="none" stroke="midnightblue" d="M1807.63,-48.679C1876.53,-48.779 1967.11,-54.2973 2044,-77 2087.33,-89.7936 2132.2,-118.228 2157.46,-135.889"/>
<polygon fill="midnightblue" stroke="midnightblue" points="1807.61,-45.1789 1797.62,-48.7021 1807.63,-52.1789 1807.61,-45.1789"/>
</g>
<!-- Node31 -->
<g id="node31" class="node"><title>Node31</title>
<g id="a_node31"><a xlink:href="../../db/d19/classslogo_1_1_u_i_1_1_module_creation_helper.html#a0fed0bb32bf2643d6fd5c24d82e8e18e" target="_top" xlink:title="slogo.UI.ModuleCreationHelper.activate\lStepOverButton">
<polygon fill="white" stroke="black" points="1112.5,-0 1112.5,-30 1317.5,-30 1317.5,-0 1112.5,-0"/>
<text text-anchor="start" x="1120.5" y="-18" font-family="Helvetica,sans-Serif" font-size="10.00">slogo.UI.ModuleCreationHelper.activate</text>
<text text-anchor="middle" x="1215" y="-7" font-family="Helvetica,sans-Serif" font-size="10.00">StepOverButton</text>
</a>
</g>
</g>
<!-- Node30&#45;&gt;Node31 -->
<g id="edge39" class="edge"><title>Node30&#45;&gt;Node31</title>
<path fill="none" stroke="midnightblue" d="M1085.8,-18.5123C1094.56,-18.2724 1103.48,-18.028 1112.33,-17.7856"/>
<polygon fill="midnightblue" stroke="midnightblue" points="1085.51,-15.0187 1075.61,-18.7914 1085.71,-22.0161 1085.51,-15.0187"/>
</g>
<!-- Node32 -->
<g id="node32" class="node"><title>Node32</title>
<g id="a_node32"><a xlink:href="../../db/d19/classslogo_1_1_u_i_1_1_module_creation_helper.html#aa1e7dc2b509360583790fba0d3819c8d" target="_top" xlink:title="slogo.UI.ModuleCreationHelper.create\lDebugStepOverButton">
<polygon fill="white" stroke="black" points="1358.5,-0 1358.5,-30 1555.5,-30 1555.5,-0 1358.5,-0"/>
<text text-anchor="start" x="1366.5" y="-18" font-family="Helvetica,sans-Serif" font-size="10.00">slogo.UI.ModuleCreationHelper.create</text>
<text text-anchor="middle" x="1457" y="-7" font-family="Helvetica,sans-Serif" font-size="10.00">DebugStepOverButton</text>
</a>
</g>
</g>
<!-- Node31&#45;&gt;Node32 -->
<g id="edge40" class="edge"><title>Node31&#45;&gt;Node32</title>
<path fill="none" stroke="midnightblue" d="M1327.89,-15C1338.04,-15 1348.26,-15 1358.27,-15"/>
<polygon fill="midnightblue" stroke="midnightblue" points="1327.78,-11.5001 1317.78,-15 1327.78,-18.5001 1327.78,-11.5001"/>
</g>
<!-- Node32&#45;&gt;Node29 -->
<g id="edge41" class="edge"><title>Node32&#45;&gt;Node29</title>
<path fill="none" stroke="midnightblue" d="M1562.99,-31.6227C1576.31,-33.7329 1589.89,-35.8827 1603.05,-37.966"/>
<polygon fill="midnightblue" stroke="midnightblue" points="1563.28,-28.1256 1552.85,-30.0186 1562.18,-35.0395 1563.28,-28.1256"/>
</g>
</g>
</svg>
        <g id="navigator" transform="translate(0 0)" fill="#404254">
                <rect fill="#f2f5e9" fill-opacity="0.5" stroke="#606060" stroke-width=".5" x="0" y="0" width="60" height="60"/>
                <use id="zoomplus" xlink:href="#zoomPlus" x="17" y="9" onmousedown="handleZoom(evt,'in')"/>
                <use id="zoomminus" xlink:href="#zoomMin" x="42" y="9" onmousedown="handleZoom(evt,'out')"/>
                <use id="reset" xlink:href="#resetDef" x="30" y="36" onmousedown="handleReset()"/>
                <g id="arrowUp" xlink:href="#dirArrow" transform="translate(30 24)" onmousedown="handlePan(0,-1)">
                  <use xlink:href="#rim" fill="#404040">
                        <set attributeName="fill" to="#808080" begin="arrowUp.mouseover" end="arrowUp.mouseout"/>
                  </use>
                  <path fill="none" stroke="white" stroke-width="1.5" d="M0,-3.0v7 M-2.5,-0.5L0,-3.0L2.5,-0.5"/>
                </g>
                <g id="arrowRight" xlink:href="#dirArrow" transform="rotate(90) translate(36 -43)" onmousedown="handlePan(1,0)">
                  <use xlink:href="#rim" fill="#404040">
                        <set attributeName="fill" to="#808080" begin="arrowRight.mouseover" end="arrowRight.mouseout"/>
                  </use>
                  <path fill="none" stroke="white" stroke-width="1.5" d="M0,-3.0v7 M-2.5,-0.5L0,-3.0L2.5,-0.5"/>
                </g>
                <g id="arrowDown" xlink:href="#dirArrow" transform="rotate(180) translate(-30 -48)" onmousedown="handlePan(0,1)">
                  <use xlink:href="#rim" fill="#404040">
                        <set attributeName="fill" to="#808080" begin="arrowDown.mouseover" end="arrowDown.mouseout"/>
                  </use>
                  <path fill="none" stroke="white" stroke-width="1.5" d="M0,-3.0v7 M-2.5,-0.5L0,-3.0L2.5,-0.5"/>
                </g>
                <g id="arrowLeft" xlink:href="#dirArrow" transform="rotate(270) translate(-36 17)" onmousedown="handlePan(-1,0)">
                  <use xlink:href="#rim" fill="#404040">
                        <set attributeName="fill" to="#808080" begin="arrowLeft.mouseover" end="arrowLeft.mouseout"/>
                  </use>
                  <path fill="none" stroke="white" stroke-width="1.5" d="M0,-3.0v7 M-2.5,-0.5L0,-3.0L2.5,-0.5"/>
                </g>
        </g>
        <svg viewBox="0 0 15 15" width="100%" height="30px" preserveAspectRatio="xMaxYMin meet">
         <g id="arrow_out" transform="scale(0.3 0.3)">
          <a xlink:href="classslogo_1_1_u_i_1_1_turtle_a663e312977822a66bc6df5902554076a_icgraph_org.svg" target="_base">
           <rect id="button" ry="5" rx="5" y="6" x="6" height="38" width="38"
                fill="#f2f5e9" fill-opacity="0.5" stroke="#606060" stroke-width="1.0"/>
           <path id="arrow"
             d="M 11.500037,31.436501 C 11.940474,20.09759 22.043105,11.32322 32.158766,21.979434 L 37.068811,17.246167 C 37.068811,17.246167 37.088388,32 37.088388,32 L 22.160133,31.978069 C 22.160133,31.978069 26.997745,27.140456 26.997745,27.140456 C 18.528582,18.264221 13.291696,25.230495 11.500037,31.436501 z"
             style="fill:#404040;"/>
          </a>
         </g>
        </svg>
</svg>
