<?xml version="1.0" encoding="UTF-8" standalone="no"?>
<!DOCTYPE svg PUBLIC "-//W3C//DTD SVG 1.1//EN"
 "http://www.w3.org/Graphics/SVG/1.1/DTD/svg11.dtd">
<!-- Generated by graphviz version 2.36.0 (20140111.2315)
 -->
<!-- Title: slogo.UI.Turtle.setThickness Pages: 1 -->
<!--zoomable 450 -->
<svg id="main" version="1.1" xmlns="http://www.w3.org/2000/svg" xmlns:xlink="http://www.w3.org/1999/xlink" xml:space="preserve" onload="init(evt)">
<style type="text/css"><![CDATA[
.edge:hover path { stroke: red; }
.edge:hover polygon { stroke: red; fill: red; }
]]></style>
<script type="text/javascript"><![CDATA[
var edges = document.getElementsByTagName('g');
if (edges && edges.length) {
  for (var i=0;i<edges.length;i++) {
    if (edges[i].id.substr(0,4)=='edge') {
      edges[i].setAttribute('class','edge');
    }
  }
}
]]></script>
        <defs>
                <circle id="rim" cx="0" cy="0" r="7"/>
                <circle id="rim2" cx="0" cy="0" r="3.5"/>
                <g id="zoomPlus">
                        <use xlink:href="#rim" fill="#404040">
                                <set attributeName="fill" to="#808080" begin="zoomplus.mouseover" end="zoomplus.mouseout"/>
                        </use>
                        <path d="M-4,0h8M0,-4v8" fill="none" stroke="white" stroke-width="1.5" pointer-events="none"/>
                </g>
                <g id="zoomMin">
                        <use xlink:href="#rim" fill="#404040">
                                <set attributeName="fill" to="#808080" begin="zoomminus.mouseover" end="zoomminus.mouseout"/>
                        </use>
                        <path d="M-4,0h8" fill="none" stroke="white" stroke-width="1.5" pointer-events="none"/>
                </g>
                <g id="dirArrow">
                        <path fill="none" stroke="white" stroke-width="1.5" d="M0,-3.0v7 M-2.5,-0.5L0,-3.0L2.5,-0.5"/>
                </g>
               <g id="resetDef">
                       <use xlink:href="#rim2" fill="#404040">
                               <set attributeName="fill" to="#808080" begin="reset.mouseover" end="reset.mouseout"/>
                       </use>
               </g>
        </defs>

<script type="text/javascript">
var viewWidth = 3084;
var viewHeight = 450;
var sectionId = 'dynsection-18';
</script>
<script xlink:href="../../svgpan.js"/>
<svg id="graph" class="graph">
<g id="viewport">
<title>slogo.UI.Turtle.setThickness</title>
<polygon fill="white" stroke="none" points="-4,4 -4,-446 3080,-446 3080,4 -4,4"/>
<!-- Node1 -->
<g id="node1" class="node"><title>Node1</title>
<polygon fill="#bfbfbf" stroke="black" points="0,-322.5 0,-341.5 148,-341.5 148,-322.5 0,-322.5"/>
<text text-anchor="middle" x="74" y="-329.5" font-family="Helvetica,sans-Serif" font-size="10.00">slogo.UI.Turtle.setThickness</text>
</g>
<!-- Node2 -->
<g id="node2" class="node"><title>Node2</title>
<g id="a_node2"><a xlink:href="../../db/d19/classslogo_1_1_u_i_1_1_module_creation_helper.html#a69e17abcc7cf9a6ed7261d8fb1d631fa" target="_top" xlink:title="slogo.UI.ModuleCreationHelper.activate\lIncreaseDecreaseButtons">
<polygon fill="white" stroke="black" points="1308.5,-411 1308.5,-441 1513.5,-441 1513.5,-411 1308.5,-411"/>
<text text-anchor="start" x="1316.5" y="-429" font-family="Helvetica,sans-Serif" font-size="10.00">slogo.UI.ModuleCreationHelper.activate</text>
<text text-anchor="middle" x="1411" y="-418" font-family="Helvetica,sans-Serif" font-size="10.00">IncreaseDecreaseButtons</text>
</a>
</g>
</g>
<!-- Node1&#45;&gt;Node2 -->
<g id="edge1" class="edge"><title>Node1&#45;&gt;Node2</title>
<path fill="none" stroke="midnightblue" d="M158.339,-342.169C231.212,-350.178 339.952,-360 435,-360 435,-360 435,-360 994,-360 1058.62,-360 1232.32,-391.462 1333.66,-410.941"/>
<polygon fill="midnightblue" stroke="midnightblue" points="158.625,-338.679 148.3,-341.052 157.851,-345.636 158.625,-338.679"/>
</g>
<!-- Node9 -->
<g id="node9" class="node"><title>Node9</title>
<g id="a_node9"><a xlink:href="../../d9/d7e/classslogo_1_1_u_i_1_1_method_runner.html#a5fcec4f854c4d3f6a300974e88678854" target="_top" xlink:title="slogo.UI.MethodRunner.set\lPenThickness">
<polygon fill="white" stroke="black" points="184,-290 184,-320 328,-320 328,-290 184,-290"/>
<text text-anchor="start" x="192" y="-308" font-family="Helvetica,sans-Serif" font-size="10.00">slogo.UI.MethodRunner.set</text>
<text text-anchor="middle" x="256" y="-297" font-family="Helvetica,sans-Serif" font-size="10.00">PenThickness</text>
</a>
</g>
</g>
<!-- Node1&#45;&gt;Node9 -->
<g id="edge9" class="edge"><title>Node1&#45;&gt;Node9</title>
<path fill="none" stroke="midnightblue" d="M148.575,-320.964C160.219,-319.217 172.243,-317.414 183.83,-315.676"/>
<polygon fill="midnightblue" stroke="midnightblue" points="147.831,-317.536 138.461,-322.481 148.87,-324.459 147.831,-317.536"/>
</g>
<!-- Node3 -->
<g id="node3" class="node"><title>Node3</title>
<g id="a_node3"><a xlink:href="../../db/d19/classslogo_1_1_u_i_1_1_module_creation_helper.html#adce7362386f9a7b3006e7db08a2d578d" target="_top" xlink:title="slogo.UI.ModuleCreationHelper.create\lIncreaseDecreaseButtons">
<polygon fill="white" stroke="black" points="1784.5,-323 1784.5,-353 1981.5,-353 1981.5,-323 1784.5,-323"/>
<text text-anchor="start" x="1792.5" y="-341" font-family="Helvetica,sans-Serif" font-size="10.00">slogo.UI.ModuleCreationHelper.create</text>
<text text-anchor="middle" x="1883" y="-330" font-family="Helvetica,sans-Serif" font-size="10.00">IncreaseDecreaseButtons</text>
</a>
</g>
</g>
<!-- Node2&#45;&gt;Node3 -->
<g id="edge2" class="edge"><title>Node2&#45;&gt;Node3</title>
<path fill="none" stroke="midnightblue" d="M1502.35,-409.084C1588.98,-392.863 1718.55,-368.603 1801.68,-353.039"/>
<polygon fill="midnightblue" stroke="midnightblue" points="1501.45,-405.692 1492.26,-410.972 1502.74,-412.572 1501.45,-405.692"/>
</g>
<!-- Node4 -->
<g id="node4" class="node"><title>Node4</title>
<g id="a_node4"><a xlink:href="../../db/d19/classslogo_1_1_u_i_1_1_module_creation_helper.html#a7c650957b2389d6e6d36e8be8a33cd2b" target="_top" xlink:title="slogo.UI.ModuleCreationHelper.create\lSelectorVBoxModules">
<polygon fill="white" stroke="black" points="2022.5,-213 2022.5,-243 2219.5,-243 2219.5,-213 2022.5,-213"/>
<text text-anchor="start" x="2030.5" y="-231" font-family="Helvetica,sans-Serif" font-size="10.00">slogo.UI.ModuleCreationHelper.create</text>
<text text-anchor="middle" x="2121" y="-220" font-family="Helvetica,sans-Serif" font-size="10.00">SelectorVBoxModules</text>
</a>
</g>
</g>
<!-- Node3&#45;&gt;Node4 -->
<g id="edge3" class="edge"><title>Node3&#45;&gt;Node4</title>
<path fill="none" stroke="midnightblue" d="M1950.71,-319.827C1961.33,-316.296 1972.07,-312.329 1982,-308 2024.65,-289.403 2070.75,-260.762 2097.41,-243.268"/>
<polygon fill="midnightblue" stroke="midnightblue" points="1949.47,-316.549 1941.03,-322.946 1951.62,-323.212 1949.47,-316.549"/>
</g>
<!-- Node5 -->
<g id="node5" class="node"><title>Node5</title>
<g id="a_node5"><a xlink:href="../../db/d19/classslogo_1_1_u_i_1_1_module_creation_helper.html#afb9dbbbad7d872234a5b296fe129a34e" target="_top" xlink:title="slogo.UI.ModuleCreationHelper.create\lMainPageModules">
<polygon fill="white" stroke="black" points="2260.5,-142 2260.5,-172 2457.5,-172 2457.5,-142 2260.5,-142"/>
<text text-anchor="start" x="2268.5" y="-160" font-family="Helvetica,sans-Serif" font-size="10.00">slogo.UI.ModuleCreationHelper.create</text>
<text text-anchor="middle" x="2359" y="-149" font-family="Helvetica,sans-Serif" font-size="10.00">MainPageModules</text>
</a>
</g>
</g>
<!-- Node4&#45;&gt;Node5 -->
<g id="edge4" class="edge"><title>Node4&#45;&gt;Node5</title>
<path fill="none" stroke="midnightblue" d="M2181.71,-210.036C2220.74,-198.296 2271.12,-183.138 2308.02,-172.036"/>
<polygon fill="midnightblue" stroke="midnightblue" points="2180.62,-206.71 2172.05,-212.943 2182.63,-213.413 2180.62,-206.71"/>
</g>
<!-- Node6 -->
<g id="node6" class="node"><title>Node6</title>
<g id="a_node6"><a xlink:href="../../d9/d33/classslogo_1_1_u_i_1_1_main.html#a15b7f2e399ee24d160550993ab737e73" target="_top" xlink:title="slogo.UI.Main.start">
<polygon fill="white" stroke="black" points="2494,-151.5 2494,-170.5 2600,-170.5 2600,-151.5 2494,-151.5"/>
<text text-anchor="middle" x="2547" y="-158.5" font-family="Helvetica,sans-Serif" font-size="10.00">slogo.UI.Main.start</text>
</a>
</g>
</g>
<!-- Node5&#45;&gt;Node6 -->
<g id="edge5" class="edge"><title>Node5&#45;&gt;Node6</title>
<path fill="none" stroke="midnightblue" d="M2467.8,-159.318C2476.76,-159.511 2485.53,-159.7 2493.76,-159.877"/>
<polygon fill="midnightblue" stroke="midnightblue" points="2467.7,-155.815 2457.63,-159.1 2467.55,-162.814 2467.7,-155.815"/>
</g>
<!-- Node7 -->
<g id="node7" class="node"><title>Node7</title>
<g id="a_node7"><a xlink:href="../../db/d19/classslogo_1_1_u_i_1_1_module_creation_helper.html#a3be12a7cc2b8a219db1e296211a2cb88" target="_top" xlink:title="slogo.UI.ModuleCreationHelper.activate\lExtraWorkspaceButton">
<polygon fill="white" stroke="black" points="2636.5,-152 2636.5,-182 2841.5,-182 2841.5,-152 2636.5,-152"/>
<text text-anchor="start" x="2644.5" y="-170" font-family="Helvetica,sans-Serif" font-size="10.00">slogo.UI.ModuleCreationHelper.activate</text>
<text text-anchor="middle" x="2739" y="-159" font-family="Helvetica,sans-Serif" font-size="10.00">ExtraWorkspaceButton</text>
</a>
</g>
</g>
<!-- Node6&#45;&gt;Node7 -->
<g id="edge6" class="edge"><title>Node6&#45;&gt;Node7</title>
<path fill="none" stroke="midnightblue" d="M2610.22,-162.965C2618.63,-163.23 2627.44,-163.509 2636.32,-163.789"/>
<polygon fill="midnightblue" stroke="midnightblue" points="2610.28,-159.465 2600.17,-162.647 2610.05,-166.461 2610.28,-159.465"/>
</g>
<!-- Node8 -->
<g id="node8" class="node"><title>Node8</title>
<g id="a_node8"><a xlink:href="../../db/d19/classslogo_1_1_u_i_1_1_module_creation_helper.html#a702c1ebe24d2857a10c666eb1fcc315d" target="_top" xlink:title="slogo.UI.ModuleCreationHelper.create\lExtraWorkspaceButton">
<polygon fill="white" stroke="black" points="2878.5,-175 2878.5,-205 3075.5,-205 3075.5,-175 2878.5,-175"/>
<text text-anchor="start" x="2886.5" y="-193" font-family="Helvetica,sans-Serif" font-size="10.00">slogo.UI.ModuleCreationHelper.create</text>
<text text-anchor="middle" x="2977" y="-182" font-family="Helvetica,sans-Serif" font-size="10.00">ExtraWorkspaceButton</text>
</a>
</g>
</g>
<!-- Node7&#45;&gt;Node8 -->
<g id="edge7" class="edge"><title>Node7&#45;&gt;Node8</title>
<path fill="none" stroke="midnightblue" d="M2851.77,-177.892C2860.62,-178.755 2869.52,-179.623 2878.27,-180.476"/>
<polygon fill="midnightblue" stroke="midnightblue" points="2852.09,-174.408 2841.8,-176.921 2851.41,-181.375 2852.09,-174.408"/>
</g>
<!-- Node8&#45;&gt;Node4 -->
<g id="edge8" class="edge"><title>Node8&#45;&gt;Node4</title>
<path fill="none" stroke="midnightblue" d="M2868.34,-194.79C2700.9,-202.241 2380.6,-216.493 2219.55,-223.659"/>
<polygon fill="midnightblue" stroke="midnightblue" points="2868.58,-198.283 2878.41,-194.342 2868.27,-191.29 2868.58,-198.283"/>
</g>
<!-- Node10 -->
<g id="node10" class="node"><title>Node10</title>
<g id="a_node10"><a xlink:href="../../d9/d7e/classslogo_1_1_u_i_1_1_method_runner.html#a5e01d88aabd60df2be9ebb5b874837b1" target="_top" xlink:title="slogo.UI.MethodRunner.set\lPenAttributes">
<polygon fill="white" stroke="black" points="364,-268 364,-298 508,-298 508,-268 364,-268"/>
<text text-anchor="start" x="372" y="-286" font-family="Helvetica,sans-Serif" font-size="10.00">slogo.UI.MethodRunner.set</text>
<text text-anchor="middle" x="436" y="-275" font-family="Helvetica,sans-Serif" font-size="10.00">PenAttributes</text>
</a>
</g>
</g>
<!-- Node9&#45;&gt;Node10 -->
<g id="edge10" class="edge"><title>Node9&#45;&gt;Node10</title>
<path fill="none" stroke="midnightblue" d="M338.17,-294.968C346.789,-293.903 355.506,-292.825 363.995,-291.776"/>
<polygon fill="midnightblue" stroke="midnightblue" points="337.613,-291.51 328.118,-296.21 338.472,-298.457 337.613,-291.51"/>
</g>
<!-- Node11 -->
<g id="node11" class="node"><title>Node11</title>
<g id="a_node11"><a xlink:href="../../d9/d7e/classslogo_1_1_u_i_1_1_method_runner.html#a5fe4a6310ba1b0851d7d30a440511324" target="_top" xlink:title="slogo.UI.MethodRunner.change\lTurtle">
<polygon fill="white" stroke="black" points="544,-263 544,-293 708,-293 708,-263 544,-263"/>
<text text-anchor="start" x="552" y="-281" font-family="Helvetica,sans-Serif" font-size="10.00">slogo.UI.MethodRunner.change</text>
<text text-anchor="middle" x="626" y="-270" font-family="Helvetica,sans-Serif" font-size="10.00">Turtle</text>
</a>
</g>
</g>
<!-- Node10&#45;&gt;Node11 -->
<g id="edge11" class="edge"><title>Node10&#45;&gt;Node11</title>
<path fill="none" stroke="midnightblue" d="M518.28,-280.838C526.719,-280.614 535.298,-280.386 543.736,-280.161"/>
<polygon fill="midnightblue" stroke="midnightblue" points="517.978,-277.345 508.075,-281.11 518.164,-284.343 517.978,-277.345"/>
</g>
<!-- Node12 -->
<g id="node12" class="node"><title>Node12</title>
<g id="a_node12"><a xlink:href="../../df/d2d/classslogo_1_1_view.html#accc79c56511a72090ff8a4d414b8d1f5" target="_top" xlink:title="slogo.View.executeTurtle\lCommands">
<polygon fill="white" stroke="black" points="744.5,-157 744.5,-187 877.5,-187 877.5,-157 744.5,-157"/>
<text text-anchor="start" x="752.5" y="-175" font-family="Helvetica,sans-Serif" font-size="10.00">slogo.View.executeTurtle</text>
<text text-anchor="middle" x="811" y="-164" font-family="Helvetica,sans-Serif" font-size="10.00">Commands</text>
</a>
</g>
</g>
<!-- Node11&#45;&gt;Node12 -->
<g id="edge12" class="edge"><title>Node11&#45;&gt;Node12</title>
<path fill="none" stroke="midnightblue" d="M662.282,-257.563C697.848,-236.962 751.917,-205.644 783.829,-187.159"/>
<polygon fill="midnightblue" stroke="midnightblue" points="660.118,-254.772 653.219,-262.813 663.627,-260.829 660.118,-254.772"/>
</g>
<!-- Node13 -->
<g id="node13" class="node"><title>Node13</title>
<g id="a_node13"><a xlink:href="../../df/d2d/classslogo_1_1_view.html#aa90e5d95d422b58b7f4b7f8a049defe1" target="_top" xlink:title="slogo.View.executeCommand">
<polygon fill="white" stroke="black" points="914,-159.5 914,-178.5 1072,-178.5 1072,-159.5 914,-159.5"/>
<text text-anchor="middle" x="993" y="-166.5" font-family="Helvetica,sans-Serif" font-size="10.00">slogo.View.executeCommand</text>
</a>
</g>
</g>
<!-- Node12&#45;&gt;Node13 -->
<g id="edge13" class="edge"><title>Node12&#45;&gt;Node13</title>
<path fill="none" stroke="midnightblue" d="M887.784,-170.737C896.42,-170.593 905.235,-170.446 913.901,-170.302"/>
<polygon fill="midnightblue" stroke="midnightblue" points="887.688,-167.238 877.748,-170.904 887.805,-174.237 887.688,-167.238"/>
</g>
<!-- Node14 -->
<g id="node14" class="node"><title>Node14</title>
<g id="a_node14"><a xlink:href="../../df/d2d/classslogo_1_1_view.html#aee563f6a0b15ac6668e4dcbdad40c73c" target="_top" xlink:title="slogo.View.sendCommandTo\lBackend">
<polygon fill="white" stroke="black" points="1114,-235 1114,-265 1266,-265 1266,-235 1114,-235"/>
<text text-anchor="start" x="1122" y="-253" font-family="Helvetica,sans-Serif" font-size="10.00">slogo.View.sendCommandTo</text>
<text text-anchor="middle" x="1190" y="-242" font-family="Helvetica,sans-Serif" font-size="10.00">Backend</text>
</a>
</g>
</g>
<!-- Node13&#45;&gt;Node14 -->
<g id="edge14" class="edge"><title>Node13&#45;&gt;Node14</title>
<path fill="none" stroke="midnightblue" d="M1026.38,-182.448C1061.17,-196.903 1116.36,-219.826 1152.63,-234.892"/>
<polygon fill="midnightblue" stroke="midnightblue" points="1027.71,-179.214 1017.13,-178.61 1025.03,-185.678 1027.71,-179.214"/>
</g>
<!-- Node27 -->
<g id="node27" class="node"><title>Node27</title>
<g id="a_node27"><a xlink:href="../../df/d2d/classslogo_1_1_view.html#a4c3084a198acf85804800d70eff9ee51" target="_top" xlink:title="slogo.View.stepIntoCommand">
<polygon fill="white" stroke="black" points="1111,-158.5 1111,-177.5 1269,-177.5 1269,-158.5 1111,-158.5"/>
<text text-anchor="middle" x="1190" y="-165.5" font-family="Helvetica,sans-Serif" font-size="10.00">slogo.View.stepIntoCommand</text>
</a>
</g>
</g>
<!-- Node13&#45;&gt;Node27 -->
<g id="edge35" class="edge"><title>Node13&#45;&gt;Node27</title>
<path fill="none" stroke="midnightblue" d="M1082.4,-168.547C1091.87,-168.498 1101.45,-168.449 1110.79,-168.401"/>
<polygon fill="midnightblue" stroke="midnightblue" points="1082.17,-165.048 1072.19,-168.599 1082.21,-172.048 1082.17,-165.048"/>
</g>
<!-- Node31 -->
<g id="node31" class="node"><title>Node31</title>
<g id="a_node31"><a xlink:href="../../df/d2d/classslogo_1_1_view.html#ac8b7f574c679e744a430f1649dc55e68" target="_top" xlink:title="slogo.View.stepOverCommand">
<polygon fill="white" stroke="black" points="1108.5,-44.5 1108.5,-63.5 1271.5,-63.5 1271.5,-44.5 1108.5,-44.5"/>
<text text-anchor="middle" x="1190" y="-51.5" font-family="Helvetica,sans-Serif" font-size="10.00">slogo.View.stepOverCommand</text>
</a>
</g>
</g>
<!-- Node13&#45;&gt;Node31 -->
<g id="edge40" class="edge"><title>Node13&#45;&gt;Node31</title>
<path fill="none" stroke="midnightblue" d="M1019.03,-154.242C1059.56,-130.335 1138.49,-83.7902 1172.62,-63.6606"/>
<polygon fill="midnightblue" stroke="midnightblue" points="1017.13,-151.298 1010.29,-159.393 1020.68,-157.328 1017.13,-151.298"/>
</g>
<!-- Node14&#45;&gt;Node2 -->
<g id="edge15" class="edge"><title>Node14&#45;&gt;Node2</title>
<path fill="none" stroke="midnightblue" d="M1211.54,-272.733C1228.42,-291.791 1252.62,-319.986 1272,-346 1289.45,-369.43 1284.15,-384.125 1308,-401 1313.51,-404.897 1319.55,-408.189 1325.87,-410.971"/>
<polygon fill="midnightblue" stroke="midnightblue" points="1214.05,-270.294 1204.78,-265.157 1208.82,-274.952 1214.05,-270.294"/>
</g>
<!-- Node15 -->
<g id="node15" class="node"><title>Node15</title>
<g id="a_node15"><a xlink:href="../../db/d19/classslogo_1_1_u_i_1_1_module_creation_helper.html#aa70b0ad9e90e62509149bfd2ef2ba209" target="_top" xlink:title="slogo.UI.ModuleCreationHelper.activate\lKeyEvents">
<polygon fill="white" stroke="black" points="2018.5,-93 2018.5,-123 2223.5,-123 2223.5,-93 2018.5,-93"/>
<text text-anchor="start" x="2026.5" y="-111" font-family="Helvetica,sans-Serif" font-size="10.00">slogo.UI.ModuleCreationHelper.activate</text>
<text text-anchor="middle" x="2121" y="-100" font-family="Helvetica,sans-Serif" font-size="10.00">KeyEvents</text>
</a>
</g>
</g>
<!-- Node14&#45;&gt;Node15 -->
<g id="edge16" class="edge"><title>Node14&#45;&gt;Node15</title>
<path fill="none" stroke="midnightblue" d="M1223.36,-229.045C1239.2,-217.797 1257.84,-202.975 1272,-187 1292.62,-163.725 1281.12,-142.638 1308,-127 1367.84,-92.1894 1813.68,-99.6044 2018.11,-104.947"/>
<polygon fill="midnightblue" stroke="midnightblue" points="1221.12,-226.337 1214.9,-234.911 1225.11,-232.09 1221.12,-226.337"/>
</g>
<!-- Node16 -->
<g id="node16" class="node"><title>Node16</title>
<g id="a_node16"><a xlink:href="../../db/d19/classslogo_1_1_u_i_1_1_module_creation_helper.html#a2e841243ec3ca474e8822102343acc88" target="_top" xlink:title="slogo.UI.ModuleCreationHelper.activate\lNewTurtleButton">
<polygon fill="white" stroke="black" points="1308.5,-235 1308.5,-265 1513.5,-265 1513.5,-235 1308.5,-235"/>
<text text-anchor="start" x="1316.5" y="-253" font-family="Helvetica,sans-Serif" font-size="10.00">slogo.UI.ModuleCreationHelper.activate</text>
<text text-anchor="middle" x="1411" y="-242" font-family="Helvetica,sans-Serif" font-size="10.00">NewTurtleButton</text>
</a>
</g>
</g>
<!-- Node14&#45;&gt;Node16 -->
<g id="edge18" class="edge"><title>Node14&#45;&gt;Node16</title>
<path fill="none" stroke="midnightblue" d="M1276.08,-250C1286.65,-250 1297.54,-250 1308.33,-250"/>
<polygon fill="midnightblue" stroke="midnightblue" points="1276.06,-246.5 1266.06,-250 1276.06,-253.5 1276.06,-246.5"/>
</g>
<!-- Node18 -->
<g id="node18" class="node"><title>Node18</title>
<g id="a_node18"><a xlink:href="../../db/d19/classslogo_1_1_u_i_1_1_module_creation_helper.html#a9b1f07ab673191067907a059b1b0c524" target="_top" xlink:title="slogo.UI.ModuleCreationHelper.activate\lPlayButton">
<polygon fill="white" stroke="black" points="1308.5,-186 1308.5,-216 1513.5,-216 1513.5,-186 1308.5,-186"/>
<text text-anchor="start" x="1316.5" y="-204" font-family="Helvetica,sans-Serif" font-size="10.00">slogo.UI.ModuleCreationHelper.activate</text>
<text text-anchor="middle" x="1411" y="-193" font-family="Helvetica,sans-Serif" font-size="10.00">PlayButton</text>
</a>
</g>
</g>
<!-- Node14&#45;&gt;Node18 -->
<g id="edge21" class="edge"><title>Node14&#45;&gt;Node18</title>
<path fill="none" stroke="midnightblue" d="M1268.13,-232.742C1292.54,-227.282 1319.29,-221.295 1342.93,-216.006"/>
<polygon fill="midnightblue" stroke="midnightblue" points="1267.19,-229.366 1258.2,-234.965 1268.72,-236.197 1267.19,-229.366"/>
</g>
<!-- Node21 -->
<g id="node21" class="node"><title>Node21</title>
<g id="a_node21"><a xlink:href="../../db/d19/classslogo_1_1_u_i_1_1_module_creation_helper.html#a3a38d485562cb17591ec3fd07cffc18a" target="_top" xlink:title="slogo.UI.ModuleCreationHelper.activate\lTurtleCanvas">
<polygon fill="white" stroke="black" points="1308.5,-137 1308.5,-167 1513.5,-167 1513.5,-137 1308.5,-137"/>
<text text-anchor="start" x="1316.5" y="-155" font-family="Helvetica,sans-Serif" font-size="10.00">slogo.UI.ModuleCreationHelper.activate</text>
<text text-anchor="middle" x="1411" y="-144" font-family="Helvetica,sans-Serif" font-size="10.00">TurtleCanvas</text>
</a>
</g>
</g>
<!-- Node14&#45;&gt;Node21 -->
<g id="edge25" class="edge"><title>Node14&#45;&gt;Node21</title>
<path fill="none" stroke="midnightblue" d="M1218.76,-228.683C1241.59,-212.107 1275.38,-189.696 1308,-176 1316.14,-172.584 1324.85,-169.601 1333.63,-167.01"/>
<polygon fill="midnightblue" stroke="midnightblue" points="1216.55,-225.968 1210.57,-234.72 1220.7,-231.602 1216.55,-225.968"/>
</g>
<!-- Node23 -->
<g id="node23" class="node"><title>Node23</title>
<g id="a_node23"><a xlink:href="../../d1/d5f/classslogo_1_1_u_i_1_1_path_color_selector.html#ad3d9c82a0904c97edcec7cf67b85bd7b" target="_top" xlink:title="slogo.UI.PathColorSelector.create">
<polygon fill="white" stroke="black" points="1323,-372.5 1323,-391.5 1499,-391.5 1499,-372.5 1323,-372.5"/>
<text text-anchor="middle" x="1411" y="-379.5" font-family="Helvetica,sans-Serif" font-size="10.00">slogo.UI.PathColorSelector.create</text>
</a>
</g>
</g>
<!-- Node14&#45;&gt;Node23 -->
<g id="edge28" class="edge"><title>Node14&#45;&gt;Node23</title>
<path fill="none" stroke="midnightblue" d="M1208.44,-273.306C1229.18,-299.247 1266.29,-340.36 1308,-362 1316.41,-366.363 1325.66,-369.778 1335.05,-372.449"/>
<polygon fill="midnightblue" stroke="midnightblue" points="1210.97,-270.858 1202.05,-265.14 1205.45,-275.172 1210.97,-270.858"/>
</g>
<!-- Node25 -->
<g id="node25" class="node"><title>Node25</title>
<g id="a_node25"><a xlink:href="../../d4/d8d/classslogo_1_1_u_i_1_1_background_color_selector.html#ad75ba4ce104e071811d0fe039a4e839f" target="_top" xlink:title="slogo.UI.BackgroundColor\lSelector.create">
<polygon fill="white" stroke="black" points="1341,-323 1341,-353 1481,-353 1481,-323 1341,-323"/>
<text text-anchor="start" x="1349" y="-341" font-family="Helvetica,sans-Serif" font-size="10.00">slogo.UI.BackgroundColor</text>
<text text-anchor="middle" x="1411" y="-330" font-family="Helvetica,sans-Serif" font-size="10.00">Selector.create</text>
</a>
</g>
</g>
<!-- Node14&#45;&gt;Node25 -->
<g id="edge31" class="edge"><title>Node14&#45;&gt;Node25</title>
<path fill="none" stroke="midnightblue" d="M1223.42,-270.354C1246.33,-284.006 1278.16,-301.522 1308,-313 1318.47,-317.025 1329.79,-320.559 1340.96,-323.605"/>
<polygon fill="midnightblue" stroke="midnightblue" points="1225.16,-267.317 1214.79,-265.145 1221.54,-273.31 1225.16,-267.317"/>
</g>
<!-- Node26 -->
<g id="node26" class="node"><title>Node26</title>
<g id="a_node26"><a xlink:href="../../dd/da7/classslogo_1_1_u_i_1_1_turtle_image_selector.html#a3f268d9196ffebcbb5dc322d2897a9fe" target="_top" xlink:title="slogo.UI.TurtleImageSelector.create">
<polygon fill="white" stroke="black" points="1318,-284.5 1318,-303.5 1504,-303.5 1504,-284.5 1318,-284.5"/>
<text text-anchor="middle" x="1411" y="-291.5" font-family="Helvetica,sans-Serif" font-size="10.00">slogo.UI.TurtleImageSelector.create</text>
</a>
</g>
</g>
<!-- Node14&#45;&gt;Node26 -->
<g id="edge33" class="edge"><title>Node14&#45;&gt;Node26</title>
<path fill="none" stroke="midnightblue" d="M1273.74,-267.065C1285.24,-269.411 1296.91,-271.776 1308,-274 1325.25,-277.46 1344.16,-281.186 1360.95,-284.473"/>
<polygon fill="midnightblue" stroke="midnightblue" points="1274.19,-263.585 1263.69,-265.013 1272.79,-270.443 1274.19,-263.585"/>
</g>
<!-- Node15&#45;&gt;Node5 -->
<g id="edge17" class="edge"><title>Node15&#45;&gt;Node5</title>
<path fill="none" stroke="midnightblue" d="M2204.42,-125.113C2230.9,-130.611 2260.03,-136.658 2285.73,-141.994"/>
<polygon fill="midnightblue" stroke="midnightblue" points="2204.91,-121.641 2194.41,-123.035 2203.49,-128.495 2204.91,-121.641"/>
</g>
<!-- Node17 -->
<g id="node17" class="node"><title>Node17</title>
<g id="a_node17"><a xlink:href="../../db/d19/classslogo_1_1_u_i_1_1_module_creation_helper.html#a07f5483df317cdf80e8ea2dda5699afa" target="_top" xlink:title="slogo.UI.ModuleCreationHelper.create\lNewTurtleButton">
<polygon fill="white" stroke="black" points="1784.5,-235 1784.5,-265 1981.5,-265 1981.5,-235 1784.5,-235"/>
<text text-anchor="start" x="1792.5" y="-253" font-family="Helvetica,sans-Serif" font-size="10.00">slogo.UI.ModuleCreationHelper.create</text>
<text text-anchor="middle" x="1883" y="-242" font-family="Helvetica,sans-Serif" font-size="10.00">NewTurtleButton</text>
</a>
</g>
</g>
<!-- Node16&#45;&gt;Node17 -->
<g id="edge19" class="edge"><title>Node16&#45;&gt;Node17</title>
<path fill="none" stroke="midnightblue" d="M1523.71,-250C1602.92,-250 1708.2,-250 1784.12,-250"/>
<polygon fill="midnightblue" stroke="midnightblue" points="1523.69,-246.5 1513.69,-250 1523.69,-253.5 1523.69,-246.5"/>
</g>
<!-- Node17&#45;&gt;Node4 -->
<g id="edge20" class="edge"><title>Node17&#45;&gt;Node4</title>
<path fill="none" stroke="midnightblue" d="M1991.83,-239.948C2002.01,-238.999 2012.3,-238.04 2022.38,-237.1"/>
<polygon fill="midnightblue" stroke="midnightblue" points="1991.33,-236.48 1981.69,-240.893 1991.98,-243.45 1991.33,-236.48"/>
</g>
<!-- Node19 -->
<g id="node19" class="node"><title>Node19</title>
<g id="a_node19"><a xlink:href="../../db/d19/classslogo_1_1_u_i_1_1_module_creation_helper.html#a9b3fb38a55b3b7812b4f793afa7a974f" target="_top" xlink:title="slogo.UI.ModuleCreationHelper.create\lPlayButton">
<polygon fill="white" stroke="black" points="1550.5,-186 1550.5,-216 1747.5,-216 1747.5,-186 1550.5,-186"/>
<text text-anchor="start" x="1558.5" y="-204" font-family="Helvetica,sans-Serif" font-size="10.00">slogo.UI.ModuleCreationHelper.create</text>
<text text-anchor="middle" x="1649" y="-193" font-family="Helvetica,sans-Serif" font-size="10.00">PlayButton</text>
</a>
</g>
</g>
<!-- Node18&#45;&gt;Node19 -->
<g id="edge22" class="edge"><title>Node18&#45;&gt;Node19</title>
<path fill="none" stroke="midnightblue" d="M1524.05,-201C1532.81,-201 1541.62,-201 1550.27,-201"/>
<polygon fill="midnightblue" stroke="midnightblue" points="1523.8,-197.5 1513.8,-201 1523.8,-204.5 1523.8,-197.5"/>
</g>
<!-- Node20 -->
<g id="node20" class="node"><title>Node20</title>
<g id="a_node20"><a xlink:href="../../db/d19/classslogo_1_1_u_i_1_1_module_creation_helper.html#ae1e60d37509c2e5eddcb2a6e70b4f650" target="_top" xlink:title="slogo.UI.ModuleCreationHelper.create\lFirstRowButtons">
<polygon fill="white" stroke="black" points="1784.5,-186 1784.5,-216 1981.5,-216 1981.5,-186 1784.5,-186"/>
<text text-anchor="start" x="1792.5" y="-204" font-family="Helvetica,sans-Serif" font-size="10.00">slogo.UI.ModuleCreationHelper.create</text>
<text text-anchor="middle" x="1883" y="-193" font-family="Helvetica,sans-Serif" font-size="10.00">FirstRowButtons</text>
</a>
</g>
</g>
<!-- Node19&#45;&gt;Node20 -->
<g id="edge23" class="edge"><title>Node19&#45;&gt;Node20</title>
<path fill="none" stroke="midnightblue" d="M1757.72,-201C1766.62,-201 1775.58,-201 1784.4,-201"/>
<polygon fill="midnightblue" stroke="midnightblue" points="1757.72,-197.5 1747.72,-201 1757.72,-204.5 1757.72,-197.5"/>
</g>
<!-- Node20&#45;&gt;Node4 -->
<g id="edge24" class="edge"><title>Node20&#45;&gt;Node4</title>
<path fill="none" stroke="midnightblue" d="M1991.83,-213.337C2002.01,-214.502 2012.3,-215.678 2022.38,-216.832"/>
<polygon fill="midnightblue" stroke="midnightblue" points="1992.03,-209.836 1981.69,-212.177 1991.23,-216.791 1992.03,-209.836"/>
</g>
<!-- Node22 -->
<g id="node22" class="node"><title>Node22</title>
<g id="a_node22"><a xlink:href="../../db/d19/classslogo_1_1_u_i_1_1_module_creation_helper.html#a803bac6b55bde712b21f2face1eeef81" target="_top" xlink:title="slogo.UI.ModuleCreationHelper.create\lTurtleCanvas">
<polygon fill="white" stroke="black" points="2022.5,-142 2022.5,-172 2219.5,-172 2219.5,-142 2022.5,-142"/>
<text text-anchor="start" x="2030.5" y="-160" font-family="Helvetica,sans-Serif" font-size="10.00">slogo.UI.ModuleCreationHelper.create</text>
<text text-anchor="middle" x="2121" y="-149" font-family="Helvetica,sans-Serif" font-size="10.00">TurtleCanvas</text>
</a>
</g>
</g>
<!-- Node21&#45;&gt;Node22 -->
<g id="edge26" class="edge"><title>Node21&#45;&gt;Node22</title>
<path fill="none" stroke="midnightblue" d="M1523.95,-152.791C1661.26,-153.76 1891.81,-155.388 2022.28,-156.31"/>
<polygon fill="midnightblue" stroke="midnightblue" points="1523.84,-149.29 1513.82,-152.719 1523.79,-156.29 1523.84,-149.29"/>
</g>
<!-- Node22&#45;&gt;Node5 -->
<g id="edge27" class="edge"><title>Node22&#45;&gt;Node5</title>
<path fill="none" stroke="midnightblue" d="M2229.83,-157C2240.01,-157 2250.3,-157 2260.38,-157"/>
<polygon fill="midnightblue" stroke="midnightblue" points="2229.69,-153.5 2219.69,-157 2229.69,-160.5 2229.69,-153.5"/>
</g>
<!-- Node24 -->
<g id="node24" class="node"><title>Node24</title>
<g id="a_node24"><a xlink:href="../../db/d19/classslogo_1_1_u_i_1_1_module_creation_helper.html#af7f2919454fdbf6e9d7d912e99634857" target="_top" xlink:title="slogo.UI.ModuleCreationHelper.create\lSelectors">
<polygon fill="white" stroke="black" points="1550.5,-279 1550.5,-309 1747.5,-309 1747.5,-279 1550.5,-279"/>
<text text-anchor="start" x="1558.5" y="-297" font-family="Helvetica,sans-Serif" font-size="10.00">slogo.UI.ModuleCreationHelper.create</text>
<text text-anchor="middle" x="1649" y="-286" font-family="Helvetica,sans-Serif" font-size="10.00">Selectors</text>
</a>
</g>
</g>
<!-- Node23&#45;&gt;Node24 -->
<g id="edge29" class="edge"><title>Node23&#45;&gt;Node24</title>
<path fill="none" stroke="midnightblue" d="M1497.98,-369.259C1503.54,-367.189 1508.94,-364.786 1514,-362 1534.38,-350.785 1530.22,-336.254 1550,-324 1559.83,-317.908 1570.99,-312.976 1582.16,-309.007"/>
<polygon fill="midnightblue" stroke="midnightblue" points="1496.86,-365.944 1488.49,-372.44 1499.08,-372.581 1496.86,-365.944"/>
</g>
<!-- Node24&#45;&gt;Node4 -->
<g id="edge30" class="edge"><title>Node24&#45;&gt;Node4</title>
<path fill="none" stroke="midnightblue" d="M1758.13,-294.598C1823.47,-293.204 1908.14,-288.278 1982,-274 2017.33,-267.17 2056.09,-253.69 2083.51,-243.081"/>
<polygon fill="midnightblue" stroke="midnightblue" points="1757.74,-291.104 1747.81,-294.792 1757.87,-298.103 1757.74,-291.104"/>
</g>
<!-- Node25&#45;&gt;Node24 -->
<g id="edge32" class="edge"><title>Node25&#45;&gt;Node24</title>
<path fill="none" stroke="midnightblue" d="M1491.16,-323.241C1515.62,-318.682 1542.57,-313.656 1567.14,-309.076"/>
<polygon fill="midnightblue" stroke="midnightblue" points="1490.4,-319.822 1481.21,-325.096 1491.69,-326.704 1490.4,-319.822"/>
</g>
<!-- Node26&#45;&gt;Node24 -->
<g id="edge34" class="edge"><title>Node26&#45;&gt;Node24</title>
<path fill="none" stroke="midnightblue" d="M1514.26,-294C1526.24,-294 1538.44,-294 1550.35,-294"/>
<polygon fill="midnightblue" stroke="midnightblue" points="1514.26,-290.5 1504.26,-294 1514.26,-297.5 1514.26,-290.5"/>
</g>
<!-- Node28 -->
<g id="node28" class="node"><title>Node28</title>
<g id="a_node28"><a xlink:href="../../db/d19/classslogo_1_1_u_i_1_1_module_creation_helper.html#a9fd730f7c1860d34bf4ac46c3828bd59" target="_top" xlink:title="slogo.UI.ModuleCreationHelper.activate\lStepIntoButton">
<polygon fill="white" stroke="black" points="1308.5,-49 1308.5,-79 1513.5,-79 1513.5,-49 1308.5,-49"/>
<text text-anchor="start" x="1316.5" y="-67" font-family="Helvetica,sans-Serif" font-size="10.00">slogo.UI.ModuleCreationHelper.activate</text>
<text text-anchor="middle" x="1411" y="-56" font-family="Helvetica,sans-Serif" font-size="10.00">StepIntoButton</text>
</a>
</g>
</g>
<!-- Node27&#45;&gt;Node28 -->
<g id="edge36" class="edge"><title>Node27&#45;&gt;Node28</title>
<path fill="none" stroke="midnightblue" d="M1211.84,-152.29C1234.49,-135.837 1272.24,-110.185 1308,-94 1320.78,-88.2157 1334.96,-83.2218 1348.59,-79.0588"/>
<polygon fill="midnightblue" stroke="midnightblue" points="1209.64,-149.565 1203.66,-158.312 1213.79,-155.202 1209.64,-149.565"/>
</g>
<!-- Node29 -->
<g id="node29" class="node"><title>Node29</title>
<g id="a_node29"><a xlink:href="../../db/d19/classslogo_1_1_u_i_1_1_module_creation_helper.html#a4a6f1f009507c25be8c7c28cbba35f3b" target="_top" xlink:title="slogo.UI.ModuleCreationHelper.create\lDebugStepIntoButton">
<polygon fill="white" stroke="black" points="1550.5,-49 1550.5,-79 1747.5,-79 1747.5,-49 1550.5,-49"/>
<text text-anchor="start" x="1558.5" y="-67" font-family="Helvetica,sans-Serif" font-size="10.00">slogo.UI.ModuleCreationHelper.create</text>
<text text-anchor="middle" x="1649" y="-56" font-family="Helvetica,sans-Serif" font-size="10.00">DebugStepIntoButton</text>
</a>
</g>
</g>
<!-- Node28&#45;&gt;Node29 -->
<g id="edge37" class="edge"><title>Node28&#45;&gt;Node29</title>
<path fill="none" stroke="midnightblue" d="M1524.05,-64C1532.81,-64 1541.62,-64 1550.27,-64"/>
<polygon fill="midnightblue" stroke="midnightblue" points="1523.8,-60.5001 1513.8,-64 1523.8,-67.5001 1523.8,-60.5001"/>
</g>
<!-- Node30 -->
<g id="node30" class="node"><title>Node30</title>
<g id="a_node30"><a xlink:href="../../db/d19/classslogo_1_1_u_i_1_1_module_creation_helper.html#a975af4ea47dc85df72215bdf1a0d20ce" target="_top" xlink:title="slogo.UI.ModuleCreationHelper.create\lDebugModules">
<polygon fill="white" stroke="black" points="1784.5,-49 1784.5,-79 1981.5,-79 1981.5,-49 1784.5,-49"/>
<text text-anchor="start" x="1792.5" y="-67" font-family="Helvetica,sans-Serif" font-size="10.00">slogo.UI.ModuleCreationHelper.create</text>
<text text-anchor="middle" x="1883" y="-56" font-family="Helvetica,sans-Serif" font-size="10.00">DebugModules</text>
</a>
</g>
</g>
<!-- Node29&#45;&gt;Node30 -->
<g id="edge38" class="edge"><title>Node29&#45;&gt;Node30</title>
<path fill="none" stroke="midnightblue" d="M1757.72,-64C1766.62,-64 1775.58,-64 1784.4,-64"/>
<polygon fill="midnightblue" stroke="midnightblue" points="1757.72,-60.5001 1747.72,-64 1757.72,-67.5001 1757.72,-60.5001"/>
</g>
<!-- Node30&#45;&gt;Node5 -->
<g id="edge39" class="edge"><title>Node30&#45;&gt;Node5</title>
<path fill="none" stroke="midnightblue" d="M1991.83,-57.8832C2059.72,-56.9816 2148.48,-61.2678 2224,-83 2267.42,-95.4937 2312.26,-124.027 2337.49,-141.787"/>
<polygon fill="midnightblue" stroke="midnightblue" points="1991.48,-54.3886 1981.54,-58.0614 1991.6,-61.3875 1991.48,-54.3886"/>
</g>
<!-- Node32 -->
<g id="node32" class="node"><title>Node32</title>
<g id="a_node32"><a xlink:href="../../db/d19/classslogo_1_1_u_i_1_1_module_creation_helper.html#a0fed0bb32bf2643d6fd5c24d82e8e18e" target="_top" xlink:title="slogo.UI.ModuleCreationHelper.activate\lStepOverButton">
<polygon fill="white" stroke="black" points="1308.5,-0 1308.5,-30 1513.5,-30 1513.5,-0 1308.5,-0"/>
<text text-anchor="start" x="1316.5" y="-18" font-family="Helvetica,sans-Serif" font-size="10.00">slogo.UI.ModuleCreationHelper.activate</text>
<text text-anchor="middle" x="1411" y="-7" font-family="Helvetica,sans-Serif" font-size="10.00">StepOverButton</text>
</a>
</g>
</g>
<!-- Node31&#45;&gt;Node32 -->
<g id="edge41" class="edge"><title>Node31&#45;&gt;Node32</title>
<path fill="none" stroke="midnightblue" d="M1254.51,-42.69C1276.64,-38.7487 1301.84,-34.2618 1325.41,-30.0645"/>
<polygon fill="midnightblue" stroke="midnightblue" points="1253.8,-39.2604 1244.57,-44.4595 1255.03,-46.152 1253.8,-39.2604"/>
</g>
<!-- Node33 -->
<g id="node33" class="node"><title>Node33</title>
<g id="a_node33"><a xlink:href="../../db/d19/classslogo_1_1_u_i_1_1_module_creation_helper.html#aa1e7dc2b509360583790fba0d3819c8d" target="_top" xlink:title="slogo.UI.ModuleCreationHelper.create\lDebugStepOverButton">
<polygon fill="white" stroke="black" points="1550.5,-0 1550.5,-30 1747.5,-30 1747.5,-0 1550.5,-0"/>
<text text-anchor="start" x="1558.5" y="-18" font-family="Helvetica,sans-Serif" font-size="10.00">slogo.UI.ModuleCreationHelper.create</text>
<text text-anchor="middle" x="1649" y="-7" font-family="Helvetica,sans-Serif" font-size="10.00">DebugStepOverButton</text>
</a>
</g>
</g>
<!-- Node32&#45;&gt;Node33 -->
<g id="edge42" class="edge"><title>Node32&#45;&gt;Node33</title>
<path fill="none" stroke="midnightblue" d="M1524.05,-15C1532.81,-15 1541.62,-15 1550.27,-15"/>
<polygon fill="midnightblue" stroke="midnightblue" points="1523.8,-11.5001 1513.8,-15 1523.8,-18.5001 1523.8,-11.5001"/>
</g>
<!-- Node33&#45;&gt;Node30 -->
<g id="edge43" class="edge"><title>Node33&#45;&gt;Node30</title>
<path fill="none" stroke="midnightblue" d="M1731.02,-32.1127C1757.06,-37.6115 1785.69,-43.658 1810.95,-48.9938"/>
<polygon fill="midnightblue" stroke="midnightblue" points="1731.69,-28.6767 1721.18,-30.0346 1730.25,-35.5256 1731.69,-28.6767"/>
</g>
</g>
</svg>
        <g id="navigator" transform="translate(0 0)" fill="#404254">
                <rect fill="#f2f5e9" fill-opacity="0.5" stroke="#606060" stroke-width=".5" x="0" y="0" width="60" height="60"/>
                <use id="zoomplus" xlink:href="#zoomPlus" x="17" y="9" onmousedown="handleZoom(evt,'in')"/>
                <use id="zoomminus" xlink:href="#zoomMin" x="42" y="9" onmousedown="handleZoom(evt,'out')"/>
                <use id="reset" xlink:href="#resetDef" x="30" y="36" onmousedown="handleReset()"/>
                <g id="arrowUp" xlink:href="#dirArrow" transform="translate(30 24)" onmousedown="handlePan(0,-1)">
                  <use xlink:href="#rim" fill="#404040">
                        <set attributeName="fill" to="#808080" begin="arrowUp.mouseover" end="arrowUp.mouseout"/>
                  </use>
                  <path fill="none" stroke="white" stroke-width="1.5" d="M0,-3.0v7 M-2.5,-0.5L0,-3.0L2.5,-0.5"/>
                </g>
                <g id="arrowRight" xlink:href="#dirArrow" transform="rotate(90) translate(36 -43)" onmousedown="handlePan(1,0)">
                  <use xlink:href="#rim" fill="#404040">
                        <set attributeName="fill" to="#808080" begin="arrowRight.mouseover" end="arrowRight.mouseout"/>
                  </use>
                  <path fill="none" stroke="white" stroke-width="1.5" d="M0,-3.0v7 M-2.5,-0.5L0,-3.0L2.5,-0.5"/>
                </g>
                <g id="arrowDown" xlink:href="#dirArrow" transform="rotate(180) translate(-30 -48)" onmousedown="handlePan(0,1)">
                  <use xlink:href="#rim" fill="#404040">
                        <set attributeName="fill" to="#808080" begin="arrowDown.mouseover" end="arrowDown.mouseout"/>
                  </use>
                  <path fill="none" stroke="white" stroke-width="1.5" d="M0,-3.0v7 M-2.5,-0.5L0,-3.0L2.5,-0.5"/>
                </g>
                <g id="arrowLeft" xlink:href="#dirArrow" transform="rotate(270) translate(-36 17)" onmousedown="handlePan(-1,0)">
                  <use xlink:href="#rim" fill="#404040">
                        <set attributeName="fill" to="#808080" begin="arrowLeft.mouseover" end="arrowLeft.mouseout"/>
                  </use>
                  <path fill="none" stroke="white" stroke-width="1.5" d="M0,-3.0v7 M-2.5,-0.5L0,-3.0L2.5,-0.5"/>
                </g>
        </g>
        <svg viewBox="0 0 15 15" width="100%" height="30px" preserveAspectRatio="xMaxYMin meet">
         <g id="arrow_out" transform="scale(0.3 0.3)">
          <a xlink:href="classslogo_1_1_u_i_1_1_turtle_a55344b9d9b4eb0ea6f1dbac099231ade_icgraph_org.svg" target="_base">
           <rect id="button" ry="5" rx="5" y="6" x="6" height="38" width="38"
                fill="#f2f5e9" fill-opacity="0.5" stroke="#606060" stroke-width="1.0"/>
           <path id="arrow"
             d="M 11.500037,31.436501 C 11.940474,20.09759 22.043105,11.32322 32.158766,21.979434 L 37.068811,17.246167 C 37.068811,17.246167 37.088388,32 37.088388,32 L 22.160133,31.978069 C 22.160133,31.978069 26.997745,27.140456 26.997745,27.140456 C 18.528582,18.264221 13.291696,25.230495 11.500037,31.436501 z"
             style="fill:#404040;"/>
          </a>
         </g>
        </svg>
</svg>
