<?xml version="1.0" encoding="UTF-8" standalone="no"?>
<!DOCTYPE svg PUBLIC "-//W3C//DTD SVG 1.1//EN"
 "http://www.w3.org/Graphics/SVG/1.1/DTD/svg11.dtd">
<!-- Generated by graphviz version 2.36.0 (20140111.2315)
 -->
<!-- Title: slogo.UI.Turtle.moveTurtle Pages: 1 -->
<!--zoomable 430 -->
<svg id="main" version="1.1" xmlns="http://www.w3.org/2000/svg" xmlns:xlink="http://www.w3.org/1999/xlink" xml:space="preserve" onload="init(evt)">
<style type="text/css"><![CDATA[
.edge:hover path { stroke: red; }
.edge:hover polygon { stroke: red; fill: red; }
]]></style>
<script type="text/javascript"><![CDATA[
var edges = document.getElementsByTagName('g');
if (edges && edges.length) {
  for (var i=0;i<edges.length;i++) {
    if (edges[i].id.substr(0,4)=='edge') {
      edges[i].setAttribute('class','edge');
    }
  }
}
]]></script>
        <defs>
                <circle id="rim" cx="0" cy="0" r="7"/>
                <circle id="rim2" cx="0" cy="0" r="3.5"/>
                <g id="zoomPlus">
                        <use xlink:href="#rim" fill="#404040">
                                <set attributeName="fill" to="#808080" begin="zoomplus.mouseover" end="zoomplus.mouseout"/>
                        </use>
                        <path d="M-4,0h8M0,-4v8" fill="none" stroke="white" stroke-width="1.5" pointer-events="none"/>
                </g>
                <g id="zoomMin">
                        <use xlink:href="#rim" fill="#404040">
                                <set attributeName="fill" to="#808080" begin="zoomminus.mouseover" end="zoomminus.mouseout"/>
                        </use>
                        <path d="M-4,0h8" fill="none" stroke="white" stroke-width="1.5" pointer-events="none"/>
                </g>
                <g id="dirArrow">
                        <path fill="none" stroke="white" stroke-width="1.5" d="M0,-3.0v7 M-2.5,-0.5L0,-3.0L2.5,-0.5"/>
                </g>
               <g id="resetDef">
                       <use xlink:href="#rim2" fill="#404040">
                               <set attributeName="fill" to="#808080" begin="reset.mouseover" end="reset.mouseout"/>
                       </use>
               </g>
        </defs>

<script type="text/javascript">
var viewWidth = 3272;
var viewHeight = 430;
var sectionId = 'dynsection-11';
</script>
<script xlink:href="../../svgpan.js"/>
<svg id="graph" class="graph">
<g id="viewport">
<title>slogo.UI.Turtle.moveTurtle</title>
<polygon fill="white" stroke="none" points="-4,4 -4,-426 3268,-426 3268,4 -4,4"/>
<!-- Node1 -->
<g id="node1" class="node"><title>Node1</title>
<polygon fill="#bfbfbf" stroke="black" points="0.5,-38.5 0.5,-57.5 139.5,-57.5 139.5,-38.5 0.5,-38.5"/>
<text text-anchor="middle" x="70" y="-45.5" font-family="Helvetica,sans-Serif" font-size="10.00">slogo.UI.Turtle.moveTurtle</text>
</g>
<!-- Node2 -->
<g id="node2" class="node"><title>Node2</title>
<g id="a_node2"><a xlink:href="../../d9/d7e/classslogo_1_1_u_i_1_1_method_runner.html#a1ab80948935d4a625cf3313eabe9a51d" target="_top" xlink:title="slogo.UI.MethodRunner.move\lTurtle">
<polygon fill="white" stroke="black" points="344,-77 344,-107 500,-107 500,-77 344,-77"/>
<text text-anchor="start" x="352" y="-95" font-family="Helvetica,sans-Serif" font-size="10.00">slogo.UI.MethodRunner.move</text>
<text text-anchor="middle" x="422" y="-84" font-family="Helvetica,sans-Serif" font-size="10.00">Turtle</text>
</a>
</g>
</g>
<!-- Node1&#45;&gt;Node2 -->
<g id="edge1" class="edge"><title>Node1&#45;&gt;Node2</title>
<path fill="none" stroke="midnightblue" d="M129.478,-59.4091C144.595,-62.1308 160.873,-64.8628 176,-67 231.988,-74.9101 295.514,-81.3194 343.848,-85.6675"/>
<polygon fill="midnightblue" stroke="midnightblue" points="129.693,-55.8904 119.227,-57.5338 128.434,-62.7761 129.693,-55.8904"/>
</g>
<!-- Node33 -->
<g id="node33" class="node"><title>Node33</title>
<g id="a_node33"><a xlink:href="../../d5/deb/classslogo_1_1_u_i_1_1_turtle.html#acea66642c893474f33f416ebf67f769e" target="_top" xlink:title="slogo.UI.Turtle.setImage">
<polygon fill="white" stroke="black" points="176.5,-38.5 176.5,-57.5 307.5,-57.5 307.5,-38.5 176.5,-38.5"/>
<text text-anchor="middle" x="242" y="-45.5" font-family="Helvetica,sans-Serif" font-size="10.00">slogo.UI.Turtle.setImage</text>
</a>
</g>
</g>
<!-- Node1&#45;&gt;Node33 -->
<g id="edge42" class="edge"><title>Node1&#45;&gt;Node33</title>
<path fill="none" stroke="midnightblue" d="M149.716,-48C158.682,-48 167.741,-48 176.492,-48"/>
<polygon fill="midnightblue" stroke="midnightblue" points="149.656,-44.5001 139.655,-48 149.655,-51.5001 149.656,-44.5001"/>
</g>
<!-- Node36 -->
<g id="node36" class="node"><title>Node36</title>
<g id="a_node36"><a xlink:href="../../d5/deb/classslogo_1_1_u_i_1_1_turtle.html#a677d21287d8b754ce9b12fe2004f90dc" target="_top" xlink:title="slogo.UI.Turtle.Turtle">
<polygon fill="white" stroke="black" points="186,-0.5 186,-19.5 298,-19.5 298,-0.5 186,-0.5"/>
<text text-anchor="middle" x="242" y="-7.5" font-family="Helvetica,sans-Serif" font-size="10.00">slogo.UI.Turtle.Turtle</text>
</a>
</g>
</g>
<!-- Node1&#45;&gt;Node36 -->
<g id="edge46" class="edge"><title>Node1&#45;&gt;Node36</title>
<path fill="none" stroke="midnightblue" d="M123.898,-36.1757C147.865,-30.8184 175.824,-24.5689 198.41,-19.5201"/>
<polygon fill="midnightblue" stroke="midnightblue" points="122.894,-32.8138 113.898,-38.411 124.421,-39.6452 122.894,-32.8138"/>
</g>
<!-- Node3 -->
<g id="node3" class="node"><title>Node3</title>
<g id="a_node3"><a xlink:href="../../d9/d7e/classslogo_1_1_u_i_1_1_method_runner.html#a5fe4a6310ba1b0851d7d30a440511324" target="_top" xlink:title="slogo.UI.MethodRunner.change\lTurtle">
<polygon fill="white" stroke="black" points="716,-52 716,-82 880,-82 880,-52 716,-52"/>
<text text-anchor="start" x="724" y="-70" font-family="Helvetica,sans-Serif" font-size="10.00">slogo.UI.MethodRunner.change</text>
<text text-anchor="middle" x="798" y="-59" font-family="Helvetica,sans-Serif" font-size="10.00">Turtle</text>
</a>
</g>
</g>
<!-- Node2&#45;&gt;Node3 -->
<g id="edge2" class="edge"><title>Node2&#45;&gt;Node3</title>
<path fill="none" stroke="midnightblue" d="M510.21,-86.1704C572.309,-82.0195 655.171,-76.4806 715.855,-72.4241"/>
<polygon fill="midnightblue" stroke="midnightblue" points="509.784,-82.691 500.04,-86.8503 510.251,-89.6755 509.784,-82.691"/>
</g>
<!-- Node4 -->
<g id="node4" class="node"><title>Node4</title>
<g id="a_node4"><a xlink:href="../../df/d2d/classslogo_1_1_view.html#accc79c56511a72090ff8a4d414b8d1f5" target="_top" xlink:title="slogo.View.executeTurtle\lCommands">
<polygon fill="white" stroke="black" points="916.5,-52 916.5,-82 1049.5,-82 1049.5,-52 916.5,-52"/>
<text text-anchor="start" x="924.5" y="-70" font-family="Helvetica,sans-Serif" font-size="10.00">slogo.View.executeTurtle</text>
<text text-anchor="middle" x="983" y="-59" font-family="Helvetica,sans-Serif" font-size="10.00">Commands</text>
</a>
</g>
</g>
<!-- Node3&#45;&gt;Node4 -->
<g id="edge3" class="edge"><title>Node3&#45;&gt;Node4</title>
<path fill="none" stroke="midnightblue" d="M890.35,-67C899.128,-67 907.907,-67 916.365,-67"/>
<polygon fill="midnightblue" stroke="midnightblue" points="890.066,-63.5001 880.066,-67 890.066,-70.5001 890.066,-63.5001"/>
</g>
<!-- Node5 -->
<g id="node5" class="node"><title>Node5</title>
<g id="a_node5"><a xlink:href="../../df/d2d/classslogo_1_1_view.html#aa90e5d95d422b58b7f4b7f8a049defe1" target="_top" xlink:title="slogo.View.executeCommand">
<polygon fill="white" stroke="black" points="1086,-57.5 1086,-76.5 1244,-76.5 1244,-57.5 1086,-57.5"/>
<text text-anchor="middle" x="1165" y="-64.5" font-family="Helvetica,sans-Serif" font-size="10.00">slogo.View.executeCommand</text>
</a>
</g>
</g>
<!-- Node4&#45;&gt;Node5 -->
<g id="edge4" class="edge"><title>Node4&#45;&gt;Node5</title>
<path fill="none" stroke="midnightblue" d="M1059.78,-67C1068.42,-67 1077.24,-67 1085.9,-67"/>
<polygon fill="midnightblue" stroke="midnightblue" points="1059.75,-63.5001 1049.75,-67 1059.75,-70.5001 1059.75,-63.5001"/>
</g>
<!-- Node6 -->
<g id="node6" class="node"><title>Node6</title>
<g id="a_node6"><a xlink:href="../../df/d2d/classslogo_1_1_view.html#aee563f6a0b15ac6668e4dcbdad40c73c" target="_top" xlink:title="slogo.View.sendCommandTo\lBackend">
<polygon fill="white" stroke="black" points="1286,-216 1286,-246 1438,-246 1438,-216 1286,-216"/>
<text text-anchor="start" x="1294" y="-234" font-family="Helvetica,sans-Serif" font-size="10.00">slogo.View.sendCommandTo</text>
<text text-anchor="middle" x="1362" y="-223" font-family="Helvetica,sans-Serif" font-size="10.00">Backend</text>
</a>
</g>
</g>
<!-- Node5&#45;&gt;Node6 -->
<g id="edge5" class="edge"><title>Node5&#45;&gt;Node6</title>
<path fill="none" stroke="midnightblue" d="M1185.05,-83.0252C1222.77,-114.741 1306.43,-185.108 1343.15,-215.984"/>
<polygon fill="midnightblue" stroke="midnightblue" points="1187.23,-80.2841 1177.33,-76.5262 1182.73,-85.6414 1187.23,-80.2841"/>
</g>
<!-- Node26 -->
<g id="node26" class="node"><title>Node26</title>
<g id="a_node26"><a xlink:href="../../df/d2d/classslogo_1_1_view.html#a4c3084a198acf85804800d70eff9ee51" target="_top" xlink:title="slogo.View.stepIntoCommand">
<polygon fill="white" stroke="black" points="1283,-57.5 1283,-76.5 1441,-76.5 1441,-57.5 1283,-57.5"/>
<text text-anchor="middle" x="1362" y="-64.5" font-family="Helvetica,sans-Serif" font-size="10.00">slogo.View.stepIntoCommand</text>
</a>
</g>
</g>
<!-- Node5&#45;&gt;Node26 -->
<g id="edge33" class="edge"><title>Node5&#45;&gt;Node26</title>
<path fill="none" stroke="midnightblue" d="M1254.4,-67C1263.87,-67 1273.45,-67 1282.79,-67"/>
<polygon fill="midnightblue" stroke="midnightblue" points="1254.19,-63.5001 1244.19,-67 1254.19,-70.5001 1254.19,-63.5001"/>
</g>
<!-- Node30 -->
<g id="node30" class="node"><title>Node30</title>
<g id="a_node30"><a xlink:href="../../df/d2d/classslogo_1_1_view.html#ac8b7f574c679e744a430f1649dc55e68" target="_top" xlink:title="slogo.View.stepOverCommand">
<polygon fill="white" stroke="black" points="1280.5,-14.5 1280.5,-33.5 1443.5,-33.5 1443.5,-14.5 1280.5,-14.5"/>
<text text-anchor="middle" x="1362" y="-21.5" font-family="Helvetica,sans-Serif" font-size="10.00">slogo.View.stepOverCommand</text>
</a>
</g>
</g>
<!-- Node5&#45;&gt;Node30 -->
<g id="edge38" class="edge"><title>Node5&#45;&gt;Node30</title>
<path fill="none" stroke="midnightblue" d="M1219.06,-55.3005C1250.07,-48.462 1288.71,-39.9406 1317.84,-33.5164"/>
<polygon fill="midnightblue" stroke="midnightblue" points="1218.29,-51.8855 1209.28,-57.4569 1219.8,-58.7213 1218.29,-51.8855"/>
</g>
<!-- Node7 -->
<g id="node7" class="node"><title>Node7</title>
<g id="a_node7"><a xlink:href="../../db/d19/classslogo_1_1_u_i_1_1_module_creation_helper.html#a69e17abcc7cf9a6ed7261d8fb1d631fa" target="_top" xlink:title="slogo.UI.ModuleCreationHelper.activate\lIncreaseDecreaseButtons">
<polygon fill="white" stroke="black" points="1480.5,-392 1480.5,-422 1685.5,-422 1685.5,-392 1480.5,-392"/>
<text text-anchor="start" x="1488.5" y="-410" font-family="Helvetica,sans-Serif" font-size="10.00">slogo.UI.ModuleCreationHelper.activate</text>
<text text-anchor="middle" x="1583" y="-399" font-family="Helvetica,sans-Serif" font-size="10.00">IncreaseDecreaseButtons</text>
</a>
</g>
</g>
<!-- Node6&#45;&gt;Node7 -->
<g id="edge6" class="edge"><title>Node6&#45;&gt;Node7</title>
<path fill="none" stroke="midnightblue" d="M1376.04,-255.219C1394.78,-287.724 1432.36,-345.06 1480,-377 1489.12,-383.116 1499.51,-388.01 1510.09,-391.919"/>
<polygon fill="midnightblue" stroke="midnightblue" points="1379.01,-253.361 1371.05,-246.368 1372.91,-256.798 1379.01,-253.361"/>
</g>
<!-- Node14 -->
<g id="node14" class="node"><title>Node14</title>
<g id="a_node14"><a xlink:href="../../db/d19/classslogo_1_1_u_i_1_1_module_creation_helper.html#aa70b0ad9e90e62509149bfd2ef2ba209" target="_top" xlink:title="slogo.UI.ModuleCreationHelper.activate\lKeyEvents">
<polygon fill="white" stroke="black" points="2206.5,-139 2206.5,-169 2411.5,-169 2411.5,-139 2206.5,-139"/>
<text text-anchor="start" x="2214.5" y="-157" font-family="Helvetica,sans-Serif" font-size="10.00">slogo.UI.ModuleCreationHelper.activate</text>
<text text-anchor="middle" x="2309" y="-146" font-family="Helvetica,sans-Serif" font-size="10.00">KeyEvents</text>
</a>
</g>
</g>
<!-- Node6&#45;&gt;Node14 -->
<g id="edge14" class="edge"><title>Node6&#45;&gt;Node14</title>
<path fill="none" stroke="midnightblue" d="M1392.18,-210.164C1414.9,-195.251 1447.88,-176.388 1480,-168 1614.15,-132.97 2016.16,-142.777 2206.26,-149.744"/>
<polygon fill="midnightblue" stroke="midnightblue" points="1390.05,-207.378 1383.7,-215.86 1393.95,-213.189 1390.05,-207.378"/>
</g>
<!-- Node15 -->
<g id="node15" class="node"><title>Node15</title>
<g id="a_node15"><a xlink:href="../../db/d19/classslogo_1_1_u_i_1_1_module_creation_helper.html#a2e841243ec3ca474e8822102343acc88" target="_top" xlink:title="slogo.UI.ModuleCreationHelper.activate\lNewTurtleButton">
<polygon fill="white" stroke="black" points="1722.5,-347 1722.5,-377 1927.5,-377 1927.5,-347 1722.5,-347"/>
<text text-anchor="start" x="1730.5" y="-365" font-family="Helvetica,sans-Serif" font-size="10.00">slogo.UI.ModuleCreationHelper.activate</text>
<text text-anchor="middle" x="1825" y="-354" font-family="Helvetica,sans-Serif" font-size="10.00">NewTurtleButton</text>
</a>
</g>
</g>
<!-- Node6&#45;&gt;Node15 -->
<g id="edge16" class="edge"><title>Node6&#45;&gt;Node15</title>
<path fill="none" stroke="midnightblue" d="M1379.02,-254.155C1399.1,-281.009 1436.24,-324.013 1480,-343 1556.41,-376.152 1651.47,-378.86 1722.29,-374.435"/>
<polygon fill="midnightblue" stroke="midnightblue" points="1381.83,-252.073 1373.11,-246.055 1376.18,-256.197 1381.83,-252.073"/>
</g>
<!-- Node17 -->
<g id="node17" class="node"><title>Node17</title>
<g id="a_node17"><a xlink:href="../../db/d19/classslogo_1_1_u_i_1_1_module_creation_helper.html#a9b1f07ab673191067907a059b1b0c524" target="_top" xlink:title="slogo.UI.ModuleCreationHelper.activate\lPlayButton">
<polygon fill="white" stroke="black" points="1480.5,-304 1480.5,-334 1685.5,-334 1685.5,-304 1480.5,-304"/>
<text text-anchor="start" x="1488.5" y="-322" font-family="Helvetica,sans-Serif" font-size="10.00">slogo.UI.ModuleCreationHelper.activate</text>
<text text-anchor="middle" x="1583" y="-311" font-family="Helvetica,sans-Serif" font-size="10.00">PlayButton</text>
</a>
</g>
</g>
<!-- Node6&#45;&gt;Node17 -->
<g id="edge19" class="edge"><title>Node6&#45;&gt;Node17</title>
<path fill="none" stroke="midnightblue" d="M1395.42,-251.354C1418.33,-265.006 1450.16,-282.522 1480,-294 1489.7,-297.73 1500.14,-301.039 1510.5,-303.929"/>
<polygon fill="midnightblue" stroke="midnightblue" points="1397.16,-248.317 1386.79,-246.145 1393.54,-254.31 1397.16,-248.317"/>
</g>
<!-- Node20 -->
<g id="node20" class="node"><title>Node20</title>
<g id="a_node20"><a xlink:href="../../db/d19/classslogo_1_1_u_i_1_1_module_creation_helper.html#a3a38d485562cb17591ec3fd07cffc18a" target="_top" xlink:title="slogo.UI.ModuleCreationHelper.activate\lTurtleCanvas">
<polygon fill="white" stroke="black" points="1964.5,-90 1964.5,-120 2169.5,-120 2169.5,-90 1964.5,-90"/>
<text text-anchor="start" x="1972.5" y="-108" font-family="Helvetica,sans-Serif" font-size="10.00">slogo.UI.ModuleCreationHelper.activate</text>
<text text-anchor="middle" x="2067" y="-97" font-family="Helvetica,sans-Serif" font-size="10.00">TurtleCanvas</text>
</a>
</g>
</g>
<!-- Node6&#45;&gt;Node20 -->
<g id="edge23" class="edge"><title>Node6&#45;&gt;Node20</title>
<path fill="none" stroke="midnightblue" d="M1382.37,-208.232C1403.63,-185.064 1440.1,-150.434 1480,-135 1565.51,-101.92 1820.48,-100.527 1964.33,-102.616"/>
<polygon fill="midnightblue" stroke="midnightblue" points="1379.56,-206.115 1375.5,-215.898 1384.78,-210.786 1379.56,-206.115"/>
</g>
<!-- Node22 -->
<g id="node22" class="node"><title>Node22</title>
<g id="a_node22"><a xlink:href="../../d1/d5f/classslogo_1_1_u_i_1_1_path_color_selector.html#ad3d9c82a0904c97edcec7cf67b85bd7b" target="_top" xlink:title="slogo.UI.PathColorSelector.create">
<polygon fill="white" stroke="black" points="1495,-265.5 1495,-284.5 1671,-284.5 1671,-265.5 1495,-265.5"/>
<text text-anchor="middle" x="1583" y="-272.5" font-family="Helvetica,sans-Serif" font-size="10.00">slogo.UI.PathColorSelector.create</text>
</a>
</g>
</g>
<!-- Node6&#45;&gt;Node22 -->
<g id="edge26" class="edge"><title>Node6&#45;&gt;Node22</title>
<path fill="none" stroke="midnightblue" d="M1445.74,-248.065C1457.24,-250.411 1468.91,-252.776 1480,-255 1497.25,-258.46 1516.16,-262.186 1532.95,-265.473"/>
<polygon fill="midnightblue" stroke="midnightblue" points="1446.19,-244.585 1435.69,-246.013 1444.79,-251.443 1446.19,-244.585"/>
</g>
<!-- Node24 -->
<g id="node24" class="node"><title>Node24</title>
<g id="a_node24"><a xlink:href="../../d4/d8d/classslogo_1_1_u_i_1_1_background_color_selector.html#ad75ba4ce104e071811d0fe039a4e839f" target="_top" xlink:title="slogo.UI.BackgroundColor\lSelector.create">
<polygon fill="white" stroke="black" points="1513,-216 1513,-246 1653,-246 1653,-216 1513,-216"/>
<text text-anchor="start" x="1521" y="-234" font-family="Helvetica,sans-Serif" font-size="10.00">slogo.UI.BackgroundColor</text>
<text text-anchor="middle" x="1583" y="-223" font-family="Helvetica,sans-Serif" font-size="10.00">Selector.create</text>
</a>
</g>
</g>
<!-- Node6&#45;&gt;Node24 -->
<g id="edge29" class="edge"><title>Node6&#45;&gt;Node24</title>
<path fill="none" stroke="midnightblue" d="M1448.14,-231C1469.6,-231 1492.37,-231 1512.93,-231"/>
<polygon fill="midnightblue" stroke="midnightblue" points="1448.06,-227.5 1438.06,-231 1448.06,-234.5 1448.06,-227.5"/>
</g>
<!-- Node25 -->
<g id="node25" class="node"><title>Node25</title>
<g id="a_node25"><a xlink:href="../../dd/da7/classslogo_1_1_u_i_1_1_turtle_image_selector.html#a3f268d9196ffebcbb5dc322d2897a9fe" target="_top" xlink:title="slogo.UI.TurtleImageSelector.create">
<polygon fill="white" stroke="black" points="1490,-177.5 1490,-196.5 1676,-196.5 1676,-177.5 1490,-177.5"/>
<text text-anchor="middle" x="1583" y="-184.5" font-family="Helvetica,sans-Serif" font-size="10.00">slogo.UI.TurtleImageSelector.create</text>
</a>
</g>
</g>
<!-- Node6&#45;&gt;Node25 -->
<g id="edge31" class="edge"><title>Node6&#45;&gt;Node25</title>
<path fill="none" stroke="midnightblue" d="M1442.01,-213.821C1454.7,-211.147 1467.71,-208.458 1480,-206 1495.99,-202.804 1513.42,-199.493 1529.27,-196.548"/>
<polygon fill="midnightblue" stroke="midnightblue" points="1440.98,-210.463 1431.92,-215.958 1442.43,-217.311 1440.98,-210.463"/>
</g>
<!-- Node8 -->
<g id="node8" class="node"><title>Node8</title>
<g id="a_node8"><a xlink:href="../../db/d19/classslogo_1_1_u_i_1_1_module_creation_helper.html#adce7362386f9a7b3006e7db08a2d578d" target="_top" xlink:title="slogo.UI.ModuleCreationHelper.create\lIncreaseDecreaseButtons">
<polygon fill="white" stroke="black" points="1968.5,-383 1968.5,-413 2165.5,-413 2165.5,-383 1968.5,-383"/>
<text text-anchor="start" x="1976.5" y="-401" font-family="Helvetica,sans-Serif" font-size="10.00">slogo.UI.ModuleCreationHelper.create</text>
<text text-anchor="middle" x="2067" y="-390" font-family="Helvetica,sans-Serif" font-size="10.00">IncreaseDecreaseButtons</text>
</a>
</g>
</g>
<!-- Node7&#45;&gt;Node8 -->
<g id="edge7" class="edge"><title>Node7&#45;&gt;Node8</title>
<path fill="none" stroke="midnightblue" d="M1695.79,-404.913C1778.23,-403.373 1889.29,-401.299 1968.21,-399.826"/>
<polygon fill="midnightblue" stroke="midnightblue" points="1695.56,-401.416 1685.63,-405.102 1695.69,-408.415 1695.56,-401.416"/>
</g>
<!-- Node9 -->
<g id="node9" class="node"><title>Node9</title>
<g id="a_node9"><a xlink:href="../../db/d19/classslogo_1_1_u_i_1_1_module_creation_helper.html#a7c650957b2389d6e6d36e8be8a33cd2b" target="_top" xlink:title="slogo.UI.ModuleCreationHelper.create\lSelectorVBoxModules">
<polygon fill="white" stroke="black" points="2210.5,-256 2210.5,-286 2407.5,-286 2407.5,-256 2210.5,-256"/>
<text text-anchor="start" x="2218.5" y="-274" font-family="Helvetica,sans-Serif" font-size="10.00">slogo.UI.ModuleCreationHelper.create</text>
<text text-anchor="middle" x="2309" y="-263" font-family="Helvetica,sans-Serif" font-size="10.00">SelectorVBoxModules</text>
</a>
</g>
</g>
<!-- Node8&#45;&gt;Node9 -->
<g id="edge8" class="edge"><title>Node8&#45;&gt;Node9</title>
<path fill="none" stroke="midnightblue" d="M2151,-379.732C2157.54,-377.424 2163.95,-374.854 2170,-372 2218.6,-349.077 2267.46,-308.079 2291.92,-286.025"/>
<polygon fill="midnightblue" stroke="midnightblue" points="2149.75,-376.461 2141.36,-382.93 2151.95,-383.105 2149.75,-376.461"/>
</g>
<!-- Node10 -->
<g id="node10" class="node"><title>Node10</title>
<g id="a_node10"><a xlink:href="../../db/d19/classslogo_1_1_u_i_1_1_module_creation_helper.html#afb9dbbbad7d872234a5b296fe129a34e" target="_top" xlink:title="slogo.UI.ModuleCreationHelper.create\lMainPageModules">
<polygon fill="white" stroke="black" points="2448.5,-139 2448.5,-169 2645.5,-169 2645.5,-139 2448.5,-139"/>
<text text-anchor="start" x="2456.5" y="-157" font-family="Helvetica,sans-Serif" font-size="10.00">slogo.UI.ModuleCreationHelper.create</text>
<text text-anchor="middle" x="2547" y="-146" font-family="Helvetica,sans-Serif" font-size="10.00">MainPageModules</text>
</a>
</g>
</g>
<!-- Node9&#45;&gt;Node10 -->
<g id="edge9" class="edge"><title>Node9&#45;&gt;Node10</title>
<path fill="none" stroke="midnightblue" d="M2349.58,-251.38C2396.29,-228.222 2472.96,-190.212 2515.37,-169.184"/>
<polygon fill="midnightblue" stroke="midnightblue" points="2347.77,-248.366 2340.37,-255.944 2350.88,-254.638 2347.77,-248.366"/>
</g>
<!-- Node11 -->
<g id="node11" class="node"><title>Node11</title>
<g id="a_node11"><a xlink:href="../../d9/d33/classslogo_1_1_u_i_1_1_main.html#a15b7f2e399ee24d160550993ab737e73" target="_top" xlink:title="slogo.UI.Main.start">
<polygon fill="white" stroke="black" points="2682,-153.5 2682,-172.5 2788,-172.5 2788,-153.5 2682,-153.5"/>
<text text-anchor="middle" x="2735" y="-160.5" font-family="Helvetica,sans-Serif" font-size="10.00">slogo.UI.Main.start</text>
</a>
</g>
</g>
<!-- Node10&#45;&gt;Node11 -->
<g id="edge10" class="edge"><title>Node10&#45;&gt;Node11</title>
<path fill="none" stroke="midnightblue" d="M2655.8,-159.216C2664.76,-159.65 2673.53,-160.074 2681.76,-160.472"/>
<polygon fill="midnightblue" stroke="midnightblue" points="2655.79,-155.712 2645.63,-158.724 2655.45,-162.703 2655.79,-155.712"/>
</g>
<!-- Node12 -->
<g id="node12" class="node"><title>Node12</title>
<g id="a_node12"><a xlink:href="../../db/d19/classslogo_1_1_u_i_1_1_module_creation_helper.html#a3be12a7cc2b8a219db1e296211a2cb88" target="_top" xlink:title="slogo.UI.ModuleCreationHelper.activate\lExtraWorkspaceButton">
<polygon fill="white" stroke="black" points="2824.5,-166 2824.5,-196 3029.5,-196 3029.5,-166 2824.5,-166"/>
<text text-anchor="start" x="2832.5" y="-184" font-family="Helvetica,sans-Serif" font-size="10.00">slogo.UI.ModuleCreationHelper.activate</text>
<text text-anchor="middle" x="2927" y="-173" font-family="Helvetica,sans-Serif" font-size="10.00">ExtraWorkspaceButton</text>
</a>
</g>
</g>
<!-- Node11&#45;&gt;Node12 -->
<g id="edge11" class="edge"><title>Node11&#45;&gt;Node12</title>
<path fill="none" stroke="midnightblue" d="M2798.22,-168.894C2806.63,-169.691 2815.44,-170.526 2824.32,-171.367"/>
<polygon fill="midnightblue" stroke="midnightblue" points="2798.46,-165.401 2788.17,-167.942 2797.79,-172.37 2798.46,-165.401"/>
</g>
<!-- Node13 -->
<g id="node13" class="node"><title>Node13</title>
<g id="a_node13"><a xlink:href="../../db/d19/classslogo_1_1_u_i_1_1_module_creation_helper.html#a702c1ebe24d2857a10c666eb1fcc315d" target="_top" xlink:title="slogo.UI.ModuleCreationHelper.create\lExtraWorkspaceButton">
<polygon fill="white" stroke="black" points="3066.5,-192 3066.5,-222 3263.5,-222 3263.5,-192 3066.5,-192"/>
<text text-anchor="start" x="3074.5" y="-210" font-family="Helvetica,sans-Serif" font-size="10.00">slogo.UI.ModuleCreationHelper.create</text>
<text text-anchor="middle" x="3165" y="-199" font-family="Helvetica,sans-Serif" font-size="10.00">ExtraWorkspaceButton</text>
</a>
</g>
</g>
<!-- Node12&#45;&gt;Node13 -->
<g id="edge12" class="edge"><title>Node12&#45;&gt;Node13</title>
<path fill="none" stroke="midnightblue" d="M3039.77,-193.313C3048.62,-194.289 3057.52,-195.27 3066.27,-196.234"/>
<polygon fill="midnightblue" stroke="midnightblue" points="3040.12,-189.831 3029.8,-192.215 3039.35,-196.789 3040.12,-189.831"/>
</g>
<!-- Node13&#45;&gt;Node9 -->
<g id="edge13" class="edge"><title>Node13&#45;&gt;Node9</title>
<path fill="none" stroke="midnightblue" d="M3056.34,-215.068C2888.9,-227.617 2568.6,-251.62 2407.55,-263.69"/>
<polygon fill="midnightblue" stroke="midnightblue" points="3056.7,-218.551 3066.41,-214.313 3056.18,-211.571 3056.7,-218.551"/>
</g>
<!-- Node14&#45;&gt;Node10 -->
<g id="edge15" class="edge"><title>Node14&#45;&gt;Node10</title>
<path fill="none" stroke="midnightblue" d="M2422.05,-154C2430.81,-154 2439.62,-154 2448.27,-154"/>
<polygon fill="midnightblue" stroke="midnightblue" points="2421.8,-150.5 2411.8,-154 2421.8,-157.5 2421.8,-150.5"/>
</g>
<!-- Node16 -->
<g id="node16" class="node"><title>Node16</title>
<g id="a_node16"><a xlink:href="../../db/d19/classslogo_1_1_u_i_1_1_module_creation_helper.html#a07f5483df317cdf80e8ea2dda5699afa" target="_top" xlink:title="slogo.UI.ModuleCreationHelper.create\lNewTurtleButton">
<polygon fill="white" stroke="black" points="1968.5,-333 1968.5,-363 2165.5,-363 2165.5,-333 1968.5,-333"/>
<text text-anchor="start" x="1976.5" y="-351" font-family="Helvetica,sans-Serif" font-size="10.00">slogo.UI.ModuleCreationHelper.create</text>
<text text-anchor="middle" x="2067" y="-340" font-family="Helvetica,sans-Serif" font-size="10.00">NewTurtleButton</text>
</a>
</g>
</g>
<!-- Node15&#45;&gt;Node16 -->
<g id="edge17" class="edge"><title>Node15&#45;&gt;Node16</title>
<path fill="none" stroke="midnightblue" d="M1937.89,-355.473C1948.04,-354.881 1958.26,-354.285 1968.27,-353.701"/>
<polygon fill="midnightblue" stroke="midnightblue" points="1937.56,-351.986 1927.78,-356.063 1937.97,-358.974 1937.56,-351.986"/>
</g>
<!-- Node16&#45;&gt;Node9 -->
<g id="edge18" class="edge"><title>Node16&#45;&gt;Node9</title>
<path fill="none" stroke="midnightblue" d="M2138.15,-330.309C2148.87,-327.354 2159.76,-324.203 2170,-321 2203.93,-310.387 2241.86,-296.493 2269.35,-286.046"/>
<polygon fill="midnightblue" stroke="midnightblue" points="2137.12,-326.962 2128.39,-332.963 2138.96,-333.717 2137.12,-326.962"/>
</g>
<!-- Node18 -->
<g id="node18" class="node"><title>Node18</title>
<g id="a_node18"><a xlink:href="../../db/d19/classslogo_1_1_u_i_1_1_module_creation_helper.html#a9b3fb38a55b3b7812b4f793afa7a974f" target="_top" xlink:title="slogo.UI.ModuleCreationHelper.create\lPlayButton">
<polygon fill="white" stroke="black" points="1726.5,-298 1726.5,-328 1923.5,-328 1923.5,-298 1726.5,-298"/>
<text text-anchor="start" x="1734.5" y="-316" font-family="Helvetica,sans-Serif" font-size="10.00">slogo.UI.ModuleCreationHelper.create</text>
<text text-anchor="middle" x="1825" y="-305" font-family="Helvetica,sans-Serif" font-size="10.00">PlayButton</text>
</a>
</g>
</g>
<!-- Node17&#45;&gt;Node18 -->
<g id="edge20" class="edge"><title>Node17&#45;&gt;Node18</title>
<path fill="none" stroke="midnightblue" d="M1695.89,-316.203C1706.04,-315.949 1716.26,-315.694 1726.27,-315.443"/>
<polygon fill="midnightblue" stroke="midnightblue" points="1695.69,-312.707 1685.78,-316.455 1695.87,-319.704 1695.69,-312.707"/>
</g>
<!-- Node19 -->
<g id="node19" class="node"><title>Node19</title>
<g id="a_node19"><a xlink:href="../../db/d19/classslogo_1_1_u_i_1_1_module_creation_helper.html#ae1e60d37509c2e5eddcb2a6e70b4f650" target="_top" xlink:title="slogo.UI.ModuleCreationHelper.create\lFirstRowButtons">
<polygon fill="white" stroke="black" points="1968.5,-282 1968.5,-312 2165.5,-312 2165.5,-282 1968.5,-282"/>
<text text-anchor="start" x="1976.5" y="-300" font-family="Helvetica,sans-Serif" font-size="10.00">slogo.UI.ModuleCreationHelper.create</text>
<text text-anchor="middle" x="2067" y="-289" font-family="Helvetica,sans-Serif" font-size="10.00">FirstRowButtons</text>
</a>
</g>
</g>
<!-- Node18&#45;&gt;Node19 -->
<g id="edge21" class="edge"><title>Node18&#45;&gt;Node19</title>
<path fill="none" stroke="midnightblue" d="M1933.73,-305.818C1945.3,-305.046 1957.03,-304.265 1968.47,-303.502"/>
<polygon fill="midnightblue" stroke="midnightblue" points="1933.36,-302.335 1923.62,-306.492 1933.83,-309.319 1933.36,-302.335"/>
</g>
<!-- Node19&#45;&gt;Node9 -->
<g id="edge22" class="edge"><title>Node19&#45;&gt;Node9</title>
<path fill="none" stroke="midnightblue" d="M2175.73,-285.329C2187.3,-284.075 2199.03,-282.805 2210.47,-281.566"/>
<polygon fill="midnightblue" stroke="midnightblue" points="2175.18,-281.868 2165.62,-286.425 2175.94,-288.827 2175.18,-281.868"/>
</g>
<!-- Node21 -->
<g id="node21" class="node"><title>Node21</title>
<g id="a_node21"><a xlink:href="../../db/d19/classslogo_1_1_u_i_1_1_module_creation_helper.html#a803bac6b55bde712b21f2face1eeef81" target="_top" xlink:title="slogo.UI.ModuleCreationHelper.create\lTurtleCanvas">
<polygon fill="white" stroke="black" points="2210.5,-90 2210.5,-120 2407.5,-120 2407.5,-90 2210.5,-90"/>
<text text-anchor="start" x="2218.5" y="-108" font-family="Helvetica,sans-Serif" font-size="10.00">slogo.UI.ModuleCreationHelper.create</text>
<text text-anchor="middle" x="2309" y="-97" font-family="Helvetica,sans-Serif" font-size="10.00">TurtleCanvas</text>
</a>
</g>
</g>
<!-- Node20&#45;&gt;Node21 -->
<g id="edge24" class="edge"><title>Node20&#45;&gt;Node21</title>
<path fill="none" stroke="midnightblue" d="M2179.89,-105C2190.04,-105 2200.26,-105 2210.27,-105"/>
<polygon fill="midnightblue" stroke="midnightblue" points="2179.78,-101.5 2169.78,-105 2179.78,-108.5 2179.78,-101.5"/>
</g>
<!-- Node21&#45;&gt;Node10 -->
<g id="edge25" class="edge"><title>Node21&#45;&gt;Node10</title>
<path fill="none" stroke="midnightblue" d="M2392.42,-122.113C2418.9,-127.611 2448.03,-133.658 2473.73,-138.994"/>
<polygon fill="midnightblue" stroke="midnightblue" points="2392.91,-118.641 2382.41,-120.035 2391.49,-125.495 2392.91,-118.641"/>
</g>
<!-- Node23 -->
<g id="node23" class="node"><title>Node23</title>
<g id="a_node23"><a xlink:href="../../db/d19/classslogo_1_1_u_i_1_1_module_creation_helper.html#af7f2919454fdbf6e9d7d912e99634857" target="_top" xlink:title="slogo.UI.ModuleCreationHelper.create\lSelectors">
<polygon fill="white" stroke="black" points="1726.5,-233 1726.5,-263 1923.5,-263 1923.5,-233 1726.5,-233"/>
<text text-anchor="start" x="1734.5" y="-251" font-family="Helvetica,sans-Serif" font-size="10.00">slogo.UI.ModuleCreationHelper.create</text>
<text text-anchor="middle" x="1825" y="-240" font-family="Helvetica,sans-Serif" font-size="10.00">Selectors</text>
</a>
</g>
</g>
<!-- Node22&#45;&gt;Node23 -->
<g id="edge27" class="edge"><title>Node22&#45;&gt;Node23</title>
<path fill="none" stroke="midnightblue" d="M1678.76,-264.339C1694.36,-262.585 1710.54,-260.764 1726.21,-259.002"/>
<polygon fill="midnightblue" stroke="midnightblue" points="1678.16,-260.885 1668.62,-265.481 1678.94,-267.841 1678.16,-260.885"/>
</g>
<!-- Node23&#45;&gt;Node9 -->
<g id="edge28" class="edge"><title>Node23&#45;&gt;Node9</title>
<path fill="none" stroke="midnightblue" d="M1933.74,-253.141C2016.55,-257.092 2129.97,-262.505 2210.19,-266.333"/>
<polygon fill="midnightblue" stroke="midnightblue" points="1933.7,-249.635 1923.54,-252.654 1933.36,-256.627 1933.7,-249.635"/>
</g>
<!-- Node24&#45;&gt;Node23 -->
<g id="edge30" class="edge"><title>Node24&#45;&gt;Node23</title>
<path fill="none" stroke="midnightblue" d="M1663.18,-236.609C1683.4,-238.041 1705.37,-239.597 1726.39,-241.086"/>
<polygon fill="midnightblue" stroke="midnightblue" points="1663.32,-233.11 1653.1,-235.894 1662.82,-240.092 1663.32,-233.11"/>
</g>
<!-- Node25&#45;&gt;Node23 -->
<g id="edge32" class="edge"><title>Node25&#45;&gt;Node23</title>
<path fill="none" stroke="midnightblue" d="M1651.48,-198.473C1663.04,-200.752 1674.9,-203.287 1686,-206 1717.38,-213.673 1752.18,-224.278 1778.98,-232.911"/>
<polygon fill="midnightblue" stroke="midnightblue" points="1651.9,-194.99 1641.42,-196.539 1650.58,-201.864 1651.9,-194.99"/>
</g>
<!-- Node27 -->
<g id="node27" class="node"><title>Node27</title>
<g id="a_node27"><a xlink:href="../../db/d19/classslogo_1_1_u_i_1_1_module_creation_helper.html#a9fd730f7c1860d34bf4ac46c3828bd59" target="_top" xlink:title="slogo.UI.ModuleCreationHelper.activate\lStepIntoButton">
<polygon fill="white" stroke="black" points="1480.5,-52 1480.5,-82 1685.5,-82 1685.5,-52 1480.5,-52"/>
<text text-anchor="start" x="1488.5" y="-70" font-family="Helvetica,sans-Serif" font-size="10.00">slogo.UI.ModuleCreationHelper.activate</text>
<text text-anchor="middle" x="1583" y="-59" font-family="Helvetica,sans-Serif" font-size="10.00">StepIntoButton</text>
</a>
</g>
</g>
<!-- Node26&#45;&gt;Node27 -->
<g id="edge34" class="edge"><title>Node26&#45;&gt;Node27</title>
<path fill="none" stroke="midnightblue" d="M1451.33,-67C1460.82,-67 1470.54,-67 1480.17,-67"/>
<polygon fill="midnightblue" stroke="midnightblue" points="1451.14,-63.5001 1441.14,-67 1451.14,-70.5001 1451.14,-63.5001"/>
</g>
<!-- Node28 -->
<g id="node28" class="node"><title>Node28</title>
<g id="a_node28"><a xlink:href="../../db/d19/classslogo_1_1_u_i_1_1_module_creation_helper.html#a4a6f1f009507c25be8c7c28cbba35f3b" target="_top" xlink:title="slogo.UI.ModuleCreationHelper.create\lDebugStepIntoButton">
<polygon fill="white" stroke="black" points="1726.5,-52 1726.5,-82 1923.5,-82 1923.5,-52 1726.5,-52"/>
<text text-anchor="start" x="1734.5" y="-70" font-family="Helvetica,sans-Serif" font-size="10.00">slogo.UI.ModuleCreationHelper.create</text>
<text text-anchor="middle" x="1825" y="-59" font-family="Helvetica,sans-Serif" font-size="10.00">DebugStepIntoButton</text>
</a>
</g>
</g>
<!-- Node27&#45;&gt;Node28 -->
<g id="edge35" class="edge"><title>Node27&#45;&gt;Node28</title>
<path fill="none" stroke="midnightblue" d="M1695.89,-67C1706.04,-67 1716.26,-67 1726.27,-67"/>
<polygon fill="midnightblue" stroke="midnightblue" points="1695.78,-63.5001 1685.78,-67 1695.78,-70.5001 1695.78,-63.5001"/>
</g>
<!-- Node29 -->
<g id="node29" class="node"><title>Node29</title>
<g id="a_node29"><a xlink:href="../../db/d19/classslogo_1_1_u_i_1_1_module_creation_helper.html#a975af4ea47dc85df72215bdf1a0d20ce" target="_top" xlink:title="slogo.UI.ModuleCreationHelper.create\lDebugModules">
<polygon fill="white" stroke="black" points="1968.5,-41 1968.5,-71 2165.5,-71 2165.5,-41 1968.5,-41"/>
<text text-anchor="start" x="1976.5" y="-59" font-family="Helvetica,sans-Serif" font-size="10.00">slogo.UI.ModuleCreationHelper.create</text>
<text text-anchor="middle" x="2067" y="-48" font-family="Helvetica,sans-Serif" font-size="10.00">DebugModules</text>
</a>
</g>
</g>
<!-- Node28&#45;&gt;Node29 -->
<g id="edge36" class="edge"><title>Node28&#45;&gt;Node29</title>
<path fill="none" stroke="midnightblue" d="M1933.73,-62.0622C1945.3,-61.5319 1957.03,-60.9945 1968.47,-60.4702"/>
<polygon fill="midnightblue" stroke="midnightblue" points="1933.45,-58.5716 1923.62,-62.5259 1933.77,-65.5643 1933.45,-58.5716"/>
</g>
<!-- Node29&#45;&gt;Node10 -->
<g id="edge37" class="edge"><title>Node29&#45;&gt;Node10</title>
<path fill="none" stroke="midnightblue" d="M2175.63,-51.679C2244.53,-51.779 2335.11,-57.2973 2412,-80 2455.33,-92.7936 2500.2,-121.228 2525.46,-138.889"/>
<polygon fill="midnightblue" stroke="midnightblue" points="2175.61,-48.1789 2165.62,-51.7021 2175.63,-55.1789 2175.61,-48.1789"/>
</g>
<!-- Node31 -->
<g id="node31" class="node"><title>Node31</title>
<g id="a_node31"><a xlink:href="../../db/d19/classslogo_1_1_u_i_1_1_module_creation_helper.html#a0fed0bb32bf2643d6fd5c24d82e8e18e" target="_top" xlink:title="slogo.UI.ModuleCreationHelper.activate\lStepOverButton">
<polygon fill="white" stroke="black" points="1480.5,-3 1480.5,-33 1685.5,-33 1685.5,-3 1480.5,-3"/>
<text text-anchor="start" x="1488.5" y="-21" font-family="Helvetica,sans-Serif" font-size="10.00">slogo.UI.ModuleCreationHelper.activate</text>
<text text-anchor="middle" x="1583" y="-10" font-family="Helvetica,sans-Serif" font-size="10.00">StepOverButton</text>
</a>
</g>
</g>
<!-- Node30&#45;&gt;Node31 -->
<g id="edge39" class="edge"><title>Node30&#45;&gt;Node31</title>
<path fill="none" stroke="midnightblue" d="M1453.8,-21.5123C1462.56,-21.2724 1471.48,-21.028 1480.33,-20.7856"/>
<polygon fill="midnightblue" stroke="midnightblue" points="1453.51,-18.0187 1443.61,-21.7914 1453.71,-25.0161 1453.51,-18.0187"/>
</g>
<!-- Node32 -->
<g id="node32" class="node"><title>Node32</title>
<g id="a_node32"><a xlink:href="../../db/d19/classslogo_1_1_u_i_1_1_module_creation_helper.html#aa1e7dc2b509360583790fba0d3819c8d" target="_top" xlink:title="slogo.UI.ModuleCreationHelper.create\lDebugStepOverButton">
<polygon fill="white" stroke="black" points="1726.5,-3 1726.5,-33 1923.5,-33 1923.5,-3 1726.5,-3"/>
<text text-anchor="start" x="1734.5" y="-21" font-family="Helvetica,sans-Serif" font-size="10.00">slogo.UI.ModuleCreationHelper.create</text>
<text text-anchor="middle" x="1825" y="-10" font-family="Helvetica,sans-Serif" font-size="10.00">DebugStepOverButton</text>
</a>
</g>
</g>
<!-- Node31&#45;&gt;Node32 -->
<g id="edge40" class="edge"><title>Node31&#45;&gt;Node32</title>
<path fill="none" stroke="midnightblue" d="M1695.89,-18C1706.04,-18 1716.26,-18 1726.27,-18"/>
<polygon fill="midnightblue" stroke="midnightblue" points="1695.78,-14.5001 1685.78,-18 1695.78,-21.5001 1695.78,-14.5001"/>
</g>
<!-- Node32&#45;&gt;Node29 -->
<g id="edge41" class="edge"><title>Node32&#45;&gt;Node29</title>
<path fill="none" stroke="midnightblue" d="M1930.99,-34.6227C1944.31,-36.7329 1957.89,-38.8827 1971.05,-40.966"/>
<polygon fill="midnightblue" stroke="midnightblue" points="1931.28,-31.1256 1920.85,-33.0186 1930.18,-38.0395 1931.28,-31.1256"/>
</g>
<!-- Node34 -->
<g id="node34" class="node"><title>Node34</title>
<g id="a_node34"><a xlink:href="../../d9/d7e/classslogo_1_1_u_i_1_1_method_runner.html#a7acbc486941b60522435d579c227d6db" target="_top" xlink:title="slogo.UI.MethodRunner.set\lTurtleImage">
<polygon fill="white" stroke="black" points="350,-28 350,-58 494,-58 494,-28 350,-28"/>
<text text-anchor="start" x="358" y="-46" font-family="Helvetica,sans-Serif" font-size="10.00">slogo.UI.MethodRunner.set</text>
<text text-anchor="middle" x="422" y="-35" font-family="Helvetica,sans-Serif" font-size="10.00">TurtleImage</text>
</a>
</g>
</g>
<!-- Node33&#45;&gt;Node34 -->
<g id="edge43" class="edge"><title>Node33&#45;&gt;Node34</title>
<path fill="none" stroke="midnightblue" d="M317.617,-45.904C328.267,-45.6049 339.199,-45.2978 349.781,-45.0005"/>
<polygon fill="midnightblue" stroke="midnightblue" points="317.412,-42.4083 307.514,-46.1878 317.608,-49.4056 317.412,-42.4083"/>
</g>
<!-- Node35 -->
<g id="node35" class="node"><title>Node35</title>
<g id="a_node35"><a xlink:href="../../d9/d7e/classslogo_1_1_u_i_1_1_method_runner.html#a5e01d88aabd60df2be9ebb5b874837b1" target="_top" xlink:title="slogo.UI.MethodRunner.set\lPenAttributes">
<polygon fill="white" stroke="black" points="536,-30 536,-60 680,-60 680,-30 536,-30"/>
<text text-anchor="start" x="544" y="-48" font-family="Helvetica,sans-Serif" font-size="10.00">slogo.UI.MethodRunner.set</text>
<text text-anchor="middle" x="608" y="-37" font-family="Helvetica,sans-Serif" font-size="10.00">PenAttributes</text>
</a>
</g>
</g>
<!-- Node34&#45;&gt;Node35 -->
<g id="edge44" class="edge"><title>Node34&#45;&gt;Node35</title>
<path fill="none" stroke="midnightblue" d="M504.154,-43.8821C514.68,-43.9965 525.398,-44.113 535.747,-44.2255"/>
<polygon fill="midnightblue" stroke="midnightblue" points="504.177,-40.3822 494.139,-43.7733 504.101,-47.3818 504.177,-40.3822"/>
</g>
<!-- Node35&#45;&gt;Node3 -->
<g id="edge45" class="edge"><title>Node35&#45;&gt;Node3</title>
<path fill="none" stroke="midnightblue" d="M690.28,-54.5115C698.719,-55.4991 707.298,-56.5029 715.736,-57.4904"/>
<polygon fill="midnightblue" stroke="midnightblue" points="690.414,-51.0033 680.075,-53.3173 689.6,-57.9559 690.414,-51.0033"/>
</g>
</g>
</svg>
        <g id="navigator" transform="translate(0 0)" fill="#404254">
                <rect fill="#f2f5e9" fill-opacity="0.5" stroke="#606060" stroke-width=".5" x="0" y="0" width="60" height="60"/>
                <use id="zoomplus" xlink:href="#zoomPlus" x="17" y="9" onmousedown="handleZoom(evt,'in')"/>
                <use id="zoomminus" xlink:href="#zoomMin" x="42" y="9" onmousedown="handleZoom(evt,'out')"/>
                <use id="reset" xlink:href="#resetDef" x="30" y="36" onmousedown="handleReset()"/>
                <g id="arrowUp" xlink:href="#dirArrow" transform="translate(30 24)" onmousedown="handlePan(0,-1)">
                  <use xlink:href="#rim" fill="#404040">
                        <set attributeName="fill" to="#808080" begin="arrowUp.mouseover" end="arrowUp.mouseout"/>
                  </use>
                  <path fill="none" stroke="white" stroke-width="1.5" d="M0,-3.0v7 M-2.5,-0.5L0,-3.0L2.5,-0.5"/>
                </g>
                <g id="arrowRight" xlink:href="#dirArrow" transform="rotate(90) translate(36 -43)" onmousedown="handlePan(1,0)">
                  <use xlink:href="#rim" fill="#404040">
                        <set attributeName="fill" to="#808080" begin="arrowRight.mouseover" end="arrowRight.mouseout"/>
                  </use>
                  <path fill="none" stroke="white" stroke-width="1.5" d="M0,-3.0v7 M-2.5,-0.5L0,-3.0L2.5,-0.5"/>
                </g>
                <g id="arrowDown" xlink:href="#dirArrow" transform="rotate(180) translate(-30 -48)" onmousedown="handlePan(0,1)">
                  <use xlink:href="#rim" fill="#404040">
                        <set attributeName="fill" to="#808080" begin="arrowDown.mouseover" end="arrowDown.mouseout"/>
                  </use>
                  <path fill="none" stroke="white" stroke-width="1.5" d="M0,-3.0v7 M-2.5,-0.5L0,-3.0L2.5,-0.5"/>
                </g>
                <g id="arrowLeft" xlink:href="#dirArrow" transform="rotate(270) translate(-36 17)" onmousedown="handlePan(-1,0)">
                  <use xlink:href="#rim" fill="#404040">
                        <set attributeName="fill" to="#808080" begin="arrowLeft.mouseover" end="arrowLeft.mouseout"/>
                  </use>
                  <path fill="none" stroke="white" stroke-width="1.5" d="M0,-3.0v7 M-2.5,-0.5L0,-3.0L2.5,-0.5"/>
                </g>
        </g>
        <svg viewBox="0 0 15 15" width="100%" height="30px" preserveAspectRatio="xMaxYMin meet">
         <g id="arrow_out" transform="scale(0.3 0.3)">
          <a xlink:href="classslogo_1_1_u_i_1_1_turtle_a678c8daca68b92f79f73967a8be0f269_icgraph_org.svg" target="_base">
           <rect id="button" ry="5" rx="5" y="6" x="6" height="38" width="38"
                fill="#f2f5e9" fill-opacity="0.5" stroke="#606060" stroke-width="1.0"/>
           <path id="arrow"
             d="M 11.500037,31.436501 C 11.940474,20.09759 22.043105,11.32322 32.158766,21.979434 L 37.068811,17.246167 C 37.068811,17.246167 37.088388,32 37.088388,32 L 22.160133,31.978069 C 22.160133,31.978069 26.997745,27.140456 26.997745,27.140456 C 18.528582,18.264221 13.291696,25.230495 11.500037,31.436501 z"
             style="fill:#404040;"/>
          </a>
         </g>
        </svg>
</svg>
