<?xml version="1.0" encoding="UTF-8" standalone="no"?>
<!DOCTYPE svg PUBLIC "-//W3C//DTD SVG 1.1//EN"
 "http://www.w3.org/Graphics/SVG/1.1/DTD/svg11.dtd">
<!-- Generated by graphviz version 2.36.0 (20140111.2315)
 -->
<!-- Title: slogo.backend.impl.util.Qualities Pages: 1 -->
<svg width="157pt" height="118pt"
 viewBox="0.00 0.00 157.00 118.00" xmlns="http://www.w3.org/2000/svg" xmlns:xlink="http://www.w3.org/1999/xlink">
<g id="graph0" class="graph" transform="scale(1 1) rotate(0) translate(4 114)">
<title>slogo.backend.impl.util.Qualities</title>
<polygon fill="white" stroke="none" points="-4,4 -4,-114 153,-114 153,4 -4,4"/>
<!-- Node1 -->
<g id="node1" class="node"><title>Node1</title>
<polygon fill="#bfbfbf" stroke="black" points="-0.5,-1 -0.5,-31 128.5,-31 128.5,-1 -0.5,-1"/>
<text text-anchor="start" x="7.5" y="-19" font-family="Helvetica,sans-Serif" font-size="10.00">slogo.backend.impl.util.</text>
<text text-anchor="middle" x="64" y="-8" font-family="Helvetica,sans-Serif" font-size="10.00">Qualities</text>
</g>
<!-- Node2 -->
<g id="node2" class="node"><title>Node2</title>
<polygon fill="white" stroke="#bfbfbf" points="43.5,-90.5 43.5,-109.5 84.5,-109.5 84.5,-90.5 43.5,-90.5"/>
<text text-anchor="middle" x="64" y="-97.5" font-family="Helvetica,sans-Serif" font-size="10.00">Color</text>
</g>
<!-- Node2&#45;&gt;Node1 -->
<g id="edge1" class="edge"><title>Node2&#45;&gt;Node1</title>
<path fill="none" stroke="#9a32cd" stroke-dasharray="5,2" d="M64,-80.1139C64,-65.2014 64,-44.7195 64,-31.1839"/>
<polygon fill="#9a32cd" stroke="#9a32cd" points="60.5001,-80.2245 64,-90.2246 67.5001,-80.2246 60.5001,-80.2245"/>
<text text-anchor="middle" x="106.5" y="-64" font-family="Helvetica,sans-Serif" font-size="10.00"> backgroundColor</text>
<text text-anchor="middle" x="106.5" y="-53" font-family="Helvetica,sans-Serif" font-size="10.00">pathColor</text>
</g>
</g>
</svg>
