<?xml version="1.0" encoding="UTF-8" standalone="no"?>
<!DOCTYPE svg PUBLIC "-//W3C//DTD SVG 1.1//EN"
 "http://www.w3.org/Graphics/SVG/1.1/DTD/svg11.dtd">
<!-- Generated by graphviz version 2.36.0 (20140111.2315)
 -->
<!-- Title: slogo.UI.Turtle.setShapesMap Pages: 1 -->
<svg width="2750pt" height="427pt"
 viewBox="0.00 0.00 2750.00 427.00" xmlns="http://www.w3.org/2000/svg" xmlns:xlink="http://www.w3.org/1999/xlink">
<g id="graph0" class="graph" transform="scale(1 1) rotate(0) translate(4 423)">
<title>slogo.UI.Turtle.setShapesMap</title>
<polygon fill="white" stroke="none" points="-4,4 -4,-423 2746,-423 2746,4 -4,4"/>
<!-- Node1 -->
<g id="node1" class="node"><title>Node1</title>
<polygon fill="#bfbfbf" stroke="black" points="0,-54.5 0,-73.5 158,-73.5 158,-54.5 0,-54.5"/>
<text text-anchor="middle" x="79" y="-61.5" font-family="Helvetica,sans-Serif" font-size="10.00">slogo.UI.Turtle.setShapesMap</text>
</g>
<!-- Node2 -->
<g id="node2" class="node"><title>Node2</title>
<g id="a_node2"><a xlink:href="../../d9/d7e/classslogo_1_1_u_i_1_1_method_runner.html#a5fe4a6310ba1b0851d7d30a440511324" target="_top" xlink:title="slogo.UI.MethodRunner.change\lTurtle">
<polygon fill="white" stroke="black" points="194,-49 194,-79 358,-79 358,-49 194,-49"/>
<text text-anchor="start" x="202" y="-67" font-family="Helvetica,sans-Serif" font-size="10.00">slogo.UI.MethodRunner.change</text>
<text text-anchor="middle" x="276" y="-56" font-family="Helvetica,sans-Serif" font-size="10.00">Turtle</text>
</a>
</g>
</g>
<!-- Node1&#45;&gt;Node2 -->
<g id="edge1" class="edge"><title>Node1&#45;&gt;Node2</title>
<path fill="none" stroke="midnightblue" d="M168.191,-64C176.761,-64 185.428,-64 193.924,-64"/>
<polygon fill="midnightblue" stroke="midnightblue" points="168.19,-60.5001 158.19,-64 168.19,-67.5001 168.19,-60.5001"/>
</g>
<!-- Node3 -->
<g id="node3" class="node"><title>Node3</title>
<g id="a_node3"><a xlink:href="../../df/d2d/classslogo_1_1_view.html#accc79c56511a72090ff8a4d414b8d1f5" target="_top" xlink:title="slogo.View.executeTurtle\lCommands">
<polygon fill="white" stroke="black" points="394.5,-49 394.5,-79 527.5,-79 527.5,-49 394.5,-49"/>
<text text-anchor="start" x="402.5" y="-67" font-family="Helvetica,sans-Serif" font-size="10.00">slogo.View.executeTurtle</text>
<text text-anchor="middle" x="461" y="-56" font-family="Helvetica,sans-Serif" font-size="10.00">Commands</text>
</a>
</g>
</g>
<!-- Node2&#45;&gt;Node3 -->
<g id="edge2" class="edge"><title>Node2&#45;&gt;Node3</title>
<path fill="none" stroke="midnightblue" d="M368.35,-64C377.128,-64 385.907,-64 394.365,-64"/>
<polygon fill="midnightblue" stroke="midnightblue" points="368.066,-60.5001 358.066,-64 368.066,-67.5001 368.066,-60.5001"/>
</g>
<!-- Node4 -->
<g id="node4" class="node"><title>Node4</title>
<g id="a_node4"><a xlink:href="../../df/d2d/classslogo_1_1_view.html#aa90e5d95d422b58b7f4b7f8a049defe1" target="_top" xlink:title="slogo.View.executeCommand">
<polygon fill="white" stroke="black" points="564,-54.5 564,-73.5 722,-73.5 722,-54.5 564,-54.5"/>
<text text-anchor="middle" x="643" y="-61.5" font-family="Helvetica,sans-Serif" font-size="10.00">slogo.View.executeCommand</text>
</a>
</g>
</g>
<!-- Node3&#45;&gt;Node4 -->
<g id="edge3" class="edge"><title>Node3&#45;&gt;Node4</title>
<path fill="none" stroke="midnightblue" d="M537.784,-64C546.42,-64 555.235,-64 563.901,-64"/>
<polygon fill="midnightblue" stroke="midnightblue" points="537.748,-60.5001 527.748,-64 537.748,-67.5001 537.748,-60.5001"/>
</g>
<!-- Node5 -->
<g id="node5" class="node"><title>Node5</title>
<g id="a_node5"><a xlink:href="../../df/d2d/classslogo_1_1_view.html#aee563f6a0b15ac6668e4dcbdad40c73c" target="_top" xlink:title="slogo.View.sendCommandTo\lBackend">
<polygon fill="white" stroke="black" points="764,-213 764,-243 916,-243 916,-213 764,-213"/>
<text text-anchor="start" x="772" y="-231" font-family="Helvetica,sans-Serif" font-size="10.00">slogo.View.sendCommandTo</text>
<text text-anchor="middle" x="840" y="-220" font-family="Helvetica,sans-Serif" font-size="10.00">Backend</text>
</a>
</g>
</g>
<!-- Node4&#45;&gt;Node5 -->
<g id="edge4" class="edge"><title>Node4&#45;&gt;Node5</title>
<path fill="none" stroke="midnightblue" d="M663.054,-80.0252C700.765,-111.741 784.433,-182.108 821.146,-212.984"/>
<polygon fill="midnightblue" stroke="midnightblue" points="665.233,-77.2841 655.327,-73.5262 660.727,-82.6414 665.233,-77.2841"/>
</g>
<!-- Node25 -->
<g id="node25" class="node"><title>Node25</title>
<g id="a_node25"><a xlink:href="../../df/d2d/classslogo_1_1_view.html#a4c3084a198acf85804800d70eff9ee51" target="_top" xlink:title="slogo.View.stepIntoCommand">
<polygon fill="white" stroke="black" points="761,-54.5 761,-73.5 919,-73.5 919,-54.5 761,-54.5"/>
<text text-anchor="middle" x="840" y="-61.5" font-family="Helvetica,sans-Serif" font-size="10.00">slogo.View.stepIntoCommand</text>
</a>
</g>
</g>
<!-- Node4&#45;&gt;Node25 -->
<g id="edge32" class="edge"><title>Node4&#45;&gt;Node25</title>
<path fill="none" stroke="midnightblue" d="M732.402,-64C741.87,-64 751.454,-64 760.792,-64"/>
<polygon fill="midnightblue" stroke="midnightblue" points="732.19,-60.5001 722.19,-64 732.19,-67.5001 732.19,-60.5001"/>
</g>
<!-- Node29 -->
<g id="node29" class="node"><title>Node29</title>
<g id="a_node29"><a xlink:href="../../df/d2d/classslogo_1_1_view.html#ac8b7f574c679e744a430f1649dc55e68" target="_top" xlink:title="slogo.View.stepOverCommand">
<polygon fill="white" stroke="black" points="758.5,-11.5 758.5,-30.5 921.5,-30.5 921.5,-11.5 758.5,-11.5"/>
<text text-anchor="middle" x="840" y="-18.5" font-family="Helvetica,sans-Serif" font-size="10.00">slogo.View.stepOverCommand</text>
</a>
</g>
</g>
<!-- Node4&#45;&gt;Node29 -->
<g id="edge37" class="edge"><title>Node4&#45;&gt;Node29</title>
<path fill="none" stroke="midnightblue" d="M697.056,-52.3005C728.068,-45.462 766.711,-36.9406 795.844,-30.5164"/>
<polygon fill="midnightblue" stroke="midnightblue" points="696.288,-48.8855 687.277,-54.4569 697.796,-55.7213 696.288,-48.8855"/>
</g>
<!-- Node6 -->
<g id="node6" class="node"><title>Node6</title>
<g id="a_node6"><a xlink:href="../../db/d19/classslogo_1_1_u_i_1_1_module_creation_helper.html#a69e17abcc7cf9a6ed7261d8fb1d631fa" target="_top" xlink:title="slogo.UI.ModuleCreationHelper.activate\lIncreaseDecreaseButtons">
<polygon fill="white" stroke="black" points="958.5,-389 958.5,-419 1163.5,-419 1163.5,-389 958.5,-389"/>
<text text-anchor="start" x="966.5" y="-407" font-family="Helvetica,sans-Serif" font-size="10.00">slogo.UI.ModuleCreationHelper.activate</text>
<text text-anchor="middle" x="1061" y="-396" font-family="Helvetica,sans-Serif" font-size="10.00">IncreaseDecreaseButtons</text>
</a>
</g>
</g>
<!-- Node5&#45;&gt;Node6 -->
<g id="edge5" class="edge"><title>Node5&#45;&gt;Node6</title>
<path fill="none" stroke="midnightblue" d="M854.043,-252.219C872.779,-284.724 910.363,-342.06 958,-374 967.122,-380.116 977.514,-385.01 988.092,-388.919"/>
<polygon fill="midnightblue" stroke="midnightblue" points="857.013,-250.361 849.054,-243.368 850.915,-253.798 857.013,-250.361"/>
</g>
<!-- Node13 -->
<g id="node13" class="node"><title>Node13</title>
<g id="a_node13"><a xlink:href="../../db/d19/classslogo_1_1_u_i_1_1_module_creation_helper.html#aa70b0ad9e90e62509149bfd2ef2ba209" target="_top" xlink:title="slogo.UI.ModuleCreationHelper.activate\lKeyEvents">
<polygon fill="white" stroke="black" points="1684.5,-136 1684.5,-166 1889.5,-166 1889.5,-136 1684.5,-136"/>
<text text-anchor="start" x="1692.5" y="-154" font-family="Helvetica,sans-Serif" font-size="10.00">slogo.UI.ModuleCreationHelper.activate</text>
<text text-anchor="middle" x="1787" y="-143" font-family="Helvetica,sans-Serif" font-size="10.00">KeyEvents</text>
</a>
</g>
</g>
<!-- Node5&#45;&gt;Node13 -->
<g id="edge13" class="edge"><title>Node5&#45;&gt;Node13</title>
<path fill="none" stroke="midnightblue" d="M870.179,-207.164C892.902,-192.251 925.88,-173.388 958,-165 1092.15,-129.97 1494.16,-139.777 1684.26,-146.744"/>
<polygon fill="midnightblue" stroke="midnightblue" points="868.049,-204.378 861.699,-212.86 871.952,-210.189 868.049,-204.378"/>
</g>
<!-- Node14 -->
<g id="node14" class="node"><title>Node14</title>
<g id="a_node14"><a xlink:href="../../db/d19/classslogo_1_1_u_i_1_1_module_creation_helper.html#a2e841243ec3ca474e8822102343acc88" target="_top" xlink:title="slogo.UI.ModuleCreationHelper.activate\lNewTurtleButton">
<polygon fill="white" stroke="black" points="1200.5,-344 1200.5,-374 1405.5,-374 1405.5,-344 1200.5,-344"/>
<text text-anchor="start" x="1208.5" y="-362" font-family="Helvetica,sans-Serif" font-size="10.00">slogo.UI.ModuleCreationHelper.activate</text>
<text text-anchor="middle" x="1303" y="-351" font-family="Helvetica,sans-Serif" font-size="10.00">NewTurtleButton</text>
</a>
</g>
</g>
<!-- Node5&#45;&gt;Node14 -->
<g id="edge15" class="edge"><title>Node5&#45;&gt;Node14</title>
<path fill="none" stroke="midnightblue" d="M857.021,-251.155C877.099,-278.009 914.24,-321.013 958,-340 1034.41,-373.152 1129.47,-375.86 1200.29,-371.435"/>
<polygon fill="midnightblue" stroke="midnightblue" points="859.834,-249.073 851.115,-243.055 854.178,-253.197 859.834,-249.073"/>
</g>
<!-- Node16 -->
<g id="node16" class="node"><title>Node16</title>
<g id="a_node16"><a xlink:href="../../db/d19/classslogo_1_1_u_i_1_1_module_creation_helper.html#a9b1f07ab673191067907a059b1b0c524" target="_top" xlink:title="slogo.UI.ModuleCreationHelper.activate\lPlayButton">
<polygon fill="white" stroke="black" points="958.5,-301 958.5,-331 1163.5,-331 1163.5,-301 958.5,-301"/>
<text text-anchor="start" x="966.5" y="-319" font-family="Helvetica,sans-Serif" font-size="10.00">slogo.UI.ModuleCreationHelper.activate</text>
<text text-anchor="middle" x="1061" y="-308" font-family="Helvetica,sans-Serif" font-size="10.00">PlayButton</text>
</a>
</g>
</g>
<!-- Node5&#45;&gt;Node16 -->
<g id="edge18" class="edge"><title>Node5&#45;&gt;Node16</title>
<path fill="none" stroke="midnightblue" d="M873.42,-248.354C896.332,-262.006 928.156,-279.522 958,-291 967.7,-294.73 978.137,-298.039 988.502,-300.929"/>
<polygon fill="midnightblue" stroke="midnightblue" points="875.162,-245.317 864.792,-243.145 871.544,-251.31 875.162,-245.317"/>
</g>
<!-- Node19 -->
<g id="node19" class="node"><title>Node19</title>
<g id="a_node19"><a xlink:href="../../db/d19/classslogo_1_1_u_i_1_1_module_creation_helper.html#a3a38d485562cb17591ec3fd07cffc18a" target="_top" xlink:title="slogo.UI.ModuleCreationHelper.activate\lTurtleCanvas">
<polygon fill="white" stroke="black" points="1442.5,-87 1442.5,-117 1647.5,-117 1647.5,-87 1442.5,-87"/>
<text text-anchor="start" x="1450.5" y="-105" font-family="Helvetica,sans-Serif" font-size="10.00">slogo.UI.ModuleCreationHelper.activate</text>
<text text-anchor="middle" x="1545" y="-94" font-family="Helvetica,sans-Serif" font-size="10.00">TurtleCanvas</text>
</a>
</g>
</g>
<!-- Node5&#45;&gt;Node19 -->
<g id="edge22" class="edge"><title>Node5&#45;&gt;Node19</title>
<path fill="none" stroke="midnightblue" d="M860.366,-205.232C881.633,-182.064 918.105,-147.434 958,-132 1043.51,-98.92 1298.48,-97.5272 1442.33,-99.6157"/>
<polygon fill="midnightblue" stroke="midnightblue" points="857.563,-203.115 853.497,-212.898 862.777,-207.786 857.563,-203.115"/>
</g>
<!-- Node21 -->
<g id="node21" class="node"><title>Node21</title>
<g id="a_node21"><a xlink:href="../../d1/d5f/classslogo_1_1_u_i_1_1_path_color_selector.html#ad3d9c82a0904c97edcec7cf67b85bd7b" target="_top" xlink:title="slogo.UI.PathColorSelector.create">
<polygon fill="white" stroke="black" points="973,-262.5 973,-281.5 1149,-281.5 1149,-262.5 973,-262.5"/>
<text text-anchor="middle" x="1061" y="-269.5" font-family="Helvetica,sans-Serif" font-size="10.00">slogo.UI.PathColorSelector.create</text>
</a>
</g>
</g>
<!-- Node5&#45;&gt;Node21 -->
<g id="edge25" class="edge"><title>Node5&#45;&gt;Node21</title>
<path fill="none" stroke="midnightblue" d="M923.739,-245.065C935.243,-247.411 946.914,-249.776 958,-252 975.251,-255.46 994.157,-259.186 1010.95,-262.473"/>
<polygon fill="midnightblue" stroke="midnightblue" points="924.189,-241.585 913.69,-243.013 922.788,-248.443 924.189,-241.585"/>
</g>
<!-- Node23 -->
<g id="node23" class="node"><title>Node23</title>
<g id="a_node23"><a xlink:href="../../d4/d8d/classslogo_1_1_u_i_1_1_background_color_selector.html#ad75ba4ce104e071811d0fe039a4e839f" target="_top" xlink:title="slogo.UI.BackgroundColor\lSelector.create">
<polygon fill="white" stroke="black" points="991,-213 991,-243 1131,-243 1131,-213 991,-213"/>
<text text-anchor="start" x="999" y="-231" font-family="Helvetica,sans-Serif" font-size="10.00">slogo.UI.BackgroundColor</text>
<text text-anchor="middle" x="1061" y="-220" font-family="Helvetica,sans-Serif" font-size="10.00">Selector.create</text>
</a>
</g>
</g>
<!-- Node5&#45;&gt;Node23 -->
<g id="edge28" class="edge"><title>Node5&#45;&gt;Node23</title>
<path fill="none" stroke="midnightblue" d="M926.142,-228C947.597,-228 970.367,-228 990.925,-228"/>
<polygon fill="midnightblue" stroke="midnightblue" points="926.061,-224.5 916.061,-228 926.061,-231.5 926.061,-224.5"/>
</g>
<!-- Node24 -->
<g id="node24" class="node"><title>Node24</title>
<g id="a_node24"><a xlink:href="../../dd/da7/classslogo_1_1_u_i_1_1_turtle_image_selector.html#a3f268d9196ffebcbb5dc322d2897a9fe" target="_top" xlink:title="slogo.UI.TurtleImageSelector.create">
<polygon fill="white" stroke="black" points="968,-174.5 968,-193.5 1154,-193.5 1154,-174.5 968,-174.5"/>
<text text-anchor="middle" x="1061" y="-181.5" font-family="Helvetica,sans-Serif" font-size="10.00">slogo.UI.TurtleImageSelector.create</text>
</a>
</g>
</g>
<!-- Node5&#45;&gt;Node24 -->
<g id="edge30" class="edge"><title>Node5&#45;&gt;Node24</title>
<path fill="none" stroke="midnightblue" d="M920.012,-210.821C932.704,-208.147 945.705,-205.458 958,-203 973.985,-199.804 991.416,-196.493 1007.27,-193.548"/>
<polygon fill="midnightblue" stroke="midnightblue" points="918.977,-207.463 909.919,-212.958 920.427,-214.311 918.977,-207.463"/>
</g>
<!-- Node7 -->
<g id="node7" class="node"><title>Node7</title>
<g id="a_node7"><a xlink:href="../../db/d19/classslogo_1_1_u_i_1_1_module_creation_helper.html#adce7362386f9a7b3006e7db08a2d578d" target="_top" xlink:title="slogo.UI.ModuleCreationHelper.create\lIncreaseDecreaseButtons">
<polygon fill="white" stroke="black" points="1446.5,-380 1446.5,-410 1643.5,-410 1643.5,-380 1446.5,-380"/>
<text text-anchor="start" x="1454.5" y="-398" font-family="Helvetica,sans-Serif" font-size="10.00">slogo.UI.ModuleCreationHelper.create</text>
<text text-anchor="middle" x="1545" y="-387" font-family="Helvetica,sans-Serif" font-size="10.00">IncreaseDecreaseButtons</text>
</a>
</g>
</g>
<!-- Node6&#45;&gt;Node7 -->
<g id="edge6" class="edge"><title>Node6&#45;&gt;Node7</title>
<path fill="none" stroke="midnightblue" d="M1173.79,-401.913C1256.23,-400.373 1367.29,-398.299 1446.21,-396.826"/>
<polygon fill="midnightblue" stroke="midnightblue" points="1173.56,-398.416 1163.63,-402.102 1173.69,-405.415 1173.56,-398.416"/>
</g>
<!-- Node8 -->
<g id="node8" class="node"><title>Node8</title>
<g id="a_node8"><a xlink:href="../../db/d19/classslogo_1_1_u_i_1_1_module_creation_helper.html#a7c650957b2389d6e6d36e8be8a33cd2b" target="_top" xlink:title="slogo.UI.ModuleCreationHelper.create\lSelectorVBoxModules">
<polygon fill="white" stroke="black" points="1688.5,-253 1688.5,-283 1885.5,-283 1885.5,-253 1688.5,-253"/>
<text text-anchor="start" x="1696.5" y="-271" font-family="Helvetica,sans-Serif" font-size="10.00">slogo.UI.ModuleCreationHelper.create</text>
<text text-anchor="middle" x="1787" y="-260" font-family="Helvetica,sans-Serif" font-size="10.00">SelectorVBoxModules</text>
</a>
</g>
</g>
<!-- Node7&#45;&gt;Node8 -->
<g id="edge7" class="edge"><title>Node7&#45;&gt;Node8</title>
<path fill="none" stroke="midnightblue" d="M1629,-376.732C1635.54,-374.424 1641.95,-371.854 1648,-369 1696.6,-346.077 1745.46,-305.079 1769.92,-283.025"/>
<polygon fill="midnightblue" stroke="midnightblue" points="1627.75,-373.461 1619.36,-379.93 1629.95,-380.105 1627.75,-373.461"/>
</g>
<!-- Node9 -->
<g id="node9" class="node"><title>Node9</title>
<g id="a_node9"><a xlink:href="../../db/d19/classslogo_1_1_u_i_1_1_module_creation_helper.html#afb9dbbbad7d872234a5b296fe129a34e" target="_top" xlink:title="slogo.UI.ModuleCreationHelper.create\lMainPageModules">
<polygon fill="white" stroke="black" points="1926.5,-136 1926.5,-166 2123.5,-166 2123.5,-136 1926.5,-136"/>
<text text-anchor="start" x="1934.5" y="-154" font-family="Helvetica,sans-Serif" font-size="10.00">slogo.UI.ModuleCreationHelper.create</text>
<text text-anchor="middle" x="2025" y="-143" font-family="Helvetica,sans-Serif" font-size="10.00">MainPageModules</text>
</a>
</g>
</g>
<!-- Node8&#45;&gt;Node9 -->
<g id="edge8" class="edge"><title>Node8&#45;&gt;Node9</title>
<path fill="none" stroke="midnightblue" d="M1827.58,-248.38C1874.29,-225.222 1950.96,-187.212 1993.37,-166.184"/>
<polygon fill="midnightblue" stroke="midnightblue" points="1825.77,-245.366 1818.37,-252.944 1828.88,-251.638 1825.77,-245.366"/>
</g>
<!-- Node10 -->
<g id="node10" class="node"><title>Node10</title>
<g id="a_node10"><a xlink:href="../../d9/d33/classslogo_1_1_u_i_1_1_main.html#a15b7f2e399ee24d160550993ab737e73" target="_top" xlink:title="slogo.UI.Main.start">
<polygon fill="white" stroke="black" points="2160,-150.5 2160,-169.5 2266,-169.5 2266,-150.5 2160,-150.5"/>
<text text-anchor="middle" x="2213" y="-157.5" font-family="Helvetica,sans-Serif" font-size="10.00">slogo.UI.Main.start</text>
</a>
</g>
</g>
<!-- Node9&#45;&gt;Node10 -->
<g id="edge9" class="edge"><title>Node9&#45;&gt;Node10</title>
<path fill="none" stroke="midnightblue" d="M2133.8,-156.216C2142.76,-156.65 2151.53,-157.074 2159.76,-157.472"/>
<polygon fill="midnightblue" stroke="midnightblue" points="2133.79,-152.712 2123.63,-155.724 2133.45,-159.703 2133.79,-152.712"/>
</g>
<!-- Node11 -->
<g id="node11" class="node"><title>Node11</title>
<g id="a_node11"><a xlink:href="../../db/d19/classslogo_1_1_u_i_1_1_module_creation_helper.html#a3be12a7cc2b8a219db1e296211a2cb88" target="_top" xlink:title="slogo.UI.ModuleCreationHelper.activate\lExtraWorkspaceButton">
<polygon fill="white" stroke="black" points="2302.5,-163 2302.5,-193 2507.5,-193 2507.5,-163 2302.5,-163"/>
<text text-anchor="start" x="2310.5" y="-181" font-family="Helvetica,sans-Serif" font-size="10.00">slogo.UI.ModuleCreationHelper.activate</text>
<text text-anchor="middle" x="2405" y="-170" font-family="Helvetica,sans-Serif" font-size="10.00">ExtraWorkspaceButton</text>
</a>
</g>
</g>
<!-- Node10&#45;&gt;Node11 -->
<g id="edge10" class="edge"><title>Node10&#45;&gt;Node11</title>
<path fill="none" stroke="midnightblue" d="M2276.22,-165.894C2284.63,-166.691 2293.44,-167.526 2302.32,-168.367"/>
<polygon fill="midnightblue" stroke="midnightblue" points="2276.46,-162.401 2266.17,-164.942 2275.79,-169.37 2276.46,-162.401"/>
</g>
<!-- Node12 -->
<g id="node12" class="node"><title>Node12</title>
<g id="a_node12"><a xlink:href="../../db/d19/classslogo_1_1_u_i_1_1_module_creation_helper.html#a702c1ebe24d2857a10c666eb1fcc315d" target="_top" xlink:title="slogo.UI.ModuleCreationHelper.create\lExtraWorkspaceButton">
<polygon fill="white" stroke="black" points="2544.5,-189 2544.5,-219 2741.5,-219 2741.5,-189 2544.5,-189"/>
<text text-anchor="start" x="2552.5" y="-207" font-family="Helvetica,sans-Serif" font-size="10.00">slogo.UI.ModuleCreationHelper.create</text>
<text text-anchor="middle" x="2643" y="-196" font-family="Helvetica,sans-Serif" font-size="10.00">ExtraWorkspaceButton</text>
</a>
</g>
</g>
<!-- Node11&#45;&gt;Node12 -->
<g id="edge11" class="edge"><title>Node11&#45;&gt;Node12</title>
<path fill="none" stroke="midnightblue" d="M2517.77,-190.313C2526.62,-191.289 2535.52,-192.27 2544.27,-193.234"/>
<polygon fill="midnightblue" stroke="midnightblue" points="2518.12,-186.831 2507.8,-189.215 2517.35,-193.789 2518.12,-186.831"/>
</g>
<!-- Node12&#45;&gt;Node8 -->
<g id="edge12" class="edge"><title>Node12&#45;&gt;Node8</title>
<path fill="none" stroke="midnightblue" d="M2534.34,-212.068C2366.9,-224.617 2046.6,-248.62 1885.55,-260.69"/>
<polygon fill="midnightblue" stroke="midnightblue" points="2534.7,-215.551 2544.41,-211.313 2534.18,-208.571 2534.7,-215.551"/>
</g>
<!-- Node13&#45;&gt;Node9 -->
<g id="edge14" class="edge"><title>Node13&#45;&gt;Node9</title>
<path fill="none" stroke="midnightblue" d="M1900.05,-151C1908.81,-151 1917.62,-151 1926.27,-151"/>
<polygon fill="midnightblue" stroke="midnightblue" points="1899.8,-147.5 1889.8,-151 1899.8,-154.5 1899.8,-147.5"/>
</g>
<!-- Node15 -->
<g id="node15" class="node"><title>Node15</title>
<g id="a_node15"><a xlink:href="../../db/d19/classslogo_1_1_u_i_1_1_module_creation_helper.html#a07f5483df317cdf80e8ea2dda5699afa" target="_top" xlink:title="slogo.UI.ModuleCreationHelper.create\lNewTurtleButton">
<polygon fill="white" stroke="black" points="1446.5,-330 1446.5,-360 1643.5,-360 1643.5,-330 1446.5,-330"/>
<text text-anchor="start" x="1454.5" y="-348" font-family="Helvetica,sans-Serif" font-size="10.00">slogo.UI.ModuleCreationHelper.create</text>
<text text-anchor="middle" x="1545" y="-337" font-family="Helvetica,sans-Serif" font-size="10.00">NewTurtleButton</text>
</a>
</g>
</g>
<!-- Node14&#45;&gt;Node15 -->
<g id="edge16" class="edge"><title>Node14&#45;&gt;Node15</title>
<path fill="none" stroke="midnightblue" d="M1415.89,-352.473C1426.04,-351.881 1436.26,-351.285 1446.27,-350.701"/>
<polygon fill="midnightblue" stroke="midnightblue" points="1415.56,-348.986 1405.78,-353.063 1415.97,-355.974 1415.56,-348.986"/>
</g>
<!-- Node15&#45;&gt;Node8 -->
<g id="edge17" class="edge"><title>Node15&#45;&gt;Node8</title>
<path fill="none" stroke="midnightblue" d="M1616.15,-327.309C1626.87,-324.354 1637.76,-321.203 1648,-318 1681.93,-307.387 1719.86,-293.493 1747.35,-283.046"/>
<polygon fill="midnightblue" stroke="midnightblue" points="1615.12,-323.962 1606.39,-329.963 1616.96,-330.717 1615.12,-323.962"/>
</g>
<!-- Node17 -->
<g id="node17" class="node"><title>Node17</title>
<g id="a_node17"><a xlink:href="../../db/d19/classslogo_1_1_u_i_1_1_module_creation_helper.html#a9b3fb38a55b3b7812b4f793afa7a974f" target="_top" xlink:title="slogo.UI.ModuleCreationHelper.create\lPlayButton">
<polygon fill="white" stroke="black" points="1204.5,-295 1204.5,-325 1401.5,-325 1401.5,-295 1204.5,-295"/>
<text text-anchor="start" x="1212.5" y="-313" font-family="Helvetica,sans-Serif" font-size="10.00">slogo.UI.ModuleCreationHelper.create</text>
<text text-anchor="middle" x="1303" y="-302" font-family="Helvetica,sans-Serif" font-size="10.00">PlayButton</text>
</a>
</g>
</g>
<!-- Node16&#45;&gt;Node17 -->
<g id="edge19" class="edge"><title>Node16&#45;&gt;Node17</title>
<path fill="none" stroke="midnightblue" d="M1173.89,-313.203C1184.04,-312.949 1194.26,-312.694 1204.27,-312.443"/>
<polygon fill="midnightblue" stroke="midnightblue" points="1173.69,-309.707 1163.78,-313.455 1173.87,-316.704 1173.69,-309.707"/>
</g>
<!-- Node18 -->
<g id="node18" class="node"><title>Node18</title>
<g id="a_node18"><a xlink:href="../../db/d19/classslogo_1_1_u_i_1_1_module_creation_helper.html#ae1e60d37509c2e5eddcb2a6e70b4f650" target="_top" xlink:title="slogo.UI.ModuleCreationHelper.create\lFirstRowButtons">
<polygon fill="white" stroke="black" points="1446.5,-279 1446.5,-309 1643.5,-309 1643.5,-279 1446.5,-279"/>
<text text-anchor="start" x="1454.5" y="-297" font-family="Helvetica,sans-Serif" font-size="10.00">slogo.UI.ModuleCreationHelper.create</text>
<text text-anchor="middle" x="1545" y="-286" font-family="Helvetica,sans-Serif" font-size="10.00">FirstRowButtons</text>
</a>
</g>
</g>
<!-- Node17&#45;&gt;Node18 -->
<g id="edge20" class="edge"><title>Node17&#45;&gt;Node18</title>
<path fill="none" stroke="midnightblue" d="M1411.73,-302.818C1423.3,-302.046 1435.03,-301.265 1446.47,-300.502"/>
<polygon fill="midnightblue" stroke="midnightblue" points="1411.36,-299.335 1401.62,-303.492 1411.83,-306.319 1411.36,-299.335"/>
</g>
<!-- Node18&#45;&gt;Node8 -->
<g id="edge21" class="edge"><title>Node18&#45;&gt;Node8</title>
<path fill="none" stroke="midnightblue" d="M1653.73,-282.329C1665.3,-281.075 1677.03,-279.805 1688.47,-278.566"/>
<polygon fill="midnightblue" stroke="midnightblue" points="1653.18,-278.868 1643.62,-283.425 1653.94,-285.827 1653.18,-278.868"/>
</g>
<!-- Node20 -->
<g id="node20" class="node"><title>Node20</title>
<g id="a_node20"><a xlink:href="../../db/d19/classslogo_1_1_u_i_1_1_module_creation_helper.html#a803bac6b55bde712b21f2face1eeef81" target="_top" xlink:title="slogo.UI.ModuleCreationHelper.create\lTurtleCanvas">
<polygon fill="white" stroke="black" points="1688.5,-87 1688.5,-117 1885.5,-117 1885.5,-87 1688.5,-87"/>
<text text-anchor="start" x="1696.5" y="-105" font-family="Helvetica,sans-Serif" font-size="10.00">slogo.UI.ModuleCreationHelper.create</text>
<text text-anchor="middle" x="1787" y="-94" font-family="Helvetica,sans-Serif" font-size="10.00">TurtleCanvas</text>
</a>
</g>
</g>
<!-- Node19&#45;&gt;Node20 -->
<g id="edge23" class="edge"><title>Node19&#45;&gt;Node20</title>
<path fill="none" stroke="midnightblue" d="M1657.89,-102C1668.04,-102 1678.26,-102 1688.27,-102"/>
<polygon fill="midnightblue" stroke="midnightblue" points="1657.78,-98.5001 1647.78,-102 1657.78,-105.5 1657.78,-98.5001"/>
</g>
<!-- Node20&#45;&gt;Node9 -->
<g id="edge24" class="edge"><title>Node20&#45;&gt;Node9</title>
<path fill="none" stroke="midnightblue" d="M1870.42,-119.113C1896.9,-124.611 1926.03,-130.658 1951.73,-135.994"/>
<polygon fill="midnightblue" stroke="midnightblue" points="1870.91,-115.641 1860.41,-117.035 1869.49,-122.495 1870.91,-115.641"/>
</g>
<!-- Node22 -->
<g id="node22" class="node"><title>Node22</title>
<g id="a_node22"><a xlink:href="../../db/d19/classslogo_1_1_u_i_1_1_module_creation_helper.html#af7f2919454fdbf6e9d7d912e99634857" target="_top" xlink:title="slogo.UI.ModuleCreationHelper.create\lSelectors">
<polygon fill="white" stroke="black" points="1204.5,-230 1204.5,-260 1401.5,-260 1401.5,-230 1204.5,-230"/>
<text text-anchor="start" x="1212.5" y="-248" font-family="Helvetica,sans-Serif" font-size="10.00">slogo.UI.ModuleCreationHelper.create</text>
<text text-anchor="middle" x="1303" y="-237" font-family="Helvetica,sans-Serif" font-size="10.00">Selectors</text>
</a>
</g>
</g>
<!-- Node21&#45;&gt;Node22 -->
<g id="edge26" class="edge"><title>Node21&#45;&gt;Node22</title>
<path fill="none" stroke="midnightblue" d="M1156.76,-261.339C1172.36,-259.585 1188.54,-257.764 1204.21,-256.002"/>
<polygon fill="midnightblue" stroke="midnightblue" points="1156.16,-257.885 1146.62,-262.481 1156.94,-264.841 1156.16,-257.885"/>
</g>
<!-- Node22&#45;&gt;Node8 -->
<g id="edge27" class="edge"><title>Node22&#45;&gt;Node8</title>
<path fill="none" stroke="midnightblue" d="M1411.74,-250.141C1494.55,-254.092 1607.97,-259.505 1688.19,-263.333"/>
<polygon fill="midnightblue" stroke="midnightblue" points="1411.7,-246.635 1401.54,-249.654 1411.36,-253.627 1411.7,-246.635"/>
</g>
<!-- Node23&#45;&gt;Node22 -->
<g id="edge29" class="edge"><title>Node23&#45;&gt;Node22</title>
<path fill="none" stroke="midnightblue" d="M1141.18,-233.609C1161.4,-235.041 1183.37,-236.597 1204.39,-238.086"/>
<polygon fill="midnightblue" stroke="midnightblue" points="1141.32,-230.11 1131.1,-232.894 1140.82,-237.092 1141.32,-230.11"/>
</g>
<!-- Node24&#45;&gt;Node22 -->
<g id="edge31" class="edge"><title>Node24&#45;&gt;Node22</title>
<path fill="none" stroke="midnightblue" d="M1129.48,-195.473C1141.04,-197.752 1152.9,-200.287 1164,-203 1195.38,-210.673 1230.18,-221.278 1256.98,-229.911"/>
<polygon fill="midnightblue" stroke="midnightblue" points="1129.9,-191.99 1119.42,-193.539 1128.58,-198.864 1129.9,-191.99"/>
</g>
<!-- Node26 -->
<g id="node26" class="node"><title>Node26</title>
<g id="a_node26"><a xlink:href="../../db/d19/classslogo_1_1_u_i_1_1_module_creation_helper.html#a9fd730f7c1860d34bf4ac46c3828bd59" target="_top" xlink:title="slogo.UI.ModuleCreationHelper.activate\lStepIntoButton">
<polygon fill="white" stroke="black" points="958.5,-49 958.5,-79 1163.5,-79 1163.5,-49 958.5,-49"/>
<text text-anchor="start" x="966.5" y="-67" font-family="Helvetica,sans-Serif" font-size="10.00">slogo.UI.ModuleCreationHelper.activate</text>
<text text-anchor="middle" x="1061" y="-56" font-family="Helvetica,sans-Serif" font-size="10.00">StepIntoButton</text>
</a>
</g>
</g>
<!-- Node25&#45;&gt;Node26 -->
<g id="edge33" class="edge"><title>Node25&#45;&gt;Node26</title>
<path fill="none" stroke="midnightblue" d="M929.334,-64C938.824,-64 948.535,-64 958.167,-64"/>
<polygon fill="midnightblue" stroke="midnightblue" points="929.137,-60.5001 919.137,-64 929.136,-67.5001 929.137,-60.5001"/>
</g>
<!-- Node27 -->
<g id="node27" class="node"><title>Node27</title>
<g id="a_node27"><a xlink:href="../../db/d19/classslogo_1_1_u_i_1_1_module_creation_helper.html#a4a6f1f009507c25be8c7c28cbba35f3b" target="_top" xlink:title="slogo.UI.ModuleCreationHelper.create\lDebugStepIntoButton">
<polygon fill="white" stroke="black" points="1204.5,-49 1204.5,-79 1401.5,-79 1401.5,-49 1204.5,-49"/>
<text text-anchor="start" x="1212.5" y="-67" font-family="Helvetica,sans-Serif" font-size="10.00">slogo.UI.ModuleCreationHelper.create</text>
<text text-anchor="middle" x="1303" y="-56" font-family="Helvetica,sans-Serif" font-size="10.00">DebugStepIntoButton</text>
</a>
</g>
</g>
<!-- Node26&#45;&gt;Node27 -->
<g id="edge34" class="edge"><title>Node26&#45;&gt;Node27</title>
<path fill="none" stroke="midnightblue" d="M1173.89,-64C1184.04,-64 1194.26,-64 1204.27,-64"/>
<polygon fill="midnightblue" stroke="midnightblue" points="1173.78,-60.5001 1163.78,-64 1173.78,-67.5001 1173.78,-60.5001"/>
</g>
<!-- Node28 -->
<g id="node28" class="node"><title>Node28</title>
<g id="a_node28"><a xlink:href="../../db/d19/classslogo_1_1_u_i_1_1_module_creation_helper.html#a975af4ea47dc85df72215bdf1a0d20ce" target="_top" xlink:title="slogo.UI.ModuleCreationHelper.create\lDebugModules">
<polygon fill="white" stroke="black" points="1446.5,-38 1446.5,-68 1643.5,-68 1643.5,-38 1446.5,-38"/>
<text text-anchor="start" x="1454.5" y="-56" font-family="Helvetica,sans-Serif" font-size="10.00">slogo.UI.ModuleCreationHelper.create</text>
<text text-anchor="middle" x="1545" y="-45" font-family="Helvetica,sans-Serif" font-size="10.00">DebugModules</text>
</a>
</g>
</g>
<!-- Node27&#45;&gt;Node28 -->
<g id="edge35" class="edge"><title>Node27&#45;&gt;Node28</title>
<path fill="none" stroke="midnightblue" d="M1411.73,-59.0622C1423.3,-58.5319 1435.03,-57.9945 1446.47,-57.4702"/>
<polygon fill="midnightblue" stroke="midnightblue" points="1411.45,-55.5716 1401.62,-59.5259 1411.77,-62.5643 1411.45,-55.5716"/>
</g>
<!-- Node28&#45;&gt;Node9 -->
<g id="edge36" class="edge"><title>Node28&#45;&gt;Node9</title>
<path fill="none" stroke="midnightblue" d="M1653.63,-48.679C1722.53,-48.779 1813.11,-54.2973 1890,-77 1933.33,-89.7936 1978.2,-118.228 2003.46,-135.889"/>
<polygon fill="midnightblue" stroke="midnightblue" points="1653.61,-45.1789 1643.62,-48.7021 1653.63,-52.1789 1653.61,-45.1789"/>
</g>
<!-- Node30 -->
<g id="node30" class="node"><title>Node30</title>
<g id="a_node30"><a xlink:href="../../db/d19/classslogo_1_1_u_i_1_1_module_creation_helper.html#a0fed0bb32bf2643d6fd5c24d82e8e18e" target="_top" xlink:title="slogo.UI.ModuleCreationHelper.activate\lStepOverButton">
<polygon fill="white" stroke="black" points="958.5,-0 958.5,-30 1163.5,-30 1163.5,-0 958.5,-0"/>
<text text-anchor="start" x="966.5" y="-18" font-family="Helvetica,sans-Serif" font-size="10.00">slogo.UI.ModuleCreationHelper.activate</text>
<text text-anchor="middle" x="1061" y="-7" font-family="Helvetica,sans-Serif" font-size="10.00">StepOverButton</text>
</a>
</g>
</g>
<!-- Node29&#45;&gt;Node30 -->
<g id="edge38" class="edge"><title>Node29&#45;&gt;Node30</title>
<path fill="none" stroke="midnightblue" d="M931.803,-18.5123C940.557,-18.2724 949.477,-18.028 958.327,-17.7856"/>
<polygon fill="midnightblue" stroke="midnightblue" points="931.515,-15.0187 921.615,-18.7914 931.707,-22.0161 931.515,-15.0187"/>
</g>
<!-- Node31 -->
<g id="node31" class="node"><title>Node31</title>
<g id="a_node31"><a xlink:href="../../db/d19/classslogo_1_1_u_i_1_1_module_creation_helper.html#aa1e7dc2b509360583790fba0d3819c8d" target="_top" xlink:title="slogo.UI.ModuleCreationHelper.create\lDebugStepOverButton">
<polygon fill="white" stroke="black" points="1204.5,-0 1204.5,-30 1401.5,-30 1401.5,-0 1204.5,-0"/>
<text text-anchor="start" x="1212.5" y="-18" font-family="Helvetica,sans-Serif" font-size="10.00">slogo.UI.ModuleCreationHelper.create</text>
<text text-anchor="middle" x="1303" y="-7" font-family="Helvetica,sans-Serif" font-size="10.00">DebugStepOverButton</text>
</a>
</g>
</g>
<!-- Node30&#45;&gt;Node31 -->
<g id="edge39" class="edge"><title>Node30&#45;&gt;Node31</title>
<path fill="none" stroke="midnightblue" d="M1173.89,-15C1184.04,-15 1194.26,-15 1204.27,-15"/>
<polygon fill="midnightblue" stroke="midnightblue" points="1173.78,-11.5001 1163.78,-15 1173.78,-18.5001 1173.78,-11.5001"/>
</g>
<!-- Node31&#45;&gt;Node28 -->
<g id="edge40" class="edge"><title>Node31&#45;&gt;Node28</title>
<path fill="none" stroke="midnightblue" d="M1408.99,-31.6227C1422.31,-33.7329 1435.89,-35.8827 1449.05,-37.966"/>
<polygon fill="midnightblue" stroke="midnightblue" points="1409.28,-28.1256 1398.85,-30.0186 1408.18,-35.0395 1409.28,-28.1256"/>
</g>
</g>
</svg>
