<?xml version="1.0" encoding="UTF-8" standalone="no"?>
<!DOCTYPE svg PUBLIC "-//W3C//DTD SVG 1.1//EN"
 "http://www.w3.org/Graphics/SVG/1.1/DTD/svg11.dtd">
<!-- Generated by graphviz version 2.36.0 (20140111.2315)
 -->
<!-- Title: slogo.UI.Turtle.Turtle Pages: 1 -->
<svg width="486pt" height="202pt"
 viewBox="0.00 0.00 486.00 202.00" xmlns="http://www.w3.org/2000/svg" xmlns:xlink="http://www.w3.org/1999/xlink">
<g id="graph0" class="graph" transform="scale(1 1) rotate(0) translate(4 198)">
<title>slogo.UI.Turtle.Turtle</title>
<polygon fill="white" stroke="none" points="-4,4 -4,-198 482,-198 482,4 -4,4"/>
<!-- Node1 -->
<g id="node1" class="node"><title>Node1</title>
<polygon fill="#bfbfbf" stroke="black" points="0,-76.5 0,-95.5 112,-95.5 112,-76.5 0,-76.5"/>
<text text-anchor="middle" x="56" y="-83.5" font-family="Helvetica,sans-Serif" font-size="10.00">slogo.UI.Turtle.Turtle</text>
</g>
<!-- Node2 -->
<g id="node2" class="node"><title>Node2</title>
<g id="a_node2"><a xlink:href="../../d5/deb/classslogo_1_1_u_i_1_1_turtle.html#ab393341907a3b0fd4eac48816b75a83a" target="_top" xlink:title="slogo.UI.Turtle.activate\lTurtle">
<polygon fill="white" stroke="black" points="169.5,-164 169.5,-194 294.5,-194 294.5,-164 169.5,-164"/>
<text text-anchor="start" x="177.5" y="-182" font-family="Helvetica,sans-Serif" font-size="10.00">slogo.UI.Turtle.activate</text>
<text text-anchor="middle" x="232" y="-171" font-family="Helvetica,sans-Serif" font-size="10.00">Turtle</text>
</a>
</g>
</g>
<!-- Node1&#45;&gt;Node2 -->
<g id="edge1" class="edge"><title>Node1&#45;&gt;Node2</title>
<path fill="none" stroke="midnightblue" d="M67.3815,-95.7087C83.4776,-110.285 115.951,-137.835 148,-154 152.503,-156.271 157.25,-158.377 162.1,-160.32"/>
<polygon fill="midnightblue" stroke="midnightblue" points="160.923,-163.617 171.515,-163.86 163.386,-157.065 160.923,-163.617"/>
</g>
<!-- Node3 -->
<g id="node3" class="node"><title>Node3</title>
<g id="a_node3"><a xlink:href="../../d5/deb/classslogo_1_1_u_i_1_1_turtle.html#a80d34c27eafebc47e6a1c5bffb104945" target="_top" xlink:title="slogo.UI.Turtle.generate\lSelectorMap">
<polygon fill="white" stroke="black" points="167,-115 167,-145 297,-145 297,-115 167,-115"/>
<text text-anchor="start" x="175" y="-133" font-family="Helvetica,sans-Serif" font-size="10.00">slogo.UI.Turtle.generate</text>
<text text-anchor="middle" x="232" y="-122" font-family="Helvetica,sans-Serif" font-size="10.00">SelectorMap</text>
</a>
</g>
</g>
<!-- Node1&#45;&gt;Node3 -->
<g id="edge2" class="edge"><title>Node1&#45;&gt;Node3</title>
<path fill="none" stroke="midnightblue" d="M94.7554,-95.5473C114.258,-100.479 138.684,-106.656 161.448,-112.412"/>
<polygon fill="midnightblue" stroke="midnightblue" points="160.87,-115.876 171.423,-114.935 162.587,-109.09 160.87,-115.876"/>
</g>
<!-- Node4 -->
<g id="node4" class="node"><title>Node4</title>
<g id="a_node4"><a xlink:href="../../d5/deb/classslogo_1_1_u_i_1_1_turtle.html#af262fa0e157c69c307a2e9aac351c510" target="_top" xlink:title="slogo.UI.Turtle.initialImagesMap">
<polygon fill="white" stroke="black" points="148.5,-76.5 148.5,-95.5 315.5,-95.5 315.5,-76.5 148.5,-76.5"/>
<text text-anchor="middle" x="232" y="-83.5" font-family="Helvetica,sans-Serif" font-size="10.00">slogo.UI.Turtle.initialImagesMap</text>
</a>
</g>
</g>
<!-- Node1&#45;&gt;Node4 -->
<g id="edge3" class="edge"><title>Node1&#45;&gt;Node4</title>
<path fill="none" stroke="midnightblue" d="M112.055,-86C120.446,-86 129.298,-86 138.231,-86"/>
<polygon fill="midnightblue" stroke="midnightblue" points="138.331,-89.5001 148.331,-86 138.331,-82.5001 138.331,-89.5001"/>
</g>
<!-- Node5 -->
<g id="node5" class="node"><title>Node5</title>
<g id="a_node5"><a xlink:href="../../d5/deb/classslogo_1_1_u_i_1_1_turtle.html#a678c8daca68b92f79f73967a8be0f269" target="_top" xlink:title="slogo.UI.Turtle.moveTurtle">
<polygon fill="white" stroke="black" points="162.5,-38.5 162.5,-57.5 301.5,-57.5 301.5,-38.5 162.5,-38.5"/>
<text text-anchor="middle" x="232" y="-45.5" font-family="Helvetica,sans-Serif" font-size="10.00">slogo.UI.Turtle.moveTurtle</text>
</a>
</g>
</g>
<!-- Node1&#45;&gt;Node5 -->
<g id="edge4" class="edge"><title>Node1&#45;&gt;Node5</title>
<path fill="none" stroke="midnightblue" d="M100.908,-76.411C124.179,-71.3287 152.954,-65.0446 177.519,-59.6797"/>
<polygon fill="midnightblue" stroke="midnightblue" points="178.385,-63.0732 187.408,-57.5201 176.892,-56.2343 178.385,-63.0732"/>
</g>
<!-- Node8 -->
<g id="node8" class="node"><title>Node8</title>
<g id="a_node8"><a xlink:href="../../d5/deb/classslogo_1_1_u_i_1_1_turtle.html#a3668db47c95c920dff92209832467a0f" target="_top" xlink:title="slogo.UI.Turtle.setOrientation">
<polygon fill="white" stroke="black" points="154.5,-0.5 154.5,-19.5 309.5,-19.5 309.5,-0.5 154.5,-0.5"/>
<text text-anchor="middle" x="232" y="-7.5" font-family="Helvetica,sans-Serif" font-size="10.00">slogo.UI.Turtle.setOrientation</text>
</a>
</g>
</g>
<!-- Node1&#45;&gt;Node8 -->
<g id="edge7" class="edge"><title>Node1&#45;&gt;Node8</title>
<path fill="none" stroke="midnightblue" d="M69.224,-76.4548C86.04,-63.7815 117.683,-41.5441 148,-29 154.149,-26.4558 160.702,-24.2189 167.326,-22.2599"/>
<polygon fill="midnightblue" stroke="midnightblue" points="168.332,-25.6133 177.045,-19.5851 166.474,-18.8643 168.332,-25.6133"/>
</g>
<!-- Node6 -->
<g id="node6" class="node"><title>Node6</title>
<g id="a_node6"><a xlink:href="../../d5/deb/classslogo_1_1_u_i_1_1_turtle.html#a85f06fd2596915a4b658293482a7c041" target="_top" xlink:title="slogo.UI.Turtle.setXPos">
<polygon fill="white" stroke="black" points="352.5,-57.5 352.5,-76.5 477.5,-76.5 477.5,-57.5 352.5,-57.5"/>
<text text-anchor="middle" x="415" y="-64.5" font-family="Helvetica,sans-Serif" font-size="10.00">slogo.UI.Turtle.setXPos</text>
</a>
</g>
</g>
<!-- Node5&#45;&gt;Node6 -->
<g id="edge5" class="edge"><title>Node5&#45;&gt;Node6</title>
<path fill="none" stroke="midnightblue" d="M301.686,-55.2102C314.995,-56.6072 328.973,-58.0745 342.373,-59.4812"/>
<polygon fill="midnightblue" stroke="midnightblue" points="342.177,-62.9797 352.487,-60.5429 342.907,-56.0179 342.177,-62.9797"/>
</g>
<!-- Node7 -->
<g id="node7" class="node"><title>Node7</title>
<g id="a_node7"><a xlink:href="../../d5/deb/classslogo_1_1_u_i_1_1_turtle.html#a2e077221329000d9c17edcdaa0a83489" target="_top" xlink:title="slogo.UI.Turtle.setYPos">
<polygon fill="white" stroke="black" points="353,-19.5 353,-38.5 477,-38.5 477,-19.5 353,-19.5"/>
<text text-anchor="middle" x="415" y="-26.5" font-family="Helvetica,sans-Serif" font-size="10.00">slogo.UI.Turtle.setYPos</text>
</a>
</g>
</g>
<!-- Node5&#45;&gt;Node7 -->
<g id="edge6" class="edge"><title>Node5&#45;&gt;Node7</title>
<path fill="none" stroke="midnightblue" d="M301.686,-40.7898C315.075,-39.3844 329.141,-37.9079 342.614,-36.4936"/>
<polygon fill="midnightblue" stroke="midnightblue" points="343.201,-39.9513 352.781,-35.4263 342.47,-32.9895 343.201,-39.9513"/>
</g>
</g>
</svg>
