<?xml version="1.0" encoding="UTF-8" standalone="no"?>
<!DOCTYPE svg PUBLIC "-//W3C//DTD SVG 1.1//EN"
 "http://www.w3.org/Graphics/SVG/1.1/DTD/svg11.dtd">
<!-- Generated by graphviz version 2.36.0 (20140111.2315)
 -->
<!-- Title: slogo.UI.Turtle.setOrientation Pages: 1 -->
<svg width="2928pt" height="428pt"
 viewBox="0.00 0.00 2928.00 428.00" xmlns="http://www.w3.org/2000/svg" xmlns:xlink="http://www.w3.org/1999/xlink">
<g id="graph0" class="graph" transform="scale(1 1) rotate(0) translate(4 424)">
<title>slogo.UI.Turtle.setOrientation</title>
<polygon fill="white" stroke="none" points="-4,4 -4,-424 2924,-424 2924,4 -4,4"/>
<!-- Node1 -->
<g id="node1" class="node"><title>Node1</title>
<polygon fill="#bfbfbf" stroke="black" points="0.5,-33.5 0.5,-52.5 155.5,-52.5 155.5,-33.5 0.5,-33.5"/>
<text text-anchor="middle" x="78" y="-40.5" font-family="Helvetica,sans-Serif" font-size="10.00">slogo.UI.Turtle.setOrientation</text>
</g>
<!-- Node2 -->
<g id="node2" class="node"><title>Node2</title>
<g id="a_node2"><a xlink:href="../../d9/d7e/classslogo_1_1_u_i_1_1_method_runner.html#a01eb2d18b4b4b26c83cb80be902a9b96" target="_top" xlink:title="slogo.UI.MethodRunner.set\lTurtleDirection">
<polygon fill="white" stroke="black" points="192,-50 192,-80 336,-80 336,-50 192,-50"/>
<text text-anchor="start" x="200" y="-68" font-family="Helvetica,sans-Serif" font-size="10.00">slogo.UI.MethodRunner.set</text>
<text text-anchor="middle" x="264" y="-57" font-family="Helvetica,sans-Serif" font-size="10.00">TurtleDirection</text>
</a>
</g>
</g>
<!-- Node1&#45;&gt;Node2 -->
<g id="edge1" class="edge"><title>Node1&#45;&gt;Node2</title>
<path fill="none" stroke="midnightblue" d="M165.833,-53.3822C174.504,-54.419 183.237,-55.4631 191.721,-56.4776"/>
<polygon fill="midnightblue" stroke="midnightblue" points="166.045,-49.8827 155.7,-52.1707 165.214,-56.8332 166.045,-49.8827"/>
</g>
<!-- Node33 -->
<g id="node33" class="node"><title>Node33</title>
<g id="a_node33"><a xlink:href="../../d5/deb/classslogo_1_1_u_i_1_1_turtle.html#a677d21287d8b754ce9b12fe2004f90dc" target="_top" xlink:title="slogo.UI.Turtle.Turtle">
<polygon fill="white" stroke="black" points="208,-11.5 208,-30.5 320,-30.5 320,-11.5 208,-11.5"/>
<text text-anchor="middle" x="264" y="-18.5" font-family="Helvetica,sans-Serif" font-size="10.00">slogo.UI.Turtle.Turtle</text>
</a>
</g>
</g>
<!-- Node1&#45;&gt;Node33 -->
<g id="edge42" class="edge"><title>Node1&#45;&gt;Node33</title>
<path fill="none" stroke="midnightblue" d="M165.636,-32.6413C180.055,-30.9174 194.65,-29.1723 207.997,-27.5764"/>
<polygon fill="midnightblue" stroke="midnightblue" points="165.214,-29.1668 155.7,-33.8293 166.045,-36.1173 165.214,-29.1668"/>
</g>
<!-- Node3 -->
<g id="node3" class="node"><title>Node3</title>
<g id="a_node3"><a xlink:href="../../d9/d7e/classslogo_1_1_u_i_1_1_method_runner.html#a5fe4a6310ba1b0851d7d30a440511324" target="_top" xlink:title="slogo.UI.MethodRunner.change\lTurtle">
<polygon fill="white" stroke="black" points="372,-50 372,-80 536,-80 536,-50 372,-50"/>
<text text-anchor="start" x="380" y="-68" font-family="Helvetica,sans-Serif" font-size="10.00">slogo.UI.MethodRunner.change</text>
<text text-anchor="middle" x="454" y="-57" font-family="Helvetica,sans-Serif" font-size="10.00">Turtle</text>
</a>
</g>
</g>
<!-- Node2&#45;&gt;Node3 -->
<g id="edge2" class="edge"><title>Node2&#45;&gt;Node3</title>
<path fill="none" stroke="midnightblue" d="M346.28,-65C354.719,-65 363.298,-65 371.736,-65"/>
<polygon fill="midnightblue" stroke="midnightblue" points="346.075,-61.5001 336.075,-65 346.075,-68.5001 346.075,-61.5001"/>
</g>
<!-- Node4 -->
<g id="node4" class="node"><title>Node4</title>
<g id="a_node4"><a xlink:href="../../df/d2d/classslogo_1_1_view.html#accc79c56511a72090ff8a4d414b8d1f5" target="_top" xlink:title="slogo.View.executeTurtle\lCommands">
<polygon fill="white" stroke="black" points="572.5,-50 572.5,-80 705.5,-80 705.5,-50 572.5,-50"/>
<text text-anchor="start" x="580.5" y="-68" font-family="Helvetica,sans-Serif" font-size="10.00">slogo.View.executeTurtle</text>
<text text-anchor="middle" x="639" y="-57" font-family="Helvetica,sans-Serif" font-size="10.00">Commands</text>
</a>
</g>
</g>
<!-- Node3&#45;&gt;Node4 -->
<g id="edge3" class="edge"><title>Node3&#45;&gt;Node4</title>
<path fill="none" stroke="midnightblue" d="M546.35,-65C555.128,-65 563.907,-65 572.365,-65"/>
<polygon fill="midnightblue" stroke="midnightblue" points="546.066,-61.5001 536.066,-65 546.066,-68.5001 546.066,-61.5001"/>
</g>
<!-- Node5 -->
<g id="node5" class="node"><title>Node5</title>
<g id="a_node5"><a xlink:href="../../df/d2d/classslogo_1_1_view.html#aa90e5d95d422b58b7f4b7f8a049defe1" target="_top" xlink:title="slogo.View.executeCommand">
<polygon fill="white" stroke="black" points="742,-55.5 742,-74.5 900,-74.5 900,-55.5 742,-55.5"/>
<text text-anchor="middle" x="821" y="-62.5" font-family="Helvetica,sans-Serif" font-size="10.00">slogo.View.executeCommand</text>
</a>
</g>
</g>
<!-- Node4&#45;&gt;Node5 -->
<g id="edge4" class="edge"><title>Node4&#45;&gt;Node5</title>
<path fill="none" stroke="midnightblue" d="M715.784,-65C724.42,-65 733.235,-65 741.901,-65"/>
<polygon fill="midnightblue" stroke="midnightblue" points="715.748,-61.5001 705.748,-65 715.748,-68.5001 715.748,-61.5001"/>
</g>
<!-- Node6 -->
<g id="node6" class="node"><title>Node6</title>
<g id="a_node6"><a xlink:href="../../df/d2d/classslogo_1_1_view.html#aee563f6a0b15ac6668e4dcbdad40c73c" target="_top" xlink:title="slogo.View.sendCommandTo\lBackend">
<polygon fill="white" stroke="black" points="942,-214 942,-244 1094,-244 1094,-214 942,-214"/>
<text text-anchor="start" x="950" y="-232" font-family="Helvetica,sans-Serif" font-size="10.00">slogo.View.sendCommandTo</text>
<text text-anchor="middle" x="1018" y="-221" font-family="Helvetica,sans-Serif" font-size="10.00">Backend</text>
</a>
</g>
</g>
<!-- Node5&#45;&gt;Node6 -->
<g id="edge5" class="edge"><title>Node5&#45;&gt;Node6</title>
<path fill="none" stroke="midnightblue" d="M841.054,-81.0252C878.765,-112.741 962.433,-183.108 999.146,-213.984"/>
<polygon fill="midnightblue" stroke="midnightblue" points="843.233,-78.2841 833.327,-74.5262 838.727,-83.6414 843.233,-78.2841"/>
</g>
<!-- Node26 -->
<g id="node26" class="node"><title>Node26</title>
<g id="a_node26"><a xlink:href="../../df/d2d/classslogo_1_1_view.html#a4c3084a198acf85804800d70eff9ee51" target="_top" xlink:title="slogo.View.stepIntoCommand">
<polygon fill="white" stroke="black" points="939,-55.5 939,-74.5 1097,-74.5 1097,-55.5 939,-55.5"/>
<text text-anchor="middle" x="1018" y="-62.5" font-family="Helvetica,sans-Serif" font-size="10.00">slogo.View.stepIntoCommand</text>
</a>
</g>
</g>
<!-- Node5&#45;&gt;Node26 -->
<g id="edge33" class="edge"><title>Node5&#45;&gt;Node26</title>
<path fill="none" stroke="midnightblue" d="M910.402,-65C919.87,-65 929.454,-65 938.792,-65"/>
<polygon fill="midnightblue" stroke="midnightblue" points="910.19,-61.5001 900.19,-65 910.19,-68.5001 910.19,-61.5001"/>
</g>
<!-- Node30 -->
<g id="node30" class="node"><title>Node30</title>
<g id="a_node30"><a xlink:href="../../df/d2d/classslogo_1_1_view.html#ac8b7f574c679e744a430f1649dc55e68" target="_top" xlink:title="slogo.View.stepOverCommand">
<polygon fill="white" stroke="black" points="936.5,-12.5 936.5,-31.5 1099.5,-31.5 1099.5,-12.5 936.5,-12.5"/>
<text text-anchor="middle" x="1018" y="-19.5" font-family="Helvetica,sans-Serif" font-size="10.00">slogo.View.stepOverCommand</text>
</a>
</g>
</g>
<!-- Node5&#45;&gt;Node30 -->
<g id="edge38" class="edge"><title>Node5&#45;&gt;Node30</title>
<path fill="none" stroke="midnightblue" d="M875.056,-53.3005C906.068,-46.462 944.711,-37.9406 973.844,-31.5164"/>
<polygon fill="midnightblue" stroke="midnightblue" points="874.288,-49.8855 865.277,-55.4569 875.796,-56.7213 874.288,-49.8855"/>
</g>
<!-- Node7 -->
<g id="node7" class="node"><title>Node7</title>
<g id="a_node7"><a xlink:href="../../db/d19/classslogo_1_1_u_i_1_1_module_creation_helper.html#a69e17abcc7cf9a6ed7261d8fb1d631fa" target="_top" xlink:title="slogo.UI.ModuleCreationHelper.activate\lIncreaseDecreaseButtons">
<polygon fill="white" stroke="black" points="1136.5,-390 1136.5,-420 1341.5,-420 1341.5,-390 1136.5,-390"/>
<text text-anchor="start" x="1144.5" y="-408" font-family="Helvetica,sans-Serif" font-size="10.00">slogo.UI.ModuleCreationHelper.activate</text>
<text text-anchor="middle" x="1239" y="-397" font-family="Helvetica,sans-Serif" font-size="10.00">IncreaseDecreaseButtons</text>
</a>
</g>
</g>
<!-- Node6&#45;&gt;Node7 -->
<g id="edge6" class="edge"><title>Node6&#45;&gt;Node7</title>
<path fill="none" stroke="midnightblue" d="M1032.04,-253.219C1050.78,-285.724 1088.36,-343.06 1136,-375 1145.12,-381.116 1155.51,-386.01 1166.09,-389.919"/>
<polygon fill="midnightblue" stroke="midnightblue" points="1035.01,-251.361 1027.05,-244.368 1028.91,-254.798 1035.01,-251.361"/>
</g>
<!-- Node14 -->
<g id="node14" class="node"><title>Node14</title>
<g id="a_node14"><a xlink:href="../../db/d19/classslogo_1_1_u_i_1_1_module_creation_helper.html#aa70b0ad9e90e62509149bfd2ef2ba209" target="_top" xlink:title="slogo.UI.ModuleCreationHelper.activate\lKeyEvents">
<polygon fill="white" stroke="black" points="1862.5,-137 1862.5,-167 2067.5,-167 2067.5,-137 1862.5,-137"/>
<text text-anchor="start" x="1870.5" y="-155" font-family="Helvetica,sans-Serif" font-size="10.00">slogo.UI.ModuleCreationHelper.activate</text>
<text text-anchor="middle" x="1965" y="-144" font-family="Helvetica,sans-Serif" font-size="10.00">KeyEvents</text>
</a>
</g>
</g>
<!-- Node6&#45;&gt;Node14 -->
<g id="edge14" class="edge"><title>Node6&#45;&gt;Node14</title>
<path fill="none" stroke="midnightblue" d="M1048.18,-208.164C1070.9,-193.251 1103.88,-174.388 1136,-166 1270.15,-130.97 1672.16,-140.777 1862.26,-147.744"/>
<polygon fill="midnightblue" stroke="midnightblue" points="1046.05,-205.378 1039.7,-213.86 1049.95,-211.189 1046.05,-205.378"/>
</g>
<!-- Node15 -->
<g id="node15" class="node"><title>Node15</title>
<g id="a_node15"><a xlink:href="../../db/d19/classslogo_1_1_u_i_1_1_module_creation_helper.html#a2e841243ec3ca474e8822102343acc88" target="_top" xlink:title="slogo.UI.ModuleCreationHelper.activate\lNewTurtleButton">
<polygon fill="white" stroke="black" points="1378.5,-345 1378.5,-375 1583.5,-375 1583.5,-345 1378.5,-345"/>
<text text-anchor="start" x="1386.5" y="-363" font-family="Helvetica,sans-Serif" font-size="10.00">slogo.UI.ModuleCreationHelper.activate</text>
<text text-anchor="middle" x="1481" y="-352" font-family="Helvetica,sans-Serif" font-size="10.00">NewTurtleButton</text>
</a>
</g>
</g>
<!-- Node6&#45;&gt;Node15 -->
<g id="edge16" class="edge"><title>Node6&#45;&gt;Node15</title>
<path fill="none" stroke="midnightblue" d="M1035.02,-252.155C1055.1,-279.009 1092.24,-322.013 1136,-341 1212.41,-374.152 1307.47,-376.86 1378.29,-372.435"/>
<polygon fill="midnightblue" stroke="midnightblue" points="1037.83,-250.073 1029.11,-244.055 1032.18,-254.197 1037.83,-250.073"/>
</g>
<!-- Node17 -->
<g id="node17" class="node"><title>Node17</title>
<g id="a_node17"><a xlink:href="../../db/d19/classslogo_1_1_u_i_1_1_module_creation_helper.html#a9b1f07ab673191067907a059b1b0c524" target="_top" xlink:title="slogo.UI.ModuleCreationHelper.activate\lPlayButton">
<polygon fill="white" stroke="black" points="1136.5,-302 1136.5,-332 1341.5,-332 1341.5,-302 1136.5,-302"/>
<text text-anchor="start" x="1144.5" y="-320" font-family="Helvetica,sans-Serif" font-size="10.00">slogo.UI.ModuleCreationHelper.activate</text>
<text text-anchor="middle" x="1239" y="-309" font-family="Helvetica,sans-Serif" font-size="10.00">PlayButton</text>
</a>
</g>
</g>
<!-- Node6&#45;&gt;Node17 -->
<g id="edge19" class="edge"><title>Node6&#45;&gt;Node17</title>
<path fill="none" stroke="midnightblue" d="M1051.42,-249.354C1074.33,-263.006 1106.16,-280.522 1136,-292 1145.7,-295.73 1156.14,-299.039 1166.5,-301.929"/>
<polygon fill="midnightblue" stroke="midnightblue" points="1053.16,-246.317 1042.79,-244.145 1049.54,-252.31 1053.16,-246.317"/>
</g>
<!-- Node20 -->
<g id="node20" class="node"><title>Node20</title>
<g id="a_node20"><a xlink:href="../../db/d19/classslogo_1_1_u_i_1_1_module_creation_helper.html#a3a38d485562cb17591ec3fd07cffc18a" target="_top" xlink:title="slogo.UI.ModuleCreationHelper.activate\lTurtleCanvas">
<polygon fill="white" stroke="black" points="1620.5,-88 1620.5,-118 1825.5,-118 1825.5,-88 1620.5,-88"/>
<text text-anchor="start" x="1628.5" y="-106" font-family="Helvetica,sans-Serif" font-size="10.00">slogo.UI.ModuleCreationHelper.activate</text>
<text text-anchor="middle" x="1723" y="-95" font-family="Helvetica,sans-Serif" font-size="10.00">TurtleCanvas</text>
</a>
</g>
</g>
<!-- Node6&#45;&gt;Node20 -->
<g id="edge23" class="edge"><title>Node6&#45;&gt;Node20</title>
<path fill="none" stroke="midnightblue" d="M1038.37,-206.232C1059.63,-183.064 1096.1,-148.434 1136,-133 1221.51,-99.92 1476.48,-98.5272 1620.33,-100.616"/>
<polygon fill="midnightblue" stroke="midnightblue" points="1035.56,-204.115 1031.5,-213.898 1040.78,-208.786 1035.56,-204.115"/>
</g>
<!-- Node22 -->
<g id="node22" class="node"><title>Node22</title>
<g id="a_node22"><a xlink:href="../../d1/d5f/classslogo_1_1_u_i_1_1_path_color_selector.html#ad3d9c82a0904c97edcec7cf67b85bd7b" target="_top" xlink:title="slogo.UI.PathColorSelector.create">
<polygon fill="white" stroke="black" points="1151,-263.5 1151,-282.5 1327,-282.5 1327,-263.5 1151,-263.5"/>
<text text-anchor="middle" x="1239" y="-270.5" font-family="Helvetica,sans-Serif" font-size="10.00">slogo.UI.PathColorSelector.create</text>
</a>
</g>
</g>
<!-- Node6&#45;&gt;Node22 -->
<g id="edge26" class="edge"><title>Node6&#45;&gt;Node22</title>
<path fill="none" stroke="midnightblue" d="M1101.74,-246.065C1113.24,-248.411 1124.91,-250.776 1136,-253 1153.25,-256.46 1172.16,-260.186 1188.95,-263.473"/>
<polygon fill="midnightblue" stroke="midnightblue" points="1102.19,-242.585 1091.69,-244.013 1100.79,-249.443 1102.19,-242.585"/>
</g>
<!-- Node24 -->
<g id="node24" class="node"><title>Node24</title>
<g id="a_node24"><a xlink:href="../../d4/d8d/classslogo_1_1_u_i_1_1_background_color_selector.html#ad75ba4ce104e071811d0fe039a4e839f" target="_top" xlink:title="slogo.UI.BackgroundColor\lSelector.create">
<polygon fill="white" stroke="black" points="1169,-214 1169,-244 1309,-244 1309,-214 1169,-214"/>
<text text-anchor="start" x="1177" y="-232" font-family="Helvetica,sans-Serif" font-size="10.00">slogo.UI.BackgroundColor</text>
<text text-anchor="middle" x="1239" y="-221" font-family="Helvetica,sans-Serif" font-size="10.00">Selector.create</text>
</a>
</g>
</g>
<!-- Node6&#45;&gt;Node24 -->
<g id="edge29" class="edge"><title>Node6&#45;&gt;Node24</title>
<path fill="none" stroke="midnightblue" d="M1104.14,-229C1125.6,-229 1148.37,-229 1168.93,-229"/>
<polygon fill="midnightblue" stroke="midnightblue" points="1104.06,-225.5 1094.06,-229 1104.06,-232.5 1104.06,-225.5"/>
</g>
<!-- Node25 -->
<g id="node25" class="node"><title>Node25</title>
<g id="a_node25"><a xlink:href="../../dd/da7/classslogo_1_1_u_i_1_1_turtle_image_selector.html#a3f268d9196ffebcbb5dc322d2897a9fe" target="_top" xlink:title="slogo.UI.TurtleImageSelector.create">
<polygon fill="white" stroke="black" points="1146,-175.5 1146,-194.5 1332,-194.5 1332,-175.5 1146,-175.5"/>
<text text-anchor="middle" x="1239" y="-182.5" font-family="Helvetica,sans-Serif" font-size="10.00">slogo.UI.TurtleImageSelector.create</text>
</a>
</g>
</g>
<!-- Node6&#45;&gt;Node25 -->
<g id="edge31" class="edge"><title>Node6&#45;&gt;Node25</title>
<path fill="none" stroke="midnightblue" d="M1101.74,-211.935C1113.24,-209.589 1124.91,-207.224 1136,-205 1153.25,-201.54 1172.16,-197.814 1188.95,-194.527"/>
<polygon fill="midnightblue" stroke="midnightblue" points="1100.79,-208.557 1091.69,-213.987 1102.19,-215.415 1100.79,-208.557"/>
</g>
<!-- Node8 -->
<g id="node8" class="node"><title>Node8</title>
<g id="a_node8"><a xlink:href="../../db/d19/classslogo_1_1_u_i_1_1_module_creation_helper.html#adce7362386f9a7b3006e7db08a2d578d" target="_top" xlink:title="slogo.UI.ModuleCreationHelper.create\lIncreaseDecreaseButtons">
<polygon fill="white" stroke="black" points="1624.5,-381 1624.5,-411 1821.5,-411 1821.5,-381 1624.5,-381"/>
<text text-anchor="start" x="1632.5" y="-399" font-family="Helvetica,sans-Serif" font-size="10.00">slogo.UI.ModuleCreationHelper.create</text>
<text text-anchor="middle" x="1723" y="-388" font-family="Helvetica,sans-Serif" font-size="10.00">IncreaseDecreaseButtons</text>
</a>
</g>
</g>
<!-- Node7&#45;&gt;Node8 -->
<g id="edge7" class="edge"><title>Node7&#45;&gt;Node8</title>
<path fill="none" stroke="midnightblue" d="M1351.79,-402.913C1434.23,-401.373 1545.29,-399.299 1624.21,-397.826"/>
<polygon fill="midnightblue" stroke="midnightblue" points="1351.56,-399.416 1341.63,-403.102 1351.69,-406.415 1351.56,-399.416"/>
</g>
<!-- Node9 -->
<g id="node9" class="node"><title>Node9</title>
<g id="a_node9"><a xlink:href="../../db/d19/classslogo_1_1_u_i_1_1_module_creation_helper.html#a7c650957b2389d6e6d36e8be8a33cd2b" target="_top" xlink:title="slogo.UI.ModuleCreationHelper.create\lSelectorVBoxModules">
<polygon fill="white" stroke="black" points="1866.5,-254 1866.5,-284 2063.5,-284 2063.5,-254 1866.5,-254"/>
<text text-anchor="start" x="1874.5" y="-272" font-family="Helvetica,sans-Serif" font-size="10.00">slogo.UI.ModuleCreationHelper.create</text>
<text text-anchor="middle" x="1965" y="-261" font-family="Helvetica,sans-Serif" font-size="10.00">SelectorVBoxModules</text>
</a>
</g>
</g>
<!-- Node8&#45;&gt;Node9 -->
<g id="edge8" class="edge"><title>Node8&#45;&gt;Node9</title>
<path fill="none" stroke="midnightblue" d="M1807,-377.732C1813.54,-375.424 1819.95,-372.854 1826,-370 1874.6,-347.077 1923.46,-306.079 1947.92,-284.025"/>
<polygon fill="midnightblue" stroke="midnightblue" points="1805.75,-374.461 1797.36,-380.93 1807.95,-381.105 1805.75,-374.461"/>
</g>
<!-- Node10 -->
<g id="node10" class="node"><title>Node10</title>
<g id="a_node10"><a xlink:href="../../db/d19/classslogo_1_1_u_i_1_1_module_creation_helper.html#afb9dbbbad7d872234a5b296fe129a34e" target="_top" xlink:title="slogo.UI.ModuleCreationHelper.create\lMainPageModules">
<polygon fill="white" stroke="black" points="2104.5,-137 2104.5,-167 2301.5,-167 2301.5,-137 2104.5,-137"/>
<text text-anchor="start" x="2112.5" y="-155" font-family="Helvetica,sans-Serif" font-size="10.00">slogo.UI.ModuleCreationHelper.create</text>
<text text-anchor="middle" x="2203" y="-144" font-family="Helvetica,sans-Serif" font-size="10.00">MainPageModules</text>
</a>
</g>
</g>
<!-- Node9&#45;&gt;Node10 -->
<g id="edge9" class="edge"><title>Node9&#45;&gt;Node10</title>
<path fill="none" stroke="midnightblue" d="M2005.58,-249.38C2052.29,-226.222 2128.96,-188.212 2171.37,-167.184"/>
<polygon fill="midnightblue" stroke="midnightblue" points="2003.77,-246.366 1996.37,-253.944 2006.88,-252.638 2003.77,-246.366"/>
</g>
<!-- Node11 -->
<g id="node11" class="node"><title>Node11</title>
<g id="a_node11"><a xlink:href="../../d9/d33/classslogo_1_1_u_i_1_1_main.html#a15b7f2e399ee24d160550993ab737e73" target="_top" xlink:title="slogo.UI.Main.start">
<polygon fill="white" stroke="black" points="2338,-151.5 2338,-170.5 2444,-170.5 2444,-151.5 2338,-151.5"/>
<text text-anchor="middle" x="2391" y="-158.5" font-family="Helvetica,sans-Serif" font-size="10.00">slogo.UI.Main.start</text>
</a>
</g>
</g>
<!-- Node10&#45;&gt;Node11 -->
<g id="edge10" class="edge"><title>Node10&#45;&gt;Node11</title>
<path fill="none" stroke="midnightblue" d="M2311.8,-157.216C2320.76,-157.65 2329.53,-158.074 2337.76,-158.472"/>
<polygon fill="midnightblue" stroke="midnightblue" points="2311.79,-153.712 2301.63,-156.724 2311.45,-160.703 2311.79,-153.712"/>
</g>
<!-- Node12 -->
<g id="node12" class="node"><title>Node12</title>
<g id="a_node12"><a xlink:href="../../db/d19/classslogo_1_1_u_i_1_1_module_creation_helper.html#a3be12a7cc2b8a219db1e296211a2cb88" target="_top" xlink:title="slogo.UI.ModuleCreationHelper.activate\lExtraWorkspaceButton">
<polygon fill="white" stroke="black" points="2480.5,-164 2480.5,-194 2685.5,-194 2685.5,-164 2480.5,-164"/>
<text text-anchor="start" x="2488.5" y="-182" font-family="Helvetica,sans-Serif" font-size="10.00">slogo.UI.ModuleCreationHelper.activate</text>
<text text-anchor="middle" x="2583" y="-171" font-family="Helvetica,sans-Serif" font-size="10.00">ExtraWorkspaceButton</text>
</a>
</g>
</g>
<!-- Node11&#45;&gt;Node12 -->
<g id="edge11" class="edge"><title>Node11&#45;&gt;Node12</title>
<path fill="none" stroke="midnightblue" d="M2454.22,-166.894C2462.63,-167.691 2471.44,-168.526 2480.32,-169.367"/>
<polygon fill="midnightblue" stroke="midnightblue" points="2454.46,-163.401 2444.17,-165.942 2453.79,-170.37 2454.46,-163.401"/>
</g>
<!-- Node13 -->
<g id="node13" class="node"><title>Node13</title>
<g id="a_node13"><a xlink:href="../../db/d19/classslogo_1_1_u_i_1_1_module_creation_helper.html#a702c1ebe24d2857a10c666eb1fcc315d" target="_top" xlink:title="slogo.UI.ModuleCreationHelper.create\lExtraWorkspaceButton">
<polygon fill="white" stroke="black" points="2722.5,-190 2722.5,-220 2919.5,-220 2919.5,-190 2722.5,-190"/>
<text text-anchor="start" x="2730.5" y="-208" font-family="Helvetica,sans-Serif" font-size="10.00">slogo.UI.ModuleCreationHelper.create</text>
<text text-anchor="middle" x="2821" y="-197" font-family="Helvetica,sans-Serif" font-size="10.00">ExtraWorkspaceButton</text>
</a>
</g>
</g>
<!-- Node12&#45;&gt;Node13 -->
<g id="edge12" class="edge"><title>Node12&#45;&gt;Node13</title>
<path fill="none" stroke="midnightblue" d="M2695.77,-191.313C2704.62,-192.289 2713.52,-193.27 2722.27,-194.234"/>
<polygon fill="midnightblue" stroke="midnightblue" points="2696.12,-187.831 2685.8,-190.215 2695.35,-194.789 2696.12,-187.831"/>
</g>
<!-- Node13&#45;&gt;Node9 -->
<g id="edge13" class="edge"><title>Node13&#45;&gt;Node9</title>
<path fill="none" stroke="midnightblue" d="M2712.34,-213.068C2544.9,-225.617 2224.6,-249.62 2063.55,-261.69"/>
<polygon fill="midnightblue" stroke="midnightblue" points="2712.7,-216.551 2722.41,-212.313 2712.18,-209.571 2712.7,-216.551"/>
</g>
<!-- Node14&#45;&gt;Node10 -->
<g id="edge15" class="edge"><title>Node14&#45;&gt;Node10</title>
<path fill="none" stroke="midnightblue" d="M2078.05,-152C2086.81,-152 2095.62,-152 2104.27,-152"/>
<polygon fill="midnightblue" stroke="midnightblue" points="2077.8,-148.5 2067.8,-152 2077.8,-155.5 2077.8,-148.5"/>
</g>
<!-- Node16 -->
<g id="node16" class="node"><title>Node16</title>
<g id="a_node16"><a xlink:href="../../db/d19/classslogo_1_1_u_i_1_1_module_creation_helper.html#a07f5483df317cdf80e8ea2dda5699afa" target="_top" xlink:title="slogo.UI.ModuleCreationHelper.create\lNewTurtleButton">
<polygon fill="white" stroke="black" points="1624.5,-331 1624.5,-361 1821.5,-361 1821.5,-331 1624.5,-331"/>
<text text-anchor="start" x="1632.5" y="-349" font-family="Helvetica,sans-Serif" font-size="10.00">slogo.UI.ModuleCreationHelper.create</text>
<text text-anchor="middle" x="1723" y="-338" font-family="Helvetica,sans-Serif" font-size="10.00">NewTurtleButton</text>
</a>
</g>
</g>
<!-- Node15&#45;&gt;Node16 -->
<g id="edge17" class="edge"><title>Node15&#45;&gt;Node16</title>
<path fill="none" stroke="midnightblue" d="M1593.89,-353.473C1604.04,-352.881 1614.26,-352.285 1624.27,-351.701"/>
<polygon fill="midnightblue" stroke="midnightblue" points="1593.56,-349.986 1583.78,-354.063 1593.97,-356.974 1593.56,-349.986"/>
</g>
<!-- Node16&#45;&gt;Node9 -->
<g id="edge18" class="edge"><title>Node16&#45;&gt;Node9</title>
<path fill="none" stroke="midnightblue" d="M1794.15,-328.309C1804.87,-325.354 1815.76,-322.203 1826,-319 1859.93,-308.387 1897.86,-294.493 1925.35,-284.046"/>
<polygon fill="midnightblue" stroke="midnightblue" points="1793.12,-324.962 1784.39,-330.963 1794.96,-331.717 1793.12,-324.962"/>
</g>
<!-- Node18 -->
<g id="node18" class="node"><title>Node18</title>
<g id="a_node18"><a xlink:href="../../db/d19/classslogo_1_1_u_i_1_1_module_creation_helper.html#a9b3fb38a55b3b7812b4f793afa7a974f" target="_top" xlink:title="slogo.UI.ModuleCreationHelper.create\lPlayButton">
<polygon fill="white" stroke="black" points="1382.5,-296 1382.5,-326 1579.5,-326 1579.5,-296 1382.5,-296"/>
<text text-anchor="start" x="1390.5" y="-314" font-family="Helvetica,sans-Serif" font-size="10.00">slogo.UI.ModuleCreationHelper.create</text>
<text text-anchor="middle" x="1481" y="-303" font-family="Helvetica,sans-Serif" font-size="10.00">PlayButton</text>
</a>
</g>
</g>
<!-- Node17&#45;&gt;Node18 -->
<g id="edge20" class="edge"><title>Node17&#45;&gt;Node18</title>
<path fill="none" stroke="midnightblue" d="M1351.89,-314.203C1362.04,-313.949 1372.26,-313.694 1382.27,-313.443"/>
<polygon fill="midnightblue" stroke="midnightblue" points="1351.69,-310.707 1341.78,-314.455 1351.87,-317.704 1351.69,-310.707"/>
</g>
<!-- Node19 -->
<g id="node19" class="node"><title>Node19</title>
<g id="a_node19"><a xlink:href="../../db/d19/classslogo_1_1_u_i_1_1_module_creation_helper.html#ae1e60d37509c2e5eddcb2a6e70b4f650" target="_top" xlink:title="slogo.UI.ModuleCreationHelper.create\lFirstRowButtons">
<polygon fill="white" stroke="black" points="1624.5,-280 1624.5,-310 1821.5,-310 1821.5,-280 1624.5,-280"/>
<text text-anchor="start" x="1632.5" y="-298" font-family="Helvetica,sans-Serif" font-size="10.00">slogo.UI.ModuleCreationHelper.create</text>
<text text-anchor="middle" x="1723" y="-287" font-family="Helvetica,sans-Serif" font-size="10.00">FirstRowButtons</text>
</a>
</g>
</g>
<!-- Node18&#45;&gt;Node19 -->
<g id="edge21" class="edge"><title>Node18&#45;&gt;Node19</title>
<path fill="none" stroke="midnightblue" d="M1589.73,-303.818C1601.3,-303.046 1613.03,-302.265 1624.47,-301.502"/>
<polygon fill="midnightblue" stroke="midnightblue" points="1589.36,-300.335 1579.62,-304.492 1589.83,-307.319 1589.36,-300.335"/>
</g>
<!-- Node19&#45;&gt;Node9 -->
<g id="edge22" class="edge"><title>Node19&#45;&gt;Node9</title>
<path fill="none" stroke="midnightblue" d="M1831.73,-283.329C1843.3,-282.075 1855.03,-280.805 1866.47,-279.566"/>
<polygon fill="midnightblue" stroke="midnightblue" points="1831.18,-279.868 1821.62,-284.425 1831.94,-286.827 1831.18,-279.868"/>
</g>
<!-- Node21 -->
<g id="node21" class="node"><title>Node21</title>
<g id="a_node21"><a xlink:href="../../db/d19/classslogo_1_1_u_i_1_1_module_creation_helper.html#a803bac6b55bde712b21f2face1eeef81" target="_top" xlink:title="slogo.UI.ModuleCreationHelper.create\lTurtleCanvas">
<polygon fill="white" stroke="black" points="1866.5,-88 1866.5,-118 2063.5,-118 2063.5,-88 1866.5,-88"/>
<text text-anchor="start" x="1874.5" y="-106" font-family="Helvetica,sans-Serif" font-size="10.00">slogo.UI.ModuleCreationHelper.create</text>
<text text-anchor="middle" x="1965" y="-95" font-family="Helvetica,sans-Serif" font-size="10.00">TurtleCanvas</text>
</a>
</g>
</g>
<!-- Node20&#45;&gt;Node21 -->
<g id="edge24" class="edge"><title>Node20&#45;&gt;Node21</title>
<path fill="none" stroke="midnightblue" d="M1835.89,-103C1846.04,-103 1856.26,-103 1866.27,-103"/>
<polygon fill="midnightblue" stroke="midnightblue" points="1835.78,-99.5001 1825.78,-103 1835.78,-106.5 1835.78,-99.5001"/>
</g>
<!-- Node21&#45;&gt;Node10 -->
<g id="edge25" class="edge"><title>Node21&#45;&gt;Node10</title>
<path fill="none" stroke="midnightblue" d="M2048.42,-120.113C2074.9,-125.611 2104.03,-131.658 2129.73,-136.994"/>
<polygon fill="midnightblue" stroke="midnightblue" points="2048.91,-116.641 2038.41,-118.035 2047.49,-123.495 2048.91,-116.641"/>
</g>
<!-- Node23 -->
<g id="node23" class="node"><title>Node23</title>
<g id="a_node23"><a xlink:href="../../db/d19/classslogo_1_1_u_i_1_1_module_creation_helper.html#af7f2919454fdbf6e9d7d912e99634857" target="_top" xlink:title="slogo.UI.ModuleCreationHelper.create\lSelectors">
<polygon fill="white" stroke="black" points="1382.5,-231 1382.5,-261 1579.5,-261 1579.5,-231 1382.5,-231"/>
<text text-anchor="start" x="1390.5" y="-249" font-family="Helvetica,sans-Serif" font-size="10.00">slogo.UI.ModuleCreationHelper.create</text>
<text text-anchor="middle" x="1481" y="-238" font-family="Helvetica,sans-Serif" font-size="10.00">Selectors</text>
</a>
</g>
</g>
<!-- Node22&#45;&gt;Node23 -->
<g id="edge27" class="edge"><title>Node22&#45;&gt;Node23</title>
<path fill="none" stroke="midnightblue" d="M1334.76,-262.339C1350.36,-260.585 1366.54,-258.764 1382.21,-257.002"/>
<polygon fill="midnightblue" stroke="midnightblue" points="1334.16,-258.885 1324.62,-263.481 1334.94,-265.841 1334.16,-258.885"/>
</g>
<!-- Node23&#45;&gt;Node9 -->
<g id="edge28" class="edge"><title>Node23&#45;&gt;Node9</title>
<path fill="none" stroke="midnightblue" d="M1589.74,-251.141C1672.55,-255.092 1785.97,-260.505 1866.19,-264.333"/>
<polygon fill="midnightblue" stroke="midnightblue" points="1589.7,-247.635 1579.54,-250.654 1589.36,-254.627 1589.7,-247.635"/>
</g>
<!-- Node24&#45;&gt;Node23 -->
<g id="edge30" class="edge"><title>Node24&#45;&gt;Node23</title>
<path fill="none" stroke="midnightblue" d="M1319.18,-234.609C1339.4,-236.041 1361.37,-237.597 1382.39,-239.086"/>
<polygon fill="midnightblue" stroke="midnightblue" points="1319.32,-231.11 1309.1,-233.894 1318.82,-238.092 1319.32,-231.11"/>
</g>
<!-- Node25&#45;&gt;Node23 -->
<g id="edge32" class="edge"><title>Node25&#45;&gt;Node23</title>
<path fill="none" stroke="midnightblue" d="M1303.74,-196.528C1316.46,-199.101 1329.69,-201.973 1342,-205 1372.7,-212.552 1406.76,-222.652 1433.36,-230.938"/>
<polygon fill="midnightblue" stroke="midnightblue" points="1304.17,-193.044 1293.68,-194.531 1302.8,-199.91 1304.17,-193.044"/>
</g>
<!-- Node27 -->
<g id="node27" class="node"><title>Node27</title>
<g id="a_node27"><a xlink:href="../../db/d19/classslogo_1_1_u_i_1_1_module_creation_helper.html#a9fd730f7c1860d34bf4ac46c3828bd59" target="_top" xlink:title="slogo.UI.ModuleCreationHelper.activate\lStepIntoButton">
<polygon fill="white" stroke="black" points="1136.5,-50 1136.5,-80 1341.5,-80 1341.5,-50 1136.5,-50"/>
<text text-anchor="start" x="1144.5" y="-68" font-family="Helvetica,sans-Serif" font-size="10.00">slogo.UI.ModuleCreationHelper.activate</text>
<text text-anchor="middle" x="1239" y="-57" font-family="Helvetica,sans-Serif" font-size="10.00">StepIntoButton</text>
</a>
</g>
</g>
<!-- Node26&#45;&gt;Node27 -->
<g id="edge34" class="edge"><title>Node26&#45;&gt;Node27</title>
<path fill="none" stroke="midnightblue" d="M1107.33,-65C1116.82,-65 1126.54,-65 1136.17,-65"/>
<polygon fill="midnightblue" stroke="midnightblue" points="1107.14,-61.5001 1097.14,-65 1107.14,-68.5001 1107.14,-61.5001"/>
</g>
<!-- Node28 -->
<g id="node28" class="node"><title>Node28</title>
<g id="a_node28"><a xlink:href="../../db/d19/classslogo_1_1_u_i_1_1_module_creation_helper.html#a4a6f1f009507c25be8c7c28cbba35f3b" target="_top" xlink:title="slogo.UI.ModuleCreationHelper.create\lDebugStepIntoButton">
<polygon fill="white" stroke="black" points="1382.5,-50 1382.5,-80 1579.5,-80 1579.5,-50 1382.5,-50"/>
<text text-anchor="start" x="1390.5" y="-68" font-family="Helvetica,sans-Serif" font-size="10.00">slogo.UI.ModuleCreationHelper.create</text>
<text text-anchor="middle" x="1481" y="-57" font-family="Helvetica,sans-Serif" font-size="10.00">DebugStepIntoButton</text>
</a>
</g>
</g>
<!-- Node27&#45;&gt;Node28 -->
<g id="edge35" class="edge"><title>Node27&#45;&gt;Node28</title>
<path fill="none" stroke="midnightblue" d="M1351.89,-65C1362.04,-65 1372.26,-65 1382.27,-65"/>
<polygon fill="midnightblue" stroke="midnightblue" points="1351.78,-61.5001 1341.78,-65 1351.78,-68.5001 1351.78,-61.5001"/>
</g>
<!-- Node29 -->
<g id="node29" class="node"><title>Node29</title>
<g id="a_node29"><a xlink:href="../../db/d19/classslogo_1_1_u_i_1_1_module_creation_helper.html#a975af4ea47dc85df72215bdf1a0d20ce" target="_top" xlink:title="slogo.UI.ModuleCreationHelper.create\lDebugModules">
<polygon fill="white" stroke="black" points="1624.5,-39 1624.5,-69 1821.5,-69 1821.5,-39 1624.5,-39"/>
<text text-anchor="start" x="1632.5" y="-57" font-family="Helvetica,sans-Serif" font-size="10.00">slogo.UI.ModuleCreationHelper.create</text>
<text text-anchor="middle" x="1723" y="-46" font-family="Helvetica,sans-Serif" font-size="10.00">DebugModules</text>
</a>
</g>
</g>
<!-- Node28&#45;&gt;Node29 -->
<g id="edge36" class="edge"><title>Node28&#45;&gt;Node29</title>
<path fill="none" stroke="midnightblue" d="M1589.73,-60.0622C1601.3,-59.5319 1613.03,-58.9945 1624.47,-58.4702"/>
<polygon fill="midnightblue" stroke="midnightblue" points="1589.45,-56.5716 1579.62,-60.5259 1589.77,-63.5643 1589.45,-56.5716"/>
</g>
<!-- Node29&#45;&gt;Node10 -->
<g id="edge37" class="edge"><title>Node29&#45;&gt;Node10</title>
<path fill="none" stroke="midnightblue" d="M1831.59,-50.2158C1900.49,-50.6052 1991.06,-56.402 2068,-79 2110.96,-91.6173 2155.6,-119.39 2180.97,-136.809"/>
<polygon fill="midnightblue" stroke="midnightblue" points="1831.6,-46.7159 1821.59,-50.1962 1831.58,-53.7159 1831.6,-46.7159"/>
</g>
<!-- Node31 -->
<g id="node31" class="node"><title>Node31</title>
<g id="a_node31"><a xlink:href="../../db/d19/classslogo_1_1_u_i_1_1_module_creation_helper.html#a0fed0bb32bf2643d6fd5c24d82e8e18e" target="_top" xlink:title="slogo.UI.ModuleCreationHelper.activate\lStepOverButton">
<polygon fill="white" stroke="black" points="1136.5,-1 1136.5,-31 1341.5,-31 1341.5,-1 1136.5,-1"/>
<text text-anchor="start" x="1144.5" y="-19" font-family="Helvetica,sans-Serif" font-size="10.00">slogo.UI.ModuleCreationHelper.activate</text>
<text text-anchor="middle" x="1239" y="-8" font-family="Helvetica,sans-Serif" font-size="10.00">StepOverButton</text>
</a>
</g>
</g>
<!-- Node30&#45;&gt;Node31 -->
<g id="edge39" class="edge"><title>Node30&#45;&gt;Node31</title>
<path fill="none" stroke="midnightblue" d="M1109.8,-19.5123C1118.56,-19.2724 1127.48,-19.028 1136.33,-18.7856"/>
<polygon fill="midnightblue" stroke="midnightblue" points="1109.51,-16.0187 1099.61,-19.7914 1109.71,-23.0161 1109.51,-16.0187"/>
</g>
<!-- Node32 -->
<g id="node32" class="node"><title>Node32</title>
<g id="a_node32"><a xlink:href="../../db/d19/classslogo_1_1_u_i_1_1_module_creation_helper.html#aa1e7dc2b509360583790fba0d3819c8d" target="_top" xlink:title="slogo.UI.ModuleCreationHelper.create\lDebugStepOverButton">
<polygon fill="white" stroke="black" points="1382.5,-1 1382.5,-31 1579.5,-31 1579.5,-1 1382.5,-1"/>
<text text-anchor="start" x="1390.5" y="-19" font-family="Helvetica,sans-Serif" font-size="10.00">slogo.UI.ModuleCreationHelper.create</text>
<text text-anchor="middle" x="1481" y="-8" font-family="Helvetica,sans-Serif" font-size="10.00">DebugStepOverButton</text>
</a>
</g>
</g>
<!-- Node31&#45;&gt;Node32 -->
<g id="edge40" class="edge"><title>Node31&#45;&gt;Node32</title>
<path fill="none" stroke="midnightblue" d="M1351.89,-16C1362.04,-16 1372.26,-16 1382.27,-16"/>
<polygon fill="midnightblue" stroke="midnightblue" points="1351.78,-12.5001 1341.78,-16 1351.78,-19.5001 1351.78,-12.5001"/>
</g>
<!-- Node32&#45;&gt;Node29 -->
<g id="edge41" class="edge"><title>Node32&#45;&gt;Node29</title>
<path fill="none" stroke="midnightblue" d="M1586.99,-32.6227C1600.31,-34.7329 1613.89,-36.8827 1627.05,-38.966"/>
<polygon fill="midnightblue" stroke="midnightblue" points="1587.28,-29.1256 1576.85,-31.0186 1586.18,-36.0395 1587.28,-29.1256"/>
</g>
</g>
</svg>
