<?xml version="1.0" encoding="UTF-8" standalone="no"?>
<!DOCTYPE svg PUBLIC "-//W3C//DTD SVG 1.1//EN"
 "http://www.w3.org/Graphics/SVG/1.1/DTD/svg11.dtd">
<!-- Generated by graphviz version 2.36.0 (20140111.2315)
 -->
<!-- Title: slogo.UI.Turtle.getShapesMap Pages: 1 -->
<svg width="1708pt" height="60pt"
 viewBox="0.00 0.00 1708.00 60.00" xmlns="http://www.w3.org/2000/svg" xmlns:xlink="http://www.w3.org/1999/xlink">
<g id="graph0" class="graph" transform="scale(1 1) rotate(0) translate(4 56)">
<title>slogo.UI.Turtle.getShapesMap</title>
<polygon fill="white" stroke="none" points="-4,4 -4,-56 1704,-56 1704,4 -4,4"/>
<!-- Node1 -->
<g id="node1" class="node"><title>Node1</title>
<polygon fill="#bfbfbf" stroke="black" points="0,-5.5 0,-24.5 158,-24.5 158,-5.5 0,-5.5"/>
<text text-anchor="middle" x="79" y="-12.5" font-family="Helvetica,sans-Serif" font-size="10.00">slogo.UI.Turtle.getShapesMap</text>
</g>
<!-- Node2 -->
<g id="node2" class="node"><title>Node2</title>
<g id="a_node2"><a xlink:href="../../dd/da7/classslogo_1_1_u_i_1_1_turtle_image_selector.html#a3f268d9196ffebcbb5dc322d2897a9fe" target="_top" xlink:title="slogo.UI.TurtleImageSelector.create">
<polygon fill="white" stroke="black" points="194,-5.5 194,-24.5 380,-24.5 380,-5.5 194,-5.5"/>
<text text-anchor="middle" x="287" y="-12.5" font-family="Helvetica,sans-Serif" font-size="10.00">slogo.UI.TurtleImageSelector.create</text>
</a>
</g>
</g>
<!-- Node1&#45;&gt;Node2 -->
<g id="edge1" class="edge"><title>Node1&#45;&gt;Node2</title>
<path fill="none" stroke="midnightblue" d="M168.338,-15C176.738,-15 185.27,-15 193.706,-15"/>
<polygon fill="midnightblue" stroke="midnightblue" points="168.174,-11.5001 158.173,-15 168.173,-18.5001 168.174,-11.5001"/>
</g>
<!-- Node3 -->
<g id="node3" class="node"><title>Node3</title>
<g id="a_node3"><a xlink:href="../../db/d19/classslogo_1_1_u_i_1_1_module_creation_helper.html#af7f2919454fdbf6e9d7d912e99634857" target="_top" xlink:title="slogo.UI.ModuleCreationHelper.create\lSelectors">
<polygon fill="white" stroke="black" points="416.5,-0 416.5,-30 613.5,-30 613.5,-0 416.5,-0"/>
<text text-anchor="start" x="424.5" y="-18" font-family="Helvetica,sans-Serif" font-size="10.00">slogo.UI.ModuleCreationHelper.create</text>
<text text-anchor="middle" x="515" y="-7" font-family="Helvetica,sans-Serif" font-size="10.00">Selectors</text>
</a>
</g>
</g>
<!-- Node2&#45;&gt;Node3 -->
<g id="edge2" class="edge"><title>Node2&#45;&gt;Node3</title>
<path fill="none" stroke="midnightblue" d="M390.301,-15C398.906,-15 407.596,-15 416.166,-15"/>
<polygon fill="midnightblue" stroke="midnightblue" points="390.249,-11.5001 380.249,-15 390.249,-18.5001 390.249,-11.5001"/>
</g>
<!-- Node4 -->
<g id="node4" class="node"><title>Node4</title>
<g id="a_node4"><a xlink:href="../../db/d19/classslogo_1_1_u_i_1_1_module_creation_helper.html#a7c650957b2389d6e6d36e8be8a33cd2b" target="_top" xlink:title="slogo.UI.ModuleCreationHelper.create\lSelectorVBoxModules">
<polygon fill="white" stroke="black" points="650.5,-0 650.5,-30 847.5,-30 847.5,-0 650.5,-0"/>
<text text-anchor="start" x="658.5" y="-18" font-family="Helvetica,sans-Serif" font-size="10.00">slogo.UI.ModuleCreationHelper.create</text>
<text text-anchor="middle" x="749" y="-7" font-family="Helvetica,sans-Serif" font-size="10.00">SelectorVBoxModules</text>
</a>
</g>
</g>
<!-- Node3&#45;&gt;Node4 -->
<g id="edge3" class="edge"><title>Node3&#45;&gt;Node4</title>
<path fill="none" stroke="midnightblue" d="M623.722,-15C632.618,-15 641.58,-15 650.396,-15"/>
<polygon fill="midnightblue" stroke="midnightblue" points="623.717,-11.5001 613.716,-15 623.716,-18.5001 623.717,-11.5001"/>
</g>
<!-- Node5 -->
<g id="node5" class="node"><title>Node5</title>
<g id="a_node5"><a xlink:href="../../db/d19/classslogo_1_1_u_i_1_1_module_creation_helper.html#afb9dbbbad7d872234a5b296fe129a34e" target="_top" xlink:title="slogo.UI.ModuleCreationHelper.create\lMainPageModules">
<polygon fill="white" stroke="black" points="884.5,-22 884.5,-52 1081.5,-52 1081.5,-22 884.5,-22"/>
<text text-anchor="start" x="892.5" y="-40" font-family="Helvetica,sans-Serif" font-size="10.00">slogo.UI.ModuleCreationHelper.create</text>
<text text-anchor="middle" x="983" y="-29" font-family="Helvetica,sans-Serif" font-size="10.00">MainPageModules</text>
</a>
</g>
</g>
<!-- Node4&#45;&gt;Node5 -->
<g id="edge4" class="edge"><title>Node4&#45;&gt;Node5</title>
<path fill="none" stroke="midnightblue" d="M857.722,-25.215C866.618,-26.0586 875.58,-26.9085 884.396,-27.7445"/>
<polygon fill="midnightblue" stroke="midnightblue" points="858.002,-21.726 847.716,-24.2662 857.341,-28.6947 858.002,-21.726"/>
</g>
<!-- Node6 -->
<g id="node6" class="node"><title>Node6</title>
<g id="a_node6"><a xlink:href="../../d9/d33/classslogo_1_1_u_i_1_1_main.html#a15b7f2e399ee24d160550993ab737e73" target="_top" xlink:title="slogo.UI.Main.start">
<polygon fill="white" stroke="black" points="1118,-27.5 1118,-46.5 1224,-46.5 1224,-27.5 1118,-27.5"/>
<text text-anchor="middle" x="1171" y="-34.5" font-family="Helvetica,sans-Serif" font-size="10.00">slogo.UI.Main.start</text>
</a>
</g>
</g>
<!-- Node5&#45;&gt;Node6 -->
<g id="edge5" class="edge"><title>Node5&#45;&gt;Node6</title>
<path fill="none" stroke="midnightblue" d="M1091.8,-37C1100.76,-37 1109.53,-37 1117.76,-37"/>
<polygon fill="midnightblue" stroke="midnightblue" points="1091.63,-33.5001 1081.63,-37 1091.63,-40.5001 1091.63,-33.5001"/>
</g>
<!-- Node7 -->
<g id="node7" class="node"><title>Node7</title>
<g id="a_node7"><a xlink:href="../../db/d19/classslogo_1_1_u_i_1_1_module_creation_helper.html#a3be12a7cc2b8a219db1e296211a2cb88" target="_top" xlink:title="slogo.UI.ModuleCreationHelper.activate\lExtraWorkspaceButton">
<polygon fill="white" stroke="black" points="1260.5,-22 1260.5,-52 1465.5,-52 1465.5,-22 1260.5,-22"/>
<text text-anchor="start" x="1268.5" y="-40" font-family="Helvetica,sans-Serif" font-size="10.00">slogo.UI.ModuleCreationHelper.activate</text>
<text text-anchor="middle" x="1363" y="-29" font-family="Helvetica,sans-Serif" font-size="10.00">ExtraWorkspaceButton</text>
</a>
</g>
</g>
<!-- Node6&#45;&gt;Node7 -->
<g id="edge6" class="edge"><title>Node6&#45;&gt;Node7</title>
<path fill="none" stroke="midnightblue" d="M1234.22,-37C1242.63,-37 1251.44,-37 1260.32,-37"/>
<polygon fill="midnightblue" stroke="midnightblue" points="1234.17,-33.5001 1224.17,-37 1234.17,-40.5001 1234.17,-33.5001"/>
</g>
<!-- Node8 -->
<g id="node8" class="node"><title>Node8</title>
<g id="a_node8"><a xlink:href="../../db/d19/classslogo_1_1_u_i_1_1_module_creation_helper.html#a702c1ebe24d2857a10c666eb1fcc315d" target="_top" xlink:title="slogo.UI.ModuleCreationHelper.create\lExtraWorkspaceButton">
<polygon fill="white" stroke="black" points="1502.5,-0 1502.5,-30 1699.5,-30 1699.5,-0 1502.5,-0"/>
<text text-anchor="start" x="1510.5" y="-18" font-family="Helvetica,sans-Serif" font-size="10.00">slogo.UI.ModuleCreationHelper.create</text>
<text text-anchor="middle" x="1601" y="-7" font-family="Helvetica,sans-Serif" font-size="10.00">ExtraWorkspaceButton</text>
</a>
</g>
</g>
<!-- Node7&#45;&gt;Node8 -->
<g id="edge7" class="edge"><title>Node7&#45;&gt;Node8</title>
<path fill="none" stroke="midnightblue" d="M1475.77,-26.5812C1484.62,-25.7556 1493.52,-24.9257 1502.27,-24.1101"/>
<polygon fill="midnightblue" stroke="midnightblue" points="1475.43,-23.0972 1465.8,-27.5104 1476.08,-30.067 1475.43,-23.0972"/>
</g>
<!-- Node8&#45;&gt;Node4 -->
<g id="edge8" class="edge"><title>Node8&#45;&gt;Node4</title>
<path fill="none" stroke="midnightblue" d="M1492.27,-12.3776C1483.38,-12.2253 1474.54,-12.0956 1466,-12 1207.35,-9.10502 1142.65,-9.10502 884,-12 872.25,-12.1315 859.921,-12.3279 847.699,-12.5584"/>
<polygon fill="midnightblue" stroke="midnightblue" points="1492.24,-15.8776 1502.3,-12.5584 1492.37,-8.87874 1492.24,-15.8776"/>
</g>
</g>
</svg>
