<?xml version="1.0" encoding="UTF-8" standalone="no"?>
<!DOCTYPE svg PUBLIC "-//W3C//DTD SVG 1.1//EN"
 "http://www.w3.org/Graphics/SVG/1.1/DTD/svg11.dtd">
<!-- Generated by graphviz version 2.36.0 (20140111.2315)
 -->
<!-- Title: slogo.UI.Turtle.setYPos Pages: 1 -->
<svg width="3432pt" height="430pt"
 viewBox="0.00 0.00 3432.00 430.00" xmlns="http://www.w3.org/2000/svg" xmlns:xlink="http://www.w3.org/1999/xlink">
<g id="graph0" class="graph" transform="scale(1 1) rotate(0) translate(4 426)">
<title>slogo.UI.Turtle.setYPos</title>
<polygon fill="white" stroke="none" points="-4,4 -4,-426 3428,-426 3428,4 -4,4"/>
<!-- Node1 -->
<g id="node1" class="node"><title>Node1</title>
<polygon fill="#bfbfbf" stroke="black" points="0,-38.5 0,-57.5 124,-57.5 124,-38.5 0,-38.5"/>
<text text-anchor="middle" x="62" y="-45.5" font-family="Helvetica,sans-Serif" font-size="10.00">slogo.UI.Turtle.setYPos</text>
</g>
<!-- Node2 -->
<g id="node2" class="node"><title>Node2</title>
<g id="a_node2"><a xlink:href="../../d5/deb/classslogo_1_1_u_i_1_1_turtle.html#a678c8daca68b92f79f73967a8be0f269" target="_top" xlink:title="slogo.UI.Turtle.moveTurtle">
<polygon fill="white" stroke="black" points="160.5,-38.5 160.5,-57.5 299.5,-57.5 299.5,-38.5 160.5,-38.5"/>
<text text-anchor="middle" x="230" y="-45.5" font-family="Helvetica,sans-Serif" font-size="10.00">slogo.UI.Turtle.moveTurtle</text>
</a>
</g>
</g>
<!-- Node1&#45;&gt;Node2 -->
<g id="edge1" class="edge"><title>Node1&#45;&gt;Node2</title>
<path fill="none" stroke="midnightblue" d="M134.362,-48C142.985,-48 151.778,-48 160.361,-48"/>
<polygon fill="midnightblue" stroke="midnightblue" points="134.341,-44.5001 124.341,-48 134.341,-51.5001 134.341,-44.5001"/>
</g>
<!-- Node3 -->
<g id="node3" class="node"><title>Node3</title>
<g id="a_node3"><a xlink:href="../../d9/d7e/classslogo_1_1_u_i_1_1_method_runner.html#a1ab80948935d4a625cf3313eabe9a51d" target="_top" xlink:title="slogo.UI.MethodRunner.move\lTurtle">
<polygon fill="white" stroke="black" points="504,-77 504,-107 660,-107 660,-77 504,-77"/>
<text text-anchor="start" x="512" y="-95" font-family="Helvetica,sans-Serif" font-size="10.00">slogo.UI.MethodRunner.move</text>
<text text-anchor="middle" x="582" y="-84" font-family="Helvetica,sans-Serif" font-size="10.00">Turtle</text>
</a>
</g>
</g>
<!-- Node2&#45;&gt;Node3 -->
<g id="edge2" class="edge"><title>Node2&#45;&gt;Node3</title>
<path fill="none" stroke="midnightblue" d="M289.478,-59.4091C304.595,-62.1308 320.873,-64.8628 336,-67 391.988,-74.9101 455.514,-81.3194 503.848,-85.6675"/>
<polygon fill="midnightblue" stroke="midnightblue" points="289.693,-55.8904 279.227,-57.5338 288.434,-62.7761 289.693,-55.8904"/>
</g>
<!-- Node34 -->
<g id="node34" class="node"><title>Node34</title>
<g id="a_node34"><a xlink:href="../../d5/deb/classslogo_1_1_u_i_1_1_turtle.html#acea66642c893474f33f416ebf67f769e" target="_top" xlink:title="slogo.UI.Turtle.setImage">
<polygon fill="white" stroke="black" points="336.5,-38.5 336.5,-57.5 467.5,-57.5 467.5,-38.5 336.5,-38.5"/>
<text text-anchor="middle" x="402" y="-45.5" font-family="Helvetica,sans-Serif" font-size="10.00">slogo.UI.Turtle.setImage</text>
</a>
</g>
</g>
<!-- Node2&#45;&gt;Node34 -->
<g id="edge43" class="edge"><title>Node2&#45;&gt;Node34</title>
<path fill="none" stroke="midnightblue" d="M309.716,-48C318.682,-48 327.741,-48 336.492,-48"/>
<polygon fill="midnightblue" stroke="midnightblue" points="309.656,-44.5001 299.655,-48 309.655,-51.5001 309.656,-44.5001"/>
</g>
<!-- Node37 -->
<g id="node37" class="node"><title>Node37</title>
<g id="a_node37"><a xlink:href="../../d5/deb/classslogo_1_1_u_i_1_1_turtle.html#a677d21287d8b754ce9b12fe2004f90dc" target="_top" xlink:title="slogo.UI.Turtle.Turtle">
<polygon fill="white" stroke="black" points="346,-0.5 346,-19.5 458,-19.5 458,-0.5 346,-0.5"/>
<text text-anchor="middle" x="402" y="-7.5" font-family="Helvetica,sans-Serif" font-size="10.00">slogo.UI.Turtle.Turtle</text>
</a>
</g>
</g>
<!-- Node2&#45;&gt;Node37 -->
<g id="edge47" class="edge"><title>Node2&#45;&gt;Node37</title>
<path fill="none" stroke="midnightblue" d="M283.898,-36.1757C307.865,-30.8184 335.824,-24.5689 358.41,-19.5201"/>
<polygon fill="midnightblue" stroke="midnightblue" points="282.894,-32.8138 273.898,-38.411 284.421,-39.6452 282.894,-32.8138"/>
</g>
<!-- Node4 -->
<g id="node4" class="node"><title>Node4</title>
<g id="a_node4"><a xlink:href="../../d9/d7e/classslogo_1_1_u_i_1_1_method_runner.html#a5fe4a6310ba1b0851d7d30a440511324" target="_top" xlink:title="slogo.UI.MethodRunner.change\lTurtle">
<polygon fill="white" stroke="black" points="876,-52 876,-82 1040,-82 1040,-52 876,-52"/>
<text text-anchor="start" x="884" y="-70" font-family="Helvetica,sans-Serif" font-size="10.00">slogo.UI.MethodRunner.change</text>
<text text-anchor="middle" x="958" y="-59" font-family="Helvetica,sans-Serif" font-size="10.00">Turtle</text>
</a>
</g>
</g>
<!-- Node3&#45;&gt;Node4 -->
<g id="edge3" class="edge"><title>Node3&#45;&gt;Node4</title>
<path fill="none" stroke="midnightblue" d="M670.21,-86.1704C732.309,-82.0195 815.171,-76.4806 875.855,-72.4241"/>
<polygon fill="midnightblue" stroke="midnightblue" points="669.784,-82.691 660.04,-86.8503 670.251,-89.6755 669.784,-82.691"/>
</g>
<!-- Node5 -->
<g id="node5" class="node"><title>Node5</title>
<g id="a_node5"><a xlink:href="../../df/d2d/classslogo_1_1_view.html#accc79c56511a72090ff8a4d414b8d1f5" target="_top" xlink:title="slogo.View.executeTurtle\lCommands">
<polygon fill="white" stroke="black" points="1076.5,-52 1076.5,-82 1209.5,-82 1209.5,-52 1076.5,-52"/>
<text text-anchor="start" x="1084.5" y="-70" font-family="Helvetica,sans-Serif" font-size="10.00">slogo.View.executeTurtle</text>
<text text-anchor="middle" x="1143" y="-59" font-family="Helvetica,sans-Serif" font-size="10.00">Commands</text>
</a>
</g>
</g>
<!-- Node4&#45;&gt;Node5 -->
<g id="edge4" class="edge"><title>Node4&#45;&gt;Node5</title>
<path fill="none" stroke="midnightblue" d="M1050.35,-67C1059.13,-67 1067.91,-67 1076.37,-67"/>
<polygon fill="midnightblue" stroke="midnightblue" points="1050.07,-63.5001 1040.07,-67 1050.07,-70.5001 1050.07,-63.5001"/>
</g>
<!-- Node6 -->
<g id="node6" class="node"><title>Node6</title>
<g id="a_node6"><a xlink:href="../../df/d2d/classslogo_1_1_view.html#aa90e5d95d422b58b7f4b7f8a049defe1" target="_top" xlink:title="slogo.View.executeCommand">
<polygon fill="white" stroke="black" points="1246,-57.5 1246,-76.5 1404,-76.5 1404,-57.5 1246,-57.5"/>
<text text-anchor="middle" x="1325" y="-64.5" font-family="Helvetica,sans-Serif" font-size="10.00">slogo.View.executeCommand</text>
</a>
</g>
</g>
<!-- Node5&#45;&gt;Node6 -->
<g id="edge5" class="edge"><title>Node5&#45;&gt;Node6</title>
<path fill="none" stroke="midnightblue" d="M1219.78,-67C1228.42,-67 1237.24,-67 1245.9,-67"/>
<polygon fill="midnightblue" stroke="midnightblue" points="1219.75,-63.5001 1209.75,-67 1219.75,-70.5001 1219.75,-63.5001"/>
</g>
<!-- Node7 -->
<g id="node7" class="node"><title>Node7</title>
<g id="a_node7"><a xlink:href="../../df/d2d/classslogo_1_1_view.html#aee563f6a0b15ac6668e4dcbdad40c73c" target="_top" xlink:title="slogo.View.sendCommandTo\lBackend">
<polygon fill="white" stroke="black" points="1446,-216 1446,-246 1598,-246 1598,-216 1446,-216"/>
<text text-anchor="start" x="1454" y="-234" font-family="Helvetica,sans-Serif" font-size="10.00">slogo.View.sendCommandTo</text>
<text text-anchor="middle" x="1522" y="-223" font-family="Helvetica,sans-Serif" font-size="10.00">Backend</text>
</a>
</g>
</g>
<!-- Node6&#45;&gt;Node7 -->
<g id="edge6" class="edge"><title>Node6&#45;&gt;Node7</title>
<path fill="none" stroke="midnightblue" d="M1345.05,-83.0252C1382.77,-114.741 1466.43,-185.108 1503.15,-215.984"/>
<polygon fill="midnightblue" stroke="midnightblue" points="1347.23,-80.2841 1337.33,-76.5262 1342.73,-85.6414 1347.23,-80.2841"/>
</g>
<!-- Node27 -->
<g id="node27" class="node"><title>Node27</title>
<g id="a_node27"><a xlink:href="../../df/d2d/classslogo_1_1_view.html#a4c3084a198acf85804800d70eff9ee51" target="_top" xlink:title="slogo.View.stepIntoCommand">
<polygon fill="white" stroke="black" points="1443,-57.5 1443,-76.5 1601,-76.5 1601,-57.5 1443,-57.5"/>
<text text-anchor="middle" x="1522" y="-64.5" font-family="Helvetica,sans-Serif" font-size="10.00">slogo.View.stepIntoCommand</text>
</a>
</g>
</g>
<!-- Node6&#45;&gt;Node27 -->
<g id="edge34" class="edge"><title>Node6&#45;&gt;Node27</title>
<path fill="none" stroke="midnightblue" d="M1414.4,-67C1423.87,-67 1433.45,-67 1442.79,-67"/>
<polygon fill="midnightblue" stroke="midnightblue" points="1414.19,-63.5001 1404.19,-67 1414.19,-70.5001 1414.19,-63.5001"/>
</g>
<!-- Node31 -->
<g id="node31" class="node"><title>Node31</title>
<g id="a_node31"><a xlink:href="../../df/d2d/classslogo_1_1_view.html#ac8b7f574c679e744a430f1649dc55e68" target="_top" xlink:title="slogo.View.stepOverCommand">
<polygon fill="white" stroke="black" points="1440.5,-14.5 1440.5,-33.5 1603.5,-33.5 1603.5,-14.5 1440.5,-14.5"/>
<text text-anchor="middle" x="1522" y="-21.5" font-family="Helvetica,sans-Serif" font-size="10.00">slogo.View.stepOverCommand</text>
</a>
</g>
</g>
<!-- Node6&#45;&gt;Node31 -->
<g id="edge39" class="edge"><title>Node6&#45;&gt;Node31</title>
<path fill="none" stroke="midnightblue" d="M1379.06,-55.3005C1410.07,-48.462 1448.71,-39.9406 1477.84,-33.5164"/>
<polygon fill="midnightblue" stroke="midnightblue" points="1378.29,-51.8855 1369.28,-57.4569 1379.8,-58.7213 1378.29,-51.8855"/>
</g>
<!-- Node8 -->
<g id="node8" class="node"><title>Node8</title>
<g id="a_node8"><a xlink:href="../../db/d19/classslogo_1_1_u_i_1_1_module_creation_helper.html#a69e17abcc7cf9a6ed7261d8fb1d631fa" target="_top" xlink:title="slogo.UI.ModuleCreationHelper.activate\lIncreaseDecreaseButtons">
<polygon fill="white" stroke="black" points="1640.5,-392 1640.5,-422 1845.5,-422 1845.5,-392 1640.5,-392"/>
<text text-anchor="start" x="1648.5" y="-410" font-family="Helvetica,sans-Serif" font-size="10.00">slogo.UI.ModuleCreationHelper.activate</text>
<text text-anchor="middle" x="1743" y="-399" font-family="Helvetica,sans-Serif" font-size="10.00">IncreaseDecreaseButtons</text>
</a>
</g>
</g>
<!-- Node7&#45;&gt;Node8 -->
<g id="edge7" class="edge"><title>Node7&#45;&gt;Node8</title>
<path fill="none" stroke="midnightblue" d="M1536.04,-255.219C1554.78,-287.724 1592.36,-345.06 1640,-377 1649.12,-383.116 1659.51,-388.01 1670.09,-391.919"/>
<polygon fill="midnightblue" stroke="midnightblue" points="1539.01,-253.361 1531.05,-246.368 1532.91,-256.798 1539.01,-253.361"/>
</g>
<!-- Node15 -->
<g id="node15" class="node"><title>Node15</title>
<g id="a_node15"><a xlink:href="../../db/d19/classslogo_1_1_u_i_1_1_module_creation_helper.html#aa70b0ad9e90e62509149bfd2ef2ba209" target="_top" xlink:title="slogo.UI.ModuleCreationHelper.activate\lKeyEvents">
<polygon fill="white" stroke="black" points="2366.5,-139 2366.5,-169 2571.5,-169 2571.5,-139 2366.5,-139"/>
<text text-anchor="start" x="2374.5" y="-157" font-family="Helvetica,sans-Serif" font-size="10.00">slogo.UI.ModuleCreationHelper.activate</text>
<text text-anchor="middle" x="2469" y="-146" font-family="Helvetica,sans-Serif" font-size="10.00">KeyEvents</text>
</a>
</g>
</g>
<!-- Node7&#45;&gt;Node15 -->
<g id="edge15" class="edge"><title>Node7&#45;&gt;Node15</title>
<path fill="none" stroke="midnightblue" d="M1552.18,-210.164C1574.9,-195.251 1607.88,-176.388 1640,-168 1774.15,-132.97 2176.16,-142.777 2366.26,-149.744"/>
<polygon fill="midnightblue" stroke="midnightblue" points="1550.05,-207.378 1543.7,-215.86 1553.95,-213.189 1550.05,-207.378"/>
</g>
<!-- Node16 -->
<g id="node16" class="node"><title>Node16</title>
<g id="a_node16"><a xlink:href="../../db/d19/classslogo_1_1_u_i_1_1_module_creation_helper.html#a2e841243ec3ca474e8822102343acc88" target="_top" xlink:title="slogo.UI.ModuleCreationHelper.activate\lNewTurtleButton">
<polygon fill="white" stroke="black" points="1882.5,-347 1882.5,-377 2087.5,-377 2087.5,-347 1882.5,-347"/>
<text text-anchor="start" x="1890.5" y="-365" font-family="Helvetica,sans-Serif" font-size="10.00">slogo.UI.ModuleCreationHelper.activate</text>
<text text-anchor="middle" x="1985" y="-354" font-family="Helvetica,sans-Serif" font-size="10.00">NewTurtleButton</text>
</a>
</g>
</g>
<!-- Node7&#45;&gt;Node16 -->
<g id="edge17" class="edge"><title>Node7&#45;&gt;Node16</title>
<path fill="none" stroke="midnightblue" d="M1539.02,-254.155C1559.1,-281.009 1596.24,-324.013 1640,-343 1716.41,-376.152 1811.47,-378.86 1882.29,-374.435"/>
<polygon fill="midnightblue" stroke="midnightblue" points="1541.83,-252.073 1533.11,-246.055 1536.18,-256.197 1541.83,-252.073"/>
</g>
<!-- Node18 -->
<g id="node18" class="node"><title>Node18</title>
<g id="a_node18"><a xlink:href="../../db/d19/classslogo_1_1_u_i_1_1_module_creation_helper.html#a9b1f07ab673191067907a059b1b0c524" target="_top" xlink:title="slogo.UI.ModuleCreationHelper.activate\lPlayButton">
<polygon fill="white" stroke="black" points="1640.5,-304 1640.5,-334 1845.5,-334 1845.5,-304 1640.5,-304"/>
<text text-anchor="start" x="1648.5" y="-322" font-family="Helvetica,sans-Serif" font-size="10.00">slogo.UI.ModuleCreationHelper.activate</text>
<text text-anchor="middle" x="1743" y="-311" font-family="Helvetica,sans-Serif" font-size="10.00">PlayButton</text>
</a>
</g>
</g>
<!-- Node7&#45;&gt;Node18 -->
<g id="edge20" class="edge"><title>Node7&#45;&gt;Node18</title>
<path fill="none" stroke="midnightblue" d="M1555.42,-251.354C1578.33,-265.006 1610.16,-282.522 1640,-294 1649.7,-297.73 1660.14,-301.039 1670.5,-303.929"/>
<polygon fill="midnightblue" stroke="midnightblue" points="1557.16,-248.317 1546.79,-246.145 1553.54,-254.31 1557.16,-248.317"/>
</g>
<!-- Node21 -->
<g id="node21" class="node"><title>Node21</title>
<g id="a_node21"><a xlink:href="../../db/d19/classslogo_1_1_u_i_1_1_module_creation_helper.html#a3a38d485562cb17591ec3fd07cffc18a" target="_top" xlink:title="slogo.UI.ModuleCreationHelper.activate\lTurtleCanvas">
<polygon fill="white" stroke="black" points="2124.5,-90 2124.5,-120 2329.5,-120 2329.5,-90 2124.5,-90"/>
<text text-anchor="start" x="2132.5" y="-108" font-family="Helvetica,sans-Serif" font-size="10.00">slogo.UI.ModuleCreationHelper.activate</text>
<text text-anchor="middle" x="2227" y="-97" font-family="Helvetica,sans-Serif" font-size="10.00">TurtleCanvas</text>
</a>
</g>
</g>
<!-- Node7&#45;&gt;Node21 -->
<g id="edge24" class="edge"><title>Node7&#45;&gt;Node21</title>
<path fill="none" stroke="midnightblue" d="M1542.37,-208.232C1563.63,-185.064 1600.1,-150.434 1640,-135 1725.51,-101.92 1980.48,-100.527 2124.33,-102.616"/>
<polygon fill="midnightblue" stroke="midnightblue" points="1539.56,-206.115 1535.5,-215.898 1544.78,-210.786 1539.56,-206.115"/>
</g>
<!-- Node23 -->
<g id="node23" class="node"><title>Node23</title>
<g id="a_node23"><a xlink:href="../../d1/d5f/classslogo_1_1_u_i_1_1_path_color_selector.html#ad3d9c82a0904c97edcec7cf67b85bd7b" target="_top" xlink:title="slogo.UI.PathColorSelector.create">
<polygon fill="white" stroke="black" points="1655,-265.5 1655,-284.5 1831,-284.5 1831,-265.5 1655,-265.5"/>
<text text-anchor="middle" x="1743" y="-272.5" font-family="Helvetica,sans-Serif" font-size="10.00">slogo.UI.PathColorSelector.create</text>
</a>
</g>
</g>
<!-- Node7&#45;&gt;Node23 -->
<g id="edge27" class="edge"><title>Node7&#45;&gt;Node23</title>
<path fill="none" stroke="midnightblue" d="M1605.74,-248.065C1617.24,-250.411 1628.91,-252.776 1640,-255 1657.25,-258.46 1676.16,-262.186 1692.95,-265.473"/>
<polygon fill="midnightblue" stroke="midnightblue" points="1606.19,-244.585 1595.69,-246.013 1604.79,-251.443 1606.19,-244.585"/>
</g>
<!-- Node25 -->
<g id="node25" class="node"><title>Node25</title>
<g id="a_node25"><a xlink:href="../../d4/d8d/classslogo_1_1_u_i_1_1_background_color_selector.html#ad75ba4ce104e071811d0fe039a4e839f" target="_top" xlink:title="slogo.UI.BackgroundColor\lSelector.create">
<polygon fill="white" stroke="black" points="1673,-216 1673,-246 1813,-246 1813,-216 1673,-216"/>
<text text-anchor="start" x="1681" y="-234" font-family="Helvetica,sans-Serif" font-size="10.00">slogo.UI.BackgroundColor</text>
<text text-anchor="middle" x="1743" y="-223" font-family="Helvetica,sans-Serif" font-size="10.00">Selector.create</text>
</a>
</g>
</g>
<!-- Node7&#45;&gt;Node25 -->
<g id="edge30" class="edge"><title>Node7&#45;&gt;Node25</title>
<path fill="none" stroke="midnightblue" d="M1608.14,-231C1629.6,-231 1652.37,-231 1672.93,-231"/>
<polygon fill="midnightblue" stroke="midnightblue" points="1608.06,-227.5 1598.06,-231 1608.06,-234.5 1608.06,-227.5"/>
</g>
<!-- Node26 -->
<g id="node26" class="node"><title>Node26</title>
<g id="a_node26"><a xlink:href="../../dd/da7/classslogo_1_1_u_i_1_1_turtle_image_selector.html#a3f268d9196ffebcbb5dc322d2897a9fe" target="_top" xlink:title="slogo.UI.TurtleImageSelector.create">
<polygon fill="white" stroke="black" points="1650,-177.5 1650,-196.5 1836,-196.5 1836,-177.5 1650,-177.5"/>
<text text-anchor="middle" x="1743" y="-184.5" font-family="Helvetica,sans-Serif" font-size="10.00">slogo.UI.TurtleImageSelector.create</text>
</a>
</g>
</g>
<!-- Node7&#45;&gt;Node26 -->
<g id="edge32" class="edge"><title>Node7&#45;&gt;Node26</title>
<path fill="none" stroke="midnightblue" d="M1602.01,-213.821C1614.7,-211.147 1627.71,-208.458 1640,-206 1655.99,-202.804 1673.42,-199.493 1689.27,-196.548"/>
<polygon fill="midnightblue" stroke="midnightblue" points="1600.98,-210.463 1591.92,-215.958 1602.43,-217.311 1600.98,-210.463"/>
</g>
<!-- Node9 -->
<g id="node9" class="node"><title>Node9</title>
<g id="a_node9"><a xlink:href="../../db/d19/classslogo_1_1_u_i_1_1_module_creation_helper.html#adce7362386f9a7b3006e7db08a2d578d" target="_top" xlink:title="slogo.UI.ModuleCreationHelper.create\lIncreaseDecreaseButtons">
<polygon fill="white" stroke="black" points="2128.5,-383 2128.5,-413 2325.5,-413 2325.5,-383 2128.5,-383"/>
<text text-anchor="start" x="2136.5" y="-401" font-family="Helvetica,sans-Serif" font-size="10.00">slogo.UI.ModuleCreationHelper.create</text>
<text text-anchor="middle" x="2227" y="-390" font-family="Helvetica,sans-Serif" font-size="10.00">IncreaseDecreaseButtons</text>
</a>
</g>
</g>
<!-- Node8&#45;&gt;Node9 -->
<g id="edge8" class="edge"><title>Node8&#45;&gt;Node9</title>
<path fill="none" stroke="midnightblue" d="M1855.79,-404.913C1938.23,-403.373 2049.29,-401.299 2128.21,-399.826"/>
<polygon fill="midnightblue" stroke="midnightblue" points="1855.56,-401.416 1845.63,-405.102 1855.69,-408.415 1855.56,-401.416"/>
</g>
<!-- Node10 -->
<g id="node10" class="node"><title>Node10</title>
<g id="a_node10"><a xlink:href="../../db/d19/classslogo_1_1_u_i_1_1_module_creation_helper.html#a7c650957b2389d6e6d36e8be8a33cd2b" target="_top" xlink:title="slogo.UI.ModuleCreationHelper.create\lSelectorVBoxModules">
<polygon fill="white" stroke="black" points="2370.5,-256 2370.5,-286 2567.5,-286 2567.5,-256 2370.5,-256"/>
<text text-anchor="start" x="2378.5" y="-274" font-family="Helvetica,sans-Serif" font-size="10.00">slogo.UI.ModuleCreationHelper.create</text>
<text text-anchor="middle" x="2469" y="-263" font-family="Helvetica,sans-Serif" font-size="10.00">SelectorVBoxModules</text>
</a>
</g>
</g>
<!-- Node9&#45;&gt;Node10 -->
<g id="edge9" class="edge"><title>Node9&#45;&gt;Node10</title>
<path fill="none" stroke="midnightblue" d="M2311,-379.732C2317.54,-377.424 2323.95,-374.854 2330,-372 2378.6,-349.077 2427.46,-308.079 2451.92,-286.025"/>
<polygon fill="midnightblue" stroke="midnightblue" points="2309.75,-376.461 2301.36,-382.93 2311.95,-383.105 2309.75,-376.461"/>
</g>
<!-- Node11 -->
<g id="node11" class="node"><title>Node11</title>
<g id="a_node11"><a xlink:href="../../db/d19/classslogo_1_1_u_i_1_1_module_creation_helper.html#afb9dbbbad7d872234a5b296fe129a34e" target="_top" xlink:title="slogo.UI.ModuleCreationHelper.create\lMainPageModules">
<polygon fill="white" stroke="black" points="2608.5,-139 2608.5,-169 2805.5,-169 2805.5,-139 2608.5,-139"/>
<text text-anchor="start" x="2616.5" y="-157" font-family="Helvetica,sans-Serif" font-size="10.00">slogo.UI.ModuleCreationHelper.create</text>
<text text-anchor="middle" x="2707" y="-146" font-family="Helvetica,sans-Serif" font-size="10.00">MainPageModules</text>
</a>
</g>
</g>
<!-- Node10&#45;&gt;Node11 -->
<g id="edge10" class="edge"><title>Node10&#45;&gt;Node11</title>
<path fill="none" stroke="midnightblue" d="M2509.58,-251.38C2556.29,-228.222 2632.96,-190.212 2675.37,-169.184"/>
<polygon fill="midnightblue" stroke="midnightblue" points="2507.77,-248.366 2500.37,-255.944 2510.88,-254.638 2507.77,-248.366"/>
</g>
<!-- Node12 -->
<g id="node12" class="node"><title>Node12</title>
<g id="a_node12"><a xlink:href="../../d9/d33/classslogo_1_1_u_i_1_1_main.html#a15b7f2e399ee24d160550993ab737e73" target="_top" xlink:title="slogo.UI.Main.start">
<polygon fill="white" stroke="black" points="2842,-153.5 2842,-172.5 2948,-172.5 2948,-153.5 2842,-153.5"/>
<text text-anchor="middle" x="2895" y="-160.5" font-family="Helvetica,sans-Serif" font-size="10.00">slogo.UI.Main.start</text>
</a>
</g>
</g>
<!-- Node11&#45;&gt;Node12 -->
<g id="edge11" class="edge"><title>Node11&#45;&gt;Node12</title>
<path fill="none" stroke="midnightblue" d="M2815.8,-159.216C2824.76,-159.65 2833.53,-160.074 2841.76,-160.472"/>
<polygon fill="midnightblue" stroke="midnightblue" points="2815.79,-155.712 2805.63,-158.724 2815.45,-162.703 2815.79,-155.712"/>
</g>
<!-- Node13 -->
<g id="node13" class="node"><title>Node13</title>
<g id="a_node13"><a xlink:href="../../db/d19/classslogo_1_1_u_i_1_1_module_creation_helper.html#a3be12a7cc2b8a219db1e296211a2cb88" target="_top" xlink:title="slogo.UI.ModuleCreationHelper.activate\lExtraWorkspaceButton">
<polygon fill="white" stroke="black" points="2984.5,-166 2984.5,-196 3189.5,-196 3189.5,-166 2984.5,-166"/>
<text text-anchor="start" x="2992.5" y="-184" font-family="Helvetica,sans-Serif" font-size="10.00">slogo.UI.ModuleCreationHelper.activate</text>
<text text-anchor="middle" x="3087" y="-173" font-family="Helvetica,sans-Serif" font-size="10.00">ExtraWorkspaceButton</text>
</a>
</g>
</g>
<!-- Node12&#45;&gt;Node13 -->
<g id="edge12" class="edge"><title>Node12&#45;&gt;Node13</title>
<path fill="none" stroke="midnightblue" d="M2958.22,-168.894C2966.63,-169.691 2975.44,-170.526 2984.32,-171.367"/>
<polygon fill="midnightblue" stroke="midnightblue" points="2958.46,-165.401 2948.17,-167.942 2957.79,-172.37 2958.46,-165.401"/>
</g>
<!-- Node14 -->
<g id="node14" class="node"><title>Node14</title>
<g id="a_node14"><a xlink:href="../../db/d19/classslogo_1_1_u_i_1_1_module_creation_helper.html#a702c1ebe24d2857a10c666eb1fcc315d" target="_top" xlink:title="slogo.UI.ModuleCreationHelper.create\lExtraWorkspaceButton">
<polygon fill="white" stroke="black" points="3226.5,-192 3226.5,-222 3423.5,-222 3423.5,-192 3226.5,-192"/>
<text text-anchor="start" x="3234.5" y="-210" font-family="Helvetica,sans-Serif" font-size="10.00">slogo.UI.ModuleCreationHelper.create</text>
<text text-anchor="middle" x="3325" y="-199" font-family="Helvetica,sans-Serif" font-size="10.00">ExtraWorkspaceButton</text>
</a>
</g>
</g>
<!-- Node13&#45;&gt;Node14 -->
<g id="edge13" class="edge"><title>Node13&#45;&gt;Node14</title>
<path fill="none" stroke="midnightblue" d="M3199.77,-193.313C3208.62,-194.289 3217.52,-195.27 3226.27,-196.234"/>
<polygon fill="midnightblue" stroke="midnightblue" points="3200.12,-189.831 3189.8,-192.215 3199.35,-196.789 3200.12,-189.831"/>
</g>
<!-- Node14&#45;&gt;Node10 -->
<g id="edge14" class="edge"><title>Node14&#45;&gt;Node10</title>
<path fill="none" stroke="midnightblue" d="M3216.34,-215.068C3048.9,-227.617 2728.6,-251.62 2567.55,-263.69"/>
<polygon fill="midnightblue" stroke="midnightblue" points="3216.7,-218.551 3226.41,-214.313 3216.18,-211.571 3216.7,-218.551"/>
</g>
<!-- Node15&#45;&gt;Node11 -->
<g id="edge16" class="edge"><title>Node15&#45;&gt;Node11</title>
<path fill="none" stroke="midnightblue" d="M2582.05,-154C2590.81,-154 2599.62,-154 2608.27,-154"/>
<polygon fill="midnightblue" stroke="midnightblue" points="2581.8,-150.5 2571.8,-154 2581.8,-157.5 2581.8,-150.5"/>
</g>
<!-- Node17 -->
<g id="node17" class="node"><title>Node17</title>
<g id="a_node17"><a xlink:href="../../db/d19/classslogo_1_1_u_i_1_1_module_creation_helper.html#a07f5483df317cdf80e8ea2dda5699afa" target="_top" xlink:title="slogo.UI.ModuleCreationHelper.create\lNewTurtleButton">
<polygon fill="white" stroke="black" points="2128.5,-333 2128.5,-363 2325.5,-363 2325.5,-333 2128.5,-333"/>
<text text-anchor="start" x="2136.5" y="-351" font-family="Helvetica,sans-Serif" font-size="10.00">slogo.UI.ModuleCreationHelper.create</text>
<text text-anchor="middle" x="2227" y="-340" font-family="Helvetica,sans-Serif" font-size="10.00">NewTurtleButton</text>
</a>
</g>
</g>
<!-- Node16&#45;&gt;Node17 -->
<g id="edge18" class="edge"><title>Node16&#45;&gt;Node17</title>
<path fill="none" stroke="midnightblue" d="M2097.89,-355.473C2108.04,-354.881 2118.26,-354.285 2128.27,-353.701"/>
<polygon fill="midnightblue" stroke="midnightblue" points="2097.56,-351.986 2087.78,-356.063 2097.97,-358.974 2097.56,-351.986"/>
</g>
<!-- Node17&#45;&gt;Node10 -->
<g id="edge19" class="edge"><title>Node17&#45;&gt;Node10</title>
<path fill="none" stroke="midnightblue" d="M2298.15,-330.309C2308.87,-327.354 2319.76,-324.203 2330,-321 2363.93,-310.387 2401.86,-296.493 2429.35,-286.046"/>
<polygon fill="midnightblue" stroke="midnightblue" points="2297.12,-326.962 2288.39,-332.963 2298.96,-333.717 2297.12,-326.962"/>
</g>
<!-- Node19 -->
<g id="node19" class="node"><title>Node19</title>
<g id="a_node19"><a xlink:href="../../db/d19/classslogo_1_1_u_i_1_1_module_creation_helper.html#a9b3fb38a55b3b7812b4f793afa7a974f" target="_top" xlink:title="slogo.UI.ModuleCreationHelper.create\lPlayButton">
<polygon fill="white" stroke="black" points="1886.5,-298 1886.5,-328 2083.5,-328 2083.5,-298 1886.5,-298"/>
<text text-anchor="start" x="1894.5" y="-316" font-family="Helvetica,sans-Serif" font-size="10.00">slogo.UI.ModuleCreationHelper.create</text>
<text text-anchor="middle" x="1985" y="-305" font-family="Helvetica,sans-Serif" font-size="10.00">PlayButton</text>
</a>
</g>
</g>
<!-- Node18&#45;&gt;Node19 -->
<g id="edge21" class="edge"><title>Node18&#45;&gt;Node19</title>
<path fill="none" stroke="midnightblue" d="M1855.89,-316.203C1866.04,-315.949 1876.26,-315.694 1886.27,-315.443"/>
<polygon fill="midnightblue" stroke="midnightblue" points="1855.69,-312.707 1845.78,-316.455 1855.87,-319.704 1855.69,-312.707"/>
</g>
<!-- Node20 -->
<g id="node20" class="node"><title>Node20</title>
<g id="a_node20"><a xlink:href="../../db/d19/classslogo_1_1_u_i_1_1_module_creation_helper.html#ae1e60d37509c2e5eddcb2a6e70b4f650" target="_top" xlink:title="slogo.UI.ModuleCreationHelper.create\lFirstRowButtons">
<polygon fill="white" stroke="black" points="2128.5,-282 2128.5,-312 2325.5,-312 2325.5,-282 2128.5,-282"/>
<text text-anchor="start" x="2136.5" y="-300" font-family="Helvetica,sans-Serif" font-size="10.00">slogo.UI.ModuleCreationHelper.create</text>
<text text-anchor="middle" x="2227" y="-289" font-family="Helvetica,sans-Serif" font-size="10.00">FirstRowButtons</text>
</a>
</g>
</g>
<!-- Node19&#45;&gt;Node20 -->
<g id="edge22" class="edge"><title>Node19&#45;&gt;Node20</title>
<path fill="none" stroke="midnightblue" d="M2093.73,-305.818C2105.3,-305.046 2117.03,-304.265 2128.47,-303.502"/>
<polygon fill="midnightblue" stroke="midnightblue" points="2093.36,-302.335 2083.62,-306.492 2093.83,-309.319 2093.36,-302.335"/>
</g>
<!-- Node20&#45;&gt;Node10 -->
<g id="edge23" class="edge"><title>Node20&#45;&gt;Node10</title>
<path fill="none" stroke="midnightblue" d="M2335.73,-285.329C2347.3,-284.075 2359.03,-282.805 2370.47,-281.566"/>
<polygon fill="midnightblue" stroke="midnightblue" points="2335.18,-281.868 2325.62,-286.425 2335.94,-288.827 2335.18,-281.868"/>
</g>
<!-- Node22 -->
<g id="node22" class="node"><title>Node22</title>
<g id="a_node22"><a xlink:href="../../db/d19/classslogo_1_1_u_i_1_1_module_creation_helper.html#a803bac6b55bde712b21f2face1eeef81" target="_top" xlink:title="slogo.UI.ModuleCreationHelper.create\lTurtleCanvas">
<polygon fill="white" stroke="black" points="2370.5,-90 2370.5,-120 2567.5,-120 2567.5,-90 2370.5,-90"/>
<text text-anchor="start" x="2378.5" y="-108" font-family="Helvetica,sans-Serif" font-size="10.00">slogo.UI.ModuleCreationHelper.create</text>
<text text-anchor="middle" x="2469" y="-97" font-family="Helvetica,sans-Serif" font-size="10.00">TurtleCanvas</text>
</a>
</g>
</g>
<!-- Node21&#45;&gt;Node22 -->
<g id="edge25" class="edge"><title>Node21&#45;&gt;Node22</title>
<path fill="none" stroke="midnightblue" d="M2339.89,-105C2350.04,-105 2360.26,-105 2370.27,-105"/>
<polygon fill="midnightblue" stroke="midnightblue" points="2339.78,-101.5 2329.78,-105 2339.78,-108.5 2339.78,-101.5"/>
</g>
<!-- Node22&#45;&gt;Node11 -->
<g id="edge26" class="edge"><title>Node22&#45;&gt;Node11</title>
<path fill="none" stroke="midnightblue" d="M2552.42,-122.113C2578.9,-127.611 2608.03,-133.658 2633.73,-138.994"/>
<polygon fill="midnightblue" stroke="midnightblue" points="2552.91,-118.641 2542.41,-120.035 2551.49,-125.495 2552.91,-118.641"/>
</g>
<!-- Node24 -->
<g id="node24" class="node"><title>Node24</title>
<g id="a_node24"><a xlink:href="../../db/d19/classslogo_1_1_u_i_1_1_module_creation_helper.html#af7f2919454fdbf6e9d7d912e99634857" target="_top" xlink:title="slogo.UI.ModuleCreationHelper.create\lSelectors">
<polygon fill="white" stroke="black" points="1886.5,-233 1886.5,-263 2083.5,-263 2083.5,-233 1886.5,-233"/>
<text text-anchor="start" x="1894.5" y="-251" font-family="Helvetica,sans-Serif" font-size="10.00">slogo.UI.ModuleCreationHelper.create</text>
<text text-anchor="middle" x="1985" y="-240" font-family="Helvetica,sans-Serif" font-size="10.00">Selectors</text>
</a>
</g>
</g>
<!-- Node23&#45;&gt;Node24 -->
<g id="edge28" class="edge"><title>Node23&#45;&gt;Node24</title>
<path fill="none" stroke="midnightblue" d="M1838.76,-264.339C1854.36,-262.585 1870.54,-260.764 1886.21,-259.002"/>
<polygon fill="midnightblue" stroke="midnightblue" points="1838.16,-260.885 1828.62,-265.481 1838.94,-267.841 1838.16,-260.885"/>
</g>
<!-- Node24&#45;&gt;Node10 -->
<g id="edge29" class="edge"><title>Node24&#45;&gt;Node10</title>
<path fill="none" stroke="midnightblue" d="M2093.74,-253.141C2176.55,-257.092 2289.97,-262.505 2370.19,-266.333"/>
<polygon fill="midnightblue" stroke="midnightblue" points="2093.7,-249.635 2083.54,-252.654 2093.36,-256.627 2093.7,-249.635"/>
</g>
<!-- Node25&#45;&gt;Node24 -->
<g id="edge31" class="edge"><title>Node25&#45;&gt;Node24</title>
<path fill="none" stroke="midnightblue" d="M1823.18,-236.609C1843.4,-238.041 1865.37,-239.597 1886.39,-241.086"/>
<polygon fill="midnightblue" stroke="midnightblue" points="1823.32,-233.11 1813.1,-235.894 1822.82,-240.092 1823.32,-233.11"/>
</g>
<!-- Node26&#45;&gt;Node24 -->
<g id="edge33" class="edge"><title>Node26&#45;&gt;Node24</title>
<path fill="none" stroke="midnightblue" d="M1811.48,-198.473C1823.04,-200.752 1834.9,-203.287 1846,-206 1877.38,-213.673 1912.18,-224.278 1938.98,-232.911"/>
<polygon fill="midnightblue" stroke="midnightblue" points="1811.9,-194.99 1801.42,-196.539 1810.58,-201.864 1811.9,-194.99"/>
</g>
<!-- Node28 -->
<g id="node28" class="node"><title>Node28</title>
<g id="a_node28"><a xlink:href="../../db/d19/classslogo_1_1_u_i_1_1_module_creation_helper.html#a9fd730f7c1860d34bf4ac46c3828bd59" target="_top" xlink:title="slogo.UI.ModuleCreationHelper.activate\lStepIntoButton">
<polygon fill="white" stroke="black" points="1640.5,-52 1640.5,-82 1845.5,-82 1845.5,-52 1640.5,-52"/>
<text text-anchor="start" x="1648.5" y="-70" font-family="Helvetica,sans-Serif" font-size="10.00">slogo.UI.ModuleCreationHelper.activate</text>
<text text-anchor="middle" x="1743" y="-59" font-family="Helvetica,sans-Serif" font-size="10.00">StepIntoButton</text>
</a>
</g>
</g>
<!-- Node27&#45;&gt;Node28 -->
<g id="edge35" class="edge"><title>Node27&#45;&gt;Node28</title>
<path fill="none" stroke="midnightblue" d="M1611.33,-67C1620.82,-67 1630.54,-67 1640.17,-67"/>
<polygon fill="midnightblue" stroke="midnightblue" points="1611.14,-63.5001 1601.14,-67 1611.14,-70.5001 1611.14,-63.5001"/>
</g>
<!-- Node29 -->
<g id="node29" class="node"><title>Node29</title>
<g id="a_node29"><a xlink:href="../../db/d19/classslogo_1_1_u_i_1_1_module_creation_helper.html#a4a6f1f009507c25be8c7c28cbba35f3b" target="_top" xlink:title="slogo.UI.ModuleCreationHelper.create\lDebugStepIntoButton">
<polygon fill="white" stroke="black" points="1886.5,-52 1886.5,-82 2083.5,-82 2083.5,-52 1886.5,-52"/>
<text text-anchor="start" x="1894.5" y="-70" font-family="Helvetica,sans-Serif" font-size="10.00">slogo.UI.ModuleCreationHelper.create</text>
<text text-anchor="middle" x="1985" y="-59" font-family="Helvetica,sans-Serif" font-size="10.00">DebugStepIntoButton</text>
</a>
</g>
</g>
<!-- Node28&#45;&gt;Node29 -->
<g id="edge36" class="edge"><title>Node28&#45;&gt;Node29</title>
<path fill="none" stroke="midnightblue" d="M1855.89,-67C1866.04,-67 1876.26,-67 1886.27,-67"/>
<polygon fill="midnightblue" stroke="midnightblue" points="1855.78,-63.5001 1845.78,-67 1855.78,-70.5001 1855.78,-63.5001"/>
</g>
<!-- Node30 -->
<g id="node30" class="node"><title>Node30</title>
<g id="a_node30"><a xlink:href="../../db/d19/classslogo_1_1_u_i_1_1_module_creation_helper.html#a975af4ea47dc85df72215bdf1a0d20ce" target="_top" xlink:title="slogo.UI.ModuleCreationHelper.create\lDebugModules">
<polygon fill="white" stroke="black" points="2128.5,-41 2128.5,-71 2325.5,-71 2325.5,-41 2128.5,-41"/>
<text text-anchor="start" x="2136.5" y="-59" font-family="Helvetica,sans-Serif" font-size="10.00">slogo.UI.ModuleCreationHelper.create</text>
<text text-anchor="middle" x="2227" y="-48" font-family="Helvetica,sans-Serif" font-size="10.00">DebugModules</text>
</a>
</g>
</g>
<!-- Node29&#45;&gt;Node30 -->
<g id="edge37" class="edge"><title>Node29&#45;&gt;Node30</title>
<path fill="none" stroke="midnightblue" d="M2093.73,-62.0622C2105.3,-61.5319 2117.03,-60.9945 2128.47,-60.4702"/>
<polygon fill="midnightblue" stroke="midnightblue" points="2093.45,-58.5716 2083.62,-62.5259 2093.77,-65.5643 2093.45,-58.5716"/>
</g>
<!-- Node30&#45;&gt;Node11 -->
<g id="edge38" class="edge"><title>Node30&#45;&gt;Node11</title>
<path fill="none" stroke="midnightblue" d="M2335.63,-51.679C2404.53,-51.779 2495.11,-57.2973 2572,-80 2615.33,-92.7936 2660.2,-121.228 2685.46,-138.889"/>
<polygon fill="midnightblue" stroke="midnightblue" points="2335.61,-48.1789 2325.62,-51.7021 2335.63,-55.1789 2335.61,-48.1789"/>
</g>
<!-- Node32 -->
<g id="node32" class="node"><title>Node32</title>
<g id="a_node32"><a xlink:href="../../db/d19/classslogo_1_1_u_i_1_1_module_creation_helper.html#a0fed0bb32bf2643d6fd5c24d82e8e18e" target="_top" xlink:title="slogo.UI.ModuleCreationHelper.activate\lStepOverButton">
<polygon fill="white" stroke="black" points="1640.5,-3 1640.5,-33 1845.5,-33 1845.5,-3 1640.5,-3"/>
<text text-anchor="start" x="1648.5" y="-21" font-family="Helvetica,sans-Serif" font-size="10.00">slogo.UI.ModuleCreationHelper.activate</text>
<text text-anchor="middle" x="1743" y="-10" font-family="Helvetica,sans-Serif" font-size="10.00">StepOverButton</text>
</a>
</g>
</g>
<!-- Node31&#45;&gt;Node32 -->
<g id="edge40" class="edge"><title>Node31&#45;&gt;Node32</title>
<path fill="none" stroke="midnightblue" d="M1613.8,-21.5123C1622.56,-21.2724 1631.48,-21.028 1640.33,-20.7856"/>
<polygon fill="midnightblue" stroke="midnightblue" points="1613.51,-18.0187 1603.61,-21.7914 1613.71,-25.0161 1613.51,-18.0187"/>
</g>
<!-- Node33 -->
<g id="node33" class="node"><title>Node33</title>
<g id="a_node33"><a xlink:href="../../db/d19/classslogo_1_1_u_i_1_1_module_creation_helper.html#aa1e7dc2b509360583790fba0d3819c8d" target="_top" xlink:title="slogo.UI.ModuleCreationHelper.create\lDebugStepOverButton">
<polygon fill="white" stroke="black" points="1886.5,-3 1886.5,-33 2083.5,-33 2083.5,-3 1886.5,-3"/>
<text text-anchor="start" x="1894.5" y="-21" font-family="Helvetica,sans-Serif" font-size="10.00">slogo.UI.ModuleCreationHelper.create</text>
<text text-anchor="middle" x="1985" y="-10" font-family="Helvetica,sans-Serif" font-size="10.00">DebugStepOverButton</text>
</a>
</g>
</g>
<!-- Node32&#45;&gt;Node33 -->
<g id="edge41" class="edge"><title>Node32&#45;&gt;Node33</title>
<path fill="none" stroke="midnightblue" d="M1855.89,-18C1866.04,-18 1876.26,-18 1886.27,-18"/>
<polygon fill="midnightblue" stroke="midnightblue" points="1855.78,-14.5001 1845.78,-18 1855.78,-21.5001 1855.78,-14.5001"/>
</g>
<!-- Node33&#45;&gt;Node30 -->
<g id="edge42" class="edge"><title>Node33&#45;&gt;Node30</title>
<path fill="none" stroke="midnightblue" d="M2090.99,-34.6227C2104.31,-36.7329 2117.89,-38.8827 2131.05,-40.966"/>
<polygon fill="midnightblue" stroke="midnightblue" points="2091.28,-31.1256 2080.85,-33.0186 2090.18,-38.0395 2091.28,-31.1256"/>
</g>
<!-- Node35 -->
<g id="node35" class="node"><title>Node35</title>
<g id="a_node35"><a xlink:href="../../d9/d7e/classslogo_1_1_u_i_1_1_method_runner.html#a7acbc486941b60522435d579c227d6db" target="_top" xlink:title="slogo.UI.MethodRunner.set\lTurtleImage">
<polygon fill="white" stroke="black" points="510,-28 510,-58 654,-58 654,-28 510,-28"/>
<text text-anchor="start" x="518" y="-46" font-family="Helvetica,sans-Serif" font-size="10.00">slogo.UI.MethodRunner.set</text>
<text text-anchor="middle" x="582" y="-35" font-family="Helvetica,sans-Serif" font-size="10.00">TurtleImage</text>
</a>
</g>
</g>
<!-- Node34&#45;&gt;Node35 -->
<g id="edge44" class="edge"><title>Node34&#45;&gt;Node35</title>
<path fill="none" stroke="midnightblue" d="M477.617,-45.904C488.267,-45.6049 499.199,-45.2978 509.781,-45.0005"/>
<polygon fill="midnightblue" stroke="midnightblue" points="477.412,-42.4083 467.514,-46.1878 477.608,-49.4056 477.412,-42.4083"/>
</g>
<!-- Node36 -->
<g id="node36" class="node"><title>Node36</title>
<g id="a_node36"><a xlink:href="../../d9/d7e/classslogo_1_1_u_i_1_1_method_runner.html#a5e01d88aabd60df2be9ebb5b874837b1" target="_top" xlink:title="slogo.UI.MethodRunner.set\lPenAttributes">
<polygon fill="white" stroke="black" points="696,-30 696,-60 840,-60 840,-30 696,-30"/>
<text text-anchor="start" x="704" y="-48" font-family="Helvetica,sans-Serif" font-size="10.00">slogo.UI.MethodRunner.set</text>
<text text-anchor="middle" x="768" y="-37" font-family="Helvetica,sans-Serif" font-size="10.00">PenAttributes</text>
</a>
</g>
</g>
<!-- Node35&#45;&gt;Node36 -->
<g id="edge45" class="edge"><title>Node35&#45;&gt;Node36</title>
<path fill="none" stroke="midnightblue" d="M664.154,-43.8821C674.68,-43.9965 685.398,-44.113 695.747,-44.2255"/>
<polygon fill="midnightblue" stroke="midnightblue" points="664.177,-40.3822 654.139,-43.7733 664.101,-47.3818 664.177,-40.3822"/>
</g>
<!-- Node36&#45;&gt;Node4 -->
<g id="edge46" class="edge"><title>Node36&#45;&gt;Node4</title>
<path fill="none" stroke="midnightblue" d="M850.28,-54.5115C858.719,-55.4991 867.298,-56.5029 875.736,-57.4904"/>
<polygon fill="midnightblue" stroke="midnightblue" points="850.414,-51.0033 840.075,-53.3173 849.6,-57.9559 850.414,-51.0033"/>
</g>
</g>
</svg>
