<?xml version="1.0" encoding="UTF-8" standalone="no"?>
<!DOCTYPE svg PUBLIC "-//W3C//DTD SVG 1.1//EN"
 "http://www.w3.org/Graphics/SVG/1.1/DTD/svg11.dtd">
<!-- Generated by graphviz version 2.36.0 (20140111.2315)
 -->
<!-- Title: slogo.UI.Turtle.getThickness Pages: 1 -->
<svg width="3106pt" height="450pt"
 viewBox="0.00 0.00 3106.00 450.00" xmlns="http://www.w3.org/2000/svg" xmlns:xlink="http://www.w3.org/1999/xlink">
<g id="graph0" class="graph" transform="scale(1 1) rotate(0) translate(4 446)">
<title>slogo.UI.Turtle.getThickness</title>
<polygon fill="white" stroke="none" points="-4,4 -4,-446 3102,-446 3102,4 -4,4"/>
<!-- Node1 -->
<g id="node1" class="node"><title>Node1</title>
<polygon fill="#bfbfbf" stroke="black" points="0.5,-213.5 0.5,-232.5 149.5,-232.5 149.5,-213.5 0.5,-213.5"/>
<text text-anchor="middle" x="75" y="-220.5" font-family="Helvetica,sans-Serif" font-size="10.00">slogo.UI.Turtle.getThickness</text>
</g>
<!-- Node2 -->
<g id="node2" class="node"><title>Node2</title>
<g id="a_node2"><a xlink:href="../../db/d19/classslogo_1_1_u_i_1_1_module_creation_helper.html#a69e17abcc7cf9a6ed7261d8fb1d631fa" target="_top" xlink:title="slogo.UI.ModuleCreationHelper.activate\lIncreaseDecreaseButtons">
<polygon fill="white" stroke="black" points="1330.5,-411 1330.5,-441 1535.5,-441 1535.5,-411 1330.5,-411"/>
<text text-anchor="start" x="1338.5" y="-429" font-family="Helvetica,sans-Serif" font-size="10.00">slogo.UI.ModuleCreationHelper.activate</text>
<text text-anchor="middle" x="1433" y="-418" font-family="Helvetica,sans-Serif" font-size="10.00">IncreaseDecreaseButtons</text>
</a>
</g>
</g>
<!-- Node1&#45;&gt;Node2 -->
<g id="edge1" class="edge"><title>Node1&#45;&gt;Node2</title>
<path fill="none" stroke="midnightblue" d="M99.3119,-238.086C156.655,-273.694 310.164,-360 451,-360 451,-360 451,-360 1016,-360 1080.62,-360 1254.32,-391.462 1355.66,-410.941"/>
<polygon fill="midnightblue" stroke="midnightblue" points="100.976,-234.997 90.6479,-232.634 97.2475,-240.922 100.976,-234.997"/>
</g>
<!-- Node9 -->
<g id="node9" class="node"><title>Node9</title>
<g id="a_node9"><a xlink:href="../../d9/d7e/classslogo_1_1_u_i_1_1_method_runner.html#a5fe4a6310ba1b0851d7d30a440511324" target="_top" xlink:title="slogo.UI.MethodRunner.change\lTurtle">
<polygon fill="white" stroke="black" points="566,-164 566,-194 730,-194 730,-164 566,-164"/>
<text text-anchor="start" x="574" y="-182" font-family="Helvetica,sans-Serif" font-size="10.00">slogo.UI.MethodRunner.change</text>
<text text-anchor="middle" x="648" y="-171" font-family="Helvetica,sans-Serif" font-size="10.00">Turtle</text>
</a>
</g>
</g>
<!-- Node1&#45;&gt;Node9 -->
<g id="edge9" class="edge"><title>Node1&#45;&gt;Node9</title>
<path fill="none" stroke="midnightblue" d="M160.065,-216.522C269.066,-208.123 457.923,-193.57 565.603,-185.272"/>
<polygon fill="midnightblue" stroke="midnightblue" points="159.472,-213.057 149.771,-217.315 160.01,-220.037 159.472,-213.057"/>
</g>
<!-- Node32 -->
<g id="node32" class="node"><title>Node32</title>
<g id="a_node32"><a xlink:href="../../d9/d7e/classslogo_1_1_u_i_1_1_method_runner.html#ab0ecc3d04769434971f00221697447bc" target="_top" xlink:title="slogo.UI.MethodRunner.draw\lNewLine">
<polygon fill="white" stroke="black" points="186,-142 186,-172 338,-172 338,-142 186,-142"/>
<text text-anchor="start" x="194" y="-160" font-family="Helvetica,sans-Serif" font-size="10.00">slogo.UI.MethodRunner.draw</text>
<text text-anchor="middle" x="262" y="-149" font-family="Helvetica,sans-Serif" font-size="10.00">NewLine</text>
</a>
</g>
</g>
<!-- Node1&#45;&gt;Node32 -->
<g id="edge42" class="edge"><title>Node1&#45;&gt;Node32</title>
<path fill="none" stroke="midnightblue" d="M112.321,-210.042C142.855,-199.149 186.537,-183.565 218.654,-172.107"/>
<polygon fill="midnightblue" stroke="midnightblue" points="111.143,-206.746 102.901,-213.403 113.495,-213.339 111.143,-206.746"/>
</g>
<!-- Node34 -->
<g id="node34" class="node"><title>Node34</title>
<g id="a_node34"><a xlink:href="../../d9/d7e/classslogo_1_1_u_i_1_1_method_runner.html#a5fcec4f854c4d3f6a300974e88678854" target="_top" xlink:title="slogo.UI.MethodRunner.set\lPenThickness">
<polygon fill="white" stroke="black" points="190,-230 190,-260 334,-260 334,-230 190,-230"/>
<text text-anchor="start" x="198" y="-248" font-family="Helvetica,sans-Serif" font-size="10.00">slogo.UI.MethodRunner.set</text>
<text text-anchor="middle" x="262" y="-237" font-family="Helvetica,sans-Serif" font-size="10.00">PenThickness</text>
</a>
</g>
</g>
<!-- Node1&#45;&gt;Node34 -->
<g id="edge45" class="edge"><title>Node1&#45;&gt;Node34</title>
<path fill="none" stroke="midnightblue" d="M159.631,-232.945C169.678,-234.14 179.866,-235.352 189.715,-236.523"/>
<polygon fill="midnightblue" stroke="midnightblue" points="159.992,-229.464 149.648,-231.758 159.165,-236.415 159.992,-229.464"/>
</g>
<!-- Node3 -->
<g id="node3" class="node"><title>Node3</title>
<g id="a_node3"><a xlink:href="../../db/d19/classslogo_1_1_u_i_1_1_module_creation_helper.html#adce7362386f9a7b3006e7db08a2d578d" target="_top" xlink:title="slogo.UI.ModuleCreationHelper.create\lIncreaseDecreaseButtons">
<polygon fill="white" stroke="black" points="1806.5,-323 1806.5,-353 2003.5,-353 2003.5,-323 1806.5,-323"/>
<text text-anchor="start" x="1814.5" y="-341" font-family="Helvetica,sans-Serif" font-size="10.00">slogo.UI.ModuleCreationHelper.create</text>
<text text-anchor="middle" x="1905" y="-330" font-family="Helvetica,sans-Serif" font-size="10.00">IncreaseDecreaseButtons</text>
</a>
</g>
</g>
<!-- Node2&#45;&gt;Node3 -->
<g id="edge2" class="edge"><title>Node2&#45;&gt;Node3</title>
<path fill="none" stroke="midnightblue" d="M1524.35,-409.084C1610.98,-392.863 1740.55,-368.603 1823.68,-353.039"/>
<polygon fill="midnightblue" stroke="midnightblue" points="1523.45,-405.692 1514.26,-410.972 1524.74,-412.572 1523.45,-405.692"/>
</g>
<!-- Node4 -->
<g id="node4" class="node"><title>Node4</title>
<g id="a_node4"><a xlink:href="../../db/d19/classslogo_1_1_u_i_1_1_module_creation_helper.html#a7c650957b2389d6e6d36e8be8a33cd2b" target="_top" xlink:title="slogo.UI.ModuleCreationHelper.create\lSelectorVBoxModules">
<polygon fill="white" stroke="black" points="2044.5,-213 2044.5,-243 2241.5,-243 2241.5,-213 2044.5,-213"/>
<text text-anchor="start" x="2052.5" y="-231" font-family="Helvetica,sans-Serif" font-size="10.00">slogo.UI.ModuleCreationHelper.create</text>
<text text-anchor="middle" x="2143" y="-220" font-family="Helvetica,sans-Serif" font-size="10.00">SelectorVBoxModules</text>
</a>
</g>
</g>
<!-- Node3&#45;&gt;Node4 -->
<g id="edge3" class="edge"><title>Node3&#45;&gt;Node4</title>
<path fill="none" stroke="midnightblue" d="M1972.71,-319.827C1983.33,-316.296 1994.07,-312.329 2004,-308 2046.65,-289.403 2092.75,-260.762 2119.41,-243.268"/>
<polygon fill="midnightblue" stroke="midnightblue" points="1971.47,-316.549 1963.03,-322.946 1973.62,-323.212 1971.47,-316.549"/>
</g>
<!-- Node5 -->
<g id="node5" class="node"><title>Node5</title>
<g id="a_node5"><a xlink:href="../../db/d19/classslogo_1_1_u_i_1_1_module_creation_helper.html#afb9dbbbad7d872234a5b296fe129a34e" target="_top" xlink:title="slogo.UI.ModuleCreationHelper.create\lMainPageModules">
<polygon fill="white" stroke="black" points="2282.5,-142 2282.5,-172 2479.5,-172 2479.5,-142 2282.5,-142"/>
<text text-anchor="start" x="2290.5" y="-160" font-family="Helvetica,sans-Serif" font-size="10.00">slogo.UI.ModuleCreationHelper.create</text>
<text text-anchor="middle" x="2381" y="-149" font-family="Helvetica,sans-Serif" font-size="10.00">MainPageModules</text>
</a>
</g>
</g>
<!-- Node4&#45;&gt;Node5 -->
<g id="edge4" class="edge"><title>Node4&#45;&gt;Node5</title>
<path fill="none" stroke="midnightblue" d="M2203.71,-210.036C2242.74,-198.296 2293.12,-183.138 2330.02,-172.036"/>
<polygon fill="midnightblue" stroke="midnightblue" points="2202.62,-206.71 2194.05,-212.943 2204.63,-213.413 2202.62,-206.71"/>
</g>
<!-- Node6 -->
<g id="node6" class="node"><title>Node6</title>
<g id="a_node6"><a xlink:href="../../d9/d33/classslogo_1_1_u_i_1_1_main.html#a15b7f2e399ee24d160550993ab737e73" target="_top" xlink:title="slogo.UI.Main.start">
<polygon fill="white" stroke="black" points="2516,-151.5 2516,-170.5 2622,-170.5 2622,-151.5 2516,-151.5"/>
<text text-anchor="middle" x="2569" y="-158.5" font-family="Helvetica,sans-Serif" font-size="10.00">slogo.UI.Main.start</text>
</a>
</g>
</g>
<!-- Node5&#45;&gt;Node6 -->
<g id="edge5" class="edge"><title>Node5&#45;&gt;Node6</title>
<path fill="none" stroke="midnightblue" d="M2489.8,-159.318C2498.76,-159.511 2507.53,-159.7 2515.76,-159.877"/>
<polygon fill="midnightblue" stroke="midnightblue" points="2489.7,-155.815 2479.63,-159.1 2489.55,-162.814 2489.7,-155.815"/>
</g>
<!-- Node7 -->
<g id="node7" class="node"><title>Node7</title>
<g id="a_node7"><a xlink:href="../../db/d19/classslogo_1_1_u_i_1_1_module_creation_helper.html#a3be12a7cc2b8a219db1e296211a2cb88" target="_top" xlink:title="slogo.UI.ModuleCreationHelper.activate\lExtraWorkspaceButton">
<polygon fill="white" stroke="black" points="2658.5,-152 2658.5,-182 2863.5,-182 2863.5,-152 2658.5,-152"/>
<text text-anchor="start" x="2666.5" y="-170" font-family="Helvetica,sans-Serif" font-size="10.00">slogo.UI.ModuleCreationHelper.activate</text>
<text text-anchor="middle" x="2761" y="-159" font-family="Helvetica,sans-Serif" font-size="10.00">ExtraWorkspaceButton</text>
</a>
</g>
</g>
<!-- Node6&#45;&gt;Node7 -->
<g id="edge6" class="edge"><title>Node6&#45;&gt;Node7</title>
<path fill="none" stroke="midnightblue" d="M2632.22,-162.965C2640.63,-163.23 2649.44,-163.509 2658.32,-163.789"/>
<polygon fill="midnightblue" stroke="midnightblue" points="2632.28,-159.465 2622.17,-162.647 2632.05,-166.461 2632.28,-159.465"/>
</g>
<!-- Node8 -->
<g id="node8" class="node"><title>Node8</title>
<g id="a_node8"><a xlink:href="../../db/d19/classslogo_1_1_u_i_1_1_module_creation_helper.html#a702c1ebe24d2857a10c666eb1fcc315d" target="_top" xlink:title="slogo.UI.ModuleCreationHelper.create\lExtraWorkspaceButton">
<polygon fill="white" stroke="black" points="2900.5,-175 2900.5,-205 3097.5,-205 3097.5,-175 2900.5,-175"/>
<text text-anchor="start" x="2908.5" y="-193" font-family="Helvetica,sans-Serif" font-size="10.00">slogo.UI.ModuleCreationHelper.create</text>
<text text-anchor="middle" x="2999" y="-182" font-family="Helvetica,sans-Serif" font-size="10.00">ExtraWorkspaceButton</text>
</a>
</g>
</g>
<!-- Node7&#45;&gt;Node8 -->
<g id="edge7" class="edge"><title>Node7&#45;&gt;Node8</title>
<path fill="none" stroke="midnightblue" d="M2873.77,-177.892C2882.62,-178.755 2891.52,-179.623 2900.27,-180.476"/>
<polygon fill="midnightblue" stroke="midnightblue" points="2874.09,-174.408 2863.8,-176.921 2873.41,-181.375 2874.09,-174.408"/>
</g>
<!-- Node8&#45;&gt;Node4 -->
<g id="edge8" class="edge"><title>Node8&#45;&gt;Node4</title>
<path fill="none" stroke="midnightblue" d="M2890.34,-194.79C2722.9,-202.241 2402.6,-216.493 2241.55,-223.659"/>
<polygon fill="midnightblue" stroke="midnightblue" points="2890.58,-198.283 2900.41,-194.342 2890.27,-191.29 2890.58,-198.283"/>
</g>
<!-- Node10 -->
<g id="node10" class="node"><title>Node10</title>
<g id="a_node10"><a xlink:href="../../df/d2d/classslogo_1_1_view.html#accc79c56511a72090ff8a4d414b8d1f5" target="_top" xlink:title="slogo.View.executeTurtle\lCommands">
<polygon fill="white" stroke="black" points="766.5,-140 766.5,-170 899.5,-170 899.5,-140 766.5,-140"/>
<text text-anchor="start" x="774.5" y="-158" font-family="Helvetica,sans-Serif" font-size="10.00">slogo.View.executeTurtle</text>
<text text-anchor="middle" x="833" y="-147" font-family="Helvetica,sans-Serif" font-size="10.00">Commands</text>
</a>
</g>
</g>
<!-- Node9&#45;&gt;Node10 -->
<g id="edge10" class="edge"><title>Node9&#45;&gt;Node10</title>
<path fill="none" stroke="midnightblue" d="M740.064,-167.057C748.937,-165.894 757.815,-164.729 766.365,-163.608"/>
<polygon fill="midnightblue" stroke="midnightblue" points="739.526,-163.598 730.066,-168.368 740.436,-170.538 739.526,-163.598"/>
</g>
<!-- Node11 -->
<g id="node11" class="node"><title>Node11</title>
<g id="a_node11"><a xlink:href="../../df/d2d/classslogo_1_1_view.html#aa90e5d95d422b58b7f4b7f8a049defe1" target="_top" xlink:title="slogo.View.executeCommand">
<polygon fill="white" stroke="black" points="936,-133.5 936,-152.5 1094,-152.5 1094,-133.5 936,-133.5"/>
<text text-anchor="middle" x="1015" y="-140.5" font-family="Helvetica,sans-Serif" font-size="10.00">slogo.View.executeCommand</text>
</a>
</g>
</g>
<!-- Node10&#45;&gt;Node11 -->
<g id="edge11" class="edge"><title>Node10&#45;&gt;Node11</title>
<path fill="none" stroke="midnightblue" d="M909.784,-149.948C918.42,-149.372 927.235,-148.784 935.901,-148.207"/>
<polygon fill="midnightblue" stroke="midnightblue" points="909.493,-146.459 899.748,-150.617 909.959,-153.444 909.493,-146.459"/>
</g>
<!-- Node12 -->
<g id="node12" class="node"><title>Node12</title>
<g id="a_node12"><a xlink:href="../../df/d2d/classslogo_1_1_view.html#aee563f6a0b15ac6668e4dcbdad40c73c" target="_top" xlink:title="slogo.View.sendCommandTo\lBackend">
<polygon fill="white" stroke="black" points="1136,-235 1136,-265 1288,-265 1288,-235 1136,-235"/>
<text text-anchor="start" x="1144" y="-253" font-family="Helvetica,sans-Serif" font-size="10.00">slogo.View.sendCommandTo</text>
<text text-anchor="middle" x="1212" y="-242" font-family="Helvetica,sans-Serif" font-size="10.00">Backend</text>
</a>
</g>
</g>
<!-- Node11&#45;&gt;Node12 -->
<g id="edge12" class="edge"><title>Node11&#45;&gt;Node12</title>
<path fill="none" stroke="midnightblue" d="M1042.81,-157.71C1079.74,-177.977 1145.94,-214.303 1183.33,-234.816"/>
<polygon fill="midnightblue" stroke="midnightblue" points="1044.1,-154.426 1033.65,-152.684 1040.73,-160.563 1044.1,-154.426"/>
</g>
<!-- Node25 -->
<g id="node25" class="node"><title>Node25</title>
<g id="a_node25"><a xlink:href="../../df/d2d/classslogo_1_1_view.html#a4c3084a198acf85804800d70eff9ee51" target="_top" xlink:title="slogo.View.stepIntoCommand">
<polygon fill="white" stroke="black" points="1133,-127.5 1133,-146.5 1291,-146.5 1291,-127.5 1133,-127.5"/>
<text text-anchor="middle" x="1212" y="-134.5" font-family="Helvetica,sans-Serif" font-size="10.00">slogo.View.stepIntoCommand</text>
</a>
</g>
</g>
<!-- Node11&#45;&gt;Node25 -->
<g id="edge33" class="edge"><title>Node11&#45;&gt;Node25</title>
<path fill="none" stroke="midnightblue" d="M1104.4,-140.28C1113.87,-139.989 1123.45,-139.694 1132.79,-139.406"/>
<polygon fill="midnightblue" stroke="midnightblue" points="1104.08,-136.788 1094.19,-140.594 1104.29,-143.785 1104.08,-136.788"/>
</g>
<!-- Node29 -->
<g id="node29" class="node"><title>Node29</title>
<g id="a_node29"><a xlink:href="../../df/d2d/classslogo_1_1_view.html#ac8b7f574c679e744a430f1649dc55e68" target="_top" xlink:title="slogo.View.stepOverCommand">
<polygon fill="white" stroke="black" points="1130.5,-80.5 1130.5,-99.5 1293.5,-99.5 1293.5,-80.5 1130.5,-80.5"/>
<text text-anchor="middle" x="1212" y="-87.5" font-family="Helvetica,sans-Serif" font-size="10.00">slogo.View.stepOverCommand</text>
</a>
</g>
</g>
<!-- Node11&#45;&gt;Node29 -->
<g id="edge38" class="edge"><title>Node11&#45;&gt;Node29</title>
<path fill="none" stroke="midnightblue" d="M1061.26,-130.697C1096.21,-121.198 1143.87,-108.246 1175.95,-99.5265"/>
<polygon fill="midnightblue" stroke="midnightblue" points="1060.04,-127.402 1051.31,-133.402 1061.88,-134.157 1060.04,-127.402"/>
</g>
<!-- Node12&#45;&gt;Node2 -->
<g id="edge13" class="edge"><title>Node12&#45;&gt;Node2</title>
<path fill="none" stroke="midnightblue" d="M1233.54,-272.733C1250.42,-291.791 1274.62,-319.986 1294,-346 1311.45,-369.43 1306.15,-384.125 1330,-401 1335.51,-404.897 1341.55,-408.189 1347.87,-410.971"/>
<polygon fill="midnightblue" stroke="midnightblue" points="1236.05,-270.294 1226.78,-265.157 1230.82,-274.952 1236.05,-270.294"/>
</g>
<!-- Node13 -->
<g id="node13" class="node"><title>Node13</title>
<g id="a_node13"><a xlink:href="../../db/d19/classslogo_1_1_u_i_1_1_module_creation_helper.html#aa70b0ad9e90e62509149bfd2ef2ba209" target="_top" xlink:title="slogo.UI.ModuleCreationHelper.activate\lKeyEvents">
<polygon fill="white" stroke="black" points="2040.5,-93 2040.5,-123 2245.5,-123 2245.5,-93 2040.5,-93"/>
<text text-anchor="start" x="2048.5" y="-111" font-family="Helvetica,sans-Serif" font-size="10.00">slogo.UI.ModuleCreationHelper.activate</text>
<text text-anchor="middle" x="2143" y="-100" font-family="Helvetica,sans-Serif" font-size="10.00">KeyEvents</text>
</a>
</g>
</g>
<!-- Node12&#45;&gt;Node13 -->
<g id="edge14" class="edge"><title>Node12&#45;&gt;Node13</title>
<path fill="none" stroke="midnightblue" d="M1232.96,-227.201C1263,-193.169 1317.65,-132.469 1330,-127 1454.18,-72.0071 1851.21,-89.0149 2040.18,-100.806"/>
<polygon fill="midnightblue" stroke="midnightblue" points="1230.22,-225.011 1226.24,-234.83 1235.48,-229.637 1230.22,-225.011"/>
</g>
<!-- Node14 -->
<g id="node14" class="node"><title>Node14</title>
<g id="a_node14"><a xlink:href="../../db/d19/classslogo_1_1_u_i_1_1_module_creation_helper.html#a2e841243ec3ca474e8822102343acc88" target="_top" xlink:title="slogo.UI.ModuleCreationHelper.activate\lNewTurtleButton">
<polygon fill="white" stroke="black" points="1330.5,-235 1330.5,-265 1535.5,-265 1535.5,-235 1330.5,-235"/>
<text text-anchor="start" x="1338.5" y="-253" font-family="Helvetica,sans-Serif" font-size="10.00">slogo.UI.ModuleCreationHelper.activate</text>
<text text-anchor="middle" x="1433" y="-242" font-family="Helvetica,sans-Serif" font-size="10.00">NewTurtleButton</text>
</a>
</g>
</g>
<!-- Node12&#45;&gt;Node14 -->
<g id="edge16" class="edge"><title>Node12&#45;&gt;Node14</title>
<path fill="none" stroke="midnightblue" d="M1298.08,-250C1308.65,-250 1319.54,-250 1330.33,-250"/>
<polygon fill="midnightblue" stroke="midnightblue" points="1298.06,-246.5 1288.06,-250 1298.06,-253.5 1298.06,-246.5"/>
</g>
<!-- Node16 -->
<g id="node16" class="node"><title>Node16</title>
<g id="a_node16"><a xlink:href="../../db/d19/classslogo_1_1_u_i_1_1_module_creation_helper.html#a9b1f07ab673191067907a059b1b0c524" target="_top" xlink:title="slogo.UI.ModuleCreationHelper.activate\lPlayButton">
<polygon fill="white" stroke="black" points="1330.5,-186 1330.5,-216 1535.5,-216 1535.5,-186 1330.5,-186"/>
<text text-anchor="start" x="1338.5" y="-204" font-family="Helvetica,sans-Serif" font-size="10.00">slogo.UI.ModuleCreationHelper.activate</text>
<text text-anchor="middle" x="1433" y="-193" font-family="Helvetica,sans-Serif" font-size="10.00">PlayButton</text>
</a>
</g>
</g>
<!-- Node12&#45;&gt;Node16 -->
<g id="edge19" class="edge"><title>Node12&#45;&gt;Node16</title>
<path fill="none" stroke="midnightblue" d="M1290.13,-232.742C1314.54,-227.282 1341.29,-221.295 1364.93,-216.006"/>
<polygon fill="midnightblue" stroke="midnightblue" points="1289.19,-229.366 1280.2,-234.965 1290.72,-236.197 1289.19,-229.366"/>
</g>
<!-- Node19 -->
<g id="node19" class="node"><title>Node19</title>
<g id="a_node19"><a xlink:href="../../db/d19/classslogo_1_1_u_i_1_1_module_creation_helper.html#a3a38d485562cb17591ec3fd07cffc18a" target="_top" xlink:title="slogo.UI.ModuleCreationHelper.activate\lTurtleCanvas">
<polygon fill="white" stroke="black" points="1330.5,-137 1330.5,-167 1535.5,-167 1535.5,-137 1330.5,-137"/>
<text text-anchor="start" x="1338.5" y="-155" font-family="Helvetica,sans-Serif" font-size="10.00">slogo.UI.ModuleCreationHelper.activate</text>
<text text-anchor="middle" x="1433" y="-144" font-family="Helvetica,sans-Serif" font-size="10.00">TurtleCanvas</text>
</a>
</g>
</g>
<!-- Node12&#45;&gt;Node19 -->
<g id="edge23" class="edge"><title>Node12&#45;&gt;Node19</title>
<path fill="none" stroke="midnightblue" d="M1240.76,-228.683C1263.59,-212.107 1297.38,-189.696 1330,-176 1338.14,-172.584 1346.85,-169.601 1355.63,-167.01"/>
<polygon fill="midnightblue" stroke="midnightblue" points="1238.55,-225.968 1232.57,-234.72 1242.7,-231.602 1238.55,-225.968"/>
</g>
<!-- Node21 -->
<g id="node21" class="node"><title>Node21</title>
<g id="a_node21"><a xlink:href="../../d1/d5f/classslogo_1_1_u_i_1_1_path_color_selector.html#ad3d9c82a0904c97edcec7cf67b85bd7b" target="_top" xlink:title="slogo.UI.PathColorSelector.create">
<polygon fill="white" stroke="black" points="1345,-372.5 1345,-391.5 1521,-391.5 1521,-372.5 1345,-372.5"/>
<text text-anchor="middle" x="1433" y="-379.5" font-family="Helvetica,sans-Serif" font-size="10.00">slogo.UI.PathColorSelector.create</text>
</a>
</g>
</g>
<!-- Node12&#45;&gt;Node21 -->
<g id="edge26" class="edge"><title>Node12&#45;&gt;Node21</title>
<path fill="none" stroke="midnightblue" d="M1230.44,-273.306C1251.18,-299.247 1288.29,-340.36 1330,-362 1338.41,-366.363 1347.66,-369.778 1357.05,-372.449"/>
<polygon fill="midnightblue" stroke="midnightblue" points="1232.97,-270.858 1224.05,-265.14 1227.45,-275.172 1232.97,-270.858"/>
</g>
<!-- Node23 -->
<g id="node23" class="node"><title>Node23</title>
<g id="a_node23"><a xlink:href="../../d4/d8d/classslogo_1_1_u_i_1_1_background_color_selector.html#ad75ba4ce104e071811d0fe039a4e839f" target="_top" xlink:title="slogo.UI.BackgroundColor\lSelector.create">
<polygon fill="white" stroke="black" points="1363,-323 1363,-353 1503,-353 1503,-323 1363,-323"/>
<text text-anchor="start" x="1371" y="-341" font-family="Helvetica,sans-Serif" font-size="10.00">slogo.UI.BackgroundColor</text>
<text text-anchor="middle" x="1433" y="-330" font-family="Helvetica,sans-Serif" font-size="10.00">Selector.create</text>
</a>
</g>
</g>
<!-- Node12&#45;&gt;Node23 -->
<g id="edge29" class="edge"><title>Node12&#45;&gt;Node23</title>
<path fill="none" stroke="midnightblue" d="M1245.42,-270.354C1268.33,-284.006 1300.16,-301.522 1330,-313 1340.47,-317.025 1351.79,-320.559 1362.96,-323.605"/>
<polygon fill="midnightblue" stroke="midnightblue" points="1247.16,-267.317 1236.79,-265.145 1243.54,-273.31 1247.16,-267.317"/>
</g>
<!-- Node24 -->
<g id="node24" class="node"><title>Node24</title>
<g id="a_node24"><a xlink:href="../../dd/da7/classslogo_1_1_u_i_1_1_turtle_image_selector.html#a3f268d9196ffebcbb5dc322d2897a9fe" target="_top" xlink:title="slogo.UI.TurtleImageSelector.create">
<polygon fill="white" stroke="black" points="1340,-284.5 1340,-303.5 1526,-303.5 1526,-284.5 1340,-284.5"/>
<text text-anchor="middle" x="1433" y="-291.5" font-family="Helvetica,sans-Serif" font-size="10.00">slogo.UI.TurtleImageSelector.create</text>
</a>
</g>
</g>
<!-- Node12&#45;&gt;Node24 -->
<g id="edge31" class="edge"><title>Node12&#45;&gt;Node24</title>
<path fill="none" stroke="midnightblue" d="M1295.74,-267.065C1307.24,-269.411 1318.91,-271.776 1330,-274 1347.25,-277.46 1366.16,-281.186 1382.95,-284.473"/>
<polygon fill="midnightblue" stroke="midnightblue" points="1296.19,-263.585 1285.69,-265.013 1294.79,-270.443 1296.19,-263.585"/>
</g>
<!-- Node13&#45;&gt;Node5 -->
<g id="edge15" class="edge"><title>Node13&#45;&gt;Node5</title>
<path fill="none" stroke="midnightblue" d="M2226.42,-125.113C2252.9,-130.611 2282.03,-136.658 2307.73,-141.994"/>
<polygon fill="midnightblue" stroke="midnightblue" points="2226.91,-121.641 2216.41,-123.035 2225.49,-128.495 2226.91,-121.641"/>
</g>
<!-- Node15 -->
<g id="node15" class="node"><title>Node15</title>
<g id="a_node15"><a xlink:href="../../db/d19/classslogo_1_1_u_i_1_1_module_creation_helper.html#a07f5483df317cdf80e8ea2dda5699afa" target="_top" xlink:title="slogo.UI.ModuleCreationHelper.create\lNewTurtleButton">
<polygon fill="white" stroke="black" points="1806.5,-235 1806.5,-265 2003.5,-265 2003.5,-235 1806.5,-235"/>
<text text-anchor="start" x="1814.5" y="-253" font-family="Helvetica,sans-Serif" font-size="10.00">slogo.UI.ModuleCreationHelper.create</text>
<text text-anchor="middle" x="1905" y="-242" font-family="Helvetica,sans-Serif" font-size="10.00">NewTurtleButton</text>
</a>
</g>
</g>
<!-- Node14&#45;&gt;Node15 -->
<g id="edge17" class="edge"><title>Node14&#45;&gt;Node15</title>
<path fill="none" stroke="midnightblue" d="M1545.71,-250C1624.92,-250 1730.2,-250 1806.12,-250"/>
<polygon fill="midnightblue" stroke="midnightblue" points="1545.69,-246.5 1535.69,-250 1545.69,-253.5 1545.69,-246.5"/>
</g>
<!-- Node15&#45;&gt;Node4 -->
<g id="edge18" class="edge"><title>Node15&#45;&gt;Node4</title>
<path fill="none" stroke="midnightblue" d="M2013.83,-239.948C2024.01,-238.999 2034.3,-238.04 2044.38,-237.1"/>
<polygon fill="midnightblue" stroke="midnightblue" points="2013.33,-236.48 2003.69,-240.893 2013.98,-243.45 2013.33,-236.48"/>
</g>
<!-- Node17 -->
<g id="node17" class="node"><title>Node17</title>
<g id="a_node17"><a xlink:href="../../db/d19/classslogo_1_1_u_i_1_1_module_creation_helper.html#a9b3fb38a55b3b7812b4f793afa7a974f" target="_top" xlink:title="slogo.UI.ModuleCreationHelper.create\lPlayButton">
<polygon fill="white" stroke="black" points="1572.5,-186 1572.5,-216 1769.5,-216 1769.5,-186 1572.5,-186"/>
<text text-anchor="start" x="1580.5" y="-204" font-family="Helvetica,sans-Serif" font-size="10.00">slogo.UI.ModuleCreationHelper.create</text>
<text text-anchor="middle" x="1671" y="-193" font-family="Helvetica,sans-Serif" font-size="10.00">PlayButton</text>
</a>
</g>
</g>
<!-- Node16&#45;&gt;Node17 -->
<g id="edge20" class="edge"><title>Node16&#45;&gt;Node17</title>
<path fill="none" stroke="midnightblue" d="M1546.05,-201C1554.81,-201 1563.62,-201 1572.27,-201"/>
<polygon fill="midnightblue" stroke="midnightblue" points="1545.8,-197.5 1535.8,-201 1545.8,-204.5 1545.8,-197.5"/>
</g>
<!-- Node18 -->
<g id="node18" class="node"><title>Node18</title>
<g id="a_node18"><a xlink:href="../../db/d19/classslogo_1_1_u_i_1_1_module_creation_helper.html#ae1e60d37509c2e5eddcb2a6e70b4f650" target="_top" xlink:title="slogo.UI.ModuleCreationHelper.create\lFirstRowButtons">
<polygon fill="white" stroke="black" points="1806.5,-186 1806.5,-216 2003.5,-216 2003.5,-186 1806.5,-186"/>
<text text-anchor="start" x="1814.5" y="-204" font-family="Helvetica,sans-Serif" font-size="10.00">slogo.UI.ModuleCreationHelper.create</text>
<text text-anchor="middle" x="1905" y="-193" font-family="Helvetica,sans-Serif" font-size="10.00">FirstRowButtons</text>
</a>
</g>
</g>
<!-- Node17&#45;&gt;Node18 -->
<g id="edge21" class="edge"><title>Node17&#45;&gt;Node18</title>
<path fill="none" stroke="midnightblue" d="M1779.72,-201C1788.62,-201 1797.58,-201 1806.4,-201"/>
<polygon fill="midnightblue" stroke="midnightblue" points="1779.72,-197.5 1769.72,-201 1779.72,-204.5 1779.72,-197.5"/>
</g>
<!-- Node18&#45;&gt;Node4 -->
<g id="edge22" class="edge"><title>Node18&#45;&gt;Node4</title>
<path fill="none" stroke="midnightblue" d="M2013.83,-213.337C2024.01,-214.502 2034.3,-215.678 2044.38,-216.832"/>
<polygon fill="midnightblue" stroke="midnightblue" points="2014.03,-209.836 2003.69,-212.177 2013.23,-216.791 2014.03,-209.836"/>
</g>
<!-- Node20 -->
<g id="node20" class="node"><title>Node20</title>
<g id="a_node20"><a xlink:href="../../db/d19/classslogo_1_1_u_i_1_1_module_creation_helper.html#a803bac6b55bde712b21f2face1eeef81" target="_top" xlink:title="slogo.UI.ModuleCreationHelper.create\lTurtleCanvas">
<polygon fill="white" stroke="black" points="2044.5,-142 2044.5,-172 2241.5,-172 2241.5,-142 2044.5,-142"/>
<text text-anchor="start" x="2052.5" y="-160" font-family="Helvetica,sans-Serif" font-size="10.00">slogo.UI.ModuleCreationHelper.create</text>
<text text-anchor="middle" x="2143" y="-149" font-family="Helvetica,sans-Serif" font-size="10.00">TurtleCanvas</text>
</a>
</g>
</g>
<!-- Node19&#45;&gt;Node20 -->
<g id="edge24" class="edge"><title>Node19&#45;&gt;Node20</title>
<path fill="none" stroke="midnightblue" d="M1545.95,-152.791C1683.26,-153.76 1913.81,-155.388 2044.28,-156.31"/>
<polygon fill="midnightblue" stroke="midnightblue" points="1545.84,-149.29 1535.82,-152.719 1545.79,-156.29 1545.84,-149.29"/>
</g>
<!-- Node20&#45;&gt;Node5 -->
<g id="edge25" class="edge"><title>Node20&#45;&gt;Node5</title>
<path fill="none" stroke="midnightblue" d="M2251.83,-157C2262.01,-157 2272.3,-157 2282.38,-157"/>
<polygon fill="midnightblue" stroke="midnightblue" points="2251.69,-153.5 2241.69,-157 2251.69,-160.5 2251.69,-153.5"/>
</g>
<!-- Node22 -->
<g id="node22" class="node"><title>Node22</title>
<g id="a_node22"><a xlink:href="../../db/d19/classslogo_1_1_u_i_1_1_module_creation_helper.html#af7f2919454fdbf6e9d7d912e99634857" target="_top" xlink:title="slogo.UI.ModuleCreationHelper.create\lSelectors">
<polygon fill="white" stroke="black" points="1572.5,-279 1572.5,-309 1769.5,-309 1769.5,-279 1572.5,-279"/>
<text text-anchor="start" x="1580.5" y="-297" font-family="Helvetica,sans-Serif" font-size="10.00">slogo.UI.ModuleCreationHelper.create</text>
<text text-anchor="middle" x="1671" y="-286" font-family="Helvetica,sans-Serif" font-size="10.00">Selectors</text>
</a>
</g>
</g>
<!-- Node21&#45;&gt;Node22 -->
<g id="edge27" class="edge"><title>Node21&#45;&gt;Node22</title>
<path fill="none" stroke="midnightblue" d="M1519.98,-369.259C1525.54,-367.189 1530.94,-364.786 1536,-362 1556.38,-350.785 1552.22,-336.254 1572,-324 1581.83,-317.908 1592.99,-312.976 1604.16,-309.007"/>
<polygon fill="midnightblue" stroke="midnightblue" points="1518.86,-365.944 1510.49,-372.44 1521.08,-372.581 1518.86,-365.944"/>
</g>
<!-- Node22&#45;&gt;Node4 -->
<g id="edge28" class="edge"><title>Node22&#45;&gt;Node4</title>
<path fill="none" stroke="midnightblue" d="M1780.13,-294.598C1845.47,-293.204 1930.14,-288.278 2004,-274 2039.33,-267.17 2078.09,-253.69 2105.51,-243.081"/>
<polygon fill="midnightblue" stroke="midnightblue" points="1779.74,-291.104 1769.81,-294.792 1779.87,-298.103 1779.74,-291.104"/>
</g>
<!-- Node23&#45;&gt;Node22 -->
<g id="edge30" class="edge"><title>Node23&#45;&gt;Node22</title>
<path fill="none" stroke="midnightblue" d="M1513.16,-323.241C1537.62,-318.682 1564.57,-313.656 1589.14,-309.076"/>
<polygon fill="midnightblue" stroke="midnightblue" points="1512.4,-319.822 1503.21,-325.096 1513.69,-326.704 1512.4,-319.822"/>
</g>
<!-- Node24&#45;&gt;Node22 -->
<g id="edge32" class="edge"><title>Node24&#45;&gt;Node22</title>
<path fill="none" stroke="midnightblue" d="M1536.26,-294C1548.24,-294 1560.44,-294 1572.35,-294"/>
<polygon fill="midnightblue" stroke="midnightblue" points="1536.26,-290.5 1526.26,-294 1536.26,-297.5 1536.26,-290.5"/>
</g>
<!-- Node26 -->
<g id="node26" class="node"><title>Node26</title>
<g id="a_node26"><a xlink:href="../../db/d19/classslogo_1_1_u_i_1_1_module_creation_helper.html#a9fd730f7c1860d34bf4ac46c3828bd59" target="_top" xlink:title="slogo.UI.ModuleCreationHelper.activate\lStepIntoButton">
<polygon fill="white" stroke="black" points="1330.5,-49 1330.5,-79 1535.5,-79 1535.5,-49 1330.5,-49"/>
<text text-anchor="start" x="1338.5" y="-67" font-family="Helvetica,sans-Serif" font-size="10.00">slogo.UI.ModuleCreationHelper.activate</text>
<text text-anchor="middle" x="1433" y="-56" font-family="Helvetica,sans-Serif" font-size="10.00">StepIntoButton</text>
</a>
</g>
</g>
<!-- Node25&#45;&gt;Node26 -->
<g id="edge34" class="edge"><title>Node25&#45;&gt;Node26</title>
<path fill="none" stroke="midnightblue" d="M1251.5,-124.235C1265.01,-119.614 1280.24,-114.24 1294,-109 1310.2,-102.832 1313.66,-99.7873 1330,-94 1345.05,-88.669 1361.58,-83.5155 1376.86,-79.0282"/>
<polygon fill="midnightblue" stroke="midnightblue" points="1250.37,-120.925 1242.02,-127.453 1252.62,-127.553 1250.37,-120.925"/>
</g>
<!-- Node27 -->
<g id="node27" class="node"><title>Node27</title>
<g id="a_node27"><a xlink:href="../../db/d19/classslogo_1_1_u_i_1_1_module_creation_helper.html#a4a6f1f009507c25be8c7c28cbba35f3b" target="_top" xlink:title="slogo.UI.ModuleCreationHelper.create\lDebugStepIntoButton">
<polygon fill="white" stroke="black" points="1572.5,-49 1572.5,-79 1769.5,-79 1769.5,-49 1572.5,-49"/>
<text text-anchor="start" x="1580.5" y="-67" font-family="Helvetica,sans-Serif" font-size="10.00">slogo.UI.ModuleCreationHelper.create</text>
<text text-anchor="middle" x="1671" y="-56" font-family="Helvetica,sans-Serif" font-size="10.00">DebugStepIntoButton</text>
</a>
</g>
</g>
<!-- Node26&#45;&gt;Node27 -->
<g id="edge35" class="edge"><title>Node26&#45;&gt;Node27</title>
<path fill="none" stroke="midnightblue" d="M1546.05,-64C1554.81,-64 1563.62,-64 1572.27,-64"/>
<polygon fill="midnightblue" stroke="midnightblue" points="1545.8,-60.5001 1535.8,-64 1545.8,-67.5001 1545.8,-60.5001"/>
</g>
<!-- Node28 -->
<g id="node28" class="node"><title>Node28</title>
<g id="a_node28"><a xlink:href="../../db/d19/classslogo_1_1_u_i_1_1_module_creation_helper.html#a975af4ea47dc85df72215bdf1a0d20ce" target="_top" xlink:title="slogo.UI.ModuleCreationHelper.create\lDebugModules">
<polygon fill="white" stroke="black" points="1806.5,-49 1806.5,-79 2003.5,-79 2003.5,-49 1806.5,-49"/>
<text text-anchor="start" x="1814.5" y="-67" font-family="Helvetica,sans-Serif" font-size="10.00">slogo.UI.ModuleCreationHelper.create</text>
<text text-anchor="middle" x="1905" y="-56" font-family="Helvetica,sans-Serif" font-size="10.00">DebugModules</text>
</a>
</g>
</g>
<!-- Node27&#45;&gt;Node28 -->
<g id="edge36" class="edge"><title>Node27&#45;&gt;Node28</title>
<path fill="none" stroke="midnightblue" d="M1779.72,-64C1788.62,-64 1797.58,-64 1806.4,-64"/>
<polygon fill="midnightblue" stroke="midnightblue" points="1779.72,-60.5001 1769.72,-64 1779.72,-67.5001 1779.72,-60.5001"/>
</g>
<!-- Node28&#45;&gt;Node5 -->
<g id="edge37" class="edge"><title>Node28&#45;&gt;Node5</title>
<path fill="none" stroke="midnightblue" d="M2013.83,-57.8832C2081.72,-56.9816 2170.48,-61.2678 2246,-83 2289.42,-95.4937 2334.26,-124.027 2359.49,-141.787"/>
<polygon fill="midnightblue" stroke="midnightblue" points="2013.48,-54.3886 2003.54,-58.0614 2013.6,-61.3875 2013.48,-54.3886"/>
</g>
<!-- Node30 -->
<g id="node30" class="node"><title>Node30</title>
<g id="a_node30"><a xlink:href="../../db/d19/classslogo_1_1_u_i_1_1_module_creation_helper.html#a0fed0bb32bf2643d6fd5c24d82e8e18e" target="_top" xlink:title="slogo.UI.ModuleCreationHelper.activate\lStepOverButton">
<polygon fill="white" stroke="black" points="1330.5,-0 1330.5,-30 1535.5,-30 1535.5,-0 1330.5,-0"/>
<text text-anchor="start" x="1338.5" y="-18" font-family="Helvetica,sans-Serif" font-size="10.00">slogo.UI.ModuleCreationHelper.activate</text>
<text text-anchor="middle" x="1433" y="-7" font-family="Helvetica,sans-Serif" font-size="10.00">StepOverButton</text>
</a>
</g>
</g>
<!-- Node29&#45;&gt;Node30 -->
<g id="edge39" class="edge"><title>Node29&#45;&gt;Node30</title>
<path fill="none" stroke="midnightblue" d="M1241.34,-75.9256C1264.7,-64.752 1298.91,-49.3408 1330,-39 1339.84,-35.7275 1350.35,-32.7225 1360.76,-30.0281"/>
<polygon fill="midnightblue" stroke="midnightblue" points="1239.52,-72.9209 1232.04,-80.4277 1242.57,-79.2218 1239.52,-72.9209"/>
</g>
<!-- Node31 -->
<g id="node31" class="node"><title>Node31</title>
<g id="a_node31"><a xlink:href="../../db/d19/classslogo_1_1_u_i_1_1_module_creation_helper.html#aa1e7dc2b509360583790fba0d3819c8d" target="_top" xlink:title="slogo.UI.ModuleCreationHelper.create\lDebugStepOverButton">
<polygon fill="white" stroke="black" points="1572.5,-0 1572.5,-30 1769.5,-30 1769.5,-0 1572.5,-0"/>
<text text-anchor="start" x="1580.5" y="-18" font-family="Helvetica,sans-Serif" font-size="10.00">slogo.UI.ModuleCreationHelper.create</text>
<text text-anchor="middle" x="1671" y="-7" font-family="Helvetica,sans-Serif" font-size="10.00">DebugStepOverButton</text>
</a>
</g>
</g>
<!-- Node30&#45;&gt;Node31 -->
<g id="edge40" class="edge"><title>Node30&#45;&gt;Node31</title>
<path fill="none" stroke="midnightblue" d="M1546.05,-15C1554.81,-15 1563.62,-15 1572.27,-15"/>
<polygon fill="midnightblue" stroke="midnightblue" points="1545.8,-11.5001 1535.8,-15 1545.8,-18.5001 1545.8,-11.5001"/>
</g>
<!-- Node31&#45;&gt;Node28 -->
<g id="edge41" class="edge"><title>Node31&#45;&gt;Node28</title>
<path fill="none" stroke="midnightblue" d="M1753.02,-32.1127C1779.06,-37.6115 1807.69,-43.658 1832.95,-48.9938"/>
<polygon fill="midnightblue" stroke="midnightblue" points="1753.69,-28.6767 1743.18,-30.0346 1752.25,-35.5256 1753.69,-28.6767"/>
</g>
<!-- Node33 -->
<g id="node33" class="node"><title>Node33</title>
<g id="a_node33"><a xlink:href="../../d9/d7e/classslogo_1_1_u_i_1_1_method_runner.html#a1ab80948935d4a625cf3313eabe9a51d" target="_top" xlink:title="slogo.UI.MethodRunner.move\lTurtle">
<polygon fill="white" stroke="black" points="374,-142 374,-172 530,-172 530,-142 374,-142"/>
<text text-anchor="start" x="382" y="-160" font-family="Helvetica,sans-Serif" font-size="10.00">slogo.UI.MethodRunner.move</text>
<text text-anchor="middle" x="452" y="-149" font-family="Helvetica,sans-Serif" font-size="10.00">Turtle</text>
</a>
</g>
</g>
<!-- Node32&#45;&gt;Node33 -->
<g id="edge43" class="edge"><title>Node32&#45;&gt;Node33</title>
<path fill="none" stroke="midnightblue" d="M348.117,-157C356.693,-157 365.369,-157 373.855,-157"/>
<polygon fill="midnightblue" stroke="midnightblue" points="348.113,-153.5 338.113,-157 348.113,-160.5 348.113,-153.5"/>
</g>
<!-- Node33&#45;&gt;Node9 -->
<g id="edge44" class="edge"><title>Node33&#45;&gt;Node9</title>
<path fill="none" stroke="midnightblue" d="M540.207,-166.889C548.759,-167.859 557.413,-168.841 565.9,-169.803"/>
<polygon fill="midnightblue" stroke="midnightblue" points="540.562,-163.407 530.231,-165.758 539.773,-170.363 540.562,-163.407"/>
</g>
<!-- Node35 -->
<g id="node35" class="node"><title>Node35</title>
<g id="a_node35"><a xlink:href="../../d9/d7e/classslogo_1_1_u_i_1_1_method_runner.html#a5e01d88aabd60df2be9ebb5b874837b1" target="_top" xlink:title="slogo.UI.MethodRunner.set\lPenAttributes">
<polygon fill="white" stroke="black" points="380,-230 380,-260 524,-260 524,-230 380,-230"/>
<text text-anchor="start" x="388" y="-248" font-family="Helvetica,sans-Serif" font-size="10.00">slogo.UI.MethodRunner.set</text>
<text text-anchor="middle" x="452" y="-237" font-family="Helvetica,sans-Serif" font-size="10.00">PenAttributes</text>
</a>
</g>
</g>
<!-- Node34&#45;&gt;Node35 -->
<g id="edge46" class="edge"><title>Node34&#45;&gt;Node35</title>
<path fill="none" stroke="midnightblue" d="M344.36,-245C356.165,-245 368.241,-245 379.825,-245"/>
<polygon fill="midnightblue" stroke="midnightblue" points="344.075,-241.5 334.075,-245 344.075,-248.5 344.075,-241.5"/>
</g>
<!-- Node35&#45;&gt;Node9 -->
<g id="edge47" class="edge"><title>Node35&#45;&gt;Node9</title>
<path fill="none" stroke="midnightblue" d="M507.033,-226.618C537.184,-216.36 574.276,-203.741 602.7,-194.071"/>
<polygon fill="midnightblue" stroke="midnightblue" points="505.847,-223.324 497.508,-229.858 508.102,-229.951 505.847,-223.324"/>
</g>
</g>
</svg>
