<?xml version="1.0" encoding="UTF-8" standalone="no"?>
<!DOCTYPE svg PUBLIC "-//W3C//DTD SVG 1.1//EN"
 "http://www.w3.org/Graphics/SVG/1.1/DTD/svg11.dtd">
<!-- Generated by graphviz version 2.36.0 (20140111.2315)
 -->
<!-- Title: slogo.UI.Turtle.moveTurtle Pages: 1 -->
<svg width="310pt" height="66pt"
 viewBox="0.00 0.00 310.00 66.00" xmlns="http://www.w3.org/2000/svg" xmlns:xlink="http://www.w3.org/1999/xlink">
<g id="graph0" class="graph" transform="scale(1 1) rotate(0) translate(4 62)">
<title>slogo.UI.Turtle.moveTurtle</title>
<polygon fill="white" stroke="none" points="-4,4 -4,-62 306,-62 306,4 -4,4"/>
<!-- Node1 -->
<g id="node1" class="node"><title>Node1</title>
<polygon fill="#bfbfbf" stroke="black" points="0.5,-19.5 0.5,-38.5 139.5,-38.5 139.5,-19.5 0.5,-19.5"/>
<text text-anchor="middle" x="70" y="-26.5" font-family="Helvetica,sans-Serif" font-size="10.00">slogo.UI.Turtle.moveTurtle</text>
</g>
<!-- Node2 -->
<g id="node2" class="node"><title>Node2</title>
<g id="a_node2"><a xlink:href="../../d5/deb/classslogo_1_1_u_i_1_1_turtle.html#a85f06fd2596915a4b658293482a7c041" target="_top" xlink:title="slogo.UI.Turtle.setXPos">
<polygon fill="white" stroke="black" points="176.5,-38.5 176.5,-57.5 301.5,-57.5 301.5,-38.5 176.5,-38.5"/>
<text text-anchor="middle" x="239" y="-45.5" font-family="Helvetica,sans-Serif" font-size="10.00">slogo.UI.Turtle.setXPos</text>
</a>
</g>
</g>
<!-- Node1&#45;&gt;Node2 -->
<g id="edge1" class="edge"><title>Node1&#45;&gt;Node2</title>
<path fill="none" stroke="midnightblue" d="M139.889,-36.8377C148.607,-37.8296 157.545,-38.8464 166.305,-39.8431"/>
<polygon fill="midnightblue" stroke="midnightblue" points="166.153,-43.3482 176.484,-41.0012 166.944,-36.3931 166.153,-43.3482"/>
</g>
<!-- Node3 -->
<g id="node3" class="node"><title>Node3</title>
<g id="a_node3"><a xlink:href="../../d5/deb/classslogo_1_1_u_i_1_1_turtle.html#a2e077221329000d9c17edcdaa0a83489" target="_top" xlink:title="slogo.UI.Turtle.setYPos">
<polygon fill="white" stroke="black" points="177,-0.5 177,-19.5 301,-19.5 301,-0.5 177,-0.5"/>
<text text-anchor="middle" x="239" y="-7.5" font-family="Helvetica,sans-Serif" font-size="10.00">slogo.UI.Turtle.setYPos</text>
</a>
</g>
</g>
<!-- Node1&#45;&gt;Node3 -->
<g id="edge2" class="edge"><title>Node1&#45;&gt;Node3</title>
<path fill="none" stroke="midnightblue" d="M139.889,-21.1623C148.768,-20.1522 157.873,-19.1162 166.788,-18.102"/>
<polygon fill="midnightblue" stroke="midnightblue" points="167.209,-21.5768 176.749,-16.9687 166.417,-14.6216 167.209,-21.5768"/>
</g>
</g>
</svg>
