<?xml version="1.0" encoding="UTF-8" standalone="no"?>
<!DOCTYPE svg PUBLIC "-//W3C//DTD SVG 1.1//EN"
 "http://www.w3.org/Graphics/SVG/1.1/DTD/svg11.dtd">
<!-- Generated by graphviz version 2.36.0 (20140111.2315)
 -->
<!-- Title: slogo.UI.Turtle.setImage Pages: 1 -->
<svg width="478pt" height="66pt"
 viewBox="0.00 0.00 478.00 66.00" xmlns="http://www.w3.org/2000/svg" xmlns:xlink="http://www.w3.org/1999/xlink">
<g id="graph0" class="graph" transform="scale(1 1) rotate(0) translate(4 62)">
<title>slogo.UI.Turtle.setImage</title>
<polygon fill="white" stroke="none" points="-4,4 -4,-62 474,-62 474,4 -4,4"/>
<!-- Node1 -->
<g id="node1" class="node"><title>Node1</title>
<polygon fill="#bfbfbf" stroke="black" points="0.5,-19.5 0.5,-38.5 131.5,-38.5 131.5,-19.5 0.5,-19.5"/>
<text text-anchor="middle" x="66" y="-26.5" font-family="Helvetica,sans-Serif" font-size="10.00">slogo.UI.Turtle.setImage</text>
</g>
<!-- Node2 -->
<g id="node2" class="node"><title>Node2</title>
<g id="a_node2"><a xlink:href="../../d5/deb/classslogo_1_1_u_i_1_1_turtle.html#a678c8daca68b92f79f73967a8be0f269" target="_top" xlink:title="slogo.UI.Turtle.moveTurtle">
<polygon fill="white" stroke="black" points="168.5,-19.5 168.5,-38.5 307.5,-38.5 307.5,-19.5 168.5,-19.5"/>
<text text-anchor="middle" x="238" y="-26.5" font-family="Helvetica,sans-Serif" font-size="10.00">slogo.UI.Turtle.moveTurtle</text>
</a>
</g>
</g>
<!-- Node1&#45;&gt;Node2 -->
<g id="edge1" class="edge"><title>Node1&#45;&gt;Node2</title>
<path fill="none" stroke="midnightblue" d="M131.755,-29C140.481,-29 149.51,-29 158.443,-29"/>
<polygon fill="midnightblue" stroke="midnightblue" points="158.467,-32.5001 168.467,-29 158.467,-25.5001 158.467,-32.5001"/>
</g>
<!-- Node3 -->
<g id="node3" class="node"><title>Node3</title>
<g id="a_node3"><a xlink:href="../../d5/deb/classslogo_1_1_u_i_1_1_turtle.html#a85f06fd2596915a4b658293482a7c041" target="_top" xlink:title="slogo.UI.Turtle.setXPos">
<polygon fill="white" stroke="black" points="344.5,-38.5 344.5,-57.5 469.5,-57.5 469.5,-38.5 344.5,-38.5"/>
<text text-anchor="middle" x="407" y="-45.5" font-family="Helvetica,sans-Serif" font-size="10.00">slogo.UI.Turtle.setXPos</text>
</a>
</g>
</g>
<!-- Node2&#45;&gt;Node3 -->
<g id="edge2" class="edge"><title>Node2&#45;&gt;Node3</title>
<path fill="none" stroke="midnightblue" d="M307.889,-36.8377C316.607,-37.8296 325.545,-38.8464 334.305,-39.8431"/>
<polygon fill="midnightblue" stroke="midnightblue" points="334.153,-43.3482 344.484,-41.0012 334.944,-36.3931 334.153,-43.3482"/>
</g>
<!-- Node4 -->
<g id="node4" class="node"><title>Node4</title>
<g id="a_node4"><a xlink:href="../../d5/deb/classslogo_1_1_u_i_1_1_turtle.html#a2e077221329000d9c17edcdaa0a83489" target="_top" xlink:title="slogo.UI.Turtle.setYPos">
<polygon fill="white" stroke="black" points="345,-0.5 345,-19.5 469,-19.5 469,-0.5 345,-0.5"/>
<text text-anchor="middle" x="407" y="-7.5" font-family="Helvetica,sans-Serif" font-size="10.00">slogo.UI.Turtle.setYPos</text>
</a>
</g>
</g>
<!-- Node2&#45;&gt;Node4 -->
<g id="edge3" class="edge"><title>Node2&#45;&gt;Node4</title>
<path fill="none" stroke="midnightblue" d="M307.889,-21.1623C316.768,-20.1522 325.873,-19.1162 334.788,-18.102"/>
<polygon fill="midnightblue" stroke="midnightblue" points="335.209,-21.5768 344.749,-16.9687 334.417,-14.6216 335.209,-21.5768"/>
</g>
</g>
</svg>
