<?xml version="1.0" encoding="UTF-8" standalone="no"?>
<!DOCTYPE svg PUBLIC "-//W3C//DTD SVG 1.1//EN"
 "http://www.w3.org/Graphics/SVG/1.1/DTD/svg11.dtd">
<!-- Generated by graphviz version 2.36.0 (20140111.2315)
 -->
<!-- Title: slogo.UI.Turtle.setLineProperty Pages: 1 -->
<svg width="1712pt" height="60pt"
 viewBox="0.00 0.00 1712.00 60.00" xmlns="http://www.w3.org/2000/svg" xmlns:xlink="http://www.w3.org/1999/xlink">
<g id="graph0" class="graph" transform="scale(1 1) rotate(0) translate(4 56)">
<title>slogo.UI.Turtle.setLineProperty</title>
<polygon fill="white" stroke="none" points="-4,4 -4,-56 1708,-56 1708,4 -4,4"/>
<!-- Node1 -->
<g id="node1" class="node"><title>Node1</title>
<polygon fill="#bfbfbf" stroke="black" points="0.5,-5.5 0.5,-24.5 161.5,-24.5 161.5,-5.5 0.5,-5.5"/>
<text text-anchor="middle" x="81" y="-12.5" font-family="Helvetica,sans-Serif" font-size="10.00">slogo.UI.Turtle.setLineProperty</text>
</g>
<!-- Node2 -->
<g id="node2" class="node"><title>Node2</title>
<g id="a_node2"><a xlink:href="../../d4/dbd/classslogo_1_1_u_i_1_1_path_texture_selector.html#ae80d00631de210d08b56261219333461" target="_top" xlink:title="slogo.UI.PathTextureSelector.create">
<polygon fill="white" stroke="black" points="198,-5.5 198,-24.5 384,-24.5 384,-5.5 198,-5.5"/>
<text text-anchor="middle" x="291" y="-12.5" font-family="Helvetica,sans-Serif" font-size="10.00">slogo.UI.PathTextureSelector.create</text>
</a>
</g>
</g>
<!-- Node1&#45;&gt;Node2 -->
<g id="edge1" class="edge"><title>Node1&#45;&gt;Node2</title>
<path fill="none" stroke="midnightblue" d="M171.683,-15C180.401,-15 189.256,-15 197.997,-15"/>
<polygon fill="midnightblue" stroke="midnightblue" points="171.526,-11.5001 161.526,-15 171.526,-18.5001 171.526,-11.5001"/>
</g>
<!-- Node3 -->
<g id="node3" class="node"><title>Node3</title>
<g id="a_node3"><a xlink:href="../../db/d19/classslogo_1_1_u_i_1_1_module_creation_helper.html#af7f2919454fdbf6e9d7d912e99634857" target="_top" xlink:title="slogo.UI.ModuleCreationHelper.create\lSelectors">
<polygon fill="white" stroke="black" points="420.5,-0 420.5,-30 617.5,-30 617.5,-0 420.5,-0"/>
<text text-anchor="start" x="428.5" y="-18" font-family="Helvetica,sans-Serif" font-size="10.00">slogo.UI.ModuleCreationHelper.create</text>
<text text-anchor="middle" x="519" y="-7" font-family="Helvetica,sans-Serif" font-size="10.00">Selectors</text>
</a>
</g>
</g>
<!-- Node2&#45;&gt;Node3 -->
<g id="edge2" class="edge"><title>Node2&#45;&gt;Node3</title>
<path fill="none" stroke="midnightblue" d="M394.301,-15C402.906,-15 411.596,-15 420.166,-15"/>
<polygon fill="midnightblue" stroke="midnightblue" points="394.249,-11.5001 384.249,-15 394.249,-18.5001 394.249,-11.5001"/>
</g>
<!-- Node4 -->
<g id="node4" class="node"><title>Node4</title>
<g id="a_node4"><a xlink:href="../../db/d19/classslogo_1_1_u_i_1_1_module_creation_helper.html#a7c650957b2389d6e6d36e8be8a33cd2b" target="_top" xlink:title="slogo.UI.ModuleCreationHelper.create\lSelectorVBoxModules">
<polygon fill="white" stroke="black" points="654.5,-0 654.5,-30 851.5,-30 851.5,-0 654.5,-0"/>
<text text-anchor="start" x="662.5" y="-18" font-family="Helvetica,sans-Serif" font-size="10.00">slogo.UI.ModuleCreationHelper.create</text>
<text text-anchor="middle" x="753" y="-7" font-family="Helvetica,sans-Serif" font-size="10.00">SelectorVBoxModules</text>
</a>
</g>
</g>
<!-- Node3&#45;&gt;Node4 -->
<g id="edge3" class="edge"><title>Node3&#45;&gt;Node4</title>
<path fill="none" stroke="midnightblue" d="M627.722,-15C636.618,-15 645.58,-15 654.396,-15"/>
<polygon fill="midnightblue" stroke="midnightblue" points="627.717,-11.5001 617.716,-15 627.716,-18.5001 627.717,-11.5001"/>
</g>
<!-- Node5 -->
<g id="node5" class="node"><title>Node5</title>
<g id="a_node5"><a xlink:href="../../db/d19/classslogo_1_1_u_i_1_1_module_creation_helper.html#afb9dbbbad7d872234a5b296fe129a34e" target="_top" xlink:title="slogo.UI.ModuleCreationHelper.create\lMainPageModules">
<polygon fill="white" stroke="black" points="888.5,-22 888.5,-52 1085.5,-52 1085.5,-22 888.5,-22"/>
<text text-anchor="start" x="896.5" y="-40" font-family="Helvetica,sans-Serif" font-size="10.00">slogo.UI.ModuleCreationHelper.create</text>
<text text-anchor="middle" x="987" y="-29" font-family="Helvetica,sans-Serif" font-size="10.00">MainPageModules</text>
</a>
</g>
</g>
<!-- Node4&#45;&gt;Node5 -->
<g id="edge4" class="edge"><title>Node4&#45;&gt;Node5</title>
<path fill="none" stroke="midnightblue" d="M861.722,-25.215C870.618,-26.0586 879.58,-26.9085 888.396,-27.7445"/>
<polygon fill="midnightblue" stroke="midnightblue" points="862.002,-21.726 851.716,-24.2662 861.341,-28.6947 862.002,-21.726"/>
</g>
<!-- Node6 -->
<g id="node6" class="node"><title>Node6</title>
<g id="a_node6"><a xlink:href="../../d9/d33/classslogo_1_1_u_i_1_1_main.html#a15b7f2e399ee24d160550993ab737e73" target="_top" xlink:title="slogo.UI.Main.start">
<polygon fill="white" stroke="black" points="1122,-27.5 1122,-46.5 1228,-46.5 1228,-27.5 1122,-27.5"/>
<text text-anchor="middle" x="1175" y="-34.5" font-family="Helvetica,sans-Serif" font-size="10.00">slogo.UI.Main.start</text>
</a>
</g>
</g>
<!-- Node5&#45;&gt;Node6 -->
<g id="edge5" class="edge"><title>Node5&#45;&gt;Node6</title>
<path fill="none" stroke="midnightblue" d="M1095.8,-37C1104.76,-37 1113.53,-37 1121.76,-37"/>
<polygon fill="midnightblue" stroke="midnightblue" points="1095.63,-33.5001 1085.63,-37 1095.63,-40.5001 1095.63,-33.5001"/>
</g>
<!-- Node7 -->
<g id="node7" class="node"><title>Node7</title>
<g id="a_node7"><a xlink:href="../../db/d19/classslogo_1_1_u_i_1_1_module_creation_helper.html#a3be12a7cc2b8a219db1e296211a2cb88" target="_top" xlink:title="slogo.UI.ModuleCreationHelper.activate\lExtraWorkspaceButton">
<polygon fill="white" stroke="black" points="1264.5,-22 1264.5,-52 1469.5,-52 1469.5,-22 1264.5,-22"/>
<text text-anchor="start" x="1272.5" y="-40" font-family="Helvetica,sans-Serif" font-size="10.00">slogo.UI.ModuleCreationHelper.activate</text>
<text text-anchor="middle" x="1367" y="-29" font-family="Helvetica,sans-Serif" font-size="10.00">ExtraWorkspaceButton</text>
</a>
</g>
</g>
<!-- Node6&#45;&gt;Node7 -->
<g id="edge6" class="edge"><title>Node6&#45;&gt;Node7</title>
<path fill="none" stroke="midnightblue" d="M1238.22,-37C1246.63,-37 1255.44,-37 1264.32,-37"/>
<polygon fill="midnightblue" stroke="midnightblue" points="1238.17,-33.5001 1228.17,-37 1238.17,-40.5001 1238.17,-33.5001"/>
</g>
<!-- Node8 -->
<g id="node8" class="node"><title>Node8</title>
<g id="a_node8"><a xlink:href="../../db/d19/classslogo_1_1_u_i_1_1_module_creation_helper.html#a702c1ebe24d2857a10c666eb1fcc315d" target="_top" xlink:title="slogo.UI.ModuleCreationHelper.create\lExtraWorkspaceButton">
<polygon fill="white" stroke="black" points="1506.5,-0 1506.5,-30 1703.5,-30 1703.5,-0 1506.5,-0"/>
<text text-anchor="start" x="1514.5" y="-18" font-family="Helvetica,sans-Serif" font-size="10.00">slogo.UI.ModuleCreationHelper.create</text>
<text text-anchor="middle" x="1605" y="-7" font-family="Helvetica,sans-Serif" font-size="10.00">ExtraWorkspaceButton</text>
</a>
</g>
</g>
<!-- Node7&#45;&gt;Node8 -->
<g id="edge7" class="edge"><title>Node7&#45;&gt;Node8</title>
<path fill="none" stroke="midnightblue" d="M1479.77,-26.5812C1488.62,-25.7556 1497.52,-24.9257 1506.27,-24.1101"/>
<polygon fill="midnightblue" stroke="midnightblue" points="1479.43,-23.0972 1469.8,-27.5104 1480.08,-30.067 1479.43,-23.0972"/>
</g>
<!-- Node8&#45;&gt;Node4 -->
<g id="edge8" class="edge"><title>Node8&#45;&gt;Node4</title>
<path fill="none" stroke="midnightblue" d="M1496.27,-12.3776C1487.38,-12.2253 1478.54,-12.0956 1470,-12 1211.35,-9.10502 1146.65,-9.10502 888,-12 876.25,-12.1315 863.921,-12.3279 851.699,-12.5584"/>
<polygon fill="midnightblue" stroke="midnightblue" points="1496.24,-15.8776 1506.3,-12.5584 1496.37,-8.87874 1496.24,-15.8776"/>
</g>
</g>
</svg>
