<?xml version="1.0" encoding="UTF-8" standalone="no"?>
<!DOCTYPE svg PUBLIC "-//W3C//DTD SVG 1.1//EN"
 "http://www.w3.org/Graphics/SVG/1.1/DTD/svg11.dtd">
<!-- Generated by graphviz version 2.36.0 (20140111.2315)
 -->
<!-- Title: slogo.UI.Turtle.setXPos Pages: 1 -->
<svg width="3434pt" height="430pt"
 viewBox="0.00 0.00 3434.00 430.00" xmlns="http://www.w3.org/2000/svg" xmlns:xlink="http://www.w3.org/1999/xlink">
<g id="graph0" class="graph" transform="scale(1 1) rotate(0) translate(4 426)">
<title>slogo.UI.Turtle.setXPos</title>
<polygon fill="white" stroke="none" points="-4,4 -4,-426 3430,-426 3430,4 -4,4"/>
<!-- Node1 -->
<g id="node1" class="node"><title>Node1</title>
<polygon fill="#bfbfbf" stroke="black" points="0.5,-38.5 0.5,-57.5 125.5,-57.5 125.5,-38.5 0.5,-38.5"/>
<text text-anchor="middle" x="63" y="-45.5" font-family="Helvetica,sans-Serif" font-size="10.00">slogo.UI.Turtle.setXPos</text>
</g>
<!-- Node2 -->
<g id="node2" class="node"><title>Node2</title>
<g id="a_node2"><a xlink:href="../../d5/deb/classslogo_1_1_u_i_1_1_turtle.html#a678c8daca68b92f79f73967a8be0f269" target="_top" xlink:title="slogo.UI.Turtle.moveTurtle">
<polygon fill="white" stroke="black" points="162.5,-38.5 162.5,-57.5 301.5,-57.5 301.5,-38.5 162.5,-38.5"/>
<text text-anchor="middle" x="232" y="-45.5" font-family="Helvetica,sans-Serif" font-size="10.00">slogo.UI.Turtle.moveTurtle</text>
</a>
</g>
</g>
<!-- Node1&#45;&gt;Node2 -->
<g id="edge1" class="edge"><title>Node1&#45;&gt;Node2</title>
<path fill="none" stroke="midnightblue" d="M135.872,-48C144.616,-48 153.534,-48 162.231,-48"/>
<polygon fill="midnightblue" stroke="midnightblue" points="135.71,-44.5001 125.71,-48 135.71,-51.5001 135.71,-44.5001"/>
</g>
<!-- Node3 -->
<g id="node3" class="node"><title>Node3</title>
<g id="a_node3"><a xlink:href="../../d9/d7e/classslogo_1_1_u_i_1_1_method_runner.html#a1ab80948935d4a625cf3313eabe9a51d" target="_top" xlink:title="slogo.UI.MethodRunner.move\lTurtle">
<polygon fill="white" stroke="black" points="506,-77 506,-107 662,-107 662,-77 506,-77"/>
<text text-anchor="start" x="514" y="-95" font-family="Helvetica,sans-Serif" font-size="10.00">slogo.UI.MethodRunner.move</text>
<text text-anchor="middle" x="584" y="-84" font-family="Helvetica,sans-Serif" font-size="10.00">Turtle</text>
</a>
</g>
</g>
<!-- Node2&#45;&gt;Node3 -->
<g id="edge2" class="edge"><title>Node2&#45;&gt;Node3</title>
<path fill="none" stroke="midnightblue" d="M291.478,-59.4091C306.595,-62.1308 322.873,-64.8628 338,-67 393.988,-74.9101 457.514,-81.3194 505.848,-85.6675"/>
<polygon fill="midnightblue" stroke="midnightblue" points="291.693,-55.8904 281.227,-57.5338 290.434,-62.7761 291.693,-55.8904"/>
</g>
<!-- Node34 -->
<g id="node34" class="node"><title>Node34</title>
<g id="a_node34"><a xlink:href="../../d5/deb/classslogo_1_1_u_i_1_1_turtle.html#acea66642c893474f33f416ebf67f769e" target="_top" xlink:title="slogo.UI.Turtle.setImage">
<polygon fill="white" stroke="black" points="338.5,-38.5 338.5,-57.5 469.5,-57.5 469.5,-38.5 338.5,-38.5"/>
<text text-anchor="middle" x="404" y="-45.5" font-family="Helvetica,sans-Serif" font-size="10.00">slogo.UI.Turtle.setImage</text>
</a>
</g>
</g>
<!-- Node2&#45;&gt;Node34 -->
<g id="edge43" class="edge"><title>Node2&#45;&gt;Node34</title>
<path fill="none" stroke="midnightblue" d="M311.716,-48C320.682,-48 329.741,-48 338.492,-48"/>
<polygon fill="midnightblue" stroke="midnightblue" points="311.656,-44.5001 301.655,-48 311.655,-51.5001 311.656,-44.5001"/>
</g>
<!-- Node37 -->
<g id="node37" class="node"><title>Node37</title>
<g id="a_node37"><a xlink:href="../../d5/deb/classslogo_1_1_u_i_1_1_turtle.html#a677d21287d8b754ce9b12fe2004f90dc" target="_top" xlink:title="slogo.UI.Turtle.Turtle">
<polygon fill="white" stroke="black" points="348,-0.5 348,-19.5 460,-19.5 460,-0.5 348,-0.5"/>
<text text-anchor="middle" x="404" y="-7.5" font-family="Helvetica,sans-Serif" font-size="10.00">slogo.UI.Turtle.Turtle</text>
</a>
</g>
</g>
<!-- Node2&#45;&gt;Node37 -->
<g id="edge47" class="edge"><title>Node2&#45;&gt;Node37</title>
<path fill="none" stroke="midnightblue" d="M285.898,-36.1757C309.865,-30.8184 337.824,-24.5689 360.41,-19.5201"/>
<polygon fill="midnightblue" stroke="midnightblue" points="284.894,-32.8138 275.898,-38.411 286.421,-39.6452 284.894,-32.8138"/>
</g>
<!-- Node4 -->
<g id="node4" class="node"><title>Node4</title>
<g id="a_node4"><a xlink:href="../../d9/d7e/classslogo_1_1_u_i_1_1_method_runner.html#a5fe4a6310ba1b0851d7d30a440511324" target="_top" xlink:title="slogo.UI.MethodRunner.change\lTurtle">
<polygon fill="white" stroke="black" points="878,-52 878,-82 1042,-82 1042,-52 878,-52"/>
<text text-anchor="start" x="886" y="-70" font-family="Helvetica,sans-Serif" font-size="10.00">slogo.UI.MethodRunner.change</text>
<text text-anchor="middle" x="960" y="-59" font-family="Helvetica,sans-Serif" font-size="10.00">Turtle</text>
</a>
</g>
</g>
<!-- Node3&#45;&gt;Node4 -->
<g id="edge3" class="edge"><title>Node3&#45;&gt;Node4</title>
<path fill="none" stroke="midnightblue" d="M672.21,-86.1704C734.309,-82.0195 817.171,-76.4806 877.855,-72.4241"/>
<polygon fill="midnightblue" stroke="midnightblue" points="671.784,-82.691 662.04,-86.8503 672.251,-89.6755 671.784,-82.691"/>
</g>
<!-- Node5 -->
<g id="node5" class="node"><title>Node5</title>
<g id="a_node5"><a xlink:href="../../df/d2d/classslogo_1_1_view.html#accc79c56511a72090ff8a4d414b8d1f5" target="_top" xlink:title="slogo.View.executeTurtle\lCommands">
<polygon fill="white" stroke="black" points="1078.5,-52 1078.5,-82 1211.5,-82 1211.5,-52 1078.5,-52"/>
<text text-anchor="start" x="1086.5" y="-70" font-family="Helvetica,sans-Serif" font-size="10.00">slogo.View.executeTurtle</text>
<text text-anchor="middle" x="1145" y="-59" font-family="Helvetica,sans-Serif" font-size="10.00">Commands</text>
</a>
</g>
</g>
<!-- Node4&#45;&gt;Node5 -->
<g id="edge4" class="edge"><title>Node4&#45;&gt;Node5</title>
<path fill="none" stroke="midnightblue" d="M1052.35,-67C1061.13,-67 1069.91,-67 1078.37,-67"/>
<polygon fill="midnightblue" stroke="midnightblue" points="1052.07,-63.5001 1042.07,-67 1052.07,-70.5001 1052.07,-63.5001"/>
</g>
<!-- Node6 -->
<g id="node6" class="node"><title>Node6</title>
<g id="a_node6"><a xlink:href="../../df/d2d/classslogo_1_1_view.html#aa90e5d95d422b58b7f4b7f8a049defe1" target="_top" xlink:title="slogo.View.executeCommand">
<polygon fill="white" stroke="black" points="1248,-57.5 1248,-76.5 1406,-76.5 1406,-57.5 1248,-57.5"/>
<text text-anchor="middle" x="1327" y="-64.5" font-family="Helvetica,sans-Serif" font-size="10.00">slogo.View.executeCommand</text>
</a>
</g>
</g>
<!-- Node5&#45;&gt;Node6 -->
<g id="edge5" class="edge"><title>Node5&#45;&gt;Node6</title>
<path fill="none" stroke="midnightblue" d="M1221.78,-67C1230.42,-67 1239.24,-67 1247.9,-67"/>
<polygon fill="midnightblue" stroke="midnightblue" points="1221.75,-63.5001 1211.75,-67 1221.75,-70.5001 1221.75,-63.5001"/>
</g>
<!-- Node7 -->
<g id="node7" class="node"><title>Node7</title>
<g id="a_node7"><a xlink:href="../../df/d2d/classslogo_1_1_view.html#aee563f6a0b15ac6668e4dcbdad40c73c" target="_top" xlink:title="slogo.View.sendCommandTo\lBackend">
<polygon fill="white" stroke="black" points="1448,-216 1448,-246 1600,-246 1600,-216 1448,-216"/>
<text text-anchor="start" x="1456" y="-234" font-family="Helvetica,sans-Serif" font-size="10.00">slogo.View.sendCommandTo</text>
<text text-anchor="middle" x="1524" y="-223" font-family="Helvetica,sans-Serif" font-size="10.00">Backend</text>
</a>
</g>
</g>
<!-- Node6&#45;&gt;Node7 -->
<g id="edge6" class="edge"><title>Node6&#45;&gt;Node7</title>
<path fill="none" stroke="midnightblue" d="M1347.05,-83.0252C1384.77,-114.741 1468.43,-185.108 1505.15,-215.984"/>
<polygon fill="midnightblue" stroke="midnightblue" points="1349.23,-80.2841 1339.33,-76.5262 1344.73,-85.6414 1349.23,-80.2841"/>
</g>
<!-- Node27 -->
<g id="node27" class="node"><title>Node27</title>
<g id="a_node27"><a xlink:href="../../df/d2d/classslogo_1_1_view.html#a4c3084a198acf85804800d70eff9ee51" target="_top" xlink:title="slogo.View.stepIntoCommand">
<polygon fill="white" stroke="black" points="1445,-57.5 1445,-76.5 1603,-76.5 1603,-57.5 1445,-57.5"/>
<text text-anchor="middle" x="1524" y="-64.5" font-family="Helvetica,sans-Serif" font-size="10.00">slogo.View.stepIntoCommand</text>
</a>
</g>
</g>
<!-- Node6&#45;&gt;Node27 -->
<g id="edge34" class="edge"><title>Node6&#45;&gt;Node27</title>
<path fill="none" stroke="midnightblue" d="M1416.4,-67C1425.87,-67 1435.45,-67 1444.79,-67"/>
<polygon fill="midnightblue" stroke="midnightblue" points="1416.19,-63.5001 1406.19,-67 1416.19,-70.5001 1416.19,-63.5001"/>
</g>
<!-- Node31 -->
<g id="node31" class="node"><title>Node31</title>
<g id="a_node31"><a xlink:href="../../df/d2d/classslogo_1_1_view.html#ac8b7f574c679e744a430f1649dc55e68" target="_top" xlink:title="slogo.View.stepOverCommand">
<polygon fill="white" stroke="black" points="1442.5,-14.5 1442.5,-33.5 1605.5,-33.5 1605.5,-14.5 1442.5,-14.5"/>
<text text-anchor="middle" x="1524" y="-21.5" font-family="Helvetica,sans-Serif" font-size="10.00">slogo.View.stepOverCommand</text>
</a>
</g>
</g>
<!-- Node6&#45;&gt;Node31 -->
<g id="edge39" class="edge"><title>Node6&#45;&gt;Node31</title>
<path fill="none" stroke="midnightblue" d="M1381.06,-55.3005C1412.07,-48.462 1450.71,-39.9406 1479.84,-33.5164"/>
<polygon fill="midnightblue" stroke="midnightblue" points="1380.29,-51.8855 1371.28,-57.4569 1381.8,-58.7213 1380.29,-51.8855"/>
</g>
<!-- Node8 -->
<g id="node8" class="node"><title>Node8</title>
<g id="a_node8"><a xlink:href="../../db/d19/classslogo_1_1_u_i_1_1_module_creation_helper.html#a69e17abcc7cf9a6ed7261d8fb1d631fa" target="_top" xlink:title="slogo.UI.ModuleCreationHelper.activate\lIncreaseDecreaseButtons">
<polygon fill="white" stroke="black" points="1642.5,-392 1642.5,-422 1847.5,-422 1847.5,-392 1642.5,-392"/>
<text text-anchor="start" x="1650.5" y="-410" font-family="Helvetica,sans-Serif" font-size="10.00">slogo.UI.ModuleCreationHelper.activate</text>
<text text-anchor="middle" x="1745" y="-399" font-family="Helvetica,sans-Serif" font-size="10.00">IncreaseDecreaseButtons</text>
</a>
</g>
</g>
<!-- Node7&#45;&gt;Node8 -->
<g id="edge7" class="edge"><title>Node7&#45;&gt;Node8</title>
<path fill="none" stroke="midnightblue" d="M1538.04,-255.219C1556.78,-287.724 1594.36,-345.06 1642,-377 1651.12,-383.116 1661.51,-388.01 1672.09,-391.919"/>
<polygon fill="midnightblue" stroke="midnightblue" points="1541.01,-253.361 1533.05,-246.368 1534.91,-256.798 1541.01,-253.361"/>
</g>
<!-- Node15 -->
<g id="node15" class="node"><title>Node15</title>
<g id="a_node15"><a xlink:href="../../db/d19/classslogo_1_1_u_i_1_1_module_creation_helper.html#aa70b0ad9e90e62509149bfd2ef2ba209" target="_top" xlink:title="slogo.UI.ModuleCreationHelper.activate\lKeyEvents">
<polygon fill="white" stroke="black" points="2368.5,-139 2368.5,-169 2573.5,-169 2573.5,-139 2368.5,-139"/>
<text text-anchor="start" x="2376.5" y="-157" font-family="Helvetica,sans-Serif" font-size="10.00">slogo.UI.ModuleCreationHelper.activate</text>
<text text-anchor="middle" x="2471" y="-146" font-family="Helvetica,sans-Serif" font-size="10.00">KeyEvents</text>
</a>
</g>
</g>
<!-- Node7&#45;&gt;Node15 -->
<g id="edge15" class="edge"><title>Node7&#45;&gt;Node15</title>
<path fill="none" stroke="midnightblue" d="M1554.18,-210.164C1576.9,-195.251 1609.88,-176.388 1642,-168 1776.15,-132.97 2178.16,-142.777 2368.26,-149.744"/>
<polygon fill="midnightblue" stroke="midnightblue" points="1552.05,-207.378 1545.7,-215.86 1555.95,-213.189 1552.05,-207.378"/>
</g>
<!-- Node16 -->
<g id="node16" class="node"><title>Node16</title>
<g id="a_node16"><a xlink:href="../../db/d19/classslogo_1_1_u_i_1_1_module_creation_helper.html#a2e841243ec3ca474e8822102343acc88" target="_top" xlink:title="slogo.UI.ModuleCreationHelper.activate\lNewTurtleButton">
<polygon fill="white" stroke="black" points="1884.5,-347 1884.5,-377 2089.5,-377 2089.5,-347 1884.5,-347"/>
<text text-anchor="start" x="1892.5" y="-365" font-family="Helvetica,sans-Serif" font-size="10.00">slogo.UI.ModuleCreationHelper.activate</text>
<text text-anchor="middle" x="1987" y="-354" font-family="Helvetica,sans-Serif" font-size="10.00">NewTurtleButton</text>
</a>
</g>
</g>
<!-- Node7&#45;&gt;Node16 -->
<g id="edge17" class="edge"><title>Node7&#45;&gt;Node16</title>
<path fill="none" stroke="midnightblue" d="M1541.02,-254.155C1561.1,-281.009 1598.24,-324.013 1642,-343 1718.41,-376.152 1813.47,-378.86 1884.29,-374.435"/>
<polygon fill="midnightblue" stroke="midnightblue" points="1543.83,-252.073 1535.11,-246.055 1538.18,-256.197 1543.83,-252.073"/>
</g>
<!-- Node18 -->
<g id="node18" class="node"><title>Node18</title>
<g id="a_node18"><a xlink:href="../../db/d19/classslogo_1_1_u_i_1_1_module_creation_helper.html#a9b1f07ab673191067907a059b1b0c524" target="_top" xlink:title="slogo.UI.ModuleCreationHelper.activate\lPlayButton">
<polygon fill="white" stroke="black" points="1642.5,-304 1642.5,-334 1847.5,-334 1847.5,-304 1642.5,-304"/>
<text text-anchor="start" x="1650.5" y="-322" font-family="Helvetica,sans-Serif" font-size="10.00">slogo.UI.ModuleCreationHelper.activate</text>
<text text-anchor="middle" x="1745" y="-311" font-family="Helvetica,sans-Serif" font-size="10.00">PlayButton</text>
</a>
</g>
</g>
<!-- Node7&#45;&gt;Node18 -->
<g id="edge20" class="edge"><title>Node7&#45;&gt;Node18</title>
<path fill="none" stroke="midnightblue" d="M1557.42,-251.354C1580.33,-265.006 1612.16,-282.522 1642,-294 1651.7,-297.73 1662.14,-301.039 1672.5,-303.929"/>
<polygon fill="midnightblue" stroke="midnightblue" points="1559.16,-248.317 1548.79,-246.145 1555.54,-254.31 1559.16,-248.317"/>
</g>
<!-- Node21 -->
<g id="node21" class="node"><title>Node21</title>
<g id="a_node21"><a xlink:href="../../db/d19/classslogo_1_1_u_i_1_1_module_creation_helper.html#a3a38d485562cb17591ec3fd07cffc18a" target="_top" xlink:title="slogo.UI.ModuleCreationHelper.activate\lTurtleCanvas">
<polygon fill="white" stroke="black" points="2126.5,-90 2126.5,-120 2331.5,-120 2331.5,-90 2126.5,-90"/>
<text text-anchor="start" x="2134.5" y="-108" font-family="Helvetica,sans-Serif" font-size="10.00">slogo.UI.ModuleCreationHelper.activate</text>
<text text-anchor="middle" x="2229" y="-97" font-family="Helvetica,sans-Serif" font-size="10.00">TurtleCanvas</text>
</a>
</g>
</g>
<!-- Node7&#45;&gt;Node21 -->
<g id="edge24" class="edge"><title>Node7&#45;&gt;Node21</title>
<path fill="none" stroke="midnightblue" d="M1544.37,-208.232C1565.63,-185.064 1602.1,-150.434 1642,-135 1727.51,-101.92 1982.48,-100.527 2126.33,-102.616"/>
<polygon fill="midnightblue" stroke="midnightblue" points="1541.56,-206.115 1537.5,-215.898 1546.78,-210.786 1541.56,-206.115"/>
</g>
<!-- Node23 -->
<g id="node23" class="node"><title>Node23</title>
<g id="a_node23"><a xlink:href="../../d1/d5f/classslogo_1_1_u_i_1_1_path_color_selector.html#ad3d9c82a0904c97edcec7cf67b85bd7b" target="_top" xlink:title="slogo.UI.PathColorSelector.create">
<polygon fill="white" stroke="black" points="1657,-265.5 1657,-284.5 1833,-284.5 1833,-265.5 1657,-265.5"/>
<text text-anchor="middle" x="1745" y="-272.5" font-family="Helvetica,sans-Serif" font-size="10.00">slogo.UI.PathColorSelector.create</text>
</a>
</g>
</g>
<!-- Node7&#45;&gt;Node23 -->
<g id="edge27" class="edge"><title>Node7&#45;&gt;Node23</title>
<path fill="none" stroke="midnightblue" d="M1607.74,-248.065C1619.24,-250.411 1630.91,-252.776 1642,-255 1659.25,-258.46 1678.16,-262.186 1694.95,-265.473"/>
<polygon fill="midnightblue" stroke="midnightblue" points="1608.19,-244.585 1597.69,-246.013 1606.79,-251.443 1608.19,-244.585"/>
</g>
<!-- Node25 -->
<g id="node25" class="node"><title>Node25</title>
<g id="a_node25"><a xlink:href="../../d4/d8d/classslogo_1_1_u_i_1_1_background_color_selector.html#ad75ba4ce104e071811d0fe039a4e839f" target="_top" xlink:title="slogo.UI.BackgroundColor\lSelector.create">
<polygon fill="white" stroke="black" points="1675,-216 1675,-246 1815,-246 1815,-216 1675,-216"/>
<text text-anchor="start" x="1683" y="-234" font-family="Helvetica,sans-Serif" font-size="10.00">slogo.UI.BackgroundColor</text>
<text text-anchor="middle" x="1745" y="-223" font-family="Helvetica,sans-Serif" font-size="10.00">Selector.create</text>
</a>
</g>
</g>
<!-- Node7&#45;&gt;Node25 -->
<g id="edge30" class="edge"><title>Node7&#45;&gt;Node25</title>
<path fill="none" stroke="midnightblue" d="M1610.14,-231C1631.6,-231 1654.37,-231 1674.93,-231"/>
<polygon fill="midnightblue" stroke="midnightblue" points="1610.06,-227.5 1600.06,-231 1610.06,-234.5 1610.06,-227.5"/>
</g>
<!-- Node26 -->
<g id="node26" class="node"><title>Node26</title>
<g id="a_node26"><a xlink:href="../../dd/da7/classslogo_1_1_u_i_1_1_turtle_image_selector.html#a3f268d9196ffebcbb5dc322d2897a9fe" target="_top" xlink:title="slogo.UI.TurtleImageSelector.create">
<polygon fill="white" stroke="black" points="1652,-177.5 1652,-196.5 1838,-196.5 1838,-177.5 1652,-177.5"/>
<text text-anchor="middle" x="1745" y="-184.5" font-family="Helvetica,sans-Serif" font-size="10.00">slogo.UI.TurtleImageSelector.create</text>
</a>
</g>
</g>
<!-- Node7&#45;&gt;Node26 -->
<g id="edge32" class="edge"><title>Node7&#45;&gt;Node26</title>
<path fill="none" stroke="midnightblue" d="M1604.01,-213.821C1616.7,-211.147 1629.71,-208.458 1642,-206 1657.99,-202.804 1675.42,-199.493 1691.27,-196.548"/>
<polygon fill="midnightblue" stroke="midnightblue" points="1602.98,-210.463 1593.92,-215.958 1604.43,-217.311 1602.98,-210.463"/>
</g>
<!-- Node9 -->
<g id="node9" class="node"><title>Node9</title>
<g id="a_node9"><a xlink:href="../../db/d19/classslogo_1_1_u_i_1_1_module_creation_helper.html#adce7362386f9a7b3006e7db08a2d578d" target="_top" xlink:title="slogo.UI.ModuleCreationHelper.create\lIncreaseDecreaseButtons">
<polygon fill="white" stroke="black" points="2130.5,-383 2130.5,-413 2327.5,-413 2327.5,-383 2130.5,-383"/>
<text text-anchor="start" x="2138.5" y="-401" font-family="Helvetica,sans-Serif" font-size="10.00">slogo.UI.ModuleCreationHelper.create</text>
<text text-anchor="middle" x="2229" y="-390" font-family="Helvetica,sans-Serif" font-size="10.00">IncreaseDecreaseButtons</text>
</a>
</g>
</g>
<!-- Node8&#45;&gt;Node9 -->
<g id="edge8" class="edge"><title>Node8&#45;&gt;Node9</title>
<path fill="none" stroke="midnightblue" d="M1857.79,-404.913C1940.23,-403.373 2051.29,-401.299 2130.21,-399.826"/>
<polygon fill="midnightblue" stroke="midnightblue" points="1857.56,-401.416 1847.63,-405.102 1857.69,-408.415 1857.56,-401.416"/>
</g>
<!-- Node10 -->
<g id="node10" class="node"><title>Node10</title>
<g id="a_node10"><a xlink:href="../../db/d19/classslogo_1_1_u_i_1_1_module_creation_helper.html#a7c650957b2389d6e6d36e8be8a33cd2b" target="_top" xlink:title="slogo.UI.ModuleCreationHelper.create\lSelectorVBoxModules">
<polygon fill="white" stroke="black" points="2372.5,-256 2372.5,-286 2569.5,-286 2569.5,-256 2372.5,-256"/>
<text text-anchor="start" x="2380.5" y="-274" font-family="Helvetica,sans-Serif" font-size="10.00">slogo.UI.ModuleCreationHelper.create</text>
<text text-anchor="middle" x="2471" y="-263" font-family="Helvetica,sans-Serif" font-size="10.00">SelectorVBoxModules</text>
</a>
</g>
</g>
<!-- Node9&#45;&gt;Node10 -->
<g id="edge9" class="edge"><title>Node9&#45;&gt;Node10</title>
<path fill="none" stroke="midnightblue" d="M2313,-379.732C2319.54,-377.424 2325.95,-374.854 2332,-372 2380.6,-349.077 2429.46,-308.079 2453.92,-286.025"/>
<polygon fill="midnightblue" stroke="midnightblue" points="2311.75,-376.461 2303.36,-382.93 2313.95,-383.105 2311.75,-376.461"/>
</g>
<!-- Node11 -->
<g id="node11" class="node"><title>Node11</title>
<g id="a_node11"><a xlink:href="../../db/d19/classslogo_1_1_u_i_1_1_module_creation_helper.html#afb9dbbbad7d872234a5b296fe129a34e" target="_top" xlink:title="slogo.UI.ModuleCreationHelper.create\lMainPageModules">
<polygon fill="white" stroke="black" points="2610.5,-139 2610.5,-169 2807.5,-169 2807.5,-139 2610.5,-139"/>
<text text-anchor="start" x="2618.5" y="-157" font-family="Helvetica,sans-Serif" font-size="10.00">slogo.UI.ModuleCreationHelper.create</text>
<text text-anchor="middle" x="2709" y="-146" font-family="Helvetica,sans-Serif" font-size="10.00">MainPageModules</text>
</a>
</g>
</g>
<!-- Node10&#45;&gt;Node11 -->
<g id="edge10" class="edge"><title>Node10&#45;&gt;Node11</title>
<path fill="none" stroke="midnightblue" d="M2511.58,-251.38C2558.29,-228.222 2634.96,-190.212 2677.37,-169.184"/>
<polygon fill="midnightblue" stroke="midnightblue" points="2509.77,-248.366 2502.37,-255.944 2512.88,-254.638 2509.77,-248.366"/>
</g>
<!-- Node12 -->
<g id="node12" class="node"><title>Node12</title>
<g id="a_node12"><a xlink:href="../../d9/d33/classslogo_1_1_u_i_1_1_main.html#a15b7f2e399ee24d160550993ab737e73" target="_top" xlink:title="slogo.UI.Main.start">
<polygon fill="white" stroke="black" points="2844,-153.5 2844,-172.5 2950,-172.5 2950,-153.5 2844,-153.5"/>
<text text-anchor="middle" x="2897" y="-160.5" font-family="Helvetica,sans-Serif" font-size="10.00">slogo.UI.Main.start</text>
</a>
</g>
</g>
<!-- Node11&#45;&gt;Node12 -->
<g id="edge11" class="edge"><title>Node11&#45;&gt;Node12</title>
<path fill="none" stroke="midnightblue" d="M2817.8,-159.216C2826.76,-159.65 2835.53,-160.074 2843.76,-160.472"/>
<polygon fill="midnightblue" stroke="midnightblue" points="2817.79,-155.712 2807.63,-158.724 2817.45,-162.703 2817.79,-155.712"/>
</g>
<!-- Node13 -->
<g id="node13" class="node"><title>Node13</title>
<g id="a_node13"><a xlink:href="../../db/d19/classslogo_1_1_u_i_1_1_module_creation_helper.html#a3be12a7cc2b8a219db1e296211a2cb88" target="_top" xlink:title="slogo.UI.ModuleCreationHelper.activate\lExtraWorkspaceButton">
<polygon fill="white" stroke="black" points="2986.5,-166 2986.5,-196 3191.5,-196 3191.5,-166 2986.5,-166"/>
<text text-anchor="start" x="2994.5" y="-184" font-family="Helvetica,sans-Serif" font-size="10.00">slogo.UI.ModuleCreationHelper.activate</text>
<text text-anchor="middle" x="3089" y="-173" font-family="Helvetica,sans-Serif" font-size="10.00">ExtraWorkspaceButton</text>
</a>
</g>
</g>
<!-- Node12&#45;&gt;Node13 -->
<g id="edge12" class="edge"><title>Node12&#45;&gt;Node13</title>
<path fill="none" stroke="midnightblue" d="M2960.22,-168.894C2968.63,-169.691 2977.44,-170.526 2986.32,-171.367"/>
<polygon fill="midnightblue" stroke="midnightblue" points="2960.46,-165.401 2950.17,-167.942 2959.79,-172.37 2960.46,-165.401"/>
</g>
<!-- Node14 -->
<g id="node14" class="node"><title>Node14</title>
<g id="a_node14"><a xlink:href="../../db/d19/classslogo_1_1_u_i_1_1_module_creation_helper.html#a702c1ebe24d2857a10c666eb1fcc315d" target="_top" xlink:title="slogo.UI.ModuleCreationHelper.create\lExtraWorkspaceButton">
<polygon fill="white" stroke="black" points="3228.5,-192 3228.5,-222 3425.5,-222 3425.5,-192 3228.5,-192"/>
<text text-anchor="start" x="3236.5" y="-210" font-family="Helvetica,sans-Serif" font-size="10.00">slogo.UI.ModuleCreationHelper.create</text>
<text text-anchor="middle" x="3327" y="-199" font-family="Helvetica,sans-Serif" font-size="10.00">ExtraWorkspaceButton</text>
</a>
</g>
</g>
<!-- Node13&#45;&gt;Node14 -->
<g id="edge13" class="edge"><title>Node13&#45;&gt;Node14</title>
<path fill="none" stroke="midnightblue" d="M3201.77,-193.313C3210.62,-194.289 3219.52,-195.27 3228.27,-196.234"/>
<polygon fill="midnightblue" stroke="midnightblue" points="3202.12,-189.831 3191.8,-192.215 3201.35,-196.789 3202.12,-189.831"/>
</g>
<!-- Node14&#45;&gt;Node10 -->
<g id="edge14" class="edge"><title>Node14&#45;&gt;Node10</title>
<path fill="none" stroke="midnightblue" d="M3218.34,-215.068C3050.9,-227.617 2730.6,-251.62 2569.55,-263.69"/>
<polygon fill="midnightblue" stroke="midnightblue" points="3218.7,-218.551 3228.41,-214.313 3218.18,-211.571 3218.7,-218.551"/>
</g>
<!-- Node15&#45;&gt;Node11 -->
<g id="edge16" class="edge"><title>Node15&#45;&gt;Node11</title>
<path fill="none" stroke="midnightblue" d="M2584.05,-154C2592.81,-154 2601.62,-154 2610.27,-154"/>
<polygon fill="midnightblue" stroke="midnightblue" points="2583.8,-150.5 2573.8,-154 2583.8,-157.5 2583.8,-150.5"/>
</g>
<!-- Node17 -->
<g id="node17" class="node"><title>Node17</title>
<g id="a_node17"><a xlink:href="../../db/d19/classslogo_1_1_u_i_1_1_module_creation_helper.html#a07f5483df317cdf80e8ea2dda5699afa" target="_top" xlink:title="slogo.UI.ModuleCreationHelper.create\lNewTurtleButton">
<polygon fill="white" stroke="black" points="2130.5,-333 2130.5,-363 2327.5,-363 2327.5,-333 2130.5,-333"/>
<text text-anchor="start" x="2138.5" y="-351" font-family="Helvetica,sans-Serif" font-size="10.00">slogo.UI.ModuleCreationHelper.create</text>
<text text-anchor="middle" x="2229" y="-340" font-family="Helvetica,sans-Serif" font-size="10.00">NewTurtleButton</text>
</a>
</g>
</g>
<!-- Node16&#45;&gt;Node17 -->
<g id="edge18" class="edge"><title>Node16&#45;&gt;Node17</title>
<path fill="none" stroke="midnightblue" d="M2099.89,-355.473C2110.04,-354.881 2120.26,-354.285 2130.27,-353.701"/>
<polygon fill="midnightblue" stroke="midnightblue" points="2099.56,-351.986 2089.78,-356.063 2099.97,-358.974 2099.56,-351.986"/>
</g>
<!-- Node17&#45;&gt;Node10 -->
<g id="edge19" class="edge"><title>Node17&#45;&gt;Node10</title>
<path fill="none" stroke="midnightblue" d="M2300.15,-330.309C2310.87,-327.354 2321.76,-324.203 2332,-321 2365.93,-310.387 2403.86,-296.493 2431.35,-286.046"/>
<polygon fill="midnightblue" stroke="midnightblue" points="2299.12,-326.962 2290.39,-332.963 2300.96,-333.717 2299.12,-326.962"/>
</g>
<!-- Node19 -->
<g id="node19" class="node"><title>Node19</title>
<g id="a_node19"><a xlink:href="../../db/d19/classslogo_1_1_u_i_1_1_module_creation_helper.html#a9b3fb38a55b3b7812b4f793afa7a974f" target="_top" xlink:title="slogo.UI.ModuleCreationHelper.create\lPlayButton">
<polygon fill="white" stroke="black" points="1888.5,-298 1888.5,-328 2085.5,-328 2085.5,-298 1888.5,-298"/>
<text text-anchor="start" x="1896.5" y="-316" font-family="Helvetica,sans-Serif" font-size="10.00">slogo.UI.ModuleCreationHelper.create</text>
<text text-anchor="middle" x="1987" y="-305" font-family="Helvetica,sans-Serif" font-size="10.00">PlayButton</text>
</a>
</g>
</g>
<!-- Node18&#45;&gt;Node19 -->
<g id="edge21" class="edge"><title>Node18&#45;&gt;Node19</title>
<path fill="none" stroke="midnightblue" d="M1857.89,-316.203C1868.04,-315.949 1878.26,-315.694 1888.27,-315.443"/>
<polygon fill="midnightblue" stroke="midnightblue" points="1857.69,-312.707 1847.78,-316.455 1857.87,-319.704 1857.69,-312.707"/>
</g>
<!-- Node20 -->
<g id="node20" class="node"><title>Node20</title>
<g id="a_node20"><a xlink:href="../../db/d19/classslogo_1_1_u_i_1_1_module_creation_helper.html#ae1e60d37509c2e5eddcb2a6e70b4f650" target="_top" xlink:title="slogo.UI.ModuleCreationHelper.create\lFirstRowButtons">
<polygon fill="white" stroke="black" points="2130.5,-282 2130.5,-312 2327.5,-312 2327.5,-282 2130.5,-282"/>
<text text-anchor="start" x="2138.5" y="-300" font-family="Helvetica,sans-Serif" font-size="10.00">slogo.UI.ModuleCreationHelper.create</text>
<text text-anchor="middle" x="2229" y="-289" font-family="Helvetica,sans-Serif" font-size="10.00">FirstRowButtons</text>
</a>
</g>
</g>
<!-- Node19&#45;&gt;Node20 -->
<g id="edge22" class="edge"><title>Node19&#45;&gt;Node20</title>
<path fill="none" stroke="midnightblue" d="M2095.73,-305.818C2107.3,-305.046 2119.03,-304.265 2130.47,-303.502"/>
<polygon fill="midnightblue" stroke="midnightblue" points="2095.36,-302.335 2085.62,-306.492 2095.83,-309.319 2095.36,-302.335"/>
</g>
<!-- Node20&#45;&gt;Node10 -->
<g id="edge23" class="edge"><title>Node20&#45;&gt;Node10</title>
<path fill="none" stroke="midnightblue" d="M2337.73,-285.329C2349.3,-284.075 2361.03,-282.805 2372.47,-281.566"/>
<polygon fill="midnightblue" stroke="midnightblue" points="2337.18,-281.868 2327.62,-286.425 2337.94,-288.827 2337.18,-281.868"/>
</g>
<!-- Node22 -->
<g id="node22" class="node"><title>Node22</title>
<g id="a_node22"><a xlink:href="../../db/d19/classslogo_1_1_u_i_1_1_module_creation_helper.html#a803bac6b55bde712b21f2face1eeef81" target="_top" xlink:title="slogo.UI.ModuleCreationHelper.create\lTurtleCanvas">
<polygon fill="white" stroke="black" points="2372.5,-90 2372.5,-120 2569.5,-120 2569.5,-90 2372.5,-90"/>
<text text-anchor="start" x="2380.5" y="-108" font-family="Helvetica,sans-Serif" font-size="10.00">slogo.UI.ModuleCreationHelper.create</text>
<text text-anchor="middle" x="2471" y="-97" font-family="Helvetica,sans-Serif" font-size="10.00">TurtleCanvas</text>
</a>
</g>
</g>
<!-- Node21&#45;&gt;Node22 -->
<g id="edge25" class="edge"><title>Node21&#45;&gt;Node22</title>
<path fill="none" stroke="midnightblue" d="M2341.89,-105C2352.04,-105 2362.26,-105 2372.27,-105"/>
<polygon fill="midnightblue" stroke="midnightblue" points="2341.78,-101.5 2331.78,-105 2341.78,-108.5 2341.78,-101.5"/>
</g>
<!-- Node22&#45;&gt;Node11 -->
<g id="edge26" class="edge"><title>Node22&#45;&gt;Node11</title>
<path fill="none" stroke="midnightblue" d="M2554.42,-122.113C2580.9,-127.611 2610.03,-133.658 2635.73,-138.994"/>
<polygon fill="midnightblue" stroke="midnightblue" points="2554.91,-118.641 2544.41,-120.035 2553.49,-125.495 2554.91,-118.641"/>
</g>
<!-- Node24 -->
<g id="node24" class="node"><title>Node24</title>
<g id="a_node24"><a xlink:href="../../db/d19/classslogo_1_1_u_i_1_1_module_creation_helper.html#af7f2919454fdbf6e9d7d912e99634857" target="_top" xlink:title="slogo.UI.ModuleCreationHelper.create\lSelectors">
<polygon fill="white" stroke="black" points="1888.5,-233 1888.5,-263 2085.5,-263 2085.5,-233 1888.5,-233"/>
<text text-anchor="start" x="1896.5" y="-251" font-family="Helvetica,sans-Serif" font-size="10.00">slogo.UI.ModuleCreationHelper.create</text>
<text text-anchor="middle" x="1987" y="-240" font-family="Helvetica,sans-Serif" font-size="10.00">Selectors</text>
</a>
</g>
</g>
<!-- Node23&#45;&gt;Node24 -->
<g id="edge28" class="edge"><title>Node23&#45;&gt;Node24</title>
<path fill="none" stroke="midnightblue" d="M1840.76,-264.339C1856.36,-262.585 1872.54,-260.764 1888.21,-259.002"/>
<polygon fill="midnightblue" stroke="midnightblue" points="1840.16,-260.885 1830.62,-265.481 1840.94,-267.841 1840.16,-260.885"/>
</g>
<!-- Node24&#45;&gt;Node10 -->
<g id="edge29" class="edge"><title>Node24&#45;&gt;Node10</title>
<path fill="none" stroke="midnightblue" d="M2095.74,-253.141C2178.55,-257.092 2291.97,-262.505 2372.19,-266.333"/>
<polygon fill="midnightblue" stroke="midnightblue" points="2095.7,-249.635 2085.54,-252.654 2095.36,-256.627 2095.7,-249.635"/>
</g>
<!-- Node25&#45;&gt;Node24 -->
<g id="edge31" class="edge"><title>Node25&#45;&gt;Node24</title>
<path fill="none" stroke="midnightblue" d="M1825.18,-236.609C1845.4,-238.041 1867.37,-239.597 1888.39,-241.086"/>
<polygon fill="midnightblue" stroke="midnightblue" points="1825.32,-233.11 1815.1,-235.894 1824.82,-240.092 1825.32,-233.11"/>
</g>
<!-- Node26&#45;&gt;Node24 -->
<g id="edge33" class="edge"><title>Node26&#45;&gt;Node24</title>
<path fill="none" stroke="midnightblue" d="M1813.48,-198.473C1825.04,-200.752 1836.9,-203.287 1848,-206 1879.38,-213.673 1914.18,-224.278 1940.98,-232.911"/>
<polygon fill="midnightblue" stroke="midnightblue" points="1813.9,-194.99 1803.42,-196.539 1812.58,-201.864 1813.9,-194.99"/>
</g>
<!-- Node28 -->
<g id="node28" class="node"><title>Node28</title>
<g id="a_node28"><a xlink:href="../../db/d19/classslogo_1_1_u_i_1_1_module_creation_helper.html#a9fd730f7c1860d34bf4ac46c3828bd59" target="_top" xlink:title="slogo.UI.ModuleCreationHelper.activate\lStepIntoButton">
<polygon fill="white" stroke="black" points="1642.5,-52 1642.5,-82 1847.5,-82 1847.5,-52 1642.5,-52"/>
<text text-anchor="start" x="1650.5" y="-70" font-family="Helvetica,sans-Serif" font-size="10.00">slogo.UI.ModuleCreationHelper.activate</text>
<text text-anchor="middle" x="1745" y="-59" font-family="Helvetica,sans-Serif" font-size="10.00">StepIntoButton</text>
</a>
</g>
</g>
<!-- Node27&#45;&gt;Node28 -->
<g id="edge35" class="edge"><title>Node27&#45;&gt;Node28</title>
<path fill="none" stroke="midnightblue" d="M1613.33,-67C1622.82,-67 1632.54,-67 1642.17,-67"/>
<polygon fill="midnightblue" stroke="midnightblue" points="1613.14,-63.5001 1603.14,-67 1613.14,-70.5001 1613.14,-63.5001"/>
</g>
<!-- Node29 -->
<g id="node29" class="node"><title>Node29</title>
<g id="a_node29"><a xlink:href="../../db/d19/classslogo_1_1_u_i_1_1_module_creation_helper.html#a4a6f1f009507c25be8c7c28cbba35f3b" target="_top" xlink:title="slogo.UI.ModuleCreationHelper.create\lDebugStepIntoButton">
<polygon fill="white" stroke="black" points="1888.5,-52 1888.5,-82 2085.5,-82 2085.5,-52 1888.5,-52"/>
<text text-anchor="start" x="1896.5" y="-70" font-family="Helvetica,sans-Serif" font-size="10.00">slogo.UI.ModuleCreationHelper.create</text>
<text text-anchor="middle" x="1987" y="-59" font-family="Helvetica,sans-Serif" font-size="10.00">DebugStepIntoButton</text>
</a>
</g>
</g>
<!-- Node28&#45;&gt;Node29 -->
<g id="edge36" class="edge"><title>Node28&#45;&gt;Node29</title>
<path fill="none" stroke="midnightblue" d="M1857.89,-67C1868.04,-67 1878.26,-67 1888.27,-67"/>
<polygon fill="midnightblue" stroke="midnightblue" points="1857.78,-63.5001 1847.78,-67 1857.78,-70.5001 1857.78,-63.5001"/>
</g>
<!-- Node30 -->
<g id="node30" class="node"><title>Node30</title>
<g id="a_node30"><a xlink:href="../../db/d19/classslogo_1_1_u_i_1_1_module_creation_helper.html#a975af4ea47dc85df72215bdf1a0d20ce" target="_top" xlink:title="slogo.UI.ModuleCreationHelper.create\lDebugModules">
<polygon fill="white" stroke="black" points="2130.5,-41 2130.5,-71 2327.5,-71 2327.5,-41 2130.5,-41"/>
<text text-anchor="start" x="2138.5" y="-59" font-family="Helvetica,sans-Serif" font-size="10.00">slogo.UI.ModuleCreationHelper.create</text>
<text text-anchor="middle" x="2229" y="-48" font-family="Helvetica,sans-Serif" font-size="10.00">DebugModules</text>
</a>
</g>
</g>
<!-- Node29&#45;&gt;Node30 -->
<g id="edge37" class="edge"><title>Node29&#45;&gt;Node30</title>
<path fill="none" stroke="midnightblue" d="M2095.73,-62.0622C2107.3,-61.5319 2119.03,-60.9945 2130.47,-60.4702"/>
<polygon fill="midnightblue" stroke="midnightblue" points="2095.45,-58.5716 2085.62,-62.5259 2095.77,-65.5643 2095.45,-58.5716"/>
</g>
<!-- Node30&#45;&gt;Node11 -->
<g id="edge38" class="edge"><title>Node30&#45;&gt;Node11</title>
<path fill="none" stroke="midnightblue" d="M2337.63,-51.679C2406.53,-51.779 2497.11,-57.2973 2574,-80 2617.33,-92.7936 2662.2,-121.228 2687.46,-138.889"/>
<polygon fill="midnightblue" stroke="midnightblue" points="2337.61,-48.1789 2327.62,-51.7021 2337.63,-55.1789 2337.61,-48.1789"/>
</g>
<!-- Node32 -->
<g id="node32" class="node"><title>Node32</title>
<g id="a_node32"><a xlink:href="../../db/d19/classslogo_1_1_u_i_1_1_module_creation_helper.html#a0fed0bb32bf2643d6fd5c24d82e8e18e" target="_top" xlink:title="slogo.UI.ModuleCreationHelper.activate\lStepOverButton">
<polygon fill="white" stroke="black" points="1642.5,-3 1642.5,-33 1847.5,-33 1847.5,-3 1642.5,-3"/>
<text text-anchor="start" x="1650.5" y="-21" font-family="Helvetica,sans-Serif" font-size="10.00">slogo.UI.ModuleCreationHelper.activate</text>
<text text-anchor="middle" x="1745" y="-10" font-family="Helvetica,sans-Serif" font-size="10.00">StepOverButton</text>
</a>
</g>
</g>
<!-- Node31&#45;&gt;Node32 -->
<g id="edge40" class="edge"><title>Node31&#45;&gt;Node32</title>
<path fill="none" stroke="midnightblue" d="M1615.8,-21.5123C1624.56,-21.2724 1633.48,-21.028 1642.33,-20.7856"/>
<polygon fill="midnightblue" stroke="midnightblue" points="1615.51,-18.0187 1605.61,-21.7914 1615.71,-25.0161 1615.51,-18.0187"/>
</g>
<!-- Node33 -->
<g id="node33" class="node"><title>Node33</title>
<g id="a_node33"><a xlink:href="../../db/d19/classslogo_1_1_u_i_1_1_module_creation_helper.html#aa1e7dc2b509360583790fba0d3819c8d" target="_top" xlink:title="slogo.UI.ModuleCreationHelper.create\lDebugStepOverButton">
<polygon fill="white" stroke="black" points="1888.5,-3 1888.5,-33 2085.5,-33 2085.5,-3 1888.5,-3"/>
<text text-anchor="start" x="1896.5" y="-21" font-family="Helvetica,sans-Serif" font-size="10.00">slogo.UI.ModuleCreationHelper.create</text>
<text text-anchor="middle" x="1987" y="-10" font-family="Helvetica,sans-Serif" font-size="10.00">DebugStepOverButton</text>
</a>
</g>
</g>
<!-- Node32&#45;&gt;Node33 -->
<g id="edge41" class="edge"><title>Node32&#45;&gt;Node33</title>
<path fill="none" stroke="midnightblue" d="M1857.89,-18C1868.04,-18 1878.26,-18 1888.27,-18"/>
<polygon fill="midnightblue" stroke="midnightblue" points="1857.78,-14.5001 1847.78,-18 1857.78,-21.5001 1857.78,-14.5001"/>
</g>
<!-- Node33&#45;&gt;Node30 -->
<g id="edge42" class="edge"><title>Node33&#45;&gt;Node30</title>
<path fill="none" stroke="midnightblue" d="M2092.99,-34.6227C2106.31,-36.7329 2119.89,-38.8827 2133.05,-40.966"/>
<polygon fill="midnightblue" stroke="midnightblue" points="2093.28,-31.1256 2082.85,-33.0186 2092.18,-38.0395 2093.28,-31.1256"/>
</g>
<!-- Node35 -->
<g id="node35" class="node"><title>Node35</title>
<g id="a_node35"><a xlink:href="../../d9/d7e/classslogo_1_1_u_i_1_1_method_runner.html#a7acbc486941b60522435d579c227d6db" target="_top" xlink:title="slogo.UI.MethodRunner.set\lTurtleImage">
<polygon fill="white" stroke="black" points="512,-28 512,-58 656,-58 656,-28 512,-28"/>
<text text-anchor="start" x="520" y="-46" font-family="Helvetica,sans-Serif" font-size="10.00">slogo.UI.MethodRunner.set</text>
<text text-anchor="middle" x="584" y="-35" font-family="Helvetica,sans-Serif" font-size="10.00">TurtleImage</text>
</a>
</g>
</g>
<!-- Node34&#45;&gt;Node35 -->
<g id="edge44" class="edge"><title>Node34&#45;&gt;Node35</title>
<path fill="none" stroke="midnightblue" d="M479.617,-45.904C490.267,-45.6049 501.199,-45.2978 511.781,-45.0005"/>
<polygon fill="midnightblue" stroke="midnightblue" points="479.412,-42.4083 469.514,-46.1878 479.608,-49.4056 479.412,-42.4083"/>
</g>
<!-- Node36 -->
<g id="node36" class="node"><title>Node36</title>
<g id="a_node36"><a xlink:href="../../d9/d7e/classslogo_1_1_u_i_1_1_method_runner.html#a5e01d88aabd60df2be9ebb5b874837b1" target="_top" xlink:title="slogo.UI.MethodRunner.set\lPenAttributes">
<polygon fill="white" stroke="black" points="698,-30 698,-60 842,-60 842,-30 698,-30"/>
<text text-anchor="start" x="706" y="-48" font-family="Helvetica,sans-Serif" font-size="10.00">slogo.UI.MethodRunner.set</text>
<text text-anchor="middle" x="770" y="-37" font-family="Helvetica,sans-Serif" font-size="10.00">PenAttributes</text>
</a>
</g>
</g>
<!-- Node35&#45;&gt;Node36 -->
<g id="edge45" class="edge"><title>Node35&#45;&gt;Node36</title>
<path fill="none" stroke="midnightblue" d="M666.154,-43.8821C676.68,-43.9965 687.398,-44.113 697.747,-44.2255"/>
<polygon fill="midnightblue" stroke="midnightblue" points="666.177,-40.3822 656.139,-43.7733 666.101,-47.3818 666.177,-40.3822"/>
</g>
<!-- Node36&#45;&gt;Node4 -->
<g id="edge46" class="edge"><title>Node36&#45;&gt;Node4</title>
<path fill="none" stroke="midnightblue" d="M852.28,-54.5115C860.719,-55.4991 869.298,-56.5029 877.736,-57.4904"/>
<polygon fill="midnightblue" stroke="midnightblue" points="852.414,-51.0033 842.075,-53.3173 851.6,-57.9559 852.414,-51.0033"/>
</g>
</g>
</svg>
