<?xml version="1.0" encoding="UTF-8" standalone="no"?>
<!DOCTYPE svg PUBLIC "-//W3C//DTD SVG 1.1//EN"
 "http://www.w3.org/Graphics/SVG/1.1/DTD/svg11.dtd">
<!-- Generated by graphviz version 2.36.0 (20140111.2315)
 -->
<!-- Title: slogo.UI.Main.start Pages: 1 -->
<svg width="1058pt" height="60pt"
 viewBox="0.00 0.00 1058.00 60.00" xmlns="http://www.w3.org/2000/svg" xmlns:xlink="http://www.w3.org/1999/xlink">
<g id="graph0" class="graph" transform="scale(1 1) rotate(0) translate(4 56)">
<title>slogo.UI.Main.start</title>
<polygon fill="white" stroke="none" points="-4,4 -4,-56 1054,-56 1054,4 -4,4"/>
<!-- Node1 -->
<g id="node1" class="node"><title>Node1</title>
<polygon fill="#bfbfbf" stroke="black" points="0,-5.5 0,-24.5 106,-24.5 106,-5.5 0,-5.5"/>
<text text-anchor="middle" x="53" y="-12.5" font-family="Helvetica,sans-Serif" font-size="10.00">slogo.UI.Main.start</text>
</g>
<!-- Node2 -->
<g id="node2" class="node"><title>Node2</title>
<g id="a_node2"><a xlink:href="../../db/d19/classslogo_1_1_u_i_1_1_module_creation_helper.html#a3be12a7cc2b8a219db1e296211a2cb88" target="_top" xlink:title="slogo.UI.ModuleCreationHelper.activate\lExtraWorkspaceButton">
<polygon fill="white" stroke="black" points="142.5,-22 142.5,-52 347.5,-52 347.5,-22 142.5,-22"/>
<text text-anchor="start" x="150.5" y="-40" font-family="Helvetica,sans-Serif" font-size="10.00">slogo.UI.ModuleCreationHelper.activate</text>
<text text-anchor="middle" x="245" y="-29" font-family="Helvetica,sans-Serif" font-size="10.00">ExtraWorkspaceButton</text>
</a>
</g>
</g>
<!-- Node1&#45;&gt;Node2 -->
<g id="edge1" class="edge"><title>Node1&#45;&gt;Node2</title>
<path fill="none" stroke="midnightblue" d="M116.218,-22.2042C124.632,-23.1785 133.438,-24.1981 142.321,-25.2267"/>
<polygon fill="midnightblue" stroke="midnightblue" points="116.506,-18.7142 106.17,-21.0407 115.701,-25.6678 116.506,-18.7142"/>
</g>
<!-- Node3 -->
<g id="node3" class="node"><title>Node3</title>
<g id="a_node3"><a xlink:href="../../db/d19/classslogo_1_1_u_i_1_1_module_creation_helper.html#a702c1ebe24d2857a10c666eb1fcc315d" target="_top" xlink:title="slogo.UI.ModuleCreationHelper.create\lExtraWorkspaceButton">
<polygon fill="white" stroke="black" points="384.5,-22 384.5,-52 581.5,-52 581.5,-22 384.5,-22"/>
<text text-anchor="start" x="392.5" y="-40" font-family="Helvetica,sans-Serif" font-size="10.00">slogo.UI.ModuleCreationHelper.create</text>
<text text-anchor="middle" x="483" y="-29" font-family="Helvetica,sans-Serif" font-size="10.00">ExtraWorkspaceButton</text>
</a>
</g>
</g>
<!-- Node2&#45;&gt;Node3 -->
<g id="edge2" class="edge"><title>Node2&#45;&gt;Node3</title>
<path fill="none" stroke="midnightblue" d="M358.051,-37C366.813,-37 375.618,-37 384.274,-37"/>
<polygon fill="midnightblue" stroke="midnightblue" points="357.798,-33.5001 347.798,-37 357.798,-40.5001 357.798,-33.5001"/>
</g>
<!-- Node4 -->
<g id="node4" class="node"><title>Node4</title>
<g id="a_node4"><a xlink:href="../../db/d19/classslogo_1_1_u_i_1_1_module_creation_helper.html#a7c650957b2389d6e6d36e8be8a33cd2b" target="_top" xlink:title="slogo.UI.ModuleCreationHelper.create\lSelectorVBoxModules">
<polygon fill="white" stroke="black" points="618.5,-22 618.5,-52 815.5,-52 815.5,-22 618.5,-22"/>
<text text-anchor="start" x="626.5" y="-40" font-family="Helvetica,sans-Serif" font-size="10.00">slogo.UI.ModuleCreationHelper.create</text>
<text text-anchor="middle" x="717" y="-29" font-family="Helvetica,sans-Serif" font-size="10.00">SelectorVBoxModules</text>
</a>
</g>
</g>
<!-- Node3&#45;&gt;Node4 -->
<g id="edge3" class="edge"><title>Node3&#45;&gt;Node4</title>
<path fill="none" stroke="midnightblue" d="M591.722,-37C600.618,-37 609.58,-37 618.396,-37"/>
<polygon fill="midnightblue" stroke="midnightblue" points="591.717,-33.5001 581.716,-37 591.716,-40.5001 591.717,-33.5001"/>
</g>
<!-- Node5 -->
<g id="node5" class="node"><title>Node5</title>
<g id="a_node5"><a xlink:href="../../db/d19/classslogo_1_1_u_i_1_1_module_creation_helper.html#afb9dbbbad7d872234a5b296fe129a34e" target="_top" xlink:title="slogo.UI.ModuleCreationHelper.create\lMainPageModules">
<polygon fill="white" stroke="black" points="852.5,-0 852.5,-30 1049.5,-30 1049.5,-0 852.5,-0"/>
<text text-anchor="start" x="860.5" y="-18" font-family="Helvetica,sans-Serif" font-size="10.00">slogo.UI.ModuleCreationHelper.create</text>
<text text-anchor="middle" x="951" y="-7" font-family="Helvetica,sans-Serif" font-size="10.00">MainPageModules</text>
</a>
</g>
</g>
<!-- Node4&#45;&gt;Node5 -->
<g id="edge4" class="edge"><title>Node4&#45;&gt;Node5</title>
<path fill="none" stroke="midnightblue" d="M825.722,-26.785C834.618,-25.9414 843.58,-25.0915 852.396,-24.2555"/>
<polygon fill="midnightblue" stroke="midnightblue" points="825.341,-23.3053 815.716,-27.7338 826.002,-30.274 825.341,-23.3053"/>
</g>
<!-- Node5&#45;&gt;Node1 -->
<g id="edge5" class="edge"><title>Node5&#45;&gt;Node1</title>
<path fill="none" stroke="midnightblue" d="M842.266,-12.3776C833.38,-12.2253 824.537,-12.0956 816,-12 516.463,-8.6474 441.512,-6.89616 142,-12 130.384,-12.1979 117.909,-12.5428 106.109,-12.9298"/>
<polygon fill="midnightblue" stroke="midnightblue" points="842.24,-15.8776 852.301,-12.5584 842.366,-8.87874 842.24,-15.8776"/>
</g>
</g>
</svg>
